<?xml version="1.0" encoding="UTF-8" standalone="no"?>
<!-- This is a Stata 16.1 generated SVG file (http://www.stata.com) -->

<svg version="1.1" width="1600px" height="1164px" viewBox="0 0 3960 2880" xmlns="http://www.w3.org/2000/svg" xmlns:xlink="http://www.w3.org/1999/xlink">
	<desc>Stata Graph - Graph</desc>
	<rect x="0" y="0" width="3960" height="2880" style="fill:#EAF2F3;stroke:none"/>
	<rect x="0.00" y="0.00" width="3959.88" height="2880.00" style="fill:#EAF2F3"/>
	<rect x="2.88" y="2.88" width="3954.12" height="2874.24" style="fill:none;stroke:#EAF2F3;stroke-width:5.76"/>
	<rect x="401.69" y="258.27" width="1676.81" height="1697.90" style="fill:#FFFFFF"/>
	<rect x="404.14" y="260.72" width="1671.92" height="1693.01" style="fill:none;stroke:#FFFFFF;stroke-width:4.90"/>
	<line x1="401.69" y1="1902.22" x2="2078.51" y2="1902.22" style="stroke:#EAF2F3;stroke-width:7.34"/>
	<line x1="401.69" y1="1637.02" x2="2078.51" y2="1637.02" style="stroke:#EAF2F3;stroke-width:7.34"/>
	<line x1="401.69" y1="1371.69" x2="2078.51" y2="1371.69" style="stroke:#EAF2F3;stroke-width:7.34"/>
	<line x1="401.69" y1="1106.48" x2="2078.51" y2="1106.48" style="stroke:#EAF2F3;stroke-width:7.34"/>
	<line x1="401.69" y1="841.16" x2="2078.51" y2="841.16" style="stroke:#EAF2F3;stroke-width:7.34"/>
	<line x1="401.69" y1="575.95" x2="2078.51" y2="575.95" style="stroke:#EAF2F3;stroke-width:7.34"/>
	<rect x="2147.68" y="258.27" width="1676.81" height="1697.90" style="fill:#FFFFFF"/>
	<rect x="2150.13" y="260.72" width="1671.92" height="1693.01" style="fill:none;stroke:#FFFFFF;stroke-width:4.90"/>
	<line x1="2147.68" y1="1902.22" x2="3824.49" y2="1902.22" style="stroke:#EAF2F3;stroke-width:7.34"/>
	<line x1="2147.68" y1="1637.02" x2="3824.49" y2="1637.02" style="stroke:#EAF2F3;stroke-width:7.34"/>
	<line x1="2147.68" y1="1371.69" x2="3824.49" y2="1371.69" style="stroke:#EAF2F3;stroke-width:7.34"/>
	<line x1="2147.68" y1="1106.48" x2="3824.49" y2="1106.48" style="stroke:#EAF2F3;stroke-width:7.34"/>
	<line x1="2147.68" y1="841.16" x2="3824.49" y2="841.16" style="stroke:#EAF2F3;stroke-width:7.34"/>
	<line x1="2147.68" y1="575.95" x2="3824.49" y2="575.95" style="stroke:#EAF2F3;stroke-width:7.34"/>
	<defs>
		<path id="path_wxVGnKmD" d="M455.52 1902.22 L455.52 1902.22 L480.89 1902.22 L506.14 1902.22 L531.51 1902.22 L556.75 1902.10 L582.12 1902.10 L607.37 1902.10 L632.73 1902.10 L657.98 1901.97 L683.35 1901.97 L708.59 1901.85 L733.96 1901.73 L759.21 1901.60 L784.58 1901.48 L809.82 1901.35 L835.19 1901.23 L860.43 1900.98 L885.80 1900.74 L911.05 1900.49 L936.42 1900.24 L961.66 1899.87 L987.03 1899.50 L1012.27 1899.13 L1037.64 1898.76 L1062.89 1898.26 L1088.26 1897.77 L1113.50 1897.27 L1138.87 1896.65 L1164.24 1896.03 L1189.48 1895.29 L1214.85 1894.55 L1240.10 1893.68 L1265.47 1892.82 L1290.71 1891.83 L1316.08 1890.71 L1341.33 1889.47 L1366.69 1888.11 L1391.94 1886.75 L1417.31 1885.14 L1442.55 1883.41 L1467.92 1881.43 L1493.17 1879.20 L1518.54 1876.85 L1543.78 1874.25 L1569.15 1871.28 L1594.39 1867.94 L1619.76 1864.35 L1645.01 1860.27 L1670.38 1855.69 L1695.62 1850.62 L1720.99 1845.05 L1746.24 1838.73 L1771.61 1831.68 L1796.85 1823.88 L1822.22 1815.22 L1847.46 1805.45 L1872.83 1794.68 L1898.20 1782.55 L1923.45 1769.06 L1948.82 1754.09 L1974.06 1737.38 L1999.43 1718.69 L2024.67 1698.03 L2024.67 1652.49 L1999.43 1677.85 L1974.06 1700.50 L1948.82 1720.92 L1923.45 1739.24 L1898.20 1755.70 L1872.83 1770.42 L1847.46 1783.66 L1822.22 1795.42 L1796.85 1806.06 L1771.61 1815.59 L1746.24 1824.26 L1720.99 1831.93 L1695.62 1838.86 L1670.38 1845.05 L1645.01 1850.62 L1619.76 1855.57 L1594.39 1860.02 L1569.15 1864.10 L1543.78 1867.69 L1518.54 1870.91 L1493.17 1873.88 L1467.92 1876.48 L1442.55 1878.83 L1417.31 1880.81 L1391.94 1882.79 L1366.69 1884.40 L1341.33 1886.01 L1316.08 1887.37 L1290.71 1888.73 L1265.47 1889.85 L1240.10 1890.96 L1214.85 1891.95 L1189.48 1892.94 L1164.24 1893.81 L1138.87 1894.67 L1113.50 1895.41 L1088.26 1896.03 L1062.89 1896.78 L1037.64 1897.39 L1012.27 1897.89 L987.03 1898.38 L961.66 1898.76 L936.42 1899.25 L911.05 1899.50 L885.80 1899.87 L860.43 1900.12 L835.19 1900.36 L809.82 1900.61 L784.58 1900.74 L759.21 1900.98 L733.96 1901.11 L708.59 1901.23 L683.35 1901.35 L657.98 1901.48 L632.73 1901.48 L607.37 1901.60 L582.12 1901.73 L556.75 1901.73 L531.51 1901.85 L506.14 1901.85 L480.89 1901.85 L455.52 1901.97 L455.52 1902.22 Z" stroke-linejoin="round"/>
	</defs>
	<defs>
		<clipPath id="clipPath_PTEfuMGo">
			<use xlink:href="#path_wxVGnKmD"/>
		</clipPath>
	</defs>
	<use xlink:href="#path_wxVGnKmD" style="stroke:none;fill:#E6E6E6"/>
	<use xlink:href="#path_wxVGnKmD" style="fill:none;stroke:#E0E0E0;stroke-width:14.69" clip-path="url(#clipPath_PTEfuMGo)"/>
	<defs>
		<path id="path_cfGhOPNs" d="M455.52 1902.22 L455.52 1902.22 L480.89 1902.22 L506.14 1902.10 L531.51 1902.10 L556.75 1902.10 L582.12 1901.97 L607.37 1901.97 L632.73 1901.85 L657.98 1901.85 L683.35 1901.73 L708.59 1901.60 L733.96 1901.35 L759.21 1901.23 L784.58 1900.98 L809.82 1900.74 L835.19 1900.49 L860.43 1900.12 L885.80 1899.75 L911.05 1899.37 L936.42 1898.88 L961.66 1898.38 L987.03 1897.77 L1012.27 1897.15 L1037.64 1896.53 L1062.89 1895.79 L1088.26 1895.04 L1113.50 1894.18 L1138.87 1893.19 L1164.24 1892.20 L1189.48 1891.08 L1214.85 1889.85 L1240.10 1888.48 L1265.47 1887.00 L1290.71 1885.39 L1316.08 1883.66 L1341.33 1881.80 L1366.69 1879.70 L1391.94 1877.35 L1417.31 1874.87 L1442.55 1872.02 L1467.92 1868.93 L1493.17 1865.59 L1518.54 1861.75 L1543.78 1857.55 L1569.15 1852.84 L1594.39 1847.65 L1619.76 1841.83 L1645.01 1835.27 L1670.38 1828.09 L1695.62 1820.05 L1720.99 1811.14 L1746.24 1801.11 L1771.61 1789.98 L1796.85 1777.60 L1822.22 1763.74 L1847.46 1748.39 L1872.83 1731.19 L1898.20 1712.01 L1923.45 1690.60 L1948.82 1666.84 L1974.06 1640.36 L1999.43 1610.78 L2024.67 1577.86 L2024.67 1422.92 L1999.43 1471.68 L1974.06 1515.37 L1948.82 1554.47 L1923.45 1589.62 L1898.20 1621.18 L1872.83 1649.52 L1847.46 1674.88 L1822.22 1697.66 L1796.85 1718.07 L1771.61 1736.39 L1746.24 1752.73 L1720.99 1767.58 L1695.62 1780.69 L1670.38 1792.70 L1645.01 1803.34 L1619.76 1812.87 L1594.39 1821.41 L1569.15 1829.21 L1543.78 1836.14 L1518.54 1842.32 L1493.17 1847.89 L1467.92 1852.84 L1442.55 1857.42 L1417.31 1861.38 L1391.94 1865.09 L1366.69 1868.31 L1341.33 1871.28 L1316.08 1874.13 L1290.71 1876.60 L1265.47 1878.83 L1240.10 1880.94 L1214.85 1882.92 L1189.48 1884.77 L1164.24 1886.38 L1138.87 1887.87 L1113.50 1889.35 L1088.26 1890.71 L1062.89 1891.95 L1037.64 1893.06 L1012.27 1894.05 L987.03 1895.04 L961.66 1895.79 L936.42 1896.53 L911.05 1897.27 L885.80 1897.89 L860.43 1898.38 L835.19 1898.76 L809.82 1899.25 L784.58 1899.50 L759.21 1899.87 L733.96 1900.12 L708.59 1900.36 L683.35 1900.61 L657.98 1900.74 L632.73 1900.98 L607.37 1901.11 L582.12 1901.23 L556.75 1901.35 L531.51 1901.48 L506.14 1901.48 L480.89 1901.60 L455.52 1901.73 L455.52 1902.22 Z" stroke-linejoin="round"/>
	</defs>
	<defs>
		<clipPath id="clipPath_cewyIqzX">
			<use xlink:href="#path_cfGhOPNs"/>
		</clipPath>
	</defs>
	<use xlink:href="#path_cfGhOPNs" style="stroke:none;fill:#E6E6E6"/>
	<use xlink:href="#path_cfGhOPNs" style="fill:none;stroke:#E0E0E0;stroke-width:14.69" clip-path="url(#clipPath_cewyIqzX)"/>
	<defs>
		<path id="path_sHVamEIo" d="M455.52 1902.22 L455.52 1902.22 L480.89 1902.22 L506.14 1902.22 L531.51 1902.10 L556.75 1902.10 L582.12 1902.10 L607.37 1901.97 L632.73 1901.97 L657.98 1901.85 L683.35 1901.85 L708.59 1901.73 L733.96 1901.60 L759.21 1901.48 L784.58 1901.23 L809.82 1901.11 L835.19 1900.86 L860.43 1900.49 L885.80 1900.24 L911.05 1899.87 L936.42 1899.50 L961.66 1899.13 L987.03 1898.63 L1012.27 1898.01 L1037.64 1897.52 L1062.89 1896.90 L1088.26 1896.28 L1113.50 1895.54 L1138.87 1894.80 L1164.24 1893.81 L1189.48 1892.94 L1214.85 1891.95 L1240.10 1890.71 L1265.47 1889.47 L1290.71 1888.11 L1316.08 1886.75 L1341.33 1885.02 L1366.69 1883.29 L1391.94 1881.31 L1417.31 1879.20 L1442.55 1876.85 L1467.92 1874.25 L1493.17 1871.28 L1518.54 1868.06 L1543.78 1864.48 L1569.15 1860.52 L1594.39 1856.18 L1619.76 1851.23 L1645.01 1845.79 L1670.38 1839.60 L1695.62 1832.79 L1720.99 1825.25 L1746.24 1816.71 L1771.61 1807.30 L1796.85 1796.66 L1822.22 1784.90 L1847.46 1771.78 L1872.83 1757.06 L1898.20 1740.72 L1923.45 1722.41 L1948.82 1702.11 L1974.06 1679.34 L1999.43 1654.09 L2024.67 1625.88 L2024.67 1560.17 L1999.43 1594.69 L1974.06 1625.75 L1948.82 1653.60 L1923.45 1678.60 L1898.20 1701.00 L1872.83 1721.17 L1847.46 1739.24 L1822.22 1755.45 L1796.85 1770.05 L1771.61 1783.05 L1746.24 1794.80 L1720.99 1805.45 L1695.62 1814.85 L1670.38 1823.39 L1645.01 1831.06 L1619.76 1837.87 L1594.39 1844.06 L1569.15 1849.63 L1543.78 1854.58 L1518.54 1859.03 L1493.17 1862.99 L1467.92 1866.70 L1442.55 1869.92 L1417.31 1872.77 L1391.94 1875.37 L1366.69 1877.72 L1341.33 1879.82 L1316.08 1881.80 L1290.71 1883.53 L1265.47 1885.27 L1240.10 1886.75 L1214.85 1888.11 L1189.48 1889.47 L1164.24 1890.71 L1138.87 1891.83 L1113.50 1892.82 L1088.26 1893.81 L1062.89 1894.67 L1037.64 1895.54 L1012.27 1896.28 L987.03 1896.90 L961.66 1897.52 L936.42 1898.01 L911.05 1898.51 L885.80 1899.00 L860.43 1899.37 L835.19 1899.62 L809.82 1899.99 L784.58 1900.24 L759.21 1900.49 L733.96 1900.61 L708.59 1900.86 L683.35 1900.98 L657.98 1901.11 L632.73 1901.23 L607.37 1901.35 L582.12 1901.48 L556.75 1901.60 L531.51 1901.60 L506.14 1901.73 L480.89 1901.73 L455.52 1901.85 L455.52 1902.22 Z" stroke-linejoin="round"/>
	</defs>
	<defs>
		<clipPath id="clipPath_dRvorDhX">
			<use xlink:href="#path_sHVamEIo"/>
		</clipPath>
	</defs>
	<use xlink:href="#path_sHVamEIo" style="stroke:none;fill:#E6E6E6"/>
	<use xlink:href="#path_sHVamEIo" style="fill:none;stroke:#E0E0E0;stroke-width:14.69" clip-path="url(#clipPath_dRvorDhX)"/>
	<defs>
		<path id="path_qWEUPnlr" d="M455.52 1902.10 L455.52 1902.10 L480.89 1902.10 L506.14 1902.10 L531.51 1901.97 L556.75 1901.97 L582.12 1901.85 L607.37 1901.85 L632.73 1901.73 L657.98 1901.60 L683.35 1901.48 L708.59 1901.23 L733.96 1900.98 L759.21 1900.74 L784.58 1900.49 L809.82 1900.12 L835.19 1899.62 L860.43 1899.13 L885.80 1898.63 L911.05 1898.01 L936.42 1897.27 L961.66 1896.53 L987.03 1895.66 L1012.27 1894.67 L1037.64 1893.68 L1062.89 1892.57 L1088.26 1891.45 L1113.50 1890.09 L1138.87 1888.73 L1164.24 1887.12 L1189.48 1885.51 L1214.85 1883.66 L1240.10 1881.68 L1265.47 1879.45 L1290.71 1877.10 L1316.08 1874.38 L1341.33 1871.53 L1366.69 1868.44 L1391.94 1864.97 L1417.31 1861.13 L1442.55 1856.93 L1467.92 1852.22 L1493.17 1847.15 L1518.54 1841.46 L1543.78 1835.02 L1569.15 1827.97 L1594.39 1820.17 L1619.76 1811.39 L1645.01 1801.61 L1670.38 1790.72 L1695.62 1778.59 L1720.99 1765.10 L1746.24 1750.00 L1771.61 1733.17 L1796.85 1714.49 L1822.22 1693.45 L1847.46 1670.06 L1872.83 1644.07 L1898.20 1614.86 L1923.45 1582.44 L1948.82 1546.30 L1974.06 1505.96 L1999.43 1460.91 L2024.67 1410.92 L2024.67 1263.53 L1999.43 1328.00 L1974.06 1385.92 L1948.82 1437.90 L1923.45 1484.55 L1898.20 1526.38 L1872.83 1564.00 L1847.46 1597.79 L1822.22 1628.11 L1796.85 1655.33 L1771.61 1679.71 L1746.24 1701.74 L1720.99 1721.42 L1695.62 1739.11 L1670.38 1754.95 L1645.01 1769.31 L1619.76 1782.06 L1594.39 1793.56 L1569.15 1803.96 L1543.78 1813.24 L1518.54 1821.66 L1493.17 1829.08 L1467.92 1835.89 L1442.55 1841.83 L1417.31 1847.27 L1391.94 1852.22 L1366.69 1856.56 L1341.33 1860.64 L1316.08 1864.23 L1290.71 1867.57 L1265.47 1870.66 L1240.10 1873.51 L1214.85 1876.11 L1189.48 1878.46 L1164.24 1880.81 L1138.87 1882.92 L1113.50 1884.77 L1088.26 1886.63 L1062.89 1888.24 L1037.64 1889.72 L1012.27 1891.21 L987.03 1892.44 L961.66 1893.56 L936.42 1894.55 L911.05 1895.41 L885.80 1896.16 L860.43 1896.90 L835.19 1897.52 L809.82 1898.01 L784.58 1898.51 L759.21 1898.88 L733.96 1899.25 L708.59 1899.62 L683.35 1899.87 L657.98 1900.12 L632.73 1900.36 L607.37 1900.61 L582.12 1900.74 L556.75 1900.98 L531.51 1901.11 L506.14 1901.23 L480.89 1901.35 L455.52 1901.48 L455.52 1902.10 Z" stroke-linejoin="round"/>
	</defs>
	<defs>
		<clipPath id="clipPath_JNyedylR">
			<use xlink:href="#path_qWEUPnlr"/>
		</clipPath>
	</defs>
	<use xlink:href="#path_qWEUPnlr" style="stroke:none;fill:#E6E6E6"/>
	<use xlink:href="#path_qWEUPnlr" style="fill:none;stroke:#E0E0E0;stroke-width:14.69" clip-path="url(#clipPath_JNyedylR)"/>
	<defs>
		<path id="path_SFzuIOZb" d="M455.52 1902.10 L455.52 1902.10 L480.89 1902.10 L506.14 1901.97 L531.51 1901.97 L556.75 1901.85 L582.12 1901.73 L607.37 1901.73 L632.73 1901.48 L657.98 1901.35 L683.35 1901.23 L708.59 1900.98 L733.96 1900.61 L759.21 1900.36 L784.58 1899.99 L809.82 1899.50 L835.19 1899.00 L860.43 1898.38 L885.80 1897.77 L911.05 1897.02 L936.42 1896.16 L961.66 1895.17 L987.03 1894.18 L1012.27 1893.06 L1037.64 1891.95 L1062.89 1890.59 L1088.26 1889.10 L1113.50 1887.62 L1138.87 1885.89 L1164.24 1884.03 L1189.48 1882.05 L1214.85 1879.82 L1240.10 1877.47 L1265.47 1874.87 L1290.71 1872.02 L1316.08 1868.93 L1341.33 1865.47 L1366.69 1861.75 L1391.94 1857.67 L1417.31 1853.21 L1442.55 1848.26 L1467.92 1842.70 L1493.17 1836.63 L1518.54 1829.82 L1543.78 1822.28 L1569.15 1813.98 L1594.39 1804.58 L1619.76 1794.31 L1645.01 1782.67 L1670.38 1769.80 L1695.62 1755.57 L1720.99 1739.61 L1746.24 1721.79 L1771.61 1701.99 L1796.85 1679.83 L1822.22 1655.21 L1847.46 1627.73 L1872.83 1597.17 L1898.20 1563.01 L1923.45 1525.02 L1948.82 1482.70 L1974.06 1435.42 L1999.43 1382.95 L2024.67 1324.41 L2024.67 861.70 L1999.43 967.38 L1974.06 1062.30 L1948.82 1147.32 L1923.45 1223.80 L1898.20 1292.24 L1872.83 1353.74 L1847.46 1408.81 L1822.22 1458.19 L1796.85 1502.62 L1771.61 1542.34 L1746.24 1578.11 L1720.99 1610.04 L1695.62 1638.75 L1670.38 1664.61 L1645.01 1687.76 L1619.76 1708.42 L1594.39 1727.11 L1569.15 1743.82 L1543.78 1758.79 L1518.54 1772.28 L1493.17 1784.41 L1467.92 1795.30 L1442.55 1805.07 L1417.31 1813.86 L1391.94 1821.78 L1366.69 1828.96 L1341.33 1835.52 L1316.08 1841.46 L1290.71 1846.78 L1265.47 1851.85 L1240.10 1856.43 L1214.85 1860.64 L1189.48 1864.48 L1164.24 1868.19 L1138.87 1871.53 L1113.50 1874.62 L1088.26 1877.47 L1062.89 1880.07 L1037.64 1882.54 L1012.27 1884.77 L987.03 1886.75 L961.66 1888.48 L936.42 1890.09 L911.05 1891.58 L885.80 1892.82 L860.43 1894.05 L835.19 1894.92 L809.82 1895.79 L784.58 1896.53 L759.21 1897.27 L733.96 1897.77 L708.59 1898.38 L683.35 1898.76 L657.98 1899.13 L632.73 1899.50 L607.37 1899.87 L582.12 1900.12 L556.75 1900.36 L531.51 1900.61 L506.14 1900.74 L480.89 1900.86 L455.52 1901.11 L455.52 1902.10 Z" stroke-linejoin="round"/>
	</defs>
	<defs>
		<clipPath id="clipPath_pPVOjWsl">
			<use xlink:href="#path_SFzuIOZb"/>
		</clipPath>
	</defs>
	<use xlink:href="#path_SFzuIOZb" style="stroke:none;fill:#E6E6E6"/>
	<use xlink:href="#path_SFzuIOZb" style="fill:none;stroke:#E0E0E0;stroke-width:14.69" clip-path="url(#clipPath_pPVOjWsl)"/>
	<path d=" M455.52 1902.10 L480.77 1902.10 L506.14 1901.97 L531.38 1901.97 L556.75 1901.85 L582.00 1901.85 L607.37 1901.73 L632.61 1901.60 L657.98 1901.48 L683.22 1901.35 L708.59 1901.11 L733.84 1900.98 L759.21 1900.74 L784.45 1900.49 L809.82 1900.24 L835.07 1899.87 L860.43 1899.50 L885.68 1899.00 L911.05 1898.51 L936.29 1898.01 L961.66 1897.27 L986.91 1896.65 L1012.27 1895.91 L1037.52 1895.04 L1062.89 1894.18 L1088.13 1893.19 L1113.50 1892.07 L1138.87 1890.96 L1164.12 1889.60 L1189.48 1888.24 L1214.73 1886.75 L1240.10 1885.14 L1265.34 1883.41 L1290.71 1881.55 L1315.96 1879.45 L1341.33 1877.10 L1366.57 1874.62 L1391.94 1871.90 L1417.18 1868.93 L1442.55 1865.47 L1467.80 1861.75 L1493.17 1857.67 L1518.41 1853.09 L1543.78 1847.89 L1569.03 1842.20 L1594.39 1835.89 L1619.64 1828.83 L1645.01 1820.91 L1670.25 1812.13 L1695.62 1802.35 L1720.87 1791.46 L1746.24 1779.33 L1771.48 1765.84 L1796.85 1750.75 L1822.10 1733.92 L1847.46 1715.23 L1872.71 1694.31 L1898.08 1671.05 L1923.45 1645.06 L1948.69 1616.23 L1974.06 1583.93 L1999.31 1548.04 L2024.67 1508.06" stroke-linejoin="round" style="fill:none;stroke:#FF0000;stroke-width:7.34"/>
	<path d=" M455.52 1902.10 L480.77 1902.10 L506.14 1902.10 L531.38 1902.10 L556.75 1901.97 L582.00 1901.97 L607.37 1901.85 L632.61 1901.73 L657.98 1901.73 L683.22 1901.60 L708.59 1901.48 L733.84 1901.23 L759.21 1901.11 L784.45 1900.86 L809.82 1900.61 L835.07 1900.36 L860.43 1900.12 L885.68 1899.75 L911.05 1899.37 L936.29 1898.88 L961.66 1898.38 L986.91 1897.89 L1012.27 1897.27 L1037.52 1896.65 L1062.89 1895.91 L1088.13 1895.17 L1113.50 1894.30 L1138.87 1893.43 L1164.12 1892.44 L1189.48 1891.33 L1214.73 1890.22 L1240.10 1888.98 L1265.34 1887.62 L1290.71 1886.13 L1315.96 1884.52 L1341.33 1882.67 L1366.57 1880.81 L1391.94 1878.58 L1417.18 1876.23 L1442.55 1873.63 L1467.80 1870.66 L1493.17 1867.45 L1518.41 1863.86 L1543.78 1859.90 L1569.03 1855.44 L1594.39 1850.49 L1619.64 1845.05 L1645.01 1838.86 L1670.25 1832.05 L1695.62 1824.38 L1720.87 1815.96 L1746.24 1806.44 L1771.48 1795.92 L1796.85 1784.16 L1822.10 1771.04 L1847.46 1756.44 L1872.71 1740.10 L1898.08 1722.04 L1923.45 1701.74 L1948.69 1679.22 L1974.06 1654.09 L1999.31 1626.00 L2024.67 1594.82" stroke-linejoin="round" style="fill:none;stroke:#FFD200;stroke-width:7.34"/>
	<path d=" M455.52 1901.97 L480.77 1901.97 L506.14 1901.85 L531.38 1901.85 L556.75 1901.73 L582.00 1901.60 L607.37 1901.48 L632.61 1901.35 L657.98 1901.11 L683.22 1900.86 L708.59 1900.74 L733.84 1900.36 L759.21 1900.12 L784.45 1899.75 L809.82 1899.25 L835.07 1898.76 L860.43 1898.26 L885.68 1897.64 L911.05 1896.90 L936.29 1896.16 L961.66 1895.17 L986.91 1894.30 L1012.27 1893.19 L1037.52 1891.95 L1062.89 1890.71 L1088.13 1889.35 L1113.50 1887.74 L1138.87 1886.13 L1164.12 1884.28 L1189.48 1882.42 L1214.73 1880.32 L1240.10 1877.96 L1265.34 1875.49 L1290.71 1872.77 L1315.96 1869.80 L1341.33 1866.58 L1366.57 1862.99 L1391.94 1859.03 L1417.18 1854.82 L1442.55 1850.00 L1467.80 1844.68 L1493.17 1838.86 L1518.41 1832.30 L1543.78 1825.00 L1569.03 1816.83 L1594.39 1807.92 L1619.64 1797.77 L1645.01 1786.63 L1670.25 1774.14 L1695.62 1760.28 L1720.87 1744.81 L1746.24 1727.60 L1771.48 1708.42 L1796.85 1687.01 L1822.10 1663.13 L1847.46 1636.40 L1872.71 1606.82 L1898.08 1573.65 L1923.45 1536.78 L1948.69 1495.69 L1974.06 1449.90 L1999.31 1398.91 L2024.67 1342.11" stroke-linejoin="round" style="fill:none;stroke:#FF7F00;stroke-width:7.34"/>
	<path d=" M455.52 1901.85 L480.77 1901.85 L506.14 1901.73 L531.38 1901.60 L556.75 1901.48 L582.00 1901.35 L607.37 1901.11 L632.61 1900.86 L657.98 1900.61 L683.22 1900.36 L708.59 1899.99 L733.84 1899.62 L759.21 1899.25 L784.45 1898.63 L809.82 1898.14 L835.07 1897.39 L860.43 1896.65 L885.68 1895.79 L911.05 1894.80 L936.29 1893.68 L961.66 1892.44 L986.91 1891.08 L1012.27 1889.60 L1037.52 1887.99 L1062.89 1886.26 L1088.13 1884.28 L1113.50 1882.17 L1138.87 1879.82 L1164.12 1877.35 L1189.48 1874.75 L1214.73 1871.78 L1240.10 1868.56 L1265.34 1865.09 L1290.71 1861.38 L1315.96 1857.30 L1341.33 1852.72 L1366.57 1847.89 L1391.94 1842.45 L1417.18 1836.51 L1442.55 1829.82 L1467.80 1822.52 L1493.17 1814.36 L1518.41 1805.32 L1543.78 1795.30 L1569.03 1784.04 L1594.39 1771.54 L1619.64 1757.68 L1645.01 1742.21 L1670.25 1724.88 L1695.62 1705.70 L1720.87 1684.29 L1746.24 1660.41 L1771.48 1633.80 L1796.85 1604.10 L1822.10 1571.06 L1847.46 1534.30 L1872.71 1493.21 L1898.08 1447.43 L1923.45 1396.31 L1948.69 1339.51 L1974.06 1276.15 L1999.31 1205.49 L2024.67 1126.90" stroke-linejoin="round" style="fill:none;stroke:#008000;stroke-width:7.34"/>
	<path d=" M455.52 1902.22 L480.77 1902.22 L506.14 1902.10 L531.38 1902.10 L556.75 1902.10 L582.00 1902.10 L607.37 1901.97 L632.61 1901.97 L657.98 1901.85 L683.22 1901.73 L708.59 1901.73 L733.84 1901.60 L759.21 1901.48 L784.45 1901.23 L809.82 1901.11 L835.07 1900.86 L860.43 1900.74 L885.68 1900.49 L911.05 1900.12 L936.29 1899.87 L961.66 1899.50 L986.91 1899.13 L1012.27 1898.63 L1037.52 1898.14 L1062.89 1897.64 L1088.13 1897.02 L1113.50 1896.53 L1138.87 1895.79 L1164.12 1895.04 L1189.48 1894.30 L1214.73 1893.43 L1240.10 1892.57 L1265.34 1891.45 L1290.71 1890.46 L1315.96 1889.23 L1341.33 1887.87 L1366.57 1886.50 L1391.94 1884.90 L1417.18 1883.16 L1442.55 1881.31 L1467.80 1879.08 L1493.17 1876.73 L1518.41 1874.13 L1543.78 1871.16 L1569.03 1867.94 L1594.39 1864.23 L1619.64 1860.27 L1645.01 1855.69 L1670.25 1850.74 L1695.62 1845.05 L1720.87 1838.86 L1746.24 1831.93 L1771.48 1824.13 L1796.85 1815.59 L1822.10 1805.94 L1847.46 1795.17 L1872.71 1783.17 L1898.08 1769.80 L1923.45 1754.95 L1948.69 1738.37 L1974.06 1719.93 L1999.31 1699.39 L2024.67 1676.49" stroke-linejoin="round" style="fill:none;stroke:#1A476F;stroke-width:7.34"/>
	<line x1="455.52" y1="1855.69" x2="458.37" y2="1855.69" style="stroke:#000000;stroke-width:7.34"/>
	<line x1="478.54" y1="1855.69" x2="480.77" y2="1855.69" style="stroke:#000000;stroke-width:7.34"/>
	<line x1="480.77" y1="1855.69" x2="481.39" y2="1855.69" style="stroke:#000000;stroke-width:7.34"/>
	<line x1="501.56" y1="1855.69" x2="504.40" y2="1855.69" style="stroke:#000000;stroke-width:7.34"/>
	<line x1="524.58" y1="1855.69" x2="527.42" y2="1855.69" style="stroke:#000000;stroke-width:7.34"/>
	<line x1="547.59" y1="1855.69" x2="550.44" y2="1855.69" style="stroke:#000000;stroke-width:7.34"/>
	<line x1="570.61" y1="1855.69" x2="573.58" y2="1855.69" style="stroke:#000000;stroke-width:7.34"/>
	<line x1="593.75" y1="1855.69" x2="596.60" y2="1855.69" style="stroke:#000000;stroke-width:7.34"/>
	<line x1="616.77" y1="1855.69" x2="619.62" y2="1855.69" style="stroke:#000000;stroke-width:7.34"/>
	<line x1="639.79" y1="1855.69" x2="642.63" y2="1855.69" style="stroke:#000000;stroke-width:7.34"/>
	<line x1="662.80" y1="1855.69" x2="665.65" y2="1855.69" style="stroke:#000000;stroke-width:7.34"/>
	<line x1="685.82" y1="1855.69" x2="688.67" y2="1855.69" style="stroke:#000000;stroke-width:7.34"/>
	<line x1="708.84" y1="1855.69" x2="711.69" y2="1855.69" style="stroke:#000000;stroke-width:7.34"/>
	<line x1="731.86" y1="1855.69" x2="733.84" y2="1855.69" style="stroke:#000000;stroke-width:7.34"/>
	<line x1="733.84" y1="1855.69" x2="734.70" y2="1855.69" style="stroke:#000000;stroke-width:7.34"/>
	<line x1="754.88" y1="1855.69" x2="757.72" y2="1855.69" style="stroke:#000000;stroke-width:7.34"/>
	<line x1="777.89" y1="1855.69" x2="780.74" y2="1855.69" style="stroke:#000000;stroke-width:7.34"/>
	<line x1="800.91" y1="1855.69" x2="803.88" y2="1855.69" style="stroke:#000000;stroke-width:7.34"/>
	<line x1="823.93" y1="1855.69" x2="826.90" y2="1855.69" style="stroke:#000000;stroke-width:7.34"/>
	<line x1="847.07" y1="1855.69" x2="849.91" y2="1855.69" style="stroke:#000000;stroke-width:7.34"/>
	<line x1="870.09" y1="1855.69" x2="872.93" y2="1855.69" style="stroke:#000000;stroke-width:7.34"/>
	<line x1="893.10" y1="1855.69" x2="895.95" y2="1855.69" style="stroke:#000000;stroke-width:7.34"/>
	<line x1="916.12" y1="1855.69" x2="918.97" y2="1855.69" style="stroke:#000000;stroke-width:7.34"/>
	<line x1="939.14" y1="1855.69" x2="941.99" y2="1855.69" style="stroke:#000000;stroke-width:7.34"/>
	<line x1="962.16" y1="1855.69" x2="965.00" y2="1855.69" style="stroke:#000000;stroke-width:7.34"/>
	<line x1="985.17" y1="1855.69" x2="986.91" y2="1855.69" style="stroke:#000000;stroke-width:7.34"/>
	<line x1="986.91" y1="1855.69" x2="988.02" y2="1855.69" style="stroke:#000000;stroke-width:7.34"/>
	<line x1="1008.19" y1="1855.69" x2="1011.04" y2="1855.69" style="stroke:#000000;stroke-width:7.34"/>
	<line x1="1031.21" y1="1855.69" x2="1034.06" y2="1855.69" style="stroke:#000000;stroke-width:7.34"/>
	<line x1="1054.23" y1="1855.69" x2="1057.20" y2="1855.69" style="stroke:#000000;stroke-width:7.34"/>
	<line x1="1077.24" y1="1855.69" x2="1080.21" y2="1855.69" style="stroke:#000000;stroke-width:7.34"/>
	<line x1="1100.38" y1="1855.69" x2="1103.23" y2="1855.69" style="stroke:#000000;stroke-width:7.34"/>
	<line x1="1123.40" y1="1855.69" x2="1126.25" y2="1855.69" style="stroke:#000000;stroke-width:7.34"/>
	<line x1="1146.42" y1="1855.69" x2="1149.27" y2="1855.69" style="stroke:#000000;stroke-width:7.34"/>
	<line x1="1169.44" y1="1855.69" x2="1172.28" y2="1855.69" style="stroke:#000000;stroke-width:7.34"/>
	<line x1="1192.45" y1="1855.69" x2="1195.30" y2="1855.69" style="stroke:#000000;stroke-width:7.34"/>
	<line x1="1215.47" y1="1855.69" x2="1218.32" y2="1855.69" style="stroke:#000000;stroke-width:7.34"/>
	<line x1="1238.49" y1="1855.69" x2="1240.10" y2="1855.69" style="stroke:#000000;stroke-width:7.34"/>
	<line x1="1240.10" y1="1855.69" x2="1241.34" y2="1855.69" style="stroke:#000000;stroke-width:7.34"/>
	<line x1="1261.51" y1="1855.69" x2="1264.35" y2="1855.69" style="stroke:#000000;stroke-width:7.34"/>
	<line x1="1284.53" y1="1855.69" x2="1287.37" y2="1855.69" style="stroke:#000000;stroke-width:7.34"/>
	<line x1="1307.54" y1="1855.69" x2="1310.51" y2="1855.69" style="stroke:#000000;stroke-width:7.34"/>
	<line x1="1330.56" y1="1855.69" x2="1333.53" y2="1855.69" style="stroke:#000000;stroke-width:7.34"/>
	<line x1="1353.70" y1="1855.69" x2="1356.55" y2="1855.69" style="stroke:#000000;stroke-width:7.34"/>
	<line x1="1376.72" y1="1855.69" x2="1379.57" y2="1855.69" style="stroke:#000000;stroke-width:7.34"/>
	<line x1="1399.74" y1="1855.69" x2="1402.58" y2="1855.69" style="stroke:#000000;stroke-width:7.34"/>
	<line x1="1422.75" y1="1855.69" x2="1425.60" y2="1855.69" style="stroke:#000000;stroke-width:7.34"/>
	<line x1="1445.77" y1="1855.69" x2="1448.62" y2="1855.69" style="stroke:#000000;stroke-width:7.34"/>
	<line x1="1468.79" y1="1855.69" x2="1471.63" y2="1855.69" style="stroke:#000000;stroke-width:7.34"/>
	<line x1="1491.81" y1="1855.69" x2="1493.17" y2="1855.69" style="stroke:#000000;stroke-width:7.34"/>
	<line x1="1493.17" y1="1855.69" x2="1494.65" y2="1855.69" style="stroke:#000000;stroke-width:7.34"/>
	<line x1="1514.82" y1="1855.69" x2="1517.67" y2="1855.69" style="stroke:#000000;stroke-width:7.34"/>
	<line x1="1537.84" y1="1855.69" x2="1540.69" y2="1855.69" style="stroke:#000000;stroke-width:7.34"/>
	<line x1="1560.86" y1="1855.69" x2="1563.83" y2="1855.69" style="stroke:#000000;stroke-width:7.34"/>
	<line x1="1584.00" y1="1855.69" x2="1586.85" y2="1855.69" style="stroke:#000000;stroke-width:7.34"/>
	<line x1="1607.02" y1="1855.69" x2="1609.86" y2="1855.69" style="stroke:#000000;stroke-width:7.34"/>
	<line x1="1630.04" y1="1855.69" x2="1632.88" y2="1855.69" style="stroke:#000000;stroke-width:7.34"/>
	<line x1="1653.05" y1="1855.69" x2="1655.90" y2="1855.69" style="stroke:#000000;stroke-width:7.34"/>
	<line x1="1676.07" y1="1855.69" x2="1678.92" y2="1855.69" style="stroke:#000000;stroke-width:7.34"/>
	<line x1="1699.09" y1="1855.69" x2="1701.93" y2="1855.69" style="stroke:#000000;stroke-width:7.34"/>
	<line x1="1722.11" y1="1855.69" x2="1724.95" y2="1855.69" style="stroke:#000000;stroke-width:7.34"/>
	<line x1="1745.12" y1="1855.69" x2="1746.24" y2="1855.69" style="stroke:#000000;stroke-width:7.34"/>
	<line x1="1746.24" y1="1855.69" x2="1747.97" y2="1855.69" style="stroke:#000000;stroke-width:7.34"/>
	<line x1="1768.14" y1="1855.69" x2="1770.99" y2="1855.69" style="stroke:#000000;stroke-width:7.34"/>
	<line x1="1791.16" y1="1855.69" x2="1794.00" y2="1855.69" style="stroke:#000000;stroke-width:7.34"/>
	<line x1="1814.17" y1="1855.69" x2="1817.14" y2="1855.69" style="stroke:#000000;stroke-width:7.34"/>
	<line x1="1837.32" y1="1855.69" x2="1840.16" y2="1855.69" style="stroke:#000000;stroke-width:7.34"/>
	<line x1="1860.33" y1="1855.69" x2="1863.18" y2="1855.69" style="stroke:#000000;stroke-width:7.34"/>
	<line x1="1883.35" y1="1855.69" x2="1886.20" y2="1855.69" style="stroke:#000000;stroke-width:7.34"/>
	<line x1="1906.37" y1="1855.69" x2="1909.21" y2="1855.69" style="stroke:#000000;stroke-width:7.34"/>
	<line x1="1929.39" y1="1855.69" x2="1932.23" y2="1855.69" style="stroke:#000000;stroke-width:7.34"/>
	<line x1="1952.40" y1="1855.69" x2="1955.25" y2="1855.69" style="stroke:#000000;stroke-width:7.34"/>
	<line x1="1975.42" y1="1855.69" x2="1978.27" y2="1855.69" style="stroke:#000000;stroke-width:7.34"/>
	<line x1="1998.44" y1="1855.69" x2="1999.31" y2="1855.69" style="stroke:#000000;stroke-width:7.34"/>
	<line x1="1999.31" y1="1855.69" x2="2001.29" y2="1855.69" style="stroke:#000000;stroke-width:7.34"/>
	<line x1="2021.46" y1="1855.69" x2="2024.30" y2="1855.69" style="stroke:#000000;stroke-width:7.34"/>
	<path d="" stroke-linejoin="round" style="fill:none;stroke:#000000;stroke-width:7.34"/>
	<defs>
		<path id="path_GhXcwIgr" d="M2201.51 1902.22 L2201.51 1902.22 L2226.88 1902.22 L2252.13 1902.10 L2277.49 1902.10 L2302.74 1902.10 L2328.11 1902.10 L2353.35 1901.97 L2378.72 1901.97 L2403.97 1901.85 L2429.34 1901.73 L2454.58 1901.60 L2479.95 1901.48 L2505.20 1901.35 L2530.56 1901.11 L2555.81 1900.86 L2581.18 1900.61 L2606.42 1900.36 L2631.79 1899.99 L2657.04 1899.62 L2682.41 1899.13 L2707.65 1898.63 L2733.02 1898.14 L2758.26 1897.52 L2783.63 1896.90 L2808.88 1896.16 L2834.25 1895.41 L2859.49 1894.67 L2884.86 1893.68 L2910.11 1892.69 L2935.47 1891.70 L2960.72 1890.46 L2986.09 1889.23 L3011.46 1887.87 L3036.70 1886.26 L3062.07 1884.52 L3087.32 1882.67 L3112.68 1880.69 L3137.93 1878.46 L3163.30 1875.98 L3188.54 1873.39 L3213.91 1870.29 L3239.16 1867.07 L3264.53 1863.36 L3289.77 1859.28 L3315.14 1854.82 L3340.38 1849.75 L3365.75 1844.18 L3391.00 1837.99 L3416.37 1831.06 L3441.61 1823.39 L3466.98 1814.73 L3492.22 1805.20 L3517.59 1794.43 L3542.84 1782.55 L3568.21 1769.31 L3593.45 1754.46 L3618.82 1737.88 L3644.07 1719.44 L3669.43 1698.89 L3694.68 1676.12 L3720.05 1650.63 L3745.42 1622.29 L3770.66 1590.61 L3770.66 1519.57 L3745.42 1558.43 L3720.05 1593.33 L3694.68 1624.64 L3669.43 1652.61 L3644.07 1677.85 L3618.82 1700.38 L3593.45 1720.67 L3568.21 1738.87 L3542.84 1755.08 L3517.59 1769.68 L3492.22 1782.80 L3466.98 1794.68 L3441.61 1805.20 L3416.37 1814.73 L3391.00 1823.27 L3365.75 1830.81 L3340.38 1837.74 L3315.14 1843.93 L3289.77 1849.38 L3264.53 1854.33 L3239.16 1858.78 L3213.91 1862.74 L3188.54 1866.33 L3163.30 1869.55 L3137.93 1872.40 L3112.68 1874.99 L3087.32 1877.35 L3062.07 1879.57 L3036.70 1881.55 L3011.46 1883.29 L2986.09 1885.02 L2960.72 1886.50 L2935.47 1887.99 L2910.11 1889.35 L2884.86 1890.59 L2859.49 1891.70 L2834.25 1892.82 L2808.88 1893.81 L2783.63 1894.80 L2758.26 1895.54 L2733.02 1896.28 L2707.65 1897.02 L2682.41 1897.64 L2657.04 1898.14 L2631.79 1898.63 L2606.42 1899.00 L2581.18 1899.37 L2555.81 1899.62 L2530.56 1899.99 L2505.20 1900.24 L2479.95 1900.49 L2454.58 1900.61 L2429.34 1900.86 L2403.97 1900.98 L2378.72 1901.11 L2353.35 1901.23 L2328.11 1901.35 L2302.74 1901.48 L2277.49 1901.60 L2252.13 1901.60 L2226.88 1901.73 L2201.51 1901.73 L2201.51 1902.22 Z" stroke-linejoin="round"/>
	</defs>
	<defs>
		<clipPath id="clipPath_odKMlIwd">
			<use xlink:href="#path_GhXcwIgr"/>
		</clipPath>
	</defs>
	<use xlink:href="#path_GhXcwIgr" style="stroke:none;fill:#E6E6E6"/>
	<use xlink:href="#path_GhXcwIgr" style="fill:none;stroke:#E0E0E0;stroke-width:14.69" clip-path="url(#clipPath_odKMlIwd)"/>
	<defs>
		<path id="path_vKFGSAsS" d="M2201.51 1902.10 L2201.51 1902.10 L2226.88 1902.10 L2252.13 1902.10 L2277.49 1901.97 L2302.74 1901.97 L2328.11 1901.85 L2353.35 1901.73 L2378.72 1901.73 L2403.97 1901.48 L2429.34 1901.35 L2454.58 1901.23 L2479.95 1900.98 L2505.20 1900.74 L2530.56 1900.36 L2555.81 1899.99 L2581.18 1899.50 L2606.42 1899.00 L2631.79 1898.51 L2657.04 1897.77 L2682.41 1897.15 L2707.65 1896.28 L2733.02 1895.41 L2758.26 1894.55 L2783.63 1893.43 L2808.88 1892.32 L2834.25 1891.21 L2859.49 1889.85 L2884.86 1888.36 L2910.11 1886.75 L2935.47 1885.14 L2960.72 1883.16 L2986.09 1881.18 L3011.46 1878.95 L3036.70 1876.48 L3062.07 1873.88 L3087.32 1870.91 L3112.68 1867.69 L3137.93 1864.23 L3163.30 1860.39 L3188.54 1856.06 L3213.91 1851.36 L3239.16 1846.16 L3264.53 1840.34 L3289.77 1833.78 L3315.14 1826.61 L3340.38 1818.69 L3365.75 1809.78 L3391.00 1799.88 L3416.37 1788.86 L3441.61 1776.61 L3466.98 1763.00 L3492.22 1747.65 L3517.59 1730.70 L3542.84 1711.76 L3568.21 1690.60 L3593.45 1667.09 L3618.82 1640.85 L3644.07 1611.52 L3669.43 1578.98 L3694.68 1542.59 L3720.05 1502.12 L3745.42 1457.08 L3770.66 1406.96 L3770.66 1168.86 L3745.42 1243.36 L3720.05 1310.18 L3694.68 1370.20 L3669.43 1424.04 L3644.07 1472.30 L3618.82 1515.49 L3593.45 1554.35 L3568.21 1589.25 L3542.84 1620.43 L3517.59 1648.53 L3492.22 1673.65 L3466.98 1696.17 L3441.61 1716.47 L3416.37 1734.66 L3391.00 1750.87 L3365.75 1765.60 L3340.38 1778.71 L3315.14 1790.47 L3289.77 1801.11 L3264.53 1810.52 L3239.16 1819.06 L3213.91 1826.73 L3188.54 1833.66 L3163.30 1839.85 L3137.93 1845.42 L3112.68 1850.37 L3087.32 1854.95 L3062.07 1859.15 L3036.70 1862.99 L3011.46 1866.46 L2986.09 1869.67 L2960.72 1872.64 L2935.47 1875.37 L2910.11 1877.96 L2884.86 1880.32 L2859.49 1882.54 L2834.25 1884.52 L2808.88 1886.38 L2783.63 1888.11 L2758.26 1889.72 L2733.02 1891.21 L2707.65 1892.44 L2682.41 1893.56 L2657.04 1894.55 L2631.79 1895.54 L2606.42 1896.28 L2581.18 1896.90 L2555.81 1897.52 L2530.56 1898.14 L2505.20 1898.51 L2479.95 1899.00 L2454.58 1899.37 L2429.34 1899.62 L2403.97 1899.99 L2378.72 1900.24 L2353.35 1900.49 L2328.11 1900.61 L2302.74 1900.86 L2277.49 1900.98 L2252.13 1901.11 L2226.88 1901.23 L2201.51 1901.35 L2201.51 1902.10 Z" stroke-linejoin="round"/>
	</defs>
	<defs>
		<clipPath id="clipPath_lUSuYngO">
			<use xlink:href="#path_vKFGSAsS"/>
		</clipPath>
	</defs>
	<use xlink:href="#path_vKFGSAsS" style="stroke:none;fill:#E6E6E6"/>
	<use xlink:href="#path_vKFGSAsS" style="fill:none;stroke:#E0E0E0;stroke-width:14.69" clip-path="url(#clipPath_lUSuYngO)"/>
	<defs>
		<path id="path_OTXPVCRs" d="M2201.51 1902.22 L2201.51 1902.22 L2226.88 1902.10 L2252.13 1902.10 L2277.49 1902.10 L2302.74 1901.97 L2328.11 1901.97 L2353.35 1901.85 L2378.72 1901.85 L2403.97 1901.73 L2429.34 1901.60 L2454.58 1901.35 L2479.95 1901.23 L2505.20 1900.98 L2530.56 1900.74 L2555.81 1900.36 L2581.18 1899.99 L2606.42 1899.62 L2631.79 1899.13 L2657.04 1898.63 L2682.41 1898.01 L2707.65 1897.39 L2733.02 1896.65 L2758.26 1895.91 L2783.63 1895.04 L2808.88 1894.05 L2834.25 1893.06 L2859.49 1891.95 L2884.86 1890.71 L2910.11 1889.47 L2935.47 1887.99 L2960.72 1886.38 L2986.09 1884.65 L3011.46 1882.79 L3036.70 1880.69 L3062.07 1878.46 L3087.32 1875.98 L3112.68 1873.26 L3137.93 1870.29 L3163.30 1866.95 L3188.54 1863.36 L3213.91 1859.40 L3239.16 1854.95 L3264.53 1850.00 L3289.77 1844.55 L3315.14 1838.49 L3340.38 1831.68 L3365.75 1824.26 L3391.00 1815.84 L3416.37 1806.56 L3441.61 1796.04 L3466.98 1784.53 L3492.22 1771.54 L3517.59 1757.06 L3542.84 1740.97 L3568.21 1723.03 L3593.45 1702.98 L3618.82 1680.58 L3644.07 1655.58 L3669.43 1627.73 L3694.68 1596.80 L3720.05 1562.15 L3745.42 1523.66 L3770.66 1480.84 L3770.66 1378.00 L3745.42 1431.09 L3720.05 1478.61 L3694.68 1521.31 L3669.43 1559.67 L3644.07 1594.07 L3618.82 1625.01 L3593.45 1652.61 L3568.21 1677.48 L3542.84 1699.88 L3517.59 1719.93 L3492.22 1737.88 L3466.98 1754.09 L3441.61 1768.57 L3416.37 1781.56 L3391.00 1793.32 L3365.75 1803.84 L3340.38 1813.24 L3315.14 1821.78 L3289.77 1829.33 L3264.53 1836.14 L3239.16 1842.32 L3213.91 1847.77 L3188.54 1852.72 L3163.30 1857.17 L3137.93 1861.13 L3112.68 1864.72 L3087.32 1867.94 L3062.07 1870.91 L3036.70 1873.63 L3011.46 1876.23 L2986.09 1878.46 L2960.72 1880.69 L2935.47 1882.67 L2910.11 1884.52 L2884.86 1886.26 L2859.49 1887.87 L2834.25 1889.35 L2808.88 1890.71 L2783.63 1891.95 L2758.26 1893.06 L2733.02 1894.05 L2707.65 1895.04 L2682.41 1895.79 L2657.04 1896.53 L2631.79 1897.27 L2606.42 1897.77 L2581.18 1898.26 L2555.81 1898.76 L2530.56 1899.13 L2505.20 1899.50 L2479.95 1899.75 L2454.58 1899.99 L2429.34 1900.24 L2403.97 1900.49 L2378.72 1900.74 L2353.35 1900.86 L2328.11 1900.98 L2302.74 1901.11 L2277.49 1901.23 L2252.13 1901.35 L2226.88 1901.48 L2201.51 1901.60 L2201.51 1902.22 Z" stroke-linejoin="round"/>
	</defs>
	<defs>
		<clipPath id="clipPath_rYChqWPd">
			<use xlink:href="#path_OTXPVCRs"/>
		</clipPath>
	</defs>
	<use xlink:href="#path_OTXPVCRs" style="stroke:none;fill:#E6E6E6"/>
	<use xlink:href="#path_OTXPVCRs" style="fill:none;stroke:#E0E0E0;stroke-width:14.69" clip-path="url(#clipPath_rYChqWPd)"/>
	<defs>
		<path id="path_HDVGorlD" d="M2201.51 1902.10 L2201.51 1902.10 L2226.88 1901.97 L2252.13 1901.97 L2277.49 1901.85 L2302.74 1901.85 L2328.11 1901.73 L2353.35 1901.60 L2378.72 1901.35 L2403.97 1901.23 L2429.34 1900.98 L2454.58 1900.74 L2479.95 1900.36 L2505.20 1899.99 L2530.56 1899.50 L2555.81 1898.88 L2581.18 1898.26 L2606.42 1897.52 L2631.79 1896.65 L2657.04 1895.66 L2682.41 1894.55 L2707.65 1893.43 L2733.02 1892.07 L2758.26 1890.71 L2783.63 1889.23 L2808.88 1887.49 L2834.25 1885.64 L2859.49 1883.66 L2884.86 1881.55 L2910.11 1879.20 L2935.47 1876.60 L2960.72 1873.76 L2986.09 1870.79 L3011.46 1867.32 L3036.70 1863.73 L3062.07 1859.65 L3087.32 1855.32 L3112.68 1850.49 L3137.93 1845.17 L3163.30 1839.35 L3188.54 1832.92 L3213.91 1825.86 L3239.16 1817.94 L3264.53 1809.16 L3289.77 1799.50 L3315.14 1788.74 L3340.38 1776.73 L3365.75 1763.37 L3391.00 1748.39 L3416.37 1731.81 L3441.61 1713.25 L3466.98 1692.71 L3492.22 1669.56 L3517.59 1643.95 L3542.84 1615.24 L3568.21 1583.31 L3593.45 1547.67 L3618.82 1507.82 L3644.07 1463.39 L3669.43 1413.89 L3694.68 1358.82 L3720.05 1297.31 L3745.42 1228.75 L3770.66 1152.52 L3770.66 924.44 L3745.42 1023.20 L3720.05 1111.80 L3694.68 1191.50 L3669.43 1262.91 L3644.07 1327.14 L3618.82 1384.68 L3593.45 1436.41 L3568.21 1482.82 L3542.84 1524.52 L3517.59 1561.90 L3492.22 1595.43 L3466.98 1625.63 L3441.61 1652.73 L3416.37 1677.11 L3391.00 1698.89 L3365.75 1718.57 L3340.38 1736.14 L3315.14 1751.98 L3289.77 1766.22 L3264.53 1778.96 L3239.16 1790.35 L3213.91 1800.74 L3188.54 1809.90 L3163.30 1818.19 L3137.93 1825.62 L3112.68 1832.42 L3087.32 1838.49 L3062.07 1844.06 L3036.70 1849.25 L3011.46 1853.83 L2986.09 1858.16 L2960.72 1862.25 L2935.47 1865.96 L2910.11 1869.43 L2884.86 1872.64 L2859.49 1875.49 L2834.25 1878.34 L2808.88 1880.81 L2783.63 1883.16 L2758.26 1885.27 L2733.02 1887.12 L2707.65 1888.86 L2682.41 1890.46 L2657.04 1891.83 L2631.79 1892.94 L2606.42 1894.05 L2581.18 1894.92 L2555.81 1895.79 L2530.56 1896.53 L2505.20 1897.15 L2479.95 1897.64 L2454.58 1898.14 L2429.34 1898.63 L2403.97 1899.00 L2378.72 1899.37 L2353.35 1899.75 L2328.11 1899.99 L2302.74 1900.24 L2277.49 1900.49 L2252.13 1900.61 L2226.88 1900.86 L2201.51 1900.98 L2201.51 1902.10 Z" stroke-linejoin="round"/>
	</defs>
	<defs>
		<clipPath id="clipPath_hunRfOgy">
			<use xlink:href="#path_HDVGorlD"/>
		</clipPath>
	</defs>
	<use xlink:href="#path_HDVGorlD" style="stroke:none;fill:#E6E6E6"/>
	<use xlink:href="#path_HDVGorlD" style="fill:none;stroke:#E0E0E0;stroke-width:14.69" clip-path="url(#clipPath_hunRfOgy)"/>
	<defs>
		<path id="path_wQlOelpu" d="M2201.51 1901.97 L2201.51 1901.97 L2226.88 1901.97 L2252.13 1901.85 L2277.49 1901.73 L2302.74 1901.60 L2328.11 1901.48 L2353.35 1901.35 L2378.72 1901.11 L2403.97 1900.86 L2429.34 1900.61 L2454.58 1900.24 L2479.95 1899.75 L2505.20 1899.25 L2530.56 1898.63 L2555.81 1898.01 L2581.18 1897.15 L2606.42 1896.28 L2631.79 1895.29 L2657.04 1894.18 L2682.41 1892.82 L2707.65 1891.45 L2733.02 1889.97 L2758.26 1888.24 L2783.63 1886.38 L2808.88 1884.40 L2834.25 1882.17 L2859.49 1879.82 L2884.86 1877.22 L2910.11 1874.38 L2935.47 1871.28 L2960.72 1867.94 L2986.09 1864.23 L3011.46 1860.27 L3036.70 1855.94 L3062.07 1851.23 L3087.32 1846.04 L3112.68 1840.34 L3137.93 1834.03 L3163.30 1827.23 L3188.54 1819.55 L3213.91 1811.26 L3239.16 1801.86 L3264.53 1791.46 L3289.77 1779.95 L3315.14 1767.21 L3340.38 1752.85 L3365.75 1737.01 L3391.00 1719.44 L3416.37 1699.76 L3441.61 1677.85 L3466.98 1653.48 L3492.22 1626.25 L3517.59 1595.93 L3542.84 1562.15 L3568.21 1524.52 L3593.45 1482.57 L3618.82 1435.79 L3644.07 1383.69 L3669.43 1325.65 L3694.68 1260.93 L3720.05 1188.90 L3745.42 1108.71 L3770.66 1019.48 L3770.66 312.11 L3745.42 473.48 L3720.05 618.40 L3694.68 748.46 L3669.43 865.16 L3644.07 969.86 L3618.82 1063.79 L3593.45 1148.06 L3568.21 1223.55 L3542.84 1291.37 L3517.59 1352.13 L3492.22 1406.71 L3466.98 1455.72 L3441.61 1499.53 L3416.37 1539.00 L3391.00 1574.27 L3365.75 1606.08 L3340.38 1634.54 L3315.14 1660.16 L3289.77 1683.05 L3264.53 1703.72 L3239.16 1722.16 L3213.91 1738.87 L3188.54 1753.72 L3163.30 1767.21 L3137.93 1779.33 L3112.68 1790.22 L3087.32 1800.12 L3062.07 1809.28 L3036.70 1817.57 L3011.46 1825.12 L2986.09 1832.18 L2960.72 1838.61 L2935.47 1844.55 L2910.11 1850.12 L2884.86 1855.19 L2859.49 1859.90 L2834.25 1864.35 L2808.88 1868.31 L2783.63 1872.02 L2758.26 1875.49 L2733.02 1878.46 L2707.65 1881.31 L2682.41 1883.78 L2657.04 1885.89 L2631.79 1887.87 L2606.42 1889.60 L2581.18 1891.08 L2555.81 1892.44 L2530.56 1893.56 L2505.20 1894.55 L2479.95 1895.41 L2454.58 1896.28 L2429.34 1896.90 L2403.97 1897.52 L2378.72 1898.01 L2353.35 1898.51 L2328.11 1898.88 L2302.74 1899.37 L2277.49 1899.62 L2252.13 1899.87 L2226.88 1900.24 L2201.51 1900.36 L2201.51 1901.97 Z" stroke-linejoin="round"/>
	</defs>
	<defs>
		<clipPath id="clipPath_QTqLNJiX">
			<use xlink:href="#path_wQlOelpu"/>
		</clipPath>
	</defs>
	<use xlink:href="#path_wQlOelpu" style="stroke:none;fill:#E6E6E6"/>
	<use xlink:href="#path_wQlOelpu" style="fill:none;stroke:#E0E0E0;stroke-width:14.69" clip-path="url(#clipPath_QTqLNJiX)"/>
	<path d=" M2201.39 1901.97 L2226.76 1901.97 L2252.13 1901.85 L2277.37 1901.73 L2302.74 1901.60 L2327.99 1901.48 L2353.35 1901.35 L2378.60 1901.23 L2403.97 1900.98 L2429.21 1900.86 L2454.58 1900.49 L2479.83 1900.24 L2505.20 1899.87 L2530.44 1899.50 L2555.81 1899.00 L2581.05 1898.51 L2606.42 1897.89 L2631.67 1897.27 L2657.04 1896.53 L2682.28 1895.66 L2707.65 1894.67 L2732.89 1893.68 L2758.26 1892.44 L2783.51 1891.21 L2808.88 1889.85 L2834.12 1888.36 L2859.49 1886.63 L2884.74 1884.90 L2910.11 1882.92 L2935.35 1880.81 L2960.72 1878.58 L2986.09 1876.11 L3011.33 1873.39 L3036.70 1870.54 L3061.95 1867.32 L3087.32 1863.86 L3112.56 1860.02 L3137.93 1855.81 L3163.17 1851.11 L3188.54 1846.04 L3213.79 1840.34 L3239.16 1834.03 L3264.40 1826.98 L3289.77 1819.06 L3315.01 1810.40 L3340.38 1800.74 L3365.63 1789.85 L3391.00 1777.85 L3416.24 1764.48 L3441.61 1749.51 L3466.86 1732.93 L3492.22 1714.36 L3517.47 1693.70 L3542.84 1670.55 L3568.08 1644.94 L3593.45 1616.23 L3618.70 1584.30 L3644.07 1548.78 L3669.31 1509.05 L3694.68 1464.87 L3719.93 1415.62 L3745.29 1360.67 L3770.66 1299.54" stroke-linejoin="round" style="fill:none;stroke:#FF0000;stroke-width:7.34"/>
	<path d=" M2201.39 1902.10 L2226.76 1901.97 L2252.13 1901.97 L2277.37 1901.85 L2302.74 1901.85 L2327.99 1901.73 L2353.35 1901.60 L2378.60 1901.48 L2403.97 1901.35 L2429.21 1901.11 L2454.58 1900.98 L2479.83 1900.74 L2505.20 1900.49 L2530.44 1900.12 L2555.81 1899.75 L2581.05 1899.37 L2606.42 1898.88 L2631.67 1898.38 L2657.04 1897.77 L2682.28 1897.15 L2707.65 1896.40 L2732.89 1895.54 L2758.26 1894.67 L2783.51 1893.68 L2808.88 1892.57 L2834.12 1891.45 L2859.49 1890.09 L2884.74 1888.73 L2910.11 1887.25 L2935.35 1885.64 L2960.72 1883.78 L2986.09 1881.93 L3011.33 1879.82 L3036.70 1877.47 L3061.95 1874.99 L3087.32 1872.27 L3112.56 1869.30 L3137.93 1866.08 L3163.17 1862.50 L3188.54 1858.41 L3213.79 1853.96 L3239.16 1849.01 L3264.40 1843.56 L3289.77 1837.50 L3315.01 1830.69 L3340.38 1823.14 L3365.63 1814.73 L3391.00 1805.32 L3416.24 1794.80 L3441.61 1783.17 L3466.86 1770.18 L3492.22 1755.70 L3517.47 1739.61 L3542.84 1721.66 L3568.08 1701.62 L3593.45 1679.34 L3618.70 1654.34 L3644.07 1626.62 L3669.31 1595.68 L3694.68 1561.16 L3719.93 1522.79 L3745.29 1479.97 L3770.66 1432.33" stroke-linejoin="round" style="fill:none;stroke:#FFD200;stroke-width:7.34"/>
	<path d=" M2201.39 1901.85 L2226.76 1901.73 L2252.13 1901.60 L2277.37 1901.48 L2302.74 1901.35 L2327.99 1901.23 L2353.35 1900.98 L2378.60 1900.74 L2403.97 1900.49 L2429.21 1900.12 L2454.58 1899.75 L2479.83 1899.37 L2505.20 1898.88 L2530.44 1898.26 L2555.81 1897.64 L2581.05 1896.90 L2606.42 1896.03 L2631.67 1895.04 L2657.04 1894.05 L2682.28 1892.82 L2707.65 1891.45 L2732.89 1889.97 L2758.26 1888.36 L2783.51 1886.50 L2808.88 1884.52 L2834.12 1882.42 L2859.49 1880.07 L2884.74 1877.47 L2910.11 1874.75 L2935.35 1871.78 L2960.72 1868.56 L2986.09 1865.09 L3011.33 1861.26 L3036.70 1857.05 L3061.95 1852.60 L3087.32 1847.65 L3112.56 1842.20 L3137.93 1836.14 L3163.17 1829.58 L3188.54 1822.28 L3213.79 1814.23 L3239.16 1805.20 L3264.40 1795.17 L3289.77 1784.04 L3315.01 1771.66 L3340.38 1757.92 L3365.63 1742.58 L3391.00 1725.50 L3416.24 1706.44 L3441.61 1685.16 L3466.86 1661.52 L3492.22 1635.16 L3517.47 1605.83 L3542.84 1573.04 L3568.08 1536.53 L3593.45 1495.81 L3618.70 1450.52 L3644.07 1399.90 L3669.31 1343.60 L3694.68 1280.73 L3719.93 1210.81 L3745.29 1132.84 L3770.66 1046.09" stroke-linejoin="round" style="fill:none;stroke:#FF7F00;stroke-width:7.34"/>
	<path d=" M2201.39 1901.60 L2226.76 1901.48 L2252.13 1901.35 L2277.37 1901.23 L2302.74 1900.98 L2327.99 1900.74 L2353.35 1900.49 L2378.60 1900.12 L2403.97 1899.75 L2429.21 1899.37 L2454.58 1898.76 L2479.83 1898.26 L2505.20 1897.52 L2530.44 1896.78 L2555.81 1895.79 L2581.05 1894.80 L2606.42 1893.68 L2631.67 1892.32 L2657.04 1890.84 L2682.28 1889.10 L2707.65 1887.25 L2732.89 1885.14 L2758.26 1882.92 L2783.51 1880.44 L2808.88 1877.72 L2834.12 1874.75 L2859.49 1871.53 L2884.74 1867.94 L2910.11 1864.23 L2935.35 1860.02 L2960.72 1855.57 L2986.09 1850.74 L3011.33 1845.42 L3036.70 1839.72 L3061.95 1833.41 L3087.32 1826.48 L3112.56 1819.06 L3137.93 1810.77 L3163.17 1801.61 L3188.54 1791.58 L3213.79 1780.32 L3239.16 1767.82 L3264.40 1753.96 L3289.77 1738.62 L3315.01 1721.42 L3340.38 1702.36 L3365.63 1681.07 L3391.00 1657.44 L3416.24 1631.08 L3441.61 1601.62 L3466.86 1568.95 L3492.22 1532.44 L3517.47 1491.85 L3542.84 1446.44 L3568.08 1395.94 L3593.45 1339.64 L3618.70 1276.89 L3644.07 1206.97 L3669.31 1129.01 L3694.68 1042.13 L3719.93 945.23 L3745.29 837.44 L3770.66 717.40" stroke-linejoin="round" style="fill:none;stroke:#008000;stroke-width:7.34"/>
	<path d=" M2201.39 1902.10 L2226.76 1902.10 L2252.13 1902.10 L2277.37 1901.97 L2302.74 1901.97 L2327.99 1901.85 L2353.35 1901.85 L2378.60 1901.73 L2403.97 1901.60 L2429.21 1901.48 L2454.58 1901.35 L2479.83 1901.11 L2505.20 1900.98 L2530.44 1900.74 L2555.81 1900.49 L2581.05 1900.12 L2606.42 1899.75 L2631.67 1899.37 L2657.04 1899.00 L2682.28 1898.51 L2707.65 1898.01 L2732.89 1897.39 L2758.26 1896.65 L2783.51 1895.91 L2808.88 1895.17 L2834.12 1894.30 L2859.49 1893.31 L2884.74 1892.32 L2910.11 1891.21 L2935.35 1890.09 L2960.72 1888.73 L2986.09 1887.37 L3011.33 1885.76 L3036.70 1884.15 L3061.95 1882.30 L3087.32 1880.32 L3112.56 1878.09 L3137.93 1875.74 L3163.17 1873.01 L3188.54 1870.04 L3213.79 1866.83 L3239.16 1863.24 L3264.40 1859.15 L3289.77 1854.70 L3315.01 1849.63 L3340.38 1844.18 L3365.63 1837.99 L3391.00 1831.06 L3416.24 1823.39 L3441.61 1814.85 L3466.86 1805.32 L3492.22 1794.68 L3517.47 1782.80 L3542.84 1769.56 L3568.08 1754.83 L3593.45 1738.49 L3618.70 1720.18 L3644.07 1699.76 L3669.31 1677.11 L3694.68 1651.74 L3719.93 1623.53 L3745.29 1591.97 L3770.66 1556.95" stroke-linejoin="round" style="fill:none;stroke:#1A476F;stroke-width:7.34"/>
	<line x1="2201.39" y1="1831.06" x2="2204.24" y2="1831.06" style="stroke:#000000;stroke-width:7.34"/>
	<line x1="2224.41" y1="1831.06" x2="2226.76" y2="1831.06" style="stroke:#000000;stroke-width:7.34"/>
	<line x1="2226.76" y1="1831.06" x2="2227.25" y2="1831.06" style="stroke:#000000;stroke-width:7.34"/>
	<line x1="2247.42" y1="1831.06" x2="2250.27" y2="1831.06" style="stroke:#000000;stroke-width:7.34"/>
	<line x1="2270.44" y1="1831.06" x2="2273.29" y2="1831.06" style="stroke:#000000;stroke-width:7.34"/>
	<line x1="2293.46" y1="1831.06" x2="2296.43" y2="1831.06" style="stroke:#000000;stroke-width:7.34"/>
	<line x1="2316.60" y1="1831.06" x2="2319.45" y2="1831.06" style="stroke:#000000;stroke-width:7.34"/>
	<line x1="2339.62" y1="1831.06" x2="2342.46" y2="1831.06" style="stroke:#000000;stroke-width:7.34"/>
	<line x1="2362.64" y1="1831.06" x2="2365.48" y2="1831.06" style="stroke:#000000;stroke-width:7.34"/>
	<line x1="2385.65" y1="1831.06" x2="2388.50" y2="1831.06" style="stroke:#000000;stroke-width:7.34"/>
	<line x1="2408.67" y1="1831.06" x2="2411.52" y2="1831.06" style="stroke:#000000;stroke-width:7.34"/>
	<line x1="2431.69" y1="1831.06" x2="2434.53" y2="1831.06" style="stroke:#000000;stroke-width:7.34"/>
	<line x1="2454.70" y1="1831.06" x2="2457.55" y2="1831.06" style="stroke:#000000;stroke-width:7.34"/>
	<line x1="2477.72" y1="1831.06" x2="2479.83" y2="1831.06" style="stroke:#000000;stroke-width:7.34"/>
	<line x1="2479.83" y1="1831.06" x2="2480.57" y2="1831.06" style="stroke:#000000;stroke-width:7.34"/>
	<line x1="2500.74" y1="1831.06" x2="2503.59" y2="1831.06" style="stroke:#000000;stroke-width:7.34"/>
	<line x1="2523.76" y1="1831.06" x2="2526.60" y2="1831.06" style="stroke:#000000;stroke-width:7.34"/>
	<line x1="2546.78" y1="1831.06" x2="2549.74" y2="1831.06" style="stroke:#000000;stroke-width:7.34"/>
	<line x1="2569.92" y1="1831.06" x2="2572.76" y2="1831.06" style="stroke:#000000;stroke-width:7.34"/>
	<line x1="2592.93" y1="1831.06" x2="2595.78" y2="1831.06" style="stroke:#000000;stroke-width:7.34"/>
	<line x1="2615.95" y1="1831.06" x2="2618.80" y2="1831.06" style="stroke:#000000;stroke-width:7.34"/>
	<line x1="2638.97" y1="1831.06" x2="2641.82" y2="1831.06" style="stroke:#000000;stroke-width:7.34"/>
	<line x1="2661.99" y1="1831.06" x2="2664.83" y2="1831.06" style="stroke:#000000;stroke-width:7.34"/>
	<line x1="2685.00" y1="1831.06" x2="2687.85" y2="1831.06" style="stroke:#000000;stroke-width:7.34"/>
	<line x1="2708.02" y1="1831.06" x2="2710.87" y2="1831.06" style="stroke:#000000;stroke-width:7.34"/>
	<line x1="2731.04" y1="1831.06" x2="2732.89" y2="1831.06" style="stroke:#000000;stroke-width:7.34"/>
	<line x1="2732.89" y1="1831.06" x2="2733.89" y2="1831.06" style="stroke:#000000;stroke-width:7.34"/>
	<line x1="2754.06" y1="1831.06" x2="2756.90" y2="1831.06" style="stroke:#000000;stroke-width:7.34"/>
	<line x1="2777.07" y1="1831.06" x2="2779.92" y2="1831.06" style="stroke:#000000;stroke-width:7.34"/>
	<line x1="2800.09" y1="1831.06" x2="2803.06" y2="1831.06" style="stroke:#000000;stroke-width:7.34"/>
	<line x1="2823.23" y1="1831.06" x2="2826.08" y2="1831.06" style="stroke:#000000;stroke-width:7.34"/>
	<line x1="2846.25" y1="1831.06" x2="2849.10" y2="1831.06" style="stroke:#000000;stroke-width:7.34"/>
	<line x1="2869.27" y1="1831.06" x2="2872.11" y2="1831.06" style="stroke:#000000;stroke-width:7.34"/>
	<line x1="2892.28" y1="1831.06" x2="2895.13" y2="1831.06" style="stroke:#000000;stroke-width:7.34"/>
	<line x1="2915.30" y1="1831.06" x2="2918.15" y2="1831.06" style="stroke:#000000;stroke-width:7.34"/>
	<line x1="2938.32" y1="1831.06" x2="2941.17" y2="1831.06" style="stroke:#000000;stroke-width:7.34"/>
	<line x1="2961.34" y1="1831.06" x2="2964.18" y2="1831.06" style="stroke:#000000;stroke-width:7.34"/>
	<line x1="2984.36" y1="1831.06" x2="2986.09" y2="1831.06" style="stroke:#000000;stroke-width:7.34"/>
	<line x1="2986.09" y1="1831.06" x2="2987.20" y2="1831.06" style="stroke:#000000;stroke-width:7.34"/>
	<line x1="3007.37" y1="1831.06" x2="3010.22" y2="1831.06" style="stroke:#000000;stroke-width:7.34"/>
	<line x1="3030.39" y1="1831.06" x2="3033.36" y2="1831.06" style="stroke:#000000;stroke-width:7.34"/>
	<line x1="3053.41" y1="1831.06" x2="3056.38" y2="1831.06" style="stroke:#000000;stroke-width:7.34"/>
	<line x1="3076.55" y1="1831.06" x2="3079.39" y2="1831.06" style="stroke:#000000;stroke-width:7.34"/>
	<line x1="3099.57" y1="1831.06" x2="3102.41" y2="1831.06" style="stroke:#000000;stroke-width:7.34"/>
	<line x1="3122.58" y1="1831.06" x2="3125.43" y2="1831.06" style="stroke:#000000;stroke-width:7.34"/>
	<line x1="3145.60" y1="1831.06" x2="3148.45" y2="1831.06" style="stroke:#000000;stroke-width:7.34"/>
	<line x1="3168.62" y1="1831.06" x2="3171.47" y2="1831.06" style="stroke:#000000;stroke-width:7.34"/>
	<line x1="3191.64" y1="1831.06" x2="3194.48" y2="1831.06" style="stroke:#000000;stroke-width:7.34"/>
	<line x1="3214.65" y1="1831.06" x2="3217.50" y2="1831.06" style="stroke:#000000;stroke-width:7.34"/>
	<line x1="3237.67" y1="1831.06" x2="3239.16" y2="1831.06" style="stroke:#000000;stroke-width:7.34"/>
	<line x1="3239.16" y1="1831.06" x2="3240.52" y2="1831.06" style="stroke:#000000;stroke-width:7.34"/>
	<line x1="3260.69" y1="1831.06" x2="3263.53" y2="1831.06" style="stroke:#000000;stroke-width:7.34"/>
	<line x1="3283.71" y1="1831.06" x2="3286.68" y2="1831.06" style="stroke:#000000;stroke-width:7.34"/>
	<line x1="3306.72" y1="1831.06" x2="3309.69" y2="1831.06" style="stroke:#000000;stroke-width:7.34"/>
	<line x1="3329.86" y1="1831.06" x2="3332.71" y2="1831.06" style="stroke:#000000;stroke-width:7.34"/>
	<line x1="3352.88" y1="1831.06" x2="3355.73" y2="1831.06" style="stroke:#000000;stroke-width:7.34"/>
	<line x1="3375.90" y1="1831.06" x2="3378.75" y2="1831.06" style="stroke:#000000;stroke-width:7.34"/>
	<line x1="3398.92" y1="1831.06" x2="3401.76" y2="1831.06" style="stroke:#000000;stroke-width:7.34"/>
	<line x1="3421.93" y1="1831.06" x2="3424.78" y2="1831.06" style="stroke:#000000;stroke-width:7.34"/>
	<line x1="3444.95" y1="1831.06" x2="3447.80" y2="1831.06" style="stroke:#000000;stroke-width:7.34"/>
	<line x1="3467.97" y1="1831.06" x2="3470.82" y2="1831.06" style="stroke:#000000;stroke-width:7.34"/>
	<line x1="3490.99" y1="1831.06" x2="3492.22" y2="1831.06" style="stroke:#000000;stroke-width:7.34"/>
	<line x1="3492.22" y1="1831.06" x2="3493.83" y2="1831.06" style="stroke:#000000;stroke-width:7.34"/>
	<line x1="3514.01" y1="1831.06" x2="3516.85" y2="1831.06" style="stroke:#000000;stroke-width:7.34"/>
	<line x1="3537.02" y1="1831.06" x2="3539.99" y2="1831.06" style="stroke:#000000;stroke-width:7.34"/>
	<line x1="3560.04" y1="1831.06" x2="3563.01" y2="1831.06" style="stroke:#000000;stroke-width:7.34"/>
	<line x1="3583.18" y1="1831.06" x2="3586.03" y2="1831.06" style="stroke:#000000;stroke-width:7.34"/>
	<line x1="3606.20" y1="1831.06" x2="3609.05" y2="1831.06" style="stroke:#000000;stroke-width:7.34"/>
	<line x1="3629.22" y1="1831.06" x2="3632.06" y2="1831.06" style="stroke:#000000;stroke-width:7.34"/>
	<line x1="3652.23" y1="1831.06" x2="3655.08" y2="1831.06" style="stroke:#000000;stroke-width:7.34"/>
	<line x1="3675.25" y1="1831.06" x2="3678.10" y2="1831.06" style="stroke:#000000;stroke-width:7.34"/>
	<line x1="3698.27" y1="1831.06" x2="3701.11" y2="1831.06" style="stroke:#000000;stroke-width:7.34"/>
	<line x1="3721.29" y1="1831.06" x2="3724.13" y2="1831.06" style="stroke:#000000;stroke-width:7.34"/>
	<line x1="3744.30" y1="1831.06" x2="3745.29" y2="1831.06" style="stroke:#000000;stroke-width:7.34"/>
	<line x1="3745.29" y1="1831.06" x2="3747.15" y2="1831.06" style="stroke:#000000;stroke-width:7.34"/>
	<line x1="3767.32" y1="1831.06" x2="3770.17" y2="1831.06" style="stroke:#000000;stroke-width:7.34"/>
	<path d="" stroke-linejoin="round" style="fill:none;stroke:#000000;stroke-width:7.34"/>
	<line x1="401.69" y1="1956.18" x2="401.69" y2="258.27" style="stroke:#000000;stroke-width:4.90"/>
	<line x1="401.69" y1="1902.22" x2="367.66" y2="1902.22" style="stroke:#000000;stroke-width:4.90"/>
	<text x="350.71" y="1932.01" style="font-family:'Helvetica';font-size:85.02px;fill:#000000" text-anchor="end">0</text>
	<line x1="401.69" y1="1637.02" x2="367.66" y2="1637.02" style="stroke:#000000;stroke-width:4.90"/>
	<text x="350.71" y="1666.80" style="font-family:'Helvetica';font-size:85.02px;fill:#000000" text-anchor="end">.001</text>
	<line x1="401.69" y1="1371.69" x2="367.66" y2="1371.69" style="stroke:#000000;stroke-width:4.90"/>
	<text x="350.71" y="1401.48" style="font-family:'Helvetica';font-size:85.02px;fill:#000000" text-anchor="end">.002</text>
	<line x1="401.69" y1="1106.48" x2="367.66" y2="1106.48" style="stroke:#000000;stroke-width:4.90"/>
	<text x="350.71" y="1136.27" style="font-family:'Helvetica';font-size:85.02px;fill:#000000" text-anchor="end">.003</text>
	<line x1="401.69" y1="841.16" x2="367.66" y2="841.16" style="stroke:#000000;stroke-width:4.90"/>
	<text x="350.71" y="870.94" style="font-family:'Helvetica';font-size:85.02px;fill:#000000" text-anchor="end">.004</text>
	<line x1="401.69" y1="575.95" x2="367.66" y2="575.95" style="stroke:#000000;stroke-width:4.90"/>
	<text x="350.71" y="605.74" style="font-family:'Helvetica';font-size:85.02px;fill:#000000" text-anchor="end">.005</text>
	<line x1="401.69" y1="1956.18" x2="2078.51" y2="1956.18" style="stroke:#000000;stroke-width:4.90"/>
	<line x1="506.14" y1="1956.18" x2="506.14" y2="1973.13" style="stroke:#000000;stroke-width:4.90"/>
	<line x1="632.73" y1="1956.18" x2="632.73" y2="1973.13" style="stroke:#000000;stroke-width:4.90"/>
	<line x1="759.21" y1="1956.18" x2="759.21" y2="1973.13" style="stroke:#000000;stroke-width:4.90"/>
	<line x1="885.80" y1="1956.18" x2="885.80" y2="1973.13" style="stroke:#000000;stroke-width:4.90"/>
	<line x1="1012.27" y1="1956.18" x2="1012.27" y2="1973.13" style="stroke:#000000;stroke-width:4.90"/>
	<line x1="1138.87" y1="1956.18" x2="1138.87" y2="1973.13" style="stroke:#000000;stroke-width:4.90"/>
	<line x1="1265.47" y1="1956.18" x2="1265.47" y2="1973.13" style="stroke:#000000;stroke-width:4.90"/>
	<line x1="1391.94" y1="1956.18" x2="1391.94" y2="1973.13" style="stroke:#000000;stroke-width:4.90"/>
	<line x1="1518.54" y1="1956.18" x2="1518.54" y2="1973.13" style="stroke:#000000;stroke-width:4.90"/>
	<line x1="1645.01" y1="1956.18" x2="1645.01" y2="1973.13" style="stroke:#000000;stroke-width:4.90"/>
	<line x1="1771.61" y1="1956.18" x2="1771.61" y2="1973.13" style="stroke:#000000;stroke-width:4.90"/>
	<line x1="1898.20" y1="1956.18" x2="1898.20" y2="1973.13" style="stroke:#000000;stroke-width:4.90"/>
	<line x1="2024.67" y1="1956.18" x2="2024.67" y2="1973.13" style="stroke:#000000;stroke-width:4.90"/>
	<line x1="506.14" y1="1956.18" x2="506.14" y2="1990.09" style="stroke:#000000;stroke-width:4.90"/>
	<text x="506.14" y="2066.62" style="font-family:'Helvetica';font-size:85.02px;fill:#000000" text-anchor="middle">20</text>
	<line x1="1012.27" y1="1956.18" x2="1012.27" y2="1990.09" style="stroke:#000000;stroke-width:4.90"/>
	<text x="1012.27" y="2066.62" style="font-family:'Helvetica';font-size:85.02px;fill:#000000" text-anchor="middle">40</text>
	<line x1="1518.54" y1="1956.18" x2="1518.54" y2="1990.09" style="stroke:#000000;stroke-width:4.90"/>
	<text x="1518.54" y="2066.62" style="font-family:'Helvetica';font-size:85.02px;fill:#000000" text-anchor="middle">60</text>
	<line x1="2024.67" y1="1956.18" x2="2024.67" y2="1990.09" style="stroke:#000000;stroke-width:4.90"/>
	<text x="2024.67" y="2066.62" style="font-family:'Helvetica';font-size:85.02px;fill:#000000" text-anchor="middle">80</text>
	<line x1="2147.68" y1="1956.18" x2="3824.49" y2="1956.18" style="stroke:#000000;stroke-width:4.90"/>
	<line x1="2252.13" y1="1956.18" x2="2252.13" y2="1973.13" style="stroke:#000000;stroke-width:4.90"/>
	<line x1="2378.72" y1="1956.18" x2="2378.72" y2="1973.13" style="stroke:#000000;stroke-width:4.90"/>
	<line x1="2505.20" y1="1956.18" x2="2505.20" y2="1973.13" style="stroke:#000000;stroke-width:4.90"/>
	<line x1="2631.79" y1="1956.18" x2="2631.79" y2="1973.13" style="stroke:#000000;stroke-width:4.90"/>
	<line x1="2758.26" y1="1956.18" x2="2758.26" y2="1973.13" style="stroke:#000000;stroke-width:4.90"/>
	<line x1="2884.86" y1="1956.18" x2="2884.86" y2="1973.13" style="stroke:#000000;stroke-width:4.90"/>
	<line x1="3011.46" y1="1956.18" x2="3011.46" y2="1973.13" style="stroke:#000000;stroke-width:4.90"/>
	<line x1="3137.93" y1="1956.18" x2="3137.93" y2="1973.13" style="stroke:#000000;stroke-width:4.90"/>
	<line x1="3264.53" y1="1956.18" x2="3264.53" y2="1973.13" style="stroke:#000000;stroke-width:4.90"/>
	<line x1="3391.00" y1="1956.18" x2="3391.00" y2="1973.13" style="stroke:#000000;stroke-width:4.90"/>
	<line x1="3517.59" y1="1956.18" x2="3517.59" y2="1973.13" style="stroke:#000000;stroke-width:4.90"/>
	<line x1="3644.07" y1="1956.18" x2="3644.07" y2="1973.13" style="stroke:#000000;stroke-width:4.90"/>
	<line x1="3770.66" y1="1956.18" x2="3770.66" y2="1973.13" style="stroke:#000000;stroke-width:4.90"/>
	<line x1="2252.13" y1="1956.18" x2="2252.13" y2="1990.09" style="stroke:#000000;stroke-width:4.90"/>
	<text x="2252.13" y="2066.62" style="font-family:'Helvetica';font-size:85.02px;fill:#000000" text-anchor="middle">20</text>
	<line x1="2758.26" y1="1956.18" x2="2758.26" y2="1990.09" style="stroke:#000000;stroke-width:4.90"/>
	<text x="2758.26" y="2066.62" style="font-family:'Helvetica';font-size:85.02px;fill:#000000" text-anchor="middle">40</text>
	<line x1="3264.53" y1="1956.18" x2="3264.53" y2="1990.09" style="stroke:#000000;stroke-width:4.90"/>
	<text x="3264.53" y="2066.62" style="font-family:'Helvetica';font-size:85.02px;fill:#000000" text-anchor="middle">60</text>
	<line x1="3770.66" y1="1956.18" x2="3770.66" y2="1990.09" style="stroke:#000000;stroke-width:4.90"/>
	<text x="3770.66" y="2066.62" style="font-family:'Helvetica';font-size:85.02px;fill:#000000" text-anchor="middle">80</text>
	<rect x="401.69" y="135.39" width="1676.81" height="122.89" style="fill:#D9E6EB"/>
	<rect x="404.14" y="137.83" width="1671.92" height="117.99" style="fill:none;stroke:#D9E6EB;stroke-width:4.90"/>
	<text x="1240.10" y="215.42" style="font-family:'Helvetica';font-size:93.56px;fill:#000000" text-anchor="middle">Female</text>
	<rect x="2147.68" y="135.39" width="1676.81" height="122.89" style="fill:#D9E6EB"/>
	<rect x="2150.13" y="137.83" width="1671.92" height="117.99" style="fill:none;stroke:#D9E6EB;stroke-width:4.90"/>
	<text x="2986.09" y="215.42" style="font-family:'Helvetica';font-size:93.56px;fill:#000000" text-anchor="middle">Male</text>
	<rect x="401.32" y="2278.31" width="3157.23" height="466.30" style="fill:#FFFFFF"/>
	<rect x="404.20" y="2281.19" width="3151.47" height="460.54" style="fill:none;stroke:#000000;stroke-width:5.76"/>
	<line x1="444.51" y1="2371.50" x2="818.98" y2="2371.50" style="stroke:#FF0000;stroke-width:8.64"/>
	<line x1="1952.28" y1="2371.50" x2="2326.62" y2="2371.50" style="stroke:#FFD200;stroke-width:8.64"/>
	<line x1="444.51" y1="2511.46" x2="818.98" y2="2511.46" style="stroke:#FF7F00;stroke-width:8.64"/>
	<line x1="1952.28" y1="2511.46" x2="2326.62" y2="2511.46" style="stroke:#008000;stroke-width:8.64"/>
	<line x1="444.51" y1="2651.43" x2="818.98" y2="2651.43" style="stroke:#1A476F;stroke-width:8.64"/>
	<text x="879.00" y="2406.52" style="font-family:'Helvetica';font-size:99.99px;fill:#000000">Liver disease</text>
	<text x="2386.64" y="2406.52" style="font-family:'Helvetica';font-size:99.99px;fill:#000000">Reduced kidney function</text>
	<text x="879.00" y="2546.49" style="font-family:'Helvetica';font-size:99.99px;fill:#000000">Poor kidney function</text>
	<text x="2386.64" y="2546.49" style="font-family:'Helvetica';font-size:99.99px;fill:#000000">Organ transplant</text>
	<text x="879.00" y="2686.46" style="font-family:'Helvetica';font-size:99.99px;fill:#000000">No comborbidity</text>
	<text x="1980.00" y="2213.60" style="font-family:'Helvetica';font-size:99.99px;fill:#000000" text-anchor="middle">Age (years)</text>
</svg>
