<?xml version="1.0" encoding="UTF-8" standalone="no"?>
<!-- This is a Stata 16.1 generated SVG file (http://www.stata.com) -->

<svg version="1.1" width="1600px" height="1164px" viewBox="0 0 3960 2880" xmlns="http://www.w3.org/2000/svg" xmlns:xlink="http://www.w3.org/1999/xlink">
	<desc>Stata Graph - Graph</desc>
	<rect x="0" y="0" width="3960" height="2880" style="fill:#EAF2F3;stroke:none"/>
	<rect x="0.00" y="0.00" width="3959.88" height="2880.00" style="fill:#EAF2F3"/>
	<rect x="2.88" y="2.88" width="3954.12" height="2874.24" style="fill:none;stroke:#EAF2F3;stroke-width:5.76"/>
	<rect x="401.69" y="402.82" width="1676.81" height="1693.32" style="fill:#FFFFFF"/>
	<rect x="404.14" y="405.27" width="1671.92" height="1688.43" style="fill:none;stroke:#FFFFFF;stroke-width:4.90"/>
	<line x1="401.69" y1="2042.31" x2="2078.51" y2="2042.31" style="stroke:#EAF2F3;stroke-width:7.34"/>
	<line x1="401.69" y1="1935.26" x2="2078.51" y2="1935.26" style="stroke:#EAF2F3;stroke-width:7.34"/>
	<line x1="401.69" y1="1828.22" x2="2078.51" y2="1828.22" style="stroke:#EAF2F3;stroke-width:7.34"/>
	<line x1="401.69" y1="1721.17" x2="2078.51" y2="1721.17" style="stroke:#EAF2F3;stroke-width:7.34"/>
	<line x1="401.69" y1="1614.25" x2="2078.51" y2="1614.25" style="stroke:#EAF2F3;stroke-width:7.34"/>
	<line x1="401.69" y1="1507.20" x2="2078.51" y2="1507.20" style="stroke:#EAF2F3;stroke-width:7.34"/>
	<line x1="401.69" y1="1400.15" x2="2078.51" y2="1400.15" style="stroke:#EAF2F3;stroke-width:7.34"/>
	<line x1="401.69" y1="1293.10" x2="2078.51" y2="1293.10" style="stroke:#EAF2F3;stroke-width:7.34"/>
	<line x1="401.69" y1="1186.06" x2="2078.51" y2="1186.06" style="stroke:#EAF2F3;stroke-width:7.34"/>
	<line x1="401.69" y1="1079.13" x2="2078.51" y2="1079.13" style="stroke:#EAF2F3;stroke-width:7.34"/>
	<rect x="2147.68" y="402.82" width="1676.81" height="1693.32" style="fill:#FFFFFF"/>
	<rect x="2150.13" y="405.27" width="1671.92" height="1688.43" style="fill:none;stroke:#FFFFFF;stroke-width:4.90"/>
	<line x1="2147.68" y1="2042.31" x2="3824.49" y2="2042.31" style="stroke:#EAF2F3;stroke-width:7.34"/>
	<line x1="2147.68" y1="1935.26" x2="3824.49" y2="1935.26" style="stroke:#EAF2F3;stroke-width:7.34"/>
	<line x1="2147.68" y1="1828.22" x2="3824.49" y2="1828.22" style="stroke:#EAF2F3;stroke-width:7.34"/>
	<line x1="2147.68" y1="1721.17" x2="3824.49" y2="1721.17" style="stroke:#EAF2F3;stroke-width:7.34"/>
	<line x1="2147.68" y1="1614.25" x2="3824.49" y2="1614.25" style="stroke:#EAF2F3;stroke-width:7.34"/>
	<line x1="2147.68" y1="1507.20" x2="3824.49" y2="1507.20" style="stroke:#EAF2F3;stroke-width:7.34"/>
	<line x1="2147.68" y1="1400.15" x2="3824.49" y2="1400.15" style="stroke:#EAF2F3;stroke-width:7.34"/>
	<line x1="2147.68" y1="1293.10" x2="3824.49" y2="1293.10" style="stroke:#EAF2F3;stroke-width:7.34"/>
	<line x1="2147.68" y1="1186.06" x2="3824.49" y2="1186.06" style="stroke:#EAF2F3;stroke-width:7.34"/>
	<line x1="2147.68" y1="1079.13" x2="3824.49" y2="1079.13" style="stroke:#EAF2F3;stroke-width:7.34"/>
	<defs>
		<path id="path_RULKeoFd" d="M455.52 2033.52 L455.52 2033.52 L480.89 2032.66 L506.14 2031.67 L531.51 2030.68 L556.75 2029.56 L582.12 2028.33 L607.37 2027.09 L632.73 2025.73 L657.98 2024.12 L683.35 2022.51 L708.59 2020.78 L733.96 2019.04 L759.21 2017.06 L784.58 2015.08 L809.82 2012.98 L835.19 2010.88 L860.43 2008.65 L885.80 2006.42 L911.05 2004.19 L936.42 2001.97 L961.66 1999.86 L987.03 1997.76 L1012.27 1995.78 L1037.64 1993.92 L1062.89 1992.19 L1088.26 1990.58 L1113.50 1989.22 L1138.87 1987.86 L1164.24 1986.62 L1189.48 1985.51 L1214.85 1984.39 L1240.10 1983.28 L1265.47 1982.29 L1290.71 1981.30 L1316.08 1980.31 L1341.33 1979.20 L1366.69 1977.96 L1391.94 1976.72 L1417.31 1975.24 L1442.55 1973.50 L1467.92 1971.65 L1493.17 1969.42 L1518.54 1966.94 L1543.78 1964.22 L1569.15 1961.25 L1594.39 1957.91 L1619.76 1954.20 L1645.01 1950.24 L1670.38 1945.78 L1695.62 1940.96 L1720.99 1935.76 L1746.24 1929.94 L1771.61 1923.75 L1796.85 1917.07 L1822.22 1909.89 L1847.46 1901.97 L1872.83 1893.56 L1898.20 1884.40 L1923.45 1874.62 L1948.82 1863.98 L1974.06 1852.72 L1999.43 1840.59 L2024.67 1827.60 L2024.67 1758.79 L1999.43 1775.99 L1974.06 1792.08 L1948.82 1807.05 L1923.45 1820.91 L1898.20 1833.91 L1872.83 1845.91 L1847.46 1857.17 L1822.22 1867.45 L1796.85 1877.10 L1771.61 1885.89 L1746.24 1894.05 L1720.99 1901.60 L1695.62 1908.53 L1670.38 1914.97 L1645.01 1920.78 L1619.76 1926.11 L1594.39 1930.93 L1569.15 1935.39 L1543.78 1939.47 L1518.54 1943.06 L1493.17 1946.28 L1467.92 1949.25 L1442.55 1951.72 L1417.31 1953.95 L1391.94 1955.93 L1366.69 1957.66 L1341.33 1959.27 L1316.08 1960.76 L1290.71 1962.12 L1265.47 1963.36 L1240.10 1964.72 L1214.85 1965.95 L1189.48 1967.44 L1164.24 1968.92 L1138.87 1970.53 L1113.50 1972.27 L1088.26 1974.12 L1062.89 1976.23 L1037.64 1978.45 L1012.27 1980.93 L987.03 1983.53 L961.66 1986.37 L936.42 1989.22 L911.05 1992.07 L885.80 1995.04 L860.43 1997.88 L835.19 2000.73 L809.82 2003.58 L784.58 2006.17 L759.21 2008.77 L733.96 2011.25 L708.59 2013.48 L683.35 2015.70 L657.98 2017.68 L632.73 2019.54 L607.37 2021.40 L582.12 2023.00 L556.75 2024.49 L531.51 2025.85 L506.14 2027.21 L480.89 2028.33 L455.52 2029.44 L455.52 2033.52 Z" stroke-linejoin="round"/>
	</defs>
	<defs>
		<clipPath id="clipPath_xWnuSHPo">
			<use xlink:href="#path_RULKeoFd"/>
		</clipPath>
	</defs>
	<use xlink:href="#path_RULKeoFd" style="stroke:none;fill:#E6E6E6"/>
	<use xlink:href="#path_RULKeoFd" style="fill:none;stroke:#E0E0E0;stroke-width:14.69" clip-path="url(#clipPath_xWnuSHPo)"/>
	<defs>
		<path id="path_TIqwswAh" d="M455.52 2023.25 L455.52 2023.25 L480.89 2021.52 L506.14 2019.54 L531.51 2017.31 L556.75 2014.96 L582.12 2012.36 L607.37 2009.52 L632.73 2006.42 L657.98 2003.20 L683.35 1999.74 L708.59 1996.03 L733.96 1992.07 L759.21 1987.98 L784.58 1983.65 L809.82 1979.07 L835.19 1974.49 L860.43 1969.79 L885.80 1964.96 L911.05 1960.14 L936.42 1955.43 L961.66 1950.73 L987.03 1946.28 L1012.27 1941.95 L1037.64 1937.99 L1062.89 1934.27 L1088.26 1930.81 L1113.50 1927.59 L1138.87 1924.74 L1164.24 1922.02 L1189.48 1919.55 L1214.85 1917.19 L1240.10 1914.97 L1265.47 1912.74 L1290.71 1910.51 L1316.08 1908.28 L1341.33 1905.81 L1366.69 1903.21 L1391.94 1900.36 L1417.31 1897.15 L1442.55 1893.56 L1467.92 1889.35 L1493.17 1884.65 L1518.54 1879.33 L1543.78 1873.39 L1569.15 1866.83 L1594.39 1859.53 L1619.76 1851.61 L1645.01 1842.82 L1670.38 1833.29 L1695.62 1822.77 L1720.99 1811.39 L1746.24 1799.01 L1771.61 1785.64 L1796.85 1771.04 L1822.22 1755.32 L1847.46 1738.25 L1872.83 1719.93 L1898.20 1700.13 L1923.45 1678.84 L1948.82 1655.95 L1974.06 1631.32 L1999.43 1605.09 L2024.67 1577.00 L2024.67 1429.73 L1999.43 1466.85 L1974.06 1501.38 L1948.82 1533.68 L1923.45 1563.75 L1898.20 1591.72 L1872.83 1617.71 L1847.46 1641.84 L1822.22 1664.24 L1796.85 1684.91 L1771.61 1703.97 L1746.24 1721.66 L1720.99 1737.88 L1695.62 1752.85 L1670.38 1766.59 L1645.01 1779.21 L1619.76 1790.72 L1594.39 1801.24 L1569.15 1810.77 L1543.78 1819.43 L1518.54 1827.35 L1493.17 1834.28 L1467.92 1840.59 L1442.55 1846.04 L1417.31 1850.86 L1391.94 1855.07 L1366.69 1858.78 L1341.33 1862.12 L1316.08 1865.22 L1290.71 1868.19 L1265.47 1870.91 L1240.10 1873.76 L1214.85 1876.60 L1189.48 1879.57 L1164.24 1882.79 L1138.87 1886.26 L1113.50 1889.97 L1088.26 1894.05 L1062.89 1898.63 L1037.64 1903.46 L1012.27 1908.78 L987.03 1914.47 L961.66 1920.54 L936.42 1926.72 L911.05 1933.04 L885.80 1939.47 L860.43 1945.78 L835.19 1951.97 L809.82 1957.91 L784.58 1963.73 L759.21 1969.30 L733.96 1974.62 L708.59 1979.69 L683.35 1984.39 L657.98 1988.85 L632.73 1992.93 L607.37 1996.77 L582.12 2000.36 L556.75 2003.58 L531.51 2006.67 L506.14 2009.39 L480.89 2011.99 L455.52 2014.34 L455.52 2023.25 Z" stroke-linejoin="round"/>
	</defs>
	<defs>
		<clipPath id="clipPath_bknKtLDC">
			<use xlink:href="#path_TIqwswAh"/>
		</clipPath>
	</defs>
	<use xlink:href="#path_TIqwswAh" style="stroke:none;fill:#E6E6E6"/>
	<use xlink:href="#path_TIqwswAh" style="fill:none;stroke:#E0E0E0;stroke-width:14.69" clip-path="url(#clipPath_bknKtLDC)"/>
	<defs>
		<path id="path_dUnqoCMQ" d="M455.52 2006.92 L455.52 2006.92 L480.89 2003.58 L506.14 1999.86 L531.51 1995.78 L556.75 1991.32 L582.12 1986.50 L607.37 1981.30 L632.73 1975.61 L657.98 1969.54 L683.35 1963.11 L708.59 1956.18 L733.96 1948.88 L759.21 1941.20 L784.58 1933.16 L809.82 1924.87 L835.19 1916.20 L860.43 1907.42 L885.80 1898.51 L911.05 1889.60 L936.42 1880.81 L961.66 1872.15 L987.03 1863.73 L1012.27 1855.69 L1037.64 1848.26 L1062.89 1841.46 L1088.26 1835.02 L1113.50 1829.21 L1138.87 1823.76 L1164.24 1818.81 L1189.48 1814.11 L1214.85 1809.78 L1240.10 1805.57 L1265.47 1801.49 L1290.71 1797.40 L1316.08 1793.19 L1341.33 1788.61 L1366.69 1783.79 L1391.94 1778.47 L1417.31 1772.53 L1442.55 1765.72 L1467.92 1758.05 L1493.17 1749.26 L1518.54 1739.36 L1543.78 1728.35 L1569.15 1716.09 L1594.39 1702.61 L1619.76 1687.76 L1645.01 1671.42 L1670.38 1653.60 L1695.62 1634.05 L1720.99 1612.88 L1746.24 1589.87 L1771.61 1564.87 L1796.85 1537.77 L1822.22 1508.44 L1847.46 1476.75 L1872.83 1442.60 L1898.20 1405.84 L1923.45 1366.12 L1948.82 1323.55 L1974.06 1277.88 L1999.43 1229.00 L2024.67 1176.65 L2024.67 904.64 L1999.43 973.08 L1974.06 1037.18 L1948.82 1096.95 L1923.45 1152.64 L1898.20 1204.50 L1872.83 1252.64 L1847.46 1297.31 L1822.22 1338.77 L1796.85 1377.13 L1771.61 1412.65 L1746.24 1445.32 L1720.99 1475.52 L1695.62 1503.36 L1670.38 1528.86 L1645.01 1552.24 L1619.76 1573.65 L1594.39 1593.21 L1569.15 1611.03 L1543.78 1627.12 L1518.54 1641.60 L1493.17 1654.59 L1467.92 1666.22 L1442.55 1676.49 L1417.31 1685.40 L1391.94 1693.20 L1366.69 1700.13 L1341.33 1706.44 L1316.08 1712.13 L1290.71 1717.58 L1265.47 1722.78 L1240.10 1727.98 L1214.85 1733.42 L1189.48 1738.99 L1164.24 1744.93 L1138.87 1751.36 L1113.50 1758.29 L1088.26 1765.97 L1062.89 1774.38 L1037.64 1783.42 L1012.27 1793.44 L987.03 1803.96 L961.66 1815.22 L936.42 1826.85 L911.05 1838.61 L885.80 1850.49 L860.43 1862.25 L835.19 1873.76 L809.82 1885.02 L784.58 1895.91 L759.21 1906.30 L733.96 1916.20 L708.59 1925.49 L683.35 1934.27 L657.98 1942.56 L632.73 1950.24 L607.37 1957.41 L582.12 1964.10 L556.75 1970.16 L531.51 1975.85 L506.14 1980.93 L480.89 1985.75 L455.52 1990.09 L455.52 2006.92 Z" stroke-linejoin="round"/>
	</defs>
	<defs>
		<clipPath id="clipPath_QLkzFWkr">
			<use xlink:href="#path_dUnqoCMQ"/>
		</clipPath>
	</defs>
	<use xlink:href="#path_dUnqoCMQ" style="stroke:none;fill:#E6E6E6"/>
	<use xlink:href="#path_dUnqoCMQ" style="fill:none;stroke:#E0E0E0;stroke-width:14.69" clip-path="url(#clipPath_QLkzFWkr)"/>
	<line x1="455.52" y1="1978.82" x2="458.37" y2="1978.82" style="stroke:#A0A0A0;stroke-width:7.34"/>
	<line x1="478.54" y1="1978.82" x2="480.77" y2="1978.82" style="stroke:#A0A0A0;stroke-width:7.34"/>
	<line x1="480.77" y1="1978.82" x2="481.39" y2="1978.82" style="stroke:#A0A0A0;stroke-width:7.34"/>
	<line x1="501.56" y1="1978.82" x2="504.40" y2="1978.82" style="stroke:#A0A0A0;stroke-width:7.34"/>
	<line x1="524.58" y1="1978.82" x2="527.42" y2="1978.82" style="stroke:#A0A0A0;stroke-width:7.34"/>
	<line x1="547.59" y1="1978.82" x2="550.44" y2="1978.82" style="stroke:#A0A0A0;stroke-width:7.34"/>
	<line x1="570.61" y1="1978.82" x2="573.58" y2="1978.82" style="stroke:#A0A0A0;stroke-width:7.34"/>
	<line x1="593.75" y1="1978.82" x2="596.60" y2="1978.82" style="stroke:#A0A0A0;stroke-width:7.34"/>
	<line x1="616.77" y1="1978.82" x2="619.62" y2="1978.82" style="stroke:#A0A0A0;stroke-width:7.34"/>
	<line x1="639.79" y1="1978.82" x2="642.63" y2="1978.82" style="stroke:#A0A0A0;stroke-width:7.34"/>
	<line x1="662.80" y1="1978.82" x2="665.65" y2="1978.82" style="stroke:#A0A0A0;stroke-width:7.34"/>
	<line x1="685.82" y1="1978.82" x2="688.67" y2="1978.82" style="stroke:#A0A0A0;stroke-width:7.34"/>
	<line x1="708.84" y1="1978.82" x2="711.69" y2="1978.82" style="stroke:#A0A0A0;stroke-width:7.34"/>
	<line x1="731.86" y1="1978.82" x2="733.84" y2="1978.82" style="stroke:#A0A0A0;stroke-width:7.34"/>
	<line x1="733.84" y1="1978.82" x2="734.70" y2="1978.82" style="stroke:#A0A0A0;stroke-width:7.34"/>
	<line x1="754.88" y1="1978.82" x2="757.72" y2="1978.82" style="stroke:#A0A0A0;stroke-width:7.34"/>
	<line x1="777.89" y1="1978.82" x2="780.74" y2="1978.82" style="stroke:#A0A0A0;stroke-width:7.34"/>
	<line x1="800.91" y1="1978.82" x2="803.88" y2="1978.82" style="stroke:#A0A0A0;stroke-width:7.34"/>
	<line x1="823.93" y1="1978.82" x2="826.90" y2="1978.82" style="stroke:#A0A0A0;stroke-width:7.34"/>
	<line x1="847.07" y1="1978.82" x2="849.91" y2="1978.82" style="stroke:#A0A0A0;stroke-width:7.34"/>
	<line x1="870.09" y1="1978.82" x2="872.93" y2="1978.82" style="stroke:#A0A0A0;stroke-width:7.34"/>
	<line x1="893.10" y1="1978.82" x2="895.95" y2="1978.82" style="stroke:#A0A0A0;stroke-width:7.34"/>
	<line x1="916.12" y1="1978.82" x2="918.97" y2="1978.82" style="stroke:#A0A0A0;stroke-width:7.34"/>
	<line x1="939.14" y1="1978.82" x2="941.99" y2="1978.82" style="stroke:#A0A0A0;stroke-width:7.34"/>
	<line x1="962.16" y1="1978.82" x2="965.00" y2="1978.82" style="stroke:#A0A0A0;stroke-width:7.34"/>
	<line x1="985.17" y1="1978.82" x2="986.91" y2="1978.82" style="stroke:#A0A0A0;stroke-width:7.34"/>
	<line x1="986.91" y1="1978.82" x2="988.02" y2="1978.82" style="stroke:#A0A0A0;stroke-width:7.34"/>
	<line x1="1008.19" y1="1978.82" x2="1011.04" y2="1978.82" style="stroke:#A0A0A0;stroke-width:7.34"/>
	<line x1="1031.21" y1="1978.82" x2="1034.06" y2="1978.82" style="stroke:#A0A0A0;stroke-width:7.34"/>
	<line x1="1054.23" y1="1978.82" x2="1057.20" y2="1978.82" style="stroke:#A0A0A0;stroke-width:7.34"/>
	<line x1="1077.24" y1="1978.82" x2="1080.21" y2="1978.82" style="stroke:#A0A0A0;stroke-width:7.34"/>
	<line x1="1100.38" y1="1978.82" x2="1103.23" y2="1978.82" style="stroke:#A0A0A0;stroke-width:7.34"/>
	<line x1="1123.40" y1="1978.82" x2="1126.25" y2="1978.82" style="stroke:#A0A0A0;stroke-width:7.34"/>
	<line x1="1146.42" y1="1978.82" x2="1149.27" y2="1978.82" style="stroke:#A0A0A0;stroke-width:7.34"/>
	<line x1="1169.44" y1="1978.82" x2="1172.28" y2="1978.82" style="stroke:#A0A0A0;stroke-width:7.34"/>
	<line x1="1192.45" y1="1978.82" x2="1195.30" y2="1978.82" style="stroke:#A0A0A0;stroke-width:7.34"/>
	<line x1="1215.47" y1="1978.82" x2="1218.32" y2="1978.82" style="stroke:#A0A0A0;stroke-width:7.34"/>
	<line x1="1238.49" y1="1978.82" x2="1240.10" y2="1978.82" style="stroke:#A0A0A0;stroke-width:7.34"/>
	<line x1="1240.10" y1="1978.82" x2="1241.34" y2="1978.82" style="stroke:#A0A0A0;stroke-width:7.34"/>
	<line x1="1261.51" y1="1978.82" x2="1264.35" y2="1978.82" style="stroke:#A0A0A0;stroke-width:7.34"/>
	<line x1="1284.53" y1="1978.82" x2="1287.37" y2="1978.82" style="stroke:#A0A0A0;stroke-width:7.34"/>
	<line x1="1307.54" y1="1978.82" x2="1310.51" y2="1978.82" style="stroke:#A0A0A0;stroke-width:7.34"/>
	<line x1="1330.56" y1="1978.82" x2="1333.53" y2="1978.82" style="stroke:#A0A0A0;stroke-width:7.34"/>
	<line x1="1353.70" y1="1978.82" x2="1356.55" y2="1978.82" style="stroke:#A0A0A0;stroke-width:7.34"/>
	<line x1="1376.72" y1="1978.82" x2="1379.57" y2="1978.82" style="stroke:#A0A0A0;stroke-width:7.34"/>
	<line x1="1399.74" y1="1978.82" x2="1402.58" y2="1978.82" style="stroke:#A0A0A0;stroke-width:7.34"/>
	<line x1="1422.75" y1="1978.82" x2="1425.60" y2="1978.82" style="stroke:#A0A0A0;stroke-width:7.34"/>
	<line x1="1445.77" y1="1978.82" x2="1448.62" y2="1978.82" style="stroke:#A0A0A0;stroke-width:7.34"/>
	<line x1="1468.79" y1="1978.82" x2="1471.63" y2="1978.82" style="stroke:#A0A0A0;stroke-width:7.34"/>
	<line x1="1491.81" y1="1978.82" x2="1493.17" y2="1978.82" style="stroke:#A0A0A0;stroke-width:7.34"/>
	<line x1="1493.17" y1="1978.82" x2="1494.65" y2="1978.82" style="stroke:#A0A0A0;stroke-width:7.34"/>
	<line x1="1514.82" y1="1978.82" x2="1517.67" y2="1978.82" style="stroke:#A0A0A0;stroke-width:7.34"/>
	<line x1="1537.84" y1="1978.82" x2="1540.69" y2="1978.82" style="stroke:#A0A0A0;stroke-width:7.34"/>
	<line x1="1560.86" y1="1978.82" x2="1563.83" y2="1978.82" style="stroke:#A0A0A0;stroke-width:7.34"/>
	<line x1="1584.00" y1="1978.82" x2="1586.85" y2="1978.82" style="stroke:#A0A0A0;stroke-width:7.34"/>
	<line x1="1607.02" y1="1978.82" x2="1609.86" y2="1978.82" style="stroke:#A0A0A0;stroke-width:7.34"/>
	<line x1="1630.04" y1="1978.82" x2="1632.88" y2="1978.82" style="stroke:#A0A0A0;stroke-width:7.34"/>
	<line x1="1653.05" y1="1978.82" x2="1655.90" y2="1978.82" style="stroke:#A0A0A0;stroke-width:7.34"/>
	<line x1="1676.07" y1="1978.82" x2="1678.92" y2="1978.82" style="stroke:#A0A0A0;stroke-width:7.34"/>
	<line x1="1699.09" y1="1978.82" x2="1701.93" y2="1978.82" style="stroke:#A0A0A0;stroke-width:7.34"/>
	<line x1="1722.11" y1="1978.82" x2="1724.95" y2="1978.82" style="stroke:#A0A0A0;stroke-width:7.34"/>
	<line x1="1745.12" y1="1978.82" x2="1746.24" y2="1978.82" style="stroke:#A0A0A0;stroke-width:7.34"/>
	<line x1="1746.24" y1="1978.82" x2="1747.97" y2="1978.82" style="stroke:#A0A0A0;stroke-width:7.34"/>
	<line x1="1768.14" y1="1978.82" x2="1770.99" y2="1978.82" style="stroke:#A0A0A0;stroke-width:7.34"/>
	<line x1="1791.16" y1="1978.82" x2="1794.00" y2="1978.82" style="stroke:#A0A0A0;stroke-width:7.34"/>
	<line x1="1814.17" y1="1978.82" x2="1817.14" y2="1978.82" style="stroke:#A0A0A0;stroke-width:7.34"/>
	<line x1="1837.32" y1="1978.82" x2="1840.16" y2="1978.82" style="stroke:#A0A0A0;stroke-width:7.34"/>
	<line x1="1860.33" y1="1978.82" x2="1863.18" y2="1978.82" style="stroke:#A0A0A0;stroke-width:7.34"/>
	<line x1="1883.35" y1="1978.82" x2="1886.20" y2="1978.82" style="stroke:#A0A0A0;stroke-width:7.34"/>
	<line x1="1906.37" y1="1978.82" x2="1909.21" y2="1978.82" style="stroke:#A0A0A0;stroke-width:7.34"/>
	<line x1="1929.39" y1="1978.82" x2="1932.23" y2="1978.82" style="stroke:#A0A0A0;stroke-width:7.34"/>
	<line x1="1952.40" y1="1978.82" x2="1955.25" y2="1978.82" style="stroke:#A0A0A0;stroke-width:7.34"/>
	<line x1="1975.42" y1="1978.82" x2="1978.27" y2="1978.82" style="stroke:#A0A0A0;stroke-width:7.34"/>
	<line x1="1998.44" y1="1978.82" x2="1999.31" y2="1978.82" style="stroke:#A0A0A0;stroke-width:7.34"/>
	<line x1="1999.31" y1="1978.82" x2="2001.29" y2="1978.82" style="stroke:#A0A0A0;stroke-width:7.34"/>
	<line x1="2021.46" y1="1978.82" x2="2024.30" y2="1978.82" style="stroke:#A0A0A0;stroke-width:7.34"/>
	<path d="" stroke-linejoin="round" style="fill:none;stroke:#A0A0A0;stroke-width:7.34"/>
	<path d=" M455.52 2019.29 L480.77 2017.19 L506.14 2014.96 L531.38 2012.49 L556.75 2009.76 L582.00 2006.92 L607.37 2003.70 L632.61 2000.23 L657.98 1996.64 L683.22 1992.68 L708.59 1988.48 L733.84 1984.02 L759.21 1979.32 L784.45 1974.49 L809.82 1969.42 L835.07 1964.10 L860.43 1958.65 L885.68 1953.21 L911.05 1947.64 L936.29 1942.19 L961.66 1936.75 L986.91 1931.55 L1012.27 1926.60 L1037.52 1922.02 L1062.89 1917.69 L1088.13 1913.85 L1113.50 1910.26 L1138.87 1906.92 L1164.12 1903.83 L1189.48 1901.11 L1214.73 1898.38 L1240.10 1895.79 L1265.34 1893.31 L1290.71 1890.84 L1315.96 1888.24 L1341.33 1885.51 L1366.57 1882.67 L1391.94 1879.33 L1417.18 1875.61 L1442.55 1871.53 L1467.80 1866.70 L1493.17 1861.26 L1518.41 1855.19 L1543.78 1848.39 L1569.03 1840.84 L1594.39 1832.55 L1619.64 1823.27 L1645.01 1813.24 L1670.25 1802.23 L1695.62 1790.35 L1720.87 1777.23 L1746.24 1763.00 L1771.48 1747.65 L1796.85 1730.95 L1822.10 1712.88 L1847.46 1693.45 L1872.71 1672.41 L1898.08 1649.76 L1923.45 1625.26 L1948.69 1599.02 L1974.06 1570.93 L1999.31 1540.74 L2024.67 1508.44" stroke-linejoin="round" style="fill:none;stroke:#008000;stroke-width:7.34"/>
	<path d=" M455.52 1999.37 L480.77 1995.53 L506.14 1991.32 L531.38 1986.74 L556.75 1981.67 L582.00 1976.35 L607.37 1970.41 L632.61 1963.97 L657.98 1957.17 L683.22 1949.87 L708.59 1942.07 L733.84 1933.78 L759.21 1925.12 L784.45 1915.96 L809.82 1906.43 L835.07 1896.65 L860.43 1886.50 L885.68 1876.36 L911.05 1866.08 L936.29 1855.81 L961.66 1845.79 L986.91 1836.14 L1012.27 1826.85 L1037.52 1818.32 L1062.89 1810.40 L1088.13 1803.09 L1113.50 1796.41 L1138.87 1790.22 L1164.12 1784.53 L1189.48 1779.33 L1214.73 1774.38 L1240.10 1769.56 L1265.34 1764.98 L1290.71 1760.28 L1315.96 1755.57 L1341.33 1750.50 L1366.57 1744.93 L1391.94 1738.87 L1417.18 1732.06 L1442.55 1724.26 L1467.80 1715.35 L1493.17 1705.33 L1518.41 1693.94 L1543.78 1681.32 L1569.03 1667.21 L1594.39 1651.74 L1619.64 1634.66 L1645.01 1615.98 L1670.25 1595.56 L1695.62 1573.28 L1720.87 1549.03 L1746.24 1522.67 L1771.48 1494.08 L1796.85 1463.02 L1822.10 1429.48 L1847.46 1393.34 L1872.71 1354.24 L1898.08 1312.04 L1923.45 1266.74 L1948.69 1218.11 L1974.06 1165.76 L1999.31 1109.82 L2024.67 1049.93" stroke-linejoin="round" style="fill:none;stroke:#FF7F00;stroke-width:7.34"/>
	<path d=" M455.52 2031.67 L480.77 2030.80 L506.14 2029.69 L531.38 2028.57 L556.75 2027.34 L582.00 2025.97 L607.37 2024.49 L632.61 2022.88 L657.98 2021.27 L683.22 2019.42 L708.59 2017.44 L733.84 2015.46 L759.21 2013.23 L784.45 2011.00 L809.82 2008.65 L835.07 2006.17 L860.43 2003.70 L885.68 2001.22 L911.05 1998.62 L936.29 1996.15 L961.66 1993.55 L986.91 1991.20 L1012.27 1988.97 L1037.52 1986.74 L1062.89 1984.76 L1088.13 1983.03 L1113.50 1981.30 L1138.87 1979.81 L1164.12 1978.45 L1189.48 1977.09 L1214.73 1975.85 L1240.10 1974.74 L1265.34 1973.50 L1290.71 1972.39 L1315.96 1971.28 L1341.33 1969.91 L1366.57 1968.55 L1391.94 1967.07 L1417.18 1965.34 L1442.55 1963.48 L1467.80 1961.25 L1493.17 1958.78 L1518.41 1955.93 L1543.78 1952.84 L1569.03 1949.25 L1594.39 1945.41 L1619.64 1941.20 L1645.01 1936.62 L1670.25 1931.43 L1695.62 1925.98 L1720.87 1919.92 L1746.24 1913.36 L1771.48 1906.30 L1796.85 1898.51 L1822.10 1890.22 L1847.46 1881.18 L1872.71 1871.41 L1898.08 1861.01 L1923.45 1849.63 L1948.69 1837.50 L1974.06 1824.50 L1999.31 1810.52 L2024.67 1795.67" stroke-linejoin="round" style="fill:none;stroke:#1A476F;stroke-width:7.34"/>
	<defs>
		<path id="path_MHFSGKmf" d="M2201.51 2030.06 L2201.51 2030.06 L2226.88 2028.82 L2252.13 2027.58 L2277.49 2026.10 L2302.74 2024.61 L2328.11 2022.88 L2353.35 2021.02 L2378.72 2019.04 L2403.97 2016.94 L2429.34 2014.71 L2454.58 2012.36 L2479.95 2009.76 L2505.20 2007.04 L2530.56 2004.32 L2555.81 2001.35 L2581.18 1998.38 L2606.42 1995.28 L2631.79 1992.19 L2657.04 1989.10 L2682.41 1986.00 L2707.65 1983.03 L2733.02 1980.06 L2758.26 1977.34 L2783.63 1974.74 L2808.88 1972.39 L2834.25 1970.16 L2859.49 1968.06 L2884.86 1966.20 L2910.11 1964.47 L2935.47 1962.98 L2960.72 1961.38 L2986.09 1960.01 L3011.46 1958.53 L3036.70 1957.17 L3062.07 1955.68 L3087.32 1954.20 L3112.68 1952.46 L3137.93 1950.61 L3163.30 1948.63 L3188.54 1946.28 L3213.91 1943.55 L3239.16 1940.58 L3264.53 1937.12 L3289.77 1933.41 L3315.14 1929.08 L3340.38 1924.50 L3365.75 1919.30 L3391.00 1913.73 L3416.37 1907.54 L3441.61 1900.86 L3466.98 1893.56 L3492.22 1885.51 L3517.59 1876.85 L3542.84 1867.57 L3568.21 1857.42 L3593.45 1846.53 L3618.82 1834.65 L3644.07 1821.90 L3669.43 1808.29 L3694.68 1793.56 L3720.05 1777.72 L3745.42 1760.89 L3770.66 1742.83 L3770.66 1646.30 L3745.42 1670.31 L3720.05 1692.71 L3694.68 1713.62 L3669.43 1733.17 L3644.07 1751.24 L3618.82 1768.07 L3593.45 1783.66 L3568.21 1798.14 L3542.84 1811.51 L3517.59 1823.88 L3492.22 1835.39 L3466.98 1845.91 L3441.61 1855.57 L3416.37 1864.48 L3391.00 1872.64 L3365.75 1880.07 L3340.38 1886.88 L3315.14 1893.06 L3289.77 1898.63 L3264.53 1903.71 L3239.16 1908.28 L3213.91 1912.37 L3188.54 1915.83 L3163.30 1919.05 L3137.93 1921.77 L3112.68 1924.13 L3087.32 1926.35 L3062.07 1928.33 L3036.70 1930.31 L3011.46 1932.05 L2986.09 1933.90 L2960.72 1935.76 L2935.47 1937.74 L2910.11 1939.84 L2884.86 1942.07 L2859.49 1944.42 L2834.25 1947.14 L2808.88 1949.99 L2783.63 1953.21 L2758.26 1956.55 L2733.02 1960.26 L2707.65 1964.10 L2682.41 1968.18 L2657.04 1972.14 L2631.79 1976.23 L2606.42 1980.31 L2581.18 1984.27 L2555.81 1988.23 L2530.56 1991.94 L2505.20 1995.53 L2479.95 1998.87 L2454.58 2002.09 L2429.34 2005.06 L2403.97 2007.91 L2378.72 2010.63 L2353.35 2013.10 L2328.11 2015.33 L2302.74 2017.44 L2277.49 2019.42 L2252.13 2021.15 L2226.88 2022.76 L2201.51 2024.24 L2201.51 2030.06 Z" stroke-linejoin="round"/>
	</defs>
	<defs>
		<clipPath id="clipPath_MiSGBjSs">
			<use xlink:href="#path_MHFSGKmf"/>
		</clipPath>
	</defs>
	<use xlink:href="#path_MHFSGKmf" style="stroke:none;fill:#E6E6E6"/>
	<use xlink:href="#path_MHFSGKmf" style="fill:none;stroke:#E0E0E0;stroke-width:14.69" clip-path="url(#clipPath_MiSGBjSs)"/>
	<defs>
		<path id="path_RYKlLCVX" d="M2201.51 2015.83 L2201.51 2015.83 L2226.88 2013.23 L2252.13 2010.38 L2277.49 2007.41 L2302.74 2004.07 L2328.11 2000.48 L2353.35 1996.52 L2378.72 1992.19 L2403.97 1987.73 L2429.34 1982.78 L2454.58 1977.59 L2479.95 1972.14 L2505.20 1966.33 L2530.56 1960.39 L2555.81 1954.07 L2581.18 1947.64 L2606.42 1940.96 L2631.79 1934.27 L2657.04 1927.59 L2682.41 1920.91 L2707.65 1914.47 L2733.02 1908.16 L2758.26 1902.10 L2783.63 1896.53 L2808.88 1891.33 L2834.25 1886.63 L2859.49 1882.17 L2884.86 1878.09 L2910.11 1874.38 L2935.47 1870.91 L2960.72 1867.57 L2986.09 1864.48 L3011.46 1861.38 L3036.70 1858.29 L3062.07 1855.07 L3087.32 1851.73 L3112.68 1848.14 L3137.93 1844.06 L3163.30 1839.60 L3188.54 1834.53 L3213.91 1828.71 L3239.16 1822.15 L3264.53 1814.73 L3289.77 1806.44 L3315.14 1797.28 L3340.38 1787.13 L3365.75 1775.99 L3391.00 1763.74 L3416.37 1750.37 L3441.61 1735.77 L3466.98 1719.93 L3492.22 1702.73 L3517.59 1683.92 L3542.84 1663.62 L3568.21 1641.72 L3593.45 1617.96 L3618.82 1592.34 L3644.07 1564.74 L3669.43 1535.17 L3694.68 1503.24 L3720.05 1469.08 L3745.42 1432.45 L3770.66 1393.22 L3770.66 1187.42 L3745.42 1239.15 L3720.05 1287.41 L3694.68 1332.46 L3669.43 1374.41 L3644.07 1413.52 L3618.82 1449.78 L3593.45 1483.44 L3568.21 1514.62 L3542.84 1543.46 L3517.59 1570.07 L3492.22 1594.69 L3466.98 1617.46 L3441.61 1638.38 L3416.37 1657.56 L3391.00 1675.13 L3365.75 1691.22 L3340.38 1705.82 L3315.14 1719.19 L3289.77 1731.32 L3264.53 1742.21 L3239.16 1751.98 L3213.91 1760.77 L3188.54 1768.44 L3163.30 1775.13 L3137.93 1780.94 L3112.68 1786.14 L3087.32 1790.84 L3062.07 1795.17 L3036.70 1799.26 L3011.46 1803.22 L2986.09 1807.05 L2960.72 1811.01 L2935.47 1815.22 L2910.11 1819.68 L2884.86 1824.50 L2859.49 1829.70 L2834.25 1835.52 L2808.88 1841.71 L2783.63 1848.51 L2758.26 1855.94 L2733.02 1863.98 L2707.65 1872.27 L2682.41 1880.94 L2657.04 1889.85 L2631.79 1898.76 L2606.42 1907.54 L2581.18 1916.08 L2555.81 1924.50 L2530.56 1932.66 L2505.20 1940.46 L2479.95 1947.89 L2454.58 1954.82 L2429.34 1961.38 L2403.97 1967.56 L2378.72 1973.38 L2353.35 1978.70 L2328.11 1983.65 L2302.74 1988.23 L2277.49 1992.44 L2252.13 1996.40 L2226.88 1999.99 L2201.51 2003.20 L2201.51 2015.83 Z" stroke-linejoin="round"/>
	</defs>
	<defs>
		<clipPath id="clipPath_aXopvOeQ">
			<use xlink:href="#path_RYKlLCVX"/>
		</clipPath>
	</defs>
	<use xlink:href="#path_RYKlLCVX" style="stroke:none;fill:#E6E6E6"/>
	<use xlink:href="#path_RYKlLCVX" style="fill:none;stroke:#E0E0E0;stroke-width:14.69" clip-path="url(#clipPath_aXopvOeQ)"/>
	<defs>
		<path id="path_azJQppsC" d="M2201.51 1992.93 L2201.51 1992.93 L2226.88 1988.11 L2252.13 1983.03 L2277.49 1977.34 L2302.74 1971.15 L2328.11 1964.35 L2353.35 1957.04 L2378.72 1949.12 L2403.97 1940.71 L2429.34 1931.67 L2454.58 1922.02 L2479.95 1911.75 L2505.20 1900.98 L2530.56 1889.85 L2555.81 1878.21 L2581.18 1866.21 L2606.42 1853.96 L2631.79 1841.46 L2657.04 1829.08 L2682.41 1816.71 L2707.65 1804.58 L2733.02 1792.82 L2758.26 1781.68 L2783.63 1771.29 L2808.88 1761.64 L2834.25 1752.85 L2859.49 1744.56 L2884.86 1737.13 L2910.11 1730.08 L2935.47 1723.64 L2960.72 1717.46 L2986.09 1711.64 L3011.46 1705.95 L3036.70 1700.13 L3062.07 1694.19 L3087.32 1688.00 L3112.68 1681.32 L3137.93 1673.77 L3163.30 1665.48 L3188.54 1656.07 L3213.91 1645.18 L3239.16 1632.93 L3264.53 1619.20 L3289.77 1603.73 L3315.14 1586.65 L3340.38 1567.84 L3365.75 1547.05 L3391.00 1524.40 L3416.37 1499.53 L3441.61 1472.30 L3466.98 1442.85 L3492.22 1410.67 L3517.59 1375.90 L3542.84 1338.15 L3568.21 1297.19 L3593.45 1253.13 L3618.82 1205.49 L3644.07 1154.25 L3669.43 1099.06 L3694.68 1039.78 L3720.05 976.29 L3745.42 908.11 L3770.66 835.34 L3770.66 456.65 L3745.42 552.07 L3720.05 641.29 L3694.68 724.46 L3669.43 802.05 L3644.07 874.32 L3618.82 941.40 L3593.45 1003.64 L3568.21 1061.44 L3542.84 1114.90 L3517.59 1164.28 L3492.22 1209.94 L3466.98 1251.89 L3441.61 1290.63 L3416.37 1326.27 L3391.00 1358.94 L3365.75 1388.77 L3340.38 1415.99 L3315.14 1440.74 L3289.77 1463.27 L3264.53 1483.56 L3239.16 1501.63 L3213.91 1517.84 L3188.54 1532.07 L3163.30 1544.45 L3137.93 1555.46 L3112.68 1565.12 L3087.32 1573.78 L3062.07 1581.82 L3036.70 1589.37 L3011.46 1596.67 L2986.09 1603.97 L2960.72 1611.40 L2935.47 1619.20 L2910.11 1627.49 L2884.86 1636.40 L2859.49 1646.17 L2834.25 1656.82 L2808.88 1668.45 L2783.63 1681.20 L2758.26 1695.06 L2733.02 1709.91 L2707.65 1725.50 L2682.41 1741.71 L2657.04 1758.17 L2631.79 1774.63 L2606.42 1791.09 L2581.18 1807.18 L2555.81 1822.89 L2530.56 1837.99 L2505.20 1852.47 L2479.95 1866.33 L2454.58 1879.33 L2429.34 1891.58 L2403.97 1903.09 L2378.72 1913.85 L2353.35 1923.88 L2328.11 1933.04 L2302.74 1941.70 L2277.49 1949.49 L2252.13 1956.80 L2226.88 1963.36 L2201.51 1969.54 L2201.51 1992.93 Z" stroke-linejoin="round"/>
	</defs>
	<defs>
		<clipPath id="clipPath_JfpkMsNx">
			<use xlink:href="#path_azJQppsC"/>
		</clipPath>
	</defs>
	<use xlink:href="#path_azJQppsC" style="stroke:none;fill:#E6E6E6"/>
	<use xlink:href="#path_azJQppsC" style="fill:none;stroke:#E0E0E0;stroke-width:14.69" clip-path="url(#clipPath_JfpkMsNx)"/>
	<line x1="2201.39" y1="1953.70" x2="2204.24" y2="1953.70" style="stroke:#A0A0A0;stroke-width:7.34"/>
	<line x1="2224.41" y1="1953.70" x2="2226.76" y2="1953.70" style="stroke:#A0A0A0;stroke-width:7.34"/>
	<line x1="2226.76" y1="1953.70" x2="2227.25" y2="1953.70" style="stroke:#A0A0A0;stroke-width:7.34"/>
	<line x1="2247.42" y1="1953.70" x2="2250.27" y2="1953.70" style="stroke:#A0A0A0;stroke-width:7.34"/>
	<line x1="2270.44" y1="1953.70" x2="2273.29" y2="1953.70" style="stroke:#A0A0A0;stroke-width:7.34"/>
	<line x1="2293.46" y1="1953.70" x2="2296.43" y2="1953.70" style="stroke:#A0A0A0;stroke-width:7.34"/>
	<line x1="2316.60" y1="1953.70" x2="2319.45" y2="1953.70" style="stroke:#A0A0A0;stroke-width:7.34"/>
	<line x1="2339.62" y1="1953.70" x2="2342.46" y2="1953.70" style="stroke:#A0A0A0;stroke-width:7.34"/>
	<line x1="2362.64" y1="1953.70" x2="2365.48" y2="1953.70" style="stroke:#A0A0A0;stroke-width:7.34"/>
	<line x1="2385.65" y1="1953.70" x2="2388.50" y2="1953.70" style="stroke:#A0A0A0;stroke-width:7.34"/>
	<line x1="2408.67" y1="1953.70" x2="2411.52" y2="1953.70" style="stroke:#A0A0A0;stroke-width:7.34"/>
	<line x1="2431.69" y1="1953.70" x2="2434.53" y2="1953.70" style="stroke:#A0A0A0;stroke-width:7.34"/>
	<line x1="2454.70" y1="1953.70" x2="2457.55" y2="1953.70" style="stroke:#A0A0A0;stroke-width:7.34"/>
	<line x1="2477.72" y1="1953.70" x2="2479.83" y2="1953.70" style="stroke:#A0A0A0;stroke-width:7.34"/>
	<line x1="2479.83" y1="1953.70" x2="2480.57" y2="1953.70" style="stroke:#A0A0A0;stroke-width:7.34"/>
	<line x1="2500.74" y1="1953.70" x2="2503.59" y2="1953.70" style="stroke:#A0A0A0;stroke-width:7.34"/>
	<line x1="2523.76" y1="1953.70" x2="2526.60" y2="1953.70" style="stroke:#A0A0A0;stroke-width:7.34"/>
	<line x1="2546.78" y1="1953.70" x2="2549.74" y2="1953.70" style="stroke:#A0A0A0;stroke-width:7.34"/>
	<line x1="2569.92" y1="1953.70" x2="2572.76" y2="1953.70" style="stroke:#A0A0A0;stroke-width:7.34"/>
	<line x1="2592.93" y1="1953.70" x2="2595.78" y2="1953.70" style="stroke:#A0A0A0;stroke-width:7.34"/>
	<line x1="2615.95" y1="1953.70" x2="2618.80" y2="1953.70" style="stroke:#A0A0A0;stroke-width:7.34"/>
	<line x1="2638.97" y1="1953.70" x2="2641.82" y2="1953.70" style="stroke:#A0A0A0;stroke-width:7.34"/>
	<line x1="2661.99" y1="1953.70" x2="2664.83" y2="1953.70" style="stroke:#A0A0A0;stroke-width:7.34"/>
	<line x1="2685.00" y1="1953.70" x2="2687.85" y2="1953.70" style="stroke:#A0A0A0;stroke-width:7.34"/>
	<line x1="2708.02" y1="1953.70" x2="2710.87" y2="1953.70" style="stroke:#A0A0A0;stroke-width:7.34"/>
	<line x1="2731.04" y1="1953.70" x2="2732.89" y2="1953.70" style="stroke:#A0A0A0;stroke-width:7.34"/>
	<line x1="2732.89" y1="1953.70" x2="2733.89" y2="1953.70" style="stroke:#A0A0A0;stroke-width:7.34"/>
	<line x1="2754.06" y1="1953.70" x2="2756.90" y2="1953.70" style="stroke:#A0A0A0;stroke-width:7.34"/>
	<line x1="2777.07" y1="1953.70" x2="2779.92" y2="1953.70" style="stroke:#A0A0A0;stroke-width:7.34"/>
	<line x1="2800.09" y1="1953.70" x2="2803.06" y2="1953.70" style="stroke:#A0A0A0;stroke-width:7.34"/>
	<line x1="2823.23" y1="1953.70" x2="2826.08" y2="1953.70" style="stroke:#A0A0A0;stroke-width:7.34"/>
	<line x1="2846.25" y1="1953.70" x2="2849.10" y2="1953.70" style="stroke:#A0A0A0;stroke-width:7.34"/>
	<line x1="2869.27" y1="1953.70" x2="2872.11" y2="1953.70" style="stroke:#A0A0A0;stroke-width:7.34"/>
	<line x1="2892.28" y1="1953.70" x2="2895.13" y2="1953.70" style="stroke:#A0A0A0;stroke-width:7.34"/>
	<line x1="2915.30" y1="1953.70" x2="2918.15" y2="1953.70" style="stroke:#A0A0A0;stroke-width:7.34"/>
	<line x1="2938.32" y1="1953.70" x2="2941.17" y2="1953.70" style="stroke:#A0A0A0;stroke-width:7.34"/>
	<line x1="2961.34" y1="1953.70" x2="2964.18" y2="1953.70" style="stroke:#A0A0A0;stroke-width:7.34"/>
	<line x1="2984.36" y1="1953.70" x2="2986.09" y2="1953.70" style="stroke:#A0A0A0;stroke-width:7.34"/>
	<line x1="2986.09" y1="1953.70" x2="2987.20" y2="1953.70" style="stroke:#A0A0A0;stroke-width:7.34"/>
	<line x1="3007.37" y1="1953.70" x2="3010.22" y2="1953.70" style="stroke:#A0A0A0;stroke-width:7.34"/>
	<line x1="3030.39" y1="1953.70" x2="3033.36" y2="1953.70" style="stroke:#A0A0A0;stroke-width:7.34"/>
	<line x1="3053.41" y1="1953.70" x2="3056.38" y2="1953.70" style="stroke:#A0A0A0;stroke-width:7.34"/>
	<line x1="3076.55" y1="1953.70" x2="3079.39" y2="1953.70" style="stroke:#A0A0A0;stroke-width:7.34"/>
	<line x1="3099.57" y1="1953.70" x2="3102.41" y2="1953.70" style="stroke:#A0A0A0;stroke-width:7.34"/>
	<line x1="3122.58" y1="1953.70" x2="3125.43" y2="1953.70" style="stroke:#A0A0A0;stroke-width:7.34"/>
	<line x1="3145.60" y1="1953.70" x2="3148.45" y2="1953.70" style="stroke:#A0A0A0;stroke-width:7.34"/>
	<line x1="3168.62" y1="1953.70" x2="3171.47" y2="1953.70" style="stroke:#A0A0A0;stroke-width:7.34"/>
	<line x1="3191.64" y1="1953.70" x2="3194.48" y2="1953.70" style="stroke:#A0A0A0;stroke-width:7.34"/>
	<line x1="3214.65" y1="1953.70" x2="3217.50" y2="1953.70" style="stroke:#A0A0A0;stroke-width:7.34"/>
	<line x1="3237.67" y1="1953.70" x2="3239.16" y2="1953.70" style="stroke:#A0A0A0;stroke-width:7.34"/>
	<line x1="3239.16" y1="1953.70" x2="3240.52" y2="1953.70" style="stroke:#A0A0A0;stroke-width:7.34"/>
	<line x1="3260.69" y1="1953.70" x2="3263.53" y2="1953.70" style="stroke:#A0A0A0;stroke-width:7.34"/>
	<line x1="3283.71" y1="1953.70" x2="3286.68" y2="1953.70" style="stroke:#A0A0A0;stroke-width:7.34"/>
	<line x1="3306.72" y1="1953.70" x2="3309.69" y2="1953.70" style="stroke:#A0A0A0;stroke-width:7.34"/>
	<line x1="3329.86" y1="1953.70" x2="3332.71" y2="1953.70" style="stroke:#A0A0A0;stroke-width:7.34"/>
	<line x1="3352.88" y1="1953.70" x2="3355.73" y2="1953.70" style="stroke:#A0A0A0;stroke-width:7.34"/>
	<line x1="3375.90" y1="1953.70" x2="3378.75" y2="1953.70" style="stroke:#A0A0A0;stroke-width:7.34"/>
	<line x1="3398.92" y1="1953.70" x2="3401.76" y2="1953.70" style="stroke:#A0A0A0;stroke-width:7.34"/>
	<line x1="3421.93" y1="1953.70" x2="3424.78" y2="1953.70" style="stroke:#A0A0A0;stroke-width:7.34"/>
	<line x1="3444.95" y1="1953.70" x2="3447.80" y2="1953.70" style="stroke:#A0A0A0;stroke-width:7.34"/>
	<line x1="3467.97" y1="1953.70" x2="3470.82" y2="1953.70" style="stroke:#A0A0A0;stroke-width:7.34"/>
	<line x1="3490.99" y1="1953.70" x2="3492.22" y2="1953.70" style="stroke:#A0A0A0;stroke-width:7.34"/>
	<line x1="3492.22" y1="1953.70" x2="3493.83" y2="1953.70" style="stroke:#A0A0A0;stroke-width:7.34"/>
	<line x1="3514.01" y1="1953.70" x2="3516.85" y2="1953.70" style="stroke:#A0A0A0;stroke-width:7.34"/>
	<line x1="3537.02" y1="1953.70" x2="3539.99" y2="1953.70" style="stroke:#A0A0A0;stroke-width:7.34"/>
	<line x1="3560.04" y1="1953.70" x2="3563.01" y2="1953.70" style="stroke:#A0A0A0;stroke-width:7.34"/>
	<line x1="3583.18" y1="1953.70" x2="3586.03" y2="1953.70" style="stroke:#A0A0A0;stroke-width:7.34"/>
	<line x1="3606.20" y1="1953.70" x2="3609.05" y2="1953.70" style="stroke:#A0A0A0;stroke-width:7.34"/>
	<line x1="3629.22" y1="1953.70" x2="3632.06" y2="1953.70" style="stroke:#A0A0A0;stroke-width:7.34"/>
	<line x1="3652.23" y1="1953.70" x2="3655.08" y2="1953.70" style="stroke:#A0A0A0;stroke-width:7.34"/>
	<line x1="3675.25" y1="1953.70" x2="3678.10" y2="1953.70" style="stroke:#A0A0A0;stroke-width:7.34"/>
	<line x1="3698.27" y1="1953.70" x2="3701.11" y2="1953.70" style="stroke:#A0A0A0;stroke-width:7.34"/>
	<line x1="3721.29" y1="1953.70" x2="3724.13" y2="1953.70" style="stroke:#A0A0A0;stroke-width:7.34"/>
	<line x1="3744.30" y1="1953.70" x2="3745.29" y2="1953.70" style="stroke:#A0A0A0;stroke-width:7.34"/>
	<line x1="3745.29" y1="1953.70" x2="3747.15" y2="1953.70" style="stroke:#A0A0A0;stroke-width:7.34"/>
	<line x1="3767.32" y1="1953.70" x2="3770.17" y2="1953.70" style="stroke:#A0A0A0;stroke-width:7.34"/>
	<path d="" stroke-linejoin="round" style="fill:none;stroke:#A0A0A0;stroke-width:7.34"/>
	<path d=" M2201.39 2010.13 L2226.76 2007.29 L2252.13 2004.07 L2277.37 2000.61 L2302.74 1996.89 L2327.99 1992.81 L2353.35 1988.35 L2378.60 1983.65 L2403.97 1978.45 L2429.21 1973.01 L2454.58 1967.19 L2479.83 1961.00 L2505.20 1954.44 L2530.44 1947.51 L2555.81 1940.46 L2581.05 1933.04 L2606.42 1925.49 L2631.67 1917.81 L2657.04 1910.14 L2682.28 1902.47 L2707.65 1894.92 L2732.89 1887.62 L2758.26 1880.81 L2783.51 1874.38 L2808.88 1868.31 L2834.12 1862.87 L2859.49 1857.92 L2884.74 1853.21 L2910.11 1849.01 L2935.35 1845.05 L2960.72 1841.33 L2986.09 1837.74 L3011.33 1834.28 L3036.70 1830.81 L3061.95 1827.23 L3087.32 1823.39 L3112.56 1819.31 L3137.93 1814.73 L3163.17 1809.65 L3188.54 1803.84 L3213.79 1797.15 L3239.16 1789.60 L3264.40 1781.07 L3289.77 1771.54 L3315.01 1761.02 L3340.38 1749.38 L3365.63 1736.64 L3391.00 1722.53 L3416.24 1707.18 L3441.61 1690.48 L3466.86 1672.29 L3492.22 1652.49 L3517.47 1630.95 L3542.84 1607.69 L3568.08 1582.56 L3593.45 1555.34 L3618.70 1526.01 L3644.07 1494.45 L3669.31 1460.30 L3694.68 1423.79 L3719.93 1384.56 L3745.29 1342.48 L3770.66 1297.44" stroke-linejoin="round" style="fill:none;stroke:#008000;stroke-width:7.34"/>
	<path d=" M2201.39 1982.41 L2226.76 1976.97 L2252.13 1971.15 L2277.37 1964.72 L2302.74 1957.66 L2327.99 1950.11 L2353.35 1941.82 L2378.60 1933.04 L2403.97 1923.38 L2429.21 1913.23 L2454.58 1902.34 L2479.83 1890.84 L2505.20 1878.58 L2530.44 1865.84 L2555.81 1852.60 L2581.05 1838.86 L2606.42 1824.75 L2631.67 1810.52 L2657.04 1796.16 L2682.28 1781.93 L2707.65 1767.95 L2732.89 1754.33 L2758.26 1741.59 L2783.51 1729.58 L2808.88 1718.45 L2834.12 1708.30 L2859.49 1698.89 L2884.74 1690.35 L2910.11 1682.43 L2935.35 1675.13 L2960.72 1668.20 L2986.09 1661.64 L3011.33 1655.21 L3036.70 1648.65 L3061.95 1641.97 L3087.32 1634.91 L3112.56 1627.24 L3137.93 1618.82 L3163.17 1609.30 L3188.54 1598.40 L3213.79 1586.03 L3239.16 1571.92 L3264.40 1556.08 L3289.77 1538.38 L3315.01 1518.83 L3340.38 1497.17 L3365.63 1473.41 L3391.00 1447.43 L3416.24 1418.96 L3441.61 1387.78 L3466.86 1353.99 L3492.22 1317.24 L3517.47 1277.39 L3542.84 1234.20 L3568.08 1187.42 L3593.45 1136.93 L3618.70 1082.48 L3644.07 1023.82 L3669.31 960.70 L3694.68 892.88 L3719.93 820.12 L3745.29 742.28 L3770.66 658.87" stroke-linejoin="round" style="fill:none;stroke:#FF7F00;stroke-width:7.34"/>
	<path d=" M2201.39 2027.46 L2226.76 2026.10 L2252.13 2024.74 L2277.37 2023.13 L2302.74 2021.40 L2327.99 2019.54 L2353.35 2017.44 L2378.60 2015.21 L2403.97 2012.86 L2429.21 2010.38 L2454.58 2007.66 L2479.83 2004.81 L2505.20 2001.72 L2530.44 1998.62 L2555.81 1995.28 L2581.05 1991.94 L2606.42 1988.35 L2631.67 1984.89 L2657.04 1981.30 L2682.28 1977.71 L2707.65 1974.25 L2732.89 1970.90 L2758.26 1967.69 L2783.51 1964.72 L2808.88 1961.99 L2834.12 1959.52 L2859.49 1957.17 L2884.74 1955.06 L2910.11 1953.08 L2935.35 1951.23 L2960.72 1949.49 L2986.09 1947.89 L3011.33 1946.28 L3036.70 1944.67 L3061.95 1943.06 L3087.32 1941.20 L3112.56 1939.35 L3137.93 1937.24 L3163.17 1934.89 L3188.54 1932.17 L3213.79 1929.08 L3239.16 1925.61 L3264.40 1921.65 L3289.77 1917.32 L3315.01 1912.37 L3340.38 1907.05 L3365.63 1901.11 L3391.00 1894.67 L3416.24 1887.49 L3441.61 1879.82 L3466.86 1871.41 L3492.22 1862.25 L3517.47 1852.35 L3542.84 1841.58 L3568.08 1829.95 L3593.45 1817.33 L3618.70 1803.71 L3644.07 1789.11 L3669.31 1773.39 L3694.68 1756.44 L3719.93 1738.25 L3745.29 1718.82 L3770.66 1697.90" stroke-linejoin="round" style="fill:none;stroke:#1A476F;stroke-width:7.34"/>
	<line x1="401.69" y1="2096.14" x2="401.69" y2="402.82" style="stroke:#000000;stroke-width:4.90"/>
	<line x1="401.69" y1="2042.31" x2="367.66" y2="2042.31" style="stroke:#000000;stroke-width:4.90"/>
	<text x="350.71" y="2072.10" style="font-family:'Helvetica';font-size:85.02px;fill:#000000" text-anchor="end">0</text>
	<line x1="401.69" y1="1935.26" x2="367.66" y2="1935.26" style="stroke:#000000;stroke-width:4.90"/>
	<text x="350.71" y="1965.05" style="font-family:'Helvetica';font-size:85.02px;fill:#000000" text-anchor="end">.001</text>
	<line x1="401.69" y1="1828.22" x2="367.66" y2="1828.22" style="stroke:#000000;stroke-width:4.90"/>
	<text x="350.71" y="1858.00" style="font-family:'Helvetica';font-size:85.02px;fill:#000000" text-anchor="end">.002</text>
	<line x1="401.69" y1="1721.17" x2="367.66" y2="1721.17" style="stroke:#000000;stroke-width:4.90"/>
	<text x="350.71" y="1750.96" style="font-family:'Helvetica';font-size:85.02px;fill:#000000" text-anchor="end">.003</text>
	<line x1="401.69" y1="1614.25" x2="367.66" y2="1614.25" style="stroke:#000000;stroke-width:4.90"/>
	<text x="350.71" y="1644.03" style="font-family:'Helvetica';font-size:85.02px;fill:#000000" text-anchor="end">.004</text>
	<line x1="401.69" y1="1507.20" x2="367.66" y2="1507.20" style="stroke:#000000;stroke-width:4.90"/>
	<text x="350.71" y="1536.99" style="font-family:'Helvetica';font-size:85.02px;fill:#000000" text-anchor="end">.005</text>
	<line x1="401.69" y1="1400.15" x2="367.66" y2="1400.15" style="stroke:#000000;stroke-width:4.90"/>
	<text x="350.71" y="1429.94" style="font-family:'Helvetica';font-size:85.02px;fill:#000000" text-anchor="end">.006</text>
	<line x1="401.69" y1="1293.10" x2="367.66" y2="1293.10" style="stroke:#000000;stroke-width:4.90"/>
	<text x="350.71" y="1322.89" style="font-family:'Helvetica';font-size:85.02px;fill:#000000" text-anchor="end">.007</text>
	<line x1="401.69" y1="1186.06" x2="367.66" y2="1186.06" style="stroke:#000000;stroke-width:4.90"/>
	<text x="350.71" y="1215.84" style="font-family:'Helvetica';font-size:85.02px;fill:#000000" text-anchor="end">.008</text>
	<line x1="401.69" y1="1079.13" x2="367.66" y2="1079.13" style="stroke:#000000;stroke-width:4.90"/>
	<text x="350.71" y="1108.92" style="font-family:'Helvetica';font-size:85.02px;fill:#000000" text-anchor="end">.009</text>
	<line x1="401.69" y1="2096.14" x2="2078.51" y2="2096.14" style="stroke:#000000;stroke-width:4.90"/>
	<line x1="506.14" y1="2096.14" x2="506.14" y2="2113.10" style="stroke:#000000;stroke-width:4.90"/>
	<line x1="632.73" y1="2096.14" x2="632.73" y2="2113.10" style="stroke:#000000;stroke-width:4.90"/>
	<line x1="759.21" y1="2096.14" x2="759.21" y2="2113.10" style="stroke:#000000;stroke-width:4.90"/>
	<line x1="885.80" y1="2096.14" x2="885.80" y2="2113.10" style="stroke:#000000;stroke-width:4.90"/>
	<line x1="1012.27" y1="2096.14" x2="1012.27" y2="2113.10" style="stroke:#000000;stroke-width:4.90"/>
	<line x1="1138.87" y1="2096.14" x2="1138.87" y2="2113.10" style="stroke:#000000;stroke-width:4.90"/>
	<line x1="1265.47" y1="2096.14" x2="1265.47" y2="2113.10" style="stroke:#000000;stroke-width:4.90"/>
	<line x1="1391.94" y1="2096.14" x2="1391.94" y2="2113.10" style="stroke:#000000;stroke-width:4.90"/>
	<line x1="1518.54" y1="2096.14" x2="1518.54" y2="2113.10" style="stroke:#000000;stroke-width:4.90"/>
	<line x1="1645.01" y1="2096.14" x2="1645.01" y2="2113.10" style="stroke:#000000;stroke-width:4.90"/>
	<line x1="1771.61" y1="2096.14" x2="1771.61" y2="2113.10" style="stroke:#000000;stroke-width:4.90"/>
	<line x1="1898.20" y1="2096.14" x2="1898.20" y2="2113.10" style="stroke:#000000;stroke-width:4.90"/>
	<line x1="2024.67" y1="2096.14" x2="2024.67" y2="2113.10" style="stroke:#000000;stroke-width:4.90"/>
	<line x1="506.14" y1="2096.14" x2="506.14" y2="2130.18" style="stroke:#000000;stroke-width:4.90"/>
	<text x="506.14" y="2206.58" style="font-family:'Helvetica';font-size:85.02px;fill:#000000" text-anchor="middle">20</text>
	<line x1="1012.27" y1="2096.14" x2="1012.27" y2="2130.18" style="stroke:#000000;stroke-width:4.90"/>
	<text x="1012.27" y="2206.58" style="font-family:'Helvetica';font-size:85.02px;fill:#000000" text-anchor="middle">40</text>
	<line x1="1518.54" y1="2096.14" x2="1518.54" y2="2130.18" style="stroke:#000000;stroke-width:4.90"/>
	<text x="1518.54" y="2206.58" style="font-family:'Helvetica';font-size:85.02px;fill:#000000" text-anchor="middle">60</text>
	<line x1="2024.67" y1="2096.14" x2="2024.67" y2="2130.18" style="stroke:#000000;stroke-width:4.90"/>
	<text x="2024.67" y="2206.58" style="font-family:'Helvetica';font-size:85.02px;fill:#000000" text-anchor="middle">80</text>
	<line x1="2147.68" y1="2096.14" x2="3824.49" y2="2096.14" style="stroke:#000000;stroke-width:4.90"/>
	<line x1="2252.13" y1="2096.14" x2="2252.13" y2="2113.10" style="stroke:#000000;stroke-width:4.90"/>
	<line x1="2378.72" y1="2096.14" x2="2378.72" y2="2113.10" style="stroke:#000000;stroke-width:4.90"/>
	<line x1="2505.20" y1="2096.14" x2="2505.20" y2="2113.10" style="stroke:#000000;stroke-width:4.90"/>
	<line x1="2631.79" y1="2096.14" x2="2631.79" y2="2113.10" style="stroke:#000000;stroke-width:4.90"/>
	<line x1="2758.26" y1="2096.14" x2="2758.26" y2="2113.10" style="stroke:#000000;stroke-width:4.90"/>
	<line x1="2884.86" y1="2096.14" x2="2884.86" y2="2113.10" style="stroke:#000000;stroke-width:4.90"/>
	<line x1="3011.46" y1="2096.14" x2="3011.46" y2="2113.10" style="stroke:#000000;stroke-width:4.90"/>
	<line x1="3137.93" y1="2096.14" x2="3137.93" y2="2113.10" style="stroke:#000000;stroke-width:4.90"/>
	<line x1="3264.53" y1="2096.14" x2="3264.53" y2="2113.10" style="stroke:#000000;stroke-width:4.90"/>
	<line x1="3391.00" y1="2096.14" x2="3391.00" y2="2113.10" style="stroke:#000000;stroke-width:4.90"/>
	<line x1="3517.59" y1="2096.14" x2="3517.59" y2="2113.10" style="stroke:#000000;stroke-width:4.90"/>
	<line x1="3644.07" y1="2096.14" x2="3644.07" y2="2113.10" style="stroke:#000000;stroke-width:4.90"/>
	<line x1="3770.66" y1="2096.14" x2="3770.66" y2="2113.10" style="stroke:#000000;stroke-width:4.90"/>
	<line x1="2252.13" y1="2096.14" x2="2252.13" y2="2130.18" style="stroke:#000000;stroke-width:4.90"/>
	<text x="2252.13" y="2206.58" style="font-family:'Helvetica';font-size:85.02px;fill:#000000" text-anchor="middle">20</text>
	<line x1="2758.26" y1="2096.14" x2="2758.26" y2="2130.18" style="stroke:#000000;stroke-width:4.90"/>
	<text x="2758.26" y="2206.58" style="font-family:'Helvetica';font-size:85.02px;fill:#000000" text-anchor="middle">40</text>
	<line x1="3264.53" y1="2096.14" x2="3264.53" y2="2130.18" style="stroke:#000000;stroke-width:4.90"/>
	<text x="3264.53" y="2206.58" style="font-family:'Helvetica';font-size:85.02px;fill:#000000" text-anchor="middle">60</text>
	<line x1="3770.66" y1="2096.14" x2="3770.66" y2="2130.18" style="stroke:#000000;stroke-width:4.90"/>
	<text x="3770.66" y="2206.58" style="font-family:'Helvetica';font-size:85.02px;fill:#000000" text-anchor="middle">80</text>
	<rect x="401.69" y="279.93" width="1676.81" height="122.89" style="fill:#D9E6EB"/>
	<rect x="404.14" y="282.38" width="1671.92" height="117.99" style="fill:none;stroke:#D9E6EB;stroke-width:4.90"/>
	<text x="1240.10" y="359.96" style="font-family:'Helvetica';font-size:93.56px;fill:#000000" text-anchor="middle">Female</text>
	<rect x="2147.68" y="279.93" width="1676.81" height="122.89" style="fill:#D9E6EB"/>
	<rect x="2150.13" y="282.38" width="1671.92" height="117.99" style="fill:none;stroke:#D9E6EB;stroke-width:4.90"/>
	<text x="2986.09" y="359.96" style="font-family:'Helvetica';font-size:93.56px;fill:#000000" text-anchor="middle">Male</text>
	<rect x="592.39" y="2418.27" width="2775.09" height="326.34" style="fill:#FFFFFF"/>
	<rect x="595.27" y="2421.15" width="2769.33" height="320.58" style="fill:none;stroke:#000000;stroke-width:5.76"/>
	<line x1="635.58" y1="2511.46" x2="1009.92" y2="2511.46" style="stroke:#008000;stroke-width:8.64"/>
	<line x1="635.58" y1="2651.43" x2="1009.92" y2="2651.43" style="stroke:#FF7F00;stroke-width:8.64"/>
	<line x1="1971.21" y1="2511.46" x2="2345.56" y2="2511.46" style="stroke:#1A476F;stroke-width:8.64"/>
	<line x1="1971.21" y1="2651.43" x2="1974.06" y2="2651.43" style="stroke:#A0A0A0;stroke-width:8.64"/>
	<line x1="1994.23" y1="2651.43" x2="1997.08" y2="2651.43" style="stroke:#A0A0A0;stroke-width:8.64"/>
	<line x1="2017.25" y1="2651.43" x2="2020.10" y2="2651.43" style="stroke:#A0A0A0;stroke-width:8.64"/>
	<line x1="2040.27" y1="2651.43" x2="2043.24" y2="2651.43" style="stroke:#A0A0A0;stroke-width:8.64"/>
	<line x1="2063.28" y1="2651.43" x2="2066.25" y2="2651.43" style="stroke:#A0A0A0;stroke-width:8.64"/>
	<line x1="2086.43" y1="2651.43" x2="2089.27" y2="2651.43" style="stroke:#A0A0A0;stroke-width:8.64"/>
	<line x1="2109.44" y1="2651.43" x2="2112.29" y2="2651.43" style="stroke:#A0A0A0;stroke-width:8.64"/>
	<line x1="2132.46" y1="2651.43" x2="2135.31" y2="2651.43" style="stroke:#A0A0A0;stroke-width:8.64"/>
	<line x1="2155.48" y1="2651.43" x2="2158.32" y2="2651.43" style="stroke:#A0A0A0;stroke-width:8.64"/>
	<line x1="2178.49" y1="2651.43" x2="2181.34" y2="2651.43" style="stroke:#A0A0A0;stroke-width:8.64"/>
	<line x1="2201.51" y1="2651.43" x2="2204.36" y2="2651.43" style="stroke:#A0A0A0;stroke-width:8.64"/>
	<line x1="2224.53" y1="2651.43" x2="2227.38" y2="2651.43" style="stroke:#A0A0A0;stroke-width:8.64"/>
	<line x1="2247.55" y1="2651.43" x2="2250.39" y2="2651.43" style="stroke:#A0A0A0;stroke-width:8.64"/>
	<line x1="2270.57" y1="2651.43" x2="2273.41" y2="2651.43" style="stroke:#A0A0A0;stroke-width:8.64"/>
	<line x1="2293.58" y1="2651.43" x2="2296.55" y2="2651.43" style="stroke:#A0A0A0;stroke-width:8.64"/>
	<line x1="2316.60" y1="2651.43" x2="2319.57" y2="2651.43" style="stroke:#A0A0A0;stroke-width:8.64"/>
	<line x1="2339.74" y1="2651.43" x2="2342.59" y2="2651.43" style="stroke:#A0A0A0;stroke-width:8.64"/>
	<text x="1069.94" y="2546.49" style="font-family:'Helvetica';font-size:99.99px;fill:#000000">1 comorbidity</text>
	<text x="1069.94" y="2686.46" style="font-family:'Helvetica';font-size:99.99px;fill:#000000">2+ comorbidities</text>
	<text x="2405.58" y="2546.49" style="font-family:'Helvetica';font-size:99.99px;fill:#000000">No comborbidity</text>
	<text x="2405.58" y="2686.46" style="font-family:'Helvetica';font-size:99.99px;fill:#000000">Ref (Age 65, White)</text>
	<text x="1980.00" y="2353.56" style="font-family:'Helvetica';font-size:99.99px;fill:#000000" text-anchor="middle">Age (years)</text>
	<text x="1980.00" y="195.01" style="font-family:'Helvetica';font-size:110.01px;fill:#000000" text-anchor="middle">Ethnicity Mixed</text>
</svg>
