<?xml version="1.0" encoding="UTF-8" standalone="no"?>
<!-- This is a Stata 16.1 generated SVG file (http://www.stata.com) -->

<svg version="1.1" width="1600px" height="1164px" viewBox="0 0 3960 2880" xmlns="http://www.w3.org/2000/svg" xmlns:xlink="http://www.w3.org/1999/xlink">
	<desc>Stata Graph - Graph</desc>
	<rect x="0" y="0" width="3960" height="2880" style="fill:#EAF2F3;stroke:none"/>
	<rect x="0.00" y="0.00" width="3959.88" height="2880.00" style="fill:#EAF2F3"/>
	<rect x="2.88" y="2.88" width="3954.12" height="2874.24" style="fill:none;stroke:#EAF2F3;stroke-width:5.76"/>
	<rect x="401.69" y="402.82" width="1676.81" height="1693.32" style="fill:#FFFFFF"/>
	<rect x="404.14" y="405.27" width="1671.92" height="1688.43" style="fill:none;stroke:#FFFFFF;stroke-width:4.90"/>
	<line x1="401.69" y1="2042.31" x2="2078.51" y2="2042.31" style="stroke:#EAF2F3;stroke-width:7.34"/>
	<line x1="401.69" y1="1827.23" x2="2078.51" y2="1827.23" style="stroke:#EAF2F3;stroke-width:7.34"/>
	<line x1="401.69" y1="1612.14" x2="2078.51" y2="1612.14" style="stroke:#EAF2F3;stroke-width:7.34"/>
	<line x1="401.69" y1="1397.06" x2="2078.51" y2="1397.06" style="stroke:#EAF2F3;stroke-width:7.34"/>
	<line x1="401.69" y1="1181.97" x2="2078.51" y2="1181.97" style="stroke:#EAF2F3;stroke-width:7.34"/>
	<line x1="401.69" y1="967.01" x2="2078.51" y2="967.01" style="stroke:#EAF2F3;stroke-width:7.34"/>
	<rect x="2147.68" y="402.82" width="1676.81" height="1693.32" style="fill:#FFFFFF"/>
	<rect x="2150.13" y="405.27" width="1671.92" height="1688.43" style="fill:none;stroke:#FFFFFF;stroke-width:4.90"/>
	<line x1="2147.68" y1="2042.31" x2="3824.49" y2="2042.31" style="stroke:#EAF2F3;stroke-width:7.34"/>
	<line x1="2147.68" y1="1827.23" x2="3824.49" y2="1827.23" style="stroke:#EAF2F3;stroke-width:7.34"/>
	<line x1="2147.68" y1="1612.14" x2="3824.49" y2="1612.14" style="stroke:#EAF2F3;stroke-width:7.34"/>
	<line x1="2147.68" y1="1397.06" x2="3824.49" y2="1397.06" style="stroke:#EAF2F3;stroke-width:7.34"/>
	<line x1="2147.68" y1="1181.97" x2="3824.49" y2="1181.97" style="stroke:#EAF2F3;stroke-width:7.34"/>
	<line x1="2147.68" y1="967.01" x2="3824.49" y2="967.01" style="stroke:#EAF2F3;stroke-width:7.34"/>
	<defs>
		<path id="path_yDJlZdHF" d="M455.52 2042.19 L455.52 2042.19 L480.89 2042.19 L506.14 2042.19 L531.51 2042.19 L556.75 2042.06 L582.12 2042.06 L607.37 2042.06 L632.73 2041.94 L657.98 2041.94 L683.35 2041.82 L708.59 2041.82 L733.96 2041.69 L759.21 2041.57 L784.58 2041.32 L809.82 2041.20 L835.19 2040.95 L860.43 2040.70 L885.80 2040.45 L911.05 2040.21 L936.42 2039.83 L961.66 2039.46 L987.03 2039.09 L1012.27 2038.60 L1037.64 2038.23 L1062.89 2037.73 L1088.26 2037.11 L1113.50 2036.62 L1138.87 2036.00 L1164.24 2035.38 L1189.48 2034.76 L1214.85 2034.02 L1240.10 2033.28 L1265.47 2032.41 L1290.71 2031.54 L1316.08 2030.55 L1341.33 2029.56 L1366.69 2028.45 L1391.94 2027.21 L1417.31 2025.85 L1442.55 2024.37 L1467.92 2022.76 L1493.17 2020.90 L1518.54 2018.80 L1543.78 2016.57 L1569.15 2014.09 L1594.39 2011.25 L1619.76 2008.15 L1645.01 2004.69 L1670.38 2000.73 L1695.62 1996.40 L1720.99 1991.45 L1746.24 1986.00 L1771.61 1979.94 L1796.85 1973.13 L1822.22 1965.58 L1847.46 1957.04 L1872.83 1947.51 L1898.20 1936.87 L1923.45 1924.99 L1948.82 1911.75 L1974.06 1896.90 L1999.43 1880.32 L2024.67 1861.75 L2024.67 1749.26 L1999.43 1779.33 L1974.06 1806.19 L1948.82 1830.20 L1923.45 1851.85 L1898.20 1871.03 L1872.83 1888.36 L1847.46 1903.83 L1822.22 1917.57 L1796.85 1929.94 L1771.61 1941.08 L1746.24 1950.98 L1720.99 1959.77 L1695.62 1967.69 L1670.38 1974.86 L1645.01 1981.18 L1619.76 1986.87 L1594.39 1991.94 L1569.15 1996.52 L1543.78 2000.61 L1518.54 2004.32 L1493.17 2007.54 L1467.92 2010.51 L1442.55 2013.10 L1417.31 2015.58 L1391.94 2017.68 L1366.69 2019.66 L1341.33 2021.40 L1316.08 2023.00 L1290.71 2024.49 L1265.47 2025.97 L1240.10 2027.21 L1214.85 2028.45 L1189.48 2029.69 L1164.24 2030.68 L1138.87 2031.79 L1113.50 2032.78 L1088.26 2033.65 L1062.89 2034.51 L1037.64 2035.38 L1012.27 2036.12 L987.03 2036.74 L961.66 2037.36 L936.42 2037.98 L911.05 2038.47 L885.80 2038.97 L860.43 2039.34 L835.19 2039.71 L809.82 2040.08 L784.58 2040.33 L759.21 2040.58 L733.96 2040.83 L708.59 2040.95 L683.35 2041.07 L657.98 2041.32 L632.73 2041.44 L607.37 2041.44 L582.12 2041.57 L556.75 2041.69 L531.51 2041.69 L506.14 2041.82 L480.89 2041.82 L455.52 2041.94 L455.52 2042.19 Z" stroke-linejoin="round"/>
	</defs>
	<defs>
		<clipPath id="clipPath_AcubbvSs">
			<use xlink:href="#path_yDJlZdHF"/>
		</clipPath>
	</defs>
	<use xlink:href="#path_yDJlZdHF" style="stroke:none;fill:#E6E6E6"/>
	<use xlink:href="#path_yDJlZdHF" style="fill:none;stroke:#E0E0E0;stroke-width:14.69" clip-path="url(#clipPath_AcubbvSs)"/>
	<defs>
		<path id="path_TCjfIXuU" d="M455.52 2042.19 L455.52 2042.19 L480.89 2042.06 L506.14 2042.06 L531.51 2042.06 L556.75 2041.94 L582.12 2041.94 L607.37 2041.82 L632.73 2041.69 L657.98 2041.57 L683.35 2041.44 L708.59 2041.20 L733.96 2040.95 L759.21 2040.70 L784.58 2040.33 L809.82 2039.96 L835.19 2039.46 L860.43 2038.97 L885.80 2038.47 L911.05 2037.85 L936.42 2037.11 L961.66 2036.37 L987.03 2035.50 L1012.27 2034.64 L1037.64 2033.65 L1062.89 2032.66 L1088.26 2031.54 L1113.50 2030.31 L1138.87 2029.07 L1164.24 2027.71 L1189.48 2026.35 L1214.85 2024.74 L1240.10 2023.13 L1265.47 2021.40 L1290.71 2019.54 L1316.08 2017.44 L1341.33 2015.33 L1366.69 2012.86 L1391.94 2010.26 L1417.31 2007.41 L1442.55 2004.32 L1467.92 2000.85 L1493.17 1996.89 L1518.54 1992.56 L1543.78 1987.73 L1569.15 1982.41 L1594.39 1976.47 L1619.76 1969.79 L1645.01 1962.37 L1670.38 1954.07 L1695.62 1944.79 L1720.99 1934.40 L1746.24 1922.76 L1771.61 1909.89 L1796.85 1895.41 L1822.22 1879.20 L1847.46 1861.01 L1872.83 1840.84 L1898.20 1818.19 L1923.45 1792.95 L1948.82 1764.61 L1974.06 1733.05 L1999.43 1697.78 L2024.67 1658.43 L2024.67 1422.43 L1999.43 1485.91 L1974.06 1542.59 L1948.82 1593.58 L1923.45 1639.12 L1898.20 1679.83 L1872.83 1716.34 L1847.46 1749.01 L1822.22 1778.22 L1796.85 1804.33 L1771.61 1827.84 L1746.24 1848.76 L1720.99 1867.45 L1695.62 1884.28 L1670.38 1899.25 L1645.01 1912.74 L1619.76 1924.74 L1594.39 1935.51 L1569.15 1945.16 L1543.78 1953.83 L1518.54 1961.62 L1493.17 1968.55 L1467.92 1974.86 L1442.55 1980.43 L1417.31 1985.38 L1391.94 1989.96 L1366.69 1994.05 L1341.33 1997.88 L1316.08 2001.35 L1290.71 2004.57 L1265.47 2007.54 L1240.10 2010.26 L1214.85 2012.86 L1189.48 2015.33 L1164.24 2017.68 L1138.87 2019.91 L1113.50 2022.01 L1088.26 2023.87 L1062.89 2025.73 L1037.64 2027.46 L1012.27 2029.07 L987.03 2030.55 L961.66 2031.91 L936.42 2033.15 L911.05 2034.27 L885.80 2035.26 L860.43 2036.12 L835.19 2036.86 L809.82 2037.48 L784.58 2038.10 L759.21 2038.60 L733.96 2039.09 L708.59 2039.46 L683.35 2039.83 L657.98 2040.08 L632.73 2040.33 L607.37 2040.58 L582.12 2040.83 L556.75 2040.95 L531.51 2041.20 L506.14 2041.32 L480.89 2041.44 L455.52 2041.57 L455.52 2042.19 Z" stroke-linejoin="round"/>
	</defs>
	<defs>
		<clipPath id="clipPath_EdkWhoeA">
			<use xlink:href="#path_TCjfIXuU"/>
		</clipPath>
	</defs>
	<use xlink:href="#path_TCjfIXuU" style="stroke:none;fill:#E6E6E6"/>
	<use xlink:href="#path_TCjfIXuU" style="fill:none;stroke:#E0E0E0;stroke-width:14.69" clip-path="url(#clipPath_EdkWhoeA)"/>
	<defs>
		<path id="path_RbhDyaQY" d="M455.52 2042.06 L455.52 2042.06 L480.89 2041.94 L506.14 2041.94 L531.51 2041.82 L556.75 2041.69 L582.12 2041.57 L607.37 2041.44 L632.73 2041.20 L657.98 2040.95 L683.35 2040.70 L708.59 2040.33 L733.96 2039.96 L759.21 2039.46 L784.58 2038.84 L809.82 2038.23 L835.19 2037.48 L860.43 2036.62 L885.80 2035.63 L911.05 2034.51 L936.42 2033.28 L961.66 2031.91 L987.03 2030.43 L1012.27 2028.82 L1037.64 2027.21 L1062.89 2025.36 L1088.26 2023.50 L1113.50 2021.40 L1138.87 2019.17 L1164.24 2016.94 L1189.48 2014.34 L1214.85 2011.74 L1240.10 2008.90 L1265.47 2005.80 L1290.71 2002.46 L1316.08 1999.00 L1341.33 1995.16 L1366.69 1990.95 L1391.94 1986.50 L1417.31 1981.42 L1442.55 1975.98 L1467.92 1969.91 L1493.17 1963.11 L1518.54 1955.56 L1543.78 1947.14 L1569.15 1937.74 L1594.39 1927.34 L1619.76 1915.71 L1645.01 1902.72 L1670.38 1888.24 L1695.62 1872.02 L1720.99 1853.83 L1746.24 1833.66 L1771.61 1811.01 L1796.85 1785.64 L1822.22 1757.30 L1847.46 1725.75 L1872.83 1690.35 L1898.20 1650.75 L1923.45 1606.45 L1948.82 1557.07 L1974.06 1501.88 L1999.43 1440.25 L2024.67 1371.56 L2024.67 960.58 L1999.43 1070.97 L1974.06 1169.97 L1948.82 1258.70 L1923.45 1338.15 L1898.20 1409.31 L1872.83 1472.92 L1847.46 1529.97 L1822.22 1580.96 L1796.85 1626.50 L1771.61 1667.34 L1746.24 1703.97 L1720.99 1736.64 L1695.62 1765.97 L1670.38 1792.20 L1645.01 1815.72 L1619.76 1836.75 L1594.39 1855.57 L1569.15 1872.40 L1543.78 1887.62 L1518.54 1901.11 L1493.17 1913.36 L1467.92 1924.25 L1442.55 1934.03 L1417.31 1942.81 L1391.94 1950.73 L1366.69 1958.03 L1341.33 1964.59 L1316.08 1970.66 L1290.71 1976.23 L1265.47 1981.42 L1240.10 1986.37 L1214.85 1990.83 L1189.48 1995.16 L1164.24 1999.24 L1138.87 2003.08 L1113.50 2006.67 L1088.26 2010.13 L1062.89 2013.35 L1037.64 2016.32 L1012.27 2019.17 L987.03 2021.77 L961.66 2024.12 L936.42 2026.22 L911.05 2028.20 L885.80 2029.93 L860.43 2031.42 L835.19 2032.78 L809.82 2033.89 L784.58 2035.01 L759.21 2035.87 L733.96 2036.74 L708.59 2037.36 L683.35 2037.98 L657.98 2038.47 L632.73 2038.97 L607.37 2039.46 L582.12 2039.71 L556.75 2040.08 L531.51 2040.33 L506.14 2040.58 L480.89 2040.83 L455.52 2040.95 L455.52 2042.06 Z" stroke-linejoin="round"/>
	</defs>
	<defs>
		<clipPath id="clipPath_dkIMiEAV">
			<use xlink:href="#path_RbhDyaQY"/>
		</clipPath>
	</defs>
	<use xlink:href="#path_RbhDyaQY" style="stroke:none;fill:#E6E6E6"/>
	<use xlink:href="#path_RbhDyaQY" style="fill:none;stroke:#E0E0E0;stroke-width:14.69" clip-path="url(#clipPath_dkIMiEAV)"/>
	<line x1="455.52" y1="2010.01" x2="458.37" y2="2010.01" style="stroke:#A0A0A0;stroke-width:7.34"/>
	<line x1="478.54" y1="2010.01" x2="480.77" y2="2010.01" style="stroke:#A0A0A0;stroke-width:7.34"/>
	<line x1="480.77" y1="2010.01" x2="481.39" y2="2010.01" style="stroke:#A0A0A0;stroke-width:7.34"/>
	<line x1="501.56" y1="2010.01" x2="504.40" y2="2010.01" style="stroke:#A0A0A0;stroke-width:7.34"/>
	<line x1="524.58" y1="2010.01" x2="527.42" y2="2010.01" style="stroke:#A0A0A0;stroke-width:7.34"/>
	<line x1="547.59" y1="2010.01" x2="550.44" y2="2010.01" style="stroke:#A0A0A0;stroke-width:7.34"/>
	<line x1="570.61" y1="2010.01" x2="573.58" y2="2010.01" style="stroke:#A0A0A0;stroke-width:7.34"/>
	<line x1="593.75" y1="2010.01" x2="596.60" y2="2010.01" style="stroke:#A0A0A0;stroke-width:7.34"/>
	<line x1="616.77" y1="2010.01" x2="619.62" y2="2010.01" style="stroke:#A0A0A0;stroke-width:7.34"/>
	<line x1="639.79" y1="2010.01" x2="642.63" y2="2010.01" style="stroke:#A0A0A0;stroke-width:7.34"/>
	<line x1="662.80" y1="2010.01" x2="665.65" y2="2010.01" style="stroke:#A0A0A0;stroke-width:7.34"/>
	<line x1="685.82" y1="2010.01" x2="688.67" y2="2010.01" style="stroke:#A0A0A0;stroke-width:7.34"/>
	<line x1="708.84" y1="2010.01" x2="711.69" y2="2010.01" style="stroke:#A0A0A0;stroke-width:7.34"/>
	<line x1="731.86" y1="2010.01" x2="733.84" y2="2010.01" style="stroke:#A0A0A0;stroke-width:7.34"/>
	<line x1="733.84" y1="2010.01" x2="734.70" y2="2010.01" style="stroke:#A0A0A0;stroke-width:7.34"/>
	<line x1="754.88" y1="2010.01" x2="757.72" y2="2010.01" style="stroke:#A0A0A0;stroke-width:7.34"/>
	<line x1="777.89" y1="2010.01" x2="780.74" y2="2010.01" style="stroke:#A0A0A0;stroke-width:7.34"/>
	<line x1="800.91" y1="2010.01" x2="803.88" y2="2010.01" style="stroke:#A0A0A0;stroke-width:7.34"/>
	<line x1="823.93" y1="2010.01" x2="826.90" y2="2010.01" style="stroke:#A0A0A0;stroke-width:7.34"/>
	<line x1="847.07" y1="2010.01" x2="849.91" y2="2010.01" style="stroke:#A0A0A0;stroke-width:7.34"/>
	<line x1="870.09" y1="2010.01" x2="872.93" y2="2010.01" style="stroke:#A0A0A0;stroke-width:7.34"/>
	<line x1="893.10" y1="2010.01" x2="895.95" y2="2010.01" style="stroke:#A0A0A0;stroke-width:7.34"/>
	<line x1="916.12" y1="2010.01" x2="918.97" y2="2010.01" style="stroke:#A0A0A0;stroke-width:7.34"/>
	<line x1="939.14" y1="2010.01" x2="941.99" y2="2010.01" style="stroke:#A0A0A0;stroke-width:7.34"/>
	<line x1="962.16" y1="2010.01" x2="965.00" y2="2010.01" style="stroke:#A0A0A0;stroke-width:7.34"/>
	<line x1="985.17" y1="2010.01" x2="986.91" y2="2010.01" style="stroke:#A0A0A0;stroke-width:7.34"/>
	<line x1="986.91" y1="2010.01" x2="988.02" y2="2010.01" style="stroke:#A0A0A0;stroke-width:7.34"/>
	<line x1="1008.19" y1="2010.01" x2="1011.04" y2="2010.01" style="stroke:#A0A0A0;stroke-width:7.34"/>
	<line x1="1031.21" y1="2010.01" x2="1034.06" y2="2010.01" style="stroke:#A0A0A0;stroke-width:7.34"/>
	<line x1="1054.23" y1="2010.01" x2="1057.20" y2="2010.01" style="stroke:#A0A0A0;stroke-width:7.34"/>
	<line x1="1077.24" y1="2010.01" x2="1080.21" y2="2010.01" style="stroke:#A0A0A0;stroke-width:7.34"/>
	<line x1="1100.38" y1="2010.01" x2="1103.23" y2="2010.01" style="stroke:#A0A0A0;stroke-width:7.34"/>
	<line x1="1123.40" y1="2010.01" x2="1126.25" y2="2010.01" style="stroke:#A0A0A0;stroke-width:7.34"/>
	<line x1="1146.42" y1="2010.01" x2="1149.27" y2="2010.01" style="stroke:#A0A0A0;stroke-width:7.34"/>
	<line x1="1169.44" y1="2010.01" x2="1172.28" y2="2010.01" style="stroke:#A0A0A0;stroke-width:7.34"/>
	<line x1="1192.45" y1="2010.01" x2="1195.30" y2="2010.01" style="stroke:#A0A0A0;stroke-width:7.34"/>
	<line x1="1215.47" y1="2010.01" x2="1218.32" y2="2010.01" style="stroke:#A0A0A0;stroke-width:7.34"/>
	<line x1="1238.49" y1="2010.01" x2="1240.10" y2="2010.01" style="stroke:#A0A0A0;stroke-width:7.34"/>
	<line x1="1240.10" y1="2010.01" x2="1241.34" y2="2010.01" style="stroke:#A0A0A0;stroke-width:7.34"/>
	<line x1="1261.51" y1="2010.01" x2="1264.35" y2="2010.01" style="stroke:#A0A0A0;stroke-width:7.34"/>
	<line x1="1284.53" y1="2010.01" x2="1287.37" y2="2010.01" style="stroke:#A0A0A0;stroke-width:7.34"/>
	<line x1="1307.54" y1="2010.01" x2="1310.51" y2="2010.01" style="stroke:#A0A0A0;stroke-width:7.34"/>
	<line x1="1330.56" y1="2010.01" x2="1333.53" y2="2010.01" style="stroke:#A0A0A0;stroke-width:7.34"/>
	<line x1="1353.70" y1="2010.01" x2="1356.55" y2="2010.01" style="stroke:#A0A0A0;stroke-width:7.34"/>
	<line x1="1376.72" y1="2010.01" x2="1379.57" y2="2010.01" style="stroke:#A0A0A0;stroke-width:7.34"/>
	<line x1="1399.74" y1="2010.01" x2="1402.58" y2="2010.01" style="stroke:#A0A0A0;stroke-width:7.34"/>
	<line x1="1422.75" y1="2010.01" x2="1425.60" y2="2010.01" style="stroke:#A0A0A0;stroke-width:7.34"/>
	<line x1="1445.77" y1="2010.01" x2="1448.62" y2="2010.01" style="stroke:#A0A0A0;stroke-width:7.34"/>
	<line x1="1468.79" y1="2010.01" x2="1471.63" y2="2010.01" style="stroke:#A0A0A0;stroke-width:7.34"/>
	<line x1="1491.81" y1="2010.01" x2="1493.17" y2="2010.01" style="stroke:#A0A0A0;stroke-width:7.34"/>
	<line x1="1493.17" y1="2010.01" x2="1494.65" y2="2010.01" style="stroke:#A0A0A0;stroke-width:7.34"/>
	<line x1="1514.82" y1="2010.01" x2="1517.67" y2="2010.01" style="stroke:#A0A0A0;stroke-width:7.34"/>
	<line x1="1537.84" y1="2010.01" x2="1540.69" y2="2010.01" style="stroke:#A0A0A0;stroke-width:7.34"/>
	<line x1="1560.86" y1="2010.01" x2="1563.83" y2="2010.01" style="stroke:#A0A0A0;stroke-width:7.34"/>
	<line x1="1584.00" y1="2010.01" x2="1586.85" y2="2010.01" style="stroke:#A0A0A0;stroke-width:7.34"/>
	<line x1="1607.02" y1="2010.01" x2="1609.86" y2="2010.01" style="stroke:#A0A0A0;stroke-width:7.34"/>
	<line x1="1630.04" y1="2010.01" x2="1632.88" y2="2010.01" style="stroke:#A0A0A0;stroke-width:7.34"/>
	<line x1="1653.05" y1="2010.01" x2="1655.90" y2="2010.01" style="stroke:#A0A0A0;stroke-width:7.34"/>
	<line x1="1676.07" y1="2010.01" x2="1678.92" y2="2010.01" style="stroke:#A0A0A0;stroke-width:7.34"/>
	<line x1="1699.09" y1="2010.01" x2="1701.93" y2="2010.01" style="stroke:#A0A0A0;stroke-width:7.34"/>
	<line x1="1722.11" y1="2010.01" x2="1724.95" y2="2010.01" style="stroke:#A0A0A0;stroke-width:7.34"/>
	<line x1="1745.12" y1="2010.01" x2="1746.24" y2="2010.01" style="stroke:#A0A0A0;stroke-width:7.34"/>
	<line x1="1746.24" y1="2010.01" x2="1747.97" y2="2010.01" style="stroke:#A0A0A0;stroke-width:7.34"/>
	<line x1="1768.14" y1="2010.01" x2="1770.99" y2="2010.01" style="stroke:#A0A0A0;stroke-width:7.34"/>
	<line x1="1791.16" y1="2010.01" x2="1794.00" y2="2010.01" style="stroke:#A0A0A0;stroke-width:7.34"/>
	<line x1="1814.17" y1="2010.01" x2="1817.14" y2="2010.01" style="stroke:#A0A0A0;stroke-width:7.34"/>
	<line x1="1837.32" y1="2010.01" x2="1840.16" y2="2010.01" style="stroke:#A0A0A0;stroke-width:7.34"/>
	<line x1="1860.33" y1="2010.01" x2="1863.18" y2="2010.01" style="stroke:#A0A0A0;stroke-width:7.34"/>
	<line x1="1883.35" y1="2010.01" x2="1886.20" y2="2010.01" style="stroke:#A0A0A0;stroke-width:7.34"/>
	<line x1="1906.37" y1="2010.01" x2="1909.21" y2="2010.01" style="stroke:#A0A0A0;stroke-width:7.34"/>
	<line x1="1929.39" y1="2010.01" x2="1932.23" y2="2010.01" style="stroke:#A0A0A0;stroke-width:7.34"/>
	<line x1="1952.40" y1="2010.01" x2="1955.25" y2="2010.01" style="stroke:#A0A0A0;stroke-width:7.34"/>
	<line x1="1975.42" y1="2010.01" x2="1978.27" y2="2010.01" style="stroke:#A0A0A0;stroke-width:7.34"/>
	<line x1="1998.44" y1="2010.01" x2="1999.31" y2="2010.01" style="stroke:#A0A0A0;stroke-width:7.34"/>
	<line x1="1999.31" y1="2010.01" x2="2001.29" y2="2010.01" style="stroke:#A0A0A0;stroke-width:7.34"/>
	<line x1="2021.46" y1="2010.01" x2="2024.30" y2="2010.01" style="stroke:#A0A0A0;stroke-width:7.34"/>
	<path d="" stroke-linejoin="round" style="fill:none;stroke:#A0A0A0;stroke-width:7.34"/>
	<path d=" M455.52 2042.06 L480.77 2041.94 L506.14 2041.94 L531.38 2041.82 L556.75 2041.69 L582.00 2041.57 L607.37 2041.44 L632.61 2041.32 L657.98 2041.07 L683.22 2040.83 L708.59 2040.58 L733.84 2040.33 L759.21 2039.96 L784.45 2039.46 L809.82 2038.97 L835.07 2038.47 L860.43 2037.85 L885.68 2037.11 L911.05 2036.37 L936.29 2035.50 L961.66 2034.51 L986.91 2033.40 L1012.27 2032.29 L1037.52 2031.05 L1062.89 2029.69 L1088.13 2028.33 L1113.50 2026.72 L1138.87 2025.11 L1164.12 2023.38 L1189.48 2021.64 L1214.73 2019.66 L1240.10 2017.56 L1265.34 2015.33 L1290.71 2012.98 L1315.96 2010.51 L1341.33 2007.66 L1366.57 2004.69 L1391.94 2001.47 L1417.18 1997.88 L1442.55 1993.92 L1467.80 1989.47 L1493.17 1984.52 L1518.41 1979.07 L1543.78 1972.88 L1569.03 1966.08 L1594.39 1958.53 L1619.64 1949.99 L1645.01 1940.58 L1670.25 1930.07 L1695.62 1918.18 L1720.87 1905.07 L1746.24 1890.34 L1771.48 1873.76 L1796.85 1855.44 L1822.10 1834.77 L1847.46 1811.76 L1872.71 1786.14 L1898.08 1757.30 L1923.45 1725.25 L1948.69 1689.36 L1974.06 1649.27 L1999.31 1604.47 L2024.67 1554.60" stroke-linejoin="round" style="fill:none;stroke:#008000;stroke-width:7.34"/>
	<path d=" M455.52 2041.82 L480.77 2041.69 L506.14 2041.57 L531.38 2041.44 L556.75 2041.20 L582.00 2041.07 L607.37 2040.83 L632.61 2040.45 L657.98 2040.21 L683.22 2039.71 L708.59 2039.34 L733.84 2038.72 L759.21 2038.10 L784.45 2037.36 L809.82 2036.49 L835.07 2035.63 L860.43 2034.51 L885.68 2033.28 L911.05 2031.91 L936.29 2030.31 L961.66 2028.57 L986.91 2026.72 L1012.27 2024.74 L1037.52 2022.51 L1062.89 2020.28 L1088.13 2017.81 L1113.50 2015.08 L1138.87 2012.24 L1164.12 2009.27 L1189.48 2006.05 L1214.73 2002.71 L1240.10 1999.12 L1265.34 1995.28 L1290.71 1991.08 L1315.96 1986.62 L1341.33 1981.79 L1366.57 1976.60 L1391.94 1970.90 L1417.18 1964.59 L1442.55 1957.66 L1467.80 1949.87 L1493.17 1941.33 L1518.41 1931.67 L1543.78 1921.03 L1569.03 1909.15 L1594.39 1895.79 L1619.64 1881.06 L1645.01 1864.48 L1670.25 1846.04 L1695.62 1825.37 L1720.87 1802.35 L1746.24 1776.61 L1771.48 1747.90 L1796.85 1715.72 L1822.10 1679.71 L1847.46 1639.61 L1872.71 1594.69 L1898.08 1544.45 L1923.45 1488.39 L1948.69 1425.77 L1974.06 1355.72 L1999.31 1277.63 L2024.67 1190.51" stroke-linejoin="round" style="fill:none;stroke:#FF7F00;stroke-width:7.34"/>
	<path d=" M455.52 2042.19 L480.77 2042.19 L506.14 2042.19 L531.38 2042.06 L556.75 2042.06 L582.00 2041.94 L607.37 2041.94 L632.61 2041.82 L657.98 2041.69 L683.22 2041.69 L708.59 2041.57 L733.84 2041.32 L759.21 2041.20 L784.45 2040.95 L809.82 2040.83 L835.07 2040.45 L860.43 2040.21 L885.68 2039.83 L911.05 2039.46 L936.29 2039.09 L961.66 2038.60 L986.91 2038.10 L1012.27 2037.61 L1037.52 2036.99 L1062.89 2036.37 L1088.13 2035.75 L1113.50 2035.01 L1138.87 2034.27 L1164.12 2033.40 L1189.48 2032.53 L1214.73 2031.67 L1240.10 2030.68 L1265.34 2029.69 L1290.71 2028.57 L1315.96 2027.34 L1341.33 2025.97 L1366.57 2024.61 L1391.94 2023.00 L1417.18 2021.40 L1442.55 2019.54 L1467.80 2017.44 L1493.17 2015.08 L1518.41 2012.49 L1543.78 2009.64 L1569.03 2006.42 L1594.39 2002.83 L1619.64 1998.87 L1645.01 1994.42 L1670.25 1989.34 L1695.62 1983.90 L1720.87 1977.59 L1746.24 1970.66 L1771.48 1962.86 L1796.85 1954.20 L1822.10 1944.54 L1847.46 1933.65 L1872.71 1921.53 L1898.08 1908.04 L1923.45 1892.82 L1948.69 1875.98 L1974.06 1857.05 L1999.31 1835.89 L2024.67 1812.38" stroke-linejoin="round" style="fill:none;stroke:#1A476F;stroke-width:7.34"/>
	<defs>
		<path id="path_kuxHYojj" d="M2201.51 2042.19 L2201.51 2042.19 L2226.88 2042.19 L2252.13 2042.19 L2277.49 2042.06 L2302.74 2042.06 L2328.11 2042.06 L2353.35 2041.94 L2378.72 2041.82 L2403.97 2041.82 L2429.34 2041.69 L2454.58 2041.57 L2479.95 2041.32 L2505.20 2041.20 L2530.56 2040.95 L2555.81 2040.70 L2581.18 2040.33 L2606.42 2039.96 L2631.79 2039.59 L2657.04 2039.22 L2682.41 2038.72 L2707.65 2038.10 L2733.02 2037.61 L2758.26 2036.99 L2783.63 2036.25 L2808.88 2035.50 L2834.25 2034.76 L2859.49 2034.02 L2884.86 2033.15 L2910.11 2032.16 L2935.47 2031.17 L2960.72 2030.18 L2986.09 2028.94 L3011.46 2027.83 L3036.70 2026.47 L3062.07 2025.11 L3087.32 2023.50 L3112.68 2021.89 L3137.93 2020.16 L3163.30 2018.18 L3188.54 2015.95 L3213.91 2013.60 L3239.16 2010.88 L3264.53 2007.91 L3289.77 2004.57 L3315.14 2000.85 L3340.38 1996.77 L3365.75 1992.19 L3391.00 1986.99 L3416.37 1981.30 L3441.61 1974.86 L3466.98 1967.81 L3492.22 1959.77 L3517.59 1950.86 L3542.84 1940.83 L3568.21 1929.69 L3593.45 1917.19 L3618.82 1903.21 L3644.07 1887.62 L3669.43 1870.29 L3694.68 1850.74 L3720.05 1829.08 L3745.42 1804.70 L3770.66 1777.60 L3770.66 1612.02 L3745.42 1656.20 L3720.05 1695.68 L3694.68 1731.07 L3669.43 1762.63 L3644.07 1790.97 L3618.82 1816.34 L3593.45 1838.98 L3568.21 1859.28 L3542.84 1877.47 L3517.59 1893.68 L3492.22 1908.28 L3466.98 1921.28 L3441.61 1932.91 L3416.37 1943.31 L3391.00 1952.59 L3365.75 1961.00 L3340.38 1968.43 L3315.14 1975.11 L3289.77 1981.18 L3264.53 1986.50 L3239.16 1991.32 L3213.91 1995.65 L3188.54 1999.49 L3163.30 2003.08 L3137.93 2006.17 L3112.68 2009.02 L3087.32 2011.62 L3062.07 2014.09 L3036.70 2016.20 L3011.46 2018.30 L2986.09 2020.28 L2960.72 2022.01 L2935.47 2023.75 L2910.11 2025.36 L2884.86 2026.84 L2859.49 2028.33 L2834.25 2029.69 L2808.88 2030.92 L2783.63 2032.04 L2758.26 2033.15 L2733.02 2034.27 L2707.65 2035.13 L2682.41 2036.00 L2657.04 2036.74 L2631.79 2037.36 L2606.42 2037.98 L2581.18 2038.47 L2555.81 2038.97 L2530.56 2039.46 L2505.20 2039.71 L2479.95 2040.08 L2454.58 2040.33 L2429.34 2040.58 L2403.97 2040.83 L2378.72 2040.95 L2353.35 2041.07 L2328.11 2041.32 L2302.74 2041.44 L2277.49 2041.44 L2252.13 2041.57 L2226.88 2041.69 L2201.51 2041.82 L2201.51 2042.19 Z" stroke-linejoin="round"/>
	</defs>
	<defs>
		<clipPath id="clipPath_AJEmyWBB">
			<use xlink:href="#path_kuxHYojj"/>
		</clipPath>
	</defs>
	<use xlink:href="#path_kuxHYojj" style="stroke:none;fill:#E6E6E6"/>
	<use xlink:href="#path_kuxHYojj" style="fill:none;stroke:#E0E0E0;stroke-width:14.69" clip-path="url(#clipPath_AJEmyWBB)"/>
	<defs>
		<path id="path_OgbfMdLB" d="M2201.51 2042.06 L2201.51 2042.06 L2226.88 2042.06 L2252.13 2041.94 L2277.49 2041.94 L2302.74 2041.82 L2328.11 2041.69 L2353.35 2041.57 L2378.72 2041.44 L2403.97 2041.20 L2429.34 2040.95 L2454.58 2040.70 L2479.95 2040.33 L2505.20 2039.96 L2530.56 2039.46 L2555.81 2038.84 L2581.18 2038.23 L2606.42 2037.48 L2631.79 2036.62 L2657.04 2035.75 L2682.41 2034.64 L2707.65 2033.52 L2733.02 2032.29 L2758.26 2031.05 L2783.63 2029.56 L2808.88 2028.08 L2834.25 2026.47 L2859.49 2024.74 L2884.86 2022.88 L2910.11 2020.90 L2935.47 2018.80 L2960.72 2016.57 L2986.09 2014.22 L3011.46 2011.62 L3036.70 2008.90 L3062.07 2005.93 L3087.32 2002.59 L3112.68 1999.12 L3137.93 1995.28 L3163.30 1991.20 L3188.54 1986.50 L3213.91 1981.42 L3239.16 1975.73 L3264.53 1969.30 L3289.77 1962.24 L3315.14 1954.44 L3340.38 1945.66 L3365.75 1935.88 L3391.00 1924.99 L3416.37 1912.74 L3441.61 1899.13 L3466.98 1883.91 L3492.22 1866.95 L3517.59 1847.89 L3542.84 1826.73 L3568.21 1802.97 L3593.45 1776.36 L3618.82 1746.66 L3644.07 1713.50 L3669.43 1676.49 L3694.68 1635.04 L3720.05 1588.75 L3745.42 1537.15 L3770.66 1479.48 L3770.66 1132.84 L3745.42 1225.91 L3720.05 1309.19 L3694.68 1383.82 L3669.43 1450.64 L3644.07 1510.54 L3618.82 1564.13 L3593.45 1612.02 L3568.21 1654.96 L3542.84 1693.32 L3517.59 1727.60 L3492.22 1758.29 L3466.98 1785.77 L3441.61 1810.40 L3416.37 1832.42 L3391.00 1852.22 L3365.75 1869.80 L3340.38 1885.64 L3315.14 1899.87 L3289.77 1912.49 L3264.53 1924.00 L3239.16 1934.15 L3213.91 1943.31 L3188.54 1951.47 L3163.30 1958.90 L3137.93 1965.58 L3112.68 1971.65 L3087.32 1977.09 L3062.07 1982.17 L3036.70 1986.87 L3011.46 1991.32 L2986.09 1995.41 L2960.72 1999.24 L2935.47 2002.83 L2910.11 2006.17 L2884.86 2009.39 L2859.49 2012.49 L2834.25 2015.33 L2808.88 2018.05 L2783.63 2020.53 L2758.26 2022.88 L2733.02 2025.11 L2707.65 2027.09 L2682.41 2028.82 L2657.04 2030.43 L2631.79 2031.91 L2606.42 2033.15 L2581.18 2034.27 L2555.81 2035.26 L2530.56 2036.12 L2505.20 2036.86 L2479.95 2037.61 L2454.58 2038.10 L2429.34 2038.72 L2403.97 2039.09 L2378.72 2039.46 L2353.35 2039.83 L2328.11 2040.21 L2302.74 2040.45 L2277.49 2040.70 L2252.13 2040.83 L2226.88 2041.07 L2201.51 2041.20 L2201.51 2042.06 Z" stroke-linejoin="round"/>
	</defs>
	<defs>
		<clipPath id="clipPath_pWSplsyh">
			<use xlink:href="#path_OgbfMdLB"/>
		</clipPath>
	</defs>
	<use xlink:href="#path_OgbfMdLB" style="stroke:none;fill:#E6E6E6"/>
	<use xlink:href="#path_OgbfMdLB" style="fill:none;stroke:#E0E0E0;stroke-width:14.69" clip-path="url(#clipPath_pWSplsyh)"/>
	<defs>
		<path id="path_uuFSjbzC" d="M2201.51 2041.94 L2201.51 2041.94 L2226.88 2041.82 L2252.13 2041.69 L2277.49 2041.57 L2302.74 2041.44 L2328.11 2041.32 L2353.35 2041.07 L2378.72 2040.70 L2403.97 2040.45 L2429.34 2039.96 L2454.58 2039.46 L2479.95 2038.84 L2505.20 2038.10 L2530.56 2037.36 L2555.81 2036.37 L2581.18 2035.26 L2606.42 2033.89 L2631.79 2032.41 L2657.04 2030.80 L2682.41 2029.07 L2707.65 2027.09 L2733.02 2024.98 L2758.26 2022.63 L2783.63 2020.16 L2808.88 2017.44 L2834.25 2014.59 L2859.49 2011.62 L2884.86 2008.40 L2910.11 2004.94 L2935.47 2001.35 L2960.72 1997.39 L2986.09 1993.18 L3011.46 1988.72 L3036.70 1983.90 L3062.07 1978.70 L3087.32 1973.01 L3112.68 1966.94 L3137.93 1960.26 L3163.30 1952.96 L3188.54 1944.92 L3213.91 1935.88 L3239.16 1925.98 L3264.53 1914.84 L3289.77 1902.59 L3315.14 1888.86 L3340.38 1873.51 L3365.75 1856.43 L3391.00 1837.37 L3416.37 1815.96 L3441.61 1792.20 L3466.98 1765.60 L3492.22 1735.90 L3517.59 1702.73 L3542.84 1665.60 L3568.21 1624.02 L3593.45 1577.61 L3618.82 1525.76 L3644.07 1467.72 L3669.43 1402.87 L3694.68 1330.48 L3720.05 1249.54 L3745.42 1159.33 L3770.66 1058.59 L3770.66 456.65 L3745.42 618.52 L3720.05 763.56 L3694.68 893.50 L3669.43 1009.96 L3644.07 1114.16 L3618.82 1207.47 L3593.45 1291.00 L3568.21 1365.87 L3542.84 1432.70 L3517.59 1492.60 L3492.22 1546.18 L3466.98 1594.20 L3441.61 1637.14 L3416.37 1675.63 L3391.00 1710.03 L3365.75 1740.85 L3340.38 1768.57 L3315.14 1793.32 L3289.77 1815.47 L3264.53 1835.39 L3239.16 1853.21 L3213.91 1869.18 L3188.54 1883.53 L3163.30 1896.53 L3137.93 1908.16 L3112.68 1918.68 L3087.32 1928.33 L3062.07 1937.24 L3036.70 1945.41 L3011.46 1953.08 L2986.09 1960.26 L2960.72 1966.94 L2935.47 1973.26 L2910.11 1979.20 L2884.86 1984.76 L2859.49 1990.09 L2834.25 1995.16 L2808.88 1999.86 L2783.63 2004.32 L2758.26 2008.40 L2733.02 2012.11 L2707.65 2015.70 L2682.41 2018.80 L2657.04 2021.64 L2631.79 2024.12 L2606.42 2026.35 L2581.18 2028.33 L2555.81 2030.06 L2530.56 2031.54 L2505.20 2032.90 L2479.95 2034.02 L2454.58 2035.13 L2429.34 2036.00 L2403.97 2036.74 L2378.72 2037.48 L2353.35 2038.10 L2328.11 2038.60 L2302.74 2038.97 L2277.49 2039.46 L2252.13 2039.83 L2226.88 2040.08 L2201.51 2040.33 L2201.51 2041.94 Z" stroke-linejoin="round"/>
	</defs>
	<defs>
		<clipPath id="clipPath_bodrCAsJ">
			<use xlink:href="#path_uuFSjbzC"/>
		</clipPath>
	</defs>
	<use xlink:href="#path_uuFSjbzC" style="stroke:none;fill:#E6E6E6"/>
	<use xlink:href="#path_uuFSjbzC" style="fill:none;stroke:#E0E0E0;stroke-width:14.69" clip-path="url(#clipPath_bodrCAsJ)"/>
	<line x1="2201.39" y1="1994.91" x2="2204.24" y2="1994.91" style="stroke:#A0A0A0;stroke-width:7.34"/>
	<line x1="2224.41" y1="1994.91" x2="2226.76" y2="1994.91" style="stroke:#A0A0A0;stroke-width:7.34"/>
	<line x1="2226.76" y1="1994.91" x2="2227.25" y2="1994.91" style="stroke:#A0A0A0;stroke-width:7.34"/>
	<line x1="2247.42" y1="1994.91" x2="2250.27" y2="1994.91" style="stroke:#A0A0A0;stroke-width:7.34"/>
	<line x1="2270.44" y1="1994.91" x2="2273.29" y2="1994.91" style="stroke:#A0A0A0;stroke-width:7.34"/>
	<line x1="2293.46" y1="1994.91" x2="2296.43" y2="1994.91" style="stroke:#A0A0A0;stroke-width:7.34"/>
	<line x1="2316.60" y1="1994.91" x2="2319.45" y2="1994.91" style="stroke:#A0A0A0;stroke-width:7.34"/>
	<line x1="2339.62" y1="1994.91" x2="2342.46" y2="1994.91" style="stroke:#A0A0A0;stroke-width:7.34"/>
	<line x1="2362.64" y1="1994.91" x2="2365.48" y2="1994.91" style="stroke:#A0A0A0;stroke-width:7.34"/>
	<line x1="2385.65" y1="1994.91" x2="2388.50" y2="1994.91" style="stroke:#A0A0A0;stroke-width:7.34"/>
	<line x1="2408.67" y1="1994.91" x2="2411.52" y2="1994.91" style="stroke:#A0A0A0;stroke-width:7.34"/>
	<line x1="2431.69" y1="1994.91" x2="2434.53" y2="1994.91" style="stroke:#A0A0A0;stroke-width:7.34"/>
	<line x1="2454.70" y1="1994.91" x2="2457.55" y2="1994.91" style="stroke:#A0A0A0;stroke-width:7.34"/>
	<line x1="2477.72" y1="1994.91" x2="2479.83" y2="1994.91" style="stroke:#A0A0A0;stroke-width:7.34"/>
	<line x1="2479.83" y1="1994.91" x2="2480.57" y2="1994.91" style="stroke:#A0A0A0;stroke-width:7.34"/>
	<line x1="2500.74" y1="1994.91" x2="2503.59" y2="1994.91" style="stroke:#A0A0A0;stroke-width:7.34"/>
	<line x1="2523.76" y1="1994.91" x2="2526.60" y2="1994.91" style="stroke:#A0A0A0;stroke-width:7.34"/>
	<line x1="2546.78" y1="1994.91" x2="2549.74" y2="1994.91" style="stroke:#A0A0A0;stroke-width:7.34"/>
	<line x1="2569.92" y1="1994.91" x2="2572.76" y2="1994.91" style="stroke:#A0A0A0;stroke-width:7.34"/>
	<line x1="2592.93" y1="1994.91" x2="2595.78" y2="1994.91" style="stroke:#A0A0A0;stroke-width:7.34"/>
	<line x1="2615.95" y1="1994.91" x2="2618.80" y2="1994.91" style="stroke:#A0A0A0;stroke-width:7.34"/>
	<line x1="2638.97" y1="1994.91" x2="2641.82" y2="1994.91" style="stroke:#A0A0A0;stroke-width:7.34"/>
	<line x1="2661.99" y1="1994.91" x2="2664.83" y2="1994.91" style="stroke:#A0A0A0;stroke-width:7.34"/>
	<line x1="2685.00" y1="1994.91" x2="2687.85" y2="1994.91" style="stroke:#A0A0A0;stroke-width:7.34"/>
	<line x1="2708.02" y1="1994.91" x2="2710.87" y2="1994.91" style="stroke:#A0A0A0;stroke-width:7.34"/>
	<line x1="2731.04" y1="1994.91" x2="2732.89" y2="1994.91" style="stroke:#A0A0A0;stroke-width:7.34"/>
	<line x1="2732.89" y1="1994.91" x2="2733.89" y2="1994.91" style="stroke:#A0A0A0;stroke-width:7.34"/>
	<line x1="2754.06" y1="1994.91" x2="2756.90" y2="1994.91" style="stroke:#A0A0A0;stroke-width:7.34"/>
	<line x1="2777.07" y1="1994.91" x2="2779.92" y2="1994.91" style="stroke:#A0A0A0;stroke-width:7.34"/>
	<line x1="2800.09" y1="1994.91" x2="2803.06" y2="1994.91" style="stroke:#A0A0A0;stroke-width:7.34"/>
	<line x1="2823.23" y1="1994.91" x2="2826.08" y2="1994.91" style="stroke:#A0A0A0;stroke-width:7.34"/>
	<line x1="2846.25" y1="1994.91" x2="2849.10" y2="1994.91" style="stroke:#A0A0A0;stroke-width:7.34"/>
	<line x1="2869.27" y1="1994.91" x2="2872.11" y2="1994.91" style="stroke:#A0A0A0;stroke-width:7.34"/>
	<line x1="2892.28" y1="1994.91" x2="2895.13" y2="1994.91" style="stroke:#A0A0A0;stroke-width:7.34"/>
	<line x1="2915.30" y1="1994.91" x2="2918.15" y2="1994.91" style="stroke:#A0A0A0;stroke-width:7.34"/>
	<line x1="2938.32" y1="1994.91" x2="2941.17" y2="1994.91" style="stroke:#A0A0A0;stroke-width:7.34"/>
	<line x1="2961.34" y1="1994.91" x2="2964.18" y2="1994.91" style="stroke:#A0A0A0;stroke-width:7.34"/>
	<line x1="2984.36" y1="1994.91" x2="2986.09" y2="1994.91" style="stroke:#A0A0A0;stroke-width:7.34"/>
	<line x1="2986.09" y1="1994.91" x2="2987.20" y2="1994.91" style="stroke:#A0A0A0;stroke-width:7.34"/>
	<line x1="3007.37" y1="1994.91" x2="3010.22" y2="1994.91" style="stroke:#A0A0A0;stroke-width:7.34"/>
	<line x1="3030.39" y1="1994.91" x2="3033.36" y2="1994.91" style="stroke:#A0A0A0;stroke-width:7.34"/>
	<line x1="3053.41" y1="1994.91" x2="3056.38" y2="1994.91" style="stroke:#A0A0A0;stroke-width:7.34"/>
	<line x1="3076.55" y1="1994.91" x2="3079.39" y2="1994.91" style="stroke:#A0A0A0;stroke-width:7.34"/>
	<line x1="3099.57" y1="1994.91" x2="3102.41" y2="1994.91" style="stroke:#A0A0A0;stroke-width:7.34"/>
	<line x1="3122.58" y1="1994.91" x2="3125.43" y2="1994.91" style="stroke:#A0A0A0;stroke-width:7.34"/>
	<line x1="3145.60" y1="1994.91" x2="3148.45" y2="1994.91" style="stroke:#A0A0A0;stroke-width:7.34"/>
	<line x1="3168.62" y1="1994.91" x2="3171.47" y2="1994.91" style="stroke:#A0A0A0;stroke-width:7.34"/>
	<line x1="3191.64" y1="1994.91" x2="3194.48" y2="1994.91" style="stroke:#A0A0A0;stroke-width:7.34"/>
	<line x1="3214.65" y1="1994.91" x2="3217.50" y2="1994.91" style="stroke:#A0A0A0;stroke-width:7.34"/>
	<line x1="3237.67" y1="1994.91" x2="3239.16" y2="1994.91" style="stroke:#A0A0A0;stroke-width:7.34"/>
	<line x1="3239.16" y1="1994.91" x2="3240.52" y2="1994.91" style="stroke:#A0A0A0;stroke-width:7.34"/>
	<line x1="3260.69" y1="1994.91" x2="3263.53" y2="1994.91" style="stroke:#A0A0A0;stroke-width:7.34"/>
	<line x1="3283.71" y1="1994.91" x2="3286.68" y2="1994.91" style="stroke:#A0A0A0;stroke-width:7.34"/>
	<line x1="3306.72" y1="1994.91" x2="3309.69" y2="1994.91" style="stroke:#A0A0A0;stroke-width:7.34"/>
	<line x1="3329.86" y1="1994.91" x2="3332.71" y2="1994.91" style="stroke:#A0A0A0;stroke-width:7.34"/>
	<line x1="3352.88" y1="1994.91" x2="3355.73" y2="1994.91" style="stroke:#A0A0A0;stroke-width:7.34"/>
	<line x1="3375.90" y1="1994.91" x2="3378.75" y2="1994.91" style="stroke:#A0A0A0;stroke-width:7.34"/>
	<line x1="3398.92" y1="1994.91" x2="3401.76" y2="1994.91" style="stroke:#A0A0A0;stroke-width:7.34"/>
	<line x1="3421.93" y1="1994.91" x2="3424.78" y2="1994.91" style="stroke:#A0A0A0;stroke-width:7.34"/>
	<line x1="3444.95" y1="1994.91" x2="3447.80" y2="1994.91" style="stroke:#A0A0A0;stroke-width:7.34"/>
	<line x1="3467.97" y1="1994.91" x2="3470.82" y2="1994.91" style="stroke:#A0A0A0;stroke-width:7.34"/>
	<line x1="3490.99" y1="1994.91" x2="3492.22" y2="1994.91" style="stroke:#A0A0A0;stroke-width:7.34"/>
	<line x1="3492.22" y1="1994.91" x2="3493.83" y2="1994.91" style="stroke:#A0A0A0;stroke-width:7.34"/>
	<line x1="3514.01" y1="1994.91" x2="3516.85" y2="1994.91" style="stroke:#A0A0A0;stroke-width:7.34"/>
	<line x1="3537.02" y1="1994.91" x2="3539.99" y2="1994.91" style="stroke:#A0A0A0;stroke-width:7.34"/>
	<line x1="3560.04" y1="1994.91" x2="3563.01" y2="1994.91" style="stroke:#A0A0A0;stroke-width:7.34"/>
	<line x1="3583.18" y1="1994.91" x2="3586.03" y2="1994.91" style="stroke:#A0A0A0;stroke-width:7.34"/>
	<line x1="3606.20" y1="1994.91" x2="3609.05" y2="1994.91" style="stroke:#A0A0A0;stroke-width:7.34"/>
	<line x1="3629.22" y1="1994.91" x2="3632.06" y2="1994.91" style="stroke:#A0A0A0;stroke-width:7.34"/>
	<line x1="3652.23" y1="1994.91" x2="3655.08" y2="1994.91" style="stroke:#A0A0A0;stroke-width:7.34"/>
	<line x1="3675.25" y1="1994.91" x2="3678.10" y2="1994.91" style="stroke:#A0A0A0;stroke-width:7.34"/>
	<line x1="3698.27" y1="1994.91" x2="3701.11" y2="1994.91" style="stroke:#A0A0A0;stroke-width:7.34"/>
	<line x1="3721.29" y1="1994.91" x2="3724.13" y2="1994.91" style="stroke:#A0A0A0;stroke-width:7.34"/>
	<line x1="3744.30" y1="1994.91" x2="3745.29" y2="1994.91" style="stroke:#A0A0A0;stroke-width:7.34"/>
	<line x1="3745.29" y1="1994.91" x2="3747.15" y2="1994.91" style="stroke:#A0A0A0;stroke-width:7.34"/>
	<line x1="3767.32" y1="1994.91" x2="3770.17" y2="1994.91" style="stroke:#A0A0A0;stroke-width:7.34"/>
	<path d="" stroke-linejoin="round" style="fill:none;stroke:#A0A0A0;stroke-width:7.34"/>
	<path d=" M2201.39 2041.82 L2226.76 2041.82 L2252.13 2041.69 L2277.37 2041.57 L2302.74 2041.44 L2327.99 2041.20 L2353.35 2041.07 L2378.60 2040.83 L2403.97 2040.45 L2429.21 2040.21 L2454.58 2039.83 L2479.83 2039.34 L2505.20 2038.84 L2530.44 2038.23 L2555.81 2037.48 L2581.05 2036.62 L2606.42 2035.75 L2631.67 2034.76 L2657.04 2033.52 L2682.28 2032.29 L2707.65 2030.80 L2732.89 2029.32 L2758.26 2027.58 L2783.51 2025.73 L2808.88 2023.75 L2834.12 2021.64 L2859.49 2019.42 L2884.74 2017.06 L2910.11 2014.59 L2935.35 2011.87 L2960.72 2009.02 L2986.09 2006.05 L3011.33 2002.83 L3036.70 1999.37 L3061.95 1995.53 L3087.32 1991.57 L3112.56 1987.12 L3137.93 1982.29 L3163.17 1977.09 L3188.54 1971.15 L3213.79 1964.72 L3239.16 1957.54 L3264.40 1949.49 L3289.77 1940.46 L3315.01 1930.44 L3340.38 1919.30 L3365.63 1906.92 L3391.00 1893.06 L3416.24 1877.47 L3441.61 1860.14 L3466.86 1840.84 L3492.22 1819.18 L3517.47 1795.05 L3542.84 1768.07 L3568.08 1737.88 L3593.45 1704.09 L3618.70 1666.35 L3644.07 1624.27 L3669.31 1577.12 L3694.68 1524.52 L3719.93 1465.74 L3745.29 1400.15 L3770.66 1326.89" stroke-linejoin="round" style="fill:none;stroke:#008000;stroke-width:7.34"/>
	<path d=" M2201.39 2041.57 L2226.76 2041.32 L2252.13 2041.20 L2277.37 2040.95 L2302.74 2040.70 L2327.99 2040.45 L2353.35 2040.08 L2378.60 2039.59 L2403.97 2039.09 L2429.21 2038.60 L2454.58 2037.85 L2479.83 2037.11 L2505.20 2036.12 L2530.44 2035.01 L2555.81 2033.77 L2581.05 2032.41 L2606.42 2030.80 L2631.67 2028.94 L2657.04 2026.96 L2682.28 2024.74 L2707.65 2022.26 L2732.89 2019.54 L2758.26 2016.57 L2783.51 2013.35 L2808.88 2009.89 L2834.12 2006.30 L2859.49 2002.34 L2884.74 1998.25 L2910.11 1993.80 L2935.35 1989.10 L2960.72 1984.15 L2986.09 1978.82 L3011.33 1973.26 L3036.70 1967.19 L3061.95 1960.63 L3087.32 1953.58 L3112.56 1945.91 L3137.93 1937.49 L3163.17 1928.21 L3188.54 1918.06 L3213.79 1906.68 L3239.16 1894.05 L3264.40 1879.94 L3289.77 1864.35 L3315.01 1846.90 L3340.38 1827.35 L3365.63 1805.69 L3391.00 1781.44 L3416.24 1754.33 L3441.61 1724.02 L3466.86 1690.23 L3492.22 1652.49 L3517.47 1610.29 L3542.84 1563.14 L3568.08 1510.42 L3593.45 1451.51 L3618.70 1385.67 L3644.07 1312.04 L3669.31 1229.87 L3694.68 1138.04 L3719.93 1035.45 L3745.29 920.98 L3770.66 793.39" stroke-linejoin="round" style="fill:none;stroke:#FF7F00;stroke-width:7.34"/>
	<path d=" M2201.39 2042.06 L2226.76 2042.06 L2252.13 2042.06 L2277.37 2041.94 L2302.74 2041.94 L2327.99 2041.82 L2353.35 2041.69 L2378.60 2041.57 L2403.97 2041.44 L2429.21 2041.32 L2454.58 2041.07 L2479.83 2040.95 L2505.20 2040.70 L2530.44 2040.33 L2555.81 2040.08 L2581.05 2039.71 L2606.42 2039.22 L2631.67 2038.72 L2657.04 2038.23 L2682.28 2037.61 L2707.65 2036.86 L2732.89 2036.12 L2758.26 2035.38 L2783.51 2034.51 L2808.88 2033.65 L2834.12 2032.66 L2859.49 2031.54 L2884.74 2030.43 L2910.11 2029.32 L2935.35 2027.95 L2960.72 2026.72 L2986.09 2025.23 L3011.33 2023.75 L3036.70 2022.01 L3061.95 2020.28 L3087.32 2018.43 L3112.56 2016.32 L3137.93 2014.09 L3163.17 2011.62 L3188.54 2008.77 L3213.79 2005.80 L3239.16 2002.34 L3264.40 1998.50 L3289.77 1994.29 L3315.01 1989.59 L3340.38 1984.39 L3365.63 1978.45 L3391.00 1972.02 L3416.24 1964.59 L3441.61 1956.55 L3466.86 1947.39 L3492.22 1937.12 L3517.47 1925.73 L3542.84 1913.11 L3568.08 1898.76 L3593.45 1882.92 L3618.70 1865.09 L3644.07 1845.17 L3669.31 1823.02 L3694.68 1798.14 L3719.93 1770.42 L3745.29 1739.48 L3770.66 1704.96" stroke-linejoin="round" style="fill:none;stroke:#1A476F;stroke-width:7.34"/>
	<line x1="401.69" y1="2096.14" x2="401.69" y2="402.82" style="stroke:#000000;stroke-width:4.90"/>
	<line x1="401.69" y1="2042.31" x2="367.66" y2="2042.31" style="stroke:#000000;stroke-width:4.90"/>
	<text x="350.71" y="2072.10" style="font-family:'Helvetica';font-size:85.02px;fill:#000000" text-anchor="end">0</text>
	<line x1="401.69" y1="1827.23" x2="367.66" y2="1827.23" style="stroke:#000000;stroke-width:4.90"/>
	<text x="350.71" y="1857.01" style="font-family:'Helvetica';font-size:85.02px;fill:#000000" text-anchor="end">.001</text>
	<line x1="401.69" y1="1612.14" x2="367.66" y2="1612.14" style="stroke:#000000;stroke-width:4.90"/>
	<text x="350.71" y="1641.93" style="font-family:'Helvetica';font-size:85.02px;fill:#000000" text-anchor="end">.002</text>
	<line x1="401.69" y1="1397.06" x2="367.66" y2="1397.06" style="stroke:#000000;stroke-width:4.90"/>
	<text x="350.71" y="1426.84" style="font-family:'Helvetica';font-size:85.02px;fill:#000000" text-anchor="end">.003</text>
	<line x1="401.69" y1="1181.97" x2="367.66" y2="1181.97" style="stroke:#000000;stroke-width:4.90"/>
	<text x="350.71" y="1211.76" style="font-family:'Helvetica';font-size:85.02px;fill:#000000" text-anchor="end">.004</text>
	<line x1="401.69" y1="967.01" x2="367.66" y2="967.01" style="stroke:#000000;stroke-width:4.90"/>
	<text x="350.71" y="996.80" style="font-family:'Helvetica';font-size:85.02px;fill:#000000" text-anchor="end">.005</text>
	<line x1="401.69" y1="2096.14" x2="2078.51" y2="2096.14" style="stroke:#000000;stroke-width:4.90"/>
	<line x1="506.14" y1="2096.14" x2="506.14" y2="2113.10" style="stroke:#000000;stroke-width:4.90"/>
	<line x1="632.73" y1="2096.14" x2="632.73" y2="2113.10" style="stroke:#000000;stroke-width:4.90"/>
	<line x1="759.21" y1="2096.14" x2="759.21" y2="2113.10" style="stroke:#000000;stroke-width:4.90"/>
	<line x1="885.80" y1="2096.14" x2="885.80" y2="2113.10" style="stroke:#000000;stroke-width:4.90"/>
	<line x1="1012.27" y1="2096.14" x2="1012.27" y2="2113.10" style="stroke:#000000;stroke-width:4.90"/>
	<line x1="1138.87" y1="2096.14" x2="1138.87" y2="2113.10" style="stroke:#000000;stroke-width:4.90"/>
	<line x1="1265.47" y1="2096.14" x2="1265.47" y2="2113.10" style="stroke:#000000;stroke-width:4.90"/>
	<line x1="1391.94" y1="2096.14" x2="1391.94" y2="2113.10" style="stroke:#000000;stroke-width:4.90"/>
	<line x1="1518.54" y1="2096.14" x2="1518.54" y2="2113.10" style="stroke:#000000;stroke-width:4.90"/>
	<line x1="1645.01" y1="2096.14" x2="1645.01" y2="2113.10" style="stroke:#000000;stroke-width:4.90"/>
	<line x1="1771.61" y1="2096.14" x2="1771.61" y2="2113.10" style="stroke:#000000;stroke-width:4.90"/>
	<line x1="1898.20" y1="2096.14" x2="1898.20" y2="2113.10" style="stroke:#000000;stroke-width:4.90"/>
	<line x1="2024.67" y1="2096.14" x2="2024.67" y2="2113.10" style="stroke:#000000;stroke-width:4.90"/>
	<line x1="506.14" y1="2096.14" x2="506.14" y2="2130.18" style="stroke:#000000;stroke-width:4.90"/>
	<text x="506.14" y="2206.58" style="font-family:'Helvetica';font-size:85.02px;fill:#000000" text-anchor="middle">20</text>
	<line x1="1012.27" y1="2096.14" x2="1012.27" y2="2130.18" style="stroke:#000000;stroke-width:4.90"/>
	<text x="1012.27" y="2206.58" style="font-family:'Helvetica';font-size:85.02px;fill:#000000" text-anchor="middle">40</text>
	<line x1="1518.54" y1="2096.14" x2="1518.54" y2="2130.18" style="stroke:#000000;stroke-width:4.90"/>
	<text x="1518.54" y="2206.58" style="font-family:'Helvetica';font-size:85.02px;fill:#000000" text-anchor="middle">60</text>
	<line x1="2024.67" y1="2096.14" x2="2024.67" y2="2130.18" style="stroke:#000000;stroke-width:4.90"/>
	<text x="2024.67" y="2206.58" style="font-family:'Helvetica';font-size:85.02px;fill:#000000" text-anchor="middle">80</text>
	<line x1="2147.68" y1="2096.14" x2="3824.49" y2="2096.14" style="stroke:#000000;stroke-width:4.90"/>
	<line x1="2252.13" y1="2096.14" x2="2252.13" y2="2113.10" style="stroke:#000000;stroke-width:4.90"/>
	<line x1="2378.72" y1="2096.14" x2="2378.72" y2="2113.10" style="stroke:#000000;stroke-width:4.90"/>
	<line x1="2505.20" y1="2096.14" x2="2505.20" y2="2113.10" style="stroke:#000000;stroke-width:4.90"/>
	<line x1="2631.79" y1="2096.14" x2="2631.79" y2="2113.10" style="stroke:#000000;stroke-width:4.90"/>
	<line x1="2758.26" y1="2096.14" x2="2758.26" y2="2113.10" style="stroke:#000000;stroke-width:4.90"/>
	<line x1="2884.86" y1="2096.14" x2="2884.86" y2="2113.10" style="stroke:#000000;stroke-width:4.90"/>
	<line x1="3011.46" y1="2096.14" x2="3011.46" y2="2113.10" style="stroke:#000000;stroke-width:4.90"/>
	<line x1="3137.93" y1="2096.14" x2="3137.93" y2="2113.10" style="stroke:#000000;stroke-width:4.90"/>
	<line x1="3264.53" y1="2096.14" x2="3264.53" y2="2113.10" style="stroke:#000000;stroke-width:4.90"/>
	<line x1="3391.00" y1="2096.14" x2="3391.00" y2="2113.10" style="stroke:#000000;stroke-width:4.90"/>
	<line x1="3517.59" y1="2096.14" x2="3517.59" y2="2113.10" style="stroke:#000000;stroke-width:4.90"/>
	<line x1="3644.07" y1="2096.14" x2="3644.07" y2="2113.10" style="stroke:#000000;stroke-width:4.90"/>
	<line x1="3770.66" y1="2096.14" x2="3770.66" y2="2113.10" style="stroke:#000000;stroke-width:4.90"/>
	<line x1="2252.13" y1="2096.14" x2="2252.13" y2="2130.18" style="stroke:#000000;stroke-width:4.90"/>
	<text x="2252.13" y="2206.58" style="font-family:'Helvetica';font-size:85.02px;fill:#000000" text-anchor="middle">20</text>
	<line x1="2758.26" y1="2096.14" x2="2758.26" y2="2130.18" style="stroke:#000000;stroke-width:4.90"/>
	<text x="2758.26" y="2206.58" style="font-family:'Helvetica';font-size:85.02px;fill:#000000" text-anchor="middle">40</text>
	<line x1="3264.53" y1="2096.14" x2="3264.53" y2="2130.18" style="stroke:#000000;stroke-width:4.90"/>
	<text x="3264.53" y="2206.58" style="font-family:'Helvetica';font-size:85.02px;fill:#000000" text-anchor="middle">60</text>
	<line x1="3770.66" y1="2096.14" x2="3770.66" y2="2130.18" style="stroke:#000000;stroke-width:4.90"/>
	<text x="3770.66" y="2206.58" style="font-family:'Helvetica';font-size:85.02px;fill:#000000" text-anchor="middle">80</text>
	<rect x="401.69" y="279.93" width="1676.81" height="122.89" style="fill:#D9E6EB"/>
	<rect x="404.14" y="282.38" width="1671.92" height="117.99" style="fill:none;stroke:#D9E6EB;stroke-width:4.90"/>
	<text x="1240.10" y="359.96" style="font-family:'Helvetica';font-size:93.56px;fill:#000000" text-anchor="middle">Female</text>
	<rect x="2147.68" y="279.93" width="1676.81" height="122.89" style="fill:#D9E6EB"/>
	<rect x="2150.13" y="282.38" width="1671.92" height="117.99" style="fill:none;stroke:#D9E6EB;stroke-width:4.90"/>
	<text x="2986.09" y="359.96" style="font-family:'Helvetica';font-size:93.56px;fill:#000000" text-anchor="middle">Male</text>
	<rect x="592.39" y="2418.27" width="2775.09" height="326.34" style="fill:#FFFFFF"/>
	<rect x="595.27" y="2421.15" width="2769.33" height="320.58" style="fill:none;stroke:#000000;stroke-width:5.76"/>
	<line x1="635.58" y1="2511.46" x2="1009.92" y2="2511.46" style="stroke:#008000;stroke-width:8.64"/>
	<line x1="635.58" y1="2651.43" x2="1009.92" y2="2651.43" style="stroke:#FF7F00;stroke-width:8.64"/>
	<line x1="1971.21" y1="2511.46" x2="2345.56" y2="2511.46" style="stroke:#1A476F;stroke-width:8.64"/>
	<line x1="1971.21" y1="2651.43" x2="1974.06" y2="2651.43" style="stroke:#A0A0A0;stroke-width:8.64"/>
	<line x1="1994.23" y1="2651.43" x2="1997.08" y2="2651.43" style="stroke:#A0A0A0;stroke-width:8.64"/>
	<line x1="2017.25" y1="2651.43" x2="2020.10" y2="2651.43" style="stroke:#A0A0A0;stroke-width:8.64"/>
	<line x1="2040.27" y1="2651.43" x2="2043.24" y2="2651.43" style="stroke:#A0A0A0;stroke-width:8.64"/>
	<line x1="2063.28" y1="2651.43" x2="2066.25" y2="2651.43" style="stroke:#A0A0A0;stroke-width:8.64"/>
	<line x1="2086.43" y1="2651.43" x2="2089.27" y2="2651.43" style="stroke:#A0A0A0;stroke-width:8.64"/>
	<line x1="2109.44" y1="2651.43" x2="2112.29" y2="2651.43" style="stroke:#A0A0A0;stroke-width:8.64"/>
	<line x1="2132.46" y1="2651.43" x2="2135.31" y2="2651.43" style="stroke:#A0A0A0;stroke-width:8.64"/>
	<line x1="2155.48" y1="2651.43" x2="2158.32" y2="2651.43" style="stroke:#A0A0A0;stroke-width:8.64"/>
	<line x1="2178.49" y1="2651.43" x2="2181.34" y2="2651.43" style="stroke:#A0A0A0;stroke-width:8.64"/>
	<line x1="2201.51" y1="2651.43" x2="2204.36" y2="2651.43" style="stroke:#A0A0A0;stroke-width:8.64"/>
	<line x1="2224.53" y1="2651.43" x2="2227.38" y2="2651.43" style="stroke:#A0A0A0;stroke-width:8.64"/>
	<line x1="2247.55" y1="2651.43" x2="2250.39" y2="2651.43" style="stroke:#A0A0A0;stroke-width:8.64"/>
	<line x1="2270.57" y1="2651.43" x2="2273.41" y2="2651.43" style="stroke:#A0A0A0;stroke-width:8.64"/>
	<line x1="2293.58" y1="2651.43" x2="2296.55" y2="2651.43" style="stroke:#A0A0A0;stroke-width:8.64"/>
	<line x1="2316.60" y1="2651.43" x2="2319.57" y2="2651.43" style="stroke:#A0A0A0;stroke-width:8.64"/>
	<line x1="2339.74" y1="2651.43" x2="2342.59" y2="2651.43" style="stroke:#A0A0A0;stroke-width:8.64"/>
	<text x="1069.94" y="2546.49" style="font-family:'Helvetica';font-size:99.99px;fill:#000000">1 comorbidity</text>
	<text x="1069.94" y="2686.46" style="font-family:'Helvetica';font-size:99.99px;fill:#000000">2+ comorbidities</text>
	<text x="2405.58" y="2546.49" style="font-family:'Helvetica';font-size:99.99px;fill:#000000">No comborbidity</text>
	<text x="2405.58" y="2686.46" style="font-family:'Helvetica';font-size:99.99px;fill:#000000">Ref (Age 65, White)</text>
	<text x="1980.00" y="2353.56" style="font-family:'Helvetica';font-size:99.99px;fill:#000000" text-anchor="middle">Age (years)</text>
	<text x="1980.00" y="195.01" style="font-family:'Helvetica';font-size:110.01px;fill:#000000" text-anchor="middle">Ethnicity Mixed</text>
</svg>
