<?xml version="1.0" encoding="UTF-8" standalone="no"?>
<!-- This is a Stata 16.1 generated SVG file (http://www.stata.com) -->

<svg version="1.1" width="1600px" height="1164px" viewBox="0 0 3960 2880" xmlns="http://www.w3.org/2000/svg" xmlns:xlink="http://www.w3.org/1999/xlink">
	<desc>Stata Graph - Graph</desc>
	<rect x="0" y="0" width="3960" height="2880" style="fill:#EAF2F3;stroke:none"/>
	<rect x="0.00" y="0.00" width="3959.88" height="2880.00" style="fill:#EAF2F3"/>
	<rect x="2.88" y="2.88" width="3954.12" height="2874.24" style="fill:none;stroke:#EAF2F3;stroke-width:5.76"/>
	<rect x="401.69" y="402.82" width="1676.81" height="1693.32" style="fill:#FFFFFF"/>
	<rect x="404.14" y="405.27" width="1671.92" height="1688.43" style="fill:none;stroke:#FFFFFF;stroke-width:4.90"/>
	<line x1="401.69" y1="2042.31" x2="2078.51" y2="2042.31" style="stroke:#EAF2F3;stroke-width:7.34"/>
	<line x1="401.69" y1="1784.04" x2="2078.51" y2="1784.04" style="stroke:#EAF2F3;stroke-width:7.34"/>
	<line x1="401.69" y1="1525.76" x2="2078.51" y2="1525.76" style="stroke:#EAF2F3;stroke-width:7.34"/>
	<line x1="401.69" y1="1267.49" x2="2078.51" y2="1267.49" style="stroke:#EAF2F3;stroke-width:7.34"/>
	<line x1="401.69" y1="1009.21" x2="2078.51" y2="1009.21" style="stroke:#EAF2F3;stroke-width:7.34"/>
	<line x1="401.69" y1="750.81" x2="2078.51" y2="750.81" style="stroke:#EAF2F3;stroke-width:7.34"/>
	<rect x="2147.68" y="402.82" width="1676.81" height="1693.32" style="fill:#FFFFFF"/>
	<rect x="2150.13" y="405.27" width="1671.92" height="1688.43" style="fill:none;stroke:#FFFFFF;stroke-width:4.90"/>
	<line x1="2147.68" y1="2042.31" x2="3824.49" y2="2042.31" style="stroke:#EAF2F3;stroke-width:7.34"/>
	<line x1="2147.68" y1="1784.04" x2="3824.49" y2="1784.04" style="stroke:#EAF2F3;stroke-width:7.34"/>
	<line x1="2147.68" y1="1525.76" x2="3824.49" y2="1525.76" style="stroke:#EAF2F3;stroke-width:7.34"/>
	<line x1="2147.68" y1="1267.49" x2="3824.49" y2="1267.49" style="stroke:#EAF2F3;stroke-width:7.34"/>
	<line x1="2147.68" y1="1009.21" x2="3824.49" y2="1009.21" style="stroke:#EAF2F3;stroke-width:7.34"/>
	<line x1="2147.68" y1="750.81" x2="3824.49" y2="750.81" style="stroke:#EAF2F3;stroke-width:7.34"/>
	<defs>
		<path id="path_LgPTKwQQ" d="M455.52 2042.19 L455.52 2042.19 L480.89 2042.19 L506.14 2042.19 L531.51 2042.19 L556.75 2042.06 L582.12 2042.06 L607.37 2042.06 L632.73 2041.94 L657.98 2041.82 L683.35 2041.82 L708.59 2041.69 L733.96 2041.57 L759.21 2041.32 L784.58 2041.20 L809.82 2040.95 L835.19 2040.70 L860.43 2040.33 L885.80 2040.08 L911.05 2039.59 L936.42 2039.22 L961.66 2038.72 L987.03 2038.23 L1012.27 2037.73 L1037.64 2037.11 L1062.89 2036.49 L1088.26 2035.87 L1113.50 2035.13 L1138.87 2034.39 L1164.24 2033.52 L1189.48 2032.66 L1214.85 2031.79 L1240.10 2030.80 L1265.47 2029.69 L1290.71 2028.57 L1316.08 2027.34 L1341.33 2025.97 L1366.69 2024.49 L1391.94 2022.88 L1417.31 2021.15 L1442.55 2019.17 L1467.92 2017.06 L1493.17 2014.71 L1518.54 2012.11 L1543.78 2009.14 L1569.15 2005.93 L1594.39 2002.34 L1619.76 1998.25 L1645.01 1993.80 L1670.38 1988.72 L1695.62 1983.16 L1720.99 1976.84 L1746.24 1969.91 L1771.61 1961.99 L1796.85 1953.33 L1822.22 1943.43 L1847.46 1932.54 L1872.83 1920.29 L1898.20 1906.55 L1923.45 1891.21 L1948.82 1874.13 L1974.06 1855.07 L1999.43 1833.66 L2024.67 1809.90 L2024.67 1747.65 L1999.43 1777.85 L1974.06 1804.83 L1948.82 1829.08 L1923.45 1850.74 L1898.20 1870.17 L1872.83 1887.49 L1847.46 1903.09 L1822.22 1916.95 L1796.85 1929.32 L1771.61 1940.46 L1746.24 1950.48 L1720.99 1959.39 L1695.62 1967.32 L1670.38 1974.49 L1645.01 1980.80 L1619.76 1986.62 L1594.39 1991.69 L1569.15 1996.27 L1543.78 2000.36 L1518.54 2004.07 L1493.17 2007.41 L1467.92 2010.38 L1442.55 2012.98 L1417.31 2015.33 L1391.94 2017.44 L1366.69 2019.42 L1341.33 2021.15 L1316.08 2022.76 L1290.71 2024.37 L1265.47 2025.73 L1240.10 2026.96 L1214.85 2028.20 L1189.48 2029.44 L1164.24 2030.55 L1138.87 2031.54 L1113.50 2032.53 L1088.26 2033.40 L1062.89 2034.39 L1037.64 2035.13 L1012.27 2035.87 L987.03 2036.62 L961.66 2037.24 L936.42 2037.85 L911.05 2038.35 L885.80 2038.84 L860.43 2039.22 L835.19 2039.59 L809.82 2039.96 L784.58 2040.21 L759.21 2040.45 L733.96 2040.70 L708.59 2040.83 L683.35 2041.07 L657.98 2041.20 L632.73 2041.32 L607.37 2041.44 L582.12 2041.57 L556.75 2041.57 L531.51 2041.69 L506.14 2041.82 L480.89 2041.82 L455.52 2041.94 L455.52 2042.19 Z" stroke-linejoin="round"/>
	</defs>
	<defs>
		<clipPath id="clipPath_bLloVJXq">
			<use xlink:href="#path_LgPTKwQQ"/>
		</clipPath>
	</defs>
	<use xlink:href="#path_LgPTKwQQ" style="stroke:none;fill:#E6E6E6"/>
	<use xlink:href="#path_LgPTKwQQ" style="fill:none;stroke:#E0E0E0;stroke-width:14.69" clip-path="url(#clipPath_bLloVJXq)"/>
	<defs>
		<path id="path_LvbYUuUN" d="M455.52 2042.06 L455.52 2042.06 L480.89 2042.06 L506.14 2042.06 L531.51 2041.94 L556.75 2041.94 L582.12 2041.82 L607.37 2041.69 L632.73 2041.57 L657.98 2041.44 L683.35 2041.20 L708.59 2040.95 L733.96 2040.70 L759.21 2040.33 L784.58 2039.96 L809.82 2039.46 L835.19 2038.84 L860.43 2038.23 L885.80 2037.61 L911.05 2036.74 L936.42 2035.87 L961.66 2034.88 L987.03 2033.77 L1012.27 2032.66 L1037.64 2031.42 L1062.89 2030.06 L1088.26 2028.70 L1113.50 2027.21 L1138.87 2025.60 L1164.24 2023.87 L1189.48 2022.01 L1214.85 2020.03 L1240.10 2017.93 L1265.47 2015.70 L1290.71 2013.23 L1316.08 2010.63 L1341.33 2007.78 L1366.69 2004.57 L1391.94 2001.22 L1417.31 1997.51 L1442.55 1993.43 L1467.92 1988.85 L1493.17 1983.77 L1518.54 1978.21 L1543.78 1972.02 L1569.15 1965.09 L1594.39 1957.41 L1619.76 1948.75 L1645.01 1939.10 L1670.38 1928.46 L1695.62 1916.45 L1720.99 1903.09 L1746.24 1888.11 L1771.61 1871.28 L1796.85 1852.60 L1822.22 1831.68 L1847.46 1808.17 L1872.83 1782.06 L1898.20 1752.73 L1923.45 1720.06 L1948.82 1683.42 L1974.06 1642.59 L1999.43 1597.04 L2024.67 1546.18 L2024.67 1421.44 L1999.43 1484.92 L1974.06 1541.73 L1948.82 1592.71 L1923.45 1638.25 L1898.20 1679.09 L1872.83 1715.60 L1847.46 1748.39 L1822.22 1777.60 L1796.85 1803.84 L1771.61 1827.23 L1746.24 1848.14 L1720.99 1866.95 L1695.62 1883.78 L1670.38 1898.76 L1645.01 1912.24 L1619.76 1924.37 L1594.39 1935.14 L1569.15 1944.79 L1543.78 1953.45 L1518.54 1961.25 L1493.17 1968.18 L1467.92 1974.49 L1442.55 1980.06 L1417.31 1985.01 L1391.94 1989.59 L1366.69 1993.67 L1341.33 1997.39 L1316.08 2000.73 L1290.71 2003.95 L1265.47 2006.92 L1240.10 2009.64 L1214.85 2012.36 L1189.48 2014.84 L1164.24 2017.06 L1138.87 2019.29 L1113.50 2021.40 L1088.26 2023.38 L1062.89 2025.23 L1037.64 2027.09 L1012.27 2028.70 L987.03 2030.18 L961.66 2031.54 L936.42 2032.78 L911.05 2033.89 L885.80 2034.88 L860.43 2035.75 L835.19 2036.49 L809.82 2037.24 L784.58 2037.85 L759.21 2038.35 L733.96 2038.84 L708.59 2039.22 L683.35 2039.59 L657.98 2039.96 L632.73 2040.21 L607.37 2040.45 L582.12 2040.70 L556.75 2040.95 L531.51 2041.07 L506.14 2041.20 L480.89 2041.32 L455.52 2041.44 L455.52 2042.06 Z" stroke-linejoin="round"/>
	</defs>
	<defs>
		<clipPath id="clipPath_oFuhlxrx">
			<use xlink:href="#path_LvbYUuUN"/>
		</clipPath>
	</defs>
	<use xlink:href="#path_LvbYUuUN" style="stroke:none;fill:#E6E6E6"/>
	<use xlink:href="#path_LvbYUuUN" style="fill:none;stroke:#E0E0E0;stroke-width:14.69" clip-path="url(#clipPath_oFuhlxrx)"/>
	<defs>
		<path id="path_kbqcmiJW" d="M455.52 2041.94 L455.52 2041.94 L480.89 2041.94 L506.14 2041.82 L531.51 2041.69 L556.75 2041.57 L582.12 2041.44 L607.37 2041.32 L632.73 2041.07 L657.98 2040.83 L683.35 2040.45 L708.59 2039.96 L733.96 2039.46 L759.21 2038.84 L784.58 2038.23 L809.82 2037.36 L835.19 2036.37 L860.43 2035.26 L885.80 2034.02 L911.05 2032.66 L936.42 2031.05 L961.66 2029.32 L987.03 2027.46 L1012.27 2025.48 L1037.64 2023.25 L1062.89 2021.02 L1088.26 2018.55 L1113.50 2015.95 L1138.87 2013.10 L1164.24 2010.13 L1189.48 2006.92 L1214.85 2003.45 L1240.10 1999.86 L1265.47 1995.90 L1290.71 1991.57 L1316.08 1986.99 L1341.33 1982.04 L1366.69 1976.60 L1391.94 1970.66 L1417.31 1964.10 L1442.55 1957.04 L1467.92 1949.12 L1493.17 1940.34 L1518.54 1930.56 L1543.78 1919.67 L1569.15 1907.54 L1594.39 1894.05 L1619.76 1878.95 L1645.01 1862.25 L1670.38 1843.44 L1695.62 1822.52 L1720.99 1799.01 L1746.24 1772.90 L1771.61 1743.57 L1796.85 1710.77 L1822.22 1674.14 L1847.46 1633.18 L1872.83 1587.27 L1898.20 1536.03 L1923.45 1478.73 L1948.82 1414.75 L1974.06 1343.22 L1999.43 1263.40 L2024.67 1174.30 L2024.67 959.83 L1999.43 1070.22 L1974.06 1169.23 L1948.82 1257.83 L1923.45 1337.28 L1898.20 1408.32 L1872.83 1472.05 L1847.46 1528.98 L1822.22 1579.97 L1796.85 1625.63 L1771.61 1666.47 L1746.24 1702.98 L1720.99 1735.77 L1695.62 1765.10 L1670.38 1791.34 L1645.01 1814.85 L1619.76 1836.01 L1594.39 1854.82 L1569.15 1871.78 L1543.78 1886.88 L1518.54 1900.49 L1493.17 1912.62 L1467.92 1923.51 L1442.55 1933.28 L1417.31 1942.07 L1391.94 1949.99 L1366.69 1957.17 L1341.33 1963.60 L1316.08 1969.67 L1290.71 1975.24 L1265.47 1980.43 L1240.10 1985.26 L1214.85 1989.84 L1189.48 1994.17 L1164.24 1998.25 L1138.87 2002.09 L1113.50 2005.80 L1088.26 2009.27 L1062.89 2012.61 L1037.64 2015.58 L1012.27 2018.43 L987.03 2021.15 L961.66 2023.50 L936.42 2025.60 L911.05 2027.58 L885.80 2029.32 L860.43 2030.92 L835.19 2032.16 L809.82 2033.40 L784.58 2034.51 L759.21 2035.38 L733.96 2036.25 L708.59 2036.99 L683.35 2037.61 L657.98 2038.23 L632.73 2038.72 L607.37 2039.09 L582.12 2039.46 L556.75 2039.83 L531.51 2040.08 L506.14 2040.45 L480.89 2040.58 L455.52 2040.83 L455.52 2041.94 Z" stroke-linejoin="round"/>
	</defs>
	<defs>
		<clipPath id="clipPath_NZNxIDRN">
			<use xlink:href="#path_kbqcmiJW"/>
		</clipPath>
	</defs>
	<use xlink:href="#path_kbqcmiJW" style="stroke:none;fill:#E6E6E6"/>
	<use xlink:href="#path_kbqcmiJW" style="fill:none;stroke:#E0E0E0;stroke-width:14.69" clip-path="url(#clipPath_NZNxIDRN)"/>
	<line x1="455.52" y1="2003.58" x2="458.37" y2="2003.58" style="stroke:#A0A0A0;stroke-width:7.34"/>
	<line x1="478.54" y1="2003.58" x2="480.77" y2="2003.58" style="stroke:#A0A0A0;stroke-width:7.34"/>
	<line x1="480.77" y1="2003.58" x2="481.39" y2="2003.58" style="stroke:#A0A0A0;stroke-width:7.34"/>
	<line x1="501.56" y1="2003.58" x2="504.40" y2="2003.58" style="stroke:#A0A0A0;stroke-width:7.34"/>
	<line x1="524.58" y1="2003.58" x2="527.42" y2="2003.58" style="stroke:#A0A0A0;stroke-width:7.34"/>
	<line x1="547.59" y1="2003.58" x2="550.44" y2="2003.58" style="stroke:#A0A0A0;stroke-width:7.34"/>
	<line x1="570.61" y1="2003.58" x2="573.58" y2="2003.58" style="stroke:#A0A0A0;stroke-width:7.34"/>
	<line x1="593.75" y1="2003.58" x2="596.60" y2="2003.58" style="stroke:#A0A0A0;stroke-width:7.34"/>
	<line x1="616.77" y1="2003.58" x2="619.62" y2="2003.58" style="stroke:#A0A0A0;stroke-width:7.34"/>
	<line x1="639.79" y1="2003.58" x2="642.63" y2="2003.58" style="stroke:#A0A0A0;stroke-width:7.34"/>
	<line x1="662.80" y1="2003.58" x2="665.65" y2="2003.58" style="stroke:#A0A0A0;stroke-width:7.34"/>
	<line x1="685.82" y1="2003.58" x2="688.67" y2="2003.58" style="stroke:#A0A0A0;stroke-width:7.34"/>
	<line x1="708.84" y1="2003.58" x2="711.69" y2="2003.58" style="stroke:#A0A0A0;stroke-width:7.34"/>
	<line x1="731.86" y1="2003.58" x2="733.84" y2="2003.58" style="stroke:#A0A0A0;stroke-width:7.34"/>
	<line x1="733.84" y1="2003.58" x2="734.70" y2="2003.58" style="stroke:#A0A0A0;stroke-width:7.34"/>
	<line x1="754.88" y1="2003.58" x2="757.72" y2="2003.58" style="stroke:#A0A0A0;stroke-width:7.34"/>
	<line x1="777.89" y1="2003.58" x2="780.74" y2="2003.58" style="stroke:#A0A0A0;stroke-width:7.34"/>
	<line x1="800.91" y1="2003.58" x2="803.88" y2="2003.58" style="stroke:#A0A0A0;stroke-width:7.34"/>
	<line x1="823.93" y1="2003.58" x2="826.90" y2="2003.58" style="stroke:#A0A0A0;stroke-width:7.34"/>
	<line x1="847.07" y1="2003.58" x2="849.91" y2="2003.58" style="stroke:#A0A0A0;stroke-width:7.34"/>
	<line x1="870.09" y1="2003.58" x2="872.93" y2="2003.58" style="stroke:#A0A0A0;stroke-width:7.34"/>
	<line x1="893.10" y1="2003.58" x2="895.95" y2="2003.58" style="stroke:#A0A0A0;stroke-width:7.34"/>
	<line x1="916.12" y1="2003.58" x2="918.97" y2="2003.58" style="stroke:#A0A0A0;stroke-width:7.34"/>
	<line x1="939.14" y1="2003.58" x2="941.99" y2="2003.58" style="stroke:#A0A0A0;stroke-width:7.34"/>
	<line x1="962.16" y1="2003.58" x2="965.00" y2="2003.58" style="stroke:#A0A0A0;stroke-width:7.34"/>
	<line x1="985.17" y1="2003.58" x2="986.91" y2="2003.58" style="stroke:#A0A0A0;stroke-width:7.34"/>
	<line x1="986.91" y1="2003.58" x2="988.02" y2="2003.58" style="stroke:#A0A0A0;stroke-width:7.34"/>
	<line x1="1008.19" y1="2003.58" x2="1011.04" y2="2003.58" style="stroke:#A0A0A0;stroke-width:7.34"/>
	<line x1="1031.21" y1="2003.58" x2="1034.06" y2="2003.58" style="stroke:#A0A0A0;stroke-width:7.34"/>
	<line x1="1054.23" y1="2003.58" x2="1057.20" y2="2003.58" style="stroke:#A0A0A0;stroke-width:7.34"/>
	<line x1="1077.24" y1="2003.58" x2="1080.21" y2="2003.58" style="stroke:#A0A0A0;stroke-width:7.34"/>
	<line x1="1100.38" y1="2003.58" x2="1103.23" y2="2003.58" style="stroke:#A0A0A0;stroke-width:7.34"/>
	<line x1="1123.40" y1="2003.58" x2="1126.25" y2="2003.58" style="stroke:#A0A0A0;stroke-width:7.34"/>
	<line x1="1146.42" y1="2003.58" x2="1149.27" y2="2003.58" style="stroke:#A0A0A0;stroke-width:7.34"/>
	<line x1="1169.44" y1="2003.58" x2="1172.28" y2="2003.58" style="stroke:#A0A0A0;stroke-width:7.34"/>
	<line x1="1192.45" y1="2003.58" x2="1195.30" y2="2003.58" style="stroke:#A0A0A0;stroke-width:7.34"/>
	<line x1="1215.47" y1="2003.58" x2="1218.32" y2="2003.58" style="stroke:#A0A0A0;stroke-width:7.34"/>
	<line x1="1238.49" y1="2003.58" x2="1240.10" y2="2003.58" style="stroke:#A0A0A0;stroke-width:7.34"/>
	<line x1="1240.10" y1="2003.58" x2="1241.34" y2="2003.58" style="stroke:#A0A0A0;stroke-width:7.34"/>
	<line x1="1261.51" y1="2003.58" x2="1264.35" y2="2003.58" style="stroke:#A0A0A0;stroke-width:7.34"/>
	<line x1="1284.53" y1="2003.58" x2="1287.37" y2="2003.58" style="stroke:#A0A0A0;stroke-width:7.34"/>
	<line x1="1307.54" y1="2003.58" x2="1310.51" y2="2003.58" style="stroke:#A0A0A0;stroke-width:7.34"/>
	<line x1="1330.56" y1="2003.58" x2="1333.53" y2="2003.58" style="stroke:#A0A0A0;stroke-width:7.34"/>
	<line x1="1353.70" y1="2003.58" x2="1356.55" y2="2003.58" style="stroke:#A0A0A0;stroke-width:7.34"/>
	<line x1="1376.72" y1="2003.58" x2="1379.57" y2="2003.58" style="stroke:#A0A0A0;stroke-width:7.34"/>
	<line x1="1399.74" y1="2003.58" x2="1402.58" y2="2003.58" style="stroke:#A0A0A0;stroke-width:7.34"/>
	<line x1="1422.75" y1="2003.58" x2="1425.60" y2="2003.58" style="stroke:#A0A0A0;stroke-width:7.34"/>
	<line x1="1445.77" y1="2003.58" x2="1448.62" y2="2003.58" style="stroke:#A0A0A0;stroke-width:7.34"/>
	<line x1="1468.79" y1="2003.58" x2="1471.63" y2="2003.58" style="stroke:#A0A0A0;stroke-width:7.34"/>
	<line x1="1491.81" y1="2003.58" x2="1493.17" y2="2003.58" style="stroke:#A0A0A0;stroke-width:7.34"/>
	<line x1="1493.17" y1="2003.58" x2="1494.65" y2="2003.58" style="stroke:#A0A0A0;stroke-width:7.34"/>
	<line x1="1514.82" y1="2003.58" x2="1517.67" y2="2003.58" style="stroke:#A0A0A0;stroke-width:7.34"/>
	<line x1="1537.84" y1="2003.58" x2="1540.69" y2="2003.58" style="stroke:#A0A0A0;stroke-width:7.34"/>
	<line x1="1560.86" y1="2003.58" x2="1563.83" y2="2003.58" style="stroke:#A0A0A0;stroke-width:7.34"/>
	<line x1="1584.00" y1="2003.58" x2="1586.85" y2="2003.58" style="stroke:#A0A0A0;stroke-width:7.34"/>
	<line x1="1607.02" y1="2003.58" x2="1609.86" y2="2003.58" style="stroke:#A0A0A0;stroke-width:7.34"/>
	<line x1="1630.04" y1="2003.58" x2="1632.88" y2="2003.58" style="stroke:#A0A0A0;stroke-width:7.34"/>
	<line x1="1653.05" y1="2003.58" x2="1655.90" y2="2003.58" style="stroke:#A0A0A0;stroke-width:7.34"/>
	<line x1="1676.07" y1="2003.58" x2="1678.92" y2="2003.58" style="stroke:#A0A0A0;stroke-width:7.34"/>
	<line x1="1699.09" y1="2003.58" x2="1701.93" y2="2003.58" style="stroke:#A0A0A0;stroke-width:7.34"/>
	<line x1="1722.11" y1="2003.58" x2="1724.95" y2="2003.58" style="stroke:#A0A0A0;stroke-width:7.34"/>
	<line x1="1745.12" y1="2003.58" x2="1746.24" y2="2003.58" style="stroke:#A0A0A0;stroke-width:7.34"/>
	<line x1="1746.24" y1="2003.58" x2="1747.97" y2="2003.58" style="stroke:#A0A0A0;stroke-width:7.34"/>
	<line x1="1768.14" y1="2003.58" x2="1770.99" y2="2003.58" style="stroke:#A0A0A0;stroke-width:7.34"/>
	<line x1="1791.16" y1="2003.58" x2="1794.00" y2="2003.58" style="stroke:#A0A0A0;stroke-width:7.34"/>
	<line x1="1814.17" y1="2003.58" x2="1817.14" y2="2003.58" style="stroke:#A0A0A0;stroke-width:7.34"/>
	<line x1="1837.32" y1="2003.58" x2="1840.16" y2="2003.58" style="stroke:#A0A0A0;stroke-width:7.34"/>
	<line x1="1860.33" y1="2003.58" x2="1863.18" y2="2003.58" style="stroke:#A0A0A0;stroke-width:7.34"/>
	<line x1="1883.35" y1="2003.58" x2="1886.20" y2="2003.58" style="stroke:#A0A0A0;stroke-width:7.34"/>
	<line x1="1906.37" y1="2003.58" x2="1909.21" y2="2003.58" style="stroke:#A0A0A0;stroke-width:7.34"/>
	<line x1="1929.39" y1="2003.58" x2="1932.23" y2="2003.58" style="stroke:#A0A0A0;stroke-width:7.34"/>
	<line x1="1952.40" y1="2003.58" x2="1955.25" y2="2003.58" style="stroke:#A0A0A0;stroke-width:7.34"/>
	<line x1="1975.42" y1="2003.58" x2="1978.27" y2="2003.58" style="stroke:#A0A0A0;stroke-width:7.34"/>
	<line x1="1998.44" y1="2003.58" x2="1999.31" y2="2003.58" style="stroke:#A0A0A0;stroke-width:7.34"/>
	<line x1="1999.31" y1="2003.58" x2="2001.29" y2="2003.58" style="stroke:#A0A0A0;stroke-width:7.34"/>
	<line x1="2021.46" y1="2003.58" x2="2024.30" y2="2003.58" style="stroke:#A0A0A0;stroke-width:7.34"/>
	<path d="" stroke-linejoin="round" style="fill:none;stroke:#A0A0A0;stroke-width:7.34"/>
	<path d=" M455.52 2041.94 L480.77 2041.94 L506.14 2041.82 L531.38 2041.69 L556.75 2041.57 L582.00 2041.44 L607.37 2041.32 L632.61 2041.20 L657.98 2040.95 L683.22 2040.70 L708.59 2040.33 L733.84 2039.96 L759.21 2039.59 L784.45 2039.09 L809.82 2038.60 L835.07 2037.98 L860.43 2037.24 L885.68 2036.37 L911.05 2035.50 L936.29 2034.51 L961.66 2033.40 L986.91 2032.16 L1012.27 2030.92 L1037.52 2029.44 L1062.89 2027.95 L1088.13 2026.35 L1113.50 2024.61 L1138.87 2022.76 L1164.12 2020.78 L1189.48 2018.80 L1214.73 2016.57 L1240.10 2014.22 L1265.34 2011.62 L1290.71 2009.02 L1315.96 2006.05 L1341.33 2002.96 L1366.57 1999.49 L1391.94 1995.78 L1417.18 1991.69 L1442.55 1987.24 L1467.80 1982.17 L1493.17 1976.60 L1518.41 1970.29 L1543.78 1963.36 L1569.03 1955.56 L1594.39 1947.02 L1619.64 1937.37 L1645.01 1926.60 L1670.25 1914.47 L1695.62 1901.11 L1720.87 1886.13 L1746.24 1869.30 L1771.48 1850.62 L1796.85 1829.70 L1822.10 1806.19 L1847.46 1780.08 L1872.71 1750.75 L1898.08 1718.07 L1923.45 1681.57 L1948.69 1640.73 L1974.06 1595.06 L1999.31 1544.20 L2024.67 1487.40" stroke-linejoin="round" style="fill:none;stroke:#008000;stroke-width:7.34"/>
	<path d=" M455.52 2041.69 L480.77 2041.57 L506.14 2041.44 L531.38 2041.32 L556.75 2041.07 L582.00 2040.83 L607.37 2040.58 L632.61 2040.21 L657.98 2039.83 L683.22 2039.34 L708.59 2038.84 L733.84 2038.23 L759.21 2037.48 L784.45 2036.74 L809.82 2035.75 L835.07 2034.64 L860.43 2033.40 L885.68 2032.04 L911.05 2030.43 L936.29 2028.70 L961.66 2026.72 L986.91 2024.61 L1012.27 2022.26 L1037.52 2019.79 L1062.89 2017.19 L1088.13 2014.34 L1113.50 2011.37 L1138.87 2008.15 L1164.12 2004.69 L1189.48 2001.10 L1214.73 1997.26 L1240.10 1993.18 L1265.34 1988.72 L1290.71 1984.02 L1315.96 1978.95 L1341.33 1973.50 L1366.57 1967.56 L1391.94 1961.00 L1417.18 1953.83 L1442.55 1945.91 L1467.80 1937.12 L1493.17 1927.34 L1518.41 1916.45 L1543.78 1904.32 L1569.03 1890.71 L1594.39 1875.61 L1619.64 1858.78 L1645.01 1839.97 L1670.25 1818.93 L1695.62 1795.54 L1720.87 1769.31 L1746.24 1739.98 L1771.48 1707.31 L1796.85 1670.68 L1822.10 1629.84 L1847.46 1584.05 L1872.71 1532.94 L1898.08 1475.89 L1923.45 1412.03 L1948.69 1340.75 L1974.06 1261.05 L1999.31 1172.20 L2024.67 1073.07" stroke-linejoin="round" style="fill:none;stroke:#FF7F00;stroke-width:7.34"/>
	<path d=" M455.52 2042.19 L480.77 2042.19 L506.14 2042.06 L531.38 2042.06 L556.75 2041.94 L582.00 2041.94 L607.37 2041.82 L632.61 2041.82 L657.98 2041.69 L683.22 2041.57 L708.59 2041.44 L733.84 2041.20 L759.21 2041.07 L784.45 2040.83 L809.82 2040.58 L835.07 2040.21 L860.43 2039.96 L885.68 2039.59 L911.05 2039.09 L936.29 2038.60 L961.66 2038.10 L986.91 2037.61 L1012.27 2036.99 L1037.52 2036.25 L1062.89 2035.50 L1088.13 2034.76 L1113.50 2034.02 L1138.87 2033.15 L1164.12 2032.16 L1189.48 2031.17 L1214.73 2030.18 L1240.10 2029.07 L1265.34 2027.83 L1290.71 2026.59 L1315.96 2025.23 L1341.33 2023.75 L1366.57 2022.14 L1391.94 2020.41 L1417.18 2018.43 L1442.55 2016.32 L1467.80 2013.97 L1493.17 2011.37 L1518.41 2008.40 L1543.78 2005.06 L1569.03 2001.47 L1594.39 1997.39 L1619.64 1992.81 L1645.01 1987.73 L1670.25 1982.17 L1695.62 1975.73 L1720.87 1968.68 L1746.24 1960.76 L1771.48 1951.97 L1796.85 1942.07 L1822.10 1931.06 L1847.46 1918.68 L1872.71 1904.94 L1898.08 1889.47 L1923.45 1872.27 L1948.69 1852.97 L1974.06 1831.56 L1999.31 1807.55 L2024.67 1780.69" stroke-linejoin="round" style="fill:none;stroke:#1A476F;stroke-width:7.34"/>
	<defs>
		<path id="path_xhHgAAKi" d="M2201.51 2042.19 L2201.51 2042.19 L2226.88 2042.19 L2252.13 2042.06 L2277.49 2042.06 L2302.74 2042.06 L2328.11 2041.94 L2353.35 2041.94 L2378.72 2041.82 L2403.97 2041.69 L2429.34 2041.57 L2454.58 2041.32 L2479.95 2041.20 L2505.20 2040.95 L2530.56 2040.70 L2555.81 2040.33 L2581.18 2039.96 L2606.42 2039.46 L2631.79 2038.97 L2657.04 2038.47 L2682.41 2037.85 L2707.65 2037.11 L2733.02 2036.37 L2758.26 2035.50 L2783.63 2034.64 L2808.88 2033.77 L2834.25 2032.78 L2859.49 2031.79 L2884.86 2030.68 L2910.11 2029.44 L2935.47 2028.20 L2960.72 2026.84 L2986.09 2025.36 L3011.46 2023.75 L3036.70 2022.14 L3062.07 2020.28 L3087.32 2018.30 L3112.68 2016.07 L3137.93 2013.85 L3163.30 2011.25 L3188.54 2008.40 L3213.91 2005.31 L3239.16 2001.84 L3264.53 1998.01 L3289.77 1993.67 L3315.14 1988.97 L3340.38 1983.65 L3365.75 1977.71 L3391.00 1971.03 L3416.37 1963.73 L3441.61 1955.43 L3466.98 1946.28 L3492.22 1936.01 L3517.59 1924.50 L3542.84 1911.63 L3568.21 1897.27 L3593.45 1881.18 L3618.82 1863.24 L3644.07 1843.19 L3669.43 1820.67 L3694.68 1795.67 L3720.05 1767.70 L3745.42 1736.39 L3770.66 1701.62 L3770.66 1609.67 L3745.42 1654.09 L3720.05 1693.82 L3694.68 1729.34 L3669.43 1761.14 L3644.07 1789.73 L3618.82 1815.22 L3593.45 1837.99 L3568.21 1858.41 L3542.84 1876.60 L3517.59 1892.94 L3492.22 1907.54 L3466.98 1920.66 L3441.61 1932.42 L3416.37 1942.81 L3391.00 1952.22 L3365.75 1960.63 L3340.38 1968.06 L3315.14 1974.86 L3289.77 1980.93 L3264.53 1986.25 L3239.16 1991.08 L3213.91 1995.41 L3188.54 1999.37 L3163.30 2002.83 L3137.93 2005.93 L3112.68 2008.77 L3087.32 2011.37 L3062.07 2013.72 L3036.70 2015.95 L3011.46 2017.93 L2986.09 2019.91 L2960.72 2021.64 L2935.47 2023.38 L2910.11 2024.98 L2884.86 2026.47 L2859.49 2027.95 L2834.25 2029.32 L2808.88 2030.68 L2783.63 2031.79 L2758.26 2032.90 L2733.02 2034.02 L2707.65 2034.88 L2682.41 2035.75 L2657.04 2036.49 L2631.79 2037.24 L2606.42 2037.85 L2581.18 2038.35 L2555.81 2038.84 L2530.56 2039.22 L2505.20 2039.59 L2479.95 2039.96 L2454.58 2040.21 L2429.34 2040.45 L2403.97 2040.70 L2378.72 2040.83 L2353.35 2041.07 L2328.11 2041.20 L2302.74 2041.32 L2277.49 2041.44 L2252.13 2041.57 L2226.88 2041.57 L2201.51 2041.69 L2201.51 2042.19 Z" stroke-linejoin="round"/>
	</defs>
	<defs>
		<clipPath id="clipPath_NolRdQXE">
			<use xlink:href="#path_xhHgAAKi"/>
		</clipPath>
	</defs>
	<use xlink:href="#path_xhHgAAKi" style="stroke:none;fill:#E6E6E6"/>
	<use xlink:href="#path_xhHgAAKi" style="fill:none;stroke:#E0E0E0;stroke-width:14.69" clip-path="url(#clipPath_NolRdQXE)"/>
	<defs>
		<path id="path_LvnBwaJc" d="M2201.51 2042.06 L2201.51 2042.06 L2226.88 2041.94 L2252.13 2041.94 L2277.49 2041.82 L2302.74 2041.69 L2328.11 2041.57 L2353.35 2041.44 L2378.72 2041.20 L2403.97 2041.07 L2429.34 2040.70 L2454.58 2040.33 L2479.95 2039.96 L2505.20 2039.46 L2530.56 2038.84 L2555.81 2038.10 L2581.18 2037.36 L2606.42 2036.37 L2631.79 2035.38 L2657.04 2034.14 L2682.41 2032.78 L2707.65 2031.42 L2733.02 2029.81 L2758.26 2028.08 L2783.63 2026.35 L2808.88 2024.37 L2834.25 2022.26 L2859.49 2020.16 L2884.86 2017.81 L2910.11 2015.21 L2935.47 2012.49 L2960.72 2009.64 L2986.09 2006.55 L3011.46 2003.20 L3036.70 1999.61 L3062.07 1995.65 L3087.32 1991.45 L3112.68 1986.87 L3137.93 1981.92 L3163.30 1976.47 L3188.54 1970.41 L3213.91 1963.73 L3239.16 1956.42 L3264.53 1948.13 L3289.77 1938.98 L3315.14 1928.83 L3340.38 1917.44 L3365.75 1904.82 L3391.00 1890.71 L3416.37 1874.99 L3441.61 1857.42 L3466.98 1837.74 L3492.22 1815.72 L3517.59 1791.21 L3542.84 1763.62 L3568.21 1732.93 L3593.45 1698.65 L3618.82 1660.16 L3644.07 1617.22 L3669.43 1569.32 L3694.68 1515.74 L3720.05 1455.84 L3745.42 1389.14 L3770.66 1314.64 L3770.66 1131.48 L3745.42 1224.67 L3720.05 1308.20 L3694.68 1382.95 L3669.43 1449.90 L3644.07 1509.80 L3618.82 1563.38 L3593.45 1611.40 L3568.21 1654.22 L3542.84 1692.71 L3517.59 1726.99 L3492.22 1757.80 L3466.98 1785.27 L3441.61 1810.02 L3416.37 1832.05 L3391.00 1851.73 L3365.75 1869.43 L3340.38 1885.27 L3315.14 1899.50 L3289.77 1912.24 L3264.53 1923.63 L3239.16 1933.78 L3213.91 1942.94 L3188.54 1951.10 L3163.30 1958.40 L3137.93 1964.96 L3112.68 1971.03 L3087.32 1976.47 L3062.07 1981.42 L3036.70 1986.13 L3011.46 1990.46 L2986.09 1994.54 L2960.72 1998.38 L2935.47 2001.97 L2910.11 2005.43 L2884.86 2008.65 L2859.49 2011.74 L2834.25 2014.59 L2808.88 2017.44 L2783.63 2019.91 L2758.26 2022.26 L2733.02 2024.49 L2707.65 2026.59 L2682.41 2028.33 L2657.04 2029.93 L2631.79 2031.42 L2606.42 2032.66 L2581.18 2033.89 L2555.81 2034.88 L2530.56 2035.75 L2505.20 2036.49 L2479.95 2037.24 L2454.58 2037.85 L2429.34 2038.35 L2403.97 2038.84 L2378.72 2039.22 L2353.35 2039.59 L2328.11 2039.96 L2302.74 2040.21 L2277.49 2040.45 L2252.13 2040.70 L2226.88 2040.95 L2201.51 2041.07 L2201.51 2042.06 Z" stroke-linejoin="round"/>
	</defs>
	<defs>
		<clipPath id="clipPath_bDiOHFMj">
			<use xlink:href="#path_LvnBwaJc"/>
		</clipPath>
	</defs>
	<use xlink:href="#path_LvnBwaJc" style="stroke:none;fill:#E6E6E6"/>
	<use xlink:href="#path_LvnBwaJc" style="fill:none;stroke:#E0E0E0;stroke-width:14.69" clip-path="url(#clipPath_bDiOHFMj)"/>
	<defs>
		<path id="path_dFWoqAPz" d="M2201.51 2041.82 L2201.51 2041.82 L2226.88 2041.82 L2252.13 2041.69 L2277.49 2041.44 L2302.74 2041.32 L2328.11 2041.07 L2353.35 2040.83 L2378.72 2040.45 L2403.97 2040.08 L2429.34 2039.59 L2454.58 2038.97 L2479.95 2038.23 L2505.20 2037.36 L2530.56 2036.25 L2555.81 2035.01 L2581.18 2033.65 L2606.42 2032.04 L2631.79 2030.18 L2657.04 2028.08 L2682.41 2025.73 L2707.65 2023.25 L2733.02 2020.53 L2758.26 2017.56 L2783.63 2014.34 L2808.88 2011.00 L2834.25 2007.41 L2859.49 2003.58 L2884.86 1999.49 L2910.11 1995.04 L2935.47 1990.33 L2960.72 1985.26 L2986.09 1979.81 L3011.46 1974.00 L3036.70 1967.69 L3062.07 1961.00 L3087.32 1953.58 L3112.68 1945.66 L3137.93 1936.87 L3163.30 1927.34 L3188.54 1916.82 L3213.91 1905.19 L3239.16 1892.20 L3264.53 1877.84 L3289.77 1861.88 L3315.14 1844.06 L3340.38 1824.26 L3365.75 1802.10 L3391.00 1777.35 L3416.37 1749.88 L3441.61 1719.06 L3466.98 1684.66 L3492.22 1646.17 L3517.59 1603.11 L3542.84 1554.97 L3568.21 1501.13 L3593.45 1440.99 L3618.82 1373.79 L3644.07 1298.55 L3669.43 1214.52 L3694.68 1120.72 L3720.05 1015.90 L3745.42 898.82 L3770.66 768.39 L3770.66 456.65 L3745.42 618.40 L3720.05 763.44 L3694.68 893.38 L3669.43 1009.71 L3644.07 1113.91 L3618.82 1207.10 L3593.45 1290.63 L3568.21 1365.25 L3542.84 1432.20 L3517.59 1491.98 L3492.22 1545.69 L3466.98 1593.58 L3441.61 1636.52 L3416.37 1675.01 L3391.00 1709.41 L3365.75 1740.35 L3340.38 1767.95 L3315.14 1792.70 L3289.77 1814.85 L3264.53 1834.77 L3239.16 1852.60 L3213.91 1868.56 L3188.54 1882.79 L3163.30 1895.66 L3137.93 1907.17 L3112.68 1917.57 L3087.32 1927.10 L3062.07 1935.88 L3036.70 1944.05 L3011.46 1951.60 L2986.09 1958.78 L2960.72 1965.46 L2935.47 1971.77 L2910.11 1977.83 L2884.86 1983.53 L2859.49 1988.85 L2834.25 1993.92 L2808.88 1998.75 L2783.63 2003.20 L2758.26 2007.41 L2733.02 2011.25 L2707.65 2014.71 L2682.41 2017.93 L2657.04 2020.78 L2631.79 2023.25 L2606.42 2025.60 L2581.18 2027.58 L2555.81 2029.32 L2530.56 2030.80 L2505.20 2032.16 L2479.95 2033.40 L2454.58 2034.51 L2429.34 2035.38 L2403.97 2036.25 L2378.72 2036.99 L2353.35 2037.61 L2328.11 2038.23 L2302.74 2038.72 L2277.49 2039.09 L2252.13 2039.46 L2226.88 2039.83 L2201.51 2040.21 L2201.51 2041.82 Z" stroke-linejoin="round"/>
	</defs>
	<defs>
		<clipPath id="clipPath_dGgSFDzq">
			<use xlink:href="#path_dFWoqAPz"/>
		</clipPath>
	</defs>
	<use xlink:href="#path_dFWoqAPz" style="stroke:none;fill:#E6E6E6"/>
	<use xlink:href="#path_dFWoqAPz" style="fill:none;stroke:#E0E0E0;stroke-width:14.69" clip-path="url(#clipPath_dGgSFDzq)"/>
	<line x1="2201.39" y1="1985.38" x2="2204.24" y2="1985.38" style="stroke:#A0A0A0;stroke-width:7.34"/>
	<line x1="2224.41" y1="1985.38" x2="2226.76" y2="1985.38" style="stroke:#A0A0A0;stroke-width:7.34"/>
	<line x1="2226.76" y1="1985.38" x2="2227.25" y2="1985.38" style="stroke:#A0A0A0;stroke-width:7.34"/>
	<line x1="2247.42" y1="1985.38" x2="2250.27" y2="1985.38" style="stroke:#A0A0A0;stroke-width:7.34"/>
	<line x1="2270.44" y1="1985.38" x2="2273.29" y2="1985.38" style="stroke:#A0A0A0;stroke-width:7.34"/>
	<line x1="2293.46" y1="1985.38" x2="2296.43" y2="1985.38" style="stroke:#A0A0A0;stroke-width:7.34"/>
	<line x1="2316.60" y1="1985.38" x2="2319.45" y2="1985.38" style="stroke:#A0A0A0;stroke-width:7.34"/>
	<line x1="2339.62" y1="1985.38" x2="2342.46" y2="1985.38" style="stroke:#A0A0A0;stroke-width:7.34"/>
	<line x1="2362.64" y1="1985.38" x2="2365.48" y2="1985.38" style="stroke:#A0A0A0;stroke-width:7.34"/>
	<line x1="2385.65" y1="1985.38" x2="2388.50" y2="1985.38" style="stroke:#A0A0A0;stroke-width:7.34"/>
	<line x1="2408.67" y1="1985.38" x2="2411.52" y2="1985.38" style="stroke:#A0A0A0;stroke-width:7.34"/>
	<line x1="2431.69" y1="1985.38" x2="2434.53" y2="1985.38" style="stroke:#A0A0A0;stroke-width:7.34"/>
	<line x1="2454.70" y1="1985.38" x2="2457.55" y2="1985.38" style="stroke:#A0A0A0;stroke-width:7.34"/>
	<line x1="2477.72" y1="1985.38" x2="2479.83" y2="1985.38" style="stroke:#A0A0A0;stroke-width:7.34"/>
	<line x1="2479.83" y1="1985.38" x2="2480.57" y2="1985.38" style="stroke:#A0A0A0;stroke-width:7.34"/>
	<line x1="2500.74" y1="1985.38" x2="2503.59" y2="1985.38" style="stroke:#A0A0A0;stroke-width:7.34"/>
	<line x1="2523.76" y1="1985.38" x2="2526.60" y2="1985.38" style="stroke:#A0A0A0;stroke-width:7.34"/>
	<line x1="2546.78" y1="1985.38" x2="2549.74" y2="1985.38" style="stroke:#A0A0A0;stroke-width:7.34"/>
	<line x1="2569.92" y1="1985.38" x2="2572.76" y2="1985.38" style="stroke:#A0A0A0;stroke-width:7.34"/>
	<line x1="2592.93" y1="1985.38" x2="2595.78" y2="1985.38" style="stroke:#A0A0A0;stroke-width:7.34"/>
	<line x1="2615.95" y1="1985.38" x2="2618.80" y2="1985.38" style="stroke:#A0A0A0;stroke-width:7.34"/>
	<line x1="2638.97" y1="1985.38" x2="2641.82" y2="1985.38" style="stroke:#A0A0A0;stroke-width:7.34"/>
	<line x1="2661.99" y1="1985.38" x2="2664.83" y2="1985.38" style="stroke:#A0A0A0;stroke-width:7.34"/>
	<line x1="2685.00" y1="1985.38" x2="2687.85" y2="1985.38" style="stroke:#A0A0A0;stroke-width:7.34"/>
	<line x1="2708.02" y1="1985.38" x2="2710.87" y2="1985.38" style="stroke:#A0A0A0;stroke-width:7.34"/>
	<line x1="2731.04" y1="1985.38" x2="2732.89" y2="1985.38" style="stroke:#A0A0A0;stroke-width:7.34"/>
	<line x1="2732.89" y1="1985.38" x2="2733.89" y2="1985.38" style="stroke:#A0A0A0;stroke-width:7.34"/>
	<line x1="2754.06" y1="1985.38" x2="2756.90" y2="1985.38" style="stroke:#A0A0A0;stroke-width:7.34"/>
	<line x1="2777.07" y1="1985.38" x2="2779.92" y2="1985.38" style="stroke:#A0A0A0;stroke-width:7.34"/>
	<line x1="2800.09" y1="1985.38" x2="2803.06" y2="1985.38" style="stroke:#A0A0A0;stroke-width:7.34"/>
	<line x1="2823.23" y1="1985.38" x2="2826.08" y2="1985.38" style="stroke:#A0A0A0;stroke-width:7.34"/>
	<line x1="2846.25" y1="1985.38" x2="2849.10" y2="1985.38" style="stroke:#A0A0A0;stroke-width:7.34"/>
	<line x1="2869.27" y1="1985.38" x2="2872.11" y2="1985.38" style="stroke:#A0A0A0;stroke-width:7.34"/>
	<line x1="2892.28" y1="1985.38" x2="2895.13" y2="1985.38" style="stroke:#A0A0A0;stroke-width:7.34"/>
	<line x1="2915.30" y1="1985.38" x2="2918.15" y2="1985.38" style="stroke:#A0A0A0;stroke-width:7.34"/>
	<line x1="2938.32" y1="1985.38" x2="2941.17" y2="1985.38" style="stroke:#A0A0A0;stroke-width:7.34"/>
	<line x1="2961.34" y1="1985.38" x2="2964.18" y2="1985.38" style="stroke:#A0A0A0;stroke-width:7.34"/>
	<line x1="2984.36" y1="1985.38" x2="2986.09" y2="1985.38" style="stroke:#A0A0A0;stroke-width:7.34"/>
	<line x1="2986.09" y1="1985.38" x2="2987.20" y2="1985.38" style="stroke:#A0A0A0;stroke-width:7.34"/>
	<line x1="3007.37" y1="1985.38" x2="3010.22" y2="1985.38" style="stroke:#A0A0A0;stroke-width:7.34"/>
	<line x1="3030.39" y1="1985.38" x2="3033.36" y2="1985.38" style="stroke:#A0A0A0;stroke-width:7.34"/>
	<line x1="3053.41" y1="1985.38" x2="3056.38" y2="1985.38" style="stroke:#A0A0A0;stroke-width:7.34"/>
	<line x1="3076.55" y1="1985.38" x2="3079.39" y2="1985.38" style="stroke:#A0A0A0;stroke-width:7.34"/>
	<line x1="3099.57" y1="1985.38" x2="3102.41" y2="1985.38" style="stroke:#A0A0A0;stroke-width:7.34"/>
	<line x1="3122.58" y1="1985.38" x2="3125.43" y2="1985.38" style="stroke:#A0A0A0;stroke-width:7.34"/>
	<line x1="3145.60" y1="1985.38" x2="3148.45" y2="1985.38" style="stroke:#A0A0A0;stroke-width:7.34"/>
	<line x1="3168.62" y1="1985.38" x2="3171.47" y2="1985.38" style="stroke:#A0A0A0;stroke-width:7.34"/>
	<line x1="3191.64" y1="1985.38" x2="3194.48" y2="1985.38" style="stroke:#A0A0A0;stroke-width:7.34"/>
	<line x1="3214.65" y1="1985.38" x2="3217.50" y2="1985.38" style="stroke:#A0A0A0;stroke-width:7.34"/>
	<line x1="3237.67" y1="1985.38" x2="3239.16" y2="1985.38" style="stroke:#A0A0A0;stroke-width:7.34"/>
	<line x1="3239.16" y1="1985.38" x2="3240.52" y2="1985.38" style="stroke:#A0A0A0;stroke-width:7.34"/>
	<line x1="3260.69" y1="1985.38" x2="3263.53" y2="1985.38" style="stroke:#A0A0A0;stroke-width:7.34"/>
	<line x1="3283.71" y1="1985.38" x2="3286.68" y2="1985.38" style="stroke:#A0A0A0;stroke-width:7.34"/>
	<line x1="3306.72" y1="1985.38" x2="3309.69" y2="1985.38" style="stroke:#A0A0A0;stroke-width:7.34"/>
	<line x1="3329.86" y1="1985.38" x2="3332.71" y2="1985.38" style="stroke:#A0A0A0;stroke-width:7.34"/>
	<line x1="3352.88" y1="1985.38" x2="3355.73" y2="1985.38" style="stroke:#A0A0A0;stroke-width:7.34"/>
	<line x1="3375.90" y1="1985.38" x2="3378.75" y2="1985.38" style="stroke:#A0A0A0;stroke-width:7.34"/>
	<line x1="3398.92" y1="1985.38" x2="3401.76" y2="1985.38" style="stroke:#A0A0A0;stroke-width:7.34"/>
	<line x1="3421.93" y1="1985.38" x2="3424.78" y2="1985.38" style="stroke:#A0A0A0;stroke-width:7.34"/>
	<line x1="3444.95" y1="1985.38" x2="3447.80" y2="1985.38" style="stroke:#A0A0A0;stroke-width:7.34"/>
	<line x1="3467.97" y1="1985.38" x2="3470.82" y2="1985.38" style="stroke:#A0A0A0;stroke-width:7.34"/>
	<line x1="3490.99" y1="1985.38" x2="3492.22" y2="1985.38" style="stroke:#A0A0A0;stroke-width:7.34"/>
	<line x1="3492.22" y1="1985.38" x2="3493.83" y2="1985.38" style="stroke:#A0A0A0;stroke-width:7.34"/>
	<line x1="3514.01" y1="1985.38" x2="3516.85" y2="1985.38" style="stroke:#A0A0A0;stroke-width:7.34"/>
	<line x1="3537.02" y1="1985.38" x2="3539.99" y2="1985.38" style="stroke:#A0A0A0;stroke-width:7.34"/>
	<line x1="3560.04" y1="1985.38" x2="3563.01" y2="1985.38" style="stroke:#A0A0A0;stroke-width:7.34"/>
	<line x1="3583.18" y1="1985.38" x2="3586.03" y2="1985.38" style="stroke:#A0A0A0;stroke-width:7.34"/>
	<line x1="3606.20" y1="1985.38" x2="3609.05" y2="1985.38" style="stroke:#A0A0A0;stroke-width:7.34"/>
	<line x1="3629.22" y1="1985.38" x2="3632.06" y2="1985.38" style="stroke:#A0A0A0;stroke-width:7.34"/>
	<line x1="3652.23" y1="1985.38" x2="3655.08" y2="1985.38" style="stroke:#A0A0A0;stroke-width:7.34"/>
	<line x1="3675.25" y1="1985.38" x2="3678.10" y2="1985.38" style="stroke:#A0A0A0;stroke-width:7.34"/>
	<line x1="3698.27" y1="1985.38" x2="3701.11" y2="1985.38" style="stroke:#A0A0A0;stroke-width:7.34"/>
	<line x1="3721.29" y1="1985.38" x2="3724.13" y2="1985.38" style="stroke:#A0A0A0;stroke-width:7.34"/>
	<line x1="3744.30" y1="1985.38" x2="3745.29" y2="1985.38" style="stroke:#A0A0A0;stroke-width:7.34"/>
	<line x1="3745.29" y1="1985.38" x2="3747.15" y2="1985.38" style="stroke:#A0A0A0;stroke-width:7.34"/>
	<line x1="3767.32" y1="1985.38" x2="3770.17" y2="1985.38" style="stroke:#A0A0A0;stroke-width:7.34"/>
	<path d="" stroke-linejoin="round" style="fill:none;stroke:#A0A0A0;stroke-width:7.34"/>
	<path d=" M2201.39 2041.82 L2226.76 2041.69 L2252.13 2041.57 L2277.37 2041.44 L2302.74 2041.32 L2327.99 2041.07 L2353.35 2040.83 L2378.60 2040.58 L2403.97 2040.21 L2429.21 2039.83 L2454.58 2039.46 L2479.83 2038.84 L2505.20 2038.35 L2530.44 2037.61 L2555.81 2036.74 L2581.05 2035.87 L2606.42 2034.88 L2631.67 2033.65 L2657.04 2032.29 L2682.28 2030.92 L2707.65 2029.19 L2732.89 2027.46 L2758.26 2025.48 L2783.51 2023.50 L2808.88 2021.27 L2834.12 2018.80 L2859.49 2016.32 L2884.74 2013.60 L2910.11 2010.75 L2935.35 2007.66 L2960.72 2004.44 L2986.09 2000.98 L3011.33 1997.39 L3036.70 1993.43 L3061.95 1989.10 L3087.32 1984.52 L3112.56 1979.57 L3137.93 1974.00 L3163.17 1968.06 L3188.54 1961.38 L3213.79 1954.07 L3239.16 1945.78 L3264.40 1936.62 L3289.77 1926.48 L3315.01 1915.09 L3340.38 1902.34 L3365.63 1888.24 L3391.00 1872.40 L3416.24 1854.82 L3441.61 1835.15 L3466.86 1813.12 L3492.22 1788.49 L3517.47 1761.02 L3542.84 1730.20 L3568.08 1695.92 L3593.45 1657.44 L3618.70 1614.62 L3644.07 1566.60 L3669.31 1513.01 L3694.68 1453.12 L3719.93 1386.17 L3745.29 1311.54 L3770.66 1228.26" stroke-linejoin="round" style="fill:none;stroke:#008000;stroke-width:7.34"/>
	<path d=" M2201.39 2041.44 L2226.76 2041.20 L2252.13 2041.07 L2277.37 2040.83 L2302.74 2040.45 L2327.99 2040.21 L2353.35 2039.71 L2378.60 2039.22 L2403.97 2038.72 L2429.21 2037.98 L2454.58 2037.24 L2479.83 2036.37 L2505.20 2035.26 L2530.44 2034.02 L2555.81 2032.66 L2581.05 2031.05 L2606.42 2029.19 L2631.67 2027.21 L2657.04 2024.86 L2682.28 2022.26 L2707.65 2019.42 L2732.89 2016.32 L2758.26 2012.98 L2783.51 2009.27 L2808.88 2005.43 L2834.12 2001.22 L2859.49 1996.89 L2884.74 1992.19 L2910.11 1987.12 L2935.35 1981.79 L2960.72 1976.23 L2986.09 1970.16 L3011.33 1963.73 L3036.70 1956.80 L3061.95 1949.37 L3087.32 1941.33 L3112.56 1932.54 L3137.93 1923.01 L3163.17 1912.49 L3188.54 1900.86 L3213.79 1887.99 L3239.16 1873.63 L3264.40 1857.67 L3289.77 1839.85 L3315.01 1819.92 L3340.38 1797.77 L3365.63 1773.02 L3391.00 1745.42 L3416.24 1714.61 L3441.61 1680.21 L3466.86 1641.72 L3492.22 1598.78 L3517.47 1550.76 L3542.84 1497.05 L3568.08 1437.15 L3593.45 1370.08 L3618.70 1295.08 L3644.07 1211.43 L3669.31 1117.87 L3694.68 1013.30 L3719.93 896.60 L3745.29 766.41 L3770.66 621.12" stroke-linejoin="round" style="fill:none;stroke:#FF7F00;stroke-width:7.34"/>
	<path d=" M2201.39 2042.06 L2226.76 2042.06 L2252.13 2041.94 L2277.37 2041.94 L2302.74 2041.82 L2327.99 2041.69 L2353.35 2041.69 L2378.60 2041.57 L2403.97 2041.32 L2429.21 2041.20 L2454.58 2040.95 L2479.83 2040.70 L2505.20 2040.45 L2530.44 2040.08 L2555.81 2039.71 L2581.05 2039.34 L2606.42 2038.84 L2631.67 2038.23 L2657.04 2037.61 L2682.28 2036.99 L2707.65 2036.12 L2732.89 2035.38 L2758.26 2034.39 L2783.51 2033.40 L2808.88 2032.41 L2834.12 2031.30 L2859.49 2030.06 L2884.74 2028.82 L2910.11 2027.46 L2935.35 2025.97 L2960.72 2024.49 L2986.09 2022.88 L3011.33 2021.15 L3036.70 2019.29 L3061.95 2017.31 L3087.32 2015.08 L3112.56 2012.73 L3137.93 2010.13 L3163.17 2007.29 L3188.54 2004.19 L3213.79 2000.73 L3239.16 1996.89 L3264.40 1992.56 L3289.77 1987.73 L3315.01 1982.41 L3340.38 1976.35 L3365.63 1969.67 L3391.00 1962.24 L3416.24 1953.95 L3441.61 1944.67 L3466.86 1934.27 L3492.22 1922.64 L3517.47 1909.77 L3542.84 1895.29 L3568.08 1879.08 L3593.45 1860.89 L3618.70 1840.72 L3644.07 1818.07 L3669.31 1792.82 L3694.68 1764.48 L3719.93 1732.93 L3745.29 1697.78 L3770.66 1658.43" stroke-linejoin="round" style="fill:none;stroke:#1A476F;stroke-width:7.34"/>
	<line x1="401.69" y1="2096.14" x2="401.69" y2="402.82" style="stroke:#000000;stroke-width:4.90"/>
	<line x1="401.69" y1="2042.31" x2="367.66" y2="2042.31" style="stroke:#000000;stroke-width:4.90"/>
	<text x="350.71" y="2072.10" style="font-family:'Helvetica';font-size:85.02px;fill:#000000" text-anchor="end">0</text>
	<line x1="401.69" y1="1784.04" x2="367.66" y2="1784.04" style="stroke:#000000;stroke-width:4.90"/>
	<text x="350.71" y="1813.82" style="font-family:'Helvetica';font-size:85.02px;fill:#000000" text-anchor="end">.001</text>
	<line x1="401.69" y1="1525.76" x2="367.66" y2="1525.76" style="stroke:#000000;stroke-width:4.90"/>
	<text x="350.71" y="1555.55" style="font-family:'Helvetica';font-size:85.02px;fill:#000000" text-anchor="end">.002</text>
	<line x1="401.69" y1="1267.49" x2="367.66" y2="1267.49" style="stroke:#000000;stroke-width:4.90"/>
	<text x="350.71" y="1297.27" style="font-family:'Helvetica';font-size:85.02px;fill:#000000" text-anchor="end">.003</text>
	<line x1="401.69" y1="1009.21" x2="367.66" y2="1009.21" style="stroke:#000000;stroke-width:4.90"/>
	<text x="350.71" y="1039.00" style="font-family:'Helvetica';font-size:85.02px;fill:#000000" text-anchor="end">.004</text>
	<line x1="401.69" y1="750.81" x2="367.66" y2="750.81" style="stroke:#000000;stroke-width:4.90"/>
	<text x="350.71" y="780.60" style="font-family:'Helvetica';font-size:85.02px;fill:#000000" text-anchor="end">.005</text>
	<line x1="401.69" y1="2096.14" x2="2078.51" y2="2096.14" style="stroke:#000000;stroke-width:4.90"/>
	<line x1="506.14" y1="2096.14" x2="506.14" y2="2113.10" style="stroke:#000000;stroke-width:4.90"/>
	<line x1="632.73" y1="2096.14" x2="632.73" y2="2113.10" style="stroke:#000000;stroke-width:4.90"/>
	<line x1="759.21" y1="2096.14" x2="759.21" y2="2113.10" style="stroke:#000000;stroke-width:4.90"/>
	<line x1="885.80" y1="2096.14" x2="885.80" y2="2113.10" style="stroke:#000000;stroke-width:4.90"/>
	<line x1="1012.27" y1="2096.14" x2="1012.27" y2="2113.10" style="stroke:#000000;stroke-width:4.90"/>
	<line x1="1138.87" y1="2096.14" x2="1138.87" y2="2113.10" style="stroke:#000000;stroke-width:4.90"/>
	<line x1="1265.47" y1="2096.14" x2="1265.47" y2="2113.10" style="stroke:#000000;stroke-width:4.90"/>
	<line x1="1391.94" y1="2096.14" x2="1391.94" y2="2113.10" style="stroke:#000000;stroke-width:4.90"/>
	<line x1="1518.54" y1="2096.14" x2="1518.54" y2="2113.10" style="stroke:#000000;stroke-width:4.90"/>
	<line x1="1645.01" y1="2096.14" x2="1645.01" y2="2113.10" style="stroke:#000000;stroke-width:4.90"/>
	<line x1="1771.61" y1="2096.14" x2="1771.61" y2="2113.10" style="stroke:#000000;stroke-width:4.90"/>
	<line x1="1898.20" y1="2096.14" x2="1898.20" y2="2113.10" style="stroke:#000000;stroke-width:4.90"/>
	<line x1="2024.67" y1="2096.14" x2="2024.67" y2="2113.10" style="stroke:#000000;stroke-width:4.90"/>
	<line x1="506.14" y1="2096.14" x2="506.14" y2="2130.18" style="stroke:#000000;stroke-width:4.90"/>
	<text x="506.14" y="2206.58" style="font-family:'Helvetica';font-size:85.02px;fill:#000000" text-anchor="middle">20</text>
	<line x1="1012.27" y1="2096.14" x2="1012.27" y2="2130.18" style="stroke:#000000;stroke-width:4.90"/>
	<text x="1012.27" y="2206.58" style="font-family:'Helvetica';font-size:85.02px;fill:#000000" text-anchor="middle">40</text>
	<line x1="1518.54" y1="2096.14" x2="1518.54" y2="2130.18" style="stroke:#000000;stroke-width:4.90"/>
	<text x="1518.54" y="2206.58" style="font-family:'Helvetica';font-size:85.02px;fill:#000000" text-anchor="middle">60</text>
	<line x1="2024.67" y1="2096.14" x2="2024.67" y2="2130.18" style="stroke:#000000;stroke-width:4.90"/>
	<text x="2024.67" y="2206.58" style="font-family:'Helvetica';font-size:85.02px;fill:#000000" text-anchor="middle">80</text>
	<line x1="2147.68" y1="2096.14" x2="3824.49" y2="2096.14" style="stroke:#000000;stroke-width:4.90"/>
	<line x1="2252.13" y1="2096.14" x2="2252.13" y2="2113.10" style="stroke:#000000;stroke-width:4.90"/>
	<line x1="2378.72" y1="2096.14" x2="2378.72" y2="2113.10" style="stroke:#000000;stroke-width:4.90"/>
	<line x1="2505.20" y1="2096.14" x2="2505.20" y2="2113.10" style="stroke:#000000;stroke-width:4.90"/>
	<line x1="2631.79" y1="2096.14" x2="2631.79" y2="2113.10" style="stroke:#000000;stroke-width:4.90"/>
	<line x1="2758.26" y1="2096.14" x2="2758.26" y2="2113.10" style="stroke:#000000;stroke-width:4.90"/>
	<line x1="2884.86" y1="2096.14" x2="2884.86" y2="2113.10" style="stroke:#000000;stroke-width:4.90"/>
	<line x1="3011.46" y1="2096.14" x2="3011.46" y2="2113.10" style="stroke:#000000;stroke-width:4.90"/>
	<line x1="3137.93" y1="2096.14" x2="3137.93" y2="2113.10" style="stroke:#000000;stroke-width:4.90"/>
	<line x1="3264.53" y1="2096.14" x2="3264.53" y2="2113.10" style="stroke:#000000;stroke-width:4.90"/>
	<line x1="3391.00" y1="2096.14" x2="3391.00" y2="2113.10" style="stroke:#000000;stroke-width:4.90"/>
	<line x1="3517.59" y1="2096.14" x2="3517.59" y2="2113.10" style="stroke:#000000;stroke-width:4.90"/>
	<line x1="3644.07" y1="2096.14" x2="3644.07" y2="2113.10" style="stroke:#000000;stroke-width:4.90"/>
	<line x1="3770.66" y1="2096.14" x2="3770.66" y2="2113.10" style="stroke:#000000;stroke-width:4.90"/>
	<line x1="2252.13" y1="2096.14" x2="2252.13" y2="2130.18" style="stroke:#000000;stroke-width:4.90"/>
	<text x="2252.13" y="2206.58" style="font-family:'Helvetica';font-size:85.02px;fill:#000000" text-anchor="middle">20</text>
	<line x1="2758.26" y1="2096.14" x2="2758.26" y2="2130.18" style="stroke:#000000;stroke-width:4.90"/>
	<text x="2758.26" y="2206.58" style="font-family:'Helvetica';font-size:85.02px;fill:#000000" text-anchor="middle">40</text>
	<line x1="3264.53" y1="2096.14" x2="3264.53" y2="2130.18" style="stroke:#000000;stroke-width:4.90"/>
	<text x="3264.53" y="2206.58" style="font-family:'Helvetica';font-size:85.02px;fill:#000000" text-anchor="middle">60</text>
	<line x1="3770.66" y1="2096.14" x2="3770.66" y2="2130.18" style="stroke:#000000;stroke-width:4.90"/>
	<text x="3770.66" y="2206.58" style="font-family:'Helvetica';font-size:85.02px;fill:#000000" text-anchor="middle">80</text>
	<rect x="401.69" y="279.93" width="1676.81" height="122.89" style="fill:#D9E6EB"/>
	<rect x="404.14" y="282.38" width="1671.92" height="117.99" style="fill:none;stroke:#D9E6EB;stroke-width:4.90"/>
	<text x="1240.10" y="359.96" style="font-family:'Helvetica';font-size:93.56px;fill:#000000" text-anchor="middle">Female</text>
	<rect x="2147.68" y="279.93" width="1676.81" height="122.89" style="fill:#D9E6EB"/>
	<rect x="2150.13" y="282.38" width="1671.92" height="117.99" style="fill:none;stroke:#D9E6EB;stroke-width:4.90"/>
	<text x="2986.09" y="359.96" style="font-family:'Helvetica';font-size:93.56px;fill:#000000" text-anchor="middle">Male</text>
	<rect x="592.39" y="2418.27" width="2775.09" height="326.34" style="fill:#FFFFFF"/>
	<rect x="595.27" y="2421.15" width="2769.33" height="320.58" style="fill:none;stroke:#000000;stroke-width:5.76"/>
	<line x1="635.58" y1="2511.46" x2="1009.92" y2="2511.46" style="stroke:#008000;stroke-width:8.64"/>
	<line x1="635.58" y1="2651.43" x2="1009.92" y2="2651.43" style="stroke:#FF7F00;stroke-width:8.64"/>
	<line x1="1971.21" y1="2511.46" x2="2345.56" y2="2511.46" style="stroke:#1A476F;stroke-width:8.64"/>
	<line x1="1971.21" y1="2651.43" x2="1974.06" y2="2651.43" style="stroke:#A0A0A0;stroke-width:8.64"/>
	<line x1="1994.23" y1="2651.43" x2="1997.08" y2="2651.43" style="stroke:#A0A0A0;stroke-width:8.64"/>
	<line x1="2017.25" y1="2651.43" x2="2020.10" y2="2651.43" style="stroke:#A0A0A0;stroke-width:8.64"/>
	<line x1="2040.27" y1="2651.43" x2="2043.24" y2="2651.43" style="stroke:#A0A0A0;stroke-width:8.64"/>
	<line x1="2063.28" y1="2651.43" x2="2066.25" y2="2651.43" style="stroke:#A0A0A0;stroke-width:8.64"/>
	<line x1="2086.43" y1="2651.43" x2="2089.27" y2="2651.43" style="stroke:#A0A0A0;stroke-width:8.64"/>
	<line x1="2109.44" y1="2651.43" x2="2112.29" y2="2651.43" style="stroke:#A0A0A0;stroke-width:8.64"/>
	<line x1="2132.46" y1="2651.43" x2="2135.31" y2="2651.43" style="stroke:#A0A0A0;stroke-width:8.64"/>
	<line x1="2155.48" y1="2651.43" x2="2158.32" y2="2651.43" style="stroke:#A0A0A0;stroke-width:8.64"/>
	<line x1="2178.49" y1="2651.43" x2="2181.34" y2="2651.43" style="stroke:#A0A0A0;stroke-width:8.64"/>
	<line x1="2201.51" y1="2651.43" x2="2204.36" y2="2651.43" style="stroke:#A0A0A0;stroke-width:8.64"/>
	<line x1="2224.53" y1="2651.43" x2="2227.38" y2="2651.43" style="stroke:#A0A0A0;stroke-width:8.64"/>
	<line x1="2247.55" y1="2651.43" x2="2250.39" y2="2651.43" style="stroke:#A0A0A0;stroke-width:8.64"/>
	<line x1="2270.57" y1="2651.43" x2="2273.41" y2="2651.43" style="stroke:#A0A0A0;stroke-width:8.64"/>
	<line x1="2293.58" y1="2651.43" x2="2296.55" y2="2651.43" style="stroke:#A0A0A0;stroke-width:8.64"/>
	<line x1="2316.60" y1="2651.43" x2="2319.57" y2="2651.43" style="stroke:#A0A0A0;stroke-width:8.64"/>
	<line x1="2339.74" y1="2651.43" x2="2342.59" y2="2651.43" style="stroke:#A0A0A0;stroke-width:8.64"/>
	<text x="1069.94" y="2546.49" style="font-family:'Helvetica';font-size:99.99px;fill:#000000">1 comorbidity</text>
	<text x="1069.94" y="2686.46" style="font-family:'Helvetica';font-size:99.99px;fill:#000000">2+ comorbidities</text>
	<text x="2405.58" y="2546.49" style="font-family:'Helvetica';font-size:99.99px;fill:#000000">No comborbidity</text>
	<text x="2405.58" y="2686.46" style="font-family:'Helvetica';font-size:99.99px;fill:#000000">Ref (Age 65, White)</text>
	<text x="1980.00" y="2353.56" style="font-family:'Helvetica';font-size:99.99px;fill:#000000" text-anchor="middle">Age (years)</text>
	<text x="1980.00" y="195.01" style="font-family:'Helvetica';font-size:110.01px;fill:#000000" text-anchor="middle">Ethnicity Asian</text>
</svg>
