<?xml version="1.0" encoding="UTF-8" standalone="no"?>
<!-- This is a Stata 16.1 generated SVG file (http://www.stata.com) -->

<svg version="1.1" width="1600px" height="1164px" viewBox="0 0 3960 2880" xmlns="http://www.w3.org/2000/svg" xmlns:xlink="http://www.w3.org/1999/xlink">
	<desc>Stata Graph - Graph</desc>
	<rect x="0" y="0" width="3960" height="2880" style="fill:#EAF2F3;stroke:none"/>
	<rect x="0.00" y="0.00" width="3959.88" height="2880.00" style="fill:#EAF2F3"/>
	<rect x="2.88" y="2.88" width="3954.12" height="2874.24" style="fill:none;stroke:#EAF2F3;stroke-width:5.76"/>
	<rect x="401.69" y="402.82" width="1676.81" height="1693.32" style="fill:#FFFFFF"/>
	<rect x="404.14" y="405.27" width="1671.92" height="1688.43" style="fill:none;stroke:#FFFFFF;stroke-width:4.90"/>
	<line x1="401.69" y1="2042.31" x2="2078.51" y2="2042.31" style="stroke:#EAF2F3;stroke-width:7.34"/>
	<line x1="401.69" y1="1827.72" x2="2078.51" y2="1827.72" style="stroke:#EAF2F3;stroke-width:7.34"/>
	<line x1="401.69" y1="1613.26" x2="2078.51" y2="1613.26" style="stroke:#EAF2F3;stroke-width:7.34"/>
	<line x1="401.69" y1="1398.67" x2="2078.51" y2="1398.67" style="stroke:#EAF2F3;stroke-width:7.34"/>
	<line x1="401.69" y1="1184.20" x2="2078.51" y2="1184.20" style="stroke:#EAF2F3;stroke-width:7.34"/>
	<line x1="401.69" y1="969.61" x2="2078.51" y2="969.61" style="stroke:#EAF2F3;stroke-width:7.34"/>
	<rect x="2147.68" y="402.82" width="1676.81" height="1693.32" style="fill:#FFFFFF"/>
	<rect x="2150.13" y="405.27" width="1671.92" height="1688.43" style="fill:none;stroke:#FFFFFF;stroke-width:4.90"/>
	<line x1="2147.68" y1="2042.31" x2="3824.49" y2="2042.31" style="stroke:#EAF2F3;stroke-width:7.34"/>
	<line x1="2147.68" y1="1827.72" x2="3824.49" y2="1827.72" style="stroke:#EAF2F3;stroke-width:7.34"/>
	<line x1="2147.68" y1="1613.26" x2="3824.49" y2="1613.26" style="stroke:#EAF2F3;stroke-width:7.34"/>
	<line x1="2147.68" y1="1398.67" x2="3824.49" y2="1398.67" style="stroke:#EAF2F3;stroke-width:7.34"/>
	<line x1="2147.68" y1="1184.20" x2="3824.49" y2="1184.20" style="stroke:#EAF2F3;stroke-width:7.34"/>
	<line x1="2147.68" y1="969.61" x2="3824.49" y2="969.61" style="stroke:#EAF2F3;stroke-width:7.34"/>
	<defs>
		<path id="path_onGjPoAg" d="M455.52 2042.19 L455.52 2042.19 L480.89 2042.19 L506.14 2042.19 L531.51 2042.19 L556.75 2042.19 L582.12 2042.06 L607.37 2042.06 L632.73 2042.06 L657.98 2041.94 L683.35 2041.94 L708.59 2041.82 L733.96 2041.69 L759.21 2041.57 L784.58 2041.44 L809.82 2041.32 L835.19 2041.07 L860.43 2040.95 L885.80 2040.70 L911.05 2040.45 L936.42 2040.08 L961.66 2039.71 L987.03 2039.46 L1012.27 2039.09 L1037.64 2038.60 L1062.89 2038.23 L1088.26 2037.73 L1113.50 2037.24 L1138.87 2036.62 L1164.24 2036.12 L1189.48 2035.50 L1214.85 2034.76 L1240.10 2034.14 L1265.47 2033.28 L1290.71 2032.53 L1316.08 2031.67 L1341.33 2030.68 L1366.69 2029.56 L1391.94 2028.45 L1417.31 2027.21 L1442.55 2025.85 L1467.92 2024.37 L1493.17 2022.63 L1518.54 2020.78 L1543.78 2018.67 L1569.15 2016.45 L1594.39 2013.85 L1619.76 2011.00 L1645.01 2007.78 L1670.38 2004.32 L1695.62 2000.36 L1720.99 1996.03 L1746.24 1991.20 L1771.61 1985.75 L1796.85 1979.69 L1822.22 1973.01 L1847.46 1965.46 L1872.83 1957.17 L1898.20 1947.89 L1923.45 1937.49 L1948.82 1925.98 L1974.06 1913.11 L1999.43 1898.88 L2024.67 1883.04 L2024.67 1767.82 L1999.43 1795.17 L1974.06 1819.80 L1948.82 1841.83 L1923.45 1861.75 L1898.20 1879.57 L1872.83 1895.54 L1847.46 1909.89 L1822.22 1922.76 L1796.85 1934.40 L1771.61 1944.79 L1746.24 1954.20 L1720.99 1962.49 L1695.62 1970.04 L1670.38 1976.84 L1645.01 1982.91 L1619.76 1988.35 L1594.39 1993.30 L1569.15 1997.76 L1543.78 2001.72 L1518.54 2005.31 L1493.17 2008.53 L1467.92 2011.37 L1442.55 2013.97 L1417.31 2016.32 L1391.94 2018.43 L1366.69 2020.28 L1341.33 2022.01 L1316.08 2023.62 L1290.71 2025.11 L1265.47 2026.59 L1240.10 2027.83 L1214.85 2029.07 L1189.48 2030.18 L1164.24 2031.30 L1138.87 2032.29 L1113.50 2033.15 L1088.26 2034.02 L1062.89 2034.88 L1037.64 2035.63 L1012.27 2036.37 L987.03 2036.99 L961.66 2037.61 L936.42 2038.23 L911.05 2038.60 L885.80 2039.09 L860.43 2039.46 L835.19 2039.83 L809.82 2040.08 L784.58 2040.33 L759.21 2040.58 L733.96 2040.83 L708.59 2040.95 L683.35 2041.07 L657.98 2041.20 L632.73 2041.32 L607.37 2041.44 L582.12 2041.57 L556.75 2041.69 L531.51 2041.69 L506.14 2041.82 L480.89 2041.82 L455.52 2041.94 L455.52 2042.19 Z" stroke-linejoin="round"/>
	</defs>
	<defs>
		<clipPath id="clipPath_sqwRbnbB">
			<use xlink:href="#path_onGjPoAg"/>
		</clipPath>
	</defs>
	<use xlink:href="#path_onGjPoAg" style="stroke:none;fill:#E6E6E6"/>
	<use xlink:href="#path_onGjPoAg" style="fill:none;stroke:#E0E0E0;stroke-width:14.69" clip-path="url(#clipPath_sqwRbnbB)"/>
	<defs>
		<path id="path_GzieWyfm" d="M455.52 2042.19 L455.52 2042.19 L480.89 2042.19 L506.14 2042.06 L531.51 2042.06 L556.75 2041.94 L582.12 2041.94 L607.37 2041.82 L632.73 2041.69 L657.98 2041.69 L683.35 2041.44 L708.59 2041.32 L733.96 2041.07 L759.21 2040.83 L784.58 2040.58 L809.82 2040.21 L835.19 2039.83 L860.43 2039.34 L885.80 2038.84 L911.05 2038.35 L936.42 2037.73 L961.66 2036.99 L987.03 2036.25 L1012.27 2035.50 L1037.64 2034.64 L1062.89 2033.65 L1088.26 2032.66 L1113.50 2031.67 L1138.87 2030.43 L1164.24 2029.32 L1189.48 2027.95 L1214.85 2026.59 L1240.10 2024.98 L1265.47 2023.38 L1290.71 2021.64 L1316.08 2019.79 L1341.33 2017.68 L1366.69 2015.58 L1391.94 2013.10 L1417.31 2010.51 L1442.55 2007.54 L1467.92 2004.32 L1493.17 2000.73 L1518.54 1996.77 L1543.78 1992.44 L1569.15 1987.49 L1594.39 1982.04 L1619.76 1975.98 L1645.01 1969.30 L1670.38 1961.87 L1695.62 1953.45 L1720.99 1944.17 L1746.24 1933.90 L1771.61 1922.39 L1796.85 1909.65 L1822.22 1895.29 L1847.46 1879.45 L1872.83 1861.63 L1898.20 1841.95 L1923.45 1819.92 L1948.82 1795.42 L1974.06 1768.20 L1999.43 1737.88 L2024.67 1704.09 L2024.67 1463.14 L1999.43 1520.81 L1974.06 1572.66 L1948.82 1619.20 L1923.45 1661.02 L1898.20 1698.65 L1872.83 1732.31 L1847.46 1762.63 L1822.22 1789.85 L1796.85 1814.36 L1771.61 1836.26 L1746.24 1855.94 L1720.99 1873.63 L1695.62 1889.60 L1670.38 1903.83 L1645.01 1916.70 L1619.76 1928.21 L1594.39 1938.60 L1569.15 1947.89 L1543.78 1956.30 L1518.54 1963.85 L1493.17 1970.66 L1467.92 1976.72 L1442.55 1982.17 L1417.31 1987.12 L1391.94 1991.57 L1366.69 1995.65 L1341.33 1999.37 L1316.08 2002.71 L1290.71 2005.93 L1265.47 2008.90 L1240.10 2011.62 L1214.85 2014.09 L1189.48 2016.57 L1164.24 2018.80 L1138.87 2020.90 L1113.50 2022.88 L1088.26 2024.74 L1062.89 2026.59 L1037.64 2028.20 L1012.27 2029.69 L987.03 2031.05 L961.66 2032.41 L936.42 2033.52 L911.05 2034.51 L885.80 2035.50 L860.43 2036.25 L835.19 2036.99 L809.82 2037.61 L784.58 2038.23 L759.21 2038.72 L733.96 2039.09 L708.59 2039.46 L683.35 2039.83 L657.98 2040.08 L632.73 2040.33 L607.37 2040.58 L582.12 2040.83 L556.75 2040.95 L531.51 2041.07 L506.14 2041.20 L480.89 2041.32 L455.52 2041.44 L455.52 2042.19 Z" stroke-linejoin="round"/>
	</defs>
	<defs>
		<clipPath id="clipPath_GEgKQvBB">
			<use xlink:href="#path_GzieWyfm"/>
		</clipPath>
	</defs>
	<use xlink:href="#path_GzieWyfm" style="stroke:none;fill:#E6E6E6"/>
	<use xlink:href="#path_GzieWyfm" style="fill:none;stroke:#E0E0E0;stroke-width:14.69" clip-path="url(#clipPath_GEgKQvBB)"/>
	<defs>
		<path id="path_MDTAeoyB" d="M455.52 2042.06 L455.52 2042.06 L480.89 2042.06 L506.14 2041.94 L531.51 2041.94 L556.75 2041.82 L582.12 2041.69 L607.37 2041.57 L632.73 2041.32 L657.98 2041.07 L683.35 2040.83 L708.59 2040.58 L733.96 2040.21 L759.21 2039.71 L784.58 2039.22 L809.82 2038.60 L835.19 2037.85 L860.43 2037.11 L885.80 2036.25 L911.05 2035.26 L936.42 2034.14 L961.66 2032.90 L987.03 2031.54 L1012.27 2030.18 L1037.64 2028.57 L1062.89 2026.96 L1088.26 2025.23 L1113.50 2023.38 L1138.87 2021.27 L1164.24 2019.17 L1189.48 2016.82 L1214.85 2014.34 L1240.10 2011.62 L1265.47 2008.77 L1290.71 2005.68 L1316.08 2002.34 L1341.33 1998.62 L1366.69 1994.66 L1391.94 1990.46 L1417.31 1985.75 L1442.55 1980.56 L1467.92 1974.74 L1493.17 1968.43 L1518.54 1961.38 L1543.78 1953.58 L1569.15 1944.92 L1594.39 1935.26 L1619.76 1924.50 L1645.01 1912.49 L1670.38 1899.25 L1695.62 1884.40 L1720.99 1867.94 L1746.24 1849.50 L1771.61 1829.08 L1796.85 1806.19 L1822.22 1780.82 L1847.46 1752.48 L1872.83 1720.92 L1898.20 1685.78 L1923.45 1646.55 L1948.82 1602.98 L1974.06 1554.47 L1999.43 1500.39 L2024.67 1440.37 L2024.67 1013.05 L1999.43 1115.27 L1974.06 1207.22 L1948.82 1289.89 L1923.45 1364.14 L1898.20 1430.97 L1872.83 1490.86 L1847.46 1544.70 L1822.22 1593.08 L1796.85 1636.52 L1771.61 1675.50 L1746.24 1710.65 L1720.99 1742.08 L1695.62 1770.42 L1670.38 1795.79 L1645.01 1818.56 L1619.76 1839.11 L1594.39 1857.55 L1569.15 1874.13 L1543.78 1889.10 L1518.54 1902.47 L1493.17 1914.60 L1467.92 1925.36 L1442.55 1935.14 L1417.31 1943.93 L1391.94 1951.97 L1366.69 1959.15 L1341.33 1965.71 L1316.08 1971.89 L1290.71 1977.46 L1265.47 1982.66 L1240.10 1987.49 L1214.85 1992.07 L1189.48 1996.40 L1164.24 2000.36 L1138.87 2004.19 L1113.50 2007.78 L1088.26 2011.12 L1062.89 2014.22 L1037.64 2017.19 L1012.27 2019.91 L987.03 2022.39 L961.66 2024.61 L936.42 2026.72 L911.05 2028.57 L885.80 2030.18 L860.43 2031.67 L835.19 2032.90 L809.82 2034.02 L784.58 2035.01 L759.21 2035.87 L733.96 2036.62 L708.59 2037.24 L683.35 2037.85 L657.98 2038.35 L632.73 2038.84 L607.37 2039.22 L582.12 2039.59 L556.75 2039.83 L531.51 2040.21 L506.14 2040.45 L480.89 2040.58 L455.52 2040.83 L455.52 2042.06 Z" stroke-linejoin="round"/>
	</defs>
	<defs>
		<clipPath id="clipPath_zAyKacJI">
			<use xlink:href="#path_MDTAeoyB"/>
		</clipPath>
	</defs>
	<use xlink:href="#path_MDTAeoyB" style="stroke:none;fill:#E6E6E6"/>
	<use xlink:href="#path_MDTAeoyB" style="fill:none;stroke:#E0E0E0;stroke-width:14.69" clip-path="url(#clipPath_zAyKacJI)"/>
	<line x1="455.52" y1="2012.61" x2="458.37" y2="2012.61" style="stroke:#A0A0A0;stroke-width:7.34"/>
	<line x1="478.54" y1="2012.61" x2="480.77" y2="2012.61" style="stroke:#A0A0A0;stroke-width:7.34"/>
	<line x1="480.77" y1="2012.61" x2="481.39" y2="2012.61" style="stroke:#A0A0A0;stroke-width:7.34"/>
	<line x1="501.56" y1="2012.61" x2="504.40" y2="2012.61" style="stroke:#A0A0A0;stroke-width:7.34"/>
	<line x1="524.58" y1="2012.61" x2="527.42" y2="2012.61" style="stroke:#A0A0A0;stroke-width:7.34"/>
	<line x1="547.59" y1="2012.61" x2="550.44" y2="2012.61" style="stroke:#A0A0A0;stroke-width:7.34"/>
	<line x1="570.61" y1="2012.61" x2="573.58" y2="2012.61" style="stroke:#A0A0A0;stroke-width:7.34"/>
	<line x1="593.75" y1="2012.61" x2="596.60" y2="2012.61" style="stroke:#A0A0A0;stroke-width:7.34"/>
	<line x1="616.77" y1="2012.61" x2="619.62" y2="2012.61" style="stroke:#A0A0A0;stroke-width:7.34"/>
	<line x1="639.79" y1="2012.61" x2="642.63" y2="2012.61" style="stroke:#A0A0A0;stroke-width:7.34"/>
	<line x1="662.80" y1="2012.61" x2="665.65" y2="2012.61" style="stroke:#A0A0A0;stroke-width:7.34"/>
	<line x1="685.82" y1="2012.61" x2="688.67" y2="2012.61" style="stroke:#A0A0A0;stroke-width:7.34"/>
	<line x1="708.84" y1="2012.61" x2="711.69" y2="2012.61" style="stroke:#A0A0A0;stroke-width:7.34"/>
	<line x1="731.86" y1="2012.61" x2="733.84" y2="2012.61" style="stroke:#A0A0A0;stroke-width:7.34"/>
	<line x1="733.84" y1="2012.61" x2="734.70" y2="2012.61" style="stroke:#A0A0A0;stroke-width:7.34"/>
	<line x1="754.88" y1="2012.61" x2="757.72" y2="2012.61" style="stroke:#A0A0A0;stroke-width:7.34"/>
	<line x1="777.89" y1="2012.61" x2="780.74" y2="2012.61" style="stroke:#A0A0A0;stroke-width:7.34"/>
	<line x1="800.91" y1="2012.61" x2="803.88" y2="2012.61" style="stroke:#A0A0A0;stroke-width:7.34"/>
	<line x1="823.93" y1="2012.61" x2="826.90" y2="2012.61" style="stroke:#A0A0A0;stroke-width:7.34"/>
	<line x1="847.07" y1="2012.61" x2="849.91" y2="2012.61" style="stroke:#A0A0A0;stroke-width:7.34"/>
	<line x1="870.09" y1="2012.61" x2="872.93" y2="2012.61" style="stroke:#A0A0A0;stroke-width:7.34"/>
	<line x1="893.10" y1="2012.61" x2="895.95" y2="2012.61" style="stroke:#A0A0A0;stroke-width:7.34"/>
	<line x1="916.12" y1="2012.61" x2="918.97" y2="2012.61" style="stroke:#A0A0A0;stroke-width:7.34"/>
	<line x1="939.14" y1="2012.61" x2="941.99" y2="2012.61" style="stroke:#A0A0A0;stroke-width:7.34"/>
	<line x1="962.16" y1="2012.61" x2="965.00" y2="2012.61" style="stroke:#A0A0A0;stroke-width:7.34"/>
	<line x1="985.17" y1="2012.61" x2="986.91" y2="2012.61" style="stroke:#A0A0A0;stroke-width:7.34"/>
	<line x1="986.91" y1="2012.61" x2="988.02" y2="2012.61" style="stroke:#A0A0A0;stroke-width:7.34"/>
	<line x1="1008.19" y1="2012.61" x2="1011.04" y2="2012.61" style="stroke:#A0A0A0;stroke-width:7.34"/>
	<line x1="1031.21" y1="2012.61" x2="1034.06" y2="2012.61" style="stroke:#A0A0A0;stroke-width:7.34"/>
	<line x1="1054.23" y1="2012.61" x2="1057.20" y2="2012.61" style="stroke:#A0A0A0;stroke-width:7.34"/>
	<line x1="1077.24" y1="2012.61" x2="1080.21" y2="2012.61" style="stroke:#A0A0A0;stroke-width:7.34"/>
	<line x1="1100.38" y1="2012.61" x2="1103.23" y2="2012.61" style="stroke:#A0A0A0;stroke-width:7.34"/>
	<line x1="1123.40" y1="2012.61" x2="1126.25" y2="2012.61" style="stroke:#A0A0A0;stroke-width:7.34"/>
	<line x1="1146.42" y1="2012.61" x2="1149.27" y2="2012.61" style="stroke:#A0A0A0;stroke-width:7.34"/>
	<line x1="1169.44" y1="2012.61" x2="1172.28" y2="2012.61" style="stroke:#A0A0A0;stroke-width:7.34"/>
	<line x1="1192.45" y1="2012.61" x2="1195.30" y2="2012.61" style="stroke:#A0A0A0;stroke-width:7.34"/>
	<line x1="1215.47" y1="2012.61" x2="1218.32" y2="2012.61" style="stroke:#A0A0A0;stroke-width:7.34"/>
	<line x1="1238.49" y1="2012.61" x2="1240.10" y2="2012.61" style="stroke:#A0A0A0;stroke-width:7.34"/>
	<line x1="1240.10" y1="2012.61" x2="1241.34" y2="2012.61" style="stroke:#A0A0A0;stroke-width:7.34"/>
	<line x1="1261.51" y1="2012.61" x2="1264.35" y2="2012.61" style="stroke:#A0A0A0;stroke-width:7.34"/>
	<line x1="1284.53" y1="2012.61" x2="1287.37" y2="2012.61" style="stroke:#A0A0A0;stroke-width:7.34"/>
	<line x1="1307.54" y1="2012.61" x2="1310.51" y2="2012.61" style="stroke:#A0A0A0;stroke-width:7.34"/>
	<line x1="1330.56" y1="2012.61" x2="1333.53" y2="2012.61" style="stroke:#A0A0A0;stroke-width:7.34"/>
	<line x1="1353.70" y1="2012.61" x2="1356.55" y2="2012.61" style="stroke:#A0A0A0;stroke-width:7.34"/>
	<line x1="1376.72" y1="2012.61" x2="1379.57" y2="2012.61" style="stroke:#A0A0A0;stroke-width:7.34"/>
	<line x1="1399.74" y1="2012.61" x2="1402.58" y2="2012.61" style="stroke:#A0A0A0;stroke-width:7.34"/>
	<line x1="1422.75" y1="2012.61" x2="1425.60" y2="2012.61" style="stroke:#A0A0A0;stroke-width:7.34"/>
	<line x1="1445.77" y1="2012.61" x2="1448.62" y2="2012.61" style="stroke:#A0A0A0;stroke-width:7.34"/>
	<line x1="1468.79" y1="2012.61" x2="1471.63" y2="2012.61" style="stroke:#A0A0A0;stroke-width:7.34"/>
	<line x1="1491.81" y1="2012.61" x2="1493.17" y2="2012.61" style="stroke:#A0A0A0;stroke-width:7.34"/>
	<line x1="1493.17" y1="2012.61" x2="1494.65" y2="2012.61" style="stroke:#A0A0A0;stroke-width:7.34"/>
	<line x1="1514.82" y1="2012.61" x2="1517.67" y2="2012.61" style="stroke:#A0A0A0;stroke-width:7.34"/>
	<line x1="1537.84" y1="2012.61" x2="1540.69" y2="2012.61" style="stroke:#A0A0A0;stroke-width:7.34"/>
	<line x1="1560.86" y1="2012.61" x2="1563.83" y2="2012.61" style="stroke:#A0A0A0;stroke-width:7.34"/>
	<line x1="1584.00" y1="2012.61" x2="1586.85" y2="2012.61" style="stroke:#A0A0A0;stroke-width:7.34"/>
	<line x1="1607.02" y1="2012.61" x2="1609.86" y2="2012.61" style="stroke:#A0A0A0;stroke-width:7.34"/>
	<line x1="1630.04" y1="2012.61" x2="1632.88" y2="2012.61" style="stroke:#A0A0A0;stroke-width:7.34"/>
	<line x1="1653.05" y1="2012.61" x2="1655.90" y2="2012.61" style="stroke:#A0A0A0;stroke-width:7.34"/>
	<line x1="1676.07" y1="2012.61" x2="1678.92" y2="2012.61" style="stroke:#A0A0A0;stroke-width:7.34"/>
	<line x1="1699.09" y1="2012.61" x2="1701.93" y2="2012.61" style="stroke:#A0A0A0;stroke-width:7.34"/>
	<line x1="1722.11" y1="2012.61" x2="1724.95" y2="2012.61" style="stroke:#A0A0A0;stroke-width:7.34"/>
	<line x1="1745.12" y1="2012.61" x2="1746.24" y2="2012.61" style="stroke:#A0A0A0;stroke-width:7.34"/>
	<line x1="1746.24" y1="2012.61" x2="1747.97" y2="2012.61" style="stroke:#A0A0A0;stroke-width:7.34"/>
	<line x1="1768.14" y1="2012.61" x2="1770.99" y2="2012.61" style="stroke:#A0A0A0;stroke-width:7.34"/>
	<line x1="1791.16" y1="2012.61" x2="1794.00" y2="2012.61" style="stroke:#A0A0A0;stroke-width:7.34"/>
	<line x1="1814.17" y1="2012.61" x2="1817.14" y2="2012.61" style="stroke:#A0A0A0;stroke-width:7.34"/>
	<line x1="1837.32" y1="2012.61" x2="1840.16" y2="2012.61" style="stroke:#A0A0A0;stroke-width:7.34"/>
	<line x1="1860.33" y1="2012.61" x2="1863.18" y2="2012.61" style="stroke:#A0A0A0;stroke-width:7.34"/>
	<line x1="1883.35" y1="2012.61" x2="1886.20" y2="2012.61" style="stroke:#A0A0A0;stroke-width:7.34"/>
	<line x1="1906.37" y1="2012.61" x2="1909.21" y2="2012.61" style="stroke:#A0A0A0;stroke-width:7.34"/>
	<line x1="1929.39" y1="2012.61" x2="1932.23" y2="2012.61" style="stroke:#A0A0A0;stroke-width:7.34"/>
	<line x1="1952.40" y1="2012.61" x2="1955.25" y2="2012.61" style="stroke:#A0A0A0;stroke-width:7.34"/>
	<line x1="1975.42" y1="2012.61" x2="1978.27" y2="2012.61" style="stroke:#A0A0A0;stroke-width:7.34"/>
	<line x1="1998.44" y1="2012.61" x2="1999.31" y2="2012.61" style="stroke:#A0A0A0;stroke-width:7.34"/>
	<line x1="1999.31" y1="2012.61" x2="2001.29" y2="2012.61" style="stroke:#A0A0A0;stroke-width:7.34"/>
	<line x1="2021.46" y1="2012.61" x2="2024.30" y2="2012.61" style="stroke:#A0A0A0;stroke-width:7.34"/>
	<path d="" stroke-linejoin="round" style="fill:none;stroke:#A0A0A0;stroke-width:7.34"/>
	<path d=" M455.52 2042.06 L480.77 2041.94 L506.14 2041.94 L531.38 2041.82 L556.75 2041.69 L582.00 2041.57 L607.37 2041.44 L632.61 2041.32 L657.98 2041.20 L683.22 2040.95 L708.59 2040.70 L733.84 2040.45 L759.21 2040.08 L784.45 2039.71 L809.82 2039.22 L835.07 2038.72 L860.43 2038.23 L885.68 2037.48 L911.05 2036.86 L936.29 2036.00 L961.66 2035.13 L986.91 2034.14 L1012.27 2033.03 L1037.52 2031.91 L1062.89 2030.68 L1088.13 2029.44 L1113.50 2027.95 L1138.87 2026.47 L1164.12 2024.86 L1189.48 2023.13 L1214.73 2021.27 L1240.10 2019.29 L1265.34 2017.19 L1290.71 2014.96 L1315.96 2012.49 L1341.33 2009.89 L1366.57 2007.04 L1391.94 2003.82 L1417.18 2000.48 L1442.55 1996.64 L1467.80 1992.44 L1493.17 1987.73 L1518.41 1982.54 L1543.78 1976.84 L1569.03 1970.41 L1594.39 1963.36 L1619.64 1955.43 L1645.01 1946.65 L1670.25 1936.87 L1695.62 1925.86 L1720.87 1913.73 L1746.24 1900.24 L1771.48 1885.14 L1796.85 1868.44 L1822.10 1849.75 L1847.46 1828.96 L1872.71 1805.69 L1898.08 1779.95 L1923.45 1751.12 L1948.69 1719.19 L1974.06 1683.55 L1999.31 1643.95 L2024.67 1599.77" stroke-linejoin="round" style="fill:none;stroke:#008000;stroke-width:7.34"/>
	<path d=" M455.52 2041.82 L480.77 2041.69 L506.14 2041.57 L531.38 2041.44 L556.75 2041.20 L582.00 2041.07 L607.37 2040.83 L632.61 2040.58 L657.98 2040.21 L683.22 2039.83 L708.59 2039.34 L733.84 2038.84 L759.21 2038.35 L784.45 2037.61 L809.82 2036.86 L835.07 2036.00 L860.43 2034.88 L885.68 2033.77 L911.05 2032.53 L936.29 2031.05 L961.66 2029.44 L986.91 2027.71 L1012.27 2025.85 L1037.52 2023.87 L1062.89 2021.64 L1088.13 2019.29 L1113.50 2016.82 L1138.87 2014.09 L1164.12 2011.25 L1189.48 2008.15 L1214.73 2004.94 L1240.10 2001.35 L1265.34 1997.63 L1290.71 1993.67 L1315.96 1989.22 L1341.33 1984.52 L1366.57 1979.44 L1391.94 1973.87 L1417.18 1967.81 L1442.55 1961.00 L1467.80 1953.58 L1493.17 1945.16 L1518.41 1936.01 L1543.78 1925.73 L1569.03 1914.35 L1594.39 1901.73 L1619.64 1887.62 L1645.01 1872.02 L1670.25 1854.58 L1695.62 1835.15 L1720.87 1813.49 L1746.24 1789.48 L1771.48 1762.75 L1796.85 1732.80 L1822.10 1699.64 L1847.46 1662.63 L1872.71 1621.42 L1898.08 1575.39 L1923.45 1524.28 L1948.69 1467.35 L1974.06 1404.11 L1999.31 1333.57 L2024.67 1255.24" stroke-linejoin="round" style="fill:none;stroke:#FF7F00;stroke-width:7.34"/>
	<path d=" M455.52 2042.19 L480.77 2042.19 L506.14 2042.19 L531.38 2042.06 L556.75 2042.06 L582.00 2041.94 L607.37 2041.94 L632.61 2041.82 L657.98 2041.82 L683.22 2041.69 L708.59 2041.57 L733.84 2041.44 L759.21 2041.32 L784.45 2041.07 L809.82 2040.83 L835.07 2040.58 L860.43 2040.33 L885.68 2040.08 L911.05 2039.71 L936.29 2039.34 L961.66 2038.97 L986.91 2038.47 L1012.27 2037.98 L1037.52 2037.48 L1062.89 2036.86 L1088.13 2036.25 L1113.50 2035.50 L1138.87 2034.88 L1164.12 2034.02 L1189.48 2033.28 L1214.73 2032.41 L1240.10 2031.42 L1265.34 2030.43 L1290.71 2029.44 L1315.96 2028.20 L1341.33 2026.96 L1366.57 2025.60 L1391.94 2024.12 L1417.18 2022.51 L1442.55 2020.78 L1467.80 2018.80 L1493.17 2016.57 L1518.41 2014.09 L1543.78 2011.37 L1569.03 2008.40 L1594.39 2005.06 L1619.64 2001.35 L1645.01 1997.14 L1670.25 1992.56 L1695.62 1987.36 L1720.87 1981.67 L1746.24 1975.24 L1771.48 1968.18 L1796.85 1960.14 L1822.10 1951.35 L1847.46 1941.57 L1872.71 1930.56 L1898.08 1918.43 L1923.45 1904.82 L1948.69 1889.72 L1974.06 1872.89 L1999.31 1854.08 L2024.67 1833.29" stroke-linejoin="round" style="fill:none;stroke:#1A476F;stroke-width:7.34"/>
	<defs>
		<path id="path_GMEzgjpz" d="M2201.51 2042.19 L2201.51 2042.19 L2226.88 2042.19 L2252.13 2042.19 L2277.49 2042.06 L2302.74 2042.06 L2328.11 2042.06 L2353.35 2041.94 L2378.72 2041.94 L2403.97 2041.82 L2429.34 2041.69 L2454.58 2041.57 L2479.95 2041.44 L2505.20 2041.20 L2530.56 2041.07 L2555.81 2040.83 L2581.18 2040.45 L2606.42 2040.21 L2631.79 2039.83 L2657.04 2039.34 L2682.41 2038.97 L2707.65 2038.35 L2733.02 2037.85 L2758.26 2037.24 L2783.63 2036.62 L2808.88 2036.00 L2834.25 2035.26 L2859.49 2034.51 L2884.86 2033.65 L2910.11 2032.78 L2935.47 2031.79 L2960.72 2030.80 L2986.09 2029.69 L3011.46 2028.45 L3036.70 2027.21 L3062.07 2025.85 L3087.32 2024.37 L3112.68 2022.76 L3137.93 2021.02 L3163.30 2019.04 L3188.54 2016.94 L3213.91 2014.59 L3239.16 2011.99 L3264.53 2009.14 L3289.77 2005.93 L3315.14 2002.34 L3340.38 1998.38 L3365.75 1994.05 L3391.00 1989.10 L3416.37 1983.77 L3441.61 1977.71 L3466.98 1970.90 L3492.22 1963.48 L3517.59 1955.06 L3542.84 1945.78 L3568.21 1935.51 L3593.45 1923.88 L3618.82 1911.01 L3644.07 1896.78 L3669.43 1880.81 L3694.68 1862.99 L3720.05 1843.31 L3745.42 1821.29 L3770.66 1796.78 L3770.66 1618.58 L3745.42 1660.90 L3720.05 1698.89 L3694.68 1732.93 L3669.43 1763.62 L3644.07 1791.09 L3618.82 1815.84 L3593.45 1837.99 L3568.21 1857.92 L3542.84 1875.86 L3517.59 1891.95 L3492.22 1906.30 L3466.98 1919.30 L3441.61 1930.93 L3416.37 1941.33 L3391.00 1950.73 L3365.75 1959.15 L3340.38 1966.70 L3315.14 1973.50 L3289.77 1979.69 L3264.53 1985.14 L3239.16 1990.09 L3213.91 1994.54 L3188.54 1998.62 L3163.30 2002.21 L3137.93 2005.43 L3112.68 2008.40 L3087.32 2011.12 L3062.07 2013.60 L3036.70 2015.83 L3011.46 2018.05 L2986.09 2020.03 L2960.72 2021.89 L2935.47 2023.62 L2910.11 2025.23 L2884.86 2026.84 L2859.49 2028.20 L2834.25 2029.56 L2808.88 2030.92 L2783.63 2032.04 L2758.26 2033.15 L2733.02 2034.14 L2707.65 2035.13 L2682.41 2036.00 L2657.04 2036.74 L2631.79 2037.36 L2606.42 2037.98 L2581.18 2038.47 L2555.81 2038.97 L2530.56 2039.34 L2505.20 2039.71 L2479.95 2039.96 L2454.58 2040.21 L2429.34 2040.45 L2403.97 2040.70 L2378.72 2040.83 L2353.35 2041.07 L2328.11 2041.20 L2302.74 2041.32 L2277.49 2041.44 L2252.13 2041.57 L2226.88 2041.57 L2201.51 2041.69 L2201.51 2042.19 Z" stroke-linejoin="round"/>
	</defs>
	<defs>
		<clipPath id="clipPath_TAALEMch">
			<use xlink:href="#path_GMEzgjpz"/>
		</clipPath>
	</defs>
	<use xlink:href="#path_GMEzgjpz" style="stroke:none;fill:#E6E6E6"/>
	<use xlink:href="#path_GMEzgjpz" style="fill:none;stroke:#E0E0E0;stroke-width:14.69" clip-path="url(#clipPath_TAALEMch)"/>
	<defs>
		<path id="path_rrIzNkVd" d="M2201.51 2042.06 L2201.51 2042.06 L2226.88 2042.06 L2252.13 2041.94 L2277.49 2041.94 L2302.74 2041.82 L2328.11 2041.69 L2353.35 2041.57 L2378.72 2041.44 L2403.97 2041.32 L2429.34 2041.07 L2454.58 2040.83 L2479.95 2040.45 L2505.20 2040.08 L2530.56 2039.59 L2555.81 2039.09 L2581.18 2038.47 L2606.42 2037.85 L2631.79 2036.99 L2657.04 2036.12 L2682.41 2035.26 L2707.65 2034.14 L2733.02 2033.03 L2758.26 2031.79 L2783.63 2030.43 L2808.88 2028.94 L2834.25 2027.46 L2859.49 2025.85 L2884.86 2024.12 L2910.11 2022.14 L2935.47 2020.16 L2960.72 2018.05 L2986.09 2015.70 L3011.46 2013.23 L3036.70 2010.51 L3062.07 2007.54 L3087.32 2004.44 L3112.68 2000.98 L3137.93 1997.26 L3163.30 1993.18 L3188.54 1988.60 L3213.91 1983.65 L3239.16 1978.21 L3264.53 1972.02 L3289.77 1965.21 L3315.14 1957.66 L3340.38 1949.37 L3365.75 1939.97 L3391.00 1929.69 L3416.37 1918.18 L3441.61 1905.31 L3466.98 1890.96 L3492.22 1875.12 L3517.59 1857.30 L3542.84 1837.62 L3568.21 1815.59 L3593.45 1791.09 L3618.82 1763.74 L3644.07 1733.30 L3669.43 1699.39 L3694.68 1661.64 L3720.05 1619.69 L3745.42 1573.04 L3770.66 1521.06 L3770.66 1149.05 L3745.42 1238.03 L3720.05 1317.85 L3694.68 1389.76 L3669.43 1454.23 L3644.07 1512.27 L3618.82 1564.25 L3593.45 1611.03 L3568.21 1653.10 L3542.84 1690.73 L3517.59 1724.63 L3492.22 1754.95 L3466.98 1782.30 L3441.61 1806.81 L3416.37 1828.83 L3391.00 1848.64 L3365.75 1866.46 L3340.38 1882.42 L3315.14 1896.78 L3289.77 1909.77 L3264.53 1921.40 L3239.16 1931.80 L3213.91 1941.20 L3188.54 1949.62 L3163.30 1957.29 L3137.93 1964.10 L3112.68 1970.41 L3087.32 1976.10 L3062.07 1981.30 L3036.70 1986.25 L3011.46 1990.70 L2986.09 1994.91 L2960.72 1998.87 L2935.47 2002.59 L2910.11 2006.05 L2884.86 2009.27 L2859.49 2012.36 L2834.25 2015.33 L2808.88 2018.05 L2783.63 2020.53 L2758.26 2022.88 L2733.02 2024.98 L2707.65 2026.96 L2682.41 2028.82 L2657.04 2030.43 L2631.79 2031.79 L2606.42 2033.03 L2581.18 2034.14 L2555.81 2035.13 L2530.56 2036.00 L2505.20 2036.74 L2479.95 2037.36 L2454.58 2037.98 L2429.34 2038.47 L2403.97 2038.84 L2378.72 2039.34 L2353.35 2039.59 L2328.11 2039.96 L2302.74 2040.21 L2277.49 2040.45 L2252.13 2040.70 L2226.88 2040.83 L2201.51 2040.95 L2201.51 2042.06 Z" stroke-linejoin="round"/>
	</defs>
	<defs>
		<clipPath id="clipPath_YojXgNrA">
			<use xlink:href="#path_rrIzNkVd"/>
		</clipPath>
	</defs>
	<use xlink:href="#path_rrIzNkVd" style="stroke:none;fill:#E6E6E6"/>
	<use xlink:href="#path_rrIzNkVd" style="fill:none;stroke:#E0E0E0;stroke-width:14.69" clip-path="url(#clipPath_YojXgNrA)"/>
	<defs>
		<path id="path_rlzOjIsk" d="M2201.51 2041.94 L2201.51 2041.94 L2226.88 2041.94 L2252.13 2041.82 L2277.49 2041.69 L2302.74 2041.57 L2328.11 2041.32 L2353.35 2041.07 L2378.72 2040.83 L2403.97 2040.45 L2429.34 2040.08 L2454.58 2039.59 L2479.95 2039.09 L2505.20 2038.35 L2530.56 2037.61 L2555.81 2036.62 L2581.18 2035.50 L2606.42 2034.27 L2631.79 2032.90 L2657.04 2031.42 L2682.41 2029.69 L2707.65 2027.83 L2733.02 2025.73 L2758.26 2023.62 L2783.63 2021.15 L2808.88 2018.67 L2834.25 2015.95 L2859.49 2012.98 L2884.86 2009.89 L2910.11 2006.55 L2935.47 2002.96 L2960.72 1999.12 L2986.09 1994.91 L3011.46 1990.58 L3036.70 1985.75 L3062.07 1980.56 L3087.32 1974.99 L3112.68 1968.80 L3137.93 1962.24 L3163.30 1954.94 L3188.54 1946.90 L3213.91 1937.99 L3239.16 1928.21 L3264.53 1917.32 L3289.77 1905.31 L3315.14 1891.83 L3340.38 1876.97 L3365.75 1860.39 L3391.00 1841.95 L3416.37 1821.41 L3441.61 1798.51 L3466.98 1773.15 L3492.22 1744.68 L3517.59 1713.12 L3542.84 1677.98 L3568.21 1638.75 L3593.45 1595.06 L3618.82 1546.43 L3644.07 1492.22 L3669.43 1431.96 L3694.68 1364.76 L3720.05 1290.01 L3745.42 1206.85 L3770.66 1114.28 L3770.66 456.65 L3745.42 614.07 L3720.05 755.64 L3694.68 882.98 L3669.43 997.46 L3644.07 1100.17 L3618.82 1192.62 L3593.45 1275.53 L3568.21 1350.15 L3542.84 1417.11 L3517.59 1477.13 L3492.22 1531.21 L3466.98 1579.72 L3441.61 1623.28 L3416.37 1662.51 L3391.00 1697.66 L3365.75 1729.21 L3340.38 1757.68 L3315.14 1783.29 L3289.77 1806.19 L3264.53 1826.85 L3239.16 1845.54 L3213.91 1862.25 L3188.54 1877.22 L3163.30 1890.84 L3137.93 1903.09 L3112.68 1914.22 L3087.32 1924.37 L3062.07 1933.78 L3036.70 1942.44 L3011.46 1950.48 L2986.09 1957.91 L2960.72 1964.96 L2935.47 1971.52 L2910.11 1977.71 L2884.86 1983.53 L2859.49 1989.10 L2834.25 1994.17 L2808.88 1999.00 L2783.63 2003.58 L2758.26 2007.78 L2733.02 2011.62 L2707.65 2015.08 L2682.41 2018.30 L2657.04 2021.02 L2631.79 2023.62 L2606.42 2025.85 L2581.18 2027.83 L2555.81 2029.56 L2530.56 2031.05 L2505.20 2032.41 L2479.95 2033.52 L2454.58 2034.51 L2429.34 2035.50 L2403.97 2036.25 L2378.72 2036.99 L2353.35 2037.61 L2328.11 2038.10 L2302.74 2038.60 L2277.49 2038.97 L2252.13 2039.34 L2226.88 2039.71 L2201.51 2040.08 L2201.51 2041.94 Z" stroke-linejoin="round"/>
	</defs>
	<defs>
		<clipPath id="clipPath_CWLlynnb">
			<use xlink:href="#path_rlzOjIsk"/>
		</clipPath>
	</defs>
	<use xlink:href="#path_rlzOjIsk" style="stroke:none;fill:#E6E6E6"/>
	<use xlink:href="#path_rlzOjIsk" style="fill:none;stroke:#E0E0E0;stroke-width:14.69" clip-path="url(#clipPath_CWLlynnb)"/>
	<line x1="2201.39" y1="1996.40" x2="2204.24" y2="1996.40" style="stroke:#A0A0A0;stroke-width:7.34"/>
	<line x1="2224.41" y1="1996.40" x2="2226.76" y2="1996.40" style="stroke:#A0A0A0;stroke-width:7.34"/>
	<line x1="2226.76" y1="1996.40" x2="2227.25" y2="1996.40" style="stroke:#A0A0A0;stroke-width:7.34"/>
	<line x1="2247.42" y1="1996.40" x2="2250.27" y2="1996.40" style="stroke:#A0A0A0;stroke-width:7.34"/>
	<line x1="2270.44" y1="1996.40" x2="2273.29" y2="1996.40" style="stroke:#A0A0A0;stroke-width:7.34"/>
	<line x1="2293.46" y1="1996.40" x2="2296.43" y2="1996.40" style="stroke:#A0A0A0;stroke-width:7.34"/>
	<line x1="2316.60" y1="1996.40" x2="2319.45" y2="1996.40" style="stroke:#A0A0A0;stroke-width:7.34"/>
	<line x1="2339.62" y1="1996.40" x2="2342.46" y2="1996.40" style="stroke:#A0A0A0;stroke-width:7.34"/>
	<line x1="2362.64" y1="1996.40" x2="2365.48" y2="1996.40" style="stroke:#A0A0A0;stroke-width:7.34"/>
	<line x1="2385.65" y1="1996.40" x2="2388.50" y2="1996.40" style="stroke:#A0A0A0;stroke-width:7.34"/>
	<line x1="2408.67" y1="1996.40" x2="2411.52" y2="1996.40" style="stroke:#A0A0A0;stroke-width:7.34"/>
	<line x1="2431.69" y1="1996.40" x2="2434.53" y2="1996.40" style="stroke:#A0A0A0;stroke-width:7.34"/>
	<line x1="2454.70" y1="1996.40" x2="2457.55" y2="1996.40" style="stroke:#A0A0A0;stroke-width:7.34"/>
	<line x1="2477.72" y1="1996.40" x2="2479.83" y2="1996.40" style="stroke:#A0A0A0;stroke-width:7.34"/>
	<line x1="2479.83" y1="1996.40" x2="2480.57" y2="1996.40" style="stroke:#A0A0A0;stroke-width:7.34"/>
	<line x1="2500.74" y1="1996.40" x2="2503.59" y2="1996.40" style="stroke:#A0A0A0;stroke-width:7.34"/>
	<line x1="2523.76" y1="1996.40" x2="2526.60" y2="1996.40" style="stroke:#A0A0A0;stroke-width:7.34"/>
	<line x1="2546.78" y1="1996.40" x2="2549.74" y2="1996.40" style="stroke:#A0A0A0;stroke-width:7.34"/>
	<line x1="2569.92" y1="1996.40" x2="2572.76" y2="1996.40" style="stroke:#A0A0A0;stroke-width:7.34"/>
	<line x1="2592.93" y1="1996.40" x2="2595.78" y2="1996.40" style="stroke:#A0A0A0;stroke-width:7.34"/>
	<line x1="2615.95" y1="1996.40" x2="2618.80" y2="1996.40" style="stroke:#A0A0A0;stroke-width:7.34"/>
	<line x1="2638.97" y1="1996.40" x2="2641.82" y2="1996.40" style="stroke:#A0A0A0;stroke-width:7.34"/>
	<line x1="2661.99" y1="1996.40" x2="2664.83" y2="1996.40" style="stroke:#A0A0A0;stroke-width:7.34"/>
	<line x1="2685.00" y1="1996.40" x2="2687.85" y2="1996.40" style="stroke:#A0A0A0;stroke-width:7.34"/>
	<line x1="2708.02" y1="1996.40" x2="2710.87" y2="1996.40" style="stroke:#A0A0A0;stroke-width:7.34"/>
	<line x1="2731.04" y1="1996.40" x2="2732.89" y2="1996.40" style="stroke:#A0A0A0;stroke-width:7.34"/>
	<line x1="2732.89" y1="1996.40" x2="2733.89" y2="1996.40" style="stroke:#A0A0A0;stroke-width:7.34"/>
	<line x1="2754.06" y1="1996.40" x2="2756.90" y2="1996.40" style="stroke:#A0A0A0;stroke-width:7.34"/>
	<line x1="2777.07" y1="1996.40" x2="2779.92" y2="1996.40" style="stroke:#A0A0A0;stroke-width:7.34"/>
	<line x1="2800.09" y1="1996.40" x2="2803.06" y2="1996.40" style="stroke:#A0A0A0;stroke-width:7.34"/>
	<line x1="2823.23" y1="1996.40" x2="2826.08" y2="1996.40" style="stroke:#A0A0A0;stroke-width:7.34"/>
	<line x1="2846.25" y1="1996.40" x2="2849.10" y2="1996.40" style="stroke:#A0A0A0;stroke-width:7.34"/>
	<line x1="2869.27" y1="1996.40" x2="2872.11" y2="1996.40" style="stroke:#A0A0A0;stroke-width:7.34"/>
	<line x1="2892.28" y1="1996.40" x2="2895.13" y2="1996.40" style="stroke:#A0A0A0;stroke-width:7.34"/>
	<line x1="2915.30" y1="1996.40" x2="2918.15" y2="1996.40" style="stroke:#A0A0A0;stroke-width:7.34"/>
	<line x1="2938.32" y1="1996.40" x2="2941.17" y2="1996.40" style="stroke:#A0A0A0;stroke-width:7.34"/>
	<line x1="2961.34" y1="1996.40" x2="2964.18" y2="1996.40" style="stroke:#A0A0A0;stroke-width:7.34"/>
	<line x1="2984.36" y1="1996.40" x2="2986.09" y2="1996.40" style="stroke:#A0A0A0;stroke-width:7.34"/>
	<line x1="2986.09" y1="1996.40" x2="2987.20" y2="1996.40" style="stroke:#A0A0A0;stroke-width:7.34"/>
	<line x1="3007.37" y1="1996.40" x2="3010.22" y2="1996.40" style="stroke:#A0A0A0;stroke-width:7.34"/>
	<line x1="3030.39" y1="1996.40" x2="3033.36" y2="1996.40" style="stroke:#A0A0A0;stroke-width:7.34"/>
	<line x1="3053.41" y1="1996.40" x2="3056.38" y2="1996.40" style="stroke:#A0A0A0;stroke-width:7.34"/>
	<line x1="3076.55" y1="1996.40" x2="3079.39" y2="1996.40" style="stroke:#A0A0A0;stroke-width:7.34"/>
	<line x1="3099.57" y1="1996.40" x2="3102.41" y2="1996.40" style="stroke:#A0A0A0;stroke-width:7.34"/>
	<line x1="3122.58" y1="1996.40" x2="3125.43" y2="1996.40" style="stroke:#A0A0A0;stroke-width:7.34"/>
	<line x1="3145.60" y1="1996.40" x2="3148.45" y2="1996.40" style="stroke:#A0A0A0;stroke-width:7.34"/>
	<line x1="3168.62" y1="1996.40" x2="3171.47" y2="1996.40" style="stroke:#A0A0A0;stroke-width:7.34"/>
	<line x1="3191.64" y1="1996.40" x2="3194.48" y2="1996.40" style="stroke:#A0A0A0;stroke-width:7.34"/>
	<line x1="3214.65" y1="1996.40" x2="3217.50" y2="1996.40" style="stroke:#A0A0A0;stroke-width:7.34"/>
	<line x1="3237.67" y1="1996.40" x2="3239.16" y2="1996.40" style="stroke:#A0A0A0;stroke-width:7.34"/>
	<line x1="3239.16" y1="1996.40" x2="3240.52" y2="1996.40" style="stroke:#A0A0A0;stroke-width:7.34"/>
	<line x1="3260.69" y1="1996.40" x2="3263.53" y2="1996.40" style="stroke:#A0A0A0;stroke-width:7.34"/>
	<line x1="3283.71" y1="1996.40" x2="3286.68" y2="1996.40" style="stroke:#A0A0A0;stroke-width:7.34"/>
	<line x1="3306.72" y1="1996.40" x2="3309.69" y2="1996.40" style="stroke:#A0A0A0;stroke-width:7.34"/>
	<line x1="3329.86" y1="1996.40" x2="3332.71" y2="1996.40" style="stroke:#A0A0A0;stroke-width:7.34"/>
	<line x1="3352.88" y1="1996.40" x2="3355.73" y2="1996.40" style="stroke:#A0A0A0;stroke-width:7.34"/>
	<line x1="3375.90" y1="1996.40" x2="3378.75" y2="1996.40" style="stroke:#A0A0A0;stroke-width:7.34"/>
	<line x1="3398.92" y1="1996.40" x2="3401.76" y2="1996.40" style="stroke:#A0A0A0;stroke-width:7.34"/>
	<line x1="3421.93" y1="1996.40" x2="3424.78" y2="1996.40" style="stroke:#A0A0A0;stroke-width:7.34"/>
	<line x1="3444.95" y1="1996.40" x2="3447.80" y2="1996.40" style="stroke:#A0A0A0;stroke-width:7.34"/>
	<line x1="3467.97" y1="1996.40" x2="3470.82" y2="1996.40" style="stroke:#A0A0A0;stroke-width:7.34"/>
	<line x1="3490.99" y1="1996.40" x2="3492.22" y2="1996.40" style="stroke:#A0A0A0;stroke-width:7.34"/>
	<line x1="3492.22" y1="1996.40" x2="3493.83" y2="1996.40" style="stroke:#A0A0A0;stroke-width:7.34"/>
	<line x1="3514.01" y1="1996.40" x2="3516.85" y2="1996.40" style="stroke:#A0A0A0;stroke-width:7.34"/>
	<line x1="3537.02" y1="1996.40" x2="3539.99" y2="1996.40" style="stroke:#A0A0A0;stroke-width:7.34"/>
	<line x1="3560.04" y1="1996.40" x2="3563.01" y2="1996.40" style="stroke:#A0A0A0;stroke-width:7.34"/>
	<line x1="3583.18" y1="1996.40" x2="3586.03" y2="1996.40" style="stroke:#A0A0A0;stroke-width:7.34"/>
	<line x1="3606.20" y1="1996.40" x2="3609.05" y2="1996.40" style="stroke:#A0A0A0;stroke-width:7.34"/>
	<line x1="3629.22" y1="1996.40" x2="3632.06" y2="1996.40" style="stroke:#A0A0A0;stroke-width:7.34"/>
	<line x1="3652.23" y1="1996.40" x2="3655.08" y2="1996.40" style="stroke:#A0A0A0;stroke-width:7.34"/>
	<line x1="3675.25" y1="1996.40" x2="3678.10" y2="1996.40" style="stroke:#A0A0A0;stroke-width:7.34"/>
	<line x1="3698.27" y1="1996.40" x2="3701.11" y2="1996.40" style="stroke:#A0A0A0;stroke-width:7.34"/>
	<line x1="3721.29" y1="1996.40" x2="3724.13" y2="1996.40" style="stroke:#A0A0A0;stroke-width:7.34"/>
	<line x1="3744.30" y1="1996.40" x2="3745.29" y2="1996.40" style="stroke:#A0A0A0;stroke-width:7.34"/>
	<line x1="3745.29" y1="1996.40" x2="3747.15" y2="1996.40" style="stroke:#A0A0A0;stroke-width:7.34"/>
	<line x1="3767.32" y1="1996.40" x2="3770.17" y2="1996.40" style="stroke:#A0A0A0;stroke-width:7.34"/>
	<path d="" stroke-linejoin="round" style="fill:none;stroke:#A0A0A0;stroke-width:7.34"/>
	<path d=" M2201.39 2041.82 L2226.76 2041.82 L2252.13 2041.69 L2277.37 2041.57 L2302.74 2041.44 L2327.99 2041.20 L2353.35 2041.07 L2378.60 2040.83 L2403.97 2040.45 L2429.21 2040.21 L2454.58 2039.83 L2479.83 2039.34 L2505.20 2038.84 L2530.44 2038.23 L2555.81 2037.61 L2581.05 2036.74 L2606.42 2035.87 L2631.67 2034.88 L2657.04 2033.77 L2682.28 2032.53 L2707.65 2031.17 L2732.89 2029.69 L2758.26 2028.08 L2783.51 2026.35 L2808.88 2024.37 L2834.12 2022.39 L2859.49 2020.16 L2884.74 2017.81 L2910.11 2015.33 L2935.35 2012.73 L2960.72 2009.89 L2986.09 2006.79 L3011.33 2003.58 L3036.70 2000.11 L3061.95 1996.40 L3087.32 1992.31 L3112.56 1987.86 L3137.93 1983.03 L3163.17 1977.71 L3188.54 1971.89 L3213.79 1965.34 L3239.16 1958.16 L3264.40 1950.11 L3289.77 1941.33 L3315.01 1931.43 L3340.38 1920.41 L3365.63 1908.28 L3391.00 1894.67 L3416.24 1879.57 L3441.61 1862.74 L3466.86 1844.06 L3492.22 1823.14 L3517.47 1800.00 L3542.84 1774.14 L3568.08 1745.30 L3593.45 1713.12 L3618.70 1677.48 L3644.07 1637.63 L3669.31 1593.33 L3694.68 1543.95 L3719.93 1489.01 L3745.29 1428.00 L3770.66 1359.93" stroke-linejoin="round" style="fill:none;stroke:#008000;stroke-width:7.34"/>
	<path d=" M2201.39 2041.44 L2226.76 2041.32 L2252.13 2041.20 L2277.37 2040.95 L2302.74 2040.70 L2327.99 2040.33 L2353.35 2039.96 L2378.60 2039.59 L2403.97 2039.09 L2429.21 2038.47 L2454.58 2037.85 L2479.83 2036.99 L2505.20 2036.12 L2530.44 2035.01 L2555.81 2033.89 L2581.05 2032.41 L2606.42 2030.92 L2631.67 2029.19 L2657.04 2027.21 L2682.28 2024.98 L2707.65 2022.51 L2732.89 2019.79 L2758.26 2016.94 L2783.51 2013.72 L2808.88 2010.38 L2834.12 2006.79 L2859.49 2002.83 L2884.74 1998.75 L2910.11 1994.29 L2935.35 1989.59 L2960.72 1984.52 L2986.09 1979.20 L3011.33 1973.38 L3036.70 1967.19 L3061.95 1960.51 L3087.32 1953.21 L3112.56 1945.29 L3137.93 1936.75 L3163.17 1927.34 L3188.54 1916.95 L3213.79 1905.31 L3239.16 1892.57 L3264.40 1878.34 L3289.77 1862.50 L3315.01 1844.92 L3340.38 1825.37 L3365.63 1803.71 L3391.00 1779.58 L3416.24 1752.73 L3441.61 1722.78 L3466.86 1689.49 L3492.22 1652.36 L3517.47 1611.03 L3542.84 1565.12 L3568.08 1513.88 L3593.45 1456.71 L3618.70 1393.22 L3644.07 1322.43 L3669.31 1243.73 L3694.68 1155.98 L3719.93 1058.47 L3745.29 949.93 L3770.66 829.15" stroke-linejoin="round" style="fill:none;stroke:#FF7F00;stroke-width:7.34"/>
	<path d=" M2201.39 2042.06 L2226.76 2042.06 L2252.13 2042.06 L2277.37 2041.94 L2302.74 2041.94 L2327.99 2041.82 L2353.35 2041.69 L2378.60 2041.57 L2403.97 2041.44 L2429.21 2041.32 L2454.58 2041.07 L2479.83 2040.95 L2505.20 2040.70 L2530.44 2040.45 L2555.81 2040.08 L2581.05 2039.71 L2606.42 2039.34 L2631.67 2038.84 L2657.04 2038.35 L2682.28 2037.73 L2707.65 2037.11 L2732.89 2036.37 L2758.26 2035.63 L2783.51 2034.76 L2808.88 2033.89 L2834.12 2032.90 L2859.49 2031.91 L2884.74 2030.80 L2910.11 2029.56 L2935.35 2028.33 L2960.72 2026.96 L2986.09 2025.60 L3011.33 2023.99 L3036.70 2022.39 L3061.95 2020.65 L3087.32 2018.67 L3112.56 2016.57 L3137.93 2014.34 L3163.17 2011.87 L3188.54 2009.02 L3213.79 2006.05 L3239.16 2002.59 L3264.40 1998.87 L3289.77 1994.66 L3315.01 1989.96 L3340.38 1984.76 L3365.63 1979.07 L3391.00 1972.64 L3416.24 1965.46 L3441.61 1957.54 L3466.86 1948.63 L3492.22 1938.85 L3517.47 1927.84 L3542.84 1915.59 L3568.08 1901.97 L3593.45 1886.88 L3618.70 1869.92 L3644.07 1851.11 L3669.31 1830.20 L3694.68 1806.81 L3719.93 1780.94 L3745.29 1751.98 L3770.66 1719.81" stroke-linejoin="round" style="fill:none;stroke:#1A476F;stroke-width:7.34"/>
	<line x1="401.69" y1="2096.14" x2="401.69" y2="402.82" style="stroke:#000000;stroke-width:4.90"/>
	<line x1="401.69" y1="2042.31" x2="367.66" y2="2042.31" style="stroke:#000000;stroke-width:4.90"/>
	<text x="350.71" y="2072.10" style="font-family:'Helvetica';font-size:85.02px;fill:#000000" text-anchor="end">0</text>
	<line x1="401.69" y1="1827.72" x2="367.66" y2="1827.72" style="stroke:#000000;stroke-width:4.90"/>
	<text x="350.71" y="1857.51" style="font-family:'Helvetica';font-size:85.02px;fill:#000000" text-anchor="end">.001</text>
	<line x1="401.69" y1="1613.26" x2="367.66" y2="1613.26" style="stroke:#000000;stroke-width:4.90"/>
	<text x="350.71" y="1643.04" style="font-family:'Helvetica';font-size:85.02px;fill:#000000" text-anchor="end">.002</text>
	<line x1="401.69" y1="1398.67" x2="367.66" y2="1398.67" style="stroke:#000000;stroke-width:4.90"/>
	<text x="350.71" y="1428.45" style="font-family:'Helvetica';font-size:85.02px;fill:#000000" text-anchor="end">.003</text>
	<line x1="401.69" y1="1184.20" x2="367.66" y2="1184.20" style="stroke:#000000;stroke-width:4.90"/>
	<text x="350.71" y="1213.99" style="font-family:'Helvetica';font-size:85.02px;fill:#000000" text-anchor="end">.004</text>
	<line x1="401.69" y1="969.61" x2="367.66" y2="969.61" style="stroke:#000000;stroke-width:4.90"/>
	<text x="350.71" y="999.40" style="font-family:'Helvetica';font-size:85.02px;fill:#000000" text-anchor="end">.005</text>
	<line x1="401.69" y1="2096.14" x2="2078.51" y2="2096.14" style="stroke:#000000;stroke-width:4.90"/>
	<line x1="506.14" y1="2096.14" x2="506.14" y2="2113.10" style="stroke:#000000;stroke-width:4.90"/>
	<line x1="632.73" y1="2096.14" x2="632.73" y2="2113.10" style="stroke:#000000;stroke-width:4.90"/>
	<line x1="759.21" y1="2096.14" x2="759.21" y2="2113.10" style="stroke:#000000;stroke-width:4.90"/>
	<line x1="885.80" y1="2096.14" x2="885.80" y2="2113.10" style="stroke:#000000;stroke-width:4.90"/>
	<line x1="1012.27" y1="2096.14" x2="1012.27" y2="2113.10" style="stroke:#000000;stroke-width:4.90"/>
	<line x1="1138.87" y1="2096.14" x2="1138.87" y2="2113.10" style="stroke:#000000;stroke-width:4.90"/>
	<line x1="1265.47" y1="2096.14" x2="1265.47" y2="2113.10" style="stroke:#000000;stroke-width:4.90"/>
	<line x1="1391.94" y1="2096.14" x2="1391.94" y2="2113.10" style="stroke:#000000;stroke-width:4.90"/>
	<line x1="1518.54" y1="2096.14" x2="1518.54" y2="2113.10" style="stroke:#000000;stroke-width:4.90"/>
	<line x1="1645.01" y1="2096.14" x2="1645.01" y2="2113.10" style="stroke:#000000;stroke-width:4.90"/>
	<line x1="1771.61" y1="2096.14" x2="1771.61" y2="2113.10" style="stroke:#000000;stroke-width:4.90"/>
	<line x1="1898.20" y1="2096.14" x2="1898.20" y2="2113.10" style="stroke:#000000;stroke-width:4.90"/>
	<line x1="2024.67" y1="2096.14" x2="2024.67" y2="2113.10" style="stroke:#000000;stroke-width:4.90"/>
	<line x1="506.14" y1="2096.14" x2="506.14" y2="2130.18" style="stroke:#000000;stroke-width:4.90"/>
	<text x="506.14" y="2206.58" style="font-family:'Helvetica';font-size:85.02px;fill:#000000" text-anchor="middle">20</text>
	<line x1="1012.27" y1="2096.14" x2="1012.27" y2="2130.18" style="stroke:#000000;stroke-width:4.90"/>
	<text x="1012.27" y="2206.58" style="font-family:'Helvetica';font-size:85.02px;fill:#000000" text-anchor="middle">40</text>
	<line x1="1518.54" y1="2096.14" x2="1518.54" y2="2130.18" style="stroke:#000000;stroke-width:4.90"/>
	<text x="1518.54" y="2206.58" style="font-family:'Helvetica';font-size:85.02px;fill:#000000" text-anchor="middle">60</text>
	<line x1="2024.67" y1="2096.14" x2="2024.67" y2="2130.18" style="stroke:#000000;stroke-width:4.90"/>
	<text x="2024.67" y="2206.58" style="font-family:'Helvetica';font-size:85.02px;fill:#000000" text-anchor="middle">80</text>
	<line x1="2147.68" y1="2096.14" x2="3824.49" y2="2096.14" style="stroke:#000000;stroke-width:4.90"/>
	<line x1="2252.13" y1="2096.14" x2="2252.13" y2="2113.10" style="stroke:#000000;stroke-width:4.90"/>
	<line x1="2378.72" y1="2096.14" x2="2378.72" y2="2113.10" style="stroke:#000000;stroke-width:4.90"/>
	<line x1="2505.20" y1="2096.14" x2="2505.20" y2="2113.10" style="stroke:#000000;stroke-width:4.90"/>
	<line x1="2631.79" y1="2096.14" x2="2631.79" y2="2113.10" style="stroke:#000000;stroke-width:4.90"/>
	<line x1="2758.26" y1="2096.14" x2="2758.26" y2="2113.10" style="stroke:#000000;stroke-width:4.90"/>
	<line x1="2884.86" y1="2096.14" x2="2884.86" y2="2113.10" style="stroke:#000000;stroke-width:4.90"/>
	<line x1="3011.46" y1="2096.14" x2="3011.46" y2="2113.10" style="stroke:#000000;stroke-width:4.90"/>
	<line x1="3137.93" y1="2096.14" x2="3137.93" y2="2113.10" style="stroke:#000000;stroke-width:4.90"/>
	<line x1="3264.53" y1="2096.14" x2="3264.53" y2="2113.10" style="stroke:#000000;stroke-width:4.90"/>
	<line x1="3391.00" y1="2096.14" x2="3391.00" y2="2113.10" style="stroke:#000000;stroke-width:4.90"/>
	<line x1="3517.59" y1="2096.14" x2="3517.59" y2="2113.10" style="stroke:#000000;stroke-width:4.90"/>
	<line x1="3644.07" y1="2096.14" x2="3644.07" y2="2113.10" style="stroke:#000000;stroke-width:4.90"/>
	<line x1="3770.66" y1="2096.14" x2="3770.66" y2="2113.10" style="stroke:#000000;stroke-width:4.90"/>
	<line x1="2252.13" y1="2096.14" x2="2252.13" y2="2130.18" style="stroke:#000000;stroke-width:4.90"/>
	<text x="2252.13" y="2206.58" style="font-family:'Helvetica';font-size:85.02px;fill:#000000" text-anchor="middle">20</text>
	<line x1="2758.26" y1="2096.14" x2="2758.26" y2="2130.18" style="stroke:#000000;stroke-width:4.90"/>
	<text x="2758.26" y="2206.58" style="font-family:'Helvetica';font-size:85.02px;fill:#000000" text-anchor="middle">40</text>
	<line x1="3264.53" y1="2096.14" x2="3264.53" y2="2130.18" style="stroke:#000000;stroke-width:4.90"/>
	<text x="3264.53" y="2206.58" style="font-family:'Helvetica';font-size:85.02px;fill:#000000" text-anchor="middle">60</text>
	<line x1="3770.66" y1="2096.14" x2="3770.66" y2="2130.18" style="stroke:#000000;stroke-width:4.90"/>
	<text x="3770.66" y="2206.58" style="font-family:'Helvetica';font-size:85.02px;fill:#000000" text-anchor="middle">80</text>
	<rect x="401.69" y="279.93" width="1676.81" height="122.89" style="fill:#D9E6EB"/>
	<rect x="404.14" y="282.38" width="1671.92" height="117.99" style="fill:none;stroke:#D9E6EB;stroke-width:4.90"/>
	<text x="1240.10" y="359.96" style="font-family:'Helvetica';font-size:93.56px;fill:#000000" text-anchor="middle">Female</text>
	<rect x="2147.68" y="279.93" width="1676.81" height="122.89" style="fill:#D9E6EB"/>
	<rect x="2150.13" y="282.38" width="1671.92" height="117.99" style="fill:none;stroke:#D9E6EB;stroke-width:4.90"/>
	<text x="2986.09" y="359.96" style="font-family:'Helvetica';font-size:93.56px;fill:#000000" text-anchor="middle">Male</text>
	<rect x="592.39" y="2418.27" width="2775.09" height="326.34" style="fill:#FFFFFF"/>
	<rect x="595.27" y="2421.15" width="2769.33" height="320.58" style="fill:none;stroke:#000000;stroke-width:5.76"/>
	<line x1="635.58" y1="2511.46" x2="1009.92" y2="2511.46" style="stroke:#008000;stroke-width:8.64"/>
	<line x1="635.58" y1="2651.43" x2="1009.92" y2="2651.43" style="stroke:#FF7F00;stroke-width:8.64"/>
	<line x1="1971.21" y1="2511.46" x2="2345.56" y2="2511.46" style="stroke:#1A476F;stroke-width:8.64"/>
	<line x1="1971.21" y1="2651.43" x2="1974.06" y2="2651.43" style="stroke:#A0A0A0;stroke-width:8.64"/>
	<line x1="1994.23" y1="2651.43" x2="1997.08" y2="2651.43" style="stroke:#A0A0A0;stroke-width:8.64"/>
	<line x1="2017.25" y1="2651.43" x2="2020.10" y2="2651.43" style="stroke:#A0A0A0;stroke-width:8.64"/>
	<line x1="2040.27" y1="2651.43" x2="2043.24" y2="2651.43" style="stroke:#A0A0A0;stroke-width:8.64"/>
	<line x1="2063.28" y1="2651.43" x2="2066.25" y2="2651.43" style="stroke:#A0A0A0;stroke-width:8.64"/>
	<line x1="2086.43" y1="2651.43" x2="2089.27" y2="2651.43" style="stroke:#A0A0A0;stroke-width:8.64"/>
	<line x1="2109.44" y1="2651.43" x2="2112.29" y2="2651.43" style="stroke:#A0A0A0;stroke-width:8.64"/>
	<line x1="2132.46" y1="2651.43" x2="2135.31" y2="2651.43" style="stroke:#A0A0A0;stroke-width:8.64"/>
	<line x1="2155.48" y1="2651.43" x2="2158.32" y2="2651.43" style="stroke:#A0A0A0;stroke-width:8.64"/>
	<line x1="2178.49" y1="2651.43" x2="2181.34" y2="2651.43" style="stroke:#A0A0A0;stroke-width:8.64"/>
	<line x1="2201.51" y1="2651.43" x2="2204.36" y2="2651.43" style="stroke:#A0A0A0;stroke-width:8.64"/>
	<line x1="2224.53" y1="2651.43" x2="2227.38" y2="2651.43" style="stroke:#A0A0A0;stroke-width:8.64"/>
	<line x1="2247.55" y1="2651.43" x2="2250.39" y2="2651.43" style="stroke:#A0A0A0;stroke-width:8.64"/>
	<line x1="2270.57" y1="2651.43" x2="2273.41" y2="2651.43" style="stroke:#A0A0A0;stroke-width:8.64"/>
	<line x1="2293.58" y1="2651.43" x2="2296.55" y2="2651.43" style="stroke:#A0A0A0;stroke-width:8.64"/>
	<line x1="2316.60" y1="2651.43" x2="2319.57" y2="2651.43" style="stroke:#A0A0A0;stroke-width:8.64"/>
	<line x1="2339.74" y1="2651.43" x2="2342.59" y2="2651.43" style="stroke:#A0A0A0;stroke-width:8.64"/>
	<text x="1069.94" y="2546.49" style="font-family:'Helvetica';font-size:99.99px;fill:#000000">1 comorbidity</text>
	<text x="1069.94" y="2686.46" style="font-family:'Helvetica';font-size:99.99px;fill:#000000">2+ comorbidities</text>
	<text x="2405.58" y="2546.49" style="font-family:'Helvetica';font-size:99.99px;fill:#000000">No comborbidity</text>
	<text x="2405.58" y="2686.46" style="font-family:'Helvetica';font-size:99.99px;fill:#000000">Ref (Age 65, White)</text>
	<text x="1980.00" y="2353.56" style="font-family:'Helvetica';font-size:99.99px;fill:#000000" text-anchor="middle">Age (years)</text>
	<text x="1980.00" y="195.01" style="font-family:'Helvetica';font-size:110.01px;fill:#000000" text-anchor="middle">Ethnicity Mixed</text>
</svg>
