<?xml version="1.0" encoding="UTF-8" standalone="no"?>
<!-- This is a Stata 16.1 generated SVG file (http://www.stata.com) -->

<svg version="1.1" width="1600px" height="1164px" viewBox="0 0 3960 2880" xmlns="http://www.w3.org/2000/svg" xmlns:xlink="http://www.w3.org/1999/xlink">
	<desc>Stata Graph - Graph</desc>
	<rect x="0" y="0" width="3960" height="2880" style="fill:#EAF2F3;stroke:none"/>
	<rect x="0.00" y="0.00" width="3959.88" height="2880.00" style="fill:#EAF2F3"/>
	<rect x="2.88" y="2.88" width="3954.12" height="2874.24" style="fill:none;stroke:#EAF2F3;stroke-width:5.76"/>
	<rect x="401.69" y="258.27" width="1676.81" height="1837.87" style="fill:#FFFFFF"/>
	<rect x="404.14" y="260.72" width="1671.92" height="1832.97" style="fill:none;stroke:#FFFFFF;stroke-width:4.90"/>
	<line x1="401.69" y1="2042.31" x2="2078.51" y2="2042.31" style="stroke:#EAF2F3;stroke-width:7.34"/>
	<line x1="401.69" y1="1850.00" x2="2078.51" y2="1850.00" style="stroke:#EAF2F3;stroke-width:7.34"/>
	<line x1="401.69" y1="1657.81" x2="2078.51" y2="1657.81" style="stroke:#EAF2F3;stroke-width:7.34"/>
	<line x1="401.69" y1="1465.49" x2="2078.51" y2="1465.49" style="stroke:#EAF2F3;stroke-width:7.34"/>
	<line x1="401.69" y1="1273.30" x2="2078.51" y2="1273.30" style="stroke:#EAF2F3;stroke-width:7.34"/>
	<line x1="401.69" y1="1081.11" x2="2078.51" y2="1081.11" style="stroke:#EAF2F3;stroke-width:7.34"/>
	<line x1="401.69" y1="888.80" x2="2078.51" y2="888.80" style="stroke:#EAF2F3;stroke-width:7.34"/>
	<line x1="401.69" y1="696.61" x2="2078.51" y2="696.61" style="stroke:#EAF2F3;stroke-width:7.34"/>
	<line x1="401.69" y1="504.30" x2="2078.51" y2="504.30" style="stroke:#EAF2F3;stroke-width:7.34"/>
	<rect x="2147.68" y="258.27" width="1676.81" height="1837.87" style="fill:#FFFFFF"/>
	<rect x="2150.13" y="260.72" width="1671.92" height="1832.97" style="fill:none;stroke:#FFFFFF;stroke-width:4.90"/>
	<line x1="2147.68" y1="2042.31" x2="3824.49" y2="2042.31" style="stroke:#EAF2F3;stroke-width:7.34"/>
	<line x1="2147.68" y1="1850.00" x2="3824.49" y2="1850.00" style="stroke:#EAF2F3;stroke-width:7.34"/>
	<line x1="2147.68" y1="1657.81" x2="3824.49" y2="1657.81" style="stroke:#EAF2F3;stroke-width:7.34"/>
	<line x1="2147.68" y1="1465.49" x2="3824.49" y2="1465.49" style="stroke:#EAF2F3;stroke-width:7.34"/>
	<line x1="2147.68" y1="1273.30" x2="3824.49" y2="1273.30" style="stroke:#EAF2F3;stroke-width:7.34"/>
	<line x1="2147.68" y1="1081.11" x2="3824.49" y2="1081.11" style="stroke:#EAF2F3;stroke-width:7.34"/>
	<line x1="2147.68" y1="888.80" x2="3824.49" y2="888.80" style="stroke:#EAF2F3;stroke-width:7.34"/>
	<line x1="2147.68" y1="696.61" x2="3824.49" y2="696.61" style="stroke:#EAF2F3;stroke-width:7.34"/>
	<line x1="2147.68" y1="504.30" x2="3824.49" y2="504.30" style="stroke:#EAF2F3;stroke-width:7.34"/>
	<defs>
		<path id="path_tCUAyfGV" d="M455.52 2032.66 L455.52 2032.66 L480.89 2031.79 L506.14 2030.68 L531.51 2029.56 L556.75 2028.33 L582.12 2026.96 L607.37 2025.48 L632.73 2023.87 L657.98 2022.14 L683.35 2020.28 L708.59 2018.30 L733.96 2016.20 L759.21 2013.97 L784.58 2011.62 L809.82 2009.27 L835.19 2006.67 L860.43 2004.19 L885.80 2001.60 L911.05 1999.00 L936.42 1996.40 L961.66 1993.80 L987.03 1991.32 L1012.27 1988.85 L1037.64 1986.62 L1062.89 1984.52 L1088.26 1982.41 L1113.50 1980.56 L1138.87 1978.82 L1164.24 1977.09 L1189.48 1975.48 L1214.85 1973.87 L1240.10 1972.39 L1265.47 1970.90 L1290.71 1969.42 L1316.08 1967.93 L1341.33 1966.33 L1366.69 1964.59 L1391.94 1962.74 L1417.31 1960.63 L1442.55 1958.28 L1467.92 1955.68 L1493.17 1952.84 L1518.54 1949.49 L1543.78 1945.91 L1569.15 1941.95 L1594.39 1937.49 L1619.76 1932.66 L1645.01 1927.34 L1670.38 1921.65 L1695.62 1915.34 L1720.99 1908.41 L1746.24 1900.98 L1771.61 1892.82 L1796.85 1884.03 L1822.22 1874.62 L1847.46 1864.35 L1872.83 1853.34 L1898.20 1841.33 L1923.45 1828.46 L1948.82 1814.73 L1974.06 1799.88 L1999.43 1784.04 L2024.67 1766.96 L2024.67 1729.96 L1999.43 1749.38 L1974.06 1767.58 L1948.82 1784.41 L1923.45 1800.12 L1898.20 1814.73 L1872.83 1828.22 L1847.46 1840.72 L1822.22 1852.35 L1796.85 1863.11 L1771.61 1873.01 L1746.24 1882.17 L1720.99 1890.59 L1695.62 1898.38 L1670.38 1905.56 L1645.01 1912.12 L1619.76 1918.06 L1594.39 1923.63 L1569.15 1928.58 L1543.78 1933.16 L1518.54 1937.24 L1493.17 1941.08 L1467.92 1944.42 L1442.55 1947.39 L1417.31 1949.99 L1391.94 1952.34 L1366.69 1954.44 L1341.33 1956.30 L1316.08 1958.16 L1290.71 1959.77 L1265.47 1961.38 L1240.10 1962.98 L1214.85 1964.59 L1189.48 1966.33 L1164.24 1968.06 L1138.87 1969.79 L1113.50 1971.77 L1088.26 1973.87 L1062.89 1976.10 L1037.64 1978.58 L1012.27 1981.18 L987.03 1983.90 L961.66 1986.87 L936.42 1989.71 L911.05 1992.68 L885.80 1995.65 L860.43 1998.62 L835.19 2001.47 L809.82 2004.19 L784.58 2006.79 L759.21 2009.27 L733.96 2011.74 L708.59 2013.97 L683.35 2016.07 L657.98 2018.05 L632.73 2019.79 L607.37 2021.52 L582.12 2023.13 L556.75 2024.61 L531.51 2025.97 L506.14 2027.21 L480.89 2028.33 L455.52 2029.44 L455.52 2032.66 Z" stroke-linejoin="round"/>
	</defs>
	<defs>
		<clipPath id="clipPath_FlKtIlAO">
			<use xlink:href="#path_tCUAyfGV"/>
		</clipPath>
	</defs>
	<use xlink:href="#path_tCUAyfGV" style="stroke:none;fill:#E6E6E6"/>
	<use xlink:href="#path_tCUAyfGV" style="fill:none;stroke:#E0E0E0;stroke-width:14.69" clip-path="url(#clipPath_FlKtIlAO)"/>
	<defs>
		<path id="path_WqhBXHyK" d="M455.52 2026.22 L455.52 2026.22 L480.89 2024.61 L506.14 2022.88 L531.51 2021.02 L556.75 2018.92 L582.12 2016.69 L607.37 2014.22 L632.73 2011.50 L657.98 2008.65 L683.35 2005.56 L708.59 2002.21 L733.96 1998.75 L759.21 1995.04 L784.58 1991.20 L809.82 1987.12 L835.19 1983.03 L860.43 1978.82 L885.80 1974.49 L911.05 1970.16 L936.42 1965.83 L961.66 1961.50 L987.03 1957.29 L1012.27 1953.33 L1037.64 1949.49 L1062.89 1945.91 L1088.26 1942.56 L1113.50 1939.47 L1138.87 1936.50 L1164.24 1933.65 L1189.48 1931.06 L1214.85 1928.46 L1240.10 1925.98 L1265.47 1923.51 L1290.71 1921.03 L1316.08 1918.56 L1341.33 1915.83 L1366.69 1912.99 L1391.94 1909.89 L1417.31 1906.43 L1442.55 1902.59 L1467.92 1898.26 L1493.17 1893.31 L1518.54 1887.87 L1543.78 1881.80 L1569.15 1875.12 L1594.39 1867.82 L1619.76 1859.77 L1645.01 1850.86 L1670.38 1841.21 L1695.62 1830.69 L1720.99 1819.31 L1746.24 1806.81 L1771.61 1793.32 L1796.85 1778.71 L1822.22 1762.87 L1847.46 1745.67 L1872.83 1727.23 L1898.20 1707.31 L1923.45 1685.90 L1948.82 1662.76 L1974.06 1638.01 L1999.43 1611.52 L2024.67 1583.06 L2024.67 1510.54 L1999.43 1543.58 L1974.06 1574.40 L1948.82 1602.98 L1923.45 1629.71 L1898.20 1654.47 L1872.83 1677.48 L1847.46 1698.77 L1822.22 1718.45 L1796.85 1736.76 L1771.61 1753.59 L1746.24 1769.19 L1720.99 1783.54 L1695.62 1796.78 L1670.38 1808.91 L1645.01 1820.05 L1619.76 1830.32 L1594.39 1839.72 L1569.15 1848.26 L1543.78 1856.06 L1518.54 1863.11 L1493.17 1869.43 L1467.92 1875.12 L1442.55 1880.19 L1417.31 1884.65 L1391.94 1888.73 L1366.69 1892.32 L1341.33 1895.54 L1316.08 1898.63 L1290.71 1901.48 L1265.47 1904.20 L1240.10 1906.92 L1214.85 1909.77 L1189.48 1912.49 L1164.24 1915.46 L1138.87 1918.68 L1113.50 1922.02 L1088.26 1925.61 L1062.89 1929.45 L1037.64 1933.65 L1012.27 1938.11 L987.03 1942.81 L961.66 1947.64 L936.42 1952.71 L911.05 1957.79 L885.80 1962.86 L860.43 1967.81 L835.19 1972.64 L809.82 1977.34 L784.58 1981.79 L759.21 1986.13 L733.96 1990.21 L708.59 1994.05 L683.35 1997.63 L657.98 2000.98 L632.73 2004.07 L607.37 2007.04 L582.12 2009.76 L556.75 2012.24 L531.51 2014.59 L506.14 2016.69 L480.89 2018.67 L455.52 2020.41 L455.52 2026.22 Z" stroke-linejoin="round"/>
	</defs>
	<defs>
		<clipPath id="clipPath_JOrTgpdk">
			<use xlink:href="#path_WqhBXHyK"/>
		</clipPath>
	</defs>
	<use xlink:href="#path_WqhBXHyK" style="stroke:none;fill:#E6E6E6"/>
	<use xlink:href="#path_WqhBXHyK" style="fill:none;stroke:#E0E0E0;stroke-width:14.69" clip-path="url(#clipPath_JOrTgpdk)"/>
	<defs>
		<path id="path_ZDjATFBM" d="M455.52 2020.03 L455.52 2020.03 L480.89 2017.93 L506.14 2015.46 L531.51 2012.86 L556.75 2010.01 L582.12 2006.92 L607.37 2003.45 L632.73 1999.74 L657.98 1995.90 L683.35 1991.57 L708.59 1987.12 L733.96 1982.29 L759.21 1977.22 L784.58 1971.89 L809.82 1966.45 L835.19 1960.76 L860.43 1954.94 L885.80 1949.00 L911.05 1942.94 L936.42 1937.00 L961.66 1931.18 L987.03 1925.36 L1012.27 1919.92 L1037.64 1914.72 L1062.89 1909.77 L1088.26 1905.07 L1113.50 1900.74 L1138.87 1896.65 L1164.24 1892.82 L1189.48 1889.23 L1214.85 1885.64 L1240.10 1882.17 L1265.47 1878.83 L1290.71 1875.49 L1316.08 1871.90 L1341.33 1868.19 L1366.69 1864.35 L1391.94 1860.02 L1417.31 1855.32 L1442.55 1850.00 L1467.92 1843.93 L1493.17 1837.25 L1518.54 1829.70 L1543.78 1821.41 L1569.15 1812.25 L1594.39 1802.10 L1619.76 1791.09 L1645.01 1778.84 L1670.38 1765.60 L1695.62 1751.12 L1720.99 1735.40 L1746.24 1718.32 L1771.61 1699.76 L1796.85 1679.71 L1822.22 1657.93 L1847.46 1634.42 L1872.83 1609.17 L1898.20 1581.82 L1923.45 1552.37 L1948.82 1520.69 L1974.06 1486.78 L1999.43 1450.40 L2024.67 1411.41 L2024.67 1288.90 L1999.43 1335.80 L1974.06 1379.48 L1948.82 1420.08 L1923.45 1457.94 L1898.20 1493.09 L1872.83 1525.64 L1847.46 1555.83 L1822.22 1583.80 L1796.85 1609.79 L1771.61 1633.67 L1746.24 1655.70 L1720.99 1676.12 L1695.62 1694.81 L1670.38 1712.01 L1645.01 1727.85 L1619.76 1742.33 L1594.39 1755.70 L1569.15 1767.70 L1543.78 1778.71 L1518.54 1788.74 L1493.17 1797.65 L1467.92 1805.82 L1442.55 1812.87 L1417.31 1819.31 L1391.94 1824.87 L1366.69 1829.95 L1341.33 1834.65 L1316.08 1838.86 L1290.71 1842.94 L1265.47 1846.90 L1240.10 1850.74 L1214.85 1854.70 L1189.48 1858.66 L1164.24 1862.87 L1138.87 1867.32 L1113.50 1872.02 L1088.26 1877.10 L1062.89 1882.67 L1037.64 1888.48 L1012.27 1894.80 L987.03 1901.48 L961.66 1908.41 L936.42 1915.46 L911.05 1922.64 L885.80 1929.82 L860.43 1936.87 L835.19 1943.68 L809.82 1950.36 L784.58 1956.80 L759.21 1962.86 L733.96 1968.68 L708.59 1974.12 L683.35 1979.20 L657.98 1984.02 L632.73 1988.48 L607.37 1992.56 L582.12 1996.40 L556.75 1999.99 L531.51 2003.33 L506.14 2006.30 L480.89 2009.02 L455.52 2011.62 L455.52 2020.03 Z" stroke-linejoin="round"/>
	</defs>
	<defs>
		<clipPath id="clipPath_BleADLAm">
			<use xlink:href="#path_ZDjATFBM"/>
		</clipPath>
	</defs>
	<use xlink:href="#path_ZDjATFBM" style="stroke:none;fill:#E6E6E6"/>
	<use xlink:href="#path_ZDjATFBM" style="fill:none;stroke:#E0E0E0;stroke-width:14.69" clip-path="url(#clipPath_BleADLAm)"/>
	<path d=" M455.52 2023.62 L480.77 2021.89 L506.14 2020.03 L531.38 2018.05 L556.75 2015.83 L582.00 2013.48 L607.37 2010.88 L632.61 2008.03 L657.98 2005.06 L683.22 2001.84 L708.59 1998.38 L733.84 1994.66 L759.21 1990.83 L784.45 1986.74 L809.82 1982.54 L835.07 1978.08 L860.43 1973.50 L885.68 1968.92 L911.05 1964.22 L936.29 1959.52 L961.66 1954.94 L986.91 1950.36 L1012.27 1946.03 L1037.52 1941.95 L1062.89 1938.11 L1088.13 1934.52 L1113.50 1931.18 L1138.87 1927.96 L1164.12 1924.99 L1189.48 1922.15 L1214.73 1919.55 L1240.10 1916.95 L1265.34 1914.35 L1290.71 1911.63 L1315.96 1909.03 L1341.33 1906.18 L1366.57 1903.09 L1391.94 1899.75 L1417.18 1896.03 L1442.55 1891.83 L1467.80 1887.12 L1493.17 1881.93 L1518.41 1875.98 L1543.78 1869.43 L1569.03 1862.25 L1594.39 1854.33 L1619.64 1845.67 L1645.01 1836.14 L1670.25 1825.74 L1695.62 1814.48 L1720.87 1802.10 L1746.24 1788.74 L1771.48 1774.26 L1796.85 1758.54 L1822.10 1741.59 L1847.46 1723.15 L1872.71 1703.35 L1898.08 1681.94 L1923.45 1658.92 L1948.69 1634.05 L1974.06 1607.44 L1999.31 1578.85 L2024.67 1548.16" stroke-linejoin="round" style="fill:none;stroke:#008000;stroke-width:7.34"/>
	<path d=" M455.52 2016.20 L480.77 2013.85 L506.14 2011.25 L531.38 2008.53 L556.75 2005.43 L582.00 2002.09 L607.37 1998.38 L632.61 1994.54 L657.98 1990.33 L683.22 1985.75 L708.59 1980.93 L733.84 1975.85 L759.21 1970.41 L784.45 1964.72 L809.82 1958.78 L835.07 1952.71 L860.43 1946.40 L885.68 1939.84 L911.05 1933.41 L936.29 1926.85 L961.66 1920.29 L986.91 1913.98 L1012.27 1907.91 L1037.52 1902.22 L1062.89 1896.90 L1088.13 1891.83 L1113.50 1887.12 L1138.87 1882.79 L1164.12 1878.58 L1189.48 1874.62 L1214.73 1870.91 L1240.10 1867.20 L1265.34 1863.61 L1290.71 1860.02 L1315.96 1856.18 L1341.33 1852.22 L1366.57 1848.02 L1391.94 1843.31 L1417.18 1838.12 L1442.55 1832.30 L1467.80 1825.74 L1493.17 1818.44 L1518.41 1810.15 L1543.78 1801.11 L1569.03 1791.09 L1594.39 1779.95 L1619.64 1767.82 L1645.01 1754.58 L1670.25 1740.10 L1695.62 1724.26 L1720.87 1707.18 L1746.24 1688.50 L1771.48 1668.20 L1796.85 1646.30 L1822.10 1622.66 L1847.46 1596.92 L1872.71 1569.32 L1898.08 1539.37 L1923.45 1507.32 L1948.69 1472.67 L1974.06 1435.54 L1999.31 1395.70 L2024.67 1353.00" stroke-linejoin="round" style="fill:none;stroke:#FF7F00;stroke-width:7.34"/>
	<path d=" M455.52 2031.30 L480.77 2030.18 L506.14 2029.19 L531.38 2027.95 L556.75 2026.59 L582.00 2025.23 L607.37 2023.62 L632.61 2022.01 L657.98 2020.28 L683.22 2018.30 L708.59 2016.32 L733.84 2014.09 L759.21 2011.74 L784.45 2009.39 L809.82 2006.79 L835.07 2004.19 L860.43 2001.60 L885.68 1998.75 L911.05 1996.03 L936.29 1993.18 L961.66 1990.46 L986.91 1987.86 L1012.27 1985.26 L1037.52 1982.78 L1062.89 1980.56 L1088.13 1978.33 L1113.50 1976.35 L1138.87 1974.49 L1164.12 1972.76 L1189.48 1971.03 L1214.73 1969.54 L1240.10 1967.93 L1265.34 1966.45 L1290.71 1964.84 L1315.96 1963.23 L1341.33 1961.50 L1366.57 1959.77 L1391.94 1957.79 L1417.18 1955.56 L1442.55 1953.08 L1467.80 1950.24 L1493.17 1947.14 L1518.41 1943.68 L1543.78 1939.84 L1569.03 1935.51 L1594.39 1930.81 L1619.64 1925.61 L1645.01 1920.04 L1670.25 1913.85 L1695.62 1907.17 L1720.87 1899.87 L1746.24 1891.95 L1771.48 1883.29 L1796.85 1874.00 L1822.10 1863.86 L1847.46 1852.97 L1872.71 1841.21 L1898.08 1828.46 L1923.45 1814.85 L1948.69 1800.12 L1974.06 1784.28 L1999.31 1767.33 L2024.67 1749.14" stroke-linejoin="round" style="fill:none;stroke:#1A476F;stroke-width:7.34"/>
	<line x1="455.52" y1="1920.04" x2="458.37" y2="1920.04" style="stroke:#000000;stroke-width:7.34"/>
	<line x1="478.54" y1="1920.04" x2="480.77" y2="1920.04" style="stroke:#000000;stroke-width:7.34"/>
	<line x1="480.77" y1="1920.04" x2="481.39" y2="1920.04" style="stroke:#000000;stroke-width:7.34"/>
	<line x1="501.56" y1="1920.04" x2="504.40" y2="1920.04" style="stroke:#000000;stroke-width:7.34"/>
	<line x1="524.58" y1="1920.04" x2="527.42" y2="1920.04" style="stroke:#000000;stroke-width:7.34"/>
	<line x1="547.59" y1="1920.04" x2="550.44" y2="1920.04" style="stroke:#000000;stroke-width:7.34"/>
	<line x1="570.61" y1="1920.04" x2="573.58" y2="1920.04" style="stroke:#000000;stroke-width:7.34"/>
	<line x1="593.75" y1="1920.04" x2="596.60" y2="1920.04" style="stroke:#000000;stroke-width:7.34"/>
	<line x1="616.77" y1="1920.04" x2="619.62" y2="1920.04" style="stroke:#000000;stroke-width:7.34"/>
	<line x1="639.79" y1="1920.04" x2="642.63" y2="1920.04" style="stroke:#000000;stroke-width:7.34"/>
	<line x1="662.80" y1="1920.04" x2="665.65" y2="1920.04" style="stroke:#000000;stroke-width:7.34"/>
	<line x1="685.82" y1="1920.04" x2="688.67" y2="1920.04" style="stroke:#000000;stroke-width:7.34"/>
	<line x1="708.84" y1="1920.04" x2="711.69" y2="1920.04" style="stroke:#000000;stroke-width:7.34"/>
	<line x1="731.86" y1="1920.04" x2="733.84" y2="1920.04" style="stroke:#000000;stroke-width:7.34"/>
	<line x1="733.84" y1="1920.04" x2="734.70" y2="1920.04" style="stroke:#000000;stroke-width:7.34"/>
	<line x1="754.88" y1="1920.04" x2="757.72" y2="1920.04" style="stroke:#000000;stroke-width:7.34"/>
	<line x1="777.89" y1="1920.04" x2="780.74" y2="1920.04" style="stroke:#000000;stroke-width:7.34"/>
	<line x1="800.91" y1="1920.04" x2="803.88" y2="1920.04" style="stroke:#000000;stroke-width:7.34"/>
	<line x1="823.93" y1="1920.04" x2="826.90" y2="1920.04" style="stroke:#000000;stroke-width:7.34"/>
	<line x1="847.07" y1="1920.04" x2="849.91" y2="1920.04" style="stroke:#000000;stroke-width:7.34"/>
	<line x1="870.09" y1="1920.04" x2="872.93" y2="1920.04" style="stroke:#000000;stroke-width:7.34"/>
	<line x1="893.10" y1="1920.04" x2="895.95" y2="1920.04" style="stroke:#000000;stroke-width:7.34"/>
	<line x1="916.12" y1="1920.04" x2="918.97" y2="1920.04" style="stroke:#000000;stroke-width:7.34"/>
	<line x1="939.14" y1="1920.04" x2="941.99" y2="1920.04" style="stroke:#000000;stroke-width:7.34"/>
	<line x1="962.16" y1="1920.04" x2="965.00" y2="1920.04" style="stroke:#000000;stroke-width:7.34"/>
	<line x1="985.17" y1="1920.04" x2="986.91" y2="1920.04" style="stroke:#000000;stroke-width:7.34"/>
	<line x1="986.91" y1="1920.04" x2="988.02" y2="1920.04" style="stroke:#000000;stroke-width:7.34"/>
	<line x1="1008.19" y1="1920.04" x2="1011.04" y2="1920.04" style="stroke:#000000;stroke-width:7.34"/>
	<line x1="1031.21" y1="1920.04" x2="1034.06" y2="1920.04" style="stroke:#000000;stroke-width:7.34"/>
	<line x1="1054.23" y1="1920.04" x2="1057.20" y2="1920.04" style="stroke:#000000;stroke-width:7.34"/>
	<line x1="1077.24" y1="1920.04" x2="1080.21" y2="1920.04" style="stroke:#000000;stroke-width:7.34"/>
	<line x1="1100.38" y1="1920.04" x2="1103.23" y2="1920.04" style="stroke:#000000;stroke-width:7.34"/>
	<line x1="1123.40" y1="1920.04" x2="1126.25" y2="1920.04" style="stroke:#000000;stroke-width:7.34"/>
	<line x1="1146.42" y1="1920.04" x2="1149.27" y2="1920.04" style="stroke:#000000;stroke-width:7.34"/>
	<line x1="1169.44" y1="1920.04" x2="1172.28" y2="1920.04" style="stroke:#000000;stroke-width:7.34"/>
	<line x1="1192.45" y1="1920.04" x2="1195.30" y2="1920.04" style="stroke:#000000;stroke-width:7.34"/>
	<line x1="1215.47" y1="1920.04" x2="1218.32" y2="1920.04" style="stroke:#000000;stroke-width:7.34"/>
	<line x1="1238.49" y1="1920.04" x2="1240.10" y2="1920.04" style="stroke:#000000;stroke-width:7.34"/>
	<line x1="1240.10" y1="1920.04" x2="1241.34" y2="1920.04" style="stroke:#000000;stroke-width:7.34"/>
	<line x1="1261.51" y1="1920.04" x2="1264.35" y2="1920.04" style="stroke:#000000;stroke-width:7.34"/>
	<line x1="1284.53" y1="1920.04" x2="1287.37" y2="1920.04" style="stroke:#000000;stroke-width:7.34"/>
	<line x1="1307.54" y1="1920.04" x2="1310.51" y2="1920.04" style="stroke:#000000;stroke-width:7.34"/>
	<line x1="1330.56" y1="1920.04" x2="1333.53" y2="1920.04" style="stroke:#000000;stroke-width:7.34"/>
	<line x1="1353.70" y1="1920.04" x2="1356.55" y2="1920.04" style="stroke:#000000;stroke-width:7.34"/>
	<line x1="1376.72" y1="1920.04" x2="1379.57" y2="1920.04" style="stroke:#000000;stroke-width:7.34"/>
	<line x1="1399.74" y1="1920.04" x2="1402.58" y2="1920.04" style="stroke:#000000;stroke-width:7.34"/>
	<line x1="1422.75" y1="1920.04" x2="1425.60" y2="1920.04" style="stroke:#000000;stroke-width:7.34"/>
	<line x1="1445.77" y1="1920.04" x2="1448.62" y2="1920.04" style="stroke:#000000;stroke-width:7.34"/>
	<line x1="1468.79" y1="1920.04" x2="1471.63" y2="1920.04" style="stroke:#000000;stroke-width:7.34"/>
	<line x1="1491.81" y1="1920.04" x2="1493.17" y2="1920.04" style="stroke:#000000;stroke-width:7.34"/>
	<line x1="1493.17" y1="1920.04" x2="1494.65" y2="1920.04" style="stroke:#000000;stroke-width:7.34"/>
	<line x1="1514.82" y1="1920.04" x2="1517.67" y2="1920.04" style="stroke:#000000;stroke-width:7.34"/>
	<line x1="1537.84" y1="1920.04" x2="1540.69" y2="1920.04" style="stroke:#000000;stroke-width:7.34"/>
	<line x1="1560.86" y1="1920.04" x2="1563.83" y2="1920.04" style="stroke:#000000;stroke-width:7.34"/>
	<line x1="1584.00" y1="1920.04" x2="1586.85" y2="1920.04" style="stroke:#000000;stroke-width:7.34"/>
	<line x1="1607.02" y1="1920.04" x2="1609.86" y2="1920.04" style="stroke:#000000;stroke-width:7.34"/>
	<line x1="1630.04" y1="1920.04" x2="1632.88" y2="1920.04" style="stroke:#000000;stroke-width:7.34"/>
	<line x1="1653.05" y1="1920.04" x2="1655.90" y2="1920.04" style="stroke:#000000;stroke-width:7.34"/>
	<line x1="1676.07" y1="1920.04" x2="1678.92" y2="1920.04" style="stroke:#000000;stroke-width:7.34"/>
	<line x1="1699.09" y1="1920.04" x2="1701.93" y2="1920.04" style="stroke:#000000;stroke-width:7.34"/>
	<line x1="1722.11" y1="1920.04" x2="1724.95" y2="1920.04" style="stroke:#000000;stroke-width:7.34"/>
	<line x1="1745.12" y1="1920.04" x2="1746.24" y2="1920.04" style="stroke:#000000;stroke-width:7.34"/>
	<line x1="1746.24" y1="1920.04" x2="1747.97" y2="1920.04" style="stroke:#000000;stroke-width:7.34"/>
	<line x1="1768.14" y1="1920.04" x2="1770.99" y2="1920.04" style="stroke:#000000;stroke-width:7.34"/>
	<line x1="1791.16" y1="1920.04" x2="1794.00" y2="1920.04" style="stroke:#000000;stroke-width:7.34"/>
	<line x1="1814.17" y1="1920.04" x2="1817.14" y2="1920.04" style="stroke:#000000;stroke-width:7.34"/>
	<line x1="1837.32" y1="1920.04" x2="1840.16" y2="1920.04" style="stroke:#000000;stroke-width:7.34"/>
	<line x1="1860.33" y1="1920.04" x2="1863.18" y2="1920.04" style="stroke:#000000;stroke-width:7.34"/>
	<line x1="1883.35" y1="1920.04" x2="1886.20" y2="1920.04" style="stroke:#000000;stroke-width:7.34"/>
	<line x1="1906.37" y1="1920.04" x2="1909.21" y2="1920.04" style="stroke:#000000;stroke-width:7.34"/>
	<line x1="1929.39" y1="1920.04" x2="1932.23" y2="1920.04" style="stroke:#000000;stroke-width:7.34"/>
	<line x1="1952.40" y1="1920.04" x2="1955.25" y2="1920.04" style="stroke:#000000;stroke-width:7.34"/>
	<line x1="1975.42" y1="1920.04" x2="1978.27" y2="1920.04" style="stroke:#000000;stroke-width:7.34"/>
	<line x1="1998.44" y1="1920.04" x2="1999.31" y2="1920.04" style="stroke:#000000;stroke-width:7.34"/>
	<line x1="1999.31" y1="1920.04" x2="2001.29" y2="1920.04" style="stroke:#000000;stroke-width:7.34"/>
	<line x1="2021.46" y1="1920.04" x2="2024.30" y2="1920.04" style="stroke:#000000;stroke-width:7.34"/>
	<path d="" stroke-linejoin="round" style="fill:none;stroke:#000000;stroke-width:7.34"/>
	<defs>
		<path id="path_LKxsPhhY" d="M2201.51 2028.94 L2201.51 2028.94 L2226.88 2027.58 L2252.13 2026.10 L2277.49 2024.49 L2302.74 2022.76 L2328.11 2020.90 L2353.35 2018.80 L2378.72 2016.57 L2403.97 2014.09 L2429.34 2011.50 L2454.58 2008.65 L2479.95 2005.80 L2505.20 2002.59 L2530.56 1999.37 L2555.81 1996.03 L2581.18 1992.56 L2606.42 1988.97 L2631.79 1985.26 L2657.04 1981.67 L2682.41 1977.96 L2707.65 1974.37 L2733.02 1970.90 L2758.26 1967.56 L2783.63 1964.35 L2808.88 1961.38 L2834.25 1958.53 L2859.49 1955.93 L2884.86 1953.33 L2910.11 1950.98 L2935.47 1948.75 L2960.72 1946.65 L2986.09 1944.54 L3011.46 1942.44 L3036.70 1940.34 L3062.07 1938.23 L3087.32 1935.88 L3112.68 1933.53 L3137.93 1930.93 L3163.30 1927.96 L3188.54 1924.74 L3213.91 1921.16 L3239.16 1917.07 L3264.53 1912.49 L3289.77 1907.42 L3315.14 1901.85 L3340.38 1895.66 L3365.75 1888.86 L3391.00 1881.55 L3416.37 1873.39 L3441.61 1864.60 L3466.98 1855.07 L3492.22 1844.55 L3517.59 1833.29 L3542.84 1821.04 L3568.21 1807.80 L3593.45 1793.44 L3618.82 1777.97 L3644.07 1761.39 L3669.43 1743.44 L3694.68 1724.14 L3720.05 1703.47 L3745.42 1681.32 L3770.66 1657.68 L3770.66 1604.59 L3745.42 1631.82 L3720.05 1657.31 L3694.68 1680.95 L3669.43 1702.98 L3644.07 1723.40 L3618.82 1742.45 L3593.45 1760.03 L3568.21 1776.24 L3542.84 1791.34 L3517.59 1805.20 L3492.22 1818.07 L3466.98 1829.82 L3441.61 1840.72 L3416.37 1850.74 L3391.00 1860.02 L3365.75 1868.44 L3340.38 1876.11 L3315.14 1883.16 L3289.77 1889.60 L3264.53 1895.29 L3239.16 1900.61 L3213.91 1905.31 L3188.54 1909.40 L3163.30 1913.11 L3137.93 1916.45 L3112.68 1919.30 L3087.32 1922.02 L3062.07 1924.50 L3036.70 1926.85 L3011.46 1929.08 L2986.09 1931.30 L2960.72 1933.53 L2935.47 1935.88 L2910.11 1938.36 L2884.86 1940.83 L2859.49 1943.55 L2834.25 1946.52 L2808.88 1949.74 L2783.63 1953.08 L2758.26 1956.80 L2733.02 1960.63 L2707.65 1964.59 L2682.41 1968.80 L2657.04 1972.88 L2631.79 1977.09 L2606.42 1981.18 L2581.18 1985.14 L2555.81 1988.97 L2530.56 1992.68 L2505.20 1996.15 L2479.95 1999.49 L2454.58 2002.59 L2429.34 2005.56 L2403.97 2008.28 L2378.72 2010.88 L2353.35 2013.23 L2328.11 2015.46 L2302.74 2017.56 L2277.49 2019.42 L2252.13 2021.15 L2226.88 2022.76 L2201.51 2024.24 L2201.51 2028.94 Z" stroke-linejoin="round"/>
	</defs>
	<defs>
		<clipPath id="clipPath_knxRwsuE">
			<use xlink:href="#path_LKxsPhhY"/>
		</clipPath>
	</defs>
	<use xlink:href="#path_LKxsPhhY" style="stroke:none;fill:#E6E6E6"/>
	<use xlink:href="#path_LKxsPhhY" style="fill:none;stroke:#E0E0E0;stroke-width:14.69" clip-path="url(#clipPath_knxRwsuE)"/>
	<defs>
		<path id="path_tNSYxNqv" d="M2201.51 2019.79 L2201.51 2019.79 L2226.88 2017.56 L2252.13 2015.21 L2277.49 2012.49 L2302.74 2009.64 L2328.11 2006.42 L2353.35 2002.96 L2378.72 1999.24 L2403.97 1995.16 L2429.34 1990.83 L2454.58 1986.25 L2479.95 1981.30 L2505.20 1976.10 L2530.56 1970.78 L2555.81 1965.09 L2581.18 1959.27 L2606.42 1953.33 L2631.79 1947.27 L2657.04 1941.20 L2682.41 1935.14 L2707.65 1929.20 L2733.02 1923.38 L2758.26 1917.81 L2783.63 1912.49 L2808.88 1907.42 L2834.25 1902.72 L2859.49 1898.38 L2884.86 1894.18 L2910.11 1890.22 L2935.47 1886.50 L2960.72 1882.92 L2986.09 1879.45 L3011.46 1875.98 L3036.70 1872.52 L3062.07 1868.93 L3087.32 1865.22 L3112.68 1861.26 L3137.93 1856.93 L3163.30 1852.10 L3188.54 1846.66 L3213.91 1840.59 L3239.16 1833.78 L3264.53 1826.24 L3289.77 1817.70 L3315.14 1808.42 L3340.38 1798.14 L3365.75 1786.88 L3391.00 1774.51 L3416.37 1761.02 L3441.61 1746.29 L3466.98 1730.33 L3492.22 1712.88 L3517.59 1694.07 L3542.84 1673.52 L3568.21 1651.50 L3593.45 1627.49 L3618.82 1601.75 L3644.07 1573.90 L3669.43 1543.95 L3694.68 1511.78 L3720.05 1477.13 L3745.42 1440.12 L3770.66 1400.52 L3770.66 1297.56 L3745.42 1343.84 L3720.05 1387.03 L3694.68 1427.13 L3669.43 1464.50 L3644.07 1499.28 L3618.82 1531.45 L3593.45 1561.28 L3568.21 1589.00 L3542.84 1614.49 L3517.59 1638.13 L3492.22 1660.03 L3466.98 1680.08 L3441.61 1698.65 L3416.37 1715.60 L3391.00 1731.32 L3365.75 1745.67 L3340.38 1758.79 L3315.14 1770.67 L3289.77 1781.56 L3264.53 1791.46 L3239.16 1800.37 L3213.91 1808.42 L3188.54 1815.47 L3163.30 1821.78 L3137.93 1827.35 L3112.68 1832.42 L3087.32 1837.00 L3062.07 1841.21 L3036.70 1845.29 L3011.46 1849.13 L2986.09 1852.97 L2960.72 1856.80 L2935.47 1860.76 L2910.11 1864.85 L2884.86 1869.30 L2859.49 1874.00 L2834.25 1879.08 L2808.88 1884.40 L2783.63 1890.22 L2758.26 1896.40 L2733.02 1903.09 L2707.65 1909.89 L2682.41 1916.95 L2657.04 1924.00 L2631.79 1931.06 L2606.42 1937.99 L2581.18 1944.79 L2555.81 1951.35 L2530.56 1957.66 L2505.20 1963.73 L2479.95 1969.42 L2454.58 1974.74 L2429.34 1979.81 L2403.97 1984.52 L2378.72 1988.85 L2353.35 1992.93 L2328.11 1996.77 L2302.74 2000.23 L2277.49 2003.45 L2252.13 2006.42 L2226.88 2009.27 L2201.51 2011.74 L2201.51 2019.79 Z" stroke-linejoin="round"/>
	</defs>
	<defs>
		<clipPath id="clipPath_lkZYaEsl">
			<use xlink:href="#path_tNSYxNqv"/>
		</clipPath>
	</defs>
	<use xlink:href="#path_tNSYxNqv" style="stroke:none;fill:#E6E6E6"/>
	<use xlink:href="#path_tNSYxNqv" style="fill:none;stroke:#E0E0E0;stroke-width:14.69" clip-path="url(#clipPath_lkZYaEsl)"/>
	<defs>
		<path id="path_ZLvCVtGS" d="M2201.51 2011.12 L2201.51 2011.12 L2226.88 2008.15 L2252.13 2004.81 L2277.49 2001.10 L2302.74 1997.14 L2328.11 1992.68 L2353.35 1987.98 L2378.72 1982.78 L2403.97 1977.22 L2429.34 1971.28 L2454.58 1964.96 L2479.95 1958.28 L2505.20 1951.23 L2530.56 1943.80 L2555.81 1936.01 L2581.18 1928.09 L2606.42 1919.92 L2631.79 1911.63 L2657.04 1903.21 L2682.41 1894.92 L2707.65 1886.63 L2733.02 1878.58 L2758.26 1870.91 L2783.63 1863.61 L2808.88 1856.68 L2834.25 1850.24 L2859.49 1844.18 L2884.86 1838.49 L2910.11 1833.04 L2935.47 1827.97 L2960.72 1823.02 L2986.09 1818.19 L3011.46 1813.49 L3036.70 1808.66 L3062.07 1803.84 L3087.32 1798.64 L3112.68 1793.07 L3137.93 1787.13 L3163.30 1780.45 L3188.54 1773.02 L3213.91 1764.73 L3239.16 1755.32 L3264.53 1744.81 L3289.77 1733.17 L3315.14 1720.30 L3340.38 1706.19 L3365.75 1690.60 L3391.00 1673.65 L3416.37 1655.08 L3441.61 1634.91 L3466.98 1612.88 L3492.22 1589.00 L3517.59 1563.14 L3542.84 1535.04 L3568.21 1504.72 L3593.45 1471.93 L3618.82 1436.41 L3644.07 1398.29 L3669.43 1357.21 L3694.68 1313.03 L3720.05 1265.63 L3745.42 1214.89 L3770.66 1160.44 L3770.66 987.68 L3745.42 1053.27 L3720.05 1114.40 L3694.68 1171.33 L3669.43 1224.30 L3644.07 1273.55 L3618.82 1319.22 L3593.45 1361.42 L3568.21 1400.65 L3542.84 1436.91 L3517.59 1470.44 L3492.22 1501.38 L3466.98 1529.85 L3441.61 1556.08 L3416.37 1580.21 L3391.00 1602.37 L3365.75 1622.66 L3340.38 1641.22 L3315.14 1658.18 L3289.77 1673.52 L3264.53 1687.51 L3239.16 1700.13 L3213.91 1711.39 L3188.54 1721.42 L3163.30 1730.33 L3137.93 1738.12 L3112.68 1745.30 L3087.32 1751.74 L3062.07 1757.80 L3036.70 1763.37 L3011.46 1768.94 L2986.09 1774.26 L2960.72 1779.70 L2935.47 1785.40 L2910.11 1791.21 L2884.86 1797.40 L2859.49 1804.08 L2834.25 1811.26 L2808.88 1818.93 L2783.63 1827.10 L2758.26 1835.89 L2733.02 1845.17 L2707.65 1854.95 L2682.41 1864.85 L2657.04 1874.87 L2631.79 1884.90 L2606.42 1894.67 L2581.18 1904.32 L2555.81 1913.61 L2530.56 1922.64 L2505.20 1931.18 L2479.95 1939.22 L2454.58 1946.90 L2429.34 1954.07 L2403.97 1960.76 L2378.72 1966.94 L2353.35 1972.76 L2328.11 1978.21 L2302.74 1983.16 L2277.49 1987.73 L2252.13 1991.94 L2226.88 1995.78 L2201.51 1999.37 L2201.51 2011.12 Z" stroke-linejoin="round"/>
	</defs>
	<defs>
		<clipPath id="clipPath_yyTuIqve">
			<use xlink:href="#path_ZLvCVtGS"/>
		</clipPath>
	</defs>
	<use xlink:href="#path_ZLvCVtGS" style="stroke:none;fill:#E6E6E6"/>
	<use xlink:href="#path_ZLvCVtGS" style="fill:none;stroke:#E0E0E0;stroke-width:14.69" clip-path="url(#clipPath_yyTuIqve)"/>
	<path d=" M2201.39 2016.20 L2226.76 2013.85 L2252.13 2011.25 L2277.37 2008.40 L2302.74 2005.31 L2327.99 2001.97 L2353.35 1998.25 L2378.60 1994.42 L2403.97 1990.21 L2429.21 1985.63 L2454.58 1980.80 L2479.83 1975.73 L2505.20 1970.29 L2530.44 1964.59 L2555.81 1958.65 L2581.05 1952.46 L2606.42 1946.03 L2631.67 1939.59 L2657.04 1933.04 L2682.28 1926.48 L2707.65 1920.04 L2732.89 1913.61 L2758.26 1907.54 L2783.51 1901.85 L2808.88 1896.40 L2834.12 1891.45 L2859.49 1886.75 L2884.74 1882.30 L2910.11 1878.09 L2935.35 1874.25 L2960.72 1870.42 L2986.09 1866.70 L3011.33 1863.11 L3036.70 1859.40 L3061.95 1855.69 L3087.32 1851.73 L3112.56 1847.40 L3137.93 1842.70 L3163.17 1837.50 L3188.54 1831.68 L3213.79 1825.12 L3239.16 1817.82 L3264.40 1809.53 L3289.77 1800.37 L3315.01 1790.35 L3340.38 1779.21 L3365.63 1767.08 L3391.00 1753.72 L3416.24 1739.24 L3441.61 1723.40 L3466.86 1706.19 L3492.22 1687.51 L3517.47 1667.21 L3542.84 1645.18 L3568.08 1621.42 L3593.45 1595.68 L3618.70 1567.96 L3644.07 1538.01 L3669.31 1505.71 L3694.68 1471.06 L3719.93 1433.81 L3745.29 1393.84 L3770.66 1351.02" stroke-linejoin="round" style="fill:none;stroke:#008000;stroke-width:7.34"/>
	<path d=" M2201.39 2005.80 L2226.76 2002.46 L2252.13 1998.87 L2277.37 1994.91 L2302.74 1990.58 L2327.99 1986.00 L2353.35 1980.93 L2378.60 1975.36 L2403.97 1969.54 L2429.21 1963.23 L2454.58 1956.42 L2479.83 1949.25 L2505.20 1941.70 L2530.44 1933.78 L2555.81 1925.49 L2581.05 1916.82 L2606.42 1908.04 L2631.67 1898.88 L2657.04 1889.85 L2682.28 1880.69 L2707.65 1871.53 L2732.89 1862.74 L2758.26 1854.33 L2783.51 1846.28 L2808.88 1838.73 L2834.12 1831.68 L2859.49 1825.12 L2884.74 1818.93 L2910.11 1813.12 L2935.35 1807.67 L2960.72 1802.48 L2986.09 1797.28 L3011.33 1792.20 L3036.70 1787.13 L3061.95 1781.81 L3087.32 1776.24 L3112.56 1770.30 L3137.93 1763.74 L3163.17 1756.56 L3188.54 1748.39 L3213.79 1739.24 L3239.16 1728.97 L3264.40 1717.46 L3289.77 1704.71 L3315.01 1690.60 L3340.38 1675.13 L3365.63 1658.18 L3391.00 1639.61 L3416.24 1619.44 L3441.61 1597.29 L3466.86 1573.28 L3492.22 1547.17 L3517.47 1518.83 L3542.84 1488.26 L3568.08 1455.10 L3593.45 1419.21 L3618.70 1380.47 L3644.07 1338.77 L3669.31 1293.72 L3694.68 1245.46 L3719.93 1193.48 L3745.29 1137.67 L3770.66 1078.02" stroke-linejoin="round" style="fill:none;stroke:#FF7F00;stroke-width:7.34"/>
	<path d=" M2201.39 2026.84 L2226.76 2025.36 L2252.13 2023.87 L2277.37 2022.14 L2302.74 2020.41 L2327.99 2018.43 L2353.35 2016.20 L2378.60 2013.85 L2403.97 2011.37 L2429.21 2008.65 L2454.58 2005.80 L2479.83 2002.83 L2505.20 1999.61 L2530.44 1996.15 L2555.81 1992.68 L2581.05 1988.97 L2606.42 1985.26 L2631.67 1981.42 L2657.04 1977.46 L2682.28 1973.63 L2707.65 1969.79 L2732.89 1966.08 L2758.26 1962.37 L2783.51 1959.02 L2808.88 1955.81 L2834.12 1952.84 L2859.49 1949.99 L2884.74 1947.39 L2910.11 1944.92 L2935.35 1942.56 L2960.72 1940.34 L2986.09 1938.23 L3011.33 1936.01 L3036.70 1933.90 L3061.95 1931.67 L3087.32 1929.20 L3112.56 1926.72 L3137.93 1923.88 L3163.17 1920.91 L3188.54 1917.44 L3213.79 1913.48 L3239.16 1909.15 L3264.40 1904.20 L3289.77 1898.88 L3315.01 1892.82 L3340.38 1886.26 L3365.63 1879.08 L3391.00 1871.16 L3416.24 1862.50 L3441.61 1853.09 L3466.86 1842.94 L3492.22 1831.80 L3517.47 1819.80 L3542.84 1806.68 L3568.08 1792.57 L3593.45 1777.35 L3618.70 1760.89 L3644.07 1743.07 L3669.31 1723.89 L3694.68 1703.35 L3719.93 1681.20 L3745.29 1657.44 L3770.66 1632.07" stroke-linejoin="round" style="fill:none;stroke:#1A476F;stroke-width:7.34"/>
	<line x1="2201.39" y1="1871.16" x2="2204.24" y2="1871.16" style="stroke:#000000;stroke-width:7.34"/>
	<line x1="2224.41" y1="1871.16" x2="2226.76" y2="1871.16" style="stroke:#000000;stroke-width:7.34"/>
	<line x1="2226.76" y1="1871.16" x2="2227.25" y2="1871.16" style="stroke:#000000;stroke-width:7.34"/>
	<line x1="2247.42" y1="1871.16" x2="2250.27" y2="1871.16" style="stroke:#000000;stroke-width:7.34"/>
	<line x1="2270.44" y1="1871.16" x2="2273.29" y2="1871.16" style="stroke:#000000;stroke-width:7.34"/>
	<line x1="2293.46" y1="1871.16" x2="2296.43" y2="1871.16" style="stroke:#000000;stroke-width:7.34"/>
	<line x1="2316.60" y1="1871.16" x2="2319.45" y2="1871.16" style="stroke:#000000;stroke-width:7.34"/>
	<line x1="2339.62" y1="1871.16" x2="2342.46" y2="1871.16" style="stroke:#000000;stroke-width:7.34"/>
	<line x1="2362.64" y1="1871.16" x2="2365.48" y2="1871.16" style="stroke:#000000;stroke-width:7.34"/>
	<line x1="2385.65" y1="1871.16" x2="2388.50" y2="1871.16" style="stroke:#000000;stroke-width:7.34"/>
	<line x1="2408.67" y1="1871.16" x2="2411.52" y2="1871.16" style="stroke:#000000;stroke-width:7.34"/>
	<line x1="2431.69" y1="1871.16" x2="2434.53" y2="1871.16" style="stroke:#000000;stroke-width:7.34"/>
	<line x1="2454.70" y1="1871.16" x2="2457.55" y2="1871.16" style="stroke:#000000;stroke-width:7.34"/>
	<line x1="2477.72" y1="1871.16" x2="2479.83" y2="1871.16" style="stroke:#000000;stroke-width:7.34"/>
	<line x1="2479.83" y1="1871.16" x2="2480.57" y2="1871.16" style="stroke:#000000;stroke-width:7.34"/>
	<line x1="2500.74" y1="1871.16" x2="2503.59" y2="1871.16" style="stroke:#000000;stroke-width:7.34"/>
	<line x1="2523.76" y1="1871.16" x2="2526.60" y2="1871.16" style="stroke:#000000;stroke-width:7.34"/>
	<line x1="2546.78" y1="1871.16" x2="2549.74" y2="1871.16" style="stroke:#000000;stroke-width:7.34"/>
	<line x1="2569.92" y1="1871.16" x2="2572.76" y2="1871.16" style="stroke:#000000;stroke-width:7.34"/>
	<line x1="2592.93" y1="1871.16" x2="2595.78" y2="1871.16" style="stroke:#000000;stroke-width:7.34"/>
	<line x1="2615.95" y1="1871.16" x2="2618.80" y2="1871.16" style="stroke:#000000;stroke-width:7.34"/>
	<line x1="2638.97" y1="1871.16" x2="2641.82" y2="1871.16" style="stroke:#000000;stroke-width:7.34"/>
	<line x1="2661.99" y1="1871.16" x2="2664.83" y2="1871.16" style="stroke:#000000;stroke-width:7.34"/>
	<line x1="2685.00" y1="1871.16" x2="2687.85" y2="1871.16" style="stroke:#000000;stroke-width:7.34"/>
	<line x1="2708.02" y1="1871.16" x2="2710.87" y2="1871.16" style="stroke:#000000;stroke-width:7.34"/>
	<line x1="2731.04" y1="1871.16" x2="2732.89" y2="1871.16" style="stroke:#000000;stroke-width:7.34"/>
	<line x1="2732.89" y1="1871.16" x2="2733.89" y2="1871.16" style="stroke:#000000;stroke-width:7.34"/>
	<line x1="2754.06" y1="1871.16" x2="2756.90" y2="1871.16" style="stroke:#000000;stroke-width:7.34"/>
	<line x1="2777.07" y1="1871.16" x2="2779.92" y2="1871.16" style="stroke:#000000;stroke-width:7.34"/>
	<line x1="2800.09" y1="1871.16" x2="2803.06" y2="1871.16" style="stroke:#000000;stroke-width:7.34"/>
	<line x1="2823.23" y1="1871.16" x2="2826.08" y2="1871.16" style="stroke:#000000;stroke-width:7.34"/>
	<line x1="2846.25" y1="1871.16" x2="2849.10" y2="1871.16" style="stroke:#000000;stroke-width:7.34"/>
	<line x1="2869.27" y1="1871.16" x2="2872.11" y2="1871.16" style="stroke:#000000;stroke-width:7.34"/>
	<line x1="2892.28" y1="1871.16" x2="2895.13" y2="1871.16" style="stroke:#000000;stroke-width:7.34"/>
	<line x1="2915.30" y1="1871.16" x2="2918.15" y2="1871.16" style="stroke:#000000;stroke-width:7.34"/>
	<line x1="2938.32" y1="1871.16" x2="2941.17" y2="1871.16" style="stroke:#000000;stroke-width:7.34"/>
	<line x1="2961.34" y1="1871.16" x2="2964.18" y2="1871.16" style="stroke:#000000;stroke-width:7.34"/>
	<line x1="2984.36" y1="1871.16" x2="2986.09" y2="1871.16" style="stroke:#000000;stroke-width:7.34"/>
	<line x1="2986.09" y1="1871.16" x2="2987.20" y2="1871.16" style="stroke:#000000;stroke-width:7.34"/>
	<line x1="3007.37" y1="1871.16" x2="3010.22" y2="1871.16" style="stroke:#000000;stroke-width:7.34"/>
	<line x1="3030.39" y1="1871.16" x2="3033.36" y2="1871.16" style="stroke:#000000;stroke-width:7.34"/>
	<line x1="3053.41" y1="1871.16" x2="3056.38" y2="1871.16" style="stroke:#000000;stroke-width:7.34"/>
	<line x1="3076.55" y1="1871.16" x2="3079.39" y2="1871.16" style="stroke:#000000;stroke-width:7.34"/>
	<line x1="3099.57" y1="1871.16" x2="3102.41" y2="1871.16" style="stroke:#000000;stroke-width:7.34"/>
	<line x1="3122.58" y1="1871.16" x2="3125.43" y2="1871.16" style="stroke:#000000;stroke-width:7.34"/>
	<line x1="3145.60" y1="1871.16" x2="3148.45" y2="1871.16" style="stroke:#000000;stroke-width:7.34"/>
	<line x1="3168.62" y1="1871.16" x2="3171.47" y2="1871.16" style="stroke:#000000;stroke-width:7.34"/>
	<line x1="3191.64" y1="1871.16" x2="3194.48" y2="1871.16" style="stroke:#000000;stroke-width:7.34"/>
	<line x1="3214.65" y1="1871.16" x2="3217.50" y2="1871.16" style="stroke:#000000;stroke-width:7.34"/>
	<line x1="3237.67" y1="1871.16" x2="3239.16" y2="1871.16" style="stroke:#000000;stroke-width:7.34"/>
	<line x1="3239.16" y1="1871.16" x2="3240.52" y2="1871.16" style="stroke:#000000;stroke-width:7.34"/>
	<line x1="3260.69" y1="1871.16" x2="3263.53" y2="1871.16" style="stroke:#000000;stroke-width:7.34"/>
	<line x1="3283.71" y1="1871.16" x2="3286.68" y2="1871.16" style="stroke:#000000;stroke-width:7.34"/>
	<line x1="3306.72" y1="1871.16" x2="3309.69" y2="1871.16" style="stroke:#000000;stroke-width:7.34"/>
	<line x1="3329.86" y1="1871.16" x2="3332.71" y2="1871.16" style="stroke:#000000;stroke-width:7.34"/>
	<line x1="3352.88" y1="1871.16" x2="3355.73" y2="1871.16" style="stroke:#000000;stroke-width:7.34"/>
	<line x1="3375.90" y1="1871.16" x2="3378.75" y2="1871.16" style="stroke:#000000;stroke-width:7.34"/>
	<line x1="3398.92" y1="1871.16" x2="3401.76" y2="1871.16" style="stroke:#000000;stroke-width:7.34"/>
	<line x1="3421.93" y1="1871.16" x2="3424.78" y2="1871.16" style="stroke:#000000;stroke-width:7.34"/>
	<line x1="3444.95" y1="1871.16" x2="3447.80" y2="1871.16" style="stroke:#000000;stroke-width:7.34"/>
	<line x1="3467.97" y1="1871.16" x2="3470.82" y2="1871.16" style="stroke:#000000;stroke-width:7.34"/>
	<line x1="3490.99" y1="1871.16" x2="3492.22" y2="1871.16" style="stroke:#000000;stroke-width:7.34"/>
	<line x1="3492.22" y1="1871.16" x2="3493.83" y2="1871.16" style="stroke:#000000;stroke-width:7.34"/>
	<line x1="3514.01" y1="1871.16" x2="3516.85" y2="1871.16" style="stroke:#000000;stroke-width:7.34"/>
	<line x1="3537.02" y1="1871.16" x2="3539.99" y2="1871.16" style="stroke:#000000;stroke-width:7.34"/>
	<line x1="3560.04" y1="1871.16" x2="3563.01" y2="1871.16" style="stroke:#000000;stroke-width:7.34"/>
	<line x1="3583.18" y1="1871.16" x2="3586.03" y2="1871.16" style="stroke:#000000;stroke-width:7.34"/>
	<line x1="3606.20" y1="1871.16" x2="3609.05" y2="1871.16" style="stroke:#000000;stroke-width:7.34"/>
	<line x1="3629.22" y1="1871.16" x2="3632.06" y2="1871.16" style="stroke:#000000;stroke-width:7.34"/>
	<line x1="3652.23" y1="1871.16" x2="3655.08" y2="1871.16" style="stroke:#000000;stroke-width:7.34"/>
	<line x1="3675.25" y1="1871.16" x2="3678.10" y2="1871.16" style="stroke:#000000;stroke-width:7.34"/>
	<line x1="3698.27" y1="1871.16" x2="3701.11" y2="1871.16" style="stroke:#000000;stroke-width:7.34"/>
	<line x1="3721.29" y1="1871.16" x2="3724.13" y2="1871.16" style="stroke:#000000;stroke-width:7.34"/>
	<line x1="3744.30" y1="1871.16" x2="3745.29" y2="1871.16" style="stroke:#000000;stroke-width:7.34"/>
	<line x1="3745.29" y1="1871.16" x2="3747.15" y2="1871.16" style="stroke:#000000;stroke-width:7.34"/>
	<line x1="3767.32" y1="1871.16" x2="3770.17" y2="1871.16" style="stroke:#000000;stroke-width:7.34"/>
	<path d="" stroke-linejoin="round" style="fill:none;stroke:#000000;stroke-width:7.34"/>
	<line x1="401.69" y1="2096.14" x2="401.69" y2="258.27" style="stroke:#000000;stroke-width:4.90"/>
	<line x1="401.69" y1="2042.31" x2="367.66" y2="2042.31" style="stroke:#000000;stroke-width:4.90"/>
	<text x="350.71" y="2072.10" style="font-family:'Helvetica';font-size:85.02px;fill:#000000" text-anchor="end">0</text>
	<line x1="401.69" y1="1850.00" x2="367.66" y2="1850.00" style="stroke:#000000;stroke-width:4.90"/>
	<text x="350.71" y="1879.78" style="font-family:'Helvetica';font-size:85.02px;fill:#000000" text-anchor="end">.001</text>
	<line x1="401.69" y1="1657.81" x2="367.66" y2="1657.81" style="stroke:#000000;stroke-width:4.90"/>
	<text x="350.71" y="1687.59" style="font-family:'Helvetica';font-size:85.02px;fill:#000000" text-anchor="end">.002</text>
	<line x1="401.69" y1="1465.49" x2="367.66" y2="1465.49" style="stroke:#000000;stroke-width:4.90"/>
	<text x="350.71" y="1495.28" style="font-family:'Helvetica';font-size:85.02px;fill:#000000" text-anchor="end">.003</text>
	<line x1="401.69" y1="1273.30" x2="367.66" y2="1273.30" style="stroke:#000000;stroke-width:4.90"/>
	<text x="350.71" y="1303.09" style="font-family:'Helvetica';font-size:85.02px;fill:#000000" text-anchor="end">.004</text>
	<line x1="401.69" y1="1081.11" x2="367.66" y2="1081.11" style="stroke:#000000;stroke-width:4.90"/>
	<text x="350.71" y="1110.90" style="font-family:'Helvetica';font-size:85.02px;fill:#000000" text-anchor="end">.005</text>
	<line x1="401.69" y1="888.80" x2="367.66" y2="888.80" style="stroke:#000000;stroke-width:4.90"/>
	<text x="350.71" y="918.59" style="font-family:'Helvetica';font-size:85.02px;fill:#000000" text-anchor="end">.006</text>
	<line x1="401.69" y1="696.61" x2="367.66" y2="696.61" style="stroke:#000000;stroke-width:4.90"/>
	<text x="350.71" y="726.40" style="font-family:'Helvetica';font-size:85.02px;fill:#000000" text-anchor="end">.007</text>
	<line x1="401.69" y1="504.30" x2="367.66" y2="504.30" style="stroke:#000000;stroke-width:4.90"/>
	<text x="350.71" y="534.08" style="font-family:'Helvetica';font-size:85.02px;fill:#000000" text-anchor="end">.008</text>
	<line x1="401.69" y1="312.11" x2="367.66" y2="312.11" style="stroke:#000000;stroke-width:4.90"/>
	<text x="350.71" y="341.89" style="font-family:'Helvetica';font-size:85.02px;fill:#000000" text-anchor="end">.009</text>
	<line x1="401.69" y1="2096.14" x2="2078.51" y2="2096.14" style="stroke:#000000;stroke-width:4.90"/>
	<line x1="506.14" y1="2096.14" x2="506.14" y2="2113.10" style="stroke:#000000;stroke-width:4.90"/>
	<line x1="632.73" y1="2096.14" x2="632.73" y2="2113.10" style="stroke:#000000;stroke-width:4.90"/>
	<line x1="759.21" y1="2096.14" x2="759.21" y2="2113.10" style="stroke:#000000;stroke-width:4.90"/>
	<line x1="885.80" y1="2096.14" x2="885.80" y2="2113.10" style="stroke:#000000;stroke-width:4.90"/>
	<line x1="1012.27" y1="2096.14" x2="1012.27" y2="2113.10" style="stroke:#000000;stroke-width:4.90"/>
	<line x1="1138.87" y1="2096.14" x2="1138.87" y2="2113.10" style="stroke:#000000;stroke-width:4.90"/>
	<line x1="1265.47" y1="2096.14" x2="1265.47" y2="2113.10" style="stroke:#000000;stroke-width:4.90"/>
	<line x1="1391.94" y1="2096.14" x2="1391.94" y2="2113.10" style="stroke:#000000;stroke-width:4.90"/>
	<line x1="1518.54" y1="2096.14" x2="1518.54" y2="2113.10" style="stroke:#000000;stroke-width:4.90"/>
	<line x1="1645.01" y1="2096.14" x2="1645.01" y2="2113.10" style="stroke:#000000;stroke-width:4.90"/>
	<line x1="1771.61" y1="2096.14" x2="1771.61" y2="2113.10" style="stroke:#000000;stroke-width:4.90"/>
	<line x1="1898.20" y1="2096.14" x2="1898.20" y2="2113.10" style="stroke:#000000;stroke-width:4.90"/>
	<line x1="2024.67" y1="2096.14" x2="2024.67" y2="2113.10" style="stroke:#000000;stroke-width:4.90"/>
	<line x1="506.14" y1="2096.14" x2="506.14" y2="2130.18" style="stroke:#000000;stroke-width:4.90"/>
	<text x="506.14" y="2206.58" style="font-family:'Helvetica';font-size:85.02px;fill:#000000" text-anchor="middle">20</text>
	<line x1="1012.27" y1="2096.14" x2="1012.27" y2="2130.18" style="stroke:#000000;stroke-width:4.90"/>
	<text x="1012.27" y="2206.58" style="font-family:'Helvetica';font-size:85.02px;fill:#000000" text-anchor="middle">40</text>
	<line x1="1518.54" y1="2096.14" x2="1518.54" y2="2130.18" style="stroke:#000000;stroke-width:4.90"/>
	<text x="1518.54" y="2206.58" style="font-family:'Helvetica';font-size:85.02px;fill:#000000" text-anchor="middle">60</text>
	<line x1="2024.67" y1="2096.14" x2="2024.67" y2="2130.18" style="stroke:#000000;stroke-width:4.90"/>
	<text x="2024.67" y="2206.58" style="font-family:'Helvetica';font-size:85.02px;fill:#000000" text-anchor="middle">80</text>
	<line x1="2147.68" y1="2096.14" x2="3824.49" y2="2096.14" style="stroke:#000000;stroke-width:4.90"/>
	<line x1="2252.13" y1="2096.14" x2="2252.13" y2="2113.10" style="stroke:#000000;stroke-width:4.90"/>
	<line x1="2378.72" y1="2096.14" x2="2378.72" y2="2113.10" style="stroke:#000000;stroke-width:4.90"/>
	<line x1="2505.20" y1="2096.14" x2="2505.20" y2="2113.10" style="stroke:#000000;stroke-width:4.90"/>
	<line x1="2631.79" y1="2096.14" x2="2631.79" y2="2113.10" style="stroke:#000000;stroke-width:4.90"/>
	<line x1="2758.26" y1="2096.14" x2="2758.26" y2="2113.10" style="stroke:#000000;stroke-width:4.90"/>
	<line x1="2884.86" y1="2096.14" x2="2884.86" y2="2113.10" style="stroke:#000000;stroke-width:4.90"/>
	<line x1="3011.46" y1="2096.14" x2="3011.46" y2="2113.10" style="stroke:#000000;stroke-width:4.90"/>
	<line x1="3137.93" y1="2096.14" x2="3137.93" y2="2113.10" style="stroke:#000000;stroke-width:4.90"/>
	<line x1="3264.53" y1="2096.14" x2="3264.53" y2="2113.10" style="stroke:#000000;stroke-width:4.90"/>
	<line x1="3391.00" y1="2096.14" x2="3391.00" y2="2113.10" style="stroke:#000000;stroke-width:4.90"/>
	<line x1="3517.59" y1="2096.14" x2="3517.59" y2="2113.10" style="stroke:#000000;stroke-width:4.90"/>
	<line x1="3644.07" y1="2096.14" x2="3644.07" y2="2113.10" style="stroke:#000000;stroke-width:4.90"/>
	<line x1="3770.66" y1="2096.14" x2="3770.66" y2="2113.10" style="stroke:#000000;stroke-width:4.90"/>
	<line x1="2252.13" y1="2096.14" x2="2252.13" y2="2130.18" style="stroke:#000000;stroke-width:4.90"/>
	<text x="2252.13" y="2206.58" style="font-family:'Helvetica';font-size:85.02px;fill:#000000" text-anchor="middle">20</text>
	<line x1="2758.26" y1="2096.14" x2="2758.26" y2="2130.18" style="stroke:#000000;stroke-width:4.90"/>
	<text x="2758.26" y="2206.58" style="font-family:'Helvetica';font-size:85.02px;fill:#000000" text-anchor="middle">40</text>
	<line x1="3264.53" y1="2096.14" x2="3264.53" y2="2130.18" style="stroke:#000000;stroke-width:4.90"/>
	<text x="3264.53" y="2206.58" style="font-family:'Helvetica';font-size:85.02px;fill:#000000" text-anchor="middle">60</text>
	<line x1="3770.66" y1="2096.14" x2="3770.66" y2="2130.18" style="stroke:#000000;stroke-width:4.90"/>
	<text x="3770.66" y="2206.58" style="font-family:'Helvetica';font-size:85.02px;fill:#000000" text-anchor="middle">80</text>
	<rect x="401.69" y="135.39" width="1676.81" height="122.89" style="fill:#D9E6EB"/>
	<rect x="404.14" y="137.83" width="1671.92" height="117.99" style="fill:none;stroke:#D9E6EB;stroke-width:4.90"/>
	<text x="1240.10" y="215.42" style="font-family:'Helvetica';font-size:93.56px;fill:#000000" text-anchor="middle">Female</text>
	<rect x="2147.68" y="135.39" width="1676.81" height="122.89" style="fill:#D9E6EB"/>
	<rect x="2150.13" y="137.83" width="1671.92" height="117.99" style="fill:none;stroke:#D9E6EB;stroke-width:4.90"/>
	<text x="2986.09" y="215.42" style="font-family:'Helvetica';font-size:93.56px;fill:#000000" text-anchor="middle">Male</text>
	<rect x="630.26" y="2418.27" width="2699.36" height="326.34" style="fill:#FFFFFF"/>
	<rect x="633.14" y="2421.15" width="2693.60" height="320.58" style="fill:none;stroke:#000000;stroke-width:5.76"/>
	<line x1="673.45" y1="2511.46" x2="1047.91" y2="2511.46" style="stroke:#008000;stroke-width:8.64"/>
	<line x1="2012.05" y1="2511.46" x2="2386.39" y2="2511.46" style="stroke:#FF7F00;stroke-width:8.64"/>
	<line x1="673.45" y1="2651.43" x2="1047.91" y2="2651.43" style="stroke:#1A476F;stroke-width:8.64"/>
	<text x="1107.93" y="2546.49" style="font-family:'Helvetica';font-size:99.99px;fill:#000000">Stroke/dementia</text>
	<text x="2446.41" y="2546.49" style="font-family:'Helvetica';font-size:99.99px;fill:#000000">Other neurological</text>
	<text x="1107.93" y="2686.46" style="font-family:'Helvetica';font-size:99.99px;fill:#000000">No comborbidity</text>
	<text x="1980.00" y="2353.56" style="font-family:'Helvetica';font-size:99.99px;fill:#000000" text-anchor="middle">Age (years)</text>
</svg>
