<?xml version="1.0" encoding="UTF-8" standalone="no"?>
<!-- This is a Stata 16.1 generated SVG file (http://www.stata.com) -->

<svg version="1.1" width="1600px" height="1164px" viewBox="0 0 3960 2880" xmlns="http://www.w3.org/2000/svg" xmlns:xlink="http://www.w3.org/1999/xlink">
	<desc>Stata Graph - Graph</desc>
	<rect x="0" y="0" width="3960" height="2880" style="fill:#EAF2F3;stroke:none"/>
	<rect x="0.00" y="0.00" width="3959.88" height="2880.00" style="fill:#EAF2F3"/>
	<rect x="2.88" y="2.88" width="3954.12" height="2874.24" style="fill:none;stroke:#EAF2F3;stroke-width:5.76"/>
	<rect x="401.69" y="402.82" width="1676.81" height="1693.32" style="fill:#FFFFFF"/>
	<rect x="404.14" y="405.27" width="1671.92" height="1688.43" style="fill:none;stroke:#FFFFFF;stroke-width:4.90"/>
	<line x1="401.69" y1="2042.31" x2="2078.51" y2="2042.31" style="stroke:#EAF2F3;stroke-width:7.34"/>
	<line x1="401.69" y1="1818.32" x2="2078.51" y2="1818.32" style="stroke:#EAF2F3;stroke-width:7.34"/>
	<line x1="401.69" y1="1594.44" x2="2078.51" y2="1594.44" style="stroke:#EAF2F3;stroke-width:7.34"/>
	<line x1="401.69" y1="1370.57" x2="2078.51" y2="1370.57" style="stroke:#EAF2F3;stroke-width:7.34"/>
	<line x1="401.69" y1="1146.58" x2="2078.51" y2="1146.58" style="stroke:#EAF2F3;stroke-width:7.34"/>
	<line x1="401.69" y1="922.71" x2="2078.51" y2="922.71" style="stroke:#EAF2F3;stroke-width:7.34"/>
	<rect x="2147.68" y="402.82" width="1676.81" height="1693.32" style="fill:#FFFFFF"/>
	<rect x="2150.13" y="405.27" width="1671.92" height="1688.43" style="fill:none;stroke:#FFFFFF;stroke-width:4.90"/>
	<line x1="2147.68" y1="2042.31" x2="3824.49" y2="2042.31" style="stroke:#EAF2F3;stroke-width:7.34"/>
	<line x1="2147.68" y1="1818.32" x2="3824.49" y2="1818.32" style="stroke:#EAF2F3;stroke-width:7.34"/>
	<line x1="2147.68" y1="1594.44" x2="3824.49" y2="1594.44" style="stroke:#EAF2F3;stroke-width:7.34"/>
	<line x1="2147.68" y1="1370.57" x2="3824.49" y2="1370.57" style="stroke:#EAF2F3;stroke-width:7.34"/>
	<line x1="2147.68" y1="1146.58" x2="3824.49" y2="1146.58" style="stroke:#EAF2F3;stroke-width:7.34"/>
	<line x1="2147.68" y1="922.71" x2="3824.49" y2="922.71" style="stroke:#EAF2F3;stroke-width:7.34"/>
	<defs>
		<path id="path_KsplYkkj" d="M455.52 2042.19 L455.52 2042.19 L480.89 2042.19 L506.14 2042.19 L531.51 2042.19 L556.75 2042.06 L582.12 2042.06 L607.37 2042.06 L632.73 2041.94 L657.98 2041.94 L683.35 2041.82 L708.59 2041.69 L733.96 2041.57 L759.21 2041.44 L784.58 2041.20 L809.82 2040.95 L835.19 2040.70 L860.43 2040.45 L885.80 2040.21 L911.05 2039.83 L936.42 2039.34 L961.66 2038.97 L987.03 2038.47 L1012.27 2037.98 L1037.64 2037.36 L1062.89 2036.86 L1088.26 2036.25 L1113.50 2035.50 L1138.87 2034.76 L1164.24 2034.02 L1189.48 2033.28 L1214.85 2032.41 L1240.10 2031.42 L1265.47 2030.43 L1290.71 2029.32 L1316.08 2028.20 L1341.33 2026.96 L1366.69 2025.60 L1391.94 2024.12 L1417.31 2022.51 L1442.55 2020.65 L1467.92 2018.67 L1493.17 2016.45 L1518.54 2013.97 L1543.78 2011.25 L1569.15 2008.28 L1594.39 2004.81 L1619.76 2001.10 L1645.01 1996.89 L1670.38 1992.19 L1695.62 1986.87 L1720.99 1981.05 L1746.24 1974.49 L1771.61 1967.07 L1796.85 1958.90 L1822.22 1949.74 L1847.46 1939.47 L1872.83 1927.96 L1898.20 1915.09 L1923.45 1900.74 L1948.82 1884.65 L1974.06 1866.83 L1999.43 1846.78 L2024.67 1824.50 L2024.67 1748.52 L1999.43 1778.59 L1974.06 1805.57 L1948.82 1829.70 L1923.45 1851.23 L1898.20 1870.66 L1872.83 1887.87 L1847.46 1903.46 L1822.22 1917.32 L1796.85 1929.69 L1771.61 1940.71 L1746.24 1950.61 L1720.99 1959.52 L1695.62 1967.44 L1670.38 1974.62 L1645.01 1980.93 L1619.76 1986.74 L1594.39 1991.82 L1569.15 1996.40 L1543.78 2000.48 L1518.54 2004.19 L1493.17 2007.41 L1467.92 2010.38 L1442.55 2013.10 L1417.31 2015.46 L1391.94 2017.56 L1366.69 2019.54 L1341.33 2021.27 L1316.08 2022.88 L1290.71 2024.37 L1265.47 2025.85 L1240.10 2027.09 L1214.85 2028.33 L1189.48 2029.44 L1164.24 2030.55 L1138.87 2031.67 L1113.50 2032.66 L1088.26 2033.52 L1062.89 2034.39 L1037.64 2035.26 L1012.27 2036.00 L987.03 2036.62 L961.66 2037.36 L936.42 2037.85 L911.05 2038.35 L885.80 2038.84 L860.43 2039.22 L835.19 2039.59 L809.82 2039.96 L784.58 2040.21 L759.21 2040.45 L733.96 2040.70 L708.59 2040.83 L683.35 2041.07 L657.98 2041.20 L632.73 2041.32 L607.37 2041.44 L582.12 2041.57 L556.75 2041.69 L531.51 2041.69 L506.14 2041.82 L480.89 2041.82 L455.52 2041.94 L455.52 2042.19 Z" stroke-linejoin="round"/>
	</defs>
	<defs>
		<clipPath id="clipPath_MrVSGHoX">
			<use xlink:href="#path_KsplYkkj"/>
		</clipPath>
	</defs>
	<use xlink:href="#path_KsplYkkj" style="stroke:none;fill:#E6E6E6"/>
	<use xlink:href="#path_KsplYkkj" style="fill:none;stroke:#E0E0E0;stroke-width:14.69" clip-path="url(#clipPath_MrVSGHoX)"/>
	<defs>
		<path id="path_ypKWPWmN" d="M455.52 2042.19 L455.52 2042.19 L480.89 2042.06 L506.14 2042.06 L531.51 2041.94 L556.75 2041.94 L582.12 2041.82 L607.37 2041.69 L632.73 2041.57 L657.98 2041.44 L683.35 2041.32 L708.59 2041.07 L733.96 2040.70 L759.21 2040.45 L784.58 2040.08 L809.82 2039.59 L835.19 2039.09 L860.43 2038.47 L885.80 2037.73 L911.05 2036.99 L936.42 2036.25 L961.66 2035.26 L987.03 2034.27 L1012.27 2033.15 L1037.64 2032.04 L1062.89 2030.80 L1088.26 2029.44 L1113.50 2028.08 L1138.87 2026.47 L1164.24 2024.98 L1189.48 2023.25 L1214.85 2021.40 L1240.10 2019.42 L1265.47 2017.19 L1290.71 2014.96 L1316.08 2012.49 L1341.33 2009.89 L1366.69 2006.92 L1391.94 2003.82 L1417.31 2000.36 L1442.55 1996.52 L1467.92 1992.31 L1493.17 1987.61 L1518.54 1982.29 L1543.78 1976.47 L1569.15 1970.04 L1594.39 1962.86 L1619.76 1954.82 L1645.01 1945.78 L1670.38 1935.76 L1695.62 1924.50 L1720.99 1912.00 L1746.24 1898.01 L1771.61 1882.30 L1796.85 1864.85 L1822.22 1845.29 L1847.46 1823.39 L1872.83 1798.89 L1898.20 1771.41 L1923.45 1740.85 L1948.82 1706.69 L1974.06 1668.45 L1999.43 1625.75 L2024.67 1578.23 L2024.67 1422.06 L1999.43 1485.42 L1974.06 1542.22 L1948.82 1593.08 L1923.45 1638.62 L1898.20 1679.46 L1872.83 1715.97 L1847.46 1748.64 L1822.22 1777.85 L1796.85 1803.96 L1771.61 1827.47 L1746.24 1848.39 L1720.99 1867.07 L1695.62 1883.91 L1670.38 1898.88 L1645.01 1912.37 L1619.76 1924.50 L1594.39 1935.26 L1569.15 1944.92 L1543.78 1953.58 L1518.54 1961.38 L1493.17 1968.31 L1467.92 1974.62 L1442.55 1980.19 L1417.31 1985.14 L1391.94 1989.71 L1366.69 1993.80 L1341.33 1997.51 L1316.08 2000.98 L1290.71 2004.19 L1265.47 2007.16 L1240.10 2009.89 L1214.85 2012.61 L1189.48 2014.96 L1164.24 2017.31 L1138.87 2019.54 L1113.50 2021.64 L1088.26 2023.62 L1062.89 2025.48 L1037.64 2027.21 L1012.27 2028.82 L987.03 2030.31 L961.66 2031.67 L936.42 2032.90 L911.05 2034.02 L885.80 2035.01 L860.43 2035.87 L835.19 2036.62 L809.82 2037.36 L784.58 2037.85 L759.21 2038.47 L733.96 2038.84 L708.59 2039.34 L683.35 2039.71 L657.98 2039.96 L632.73 2040.33 L607.37 2040.45 L582.12 2040.70 L556.75 2040.95 L531.51 2041.07 L506.14 2041.20 L480.89 2041.32 L455.52 2041.44 L455.52 2042.19 Z" stroke-linejoin="round"/>
	</defs>
	<defs>
		<clipPath id="clipPath_gXvhJWcm">
			<use xlink:href="#path_ypKWPWmN"/>
		</clipPath>
	</defs>
	<use xlink:href="#path_ypKWPWmN" style="stroke:none;fill:#E6E6E6"/>
	<use xlink:href="#path_ypKWPWmN" style="fill:none;stroke:#E0E0E0;stroke-width:14.69" clip-path="url(#clipPath_gXvhJWcm)"/>
	<defs>
		<path id="path_qxNwDwhG" d="M455.52 2042.06 L455.52 2042.06 L480.89 2041.94 L506.14 2041.82 L531.51 2041.82 L556.75 2041.69 L582.12 2041.57 L607.37 2041.32 L632.73 2041.07 L657.98 2040.83 L683.35 2040.45 L708.59 2040.08 L733.96 2039.59 L759.21 2039.09 L784.58 2038.35 L809.82 2037.61 L835.19 2036.74 L860.43 2035.63 L885.80 2034.51 L911.05 2033.15 L936.42 2031.67 L961.66 2030.06 L987.03 2028.33 L1012.27 2026.35 L1037.64 2024.37 L1062.89 2022.26 L1088.26 2019.91 L1113.50 2017.44 L1138.87 2014.84 L1164.24 2011.99 L1189.48 2009.02 L1214.85 2005.80 L1240.10 2002.34 L1265.47 1998.62 L1290.71 1994.66 L1316.08 1990.33 L1341.33 1985.63 L1366.69 1980.56 L1391.94 1975.11 L1417.31 1969.05 L1442.55 1962.37 L1467.92 1955.06 L1493.17 1946.77 L1518.54 1937.74 L1543.78 1927.47 L1569.15 1916.20 L1594.39 1903.58 L1619.76 1889.60 L1645.01 1873.88 L1670.38 1856.31 L1695.62 1836.75 L1720.99 1814.85 L1746.24 1790.35 L1771.61 1763.00 L1796.85 1732.31 L1822.22 1698.03 L1847.46 1659.79 L1872.83 1616.97 L1898.20 1569.08 L1923.45 1515.49 L1948.82 1455.72 L1974.06 1388.89 L1999.43 1314.27 L2024.67 1231.10 L2024.67 960.33 L1999.43 1070.72 L1974.06 1169.60 L1948.82 1258.21 L1923.45 1337.53 L1898.20 1408.57 L1872.83 1472.30 L1847.46 1529.23 L1822.22 1580.21 L1796.85 1625.88 L1771.61 1666.72 L1746.24 1703.22 L1720.99 1736.02 L1695.62 1765.35 L1670.38 1791.58 L1645.01 1815.10 L1619.76 1836.14 L1594.39 1855.07 L1569.15 1871.90 L1543.78 1887.12 L1518.54 1900.74 L1493.17 1912.86 L1467.92 1923.75 L1442.55 1933.53 L1417.31 1942.32 L1391.94 1950.24 L1366.69 1957.41 L1341.33 1963.97 L1316.08 1970.04 L1290.71 1975.61 L1265.47 1980.80 L1240.10 1985.63 L1214.85 1990.21 L1189.48 1994.54 L1164.24 1998.62 L1138.87 2002.46 L1113.50 2006.17 L1088.26 2009.64 L1062.89 2012.86 L1037.64 2015.83 L1012.27 2018.67 L987.03 2021.27 L961.66 2023.75 L936.42 2025.85 L911.05 2027.83 L885.80 2029.56 L860.43 2031.05 L835.19 2032.41 L809.82 2033.52 L784.58 2034.64 L759.21 2035.50 L733.96 2036.37 L708.59 2037.11 L683.35 2037.73 L657.98 2038.23 L632.73 2038.72 L607.37 2039.22 L582.12 2039.59 L556.75 2039.96 L531.51 2040.21 L506.14 2040.45 L480.89 2040.70 L455.52 2040.83 L455.52 2042.06 Z" stroke-linejoin="round"/>
	</defs>
	<defs>
		<clipPath id="clipPath_XqJexAQF">
			<use xlink:href="#path_qxNwDwhG"/>
		</clipPath>
	</defs>
	<use xlink:href="#path_qxNwDwhG" style="stroke:none;fill:#E6E6E6"/>
	<use xlink:href="#path_qxNwDwhG" style="fill:none;stroke:#E0E0E0;stroke-width:14.69" clip-path="url(#clipPath_XqJexAQF)"/>
	<line x1="455.52" y1="2008.65" x2="458.37" y2="2008.65" style="stroke:#A0A0A0;stroke-width:7.34"/>
	<line x1="478.54" y1="2008.65" x2="480.77" y2="2008.65" style="stroke:#A0A0A0;stroke-width:7.34"/>
	<line x1="480.77" y1="2008.65" x2="481.39" y2="2008.65" style="stroke:#A0A0A0;stroke-width:7.34"/>
	<line x1="501.56" y1="2008.65" x2="504.40" y2="2008.65" style="stroke:#A0A0A0;stroke-width:7.34"/>
	<line x1="524.58" y1="2008.65" x2="527.42" y2="2008.65" style="stroke:#A0A0A0;stroke-width:7.34"/>
	<line x1="547.59" y1="2008.65" x2="550.44" y2="2008.65" style="stroke:#A0A0A0;stroke-width:7.34"/>
	<line x1="570.61" y1="2008.65" x2="573.58" y2="2008.65" style="stroke:#A0A0A0;stroke-width:7.34"/>
	<line x1="593.75" y1="2008.65" x2="596.60" y2="2008.65" style="stroke:#A0A0A0;stroke-width:7.34"/>
	<line x1="616.77" y1="2008.65" x2="619.62" y2="2008.65" style="stroke:#A0A0A0;stroke-width:7.34"/>
	<line x1="639.79" y1="2008.65" x2="642.63" y2="2008.65" style="stroke:#A0A0A0;stroke-width:7.34"/>
	<line x1="662.80" y1="2008.65" x2="665.65" y2="2008.65" style="stroke:#A0A0A0;stroke-width:7.34"/>
	<line x1="685.82" y1="2008.65" x2="688.67" y2="2008.65" style="stroke:#A0A0A0;stroke-width:7.34"/>
	<line x1="708.84" y1="2008.65" x2="711.69" y2="2008.65" style="stroke:#A0A0A0;stroke-width:7.34"/>
	<line x1="731.86" y1="2008.65" x2="733.84" y2="2008.65" style="stroke:#A0A0A0;stroke-width:7.34"/>
	<line x1="733.84" y1="2008.65" x2="734.70" y2="2008.65" style="stroke:#A0A0A0;stroke-width:7.34"/>
	<line x1="754.88" y1="2008.65" x2="757.72" y2="2008.65" style="stroke:#A0A0A0;stroke-width:7.34"/>
	<line x1="777.89" y1="2008.65" x2="780.74" y2="2008.65" style="stroke:#A0A0A0;stroke-width:7.34"/>
	<line x1="800.91" y1="2008.65" x2="803.88" y2="2008.65" style="stroke:#A0A0A0;stroke-width:7.34"/>
	<line x1="823.93" y1="2008.65" x2="826.90" y2="2008.65" style="stroke:#A0A0A0;stroke-width:7.34"/>
	<line x1="847.07" y1="2008.65" x2="849.91" y2="2008.65" style="stroke:#A0A0A0;stroke-width:7.34"/>
	<line x1="870.09" y1="2008.65" x2="872.93" y2="2008.65" style="stroke:#A0A0A0;stroke-width:7.34"/>
	<line x1="893.10" y1="2008.65" x2="895.95" y2="2008.65" style="stroke:#A0A0A0;stroke-width:7.34"/>
	<line x1="916.12" y1="2008.65" x2="918.97" y2="2008.65" style="stroke:#A0A0A0;stroke-width:7.34"/>
	<line x1="939.14" y1="2008.65" x2="941.99" y2="2008.65" style="stroke:#A0A0A0;stroke-width:7.34"/>
	<line x1="962.16" y1="2008.65" x2="965.00" y2="2008.65" style="stroke:#A0A0A0;stroke-width:7.34"/>
	<line x1="985.17" y1="2008.65" x2="986.91" y2="2008.65" style="stroke:#A0A0A0;stroke-width:7.34"/>
	<line x1="986.91" y1="2008.65" x2="988.02" y2="2008.65" style="stroke:#A0A0A0;stroke-width:7.34"/>
	<line x1="1008.19" y1="2008.65" x2="1011.04" y2="2008.65" style="stroke:#A0A0A0;stroke-width:7.34"/>
	<line x1="1031.21" y1="2008.65" x2="1034.06" y2="2008.65" style="stroke:#A0A0A0;stroke-width:7.34"/>
	<line x1="1054.23" y1="2008.65" x2="1057.20" y2="2008.65" style="stroke:#A0A0A0;stroke-width:7.34"/>
	<line x1="1077.24" y1="2008.65" x2="1080.21" y2="2008.65" style="stroke:#A0A0A0;stroke-width:7.34"/>
	<line x1="1100.38" y1="2008.65" x2="1103.23" y2="2008.65" style="stroke:#A0A0A0;stroke-width:7.34"/>
	<line x1="1123.40" y1="2008.65" x2="1126.25" y2="2008.65" style="stroke:#A0A0A0;stroke-width:7.34"/>
	<line x1="1146.42" y1="2008.65" x2="1149.27" y2="2008.65" style="stroke:#A0A0A0;stroke-width:7.34"/>
	<line x1="1169.44" y1="2008.65" x2="1172.28" y2="2008.65" style="stroke:#A0A0A0;stroke-width:7.34"/>
	<line x1="1192.45" y1="2008.65" x2="1195.30" y2="2008.65" style="stroke:#A0A0A0;stroke-width:7.34"/>
	<line x1="1215.47" y1="2008.65" x2="1218.32" y2="2008.65" style="stroke:#A0A0A0;stroke-width:7.34"/>
	<line x1="1238.49" y1="2008.65" x2="1240.10" y2="2008.65" style="stroke:#A0A0A0;stroke-width:7.34"/>
	<line x1="1240.10" y1="2008.65" x2="1241.34" y2="2008.65" style="stroke:#A0A0A0;stroke-width:7.34"/>
	<line x1="1261.51" y1="2008.65" x2="1264.35" y2="2008.65" style="stroke:#A0A0A0;stroke-width:7.34"/>
	<line x1="1284.53" y1="2008.65" x2="1287.37" y2="2008.65" style="stroke:#A0A0A0;stroke-width:7.34"/>
	<line x1="1307.54" y1="2008.65" x2="1310.51" y2="2008.65" style="stroke:#A0A0A0;stroke-width:7.34"/>
	<line x1="1330.56" y1="2008.65" x2="1333.53" y2="2008.65" style="stroke:#A0A0A0;stroke-width:7.34"/>
	<line x1="1353.70" y1="2008.65" x2="1356.55" y2="2008.65" style="stroke:#A0A0A0;stroke-width:7.34"/>
	<line x1="1376.72" y1="2008.65" x2="1379.57" y2="2008.65" style="stroke:#A0A0A0;stroke-width:7.34"/>
	<line x1="1399.74" y1="2008.65" x2="1402.58" y2="2008.65" style="stroke:#A0A0A0;stroke-width:7.34"/>
	<line x1="1422.75" y1="2008.65" x2="1425.60" y2="2008.65" style="stroke:#A0A0A0;stroke-width:7.34"/>
	<line x1="1445.77" y1="2008.65" x2="1448.62" y2="2008.65" style="stroke:#A0A0A0;stroke-width:7.34"/>
	<line x1="1468.79" y1="2008.65" x2="1471.63" y2="2008.65" style="stroke:#A0A0A0;stroke-width:7.34"/>
	<line x1="1491.81" y1="2008.65" x2="1493.17" y2="2008.65" style="stroke:#A0A0A0;stroke-width:7.34"/>
	<line x1="1493.17" y1="2008.65" x2="1494.65" y2="2008.65" style="stroke:#A0A0A0;stroke-width:7.34"/>
	<line x1="1514.82" y1="2008.65" x2="1517.67" y2="2008.65" style="stroke:#A0A0A0;stroke-width:7.34"/>
	<line x1="1537.84" y1="2008.65" x2="1540.69" y2="2008.65" style="stroke:#A0A0A0;stroke-width:7.34"/>
	<line x1="1560.86" y1="2008.65" x2="1563.83" y2="2008.65" style="stroke:#A0A0A0;stroke-width:7.34"/>
	<line x1="1584.00" y1="2008.65" x2="1586.85" y2="2008.65" style="stroke:#A0A0A0;stroke-width:7.34"/>
	<line x1="1607.02" y1="2008.65" x2="1609.86" y2="2008.65" style="stroke:#A0A0A0;stroke-width:7.34"/>
	<line x1="1630.04" y1="2008.65" x2="1632.88" y2="2008.65" style="stroke:#A0A0A0;stroke-width:7.34"/>
	<line x1="1653.05" y1="2008.65" x2="1655.90" y2="2008.65" style="stroke:#A0A0A0;stroke-width:7.34"/>
	<line x1="1676.07" y1="2008.65" x2="1678.92" y2="2008.65" style="stroke:#A0A0A0;stroke-width:7.34"/>
	<line x1="1699.09" y1="2008.65" x2="1701.93" y2="2008.65" style="stroke:#A0A0A0;stroke-width:7.34"/>
	<line x1="1722.11" y1="2008.65" x2="1724.95" y2="2008.65" style="stroke:#A0A0A0;stroke-width:7.34"/>
	<line x1="1745.12" y1="2008.65" x2="1746.24" y2="2008.65" style="stroke:#A0A0A0;stroke-width:7.34"/>
	<line x1="1746.24" y1="2008.65" x2="1747.97" y2="2008.65" style="stroke:#A0A0A0;stroke-width:7.34"/>
	<line x1="1768.14" y1="2008.65" x2="1770.99" y2="2008.65" style="stroke:#A0A0A0;stroke-width:7.34"/>
	<line x1="1791.16" y1="2008.65" x2="1794.00" y2="2008.65" style="stroke:#A0A0A0;stroke-width:7.34"/>
	<line x1="1814.17" y1="2008.65" x2="1817.14" y2="2008.65" style="stroke:#A0A0A0;stroke-width:7.34"/>
	<line x1="1837.32" y1="2008.65" x2="1840.16" y2="2008.65" style="stroke:#A0A0A0;stroke-width:7.34"/>
	<line x1="1860.33" y1="2008.65" x2="1863.18" y2="2008.65" style="stroke:#A0A0A0;stroke-width:7.34"/>
	<line x1="1883.35" y1="2008.65" x2="1886.20" y2="2008.65" style="stroke:#A0A0A0;stroke-width:7.34"/>
	<line x1="1906.37" y1="2008.65" x2="1909.21" y2="2008.65" style="stroke:#A0A0A0;stroke-width:7.34"/>
	<line x1="1929.39" y1="2008.65" x2="1932.23" y2="2008.65" style="stroke:#A0A0A0;stroke-width:7.34"/>
	<line x1="1952.40" y1="2008.65" x2="1955.25" y2="2008.65" style="stroke:#A0A0A0;stroke-width:7.34"/>
	<line x1="1975.42" y1="2008.65" x2="1978.27" y2="2008.65" style="stroke:#A0A0A0;stroke-width:7.34"/>
	<line x1="1998.44" y1="2008.65" x2="1999.31" y2="2008.65" style="stroke:#A0A0A0;stroke-width:7.34"/>
	<line x1="1999.31" y1="2008.65" x2="2001.29" y2="2008.65" style="stroke:#A0A0A0;stroke-width:7.34"/>
	<line x1="2021.46" y1="2008.65" x2="2024.30" y2="2008.65" style="stroke:#A0A0A0;stroke-width:7.34"/>
	<path d="" stroke-linejoin="round" style="fill:none;stroke:#A0A0A0;stroke-width:7.34"/>
	<path d=" M455.52 2041.94 L480.77 2041.94 L506.14 2041.82 L531.38 2041.69 L556.75 2041.69 L582.00 2041.57 L607.37 2041.32 L632.61 2041.20 L657.98 2040.95 L683.22 2040.70 L708.59 2040.45 L733.84 2040.08 L759.21 2039.71 L784.45 2039.22 L809.82 2038.72 L835.07 2038.10 L860.43 2037.36 L885.68 2036.62 L911.05 2035.75 L936.29 2034.76 L961.66 2033.77 L986.91 2032.53 L1012.27 2031.30 L1037.52 2029.93 L1062.89 2028.45 L1088.13 2026.84 L1113.50 2025.23 L1138.87 2023.38 L1164.12 2021.52 L1189.48 2019.54 L1214.73 2017.44 L1240.10 2015.08 L1265.34 2012.73 L1290.71 2010.13 L1315.96 2007.29 L1341.33 2004.19 L1366.57 2000.98 L1391.94 1997.39 L1417.18 1993.43 L1442.55 1988.97 L1467.80 1984.15 L1493.17 1978.70 L1518.41 1972.76 L1543.78 1965.95 L1569.03 1958.53 L1594.39 1950.11 L1619.64 1940.83 L1645.01 1930.44 L1670.25 1918.80 L1695.62 1905.81 L1720.87 1891.33 L1746.24 1875.12 L1771.48 1856.93 L1796.85 1836.75 L1822.10 1814.11 L1847.46 1788.74 L1872.71 1760.52 L1898.08 1728.84 L1923.45 1693.57 L1948.69 1654.09 L1974.06 1610.04 L1999.31 1560.78 L2024.67 1505.84" stroke-linejoin="round" style="fill:none;stroke:#008000;stroke-width:7.34"/>
	<path d=" M455.52 2041.69 L480.77 2041.57 L506.14 2041.44 L531.38 2041.32 L556.75 2041.07 L582.00 2040.95 L607.37 2040.58 L632.61 2040.33 L657.98 2039.96 L683.22 2039.46 L708.59 2038.97 L733.84 2038.35 L759.21 2037.73 L784.45 2036.86 L809.82 2036.00 L835.07 2034.88 L860.43 2033.65 L885.68 2032.29 L911.05 2030.80 L936.29 2029.19 L961.66 2027.21 L986.91 2025.23 L1012.27 2023.00 L1037.52 2020.65 L1062.89 2018.05 L1088.13 2015.33 L1113.50 2012.36 L1138.87 2009.27 L1164.12 2005.93 L1189.48 2002.46 L1214.73 1998.75 L1240.10 1994.79 L1265.34 1990.58 L1290.71 1986.00 L1315.96 1981.05 L1341.33 1975.73 L1366.57 1970.04 L1391.94 1963.73 L1417.18 1956.80 L1442.55 1949.12 L1467.80 1940.71 L1493.17 1931.18 L1518.41 1920.66 L1543.78 1908.90 L1569.03 1895.79 L1594.39 1881.18 L1619.64 1864.97 L1645.01 1846.78 L1670.25 1826.36 L1695.62 1803.71 L1720.87 1778.34 L1746.24 1750.13 L1771.48 1718.45 L1796.85 1683.05 L1822.10 1643.58 L1847.46 1599.39 L1872.71 1549.89 L1898.08 1494.70 L1923.45 1433.07 L1948.69 1364.14 L1974.06 1287.16 L1999.31 1201.28 L2024.67 1105.49" stroke-linejoin="round" style="fill:none;stroke:#FF7F00;stroke-width:7.34"/>
	<path d=" M455.52 2042.19 L480.77 2042.19 L506.14 2042.06 L531.38 2042.06 L556.75 2042.06 L582.00 2041.94 L607.37 2041.82 L632.61 2041.82 L657.98 2041.69 L683.22 2041.57 L708.59 2041.44 L733.84 2041.32 L759.21 2041.07 L784.45 2040.83 L809.82 2040.58 L835.07 2040.33 L860.43 2039.96 L885.68 2039.59 L911.05 2039.22 L936.29 2038.72 L961.66 2038.23 L986.91 2037.73 L1012.27 2037.11 L1037.52 2036.49 L1062.89 2035.75 L1088.13 2035.01 L1113.50 2034.27 L1138.87 2033.40 L1164.12 2032.53 L1189.48 2031.54 L1214.73 2030.55 L1240.10 2029.56 L1265.34 2028.33 L1290.71 2027.09 L1315.96 2025.85 L1341.33 2024.37 L1366.57 2022.88 L1391.94 2021.15 L1417.18 2019.29 L1442.55 2017.19 L1467.80 2014.96 L1493.17 2012.36 L1518.41 2009.52 L1543.78 2006.30 L1569.03 2002.83 L1594.39 1998.87 L1619.64 1994.54 L1645.01 1989.59 L1670.25 1984.15 L1695.62 1977.96 L1720.87 1971.15 L1746.24 1963.48 L1771.48 1954.94 L1796.85 1945.41 L1822.10 1934.77 L1847.46 1922.89 L1872.71 1909.52 L1898.08 1894.55 L1923.45 1877.96 L1948.69 1859.28 L1974.06 1838.49 L1999.31 1815.35 L2024.67 1789.36" stroke-linejoin="round" style="fill:none;stroke:#1A476F;stroke-width:7.34"/>
	<defs>
		<path id="path_sWHEVGTX" d="M2201.51 2042.19 L2201.51 2042.19 L2226.88 2042.19 L2252.13 2042.06 L2277.49 2042.06 L2302.74 2042.06 L2328.11 2041.94 L2353.35 2041.94 L2378.72 2041.82 L2403.97 2041.69 L2429.34 2041.57 L2454.58 2041.44 L2479.95 2041.20 L2505.20 2040.95 L2530.56 2040.70 L2555.81 2040.45 L2581.18 2040.08 L2606.42 2039.59 L2631.79 2039.09 L2657.04 2038.60 L2682.41 2037.98 L2707.65 2037.36 L2733.02 2036.74 L2758.26 2035.87 L2783.63 2035.13 L2808.88 2034.27 L2834.25 2033.40 L2859.49 2032.41 L2884.86 2031.30 L2910.11 2030.18 L2935.47 2029.07 L2960.72 2027.71 L2986.09 2026.35 L3011.46 2024.86 L3036.70 2023.25 L3062.07 2021.64 L3087.32 2019.79 L3112.68 2017.81 L3137.93 2015.58 L3163.30 2013.23 L3188.54 2010.51 L3213.91 2007.66 L3239.16 2004.44 L3264.53 2000.85 L3289.77 1996.77 L3315.14 1992.31 L3340.38 1987.36 L3365.75 1981.79 L3391.00 1975.61 L3416.37 1968.68 L3441.61 1961.00 L3466.98 1952.34 L3492.22 1942.69 L3517.59 1931.92 L3542.84 1919.92 L3568.21 1906.43 L3593.45 1891.33 L3618.82 1874.50 L3644.07 1855.69 L3669.43 1834.65 L3694.68 1811.14 L3720.05 1784.90 L3745.42 1755.70 L3770.66 1723.03 L3770.66 1610.90 L3745.42 1655.08 L3720.05 1694.69 L3694.68 1730.20 L3669.43 1761.88 L3644.07 1790.35 L3618.82 1815.72 L3593.45 1838.49 L3568.21 1858.78 L3542.84 1876.97 L3517.59 1893.31 L3492.22 1907.79 L3466.98 1920.91 L3441.61 1932.54 L3416.37 1943.06 L3391.00 1952.34 L3365.75 1960.76 L3340.38 1968.18 L3315.14 1974.99 L3289.77 1980.93 L3264.53 1986.37 L3239.16 1991.20 L3213.91 1995.53 L3188.54 1999.37 L3163.30 2002.83 L3137.93 2006.05 L3112.68 2008.90 L3087.32 2011.50 L3062.07 2013.85 L3036.70 2016.07 L3011.46 2018.05 L2986.09 2020.03 L2960.72 2021.77 L2935.47 2023.50 L2910.11 2025.11 L2884.86 2026.72 L2859.49 2028.08 L2834.25 2029.44 L2808.88 2030.68 L2783.63 2031.91 L2758.26 2033.03 L2733.02 2034.02 L2707.65 2035.01 L2682.41 2035.87 L2657.04 2036.62 L2631.79 2037.24 L2606.42 2037.85 L2581.18 2038.35 L2555.81 2038.84 L2530.56 2039.22 L2505.20 2039.59 L2479.95 2039.96 L2454.58 2040.21 L2429.34 2040.45 L2403.97 2040.70 L2378.72 2040.83 L2353.35 2041.07 L2328.11 2041.20 L2302.74 2041.32 L2277.49 2041.44 L2252.13 2041.57 L2226.88 2041.69 L2201.51 2041.69 L2201.51 2042.19 Z" stroke-linejoin="round"/>
	</defs>
	<defs>
		<clipPath id="clipPath_beNJhIhA">
			<use xlink:href="#path_sWHEVGTX"/>
		</clipPath>
	</defs>
	<use xlink:href="#path_sWHEVGTX" style="stroke:none;fill:#E6E6E6"/>
	<use xlink:href="#path_sWHEVGTX" style="fill:none;stroke:#E0E0E0;stroke-width:14.69" clip-path="url(#clipPath_beNJhIhA)"/>
	<defs>
		<path id="path_cMKfrapB" d="M2201.51 2042.06 L2201.51 2042.06 L2226.88 2042.06 L2252.13 2041.94 L2277.49 2041.82 L2302.74 2041.69 L2328.11 2041.69 L2353.35 2041.44 L2378.72 2041.32 L2403.97 2041.07 L2429.34 2040.83 L2454.58 2040.45 L2479.95 2040.08 L2505.20 2039.59 L2530.56 2038.97 L2555.81 2038.35 L2581.18 2037.61 L2606.42 2036.74 L2631.79 2035.75 L2657.04 2034.51 L2682.41 2033.28 L2707.65 2031.91 L2733.02 2030.55 L2758.26 2028.94 L2783.63 2027.21 L2808.88 2025.36 L2834.25 2023.50 L2859.49 2021.40 L2884.86 2019.17 L2910.11 2016.82 L2935.47 2014.22 L2960.72 2011.50 L2986.09 2008.65 L3011.46 2005.56 L3036.70 2002.21 L3062.07 1998.50 L3087.32 1994.66 L3112.68 1990.33 L3137.93 1985.75 L3163.30 1980.68 L3188.54 1974.99 L3213.91 1968.80 L3239.16 1961.87 L3264.53 1954.20 L3289.77 1945.66 L3315.14 1936.25 L3340.38 1925.61 L3365.75 1913.73 L3391.00 1900.61 L3416.37 1885.89 L3441.61 1869.43 L3466.98 1850.99 L3492.22 1830.44 L3517.59 1807.55 L3542.84 1781.81 L3568.21 1753.10 L3593.45 1720.92 L3618.82 1685.03 L3644.07 1644.94 L3669.43 1600.01 L3694.68 1550.02 L3720.05 1493.96 L3745.42 1431.58 L3770.66 1361.79 L3770.66 1132.22 L3745.42 1225.29 L3720.05 1308.70 L3694.68 1383.32 L3669.43 1450.15 L3644.07 1510.04 L3618.82 1563.63 L3593.45 1611.52 L3568.21 1654.47 L3542.84 1692.83 L3517.59 1727.23 L3492.22 1757.92 L3466.98 1785.40 L3441.61 1810.02 L3416.37 1832.05 L3391.00 1851.85 L3365.75 1869.55 L3340.38 1885.39 L3315.14 1899.62 L3289.77 1912.24 L3264.53 1923.63 L3239.16 1933.90 L3213.91 1943.06 L3188.54 1951.23 L3163.30 1958.53 L3137.93 1965.21 L3112.68 1971.28 L3087.32 1976.72 L3062.07 1981.79 L3036.70 1986.37 L3011.46 1990.83 L2986.09 1994.91 L2960.72 1998.62 L2935.47 2002.34 L2910.11 2005.68 L2884.86 2008.90 L2859.49 2011.99 L2834.25 2014.84 L2808.88 2017.56 L2783.63 2020.16 L2758.26 2022.51 L2733.02 2024.74 L2707.65 2026.72 L2682.41 2028.57 L2657.04 2030.18 L2631.79 2031.54 L2606.42 2032.90 L2581.18 2034.02 L2555.81 2035.01 L2530.56 2035.87 L2505.20 2036.62 L2479.95 2037.36 L2454.58 2037.98 L2429.34 2038.47 L2403.97 2038.97 L2378.72 2039.34 L2353.35 2039.71 L2328.11 2039.96 L2302.74 2040.33 L2277.49 2040.58 L2252.13 2040.70 L2226.88 2040.95 L2201.51 2041.07 L2201.51 2042.06 Z" stroke-linejoin="round"/>
	</defs>
	<defs>
		<clipPath id="clipPath_ekAckKBt">
			<use xlink:href="#path_cMKfrapB"/>
		</clipPath>
	</defs>
	<use xlink:href="#path_cMKfrapB" style="stroke:none;fill:#E6E6E6"/>
	<use xlink:href="#path_cMKfrapB" style="fill:none;stroke:#E0E0E0;stroke-width:14.69" clip-path="url(#clipPath_ekAckKBt)"/>
	<defs>
		<path id="path_nYaOVcjt" d="M2201.51 2041.94 L2201.51 2041.94 L2226.88 2041.82 L2252.13 2041.69 L2277.49 2041.57 L2302.74 2041.32 L2328.11 2041.20 L2353.35 2040.83 L2378.72 2040.58 L2403.97 2040.21 L2429.34 2039.71 L2454.58 2039.09 L2479.95 2038.35 L2505.20 2037.61 L2530.56 2036.62 L2555.81 2035.38 L2581.18 2034.02 L2606.42 2032.53 L2631.79 2030.80 L2657.04 2028.82 L2682.41 2026.72 L2707.65 2024.24 L2733.02 2021.77 L2758.26 2018.92 L2783.63 2015.95 L2808.88 2012.73 L2834.25 2009.39 L2859.49 2005.80 L2884.86 2001.84 L2910.11 1997.76 L2935.47 1993.30 L2960.72 1988.60 L2986.09 1983.53 L3011.46 1978.08 L3036.70 1972.27 L3062.07 1965.95 L3087.32 1959.15 L3112.68 1951.60 L3137.93 1943.55 L3163.30 1934.64 L3188.54 1924.87 L3213.91 1913.98 L3239.16 1901.97 L3264.53 1888.48 L3289.77 1873.63 L3315.14 1857.05 L3340.38 1838.49 L3365.75 1817.82 L3391.00 1794.80 L3416.37 1768.94 L3441.61 1740.23 L3466.98 1708.05 L3492.22 1672.16 L3517.59 1631.94 L3542.84 1587.02 L3568.21 1536.78 L3593.45 1480.59 L3618.82 1417.72 L3644.07 1347.56 L3669.43 1269.10 L3694.68 1181.48 L3720.05 1083.59 L3745.42 974.31 L3770.66 852.42 L3770.66 456.65 L3745.42 618.40 L3720.05 763.31 L3694.68 893.13 L3669.43 1009.46 L3644.07 1113.66 L3618.82 1206.97 L3593.45 1290.51 L3568.21 1365.13 L3542.84 1432.08 L3517.59 1491.98 L3492.22 1545.56 L3466.98 1593.58 L3441.61 1636.52 L3416.37 1675.01 L3391.00 1709.41 L3365.75 1740.35 L3340.38 1767.95 L3315.14 1792.82 L3289.77 1814.97 L3264.53 1834.90 L3239.16 1852.72 L3213.91 1868.68 L3188.54 1883.04 L3163.30 1895.91 L3137.93 1907.42 L3112.68 1917.94 L3087.32 1927.59 L3062.07 1936.38 L3036.70 1944.54 L3011.46 1952.22 L2986.09 1959.27 L2960.72 1965.95 L2935.47 1972.27 L2910.11 1978.33 L2884.86 1984.02 L2859.49 1989.34 L2834.25 1994.42 L2808.88 1999.12 L2783.63 2003.58 L2758.26 2007.78 L2733.02 2011.62 L2707.65 2015.08 L2682.41 2018.18 L2657.04 2021.02 L2631.79 2023.62 L2606.42 2025.85 L2581.18 2027.83 L2555.81 2029.56 L2530.56 2031.05 L2505.20 2032.41 L2479.95 2033.65 L2454.58 2034.64 L2429.34 2035.63 L2403.97 2036.37 L2378.72 2037.11 L2353.35 2037.73 L2328.11 2038.35 L2302.74 2038.84 L2277.49 2039.22 L2252.13 2039.59 L2226.88 2039.96 L2201.51 2040.21 L2201.51 2041.94 Z" stroke-linejoin="round"/>
	</defs>
	<defs>
		<clipPath id="clipPath_wECLpODF">
			<use xlink:href="#path_nYaOVcjt"/>
		</clipPath>
	</defs>
	<use xlink:href="#path_nYaOVcjt" style="stroke:none;fill:#E6E6E6"/>
	<use xlink:href="#path_nYaOVcjt" style="fill:none;stroke:#E0E0E0;stroke-width:14.69" clip-path="url(#clipPath_wECLpODF)"/>
	<line x1="2201.39" y1="1992.93" x2="2204.24" y2="1992.93" style="stroke:#A0A0A0;stroke-width:7.34"/>
	<line x1="2224.41" y1="1992.93" x2="2226.76" y2="1992.93" style="stroke:#A0A0A0;stroke-width:7.34"/>
	<line x1="2226.76" y1="1992.93" x2="2227.25" y2="1992.93" style="stroke:#A0A0A0;stroke-width:7.34"/>
	<line x1="2247.42" y1="1992.93" x2="2250.27" y2="1992.93" style="stroke:#A0A0A0;stroke-width:7.34"/>
	<line x1="2270.44" y1="1992.93" x2="2273.29" y2="1992.93" style="stroke:#A0A0A0;stroke-width:7.34"/>
	<line x1="2293.46" y1="1992.93" x2="2296.43" y2="1992.93" style="stroke:#A0A0A0;stroke-width:7.34"/>
	<line x1="2316.60" y1="1992.93" x2="2319.45" y2="1992.93" style="stroke:#A0A0A0;stroke-width:7.34"/>
	<line x1="2339.62" y1="1992.93" x2="2342.46" y2="1992.93" style="stroke:#A0A0A0;stroke-width:7.34"/>
	<line x1="2362.64" y1="1992.93" x2="2365.48" y2="1992.93" style="stroke:#A0A0A0;stroke-width:7.34"/>
	<line x1="2385.65" y1="1992.93" x2="2388.50" y2="1992.93" style="stroke:#A0A0A0;stroke-width:7.34"/>
	<line x1="2408.67" y1="1992.93" x2="2411.52" y2="1992.93" style="stroke:#A0A0A0;stroke-width:7.34"/>
	<line x1="2431.69" y1="1992.93" x2="2434.53" y2="1992.93" style="stroke:#A0A0A0;stroke-width:7.34"/>
	<line x1="2454.70" y1="1992.93" x2="2457.55" y2="1992.93" style="stroke:#A0A0A0;stroke-width:7.34"/>
	<line x1="2477.72" y1="1992.93" x2="2479.83" y2="1992.93" style="stroke:#A0A0A0;stroke-width:7.34"/>
	<line x1="2479.83" y1="1992.93" x2="2480.57" y2="1992.93" style="stroke:#A0A0A0;stroke-width:7.34"/>
	<line x1="2500.74" y1="1992.93" x2="2503.59" y2="1992.93" style="stroke:#A0A0A0;stroke-width:7.34"/>
	<line x1="2523.76" y1="1992.93" x2="2526.60" y2="1992.93" style="stroke:#A0A0A0;stroke-width:7.34"/>
	<line x1="2546.78" y1="1992.93" x2="2549.74" y2="1992.93" style="stroke:#A0A0A0;stroke-width:7.34"/>
	<line x1="2569.92" y1="1992.93" x2="2572.76" y2="1992.93" style="stroke:#A0A0A0;stroke-width:7.34"/>
	<line x1="2592.93" y1="1992.93" x2="2595.78" y2="1992.93" style="stroke:#A0A0A0;stroke-width:7.34"/>
	<line x1="2615.95" y1="1992.93" x2="2618.80" y2="1992.93" style="stroke:#A0A0A0;stroke-width:7.34"/>
	<line x1="2638.97" y1="1992.93" x2="2641.82" y2="1992.93" style="stroke:#A0A0A0;stroke-width:7.34"/>
	<line x1="2661.99" y1="1992.93" x2="2664.83" y2="1992.93" style="stroke:#A0A0A0;stroke-width:7.34"/>
	<line x1="2685.00" y1="1992.93" x2="2687.85" y2="1992.93" style="stroke:#A0A0A0;stroke-width:7.34"/>
	<line x1="2708.02" y1="1992.93" x2="2710.87" y2="1992.93" style="stroke:#A0A0A0;stroke-width:7.34"/>
	<line x1="2731.04" y1="1992.93" x2="2732.89" y2="1992.93" style="stroke:#A0A0A0;stroke-width:7.34"/>
	<line x1="2732.89" y1="1992.93" x2="2733.89" y2="1992.93" style="stroke:#A0A0A0;stroke-width:7.34"/>
	<line x1="2754.06" y1="1992.93" x2="2756.90" y2="1992.93" style="stroke:#A0A0A0;stroke-width:7.34"/>
	<line x1="2777.07" y1="1992.93" x2="2779.92" y2="1992.93" style="stroke:#A0A0A0;stroke-width:7.34"/>
	<line x1="2800.09" y1="1992.93" x2="2803.06" y2="1992.93" style="stroke:#A0A0A0;stroke-width:7.34"/>
	<line x1="2823.23" y1="1992.93" x2="2826.08" y2="1992.93" style="stroke:#A0A0A0;stroke-width:7.34"/>
	<line x1="2846.25" y1="1992.93" x2="2849.10" y2="1992.93" style="stroke:#A0A0A0;stroke-width:7.34"/>
	<line x1="2869.27" y1="1992.93" x2="2872.11" y2="1992.93" style="stroke:#A0A0A0;stroke-width:7.34"/>
	<line x1="2892.28" y1="1992.93" x2="2895.13" y2="1992.93" style="stroke:#A0A0A0;stroke-width:7.34"/>
	<line x1="2915.30" y1="1992.93" x2="2918.15" y2="1992.93" style="stroke:#A0A0A0;stroke-width:7.34"/>
	<line x1="2938.32" y1="1992.93" x2="2941.17" y2="1992.93" style="stroke:#A0A0A0;stroke-width:7.34"/>
	<line x1="2961.34" y1="1992.93" x2="2964.18" y2="1992.93" style="stroke:#A0A0A0;stroke-width:7.34"/>
	<line x1="2984.36" y1="1992.93" x2="2986.09" y2="1992.93" style="stroke:#A0A0A0;stroke-width:7.34"/>
	<line x1="2986.09" y1="1992.93" x2="2987.20" y2="1992.93" style="stroke:#A0A0A0;stroke-width:7.34"/>
	<line x1="3007.37" y1="1992.93" x2="3010.22" y2="1992.93" style="stroke:#A0A0A0;stroke-width:7.34"/>
	<line x1="3030.39" y1="1992.93" x2="3033.36" y2="1992.93" style="stroke:#A0A0A0;stroke-width:7.34"/>
	<line x1="3053.41" y1="1992.93" x2="3056.38" y2="1992.93" style="stroke:#A0A0A0;stroke-width:7.34"/>
	<line x1="3076.55" y1="1992.93" x2="3079.39" y2="1992.93" style="stroke:#A0A0A0;stroke-width:7.34"/>
	<line x1="3099.57" y1="1992.93" x2="3102.41" y2="1992.93" style="stroke:#A0A0A0;stroke-width:7.34"/>
	<line x1="3122.58" y1="1992.93" x2="3125.43" y2="1992.93" style="stroke:#A0A0A0;stroke-width:7.34"/>
	<line x1="3145.60" y1="1992.93" x2="3148.45" y2="1992.93" style="stroke:#A0A0A0;stroke-width:7.34"/>
	<line x1="3168.62" y1="1992.93" x2="3171.47" y2="1992.93" style="stroke:#A0A0A0;stroke-width:7.34"/>
	<line x1="3191.64" y1="1992.93" x2="3194.48" y2="1992.93" style="stroke:#A0A0A0;stroke-width:7.34"/>
	<line x1="3214.65" y1="1992.93" x2="3217.50" y2="1992.93" style="stroke:#A0A0A0;stroke-width:7.34"/>
	<line x1="3237.67" y1="1992.93" x2="3239.16" y2="1992.93" style="stroke:#A0A0A0;stroke-width:7.34"/>
	<line x1="3239.16" y1="1992.93" x2="3240.52" y2="1992.93" style="stroke:#A0A0A0;stroke-width:7.34"/>
	<line x1="3260.69" y1="1992.93" x2="3263.53" y2="1992.93" style="stroke:#A0A0A0;stroke-width:7.34"/>
	<line x1="3283.71" y1="1992.93" x2="3286.68" y2="1992.93" style="stroke:#A0A0A0;stroke-width:7.34"/>
	<line x1="3306.72" y1="1992.93" x2="3309.69" y2="1992.93" style="stroke:#A0A0A0;stroke-width:7.34"/>
	<line x1="3329.86" y1="1992.93" x2="3332.71" y2="1992.93" style="stroke:#A0A0A0;stroke-width:7.34"/>
	<line x1="3352.88" y1="1992.93" x2="3355.73" y2="1992.93" style="stroke:#A0A0A0;stroke-width:7.34"/>
	<line x1="3375.90" y1="1992.93" x2="3378.75" y2="1992.93" style="stroke:#A0A0A0;stroke-width:7.34"/>
	<line x1="3398.92" y1="1992.93" x2="3401.76" y2="1992.93" style="stroke:#A0A0A0;stroke-width:7.34"/>
	<line x1="3421.93" y1="1992.93" x2="3424.78" y2="1992.93" style="stroke:#A0A0A0;stroke-width:7.34"/>
	<line x1="3444.95" y1="1992.93" x2="3447.80" y2="1992.93" style="stroke:#A0A0A0;stroke-width:7.34"/>
	<line x1="3467.97" y1="1992.93" x2="3470.82" y2="1992.93" style="stroke:#A0A0A0;stroke-width:7.34"/>
	<line x1="3490.99" y1="1992.93" x2="3492.22" y2="1992.93" style="stroke:#A0A0A0;stroke-width:7.34"/>
	<line x1="3492.22" y1="1992.93" x2="3493.83" y2="1992.93" style="stroke:#A0A0A0;stroke-width:7.34"/>
	<line x1="3514.01" y1="1992.93" x2="3516.85" y2="1992.93" style="stroke:#A0A0A0;stroke-width:7.34"/>
	<line x1="3537.02" y1="1992.93" x2="3539.99" y2="1992.93" style="stroke:#A0A0A0;stroke-width:7.34"/>
	<line x1="3560.04" y1="1992.93" x2="3563.01" y2="1992.93" style="stroke:#A0A0A0;stroke-width:7.34"/>
	<line x1="3583.18" y1="1992.93" x2="3586.03" y2="1992.93" style="stroke:#A0A0A0;stroke-width:7.34"/>
	<line x1="3606.20" y1="1992.93" x2="3609.05" y2="1992.93" style="stroke:#A0A0A0;stroke-width:7.34"/>
	<line x1="3629.22" y1="1992.93" x2="3632.06" y2="1992.93" style="stroke:#A0A0A0;stroke-width:7.34"/>
	<line x1="3652.23" y1="1992.93" x2="3655.08" y2="1992.93" style="stroke:#A0A0A0;stroke-width:7.34"/>
	<line x1="3675.25" y1="1992.93" x2="3678.10" y2="1992.93" style="stroke:#A0A0A0;stroke-width:7.34"/>
	<line x1="3698.27" y1="1992.93" x2="3701.11" y2="1992.93" style="stroke:#A0A0A0;stroke-width:7.34"/>
	<line x1="3721.29" y1="1992.93" x2="3724.13" y2="1992.93" style="stroke:#A0A0A0;stroke-width:7.34"/>
	<line x1="3744.30" y1="1992.93" x2="3745.29" y2="1992.93" style="stroke:#A0A0A0;stroke-width:7.34"/>
	<line x1="3745.29" y1="1992.93" x2="3747.15" y2="1992.93" style="stroke:#A0A0A0;stroke-width:7.34"/>
	<line x1="3767.32" y1="1992.93" x2="3770.17" y2="1992.93" style="stroke:#A0A0A0;stroke-width:7.34"/>
	<path d="" stroke-linejoin="round" style="fill:none;stroke:#A0A0A0;stroke-width:7.34"/>
	<path d=" M2201.39 2041.82 L2226.76 2041.69 L2252.13 2041.57 L2277.37 2041.44 L2302.74 2041.32 L2327.99 2041.07 L2353.35 2040.95 L2378.60 2040.58 L2403.97 2040.33 L2429.21 2039.96 L2454.58 2039.46 L2479.83 2038.97 L2505.20 2038.47 L2530.44 2037.73 L2555.81 2036.99 L2581.05 2036.12 L2606.42 2035.13 L2631.67 2033.89 L2657.04 2032.66 L2682.28 2031.30 L2707.65 2029.69 L2732.89 2027.95 L2758.26 2026.10 L2783.51 2024.12 L2808.88 2021.89 L2834.12 2019.66 L2859.49 2017.19 L2884.74 2014.59 L2910.11 2011.87 L2935.35 2008.90 L2960.72 2005.68 L2986.09 2002.46 L3011.33 1998.87 L3036.70 1995.04 L3061.95 1990.95 L3087.32 1986.50 L3112.56 1981.55 L3137.93 1976.35 L3163.17 1970.53 L3188.54 1964.10 L3213.79 1956.92 L3239.16 1949.00 L3264.40 1940.21 L3289.77 1930.31 L3315.01 1919.30 L3340.38 1907.05 L3365.63 1893.31 L3391.00 1878.09 L3416.24 1861.01 L3441.61 1841.95 L3466.86 1820.67 L3492.22 1796.91 L3517.47 1770.30 L3542.84 1740.60 L3568.08 1707.43 L3593.45 1670.31 L3618.70 1628.85 L3644.07 1582.44 L3669.31 1530.59 L3694.68 1472.79 L3719.93 1408.07 L3745.29 1335.92 L3770.66 1255.36" stroke-linejoin="round" style="fill:none;stroke:#008000;stroke-width:7.34"/>
	<path d=" M2201.39 2041.44 L2226.76 2041.32 L2252.13 2041.07 L2277.37 2040.83 L2302.74 2040.58 L2327.99 2040.21 L2353.35 2039.83 L2378.60 2039.34 L2403.97 2038.84 L2429.21 2038.23 L2454.58 2037.36 L2479.83 2036.49 L2505.20 2035.50 L2530.44 2034.39 L2555.81 2033.03 L2581.05 2031.42 L2606.42 2029.69 L2631.67 2027.71 L2657.04 2025.48 L2682.28 2023.00 L2707.65 2020.16 L2732.89 2017.19 L2758.26 2013.97 L2783.51 2010.38 L2808.88 2006.67 L2834.12 2002.59 L2859.49 1998.38 L2884.74 1993.80 L2910.11 1988.97 L2935.35 1983.90 L2960.72 1978.33 L2986.09 1972.51 L3011.33 1966.33 L3036.70 1959.64 L3061.95 1952.46 L3087.32 1944.67 L3112.56 1936.25 L3137.93 1926.97 L3163.17 1916.82 L3188.54 1905.56 L3213.79 1893.06 L3239.16 1879.20 L3264.40 1863.73 L3289.77 1846.53 L3315.01 1827.35 L3340.38 1805.94 L3365.63 1782.06 L3391.00 1755.32 L3416.24 1725.50 L3441.61 1692.21 L3466.86 1655.08 L3492.22 1613.50 L3517.47 1567.10 L3542.84 1515.24 L3568.08 1457.33 L3593.45 1392.48 L3618.70 1320.08 L3644.07 1239.15 L3669.31 1148.68 L3694.68 1047.70 L3719.93 934.96 L3745.29 809.10 L3770.66 668.77" stroke-linejoin="round" style="fill:none;stroke:#FF7F00;stroke-width:7.34"/>
	<path d=" M2201.39 2042.06 L2226.76 2042.06 L2252.13 2041.94 L2277.37 2041.94 L2302.74 2041.82 L2327.99 2041.82 L2353.35 2041.69 L2378.60 2041.57 L2403.97 2041.44 L2429.21 2041.20 L2454.58 2040.95 L2479.83 2040.83 L2505.20 2040.45 L2530.44 2040.21 L2555.81 2039.83 L2581.05 2039.34 L2606.42 2038.97 L2631.67 2038.35 L2657.04 2037.73 L2682.28 2037.11 L2707.65 2036.37 L2732.89 2035.50 L2758.26 2034.64 L2783.51 2033.77 L2808.88 2032.66 L2834.12 2031.67 L2859.49 2030.43 L2884.74 2029.32 L2910.11 2027.95 L2935.35 2026.59 L2960.72 2025.11 L2986.09 2023.50 L3011.33 2021.89 L3036.70 2020.03 L3061.95 2018.05 L3087.32 2015.95 L3112.56 2013.72 L3137.93 2011.25 L3163.17 2008.53 L3188.54 2005.43 L3213.79 2002.09 L3239.16 1998.38 L3264.40 1994.17 L3289.77 1989.59 L3315.01 1984.39 L3340.38 1978.58 L3365.63 1972.14 L3391.00 1964.96 L3416.24 1956.92 L3441.61 1947.89 L3466.86 1937.86 L3492.22 1926.72 L3517.47 1914.10 L3542.84 1900.12 L3568.08 1884.52 L3593.45 1866.95 L3618.70 1847.40 L3644.07 1825.49 L3669.31 1801.11 L3694.68 1773.76 L3719.93 1743.32 L3745.29 1709.16 L3770.66 1671.17" stroke-linejoin="round" style="fill:none;stroke:#1A476F;stroke-width:7.34"/>
	<line x1="401.69" y1="2096.14" x2="401.69" y2="402.82" style="stroke:#000000;stroke-width:4.90"/>
	<line x1="401.69" y1="2042.31" x2="367.66" y2="2042.31" style="stroke:#000000;stroke-width:4.90"/>
	<text x="350.71" y="2072.10" style="font-family:'Helvetica';font-size:85.02px;fill:#000000" text-anchor="end">0</text>
	<line x1="401.69" y1="1818.32" x2="367.66" y2="1818.32" style="stroke:#000000;stroke-width:4.90"/>
	<text x="350.71" y="1848.10" style="font-family:'Helvetica';font-size:85.02px;fill:#000000" text-anchor="end">.001</text>
	<line x1="401.69" y1="1594.44" x2="367.66" y2="1594.44" style="stroke:#000000;stroke-width:4.90"/>
	<text x="350.71" y="1624.23" style="font-family:'Helvetica';font-size:85.02px;fill:#000000" text-anchor="end">.002</text>
	<line x1="401.69" y1="1370.57" x2="367.66" y2="1370.57" style="stroke:#000000;stroke-width:4.90"/>
	<text x="350.71" y="1400.36" style="font-family:'Helvetica';font-size:85.02px;fill:#000000" text-anchor="end">.003</text>
	<line x1="401.69" y1="1146.58" x2="367.66" y2="1146.58" style="stroke:#000000;stroke-width:4.90"/>
	<text x="350.71" y="1176.37" style="font-family:'Helvetica';font-size:85.02px;fill:#000000" text-anchor="end">.004</text>
	<line x1="401.69" y1="922.71" x2="367.66" y2="922.71" style="stroke:#000000;stroke-width:4.90"/>
	<text x="350.71" y="952.50" style="font-family:'Helvetica';font-size:85.02px;fill:#000000" text-anchor="end">.005</text>
	<line x1="401.69" y1="2096.14" x2="2078.51" y2="2096.14" style="stroke:#000000;stroke-width:4.90"/>
	<line x1="506.14" y1="2096.14" x2="506.14" y2="2113.10" style="stroke:#000000;stroke-width:4.90"/>
	<line x1="632.73" y1="2096.14" x2="632.73" y2="2113.10" style="stroke:#000000;stroke-width:4.90"/>
	<line x1="759.21" y1="2096.14" x2="759.21" y2="2113.10" style="stroke:#000000;stroke-width:4.90"/>
	<line x1="885.80" y1="2096.14" x2="885.80" y2="2113.10" style="stroke:#000000;stroke-width:4.90"/>
	<line x1="1012.27" y1="2096.14" x2="1012.27" y2="2113.10" style="stroke:#000000;stroke-width:4.90"/>
	<line x1="1138.87" y1="2096.14" x2="1138.87" y2="2113.10" style="stroke:#000000;stroke-width:4.90"/>
	<line x1="1265.47" y1="2096.14" x2="1265.47" y2="2113.10" style="stroke:#000000;stroke-width:4.90"/>
	<line x1="1391.94" y1="2096.14" x2="1391.94" y2="2113.10" style="stroke:#000000;stroke-width:4.90"/>
	<line x1="1518.54" y1="2096.14" x2="1518.54" y2="2113.10" style="stroke:#000000;stroke-width:4.90"/>
	<line x1="1645.01" y1="2096.14" x2="1645.01" y2="2113.10" style="stroke:#000000;stroke-width:4.90"/>
	<line x1="1771.61" y1="2096.14" x2="1771.61" y2="2113.10" style="stroke:#000000;stroke-width:4.90"/>
	<line x1="1898.20" y1="2096.14" x2="1898.20" y2="2113.10" style="stroke:#000000;stroke-width:4.90"/>
	<line x1="2024.67" y1="2096.14" x2="2024.67" y2="2113.10" style="stroke:#000000;stroke-width:4.90"/>
	<line x1="506.14" y1="2096.14" x2="506.14" y2="2130.18" style="stroke:#000000;stroke-width:4.90"/>
	<text x="506.14" y="2206.58" style="font-family:'Helvetica';font-size:85.02px;fill:#000000" text-anchor="middle">20</text>
	<line x1="1012.27" y1="2096.14" x2="1012.27" y2="2130.18" style="stroke:#000000;stroke-width:4.90"/>
	<text x="1012.27" y="2206.58" style="font-family:'Helvetica';font-size:85.02px;fill:#000000" text-anchor="middle">40</text>
	<line x1="1518.54" y1="2096.14" x2="1518.54" y2="2130.18" style="stroke:#000000;stroke-width:4.90"/>
	<text x="1518.54" y="2206.58" style="font-family:'Helvetica';font-size:85.02px;fill:#000000" text-anchor="middle">60</text>
	<line x1="2024.67" y1="2096.14" x2="2024.67" y2="2130.18" style="stroke:#000000;stroke-width:4.90"/>
	<text x="2024.67" y="2206.58" style="font-family:'Helvetica';font-size:85.02px;fill:#000000" text-anchor="middle">80</text>
	<line x1="2147.68" y1="2096.14" x2="3824.49" y2="2096.14" style="stroke:#000000;stroke-width:4.90"/>
	<line x1="2252.13" y1="2096.14" x2="2252.13" y2="2113.10" style="stroke:#000000;stroke-width:4.90"/>
	<line x1="2378.72" y1="2096.14" x2="2378.72" y2="2113.10" style="stroke:#000000;stroke-width:4.90"/>
	<line x1="2505.20" y1="2096.14" x2="2505.20" y2="2113.10" style="stroke:#000000;stroke-width:4.90"/>
	<line x1="2631.79" y1="2096.14" x2="2631.79" y2="2113.10" style="stroke:#000000;stroke-width:4.90"/>
	<line x1="2758.26" y1="2096.14" x2="2758.26" y2="2113.10" style="stroke:#000000;stroke-width:4.90"/>
	<line x1="2884.86" y1="2096.14" x2="2884.86" y2="2113.10" style="stroke:#000000;stroke-width:4.90"/>
	<line x1="3011.46" y1="2096.14" x2="3011.46" y2="2113.10" style="stroke:#000000;stroke-width:4.90"/>
	<line x1="3137.93" y1="2096.14" x2="3137.93" y2="2113.10" style="stroke:#000000;stroke-width:4.90"/>
	<line x1="3264.53" y1="2096.14" x2="3264.53" y2="2113.10" style="stroke:#000000;stroke-width:4.90"/>
	<line x1="3391.00" y1="2096.14" x2="3391.00" y2="2113.10" style="stroke:#000000;stroke-width:4.90"/>
	<line x1="3517.59" y1="2096.14" x2="3517.59" y2="2113.10" style="stroke:#000000;stroke-width:4.90"/>
	<line x1="3644.07" y1="2096.14" x2="3644.07" y2="2113.10" style="stroke:#000000;stroke-width:4.90"/>
	<line x1="3770.66" y1="2096.14" x2="3770.66" y2="2113.10" style="stroke:#000000;stroke-width:4.90"/>
	<line x1="2252.13" y1="2096.14" x2="2252.13" y2="2130.18" style="stroke:#000000;stroke-width:4.90"/>
	<text x="2252.13" y="2206.58" style="font-family:'Helvetica';font-size:85.02px;fill:#000000" text-anchor="middle">20</text>
	<line x1="2758.26" y1="2096.14" x2="2758.26" y2="2130.18" style="stroke:#000000;stroke-width:4.90"/>
	<text x="2758.26" y="2206.58" style="font-family:'Helvetica';font-size:85.02px;fill:#000000" text-anchor="middle">40</text>
	<line x1="3264.53" y1="2096.14" x2="3264.53" y2="2130.18" style="stroke:#000000;stroke-width:4.90"/>
	<text x="3264.53" y="2206.58" style="font-family:'Helvetica';font-size:85.02px;fill:#000000" text-anchor="middle">60</text>
	<line x1="3770.66" y1="2096.14" x2="3770.66" y2="2130.18" style="stroke:#000000;stroke-width:4.90"/>
	<text x="3770.66" y="2206.58" style="font-family:'Helvetica';font-size:85.02px;fill:#000000" text-anchor="middle">80</text>
	<rect x="401.69" y="279.93" width="1676.81" height="122.89" style="fill:#D9E6EB"/>
	<rect x="404.14" y="282.38" width="1671.92" height="117.99" style="fill:none;stroke:#D9E6EB;stroke-width:4.90"/>
	<text x="1240.10" y="359.96" style="font-family:'Helvetica';font-size:93.56px;fill:#000000" text-anchor="middle">Female</text>
	<rect x="2147.68" y="279.93" width="1676.81" height="122.89" style="fill:#D9E6EB"/>
	<rect x="2150.13" y="282.38" width="1671.92" height="117.99" style="fill:none;stroke:#D9E6EB;stroke-width:4.90"/>
	<text x="2986.09" y="359.96" style="font-family:'Helvetica';font-size:93.56px;fill:#000000" text-anchor="middle">Male</text>
	<rect x="592.39" y="2418.27" width="2775.09" height="326.34" style="fill:#FFFFFF"/>
	<rect x="595.27" y="2421.15" width="2769.33" height="320.58" style="fill:none;stroke:#000000;stroke-width:5.76"/>
	<line x1="635.58" y1="2511.46" x2="1009.92" y2="2511.46" style="stroke:#008000;stroke-width:8.64"/>
	<line x1="635.58" y1="2651.43" x2="1009.92" y2="2651.43" style="stroke:#FF7F00;stroke-width:8.64"/>
	<line x1="1971.21" y1="2511.46" x2="2345.56" y2="2511.46" style="stroke:#1A476F;stroke-width:8.64"/>
	<line x1="1971.21" y1="2651.43" x2="1974.06" y2="2651.43" style="stroke:#A0A0A0;stroke-width:8.64"/>
	<line x1="1994.23" y1="2651.43" x2="1997.08" y2="2651.43" style="stroke:#A0A0A0;stroke-width:8.64"/>
	<line x1="2017.25" y1="2651.43" x2="2020.10" y2="2651.43" style="stroke:#A0A0A0;stroke-width:8.64"/>
	<line x1="2040.27" y1="2651.43" x2="2043.24" y2="2651.43" style="stroke:#A0A0A0;stroke-width:8.64"/>
	<line x1="2063.28" y1="2651.43" x2="2066.25" y2="2651.43" style="stroke:#A0A0A0;stroke-width:8.64"/>
	<line x1="2086.43" y1="2651.43" x2="2089.27" y2="2651.43" style="stroke:#A0A0A0;stroke-width:8.64"/>
	<line x1="2109.44" y1="2651.43" x2="2112.29" y2="2651.43" style="stroke:#A0A0A0;stroke-width:8.64"/>
	<line x1="2132.46" y1="2651.43" x2="2135.31" y2="2651.43" style="stroke:#A0A0A0;stroke-width:8.64"/>
	<line x1="2155.48" y1="2651.43" x2="2158.32" y2="2651.43" style="stroke:#A0A0A0;stroke-width:8.64"/>
	<line x1="2178.49" y1="2651.43" x2="2181.34" y2="2651.43" style="stroke:#A0A0A0;stroke-width:8.64"/>
	<line x1="2201.51" y1="2651.43" x2="2204.36" y2="2651.43" style="stroke:#A0A0A0;stroke-width:8.64"/>
	<line x1="2224.53" y1="2651.43" x2="2227.38" y2="2651.43" style="stroke:#A0A0A0;stroke-width:8.64"/>
	<line x1="2247.55" y1="2651.43" x2="2250.39" y2="2651.43" style="stroke:#A0A0A0;stroke-width:8.64"/>
	<line x1="2270.57" y1="2651.43" x2="2273.41" y2="2651.43" style="stroke:#A0A0A0;stroke-width:8.64"/>
	<line x1="2293.58" y1="2651.43" x2="2296.55" y2="2651.43" style="stroke:#A0A0A0;stroke-width:8.64"/>
	<line x1="2316.60" y1="2651.43" x2="2319.57" y2="2651.43" style="stroke:#A0A0A0;stroke-width:8.64"/>
	<line x1="2339.74" y1="2651.43" x2="2342.59" y2="2651.43" style="stroke:#A0A0A0;stroke-width:8.64"/>
	<text x="1069.94" y="2546.49" style="font-family:'Helvetica';font-size:99.99px;fill:#000000">1 comorbidity</text>
	<text x="1069.94" y="2686.46" style="font-family:'Helvetica';font-size:99.99px;fill:#000000">2+ comorbidities</text>
	<text x="2405.58" y="2546.49" style="font-family:'Helvetica';font-size:99.99px;fill:#000000">No comborbidity</text>
	<text x="2405.58" y="2686.46" style="font-family:'Helvetica';font-size:99.99px;fill:#000000">Ref (Age 65, White)</text>
	<text x="1980.00" y="2353.56" style="font-family:'Helvetica';font-size:99.99px;fill:#000000" text-anchor="middle">Age (years)</text>
	<text x="1980.00" y="195.01" style="font-family:'Helvetica';font-size:110.01px;fill:#000000" text-anchor="middle">Ethnicity Black</text>
</svg>
