<?xml version="1.0" encoding="UTF-8" standalone="no"?>
<!-- This is a Stata 16.1 generated SVG file (http://www.stata.com) -->

<svg version="1.1" width="1600px" height="1164px" viewBox="0 0 3960 2880" xmlns="http://www.w3.org/2000/svg" xmlns:xlink="http://www.w3.org/1999/xlink">
	<desc>Stata Graph - Graph</desc>
	<rect x="0" y="0" width="3960" height="2880" style="fill:#EAF2F3;stroke:none"/>
	<rect x="0.00" y="0.00" width="3959.88" height="2880.00" style="fill:#EAF2F3"/>
	<rect x="2.88" y="2.88" width="3954.12" height="2874.24" style="fill:none;stroke:#EAF2F3;stroke-width:5.76"/>
	<rect x="401.69" y="258.27" width="1676.81" height="1837.87" style="fill:#FFFFFF"/>
	<rect x="404.14" y="260.72" width="1671.92" height="1832.97" style="fill:none;stroke:#FFFFFF;stroke-width:4.90"/>
	<line x1="401.69" y1="2042.31" x2="2078.51" y2="2042.31" style="stroke:#EAF2F3;stroke-width:7.34"/>
	<line x1="401.69" y1="1696.29" x2="2078.51" y2="1696.29" style="stroke:#EAF2F3;stroke-width:7.34"/>
	<line x1="401.69" y1="1350.15" x2="2078.51" y2="1350.15" style="stroke:#EAF2F3;stroke-width:7.34"/>
	<line x1="401.69" y1="1004.14" x2="2078.51" y2="1004.14" style="stroke:#EAF2F3;stroke-width:7.34"/>
	<line x1="401.69" y1="658.12" x2="2078.51" y2="658.12" style="stroke:#EAF2F3;stroke-width:7.34"/>
	<rect x="2147.68" y="258.27" width="1676.81" height="1837.87" style="fill:#FFFFFF"/>
	<rect x="2150.13" y="260.72" width="1671.92" height="1832.97" style="fill:none;stroke:#FFFFFF;stroke-width:4.90"/>
	<line x1="2147.68" y1="2042.31" x2="3824.49" y2="2042.31" style="stroke:#EAF2F3;stroke-width:7.34"/>
	<line x1="2147.68" y1="1696.29" x2="3824.49" y2="1696.29" style="stroke:#EAF2F3;stroke-width:7.34"/>
	<line x1="2147.68" y1="1350.15" x2="3824.49" y2="1350.15" style="stroke:#EAF2F3;stroke-width:7.34"/>
	<line x1="2147.68" y1="1004.14" x2="3824.49" y2="1004.14" style="stroke:#EAF2F3;stroke-width:7.34"/>
	<line x1="2147.68" y1="658.12" x2="3824.49" y2="658.12" style="stroke:#EAF2F3;stroke-width:7.34"/>
	<defs>
		<path id="path_gnJZfaMH" d="M455.52 2042.19 L455.52 2042.19 L480.89 2042.19 L506.14 2042.19 L531.51 2042.19 L556.75 2042.06 L582.12 2042.06 L607.37 2042.06 L632.73 2041.94 L657.98 2041.94 L683.35 2041.82 L708.59 2041.69 L733.96 2041.57 L759.21 2041.44 L784.58 2041.32 L809.82 2041.07 L835.19 2040.83 L860.43 2040.58 L885.80 2040.33 L911.05 2039.96 L936.42 2039.59 L961.66 2039.22 L987.03 2038.72 L1012.27 2038.23 L1037.64 2037.73 L1062.89 2037.11 L1088.26 2036.49 L1113.50 2035.75 L1138.87 2035.01 L1164.24 2034.14 L1189.48 2033.28 L1214.85 2032.29 L1240.10 2031.17 L1265.47 2029.93 L1290.71 2028.57 L1316.08 2027.21 L1341.33 2025.60 L1366.69 2023.87 L1391.94 2022.01 L1417.31 2019.91 L1442.55 2017.56 L1467.92 2015.08 L1493.17 2012.24 L1518.54 2009.14 L1543.78 2005.68 L1569.15 2001.84 L1594.39 1997.51 L1619.76 1992.68 L1645.01 1987.49 L1670.38 1981.55 L1695.62 1974.99 L1720.99 1967.56 L1746.24 1959.39 L1771.61 1950.24 L1796.85 1940.09 L1822.22 1928.70 L1847.46 1916.08 L1872.83 1901.85 L1898.20 1886.13 L1923.45 1868.56 L1948.82 1849.01 L1974.06 1827.10 L1999.43 1802.85 L2024.67 1775.87 L2024.67 1716.34 L1999.43 1749.51 L1974.06 1779.09 L1948.82 1805.82 L1923.45 1829.58 L1898.20 1850.99 L1872.83 1870.29 L1847.46 1887.49 L1822.22 1902.96 L1796.85 1916.82 L1771.61 1929.32 L1746.24 1940.46 L1720.99 1950.48 L1695.62 1959.52 L1670.38 1967.56 L1645.01 1974.86 L1619.76 1981.30 L1594.39 1987.24 L1569.15 1992.44 L1543.78 1997.14 L1518.54 2001.35 L1493.17 2005.18 L1467.92 2008.53 L1442.55 2011.62 L1417.31 2014.34 L1391.94 2016.82 L1366.69 2019.04 L1341.33 2021.02 L1316.08 2022.88 L1290.71 2024.61 L1265.47 2026.10 L1240.10 2027.58 L1214.85 2028.82 L1189.48 2030.06 L1164.24 2031.30 L1138.87 2032.29 L1113.50 2033.28 L1088.26 2034.27 L1062.89 2035.01 L1037.64 2035.87 L1012.27 2036.49 L987.03 2037.24 L961.66 2037.73 L936.42 2038.23 L911.05 2038.72 L885.80 2039.09 L860.43 2039.46 L835.19 2039.83 L809.82 2040.08 L784.58 2040.33 L759.21 2040.58 L733.96 2040.70 L708.59 2040.95 L683.35 2041.07 L657.98 2041.20 L632.73 2041.32 L607.37 2041.44 L582.12 2041.44 L556.75 2041.57 L531.51 2041.69 L506.14 2041.69 L480.89 2041.82 L455.52 2041.82 L455.52 2042.19 Z" stroke-linejoin="round"/>
	</defs>
	<defs>
		<clipPath id="clipPath_MiFosJjt">
			<use xlink:href="#path_gnJZfaMH"/>
		</clipPath>
	</defs>
	<use xlink:href="#path_gnJZfaMH" style="stroke:none;fill:#E6E6E6"/>
	<use xlink:href="#path_gnJZfaMH" style="fill:none;stroke:#E0E0E0;stroke-width:14.69" clip-path="url(#clipPath_MiFosJjt)"/>
	<defs>
		<path id="path_ftbWWnDX" d="M455.52 2042.19 L455.52 2042.19 L480.89 2042.19 L506.14 2042.19 L531.51 2042.06 L556.75 2042.06 L582.12 2042.06 L607.37 2041.94 L632.73 2041.94 L657.98 2041.82 L683.35 2041.69 L708.59 2041.69 L733.96 2041.44 L759.21 2041.32 L784.58 2041.20 L809.82 2040.95 L835.19 2040.70 L860.43 2040.45 L885.80 2040.08 L911.05 2039.71 L936.42 2039.34 L961.66 2038.97 L987.03 2038.47 L1012.27 2037.98 L1037.64 2037.36 L1062.89 2036.74 L1088.26 2036.12 L1113.50 2035.38 L1138.87 2034.51 L1164.24 2033.65 L1189.48 2032.78 L1214.85 2031.79 L1240.10 2030.68 L1265.47 2029.44 L1290.71 2028.08 L1316.08 2026.59 L1341.33 2025.11 L1366.69 2023.25 L1391.94 2021.40 L1417.31 2019.29 L1442.55 2016.94 L1467.92 2014.47 L1493.17 2011.50 L1518.54 2008.40 L1543.78 2004.81 L1569.15 2000.98 L1594.39 1996.52 L1619.76 1991.69 L1645.01 1986.25 L1670.38 1980.31 L1695.62 1973.50 L1720.99 1966.08 L1746.24 1957.66 L1771.61 1948.38 L1796.85 1937.99 L1822.22 1926.48 L1847.46 1913.48 L1872.83 1899.13 L1898.20 1883.16 L1923.45 1865.22 L1948.82 1845.29 L1974.06 1823.14 L1999.43 1798.39 L2024.67 1770.92 L2024.67 1477.25 L1999.43 1534.55 L1974.06 1586.03 L1948.82 1632.19 L1923.45 1673.65 L1898.20 1710.77 L1872.83 1744.19 L1847.46 1774.14 L1822.22 1800.99 L1796.85 1825.00 L1771.61 1846.66 L1746.24 1865.96 L1720.99 1883.41 L1695.62 1899.00 L1670.38 1912.99 L1645.01 1925.61 L1619.76 1936.87 L1594.39 1947.02 L1569.15 1956.05 L1543.78 1964.22 L1518.54 1971.52 L1493.17 1978.21 L1467.92 1984.15 L1442.55 1989.47 L1417.31 1994.17 L1391.94 1998.50 L1366.69 2002.46 L1341.33 2005.93 L1316.08 2009.27 L1290.71 2012.11 L1265.47 2014.84 L1240.10 2017.44 L1214.85 2019.66 L1189.48 2021.77 L1164.24 2023.75 L1138.87 2025.60 L1113.50 2027.34 L1088.26 2028.82 L1062.89 2030.31 L1037.64 2031.54 L1012.27 2032.78 L987.03 2033.89 L961.66 2034.88 L936.42 2035.75 L911.05 2036.49 L885.80 2037.24 L860.43 2037.85 L835.19 2038.35 L809.82 2038.84 L784.58 2039.22 L759.21 2039.59 L733.96 2039.96 L708.59 2040.21 L683.35 2040.45 L657.98 2040.70 L632.73 2040.83 L607.37 2040.95 L582.12 2041.20 L556.75 2041.32 L531.51 2041.44 L506.14 2041.44 L480.89 2041.57 L455.52 2041.69 L455.52 2042.19 Z" stroke-linejoin="round"/>
	</defs>
	<defs>
		<clipPath id="clipPath_ozxHEoTa">
			<use xlink:href="#path_ftbWWnDX"/>
		</clipPath>
	</defs>
	<use xlink:href="#path_ftbWWnDX" style="stroke:none;fill:#E6E6E6"/>
	<use xlink:href="#path_ftbWWnDX" style="fill:none;stroke:#E0E0E0;stroke-width:14.69" clip-path="url(#clipPath_ozxHEoTa)"/>
	<defs>
		<path id="path_ZHNivgZI" d="M455.52 2042.19 L455.52 2042.19 L480.89 2042.19 L506.14 2042.19 L531.51 2042.19 L556.75 2042.06 L582.12 2042.06 L607.37 2041.94 L632.73 2041.94 L657.98 2041.82 L683.35 2041.82 L708.59 2041.69 L733.96 2041.57 L759.21 2041.32 L784.58 2041.20 L809.82 2040.95 L835.19 2040.70 L860.43 2040.33 L885.80 2040.08 L911.05 2039.71 L936.42 2039.22 L961.66 2038.72 L987.03 2038.23 L1012.27 2037.61 L1037.64 2037.11 L1062.89 2036.37 L1088.26 2035.63 L1113.50 2034.88 L1138.87 2034.02 L1164.24 2033.03 L1189.48 2032.04 L1214.85 2030.92 L1240.10 2029.69 L1265.47 2028.33 L1290.71 2026.84 L1316.08 2025.23 L1341.33 2023.38 L1366.69 2021.52 L1391.94 2019.29 L1417.31 2016.94 L1442.55 2014.47 L1467.92 2011.50 L1493.17 2008.40 L1518.54 2004.81 L1543.78 2000.98 L1569.15 1996.64 L1594.39 1991.82 L1619.76 1986.37 L1645.01 1980.43 L1670.38 1973.75 L1695.62 1966.33 L1720.99 1958.03 L1746.24 1948.75 L1771.61 1938.48 L1796.85 1926.97 L1822.22 1914.22 L1847.46 1899.87 L1872.83 1883.91 L1898.20 1866.21 L1923.45 1846.41 L1948.82 1824.38 L1974.06 1799.75 L1999.43 1772.40 L2024.67 1741.96 L2024.67 1657.56 L1999.43 1696.67 L1974.06 1731.69 L1948.82 1763.12 L1923.45 1791.34 L1898.20 1816.58 L1872.83 1839.35 L1847.46 1859.65 L1822.22 1877.84 L1796.85 1894.30 L1771.61 1909.03 L1746.24 1922.15 L1720.99 1934.03 L1695.62 1944.67 L1670.38 1954.20 L1645.01 1962.74 L1619.76 1970.41 L1594.39 1977.34 L1569.15 1983.53 L1543.78 1989.10 L1518.54 1994.05 L1493.17 1998.50 L1467.92 2002.59 L1442.55 2006.17 L1417.31 2009.39 L1391.94 2012.24 L1366.69 2014.96 L1341.33 2017.31 L1316.08 2019.42 L1290.71 2021.40 L1265.47 2023.25 L1240.10 2024.98 L1214.85 2026.59 L1189.48 2027.95 L1164.24 2029.32 L1138.87 2030.55 L1113.50 2031.79 L1088.26 2032.78 L1062.89 2033.77 L1037.64 2034.76 L1012.27 2035.63 L987.03 2036.37 L961.66 2036.99 L936.42 2037.61 L911.05 2038.10 L885.80 2038.60 L860.43 2038.97 L835.19 2039.34 L809.82 2039.71 L784.58 2039.96 L759.21 2040.21 L733.96 2040.45 L708.59 2040.70 L683.35 2040.83 L657.98 2040.95 L632.73 2041.20 L607.37 2041.32 L582.12 2041.32 L556.75 2041.44 L531.51 2041.57 L506.14 2041.69 L480.89 2041.69 L455.52 2041.82 L455.52 2042.19 Z" stroke-linejoin="round"/>
	</defs>
	<defs>
		<clipPath id="clipPath_bTZsozaO">
			<use xlink:href="#path_ZHNivgZI"/>
		</clipPath>
	</defs>
	<use xlink:href="#path_ZHNivgZI" style="stroke:none;fill:#E6E6E6"/>
	<use xlink:href="#path_ZHNivgZI" style="fill:none;stroke:#E0E0E0;stroke-width:14.69" clip-path="url(#clipPath_bTZsozaO)"/>
	<defs>
		<path id="path_vtUywFLO" d="M455.52 2042.19 L455.52 2042.19 L480.89 2042.06 L506.14 2042.06 L531.51 2042.06 L556.75 2041.94 L582.12 2041.82 L607.37 2041.82 L632.73 2041.69 L657.98 2041.57 L683.35 2041.32 L708.59 2041.20 L733.96 2040.95 L759.21 2040.70 L784.58 2040.33 L809.82 2039.96 L835.19 2039.59 L860.43 2039.09 L885.80 2038.47 L911.05 2037.85 L936.42 2037.24 L961.66 2036.49 L987.03 2035.63 L1012.27 2034.64 L1037.64 2033.65 L1062.89 2032.66 L1088.26 2031.42 L1113.50 2030.18 L1138.87 2028.70 L1164.24 2027.21 L1189.48 2025.60 L1214.85 2023.75 L1240.10 2021.77 L1265.47 2019.66 L1290.71 2017.31 L1316.08 2014.84 L1341.33 2011.99 L1366.69 2009.02 L1391.94 2005.56 L1417.31 2001.97 L1442.55 1997.88 L1467.92 1993.30 L1493.17 1988.35 L1518.54 1982.78 L1543.78 1976.60 L1569.15 1969.67 L1594.39 1961.99 L1619.76 1953.45 L1645.01 1944.05 L1670.38 1933.41 L1695.62 1921.65 L1720.99 1908.53 L1746.24 1893.81 L1771.61 1877.47 L1796.85 1859.28 L1822.22 1838.98 L1847.46 1816.46 L1872.83 1791.21 L1898.20 1763.12 L1923.45 1731.69 L1948.82 1696.79 L1974.06 1657.93 L1999.43 1614.62 L2024.67 1566.35 L2024.67 1145.22 L1999.43 1236.18 L1974.06 1317.85 L1948.82 1391.24 L1923.45 1457.08 L1898.20 1516.11 L1872.83 1569.08 L1847.46 1616.60 L1822.22 1659.17 L1796.85 1697.41 L1771.61 1731.69 L1746.24 1762.50 L1720.99 1790.10 L1695.62 1814.85 L1670.38 1837.13 L1645.01 1857.05 L1619.76 1874.99 L1594.39 1891.08 L1569.15 1905.44 L1543.78 1918.43 L1518.54 1930.07 L1493.17 1940.58 L1467.92 1949.99 L1442.55 1958.40 L1417.31 1965.95 L1391.94 1972.88 L1366.69 1979.07 L1341.33 1984.64 L1316.08 1989.84 L1290.71 1994.54 L1265.47 1998.75 L1240.10 2002.71 L1214.85 2006.42 L1189.48 2009.76 L1164.24 2012.86 L1138.87 2015.83 L1113.50 2018.43 L1088.26 2020.90 L1062.89 2023.25 L1037.64 2025.23 L1012.27 2027.21 L987.03 2028.94 L961.66 2030.43 L936.42 2031.91 L911.05 2033.15 L885.80 2034.14 L860.43 2035.13 L835.19 2036.00 L809.82 2036.74 L784.58 2037.36 L759.21 2037.98 L733.96 2038.47 L708.59 2038.84 L683.35 2039.34 L657.98 2039.59 L632.73 2039.96 L607.37 2040.21 L582.12 2040.45 L556.75 2040.58 L531.51 2040.83 L506.14 2040.95 L480.89 2041.07 L455.52 2041.20 L455.52 2042.19 Z" stroke-linejoin="round"/>
	</defs>
	<defs>
		<clipPath id="clipPath_ymYHxCGd">
			<use xlink:href="#path_vtUywFLO"/>
		</clipPath>
	</defs>
	<use xlink:href="#path_vtUywFLO" style="stroke:none;fill:#E6E6E6"/>
	<use xlink:href="#path_vtUywFLO" style="fill:none;stroke:#E0E0E0;stroke-width:14.69" clip-path="url(#clipPath_ymYHxCGd)"/>
	<path d=" M455.52 2042.06 L480.77 2042.06 L506.14 2042.06 L531.38 2041.94 L556.75 2041.94 L582.00 2041.82 L607.37 2041.69 L632.61 2041.57 L657.98 2041.44 L683.22 2041.32 L708.59 2041.20 L733.84 2040.95 L759.21 2040.70 L784.45 2040.45 L809.82 2040.21 L835.07 2039.83 L860.43 2039.46 L885.68 2038.97 L911.05 2038.47 L936.29 2037.98 L961.66 2037.36 L986.91 2036.62 L1012.27 2035.87 L1037.52 2035.13 L1062.89 2034.14 L1088.13 2033.28 L1113.50 2032.16 L1138.87 2031.05 L1164.12 2029.69 L1189.48 2028.33 L1214.73 2026.96 L1240.10 2025.36 L1265.34 2023.50 L1290.71 2021.64 L1315.96 2019.54 L1341.33 2017.31 L1366.57 2014.84 L1391.94 2012.11 L1417.18 2009.14 L1442.55 2005.80 L1467.80 2002.09 L1493.17 1998.01 L1518.41 1993.43 L1543.78 1988.23 L1569.03 1982.66 L1594.39 1976.35 L1619.64 1969.30 L1645.01 1961.50 L1670.25 1952.84 L1695.62 1943.06 L1720.87 1932.29 L1746.24 1920.29 L1771.48 1906.80 L1796.85 1891.83 L1822.10 1875.12 L1847.46 1856.56 L1872.71 1835.76 L1898.08 1812.62 L1923.45 1786.88 L1948.69 1758.17 L1974.06 1726.12 L1999.31 1690.48 L2024.67 1650.75" stroke-linejoin="round" style="fill:none;stroke:#008000;stroke-width:7.34"/>
	<path d=" M455.52 2042.19 L480.77 2042.06 L506.14 2042.06 L531.38 2042.06 L556.75 2041.94 L582.00 2041.94 L607.37 2041.82 L632.61 2041.69 L657.98 2041.57 L683.22 2041.44 L708.59 2041.32 L733.84 2041.20 L759.21 2040.95 L784.45 2040.70 L809.82 2040.45 L835.07 2040.21 L860.43 2039.83 L885.68 2039.46 L911.05 2039.09 L936.29 2038.60 L961.66 2037.98 L986.91 2037.48 L1012.27 2036.74 L1037.52 2036.00 L1062.89 2035.26 L1088.13 2034.39 L1113.50 2033.52 L1138.87 2032.53 L1164.12 2031.42 L1189.48 2030.18 L1214.73 2028.94 L1240.10 2027.58 L1265.34 2026.10 L1290.71 2024.37 L1315.96 2022.63 L1341.33 2020.65 L1366.57 2018.43 L1391.94 2016.07 L1417.18 2013.48 L1442.55 2010.63 L1467.80 2007.41 L1493.17 2003.82 L1518.41 1999.86 L1543.78 1995.41 L1569.03 1990.46 L1594.39 1985.01 L1619.64 1978.95 L1645.01 1972.14 L1670.25 1964.59 L1695.62 1956.18 L1720.87 1946.77 L1746.24 1936.38 L1771.48 1924.74 L1796.85 1911.75 L1822.10 1897.27 L1847.46 1881.06 L1872.71 1863.11 L1898.08 1842.94 L1923.45 1820.67 L1948.69 1795.67 L1974.06 1767.82 L1999.31 1736.89 L2024.67 1702.36" stroke-linejoin="round" style="fill:none;stroke:#FF0000;stroke-width:7.34"/>
	<path d=" M455.52 2041.94 L480.77 2041.82 L506.14 2041.82 L531.38 2041.69 L556.75 2041.57 L582.00 2041.44 L607.37 2041.32 L632.61 2041.07 L657.98 2040.95 L683.22 2040.70 L708.59 2040.45 L733.84 2040.08 L759.21 2039.71 L784.45 2039.22 L809.82 2038.72 L835.07 2038.23 L860.43 2037.48 L885.68 2036.86 L911.05 2036.00 L936.29 2035.01 L961.66 2034.02 L986.91 2032.90 L1012.27 2031.67 L1037.52 2030.31 L1062.89 2028.70 L1088.13 2027.09 L1113.50 2025.36 L1138.87 2023.38 L1164.12 2021.27 L1189.48 2019.04 L1214.73 2016.57 L1240.10 2013.85 L1265.34 2011.00 L1290.71 2007.78 L1315.96 2004.32 L1341.33 2000.61 L1366.57 1996.40 L1391.94 1991.94 L1417.18 1986.87 L1442.55 1981.30 L1467.80 1975.11 L1493.17 1968.31 L1518.41 1960.63 L1543.78 1952.09 L1569.03 1942.69 L1594.39 1932.17 L1619.64 1920.41 L1645.01 1907.42 L1670.25 1892.82 L1695.62 1876.73 L1720.87 1858.66 L1746.24 1838.49 L1771.48 1816.09 L1796.85 1791.09 L1822.10 1763.25 L1847.46 1732.18 L1872.71 1697.66 L1898.08 1659.04 L1923.45 1615.98 L1948.69 1568.09 L1974.06 1514.62 L1999.31 1455.10 L2024.67 1388.89" stroke-linejoin="round" style="fill:none;stroke:#FFD200;stroke-width:7.34"/>
	<path d=" M455.52 2042.19 L480.77 2042.19 L506.14 2042.06 L531.38 2042.06 L556.75 2041.94 L582.00 2041.94 L607.37 2041.82 L632.61 2041.82 L657.98 2041.69 L683.22 2041.57 L708.59 2041.44 L733.84 2041.32 L759.21 2041.20 L784.45 2040.95 L809.82 2040.70 L835.07 2040.45 L860.43 2040.21 L885.68 2039.83 L911.05 2039.46 L936.29 2039.09 L961.66 2038.60 L986.91 2038.10 L1012.27 2037.48 L1037.52 2036.86 L1062.89 2036.25 L1088.13 2035.50 L1113.50 2034.64 L1138.87 2033.77 L1164.12 2032.90 L1189.48 2031.79 L1214.73 2030.68 L1240.10 2029.56 L1265.34 2028.20 L1290.71 2026.84 L1315.96 2025.23 L1341.33 2023.50 L1366.57 2021.64 L1391.94 2019.54 L1417.18 2017.31 L1442.55 2014.84 L1467.80 2011.99 L1493.17 2008.90 L1518.41 2005.56 L1543.78 2001.72 L1569.03 1997.39 L1594.39 1992.68 L1619.64 1987.36 L1645.01 1981.55 L1670.25 1974.99 L1695.62 1967.69 L1720.87 1959.52 L1746.24 1950.48 L1771.48 1940.34 L1796.85 1929.08 L1822.10 1916.58 L1847.46 1902.59 L1872.71 1886.88 L1898.08 1869.55 L1923.45 1850.12 L1948.69 1828.46 L1974.06 1804.46 L1999.31 1777.60 L2024.67 1747.65" stroke-linejoin="round" style="fill:none;stroke:#1A476F;stroke-width:7.34"/>
	<line x1="455.52" y1="1981.55" x2="458.37" y2="1981.55" style="stroke:#000000;stroke-width:7.34"/>
	<line x1="478.54" y1="1981.55" x2="480.77" y2="1981.55" style="stroke:#000000;stroke-width:7.34"/>
	<line x1="480.77" y1="1981.55" x2="481.39" y2="1981.55" style="stroke:#000000;stroke-width:7.34"/>
	<line x1="501.56" y1="1981.55" x2="504.40" y2="1981.55" style="stroke:#000000;stroke-width:7.34"/>
	<line x1="524.58" y1="1981.55" x2="527.42" y2="1981.55" style="stroke:#000000;stroke-width:7.34"/>
	<line x1="547.59" y1="1981.55" x2="550.44" y2="1981.55" style="stroke:#000000;stroke-width:7.34"/>
	<line x1="570.61" y1="1981.55" x2="573.58" y2="1981.55" style="stroke:#000000;stroke-width:7.34"/>
	<line x1="593.75" y1="1981.55" x2="596.60" y2="1981.55" style="stroke:#000000;stroke-width:7.34"/>
	<line x1="616.77" y1="1981.55" x2="619.62" y2="1981.55" style="stroke:#000000;stroke-width:7.34"/>
	<line x1="639.79" y1="1981.55" x2="642.63" y2="1981.55" style="stroke:#000000;stroke-width:7.34"/>
	<line x1="662.80" y1="1981.55" x2="665.65" y2="1981.55" style="stroke:#000000;stroke-width:7.34"/>
	<line x1="685.82" y1="1981.55" x2="688.67" y2="1981.55" style="stroke:#000000;stroke-width:7.34"/>
	<line x1="708.84" y1="1981.55" x2="711.69" y2="1981.55" style="stroke:#000000;stroke-width:7.34"/>
	<line x1="731.86" y1="1981.55" x2="733.84" y2="1981.55" style="stroke:#000000;stroke-width:7.34"/>
	<line x1="733.84" y1="1981.55" x2="734.70" y2="1981.55" style="stroke:#000000;stroke-width:7.34"/>
	<line x1="754.88" y1="1981.55" x2="757.72" y2="1981.55" style="stroke:#000000;stroke-width:7.34"/>
	<line x1="777.89" y1="1981.55" x2="780.74" y2="1981.55" style="stroke:#000000;stroke-width:7.34"/>
	<line x1="800.91" y1="1981.55" x2="803.88" y2="1981.55" style="stroke:#000000;stroke-width:7.34"/>
	<line x1="823.93" y1="1981.55" x2="826.90" y2="1981.55" style="stroke:#000000;stroke-width:7.34"/>
	<line x1="847.07" y1="1981.55" x2="849.91" y2="1981.55" style="stroke:#000000;stroke-width:7.34"/>
	<line x1="870.09" y1="1981.55" x2="872.93" y2="1981.55" style="stroke:#000000;stroke-width:7.34"/>
	<line x1="893.10" y1="1981.55" x2="895.95" y2="1981.55" style="stroke:#000000;stroke-width:7.34"/>
	<line x1="916.12" y1="1981.55" x2="918.97" y2="1981.55" style="stroke:#000000;stroke-width:7.34"/>
	<line x1="939.14" y1="1981.55" x2="941.99" y2="1981.55" style="stroke:#000000;stroke-width:7.34"/>
	<line x1="962.16" y1="1981.55" x2="965.00" y2="1981.55" style="stroke:#000000;stroke-width:7.34"/>
	<line x1="985.17" y1="1981.55" x2="986.91" y2="1981.55" style="stroke:#000000;stroke-width:7.34"/>
	<line x1="986.91" y1="1981.55" x2="988.02" y2="1981.55" style="stroke:#000000;stroke-width:7.34"/>
	<line x1="1008.19" y1="1981.55" x2="1011.04" y2="1981.55" style="stroke:#000000;stroke-width:7.34"/>
	<line x1="1031.21" y1="1981.55" x2="1034.06" y2="1981.55" style="stroke:#000000;stroke-width:7.34"/>
	<line x1="1054.23" y1="1981.55" x2="1057.20" y2="1981.55" style="stroke:#000000;stroke-width:7.34"/>
	<line x1="1077.24" y1="1981.55" x2="1080.21" y2="1981.55" style="stroke:#000000;stroke-width:7.34"/>
	<line x1="1100.38" y1="1981.55" x2="1103.23" y2="1981.55" style="stroke:#000000;stroke-width:7.34"/>
	<line x1="1123.40" y1="1981.55" x2="1126.25" y2="1981.55" style="stroke:#000000;stroke-width:7.34"/>
	<line x1="1146.42" y1="1981.55" x2="1149.27" y2="1981.55" style="stroke:#000000;stroke-width:7.34"/>
	<line x1="1169.44" y1="1981.55" x2="1172.28" y2="1981.55" style="stroke:#000000;stroke-width:7.34"/>
	<line x1="1192.45" y1="1981.55" x2="1195.30" y2="1981.55" style="stroke:#000000;stroke-width:7.34"/>
	<line x1="1215.47" y1="1981.55" x2="1218.32" y2="1981.55" style="stroke:#000000;stroke-width:7.34"/>
	<line x1="1238.49" y1="1981.55" x2="1240.10" y2="1981.55" style="stroke:#000000;stroke-width:7.34"/>
	<line x1="1240.10" y1="1981.55" x2="1241.34" y2="1981.55" style="stroke:#000000;stroke-width:7.34"/>
	<line x1="1261.51" y1="1981.55" x2="1264.35" y2="1981.55" style="stroke:#000000;stroke-width:7.34"/>
	<line x1="1284.53" y1="1981.55" x2="1287.37" y2="1981.55" style="stroke:#000000;stroke-width:7.34"/>
	<line x1="1307.54" y1="1981.55" x2="1310.51" y2="1981.55" style="stroke:#000000;stroke-width:7.34"/>
	<line x1="1330.56" y1="1981.55" x2="1333.53" y2="1981.55" style="stroke:#000000;stroke-width:7.34"/>
	<line x1="1353.70" y1="1981.55" x2="1356.55" y2="1981.55" style="stroke:#000000;stroke-width:7.34"/>
	<line x1="1376.72" y1="1981.55" x2="1379.57" y2="1981.55" style="stroke:#000000;stroke-width:7.34"/>
	<line x1="1399.74" y1="1981.55" x2="1402.58" y2="1981.55" style="stroke:#000000;stroke-width:7.34"/>
	<line x1="1422.75" y1="1981.55" x2="1425.60" y2="1981.55" style="stroke:#000000;stroke-width:7.34"/>
	<line x1="1445.77" y1="1981.55" x2="1448.62" y2="1981.55" style="stroke:#000000;stroke-width:7.34"/>
	<line x1="1468.79" y1="1981.55" x2="1471.63" y2="1981.55" style="stroke:#000000;stroke-width:7.34"/>
	<line x1="1491.81" y1="1981.55" x2="1493.17" y2="1981.55" style="stroke:#000000;stroke-width:7.34"/>
	<line x1="1493.17" y1="1981.55" x2="1494.65" y2="1981.55" style="stroke:#000000;stroke-width:7.34"/>
	<line x1="1514.82" y1="1981.55" x2="1517.67" y2="1981.55" style="stroke:#000000;stroke-width:7.34"/>
	<line x1="1537.84" y1="1981.55" x2="1540.69" y2="1981.55" style="stroke:#000000;stroke-width:7.34"/>
	<line x1="1560.86" y1="1981.55" x2="1563.83" y2="1981.55" style="stroke:#000000;stroke-width:7.34"/>
	<line x1="1584.00" y1="1981.55" x2="1586.85" y2="1981.55" style="stroke:#000000;stroke-width:7.34"/>
	<line x1="1607.02" y1="1981.55" x2="1609.86" y2="1981.55" style="stroke:#000000;stroke-width:7.34"/>
	<line x1="1630.04" y1="1981.55" x2="1632.88" y2="1981.55" style="stroke:#000000;stroke-width:7.34"/>
	<line x1="1653.05" y1="1981.55" x2="1655.90" y2="1981.55" style="stroke:#000000;stroke-width:7.34"/>
	<line x1="1676.07" y1="1981.55" x2="1678.92" y2="1981.55" style="stroke:#000000;stroke-width:7.34"/>
	<line x1="1699.09" y1="1981.55" x2="1701.93" y2="1981.55" style="stroke:#000000;stroke-width:7.34"/>
	<line x1="1722.11" y1="1981.55" x2="1724.95" y2="1981.55" style="stroke:#000000;stroke-width:7.34"/>
	<line x1="1745.12" y1="1981.55" x2="1746.24" y2="1981.55" style="stroke:#000000;stroke-width:7.34"/>
	<line x1="1746.24" y1="1981.55" x2="1747.97" y2="1981.55" style="stroke:#000000;stroke-width:7.34"/>
	<line x1="1768.14" y1="1981.55" x2="1770.99" y2="1981.55" style="stroke:#000000;stroke-width:7.34"/>
	<line x1="1791.16" y1="1981.55" x2="1794.00" y2="1981.55" style="stroke:#000000;stroke-width:7.34"/>
	<line x1="1814.17" y1="1981.55" x2="1817.14" y2="1981.55" style="stroke:#000000;stroke-width:7.34"/>
	<line x1="1837.32" y1="1981.55" x2="1840.16" y2="1981.55" style="stroke:#000000;stroke-width:7.34"/>
	<line x1="1860.33" y1="1981.55" x2="1863.18" y2="1981.55" style="stroke:#000000;stroke-width:7.34"/>
	<line x1="1883.35" y1="1981.55" x2="1886.20" y2="1981.55" style="stroke:#000000;stroke-width:7.34"/>
	<line x1="1906.37" y1="1981.55" x2="1909.21" y2="1981.55" style="stroke:#000000;stroke-width:7.34"/>
	<line x1="1929.39" y1="1981.55" x2="1932.23" y2="1981.55" style="stroke:#000000;stroke-width:7.34"/>
	<line x1="1952.40" y1="1981.55" x2="1955.25" y2="1981.55" style="stroke:#000000;stroke-width:7.34"/>
	<line x1="1975.42" y1="1981.55" x2="1978.27" y2="1981.55" style="stroke:#000000;stroke-width:7.34"/>
	<line x1="1998.44" y1="1981.55" x2="1999.31" y2="1981.55" style="stroke:#000000;stroke-width:7.34"/>
	<line x1="1999.31" y1="1981.55" x2="2001.29" y2="1981.55" style="stroke:#000000;stroke-width:7.34"/>
	<line x1="2021.46" y1="1981.55" x2="2024.30" y2="1981.55" style="stroke:#000000;stroke-width:7.34"/>
	<path d="" stroke-linejoin="round" style="fill:none;stroke:#000000;stroke-width:7.34"/>
	<defs>
		<path id="path_WayLiqNH" d="M2201.51 2042.19 L2201.51 2042.19 L2226.88 2042.19 L2252.13 2042.06 L2277.49 2042.06 L2302.74 2042.06 L2328.11 2041.94 L2353.35 2041.94 L2378.72 2041.82 L2403.97 2041.69 L2429.34 2041.57 L2454.58 2041.44 L2479.95 2041.20 L2505.20 2041.07 L2530.56 2040.83 L2555.81 2040.45 L2581.18 2040.08 L2606.42 2039.71 L2631.79 2039.22 L2657.04 2038.72 L2682.41 2038.23 L2707.65 2037.48 L2733.02 2036.86 L2758.26 2036.12 L2783.63 2035.26 L2808.88 2034.39 L2834.25 2033.40 L2859.49 2032.29 L2884.86 2031.17 L2910.11 2029.81 L2935.47 2028.45 L2960.72 2026.96 L2986.09 2025.23 L3011.46 2023.38 L3036.70 2021.40 L3062.07 2019.17 L3087.32 2016.82 L3112.68 2014.09 L3137.93 2011.25 L3163.30 2008.03 L3188.54 2004.57 L3213.91 2000.61 L3239.16 1996.27 L3264.53 1991.57 L3289.77 1986.25 L3315.14 1980.31 L3340.38 1973.75 L3365.75 1966.57 L3391.00 1958.40 L3416.37 1949.37 L3441.61 1939.35 L3466.98 1928.09 L3492.22 1915.59 L3517.59 1901.73 L3542.84 1886.13 L3568.21 1868.81 L3593.45 1849.50 L3618.82 1827.84 L3644.07 1803.84 L3669.43 1777.11 L3694.68 1747.16 L3720.05 1713.99 L3745.42 1676.99 L3770.66 1635.78 L3770.66 1542.96 L3745.42 1593.70 L3720.05 1639.24 L3694.68 1680.08 L3669.43 1716.71 L3644.07 1749.51 L3618.82 1778.96 L3593.45 1805.32 L3568.21 1829.08 L3542.84 1850.37 L3517.59 1869.43 L3492.22 1886.50 L3466.98 1901.85 L3441.61 1915.71 L3416.37 1928.09 L3391.00 1939.10 L3365.75 1949.12 L3340.38 1958.03 L3315.14 1966.08 L3289.77 1973.26 L3264.53 1979.81 L3239.16 1985.63 L3213.91 1990.83 L3188.54 1995.41 L3163.30 1999.61 L3137.93 2003.33 L3112.68 2006.79 L3087.32 2009.76 L3062.07 2012.61 L3036.70 2015.21 L3011.46 2017.56 L2986.09 2019.79 L2960.72 2021.77 L2935.47 2023.62 L2910.11 2025.36 L2884.86 2027.09 L2859.49 2028.57 L2834.25 2029.93 L2808.88 2031.30 L2783.63 2032.41 L2758.26 2033.52 L2733.02 2034.51 L2707.65 2035.38 L2682.41 2036.12 L2657.04 2036.86 L2631.79 2037.48 L2606.42 2037.98 L2581.18 2038.47 L2555.81 2038.84 L2530.56 2039.22 L2505.20 2039.59 L2479.95 2039.83 L2454.58 2040.21 L2429.34 2040.33 L2403.97 2040.58 L2378.72 2040.83 L2353.35 2040.95 L2328.11 2041.07 L2302.74 2041.20 L2277.49 2041.32 L2252.13 2041.44 L2226.88 2041.57 L2201.51 2041.57 L2201.51 2042.19 Z" stroke-linejoin="round"/>
	</defs>
	<defs>
		<clipPath id="clipPath_vVVZjIbC">
			<use xlink:href="#path_WayLiqNH"/>
		</clipPath>
	</defs>
	<use xlink:href="#path_WayLiqNH" style="stroke:none;fill:#E6E6E6"/>
	<use xlink:href="#path_WayLiqNH" style="fill:none;stroke:#E0E0E0;stroke-width:14.69" clip-path="url(#clipPath_vVVZjIbC)"/>
	<defs>
		<path id="path_eNfOSSAS" d="M2201.51 2042.19 L2201.51 2042.19 L2226.88 2042.06 L2252.13 2042.06 L2277.49 2042.06 L2302.74 2041.94 L2328.11 2041.94 L2353.35 2041.82 L2378.72 2041.69 L2403.97 2041.57 L2429.34 2041.44 L2454.58 2041.32 L2479.95 2041.07 L2505.20 2040.83 L2530.56 2040.58 L2555.81 2040.21 L2581.18 2039.83 L2606.42 2039.46 L2631.79 2038.97 L2657.04 2038.47 L2682.41 2037.85 L2707.65 2037.24 L2733.02 2036.49 L2758.26 2035.63 L2783.63 2034.76 L2808.88 2033.89 L2834.25 2032.78 L2859.49 2031.67 L2884.86 2030.55 L2910.11 2029.19 L2935.47 2027.71 L2960.72 2026.22 L2986.09 2024.49 L3011.46 2022.63 L3036.70 2020.53 L3062.07 2018.30 L3087.32 2015.95 L3112.68 2013.23 L3137.93 2010.38 L3163.30 2007.16 L3188.54 2003.58 L3213.91 1999.61 L3239.16 1995.28 L3264.53 1990.46 L3289.77 1985.01 L3315.14 1979.07 L3340.38 1972.39 L3365.75 1964.96 L3391.00 1956.67 L3416.37 1947.39 L3441.61 1937.12 L3466.98 1925.73 L3492.22 1912.99 L3517.59 1898.76 L3542.84 1882.92 L3568.21 1865.22 L3593.45 1845.54 L3618.82 1823.51 L3644.07 1799.01 L3669.43 1771.66 L3694.68 1741.34 L3720.05 1707.43 L3745.42 1669.56 L3770.66 1627.61 L3770.66 1178.01 L3745.42 1265.75 L3720.05 1344.46 L3694.68 1415.13 L3669.43 1478.49 L3644.07 1535.41 L3618.82 1586.40 L3593.45 1632.19 L3568.21 1673.15 L3542.84 1710.03 L3517.59 1743.07 L3492.22 1772.77 L3466.98 1799.26 L3441.61 1823.14 L3416.37 1844.55 L3391.00 1863.86 L3365.75 1881.06 L3340.38 1896.53 L3315.14 1910.51 L3289.77 1922.89 L3264.53 1934.15 L3239.16 1944.30 L3213.91 1953.33 L3188.54 1961.50 L3163.30 1968.80 L3137.93 1975.36 L3112.68 1981.30 L3087.32 1986.74 L3062.07 1991.69 L3036.70 1996.27 L3011.46 2000.36 L2986.09 2004.19 L2960.72 2007.78 L2935.47 2011.00 L2910.11 2013.97 L2884.86 2016.82 L2859.49 2019.42 L2834.25 2021.77 L2808.88 2023.87 L2783.63 2025.97 L2758.26 2027.71 L2733.02 2029.44 L2707.65 2030.92 L2682.41 2032.29 L2657.04 2033.52 L2631.79 2034.51 L2606.42 2035.50 L2581.18 2036.25 L2555.81 2036.99 L2530.56 2037.61 L2505.20 2038.23 L2479.95 2038.72 L2454.58 2039.09 L2429.34 2039.46 L2403.97 2039.83 L2378.72 2040.08 L2353.35 2040.33 L2328.11 2040.58 L2302.74 2040.70 L2277.49 2040.95 L2252.13 2041.07 L2226.88 2041.20 L2201.51 2041.32 L2201.51 2042.19 Z" stroke-linejoin="round"/>
	</defs>
	<defs>
		<clipPath id="clipPath_BOGYcbRs">
			<use xlink:href="#path_eNfOSSAS"/>
		</clipPath>
	</defs>
	<use xlink:href="#path_eNfOSSAS" style="stroke:none;fill:#E6E6E6"/>
	<use xlink:href="#path_eNfOSSAS" style="fill:none;stroke:#E0E0E0;stroke-width:14.69" clip-path="url(#clipPath_BOGYcbRs)"/>
	<defs>
		<path id="path_dQJAhRmm" d="M2201.51 2042.19 L2201.51 2042.19 L2226.88 2042.19 L2252.13 2042.06 L2277.49 2042.06 L2302.74 2041.94 L2328.11 2041.94 L2353.35 2041.82 L2378.72 2041.69 L2403.97 2041.69 L2429.34 2041.44 L2454.58 2041.32 L2479.95 2041.07 L2505.20 2040.83 L2530.56 2040.58 L2555.81 2040.21 L2581.18 2039.83 L2606.42 2039.34 L2631.79 2038.84 L2657.04 2038.23 L2682.41 2037.61 L2707.65 2036.86 L2733.02 2036.12 L2758.26 2035.26 L2783.63 2034.27 L2808.88 2033.28 L2834.25 2032.16 L2859.49 2030.92 L2884.86 2029.69 L2910.11 2028.20 L2935.47 2026.59 L2960.72 2024.86 L2986.09 2023.00 L3011.46 2020.90 L3036.70 2018.67 L3062.07 2016.20 L3087.32 2013.48 L3112.68 2010.51 L3137.93 2007.29 L3163.30 2003.70 L3188.54 1999.74 L3213.91 1995.28 L3239.16 1990.46 L3264.53 1985.14 L3289.77 1979.07 L3315.14 1972.51 L3340.38 1965.09 L3365.75 1956.92 L3391.00 1947.76 L3416.37 1937.61 L3441.61 1926.23 L3466.98 1913.61 L3492.22 1899.50 L3517.59 1883.78 L3542.84 1866.21 L3568.21 1846.78 L3593.45 1825.00 L3618.82 1800.62 L3644.07 1773.64 L3669.43 1743.44 L3694.68 1709.78 L3720.05 1672.41 L3745.42 1630.70 L3770.66 1584.30 L3770.66 1452.62 L3745.42 1512.52 L3720.05 1566.23 L3694.68 1614.49 L3669.43 1657.68 L3644.07 1696.54 L3618.82 1731.32 L3593.45 1762.50 L3568.21 1790.47 L3542.84 1815.59 L3517.59 1838.12 L3492.22 1858.41 L3466.98 1876.48 L3441.61 1892.82 L3416.37 1907.42 L3391.00 1920.54 L3365.75 1932.29 L3340.38 1942.81 L3315.14 1952.34 L3289.77 1960.88 L3264.53 1968.43 L3239.16 1975.36 L3213.91 1981.42 L3188.54 1986.99 L3163.30 1991.94 L3137.93 1996.40 L3112.68 2000.36 L3087.32 2004.07 L3062.07 2007.41 L3036.70 2010.38 L3011.46 2013.23 L2986.09 2015.83 L2960.72 2018.18 L2935.47 2020.41 L2910.11 2022.51 L2884.86 2024.37 L2859.49 2026.22 L2834.25 2027.83 L2808.88 2029.32 L2783.63 2030.68 L2758.26 2032.04 L2733.02 2033.15 L2707.65 2034.14 L2682.41 2035.13 L2657.04 2036.00 L2631.79 2036.62 L2606.42 2037.24 L2581.18 2037.85 L2555.81 2038.35 L2530.56 2038.72 L2505.20 2039.22 L2479.95 2039.46 L2454.58 2039.83 L2429.34 2040.08 L2403.97 2040.33 L2378.72 2040.58 L2353.35 2040.70 L2328.11 2040.95 L2302.74 2041.07 L2277.49 2041.20 L2252.13 2041.32 L2226.88 2041.44 L2201.51 2041.44 L2201.51 2042.19 Z" stroke-linejoin="round"/>
	</defs>
	<defs>
		<clipPath id="clipPath_bxgAngnh">
			<use xlink:href="#path_dQJAhRmm"/>
		</clipPath>
	</defs>
	<use xlink:href="#path_dQJAhRmm" style="stroke:none;fill:#E6E6E6"/>
	<use xlink:href="#path_dQJAhRmm" style="fill:none;stroke:#E0E0E0;stroke-width:14.69" clip-path="url(#clipPath_bxgAngnh)"/>
	<defs>
		<path id="path_oNjWVUgX" d="M2201.51 2042.06 L2201.51 2042.06 L2226.88 2042.06 L2252.13 2041.94 L2277.49 2041.82 L2302.74 2041.82 L2328.11 2041.69 L2353.35 2041.44 L2378.72 2041.32 L2403.97 2041.07 L2429.34 2040.83 L2454.58 2040.58 L2479.95 2040.21 L2505.20 2039.83 L2530.56 2039.34 L2555.81 2038.72 L2581.18 2038.10 L2606.42 2037.36 L2631.79 2036.49 L2657.04 2035.50 L2682.41 2034.51 L2707.65 2033.40 L2733.02 2032.04 L2758.26 2030.68 L2783.63 2029.19 L2808.88 2027.46 L2834.25 2025.73 L2859.49 2023.75 L2884.86 2021.64 L2910.11 2019.29 L2935.47 2016.69 L2960.72 2013.97 L2986.09 2011.00 L3011.46 2007.66 L3036.70 2004.19 L3062.07 2000.23 L3087.32 1996.03 L3112.68 1991.32 L3137.93 1986.25 L3163.30 1980.56 L3188.54 1974.37 L3213.91 1967.44 L3239.16 1959.77 L3264.53 1951.23 L3289.77 1941.70 L3315.14 1931.18 L3340.38 1919.55 L3365.75 1906.43 L3391.00 1891.95 L3416.37 1875.74 L3441.61 1857.79 L3466.98 1837.62 L3492.22 1815.35 L3517.59 1790.35 L3542.84 1762.50 L3568.21 1731.56 L3593.45 1696.91 L3618.82 1658.43 L3644.07 1615.48 L3669.43 1567.59 L3694.68 1514.25 L3720.05 1454.85 L3745.42 1388.64 L3770.66 1315.01 L3770.66 670.75 L3745.42 809.97 L3720.05 934.84 L3694.68 1046.96 L3669.43 1147.57 L3644.07 1237.79 L3618.82 1318.84 L3593.45 1391.36 L3568.21 1456.58 L3542.84 1514.99 L3517.59 1567.47 L3492.22 1614.49 L3466.98 1656.82 L3441.61 1694.69 L3416.37 1728.59 L3391.00 1759.16 L3365.75 1786.51 L3340.38 1811.14 L3315.14 1833.17 L3289.77 1852.97 L3264.53 1870.79 L3239.16 1886.88 L3213.91 1901.23 L3188.54 1914.10 L3163.30 1925.73 L3137.93 1936.13 L3112.68 1945.66 L3087.32 1954.20 L3062.07 1962.12 L3036.70 1969.30 L3011.46 1975.85 L2986.09 1981.92 L2960.72 1987.49 L2935.47 1992.56 L2910.11 1997.39 L2884.86 2001.84 L2859.49 2005.93 L2834.25 2009.64 L2808.88 2013.10 L2783.63 2016.32 L2758.26 2019.17 L2733.02 2021.89 L2707.65 2024.24 L2682.41 2026.35 L2657.04 2028.20 L2631.79 2029.93 L2606.42 2031.42 L2581.18 2032.66 L2555.81 2033.77 L2530.56 2034.76 L2505.20 2035.75 L2479.95 2036.49 L2454.58 2037.11 L2429.34 2037.73 L2403.97 2038.23 L2378.72 2038.72 L2353.35 2039.09 L2328.11 2039.46 L2302.74 2039.71 L2277.49 2040.08 L2252.13 2040.33 L2226.88 2040.45 L2201.51 2040.70 L2201.51 2042.06 Z" stroke-linejoin="round"/>
	</defs>
	<defs>
		<clipPath id="clipPath_tYIbsTpF">
			<use xlink:href="#path_oNjWVUgX"/>
		</clipPath>
	</defs>
	<use xlink:href="#path_oNjWVUgX" style="stroke:none;fill:#E6E6E6"/>
	<use xlink:href="#path_oNjWVUgX" style="fill:none;stroke:#E0E0E0;stroke-width:14.69" clip-path="url(#clipPath_tYIbsTpF)"/>
	<path d=" M2201.39 2041.94 L2226.76 2041.94 L2252.13 2041.82 L2277.37 2041.82 L2302.74 2041.69 L2327.99 2041.57 L2353.35 2041.44 L2378.60 2041.20 L2403.97 2041.07 L2429.21 2040.83 L2454.58 2040.58 L2479.83 2040.21 L2505.20 2039.96 L2530.44 2039.46 L2555.81 2039.09 L2581.05 2038.60 L2606.42 2037.98 L2631.67 2037.24 L2657.04 2036.49 L2682.28 2035.63 L2707.65 2034.76 L2732.89 2033.65 L2758.26 2032.53 L2783.51 2031.30 L2808.88 2029.93 L2834.12 2028.45 L2859.49 2026.72 L2884.74 2024.98 L2910.11 2023.13 L2935.35 2021.02 L2960.72 2018.80 L2986.09 2016.32 L3011.33 2013.60 L3036.70 2010.75 L3061.95 2007.54 L3087.32 2004.07 L3112.56 2000.23 L3137.93 1996.15 L3163.17 1991.57 L3188.54 1986.37 L3213.79 1980.80 L3239.16 1974.49 L3264.40 1967.44 L3289.77 1959.64 L3315.01 1950.98 L3340.38 1941.45 L3365.63 1930.68 L3391.00 1918.68 L3416.24 1905.44 L3441.61 1890.59 L3466.86 1874.00 L3492.22 1855.69 L3517.47 1835.15 L3542.84 1812.25 L3568.08 1786.63 L3593.45 1758.29 L3618.70 1726.49 L3644.07 1691.22 L3669.31 1651.74 L3694.68 1607.81 L3719.93 1558.93 L3745.29 1504.35 L3770.66 1443.59" stroke-linejoin="round" style="fill:none;stroke:#008000;stroke-width:7.34"/>
	<path d=" M2201.39 2042.06 L2226.76 2041.94 L2252.13 2041.94 L2277.37 2041.82 L2302.74 2041.69 L2327.99 2041.69 L2353.35 2041.57 L2378.60 2041.32 L2403.97 2041.20 L2429.21 2041.07 L2454.58 2040.83 L2479.83 2040.58 L2505.20 2040.21 L2530.44 2039.83 L2555.81 2039.46 L2581.05 2039.09 L2606.42 2038.47 L2631.67 2037.98 L2657.04 2037.24 L2682.28 2036.49 L2707.65 2035.75 L2732.89 2034.88 L2758.26 2033.77 L2783.51 2032.78 L2808.88 2031.54 L2834.12 2030.18 L2859.49 2028.82 L2884.74 2027.34 L2910.11 2025.60 L2935.35 2023.87 L2960.72 2021.89 L2986.09 2019.79 L3011.33 2017.44 L3036.70 2014.84 L3061.95 2012.11 L3087.32 2009.14 L3112.56 2005.80 L3137.93 2002.21 L3163.17 1998.25 L3188.54 1993.80 L3213.79 1988.85 L3239.16 1983.40 L3264.40 1977.34 L3289.77 1970.66 L3315.01 1963.11 L3340.38 1954.69 L3365.63 1945.41 L3391.00 1935.02 L3416.24 1923.51 L3441.61 1910.64 L3466.86 1896.28 L3492.22 1880.32 L3517.47 1862.50 L3542.84 1842.57 L3568.08 1820.42 L3593.45 1795.79 L3618.70 1768.20 L3644.07 1737.50 L3669.31 1703.35 L3694.68 1665.23 L3719.93 1622.78 L3745.29 1575.39 L3770.66 1522.67" stroke-linejoin="round" style="fill:none;stroke:#FF0000;stroke-width:7.34"/>
	<path d=" M2201.39 2041.69 L2226.76 2041.69 L2252.13 2041.57 L2277.37 2041.32 L2302.74 2041.20 L2327.99 2040.95 L2353.35 2040.70 L2378.60 2040.45 L2403.97 2040.21 L2429.21 2039.83 L2454.58 2039.34 L2479.83 2038.84 L2505.20 2038.35 L2530.44 2037.61 L2555.81 2036.86 L2581.05 2036.00 L2606.42 2035.01 L2631.67 2033.89 L2657.04 2032.66 L2682.28 2031.17 L2707.65 2029.69 L2732.89 2027.95 L2758.26 2025.97 L2783.51 2023.87 L2808.88 2021.52 L2834.12 2019.04 L2859.49 2016.32 L2884.74 2013.35 L2910.11 2010.26 L2935.35 2006.67 L2960.72 2002.96 L2986.09 1998.87 L3011.33 1994.42 L3036.70 1989.59 L3061.95 1984.27 L3087.32 1978.45 L3112.56 1972.14 L3137.93 1965.21 L3163.17 1957.54 L3188.54 1949.00 L3213.79 1939.59 L3239.16 1929.08 L3264.40 1917.44 L3289.77 1904.45 L3315.01 1889.97 L3340.38 1873.88 L3365.63 1855.94 L3391.00 1836.01 L3416.24 1813.86 L3441.61 1789.11 L3466.86 1761.51 L3492.22 1730.70 L3517.47 1696.42 L3542.84 1658.30 L3568.08 1615.73 L3593.45 1568.21 L3618.70 1515.37 L3644.07 1456.34 L3669.31 1390.62 L3694.68 1317.36 L3719.93 1235.68 L3745.29 1144.85 L3770.66 1043.49" stroke-linejoin="round" style="fill:none;stroke:#FFD200;stroke-width:7.34"/>
	<path d=" M2201.39 2042.06 L2226.76 2042.06 L2252.13 2041.94 L2277.37 2041.94 L2302.74 2041.82 L2327.99 2041.69 L2353.35 2041.57 L2378.60 2041.44 L2403.97 2041.32 L2429.21 2041.20 L2454.58 2040.95 L2479.83 2040.83 L2505.20 2040.45 L2530.44 2040.21 L2555.81 2039.83 L2581.05 2039.46 L2606.42 2039.09 L2631.67 2038.47 L2657.04 2037.98 L2682.28 2037.36 L2707.65 2036.62 L2732.89 2035.87 L2758.26 2035.01 L2783.51 2034.02 L2808.88 2033.03 L2834.12 2031.79 L2859.49 2030.68 L2884.74 2029.32 L2910.11 2027.83 L2935.35 2026.35 L2960.72 2024.61 L2986.09 2022.76 L3011.33 2020.78 L3036.70 2018.55 L3061.95 2016.20 L3087.32 2013.60 L3112.56 2010.75 L3137.93 2007.54 L3163.17 2004.07 L3188.54 2000.23 L3213.79 1996.03 L3239.16 1991.32 L3264.40 1986.00 L3289.77 1980.19 L3315.01 1973.63 L3340.38 1966.45 L3365.63 1958.28 L3391.00 1949.37 L3416.24 1939.35 L3441.61 1928.21 L3466.86 1915.71 L3492.22 1901.85 L3517.47 1886.38 L3542.84 1869.18 L3568.08 1850.00 L3593.45 1828.59 L3618.70 1804.70 L3644.07 1778.10 L3669.31 1748.52 L3694.68 1715.35 L3719.93 1678.60 L3745.29 1637.51 L3770.66 1591.85" stroke-linejoin="round" style="fill:none;stroke:#1A476F;stroke-width:7.34"/>
	<line x1="2201.39" y1="1949.37" x2="2204.24" y2="1949.37" style="stroke:#000000;stroke-width:7.34"/>
	<line x1="2224.41" y1="1949.37" x2="2226.76" y2="1949.37" style="stroke:#000000;stroke-width:7.34"/>
	<line x1="2226.76" y1="1949.37" x2="2227.25" y2="1949.37" style="stroke:#000000;stroke-width:7.34"/>
	<line x1="2247.42" y1="1949.37" x2="2250.27" y2="1949.37" style="stroke:#000000;stroke-width:7.34"/>
	<line x1="2270.44" y1="1949.37" x2="2273.29" y2="1949.37" style="stroke:#000000;stroke-width:7.34"/>
	<line x1="2293.46" y1="1949.37" x2="2296.43" y2="1949.37" style="stroke:#000000;stroke-width:7.34"/>
	<line x1="2316.60" y1="1949.37" x2="2319.45" y2="1949.37" style="stroke:#000000;stroke-width:7.34"/>
	<line x1="2339.62" y1="1949.37" x2="2342.46" y2="1949.37" style="stroke:#000000;stroke-width:7.34"/>
	<line x1="2362.64" y1="1949.37" x2="2365.48" y2="1949.37" style="stroke:#000000;stroke-width:7.34"/>
	<line x1="2385.65" y1="1949.37" x2="2388.50" y2="1949.37" style="stroke:#000000;stroke-width:7.34"/>
	<line x1="2408.67" y1="1949.37" x2="2411.52" y2="1949.37" style="stroke:#000000;stroke-width:7.34"/>
	<line x1="2431.69" y1="1949.37" x2="2434.53" y2="1949.37" style="stroke:#000000;stroke-width:7.34"/>
	<line x1="2454.70" y1="1949.37" x2="2457.55" y2="1949.37" style="stroke:#000000;stroke-width:7.34"/>
	<line x1="2477.72" y1="1949.37" x2="2479.83" y2="1949.37" style="stroke:#000000;stroke-width:7.34"/>
	<line x1="2479.83" y1="1949.37" x2="2480.57" y2="1949.37" style="stroke:#000000;stroke-width:7.34"/>
	<line x1="2500.74" y1="1949.37" x2="2503.59" y2="1949.37" style="stroke:#000000;stroke-width:7.34"/>
	<line x1="2523.76" y1="1949.37" x2="2526.60" y2="1949.37" style="stroke:#000000;stroke-width:7.34"/>
	<line x1="2546.78" y1="1949.37" x2="2549.74" y2="1949.37" style="stroke:#000000;stroke-width:7.34"/>
	<line x1="2569.92" y1="1949.37" x2="2572.76" y2="1949.37" style="stroke:#000000;stroke-width:7.34"/>
	<line x1="2592.93" y1="1949.37" x2="2595.78" y2="1949.37" style="stroke:#000000;stroke-width:7.34"/>
	<line x1="2615.95" y1="1949.37" x2="2618.80" y2="1949.37" style="stroke:#000000;stroke-width:7.34"/>
	<line x1="2638.97" y1="1949.37" x2="2641.82" y2="1949.37" style="stroke:#000000;stroke-width:7.34"/>
	<line x1="2661.99" y1="1949.37" x2="2664.83" y2="1949.37" style="stroke:#000000;stroke-width:7.34"/>
	<line x1="2685.00" y1="1949.37" x2="2687.85" y2="1949.37" style="stroke:#000000;stroke-width:7.34"/>
	<line x1="2708.02" y1="1949.37" x2="2710.87" y2="1949.37" style="stroke:#000000;stroke-width:7.34"/>
	<line x1="2731.04" y1="1949.37" x2="2732.89" y2="1949.37" style="stroke:#000000;stroke-width:7.34"/>
	<line x1="2732.89" y1="1949.37" x2="2733.89" y2="1949.37" style="stroke:#000000;stroke-width:7.34"/>
	<line x1="2754.06" y1="1949.37" x2="2756.90" y2="1949.37" style="stroke:#000000;stroke-width:7.34"/>
	<line x1="2777.07" y1="1949.37" x2="2779.92" y2="1949.37" style="stroke:#000000;stroke-width:7.34"/>
	<line x1="2800.09" y1="1949.37" x2="2803.06" y2="1949.37" style="stroke:#000000;stroke-width:7.34"/>
	<line x1="2823.23" y1="1949.37" x2="2826.08" y2="1949.37" style="stroke:#000000;stroke-width:7.34"/>
	<line x1="2846.25" y1="1949.37" x2="2849.10" y2="1949.37" style="stroke:#000000;stroke-width:7.34"/>
	<line x1="2869.27" y1="1949.37" x2="2872.11" y2="1949.37" style="stroke:#000000;stroke-width:7.34"/>
	<line x1="2892.28" y1="1949.37" x2="2895.13" y2="1949.37" style="stroke:#000000;stroke-width:7.34"/>
	<line x1="2915.30" y1="1949.37" x2="2918.15" y2="1949.37" style="stroke:#000000;stroke-width:7.34"/>
	<line x1="2938.32" y1="1949.37" x2="2941.17" y2="1949.37" style="stroke:#000000;stroke-width:7.34"/>
	<line x1="2961.34" y1="1949.37" x2="2964.18" y2="1949.37" style="stroke:#000000;stroke-width:7.34"/>
	<line x1="2984.36" y1="1949.37" x2="2986.09" y2="1949.37" style="stroke:#000000;stroke-width:7.34"/>
	<line x1="2986.09" y1="1949.37" x2="2987.20" y2="1949.37" style="stroke:#000000;stroke-width:7.34"/>
	<line x1="3007.37" y1="1949.37" x2="3010.22" y2="1949.37" style="stroke:#000000;stroke-width:7.34"/>
	<line x1="3030.39" y1="1949.37" x2="3033.36" y2="1949.37" style="stroke:#000000;stroke-width:7.34"/>
	<line x1="3053.41" y1="1949.37" x2="3056.38" y2="1949.37" style="stroke:#000000;stroke-width:7.34"/>
	<line x1="3076.55" y1="1949.37" x2="3079.39" y2="1949.37" style="stroke:#000000;stroke-width:7.34"/>
	<line x1="3099.57" y1="1949.37" x2="3102.41" y2="1949.37" style="stroke:#000000;stroke-width:7.34"/>
	<line x1="3122.58" y1="1949.37" x2="3125.43" y2="1949.37" style="stroke:#000000;stroke-width:7.34"/>
	<line x1="3145.60" y1="1949.37" x2="3148.45" y2="1949.37" style="stroke:#000000;stroke-width:7.34"/>
	<line x1="3168.62" y1="1949.37" x2="3171.47" y2="1949.37" style="stroke:#000000;stroke-width:7.34"/>
	<line x1="3191.64" y1="1949.37" x2="3194.48" y2="1949.37" style="stroke:#000000;stroke-width:7.34"/>
	<line x1="3214.65" y1="1949.37" x2="3217.50" y2="1949.37" style="stroke:#000000;stroke-width:7.34"/>
	<line x1="3237.67" y1="1949.37" x2="3239.16" y2="1949.37" style="stroke:#000000;stroke-width:7.34"/>
	<line x1="3239.16" y1="1949.37" x2="3240.52" y2="1949.37" style="stroke:#000000;stroke-width:7.34"/>
	<line x1="3260.69" y1="1949.37" x2="3263.53" y2="1949.37" style="stroke:#000000;stroke-width:7.34"/>
	<line x1="3283.71" y1="1949.37" x2="3286.68" y2="1949.37" style="stroke:#000000;stroke-width:7.34"/>
	<line x1="3306.72" y1="1949.37" x2="3309.69" y2="1949.37" style="stroke:#000000;stroke-width:7.34"/>
	<line x1="3329.86" y1="1949.37" x2="3332.71" y2="1949.37" style="stroke:#000000;stroke-width:7.34"/>
	<line x1="3352.88" y1="1949.37" x2="3355.73" y2="1949.37" style="stroke:#000000;stroke-width:7.34"/>
	<line x1="3375.90" y1="1949.37" x2="3378.75" y2="1949.37" style="stroke:#000000;stroke-width:7.34"/>
	<line x1="3398.92" y1="1949.37" x2="3401.76" y2="1949.37" style="stroke:#000000;stroke-width:7.34"/>
	<line x1="3421.93" y1="1949.37" x2="3424.78" y2="1949.37" style="stroke:#000000;stroke-width:7.34"/>
	<line x1="3444.95" y1="1949.37" x2="3447.80" y2="1949.37" style="stroke:#000000;stroke-width:7.34"/>
	<line x1="3467.97" y1="1949.37" x2="3470.82" y2="1949.37" style="stroke:#000000;stroke-width:7.34"/>
	<line x1="3490.99" y1="1949.37" x2="3492.22" y2="1949.37" style="stroke:#000000;stroke-width:7.34"/>
	<line x1="3492.22" y1="1949.37" x2="3493.83" y2="1949.37" style="stroke:#000000;stroke-width:7.34"/>
	<line x1="3514.01" y1="1949.37" x2="3516.85" y2="1949.37" style="stroke:#000000;stroke-width:7.34"/>
	<line x1="3537.02" y1="1949.37" x2="3539.99" y2="1949.37" style="stroke:#000000;stroke-width:7.34"/>
	<line x1="3560.04" y1="1949.37" x2="3563.01" y2="1949.37" style="stroke:#000000;stroke-width:7.34"/>
	<line x1="3583.18" y1="1949.37" x2="3586.03" y2="1949.37" style="stroke:#000000;stroke-width:7.34"/>
	<line x1="3606.20" y1="1949.37" x2="3609.05" y2="1949.37" style="stroke:#000000;stroke-width:7.34"/>
	<line x1="3629.22" y1="1949.37" x2="3632.06" y2="1949.37" style="stroke:#000000;stroke-width:7.34"/>
	<line x1="3652.23" y1="1949.37" x2="3655.08" y2="1949.37" style="stroke:#000000;stroke-width:7.34"/>
	<line x1="3675.25" y1="1949.37" x2="3678.10" y2="1949.37" style="stroke:#000000;stroke-width:7.34"/>
	<line x1="3698.27" y1="1949.37" x2="3701.11" y2="1949.37" style="stroke:#000000;stroke-width:7.34"/>
	<line x1="3721.29" y1="1949.37" x2="3724.13" y2="1949.37" style="stroke:#000000;stroke-width:7.34"/>
	<line x1="3744.30" y1="1949.37" x2="3745.29" y2="1949.37" style="stroke:#000000;stroke-width:7.34"/>
	<line x1="3745.29" y1="1949.37" x2="3747.15" y2="1949.37" style="stroke:#000000;stroke-width:7.34"/>
	<line x1="3767.32" y1="1949.37" x2="3770.17" y2="1949.37" style="stroke:#000000;stroke-width:7.34"/>
	<path d="" stroke-linejoin="round" style="fill:none;stroke:#000000;stroke-width:7.34"/>
	<line x1="401.69" y1="2096.14" x2="401.69" y2="258.27" style="stroke:#000000;stroke-width:4.90"/>
	<line x1="401.69" y1="2042.31" x2="367.66" y2="2042.31" style="stroke:#000000;stroke-width:4.90"/>
	<text x="350.71" y="2072.10" style="font-family:'Helvetica';font-size:85.02px;fill:#000000" text-anchor="end">0</text>
	<line x1="401.69" y1="1696.29" x2="367.66" y2="1696.29" style="stroke:#000000;stroke-width:4.90"/>
	<text x="350.71" y="1726.08" style="font-family:'Helvetica';font-size:85.02px;fill:#000000" text-anchor="end">.001</text>
	<line x1="401.69" y1="1350.15" x2="367.66" y2="1350.15" style="stroke:#000000;stroke-width:4.90"/>
	<text x="350.71" y="1379.94" style="font-family:'Helvetica';font-size:85.02px;fill:#000000" text-anchor="end">.002</text>
	<line x1="401.69" y1="1004.14" x2="367.66" y2="1004.14" style="stroke:#000000;stroke-width:4.90"/>
	<text x="350.71" y="1033.93" style="font-family:'Helvetica';font-size:85.02px;fill:#000000" text-anchor="end">.003</text>
	<line x1="401.69" y1="658.12" x2="367.66" y2="658.12" style="stroke:#000000;stroke-width:4.90"/>
	<text x="350.71" y="687.91" style="font-family:'Helvetica';font-size:85.02px;fill:#000000" text-anchor="end">.004</text>
	<line x1="401.69" y1="312.11" x2="367.66" y2="312.11" style="stroke:#000000;stroke-width:4.90"/>
	<text x="350.71" y="341.89" style="font-family:'Helvetica';font-size:85.02px;fill:#000000" text-anchor="end">.005</text>
	<line x1="401.69" y1="2096.14" x2="2078.51" y2="2096.14" style="stroke:#000000;stroke-width:4.90"/>
	<line x1="506.14" y1="2096.14" x2="506.14" y2="2113.10" style="stroke:#000000;stroke-width:4.90"/>
	<line x1="632.73" y1="2096.14" x2="632.73" y2="2113.10" style="stroke:#000000;stroke-width:4.90"/>
	<line x1="759.21" y1="2096.14" x2="759.21" y2="2113.10" style="stroke:#000000;stroke-width:4.90"/>
	<line x1="885.80" y1="2096.14" x2="885.80" y2="2113.10" style="stroke:#000000;stroke-width:4.90"/>
	<line x1="1012.27" y1="2096.14" x2="1012.27" y2="2113.10" style="stroke:#000000;stroke-width:4.90"/>
	<line x1="1138.87" y1="2096.14" x2="1138.87" y2="2113.10" style="stroke:#000000;stroke-width:4.90"/>
	<line x1="1265.47" y1="2096.14" x2="1265.47" y2="2113.10" style="stroke:#000000;stroke-width:4.90"/>
	<line x1="1391.94" y1="2096.14" x2="1391.94" y2="2113.10" style="stroke:#000000;stroke-width:4.90"/>
	<line x1="1518.54" y1="2096.14" x2="1518.54" y2="2113.10" style="stroke:#000000;stroke-width:4.90"/>
	<line x1="1645.01" y1="2096.14" x2="1645.01" y2="2113.10" style="stroke:#000000;stroke-width:4.90"/>
	<line x1="1771.61" y1="2096.14" x2="1771.61" y2="2113.10" style="stroke:#000000;stroke-width:4.90"/>
	<line x1="1898.20" y1="2096.14" x2="1898.20" y2="2113.10" style="stroke:#000000;stroke-width:4.90"/>
	<line x1="2024.67" y1="2096.14" x2="2024.67" y2="2113.10" style="stroke:#000000;stroke-width:4.90"/>
	<line x1="506.14" y1="2096.14" x2="506.14" y2="2130.18" style="stroke:#000000;stroke-width:4.90"/>
	<text x="506.14" y="2206.58" style="font-family:'Helvetica';font-size:85.02px;fill:#000000" text-anchor="middle">20</text>
	<line x1="1012.27" y1="2096.14" x2="1012.27" y2="2130.18" style="stroke:#000000;stroke-width:4.90"/>
	<text x="1012.27" y="2206.58" style="font-family:'Helvetica';font-size:85.02px;fill:#000000" text-anchor="middle">40</text>
	<line x1="1518.54" y1="2096.14" x2="1518.54" y2="2130.18" style="stroke:#000000;stroke-width:4.90"/>
	<text x="1518.54" y="2206.58" style="font-family:'Helvetica';font-size:85.02px;fill:#000000" text-anchor="middle">60</text>
	<line x1="2024.67" y1="2096.14" x2="2024.67" y2="2130.18" style="stroke:#000000;stroke-width:4.90"/>
	<text x="2024.67" y="2206.58" style="font-family:'Helvetica';font-size:85.02px;fill:#000000" text-anchor="middle">80</text>
	<line x1="2147.68" y1="2096.14" x2="3824.49" y2="2096.14" style="stroke:#000000;stroke-width:4.90"/>
	<line x1="2252.13" y1="2096.14" x2="2252.13" y2="2113.10" style="stroke:#000000;stroke-width:4.90"/>
	<line x1="2378.72" y1="2096.14" x2="2378.72" y2="2113.10" style="stroke:#000000;stroke-width:4.90"/>
	<line x1="2505.20" y1="2096.14" x2="2505.20" y2="2113.10" style="stroke:#000000;stroke-width:4.90"/>
	<line x1="2631.79" y1="2096.14" x2="2631.79" y2="2113.10" style="stroke:#000000;stroke-width:4.90"/>
	<line x1="2758.26" y1="2096.14" x2="2758.26" y2="2113.10" style="stroke:#000000;stroke-width:4.90"/>
	<line x1="2884.86" y1="2096.14" x2="2884.86" y2="2113.10" style="stroke:#000000;stroke-width:4.90"/>
	<line x1="3011.46" y1="2096.14" x2="3011.46" y2="2113.10" style="stroke:#000000;stroke-width:4.90"/>
	<line x1="3137.93" y1="2096.14" x2="3137.93" y2="2113.10" style="stroke:#000000;stroke-width:4.90"/>
	<line x1="3264.53" y1="2096.14" x2="3264.53" y2="2113.10" style="stroke:#000000;stroke-width:4.90"/>
	<line x1="3391.00" y1="2096.14" x2="3391.00" y2="2113.10" style="stroke:#000000;stroke-width:4.90"/>
	<line x1="3517.59" y1="2096.14" x2="3517.59" y2="2113.10" style="stroke:#000000;stroke-width:4.90"/>
	<line x1="3644.07" y1="2096.14" x2="3644.07" y2="2113.10" style="stroke:#000000;stroke-width:4.90"/>
	<line x1="3770.66" y1="2096.14" x2="3770.66" y2="2113.10" style="stroke:#000000;stroke-width:4.90"/>
	<line x1="2252.13" y1="2096.14" x2="2252.13" y2="2130.18" style="stroke:#000000;stroke-width:4.90"/>
	<text x="2252.13" y="2206.58" style="font-family:'Helvetica';font-size:85.02px;fill:#000000" text-anchor="middle">20</text>
	<line x1="2758.26" y1="2096.14" x2="2758.26" y2="2130.18" style="stroke:#000000;stroke-width:4.90"/>
	<text x="2758.26" y="2206.58" style="font-family:'Helvetica';font-size:85.02px;fill:#000000" text-anchor="middle">40</text>
	<line x1="3264.53" y1="2096.14" x2="3264.53" y2="2130.18" style="stroke:#000000;stroke-width:4.90"/>
	<text x="3264.53" y="2206.58" style="font-family:'Helvetica';font-size:85.02px;fill:#000000" text-anchor="middle">60</text>
	<line x1="3770.66" y1="2096.14" x2="3770.66" y2="2130.18" style="stroke:#000000;stroke-width:4.90"/>
	<text x="3770.66" y="2206.58" style="font-family:'Helvetica';font-size:85.02px;fill:#000000" text-anchor="middle">80</text>
	<rect x="401.69" y="135.39" width="1676.81" height="122.89" style="fill:#D9E6EB"/>
	<rect x="404.14" y="137.83" width="1671.92" height="117.99" style="fill:none;stroke:#D9E6EB;stroke-width:4.90"/>
	<text x="1240.10" y="215.42" style="font-family:'Helvetica';font-size:93.56px;fill:#000000" text-anchor="middle">Female</text>
	<rect x="2147.68" y="135.39" width="1676.81" height="122.89" style="fill:#D9E6EB"/>
	<rect x="2150.13" y="137.83" width="1671.92" height="117.99" style="fill:none;stroke:#D9E6EB;stroke-width:4.90"/>
	<text x="2986.09" y="215.42" style="font-family:'Helvetica';font-size:93.56px;fill:#000000" text-anchor="middle">Male</text>
	<rect x="555.88" y="2418.27" width="2848.11" height="326.34" style="fill:#FFFFFF"/>
	<rect x="558.76" y="2421.15" width="2842.35" height="320.58" style="fill:none;stroke:#000000;stroke-width:5.76"/>
	<line x1="599.07" y1="2511.46" x2="973.54" y2="2511.46" style="stroke:#008000;stroke-width:8.64"/>
	<line x1="2106.84" y1="2511.46" x2="2481.19" y2="2511.46" style="stroke:#FF0000;stroke-width:8.64"/>
	<line x1="599.07" y1="2651.43" x2="973.54" y2="2651.43" style="stroke:#FFD200;stroke-width:8.64"/>
	<line x1="2106.84" y1="2651.43" x2="2481.19" y2="2651.43" style="stroke:#1A476F;stroke-width:8.64"/>
	<text x="1033.56" y="2546.49" style="font-family:'Helvetica';font-size:99.99px;fill:#000000">Spleen</text>
	<text x="2541.21" y="2546.49" style="font-family:'Helvetica';font-size:99.99px;fill:#000000">RA/SLE/Psoriasis</text>
	<text x="1033.56" y="2686.46" style="font-family:'Helvetica';font-size:99.99px;fill:#000000">Immunosuppression</text>
	<text x="2541.21" y="2686.46" style="font-family:'Helvetica';font-size:99.99px;fill:#000000">No comborbidity</text>
	<text x="1980.00" y="2353.56" style="font-family:'Helvetica';font-size:99.99px;fill:#000000" text-anchor="middle">Age (years)</text>
</svg>
