<?xml version="1.0" encoding="UTF-8" standalone="no"?>
<!-- This is a Stata 16.1 generated SVG file (http://www.stata.com) -->

<svg version="1.1" width="1600px" height="1164px" viewBox="0 0 3960 2880" xmlns="http://www.w3.org/2000/svg" xmlns:xlink="http://www.w3.org/1999/xlink">
	<desc>Stata Graph - Graph</desc>
	<rect x="0" y="0" width="3960" height="2880" style="fill:#EAF2F3;stroke:none"/>
	<rect x="0.00" y="0.00" width="3959.88" height="2880.00" style="fill:#EAF2F3"/>
	<rect x="2.88" y="2.88" width="3954.12" height="2874.24" style="fill:none;stroke:#EAF2F3;stroke-width:5.76"/>
	<rect x="401.69" y="402.82" width="1676.81" height="1693.32" style="fill:#FFFFFF"/>
	<rect x="404.14" y="405.27" width="1671.92" height="1688.43" style="fill:none;stroke:#FFFFFF;stroke-width:4.90"/>
	<line x1="401.69" y1="2042.31" x2="2078.51" y2="2042.31" style="stroke:#EAF2F3;stroke-width:7.34"/>
	<line x1="401.69" y1="1725.13" x2="2078.51" y2="1725.13" style="stroke:#EAF2F3;stroke-width:7.34"/>
	<line x1="401.69" y1="1408.07" x2="2078.51" y2="1408.07" style="stroke:#EAF2F3;stroke-width:7.34"/>
	<line x1="401.69" y1="1090.89" x2="2078.51" y2="1090.89" style="stroke:#EAF2F3;stroke-width:7.34"/>
	<line x1="401.69" y1="773.83" x2="2078.51" y2="773.83" style="stroke:#EAF2F3;stroke-width:7.34"/>
	<rect x="2147.68" y="402.82" width="1676.81" height="1693.32" style="fill:#FFFFFF"/>
	<rect x="2150.13" y="405.27" width="1671.92" height="1688.43" style="fill:none;stroke:#FFFFFF;stroke-width:4.90"/>
	<line x1="2147.68" y1="2042.31" x2="3824.49" y2="2042.31" style="stroke:#EAF2F3;stroke-width:7.34"/>
	<line x1="2147.68" y1="1725.13" x2="3824.49" y2="1725.13" style="stroke:#EAF2F3;stroke-width:7.34"/>
	<line x1="2147.68" y1="1408.07" x2="3824.49" y2="1408.07" style="stroke:#EAF2F3;stroke-width:7.34"/>
	<line x1="2147.68" y1="1090.89" x2="3824.49" y2="1090.89" style="stroke:#EAF2F3;stroke-width:7.34"/>
	<line x1="2147.68" y1="773.83" x2="3824.49" y2="773.83" style="stroke:#EAF2F3;stroke-width:7.34"/>
	<defs>
		<path id="path_HHWZixgE" d="M455.52 2042.19 L455.52 2042.19 L480.89 2042.19 L506.14 2042.19 L531.51 2042.19 L556.75 2042.19 L582.12 2042.06 L607.37 2042.06 L632.73 2042.06 L657.98 2041.94 L683.35 2041.94 L708.59 2041.82 L733.96 2041.69 L759.21 2041.57 L784.58 2041.44 L809.82 2041.20 L835.19 2041.07 L860.43 2040.83 L885.80 2040.58 L911.05 2040.21 L936.42 2039.83 L961.66 2039.46 L987.03 2039.09 L1012.27 2038.72 L1037.64 2038.23 L1062.89 2037.73 L1088.26 2037.24 L1113.50 2036.62 L1138.87 2036.00 L1164.24 2035.38 L1189.48 2034.64 L1214.85 2033.89 L1240.10 2033.03 L1265.47 2032.16 L1290.71 2031.17 L1316.08 2030.18 L1341.33 2029.07 L1366.69 2027.83 L1391.94 2026.47 L1417.31 2024.98 L1442.55 2023.38 L1467.92 2021.64 L1493.17 2019.66 L1518.54 2017.56 L1543.78 2015.21 L1569.15 2012.49 L1594.39 2009.52 L1619.76 2006.30 L1645.01 2002.59 L1670.38 1998.62 L1695.62 1994.05 L1720.99 1988.97 L1746.24 1983.40 L1771.61 1977.22 L1796.85 1970.16 L1822.22 1962.49 L1847.46 1953.83 L1872.83 1944.17 L1898.20 1933.41 L1923.45 1921.40 L1948.82 1908.16 L1974.06 1893.31 L1999.43 1876.73 L2024.67 1858.41 L2024.67 1816.58 L1999.43 1839.11 L1974.06 1859.28 L1948.82 1877.47 L1923.45 1893.81 L1898.20 1908.41 L1872.83 1921.53 L1847.46 1933.28 L1822.22 1943.93 L1796.85 1953.45 L1771.61 1961.99 L1746.24 1969.67 L1720.99 1976.60 L1695.62 1982.78 L1670.38 1988.35 L1645.01 1993.43 L1619.76 1997.88 L1594.39 2001.97 L1569.15 2005.56 L1543.78 2008.77 L1518.54 2011.74 L1493.17 2014.34 L1467.92 2016.69 L1442.55 2018.80 L1417.31 2020.78 L1391.94 2022.39 L1366.69 2023.99 L1341.33 2025.48 L1316.08 2026.72 L1290.71 2027.95 L1265.47 2029.07 L1240.10 2030.06 L1214.85 2031.05 L1189.48 2032.04 L1164.24 2032.90 L1138.87 2033.77 L1113.50 2034.51 L1088.26 2035.26 L1062.89 2036.00 L1037.64 2036.62 L1012.27 2037.24 L987.03 2037.73 L961.66 2038.23 L936.42 2038.72 L911.05 2039.09 L885.80 2039.46 L860.43 2039.83 L835.19 2040.08 L809.82 2040.33 L784.58 2040.58 L759.21 2040.70 L733.96 2040.95 L708.59 2041.07 L683.35 2041.20 L657.98 2041.32 L632.73 2041.44 L607.37 2041.57 L582.12 2041.57 L556.75 2041.69 L531.51 2041.69 L506.14 2041.82 L480.89 2041.82 L455.52 2041.94 L455.52 2042.19 Z" stroke-linejoin="round"/>
	</defs>
	<defs>
		<clipPath id="clipPath_QYuSfDjk">
			<use xlink:href="#path_HHWZixgE"/>
		</clipPath>
	</defs>
	<use xlink:href="#path_HHWZixgE" style="stroke:none;fill:#E6E6E6"/>
	<use xlink:href="#path_HHWZixgE" style="fill:none;stroke:#E0E0E0;stroke-width:14.69" clip-path="url(#clipPath_QYuSfDjk)"/>
	<defs>
		<path id="path_gzjWFiFg" d="M455.52 2042.19 L455.52 2042.19 L480.89 2042.06 L506.14 2042.06 L531.51 2042.06 L556.75 2041.94 L582.12 2041.94 L607.37 2041.82 L632.73 2041.69 L657.98 2041.57 L683.35 2041.44 L708.59 2041.32 L733.96 2041.07 L759.21 2040.83 L784.58 2040.45 L809.82 2040.08 L835.19 2039.71 L860.43 2039.22 L885.80 2038.60 L911.05 2037.98 L936.42 2037.24 L961.66 2036.49 L987.03 2035.63 L1012.27 2034.76 L1037.64 2033.77 L1062.89 2032.78 L1088.26 2031.67 L1113.50 2030.43 L1138.87 2029.19 L1164.24 2027.83 L1189.48 2026.35 L1214.85 2024.74 L1240.10 2023.00 L1265.47 2021.15 L1290.71 2019.04 L1316.08 2016.82 L1341.33 2014.47 L1366.69 2011.87 L1391.94 2009.02 L1417.31 2005.93 L1442.55 2002.59 L1467.92 1998.75 L1493.17 1994.66 L1518.54 1990.09 L1543.78 1985.01 L1569.15 1979.32 L1594.39 1973.01 L1619.76 1966.08 L1645.01 1958.28 L1670.38 1949.62 L1695.62 1939.97 L1720.99 1929.32 L1746.24 1917.32 L1771.61 1903.95 L1796.85 1889.10 L1822.22 1872.52 L1847.46 1854.08 L1872.83 1833.54 L1898.20 1810.64 L1923.45 1785.03 L1948.82 1756.56 L1974.06 1724.88 L1999.43 1689.74 L2024.67 1650.51 L2024.67 1567.71 L1999.43 1614.86 L1974.06 1657.31 L1948.82 1695.30 L1923.45 1729.46 L1898.20 1760.28 L1872.83 1787.75 L1847.46 1812.62 L1822.22 1834.90 L1796.85 1854.82 L1771.61 1872.77 L1746.24 1888.98 L1720.99 1903.46 L1695.62 1916.58 L1670.38 1928.21 L1645.01 1938.73 L1619.76 1948.26 L1594.39 1956.80 L1569.15 1964.35 L1543.78 1971.28 L1518.54 1977.46 L1493.17 1982.91 L1467.92 1987.98 L1442.55 1992.44 L1417.31 1996.40 L1391.94 1999.99 L1366.69 2003.33 L1341.33 2006.30 L1316.08 2009.02 L1290.71 2011.62 L1265.47 2014.09 L1240.10 2016.32 L1214.85 2018.30 L1189.48 2020.41 L1164.24 2022.26 L1138.87 2023.99 L1113.50 2025.73 L1088.26 2027.34 L1062.89 2028.82 L1037.64 2030.18 L1012.27 2031.42 L987.03 2032.66 L961.66 2033.65 L936.42 2034.64 L911.05 2035.50 L885.80 2036.25 L860.43 2036.99 L835.19 2037.61 L809.82 2038.10 L784.58 2038.60 L759.21 2038.97 L733.96 2039.34 L708.59 2039.71 L683.35 2039.96 L657.98 2040.21 L632.73 2040.45 L607.37 2040.70 L582.12 2040.83 L556.75 2041.07 L531.51 2041.20 L506.14 2041.32 L480.89 2041.44 L455.52 2041.44 L455.52 2042.19 Z" stroke-linejoin="round"/>
	</defs>
	<defs>
		<clipPath id="clipPath_IFdIQmHt">
			<use xlink:href="#path_gzjWFiFg"/>
		</clipPath>
	</defs>
	<use xlink:href="#path_gzjWFiFg" style="stroke:none;fill:#E6E6E6"/>
	<use xlink:href="#path_gzjWFiFg" style="fill:none;stroke:#E0E0E0;stroke-width:14.69" clip-path="url(#clipPath_IFdIQmHt)"/>
	<defs>
		<path id="path_ylmJnhMz" d="M455.52 2042.06 L455.52 2042.06 L480.89 2042.06 L506.14 2041.94 L531.51 2041.82 L556.75 2041.82 L582.12 2041.69 L607.37 2041.44 L632.73 2041.32 L657.98 2041.07 L683.35 2040.83 L708.59 2040.45 L733.96 2040.08 L759.21 2039.59 L784.58 2039.09 L809.82 2038.35 L835.19 2037.61 L860.43 2036.74 L885.80 2035.75 L911.05 2034.64 L936.42 2033.40 L961.66 2032.04 L987.03 2030.55 L1012.27 2028.94 L1037.64 2027.21 L1062.89 2025.36 L1088.26 2023.38 L1113.50 2021.27 L1138.87 2019.04 L1164.24 2016.57 L1189.48 2013.97 L1214.85 2011.12 L1240.10 2008.03 L1265.47 2004.69 L1290.71 2001.10 L1316.08 1997.26 L1341.33 1993.06 L1366.69 1988.35 L1391.94 1983.40 L1417.31 1977.83 L1442.55 1971.89 L1467.92 1965.21 L1493.17 1957.79 L1518.54 1949.62 L1543.78 1940.58 L1569.15 1930.56 L1594.39 1919.42 L1619.76 1907.05 L1645.01 1893.19 L1670.38 1877.84 L1695.62 1860.76 L1720.99 1841.58 L1746.24 1820.30 L1771.61 1796.66 L1796.85 1770.18 L1822.22 1740.72 L1847.46 1707.80 L1872.83 1671.05 L1898.20 1630.21 L1923.45 1584.67 L1948.82 1533.93 L1974.06 1477.37 L1999.43 1414.51 L2024.67 1344.59 L2024.67 1198.80 L1999.43 1282.34 L1974.06 1357.46 L1948.82 1424.90 L1923.45 1485.54 L1898.20 1540.12 L1872.83 1589.00 L1847.46 1633.06 L1822.22 1672.66 L1796.85 1708.17 L1771.61 1740.10 L1746.24 1768.81 L1720.99 1794.68 L1695.62 1817.94 L1670.38 1838.73 L1645.01 1857.55 L1619.76 1874.38 L1594.39 1889.60 L1569.15 1903.21 L1543.78 1915.46 L1518.54 1926.48 L1493.17 1936.25 L1467.92 1945.16 L1442.55 1953.21 L1417.31 1960.39 L1391.94 1966.82 L1366.69 1972.64 L1341.33 1978.08 L1316.08 1983.03 L1290.71 1987.61 L1265.47 1991.82 L1240.10 1995.78 L1214.85 1999.61 L1189.48 2003.20 L1164.24 2006.55 L1138.87 2009.64 L1113.50 2012.73 L1088.26 2015.46 L1062.89 2018.18 L1037.64 2020.65 L1012.27 2023.00 L987.03 2025.11 L961.66 2026.96 L936.42 2028.70 L911.05 2030.31 L885.80 2031.67 L860.43 2032.78 L835.19 2033.89 L809.82 2034.88 L784.58 2035.75 L759.21 2036.49 L733.96 2037.11 L708.59 2037.73 L683.35 2038.23 L657.98 2038.72 L632.73 2039.09 L607.37 2039.46 L582.12 2039.71 L556.75 2040.08 L531.51 2040.33 L506.14 2040.45 L480.89 2040.70 L455.52 2040.95 L455.52 2042.06 Z" stroke-linejoin="round"/>
	</defs>
	<defs>
		<clipPath id="clipPath_YdwceMyX">
			<use xlink:href="#path_ylmJnhMz"/>
		</clipPath>
	</defs>
	<use xlink:href="#path_ylmJnhMz" style="stroke:none;fill:#E6E6E6"/>
	<use xlink:href="#path_ylmJnhMz" style="fill:none;stroke:#E0E0E0;stroke-width:14.69" clip-path="url(#clipPath_YdwceMyX)"/>
	<line x1="455.52" y1="1998.25" x2="458.37" y2="1998.25" style="stroke:#A0A0A0;stroke-width:7.34"/>
	<line x1="478.54" y1="1998.25" x2="480.77" y2="1998.25" style="stroke:#A0A0A0;stroke-width:7.34"/>
	<line x1="480.77" y1="1998.25" x2="481.39" y2="1998.25" style="stroke:#A0A0A0;stroke-width:7.34"/>
	<line x1="501.56" y1="1998.25" x2="504.40" y2="1998.25" style="stroke:#A0A0A0;stroke-width:7.34"/>
	<line x1="524.58" y1="1998.25" x2="527.42" y2="1998.25" style="stroke:#A0A0A0;stroke-width:7.34"/>
	<line x1="547.59" y1="1998.25" x2="550.44" y2="1998.25" style="stroke:#A0A0A0;stroke-width:7.34"/>
	<line x1="570.61" y1="1998.25" x2="573.58" y2="1998.25" style="stroke:#A0A0A0;stroke-width:7.34"/>
	<line x1="593.75" y1="1998.25" x2="596.60" y2="1998.25" style="stroke:#A0A0A0;stroke-width:7.34"/>
	<line x1="616.77" y1="1998.25" x2="619.62" y2="1998.25" style="stroke:#A0A0A0;stroke-width:7.34"/>
	<line x1="639.79" y1="1998.25" x2="642.63" y2="1998.25" style="stroke:#A0A0A0;stroke-width:7.34"/>
	<line x1="662.80" y1="1998.25" x2="665.65" y2="1998.25" style="stroke:#A0A0A0;stroke-width:7.34"/>
	<line x1="685.82" y1="1998.25" x2="688.67" y2="1998.25" style="stroke:#A0A0A0;stroke-width:7.34"/>
	<line x1="708.84" y1="1998.25" x2="711.69" y2="1998.25" style="stroke:#A0A0A0;stroke-width:7.34"/>
	<line x1="731.86" y1="1998.25" x2="733.84" y2="1998.25" style="stroke:#A0A0A0;stroke-width:7.34"/>
	<line x1="733.84" y1="1998.25" x2="734.70" y2="1998.25" style="stroke:#A0A0A0;stroke-width:7.34"/>
	<line x1="754.88" y1="1998.25" x2="757.72" y2="1998.25" style="stroke:#A0A0A0;stroke-width:7.34"/>
	<line x1="777.89" y1="1998.25" x2="780.74" y2="1998.25" style="stroke:#A0A0A0;stroke-width:7.34"/>
	<line x1="800.91" y1="1998.25" x2="803.88" y2="1998.25" style="stroke:#A0A0A0;stroke-width:7.34"/>
	<line x1="823.93" y1="1998.25" x2="826.90" y2="1998.25" style="stroke:#A0A0A0;stroke-width:7.34"/>
	<line x1="847.07" y1="1998.25" x2="849.91" y2="1998.25" style="stroke:#A0A0A0;stroke-width:7.34"/>
	<line x1="870.09" y1="1998.25" x2="872.93" y2="1998.25" style="stroke:#A0A0A0;stroke-width:7.34"/>
	<line x1="893.10" y1="1998.25" x2="895.95" y2="1998.25" style="stroke:#A0A0A0;stroke-width:7.34"/>
	<line x1="916.12" y1="1998.25" x2="918.97" y2="1998.25" style="stroke:#A0A0A0;stroke-width:7.34"/>
	<line x1="939.14" y1="1998.25" x2="941.99" y2="1998.25" style="stroke:#A0A0A0;stroke-width:7.34"/>
	<line x1="962.16" y1="1998.25" x2="965.00" y2="1998.25" style="stroke:#A0A0A0;stroke-width:7.34"/>
	<line x1="985.17" y1="1998.25" x2="986.91" y2="1998.25" style="stroke:#A0A0A0;stroke-width:7.34"/>
	<line x1="986.91" y1="1998.25" x2="988.02" y2="1998.25" style="stroke:#A0A0A0;stroke-width:7.34"/>
	<line x1="1008.19" y1="1998.25" x2="1011.04" y2="1998.25" style="stroke:#A0A0A0;stroke-width:7.34"/>
	<line x1="1031.21" y1="1998.25" x2="1034.06" y2="1998.25" style="stroke:#A0A0A0;stroke-width:7.34"/>
	<line x1="1054.23" y1="1998.25" x2="1057.20" y2="1998.25" style="stroke:#A0A0A0;stroke-width:7.34"/>
	<line x1="1077.24" y1="1998.25" x2="1080.21" y2="1998.25" style="stroke:#A0A0A0;stroke-width:7.34"/>
	<line x1="1100.38" y1="1998.25" x2="1103.23" y2="1998.25" style="stroke:#A0A0A0;stroke-width:7.34"/>
	<line x1="1123.40" y1="1998.25" x2="1126.25" y2="1998.25" style="stroke:#A0A0A0;stroke-width:7.34"/>
	<line x1="1146.42" y1="1998.25" x2="1149.27" y2="1998.25" style="stroke:#A0A0A0;stroke-width:7.34"/>
	<line x1="1169.44" y1="1998.25" x2="1172.28" y2="1998.25" style="stroke:#A0A0A0;stroke-width:7.34"/>
	<line x1="1192.45" y1="1998.25" x2="1195.30" y2="1998.25" style="stroke:#A0A0A0;stroke-width:7.34"/>
	<line x1="1215.47" y1="1998.25" x2="1218.32" y2="1998.25" style="stroke:#A0A0A0;stroke-width:7.34"/>
	<line x1="1238.49" y1="1998.25" x2="1240.10" y2="1998.25" style="stroke:#A0A0A0;stroke-width:7.34"/>
	<line x1="1240.10" y1="1998.25" x2="1241.34" y2="1998.25" style="stroke:#A0A0A0;stroke-width:7.34"/>
	<line x1="1261.51" y1="1998.25" x2="1264.35" y2="1998.25" style="stroke:#A0A0A0;stroke-width:7.34"/>
	<line x1="1284.53" y1="1998.25" x2="1287.37" y2="1998.25" style="stroke:#A0A0A0;stroke-width:7.34"/>
	<line x1="1307.54" y1="1998.25" x2="1310.51" y2="1998.25" style="stroke:#A0A0A0;stroke-width:7.34"/>
	<line x1="1330.56" y1="1998.25" x2="1333.53" y2="1998.25" style="stroke:#A0A0A0;stroke-width:7.34"/>
	<line x1="1353.70" y1="1998.25" x2="1356.55" y2="1998.25" style="stroke:#A0A0A0;stroke-width:7.34"/>
	<line x1="1376.72" y1="1998.25" x2="1379.57" y2="1998.25" style="stroke:#A0A0A0;stroke-width:7.34"/>
	<line x1="1399.74" y1="1998.25" x2="1402.58" y2="1998.25" style="stroke:#A0A0A0;stroke-width:7.34"/>
	<line x1="1422.75" y1="1998.25" x2="1425.60" y2="1998.25" style="stroke:#A0A0A0;stroke-width:7.34"/>
	<line x1="1445.77" y1="1998.25" x2="1448.62" y2="1998.25" style="stroke:#A0A0A0;stroke-width:7.34"/>
	<line x1="1468.79" y1="1998.25" x2="1471.63" y2="1998.25" style="stroke:#A0A0A0;stroke-width:7.34"/>
	<line x1="1491.81" y1="1998.25" x2="1493.17" y2="1998.25" style="stroke:#A0A0A0;stroke-width:7.34"/>
	<line x1="1493.17" y1="1998.25" x2="1494.65" y2="1998.25" style="stroke:#A0A0A0;stroke-width:7.34"/>
	<line x1="1514.82" y1="1998.25" x2="1517.67" y2="1998.25" style="stroke:#A0A0A0;stroke-width:7.34"/>
	<line x1="1537.84" y1="1998.25" x2="1540.69" y2="1998.25" style="stroke:#A0A0A0;stroke-width:7.34"/>
	<line x1="1560.86" y1="1998.25" x2="1563.83" y2="1998.25" style="stroke:#A0A0A0;stroke-width:7.34"/>
	<line x1="1584.00" y1="1998.25" x2="1586.85" y2="1998.25" style="stroke:#A0A0A0;stroke-width:7.34"/>
	<line x1="1607.02" y1="1998.25" x2="1609.86" y2="1998.25" style="stroke:#A0A0A0;stroke-width:7.34"/>
	<line x1="1630.04" y1="1998.25" x2="1632.88" y2="1998.25" style="stroke:#A0A0A0;stroke-width:7.34"/>
	<line x1="1653.05" y1="1998.25" x2="1655.90" y2="1998.25" style="stroke:#A0A0A0;stroke-width:7.34"/>
	<line x1="1676.07" y1="1998.25" x2="1678.92" y2="1998.25" style="stroke:#A0A0A0;stroke-width:7.34"/>
	<line x1="1699.09" y1="1998.25" x2="1701.93" y2="1998.25" style="stroke:#A0A0A0;stroke-width:7.34"/>
	<line x1="1722.11" y1="1998.25" x2="1724.95" y2="1998.25" style="stroke:#A0A0A0;stroke-width:7.34"/>
	<line x1="1745.12" y1="1998.25" x2="1746.24" y2="1998.25" style="stroke:#A0A0A0;stroke-width:7.34"/>
	<line x1="1746.24" y1="1998.25" x2="1747.97" y2="1998.25" style="stroke:#A0A0A0;stroke-width:7.34"/>
	<line x1="1768.14" y1="1998.25" x2="1770.99" y2="1998.25" style="stroke:#A0A0A0;stroke-width:7.34"/>
	<line x1="1791.16" y1="1998.25" x2="1794.00" y2="1998.25" style="stroke:#A0A0A0;stroke-width:7.34"/>
	<line x1="1814.17" y1="1998.25" x2="1817.14" y2="1998.25" style="stroke:#A0A0A0;stroke-width:7.34"/>
	<line x1="1837.32" y1="1998.25" x2="1840.16" y2="1998.25" style="stroke:#A0A0A0;stroke-width:7.34"/>
	<line x1="1860.33" y1="1998.25" x2="1863.18" y2="1998.25" style="stroke:#A0A0A0;stroke-width:7.34"/>
	<line x1="1883.35" y1="1998.25" x2="1886.20" y2="1998.25" style="stroke:#A0A0A0;stroke-width:7.34"/>
	<line x1="1906.37" y1="1998.25" x2="1909.21" y2="1998.25" style="stroke:#A0A0A0;stroke-width:7.34"/>
	<line x1="1929.39" y1="1998.25" x2="1932.23" y2="1998.25" style="stroke:#A0A0A0;stroke-width:7.34"/>
	<line x1="1952.40" y1="1998.25" x2="1955.25" y2="1998.25" style="stroke:#A0A0A0;stroke-width:7.34"/>
	<line x1="1975.42" y1="1998.25" x2="1978.27" y2="1998.25" style="stroke:#A0A0A0;stroke-width:7.34"/>
	<line x1="1998.44" y1="1998.25" x2="1999.31" y2="1998.25" style="stroke:#A0A0A0;stroke-width:7.34"/>
	<line x1="1999.31" y1="1998.25" x2="2001.29" y2="1998.25" style="stroke:#A0A0A0;stroke-width:7.34"/>
	<line x1="2021.46" y1="1998.25" x2="2024.30" y2="1998.25" style="stroke:#A0A0A0;stroke-width:7.34"/>
	<path d="" stroke-linejoin="round" style="fill:none;stroke:#A0A0A0;stroke-width:7.34"/>
	<path d=" M455.52 2042.06 L480.77 2041.94 L506.14 2041.94 L531.38 2041.82 L556.75 2041.69 L582.00 2041.69 L607.37 2041.44 L632.61 2041.32 L657.98 2041.20 L683.22 2040.95 L708.59 2040.70 L733.84 2040.45 L759.21 2040.08 L784.45 2039.71 L809.82 2039.34 L835.07 2038.84 L860.43 2038.23 L885.68 2037.61 L911.05 2036.99 L936.29 2036.12 L961.66 2035.26 L986.91 2034.39 L1012.27 2033.28 L1037.52 2032.16 L1062.89 2031.05 L1088.13 2029.69 L1113.50 2028.33 L1138.87 2026.84 L1164.12 2025.36 L1189.48 2023.62 L1214.73 2021.89 L1240.10 2019.91 L1265.34 2017.93 L1290.71 2015.70 L1315.96 2013.35 L1341.33 2010.75 L1366.57 2007.91 L1391.94 2004.94 L1417.18 2001.47 L1442.55 1997.88 L1467.80 1993.80 L1493.17 1989.22 L1518.41 1984.15 L1543.78 1978.58 L1569.03 1972.27 L1594.39 1965.34 L1619.64 1957.66 L1645.01 1949.12 L1670.25 1939.59 L1695.62 1928.95 L1720.87 1917.07 L1746.24 1903.95 L1771.48 1889.23 L1796.85 1872.89 L1822.10 1854.70 L1847.46 1834.40 L1872.71 1811.88 L1898.08 1786.76 L1923.45 1758.67 L1948.69 1727.48 L1974.06 1692.83 L1999.31 1654.09 L2024.67 1611.15" stroke-linejoin="round" style="fill:none;stroke:#008000;stroke-width:7.34"/>
	<path d=" M455.52 2041.82 L480.77 2041.69 L506.14 2041.57 L531.38 2041.44 L556.75 2041.32 L582.00 2041.07 L607.37 2040.83 L632.61 2040.58 L657.98 2040.33 L683.22 2039.96 L708.59 2039.46 L733.84 2038.97 L759.21 2038.35 L784.45 2037.73 L809.82 2036.99 L835.07 2036.12 L860.43 2035.13 L885.68 2034.02 L911.05 2032.78 L936.29 2031.42 L961.66 2029.81 L986.91 2028.08 L1012.27 2026.35 L1037.52 2024.24 L1062.89 2022.14 L1088.13 2019.91 L1113.50 2017.44 L1138.87 2014.84 L1164.12 2011.99 L1189.48 2009.02 L1214.73 2005.80 L1240.10 2002.46 L1265.34 1998.75 L1290.71 1994.91 L1315.96 1990.70 L1341.33 1986.13 L1366.57 1981.05 L1391.94 1975.61 L1417.18 1969.67 L1442.55 1963.11 L1467.80 1955.81 L1493.17 1947.76 L1518.41 1938.73 L1543.78 1928.83 L1569.03 1917.69 L1594.39 1905.31 L1619.64 1891.70 L1645.01 1876.36 L1670.25 1859.40 L1695.62 1840.47 L1720.87 1819.43 L1746.24 1796.04 L1771.48 1769.93 L1796.85 1740.85 L1822.10 1708.42 L1847.46 1672.41 L1872.71 1632.19 L1898.08 1587.39 L1923.45 1537.64 L1948.69 1482.08 L1974.06 1420.32 L1999.31 1351.64 L2024.67 1275.16" stroke-linejoin="round" style="fill:none;stroke:#FF7F00;stroke-width:7.34"/>
	<path d=" M455.52 2042.19 L480.77 2042.19 L506.14 2042.19 L531.38 2042.06 L556.75 2042.06 L582.00 2042.06 L607.37 2041.94 L632.61 2041.82 L657.98 2041.82 L683.22 2041.69 L708.59 2041.57 L733.84 2041.44 L759.21 2041.32 L784.45 2041.07 L809.82 2040.95 L835.07 2040.70 L860.43 2040.45 L885.68 2040.08 L911.05 2039.83 L936.29 2039.46 L961.66 2038.97 L986.91 2038.60 L1012.27 2038.10 L1037.52 2037.61 L1062.89 2036.99 L1088.13 2036.37 L1113.50 2035.75 L1138.87 2035.01 L1164.12 2034.27 L1189.48 2033.52 L1214.73 2032.66 L1240.10 2031.79 L1265.34 2030.80 L1290.71 2029.69 L1315.96 2028.57 L1341.33 2027.46 L1366.57 2026.10 L1391.94 2024.61 L1417.18 2023.13 L1442.55 2021.27 L1467.80 2019.42 L1493.17 2017.19 L1518.41 2014.84 L1543.78 2012.24 L1569.03 2009.27 L1594.39 2006.05 L1619.64 2002.34 L1645.01 1998.25 L1670.25 1993.80 L1695.62 1988.72 L1720.87 1983.16 L1746.24 1976.97 L1771.48 1970.04 L1796.85 1962.37 L1822.10 1953.70 L1847.46 1944.17 L1872.71 1933.53 L1898.08 1921.65 L1923.45 1908.41 L1948.69 1893.68 L1974.06 1877.22 L1999.31 1859.03 L2024.67 1838.61" stroke-linejoin="round" style="fill:none;stroke:#1A476F;stroke-width:7.34"/>
	<defs>
		<path id="path_QeYGpQhD" d="M2201.51 2042.19 L2201.51 2042.19 L2226.88 2042.19 L2252.13 2042.19 L2277.49 2042.06 L2302.74 2042.06 L2328.11 2042.06 L2353.35 2041.94 L2378.72 2041.82 L2403.97 2041.82 L2429.34 2041.69 L2454.58 2041.57 L2479.95 2041.44 L2505.20 2041.20 L2530.56 2040.95 L2555.81 2040.70 L2581.18 2040.33 L2606.42 2039.96 L2631.79 2039.59 L2657.04 2039.09 L2682.41 2038.60 L2707.65 2037.98 L2733.02 2037.36 L2758.26 2036.74 L2783.63 2036.00 L2808.88 2035.26 L2834.25 2034.39 L2859.49 2033.52 L2884.86 2032.66 L2910.11 2031.67 L2935.47 2030.55 L2960.72 2029.32 L2986.09 2028.08 L3011.46 2026.72 L3036.70 2025.23 L3062.07 2023.62 L3087.32 2021.89 L3112.68 2020.03 L3137.93 2017.93 L3163.30 2015.70 L3188.54 2013.23 L3213.91 2010.51 L3239.16 2007.41 L3264.53 2004.07 L3289.77 2000.48 L3315.14 1996.40 L3340.38 1991.82 L3365.75 1986.74 L3391.00 1981.18 L3416.37 1974.86 L3441.61 1967.93 L3466.98 1960.14 L3492.22 1951.60 L3517.59 1941.95 L3542.84 1931.18 L3568.21 1919.30 L3593.45 1905.93 L3618.82 1891.08 L3644.07 1874.62 L3669.43 1856.18 L3694.68 1835.76 L3720.05 1812.99 L3745.42 1787.62 L3770.66 1759.41 L3770.66 1693.32 L3745.42 1728.10 L3720.05 1759.41 L3694.68 1787.50 L3669.43 1812.75 L3644.07 1835.39 L3618.82 1855.69 L3593.45 1874.00 L3568.21 1890.34 L3542.84 1905.07 L3517.59 1918.31 L3492.22 1930.19 L3466.98 1940.83 L3441.61 1950.48 L3416.37 1959.02 L3391.00 1966.82 L3365.75 1973.75 L3340.38 1979.94 L3315.14 1985.63 L3289.77 1990.58 L3264.53 1995.16 L3239.16 1999.24 L3213.91 2002.83 L3188.54 2006.17 L3163.30 2009.02 L3137.93 2011.74 L3112.68 2014.09 L3087.32 2016.32 L3062.07 2018.30 L3036.70 2020.16 L3011.46 2021.89 L2986.09 2023.50 L2960.72 2024.98 L2935.47 2026.47 L2910.11 2027.83 L2884.86 2029.07 L2859.49 2030.31 L2834.25 2031.42 L2808.88 2032.53 L2783.63 2033.52 L2758.26 2034.51 L2733.02 2035.26 L2707.65 2036.12 L2682.41 2036.74 L2657.04 2037.36 L2631.79 2037.98 L2606.42 2038.47 L2581.18 2038.84 L2555.81 2039.22 L2530.56 2039.59 L2505.20 2039.83 L2479.95 2040.21 L2454.58 2040.45 L2429.34 2040.58 L2403.97 2040.83 L2378.72 2040.95 L2353.35 2041.07 L2328.11 2041.20 L2302.74 2041.32 L2277.49 2041.44 L2252.13 2041.57 L2226.88 2041.69 L2201.51 2041.69 L2201.51 2042.19 Z" stroke-linejoin="round"/>
	</defs>
	<defs>
		<clipPath id="clipPath_eVGLchyy">
			<use xlink:href="#path_QeYGpQhD"/>
		</clipPath>
	</defs>
	<use xlink:href="#path_QeYGpQhD" style="stroke:none;fill:#E6E6E6"/>
	<use xlink:href="#path_QeYGpQhD" style="fill:none;stroke:#E0E0E0;stroke-width:14.69" clip-path="url(#clipPath_eVGLchyy)"/>
	<defs>
		<path id="path_xuCrJOlx" d="M2201.51 2042.06 L2201.51 2042.06 L2226.88 2042.06 L2252.13 2041.94 L2277.49 2041.94 L2302.74 2041.82 L2328.11 2041.69 L2353.35 2041.57 L2378.72 2041.44 L2403.97 2041.20 L2429.34 2041.07 L2454.58 2040.70 L2479.95 2040.33 L2505.20 2039.96 L2530.56 2039.46 L2555.81 2038.97 L2581.18 2038.23 L2606.42 2037.48 L2631.79 2036.62 L2657.04 2035.63 L2682.41 2034.51 L2707.65 2033.40 L2733.02 2032.04 L2758.26 2030.68 L2783.63 2029.19 L2808.88 2027.58 L2834.25 2025.85 L2859.49 2023.99 L2884.86 2022.01 L2910.11 2019.91 L2935.47 2017.68 L2960.72 2015.21 L2986.09 2012.49 L3011.46 2009.64 L3036.70 2006.42 L3062.07 2003.08 L3087.32 1999.37 L3112.68 1995.41 L3137.93 1990.95 L3163.30 1986.25 L3188.54 1980.93 L3213.91 1975.11 L3239.16 1968.80 L3264.53 1961.62 L3289.77 1953.83 L3315.14 1945.04 L3340.38 1935.39 L3365.75 1924.62 L3391.00 1912.62 L3416.37 1899.25 L3441.61 1884.40 L3466.98 1867.94 L3492.22 1849.50 L3517.59 1828.96 L3542.84 1806.06 L3568.21 1780.57 L3593.45 1752.11 L3618.82 1720.43 L3644.07 1685.16 L3669.43 1645.93 L3694.68 1602.12 L3720.05 1553.48 L3745.42 1499.28 L3770.66 1439.13 L3770.66 1309.19 L3745.42 1382.08 L3720.05 1447.67 L3694.68 1506.46 L3669.43 1559.42 L3644.07 1606.82 L3618.82 1649.52 L3593.45 1687.88 L3568.21 1722.28 L3542.84 1753.10 L3517.59 1780.94 L3492.22 1805.82 L3466.98 1828.22 L3441.61 1848.39 L3416.37 1866.46 L3391.00 1882.67 L3365.75 1897.27 L3340.38 1910.39 L3315.14 1922.27 L3289.77 1932.79 L3264.53 1942.32 L3239.16 1950.86 L3213.91 1958.53 L3188.54 1965.46 L3163.30 1971.65 L3137.93 1977.22 L3112.68 1982.29 L3087.32 1986.87 L3062.07 1991.08 L3036.70 1995.04 L3011.46 1998.75 L2986.09 2002.21 L2960.72 2005.43 L2935.47 2008.53 L2910.11 2011.37 L2884.86 2014.09 L2859.49 2016.69 L2834.25 2019.17 L2808.88 2021.40 L2783.63 2023.62 L2758.26 2025.60 L2733.02 2027.34 L2707.65 2029.07 L2682.41 2030.55 L2657.04 2031.91 L2631.79 2033.03 L2606.42 2034.14 L2581.18 2035.01 L2555.81 2035.87 L2530.56 2036.62 L2505.20 2037.24 L2479.95 2037.85 L2454.58 2038.35 L2429.34 2038.72 L2403.97 2039.22 L2378.72 2039.46 L2353.35 2039.83 L2328.11 2040.08 L2302.74 2040.33 L2277.49 2040.58 L2252.13 2040.70 L2226.88 2040.95 L2201.51 2041.07 L2201.51 2042.06 Z" stroke-linejoin="round"/>
	</defs>
	<defs>
		<clipPath id="clipPath_rhWGZYEP">
			<use xlink:href="#path_xuCrJOlx"/>
		</clipPath>
	</defs>
	<use xlink:href="#path_xuCrJOlx" style="stroke:none;fill:#E6E6E6"/>
	<use xlink:href="#path_xuCrJOlx" style="fill:none;stroke:#E0E0E0;stroke-width:14.69" clip-path="url(#clipPath_rhWGZYEP)"/>
	<defs>
		<path id="path_cYNlfGau" d="M2201.51 2041.94 L2201.51 2041.94 L2226.88 2041.82 L2252.13 2041.82 L2277.49 2041.69 L2302.74 2041.44 L2328.11 2041.32 L2353.35 2041.07 L2378.72 2040.83 L2403.97 2040.45 L2429.34 2040.08 L2454.58 2039.59 L2479.95 2038.97 L2505.20 2038.23 L2530.56 2037.36 L2555.81 2036.25 L2581.18 2035.13 L2606.42 2033.77 L2631.79 2032.16 L2657.04 2030.43 L2682.41 2028.57 L2707.65 2026.47 L2733.02 2024.12 L2758.26 2021.64 L2783.63 2019.04 L2808.88 2016.20 L2834.25 2013.10 L2859.49 2009.89 L2884.86 2006.42 L2910.11 2002.59 L2935.47 1998.50 L2960.72 1994.17 L2986.09 1989.34 L3011.46 1984.27 L3036.70 1978.70 L3062.07 1972.64 L3087.32 1966.08 L3112.68 1959.02 L3137.93 1951.23 L3163.30 1942.69 L3188.54 1933.41 L3213.91 1923.14 L3239.16 1911.75 L3264.53 1899.13 L3289.77 1885.14 L3315.14 1869.55 L3340.38 1852.35 L3365.75 1833.17 L3391.00 1811.88 L3416.37 1788.12 L3441.61 1761.64 L3466.98 1732.18 L3492.22 1699.39 L3517.59 1662.76 L3542.84 1622.04 L3568.21 1576.50 L3593.45 1525.89 L3618.82 1469.33 L3644.07 1406.34 L3669.43 1336.17 L3694.68 1258.08 L3720.05 1171.21 L3745.42 1074.43 L3770.66 966.89 L3770.66 741.53 L3745.42 870.48 L3720.05 986.44 L3694.68 1090.64 L3669.43 1184.20 L3644.07 1268.35 L3618.82 1343.97 L3593.45 1411.91 L3568.21 1472.92 L3542.84 1527.74 L3517.59 1577.00 L3492.22 1621.30 L3466.98 1661.02 L3441.61 1696.79 L3416.37 1728.97 L3391.00 1757.92 L3365.75 1783.79 L3340.38 1807.18 L3315.14 1828.22 L3289.77 1847.03 L3264.53 1863.98 L3239.16 1879.20 L3213.91 1892.82 L3188.54 1905.19 L3163.30 1916.20 L3137.93 1926.11 L3112.68 1935.14 L3087.32 1943.43 L3062.07 1950.98 L3036.70 1958.03 L3011.46 1964.59 L2986.09 1970.66 L2960.72 1976.47 L2935.47 1981.92 L2910.11 1987.12 L2884.86 1992.07 L2859.49 1996.64 L2834.25 2000.98 L2808.88 2005.18 L2783.63 2008.90 L2758.26 2012.49 L2733.02 2015.70 L2707.65 2018.67 L2682.41 2021.40 L2657.04 2023.75 L2631.79 2025.85 L2606.42 2027.71 L2581.18 2029.32 L2555.81 2030.80 L2530.56 2032.16 L2505.20 2033.28 L2479.95 2034.27 L2454.58 2035.26 L2429.34 2036.00 L2403.97 2036.74 L2378.72 2037.36 L2353.35 2037.85 L2328.11 2038.35 L2302.74 2038.84 L2277.49 2039.22 L2252.13 2039.59 L2226.88 2039.83 L2201.51 2040.08 L2201.51 2041.94 Z" stroke-linejoin="round"/>
	</defs>
	<defs>
		<clipPath id="clipPath_mXOuejRg">
			<use xlink:href="#path_cYNlfGau"/>
		</clipPath>
	</defs>
	<use xlink:href="#path_cYNlfGau" style="stroke:none;fill:#E6E6E6"/>
	<use xlink:href="#path_cYNlfGau" style="fill:none;stroke:#E0E0E0;stroke-width:14.69" clip-path="url(#clipPath_mXOuejRg)"/>
	<line x1="2201.39" y1="1974.37" x2="2204.24" y2="1974.37" style="stroke:#A0A0A0;stroke-width:7.34"/>
	<line x1="2224.41" y1="1974.37" x2="2226.76" y2="1974.37" style="stroke:#A0A0A0;stroke-width:7.34"/>
	<line x1="2226.76" y1="1974.37" x2="2227.25" y2="1974.37" style="stroke:#A0A0A0;stroke-width:7.34"/>
	<line x1="2247.42" y1="1974.37" x2="2250.27" y2="1974.37" style="stroke:#A0A0A0;stroke-width:7.34"/>
	<line x1="2270.44" y1="1974.37" x2="2273.29" y2="1974.37" style="stroke:#A0A0A0;stroke-width:7.34"/>
	<line x1="2293.46" y1="1974.37" x2="2296.43" y2="1974.37" style="stroke:#A0A0A0;stroke-width:7.34"/>
	<line x1="2316.60" y1="1974.37" x2="2319.45" y2="1974.37" style="stroke:#A0A0A0;stroke-width:7.34"/>
	<line x1="2339.62" y1="1974.37" x2="2342.46" y2="1974.37" style="stroke:#A0A0A0;stroke-width:7.34"/>
	<line x1="2362.64" y1="1974.37" x2="2365.48" y2="1974.37" style="stroke:#A0A0A0;stroke-width:7.34"/>
	<line x1="2385.65" y1="1974.37" x2="2388.50" y2="1974.37" style="stroke:#A0A0A0;stroke-width:7.34"/>
	<line x1="2408.67" y1="1974.37" x2="2411.52" y2="1974.37" style="stroke:#A0A0A0;stroke-width:7.34"/>
	<line x1="2431.69" y1="1974.37" x2="2434.53" y2="1974.37" style="stroke:#A0A0A0;stroke-width:7.34"/>
	<line x1="2454.70" y1="1974.37" x2="2457.55" y2="1974.37" style="stroke:#A0A0A0;stroke-width:7.34"/>
	<line x1="2477.72" y1="1974.37" x2="2479.83" y2="1974.37" style="stroke:#A0A0A0;stroke-width:7.34"/>
	<line x1="2479.83" y1="1974.37" x2="2480.57" y2="1974.37" style="stroke:#A0A0A0;stroke-width:7.34"/>
	<line x1="2500.74" y1="1974.37" x2="2503.59" y2="1974.37" style="stroke:#A0A0A0;stroke-width:7.34"/>
	<line x1="2523.76" y1="1974.37" x2="2526.60" y2="1974.37" style="stroke:#A0A0A0;stroke-width:7.34"/>
	<line x1="2546.78" y1="1974.37" x2="2549.74" y2="1974.37" style="stroke:#A0A0A0;stroke-width:7.34"/>
	<line x1="2569.92" y1="1974.37" x2="2572.76" y2="1974.37" style="stroke:#A0A0A0;stroke-width:7.34"/>
	<line x1="2592.93" y1="1974.37" x2="2595.78" y2="1974.37" style="stroke:#A0A0A0;stroke-width:7.34"/>
	<line x1="2615.95" y1="1974.37" x2="2618.80" y2="1974.37" style="stroke:#A0A0A0;stroke-width:7.34"/>
	<line x1="2638.97" y1="1974.37" x2="2641.82" y2="1974.37" style="stroke:#A0A0A0;stroke-width:7.34"/>
	<line x1="2661.99" y1="1974.37" x2="2664.83" y2="1974.37" style="stroke:#A0A0A0;stroke-width:7.34"/>
	<line x1="2685.00" y1="1974.37" x2="2687.85" y2="1974.37" style="stroke:#A0A0A0;stroke-width:7.34"/>
	<line x1="2708.02" y1="1974.37" x2="2710.87" y2="1974.37" style="stroke:#A0A0A0;stroke-width:7.34"/>
	<line x1="2731.04" y1="1974.37" x2="2732.89" y2="1974.37" style="stroke:#A0A0A0;stroke-width:7.34"/>
	<line x1="2732.89" y1="1974.37" x2="2733.89" y2="1974.37" style="stroke:#A0A0A0;stroke-width:7.34"/>
	<line x1="2754.06" y1="1974.37" x2="2756.90" y2="1974.37" style="stroke:#A0A0A0;stroke-width:7.34"/>
	<line x1="2777.07" y1="1974.37" x2="2779.92" y2="1974.37" style="stroke:#A0A0A0;stroke-width:7.34"/>
	<line x1="2800.09" y1="1974.37" x2="2803.06" y2="1974.37" style="stroke:#A0A0A0;stroke-width:7.34"/>
	<line x1="2823.23" y1="1974.37" x2="2826.08" y2="1974.37" style="stroke:#A0A0A0;stroke-width:7.34"/>
	<line x1="2846.25" y1="1974.37" x2="2849.10" y2="1974.37" style="stroke:#A0A0A0;stroke-width:7.34"/>
	<line x1="2869.27" y1="1974.37" x2="2872.11" y2="1974.37" style="stroke:#A0A0A0;stroke-width:7.34"/>
	<line x1="2892.28" y1="1974.37" x2="2895.13" y2="1974.37" style="stroke:#A0A0A0;stroke-width:7.34"/>
	<line x1="2915.30" y1="1974.37" x2="2918.15" y2="1974.37" style="stroke:#A0A0A0;stroke-width:7.34"/>
	<line x1="2938.32" y1="1974.37" x2="2941.17" y2="1974.37" style="stroke:#A0A0A0;stroke-width:7.34"/>
	<line x1="2961.34" y1="1974.37" x2="2964.18" y2="1974.37" style="stroke:#A0A0A0;stroke-width:7.34"/>
	<line x1="2984.36" y1="1974.37" x2="2986.09" y2="1974.37" style="stroke:#A0A0A0;stroke-width:7.34"/>
	<line x1="2986.09" y1="1974.37" x2="2987.20" y2="1974.37" style="stroke:#A0A0A0;stroke-width:7.34"/>
	<line x1="3007.37" y1="1974.37" x2="3010.22" y2="1974.37" style="stroke:#A0A0A0;stroke-width:7.34"/>
	<line x1="3030.39" y1="1974.37" x2="3033.36" y2="1974.37" style="stroke:#A0A0A0;stroke-width:7.34"/>
	<line x1="3053.41" y1="1974.37" x2="3056.38" y2="1974.37" style="stroke:#A0A0A0;stroke-width:7.34"/>
	<line x1="3076.55" y1="1974.37" x2="3079.39" y2="1974.37" style="stroke:#A0A0A0;stroke-width:7.34"/>
	<line x1="3099.57" y1="1974.37" x2="3102.41" y2="1974.37" style="stroke:#A0A0A0;stroke-width:7.34"/>
	<line x1="3122.58" y1="1974.37" x2="3125.43" y2="1974.37" style="stroke:#A0A0A0;stroke-width:7.34"/>
	<line x1="3145.60" y1="1974.37" x2="3148.45" y2="1974.37" style="stroke:#A0A0A0;stroke-width:7.34"/>
	<line x1="3168.62" y1="1974.37" x2="3171.47" y2="1974.37" style="stroke:#A0A0A0;stroke-width:7.34"/>
	<line x1="3191.64" y1="1974.37" x2="3194.48" y2="1974.37" style="stroke:#A0A0A0;stroke-width:7.34"/>
	<line x1="3214.65" y1="1974.37" x2="3217.50" y2="1974.37" style="stroke:#A0A0A0;stroke-width:7.34"/>
	<line x1="3237.67" y1="1974.37" x2="3239.16" y2="1974.37" style="stroke:#A0A0A0;stroke-width:7.34"/>
	<line x1="3239.16" y1="1974.37" x2="3240.52" y2="1974.37" style="stroke:#A0A0A0;stroke-width:7.34"/>
	<line x1="3260.69" y1="1974.37" x2="3263.53" y2="1974.37" style="stroke:#A0A0A0;stroke-width:7.34"/>
	<line x1="3283.71" y1="1974.37" x2="3286.68" y2="1974.37" style="stroke:#A0A0A0;stroke-width:7.34"/>
	<line x1="3306.72" y1="1974.37" x2="3309.69" y2="1974.37" style="stroke:#A0A0A0;stroke-width:7.34"/>
	<line x1="3329.86" y1="1974.37" x2="3332.71" y2="1974.37" style="stroke:#A0A0A0;stroke-width:7.34"/>
	<line x1="3352.88" y1="1974.37" x2="3355.73" y2="1974.37" style="stroke:#A0A0A0;stroke-width:7.34"/>
	<line x1="3375.90" y1="1974.37" x2="3378.75" y2="1974.37" style="stroke:#A0A0A0;stroke-width:7.34"/>
	<line x1="3398.92" y1="1974.37" x2="3401.76" y2="1974.37" style="stroke:#A0A0A0;stroke-width:7.34"/>
	<line x1="3421.93" y1="1974.37" x2="3424.78" y2="1974.37" style="stroke:#A0A0A0;stroke-width:7.34"/>
	<line x1="3444.95" y1="1974.37" x2="3447.80" y2="1974.37" style="stroke:#A0A0A0;stroke-width:7.34"/>
	<line x1="3467.97" y1="1974.37" x2="3470.82" y2="1974.37" style="stroke:#A0A0A0;stroke-width:7.34"/>
	<line x1="3490.99" y1="1974.37" x2="3492.22" y2="1974.37" style="stroke:#A0A0A0;stroke-width:7.34"/>
	<line x1="3492.22" y1="1974.37" x2="3493.83" y2="1974.37" style="stroke:#A0A0A0;stroke-width:7.34"/>
	<line x1="3514.01" y1="1974.37" x2="3516.85" y2="1974.37" style="stroke:#A0A0A0;stroke-width:7.34"/>
	<line x1="3537.02" y1="1974.37" x2="3539.99" y2="1974.37" style="stroke:#A0A0A0;stroke-width:7.34"/>
	<line x1="3560.04" y1="1974.37" x2="3563.01" y2="1974.37" style="stroke:#A0A0A0;stroke-width:7.34"/>
	<line x1="3583.18" y1="1974.37" x2="3586.03" y2="1974.37" style="stroke:#A0A0A0;stroke-width:7.34"/>
	<line x1="3606.20" y1="1974.37" x2="3609.05" y2="1974.37" style="stroke:#A0A0A0;stroke-width:7.34"/>
	<line x1="3629.22" y1="1974.37" x2="3632.06" y2="1974.37" style="stroke:#A0A0A0;stroke-width:7.34"/>
	<line x1="3652.23" y1="1974.37" x2="3655.08" y2="1974.37" style="stroke:#A0A0A0;stroke-width:7.34"/>
	<line x1="3675.25" y1="1974.37" x2="3678.10" y2="1974.37" style="stroke:#A0A0A0;stroke-width:7.34"/>
	<line x1="3698.27" y1="1974.37" x2="3701.11" y2="1974.37" style="stroke:#A0A0A0;stroke-width:7.34"/>
	<line x1="3721.29" y1="1974.37" x2="3724.13" y2="1974.37" style="stroke:#A0A0A0;stroke-width:7.34"/>
	<line x1="3744.30" y1="1974.37" x2="3745.29" y2="1974.37" style="stroke:#A0A0A0;stroke-width:7.34"/>
	<line x1="3745.29" y1="1974.37" x2="3747.15" y2="1974.37" style="stroke:#A0A0A0;stroke-width:7.34"/>
	<line x1="3767.32" y1="1974.37" x2="3770.17" y2="1974.37" style="stroke:#A0A0A0;stroke-width:7.34"/>
	<path d="" stroke-linejoin="round" style="fill:none;stroke:#A0A0A0;stroke-width:7.34"/>
	<path d=" M2201.39 2041.82 L2226.76 2041.82 L2252.13 2041.69 L2277.37 2041.57 L2302.74 2041.44 L2327.99 2041.20 L2353.35 2041.07 L2378.60 2040.83 L2403.97 2040.58 L2429.21 2040.21 L2454.58 2039.83 L2479.83 2039.46 L2505.20 2038.97 L2530.44 2038.35 L2555.81 2037.73 L2581.05 2036.99 L2606.42 2036.12 L2631.67 2035.13 L2657.04 2034.02 L2682.28 2032.78 L2707.65 2031.54 L2732.89 2030.06 L2758.26 2028.45 L2783.51 2026.72 L2808.88 2024.86 L2834.12 2022.88 L2859.49 2020.78 L2884.74 2018.43 L2910.11 2016.07 L2935.35 2013.48 L2960.72 2010.75 L2986.09 2007.78 L3011.33 2004.57 L3036.70 2001.22 L3061.95 1997.51 L3087.32 1993.55 L3112.56 1989.22 L3137.93 1984.52 L3163.17 1979.44 L3188.54 1973.63 L3213.79 1967.32 L3239.16 1960.39 L3264.40 1952.59 L3289.77 1943.93 L3315.01 1934.27 L3340.38 1923.63 L3365.63 1911.75 L3391.00 1898.51 L3416.24 1883.78 L3441.61 1867.45 L3466.86 1849.13 L3492.22 1828.83 L3517.47 1806.19 L3542.84 1781.07 L3568.08 1752.97 L3593.45 1721.66 L3618.70 1686.89 L3644.07 1648.03 L3669.31 1604.84 L3694.68 1556.70 L3719.93 1503.24 L3745.29 1443.59 L3770.66 1377.38" stroke-linejoin="round" style="fill:none;stroke:#008000;stroke-width:7.34"/>
	<path d=" M2201.39 2041.44 L2226.76 2041.32 L2252.13 2041.20 L2277.37 2040.95 L2302.74 2040.70 L2327.99 2040.45 L2353.35 2040.08 L2378.60 2039.59 L2403.97 2039.22 L2429.21 2038.60 L2454.58 2037.98 L2479.83 2037.11 L2505.20 2036.25 L2530.44 2035.26 L2555.81 2034.02 L2581.05 2032.78 L2606.42 2031.17 L2631.67 2029.44 L2657.04 2027.58 L2682.28 2025.36 L2707.65 2023.00 L2732.89 2020.41 L2758.26 2017.56 L2783.51 2014.47 L2808.88 2011.25 L2834.12 2007.66 L2859.49 2003.95 L2884.74 1999.86 L2910.11 1995.53 L2935.35 1990.95 L2960.72 1986.00 L2986.09 1980.80 L3011.33 1975.24 L3036.70 1969.17 L3061.95 1962.61 L3087.32 1955.56 L3112.56 1947.89 L3137.93 1939.47 L3163.17 1930.31 L3188.54 1920.17 L3213.79 1908.90 L3239.16 1896.40 L3264.40 1882.54 L3289.77 1867.20 L3315.01 1850.00 L3340.38 1831.06 L3365.63 1809.90 L3391.00 1786.39 L3416.24 1760.15 L3441.61 1730.95 L3466.86 1698.52 L3492.22 1662.39 L3517.47 1622.17 L3542.84 1577.24 L3568.08 1527.37 L3593.45 1471.68 L3618.70 1409.80 L3644.07 1340.75 L3669.31 1264.02 L3694.68 1178.51 L3719.93 1083.22 L3745.29 977.41 L3770.66 859.59" stroke-linejoin="round" style="fill:none;stroke:#FF7F00;stroke-width:7.34"/>
	<path d=" M2201.39 2042.06 L2226.76 2042.06 L2252.13 2042.06 L2277.37 2041.94 L2302.74 2041.94 L2327.99 2041.82 L2353.35 2041.69 L2378.60 2041.57 L2403.97 2041.44 L2429.21 2041.32 L2454.58 2041.20 L2479.83 2040.95 L2505.20 2040.70 L2530.44 2040.45 L2555.81 2040.08 L2581.05 2039.83 L2606.42 2039.34 L2631.67 2038.97 L2657.04 2038.47 L2682.28 2037.85 L2707.65 2037.24 L2732.89 2036.49 L2758.26 2035.75 L2783.51 2035.01 L2808.88 2034.14 L2834.12 2033.15 L2859.49 2032.16 L2884.74 2031.05 L2910.11 2029.93 L2935.35 2028.70 L2960.72 2027.46 L2986.09 2025.97 L3011.33 2024.49 L3036.70 2022.88 L3061.95 2021.15 L3087.32 2019.29 L3112.56 2017.31 L3137.93 2015.08 L3163.17 2012.61 L3188.54 2009.89 L3213.79 2006.92 L3239.16 2003.58 L3264.40 1999.99 L3289.77 1995.90 L3315.01 1991.32 L3340.38 1986.25 L3365.63 1980.68 L3391.00 1974.37 L3416.24 1967.44 L3441.61 1959.77 L3466.86 1951.10 L3492.22 1941.45 L3517.47 1930.81 L3542.84 1918.93 L3568.08 1905.69 L3593.45 1890.84 L3618.70 1874.38 L3644.07 1856.06 L3669.31 1835.64 L3694.68 1812.99 L3719.93 1787.62 L3745.29 1759.53 L3770.66 1728.22" stroke-linejoin="round" style="fill:none;stroke:#1A476F;stroke-width:7.34"/>
	<line x1="401.69" y1="2096.14" x2="401.69" y2="402.82" style="stroke:#000000;stroke-width:4.90"/>
	<line x1="401.69" y1="2042.31" x2="367.66" y2="2042.31" style="stroke:#000000;stroke-width:4.90"/>
	<text x="350.71" y="2072.10" style="font-family:'Helvetica';font-size:85.02px;fill:#000000" text-anchor="end">0</text>
	<line x1="401.69" y1="1725.13" x2="367.66" y2="1725.13" style="stroke:#000000;stroke-width:4.90"/>
	<text x="350.71" y="1754.92" style="font-family:'Helvetica';font-size:85.02px;fill:#000000" text-anchor="end">.001</text>
	<line x1="401.69" y1="1408.07" x2="367.66" y2="1408.07" style="stroke:#000000;stroke-width:4.90"/>
	<text x="350.71" y="1437.86" style="font-family:'Helvetica';font-size:85.02px;fill:#000000" text-anchor="end">.002</text>
	<line x1="401.69" y1="1090.89" x2="367.66" y2="1090.89" style="stroke:#000000;stroke-width:4.90"/>
	<text x="350.71" y="1120.68" style="font-family:'Helvetica';font-size:85.02px;fill:#000000" text-anchor="end">.003</text>
	<line x1="401.69" y1="773.83" x2="367.66" y2="773.83" style="stroke:#000000;stroke-width:4.90"/>
	<text x="350.71" y="803.62" style="font-family:'Helvetica';font-size:85.02px;fill:#000000" text-anchor="end">.004</text>
	<line x1="401.69" y1="456.65" x2="367.66" y2="456.65" style="stroke:#000000;stroke-width:4.90"/>
	<text x="350.71" y="486.44" style="font-family:'Helvetica';font-size:85.02px;fill:#000000" text-anchor="end">.005</text>
	<line x1="401.69" y1="2096.14" x2="2078.51" y2="2096.14" style="stroke:#000000;stroke-width:4.90"/>
	<line x1="506.14" y1="2096.14" x2="506.14" y2="2113.10" style="stroke:#000000;stroke-width:4.90"/>
	<line x1="632.73" y1="2096.14" x2="632.73" y2="2113.10" style="stroke:#000000;stroke-width:4.90"/>
	<line x1="759.21" y1="2096.14" x2="759.21" y2="2113.10" style="stroke:#000000;stroke-width:4.90"/>
	<line x1="885.80" y1="2096.14" x2="885.80" y2="2113.10" style="stroke:#000000;stroke-width:4.90"/>
	<line x1="1012.27" y1="2096.14" x2="1012.27" y2="2113.10" style="stroke:#000000;stroke-width:4.90"/>
	<line x1="1138.87" y1="2096.14" x2="1138.87" y2="2113.10" style="stroke:#000000;stroke-width:4.90"/>
	<line x1="1265.47" y1="2096.14" x2="1265.47" y2="2113.10" style="stroke:#000000;stroke-width:4.90"/>
	<line x1="1391.94" y1="2096.14" x2="1391.94" y2="2113.10" style="stroke:#000000;stroke-width:4.90"/>
	<line x1="1518.54" y1="2096.14" x2="1518.54" y2="2113.10" style="stroke:#000000;stroke-width:4.90"/>
	<line x1="1645.01" y1="2096.14" x2="1645.01" y2="2113.10" style="stroke:#000000;stroke-width:4.90"/>
	<line x1="1771.61" y1="2096.14" x2="1771.61" y2="2113.10" style="stroke:#000000;stroke-width:4.90"/>
	<line x1="1898.20" y1="2096.14" x2="1898.20" y2="2113.10" style="stroke:#000000;stroke-width:4.90"/>
	<line x1="2024.67" y1="2096.14" x2="2024.67" y2="2113.10" style="stroke:#000000;stroke-width:4.90"/>
	<line x1="506.14" y1="2096.14" x2="506.14" y2="2130.18" style="stroke:#000000;stroke-width:4.90"/>
	<text x="506.14" y="2206.58" style="font-family:'Helvetica';font-size:85.02px;fill:#000000" text-anchor="middle">20</text>
	<line x1="1012.27" y1="2096.14" x2="1012.27" y2="2130.18" style="stroke:#000000;stroke-width:4.90"/>
	<text x="1012.27" y="2206.58" style="font-family:'Helvetica';font-size:85.02px;fill:#000000" text-anchor="middle">40</text>
	<line x1="1518.54" y1="2096.14" x2="1518.54" y2="2130.18" style="stroke:#000000;stroke-width:4.90"/>
	<text x="1518.54" y="2206.58" style="font-family:'Helvetica';font-size:85.02px;fill:#000000" text-anchor="middle">60</text>
	<line x1="2024.67" y1="2096.14" x2="2024.67" y2="2130.18" style="stroke:#000000;stroke-width:4.90"/>
	<text x="2024.67" y="2206.58" style="font-family:'Helvetica';font-size:85.02px;fill:#000000" text-anchor="middle">80</text>
	<line x1="2147.68" y1="2096.14" x2="3824.49" y2="2096.14" style="stroke:#000000;stroke-width:4.90"/>
	<line x1="2252.13" y1="2096.14" x2="2252.13" y2="2113.10" style="stroke:#000000;stroke-width:4.90"/>
	<line x1="2378.72" y1="2096.14" x2="2378.72" y2="2113.10" style="stroke:#000000;stroke-width:4.90"/>
	<line x1="2505.20" y1="2096.14" x2="2505.20" y2="2113.10" style="stroke:#000000;stroke-width:4.90"/>
	<line x1="2631.79" y1="2096.14" x2="2631.79" y2="2113.10" style="stroke:#000000;stroke-width:4.90"/>
	<line x1="2758.26" y1="2096.14" x2="2758.26" y2="2113.10" style="stroke:#000000;stroke-width:4.90"/>
	<line x1="2884.86" y1="2096.14" x2="2884.86" y2="2113.10" style="stroke:#000000;stroke-width:4.90"/>
	<line x1="3011.46" y1="2096.14" x2="3011.46" y2="2113.10" style="stroke:#000000;stroke-width:4.90"/>
	<line x1="3137.93" y1="2096.14" x2="3137.93" y2="2113.10" style="stroke:#000000;stroke-width:4.90"/>
	<line x1="3264.53" y1="2096.14" x2="3264.53" y2="2113.10" style="stroke:#000000;stroke-width:4.90"/>
	<line x1="3391.00" y1="2096.14" x2="3391.00" y2="2113.10" style="stroke:#000000;stroke-width:4.90"/>
	<line x1="3517.59" y1="2096.14" x2="3517.59" y2="2113.10" style="stroke:#000000;stroke-width:4.90"/>
	<line x1="3644.07" y1="2096.14" x2="3644.07" y2="2113.10" style="stroke:#000000;stroke-width:4.90"/>
	<line x1="3770.66" y1="2096.14" x2="3770.66" y2="2113.10" style="stroke:#000000;stroke-width:4.90"/>
	<line x1="2252.13" y1="2096.14" x2="2252.13" y2="2130.18" style="stroke:#000000;stroke-width:4.90"/>
	<text x="2252.13" y="2206.58" style="font-family:'Helvetica';font-size:85.02px;fill:#000000" text-anchor="middle">20</text>
	<line x1="2758.26" y1="2096.14" x2="2758.26" y2="2130.18" style="stroke:#000000;stroke-width:4.90"/>
	<text x="2758.26" y="2206.58" style="font-family:'Helvetica';font-size:85.02px;fill:#000000" text-anchor="middle">40</text>
	<line x1="3264.53" y1="2096.14" x2="3264.53" y2="2130.18" style="stroke:#000000;stroke-width:4.90"/>
	<text x="3264.53" y="2206.58" style="font-family:'Helvetica';font-size:85.02px;fill:#000000" text-anchor="middle">60</text>
	<line x1="3770.66" y1="2096.14" x2="3770.66" y2="2130.18" style="stroke:#000000;stroke-width:4.90"/>
	<text x="3770.66" y="2206.58" style="font-family:'Helvetica';font-size:85.02px;fill:#000000" text-anchor="middle">80</text>
	<rect x="401.69" y="279.93" width="1676.81" height="122.89" style="fill:#D9E6EB"/>
	<rect x="404.14" y="282.38" width="1671.92" height="117.99" style="fill:none;stroke:#D9E6EB;stroke-width:4.90"/>
	<text x="1240.10" y="359.96" style="font-family:'Helvetica';font-size:93.56px;fill:#000000" text-anchor="middle">Female</text>
	<rect x="2147.68" y="279.93" width="1676.81" height="122.89" style="fill:#D9E6EB"/>
	<rect x="2150.13" y="282.38" width="1671.92" height="117.99" style="fill:none;stroke:#D9E6EB;stroke-width:4.90"/>
	<text x="2986.09" y="359.96" style="font-family:'Helvetica';font-size:93.56px;fill:#000000" text-anchor="middle">Male</text>
	<rect x="592.39" y="2418.27" width="2775.09" height="326.34" style="fill:#FFFFFF"/>
	<rect x="595.27" y="2421.15" width="2769.33" height="320.58" style="fill:none;stroke:#000000;stroke-width:5.76"/>
	<line x1="635.58" y1="2511.46" x2="1009.92" y2="2511.46" style="stroke:#008000;stroke-width:8.64"/>
	<line x1="635.58" y1="2651.43" x2="1009.92" y2="2651.43" style="stroke:#FF7F00;stroke-width:8.64"/>
	<line x1="1971.21" y1="2511.46" x2="2345.56" y2="2511.46" style="stroke:#1A476F;stroke-width:8.64"/>
	<line x1="1971.21" y1="2651.43" x2="1974.06" y2="2651.43" style="stroke:#A0A0A0;stroke-width:8.64"/>
	<line x1="1994.23" y1="2651.43" x2="1997.08" y2="2651.43" style="stroke:#A0A0A0;stroke-width:8.64"/>
	<line x1="2017.25" y1="2651.43" x2="2020.10" y2="2651.43" style="stroke:#A0A0A0;stroke-width:8.64"/>
	<line x1="2040.27" y1="2651.43" x2="2043.24" y2="2651.43" style="stroke:#A0A0A0;stroke-width:8.64"/>
	<line x1="2063.28" y1="2651.43" x2="2066.25" y2="2651.43" style="stroke:#A0A0A0;stroke-width:8.64"/>
	<line x1="2086.43" y1="2651.43" x2="2089.27" y2="2651.43" style="stroke:#A0A0A0;stroke-width:8.64"/>
	<line x1="2109.44" y1="2651.43" x2="2112.29" y2="2651.43" style="stroke:#A0A0A0;stroke-width:8.64"/>
	<line x1="2132.46" y1="2651.43" x2="2135.31" y2="2651.43" style="stroke:#A0A0A0;stroke-width:8.64"/>
	<line x1="2155.48" y1="2651.43" x2="2158.32" y2="2651.43" style="stroke:#A0A0A0;stroke-width:8.64"/>
	<line x1="2178.49" y1="2651.43" x2="2181.34" y2="2651.43" style="stroke:#A0A0A0;stroke-width:8.64"/>
	<line x1="2201.51" y1="2651.43" x2="2204.36" y2="2651.43" style="stroke:#A0A0A0;stroke-width:8.64"/>
	<line x1="2224.53" y1="2651.43" x2="2227.38" y2="2651.43" style="stroke:#A0A0A0;stroke-width:8.64"/>
	<line x1="2247.55" y1="2651.43" x2="2250.39" y2="2651.43" style="stroke:#A0A0A0;stroke-width:8.64"/>
	<line x1="2270.57" y1="2651.43" x2="2273.41" y2="2651.43" style="stroke:#A0A0A0;stroke-width:8.64"/>
	<line x1="2293.58" y1="2651.43" x2="2296.55" y2="2651.43" style="stroke:#A0A0A0;stroke-width:8.64"/>
	<line x1="2316.60" y1="2651.43" x2="2319.57" y2="2651.43" style="stroke:#A0A0A0;stroke-width:8.64"/>
	<line x1="2339.74" y1="2651.43" x2="2342.59" y2="2651.43" style="stroke:#A0A0A0;stroke-width:8.64"/>
	<text x="1069.94" y="2546.49" style="font-family:'Helvetica';font-size:99.99px;fill:#000000">1 comorbidity</text>
	<text x="1069.94" y="2686.46" style="font-family:'Helvetica';font-size:99.99px;fill:#000000">2+ comorbidities</text>
	<text x="2405.58" y="2546.49" style="font-family:'Helvetica';font-size:99.99px;fill:#000000">No comborbidity</text>
	<text x="2405.58" y="2686.46" style="font-family:'Helvetica';font-size:99.99px;fill:#000000">Ref (Age 65, White)</text>
	<text x="1980.00" y="2353.56" style="font-family:'Helvetica';font-size:99.99px;fill:#000000" text-anchor="middle">Age (years)</text>
	<text x="1980.00" y="195.01" style="font-family:'Helvetica';font-size:110.01px;fill:#000000" text-anchor="middle">Ethnicity White</text>
</svg>
