<?xml version="1.0" encoding="UTF-8" standalone="no"?>
<!-- This is a Stata 16.1 generated SVG file (http://www.stata.com) -->

<svg version="1.1" width="1600px" height="1164px" viewBox="0 0 3960 2880" xmlns="http://www.w3.org/2000/svg" xmlns:xlink="http://www.w3.org/1999/xlink">
	<desc>Stata Graph - Graph</desc>
	<rect x="0" y="0" width="3960" height="2880" style="fill:#EAF2F3;stroke:none"/>
	<rect x="0.00" y="0.00" width="3959.88" height="2880.00" style="fill:#EAF2F3"/>
	<rect x="2.88" y="2.88" width="3954.12" height="2874.24" style="fill:none;stroke:#EAF2F3;stroke-width:5.76"/>
	<rect x="401.69" y="258.27" width="1676.81" height="1557.81" style="fill:#FFFFFF"/>
	<rect x="404.14" y="260.72" width="1671.92" height="1552.92" style="fill:none;stroke:#FFFFFF;stroke-width:4.90"/>
	<line x1="401.69" y1="1762.26" x2="2078.51" y2="1762.26" style="stroke:#EAF2F3;stroke-width:7.34"/>
	<line x1="401.69" y1="1601.13" x2="2078.51" y2="1601.13" style="stroke:#EAF2F3;stroke-width:7.34"/>
	<line x1="401.69" y1="1440.00" x2="2078.51" y2="1440.00" style="stroke:#EAF2F3;stroke-width:7.34"/>
	<line x1="401.69" y1="1278.87" x2="2078.51" y2="1278.87" style="stroke:#EAF2F3;stroke-width:7.34"/>
	<line x1="401.69" y1="1117.74" x2="2078.51" y2="1117.74" style="stroke:#EAF2F3;stroke-width:7.34"/>
	<line x1="401.69" y1="956.62" x2="2078.51" y2="956.62" style="stroke:#EAF2F3;stroke-width:7.34"/>
	<line x1="401.69" y1="795.49" x2="2078.51" y2="795.49" style="stroke:#EAF2F3;stroke-width:7.34"/>
	<line x1="401.69" y1="634.36" x2="2078.51" y2="634.36" style="stroke:#EAF2F3;stroke-width:7.34"/>
	<line x1="401.69" y1="473.23" x2="2078.51" y2="473.23" style="stroke:#EAF2F3;stroke-width:7.34"/>
	<rect x="2147.68" y="258.27" width="1676.81" height="1557.81" style="fill:#FFFFFF"/>
	<rect x="2150.13" y="260.72" width="1671.92" height="1552.92" style="fill:none;stroke:#FFFFFF;stroke-width:4.90"/>
	<line x1="2147.68" y1="1762.26" x2="3824.49" y2="1762.26" style="stroke:#EAF2F3;stroke-width:7.34"/>
	<line x1="2147.68" y1="1601.13" x2="3824.49" y2="1601.13" style="stroke:#EAF2F3;stroke-width:7.34"/>
	<line x1="2147.68" y1="1440.00" x2="3824.49" y2="1440.00" style="stroke:#EAF2F3;stroke-width:7.34"/>
	<line x1="2147.68" y1="1278.87" x2="3824.49" y2="1278.87" style="stroke:#EAF2F3;stroke-width:7.34"/>
	<line x1="2147.68" y1="1117.74" x2="3824.49" y2="1117.74" style="stroke:#EAF2F3;stroke-width:7.34"/>
	<line x1="2147.68" y1="956.62" x2="3824.49" y2="956.62" style="stroke:#EAF2F3;stroke-width:7.34"/>
	<line x1="2147.68" y1="795.49" x2="3824.49" y2="795.49" style="stroke:#EAF2F3;stroke-width:7.34"/>
	<line x1="2147.68" y1="634.36" x2="3824.49" y2="634.36" style="stroke:#EAF2F3;stroke-width:7.34"/>
	<line x1="2147.68" y1="473.23" x2="3824.49" y2="473.23" style="stroke:#EAF2F3;stroke-width:7.34"/>
	<defs>
		<path id="path_SXsmZnmm" d="M455.52 1754.21 L455.52 1754.21 L480.89 1753.47 L506.14 1752.60 L531.51 1751.61 L556.75 1750.62 L582.12 1749.51 L607.37 1748.27 L632.73 1746.91 L657.98 1745.42 L683.35 1743.82 L708.59 1742.21 L733.96 1740.47 L759.21 1738.62 L784.58 1736.64 L809.82 1734.53 L835.19 1732.43 L860.43 1730.33 L885.80 1728.22 L911.05 1726.00 L936.42 1723.77 L961.66 1721.66 L987.03 1719.56 L1012.27 1717.58 L1037.64 1715.60 L1062.89 1713.87 L1088.26 1712.13 L1113.50 1710.53 L1138.87 1709.04 L1164.24 1707.68 L1189.48 1706.32 L1214.85 1704.96 L1240.10 1703.72 L1265.47 1702.48 L1290.71 1701.24 L1316.08 1700.01 L1341.33 1698.65 L1366.69 1697.16 L1391.94 1695.55 L1417.31 1693.82 L1442.55 1691.96 L1467.92 1689.74 L1493.17 1687.26 L1518.54 1684.54 L1543.78 1681.57 L1569.15 1678.23 L1594.39 1674.51 L1619.76 1670.43 L1645.01 1665.97 L1670.38 1661.15 L1695.62 1655.83 L1720.99 1650.13 L1746.24 1643.82 L1771.61 1637.02 L1796.85 1629.71 L1822.22 1621.79 L1847.46 1613.13 L1872.83 1603.85 L1898.20 1593.83 L1923.45 1583.06 L1948.82 1571.55 L1974.06 1559.17 L1999.43 1545.81 L2024.67 1531.58 L2024.67 1500.52 L1999.43 1516.85 L1974.06 1531.95 L1948.82 1546.18 L1923.45 1559.30 L1898.20 1571.55 L1872.83 1582.81 L1847.46 1593.33 L1822.22 1603.11 L1796.85 1612.14 L1771.61 1620.43 L1746.24 1628.11 L1720.99 1635.16 L1695.62 1641.72 L1670.38 1647.66 L1645.01 1653.10 L1619.76 1658.18 L1594.39 1662.76 L1569.15 1666.96 L1543.78 1670.80 L1518.54 1674.27 L1493.17 1677.48 L1467.92 1680.21 L1442.55 1682.68 L1417.31 1684.91 L1391.94 1686.89 L1366.69 1688.62 L1341.33 1690.23 L1316.08 1691.72 L1290.71 1693.20 L1265.47 1694.56 L1240.10 1695.80 L1214.85 1697.16 L1189.48 1698.52 L1164.24 1700.01 L1138.87 1701.62 L1113.50 1703.22 L1088.26 1704.96 L1062.89 1706.81 L1037.64 1708.92 L1012.27 1711.02 L987.03 1713.37 L961.66 1715.85 L936.42 1718.32 L911.05 1720.80 L885.80 1723.27 L860.43 1725.62 L835.19 1728.10 L809.82 1730.33 L784.58 1732.55 L759.21 1734.66 L733.96 1736.64 L708.59 1738.49 L683.35 1740.23 L657.98 1741.96 L632.73 1743.44 L607.37 1744.93 L582.12 1746.29 L556.75 1747.40 L531.51 1748.64 L506.14 1749.63 L480.89 1750.62 L455.52 1751.49 L455.52 1754.21 Z" stroke-linejoin="round"/>
	</defs>
	<defs>
		<clipPath id="clipPath_MiUqFqdV">
			<use xlink:href="#path_SXsmZnmm"/>
		</clipPath>
	</defs>
	<use xlink:href="#path_SXsmZnmm" style="stroke:none;fill:#E6E6E6"/>
	<use xlink:href="#path_SXsmZnmm" style="fill:none;stroke:#E0E0E0;stroke-width:14.69" clip-path="url(#clipPath_MiUqFqdV)"/>
	<defs>
		<path id="path_fZermGCA" d="M455.52 1745.67 L455.52 1745.67 L480.89 1744.06 L506.14 1742.21 L531.51 1740.35 L556.75 1738.25 L582.12 1735.90 L607.37 1733.30 L632.73 1730.57 L657.98 1727.73 L683.35 1724.51 L708.59 1721.17 L733.96 1717.70 L759.21 1713.99 L784.58 1710.03 L809.82 1705.95 L835.19 1701.74 L860.43 1697.41 L885.80 1693.08 L911.05 1688.62 L936.42 1684.17 L961.66 1679.83 L987.03 1675.50 L1012.27 1671.42 L1037.64 1667.58 L1062.89 1663.99 L1088.26 1660.53 L1113.50 1657.31 L1138.87 1654.34 L1164.24 1651.37 L1189.48 1648.77 L1214.85 1646.17 L1240.10 1643.58 L1265.47 1641.10 L1290.71 1638.50 L1316.08 1635.90 L1341.33 1633.18 L1366.69 1630.33 L1391.94 1627.12 L1417.31 1623.65 L1442.55 1619.69 L1467.92 1615.24 L1493.17 1610.16 L1518.54 1604.59 L1543.78 1598.40 L1569.15 1591.60 L1594.39 1584.17 L1619.76 1575.88 L1645.01 1566.85 L1670.38 1557.07 L1695.62 1546.30 L1720.99 1534.67 L1746.24 1521.93 L1771.61 1508.19 L1796.85 1493.21 L1822.22 1477.13 L1847.46 1459.68 L1872.83 1440.87 L1898.20 1420.57 L1923.45 1398.79 L1948.82 1375.28 L1974.06 1350.03 L1999.43 1323.05 L2024.67 1294.09 L2024.67 1178.76 L1999.43 1215.02 L1974.06 1248.80 L1948.82 1280.36 L1923.45 1309.56 L1898.20 1336.79 L1872.83 1362.04 L1847.46 1385.42 L1822.22 1407.21 L1796.85 1427.25 L1771.61 1445.69 L1746.24 1462.89 L1720.99 1478.61 L1695.62 1493.09 L1670.38 1506.46 L1645.01 1518.71 L1619.76 1529.97 L1594.39 1540.24 L1569.15 1549.65 L1543.78 1558.06 L1518.54 1565.86 L1493.17 1572.79 L1467.92 1578.98 L1442.55 1584.54 L1417.31 1589.49 L1391.94 1593.83 L1366.69 1597.79 L1341.33 1601.38 L1316.08 1604.72 L1290.71 1607.81 L1265.47 1610.90 L1240.10 1613.87 L1214.85 1616.84 L1189.48 1620.06 L1164.24 1623.28 L1138.87 1626.74 L1113.50 1630.46 L1088.26 1634.42 L1062.89 1638.62 L1037.64 1643.20 L1012.27 1648.03 L987.03 1653.23 L961.66 1658.55 L936.42 1664.12 L911.05 1669.56 L885.80 1675.13 L860.43 1680.58 L835.19 1686.02 L809.82 1691.10 L784.58 1696.05 L759.21 1700.87 L733.96 1705.33 L708.59 1709.54 L683.35 1713.62 L657.98 1717.33 L632.73 1720.80 L607.37 1724.02 L582.12 1726.99 L556.75 1729.71 L531.51 1732.31 L506.14 1734.66 L480.89 1736.76 L455.52 1738.74 L455.52 1745.67 Z" stroke-linejoin="round"/>
	</defs>
	<defs>
		<clipPath id="clipPath_kRhvZchT">
			<use xlink:href="#path_fZermGCA"/>
		</clipPath>
	</defs>
	<use xlink:href="#path_fZermGCA" style="stroke:none;fill:#E6E6E6"/>
	<use xlink:href="#path_fZermGCA" style="fill:none;stroke:#E0E0E0;stroke-width:14.69" clip-path="url(#clipPath_kRhvZchT)"/>
	<defs>
		<path id="path_lCiUUagV" d="M455.52 1752.35 L455.52 1752.35 L480.89 1751.49 L506.14 1750.37 L531.51 1749.14 L556.75 1747.90 L582.12 1746.54 L607.37 1745.05 L632.73 1743.44 L657.98 1741.59 L683.35 1739.73 L708.59 1737.75 L733.96 1735.65 L759.21 1733.42 L784.58 1731.07 L809.82 1728.59 L835.19 1726.12 L860.43 1723.52 L885.80 1720.80 L911.05 1718.20 L936.42 1715.60 L961.66 1713.00 L987.03 1710.40 L1012.27 1707.93 L1037.64 1705.58 L1062.89 1703.47 L1088.26 1701.37 L1113.50 1699.51 L1138.87 1697.66 L1164.24 1695.92 L1189.48 1694.31 L1214.85 1692.71 L1240.10 1691.22 L1265.47 1689.74 L1290.71 1688.25 L1316.08 1686.64 L1341.33 1685.03 L1366.69 1683.30 L1391.94 1681.32 L1417.31 1679.22 L1442.55 1676.86 L1467.92 1674.27 L1493.17 1671.17 L1518.54 1667.83 L1543.78 1664.24 L1569.15 1660.16 L1594.39 1655.58 L1619.76 1650.63 L1645.01 1645.31 L1670.38 1639.37 L1695.62 1632.93 L1720.99 1625.88 L1746.24 1618.33 L1771.61 1610.04 L1796.85 1601.13 L1822.22 1591.47 L1847.46 1581.08 L1872.83 1569.82 L1898.20 1557.57 L1923.45 1544.57 L1948.82 1530.46 L1974.06 1515.37 L1999.43 1499.15 L2024.67 1481.83 L2024.67 1423.91 L1999.43 1444.95 L1974.06 1464.63 L1948.82 1482.82 L1923.45 1499.90 L1898.20 1515.61 L1872.83 1530.34 L1847.46 1543.83 L1822.22 1556.45 L1796.85 1568.09 L1771.61 1578.85 L1746.24 1588.75 L1720.99 1597.91 L1695.62 1606.33 L1670.38 1614.00 L1645.01 1621.18 L1619.76 1627.61 L1594.39 1633.55 L1569.15 1639.00 L1543.78 1643.95 L1518.54 1648.40 L1493.17 1652.49 L1467.92 1656.07 L1442.55 1659.29 L1417.31 1662.14 L1391.94 1664.61 L1366.69 1666.96 L1341.33 1669.07 L1316.08 1670.92 L1290.71 1672.78 L1265.47 1674.51 L1240.10 1676.25 L1214.85 1677.98 L1189.48 1679.83 L1164.24 1681.69 L1138.87 1683.67 L1113.50 1685.78 L1088.26 1688.13 L1062.89 1690.60 L1037.64 1693.20 L1012.27 1696.05 L987.03 1699.02 L961.66 1702.11 L936.42 1705.33 L911.05 1708.55 L885.80 1711.76 L860.43 1714.98 L835.19 1718.07 L809.82 1721.05 L784.58 1723.89 L759.21 1726.61 L733.96 1729.21 L708.59 1731.69 L683.35 1734.04 L657.98 1736.14 L632.73 1738.12 L607.37 1739.98 L582.12 1741.71 L556.75 1743.32 L531.51 1744.81 L506.14 1746.17 L480.89 1747.40 L455.52 1748.52 L455.52 1752.35 Z" stroke-linejoin="round"/>
	</defs>
	<defs>
		<clipPath id="clipPath_OTvZQHuE">
			<use xlink:href="#path_lCiUUagV"/>
		</clipPath>
	</defs>
	<use xlink:href="#path_lCiUUagV" style="stroke:none;fill:#E6E6E6"/>
	<use xlink:href="#path_lCiUUagV" style="fill:none;stroke:#E0E0E0;stroke-width:14.69" clip-path="url(#clipPath_OTvZQHuE)"/>
	<defs>
		<path id="path_XYKskKhP" d="M455.52 1753.59 L455.52 1753.59 L480.89 1752.73 L506.14 1751.86 L531.51 1750.75 L556.75 1749.63 L582.12 1748.39 L607.37 1747.16 L632.73 1745.67 L657.98 1744.06 L683.35 1742.45 L708.59 1740.60 L733.96 1738.74 L759.21 1736.76 L784.58 1734.66 L809.82 1732.55 L835.19 1730.33 L860.43 1727.98 L885.80 1725.62 L911.05 1723.27 L936.42 1721.05 L961.66 1718.69 L987.03 1716.47 L1012.27 1714.24 L1037.64 1712.26 L1062.89 1710.28 L1088.26 1708.42 L1113.50 1706.81 L1138.87 1705.20 L1164.24 1703.60 L1189.48 1702.23 L1214.85 1700.87 L1240.10 1699.51 L1265.47 1698.15 L1290.71 1696.79 L1316.08 1695.43 L1341.33 1693.94 L1366.69 1692.46 L1391.94 1690.73 L1417.31 1688.87 L1442.55 1686.77 L1467.92 1684.41 L1493.17 1681.82 L1518.54 1678.84 L1543.78 1675.63 L1569.15 1671.91 L1594.39 1667.95 L1619.76 1663.62 L1645.01 1658.80 L1670.38 1653.60 L1695.62 1647.91 L1720.99 1641.72 L1746.24 1635.04 L1771.61 1627.73 L1796.85 1619.81 L1822.22 1611.28 L1847.46 1601.99 L1872.83 1591.97 L1898.20 1581.20 L1923.45 1569.69 L1948.82 1557.19 L1974.06 1543.83 L1999.43 1529.47 L2024.67 1514.13 L2024.67 1472.79 L1999.43 1490.86 L1974.06 1507.57 L1948.82 1523.16 L1923.45 1537.77 L1898.20 1551.25 L1872.83 1563.75 L1847.46 1575.39 L1822.22 1586.15 L1796.85 1596.05 L1771.61 1605.21 L1746.24 1613.75 L1720.99 1621.55 L1695.62 1628.72 L1670.38 1635.28 L1645.01 1641.47 L1619.76 1647.04 L1594.39 1652.11 L1569.15 1656.69 L1543.78 1660.90 L1518.54 1664.74 L1493.17 1668.20 L1467.92 1671.30 L1442.55 1674.14 L1417.31 1676.49 L1391.94 1678.72 L1366.69 1680.70 L1341.33 1682.43 L1316.08 1684.04 L1290.71 1685.65 L1265.47 1687.14 L1240.10 1688.62 L1214.85 1690.11 L1189.48 1691.59 L1164.24 1693.32 L1138.87 1694.93 L1113.50 1696.79 L1088.26 1698.77 L1062.89 1700.87 L1037.64 1703.10 L1012.27 1705.58 L987.03 1708.05 L961.66 1710.77 L936.42 1713.50 L911.05 1716.22 L885.80 1719.06 L860.43 1721.66 L835.19 1724.39 L809.82 1726.86 L784.58 1729.34 L759.21 1731.69 L733.96 1733.92 L708.59 1736.02 L683.35 1738.00 L657.98 1739.86 L632.73 1741.59 L607.37 1743.07 L582.12 1744.56 L556.75 1745.92 L531.51 1747.28 L506.14 1748.39 L480.89 1749.51 L455.52 1750.37 L455.52 1753.59 Z" stroke-linejoin="round"/>
	</defs>
	<defs>
		<clipPath id="clipPath_UmyOBCQm">
			<use xlink:href="#path_XYKskKhP"/>
		</clipPath>
	</defs>
	<use xlink:href="#path_XYKskKhP" style="stroke:none;fill:#E6E6E6"/>
	<use xlink:href="#path_XYKskKhP" style="fill:none;stroke:#E0E0E0;stroke-width:14.69" clip-path="url(#clipPath_UmyOBCQm)"/>
	<defs>
		<path id="path_sGPicXFF" d="M455.52 1739.48 L455.52 1739.48 L480.89 1737.26 L506.14 1734.91 L531.51 1732.31 L556.75 1729.58 L582.12 1726.49 L607.37 1723.15 L632.73 1719.56 L657.98 1715.60 L683.35 1711.52 L708.59 1707.06 L733.96 1702.36 L759.21 1697.41 L784.58 1692.21 L809.82 1686.77 L835.19 1681.20 L860.43 1675.38 L885.80 1669.56 L911.05 1663.62 L936.42 1657.68 L961.66 1651.87 L987.03 1646.17 L1012.27 1640.73 L1037.64 1635.53 L1062.89 1630.58 L1088.26 1626.00 L1113.50 1621.79 L1138.87 1617.71 L1164.24 1614.00 L1189.48 1610.41 L1214.85 1606.94 L1240.10 1603.60 L1265.47 1600.26 L1290.71 1596.92 L1316.08 1593.45 L1341.33 1589.87 L1366.69 1586.03 L1391.94 1581.70 L1417.31 1577.00 L1442.55 1571.80 L1467.92 1565.86 L1493.17 1559.17 L1518.54 1551.75 L1543.78 1543.46 L1569.15 1534.30 L1594.39 1524.28 L1619.76 1513.39 L1645.01 1501.26 L1670.38 1488.14 L1695.62 1473.78 L1720.99 1458.19 L1746.24 1441.36 L1771.61 1422.92 L1796.85 1403.12 L1822.22 1381.59 L1847.46 1358.32 L1872.83 1333.20 L1898.20 1306.10 L1923.45 1276.89 L1948.82 1245.58 L1974.06 1211.92 L1999.43 1175.79 L2024.67 1137.17 L2024.67 794.38 L1999.43 854.40 L1974.06 910.33 L1948.82 962.56 L1923.45 1011.07 L1898.20 1056.24 L1872.83 1098.07 L1847.46 1136.93 L1822.22 1172.82 L1796.85 1206.11 L1771.61 1236.92 L1746.24 1265.26 L1720.99 1291.50 L1695.62 1315.50 L1670.38 1337.66 L1645.01 1358.07 L1619.76 1376.64 L1594.39 1393.72 L1569.15 1409.31 L1543.78 1423.42 L1518.54 1436.16 L1493.17 1447.67 L1467.92 1458.07 L1442.55 1467.23 L1417.31 1475.39 L1391.94 1482.70 L1366.69 1489.25 L1341.33 1495.19 L1316.08 1500.76 L1290.71 1505.96 L1265.47 1511.03 L1240.10 1516.11 L1214.85 1521.18 L1189.48 1526.38 L1164.24 1531.95 L1138.87 1537.64 L1113.50 1543.83 L1088.26 1550.39 L1062.89 1557.44 L1037.64 1564.99 L1012.27 1573.04 L987.03 1581.57 L961.66 1590.48 L936.42 1599.64 L911.05 1608.80 L885.80 1617.96 L860.43 1627.12 L835.19 1635.90 L809.82 1644.57 L784.58 1652.86 L759.21 1660.78 L733.96 1668.33 L708.59 1675.38 L683.35 1682.06 L657.98 1688.37 L632.73 1694.19 L607.37 1699.51 L582.12 1704.59 L556.75 1709.16 L531.51 1713.37 L506.14 1717.33 L480.89 1720.92 L455.52 1724.14 L455.52 1739.48 Z" stroke-linejoin="round"/>
	</defs>
	<defs>
		<clipPath id="clipPath_LWBubgMx">
			<use xlink:href="#path_sGPicXFF"/>
		</clipPath>
	</defs>
	<use xlink:href="#path_sGPicXFF" style="stroke:none;fill:#E6E6E6"/>
	<use xlink:href="#path_sGPicXFF" style="fill:none;stroke:#E0E0E0;stroke-width:14.69" clip-path="url(#clipPath_LWBubgMx)"/>
	<defs>
		<path id="path_ITUQUXuS" d="M455.52 1742.45 L455.52 1742.45 L480.89 1740.47 L506.14 1738.37 L531.51 1736.14 L556.75 1733.67 L582.12 1730.95 L607.37 1727.98 L632.73 1724.76 L657.98 1721.29 L683.35 1717.58 L708.59 1713.74 L733.96 1709.54 L759.21 1705.08 L784.58 1700.50 L809.82 1695.68 L835.19 1690.73 L860.43 1685.65 L885.80 1680.45 L911.05 1675.26 L936.42 1670.06 L961.66 1664.86 L987.03 1659.91 L1012.27 1655.08 L1037.64 1650.51 L1062.89 1646.17 L1088.26 1642.09 L1113.50 1638.38 L1138.87 1634.79 L1164.24 1631.45 L1189.48 1628.23 L1214.85 1625.14 L1240.10 1622.17 L1265.47 1619.32 L1290.71 1616.35 L1316.08 1613.26 L1341.33 1610.04 L1366.69 1606.57 L1391.94 1602.86 L1417.31 1598.78 L1442.55 1594.07 L1467.92 1588.88 L1493.17 1582.94 L1518.54 1576.38 L1543.78 1569.08 L1569.15 1561.03 L1594.39 1552.24 L1619.76 1542.47 L1645.01 1531.83 L1670.38 1520.19 L1695.62 1507.57 L1720.99 1493.83 L1746.24 1478.86 L1771.61 1462.65 L1796.85 1445.07 L1822.22 1426.14 L1847.46 1405.47 L1872.83 1383.32 L1898.20 1359.44 L1923.45 1333.70 L1948.82 1305.97 L1974.06 1276.27 L1999.43 1244.35 L2024.67 1210.31 L2024.67 1017.88 L1999.43 1064.04 L1974.06 1107.10 L1948.82 1147.32 L1923.45 1184.70 L1898.20 1219.35 L1872.83 1251.52 L1847.46 1281.47 L1822.22 1309.07 L1796.85 1334.69 L1771.61 1358.32 L1746.24 1380.23 L1720.99 1400.28 L1695.62 1418.84 L1670.38 1435.92 L1645.01 1451.51 L1619.76 1465.86 L1594.39 1478.98 L1569.15 1490.86 L1543.78 1501.75 L1518.54 1511.53 L1493.17 1520.44 L1467.92 1528.36 L1442.55 1535.54 L1417.31 1541.73 L1391.94 1547.29 L1366.69 1552.37 L1341.33 1556.95 L1316.08 1561.16 L1290.71 1565.24 L1265.47 1569.08 L1240.10 1573.04 L1214.85 1576.87 L1189.48 1580.83 L1164.24 1585.04 L1138.87 1589.49 L1113.50 1594.20 L1088.26 1599.27 L1062.89 1604.72 L1037.64 1610.53 L1012.27 1616.72 L987.03 1623.28 L961.66 1630.09 L936.42 1637.14 L911.05 1644.19 L885.80 1651.25 L860.43 1658.18 L835.19 1664.98 L809.82 1671.67 L784.58 1677.98 L759.21 1684.04 L733.96 1689.86 L708.59 1695.30 L683.35 1700.38 L657.98 1705.20 L632.73 1709.66 L607.37 1713.74 L582.12 1717.58 L556.75 1721.05 L531.51 1724.39 L506.14 1727.36 L480.89 1730.08 L455.52 1732.55 L455.52 1742.45 Z" stroke-linejoin="round"/>
	</defs>
	<defs>
		<clipPath id="clipPath_oKPulEvz">
			<use xlink:href="#path_ITUQUXuS"/>
		</clipPath>
	</defs>
	<use xlink:href="#path_ITUQUXuS" style="stroke:none;fill:#E6E6E6"/>
	<use xlink:href="#path_ITUQUXuS" style="fill:none;stroke:#E0E0E0;stroke-width:14.69" clip-path="url(#clipPath_oKPulEvz)"/>
	<defs>
		<path id="path_lzhKGqMZ" d="M455.52 1749.88 L455.52 1749.88 L480.89 1748.64 L506.14 1747.28 L531.51 1745.80 L556.75 1744.31 L582.12 1742.58 L607.37 1740.72 L632.73 1738.62 L657.98 1736.51 L683.35 1734.16 L708.59 1731.69 L733.96 1729.09 L759.21 1726.24 L784.58 1723.40 L809.82 1720.30 L835.19 1717.21 L860.43 1713.99 L885.80 1710.77 L911.05 1707.43 L936.42 1704.09 L961.66 1700.87 L987.03 1697.66 L1012.27 1694.69 L1037.64 1691.72 L1062.89 1689.12 L1088.26 1686.52 L1113.50 1684.17 L1138.87 1681.94 L1164.24 1679.71 L1189.48 1677.73 L1214.85 1675.87 L1240.10 1674.02 L1265.47 1672.04 L1290.71 1670.18 L1316.08 1668.33 L1341.33 1666.35 L1366.69 1664.12 L1391.94 1661.77 L1417.31 1659.17 L1442.55 1656.20 L1467.92 1652.86 L1493.17 1649.14 L1518.54 1645.06 L1543.78 1640.48 L1569.15 1635.41 L1594.39 1629.84 L1619.76 1623.65 L1645.01 1616.97 L1670.38 1609.67 L1695.62 1601.62 L1720.99 1592.96 L1746.24 1583.55 L1771.61 1573.28 L1796.85 1562.27 L1822.22 1550.26 L1847.46 1537.27 L1872.83 1523.29 L1898.20 1508.19 L1923.45 1491.98 L1948.82 1474.40 L1974.06 1455.72 L1999.43 1435.54 L2024.67 1414.01 L2024.67 1307.95 L1999.43 1336.17 L1974.06 1362.41 L1948.82 1387.03 L1923.45 1409.80 L1898.20 1430.97 L1872.83 1450.64 L1847.46 1468.83 L1822.22 1485.79 L1796.85 1501.38 L1771.61 1515.86 L1746.24 1529.10 L1720.99 1541.48 L1695.62 1552.74 L1670.38 1563.14 L1645.01 1572.66 L1619.76 1581.45 L1594.39 1589.37 L1569.15 1596.67 L1543.78 1603.36 L1518.54 1609.30 L1493.17 1614.74 L1467.92 1619.57 L1442.55 1623.90 L1417.31 1627.73 L1391.94 1631.20 L1366.69 1634.29 L1341.33 1637.02 L1316.08 1639.61 L1290.71 1642.09 L1265.47 1644.44 L1240.10 1646.79 L1214.85 1649.14 L1189.48 1651.62 L1164.24 1654.22 L1138.87 1656.94 L1113.50 1659.79 L1088.26 1662.88 L1062.89 1666.10 L1037.64 1669.69 L1012.27 1673.52 L987.03 1677.48 L961.66 1681.69 L936.42 1685.90 L911.05 1690.23 L885.80 1694.56 L860.43 1698.77 L835.19 1702.98 L809.82 1706.94 L784.58 1710.90 L759.21 1714.61 L733.96 1718.07 L708.59 1721.42 L683.35 1724.51 L657.98 1727.36 L632.73 1730.08 L607.37 1732.55 L582.12 1734.91 L556.75 1737.13 L531.51 1739.11 L506.14 1740.85 L480.89 1742.58 L455.52 1744.06 L455.52 1749.88 Z" stroke-linejoin="round"/>
	</defs>
	<defs>
		<clipPath id="clipPath_DlOPLweF">
			<use xlink:href="#path_lzhKGqMZ"/>
		</clipPath>
	</defs>
	<use xlink:href="#path_lzhKGqMZ" style="stroke:none;fill:#E6E6E6"/>
	<use xlink:href="#path_lzhKGqMZ" style="fill:none;stroke:#E0E0E0;stroke-width:14.69" clip-path="url(#clipPath_DlOPLweF)"/>
	<path d=" M455.52 1742.58 L480.77 1740.72 L506.14 1738.87 L531.38 1736.64 L556.75 1734.29 L582.00 1731.81 L607.37 1729.09 L632.61 1726.12 L657.98 1722.90 L683.22 1719.44 L708.59 1715.85 L733.84 1711.89 L759.21 1707.80 L784.45 1703.60 L809.82 1699.02 L835.07 1694.31 L860.43 1689.61 L885.68 1684.66 L911.05 1679.71 L936.29 1674.76 L961.66 1669.81 L986.91 1665.11 L1012.27 1660.53 L1037.52 1656.20 L1062.89 1652.11 L1088.13 1648.28 L1113.50 1644.69 L1138.87 1641.35 L1164.12 1638.25 L1189.48 1635.28 L1214.73 1632.44 L1240.10 1629.59 L1265.34 1626.87 L1290.71 1624.15 L1315.96 1621.18 L1341.33 1618.21 L1366.57 1614.99 L1391.94 1611.40 L1417.18 1607.56 L1442.55 1603.11 L1467.80 1598.16 L1493.17 1592.59 L1518.41 1586.40 L1543.78 1579.47 L1569.03 1571.80 L1594.39 1563.38 L1619.64 1554.22 L1645.01 1544.20 L1670.25 1533.19 L1695.62 1521.18 L1720.87 1508.19 L1746.24 1494.08 L1771.48 1478.73 L1796.85 1462.15 L1822.10 1444.08 L1847.46 1424.65 L1872.71 1403.74 L1898.08 1381.09 L1923.45 1356.71 L1948.69 1330.48 L1974.06 1302.26 L1999.31 1272.07 L2024.67 1239.64" stroke-linejoin="round" style="fill:none;stroke:#008000;stroke-width:7.34"/>
	<path d=" M455.52 1750.75 L480.77 1749.63 L506.14 1748.52 L531.38 1747.28 L556.75 1745.80 L582.00 1744.31 L607.37 1742.70 L632.61 1740.97 L657.98 1739.11 L683.22 1737.13 L708.59 1734.91 L733.84 1732.68 L759.21 1730.20 L784.45 1727.73 L809.82 1725.01 L835.07 1722.28 L860.43 1719.44 L885.68 1716.59 L911.05 1713.62 L936.29 1710.77 L961.66 1707.80 L986.91 1705.08 L1012.27 1702.36 L1037.52 1699.76 L1062.89 1697.41 L1088.13 1695.18 L1113.50 1693.08 L1138.87 1691.10 L1164.12 1689.24 L1189.48 1687.51 L1214.73 1685.78 L1240.10 1684.17 L1265.34 1682.56 L1290.71 1680.95 L1315.96 1679.22 L1341.33 1677.48 L1366.57 1675.50 L1391.94 1673.40 L1417.18 1671.17 L1442.55 1668.57 L1467.80 1665.60 L1493.17 1662.39 L1518.41 1658.67 L1543.78 1654.59 L1569.03 1650.13 L1594.39 1645.18 L1619.64 1639.74 L1645.01 1633.80 L1670.25 1627.36 L1695.62 1620.31 L1720.87 1612.64 L1746.24 1604.35 L1771.48 1595.19 L1796.85 1585.41 L1822.10 1574.89 L1847.46 1563.38 L1872.71 1551.01 L1898.08 1537.64 L1923.45 1523.29 L1948.69 1507.82 L1974.06 1491.23 L1999.31 1473.41 L2024.67 1454.23" stroke-linejoin="round" style="fill:none;stroke:#55752F;stroke-width:7.34"/>
	<path d=" M455.52 1752.23 L480.77 1751.24 L506.14 1750.25 L531.38 1749.14 L556.75 1748.02 L582.00 1746.66 L607.37 1745.30 L632.61 1743.82 L657.98 1742.08 L683.22 1740.35 L708.59 1738.49 L733.84 1736.51 L759.21 1734.41 L784.45 1732.18 L809.82 1729.96 L835.07 1727.48 L860.43 1725.01 L885.68 1722.53 L911.05 1720.06 L936.29 1717.46 L961.66 1714.98 L986.91 1712.51 L1012.27 1710.15 L1037.52 1707.93 L1062.89 1705.82 L1088.13 1703.84 L1113.50 1701.99 L1138.87 1700.38 L1164.12 1698.77 L1189.48 1697.16 L1214.73 1695.80 L1240.10 1694.31 L1265.34 1692.95 L1290.71 1691.47 L1315.96 1689.98 L1341.33 1688.50 L1366.57 1686.77 L1391.94 1685.03 L1417.18 1683.05 L1442.55 1680.70 L1467.80 1678.23 L1493.17 1675.38 L1518.41 1672.16 L1543.78 1668.57 L1569.03 1664.74 L1594.39 1660.41 L1619.64 1655.70 L1645.01 1650.51 L1670.25 1644.94 L1695.62 1638.75 L1720.87 1632.07 L1746.24 1624.89 L1771.48 1616.97 L1796.85 1608.43 L1822.10 1599.27 L1847.46 1589.25 L1872.71 1578.48 L1898.08 1566.85 L1923.45 1554.35 L1948.69 1540.86 L1974.06 1526.50 L1999.31 1510.91 L2024.67 1494.33" stroke-linejoin="round" style="fill:none;stroke:#00FF00;stroke-width:7.34"/>
	<path d=" M455.52 1732.93 L480.77 1730.20 L506.14 1727.23 L531.38 1724.14 L556.75 1720.67 L582.00 1716.84 L607.37 1712.75 L632.61 1708.42 L657.98 1703.60 L683.22 1698.52 L708.59 1693.08 L733.84 1687.26 L759.21 1681.20 L784.45 1674.76 L809.82 1668.08 L835.07 1661.15 L860.43 1653.97 L885.68 1646.67 L911.05 1639.24 L936.29 1631.94 L961.66 1624.64 L986.91 1617.46 L1012.27 1610.66 L1037.52 1604.22 L1062.89 1598.16 L1088.13 1592.46 L1113.50 1587.14 L1138.87 1582.19 L1164.12 1577.49 L1189.48 1573.04 L1214.73 1568.83 L1240.10 1564.74 L1265.34 1560.66 L1290.71 1556.45 L1315.96 1552.24 L1341.33 1547.79 L1366.57 1542.96 L1391.94 1537.64 L1417.18 1531.83 L1442.55 1525.27 L1467.80 1517.84 L1493.17 1509.55 L1518.41 1500.27 L1543.78 1490.00 L1569.03 1478.61 L1594.39 1466.24 L1619.64 1452.50 L1645.01 1437.52 L1670.25 1421.19 L1695.62 1403.37 L1720.87 1383.94 L1746.24 1362.90 L1771.48 1340.13 L1796.85 1315.38 L1822.10 1288.65 L1847.46 1259.69 L1872.71 1228.50 L1898.08 1194.72 L1923.45 1158.46 L1948.69 1119.48 L1974.06 1077.52 L1999.31 1032.60 L2024.67 984.46" stroke-linejoin="round" style="fill:none;stroke:#FFD200;stroke-width:7.34"/>
	<path d=" M455.52 1738.12 L480.77 1735.90 L506.14 1733.42 L531.38 1730.82 L556.75 1727.98 L582.00 1724.88 L607.37 1721.54 L632.61 1717.83 L657.98 1713.99 L683.22 1709.78 L708.59 1705.33 L733.84 1700.50 L759.21 1695.43 L784.45 1690.23 L809.82 1684.66 L835.07 1678.97 L860.43 1673.03 L885.68 1667.09 L911.05 1661.02 L936.29 1654.84 L961.66 1648.90 L986.91 1642.96 L1012.27 1637.39 L1037.52 1632.07 L1062.89 1627.12 L1088.13 1622.41 L1113.50 1617.96 L1138.87 1613.87 L1164.12 1610.04 L1189.48 1606.45 L1214.73 1602.86 L1240.10 1599.52 L1265.34 1596.18 L1290.71 1592.71 L1315.96 1589.25 L1341.33 1585.53 L1366.57 1581.57 L1391.94 1577.24 L1417.18 1572.42 L1442.55 1566.97 L1467.80 1560.91 L1493.17 1554.10 L1518.41 1546.43 L1543.78 1538.01 L1569.03 1528.61 L1594.39 1518.34 L1619.64 1507.07 L1645.01 1494.70 L1670.25 1481.21 L1695.62 1466.61 L1720.87 1450.64 L1746.24 1433.32 L1771.48 1414.51 L1796.85 1394.09 L1822.10 1372.06 L1847.46 1348.17 L1872.71 1322.43 L1898.08 1294.71 L1923.45 1264.76 L1948.69 1232.59 L1974.06 1198.06 L1999.31 1161.06 L2024.67 1121.33" stroke-linejoin="round" style="fill:none;stroke:#FF7F00;stroke-width:7.34"/>
	<path d=" M455.52 1747.28 L480.77 1745.92 L506.14 1744.43 L531.38 1742.83 L556.75 1741.09 L582.00 1739.11 L607.37 1737.01 L632.61 1734.78 L657.98 1732.31 L683.22 1729.71 L708.59 1726.99 L733.84 1724.02 L759.21 1720.92 L784.45 1717.58 L809.82 1714.24 L835.07 1710.65 L860.43 1706.94 L885.68 1703.22 L911.05 1699.51 L936.29 1695.68 L961.66 1691.96 L986.91 1688.37 L1012.27 1684.79 L1037.52 1681.57 L1062.89 1678.47 L1088.13 1675.50 L1113.50 1672.78 L1138.87 1670.31 L1164.12 1667.95 L1189.48 1665.60 L1214.73 1663.50 L1240.10 1661.40 L1265.34 1659.29 L1290.71 1657.19 L1315.96 1654.96 L1341.33 1652.73 L1366.57 1650.26 L1391.94 1647.54 L1417.18 1644.57 L1442.55 1641.22 L1467.80 1637.39 L1493.17 1633.18 L1518.41 1628.48 L1543.78 1623.16 L1569.03 1617.34 L1594.39 1611.03 L1619.64 1603.97 L1645.01 1596.30 L1670.25 1588.01 L1695.62 1578.85 L1720.87 1568.95 L1746.24 1558.18 L1771.48 1546.55 L1796.85 1533.93 L1822.10 1520.19 L1847.46 1505.47 L1872.71 1489.38 L1898.08 1472.18 L1923.45 1453.61 L1948.69 1433.69 L1974.06 1412.28 L1999.31 1389.26 L2024.67 1364.51" stroke-linejoin="round" style="fill:none;stroke:#9C8847;stroke-width:7.34"/>
	<path d=" M455.52 1753.10 L480.77 1752.23 L506.14 1751.24 L531.38 1750.25 L556.75 1749.14 L582.00 1748.02 L607.37 1746.66 L632.61 1745.30 L657.98 1743.82 L683.22 1742.21 L708.59 1740.47 L733.84 1738.62 L759.21 1736.76 L784.45 1734.66 L809.82 1732.55 L835.07 1730.45 L860.43 1728.10 L885.68 1725.87 L911.05 1723.52 L936.29 1721.17 L961.66 1718.94 L986.91 1716.59 L1012.27 1714.49 L1037.52 1712.38 L1062.89 1710.53 L1088.13 1708.79 L1113.50 1707.06 L1138.87 1705.45 L1164.12 1703.97 L1189.48 1702.61 L1214.73 1701.24 L1240.10 1700.01 L1265.34 1698.65 L1290.71 1697.41 L1315.96 1696.05 L1341.33 1694.69 L1366.57 1693.08 L1391.94 1691.47 L1417.18 1689.61 L1442.55 1687.51 L1467.80 1685.16 L1493.17 1682.56 L1518.41 1679.59 L1543.78 1676.37 L1569.03 1672.78 L1594.39 1668.82 L1619.64 1664.61 L1645.01 1659.79 L1670.25 1654.71 L1695.62 1649.02 L1720.87 1642.96 L1746.24 1636.27 L1771.48 1629.10 L1796.85 1621.18 L1822.10 1612.76 L1847.46 1603.60 L1872.71 1593.70 L1898.08 1583.06 L1923.45 1571.67 L1948.69 1559.30 L1974.06 1546.06 L1999.31 1531.83 L2024.67 1516.60" stroke-linejoin="round" style="fill:none;stroke:#1A476F;stroke-width:7.34"/>
	<line x1="455.52" y1="1659.79" x2="458.37" y2="1659.79" style="stroke:#000000;stroke-width:7.34"/>
	<line x1="478.54" y1="1659.79" x2="480.77" y2="1659.79" style="stroke:#000000;stroke-width:7.34"/>
	<line x1="480.77" y1="1659.79" x2="481.39" y2="1659.79" style="stroke:#000000;stroke-width:7.34"/>
	<line x1="501.56" y1="1659.79" x2="504.40" y2="1659.79" style="stroke:#000000;stroke-width:7.34"/>
	<line x1="524.58" y1="1659.79" x2="527.42" y2="1659.79" style="stroke:#000000;stroke-width:7.34"/>
	<line x1="547.59" y1="1659.79" x2="550.44" y2="1659.79" style="stroke:#000000;stroke-width:7.34"/>
	<line x1="570.61" y1="1659.79" x2="573.58" y2="1659.79" style="stroke:#000000;stroke-width:7.34"/>
	<line x1="593.75" y1="1659.79" x2="596.60" y2="1659.79" style="stroke:#000000;stroke-width:7.34"/>
	<line x1="616.77" y1="1659.79" x2="619.62" y2="1659.79" style="stroke:#000000;stroke-width:7.34"/>
	<line x1="639.79" y1="1659.79" x2="642.63" y2="1659.79" style="stroke:#000000;stroke-width:7.34"/>
	<line x1="662.80" y1="1659.79" x2="665.65" y2="1659.79" style="stroke:#000000;stroke-width:7.34"/>
	<line x1="685.82" y1="1659.79" x2="688.67" y2="1659.79" style="stroke:#000000;stroke-width:7.34"/>
	<line x1="708.84" y1="1659.79" x2="711.69" y2="1659.79" style="stroke:#000000;stroke-width:7.34"/>
	<line x1="731.86" y1="1659.79" x2="733.84" y2="1659.79" style="stroke:#000000;stroke-width:7.34"/>
	<line x1="733.84" y1="1659.79" x2="734.70" y2="1659.79" style="stroke:#000000;stroke-width:7.34"/>
	<line x1="754.88" y1="1659.79" x2="757.72" y2="1659.79" style="stroke:#000000;stroke-width:7.34"/>
	<line x1="777.89" y1="1659.79" x2="780.74" y2="1659.79" style="stroke:#000000;stroke-width:7.34"/>
	<line x1="800.91" y1="1659.79" x2="803.88" y2="1659.79" style="stroke:#000000;stroke-width:7.34"/>
	<line x1="823.93" y1="1659.79" x2="826.90" y2="1659.79" style="stroke:#000000;stroke-width:7.34"/>
	<line x1="847.07" y1="1659.79" x2="849.91" y2="1659.79" style="stroke:#000000;stroke-width:7.34"/>
	<line x1="870.09" y1="1659.79" x2="872.93" y2="1659.79" style="stroke:#000000;stroke-width:7.34"/>
	<line x1="893.10" y1="1659.79" x2="895.95" y2="1659.79" style="stroke:#000000;stroke-width:7.34"/>
	<line x1="916.12" y1="1659.79" x2="918.97" y2="1659.79" style="stroke:#000000;stroke-width:7.34"/>
	<line x1="939.14" y1="1659.79" x2="941.99" y2="1659.79" style="stroke:#000000;stroke-width:7.34"/>
	<line x1="962.16" y1="1659.79" x2="965.00" y2="1659.79" style="stroke:#000000;stroke-width:7.34"/>
	<line x1="985.17" y1="1659.79" x2="986.91" y2="1659.79" style="stroke:#000000;stroke-width:7.34"/>
	<line x1="986.91" y1="1659.79" x2="988.02" y2="1659.79" style="stroke:#000000;stroke-width:7.34"/>
	<line x1="1008.19" y1="1659.79" x2="1011.04" y2="1659.79" style="stroke:#000000;stroke-width:7.34"/>
	<line x1="1031.21" y1="1659.79" x2="1034.06" y2="1659.79" style="stroke:#000000;stroke-width:7.34"/>
	<line x1="1054.23" y1="1659.79" x2="1057.20" y2="1659.79" style="stroke:#000000;stroke-width:7.34"/>
	<line x1="1077.24" y1="1659.79" x2="1080.21" y2="1659.79" style="stroke:#000000;stroke-width:7.34"/>
	<line x1="1100.38" y1="1659.79" x2="1103.23" y2="1659.79" style="stroke:#000000;stroke-width:7.34"/>
	<line x1="1123.40" y1="1659.79" x2="1126.25" y2="1659.79" style="stroke:#000000;stroke-width:7.34"/>
	<line x1="1146.42" y1="1659.79" x2="1149.27" y2="1659.79" style="stroke:#000000;stroke-width:7.34"/>
	<line x1="1169.44" y1="1659.79" x2="1172.28" y2="1659.79" style="stroke:#000000;stroke-width:7.34"/>
	<line x1="1192.45" y1="1659.79" x2="1195.30" y2="1659.79" style="stroke:#000000;stroke-width:7.34"/>
	<line x1="1215.47" y1="1659.79" x2="1218.32" y2="1659.79" style="stroke:#000000;stroke-width:7.34"/>
	<line x1="1238.49" y1="1659.79" x2="1240.10" y2="1659.79" style="stroke:#000000;stroke-width:7.34"/>
	<line x1="1240.10" y1="1659.79" x2="1241.34" y2="1659.79" style="stroke:#000000;stroke-width:7.34"/>
	<line x1="1261.51" y1="1659.79" x2="1264.35" y2="1659.79" style="stroke:#000000;stroke-width:7.34"/>
	<line x1="1284.53" y1="1659.79" x2="1287.37" y2="1659.79" style="stroke:#000000;stroke-width:7.34"/>
	<line x1="1307.54" y1="1659.79" x2="1310.51" y2="1659.79" style="stroke:#000000;stroke-width:7.34"/>
	<line x1="1330.56" y1="1659.79" x2="1333.53" y2="1659.79" style="stroke:#000000;stroke-width:7.34"/>
	<line x1="1353.70" y1="1659.79" x2="1356.55" y2="1659.79" style="stroke:#000000;stroke-width:7.34"/>
	<line x1="1376.72" y1="1659.79" x2="1379.57" y2="1659.79" style="stroke:#000000;stroke-width:7.34"/>
	<line x1="1399.74" y1="1659.79" x2="1402.58" y2="1659.79" style="stroke:#000000;stroke-width:7.34"/>
	<line x1="1422.75" y1="1659.79" x2="1425.60" y2="1659.79" style="stroke:#000000;stroke-width:7.34"/>
	<line x1="1445.77" y1="1659.79" x2="1448.62" y2="1659.79" style="stroke:#000000;stroke-width:7.34"/>
	<line x1="1468.79" y1="1659.79" x2="1471.63" y2="1659.79" style="stroke:#000000;stroke-width:7.34"/>
	<line x1="1491.81" y1="1659.79" x2="1493.17" y2="1659.79" style="stroke:#000000;stroke-width:7.34"/>
	<line x1="1493.17" y1="1659.79" x2="1494.65" y2="1659.79" style="stroke:#000000;stroke-width:7.34"/>
	<line x1="1514.82" y1="1659.79" x2="1517.67" y2="1659.79" style="stroke:#000000;stroke-width:7.34"/>
	<line x1="1537.84" y1="1659.79" x2="1540.69" y2="1659.79" style="stroke:#000000;stroke-width:7.34"/>
	<line x1="1560.86" y1="1659.79" x2="1563.83" y2="1659.79" style="stroke:#000000;stroke-width:7.34"/>
	<line x1="1584.00" y1="1659.79" x2="1586.85" y2="1659.79" style="stroke:#000000;stroke-width:7.34"/>
	<line x1="1607.02" y1="1659.79" x2="1609.86" y2="1659.79" style="stroke:#000000;stroke-width:7.34"/>
	<line x1="1630.04" y1="1659.79" x2="1632.88" y2="1659.79" style="stroke:#000000;stroke-width:7.34"/>
	<line x1="1653.05" y1="1659.79" x2="1655.90" y2="1659.79" style="stroke:#000000;stroke-width:7.34"/>
	<line x1="1676.07" y1="1659.79" x2="1678.92" y2="1659.79" style="stroke:#000000;stroke-width:7.34"/>
	<line x1="1699.09" y1="1659.79" x2="1701.93" y2="1659.79" style="stroke:#000000;stroke-width:7.34"/>
	<line x1="1722.11" y1="1659.79" x2="1724.95" y2="1659.79" style="stroke:#000000;stroke-width:7.34"/>
	<line x1="1745.12" y1="1659.79" x2="1746.24" y2="1659.79" style="stroke:#000000;stroke-width:7.34"/>
	<line x1="1746.24" y1="1659.79" x2="1747.97" y2="1659.79" style="stroke:#000000;stroke-width:7.34"/>
	<line x1="1768.14" y1="1659.79" x2="1770.99" y2="1659.79" style="stroke:#000000;stroke-width:7.34"/>
	<line x1="1791.16" y1="1659.79" x2="1794.00" y2="1659.79" style="stroke:#000000;stroke-width:7.34"/>
	<line x1="1814.17" y1="1659.79" x2="1817.14" y2="1659.79" style="stroke:#000000;stroke-width:7.34"/>
	<line x1="1837.32" y1="1659.79" x2="1840.16" y2="1659.79" style="stroke:#000000;stroke-width:7.34"/>
	<line x1="1860.33" y1="1659.79" x2="1863.18" y2="1659.79" style="stroke:#000000;stroke-width:7.34"/>
	<line x1="1883.35" y1="1659.79" x2="1886.20" y2="1659.79" style="stroke:#000000;stroke-width:7.34"/>
	<line x1="1906.37" y1="1659.79" x2="1909.21" y2="1659.79" style="stroke:#000000;stroke-width:7.34"/>
	<line x1="1929.39" y1="1659.79" x2="1932.23" y2="1659.79" style="stroke:#000000;stroke-width:7.34"/>
	<line x1="1952.40" y1="1659.79" x2="1955.25" y2="1659.79" style="stroke:#000000;stroke-width:7.34"/>
	<line x1="1975.42" y1="1659.79" x2="1978.27" y2="1659.79" style="stroke:#000000;stroke-width:7.34"/>
	<line x1="1998.44" y1="1659.79" x2="1999.31" y2="1659.79" style="stroke:#000000;stroke-width:7.34"/>
	<line x1="1999.31" y1="1659.79" x2="2001.29" y2="1659.79" style="stroke:#000000;stroke-width:7.34"/>
	<line x1="2021.46" y1="1659.79" x2="2024.30" y2="1659.79" style="stroke:#000000;stroke-width:7.34"/>
	<path d="" stroke-linejoin="round" style="fill:none;stroke:#000000;stroke-width:7.34"/>
	<defs>
		<path id="path_mfYjnGyt" d="M2201.51 1751.12 L2201.51 1751.12 L2226.88 1750.00 L2252.13 1748.77 L2277.49 1747.40 L2302.74 1745.92 L2328.11 1744.31 L2353.35 1742.58 L2378.72 1740.72 L2403.97 1738.62 L2429.34 1736.51 L2454.58 1734.16 L2479.95 1731.69 L2505.20 1729.09 L2530.56 1726.37 L2555.81 1723.52 L2581.18 1720.55 L2606.42 1717.58 L2631.79 1714.49 L2657.04 1711.52 L2682.41 1708.42 L2707.65 1705.45 L2733.02 1702.48 L2758.26 1699.64 L2783.63 1697.04 L2808.88 1694.44 L2834.25 1692.09 L2859.49 1689.86 L2884.86 1687.76 L2910.11 1685.78 L2935.47 1683.92 L2960.72 1682.06 L2986.09 1680.33 L3011.46 1678.60 L3036.70 1676.86 L3062.07 1675.01 L3087.32 1673.15 L3112.68 1671.17 L3137.93 1668.94 L3163.30 1666.47 L3188.54 1663.75 L3213.91 1660.78 L3239.16 1657.31 L3264.53 1653.48 L3289.77 1649.27 L3315.14 1644.57 L3340.38 1639.37 L3365.75 1633.67 L3391.00 1627.49 L3416.37 1620.80 L3441.61 1613.38 L3466.98 1605.34 L3492.22 1596.55 L3517.59 1587.14 L3542.84 1576.87 L3568.21 1565.73 L3593.45 1553.73 L3618.82 1540.74 L3644.07 1526.88 L3669.43 1511.78 L3694.68 1495.69 L3720.05 1478.36 L3745.42 1459.80 L3770.66 1439.88 L3770.66 1395.45 L3745.42 1418.22 L3720.05 1439.63 L3694.68 1459.43 L3669.43 1477.87 L3644.07 1495.07 L3618.82 1510.91 L3593.45 1525.64 L3568.21 1539.37 L3542.84 1552.00 L3517.59 1563.63 L3492.22 1574.40 L3466.98 1584.30 L3441.61 1593.33 L3416.37 1601.75 L3391.00 1609.54 L3365.75 1616.60 L3340.38 1623.03 L3315.14 1628.85 L3289.77 1634.29 L3264.53 1639.12 L3239.16 1643.45 L3213.91 1647.41 L3188.54 1650.88 L3163.30 1653.97 L3137.93 1656.82 L3112.68 1659.29 L3087.32 1661.52 L3062.07 1663.62 L3036.70 1665.48 L3011.46 1667.46 L2986.09 1669.32 L2960.72 1671.17 L2935.47 1673.15 L2910.11 1675.13 L2884.86 1677.24 L2859.49 1679.59 L2834.25 1682.06 L2808.88 1684.66 L2783.63 1687.51 L2758.26 1690.60 L2733.02 1693.82 L2707.65 1697.16 L2682.41 1700.63 L2657.04 1704.21 L2631.79 1707.68 L2606.42 1711.02 L2581.18 1714.36 L2555.81 1717.58 L2530.56 1720.67 L2505.20 1723.64 L2479.95 1726.37 L2454.58 1729.09 L2429.34 1731.44 L2403.97 1733.79 L2378.72 1735.90 L2353.35 1738.00 L2328.11 1739.86 L2302.74 1741.59 L2277.49 1743.20 L2252.13 1744.56 L2226.88 1745.92 L2201.51 1747.16 L2201.51 1751.12 Z" stroke-linejoin="round"/>
	</defs>
	<defs>
		<clipPath id="clipPath_qUDXdWez">
			<use xlink:href="#path_mfYjnGyt"/>
		</clipPath>
	</defs>
	<use xlink:href="#path_mfYjnGyt" style="stroke:none;fill:#E6E6E6"/>
	<use xlink:href="#path_mfYjnGyt" style="fill:none;stroke:#E0E0E0;stroke-width:14.69" clip-path="url(#clipPath_qUDXdWez)"/>
	<defs>
		<path id="path_iJkiLfve" d="M2201.51 1738.99 L2201.51 1738.99 L2226.88 1736.76 L2252.13 1734.29 L2277.49 1731.56 L2302.74 1728.59 L2328.11 1725.25 L2353.35 1721.79 L2378.72 1717.95 L2403.97 1713.87 L2429.34 1709.41 L2454.58 1704.83 L2479.95 1699.76 L2505.20 1694.56 L2530.56 1689.12 L2555.81 1683.42 L2581.18 1677.48 L2606.42 1671.42 L2631.79 1665.36 L2657.04 1659.04 L2682.41 1652.86 L2707.65 1646.79 L2733.02 1640.85 L2758.26 1635.16 L2783.63 1629.71 L2808.88 1624.52 L2834.25 1619.81 L2859.49 1615.24 L2884.86 1611.03 L2910.11 1607.07 L2935.47 1603.23 L2960.72 1599.64 L2986.09 1596.05 L3011.46 1592.59 L3036.70 1589.00 L3062.07 1585.41 L3087.32 1581.57 L3112.68 1577.49 L3137.93 1573.04 L3163.30 1568.09 L3188.54 1562.52 L3213.91 1556.33 L3239.16 1549.27 L3264.53 1541.60 L3289.77 1532.94 L3315.14 1523.41 L3340.38 1512.89 L3365.75 1501.38 L3391.00 1488.76 L3416.37 1474.90 L3441.61 1459.92 L3466.98 1443.59 L3492.22 1425.89 L3517.59 1406.59 L3542.84 1385.80 L3568.21 1363.27 L3593.45 1338.89 L3618.82 1312.53 L3644.07 1284.19 L3669.43 1253.63 L3694.68 1220.83 L3720.05 1185.69 L3745.42 1147.82 L3770.66 1107.47 L3770.66 945.85 L3745.42 996.47 L3720.05 1043.86 L3694.68 1087.92 L3669.43 1128.88 L3644.07 1167.00 L3618.82 1202.27 L3593.45 1235.06 L3568.21 1265.38 L3542.84 1293.48 L3517.59 1319.46 L3492.22 1343.35 L3466.98 1365.38 L3441.61 1385.80 L3416.37 1404.36 L3391.00 1421.56 L3365.75 1437.28 L3340.38 1451.63 L3315.14 1464.75 L3289.77 1476.63 L3264.53 1487.40 L3239.16 1497.17 L3213.91 1505.96 L3188.54 1513.63 L3163.30 1520.56 L3137.93 1526.63 L3112.68 1532.20 L3087.32 1537.15 L3062.07 1541.85 L3036.70 1546.18 L3011.46 1550.51 L2986.09 1554.72 L2960.72 1558.93 L2935.47 1563.26 L2910.11 1567.84 L2884.86 1572.66 L2859.49 1577.86 L2834.25 1583.31 L2808.88 1589.25 L2783.63 1595.68 L2758.26 1602.49 L2733.02 1609.67 L2707.65 1617.22 L2682.41 1624.89 L2657.04 1632.68 L2631.79 1640.36 L2606.42 1648.03 L2581.18 1655.58 L2555.81 1662.76 L2530.56 1669.69 L2505.20 1676.37 L2479.95 1682.68 L2454.58 1688.62 L2429.34 1694.19 L2403.97 1699.39 L2378.72 1704.21 L2353.35 1708.67 L2328.11 1712.88 L2302.74 1716.71 L2277.49 1720.30 L2252.13 1723.52 L2226.88 1726.61 L2201.51 1729.34 L2201.51 1738.99 Z" stroke-linejoin="round"/>
	</defs>
	<defs>
		<clipPath id="clipPath_ymTzKVBW">
			<use xlink:href="#path_iJkiLfve"/>
		</clipPath>
	</defs>
	<use xlink:href="#path_iJkiLfve" style="stroke:none;fill:#E6E6E6"/>
	<use xlink:href="#path_iJkiLfve" style="fill:none;stroke:#E0E0E0;stroke-width:14.69" clip-path="url(#clipPath_ymTzKVBW)"/>
	<defs>
		<path id="path_aRduQrUd" d="M2201.51 1748.39 L2201.51 1748.39 L2226.88 1747.03 L2252.13 1745.55 L2277.49 1743.94 L2302.74 1742.21 L2328.11 1740.23 L2353.35 1738.12 L2378.72 1735.77 L2403.97 1733.42 L2429.34 1730.70 L2454.58 1727.98 L2479.95 1724.88 L2505.20 1721.79 L2530.56 1718.57 L2555.81 1715.10 L2581.18 1711.52 L2606.42 1707.93 L2631.79 1704.21 L2657.04 1700.50 L2682.41 1696.79 L2707.65 1693.20 L2733.02 1689.61 L2758.26 1686.15 L2783.63 1682.93 L2808.88 1679.83 L2834.25 1676.99 L2859.49 1674.27 L2884.86 1671.79 L2910.11 1669.32 L2935.47 1667.09 L2960.72 1664.86 L2986.09 1662.76 L3011.46 1660.65 L3036.70 1658.55 L3062.07 1656.32 L3087.32 1654.09 L3112.68 1651.62 L3137.93 1648.90 L3163.30 1645.93 L3188.54 1642.71 L3213.91 1638.87 L3239.16 1634.79 L3264.53 1630.09 L3289.77 1624.89 L3315.14 1619.20 L3340.38 1612.88 L3365.75 1605.95 L3391.00 1598.40 L3416.37 1590.24 L3441.61 1581.20 L3466.98 1571.43 L3492.22 1560.78 L3517.59 1549.27 L3542.84 1536.78 L3568.21 1523.29 L3593.45 1508.68 L3618.82 1492.84 L3644.07 1475.89 L3669.43 1457.57 L3694.68 1437.90 L3720.05 1416.86 L3745.42 1394.21 L3770.66 1369.96 L3770.66 1288.65 L3745.42 1318.10 L3720.05 1345.58 L3694.68 1371.19 L3669.43 1394.95 L3644.07 1417.11 L3618.82 1437.65 L3593.45 1456.58 L3568.21 1474.28 L3542.84 1490.49 L3517.59 1505.59 L3492.22 1519.45 L3466.98 1532.20 L3441.61 1543.95 L3416.37 1554.84 L3391.00 1564.74 L3365.75 1573.90 L3340.38 1582.19 L3315.14 1589.87 L3289.77 1596.80 L3264.53 1602.98 L3239.16 1608.68 L3213.91 1613.75 L3188.54 1618.21 L3163.30 1622.17 L3137.93 1625.75 L3112.68 1628.97 L3087.32 1631.82 L3062.07 1634.54 L3036.70 1637.02 L3011.46 1639.49 L2986.09 1641.97 L2960.72 1644.32 L2935.47 1646.92 L2910.11 1649.52 L2884.86 1652.36 L2859.49 1655.33 L2834.25 1658.55 L2808.88 1662.01 L2783.63 1665.60 L2758.26 1669.56 L2733.02 1673.77 L2707.65 1678.10 L2682.41 1682.56 L2657.04 1687.14 L2631.79 1691.59 L2606.42 1696.05 L2581.18 1700.38 L2555.81 1704.59 L2530.56 1708.55 L2505.20 1712.38 L2479.95 1716.09 L2454.58 1719.44 L2429.34 1722.65 L2403.97 1725.75 L2378.72 1728.47 L2353.35 1731.07 L2328.11 1733.54 L2302.74 1735.77 L2277.49 1737.88 L2252.13 1739.73 L2226.88 1741.46 L2201.51 1743.07 L2201.51 1748.39 Z" stroke-linejoin="round"/>
	</defs>
	<defs>
		<clipPath id="clipPath_cWnuyfnl">
			<use xlink:href="#path_aRduQrUd"/>
		</clipPath>
	</defs>
	<use xlink:href="#path_aRduQrUd" style="stroke:none;fill:#E6E6E6"/>
	<use xlink:href="#path_aRduQrUd" style="fill:none;stroke:#E0E0E0;stroke-width:14.69" clip-path="url(#clipPath_cWnuyfnl)"/>
	<defs>
		<path id="path_FLZuOOjC" d="M2201.51 1750.13 L2201.51 1750.13 L2226.88 1748.89 L2252.13 1747.65 L2277.49 1746.17 L2302.74 1744.56 L2328.11 1742.95 L2353.35 1740.97 L2378.72 1738.99 L2403.97 1736.89 L2429.34 1734.53 L2454.58 1732.06 L2479.95 1729.34 L2505.20 1726.61 L2530.56 1723.64 L2555.81 1720.67 L2581.18 1717.46 L2606.42 1714.24 L2631.79 1711.02 L2657.04 1707.80 L2682.41 1704.46 L2707.65 1701.24 L2733.02 1698.15 L2758.26 1695.06 L2783.63 1692.21 L2808.88 1689.49 L2834.25 1687.01 L2859.49 1684.54 L2884.86 1682.31 L2910.11 1680.21 L2935.47 1678.23 L2960.72 1676.25 L2986.09 1674.39 L3011.46 1672.53 L3036.70 1670.68 L3062.07 1668.70 L3087.32 1666.72 L3112.68 1664.49 L3137.93 1662.14 L3163.30 1659.54 L3188.54 1656.57 L3213.91 1653.35 L3239.16 1649.64 L3264.53 1645.43 L3289.77 1640.98 L3315.14 1635.90 L3340.38 1630.33 L3365.75 1624.27 L3391.00 1617.59 L3416.37 1610.29 L3441.61 1602.24 L3466.98 1593.58 L3492.22 1584.30 L3517.59 1574.03 L3542.84 1563.01 L3568.21 1551.01 L3593.45 1538.14 L3618.82 1524.15 L3644.07 1509.05 L3669.43 1492.97 L3694.68 1475.52 L3720.05 1456.83 L3745.42 1436.78 L3770.66 1415.37 L3770.66 1356.71 L3745.42 1381.96 L3720.05 1405.47 L3694.68 1427.38 L3669.43 1447.80 L3644.07 1466.73 L3618.82 1484.18 L3593.45 1500.52 L3568.21 1515.61 L3542.84 1529.47 L3517.59 1542.34 L3492.22 1554.22 L3466.98 1565.24 L3441.61 1575.26 L3416.37 1584.54 L3391.00 1593.08 L3365.75 1600.88 L3340.38 1608.06 L3315.14 1614.49 L3289.77 1620.43 L3264.53 1625.75 L3239.16 1630.70 L3213.91 1635.04 L3188.54 1638.87 L3163.30 1642.21 L3137.93 1645.31 L3112.68 1648.03 L3087.32 1650.51 L3062.07 1652.86 L3036.70 1654.96 L3011.46 1657.06 L2986.09 1659.17 L2960.72 1661.27 L2935.47 1663.38 L2910.11 1665.73 L2884.86 1668.08 L2859.49 1670.68 L2834.25 1673.40 L2808.88 1676.37 L2783.63 1679.46 L2758.26 1682.81 L2733.02 1686.39 L2707.65 1690.23 L2682.41 1693.94 L2657.04 1697.90 L2631.79 1701.74 L2606.42 1705.45 L2581.18 1709.16 L2555.81 1712.75 L2530.56 1716.22 L2505.20 1719.44 L2479.95 1722.65 L2454.58 1725.50 L2429.34 1728.22 L2403.97 1730.82 L2378.72 1733.30 L2353.35 1735.52 L2328.11 1737.50 L2302.74 1739.48 L2277.49 1741.22 L2252.13 1742.83 L2226.88 1744.31 L2201.51 1745.67 L2201.51 1750.13 Z" stroke-linejoin="round"/>
	</defs>
	<defs>
		<clipPath id="clipPath_xGEDVZEK">
			<use xlink:href="#path_FLZuOOjC"/>
		</clipPath>
	</defs>
	<use xlink:href="#path_FLZuOOjC" style="stroke:none;fill:#E6E6E6"/>
	<use xlink:href="#path_FLZuOOjC" style="fill:none;stroke:#E0E0E0;stroke-width:14.69" clip-path="url(#clipPath_xGEDVZEK)"/>
	<defs>
		<path id="path_KikUOlJM" d="M2201.51 1730.33 L2201.51 1730.33 L2226.88 1727.36 L2252.13 1724.02 L2277.49 1720.43 L2302.74 1716.47 L2328.11 1712.13 L2353.35 1707.43 L2378.72 1702.36 L2403.97 1696.91 L2429.34 1691.10 L2454.58 1684.91 L2479.95 1678.35 L2505.20 1671.42 L2530.56 1664.12 L2555.81 1656.57 L2581.18 1648.77 L2606.42 1640.61 L2631.79 1632.44 L2657.04 1624.15 L2682.41 1615.85 L2707.65 1607.69 L2733.02 1599.64 L2758.26 1591.97 L2783.63 1584.79 L2808.88 1577.99 L2834.25 1571.55 L2859.49 1565.49 L2884.86 1559.92 L2910.11 1554.60 L2935.47 1549.65 L2960.72 1544.82 L2986.09 1540.12 L3011.46 1535.41 L3036.70 1530.71 L3062.07 1526.01 L3087.32 1520.94 L3112.68 1515.49 L3137.93 1509.55 L3163.30 1502.99 L3188.54 1495.57 L3213.91 1487.27 L3239.16 1477.87 L3264.53 1467.47 L3289.77 1455.96 L3315.14 1443.22 L3340.38 1429.23 L3365.75 1413.76 L3391.00 1396.93 L3416.37 1378.62 L3441.61 1358.57 L3466.98 1336.79 L3492.22 1313.03 L3517.59 1287.41 L3542.84 1259.57 L3568.21 1229.49 L3593.45 1196.95 L3618.82 1161.93 L3644.07 1124.06 L3669.43 1083.34 L3694.68 1039.53 L3720.05 992.38 L3745.42 942.01 L3770.66 887.93 L3770.66 409.01 L3745.42 492.79 L3720.05 571.00 L3694.68 643.89 L3669.43 711.71 L3644.07 774.82 L3618.82 833.36 L3593.45 887.56 L3568.21 937.93 L3542.84 984.46 L3517.59 1027.40 L3492.22 1067.13 L3466.98 1103.76 L3441.61 1137.42 L3416.37 1168.36 L3391.00 1196.82 L3365.75 1222.94 L3340.38 1246.70 L3315.14 1268.48 L3289.77 1288.28 L3264.53 1306.10 L3239.16 1322.31 L3213.91 1336.67 L3188.54 1349.66 L3163.30 1361.05 L3137.93 1371.19 L3112.68 1380.35 L3087.32 1388.64 L3062.07 1396.44 L3036.70 1403.74 L3011.46 1410.92 L2986.09 1417.97 L2960.72 1425.03 L2935.47 1432.33 L2910.11 1440.00 L2884.86 1448.04 L2859.49 1456.71 L2834.25 1465.86 L2808.88 1475.76 L2783.63 1486.28 L2758.26 1497.55 L2733.02 1509.55 L2707.65 1521.93 L2682.41 1534.67 L2657.04 1547.54 L2631.79 1560.41 L2606.42 1573.16 L2581.18 1585.53 L2555.81 1597.54 L2530.56 1609.17 L2505.20 1620.31 L2479.95 1630.83 L2454.58 1640.73 L2429.34 1650.13 L2403.97 1658.80 L2378.72 1666.96 L2353.35 1674.51 L2328.11 1681.57 L2302.74 1688.00 L2277.49 1693.94 L2252.13 1699.39 L2226.88 1704.34 L2201.51 1708.92 L2201.51 1730.33 Z" stroke-linejoin="round"/>
	</defs>
	<defs>
		<clipPath id="clipPath_dmDeagLR">
			<use xlink:href="#path_KikUOlJM"/>
		</clipPath>
	</defs>
	<use xlink:href="#path_KikUOlJM" style="stroke:none;fill:#E6E6E6"/>
	<use xlink:href="#path_KikUOlJM" style="fill:none;stroke:#E0E0E0;stroke-width:14.69" clip-path="url(#clipPath_dmDeagLR)"/>
	<defs>
		<path id="path_lPkYqOyg" d="M2201.51 1734.53 L2201.51 1734.53 L2226.88 1731.81 L2252.13 1728.84 L2277.49 1725.62 L2302.74 1722.16 L2328.11 1718.32 L2353.35 1714.11 L2378.72 1709.66 L2403.97 1704.83 L2429.34 1699.76 L2454.58 1694.19 L2479.95 1688.37 L2505.20 1682.19 L2530.56 1675.75 L2555.81 1669.07 L2581.18 1662.14 L2606.42 1654.96 L2631.79 1647.78 L2657.04 1640.48 L2682.41 1633.18 L2707.65 1625.88 L2733.02 1618.82 L2758.26 1612.14 L2783.63 1605.71 L2808.88 1599.64 L2834.25 1594.07 L2859.49 1588.75 L2884.86 1583.68 L2910.11 1579.10 L2935.47 1574.64 L2960.72 1570.31 L2986.09 1566.11 L3011.46 1562.02 L3036.70 1557.94 L3062.07 1553.61 L3087.32 1549.15 L3112.68 1544.32 L3137.93 1539.13 L3163.30 1533.31 L3188.54 1526.75 L3213.91 1519.45 L3239.16 1511.16 L3264.53 1502.00 L3289.77 1491.73 L3315.14 1480.59 L3340.38 1468.09 L3365.75 1454.60 L3391.00 1439.75 L3416.37 1423.42 L3441.61 1405.72 L3466.98 1386.54 L3492.22 1365.62 L3517.59 1342.98 L3542.84 1318.35 L3568.21 1291.74 L3593.45 1263.03 L3618.82 1232.09 L3644.07 1198.68 L3669.43 1162.67 L3694.68 1123.93 L3720.05 1082.48 L3745.42 1037.92 L3770.66 990.15 L3770.66 720.99 L3745.42 785.59 L3720.05 845.86 L3694.68 902.04 L3669.43 954.27 L3644.07 1002.78 L3618.82 1047.95 L3593.45 1089.65 L3568.21 1128.39 L3542.84 1164.15 L3517.59 1197.19 L3492.22 1227.76 L3466.98 1255.98 L3441.61 1281.84 L3416.37 1305.73 L3391.00 1327.51 L3365.75 1347.56 L3340.38 1366.00 L3315.14 1382.70 L3289.77 1397.80 L3264.53 1411.66 L3239.16 1424.04 L3213.91 1435.17 L3188.54 1445.07 L3163.30 1453.86 L3137.93 1461.66 L3112.68 1468.71 L3087.32 1475.02 L3062.07 1480.96 L3036.70 1486.66 L3011.46 1492.10 L2986.09 1497.55 L2960.72 1502.99 L2935.47 1508.56 L2910.11 1514.38 L2884.86 1520.56 L2859.49 1527.12 L2834.25 1534.18 L2808.88 1541.85 L2783.63 1549.89 L2758.26 1558.56 L2733.02 1567.84 L2707.65 1577.37 L2682.41 1587.14 L2657.04 1597.04 L2631.79 1606.94 L2606.42 1616.72 L2581.18 1626.25 L2555.81 1635.53 L2530.56 1644.44 L2505.20 1652.86 L2479.95 1660.90 L2454.58 1668.57 L2429.34 1675.75 L2403.97 1682.43 L2378.72 1688.62 L2353.35 1694.44 L2328.11 1699.76 L2302.74 1704.71 L2277.49 1709.16 L2252.13 1713.37 L2226.88 1717.21 L2201.51 1720.80 L2201.51 1734.53 Z" stroke-linejoin="round"/>
	</defs>
	<defs>
		<clipPath id="clipPath_eJYhtdgJ">
			<use xlink:href="#path_lPkYqOyg"/>
		</clipPath>
	</defs>
	<use xlink:href="#path_lPkYqOyg" style="stroke:none;fill:#E6E6E6"/>
	<use xlink:href="#path_lPkYqOyg" style="fill:none;stroke:#E0E0E0;stroke-width:14.69" clip-path="url(#clipPath_eJYhtdgJ)"/>
	<defs>
		<path id="path_PtxNrtgh" d="M2201.51 1744.81 L2201.51 1744.81 L2226.88 1743.20 L2252.13 1741.34 L2277.49 1739.24 L2302.74 1737.01 L2328.11 1734.66 L2353.35 1732.06 L2378.72 1729.21 L2403.97 1726.12 L2429.34 1722.90 L2454.58 1719.44 L2479.95 1715.72 L2505.20 1711.89 L2530.56 1707.80 L2555.81 1703.60 L2581.18 1699.14 L2606.42 1694.69 L2631.79 1690.11 L2657.04 1685.40 L2682.41 1680.83 L2707.65 1676.25 L2733.02 1671.91 L2758.26 1667.58 L2783.63 1663.50 L2808.88 1659.79 L2834.25 1656.20 L2859.49 1652.86 L2884.86 1649.76 L2910.11 1646.79 L2935.47 1643.95 L2960.72 1641.22 L2986.09 1638.62 L3011.46 1636.03 L3036.70 1633.43 L3062.07 1630.70 L3087.32 1627.86 L3112.68 1624.89 L3137.93 1621.55 L3163.30 1617.83 L3188.54 1613.75 L3213.91 1609.17 L3239.16 1603.97 L3264.53 1598.16 L3289.77 1591.72 L3315.14 1584.67 L3340.38 1576.87 L3365.75 1568.21 L3391.00 1558.80 L3416.37 1548.66 L3441.61 1537.52 L3466.98 1525.27 L3492.22 1512.15 L3517.59 1497.79 L3542.84 1482.32 L3568.21 1465.49 L3593.45 1447.43 L3618.82 1427.87 L3644.07 1406.71 L3669.43 1384.06 L3694.68 1359.68 L3720.05 1333.45 L3745.42 1305.23 L3770.66 1275.16 L3770.66 1126.41 L3745.42 1165.89 L3720.05 1202.76 L3694.68 1237.04 L3669.43 1268.97 L3644.07 1298.67 L3618.82 1326.15 L3593.45 1351.64 L3568.21 1375.28 L3542.84 1397.18 L3517.59 1417.35 L3492.22 1436.04 L3466.98 1453.24 L3441.61 1469.08 L3416.37 1483.69 L3391.00 1497.05 L3365.75 1509.18 L3340.38 1520.44 L3315.14 1530.59 L3289.77 1539.87 L3264.53 1548.28 L3239.16 1555.83 L3213.91 1562.64 L3188.54 1568.70 L3163.30 1574.15 L3137.93 1578.85 L3112.68 1583.18 L3087.32 1587.02 L3062.07 1590.73 L3036.70 1594.20 L3011.46 1597.41 L2986.09 1600.76 L2960.72 1604.10 L2935.47 1607.44 L2910.11 1611.03 L2884.86 1614.86 L2859.49 1618.82 L2834.25 1623.16 L2808.88 1627.73 L2783.63 1632.68 L2758.26 1638.01 L2733.02 1643.58 L2707.65 1649.52 L2682.41 1655.46 L2657.04 1661.52 L2631.79 1667.58 L2606.42 1673.52 L2581.18 1679.34 L2555.81 1684.91 L2530.56 1690.35 L2505.20 1695.55 L2479.95 1700.38 L2454.58 1705.08 L2429.34 1709.41 L2403.97 1713.50 L2378.72 1717.21 L2353.35 1720.80 L2328.11 1724.02 L2302.74 1726.99 L2277.49 1729.83 L2252.13 1732.31 L2226.88 1734.66 L2201.51 1736.89 L2201.51 1744.81 Z" stroke-linejoin="round"/>
	</defs>
	<defs>
		<clipPath id="clipPath_JZqPChRb">
			<use xlink:href="#path_PtxNrtgh"/>
		</clipPath>
	</defs>
	<use xlink:href="#path_PtxNrtgh" style="stroke:none;fill:#E6E6E6"/>
	<use xlink:href="#path_PtxNrtgh" style="fill:none;stroke:#E0E0E0;stroke-width:14.69" clip-path="url(#clipPath_JZqPChRb)"/>
	<path d=" M2201.39 1734.66 L2226.76 1732.18 L2252.13 1729.34 L2277.37 1726.37 L2302.74 1723.15 L2327.99 1719.56 L2353.35 1715.72 L2378.60 1711.64 L2403.97 1707.18 L2429.21 1702.36 L2454.58 1697.28 L2479.83 1691.84 L2505.20 1686.02 L2530.44 1680.08 L2555.81 1673.77 L2581.05 1667.21 L2606.42 1660.53 L2631.67 1653.60 L2657.04 1646.67 L2682.28 1639.74 L2707.65 1632.93 L2732.89 1626.25 L2758.26 1619.81 L2783.51 1613.75 L2808.88 1607.93 L2834.12 1602.61 L2859.49 1597.66 L2884.74 1592.96 L2910.11 1588.63 L2935.35 1584.42 L2960.72 1580.46 L2986.09 1576.62 L3011.33 1572.79 L3036.70 1568.83 L3061.95 1564.87 L3087.32 1560.66 L3112.56 1556.08 L3137.93 1551.13 L3163.17 1545.69 L3188.54 1539.50 L3213.79 1532.57 L3239.16 1524.77 L3264.40 1515.98 L3289.77 1506.33 L3315.01 1495.69 L3340.38 1483.93 L3365.63 1471.06 L3391.00 1457.08 L3416.24 1441.73 L3441.61 1424.90 L3466.86 1406.71 L3492.22 1386.91 L3517.47 1365.50 L3542.84 1342.23 L3568.08 1317.11 L3593.45 1289.89 L3618.70 1260.56 L3644.07 1228.88 L3669.31 1194.72 L3694.68 1158.09 L3719.93 1118.73 L3745.29 1076.41 L3770.66 1031.12" stroke-linejoin="round" style="fill:none;stroke:#008000;stroke-width:7.34"/>
	<path d=" M2201.39 1746.04 L2226.76 1744.56 L2252.13 1742.95 L2277.37 1741.22 L2302.74 1739.24 L2327.99 1737.13 L2353.35 1734.91 L2378.60 1732.43 L2403.97 1729.83 L2429.21 1726.99 L2454.58 1724.02 L2479.83 1720.80 L2505.20 1717.46 L2530.44 1713.87 L2555.81 1710.15 L2581.05 1706.32 L2606.42 1702.36 L2631.67 1698.27 L2657.04 1694.19 L2682.28 1690.11 L2707.65 1686.15 L2732.89 1682.19 L2758.26 1678.35 L2783.51 1674.76 L2808.88 1671.42 L2834.12 1668.33 L2859.49 1665.36 L2884.74 1662.63 L2910.11 1660.03 L2935.35 1657.56 L2960.72 1655.21 L2986.09 1652.86 L3011.33 1650.63 L3036.70 1648.40 L3061.95 1646.05 L3087.32 1643.58 L3112.56 1640.85 L3137.93 1637.88 L3163.17 1634.66 L3188.54 1631.08 L3213.79 1626.99 L3239.16 1622.41 L3264.40 1617.22 L3289.77 1611.52 L3315.01 1605.21 L3340.38 1598.28 L3365.63 1590.73 L3391.00 1582.44 L3416.24 1573.41 L3441.61 1563.51 L3466.86 1552.74 L3492.22 1541.11 L3517.47 1528.48 L3542.84 1514.75 L3568.08 1499.90 L3593.45 1483.93 L3618.70 1466.61 L3644.07 1447.92 L3669.31 1427.75 L3694.68 1406.22 L3719.93 1382.95 L3745.29 1357.95 L3770.66 1331.22" stroke-linejoin="round" style="fill:none;stroke:#55752F;stroke-width:7.34"/>
	<path d=" M2201.39 1748.15 L2226.76 1746.91 L2252.13 1745.42 L2277.37 1743.94 L2302.74 1742.21 L2327.99 1740.47 L2353.35 1738.49 L2378.60 1736.39 L2403.97 1734.04 L2429.21 1731.56 L2454.58 1728.97 L2479.83 1726.24 L2505.20 1723.27 L2530.44 1720.18 L2555.81 1716.96 L2581.05 1713.62 L2606.42 1710.15 L2631.67 1706.69 L2657.04 1703.10 L2682.28 1699.51 L2707.65 1696.05 L2732.89 1692.58 L2758.26 1689.24 L2783.51 1686.15 L2808.88 1683.30 L2834.12 1680.45 L2859.49 1677.98 L2884.74 1675.50 L2910.11 1673.28 L2935.35 1671.17 L2960.72 1669.07 L2986.09 1667.09 L3011.33 1665.11 L3036.70 1663.13 L3061.95 1661.15 L3087.32 1658.92 L3112.56 1656.69 L3137.93 1654.09 L3163.17 1651.25 L3188.54 1648.15 L3213.79 1644.57 L3239.16 1640.61 L3264.40 1636.15 L3289.77 1631.20 L3315.01 1625.63 L3340.38 1619.69 L3365.63 1613.01 L3391.00 1605.83 L3416.24 1597.91 L3441.61 1589.37 L3466.86 1580.09 L3492.22 1569.94 L3517.47 1558.93 L3542.84 1546.92 L3568.08 1534.05 L3593.45 1520.07 L3618.70 1504.97 L3644.07 1488.76 L3669.31 1471.31 L3694.68 1452.50 L3719.93 1432.20 L3745.29 1410.55 L3770.66 1387.28" stroke-linejoin="round" style="fill:none;stroke:#00FF00;stroke-width:7.34"/>
	<path d=" M2201.39 1721.05 L2226.76 1717.33 L2252.13 1713.25 L2277.37 1708.79 L2302.74 1703.97 L2327.99 1698.65 L2353.35 1692.95 L2378.60 1686.77 L2403.97 1680.08 L2429.21 1673.03 L2454.58 1665.36 L2479.83 1657.31 L2505.20 1648.77 L2530.44 1639.74 L2555.81 1630.33 L2581.05 1620.68 L2606.42 1610.66 L2631.67 1600.39 L2657.04 1590.11 L2682.28 1579.84 L2707.65 1569.57 L2732.89 1559.67 L2758.26 1550.02 L2783.51 1540.98 L2808.88 1532.57 L2834.12 1524.52 L2859.49 1517.10 L2884.74 1510.17 L2910.11 1503.61 L2935.35 1497.42 L2960.72 1491.48 L2986.09 1485.79 L3011.33 1479.97 L3036.70 1474.28 L3061.95 1468.34 L3087.32 1462.03 L3112.56 1455.22 L3137.93 1447.92 L3163.17 1439.75 L3188.54 1430.59 L3213.79 1420.20 L3239.16 1408.57 L3264.40 1395.70 L3289.77 1381.22 L3315.01 1365.38 L3340.38 1347.93 L3365.63 1328.75 L3391.00 1307.83 L3416.24 1284.94 L3441.61 1260.06 L3466.86 1232.96 L3492.22 1203.51 L3517.47 1171.58 L3542.84 1137.05 L3568.08 1099.55 L3593.45 1059.09 L3618.70 1015.52 L3644.07 968.37 L3669.31 917.76 L3694.68 863.18 L3719.93 804.65 L3745.29 741.78 L3770.66 674.46" stroke-linejoin="round" style="fill:none;stroke:#FFD200;stroke-width:7.34"/>
	<path d=" M2201.39 1728.35 L2226.76 1725.25 L2252.13 1721.91 L2277.37 1718.20 L2302.74 1714.24 L2327.99 1709.91 L2353.35 1705.20 L2378.60 1700.13 L2403.97 1694.56 L2429.21 1688.75 L2454.58 1682.43 L2479.83 1675.75 L2505.20 1668.82 L2530.44 1661.40 L2555.81 1653.60 L2581.05 1645.68 L2606.42 1637.39 L2631.67 1628.97 L2657.04 1620.43 L2682.28 1611.89 L2707.65 1603.48 L2732.89 1595.31 L2758.26 1587.39 L2783.51 1579.97 L2808.88 1573.04 L2834.12 1566.48 L2859.49 1560.29 L2884.74 1554.60 L2910.11 1549.27 L2935.35 1544.08 L2960.72 1539.25 L2986.09 1534.42 L3011.33 1529.72 L3036.70 1525.02 L3061.95 1520.07 L3087.32 1514.87 L3112.56 1509.30 L3137.93 1503.24 L3163.17 1496.56 L3188.54 1489.01 L3213.79 1480.47 L3239.16 1470.94 L3264.40 1460.17 L3289.77 1448.42 L3315.01 1435.30 L3340.38 1420.94 L3365.63 1405.10 L3391.00 1387.90 L3416.24 1368.97 L3441.61 1348.42 L3466.86 1326.15 L3492.22 1301.89 L3517.47 1275.53 L3542.84 1247.07 L3568.08 1216.25 L3593.45 1182.84 L3618.70 1146.83 L3644.07 1108.09 L3669.31 1066.26 L3694.68 1021.34 L3719.93 972.95 L3745.29 921.22 L3770.66 865.66" stroke-linejoin="round" style="fill:none;stroke:#FF7F00;stroke-width:7.34"/>
	<path d=" M2201.39 1741.22 L2226.76 1739.36 L2252.13 1737.26 L2277.37 1735.03 L2302.74 1732.55 L2327.99 1729.83 L2353.35 1726.86 L2378.60 1723.77 L2403.97 1720.30 L2429.21 1716.71 L2454.58 1712.75 L2479.83 1708.67 L2505.20 1704.34 L2530.44 1699.76 L2555.81 1694.93 L2581.05 1689.98 L2606.42 1684.91 L2631.67 1679.59 L2657.04 1674.39 L2682.28 1669.07 L2707.65 1663.87 L2732.89 1658.80 L2758.26 1653.85 L2783.51 1649.27 L2808.88 1644.94 L2834.12 1640.85 L2859.49 1637.02 L2884.74 1633.55 L2910.11 1630.21 L2935.35 1626.99 L2960.72 1623.90 L2986.09 1621.05 L3011.33 1618.08 L3036.70 1615.11 L3061.95 1612.14 L3087.32 1608.92 L3112.56 1605.46 L3137.93 1601.62 L3163.17 1597.54 L3188.54 1592.84 L3213.79 1587.51 L3239.16 1581.57 L3264.40 1574.89 L3289.77 1567.59 L3315.01 1559.42 L3340.38 1550.51 L3365.63 1540.74 L3391.00 1530.09 L3416.24 1518.34 L3441.61 1505.59 L3466.86 1491.73 L3492.22 1476.63 L3517.47 1460.30 L3542.84 1442.60 L3568.08 1423.54 L3593.45 1402.75 L3618.70 1380.47 L3644.07 1356.34 L3669.31 1330.35 L3694.68 1302.51 L3719.93 1272.44 L3745.29 1240.26 L3770.66 1205.73" stroke-linejoin="round" style="fill:none;stroke:#9C8847;stroke-width:7.34"/>
	<path d=" M2201.39 1749.38 L2226.76 1748.15 L2252.13 1746.91 L2277.37 1745.42 L2302.74 1743.94 L2327.99 1742.21 L2353.35 1740.47 L2378.60 1738.49 L2403.97 1736.39 L2429.21 1734.16 L2454.58 1731.81 L2479.83 1729.21 L2505.20 1726.49 L2530.44 1723.64 L2555.81 1720.67 L2581.05 1717.70 L2606.42 1714.49 L2631.67 1711.27 L2657.04 1708.05 L2682.28 1704.71 L2707.65 1701.49 L2732.89 1698.40 L2758.26 1695.30 L2783.51 1692.46 L2808.88 1689.86 L2834.12 1687.26 L2859.49 1684.91 L2884.74 1682.81 L2910.11 1680.70 L2935.35 1678.72 L2960.72 1676.86 L2986.09 1675.01 L3011.33 1673.28 L3036.70 1671.42 L3061.95 1669.56 L3087.32 1667.58 L3112.56 1665.48 L3137.93 1663.13 L3163.17 1660.53 L3188.54 1657.68 L3213.79 1654.34 L3239.16 1650.63 L3264.40 1646.55 L3289.77 1642.09 L3315.01 1637.02 L3340.38 1631.57 L3365.63 1625.51 L3391.00 1618.82 L3416.24 1611.65 L3441.61 1603.73 L3466.86 1595.19 L3492.22 1585.91 L3517.47 1575.76 L3542.84 1564.87 L3568.08 1552.99 L3593.45 1540.24 L3618.70 1526.38 L3644.07 1511.53 L3669.31 1495.44 L3694.68 1478.24 L3719.93 1459.68 L3745.29 1439.75 L3770.66 1418.47" stroke-linejoin="round" style="fill:none;stroke:#1A476F;stroke-width:7.34"/>
	<line x1="2201.39" y1="1618.82" x2="2204.24" y2="1618.82" style="stroke:#000000;stroke-width:7.34"/>
	<line x1="2224.41" y1="1618.82" x2="2226.76" y2="1618.82" style="stroke:#000000;stroke-width:7.34"/>
	<line x1="2226.76" y1="1618.82" x2="2227.25" y2="1618.82" style="stroke:#000000;stroke-width:7.34"/>
	<line x1="2247.42" y1="1618.82" x2="2250.27" y2="1618.82" style="stroke:#000000;stroke-width:7.34"/>
	<line x1="2270.44" y1="1618.82" x2="2273.29" y2="1618.82" style="stroke:#000000;stroke-width:7.34"/>
	<line x1="2293.46" y1="1618.82" x2="2296.43" y2="1618.82" style="stroke:#000000;stroke-width:7.34"/>
	<line x1="2316.60" y1="1618.82" x2="2319.45" y2="1618.82" style="stroke:#000000;stroke-width:7.34"/>
	<line x1="2339.62" y1="1618.82" x2="2342.46" y2="1618.82" style="stroke:#000000;stroke-width:7.34"/>
	<line x1="2362.64" y1="1618.82" x2="2365.48" y2="1618.82" style="stroke:#000000;stroke-width:7.34"/>
	<line x1="2385.65" y1="1618.82" x2="2388.50" y2="1618.82" style="stroke:#000000;stroke-width:7.34"/>
	<line x1="2408.67" y1="1618.82" x2="2411.52" y2="1618.82" style="stroke:#000000;stroke-width:7.34"/>
	<line x1="2431.69" y1="1618.82" x2="2434.53" y2="1618.82" style="stroke:#000000;stroke-width:7.34"/>
	<line x1="2454.70" y1="1618.82" x2="2457.55" y2="1618.82" style="stroke:#000000;stroke-width:7.34"/>
	<line x1="2477.72" y1="1618.82" x2="2479.83" y2="1618.82" style="stroke:#000000;stroke-width:7.34"/>
	<line x1="2479.83" y1="1618.82" x2="2480.57" y2="1618.82" style="stroke:#000000;stroke-width:7.34"/>
	<line x1="2500.74" y1="1618.82" x2="2503.59" y2="1618.82" style="stroke:#000000;stroke-width:7.34"/>
	<line x1="2523.76" y1="1618.82" x2="2526.60" y2="1618.82" style="stroke:#000000;stroke-width:7.34"/>
	<line x1="2546.78" y1="1618.82" x2="2549.74" y2="1618.82" style="stroke:#000000;stroke-width:7.34"/>
	<line x1="2569.92" y1="1618.82" x2="2572.76" y2="1618.82" style="stroke:#000000;stroke-width:7.34"/>
	<line x1="2592.93" y1="1618.82" x2="2595.78" y2="1618.82" style="stroke:#000000;stroke-width:7.34"/>
	<line x1="2615.95" y1="1618.82" x2="2618.80" y2="1618.82" style="stroke:#000000;stroke-width:7.34"/>
	<line x1="2638.97" y1="1618.82" x2="2641.82" y2="1618.82" style="stroke:#000000;stroke-width:7.34"/>
	<line x1="2661.99" y1="1618.82" x2="2664.83" y2="1618.82" style="stroke:#000000;stroke-width:7.34"/>
	<line x1="2685.00" y1="1618.82" x2="2687.85" y2="1618.82" style="stroke:#000000;stroke-width:7.34"/>
	<line x1="2708.02" y1="1618.82" x2="2710.87" y2="1618.82" style="stroke:#000000;stroke-width:7.34"/>
	<line x1="2731.04" y1="1618.82" x2="2732.89" y2="1618.82" style="stroke:#000000;stroke-width:7.34"/>
	<line x1="2732.89" y1="1618.82" x2="2733.89" y2="1618.82" style="stroke:#000000;stroke-width:7.34"/>
	<line x1="2754.06" y1="1618.82" x2="2756.90" y2="1618.82" style="stroke:#000000;stroke-width:7.34"/>
	<line x1="2777.07" y1="1618.82" x2="2779.92" y2="1618.82" style="stroke:#000000;stroke-width:7.34"/>
	<line x1="2800.09" y1="1618.82" x2="2803.06" y2="1618.82" style="stroke:#000000;stroke-width:7.34"/>
	<line x1="2823.23" y1="1618.82" x2="2826.08" y2="1618.82" style="stroke:#000000;stroke-width:7.34"/>
	<line x1="2846.25" y1="1618.82" x2="2849.10" y2="1618.82" style="stroke:#000000;stroke-width:7.34"/>
	<line x1="2869.27" y1="1618.82" x2="2872.11" y2="1618.82" style="stroke:#000000;stroke-width:7.34"/>
	<line x1="2892.28" y1="1618.82" x2="2895.13" y2="1618.82" style="stroke:#000000;stroke-width:7.34"/>
	<line x1="2915.30" y1="1618.82" x2="2918.15" y2="1618.82" style="stroke:#000000;stroke-width:7.34"/>
	<line x1="2938.32" y1="1618.82" x2="2941.17" y2="1618.82" style="stroke:#000000;stroke-width:7.34"/>
	<line x1="2961.34" y1="1618.82" x2="2964.18" y2="1618.82" style="stroke:#000000;stroke-width:7.34"/>
	<line x1="2984.36" y1="1618.82" x2="2986.09" y2="1618.82" style="stroke:#000000;stroke-width:7.34"/>
	<line x1="2986.09" y1="1618.82" x2="2987.20" y2="1618.82" style="stroke:#000000;stroke-width:7.34"/>
	<line x1="3007.37" y1="1618.82" x2="3010.22" y2="1618.82" style="stroke:#000000;stroke-width:7.34"/>
	<line x1="3030.39" y1="1618.82" x2="3033.36" y2="1618.82" style="stroke:#000000;stroke-width:7.34"/>
	<line x1="3053.41" y1="1618.82" x2="3056.38" y2="1618.82" style="stroke:#000000;stroke-width:7.34"/>
	<line x1="3076.55" y1="1618.82" x2="3079.39" y2="1618.82" style="stroke:#000000;stroke-width:7.34"/>
	<line x1="3099.57" y1="1618.82" x2="3102.41" y2="1618.82" style="stroke:#000000;stroke-width:7.34"/>
	<line x1="3122.58" y1="1618.82" x2="3125.43" y2="1618.82" style="stroke:#000000;stroke-width:7.34"/>
	<line x1="3145.60" y1="1618.82" x2="3148.45" y2="1618.82" style="stroke:#000000;stroke-width:7.34"/>
	<line x1="3168.62" y1="1618.82" x2="3171.47" y2="1618.82" style="stroke:#000000;stroke-width:7.34"/>
	<line x1="3191.64" y1="1618.82" x2="3194.48" y2="1618.82" style="stroke:#000000;stroke-width:7.34"/>
	<line x1="3214.65" y1="1618.82" x2="3217.50" y2="1618.82" style="stroke:#000000;stroke-width:7.34"/>
	<line x1="3237.67" y1="1618.82" x2="3239.16" y2="1618.82" style="stroke:#000000;stroke-width:7.34"/>
	<line x1="3239.16" y1="1618.82" x2="3240.52" y2="1618.82" style="stroke:#000000;stroke-width:7.34"/>
	<line x1="3260.69" y1="1618.82" x2="3263.53" y2="1618.82" style="stroke:#000000;stroke-width:7.34"/>
	<line x1="3283.71" y1="1618.82" x2="3286.68" y2="1618.82" style="stroke:#000000;stroke-width:7.34"/>
	<line x1="3306.72" y1="1618.82" x2="3309.69" y2="1618.82" style="stroke:#000000;stroke-width:7.34"/>
	<line x1="3329.86" y1="1618.82" x2="3332.71" y2="1618.82" style="stroke:#000000;stroke-width:7.34"/>
	<line x1="3352.88" y1="1618.82" x2="3355.73" y2="1618.82" style="stroke:#000000;stroke-width:7.34"/>
	<line x1="3375.90" y1="1618.82" x2="3378.75" y2="1618.82" style="stroke:#000000;stroke-width:7.34"/>
	<line x1="3398.92" y1="1618.82" x2="3401.76" y2="1618.82" style="stroke:#000000;stroke-width:7.34"/>
	<line x1="3421.93" y1="1618.82" x2="3424.78" y2="1618.82" style="stroke:#000000;stroke-width:7.34"/>
	<line x1="3444.95" y1="1618.82" x2="3447.80" y2="1618.82" style="stroke:#000000;stroke-width:7.34"/>
	<line x1="3467.97" y1="1618.82" x2="3470.82" y2="1618.82" style="stroke:#000000;stroke-width:7.34"/>
	<line x1="3490.99" y1="1618.82" x2="3492.22" y2="1618.82" style="stroke:#000000;stroke-width:7.34"/>
	<line x1="3492.22" y1="1618.82" x2="3493.83" y2="1618.82" style="stroke:#000000;stroke-width:7.34"/>
	<line x1="3514.01" y1="1618.82" x2="3516.85" y2="1618.82" style="stroke:#000000;stroke-width:7.34"/>
	<line x1="3537.02" y1="1618.82" x2="3539.99" y2="1618.82" style="stroke:#000000;stroke-width:7.34"/>
	<line x1="3560.04" y1="1618.82" x2="3563.01" y2="1618.82" style="stroke:#000000;stroke-width:7.34"/>
	<line x1="3583.18" y1="1618.82" x2="3586.03" y2="1618.82" style="stroke:#000000;stroke-width:7.34"/>
	<line x1="3606.20" y1="1618.82" x2="3609.05" y2="1618.82" style="stroke:#000000;stroke-width:7.34"/>
	<line x1="3629.22" y1="1618.82" x2="3632.06" y2="1618.82" style="stroke:#000000;stroke-width:7.34"/>
	<line x1="3652.23" y1="1618.82" x2="3655.08" y2="1618.82" style="stroke:#000000;stroke-width:7.34"/>
	<line x1="3675.25" y1="1618.82" x2="3678.10" y2="1618.82" style="stroke:#000000;stroke-width:7.34"/>
	<line x1="3698.27" y1="1618.82" x2="3701.11" y2="1618.82" style="stroke:#000000;stroke-width:7.34"/>
	<line x1="3721.29" y1="1618.82" x2="3724.13" y2="1618.82" style="stroke:#000000;stroke-width:7.34"/>
	<line x1="3744.30" y1="1618.82" x2="3745.29" y2="1618.82" style="stroke:#000000;stroke-width:7.34"/>
	<line x1="3745.29" y1="1618.82" x2="3747.15" y2="1618.82" style="stroke:#000000;stroke-width:7.34"/>
	<line x1="3767.32" y1="1618.82" x2="3770.17" y2="1618.82" style="stroke:#000000;stroke-width:7.34"/>
	<path d="" stroke-linejoin="round" style="fill:none;stroke:#000000;stroke-width:7.34"/>
	<line x1="401.69" y1="1816.09" x2="401.69" y2="258.27" style="stroke:#000000;stroke-width:4.90"/>
	<line x1="401.69" y1="1762.26" x2="367.66" y2="1762.26" style="stroke:#000000;stroke-width:4.90"/>
	<text x="350.71" y="1792.04" style="font-family:'Helvetica';font-size:85.02px;fill:#000000" text-anchor="end">0</text>
	<line x1="401.69" y1="1601.13" x2="367.66" y2="1601.13" style="stroke:#000000;stroke-width:4.90"/>
	<text x="350.71" y="1630.92" style="font-family:'Helvetica';font-size:85.02px;fill:#000000" text-anchor="end">.001</text>
	<line x1="401.69" y1="1440.00" x2="367.66" y2="1440.00" style="stroke:#000000;stroke-width:4.90"/>
	<text x="350.71" y="1469.79" style="font-family:'Helvetica';font-size:85.02px;fill:#000000" text-anchor="end">.002</text>
	<line x1="401.69" y1="1278.87" x2="367.66" y2="1278.87" style="stroke:#000000;stroke-width:4.90"/>
	<text x="350.71" y="1308.66" style="font-family:'Helvetica';font-size:85.02px;fill:#000000" text-anchor="end">.003</text>
	<line x1="401.69" y1="1117.74" x2="367.66" y2="1117.74" style="stroke:#000000;stroke-width:4.90"/>
	<text x="350.71" y="1147.53" style="font-family:'Helvetica';font-size:85.02px;fill:#000000" text-anchor="end">.004</text>
	<line x1="401.69" y1="956.62" x2="367.66" y2="956.62" style="stroke:#000000;stroke-width:4.90"/>
	<text x="350.71" y="986.40" style="font-family:'Helvetica';font-size:85.02px;fill:#000000" text-anchor="end">.005</text>
	<line x1="401.69" y1="795.49" x2="367.66" y2="795.49" style="stroke:#000000;stroke-width:4.90"/>
	<text x="350.71" y="825.28" style="font-family:'Helvetica';font-size:85.02px;fill:#000000" text-anchor="end">.006</text>
	<line x1="401.69" y1="634.36" x2="367.66" y2="634.36" style="stroke:#000000;stroke-width:4.90"/>
	<text x="350.71" y="664.15" style="font-family:'Helvetica';font-size:85.02px;fill:#000000" text-anchor="end">.007</text>
	<line x1="401.69" y1="473.23" x2="367.66" y2="473.23" style="stroke:#000000;stroke-width:4.90"/>
	<text x="350.71" y="503.02" style="font-family:'Helvetica';font-size:85.02px;fill:#000000" text-anchor="end">.008</text>
	<line x1="401.69" y1="312.11" x2="367.66" y2="312.11" style="stroke:#000000;stroke-width:4.90"/>
	<text x="350.71" y="341.89" style="font-family:'Helvetica';font-size:85.02px;fill:#000000" text-anchor="end">.009</text>
	<line x1="401.69" y1="1816.09" x2="2078.51" y2="1816.09" style="stroke:#000000;stroke-width:4.90"/>
	<line x1="506.14" y1="1816.09" x2="506.14" y2="1833.17" style="stroke:#000000;stroke-width:4.90"/>
	<line x1="632.73" y1="1816.09" x2="632.73" y2="1833.17" style="stroke:#000000;stroke-width:4.90"/>
	<line x1="759.21" y1="1816.09" x2="759.21" y2="1833.17" style="stroke:#000000;stroke-width:4.90"/>
	<line x1="885.80" y1="1816.09" x2="885.80" y2="1833.17" style="stroke:#000000;stroke-width:4.90"/>
	<line x1="1012.27" y1="1816.09" x2="1012.27" y2="1833.17" style="stroke:#000000;stroke-width:4.90"/>
	<line x1="1138.87" y1="1816.09" x2="1138.87" y2="1833.17" style="stroke:#000000;stroke-width:4.90"/>
	<line x1="1265.47" y1="1816.09" x2="1265.47" y2="1833.17" style="stroke:#000000;stroke-width:4.90"/>
	<line x1="1391.94" y1="1816.09" x2="1391.94" y2="1833.17" style="stroke:#000000;stroke-width:4.90"/>
	<line x1="1518.54" y1="1816.09" x2="1518.54" y2="1833.17" style="stroke:#000000;stroke-width:4.90"/>
	<line x1="1645.01" y1="1816.09" x2="1645.01" y2="1833.17" style="stroke:#000000;stroke-width:4.90"/>
	<line x1="1771.61" y1="1816.09" x2="1771.61" y2="1833.17" style="stroke:#000000;stroke-width:4.90"/>
	<line x1="1898.20" y1="1816.09" x2="1898.20" y2="1833.17" style="stroke:#000000;stroke-width:4.90"/>
	<line x1="2024.67" y1="1816.09" x2="2024.67" y2="1833.17" style="stroke:#000000;stroke-width:4.90"/>
	<line x1="506.14" y1="1816.09" x2="506.14" y2="1850.12" style="stroke:#000000;stroke-width:4.90"/>
	<text x="506.14" y="1926.53" style="font-family:'Helvetica';font-size:85.02px;fill:#000000" text-anchor="middle">20</text>
	<line x1="1012.27" y1="1816.09" x2="1012.27" y2="1850.12" style="stroke:#000000;stroke-width:4.90"/>
	<text x="1012.27" y="1926.53" style="font-family:'Helvetica';font-size:85.02px;fill:#000000" text-anchor="middle">40</text>
	<line x1="1518.54" y1="1816.09" x2="1518.54" y2="1850.12" style="stroke:#000000;stroke-width:4.90"/>
	<text x="1518.54" y="1926.53" style="font-family:'Helvetica';font-size:85.02px;fill:#000000" text-anchor="middle">60</text>
	<line x1="2024.67" y1="1816.09" x2="2024.67" y2="1850.12" style="stroke:#000000;stroke-width:4.90"/>
	<text x="2024.67" y="1926.53" style="font-family:'Helvetica';font-size:85.02px;fill:#000000" text-anchor="middle">80</text>
	<line x1="2147.68" y1="1816.09" x2="3824.49" y2="1816.09" style="stroke:#000000;stroke-width:4.90"/>
	<line x1="2252.13" y1="1816.09" x2="2252.13" y2="1833.17" style="stroke:#000000;stroke-width:4.90"/>
	<line x1="2378.72" y1="1816.09" x2="2378.72" y2="1833.17" style="stroke:#000000;stroke-width:4.90"/>
	<line x1="2505.20" y1="1816.09" x2="2505.20" y2="1833.17" style="stroke:#000000;stroke-width:4.90"/>
	<line x1="2631.79" y1="1816.09" x2="2631.79" y2="1833.17" style="stroke:#000000;stroke-width:4.90"/>
	<line x1="2758.26" y1="1816.09" x2="2758.26" y2="1833.17" style="stroke:#000000;stroke-width:4.90"/>
	<line x1="2884.86" y1="1816.09" x2="2884.86" y2="1833.17" style="stroke:#000000;stroke-width:4.90"/>
	<line x1="3011.46" y1="1816.09" x2="3011.46" y2="1833.17" style="stroke:#000000;stroke-width:4.90"/>
	<line x1="3137.93" y1="1816.09" x2="3137.93" y2="1833.17" style="stroke:#000000;stroke-width:4.90"/>
	<line x1="3264.53" y1="1816.09" x2="3264.53" y2="1833.17" style="stroke:#000000;stroke-width:4.90"/>
	<line x1="3391.00" y1="1816.09" x2="3391.00" y2="1833.17" style="stroke:#000000;stroke-width:4.90"/>
	<line x1="3517.59" y1="1816.09" x2="3517.59" y2="1833.17" style="stroke:#000000;stroke-width:4.90"/>
	<line x1="3644.07" y1="1816.09" x2="3644.07" y2="1833.17" style="stroke:#000000;stroke-width:4.90"/>
	<line x1="3770.66" y1="1816.09" x2="3770.66" y2="1833.17" style="stroke:#000000;stroke-width:4.90"/>
	<line x1="2252.13" y1="1816.09" x2="2252.13" y2="1850.12" style="stroke:#000000;stroke-width:4.90"/>
	<text x="2252.13" y="1926.53" style="font-family:'Helvetica';font-size:85.02px;fill:#000000" text-anchor="middle">20</text>
	<line x1="2758.26" y1="1816.09" x2="2758.26" y2="1850.12" style="stroke:#000000;stroke-width:4.90"/>
	<text x="2758.26" y="1926.53" style="font-family:'Helvetica';font-size:85.02px;fill:#000000" text-anchor="middle">40</text>
	<line x1="3264.53" y1="1816.09" x2="3264.53" y2="1850.12" style="stroke:#000000;stroke-width:4.90"/>
	<text x="3264.53" y="1926.53" style="font-family:'Helvetica';font-size:85.02px;fill:#000000" text-anchor="middle">60</text>
	<line x1="3770.66" y1="1816.09" x2="3770.66" y2="1850.12" style="stroke:#000000;stroke-width:4.90"/>
	<text x="3770.66" y="1926.53" style="font-family:'Helvetica';font-size:85.02px;fill:#000000" text-anchor="middle">80</text>
	<rect x="401.69" y="135.39" width="1676.81" height="122.89" style="fill:#D9E6EB"/>
	<rect x="404.14" y="137.83" width="1671.92" height="117.99" style="fill:none;stroke:#D9E6EB;stroke-width:4.90"/>
	<text x="1240.10" y="215.42" style="font-family:'Helvetica';font-size:93.56px;fill:#000000" text-anchor="middle">Female</text>
	<rect x="2147.68" y="135.39" width="1676.81" height="122.89" style="fill:#D9E6EB"/>
	<rect x="2150.13" y="137.83" width="1671.92" height="117.99" style="fill:none;stroke:#D9E6EB;stroke-width:4.90"/>
	<text x="2986.09" y="215.42" style="font-family:'Helvetica';font-size:93.56px;fill:#000000" text-anchor="middle">Male</text>
	<rect x="459.73" y="2138.22" width="3040.41" height="606.39" style="fill:#FFFFFF"/>
	<rect x="462.61" y="2141.10" width="3034.65" height="600.63" style="fill:none;stroke:#000000;stroke-width:5.76"/>
	<line x1="502.92" y1="2231.41" x2="877.26" y2="2231.41" style="stroke:#008000;stroke-width:8.64"/>
	<line x1="502.92" y1="2371.50" x2="877.26" y2="2371.50" style="stroke:#55752F;stroke-width:8.64"/>
	<line x1="502.92" y1="2511.46" x2="877.26" y2="2511.46" style="stroke:#00FF00;stroke-width:8.64"/>
	<line x1="502.92" y1="2651.43" x2="877.26" y2="2651.43" style="stroke:#FFD200;stroke-width:8.64"/>
	<line x1="2033.95" y1="2231.41" x2="2408.30" y2="2231.41" style="stroke:#FF7F00;stroke-width:8.64"/>
	<line x1="2033.95" y1="2371.50" x2="2408.30" y2="2371.50" style="stroke:#9C8847;stroke-width:8.64"/>
	<line x1="2033.95" y1="2511.46" x2="2408.30" y2="2511.46" style="stroke:#1A476F;stroke-width:8.64"/>
	<text x="937.28" y="2266.43" style="font-family:'Helvetica';font-size:99.99px;fill:#000000">Other cancer (&lt;1yr)</text>
	<text x="937.28" y="2406.52" style="font-family:'Helvetica';font-size:99.99px;fill:#000000">Other cancer (2-5yr)</text>
	<text x="937.28" y="2546.49" style="font-family:'Helvetica';font-size:99.99px;fill:#000000">Other cancer (&gt;5yr)</text>
	<text x="937.28" y="2686.46" style="font-family:'Helvetica';font-size:99.99px;fill:#000000">Haem. cancer (&lt;1yr)</text>
	<text x="2468.32" y="2266.43" style="font-family:'Helvetica';font-size:99.99px;fill:#000000">Haem. cancer (2-5yr)</text>
	<text x="2468.32" y="2406.52" style="font-family:'Helvetica';font-size:99.99px;fill:#000000">Haem. cancer (&gt;5yr)</text>
	<text x="2468.32" y="2546.49" style="font-family:'Helvetica';font-size:99.99px;fill:#000000">No comborbidity</text>
	<text x="1980.00" y="2073.63" style="font-family:'Helvetica';font-size:99.99px;fill:#000000" text-anchor="middle">Age (years)</text>
</svg>
