<?xml version="1.0" encoding="UTF-8" standalone="no"?>
<!-- This is a Stata 16.1 generated SVG file (http://www.stata.com) -->

<svg version="1.1" width="1600px" height="1164px" viewBox="0 0 3960 2880" xmlns="http://www.w3.org/2000/svg" xmlns:xlink="http://www.w3.org/1999/xlink">
	<desc>Stata Graph - Graph</desc>
	<rect x="0" y="0" width="3960" height="2880" style="fill:#EAF2F3;stroke:none"/>
	<rect x="0.00" y="0.00" width="3959.88" height="2880.00" style="fill:#EAF2F3"/>
	<rect x="2.88" y="2.88" width="3954.12" height="2874.24" style="fill:none;stroke:#EAF2F3;stroke-width:5.76"/>
	<rect x="401.69" y="402.82" width="1676.81" height="1553.36" style="fill:#FFFFFF"/>
	<rect x="404.14" y="405.27" width="1671.92" height="1548.46" style="fill:none;stroke:#FFFFFF;stroke-width:4.90"/>
	<line x1="401.69" y1="1902.22" x2="2078.51" y2="1902.22" style="stroke:#EAF2F3;stroke-width:7.34"/>
	<line x1="401.69" y1="1741.71" x2="2078.51" y2="1741.71" style="stroke:#EAF2F3;stroke-width:7.34"/>
	<line x1="401.69" y1="1581.08" x2="2078.51" y2="1581.08" style="stroke:#EAF2F3;stroke-width:7.34"/>
	<line x1="401.69" y1="1420.45" x2="2078.51" y2="1420.45" style="stroke:#EAF2F3;stroke-width:7.34"/>
	<line x1="401.69" y1="1259.81" x2="2078.51" y2="1259.81" style="stroke:#EAF2F3;stroke-width:7.34"/>
	<line x1="401.69" y1="1099.18" x2="2078.51" y2="1099.18" style="stroke:#EAF2F3;stroke-width:7.34"/>
	<line x1="401.69" y1="938.55" x2="2078.51" y2="938.55" style="stroke:#EAF2F3;stroke-width:7.34"/>
	<line x1="401.69" y1="777.92" x2="2078.51" y2="777.92" style="stroke:#EAF2F3;stroke-width:7.34"/>
	<line x1="401.69" y1="617.28" x2="2078.51" y2="617.28" style="stroke:#EAF2F3;stroke-width:7.34"/>
	<rect x="2147.68" y="402.82" width="1676.81" height="1553.36" style="fill:#FFFFFF"/>
	<rect x="2150.13" y="405.27" width="1671.92" height="1548.46" style="fill:none;stroke:#FFFFFF;stroke-width:4.90"/>
	<line x1="2147.68" y1="1902.22" x2="3824.49" y2="1902.22" style="stroke:#EAF2F3;stroke-width:7.34"/>
	<line x1="2147.68" y1="1741.71" x2="3824.49" y2="1741.71" style="stroke:#EAF2F3;stroke-width:7.34"/>
	<line x1="2147.68" y1="1581.08" x2="3824.49" y2="1581.08" style="stroke:#EAF2F3;stroke-width:7.34"/>
	<line x1="2147.68" y1="1420.45" x2="3824.49" y2="1420.45" style="stroke:#EAF2F3;stroke-width:7.34"/>
	<line x1="2147.68" y1="1259.81" x2="3824.49" y2="1259.81" style="stroke:#EAF2F3;stroke-width:7.34"/>
	<line x1="2147.68" y1="1099.18" x2="3824.49" y2="1099.18" style="stroke:#EAF2F3;stroke-width:7.34"/>
	<line x1="2147.68" y1="938.55" x2="3824.49" y2="938.55" style="stroke:#EAF2F3;stroke-width:7.34"/>
	<line x1="2147.68" y1="777.92" x2="3824.49" y2="777.92" style="stroke:#EAF2F3;stroke-width:7.34"/>
	<line x1="2147.68" y1="617.28" x2="3824.49" y2="617.28" style="stroke:#EAF2F3;stroke-width:7.34"/>
	<line x1="455.52" y1="1807.05" x2="455.52" y2="1807.05" style="stroke:#A0A0A0;stroke-width:7.34"/>
	<line x1="455.52" y1="1807.05" x2="455.52" y2="1807.05" style="stroke:#A0A0A0;stroke-width:7.34"/>
	<line x1="455.52" y1="1807.05" x2="455.52" y2="1807.05" style="stroke:#A0A0A0;stroke-width:7.34"/>
	<line x1="455.52" y1="1807.05" x2="455.52" y2="1807.05" style="stroke:#A0A0A0;stroke-width:7.34"/>
	<line x1="455.52" y1="1807.05" x2="458.37" y2="1807.05" style="stroke:#A0A0A0;stroke-width:7.34"/>
	<line x1="478.54" y1="1807.05" x2="480.77" y2="1807.05" style="stroke:#A0A0A0;stroke-width:7.34"/>
	<line x1="480.77" y1="1807.05" x2="480.77" y2="1807.05" style="stroke:#A0A0A0;stroke-width:7.34"/>
	<line x1="480.77" y1="1807.05" x2="480.77" y2="1807.05" style="stroke:#A0A0A0;stroke-width:7.34"/>
	<line x1="480.77" y1="1807.05" x2="480.77" y2="1807.05" style="stroke:#A0A0A0;stroke-width:7.34"/>
	<line x1="480.77" y1="1807.05" x2="480.77" y2="1807.05" style="stroke:#A0A0A0;stroke-width:7.34"/>
	<line x1="480.77" y1="1807.05" x2="481.39" y2="1807.05" style="stroke:#A0A0A0;stroke-width:7.34"/>
	<line x1="501.56" y1="1807.05" x2="504.40" y2="1807.05" style="stroke:#A0A0A0;stroke-width:7.34"/>
	<line x1="524.58" y1="1807.05" x2="527.42" y2="1807.05" style="stroke:#A0A0A0;stroke-width:7.34"/>
	<line x1="547.59" y1="1807.05" x2="550.44" y2="1807.05" style="stroke:#A0A0A0;stroke-width:7.34"/>
	<line x1="570.61" y1="1807.05" x2="573.58" y2="1807.05" style="stroke:#A0A0A0;stroke-width:7.34"/>
	<line x1="593.75" y1="1807.05" x2="596.60" y2="1807.05" style="stroke:#A0A0A0;stroke-width:7.34"/>
	<line x1="616.77" y1="1807.05" x2="619.62" y2="1807.05" style="stroke:#A0A0A0;stroke-width:7.34"/>
	<line x1="639.79" y1="1807.05" x2="642.63" y2="1807.05" style="stroke:#A0A0A0;stroke-width:7.34"/>
	<line x1="662.80" y1="1807.05" x2="665.65" y2="1807.05" style="stroke:#A0A0A0;stroke-width:7.34"/>
	<line x1="685.82" y1="1807.05" x2="688.67" y2="1807.05" style="stroke:#A0A0A0;stroke-width:7.34"/>
	<line x1="708.84" y1="1807.05" x2="711.69" y2="1807.05" style="stroke:#A0A0A0;stroke-width:7.34"/>
	<line x1="731.86" y1="1807.05" x2="733.84" y2="1807.05" style="stroke:#A0A0A0;stroke-width:7.34"/>
	<line x1="733.84" y1="1807.05" x2="733.84" y2="1807.05" style="stroke:#A0A0A0;stroke-width:7.34"/>
	<line x1="733.84" y1="1807.05" x2="733.84" y2="1807.05" style="stroke:#A0A0A0;stroke-width:7.34"/>
	<line x1="733.84" y1="1807.05" x2="733.84" y2="1807.05" style="stroke:#A0A0A0;stroke-width:7.34"/>
	<line x1="733.84" y1="1807.05" x2="733.84" y2="1807.05" style="stroke:#A0A0A0;stroke-width:7.34"/>
	<line x1="733.84" y1="1807.05" x2="734.70" y2="1807.05" style="stroke:#A0A0A0;stroke-width:7.34"/>
	<line x1="754.88" y1="1807.05" x2="757.72" y2="1807.05" style="stroke:#A0A0A0;stroke-width:7.34"/>
	<line x1="777.89" y1="1807.05" x2="780.74" y2="1807.05" style="stroke:#A0A0A0;stroke-width:7.34"/>
	<line x1="800.91" y1="1807.05" x2="803.88" y2="1807.05" style="stroke:#A0A0A0;stroke-width:7.34"/>
	<line x1="823.93" y1="1807.05" x2="826.90" y2="1807.05" style="stroke:#A0A0A0;stroke-width:7.34"/>
	<line x1="847.07" y1="1807.05" x2="849.91" y2="1807.05" style="stroke:#A0A0A0;stroke-width:7.34"/>
	<line x1="870.09" y1="1807.05" x2="872.93" y2="1807.05" style="stroke:#A0A0A0;stroke-width:7.34"/>
	<line x1="893.10" y1="1807.05" x2="895.95" y2="1807.05" style="stroke:#A0A0A0;stroke-width:7.34"/>
	<line x1="916.12" y1="1807.05" x2="918.97" y2="1807.05" style="stroke:#A0A0A0;stroke-width:7.34"/>
	<line x1="939.14" y1="1807.05" x2="941.99" y2="1807.05" style="stroke:#A0A0A0;stroke-width:7.34"/>
	<line x1="962.16" y1="1807.05" x2="965.00" y2="1807.05" style="stroke:#A0A0A0;stroke-width:7.34"/>
	<line x1="985.17" y1="1807.05" x2="986.91" y2="1807.05" style="stroke:#A0A0A0;stroke-width:7.34"/>
	<line x1="986.91" y1="1807.05" x2="986.91" y2="1807.05" style="stroke:#A0A0A0;stroke-width:7.34"/>
	<line x1="986.91" y1="1807.05" x2="986.91" y2="1807.05" style="stroke:#A0A0A0;stroke-width:7.34"/>
	<line x1="986.91" y1="1807.05" x2="986.91" y2="1807.05" style="stroke:#A0A0A0;stroke-width:7.34"/>
	<line x1="986.91" y1="1807.05" x2="986.91" y2="1807.05" style="stroke:#A0A0A0;stroke-width:7.34"/>
	<line x1="986.91" y1="1807.05" x2="988.02" y2="1807.05" style="stroke:#A0A0A0;stroke-width:7.34"/>
	<line x1="1008.19" y1="1807.05" x2="1011.04" y2="1807.05" style="stroke:#A0A0A0;stroke-width:7.34"/>
	<line x1="1031.21" y1="1807.05" x2="1034.06" y2="1807.05" style="stroke:#A0A0A0;stroke-width:7.34"/>
	<line x1="1054.23" y1="1807.05" x2="1057.20" y2="1807.05" style="stroke:#A0A0A0;stroke-width:7.34"/>
	<line x1="1077.24" y1="1807.05" x2="1080.21" y2="1807.05" style="stroke:#A0A0A0;stroke-width:7.34"/>
	<line x1="1100.38" y1="1807.05" x2="1103.23" y2="1807.05" style="stroke:#A0A0A0;stroke-width:7.34"/>
	<line x1="1123.40" y1="1807.05" x2="1126.25" y2="1807.05" style="stroke:#A0A0A0;stroke-width:7.34"/>
	<line x1="1146.42" y1="1807.05" x2="1149.27" y2="1807.05" style="stroke:#A0A0A0;stroke-width:7.34"/>
	<line x1="1169.44" y1="1807.05" x2="1172.28" y2="1807.05" style="stroke:#A0A0A0;stroke-width:7.34"/>
	<line x1="1192.45" y1="1807.05" x2="1195.30" y2="1807.05" style="stroke:#A0A0A0;stroke-width:7.34"/>
	<line x1="1215.47" y1="1807.05" x2="1218.32" y2="1807.05" style="stroke:#A0A0A0;stroke-width:7.34"/>
	<line x1="1238.49" y1="1807.05" x2="1240.10" y2="1807.05" style="stroke:#A0A0A0;stroke-width:7.34"/>
	<line x1="1240.10" y1="1807.05" x2="1240.10" y2="1807.05" style="stroke:#A0A0A0;stroke-width:7.34"/>
	<line x1="1240.10" y1="1807.05" x2="1240.10" y2="1807.05" style="stroke:#A0A0A0;stroke-width:7.34"/>
	<line x1="1240.10" y1="1807.05" x2="1240.10" y2="1807.05" style="stroke:#A0A0A0;stroke-width:7.34"/>
	<line x1="1240.10" y1="1807.05" x2="1240.10" y2="1807.05" style="stroke:#A0A0A0;stroke-width:7.34"/>
	<line x1="1240.10" y1="1807.05" x2="1241.34" y2="1807.05" style="stroke:#A0A0A0;stroke-width:7.34"/>
	<line x1="1261.51" y1="1807.05" x2="1264.35" y2="1807.05" style="stroke:#A0A0A0;stroke-width:7.34"/>
	<line x1="1284.53" y1="1807.05" x2="1287.37" y2="1807.05" style="stroke:#A0A0A0;stroke-width:7.34"/>
	<line x1="1307.54" y1="1807.05" x2="1310.51" y2="1807.05" style="stroke:#A0A0A0;stroke-width:7.34"/>
	<line x1="1330.56" y1="1807.05" x2="1333.53" y2="1807.05" style="stroke:#A0A0A0;stroke-width:7.34"/>
	<line x1="1353.70" y1="1807.05" x2="1356.55" y2="1807.05" style="stroke:#A0A0A0;stroke-width:7.34"/>
	<line x1="1376.72" y1="1807.05" x2="1379.57" y2="1807.05" style="stroke:#A0A0A0;stroke-width:7.34"/>
	<line x1="1399.74" y1="1807.05" x2="1402.58" y2="1807.05" style="stroke:#A0A0A0;stroke-width:7.34"/>
	<line x1="1422.75" y1="1807.05" x2="1425.60" y2="1807.05" style="stroke:#A0A0A0;stroke-width:7.34"/>
	<line x1="1445.77" y1="1807.05" x2="1448.62" y2="1807.05" style="stroke:#A0A0A0;stroke-width:7.34"/>
	<line x1="1468.79" y1="1807.05" x2="1471.63" y2="1807.05" style="stroke:#A0A0A0;stroke-width:7.34"/>
	<line x1="1491.81" y1="1807.05" x2="1493.17" y2="1807.05" style="stroke:#A0A0A0;stroke-width:7.34"/>
	<line x1="1493.17" y1="1807.05" x2="1493.17" y2="1807.05" style="stroke:#A0A0A0;stroke-width:7.34"/>
	<line x1="1493.17" y1="1807.05" x2="1493.17" y2="1807.05" style="stroke:#A0A0A0;stroke-width:7.34"/>
	<line x1="1493.17" y1="1807.05" x2="1493.17" y2="1807.05" style="stroke:#A0A0A0;stroke-width:7.34"/>
	<line x1="1493.17" y1="1807.05" x2="1493.17" y2="1807.05" style="stroke:#A0A0A0;stroke-width:7.34"/>
	<line x1="1493.17" y1="1807.05" x2="1494.65" y2="1807.05" style="stroke:#A0A0A0;stroke-width:7.34"/>
	<line x1="1514.82" y1="1807.05" x2="1517.67" y2="1807.05" style="stroke:#A0A0A0;stroke-width:7.34"/>
	<line x1="1537.84" y1="1807.05" x2="1540.69" y2="1807.05" style="stroke:#A0A0A0;stroke-width:7.34"/>
	<line x1="1560.86" y1="1807.05" x2="1563.83" y2="1807.05" style="stroke:#A0A0A0;stroke-width:7.34"/>
	<line x1="1584.00" y1="1807.05" x2="1586.85" y2="1807.05" style="stroke:#A0A0A0;stroke-width:7.34"/>
	<line x1="1607.02" y1="1807.05" x2="1609.86" y2="1807.05" style="stroke:#A0A0A0;stroke-width:7.34"/>
	<line x1="1630.04" y1="1807.05" x2="1632.88" y2="1807.05" style="stroke:#A0A0A0;stroke-width:7.34"/>
	<line x1="1653.05" y1="1807.05" x2="1655.90" y2="1807.05" style="stroke:#A0A0A0;stroke-width:7.34"/>
	<line x1="1676.07" y1="1807.05" x2="1678.92" y2="1807.05" style="stroke:#A0A0A0;stroke-width:7.34"/>
	<line x1="1699.09" y1="1807.05" x2="1701.93" y2="1807.05" style="stroke:#A0A0A0;stroke-width:7.34"/>
	<line x1="1722.11" y1="1807.05" x2="1724.95" y2="1807.05" style="stroke:#A0A0A0;stroke-width:7.34"/>
	<line x1="1745.12" y1="1807.05" x2="1746.24" y2="1807.05" style="stroke:#A0A0A0;stroke-width:7.34"/>
	<line x1="1746.24" y1="1807.05" x2="1746.24" y2="1807.05" style="stroke:#A0A0A0;stroke-width:7.34"/>
	<line x1="1746.24" y1="1807.05" x2="1746.24" y2="1807.05" style="stroke:#A0A0A0;stroke-width:7.34"/>
	<line x1="1746.24" y1="1807.05" x2="1746.24" y2="1807.05" style="stroke:#A0A0A0;stroke-width:7.34"/>
	<line x1="1746.24" y1="1807.05" x2="1746.24" y2="1807.05" style="stroke:#A0A0A0;stroke-width:7.34"/>
	<line x1="1746.24" y1="1807.05" x2="1747.97" y2="1807.05" style="stroke:#A0A0A0;stroke-width:7.34"/>
	<line x1="1768.14" y1="1807.05" x2="1770.99" y2="1807.05" style="stroke:#A0A0A0;stroke-width:7.34"/>
	<line x1="1791.16" y1="1807.05" x2="1794.00" y2="1807.05" style="stroke:#A0A0A0;stroke-width:7.34"/>
	<line x1="1814.17" y1="1807.05" x2="1817.14" y2="1807.05" style="stroke:#A0A0A0;stroke-width:7.34"/>
	<line x1="1837.32" y1="1807.05" x2="1840.16" y2="1807.05" style="stroke:#A0A0A0;stroke-width:7.34"/>
	<line x1="1860.33" y1="1807.05" x2="1863.18" y2="1807.05" style="stroke:#A0A0A0;stroke-width:7.34"/>
	<line x1="1883.35" y1="1807.05" x2="1886.20" y2="1807.05" style="stroke:#A0A0A0;stroke-width:7.34"/>
	<line x1="1906.37" y1="1807.05" x2="1909.21" y2="1807.05" style="stroke:#A0A0A0;stroke-width:7.34"/>
	<line x1="1929.39" y1="1807.05" x2="1932.23" y2="1807.05" style="stroke:#A0A0A0;stroke-width:7.34"/>
	<line x1="1952.40" y1="1807.05" x2="1955.25" y2="1807.05" style="stroke:#A0A0A0;stroke-width:7.34"/>
	<line x1="1975.42" y1="1807.05" x2="1978.27" y2="1807.05" style="stroke:#A0A0A0;stroke-width:7.34"/>
	<line x1="1998.44" y1="1807.05" x2="1999.31" y2="1807.05" style="stroke:#A0A0A0;stroke-width:7.34"/>
	<line x1="1999.31" y1="1807.05" x2="1999.31" y2="1807.05" style="stroke:#A0A0A0;stroke-width:7.34"/>
	<line x1="1999.31" y1="1807.05" x2="1999.31" y2="1807.05" style="stroke:#A0A0A0;stroke-width:7.34"/>
	<line x1="1999.31" y1="1807.05" x2="1999.31" y2="1807.05" style="stroke:#A0A0A0;stroke-width:7.34"/>
	<line x1="1999.31" y1="1807.05" x2="1999.31" y2="1807.05" style="stroke:#A0A0A0;stroke-width:7.34"/>
	<line x1="1999.31" y1="1807.05" x2="2001.29" y2="1807.05" style="stroke:#A0A0A0;stroke-width:7.34"/>
	<line x1="2021.46" y1="1807.05" x2="2024.30" y2="1807.05" style="stroke:#A0A0A0;stroke-width:7.34"/>
	<path d="" stroke-linejoin="round" style="fill:none;stroke:#A0A0A0;stroke-width:7.34"/>
	<path d=" M455.52 1892.82 L480.77 1891.95 L506.14 1890.96 L531.38 1889.97 L556.75 1888.86 L582.00 1887.62 L607.37 1886.26 L632.61 1884.90 L657.98 1883.29 L683.22 1881.68 L708.59 1879.94 L733.84 1878.09 L759.21 1876.11 L784.45 1874.13 L809.82 1872.02 L835.07 1869.80 L860.43 1867.57 L885.68 1865.22 L911.05 1862.99 L936.29 1860.64 L961.66 1858.41 L986.91 1856.31 L1012.27 1854.20 L1037.52 1852.35 L1062.89 1850.49 L1088.13 1848.88 L1113.50 1847.40 L1138.87 1846.04 L1164.12 1844.80 L1189.48 1843.56 L1214.73 1842.45 L1240.10 1841.46 L1265.34 1840.34 L1290.71 1839.35 L1315.96 1838.24 L1341.33 1837.13 L1366.57 1835.89 L1391.94 1834.53 L1417.18 1833.04 L1442.55 1831.31 L1467.80 1829.33 L1493.17 1826.98 L1518.41 1824.50 L1543.78 1821.66 L1569.03 1818.56 L1594.39 1815.10 L1619.64 1811.26 L1645.01 1807.05 L1670.25 1802.48 L1695.62 1797.52 L1720.87 1792.08 L1746.24 1786.14 L1771.48 1779.70 L1796.85 1772.77 L1822.10 1765.23 L1847.46 1757.18 L1872.71 1748.39 L1898.08 1738.87 L1923.45 1728.72 L1948.69 1717.83 L1974.06 1706.07 L1999.31 1693.45 L2024.67 1679.96" stroke-linejoin="round" style="fill:none;stroke:#1A476F;stroke-width:7.34"/>
	<path d=" M455.52 1886.50 L480.77 1885.02 L506.14 1883.41 L531.38 1881.80 L556.75 1879.94 L582.00 1877.84 L607.37 1875.74 L632.61 1873.39 L657.98 1870.79 L683.22 1868.06 L708.59 1865.22 L733.84 1862.12 L759.21 1858.91 L784.45 1855.57 L809.82 1851.98 L835.07 1848.39 L860.43 1844.68 L885.68 1840.84 L911.05 1837.00 L936.29 1833.29 L961.66 1829.58 L986.91 1825.99 L1012.27 1822.52 L1037.52 1819.31 L1062.89 1816.34 L1088.13 1813.74 L1113.50 1811.26 L1138.87 1808.91 L1164.12 1806.81 L1189.48 1804.83 L1214.73 1803.09 L1240.10 1801.24 L1265.34 1799.63 L1290.71 1797.90 L1315.96 1796.04 L1341.33 1794.18 L1366.57 1792.20 L1391.94 1789.85 L1417.18 1787.38 L1442.55 1784.53 L1467.80 1781.19 L1493.17 1777.48 L1518.41 1773.27 L1543.78 1768.57 L1569.03 1763.37 L1594.39 1757.55 L1619.64 1751.24 L1645.01 1744.31 L1670.25 1736.76 L1695.62 1728.47 L1720.87 1719.44 L1746.24 1709.66 L1771.48 1699.02 L1796.85 1687.51 L1822.10 1675.01 L1847.46 1661.52 L1872.71 1647.04 L1898.08 1631.32 L1923.45 1614.49 L1948.69 1596.30 L1974.06 1576.87 L1999.31 1555.96 L2024.67 1533.68" stroke-linejoin="round" style="fill:none;stroke:#FFD200;stroke-width:7.34"/>
	<path d=" M455.52 1883.66 L480.77 1882.05 L506.14 1880.19 L531.38 1878.21 L556.75 1875.98 L582.00 1873.63 L607.37 1871.16 L632.61 1868.31 L657.98 1865.34 L683.22 1862.12 L708.59 1858.78 L733.84 1855.19 L759.21 1851.36 L784.45 1847.40 L809.82 1843.31 L835.07 1838.98 L860.43 1834.65 L885.68 1830.20 L911.05 1825.74 L936.29 1821.29 L961.66 1816.95 L986.91 1812.75 L1012.27 1808.79 L1037.52 1804.95 L1062.89 1801.49 L1088.13 1798.39 L1113.50 1795.42 L1138.87 1792.82 L1164.12 1790.35 L1189.48 1788.00 L1214.73 1785.89 L1240.10 1783.79 L1265.34 1781.81 L1290.71 1779.83 L1315.96 1777.72 L1341.33 1775.50 L1366.57 1773.15 L1391.94 1770.42 L1417.18 1767.45 L1442.55 1764.11 L1467.80 1760.28 L1493.17 1755.82 L1518.41 1750.87 L1543.78 1745.42 L1569.03 1739.24 L1594.39 1732.55 L1619.64 1725.13 L1645.01 1716.96 L1670.25 1708.05 L1695.62 1698.40 L1720.87 1687.88 L1746.24 1676.37 L1771.48 1663.87 L1796.85 1650.38 L1822.10 1635.78 L1847.46 1619.94 L1872.71 1602.86 L1898.08 1584.54 L1923.45 1564.74 L1948.69 1543.46 L1974.06 1520.69 L1999.31 1496.18 L2024.67 1470.07" stroke-linejoin="round" style="fill:none;stroke:#008000;stroke-width:7.34"/>
	<path d=" M455.52 1886.38 L480.77 1884.90 L506.14 1883.41 L531.38 1881.68 L556.75 1879.82 L582.00 1877.72 L607.37 1875.61 L632.61 1873.26 L657.98 1870.66 L683.22 1867.94 L708.59 1865.09 L733.84 1862.00 L759.21 1858.78 L784.45 1855.32 L809.82 1851.73 L835.07 1848.14 L860.43 1844.43 L885.68 1840.59 L911.05 1836.75 L936.29 1832.92 L961.66 1829.21 L986.91 1825.62 L1012.27 1822.15 L1037.52 1818.93 L1062.89 1815.96 L1088.13 1813.24 L1113.50 1810.77 L1138.87 1808.54 L1164.12 1806.44 L1189.48 1804.46 L1214.73 1802.60 L1240.10 1800.87 L1265.34 1799.13 L1290.71 1797.40 L1315.96 1795.54 L1341.33 1793.69 L1366.57 1791.71 L1391.94 1789.36 L1417.18 1786.88 L1442.55 1783.91 L1467.80 1780.69 L1493.17 1776.86 L1518.41 1772.65 L1543.78 1767.95 L1569.03 1762.75 L1594.39 1756.93 L1619.64 1750.50 L1645.01 1743.57 L1670.25 1736.02 L1695.62 1727.60 L1720.87 1718.57 L1746.24 1708.79 L1771.48 1698.03 L1796.85 1686.52 L1822.10 1674.02 L1847.46 1660.41 L1872.71 1645.80 L1898.08 1630.09 L1923.45 1613.13 L1948.69 1594.94 L1974.06 1575.39 L1999.31 1554.47 L2024.67 1532.07" stroke-linejoin="round" style="fill:none;stroke:#FF0000;stroke-width:7.34"/>
	<path d=" M455.52 1887.62 L480.77 1886.26 L506.14 1884.77 L531.38 1883.29 L556.75 1881.55 L582.00 1879.57 L607.37 1877.59 L632.61 1875.37 L657.98 1873.01 L683.22 1870.54 L708.59 1867.82 L733.84 1864.97 L759.21 1862.00 L784.45 1858.91 L809.82 1855.57 L835.07 1852.22 L860.43 1848.76 L885.68 1845.29 L911.05 1841.71 L936.29 1838.24 L961.66 1834.77 L986.91 1831.43 L1012.27 1828.22 L1037.52 1825.25 L1062.89 1822.52 L1088.13 1820.05 L1113.50 1817.70 L1138.87 1815.59 L1164.12 1813.61 L1189.48 1811.88 L1214.73 1810.15 L1240.10 1808.54 L1265.34 1806.93 L1290.71 1805.32 L1315.96 1803.71 L1341.33 1801.98 L1366.57 1800.00 L1391.94 1797.90 L1417.18 1795.54 L1442.55 1792.95 L1467.80 1789.85 L1493.17 1786.39 L1518.41 1782.43 L1543.78 1778.10 L1569.03 1773.27 L1594.39 1767.95 L1619.64 1762.01 L1645.01 1755.57 L1670.25 1748.52 L1695.62 1740.85 L1720.87 1732.43 L1746.24 1723.40 L1771.48 1713.50 L1796.85 1702.85 L1822.10 1691.22 L1847.46 1678.72 L1872.71 1665.23 L1898.08 1650.75 L1923.45 1635.04 L1948.69 1618.21 L1974.06 1600.14 L1999.31 1580.71 L2024.67 1560.04" stroke-linejoin="round" style="fill:none;stroke:#FF7F00;stroke-width:7.34"/>
	<line x1="2201.39" y1="1769.31" x2="2201.39" y2="1769.31" style="stroke:#A0A0A0;stroke-width:7.34"/>
	<line x1="2201.39" y1="1769.31" x2="2201.39" y2="1769.31" style="stroke:#A0A0A0;stroke-width:7.34"/>
	<line x1="2201.39" y1="1769.31" x2="2201.39" y2="1769.31" style="stroke:#A0A0A0;stroke-width:7.34"/>
	<line x1="2201.39" y1="1769.31" x2="2201.39" y2="1769.31" style="stroke:#A0A0A0;stroke-width:7.34"/>
	<line x1="2201.39" y1="1769.31" x2="2204.24" y2="1769.31" style="stroke:#A0A0A0;stroke-width:7.34"/>
	<line x1="2224.41" y1="1769.31" x2="2226.76" y2="1769.31" style="stroke:#A0A0A0;stroke-width:7.34"/>
	<line x1="2226.76" y1="1769.31" x2="2226.76" y2="1769.31" style="stroke:#A0A0A0;stroke-width:7.34"/>
	<line x1="2226.76" y1="1769.31" x2="2226.76" y2="1769.31" style="stroke:#A0A0A0;stroke-width:7.34"/>
	<line x1="2226.76" y1="1769.31" x2="2226.76" y2="1769.31" style="stroke:#A0A0A0;stroke-width:7.34"/>
	<line x1="2226.76" y1="1769.31" x2="2226.76" y2="1769.31" style="stroke:#A0A0A0;stroke-width:7.34"/>
	<line x1="2226.76" y1="1769.31" x2="2227.25" y2="1769.31" style="stroke:#A0A0A0;stroke-width:7.34"/>
	<line x1="2247.42" y1="1769.31" x2="2250.27" y2="1769.31" style="stroke:#A0A0A0;stroke-width:7.34"/>
	<line x1="2270.44" y1="1769.31" x2="2273.29" y2="1769.31" style="stroke:#A0A0A0;stroke-width:7.34"/>
	<line x1="2293.46" y1="1769.31" x2="2296.43" y2="1769.31" style="stroke:#A0A0A0;stroke-width:7.34"/>
	<line x1="2316.60" y1="1769.31" x2="2319.45" y2="1769.31" style="stroke:#A0A0A0;stroke-width:7.34"/>
	<line x1="2339.62" y1="1769.31" x2="2342.46" y2="1769.31" style="stroke:#A0A0A0;stroke-width:7.34"/>
	<line x1="2362.64" y1="1769.31" x2="2365.48" y2="1769.31" style="stroke:#A0A0A0;stroke-width:7.34"/>
	<line x1="2385.65" y1="1769.31" x2="2388.50" y2="1769.31" style="stroke:#A0A0A0;stroke-width:7.34"/>
	<line x1="2408.67" y1="1769.31" x2="2411.52" y2="1769.31" style="stroke:#A0A0A0;stroke-width:7.34"/>
	<line x1="2431.69" y1="1769.31" x2="2434.53" y2="1769.31" style="stroke:#A0A0A0;stroke-width:7.34"/>
	<line x1="2454.70" y1="1769.31" x2="2457.55" y2="1769.31" style="stroke:#A0A0A0;stroke-width:7.34"/>
	<line x1="2477.72" y1="1769.31" x2="2479.83" y2="1769.31" style="stroke:#A0A0A0;stroke-width:7.34"/>
	<line x1="2479.83" y1="1769.31" x2="2479.83" y2="1769.31" style="stroke:#A0A0A0;stroke-width:7.34"/>
	<line x1="2479.83" y1="1769.31" x2="2479.83" y2="1769.31" style="stroke:#A0A0A0;stroke-width:7.34"/>
	<line x1="2479.83" y1="1769.31" x2="2479.83" y2="1769.31" style="stroke:#A0A0A0;stroke-width:7.34"/>
	<line x1="2479.83" y1="1769.31" x2="2479.83" y2="1769.31" style="stroke:#A0A0A0;stroke-width:7.34"/>
	<line x1="2479.83" y1="1769.31" x2="2480.57" y2="1769.31" style="stroke:#A0A0A0;stroke-width:7.34"/>
	<line x1="2500.74" y1="1769.31" x2="2503.59" y2="1769.31" style="stroke:#A0A0A0;stroke-width:7.34"/>
	<line x1="2523.76" y1="1769.31" x2="2526.60" y2="1769.31" style="stroke:#A0A0A0;stroke-width:7.34"/>
	<line x1="2546.78" y1="1769.31" x2="2549.74" y2="1769.31" style="stroke:#A0A0A0;stroke-width:7.34"/>
	<line x1="2569.92" y1="1769.31" x2="2572.76" y2="1769.31" style="stroke:#A0A0A0;stroke-width:7.34"/>
	<line x1="2592.93" y1="1769.31" x2="2595.78" y2="1769.31" style="stroke:#A0A0A0;stroke-width:7.34"/>
	<line x1="2615.95" y1="1769.31" x2="2618.80" y2="1769.31" style="stroke:#A0A0A0;stroke-width:7.34"/>
	<line x1="2638.97" y1="1769.31" x2="2641.82" y2="1769.31" style="stroke:#A0A0A0;stroke-width:7.34"/>
	<line x1="2661.99" y1="1769.31" x2="2664.83" y2="1769.31" style="stroke:#A0A0A0;stroke-width:7.34"/>
	<line x1="2685.00" y1="1769.31" x2="2687.85" y2="1769.31" style="stroke:#A0A0A0;stroke-width:7.34"/>
	<line x1="2708.02" y1="1769.31" x2="2710.87" y2="1769.31" style="stroke:#A0A0A0;stroke-width:7.34"/>
	<line x1="2731.04" y1="1769.31" x2="2732.89" y2="1769.31" style="stroke:#A0A0A0;stroke-width:7.34"/>
	<line x1="2732.89" y1="1769.31" x2="2732.89" y2="1769.31" style="stroke:#A0A0A0;stroke-width:7.34"/>
	<line x1="2732.89" y1="1769.31" x2="2732.89" y2="1769.31" style="stroke:#A0A0A0;stroke-width:7.34"/>
	<line x1="2732.89" y1="1769.31" x2="2732.89" y2="1769.31" style="stroke:#A0A0A0;stroke-width:7.34"/>
	<line x1="2732.89" y1="1769.31" x2="2732.89" y2="1769.31" style="stroke:#A0A0A0;stroke-width:7.34"/>
	<line x1="2732.89" y1="1769.31" x2="2733.89" y2="1769.31" style="stroke:#A0A0A0;stroke-width:7.34"/>
	<line x1="2754.06" y1="1769.31" x2="2756.90" y2="1769.31" style="stroke:#A0A0A0;stroke-width:7.34"/>
	<line x1="2777.07" y1="1769.31" x2="2779.92" y2="1769.31" style="stroke:#A0A0A0;stroke-width:7.34"/>
	<line x1="2800.09" y1="1769.31" x2="2803.06" y2="1769.31" style="stroke:#A0A0A0;stroke-width:7.34"/>
	<line x1="2823.23" y1="1769.31" x2="2826.08" y2="1769.31" style="stroke:#A0A0A0;stroke-width:7.34"/>
	<line x1="2846.25" y1="1769.31" x2="2849.10" y2="1769.31" style="stroke:#A0A0A0;stroke-width:7.34"/>
	<line x1="2869.27" y1="1769.31" x2="2872.11" y2="1769.31" style="stroke:#A0A0A0;stroke-width:7.34"/>
	<line x1="2892.28" y1="1769.31" x2="2895.13" y2="1769.31" style="stroke:#A0A0A0;stroke-width:7.34"/>
	<line x1="2915.30" y1="1769.31" x2="2918.15" y2="1769.31" style="stroke:#A0A0A0;stroke-width:7.34"/>
	<line x1="2938.32" y1="1769.31" x2="2941.17" y2="1769.31" style="stroke:#A0A0A0;stroke-width:7.34"/>
	<line x1="2961.34" y1="1769.31" x2="2964.18" y2="1769.31" style="stroke:#A0A0A0;stroke-width:7.34"/>
	<line x1="2984.36" y1="1769.31" x2="2986.09" y2="1769.31" style="stroke:#A0A0A0;stroke-width:7.34"/>
	<line x1="2986.09" y1="1769.31" x2="2986.09" y2="1769.31" style="stroke:#A0A0A0;stroke-width:7.34"/>
	<line x1="2986.09" y1="1769.31" x2="2986.09" y2="1769.31" style="stroke:#A0A0A0;stroke-width:7.34"/>
	<line x1="2986.09" y1="1769.31" x2="2986.09" y2="1769.31" style="stroke:#A0A0A0;stroke-width:7.34"/>
	<line x1="2986.09" y1="1769.31" x2="2986.09" y2="1769.31" style="stroke:#A0A0A0;stroke-width:7.34"/>
	<line x1="2986.09" y1="1769.31" x2="2987.20" y2="1769.31" style="stroke:#A0A0A0;stroke-width:7.34"/>
	<line x1="3007.37" y1="1769.31" x2="3010.22" y2="1769.31" style="stroke:#A0A0A0;stroke-width:7.34"/>
	<line x1="3030.39" y1="1769.31" x2="3033.36" y2="1769.31" style="stroke:#A0A0A0;stroke-width:7.34"/>
	<line x1="3053.41" y1="1769.31" x2="3056.38" y2="1769.31" style="stroke:#A0A0A0;stroke-width:7.34"/>
	<line x1="3076.55" y1="1769.31" x2="3079.39" y2="1769.31" style="stroke:#A0A0A0;stroke-width:7.34"/>
	<line x1="3099.57" y1="1769.31" x2="3102.41" y2="1769.31" style="stroke:#A0A0A0;stroke-width:7.34"/>
	<line x1="3122.58" y1="1769.31" x2="3125.43" y2="1769.31" style="stroke:#A0A0A0;stroke-width:7.34"/>
	<line x1="3145.60" y1="1769.31" x2="3148.45" y2="1769.31" style="stroke:#A0A0A0;stroke-width:7.34"/>
	<line x1="3168.62" y1="1769.31" x2="3171.47" y2="1769.31" style="stroke:#A0A0A0;stroke-width:7.34"/>
	<line x1="3191.64" y1="1769.31" x2="3194.48" y2="1769.31" style="stroke:#A0A0A0;stroke-width:7.34"/>
	<line x1="3214.65" y1="1769.31" x2="3217.50" y2="1769.31" style="stroke:#A0A0A0;stroke-width:7.34"/>
	<line x1="3237.67" y1="1769.31" x2="3239.16" y2="1769.31" style="stroke:#A0A0A0;stroke-width:7.34"/>
	<line x1="3239.16" y1="1769.31" x2="3239.16" y2="1769.31" style="stroke:#A0A0A0;stroke-width:7.34"/>
	<line x1="3239.16" y1="1769.31" x2="3239.16" y2="1769.31" style="stroke:#A0A0A0;stroke-width:7.34"/>
	<line x1="3239.16" y1="1769.31" x2="3239.16" y2="1769.31" style="stroke:#A0A0A0;stroke-width:7.34"/>
	<line x1="3239.16" y1="1769.31" x2="3239.16" y2="1769.31" style="stroke:#A0A0A0;stroke-width:7.34"/>
	<line x1="3239.16" y1="1769.31" x2="3240.52" y2="1769.31" style="stroke:#A0A0A0;stroke-width:7.34"/>
	<line x1="3260.69" y1="1769.31" x2="3263.53" y2="1769.31" style="stroke:#A0A0A0;stroke-width:7.34"/>
	<line x1="3283.71" y1="1769.31" x2="3286.68" y2="1769.31" style="stroke:#A0A0A0;stroke-width:7.34"/>
	<line x1="3306.72" y1="1769.31" x2="3309.69" y2="1769.31" style="stroke:#A0A0A0;stroke-width:7.34"/>
	<line x1="3329.86" y1="1769.31" x2="3332.71" y2="1769.31" style="stroke:#A0A0A0;stroke-width:7.34"/>
	<line x1="3352.88" y1="1769.31" x2="3355.73" y2="1769.31" style="stroke:#A0A0A0;stroke-width:7.34"/>
	<line x1="3375.90" y1="1769.31" x2="3378.75" y2="1769.31" style="stroke:#A0A0A0;stroke-width:7.34"/>
	<line x1="3398.92" y1="1769.31" x2="3401.76" y2="1769.31" style="stroke:#A0A0A0;stroke-width:7.34"/>
	<line x1="3421.93" y1="1769.31" x2="3424.78" y2="1769.31" style="stroke:#A0A0A0;stroke-width:7.34"/>
	<line x1="3444.95" y1="1769.31" x2="3447.80" y2="1769.31" style="stroke:#A0A0A0;stroke-width:7.34"/>
	<line x1="3467.97" y1="1769.31" x2="3470.82" y2="1769.31" style="stroke:#A0A0A0;stroke-width:7.34"/>
	<line x1="3490.99" y1="1769.31" x2="3492.22" y2="1769.31" style="stroke:#A0A0A0;stroke-width:7.34"/>
	<line x1="3492.22" y1="1769.31" x2="3492.22" y2="1769.31" style="stroke:#A0A0A0;stroke-width:7.34"/>
	<line x1="3492.22" y1="1769.31" x2="3492.22" y2="1769.31" style="stroke:#A0A0A0;stroke-width:7.34"/>
	<line x1="3492.22" y1="1769.31" x2="3492.22" y2="1769.31" style="stroke:#A0A0A0;stroke-width:7.34"/>
	<line x1="3492.22" y1="1769.31" x2="3492.22" y2="1769.31" style="stroke:#A0A0A0;stroke-width:7.34"/>
	<line x1="3492.22" y1="1769.31" x2="3493.83" y2="1769.31" style="stroke:#A0A0A0;stroke-width:7.34"/>
	<line x1="3514.01" y1="1769.31" x2="3516.85" y2="1769.31" style="stroke:#A0A0A0;stroke-width:7.34"/>
	<line x1="3537.02" y1="1769.31" x2="3539.99" y2="1769.31" style="stroke:#A0A0A0;stroke-width:7.34"/>
	<line x1="3560.04" y1="1769.31" x2="3563.01" y2="1769.31" style="stroke:#A0A0A0;stroke-width:7.34"/>
	<line x1="3583.18" y1="1769.31" x2="3586.03" y2="1769.31" style="stroke:#A0A0A0;stroke-width:7.34"/>
	<line x1="3606.20" y1="1769.31" x2="3609.05" y2="1769.31" style="stroke:#A0A0A0;stroke-width:7.34"/>
	<line x1="3629.22" y1="1769.31" x2="3632.06" y2="1769.31" style="stroke:#A0A0A0;stroke-width:7.34"/>
	<line x1="3652.23" y1="1769.31" x2="3655.08" y2="1769.31" style="stroke:#A0A0A0;stroke-width:7.34"/>
	<line x1="3675.25" y1="1769.31" x2="3678.10" y2="1769.31" style="stroke:#A0A0A0;stroke-width:7.34"/>
	<line x1="3698.27" y1="1769.31" x2="3701.11" y2="1769.31" style="stroke:#A0A0A0;stroke-width:7.34"/>
	<line x1="3721.29" y1="1769.31" x2="3724.13" y2="1769.31" style="stroke:#A0A0A0;stroke-width:7.34"/>
	<line x1="3744.30" y1="1769.31" x2="3745.29" y2="1769.31" style="stroke:#A0A0A0;stroke-width:7.34"/>
	<line x1="3745.29" y1="1769.31" x2="3745.29" y2="1769.31" style="stroke:#A0A0A0;stroke-width:7.34"/>
	<line x1="3745.29" y1="1769.31" x2="3745.29" y2="1769.31" style="stroke:#A0A0A0;stroke-width:7.34"/>
	<line x1="3745.29" y1="1769.31" x2="3745.29" y2="1769.31" style="stroke:#A0A0A0;stroke-width:7.34"/>
	<line x1="3745.29" y1="1769.31" x2="3745.29" y2="1769.31" style="stroke:#A0A0A0;stroke-width:7.34"/>
	<line x1="3745.29" y1="1769.31" x2="3747.15" y2="1769.31" style="stroke:#A0A0A0;stroke-width:7.34"/>
	<line x1="3767.32" y1="1769.31" x2="3770.17" y2="1769.31" style="stroke:#A0A0A0;stroke-width:7.34"/>
	<path d="" stroke-linejoin="round" style="fill:none;stroke:#A0A0A0;stroke-width:7.34"/>
	<path d=" M2201.39 1888.98 L2226.76 1887.74 L2252.13 1886.38 L2277.37 1885.02 L2302.74 1883.41 L2327.99 1881.80 L2353.35 1879.94 L2378.60 1877.96 L2403.97 1875.74 L2429.21 1873.51 L2454.58 1871.03 L2479.83 1868.56 L2505.20 1865.84 L2530.44 1862.99 L2555.81 1860.02 L2581.05 1856.93 L2606.42 1853.71 L2631.67 1850.62 L2657.04 1847.40 L2682.28 1844.18 L2707.65 1841.09 L2732.89 1837.99 L2758.26 1835.15 L2783.51 1832.42 L2808.88 1829.95 L2834.12 1827.72 L2859.49 1825.62 L2884.74 1823.64 L2910.11 1821.90 L2935.35 1820.30 L2960.72 1818.69 L2986.09 1817.20 L3011.33 1815.84 L3036.70 1814.36 L3061.95 1812.87 L3087.32 1811.26 L3112.56 1809.53 L3137.93 1807.67 L3163.17 1805.57 L3188.54 1803.09 L3213.79 1800.37 L3239.16 1797.15 L3264.40 1793.56 L3289.77 1789.73 L3315.01 1785.27 L3340.38 1780.45 L3365.63 1775.13 L3391.00 1769.31 L3416.24 1762.87 L3441.61 1755.94 L3466.86 1748.27 L3492.22 1740.10 L3517.47 1731.07 L3542.84 1721.42 L3568.08 1710.90 L3593.45 1699.64 L3618.70 1687.38 L3644.07 1674.14 L3669.31 1659.91 L3694.68 1644.69 L3719.93 1628.23 L3745.29 1610.66 L3770.66 1591.97" stroke-linejoin="round" style="fill:none;stroke:#1A476F;stroke-width:7.34"/>
	<path d=" M2201.39 1880.19 L2226.76 1878.09 L2252.13 1875.98 L2277.37 1873.63 L2302.74 1871.03 L2327.99 1868.19 L2353.35 1865.09 L2378.60 1861.88 L2403.97 1858.29 L2429.21 1854.58 L2454.58 1850.49 L2479.83 1846.16 L2505.20 1841.71 L2530.44 1837.00 L2555.81 1832.05 L2581.05 1826.98 L2606.42 1821.78 L2631.67 1816.46 L2657.04 1811.14 L2682.28 1805.82 L2707.65 1800.62 L2732.89 1795.67 L2758.26 1790.84 L2783.51 1786.39 L2808.88 1782.30 L2834.12 1778.59 L2859.49 1775.13 L2884.74 1771.91 L2910.11 1768.94 L2935.35 1766.22 L2960.72 1763.62 L2986.09 1761.27 L3011.33 1758.79 L3036.70 1756.44 L3061.95 1753.96 L3087.32 1751.36 L3112.56 1748.52 L3137.93 1745.30 L3163.17 1741.84 L3188.54 1737.75 L3213.79 1733.17 L3239.16 1727.85 L3264.40 1722.04 L3289.77 1715.48 L3315.01 1708.17 L3340.38 1700.13 L3365.63 1691.34 L3391.00 1681.69 L3416.24 1671.05 L3441.61 1659.54 L3466.86 1646.92 L3492.22 1633.30 L3517.47 1618.45 L3542.84 1602.37 L3568.08 1584.92 L3593.45 1566.11 L3618.70 1545.81 L3644.07 1524.03 L3669.31 1500.39 L3694.68 1475.15 L3719.93 1447.92 L3745.29 1418.84 L3770.66 1387.65" stroke-linejoin="round" style="fill:none;stroke:#FFD200;stroke-width:7.34"/>
	<path d=" M2201.39 1876.36 L2226.76 1874.00 L2252.13 1871.41 L2277.37 1868.68 L2302.74 1865.59 L2327.99 1862.25 L2353.35 1858.66 L2378.60 1854.82 L2403.97 1850.74 L2429.21 1846.28 L2454.58 1841.58 L2479.83 1836.51 L2505.20 1831.19 L2530.44 1825.62 L2555.81 1819.92 L2581.05 1813.98 L2606.42 1807.80 L2631.67 1801.61 L2657.04 1795.42 L2682.28 1789.23 L2707.65 1783.05 L2732.89 1777.23 L2758.26 1771.66 L2783.51 1766.46 L2808.88 1761.64 L2834.12 1757.18 L2859.49 1753.10 L2884.74 1749.38 L2910.11 1745.92 L2935.35 1742.70 L2960.72 1739.73 L2986.09 1736.89 L3011.33 1734.04 L3036.70 1731.19 L3061.95 1728.35 L3087.32 1725.25 L3112.56 1721.91 L3137.93 1718.20 L3163.17 1713.99 L3188.54 1709.29 L3213.79 1703.97 L3239.16 1697.78 L3264.40 1690.85 L3289.77 1683.18 L3315.01 1674.64 L3340.38 1665.23 L3365.63 1654.84 L3391.00 1643.58 L3416.24 1631.08 L3441.61 1617.59 L3466.86 1602.86 L3492.22 1586.77 L3517.47 1569.45 L3542.84 1550.51 L3568.08 1530.09 L3593.45 1508.06 L3618.70 1484.30 L3644.07 1458.69 L3669.31 1431.09 L3694.68 1401.39 L3719.93 1369.58 L3745.29 1335.43 L3770.66 1298.92" stroke-linejoin="round" style="fill:none;stroke:#008000;stroke-width:7.34"/>
	<path d=" M2201.39 1880.07 L2226.76 1878.09 L2252.13 1875.86 L2277.37 1873.51 L2302.74 1870.91 L2327.99 1868.06 L2353.35 1864.97 L2378.60 1861.63 L2403.97 1858.16 L2429.21 1854.33 L2454.58 1850.24 L2479.83 1845.91 L2505.20 1841.46 L2530.44 1836.63 L2555.81 1831.68 L2581.05 1826.61 L2606.42 1821.41 L2631.67 1816.09 L2657.04 1810.77 L2682.28 1805.45 L2707.65 1800.25 L2732.89 1795.17 L2758.26 1790.35 L2783.51 1785.89 L2808.88 1781.81 L2834.12 1777.97 L2859.49 1774.51 L2884.74 1771.29 L2910.11 1768.32 L2935.35 1765.60 L2960.72 1763.12 L2986.09 1760.65 L3011.33 1758.17 L3036.70 1755.82 L3061.95 1753.34 L3087.32 1750.62 L3112.56 1747.78 L3137.93 1744.68 L3163.17 1741.09 L3188.54 1737.01 L3213.79 1732.43 L3239.16 1727.11 L3264.40 1721.29 L3289.77 1714.61 L3315.01 1707.31 L3340.38 1699.26 L3365.63 1690.35 L3391.00 1680.70 L3416.24 1670.06 L3441.61 1658.43 L3466.86 1645.80 L3492.22 1632.07 L3517.47 1617.09 L3542.84 1601.00 L3568.08 1583.55 L3593.45 1564.62 L3618.70 1544.20 L3644.07 1522.30 L3669.31 1498.66 L3694.68 1473.29 L3719.93 1445.94 L3745.29 1416.73 L3770.66 1385.42" stroke-linejoin="round" style="fill:none;stroke:#FF0000;stroke-width:7.34"/>
	<path d=" M2201.39 1881.68 L2226.76 1879.82 L2252.13 1877.84 L2277.37 1875.61 L2302.74 1873.26 L2327.99 1870.66 L2353.35 1867.82 L2378.60 1864.72 L2403.97 1861.51 L2429.21 1857.92 L2454.58 1854.20 L2479.83 1850.24 L2505.20 1846.04 L2530.44 1841.71 L2555.81 1837.13 L2581.05 1832.30 L2606.42 1827.47 L2631.67 1822.65 L2657.04 1817.70 L2682.28 1812.75 L2707.65 1807.92 L2732.89 1803.22 L2758.26 1798.89 L2783.51 1794.68 L2808.88 1790.84 L2834.12 1787.38 L2859.49 1784.16 L2884.74 1781.19 L2910.11 1778.47 L2935.35 1775.99 L2960.72 1773.64 L2986.09 1771.29 L3011.33 1769.06 L3036.70 1766.83 L3061.95 1764.61 L3087.32 1762.13 L3112.56 1759.41 L3137.93 1756.56 L3163.17 1753.22 L3188.54 1749.51 L3213.79 1745.18 L3239.16 1740.35 L3264.40 1734.91 L3289.77 1728.84 L3315.01 1722.04 L3340.38 1714.61 L3365.63 1706.44 L3391.00 1697.41 L3416.24 1687.63 L3441.61 1676.86 L3466.86 1665.23 L3492.22 1652.49 L3517.47 1638.75 L3542.84 1623.77 L3568.08 1607.56 L3593.45 1590.11 L3618.70 1571.30 L3644.07 1551.01 L3669.31 1529.10 L3694.68 1505.59 L3719.93 1480.47 L3745.29 1453.37 L3770.66 1424.41" stroke-linejoin="round" style="fill:none;stroke:#FF7F00;stroke-width:7.34"/>
	<line x1="401.69" y1="1956.18" x2="401.69" y2="402.82" style="stroke:#000000;stroke-width:4.90"/>
	<line x1="401.69" y1="1902.22" x2="367.66" y2="1902.22" style="stroke:#000000;stroke-width:4.90"/>
	<text x="350.71" y="1932.01" style="font-family:'Helvetica';font-size:85.02px;fill:#000000" text-anchor="end">0</text>
	<line x1="401.69" y1="1741.71" x2="367.66" y2="1741.71" style="stroke:#000000;stroke-width:4.90"/>
	<text x="350.71" y="1771.50" style="font-family:'Helvetica';font-size:85.02px;fill:#000000" text-anchor="end">.001</text>
	<line x1="401.69" y1="1581.08" x2="367.66" y2="1581.08" style="stroke:#000000;stroke-width:4.90"/>
	<text x="350.71" y="1610.87" style="font-family:'Helvetica';font-size:85.02px;fill:#000000" text-anchor="end">.002</text>
	<line x1="401.69" y1="1420.45" x2="367.66" y2="1420.45" style="stroke:#000000;stroke-width:4.90"/>
	<text x="350.71" y="1450.23" style="font-family:'Helvetica';font-size:85.02px;fill:#000000" text-anchor="end">.003</text>
	<line x1="401.69" y1="1259.81" x2="367.66" y2="1259.81" style="stroke:#000000;stroke-width:4.90"/>
	<text x="350.71" y="1289.60" style="font-family:'Helvetica';font-size:85.02px;fill:#000000" text-anchor="end">.004</text>
	<line x1="401.69" y1="1099.18" x2="367.66" y2="1099.18" style="stroke:#000000;stroke-width:4.90"/>
	<text x="350.71" y="1128.97" style="font-family:'Helvetica';font-size:85.02px;fill:#000000" text-anchor="end">.005</text>
	<line x1="401.69" y1="938.55" x2="367.66" y2="938.55" style="stroke:#000000;stroke-width:4.90"/>
	<text x="350.71" y="968.34" style="font-family:'Helvetica';font-size:85.02px;fill:#000000" text-anchor="end">.006</text>
	<line x1="401.69" y1="777.92" x2="367.66" y2="777.92" style="stroke:#000000;stroke-width:4.90"/>
	<text x="350.71" y="807.70" style="font-family:'Helvetica';font-size:85.02px;fill:#000000" text-anchor="end">.007</text>
	<line x1="401.69" y1="617.28" x2="367.66" y2="617.28" style="stroke:#000000;stroke-width:4.90"/>
	<text x="350.71" y="647.07" style="font-family:'Helvetica';font-size:85.02px;fill:#000000" text-anchor="end">.008</text>
	<line x1="401.69" y1="456.65" x2="367.66" y2="456.65" style="stroke:#000000;stroke-width:4.90"/>
	<text x="350.71" y="486.44" style="font-family:'Helvetica';font-size:85.02px;fill:#000000" text-anchor="end">.009</text>
	<line x1="401.69" y1="1956.18" x2="2078.51" y2="1956.18" style="stroke:#000000;stroke-width:4.90"/>
	<line x1="506.14" y1="1956.18" x2="506.14" y2="1973.13" style="stroke:#000000;stroke-width:4.90"/>
	<line x1="632.73" y1="1956.18" x2="632.73" y2="1973.13" style="stroke:#000000;stroke-width:4.90"/>
	<line x1="759.21" y1="1956.18" x2="759.21" y2="1973.13" style="stroke:#000000;stroke-width:4.90"/>
	<line x1="885.80" y1="1956.18" x2="885.80" y2="1973.13" style="stroke:#000000;stroke-width:4.90"/>
	<line x1="1012.27" y1="1956.18" x2="1012.27" y2="1973.13" style="stroke:#000000;stroke-width:4.90"/>
	<line x1="1138.87" y1="1956.18" x2="1138.87" y2="1973.13" style="stroke:#000000;stroke-width:4.90"/>
	<line x1="1265.47" y1="1956.18" x2="1265.47" y2="1973.13" style="stroke:#000000;stroke-width:4.90"/>
	<line x1="1391.94" y1="1956.18" x2="1391.94" y2="1973.13" style="stroke:#000000;stroke-width:4.90"/>
	<line x1="1518.54" y1="1956.18" x2="1518.54" y2="1973.13" style="stroke:#000000;stroke-width:4.90"/>
	<line x1="1645.01" y1="1956.18" x2="1645.01" y2="1973.13" style="stroke:#000000;stroke-width:4.90"/>
	<line x1="1771.61" y1="1956.18" x2="1771.61" y2="1973.13" style="stroke:#000000;stroke-width:4.90"/>
	<line x1="1898.20" y1="1956.18" x2="1898.20" y2="1973.13" style="stroke:#000000;stroke-width:4.90"/>
	<line x1="2024.67" y1="1956.18" x2="2024.67" y2="1973.13" style="stroke:#000000;stroke-width:4.90"/>
	<line x1="506.14" y1="1956.18" x2="506.14" y2="1990.09" style="stroke:#000000;stroke-width:4.90"/>
	<text x="506.14" y="2066.62" style="font-family:'Helvetica';font-size:85.02px;fill:#000000" text-anchor="middle">20</text>
	<line x1="1012.27" y1="1956.18" x2="1012.27" y2="1990.09" style="stroke:#000000;stroke-width:4.90"/>
	<text x="1012.27" y="2066.62" style="font-family:'Helvetica';font-size:85.02px;fill:#000000" text-anchor="middle">40</text>
	<line x1="1518.54" y1="1956.18" x2="1518.54" y2="1990.09" style="stroke:#000000;stroke-width:4.90"/>
	<text x="1518.54" y="2066.62" style="font-family:'Helvetica';font-size:85.02px;fill:#000000" text-anchor="middle">60</text>
	<line x1="2024.67" y1="1956.18" x2="2024.67" y2="1990.09" style="stroke:#000000;stroke-width:4.90"/>
	<text x="2024.67" y="2066.62" style="font-family:'Helvetica';font-size:85.02px;fill:#000000" text-anchor="middle">80</text>
	<line x1="2147.68" y1="1956.18" x2="3824.49" y2="1956.18" style="stroke:#000000;stroke-width:4.90"/>
	<line x1="2252.13" y1="1956.18" x2="2252.13" y2="1973.13" style="stroke:#000000;stroke-width:4.90"/>
	<line x1="2378.72" y1="1956.18" x2="2378.72" y2="1973.13" style="stroke:#000000;stroke-width:4.90"/>
	<line x1="2505.20" y1="1956.18" x2="2505.20" y2="1973.13" style="stroke:#000000;stroke-width:4.90"/>
	<line x1="2631.79" y1="1956.18" x2="2631.79" y2="1973.13" style="stroke:#000000;stroke-width:4.90"/>
	<line x1="2758.26" y1="1956.18" x2="2758.26" y2="1973.13" style="stroke:#000000;stroke-width:4.90"/>
	<line x1="2884.86" y1="1956.18" x2="2884.86" y2="1973.13" style="stroke:#000000;stroke-width:4.90"/>
	<line x1="3011.46" y1="1956.18" x2="3011.46" y2="1973.13" style="stroke:#000000;stroke-width:4.90"/>
	<line x1="3137.93" y1="1956.18" x2="3137.93" y2="1973.13" style="stroke:#000000;stroke-width:4.90"/>
	<line x1="3264.53" y1="1956.18" x2="3264.53" y2="1973.13" style="stroke:#000000;stroke-width:4.90"/>
	<line x1="3391.00" y1="1956.18" x2="3391.00" y2="1973.13" style="stroke:#000000;stroke-width:4.90"/>
	<line x1="3517.59" y1="1956.18" x2="3517.59" y2="1973.13" style="stroke:#000000;stroke-width:4.90"/>
	<line x1="3644.07" y1="1956.18" x2="3644.07" y2="1973.13" style="stroke:#000000;stroke-width:4.90"/>
	<line x1="3770.66" y1="1956.18" x2="3770.66" y2="1973.13" style="stroke:#000000;stroke-width:4.90"/>
	<line x1="2252.13" y1="1956.18" x2="2252.13" y2="1990.09" style="stroke:#000000;stroke-width:4.90"/>
	<text x="2252.13" y="2066.62" style="font-family:'Helvetica';font-size:85.02px;fill:#000000" text-anchor="middle">20</text>
	<line x1="2758.26" y1="1956.18" x2="2758.26" y2="1990.09" style="stroke:#000000;stroke-width:4.90"/>
	<text x="2758.26" y="2066.62" style="font-family:'Helvetica';font-size:85.02px;fill:#000000" text-anchor="middle">40</text>
	<line x1="3264.53" y1="1956.18" x2="3264.53" y2="1990.09" style="stroke:#000000;stroke-width:4.90"/>
	<text x="3264.53" y="2066.62" style="font-family:'Helvetica';font-size:85.02px;fill:#000000" text-anchor="middle">60</text>
	<line x1="3770.66" y1="1956.18" x2="3770.66" y2="1990.09" style="stroke:#000000;stroke-width:4.90"/>
	<text x="3770.66" y="2066.62" style="font-family:'Helvetica';font-size:85.02px;fill:#000000" text-anchor="middle">80</text>
	<rect x="401.69" y="279.93" width="1676.81" height="122.89" style="fill:#D9E6EB"/>
	<rect x="404.14" y="282.38" width="1671.92" height="117.99" style="fill:none;stroke:#D9E6EB;stroke-width:4.90"/>
	<text x="1240.10" y="359.96" style="font-family:'Helvetica';font-size:93.56px;fill:#000000" text-anchor="middle">Female</text>
	<rect x="2147.68" y="279.93" width="1676.81" height="122.89" style="fill:#D9E6EB"/>
	<rect x="2150.13" y="282.38" width="1671.92" height="117.99" style="fill:none;stroke:#D9E6EB;stroke-width:4.90"/>
	<text x="2986.09" y="359.96" style="font-family:'Helvetica';font-size:93.56px;fill:#000000" text-anchor="middle">Male</text>
	<rect x="838.78" y="2278.31" width="2282.32" height="466.30" style="fill:#FFFFFF"/>
	<rect x="841.66" y="2281.19" width="2276.56" height="460.54" style="fill:none;stroke:#000000;stroke-width:5.76"/>
	<line x1="882.09" y1="2371.50" x2="1256.43" y2="2371.50" style="stroke:#1A476F;stroke-width:8.64"/>
	<line x1="882.09" y1="2511.46" x2="1256.43" y2="2511.46" style="stroke:#FFD200;stroke-width:8.64"/>
	<line x1="882.09" y1="2651.43" x2="1256.43" y2="2651.43" style="stroke:#008000;stroke-width:8.64"/>
	<line x1="1724.70" y1="2371.50" x2="2099.17" y2="2371.50" style="stroke:#FF0000;stroke-width:8.64"/>
	<line x1="1724.70" y1="2511.46" x2="2099.17" y2="2511.46" style="stroke:#FF7F00;stroke-width:8.64"/>
	<line x1="1724.70" y1="2651.43" x2="1727.55" y2="2651.43" style="stroke:#A0A0A0;stroke-width:8.64"/>
	<line x1="1747.72" y1="2651.43" x2="1750.57" y2="2651.43" style="stroke:#A0A0A0;stroke-width:8.64"/>
	<line x1="1770.74" y1="2651.43" x2="1773.71" y2="2651.43" style="stroke:#A0A0A0;stroke-width:8.64"/>
	<line x1="1793.88" y1="2651.43" x2="1796.73" y2="2651.43" style="stroke:#A0A0A0;stroke-width:8.64"/>
	<line x1="1816.90" y1="2651.43" x2="1819.74" y2="2651.43" style="stroke:#A0A0A0;stroke-width:8.64"/>
	<line x1="1839.91" y1="2651.43" x2="1842.76" y2="2651.43" style="stroke:#A0A0A0;stroke-width:8.64"/>
	<line x1="1862.93" y1="2651.43" x2="1865.78" y2="2651.43" style="stroke:#A0A0A0;stroke-width:8.64"/>
	<line x1="1885.95" y1="2651.43" x2="1888.80" y2="2651.43" style="stroke:#A0A0A0;stroke-width:8.64"/>
	<line x1="1908.97" y1="2651.43" x2="1911.81" y2="2651.43" style="stroke:#A0A0A0;stroke-width:8.64"/>
	<line x1="1931.98" y1="2651.43" x2="1934.83" y2="2651.43" style="stroke:#A0A0A0;stroke-width:8.64"/>
	<line x1="1955.00" y1="2651.43" x2="1957.85" y2="2651.43" style="stroke:#A0A0A0;stroke-width:8.64"/>
	<line x1="1978.02" y1="2651.43" x2="1980.87" y2="2651.43" style="stroke:#A0A0A0;stroke-width:8.64"/>
	<line x1="2001.04" y1="2651.43" x2="2003.88" y2="2651.43" style="stroke:#A0A0A0;stroke-width:8.64"/>
	<line x1="2024.06" y1="2651.43" x2="2027.03" y2="2651.43" style="stroke:#A0A0A0;stroke-width:8.64"/>
	<line x1="2047.20" y1="2651.43" x2="2050.04" y2="2651.43" style="stroke:#A0A0A0;stroke-width:8.64"/>
	<line x1="2070.21" y1="2651.43" x2="2073.06" y2="2651.43" style="stroke:#A0A0A0;stroke-width:8.64"/>
	<line x1="2093.23" y1="2651.43" x2="2096.08" y2="2651.43" style="stroke:#A0A0A0;stroke-width:8.64"/>
	<text x="1316.45" y="2406.52" style="font-family:'Helvetica';font-size:99.99px;fill:#000000">White</text>
	<text x="1316.45" y="2546.49" style="font-family:'Helvetica';font-size:99.99px;fill:#000000">Asian</text>
	<text x="1316.45" y="2686.46" style="font-family:'Helvetica';font-size:99.99px;fill:#000000">Black</text>
	<text x="2159.07" y="2406.52" style="font-family:'Helvetica';font-size:99.99px;fill:#000000">Mixed</text>
	<text x="2159.07" y="2546.49" style="font-family:'Helvetica';font-size:99.99px;fill:#000000">Other</text>
	<text x="2159.07" y="2686.46" style="font-family:'Helvetica';font-size:99.99px;fill:#000000">Ref (Age 65, White)</text>
	<text x="1980.00" y="2213.60" style="font-family:'Helvetica';font-size:99.99px;fill:#000000" text-anchor="middle">Age (years)</text>
	<text x="1980.00" y="195.01" style="font-family:'Helvetica';font-size:110.01px;fill:#000000" text-anchor="middle">No comorbidities</text>
</svg>
