<?xml version="1.0" encoding="UTF-8" standalone="no"?>
<!-- This is a Stata 16.1 generated SVG file (http://www.stata.com) -->

<svg version="1.1" width="1600px" height="1164px" viewBox="0 0 3960 2880" xmlns="http://www.w3.org/2000/svg" xmlns:xlink="http://www.w3.org/1999/xlink">
	<desc>Stata Graph - Graph</desc>
	<rect x="0" y="0" width="3960" height="2880" style="fill:#EAF2F3;stroke:none"/>
	<rect x="0.00" y="0.00" width="3959.88" height="2880.00" style="fill:#EAF2F3"/>
	<rect x="2.88" y="2.88" width="3954.12" height="2874.24" style="fill:none;stroke:#EAF2F3;stroke-width:5.76"/>
	<rect x="401.69" y="402.82" width="1676.81" height="1553.36" style="fill:#FFFFFF"/>
	<rect x="404.14" y="405.27" width="1671.92" height="1548.46" style="fill:none;stroke:#FFFFFF;stroke-width:4.90"/>
	<line x1="401.69" y1="1902.22" x2="2078.51" y2="1902.22" style="stroke:#EAF2F3;stroke-width:7.34"/>
	<line x1="401.69" y1="1613.13" x2="2078.51" y2="1613.13" style="stroke:#EAF2F3;stroke-width:7.34"/>
	<line x1="401.69" y1="1324.04" x2="2078.51" y2="1324.04" style="stroke:#EAF2F3;stroke-width:7.34"/>
	<line x1="401.69" y1="1034.95" x2="2078.51" y2="1034.95" style="stroke:#EAF2F3;stroke-width:7.34"/>
	<line x1="401.69" y1="745.74" x2="2078.51" y2="745.74" style="stroke:#EAF2F3;stroke-width:7.34"/>
	<rect x="2147.68" y="402.82" width="1676.81" height="1553.36" style="fill:#FFFFFF"/>
	<rect x="2150.13" y="405.27" width="1671.92" height="1548.46" style="fill:none;stroke:#FFFFFF;stroke-width:4.90"/>
	<line x1="2147.68" y1="1902.22" x2="3824.49" y2="1902.22" style="stroke:#EAF2F3;stroke-width:7.34"/>
	<line x1="2147.68" y1="1613.13" x2="3824.49" y2="1613.13" style="stroke:#EAF2F3;stroke-width:7.34"/>
	<line x1="2147.68" y1="1324.04" x2="3824.49" y2="1324.04" style="stroke:#EAF2F3;stroke-width:7.34"/>
	<line x1="2147.68" y1="1034.95" x2="3824.49" y2="1034.95" style="stroke:#EAF2F3;stroke-width:7.34"/>
	<line x1="2147.68" y1="745.74" x2="3824.49" y2="745.74" style="stroke:#EAF2F3;stroke-width:7.34"/>
	<line x1="455.52" y1="1858.91" x2="455.52" y2="1858.91" style="stroke:#A0A0A0;stroke-width:7.34"/>
	<line x1="455.52" y1="1858.91" x2="455.52" y2="1858.91" style="stroke:#A0A0A0;stroke-width:7.34"/>
	<line x1="455.52" y1="1858.91" x2="455.52" y2="1858.91" style="stroke:#A0A0A0;stroke-width:7.34"/>
	<line x1="455.52" y1="1858.91" x2="455.52" y2="1858.91" style="stroke:#A0A0A0;stroke-width:7.34"/>
	<line x1="455.52" y1="1858.91" x2="458.37" y2="1858.91" style="stroke:#A0A0A0;stroke-width:7.34"/>
	<line x1="478.54" y1="1858.91" x2="480.77" y2="1858.91" style="stroke:#A0A0A0;stroke-width:7.34"/>
	<line x1="480.77" y1="1858.91" x2="480.77" y2="1858.91" style="stroke:#A0A0A0;stroke-width:7.34"/>
	<line x1="480.77" y1="1858.91" x2="480.77" y2="1858.91" style="stroke:#A0A0A0;stroke-width:7.34"/>
	<line x1="480.77" y1="1858.91" x2="480.77" y2="1858.91" style="stroke:#A0A0A0;stroke-width:7.34"/>
	<line x1="480.77" y1="1858.91" x2="480.77" y2="1858.91" style="stroke:#A0A0A0;stroke-width:7.34"/>
	<line x1="480.77" y1="1858.91" x2="481.39" y2="1858.91" style="stroke:#A0A0A0;stroke-width:7.34"/>
	<line x1="501.56" y1="1858.91" x2="504.40" y2="1858.91" style="stroke:#A0A0A0;stroke-width:7.34"/>
	<line x1="524.58" y1="1858.91" x2="527.42" y2="1858.91" style="stroke:#A0A0A0;stroke-width:7.34"/>
	<line x1="547.59" y1="1858.91" x2="550.44" y2="1858.91" style="stroke:#A0A0A0;stroke-width:7.34"/>
	<line x1="570.61" y1="1858.91" x2="573.58" y2="1858.91" style="stroke:#A0A0A0;stroke-width:7.34"/>
	<line x1="593.75" y1="1858.91" x2="596.60" y2="1858.91" style="stroke:#A0A0A0;stroke-width:7.34"/>
	<line x1="616.77" y1="1858.91" x2="619.62" y2="1858.91" style="stroke:#A0A0A0;stroke-width:7.34"/>
	<line x1="639.79" y1="1858.91" x2="642.63" y2="1858.91" style="stroke:#A0A0A0;stroke-width:7.34"/>
	<line x1="662.80" y1="1858.91" x2="665.65" y2="1858.91" style="stroke:#A0A0A0;stroke-width:7.34"/>
	<line x1="685.82" y1="1858.91" x2="688.67" y2="1858.91" style="stroke:#A0A0A0;stroke-width:7.34"/>
	<line x1="708.84" y1="1858.91" x2="711.69" y2="1858.91" style="stroke:#A0A0A0;stroke-width:7.34"/>
	<line x1="731.86" y1="1858.91" x2="733.84" y2="1858.91" style="stroke:#A0A0A0;stroke-width:7.34"/>
	<line x1="733.84" y1="1858.91" x2="733.84" y2="1858.91" style="stroke:#A0A0A0;stroke-width:7.34"/>
	<line x1="733.84" y1="1858.91" x2="733.84" y2="1858.91" style="stroke:#A0A0A0;stroke-width:7.34"/>
	<line x1="733.84" y1="1858.91" x2="733.84" y2="1858.91" style="stroke:#A0A0A0;stroke-width:7.34"/>
	<line x1="733.84" y1="1858.91" x2="733.84" y2="1858.91" style="stroke:#A0A0A0;stroke-width:7.34"/>
	<line x1="733.84" y1="1858.91" x2="734.70" y2="1858.91" style="stroke:#A0A0A0;stroke-width:7.34"/>
	<line x1="754.88" y1="1858.91" x2="757.72" y2="1858.91" style="stroke:#A0A0A0;stroke-width:7.34"/>
	<line x1="777.89" y1="1858.91" x2="780.74" y2="1858.91" style="stroke:#A0A0A0;stroke-width:7.34"/>
	<line x1="800.91" y1="1858.91" x2="803.88" y2="1858.91" style="stroke:#A0A0A0;stroke-width:7.34"/>
	<line x1="823.93" y1="1858.91" x2="826.90" y2="1858.91" style="stroke:#A0A0A0;stroke-width:7.34"/>
	<line x1="847.07" y1="1858.91" x2="849.91" y2="1858.91" style="stroke:#A0A0A0;stroke-width:7.34"/>
	<line x1="870.09" y1="1858.91" x2="872.93" y2="1858.91" style="stroke:#A0A0A0;stroke-width:7.34"/>
	<line x1="893.10" y1="1858.91" x2="895.95" y2="1858.91" style="stroke:#A0A0A0;stroke-width:7.34"/>
	<line x1="916.12" y1="1858.91" x2="918.97" y2="1858.91" style="stroke:#A0A0A0;stroke-width:7.34"/>
	<line x1="939.14" y1="1858.91" x2="941.99" y2="1858.91" style="stroke:#A0A0A0;stroke-width:7.34"/>
	<line x1="962.16" y1="1858.91" x2="965.00" y2="1858.91" style="stroke:#A0A0A0;stroke-width:7.34"/>
	<line x1="985.17" y1="1858.91" x2="986.91" y2="1858.91" style="stroke:#A0A0A0;stroke-width:7.34"/>
	<line x1="986.91" y1="1858.91" x2="986.91" y2="1858.91" style="stroke:#A0A0A0;stroke-width:7.34"/>
	<line x1="986.91" y1="1858.91" x2="986.91" y2="1858.91" style="stroke:#A0A0A0;stroke-width:7.34"/>
	<line x1="986.91" y1="1858.91" x2="986.91" y2="1858.91" style="stroke:#A0A0A0;stroke-width:7.34"/>
	<line x1="986.91" y1="1858.91" x2="986.91" y2="1858.91" style="stroke:#A0A0A0;stroke-width:7.34"/>
	<line x1="986.91" y1="1858.91" x2="988.02" y2="1858.91" style="stroke:#A0A0A0;stroke-width:7.34"/>
	<line x1="1008.19" y1="1858.91" x2="1011.04" y2="1858.91" style="stroke:#A0A0A0;stroke-width:7.34"/>
	<line x1="1031.21" y1="1858.91" x2="1034.06" y2="1858.91" style="stroke:#A0A0A0;stroke-width:7.34"/>
	<line x1="1054.23" y1="1858.91" x2="1057.20" y2="1858.91" style="stroke:#A0A0A0;stroke-width:7.34"/>
	<line x1="1077.24" y1="1858.91" x2="1080.21" y2="1858.91" style="stroke:#A0A0A0;stroke-width:7.34"/>
	<line x1="1100.38" y1="1858.91" x2="1103.23" y2="1858.91" style="stroke:#A0A0A0;stroke-width:7.34"/>
	<line x1="1123.40" y1="1858.91" x2="1126.25" y2="1858.91" style="stroke:#A0A0A0;stroke-width:7.34"/>
	<line x1="1146.42" y1="1858.91" x2="1149.27" y2="1858.91" style="stroke:#A0A0A0;stroke-width:7.34"/>
	<line x1="1169.44" y1="1858.91" x2="1172.28" y2="1858.91" style="stroke:#A0A0A0;stroke-width:7.34"/>
	<line x1="1192.45" y1="1858.91" x2="1195.30" y2="1858.91" style="stroke:#A0A0A0;stroke-width:7.34"/>
	<line x1="1215.47" y1="1858.91" x2="1218.32" y2="1858.91" style="stroke:#A0A0A0;stroke-width:7.34"/>
	<line x1="1238.49" y1="1858.91" x2="1240.10" y2="1858.91" style="stroke:#A0A0A0;stroke-width:7.34"/>
	<line x1="1240.10" y1="1858.91" x2="1240.10" y2="1858.91" style="stroke:#A0A0A0;stroke-width:7.34"/>
	<line x1="1240.10" y1="1858.91" x2="1240.10" y2="1858.91" style="stroke:#A0A0A0;stroke-width:7.34"/>
	<line x1="1240.10" y1="1858.91" x2="1240.10" y2="1858.91" style="stroke:#A0A0A0;stroke-width:7.34"/>
	<line x1="1240.10" y1="1858.91" x2="1240.10" y2="1858.91" style="stroke:#A0A0A0;stroke-width:7.34"/>
	<line x1="1240.10" y1="1858.91" x2="1241.34" y2="1858.91" style="stroke:#A0A0A0;stroke-width:7.34"/>
	<line x1="1261.51" y1="1858.91" x2="1264.35" y2="1858.91" style="stroke:#A0A0A0;stroke-width:7.34"/>
	<line x1="1284.53" y1="1858.91" x2="1287.37" y2="1858.91" style="stroke:#A0A0A0;stroke-width:7.34"/>
	<line x1="1307.54" y1="1858.91" x2="1310.51" y2="1858.91" style="stroke:#A0A0A0;stroke-width:7.34"/>
	<line x1="1330.56" y1="1858.91" x2="1333.53" y2="1858.91" style="stroke:#A0A0A0;stroke-width:7.34"/>
	<line x1="1353.70" y1="1858.91" x2="1356.55" y2="1858.91" style="stroke:#A0A0A0;stroke-width:7.34"/>
	<line x1="1376.72" y1="1858.91" x2="1379.57" y2="1858.91" style="stroke:#A0A0A0;stroke-width:7.34"/>
	<line x1="1399.74" y1="1858.91" x2="1402.58" y2="1858.91" style="stroke:#A0A0A0;stroke-width:7.34"/>
	<line x1="1422.75" y1="1858.91" x2="1425.60" y2="1858.91" style="stroke:#A0A0A0;stroke-width:7.34"/>
	<line x1="1445.77" y1="1858.91" x2="1448.62" y2="1858.91" style="stroke:#A0A0A0;stroke-width:7.34"/>
	<line x1="1468.79" y1="1858.91" x2="1471.63" y2="1858.91" style="stroke:#A0A0A0;stroke-width:7.34"/>
	<line x1="1491.81" y1="1858.91" x2="1493.17" y2="1858.91" style="stroke:#A0A0A0;stroke-width:7.34"/>
	<line x1="1493.17" y1="1858.91" x2="1493.17" y2="1858.91" style="stroke:#A0A0A0;stroke-width:7.34"/>
	<line x1="1493.17" y1="1858.91" x2="1493.17" y2="1858.91" style="stroke:#A0A0A0;stroke-width:7.34"/>
	<line x1="1493.17" y1="1858.91" x2="1493.17" y2="1858.91" style="stroke:#A0A0A0;stroke-width:7.34"/>
	<line x1="1493.17" y1="1858.91" x2="1493.17" y2="1858.91" style="stroke:#A0A0A0;stroke-width:7.34"/>
	<line x1="1493.17" y1="1858.91" x2="1494.65" y2="1858.91" style="stroke:#A0A0A0;stroke-width:7.34"/>
	<line x1="1514.82" y1="1858.91" x2="1517.67" y2="1858.91" style="stroke:#A0A0A0;stroke-width:7.34"/>
	<line x1="1537.84" y1="1858.91" x2="1540.69" y2="1858.91" style="stroke:#A0A0A0;stroke-width:7.34"/>
	<line x1="1560.86" y1="1858.91" x2="1563.83" y2="1858.91" style="stroke:#A0A0A0;stroke-width:7.34"/>
	<line x1="1584.00" y1="1858.91" x2="1586.85" y2="1858.91" style="stroke:#A0A0A0;stroke-width:7.34"/>
	<line x1="1607.02" y1="1858.91" x2="1609.86" y2="1858.91" style="stroke:#A0A0A0;stroke-width:7.34"/>
	<line x1="1630.04" y1="1858.91" x2="1632.88" y2="1858.91" style="stroke:#A0A0A0;stroke-width:7.34"/>
	<line x1="1653.05" y1="1858.91" x2="1655.90" y2="1858.91" style="stroke:#A0A0A0;stroke-width:7.34"/>
	<line x1="1676.07" y1="1858.91" x2="1678.92" y2="1858.91" style="stroke:#A0A0A0;stroke-width:7.34"/>
	<line x1="1699.09" y1="1858.91" x2="1701.93" y2="1858.91" style="stroke:#A0A0A0;stroke-width:7.34"/>
	<line x1="1722.11" y1="1858.91" x2="1724.95" y2="1858.91" style="stroke:#A0A0A0;stroke-width:7.34"/>
	<line x1="1745.12" y1="1858.91" x2="1746.24" y2="1858.91" style="stroke:#A0A0A0;stroke-width:7.34"/>
	<line x1="1746.24" y1="1858.91" x2="1746.24" y2="1858.91" style="stroke:#A0A0A0;stroke-width:7.34"/>
	<line x1="1746.24" y1="1858.91" x2="1746.24" y2="1858.91" style="stroke:#A0A0A0;stroke-width:7.34"/>
	<line x1="1746.24" y1="1858.91" x2="1746.24" y2="1858.91" style="stroke:#A0A0A0;stroke-width:7.34"/>
	<line x1="1746.24" y1="1858.91" x2="1746.24" y2="1858.91" style="stroke:#A0A0A0;stroke-width:7.34"/>
	<line x1="1746.24" y1="1858.91" x2="1747.97" y2="1858.91" style="stroke:#A0A0A0;stroke-width:7.34"/>
	<line x1="1768.14" y1="1858.91" x2="1770.99" y2="1858.91" style="stroke:#A0A0A0;stroke-width:7.34"/>
	<line x1="1791.16" y1="1858.91" x2="1794.00" y2="1858.91" style="stroke:#A0A0A0;stroke-width:7.34"/>
	<line x1="1814.17" y1="1858.91" x2="1817.14" y2="1858.91" style="stroke:#A0A0A0;stroke-width:7.34"/>
	<line x1="1837.32" y1="1858.91" x2="1840.16" y2="1858.91" style="stroke:#A0A0A0;stroke-width:7.34"/>
	<line x1="1860.33" y1="1858.91" x2="1863.18" y2="1858.91" style="stroke:#A0A0A0;stroke-width:7.34"/>
	<line x1="1883.35" y1="1858.91" x2="1886.20" y2="1858.91" style="stroke:#A0A0A0;stroke-width:7.34"/>
	<line x1="1906.37" y1="1858.91" x2="1909.21" y2="1858.91" style="stroke:#A0A0A0;stroke-width:7.34"/>
	<line x1="1929.39" y1="1858.91" x2="1932.23" y2="1858.91" style="stroke:#A0A0A0;stroke-width:7.34"/>
	<line x1="1952.40" y1="1858.91" x2="1955.25" y2="1858.91" style="stroke:#A0A0A0;stroke-width:7.34"/>
	<line x1="1975.42" y1="1858.91" x2="1978.27" y2="1858.91" style="stroke:#A0A0A0;stroke-width:7.34"/>
	<line x1="1998.44" y1="1858.91" x2="1999.31" y2="1858.91" style="stroke:#A0A0A0;stroke-width:7.34"/>
	<line x1="1999.31" y1="1858.91" x2="1999.31" y2="1858.91" style="stroke:#A0A0A0;stroke-width:7.34"/>
	<line x1="1999.31" y1="1858.91" x2="1999.31" y2="1858.91" style="stroke:#A0A0A0;stroke-width:7.34"/>
	<line x1="1999.31" y1="1858.91" x2="1999.31" y2="1858.91" style="stroke:#A0A0A0;stroke-width:7.34"/>
	<line x1="1999.31" y1="1858.91" x2="1999.31" y2="1858.91" style="stroke:#A0A0A0;stroke-width:7.34"/>
	<line x1="1999.31" y1="1858.91" x2="2001.29" y2="1858.91" style="stroke:#A0A0A0;stroke-width:7.34"/>
	<line x1="2021.46" y1="1858.91" x2="2024.30" y2="1858.91" style="stroke:#A0A0A0;stroke-width:7.34"/>
	<path d="" stroke-linejoin="round" style="fill:none;stroke:#A0A0A0;stroke-width:7.34"/>
	<path d=" M455.52 1902.22 L480.77 1902.22 L506.14 1902.10 L531.38 1902.10 L556.75 1902.10 L582.00 1901.97 L607.37 1901.97 L632.61 1901.85 L657.98 1901.85 L683.22 1901.73 L708.59 1901.60 L733.84 1901.48 L759.21 1901.35 L784.45 1901.11 L809.82 1900.98 L835.07 1900.74 L860.43 1900.36 L885.68 1900.12 L911.05 1899.75 L936.29 1899.37 L961.66 1899.00 L986.91 1898.51 L1012.27 1898.01 L1037.52 1897.52 L1062.89 1896.90 L1088.13 1896.28 L1113.50 1895.66 L1138.87 1895.04 L1164.12 1894.30 L1189.48 1893.43 L1214.73 1892.69 L1240.10 1891.83 L1265.34 1890.84 L1290.71 1889.85 L1315.96 1888.73 L1341.33 1887.62 L1366.57 1886.26 L1391.94 1884.90 L1417.18 1883.29 L1442.55 1881.68 L1467.80 1879.70 L1493.17 1877.59 L1518.41 1875.37 L1543.78 1872.64 L1569.03 1869.80 L1594.39 1866.58 L1619.64 1862.99 L1645.01 1858.91 L1670.25 1854.33 L1695.62 1849.38 L1720.87 1843.69 L1746.24 1837.37 L1771.48 1830.32 L1796.85 1822.52 L1822.10 1813.74 L1847.46 1803.84 L1872.71 1792.95 L1898.08 1780.57 L1923.45 1766.96 L1948.69 1751.61 L1974.06 1734.41 L1999.31 1715.35 L2024.67 1693.94" stroke-linejoin="round" style="fill:none;stroke:#1A476F;stroke-width:7.34"/>
	<path d=" M455.52 1902.10 L480.77 1902.10 L506.14 1902.10 L531.38 1901.97 L556.75 1901.97 L582.00 1901.85 L607.37 1901.85 L632.61 1901.73 L657.98 1901.60 L683.22 1901.48 L708.59 1901.23 L733.84 1901.11 L759.21 1900.86 L784.45 1900.61 L809.82 1900.36 L835.07 1899.99 L860.43 1899.62 L885.68 1899.25 L911.05 1898.76 L936.29 1898.26 L961.66 1897.64 L986.91 1897.02 L1012.27 1896.28 L1037.52 1895.54 L1062.89 1894.80 L1088.13 1893.93 L1113.50 1892.94 L1138.87 1892.07 L1164.12 1890.96 L1189.48 1889.85 L1214.73 1888.73 L1240.10 1887.49 L1265.34 1886.13 L1290.71 1884.77 L1315.96 1883.16 L1341.33 1881.55 L1366.57 1879.82 L1391.94 1877.84 L1417.18 1875.61 L1442.55 1873.26 L1467.80 1870.54 L1493.17 1867.69 L1518.41 1864.35 L1543.78 1860.64 L1569.03 1856.56 L1594.39 1851.98 L1619.64 1846.90 L1645.01 1841.21 L1670.25 1834.90 L1695.62 1827.84 L1720.87 1819.92 L1746.24 1811.01 L1771.48 1801.24 L1796.85 1790.10 L1822.10 1777.72 L1847.46 1763.99 L1872.71 1748.52 L1898.08 1731.19 L1923.45 1712.01 L1948.69 1690.35 L1974.06 1666.35 L1999.31 1639.49 L2024.67 1609.42" stroke-linejoin="round" style="fill:none;stroke:#FFD200;stroke-width:7.34"/>
	<path d=" M455.52 1902.10 L480.77 1902.10 L506.14 1902.10 L531.38 1901.97 L556.75 1901.97 L582.00 1901.85 L607.37 1901.73 L632.61 1901.60 L657.98 1901.48 L683.22 1901.35 L708.59 1901.23 L733.84 1900.98 L759.21 1900.74 L784.45 1900.49 L809.82 1900.12 L835.07 1899.75 L860.43 1899.37 L885.68 1898.88 L911.05 1898.38 L936.29 1897.77 L961.66 1897.15 L986.91 1896.40 L1012.27 1895.66 L1037.52 1894.80 L1062.89 1893.93 L1088.13 1892.94 L1113.50 1891.95 L1138.87 1890.84 L1164.12 1889.72 L1189.48 1888.48 L1214.73 1887.12 L1240.10 1885.76 L1265.34 1884.28 L1290.71 1882.67 L1315.96 1881.06 L1341.33 1879.20 L1366.57 1877.10 L1391.94 1874.99 L1417.18 1872.52 L1442.55 1869.92 L1467.80 1866.95 L1493.17 1863.61 L1518.41 1860.02 L1543.78 1855.94 L1569.03 1851.36 L1594.39 1846.28 L1619.64 1840.59 L1645.01 1834.28 L1670.25 1827.10 L1695.62 1819.31 L1720.87 1810.40 L1746.24 1800.62 L1771.48 1789.48 L1796.85 1777.23 L1822.10 1763.37 L1847.46 1748.02 L1872.71 1730.82 L1898.08 1711.52 L1923.45 1689.98 L1948.69 1665.97 L1974.06 1639.12 L1999.31 1609.17 L2024.67 1575.76" stroke-linejoin="round" style="fill:none;stroke:#008000;stroke-width:7.34"/>
	<path d=" M455.52 1902.10 L480.77 1902.10 L506.14 1902.10 L531.38 1901.97 L556.75 1901.97 L582.00 1901.85 L607.37 1901.73 L632.61 1901.73 L657.98 1901.60 L683.22 1901.35 L708.59 1901.23 L733.84 1900.98 L759.21 1900.86 L784.45 1900.49 L809.82 1900.24 L835.07 1899.87 L860.43 1899.50 L885.68 1899.00 L911.05 1898.51 L936.29 1898.01 L961.66 1897.39 L986.91 1896.65 L1012.27 1895.91 L1037.52 1895.17 L1062.89 1894.30 L1088.13 1893.43 L1113.50 1892.44 L1138.87 1891.45 L1164.12 1890.34 L1189.48 1889.23 L1214.73 1887.99 L1240.10 1886.63 L1265.34 1885.27 L1290.71 1883.78 L1315.96 1882.17 L1341.33 1880.44 L1366.57 1878.46 L1391.94 1876.48 L1417.18 1874.13 L1442.55 1871.65 L1467.80 1868.81 L1493.17 1865.71 L1518.41 1862.25 L1543.78 1858.41 L1569.03 1854.08 L1594.39 1849.25 L1619.64 1843.81 L1645.01 1837.87 L1670.25 1831.19 L1695.62 1823.64 L1720.87 1815.35 L1746.24 1806.06 L1771.48 1795.54 L1796.85 1783.91 L1822.10 1770.79 L1847.46 1756.31 L1872.71 1739.98 L1898.08 1721.79 L1923.45 1701.37 L1948.69 1678.60 L1974.06 1653.23 L1999.31 1624.89 L2024.67 1593.21" stroke-linejoin="round" style="fill:none;stroke:#FF0000;stroke-width:7.34"/>
	<path d=" M455.52 1902.22 L480.77 1902.10 L506.14 1902.10 L531.38 1902.10 L556.75 1901.97 L582.00 1901.97 L607.37 1901.85 L632.61 1901.73 L657.98 1901.60 L683.22 1901.48 L708.59 1901.35 L733.84 1901.23 L759.21 1900.98 L784.45 1900.74 L809.82 1900.49 L835.07 1900.24 L860.43 1899.87 L885.68 1899.50 L911.05 1899.00 L936.29 1898.51 L961.66 1898.01 L986.91 1897.39 L1012.27 1896.78 L1037.52 1896.03 L1062.89 1895.29 L1088.13 1894.55 L1113.50 1893.68 L1138.87 1892.82 L1164.12 1891.83 L1189.48 1890.84 L1214.73 1889.72 L1240.10 1888.61 L1265.34 1887.37 L1290.71 1886.01 L1315.96 1884.65 L1341.33 1883.04 L1366.57 1881.43 L1391.94 1879.57 L1417.18 1877.59 L1442.55 1875.37 L1467.80 1872.89 L1493.17 1870.17 L1518.41 1867.20 L1543.78 1863.73 L1569.03 1860.02 L1594.39 1855.81 L1619.64 1850.99 L1645.01 1845.79 L1670.25 1839.85 L1695.62 1833.29 L1720.87 1825.99 L1746.24 1817.82 L1771.48 1808.66 L1796.85 1798.39 L1822.10 1787.01 L1847.46 1774.26 L1872.71 1759.90 L1898.08 1743.94 L1923.45 1726.00 L1948.69 1706.07 L1974.06 1683.80 L1999.31 1658.92 L2024.67 1631.08" stroke-linejoin="round" style="fill:none;stroke:#FF7F00;stroke-width:7.34"/>
	<line x1="2201.39" y1="1838.61" x2="2201.39" y2="1838.61" style="stroke:#A0A0A0;stroke-width:7.34"/>
	<line x1="2201.39" y1="1838.61" x2="2201.39" y2="1838.61" style="stroke:#A0A0A0;stroke-width:7.34"/>
	<line x1="2201.39" y1="1838.61" x2="2201.39" y2="1838.61" style="stroke:#A0A0A0;stroke-width:7.34"/>
	<line x1="2201.39" y1="1838.61" x2="2201.39" y2="1838.61" style="stroke:#A0A0A0;stroke-width:7.34"/>
	<line x1="2201.39" y1="1838.61" x2="2204.24" y2="1838.61" style="stroke:#A0A0A0;stroke-width:7.34"/>
	<line x1="2224.41" y1="1838.61" x2="2226.76" y2="1838.61" style="stroke:#A0A0A0;stroke-width:7.34"/>
	<line x1="2226.76" y1="1838.61" x2="2226.76" y2="1838.61" style="stroke:#A0A0A0;stroke-width:7.34"/>
	<line x1="2226.76" y1="1838.61" x2="2226.76" y2="1838.61" style="stroke:#A0A0A0;stroke-width:7.34"/>
	<line x1="2226.76" y1="1838.61" x2="2226.76" y2="1838.61" style="stroke:#A0A0A0;stroke-width:7.34"/>
	<line x1="2226.76" y1="1838.61" x2="2226.76" y2="1838.61" style="stroke:#A0A0A0;stroke-width:7.34"/>
	<line x1="2226.76" y1="1838.61" x2="2227.25" y2="1838.61" style="stroke:#A0A0A0;stroke-width:7.34"/>
	<line x1="2247.42" y1="1838.61" x2="2250.27" y2="1838.61" style="stroke:#A0A0A0;stroke-width:7.34"/>
	<line x1="2270.44" y1="1838.61" x2="2273.29" y2="1838.61" style="stroke:#A0A0A0;stroke-width:7.34"/>
	<line x1="2293.46" y1="1838.61" x2="2296.43" y2="1838.61" style="stroke:#A0A0A0;stroke-width:7.34"/>
	<line x1="2316.60" y1="1838.61" x2="2319.45" y2="1838.61" style="stroke:#A0A0A0;stroke-width:7.34"/>
	<line x1="2339.62" y1="1838.61" x2="2342.46" y2="1838.61" style="stroke:#A0A0A0;stroke-width:7.34"/>
	<line x1="2362.64" y1="1838.61" x2="2365.48" y2="1838.61" style="stroke:#A0A0A0;stroke-width:7.34"/>
	<line x1="2385.65" y1="1838.61" x2="2388.50" y2="1838.61" style="stroke:#A0A0A0;stroke-width:7.34"/>
	<line x1="2408.67" y1="1838.61" x2="2411.52" y2="1838.61" style="stroke:#A0A0A0;stroke-width:7.34"/>
	<line x1="2431.69" y1="1838.61" x2="2434.53" y2="1838.61" style="stroke:#A0A0A0;stroke-width:7.34"/>
	<line x1="2454.70" y1="1838.61" x2="2457.55" y2="1838.61" style="stroke:#A0A0A0;stroke-width:7.34"/>
	<line x1="2477.72" y1="1838.61" x2="2479.83" y2="1838.61" style="stroke:#A0A0A0;stroke-width:7.34"/>
	<line x1="2479.83" y1="1838.61" x2="2479.83" y2="1838.61" style="stroke:#A0A0A0;stroke-width:7.34"/>
	<line x1="2479.83" y1="1838.61" x2="2479.83" y2="1838.61" style="stroke:#A0A0A0;stroke-width:7.34"/>
	<line x1="2479.83" y1="1838.61" x2="2479.83" y2="1838.61" style="stroke:#A0A0A0;stroke-width:7.34"/>
	<line x1="2479.83" y1="1838.61" x2="2479.83" y2="1838.61" style="stroke:#A0A0A0;stroke-width:7.34"/>
	<line x1="2479.83" y1="1838.61" x2="2480.57" y2="1838.61" style="stroke:#A0A0A0;stroke-width:7.34"/>
	<line x1="2500.74" y1="1838.61" x2="2503.59" y2="1838.61" style="stroke:#A0A0A0;stroke-width:7.34"/>
	<line x1="2523.76" y1="1838.61" x2="2526.60" y2="1838.61" style="stroke:#A0A0A0;stroke-width:7.34"/>
	<line x1="2546.78" y1="1838.61" x2="2549.74" y2="1838.61" style="stroke:#A0A0A0;stroke-width:7.34"/>
	<line x1="2569.92" y1="1838.61" x2="2572.76" y2="1838.61" style="stroke:#A0A0A0;stroke-width:7.34"/>
	<line x1="2592.93" y1="1838.61" x2="2595.78" y2="1838.61" style="stroke:#A0A0A0;stroke-width:7.34"/>
	<line x1="2615.95" y1="1838.61" x2="2618.80" y2="1838.61" style="stroke:#A0A0A0;stroke-width:7.34"/>
	<line x1="2638.97" y1="1838.61" x2="2641.82" y2="1838.61" style="stroke:#A0A0A0;stroke-width:7.34"/>
	<line x1="2661.99" y1="1838.61" x2="2664.83" y2="1838.61" style="stroke:#A0A0A0;stroke-width:7.34"/>
	<line x1="2685.00" y1="1838.61" x2="2687.85" y2="1838.61" style="stroke:#A0A0A0;stroke-width:7.34"/>
	<line x1="2708.02" y1="1838.61" x2="2710.87" y2="1838.61" style="stroke:#A0A0A0;stroke-width:7.34"/>
	<line x1="2731.04" y1="1838.61" x2="2732.89" y2="1838.61" style="stroke:#A0A0A0;stroke-width:7.34"/>
	<line x1="2732.89" y1="1838.61" x2="2732.89" y2="1838.61" style="stroke:#A0A0A0;stroke-width:7.34"/>
	<line x1="2732.89" y1="1838.61" x2="2732.89" y2="1838.61" style="stroke:#A0A0A0;stroke-width:7.34"/>
	<line x1="2732.89" y1="1838.61" x2="2732.89" y2="1838.61" style="stroke:#A0A0A0;stroke-width:7.34"/>
	<line x1="2732.89" y1="1838.61" x2="2732.89" y2="1838.61" style="stroke:#A0A0A0;stroke-width:7.34"/>
	<line x1="2732.89" y1="1838.61" x2="2733.89" y2="1838.61" style="stroke:#A0A0A0;stroke-width:7.34"/>
	<line x1="2754.06" y1="1838.61" x2="2756.90" y2="1838.61" style="stroke:#A0A0A0;stroke-width:7.34"/>
	<line x1="2777.07" y1="1838.61" x2="2779.92" y2="1838.61" style="stroke:#A0A0A0;stroke-width:7.34"/>
	<line x1="2800.09" y1="1838.61" x2="2803.06" y2="1838.61" style="stroke:#A0A0A0;stroke-width:7.34"/>
	<line x1="2823.23" y1="1838.61" x2="2826.08" y2="1838.61" style="stroke:#A0A0A0;stroke-width:7.34"/>
	<line x1="2846.25" y1="1838.61" x2="2849.10" y2="1838.61" style="stroke:#A0A0A0;stroke-width:7.34"/>
	<line x1="2869.27" y1="1838.61" x2="2872.11" y2="1838.61" style="stroke:#A0A0A0;stroke-width:7.34"/>
	<line x1="2892.28" y1="1838.61" x2="2895.13" y2="1838.61" style="stroke:#A0A0A0;stroke-width:7.34"/>
	<line x1="2915.30" y1="1838.61" x2="2918.15" y2="1838.61" style="stroke:#A0A0A0;stroke-width:7.34"/>
	<line x1="2938.32" y1="1838.61" x2="2941.17" y2="1838.61" style="stroke:#A0A0A0;stroke-width:7.34"/>
	<line x1="2961.34" y1="1838.61" x2="2964.18" y2="1838.61" style="stroke:#A0A0A0;stroke-width:7.34"/>
	<line x1="2984.36" y1="1838.61" x2="2986.09" y2="1838.61" style="stroke:#A0A0A0;stroke-width:7.34"/>
	<line x1="2986.09" y1="1838.61" x2="2986.09" y2="1838.61" style="stroke:#A0A0A0;stroke-width:7.34"/>
	<line x1="2986.09" y1="1838.61" x2="2986.09" y2="1838.61" style="stroke:#A0A0A0;stroke-width:7.34"/>
	<line x1="2986.09" y1="1838.61" x2="2986.09" y2="1838.61" style="stroke:#A0A0A0;stroke-width:7.34"/>
	<line x1="2986.09" y1="1838.61" x2="2986.09" y2="1838.61" style="stroke:#A0A0A0;stroke-width:7.34"/>
	<line x1="2986.09" y1="1838.61" x2="2987.20" y2="1838.61" style="stroke:#A0A0A0;stroke-width:7.34"/>
	<line x1="3007.37" y1="1838.61" x2="3010.22" y2="1838.61" style="stroke:#A0A0A0;stroke-width:7.34"/>
	<line x1="3030.39" y1="1838.61" x2="3033.36" y2="1838.61" style="stroke:#A0A0A0;stroke-width:7.34"/>
	<line x1="3053.41" y1="1838.61" x2="3056.38" y2="1838.61" style="stroke:#A0A0A0;stroke-width:7.34"/>
	<line x1="3076.55" y1="1838.61" x2="3079.39" y2="1838.61" style="stroke:#A0A0A0;stroke-width:7.34"/>
	<line x1="3099.57" y1="1838.61" x2="3102.41" y2="1838.61" style="stroke:#A0A0A0;stroke-width:7.34"/>
	<line x1="3122.58" y1="1838.61" x2="3125.43" y2="1838.61" style="stroke:#A0A0A0;stroke-width:7.34"/>
	<line x1="3145.60" y1="1838.61" x2="3148.45" y2="1838.61" style="stroke:#A0A0A0;stroke-width:7.34"/>
	<line x1="3168.62" y1="1838.61" x2="3171.47" y2="1838.61" style="stroke:#A0A0A0;stroke-width:7.34"/>
	<line x1="3191.64" y1="1838.61" x2="3194.48" y2="1838.61" style="stroke:#A0A0A0;stroke-width:7.34"/>
	<line x1="3214.65" y1="1838.61" x2="3217.50" y2="1838.61" style="stroke:#A0A0A0;stroke-width:7.34"/>
	<line x1="3237.67" y1="1838.61" x2="3239.16" y2="1838.61" style="stroke:#A0A0A0;stroke-width:7.34"/>
	<line x1="3239.16" y1="1838.61" x2="3239.16" y2="1838.61" style="stroke:#A0A0A0;stroke-width:7.34"/>
	<line x1="3239.16" y1="1838.61" x2="3239.16" y2="1838.61" style="stroke:#A0A0A0;stroke-width:7.34"/>
	<line x1="3239.16" y1="1838.61" x2="3239.16" y2="1838.61" style="stroke:#A0A0A0;stroke-width:7.34"/>
	<line x1="3239.16" y1="1838.61" x2="3239.16" y2="1838.61" style="stroke:#A0A0A0;stroke-width:7.34"/>
	<line x1="3239.16" y1="1838.61" x2="3240.52" y2="1838.61" style="stroke:#A0A0A0;stroke-width:7.34"/>
	<line x1="3260.69" y1="1838.61" x2="3263.53" y2="1838.61" style="stroke:#A0A0A0;stroke-width:7.34"/>
	<line x1="3283.71" y1="1838.61" x2="3286.68" y2="1838.61" style="stroke:#A0A0A0;stroke-width:7.34"/>
	<line x1="3306.72" y1="1838.61" x2="3309.69" y2="1838.61" style="stroke:#A0A0A0;stroke-width:7.34"/>
	<line x1="3329.86" y1="1838.61" x2="3332.71" y2="1838.61" style="stroke:#A0A0A0;stroke-width:7.34"/>
	<line x1="3352.88" y1="1838.61" x2="3355.73" y2="1838.61" style="stroke:#A0A0A0;stroke-width:7.34"/>
	<line x1="3375.90" y1="1838.61" x2="3378.75" y2="1838.61" style="stroke:#A0A0A0;stroke-width:7.34"/>
	<line x1="3398.92" y1="1838.61" x2="3401.76" y2="1838.61" style="stroke:#A0A0A0;stroke-width:7.34"/>
	<line x1="3421.93" y1="1838.61" x2="3424.78" y2="1838.61" style="stroke:#A0A0A0;stroke-width:7.34"/>
	<line x1="3444.95" y1="1838.61" x2="3447.80" y2="1838.61" style="stroke:#A0A0A0;stroke-width:7.34"/>
	<line x1="3467.97" y1="1838.61" x2="3470.82" y2="1838.61" style="stroke:#A0A0A0;stroke-width:7.34"/>
	<line x1="3490.99" y1="1838.61" x2="3492.22" y2="1838.61" style="stroke:#A0A0A0;stroke-width:7.34"/>
	<line x1="3492.22" y1="1838.61" x2="3492.22" y2="1838.61" style="stroke:#A0A0A0;stroke-width:7.34"/>
	<line x1="3492.22" y1="1838.61" x2="3492.22" y2="1838.61" style="stroke:#A0A0A0;stroke-width:7.34"/>
	<line x1="3492.22" y1="1838.61" x2="3492.22" y2="1838.61" style="stroke:#A0A0A0;stroke-width:7.34"/>
	<line x1="3492.22" y1="1838.61" x2="3492.22" y2="1838.61" style="stroke:#A0A0A0;stroke-width:7.34"/>
	<line x1="3492.22" y1="1838.61" x2="3493.83" y2="1838.61" style="stroke:#A0A0A0;stroke-width:7.34"/>
	<line x1="3514.01" y1="1838.61" x2="3516.85" y2="1838.61" style="stroke:#A0A0A0;stroke-width:7.34"/>
	<line x1="3537.02" y1="1838.61" x2="3539.99" y2="1838.61" style="stroke:#A0A0A0;stroke-width:7.34"/>
	<line x1="3560.04" y1="1838.61" x2="3563.01" y2="1838.61" style="stroke:#A0A0A0;stroke-width:7.34"/>
	<line x1="3583.18" y1="1838.61" x2="3586.03" y2="1838.61" style="stroke:#A0A0A0;stroke-width:7.34"/>
	<line x1="3606.20" y1="1838.61" x2="3609.05" y2="1838.61" style="stroke:#A0A0A0;stroke-width:7.34"/>
	<line x1="3629.22" y1="1838.61" x2="3632.06" y2="1838.61" style="stroke:#A0A0A0;stroke-width:7.34"/>
	<line x1="3652.23" y1="1838.61" x2="3655.08" y2="1838.61" style="stroke:#A0A0A0;stroke-width:7.34"/>
	<line x1="3675.25" y1="1838.61" x2="3678.10" y2="1838.61" style="stroke:#A0A0A0;stroke-width:7.34"/>
	<line x1="3698.27" y1="1838.61" x2="3701.11" y2="1838.61" style="stroke:#A0A0A0;stroke-width:7.34"/>
	<line x1="3721.29" y1="1838.61" x2="3724.13" y2="1838.61" style="stroke:#A0A0A0;stroke-width:7.34"/>
	<line x1="3744.30" y1="1838.61" x2="3745.29" y2="1838.61" style="stroke:#A0A0A0;stroke-width:7.34"/>
	<line x1="3745.29" y1="1838.61" x2="3745.29" y2="1838.61" style="stroke:#A0A0A0;stroke-width:7.34"/>
	<line x1="3745.29" y1="1838.61" x2="3745.29" y2="1838.61" style="stroke:#A0A0A0;stroke-width:7.34"/>
	<line x1="3745.29" y1="1838.61" x2="3745.29" y2="1838.61" style="stroke:#A0A0A0;stroke-width:7.34"/>
	<line x1="3745.29" y1="1838.61" x2="3745.29" y2="1838.61" style="stroke:#A0A0A0;stroke-width:7.34"/>
	<line x1="3745.29" y1="1838.61" x2="3747.15" y2="1838.61" style="stroke:#A0A0A0;stroke-width:7.34"/>
	<line x1="3767.32" y1="1838.61" x2="3770.17" y2="1838.61" style="stroke:#A0A0A0;stroke-width:7.34"/>
	<path d="" stroke-linejoin="round" style="fill:none;stroke:#A0A0A0;stroke-width:7.34"/>
	<path d=" M2201.39 1902.10 L2226.76 1902.10 L2252.13 1902.10 L2277.37 1901.97 L2302.74 1901.97 L2327.99 1901.85 L2353.35 1901.73 L2378.60 1901.73 L2403.97 1901.60 L2429.21 1901.35 L2454.58 1901.23 L2479.83 1901.11 L2505.20 1900.86 L2530.44 1900.61 L2555.81 1900.24 L2581.05 1899.87 L2606.42 1899.50 L2631.67 1899.13 L2657.04 1898.63 L2682.28 1898.01 L2707.65 1897.39 L2732.89 1896.78 L2758.26 1896.03 L2783.51 1895.29 L2808.88 1894.42 L2834.12 1893.56 L2859.49 1892.57 L2884.74 1891.58 L2910.11 1890.46 L2935.35 1889.35 L2960.72 1888.11 L2986.09 1886.88 L3011.33 1885.51 L3036.70 1884.03 L3061.95 1882.42 L3087.32 1880.69 L3112.56 1878.71 L3137.93 1876.73 L3163.17 1874.50 L3188.54 1872.02 L3213.79 1869.18 L3239.16 1866.08 L3264.40 1862.62 L3289.77 1858.91 L3315.01 1854.58 L3340.38 1849.87 L3365.63 1844.55 L3391.00 1838.61 L3416.24 1831.93 L3441.61 1824.50 L3466.86 1816.34 L3492.22 1807.05 L3517.47 1796.78 L3542.84 1785.15 L3568.08 1772.28 L3593.45 1757.92 L3618.70 1741.71 L3644.07 1723.77 L3669.31 1703.60 L3694.68 1681.07 L3719.93 1655.95 L3745.29 1627.86 L3770.66 1596.55" stroke-linejoin="round" style="fill:none;stroke:#1A476F;stroke-width:7.34"/>
	<path d=" M2201.39 1902.10 L2226.76 1901.97 L2252.13 1901.97 L2277.37 1901.85 L2302.74 1901.73 L2327.99 1901.73 L2353.35 1901.60 L2378.60 1901.35 L2403.97 1901.23 L2429.21 1900.98 L2454.58 1900.86 L2479.83 1900.49 L2505.20 1900.24 L2530.44 1899.87 L2555.81 1899.37 L2581.05 1898.88 L2606.42 1898.38 L2631.67 1897.77 L2657.04 1897.02 L2682.28 1896.28 L2707.65 1895.41 L2732.89 1894.55 L2758.26 1893.43 L2783.51 1892.32 L2808.88 1891.21 L2834.12 1889.97 L2859.49 1888.61 L2884.74 1887.25 L2910.11 1885.64 L2935.35 1884.03 L2960.72 1882.42 L2986.09 1880.56 L3011.33 1878.58 L3036.70 1876.48 L3061.95 1874.25 L3087.32 1871.90 L3112.56 1869.18 L3137.93 1866.33 L3163.17 1863.11 L3188.54 1859.65 L3213.79 1855.69 L3239.16 1851.36 L3264.40 1846.53 L3289.77 1841.21 L3315.01 1835.15 L3340.38 1828.46 L3365.63 1821.04 L3391.00 1812.75 L3416.24 1803.34 L3441.61 1792.95 L3466.86 1781.44 L3492.22 1768.44 L3517.47 1753.84 L3542.84 1737.63 L3568.08 1719.56 L3593.45 1699.26 L3618.70 1676.62 L3644.07 1651.25 L3669.31 1623.03 L3694.68 1591.35 L3719.93 1556.08 L3745.29 1516.60 L3770.66 1472.55" stroke-linejoin="round" style="fill:none;stroke:#FFD200;stroke-width:7.34"/>
	<path d=" M2201.39 1901.97 L2226.76 1901.97 L2252.13 1901.85 L2277.37 1901.85 L2302.74 1901.73 L2327.99 1901.60 L2353.35 1901.48 L2378.60 1901.35 L2403.97 1901.11 L2429.21 1900.86 L2454.58 1900.61 L2479.83 1900.36 L2505.20 1899.99 L2530.44 1899.50 L2555.81 1899.13 L2581.05 1898.51 L2606.42 1897.89 L2631.67 1897.27 L2657.04 1896.40 L2682.28 1895.54 L2707.65 1894.67 L2732.89 1893.56 L2758.26 1892.44 L2783.51 1891.21 L2808.88 1889.97 L2834.12 1888.48 L2859.49 1887.00 L2884.74 1885.39 L2910.11 1883.78 L2935.35 1881.93 L2960.72 1880.07 L2986.09 1878.09 L3011.33 1875.86 L3036.70 1873.51 L3061.95 1871.03 L3087.32 1868.31 L3112.56 1865.34 L3137.93 1862.12 L3163.17 1858.66 L3188.54 1854.70 L3213.79 1850.37 L3239.16 1845.54 L3264.40 1840.22 L3289.77 1834.16 L3315.01 1827.47 L3340.38 1820.05 L3365.63 1811.63 L3391.00 1802.35 L3416.24 1791.96 L3441.61 1780.45 L3466.86 1767.45 L3492.22 1752.97 L3517.47 1736.76 L3542.84 1718.69 L3568.08 1698.52 L3593.45 1675.87 L3618.70 1650.63 L3644.07 1622.41 L3669.31 1590.86 L3694.68 1555.59 L3719.93 1516.23 L3745.29 1472.18 L3770.66 1423.17" stroke-linejoin="round" style="fill:none;stroke:#008000;stroke-width:7.34"/>
	<path d=" M2201.39 1902.10 L2226.76 1901.97 L2252.13 1901.97 L2277.37 1901.85 L2302.74 1901.73 L2327.99 1901.60 L2353.35 1901.48 L2378.60 1901.35 L2403.97 1901.23 L2429.21 1900.98 L2454.58 1900.74 L2479.83 1900.49 L2505.20 1900.12 L2530.44 1899.75 L2555.81 1899.25 L2581.05 1898.76 L2606.42 1898.14 L2631.67 1897.52 L2657.04 1896.78 L2682.28 1895.91 L2707.65 1895.04 L2732.89 1894.05 L2758.26 1892.94 L2783.51 1891.83 L2808.88 1890.59 L2834.12 1889.23 L2859.49 1887.87 L2884.74 1886.38 L2910.11 1884.77 L2935.35 1883.04 L2960.72 1881.31 L2986.09 1879.33 L3011.33 1877.35 L3036.70 1875.12 L3061.95 1872.77 L3087.32 1870.17 L3112.56 1867.32 L3137.93 1864.35 L3163.17 1861.01 L3188.54 1857.30 L3213.79 1853.21 L3239.16 1848.64 L3264.40 1843.44 L3289.77 1837.87 L3315.01 1831.43 L3340.38 1824.38 L3365.63 1816.58 L3391.00 1807.67 L3416.24 1797.90 L3441.61 1786.88 L3466.86 1774.63 L3492.22 1761.02 L3517.47 1745.67 L3542.84 1728.59 L3568.08 1709.41 L3593.45 1688.00 L3618.70 1664.12 L3644.07 1637.39 L3669.31 1607.44 L3694.68 1574.15 L3719.93 1536.78 L3745.29 1495.19 L3770.66 1448.79" stroke-linejoin="round" style="fill:none;stroke:#FF0000;stroke-width:7.34"/>
	<path d=" M2201.39 1902.10 L2226.76 1901.97 L2252.13 1901.97 L2277.37 1901.85 L2302.74 1901.85 L2327.99 1901.73 L2353.35 1901.60 L2378.60 1901.48 L2403.97 1901.35 L2429.21 1901.11 L2454.58 1900.86 L2479.83 1900.61 L2505.20 1900.36 L2530.44 1899.99 L2555.81 1899.62 L2581.05 1899.13 L2606.42 1898.63 L2631.67 1898.14 L2657.04 1897.39 L2682.28 1896.78 L2707.65 1895.91 L2732.89 1895.04 L2758.26 1894.18 L2783.51 1893.06 L2808.88 1892.07 L2834.12 1890.84 L2859.49 1889.60 L2884.74 1888.36 L2910.11 1886.88 L2935.35 1885.39 L2960.72 1883.91 L2986.09 1882.17 L3011.33 1880.32 L3036.70 1878.46 L3061.95 1876.36 L3087.32 1874.13 L3112.56 1871.65 L3137.93 1868.93 L3163.17 1866.08 L3188.54 1862.87 L3213.79 1859.15 L3239.16 1855.19 L3264.40 1850.74 L3289.77 1845.67 L3315.01 1840.22 L3340.38 1834.03 L3365.63 1827.10 L3391.00 1819.31 L3416.24 1810.77 L3441.61 1801.11 L3466.86 1790.35 L3492.22 1778.34 L3517.47 1764.85 L3542.84 1749.88 L3568.08 1733.05 L3593.45 1714.24 L3618.70 1693.32 L3644.07 1669.81 L3669.31 1643.70 L3694.68 1614.37 L3719.93 1581.70 L3745.29 1545.19 L3770.66 1504.35" stroke-linejoin="round" style="fill:none;stroke:#FF7F00;stroke-width:7.34"/>
	<line x1="401.69" y1="1956.18" x2="401.69" y2="402.82" style="stroke:#000000;stroke-width:4.90"/>
	<line x1="401.69" y1="1902.22" x2="367.66" y2="1902.22" style="stroke:#000000;stroke-width:4.90"/>
	<text x="350.71" y="1932.01" style="font-family:'Helvetica';font-size:85.02px;fill:#000000" text-anchor="end">0</text>
	<line x1="401.69" y1="1613.13" x2="367.66" y2="1613.13" style="stroke:#000000;stroke-width:4.90"/>
	<text x="350.71" y="1642.92" style="font-family:'Helvetica';font-size:85.02px;fill:#000000" text-anchor="end">.001</text>
	<line x1="401.69" y1="1324.04" x2="367.66" y2="1324.04" style="stroke:#000000;stroke-width:4.90"/>
	<text x="350.71" y="1353.83" style="font-family:'Helvetica';font-size:85.02px;fill:#000000" text-anchor="end">.002</text>
	<line x1="401.69" y1="1034.95" x2="367.66" y2="1034.95" style="stroke:#000000;stroke-width:4.90"/>
	<text x="350.71" y="1064.74" style="font-family:'Helvetica';font-size:85.02px;fill:#000000" text-anchor="end">.003</text>
	<line x1="401.69" y1="745.74" x2="367.66" y2="745.74" style="stroke:#000000;stroke-width:4.90"/>
	<text x="350.71" y="775.53" style="font-family:'Helvetica';font-size:85.02px;fill:#000000" text-anchor="end">.004</text>
	<line x1="401.69" y1="456.65" x2="367.66" y2="456.65" style="stroke:#000000;stroke-width:4.90"/>
	<text x="350.71" y="486.44" style="font-family:'Helvetica';font-size:85.02px;fill:#000000" text-anchor="end">.005</text>
	<line x1="401.69" y1="1956.18" x2="2078.51" y2="1956.18" style="stroke:#000000;stroke-width:4.90"/>
	<line x1="506.14" y1="1956.18" x2="506.14" y2="1973.13" style="stroke:#000000;stroke-width:4.90"/>
	<line x1="632.73" y1="1956.18" x2="632.73" y2="1973.13" style="stroke:#000000;stroke-width:4.90"/>
	<line x1="759.21" y1="1956.18" x2="759.21" y2="1973.13" style="stroke:#000000;stroke-width:4.90"/>
	<line x1="885.80" y1="1956.18" x2="885.80" y2="1973.13" style="stroke:#000000;stroke-width:4.90"/>
	<line x1="1012.27" y1="1956.18" x2="1012.27" y2="1973.13" style="stroke:#000000;stroke-width:4.90"/>
	<line x1="1138.87" y1="1956.18" x2="1138.87" y2="1973.13" style="stroke:#000000;stroke-width:4.90"/>
	<line x1="1265.47" y1="1956.18" x2="1265.47" y2="1973.13" style="stroke:#000000;stroke-width:4.90"/>
	<line x1="1391.94" y1="1956.18" x2="1391.94" y2="1973.13" style="stroke:#000000;stroke-width:4.90"/>
	<line x1="1518.54" y1="1956.18" x2="1518.54" y2="1973.13" style="stroke:#000000;stroke-width:4.90"/>
	<line x1="1645.01" y1="1956.18" x2="1645.01" y2="1973.13" style="stroke:#000000;stroke-width:4.90"/>
	<line x1="1771.61" y1="1956.18" x2="1771.61" y2="1973.13" style="stroke:#000000;stroke-width:4.90"/>
	<line x1="1898.20" y1="1956.18" x2="1898.20" y2="1973.13" style="stroke:#000000;stroke-width:4.90"/>
	<line x1="2024.67" y1="1956.18" x2="2024.67" y2="1973.13" style="stroke:#000000;stroke-width:4.90"/>
	<line x1="506.14" y1="1956.18" x2="506.14" y2="1990.09" style="stroke:#000000;stroke-width:4.90"/>
	<text x="506.14" y="2066.62" style="font-family:'Helvetica';font-size:85.02px;fill:#000000" text-anchor="middle">20</text>
	<line x1="1012.27" y1="1956.18" x2="1012.27" y2="1990.09" style="stroke:#000000;stroke-width:4.90"/>
	<text x="1012.27" y="2066.62" style="font-family:'Helvetica';font-size:85.02px;fill:#000000" text-anchor="middle">40</text>
	<line x1="1518.54" y1="1956.18" x2="1518.54" y2="1990.09" style="stroke:#000000;stroke-width:4.90"/>
	<text x="1518.54" y="2066.62" style="font-family:'Helvetica';font-size:85.02px;fill:#000000" text-anchor="middle">60</text>
	<line x1="2024.67" y1="1956.18" x2="2024.67" y2="1990.09" style="stroke:#000000;stroke-width:4.90"/>
	<text x="2024.67" y="2066.62" style="font-family:'Helvetica';font-size:85.02px;fill:#000000" text-anchor="middle">80</text>
	<line x1="2147.68" y1="1956.18" x2="3824.49" y2="1956.18" style="stroke:#000000;stroke-width:4.90"/>
	<line x1="2252.13" y1="1956.18" x2="2252.13" y2="1973.13" style="stroke:#000000;stroke-width:4.90"/>
	<line x1="2378.72" y1="1956.18" x2="2378.72" y2="1973.13" style="stroke:#000000;stroke-width:4.90"/>
	<line x1="2505.20" y1="1956.18" x2="2505.20" y2="1973.13" style="stroke:#000000;stroke-width:4.90"/>
	<line x1="2631.79" y1="1956.18" x2="2631.79" y2="1973.13" style="stroke:#000000;stroke-width:4.90"/>
	<line x1="2758.26" y1="1956.18" x2="2758.26" y2="1973.13" style="stroke:#000000;stroke-width:4.90"/>
	<line x1="2884.86" y1="1956.18" x2="2884.86" y2="1973.13" style="stroke:#000000;stroke-width:4.90"/>
	<line x1="3011.46" y1="1956.18" x2="3011.46" y2="1973.13" style="stroke:#000000;stroke-width:4.90"/>
	<line x1="3137.93" y1="1956.18" x2="3137.93" y2="1973.13" style="stroke:#000000;stroke-width:4.90"/>
	<line x1="3264.53" y1="1956.18" x2="3264.53" y2="1973.13" style="stroke:#000000;stroke-width:4.90"/>
	<line x1="3391.00" y1="1956.18" x2="3391.00" y2="1973.13" style="stroke:#000000;stroke-width:4.90"/>
	<line x1="3517.59" y1="1956.18" x2="3517.59" y2="1973.13" style="stroke:#000000;stroke-width:4.90"/>
	<line x1="3644.07" y1="1956.18" x2="3644.07" y2="1973.13" style="stroke:#000000;stroke-width:4.90"/>
	<line x1="3770.66" y1="1956.18" x2="3770.66" y2="1973.13" style="stroke:#000000;stroke-width:4.90"/>
	<line x1="2252.13" y1="1956.18" x2="2252.13" y2="1990.09" style="stroke:#000000;stroke-width:4.90"/>
	<text x="2252.13" y="2066.62" style="font-family:'Helvetica';font-size:85.02px;fill:#000000" text-anchor="middle">20</text>
	<line x1="2758.26" y1="1956.18" x2="2758.26" y2="1990.09" style="stroke:#000000;stroke-width:4.90"/>
	<text x="2758.26" y="2066.62" style="font-family:'Helvetica';font-size:85.02px;fill:#000000" text-anchor="middle">40</text>
	<line x1="3264.53" y1="1956.18" x2="3264.53" y2="1990.09" style="stroke:#000000;stroke-width:4.90"/>
	<text x="3264.53" y="2066.62" style="font-family:'Helvetica';font-size:85.02px;fill:#000000" text-anchor="middle">60</text>
	<line x1="3770.66" y1="1956.18" x2="3770.66" y2="1990.09" style="stroke:#000000;stroke-width:4.90"/>
	<text x="3770.66" y="2066.62" style="font-family:'Helvetica';font-size:85.02px;fill:#000000" text-anchor="middle">80</text>
	<rect x="401.69" y="279.93" width="1676.81" height="122.89" style="fill:#D9E6EB"/>
	<rect x="404.14" y="282.38" width="1671.92" height="117.99" style="fill:none;stroke:#D9E6EB;stroke-width:4.90"/>
	<text x="1240.10" y="359.96" style="font-family:'Helvetica';font-size:93.56px;fill:#000000" text-anchor="middle">Female</text>
	<rect x="2147.68" y="279.93" width="1676.81" height="122.89" style="fill:#D9E6EB"/>
	<rect x="2150.13" y="282.38" width="1671.92" height="117.99" style="fill:none;stroke:#D9E6EB;stroke-width:4.90"/>
	<text x="2986.09" y="359.96" style="font-family:'Helvetica';font-size:93.56px;fill:#000000" text-anchor="middle">Male</text>
	<rect x="838.78" y="2278.31" width="2282.32" height="466.30" style="fill:#FFFFFF"/>
	<rect x="841.66" y="2281.19" width="2276.56" height="460.54" style="fill:none;stroke:#000000;stroke-width:5.76"/>
	<line x1="882.09" y1="2371.50" x2="1256.43" y2="2371.50" style="stroke:#1A476F;stroke-width:8.64"/>
	<line x1="882.09" y1="2511.46" x2="1256.43" y2="2511.46" style="stroke:#FFD200;stroke-width:8.64"/>
	<line x1="882.09" y1="2651.43" x2="1256.43" y2="2651.43" style="stroke:#008000;stroke-width:8.64"/>
	<line x1="1724.70" y1="2371.50" x2="2099.17" y2="2371.50" style="stroke:#FF0000;stroke-width:8.64"/>
	<line x1="1724.70" y1="2511.46" x2="2099.17" y2="2511.46" style="stroke:#FF7F00;stroke-width:8.64"/>
	<line x1="1724.70" y1="2651.43" x2="1727.55" y2="2651.43" style="stroke:#A0A0A0;stroke-width:8.64"/>
	<line x1="1747.72" y1="2651.43" x2="1750.57" y2="2651.43" style="stroke:#A0A0A0;stroke-width:8.64"/>
	<line x1="1770.74" y1="2651.43" x2="1773.71" y2="2651.43" style="stroke:#A0A0A0;stroke-width:8.64"/>
	<line x1="1793.88" y1="2651.43" x2="1796.73" y2="2651.43" style="stroke:#A0A0A0;stroke-width:8.64"/>
	<line x1="1816.90" y1="2651.43" x2="1819.74" y2="2651.43" style="stroke:#A0A0A0;stroke-width:8.64"/>
	<line x1="1839.91" y1="2651.43" x2="1842.76" y2="2651.43" style="stroke:#A0A0A0;stroke-width:8.64"/>
	<line x1="1862.93" y1="2651.43" x2="1865.78" y2="2651.43" style="stroke:#A0A0A0;stroke-width:8.64"/>
	<line x1="1885.95" y1="2651.43" x2="1888.80" y2="2651.43" style="stroke:#A0A0A0;stroke-width:8.64"/>
	<line x1="1908.97" y1="2651.43" x2="1911.81" y2="2651.43" style="stroke:#A0A0A0;stroke-width:8.64"/>
	<line x1="1931.98" y1="2651.43" x2="1934.83" y2="2651.43" style="stroke:#A0A0A0;stroke-width:8.64"/>
	<line x1="1955.00" y1="2651.43" x2="1957.85" y2="2651.43" style="stroke:#A0A0A0;stroke-width:8.64"/>
	<line x1="1978.02" y1="2651.43" x2="1980.87" y2="2651.43" style="stroke:#A0A0A0;stroke-width:8.64"/>
	<line x1="2001.04" y1="2651.43" x2="2003.88" y2="2651.43" style="stroke:#A0A0A0;stroke-width:8.64"/>
	<line x1="2024.06" y1="2651.43" x2="2027.03" y2="2651.43" style="stroke:#A0A0A0;stroke-width:8.64"/>
	<line x1="2047.20" y1="2651.43" x2="2050.04" y2="2651.43" style="stroke:#A0A0A0;stroke-width:8.64"/>
	<line x1="2070.21" y1="2651.43" x2="2073.06" y2="2651.43" style="stroke:#A0A0A0;stroke-width:8.64"/>
	<line x1="2093.23" y1="2651.43" x2="2096.08" y2="2651.43" style="stroke:#A0A0A0;stroke-width:8.64"/>
	<text x="1316.45" y="2406.52" style="font-family:'Helvetica';font-size:99.99px;fill:#000000">White</text>
	<text x="1316.45" y="2546.49" style="font-family:'Helvetica';font-size:99.99px;fill:#000000">Asian</text>
	<text x="1316.45" y="2686.46" style="font-family:'Helvetica';font-size:99.99px;fill:#000000">Black</text>
	<text x="2159.07" y="2406.52" style="font-family:'Helvetica';font-size:99.99px;fill:#000000">Mixed</text>
	<text x="2159.07" y="2546.49" style="font-family:'Helvetica';font-size:99.99px;fill:#000000">Other</text>
	<text x="2159.07" y="2686.46" style="font-family:'Helvetica';font-size:99.99px;fill:#000000">Ref (Age 65, White)</text>
	<text x="1980.00" y="2213.60" style="font-family:'Helvetica';font-size:99.99px;fill:#000000" text-anchor="middle">Age (years)</text>
	<text x="1980.00" y="195.01" style="font-family:'Helvetica';font-size:110.01px;fill:#000000" text-anchor="middle">No comorbidities</text>
</svg>
