<?xml version="1.0" encoding="UTF-8" standalone="no"?>
<!-- This is a Stata 16.1 generated SVG file (http://www.stata.com) -->

<svg version="1.1" width="1600px" height="1164px" viewBox="0 0 3960 2880" xmlns="http://www.w3.org/2000/svg" xmlns:xlink="http://www.w3.org/1999/xlink">
	<desc>Stata Graph - Graph</desc>
	<rect x="0" y="0" width="3960" height="2880" style="fill:#EAF2F3;stroke:none"/>
	<rect x="0.00" y="0.00" width="3959.88" height="2880.00" style="fill:#EAF2F3"/>
	<rect x="2.88" y="2.88" width="3954.12" height="2874.24" style="fill:none;stroke:#EAF2F3;stroke-width:5.76"/>
	<rect x="401.69" y="258.27" width="1676.81" height="1697.90" style="fill:#FFFFFF"/>
	<rect x="404.14" y="260.72" width="1671.92" height="1693.01" style="fill:none;stroke:#FFFFFF;stroke-width:4.90"/>
	<line x1="401.69" y1="1902.22" x2="2078.51" y2="1902.22" style="stroke:#EAF2F3;stroke-width:7.34"/>
	<line x1="401.69" y1="1675.13" x2="2078.51" y2="1675.13" style="stroke:#EAF2F3;stroke-width:7.34"/>
	<line x1="401.69" y1="1447.92" x2="2078.51" y2="1447.92" style="stroke:#EAF2F3;stroke-width:7.34"/>
	<line x1="401.69" y1="1220.71" x2="2078.51" y2="1220.71" style="stroke:#EAF2F3;stroke-width:7.34"/>
	<line x1="401.69" y1="993.62" x2="2078.51" y2="993.62" style="stroke:#EAF2F3;stroke-width:7.34"/>
	<line x1="401.69" y1="766.41" x2="2078.51" y2="766.41" style="stroke:#EAF2F3;stroke-width:7.34"/>
	<line x1="401.69" y1="539.32" x2="2078.51" y2="539.32" style="stroke:#EAF2F3;stroke-width:7.34"/>
	<rect x="2147.68" y="258.27" width="1676.81" height="1697.90" style="fill:#FFFFFF"/>
	<rect x="2150.13" y="260.72" width="1671.92" height="1693.01" style="fill:none;stroke:#FFFFFF;stroke-width:4.90"/>
	<line x1="2147.68" y1="1902.22" x2="3824.49" y2="1902.22" style="stroke:#EAF2F3;stroke-width:7.34"/>
	<line x1="2147.68" y1="1675.13" x2="3824.49" y2="1675.13" style="stroke:#EAF2F3;stroke-width:7.34"/>
	<line x1="2147.68" y1="1447.92" x2="3824.49" y2="1447.92" style="stroke:#EAF2F3;stroke-width:7.34"/>
	<line x1="2147.68" y1="1220.71" x2="3824.49" y2="1220.71" style="stroke:#EAF2F3;stroke-width:7.34"/>
	<line x1="2147.68" y1="993.62" x2="3824.49" y2="993.62" style="stroke:#EAF2F3;stroke-width:7.34"/>
	<line x1="2147.68" y1="766.41" x2="3824.49" y2="766.41" style="stroke:#EAF2F3;stroke-width:7.34"/>
	<line x1="2147.68" y1="539.32" x2="3824.49" y2="539.32" style="stroke:#EAF2F3;stroke-width:7.34"/>
	<defs>
		<path id="path_gpHtkCZl" d="M455.52 1902.22 L455.52 1902.22 L480.89 1902.22 L506.14 1902.22 L531.51 1902.22 L556.75 1902.10 L582.12 1902.10 L607.37 1902.10 L632.73 1902.10 L657.98 1901.97 L683.35 1901.97 L708.59 1901.85 L733.96 1901.73 L759.21 1901.73 L784.58 1901.60 L809.82 1901.35 L835.19 1901.23 L860.43 1900.98 L885.80 1900.86 L911.05 1900.61 L936.42 1900.24 L961.66 1899.99 L987.03 1899.62 L1012.27 1899.25 L1037.64 1898.88 L1062.89 1898.38 L1088.26 1898.01 L1113.50 1897.52 L1138.87 1896.90 L1164.24 1896.28 L1189.48 1895.66 L1214.85 1894.92 L1240.10 1894.18 L1265.47 1893.31 L1290.71 1892.32 L1316.08 1891.33 L1341.33 1890.22 L1366.69 1888.98 L1391.94 1887.62 L1417.31 1886.13 L1442.55 1884.40 L1467.92 1882.67 L1493.17 1880.56 L1518.54 1878.34 L1543.78 1875.86 L1569.15 1873.01 L1594.39 1869.92 L1619.76 1866.33 L1645.01 1862.50 L1670.38 1858.04 L1695.62 1853.21 L1720.99 1847.77 L1746.24 1841.58 L1771.61 1834.65 L1796.85 1826.98 L1822.22 1818.44 L1847.46 1808.79 L1872.83 1797.90 L1898.20 1785.89 L1923.45 1772.28 L1948.82 1757.18 L1974.06 1740.23 L1999.43 1721.17 L2024.67 1700.01 L2024.67 1662.14 L1999.43 1687.26 L1974.06 1709.78 L1948.82 1729.83 L1923.45 1747.78 L1898.20 1763.86 L1872.83 1778.10 L1847.46 1790.97 L1822.22 1802.35 L1796.85 1812.62 L1771.61 1821.78 L1746.24 1829.95 L1720.99 1837.25 L1695.62 1843.69 L1670.38 1849.50 L1645.01 1854.82 L1619.76 1859.40 L1594.39 1863.61 L1569.15 1867.32 L1543.78 1870.66 L1518.54 1873.63 L1493.17 1876.36 L1467.92 1878.71 L1442.55 1880.81 L1417.31 1882.67 L1391.94 1884.40 L1366.69 1886.01 L1341.33 1887.37 L1316.08 1888.61 L1290.71 1889.85 L1265.47 1890.84 L1240.10 1891.95 L1214.85 1892.82 L1189.48 1893.68 L1164.24 1894.42 L1138.87 1895.17 L1113.50 1895.91 L1088.26 1896.53 L1062.89 1897.15 L1037.64 1897.77 L1012.27 1898.26 L987.03 1898.63 L961.66 1899.13 L936.42 1899.50 L911.05 1899.75 L885.80 1900.12 L860.43 1900.36 L835.19 1900.61 L809.82 1900.74 L784.58 1900.98 L759.21 1901.11 L733.96 1901.23 L708.59 1901.35 L683.35 1901.48 L657.98 1901.60 L632.73 1901.60 L607.37 1901.73 L582.12 1901.73 L556.75 1901.85 L531.51 1901.85 L506.14 1901.97 L480.89 1901.97 L455.52 1901.97 L455.52 1902.22 Z" stroke-linejoin="round"/>
	</defs>
	<defs>
		<clipPath id="clipPath_EboPQdIG">
			<use xlink:href="#path_gpHtkCZl"/>
		</clipPath>
	</defs>
	<use xlink:href="#path_gpHtkCZl" style="stroke:none;fill:#E6E6E6"/>
	<use xlink:href="#path_gpHtkCZl" style="fill:none;stroke:#E0E0E0;stroke-width:14.69" clip-path="url(#clipPath_EboPQdIG)"/>
	<defs>
		<path id="path_mXKNhwLC" d="M455.52 1902.22 L455.52 1902.22 L480.89 1902.10 L506.14 1902.10 L531.51 1902.10 L556.75 1902.10 L582.12 1901.97 L607.37 1901.97 L632.73 1901.85 L657.98 1901.73 L683.35 1901.60 L708.59 1901.48 L733.96 1901.35 L759.21 1901.23 L784.58 1900.98 L809.82 1900.74 L835.19 1900.36 L860.43 1899.99 L885.80 1899.62 L911.05 1899.25 L936.42 1898.76 L961.66 1898.14 L987.03 1897.52 L1012.27 1896.90 L1037.64 1896.28 L1062.89 1895.41 L1088.26 1894.67 L1113.50 1893.68 L1138.87 1892.82 L1164.24 1891.70 L1189.48 1890.59 L1214.85 1889.23 L1240.10 1887.87 L1265.47 1886.38 L1290.71 1884.77 L1316.08 1883.04 L1341.33 1881.06 L1366.69 1878.95 L1391.94 1876.60 L1417.31 1874.00 L1442.55 1871.16 L1467.92 1868.06 L1493.17 1864.48 L1518.54 1860.52 L1543.78 1856.18 L1569.15 1851.36 L1594.39 1845.91 L1619.76 1839.72 L1645.01 1832.92 L1670.38 1825.37 L1695.62 1816.83 L1720.99 1807.30 L1746.24 1796.66 L1771.61 1784.65 L1796.85 1771.29 L1822.22 1756.31 L1847.46 1739.61 L1872.83 1720.92 L1898.20 1699.88 L1923.45 1676.37 L1948.82 1650.13 L1974.06 1620.68 L1999.43 1587.76 L2024.67 1551.01 L2024.67 1415.13 L1999.43 1466.11 L1974.06 1511.78 L1948.82 1552.62 L1923.45 1589.00 L1898.20 1621.55 L1872.83 1650.63 L1847.46 1676.62 L1822.22 1699.88 L1796.85 1720.55 L1771.61 1739.11 L1746.24 1755.70 L1720.99 1770.42 L1695.62 1783.66 L1670.38 1795.54 L1645.01 1806.06 L1619.76 1815.47 L1594.39 1823.88 L1569.15 1831.56 L1543.78 1838.24 L1518.54 1844.30 L1493.17 1849.75 L1467.92 1854.58 L1442.55 1858.91 L1417.31 1862.74 L1391.94 1866.33 L1366.69 1869.43 L1341.33 1872.27 L1316.08 1874.87 L1290.71 1877.22 L1265.47 1879.45 L1240.10 1881.55 L1214.85 1883.41 L1189.48 1885.14 L1164.24 1886.75 L1138.87 1888.24 L1113.50 1889.60 L1088.26 1890.96 L1062.89 1892.07 L1037.64 1893.19 L1012.27 1894.18 L987.03 1895.17 L961.66 1895.91 L936.42 1896.65 L911.05 1897.39 L885.80 1898.01 L860.43 1898.51 L835.19 1898.88 L809.82 1899.25 L784.58 1899.62 L759.21 1899.99 L733.96 1900.24 L708.59 1900.49 L683.35 1900.74 L657.98 1900.86 L632.73 1900.98 L607.37 1901.23 L582.12 1901.35 L556.75 1901.48 L531.51 1901.48 L506.14 1901.60 L480.89 1901.73 L455.52 1901.73 L455.52 1902.22 Z" stroke-linejoin="round"/>
	</defs>
	<defs>
		<clipPath id="clipPath_ZmrxNDYz">
			<use xlink:href="#path_mXKNhwLC"/>
		</clipPath>
	</defs>
	<use xlink:href="#path_mXKNhwLC" style="stroke:none;fill:#E6E6E6"/>
	<use xlink:href="#path_mXKNhwLC" style="fill:none;stroke:#E0E0E0;stroke-width:14.69" clip-path="url(#clipPath_ZmrxNDYz)"/>
	<defs>
		<path id="path_peWVSsVj" d="M455.52 1902.22 L455.52 1902.22 L480.89 1902.22 L506.14 1902.22 L531.51 1902.10 L556.75 1902.10 L582.12 1902.10 L607.37 1901.97 L632.73 1901.97 L657.98 1901.85 L683.35 1901.85 L708.59 1901.73 L733.96 1901.60 L759.21 1901.48 L784.58 1901.35 L809.82 1901.11 L835.19 1900.86 L860.43 1900.61 L885.80 1900.36 L911.05 1899.99 L936.42 1899.62 L961.66 1899.25 L987.03 1898.88 L1012.27 1898.38 L1037.64 1897.77 L1062.89 1897.27 L1088.26 1896.65 L1113.50 1895.91 L1138.87 1895.29 L1164.24 1894.42 L1189.48 1893.56 L1214.85 1892.69 L1240.10 1891.58 L1265.47 1890.46 L1290.71 1889.35 L1316.08 1887.99 L1341.33 1886.50 L1366.69 1884.90 L1391.94 1883.16 L1417.31 1881.18 L1442.55 1879.08 L1467.92 1876.73 L1493.17 1874.00 L1518.54 1871.03 L1543.78 1867.82 L1569.15 1864.10 L1594.39 1860.02 L1619.76 1855.44 L1645.01 1850.37 L1670.38 1844.68 L1695.62 1838.24 L1720.99 1831.06 L1746.24 1823.02 L1771.61 1814.11 L1796.85 1803.96 L1822.22 1792.70 L1847.46 1780.08 L1872.83 1765.97 L1898.20 1750.00 L1923.45 1732.31 L1948.82 1712.38 L1974.06 1690.11 L1999.43 1665.23 L2024.67 1637.39 L2024.67 1584.42 L1999.43 1617.59 L1974.06 1647.29 L1948.82 1673.77 L1923.45 1697.53 L1898.20 1718.69 L1872.83 1737.63 L1847.46 1754.58 L1822.22 1769.68 L1796.85 1783.17 L1771.61 1795.30 L1746.24 1806.06 L1720.99 1815.72 L1695.62 1824.38 L1670.38 1832.18 L1645.01 1839.11 L1619.76 1845.29 L1594.39 1850.74 L1569.15 1855.69 L1543.78 1860.14 L1518.54 1864.10 L1493.17 1867.69 L1467.92 1870.91 L1442.55 1873.76 L1417.31 1876.23 L1391.94 1878.58 L1366.69 1880.56 L1341.33 1882.42 L1316.08 1884.15 L1290.71 1885.76 L1265.47 1887.12 L1240.10 1888.48 L1214.85 1889.72 L1189.48 1890.84 L1164.24 1891.95 L1138.87 1892.94 L1113.50 1893.81 L1088.26 1894.67 L1062.89 1895.54 L1037.64 1896.28 L1012.27 1896.90 L987.03 1897.52 L961.66 1898.01 L936.42 1898.51 L911.05 1899.00 L885.80 1899.37 L860.43 1899.75 L835.19 1899.99 L809.82 1900.24 L784.58 1900.49 L759.21 1900.74 L733.96 1900.86 L708.59 1900.98 L683.35 1901.23 L657.98 1901.35 L632.73 1901.48 L607.37 1901.48 L582.12 1901.60 L556.75 1901.73 L531.51 1901.73 L506.14 1901.85 L480.89 1901.85 L455.52 1901.97 L455.52 1902.22 Z" stroke-linejoin="round"/>
	</defs>
	<defs>
		<clipPath id="clipPath_mLRecSVG">
			<use xlink:href="#path_peWVSsVj"/>
		</clipPath>
	</defs>
	<use xlink:href="#path_peWVSsVj" style="stroke:none;fill:#E6E6E6"/>
	<use xlink:href="#path_peWVSsVj" style="fill:none;stroke:#E0E0E0;stroke-width:14.69" clip-path="url(#clipPath_mLRecSVG)"/>
	<defs>
		<path id="path_YnUMnKTn" d="M455.52 1902.10 L455.52 1902.10 L480.89 1902.10 L506.14 1902.10 L531.51 1902.10 L556.75 1901.97 L582.12 1901.97 L607.37 1901.85 L632.73 1901.73 L657.98 1901.60 L683.35 1901.48 L708.59 1901.35 L733.96 1901.11 L759.21 1900.86 L784.58 1900.61 L809.82 1900.24 L835.19 1899.87 L860.43 1899.37 L885.80 1898.88 L911.05 1898.38 L936.42 1897.64 L961.66 1897.02 L987.03 1896.16 L1012.27 1895.41 L1037.64 1894.42 L1062.89 1893.43 L1088.26 1892.32 L1113.50 1891.21 L1138.87 1889.97 L1164.24 1888.48 L1189.48 1887.00 L1214.85 1885.39 L1240.10 1883.66 L1265.47 1881.68 L1290.71 1879.57 L1316.08 1877.22 L1341.33 1874.62 L1366.69 1871.90 L1391.94 1868.81 L1417.31 1865.47 L1442.55 1861.75 L1467.92 1857.55 L1493.17 1852.97 L1518.54 1847.89 L1543.78 1842.20 L1569.15 1835.76 L1594.39 1828.71 L1619.76 1820.67 L1645.01 1811.76 L1670.38 1801.86 L1695.62 1790.72 L1720.99 1778.22 L1746.24 1764.24 L1771.61 1748.52 L1796.85 1731.07 L1822.22 1711.39 L1847.46 1689.36 L1872.83 1664.61 L1898.20 1637.02 L1923.45 1606.08 L1948.82 1571.43 L1974.06 1532.69 L1999.43 1489.25 L2024.67 1440.74 L2024.67 1325.16 L1999.43 1385.30 L1974.06 1439.13 L1948.82 1487.27 L1923.45 1530.34 L1898.20 1568.83 L1872.83 1603.23 L1847.46 1633.92 L1822.22 1661.40 L1796.85 1685.90 L1771.61 1707.93 L1746.24 1727.60 L1720.99 1745.18 L1695.62 1760.89 L1670.38 1774.88 L1645.01 1787.50 L1619.76 1798.76 L1594.39 1808.79 L1569.15 1817.82 L1543.78 1825.86 L1518.54 1833.04 L1493.17 1839.48 L1467.92 1845.29 L1442.55 1850.49 L1417.31 1855.07 L1391.94 1859.28 L1366.69 1862.99 L1341.33 1866.46 L1316.08 1869.55 L1290.71 1872.40 L1265.47 1874.99 L1240.10 1877.35 L1214.85 1879.57 L1189.48 1881.68 L1164.24 1883.66 L1138.87 1885.39 L1113.50 1887.12 L1088.26 1888.61 L1062.89 1890.09 L1037.64 1891.33 L1012.27 1892.57 L987.03 1893.68 L961.66 1894.67 L936.42 1895.54 L911.05 1896.40 L885.80 1897.02 L860.43 1897.64 L835.19 1898.14 L809.82 1898.63 L784.58 1899.13 L759.21 1899.50 L733.96 1899.75 L708.59 1900.12 L683.35 1900.36 L657.98 1900.61 L632.73 1900.74 L607.37 1900.98 L582.12 1901.11 L556.75 1901.23 L531.51 1901.35 L506.14 1901.48 L480.89 1901.60 L455.52 1901.60 L455.52 1902.10 Z" stroke-linejoin="round"/>
	</defs>
	<defs>
		<clipPath id="clipPath_SOzjLBmz">
			<use xlink:href="#path_YnUMnKTn"/>
		</clipPath>
	</defs>
	<use xlink:href="#path_YnUMnKTn" style="stroke:none;fill:#E6E6E6"/>
	<use xlink:href="#path_YnUMnKTn" style="fill:none;stroke:#E0E0E0;stroke-width:14.69" clip-path="url(#clipPath_SOzjLBmz)"/>
	<defs>
		<path id="path_XPsXxrYG" d="M455.52 1902.10 L455.52 1902.10 L480.89 1902.10 L506.14 1901.97 L531.51 1901.97 L556.75 1901.85 L582.12 1901.85 L607.37 1901.73 L632.73 1901.60 L657.98 1901.48 L683.35 1901.23 L708.59 1901.11 L733.96 1900.86 L759.21 1900.49 L784.58 1900.24 L809.82 1899.75 L835.19 1899.37 L860.43 1898.88 L885.80 1898.26 L911.05 1897.52 L936.42 1896.78 L961.66 1896.03 L987.03 1895.17 L1012.27 1894.18 L1037.64 1893.06 L1062.89 1891.95 L1088.26 1890.71 L1113.50 1889.35 L1138.87 1887.87 L1164.24 1886.26 L1189.48 1884.52 L1214.85 1882.54 L1240.10 1880.56 L1265.47 1878.34 L1290.71 1875.86 L1316.08 1873.26 L1341.33 1870.29 L1366.69 1867.20 L1391.94 1863.73 L1417.31 1859.77 L1442.55 1855.57 L1467.92 1850.86 L1493.17 1845.54 L1518.54 1839.60 L1543.78 1833.04 L1569.15 1825.74 L1594.39 1817.57 L1619.76 1808.42 L1645.01 1798.27 L1670.38 1786.88 L1695.62 1774.14 L1720.99 1759.78 L1746.24 1743.82 L1771.61 1726.00 L1796.85 1705.95 L1822.22 1683.55 L1847.46 1658.43 L1872.83 1630.46 L1898.20 1599.02 L1923.45 1563.88 L1948.82 1524.52 L1974.06 1480.59 L1999.43 1431.34 L2024.67 1376.39 L2024.67 1002.65 L1999.43 1096.83 L1974.06 1181.11 L1948.82 1256.47 L1923.45 1323.80 L1898.20 1383.94 L1872.83 1437.65 L1847.46 1485.67 L1822.22 1528.61 L1796.85 1566.85 L1771.61 1601.13 L1746.24 1631.69 L1720.99 1659.04 L1695.62 1683.42 L1670.38 1705.20 L1645.01 1724.76 L1619.76 1742.21 L1594.39 1757.80 L1569.15 1771.78 L1543.78 1784.28 L1518.54 1795.42 L1493.17 1805.45 L1467.92 1814.36 L1442.55 1822.40 L1417.31 1829.58 L1391.94 1836.01 L1366.69 1841.83 L1341.33 1847.15 L1316.08 1851.98 L1290.71 1856.43 L1265.47 1860.52 L1240.10 1864.23 L1214.85 1867.69 L1189.48 1870.91 L1164.24 1873.88 L1138.87 1876.60 L1113.50 1879.20 L1088.26 1881.55 L1062.89 1883.78 L1037.64 1885.76 L1012.27 1887.62 L987.03 1889.35 L961.66 1890.84 L936.42 1892.20 L911.05 1893.43 L885.80 1894.55 L860.43 1895.41 L835.19 1896.28 L809.82 1897.02 L784.58 1897.64 L759.21 1898.26 L733.96 1898.76 L708.59 1899.13 L683.35 1899.50 L657.98 1899.87 L632.73 1900.12 L607.37 1900.36 L582.12 1900.61 L556.75 1900.86 L531.51 1900.98 L506.14 1901.11 L480.89 1901.23 L455.52 1901.35 L455.52 1902.10 Z" stroke-linejoin="round"/>
	</defs>
	<defs>
		<clipPath id="clipPath_wVOyBjvY">
			<use xlink:href="#path_XPsXxrYG"/>
		</clipPath>
	</defs>
	<use xlink:href="#path_XPsXxrYG" style="stroke:none;fill:#E6E6E6"/>
	<use xlink:href="#path_XPsXxrYG" style="fill:none;stroke:#E0E0E0;stroke-width:14.69" clip-path="url(#clipPath_wVOyBjvY)"/>
	<path d=" M455.52 1902.10 L480.77 1902.10 L506.14 1901.97 L531.38 1901.97 L556.75 1901.85 L582.00 1901.85 L607.37 1901.73 L632.61 1901.60 L657.98 1901.48 L683.22 1901.35 L708.59 1901.23 L733.84 1900.98 L759.21 1900.74 L784.45 1900.49 L809.82 1900.12 L835.07 1899.87 L860.43 1899.37 L885.68 1899.00 L911.05 1898.51 L936.29 1897.89 L961.66 1897.27 L986.91 1896.53 L1012.27 1895.79 L1037.52 1894.92 L1062.89 1894.05 L1088.13 1893.06 L1113.50 1891.95 L1138.87 1890.71 L1164.12 1889.47 L1189.48 1888.11 L1214.73 1886.63 L1240.10 1885.02 L1265.34 1883.29 L1290.71 1881.43 L1315.96 1879.33 L1341.33 1877.10 L1366.57 1874.62 L1391.94 1871.90 L1417.18 1868.93 L1442.55 1865.59 L1467.80 1861.88 L1493.17 1857.79 L1518.41 1853.21 L1543.78 1848.02 L1569.03 1842.32 L1594.39 1835.89 L1619.64 1828.71 L1645.01 1820.67 L1670.25 1811.63 L1695.62 1801.61 L1720.87 1790.47 L1746.24 1777.85 L1771.48 1763.86 L1796.85 1748.02 L1822.10 1730.45 L1847.46 1710.77 L1872.71 1688.62 L1898.08 1663.99 L1923.45 1636.27 L1948.69 1605.34 L1974.06 1570.68 L1999.31 1531.95 L2024.67 1488.64" stroke-linejoin="round" style="fill:none;stroke:#FF0000;stroke-width:7.34"/>
	<path d=" M455.52 1902.22 L480.77 1902.10 L506.14 1902.10 L531.38 1902.10 L556.75 1901.97 L582.00 1901.97 L607.37 1901.97 L632.61 1901.85 L657.98 1901.73 L683.22 1901.60 L708.59 1901.48 L733.84 1901.35 L759.21 1901.23 L784.45 1900.98 L809.82 1900.86 L835.07 1900.61 L860.43 1900.24 L885.68 1899.99 L911.05 1899.62 L936.29 1899.25 L961.66 1898.76 L986.91 1898.26 L1012.27 1897.77 L1037.52 1897.15 L1062.89 1896.53 L1088.13 1895.79 L1113.50 1895.04 L1138.87 1894.18 L1164.12 1893.31 L1189.48 1892.32 L1214.73 1891.33 L1240.10 1890.22 L1265.34 1888.98 L1290.71 1887.74 L1315.96 1886.26 L1341.33 1884.65 L1366.57 1882.92 L1391.94 1881.06 L1417.18 1878.95 L1442.55 1876.60 L1467.80 1874.00 L1493.17 1871.03 L1518.41 1867.82 L1543.78 1864.23 L1569.03 1860.27 L1594.39 1855.69 L1619.64 1850.74 L1645.01 1845.05 L1670.25 1838.73 L1695.62 1831.68 L1720.87 1823.88 L1746.24 1815.10 L1771.48 1805.20 L1796.85 1794.18 L1822.10 1781.81 L1847.46 1767.95 L1872.71 1752.48 L1898.08 1735.15 L1923.45 1715.72 L1948.69 1694.07 L1974.06 1669.81 L1999.31 1642.59 L2024.67 1612.14" stroke-linejoin="round" style="fill:none;stroke:#FFD200;stroke-width:7.34"/>
	<path d=" M455.52 1902.10 L480.77 1901.97 L506.14 1901.97 L531.38 1901.85 L556.75 1901.85 L582.00 1901.73 L607.37 1901.60 L632.61 1901.48 L657.98 1901.23 L683.22 1901.11 L708.59 1900.86 L733.84 1900.61 L759.21 1900.36 L784.45 1899.99 L809.82 1899.62 L835.07 1899.25 L860.43 1898.76 L885.68 1898.14 L911.05 1897.52 L936.29 1896.78 L961.66 1896.03 L986.91 1895.17 L1012.27 1894.18 L1037.52 1893.06 L1062.89 1891.95 L1088.13 1890.71 L1113.50 1889.35 L1138.87 1887.87 L1164.12 1886.38 L1189.48 1884.65 L1214.73 1882.79 L1240.10 1880.81 L1265.34 1878.58 L1290.71 1876.23 L1315.96 1873.63 L1341.33 1870.91 L1366.57 1867.82 L1391.94 1864.35 L1417.18 1860.64 L1442.55 1856.56 L1467.80 1851.85 L1493.17 1846.78 L1518.41 1840.96 L1543.78 1834.53 L1569.03 1827.35 L1594.39 1819.43 L1619.64 1810.40 L1645.01 1800.37 L1670.25 1789.23 L1695.62 1776.73 L1720.87 1762.75 L1746.24 1747.03 L1771.48 1729.46 L1796.85 1709.91 L1822.10 1687.88 L1847.46 1663.25 L1872.71 1635.78 L1898.08 1604.96 L1923.45 1570.44 L1948.69 1531.83 L1974.06 1488.64 L1999.31 1440.25 L2024.67 1386.29" stroke-linejoin="round" style="fill:none;stroke:#FF7F00;stroke-width:7.34"/>
	<path d=" M455.52 1901.97 L480.77 1901.85 L506.14 1901.85 L531.38 1901.73 L556.75 1901.60 L582.00 1901.48 L607.37 1901.35 L632.61 1901.11 L657.98 1900.98 L683.22 1900.74 L708.59 1900.36 L733.84 1900.12 L759.21 1899.75 L784.45 1899.25 L809.82 1898.76 L835.07 1898.14 L860.43 1897.52 L885.68 1896.78 L911.05 1895.91 L936.29 1894.92 L961.66 1893.93 L986.91 1892.69 L1012.27 1891.45 L1037.52 1889.97 L1062.89 1888.48 L1088.13 1886.88 L1113.50 1885.02 L1138.87 1883.04 L1164.12 1880.94 L1189.48 1878.71 L1214.73 1876.23 L1240.10 1873.63 L1265.34 1870.66 L1290.71 1867.57 L1315.96 1864.10 L1341.33 1860.39 L1366.57 1856.31 L1391.94 1851.73 L1417.18 1846.78 L1442.55 1841.21 L1467.80 1835.02 L1493.17 1828.22 L1518.41 1820.54 L1543.78 1812.00 L1569.03 1802.35 L1594.39 1791.71 L1619.64 1779.83 L1645.01 1766.46 L1670.25 1751.49 L1695.62 1734.91 L1720.87 1716.22 L1746.24 1695.30 L1771.48 1671.91 L1796.85 1645.68 L1822.10 1616.47 L1847.46 1583.68 L1872.71 1546.92 L1898.08 1505.84 L1923.45 1459.92 L1948.69 1408.44 L1974.06 1350.90 L1999.31 1286.42 L2024.67 1214.52" stroke-linejoin="round" style="fill:none;stroke:#008000;stroke-width:7.34"/>
	<path d=" M455.52 1902.22 L480.77 1902.22 L506.14 1902.22 L531.38 1902.10 L556.75 1902.10 L582.00 1902.10 L607.37 1901.97 L632.61 1901.97 L657.98 1901.85 L683.22 1901.85 L708.59 1901.73 L733.84 1901.60 L759.21 1901.48 L784.45 1901.35 L809.82 1901.23 L835.07 1900.98 L860.43 1900.74 L885.68 1900.49 L911.05 1900.24 L936.29 1899.99 L961.66 1899.62 L986.91 1899.25 L1012.27 1898.88 L1037.52 1898.38 L1062.89 1897.89 L1088.13 1897.39 L1113.50 1896.78 L1138.87 1896.16 L1164.12 1895.54 L1189.48 1894.80 L1214.73 1893.93 L1240.10 1893.19 L1265.34 1892.20 L1290.71 1891.21 L1315.96 1890.09 L1341.33 1888.86 L1366.57 1887.62 L1391.94 1886.13 L1417.18 1884.52 L1442.55 1882.79 L1467.80 1880.81 L1493.17 1878.58 L1518.41 1876.11 L1543.78 1873.39 L1569.03 1870.29 L1594.39 1866.95 L1619.64 1863.11 L1645.01 1858.78 L1670.25 1854.08 L1695.62 1848.76 L1720.87 1842.70 L1746.24 1836.01 L1771.48 1828.59 L1796.85 1820.17 L1822.10 1810.77 L1847.46 1800.25 L1872.71 1788.49 L1898.08 1775.37 L1923.45 1760.65 L1948.69 1744.19 L1974.06 1725.75 L1999.31 1705.08 L2024.67 1681.94" stroke-linejoin="round" style="fill:none;stroke:#1A476F;stroke-width:7.34"/>
	<line x1="455.52" y1="1858.78" x2="458.37" y2="1858.78" style="stroke:#000000;stroke-width:7.34"/>
	<line x1="478.54" y1="1858.78" x2="480.77" y2="1858.78" style="stroke:#000000;stroke-width:7.34"/>
	<line x1="480.77" y1="1858.78" x2="481.39" y2="1858.78" style="stroke:#000000;stroke-width:7.34"/>
	<line x1="501.56" y1="1858.78" x2="504.40" y2="1858.78" style="stroke:#000000;stroke-width:7.34"/>
	<line x1="524.58" y1="1858.78" x2="527.42" y2="1858.78" style="stroke:#000000;stroke-width:7.34"/>
	<line x1="547.59" y1="1858.78" x2="550.44" y2="1858.78" style="stroke:#000000;stroke-width:7.34"/>
	<line x1="570.61" y1="1858.78" x2="573.58" y2="1858.78" style="stroke:#000000;stroke-width:7.34"/>
	<line x1="593.75" y1="1858.78" x2="596.60" y2="1858.78" style="stroke:#000000;stroke-width:7.34"/>
	<line x1="616.77" y1="1858.78" x2="619.62" y2="1858.78" style="stroke:#000000;stroke-width:7.34"/>
	<line x1="639.79" y1="1858.78" x2="642.63" y2="1858.78" style="stroke:#000000;stroke-width:7.34"/>
	<line x1="662.80" y1="1858.78" x2="665.65" y2="1858.78" style="stroke:#000000;stroke-width:7.34"/>
	<line x1="685.82" y1="1858.78" x2="688.67" y2="1858.78" style="stroke:#000000;stroke-width:7.34"/>
	<line x1="708.84" y1="1858.78" x2="711.69" y2="1858.78" style="stroke:#000000;stroke-width:7.34"/>
	<line x1="731.86" y1="1858.78" x2="733.84" y2="1858.78" style="stroke:#000000;stroke-width:7.34"/>
	<line x1="733.84" y1="1858.78" x2="734.70" y2="1858.78" style="stroke:#000000;stroke-width:7.34"/>
	<line x1="754.88" y1="1858.78" x2="757.72" y2="1858.78" style="stroke:#000000;stroke-width:7.34"/>
	<line x1="777.89" y1="1858.78" x2="780.74" y2="1858.78" style="stroke:#000000;stroke-width:7.34"/>
	<line x1="800.91" y1="1858.78" x2="803.88" y2="1858.78" style="stroke:#000000;stroke-width:7.34"/>
	<line x1="823.93" y1="1858.78" x2="826.90" y2="1858.78" style="stroke:#000000;stroke-width:7.34"/>
	<line x1="847.07" y1="1858.78" x2="849.91" y2="1858.78" style="stroke:#000000;stroke-width:7.34"/>
	<line x1="870.09" y1="1858.78" x2="872.93" y2="1858.78" style="stroke:#000000;stroke-width:7.34"/>
	<line x1="893.10" y1="1858.78" x2="895.95" y2="1858.78" style="stroke:#000000;stroke-width:7.34"/>
	<line x1="916.12" y1="1858.78" x2="918.97" y2="1858.78" style="stroke:#000000;stroke-width:7.34"/>
	<line x1="939.14" y1="1858.78" x2="941.99" y2="1858.78" style="stroke:#000000;stroke-width:7.34"/>
	<line x1="962.16" y1="1858.78" x2="965.00" y2="1858.78" style="stroke:#000000;stroke-width:7.34"/>
	<line x1="985.17" y1="1858.78" x2="986.91" y2="1858.78" style="stroke:#000000;stroke-width:7.34"/>
	<line x1="986.91" y1="1858.78" x2="988.02" y2="1858.78" style="stroke:#000000;stroke-width:7.34"/>
	<line x1="1008.19" y1="1858.78" x2="1011.04" y2="1858.78" style="stroke:#000000;stroke-width:7.34"/>
	<line x1="1031.21" y1="1858.78" x2="1034.06" y2="1858.78" style="stroke:#000000;stroke-width:7.34"/>
	<line x1="1054.23" y1="1858.78" x2="1057.20" y2="1858.78" style="stroke:#000000;stroke-width:7.34"/>
	<line x1="1077.24" y1="1858.78" x2="1080.21" y2="1858.78" style="stroke:#000000;stroke-width:7.34"/>
	<line x1="1100.38" y1="1858.78" x2="1103.23" y2="1858.78" style="stroke:#000000;stroke-width:7.34"/>
	<line x1="1123.40" y1="1858.78" x2="1126.25" y2="1858.78" style="stroke:#000000;stroke-width:7.34"/>
	<line x1="1146.42" y1="1858.78" x2="1149.27" y2="1858.78" style="stroke:#000000;stroke-width:7.34"/>
	<line x1="1169.44" y1="1858.78" x2="1172.28" y2="1858.78" style="stroke:#000000;stroke-width:7.34"/>
	<line x1="1192.45" y1="1858.78" x2="1195.30" y2="1858.78" style="stroke:#000000;stroke-width:7.34"/>
	<line x1="1215.47" y1="1858.78" x2="1218.32" y2="1858.78" style="stroke:#000000;stroke-width:7.34"/>
	<line x1="1238.49" y1="1858.78" x2="1240.10" y2="1858.78" style="stroke:#000000;stroke-width:7.34"/>
	<line x1="1240.10" y1="1858.78" x2="1241.34" y2="1858.78" style="stroke:#000000;stroke-width:7.34"/>
	<line x1="1261.51" y1="1858.78" x2="1264.35" y2="1858.78" style="stroke:#000000;stroke-width:7.34"/>
	<line x1="1284.53" y1="1858.78" x2="1287.37" y2="1858.78" style="stroke:#000000;stroke-width:7.34"/>
	<line x1="1307.54" y1="1858.78" x2="1310.51" y2="1858.78" style="stroke:#000000;stroke-width:7.34"/>
	<line x1="1330.56" y1="1858.78" x2="1333.53" y2="1858.78" style="stroke:#000000;stroke-width:7.34"/>
	<line x1="1353.70" y1="1858.78" x2="1356.55" y2="1858.78" style="stroke:#000000;stroke-width:7.34"/>
	<line x1="1376.72" y1="1858.78" x2="1379.57" y2="1858.78" style="stroke:#000000;stroke-width:7.34"/>
	<line x1="1399.74" y1="1858.78" x2="1402.58" y2="1858.78" style="stroke:#000000;stroke-width:7.34"/>
	<line x1="1422.75" y1="1858.78" x2="1425.60" y2="1858.78" style="stroke:#000000;stroke-width:7.34"/>
	<line x1="1445.77" y1="1858.78" x2="1448.62" y2="1858.78" style="stroke:#000000;stroke-width:7.34"/>
	<line x1="1468.79" y1="1858.78" x2="1471.63" y2="1858.78" style="stroke:#000000;stroke-width:7.34"/>
	<line x1="1491.81" y1="1858.78" x2="1493.17" y2="1858.78" style="stroke:#000000;stroke-width:7.34"/>
	<line x1="1493.17" y1="1858.78" x2="1494.65" y2="1858.78" style="stroke:#000000;stroke-width:7.34"/>
	<line x1="1514.82" y1="1858.78" x2="1517.67" y2="1858.78" style="stroke:#000000;stroke-width:7.34"/>
	<line x1="1537.84" y1="1858.78" x2="1540.69" y2="1858.78" style="stroke:#000000;stroke-width:7.34"/>
	<line x1="1560.86" y1="1858.78" x2="1563.83" y2="1858.78" style="stroke:#000000;stroke-width:7.34"/>
	<line x1="1584.00" y1="1858.78" x2="1586.85" y2="1858.78" style="stroke:#000000;stroke-width:7.34"/>
	<line x1="1607.02" y1="1858.78" x2="1609.86" y2="1858.78" style="stroke:#000000;stroke-width:7.34"/>
	<line x1="1630.04" y1="1858.78" x2="1632.88" y2="1858.78" style="stroke:#000000;stroke-width:7.34"/>
	<line x1="1653.05" y1="1858.78" x2="1655.90" y2="1858.78" style="stroke:#000000;stroke-width:7.34"/>
	<line x1="1676.07" y1="1858.78" x2="1678.92" y2="1858.78" style="stroke:#000000;stroke-width:7.34"/>
	<line x1="1699.09" y1="1858.78" x2="1701.93" y2="1858.78" style="stroke:#000000;stroke-width:7.34"/>
	<line x1="1722.11" y1="1858.78" x2="1724.95" y2="1858.78" style="stroke:#000000;stroke-width:7.34"/>
	<line x1="1745.12" y1="1858.78" x2="1746.24" y2="1858.78" style="stroke:#000000;stroke-width:7.34"/>
	<line x1="1746.24" y1="1858.78" x2="1747.97" y2="1858.78" style="stroke:#000000;stroke-width:7.34"/>
	<line x1="1768.14" y1="1858.78" x2="1770.99" y2="1858.78" style="stroke:#000000;stroke-width:7.34"/>
	<line x1="1791.16" y1="1858.78" x2="1794.00" y2="1858.78" style="stroke:#000000;stroke-width:7.34"/>
	<line x1="1814.17" y1="1858.78" x2="1817.14" y2="1858.78" style="stroke:#000000;stroke-width:7.34"/>
	<line x1="1837.32" y1="1858.78" x2="1840.16" y2="1858.78" style="stroke:#000000;stroke-width:7.34"/>
	<line x1="1860.33" y1="1858.78" x2="1863.18" y2="1858.78" style="stroke:#000000;stroke-width:7.34"/>
	<line x1="1883.35" y1="1858.78" x2="1886.20" y2="1858.78" style="stroke:#000000;stroke-width:7.34"/>
	<line x1="1906.37" y1="1858.78" x2="1909.21" y2="1858.78" style="stroke:#000000;stroke-width:7.34"/>
	<line x1="1929.39" y1="1858.78" x2="1932.23" y2="1858.78" style="stroke:#000000;stroke-width:7.34"/>
	<line x1="1952.40" y1="1858.78" x2="1955.25" y2="1858.78" style="stroke:#000000;stroke-width:7.34"/>
	<line x1="1975.42" y1="1858.78" x2="1978.27" y2="1858.78" style="stroke:#000000;stroke-width:7.34"/>
	<line x1="1998.44" y1="1858.78" x2="1999.31" y2="1858.78" style="stroke:#000000;stroke-width:7.34"/>
	<line x1="1999.31" y1="1858.78" x2="2001.29" y2="1858.78" style="stroke:#000000;stroke-width:7.34"/>
	<line x1="2021.46" y1="1858.78" x2="2024.30" y2="1858.78" style="stroke:#000000;stroke-width:7.34"/>
	<path d="" stroke-linejoin="round" style="fill:none;stroke:#000000;stroke-width:7.34"/>
	<defs>
		<path id="path_bbDtvFup" d="M2201.51 1902.22 L2201.51 1902.22 L2226.88 1902.22 L2252.13 1902.10 L2277.49 1902.10 L2302.74 1902.10 L2328.11 1902.10 L2353.35 1901.97 L2378.72 1901.97 L2403.97 1901.85 L2429.34 1901.85 L2454.58 1901.73 L2479.95 1901.60 L2505.20 1901.35 L2530.56 1901.23 L2555.81 1900.98 L2581.18 1900.74 L2606.42 1900.49 L2631.79 1900.12 L2657.04 1899.75 L2682.41 1899.37 L2707.65 1899.00 L2733.02 1898.38 L2758.26 1897.89 L2783.63 1897.39 L2808.88 1896.65 L2834.25 1896.03 L2859.49 1895.29 L2884.86 1894.42 L2910.11 1893.56 L2935.47 1892.69 L2960.72 1891.58 L2986.09 1890.46 L3011.46 1889.23 L3036.70 1887.87 L3062.07 1886.38 L3087.32 1884.77 L3112.68 1882.92 L3137.93 1880.94 L3163.30 1878.83 L3188.54 1876.36 L3213.91 1873.76 L3239.16 1870.79 L3264.53 1867.57 L3289.77 1863.86 L3315.14 1859.77 L3340.38 1855.19 L3365.75 1850.12 L3391.00 1844.55 L3416.37 1838.12 L3441.61 1831.06 L3466.98 1823.14 L3492.22 1814.23 L3517.59 1804.33 L3542.84 1793.19 L3568.21 1780.69 L3593.45 1766.71 L3618.82 1750.99 L3644.07 1733.54 L3669.43 1713.99 L3694.68 1691.96 L3720.05 1667.46 L3745.42 1639.99 L3770.66 1609.42 L3770.66 1553.11 L3745.42 1589.74 L3720.05 1622.54 L3694.68 1651.74 L3669.43 1677.85 L3644.07 1701.12 L3618.82 1721.91 L3593.45 1740.60 L3568.21 1757.18 L3542.84 1772.03 L3517.59 1785.27 L3492.22 1797.15 L3466.98 1807.80 L3441.61 1817.20 L3416.37 1825.74 L3391.00 1833.29 L3365.75 1840.10 L3340.38 1846.16 L3315.14 1851.48 L3289.77 1856.43 L3264.53 1860.76 L3239.16 1864.60 L3213.91 1868.06 L3188.54 1871.16 L3163.30 1873.88 L3137.93 1876.36 L3112.68 1878.58 L3087.32 1880.69 L3062.07 1882.54 L3036.70 1884.15 L3011.46 1885.76 L2986.09 1887.25 L2960.72 1888.48 L2935.47 1889.85 L2910.11 1890.96 L2884.86 1892.07 L2859.49 1893.06 L2834.25 1893.93 L2808.88 1894.80 L2783.63 1895.66 L2758.26 1896.40 L2733.02 1897.02 L2707.65 1897.64 L2682.41 1898.14 L2657.04 1898.63 L2631.79 1899.13 L2606.42 1899.50 L2581.18 1899.75 L2555.81 1900.12 L2530.56 1900.36 L2505.20 1900.49 L2479.95 1900.74 L2454.58 1900.98 L2429.34 1901.11 L2403.97 1901.23 L2378.72 1901.35 L2353.35 1901.48 L2328.11 1901.60 L2302.74 1901.60 L2277.49 1901.73 L2252.13 1901.73 L2226.88 1901.85 L2201.51 1901.85 L2201.51 1902.22 Z" stroke-linejoin="round"/>
	</defs>
	<defs>
		<clipPath id="clipPath_RRXrMXFR">
			<use xlink:href="#path_bbDtvFup"/>
		</clipPath>
	</defs>
	<use xlink:href="#path_bbDtvFup" style="stroke:none;fill:#E6E6E6"/>
	<use xlink:href="#path_bbDtvFup" style="fill:none;stroke:#E0E0E0;stroke-width:14.69" clip-path="url(#clipPath_RRXrMXFR)"/>
	<defs>
		<path id="path_aNKmnQRJ" d="M2201.51 1902.10 L2201.51 1902.10 L2226.88 1902.10 L2252.13 1902.10 L2277.49 1901.97 L2302.74 1901.97 L2328.11 1901.85 L2353.35 1901.85 L2378.72 1901.73 L2403.97 1901.60 L2429.34 1901.35 L2454.58 1901.23 L2479.95 1900.98 L2505.20 1900.74 L2530.56 1900.36 L2555.81 1899.99 L2581.18 1899.50 L2606.42 1899.00 L2631.79 1898.51 L2657.04 1897.77 L2682.41 1897.15 L2707.65 1896.28 L2733.02 1895.41 L2758.26 1894.55 L2783.63 1893.56 L2808.88 1892.44 L2834.25 1891.21 L2859.49 1889.85 L2884.86 1888.48 L2910.11 1886.88 L2935.47 1885.27 L2960.72 1883.41 L2986.09 1881.43 L3011.46 1879.33 L3036.70 1876.85 L3062.07 1874.38 L3087.32 1871.53 L3112.68 1868.44 L3137.93 1865.09 L3163.30 1861.26 L3188.54 1857.17 L3213.91 1852.60 L3239.16 1847.40 L3264.53 1841.71 L3289.77 1835.39 L3315.14 1828.34 L3340.38 1820.42 L3365.75 1811.51 L3391.00 1801.73 L3416.37 1790.59 L3441.61 1778.34 L3466.98 1764.48 L3492.22 1749.01 L3517.59 1731.69 L3542.84 1712.38 L3568.21 1690.60 L3593.45 1666.35 L3618.82 1639.24 L3644.07 1608.80 L3669.43 1574.77 L3694.68 1536.65 L3720.05 1494.08 L3745.42 1446.44 L3770.66 1393.22 L3770.66 1194.72 L3745.42 1268.85 L3720.05 1335.18 L3694.68 1394.46 L3669.43 1447.30 L3644.07 1494.70 L3618.82 1536.90 L3593.45 1574.64 L3568.21 1608.31 L3542.84 1638.50 L3517.59 1665.36 L3492.22 1689.36 L3466.98 1710.90 L3441.61 1730.08 L3416.37 1747.28 L3391.00 1762.63 L3365.75 1776.36 L3340.38 1788.61 L3315.14 1799.50 L3289.77 1809.41 L3264.53 1818.19 L3239.16 1825.99 L3213.91 1833.04 L3188.54 1839.35 L3163.30 1844.92 L3137.93 1850.00 L3112.68 1854.58 L3087.32 1858.78 L3062.07 1862.50 L3036.70 1865.96 L3011.46 1869.18 L2986.09 1872.15 L2960.72 1874.87 L2935.47 1877.35 L2910.11 1879.70 L2884.86 1881.93 L2859.49 1883.91 L2834.25 1885.76 L2808.88 1887.49 L2783.63 1889.10 L2758.26 1890.59 L2733.02 1891.95 L2707.65 1893.06 L2682.41 1894.18 L2657.04 1895.17 L2631.79 1896.03 L2606.42 1896.78 L2581.18 1897.39 L2555.81 1898.01 L2530.56 1898.51 L2505.20 1898.88 L2479.95 1899.37 L2454.58 1899.62 L2429.34 1899.99 L2403.97 1900.24 L2378.72 1900.49 L2353.35 1900.74 L2328.11 1900.86 L2302.74 1900.98 L2277.49 1901.23 L2252.13 1901.35 L2226.88 1901.48 L2201.51 1901.48 L2201.51 1902.10 Z" stroke-linejoin="round"/>
	</defs>
	<defs>
		<clipPath id="clipPath_QPaPVYFI">
			<use xlink:href="#path_aNKmnQRJ"/>
		</clipPath>
	</defs>
	<use xlink:href="#path_aNKmnQRJ" style="stroke:none;fill:#E6E6E6"/>
	<use xlink:href="#path_aNKmnQRJ" style="fill:none;stroke:#E0E0E0;stroke-width:14.69" clip-path="url(#clipPath_QPaPVYFI)"/>
	<defs>
		<path id="path_ERvCwOsm" d="M2201.51 1902.22 L2201.51 1902.22 L2226.88 1902.10 L2252.13 1902.10 L2277.49 1902.10 L2302.74 1902.10 L2328.11 1901.97 L2353.35 1901.97 L2378.72 1901.85 L2403.97 1901.73 L2429.34 1901.60 L2454.58 1901.48 L2479.95 1901.35 L2505.20 1901.11 L2530.56 1900.86 L2555.81 1900.61 L2581.18 1900.24 L2606.42 1899.87 L2631.79 1899.50 L2657.04 1899.00 L2682.41 1898.51 L2707.65 1897.89 L2733.02 1897.27 L2758.26 1896.53 L2783.63 1895.79 L2808.88 1895.04 L2834.25 1894.05 L2859.49 1893.06 L2884.86 1892.07 L2910.11 1890.96 L2935.47 1889.72 L2960.72 1888.36 L2986.09 1886.88 L3011.46 1885.27 L3036.70 1883.41 L3062.07 1881.55 L3087.32 1879.45 L3112.68 1877.10 L3137.93 1874.50 L3163.30 1871.65 L3188.54 1868.56 L3213.91 1865.09 L3239.16 1861.26 L3264.53 1857.05 L3289.77 1852.22 L3315.14 1846.90 L3340.38 1841.09 L3365.75 1834.40 L3391.00 1826.98 L3416.37 1818.69 L3441.61 1809.41 L3466.98 1799.01 L3492.22 1787.38 L3517.59 1774.38 L3542.84 1759.78 L3568.21 1743.44 L3593.45 1725.13 L3618.82 1704.71 L3644.07 1681.69 L3669.43 1655.95 L3694.68 1627.24 L3720.05 1595.06 L3745.42 1559.05 L3770.66 1518.71 L3770.66 1440.12 L3745.42 1488.39 L3720.05 1531.58 L3694.68 1570.19 L3669.43 1604.59 L3644.07 1635.41 L3618.82 1663.00 L3593.45 1687.63 L3568.21 1709.54 L3542.84 1729.21 L3517.59 1746.79 L3492.22 1762.63 L3466.98 1776.61 L3441.61 1789.23 L3416.37 1800.37 L3391.00 1810.52 L3365.75 1819.43 L3340.38 1827.47 L3315.14 1834.77 L3289.77 1841.21 L3264.53 1846.90 L3239.16 1852.10 L3213.91 1856.68 L3188.54 1860.76 L3163.30 1864.48 L3137.93 1867.82 L3112.68 1870.79 L3087.32 1873.51 L3062.07 1875.98 L3036.70 1878.21 L3011.46 1880.32 L2986.09 1882.30 L2960.72 1884.03 L2935.47 1885.64 L2910.11 1887.25 L2884.86 1888.73 L2859.49 1889.97 L2834.25 1891.21 L2808.88 1892.44 L2783.63 1893.43 L2758.26 1894.42 L2733.02 1895.29 L2707.65 1896.16 L2682.41 1896.90 L2657.04 1897.52 L2631.79 1898.01 L2606.42 1898.51 L2581.18 1899.00 L2555.81 1899.37 L2530.56 1899.75 L2505.20 1899.99 L2479.95 1900.24 L2454.58 1900.49 L2429.34 1900.74 L2403.97 1900.86 L2378.72 1900.98 L2353.35 1901.23 L2328.11 1901.35 L2302.74 1901.48 L2277.49 1901.48 L2252.13 1901.60 L2226.88 1901.73 L2201.51 1901.73 L2201.51 1902.22 Z" stroke-linejoin="round"/>
	</defs>
	<defs>
		<clipPath id="clipPath_QfSoGgYp">
			<use xlink:href="#path_ERvCwOsm"/>
		</clipPath>
	</defs>
	<use xlink:href="#path_ERvCwOsm" style="stroke:none;fill:#E6E6E6"/>
	<use xlink:href="#path_ERvCwOsm" style="fill:none;stroke:#E0E0E0;stroke-width:14.69" clip-path="url(#clipPath_QfSoGgYp)"/>
	<defs>
		<path id="path_KgbjvjZo" d="M2201.51 1902.10 L2201.51 1902.10 L2226.88 1902.10 L2252.13 1901.97 L2277.49 1901.97 L2302.74 1901.85 L2328.11 1901.73 L2353.35 1901.60 L2378.72 1901.48 L2403.97 1901.35 L2429.34 1901.11 L2454.58 1900.86 L2479.95 1900.61 L2505.20 1900.24 L2530.56 1899.87 L2555.81 1899.37 L2581.18 1898.76 L2606.42 1898.14 L2631.79 1897.39 L2657.04 1896.53 L2682.41 1895.66 L2707.65 1894.55 L2733.02 1893.43 L2758.26 1892.20 L2783.63 1890.96 L2808.88 1889.47 L2834.25 1887.87 L2859.49 1886.13 L2884.86 1884.40 L2910.11 1882.30 L2935.47 1880.19 L2960.72 1877.84 L2986.09 1875.24 L3011.46 1872.40 L3036.70 1869.30 L3062.07 1865.96 L3087.32 1862.25 L3112.68 1858.16 L3137.93 1853.71 L3163.30 1848.88 L3188.54 1843.44 L3213.91 1837.50 L3239.16 1830.81 L3264.53 1823.27 L3289.77 1815.10 L3315.14 1805.82 L3340.38 1795.42 L3365.75 1783.91 L3391.00 1771.04 L3416.37 1756.56 L3441.61 1740.35 L3466.98 1722.28 L3492.22 1701.99 L3517.59 1679.34 L3542.84 1653.97 L3568.21 1625.38 L3593.45 1593.58 L3618.82 1557.81 L3644.07 1517.84 L3669.43 1473.04 L3694.68 1422.92 L3720.05 1366.74 L3745.42 1303.99 L3770.66 1233.83 L3770.66 1063.79 L3745.42 1151.28 L3720.05 1229.49 L3694.68 1299.54 L3669.43 1362.04 L3644.07 1417.97 L3618.82 1467.84 L3593.45 1512.52 L3568.21 1552.49 L3542.84 1588.26 L3517.59 1620.06 L3492.22 1648.65 L3466.98 1674.14 L3441.61 1697.04 L3416.37 1717.46 L3391.00 1735.65 L3365.75 1751.98 L3340.38 1766.59 L3315.14 1779.70 L3289.77 1791.34 L3264.53 1801.86 L3239.16 1811.26 L3213.91 1819.55 L3188.54 1827.10 L3163.30 1833.78 L3137.93 1839.85 L3112.68 1845.29 L3087.32 1850.24 L3062.07 1854.70 L3036.70 1858.78 L3011.46 1862.62 L2986.09 1866.08 L2960.72 1869.43 L2935.47 1872.40 L2910.11 1875.24 L2884.86 1877.84 L2859.49 1880.19 L2834.25 1882.42 L2808.88 1884.52 L2783.63 1886.50 L2758.26 1888.24 L2733.02 1889.85 L2707.65 1891.21 L2682.41 1892.57 L2657.04 1893.68 L2631.79 1894.67 L2606.42 1895.54 L2581.18 1896.40 L2555.81 1897.02 L2530.56 1897.64 L2505.20 1898.14 L2479.95 1898.63 L2454.58 1899.13 L2429.34 1899.50 L2403.97 1899.75 L2378.72 1900.12 L2353.35 1900.36 L2328.11 1900.61 L2302.74 1900.74 L2277.49 1900.98 L2252.13 1901.11 L2226.88 1901.23 L2201.51 1901.35 L2201.51 1902.10 Z" stroke-linejoin="round"/>
	</defs>
	<defs>
		<clipPath id="clipPath_vbyiKNEm">
			<use xlink:href="#path_KgbjvjZo"/>
		</clipPath>
	</defs>
	<use xlink:href="#path_KgbjvjZo" style="stroke:none;fill:#E6E6E6"/>
	<use xlink:href="#path_KgbjvjZo" style="fill:none;stroke:#E0E0E0;stroke-width:14.69" clip-path="url(#clipPath_vbyiKNEm)"/>
	<defs>
		<path id="path_NfZigNwF" d="M2201.51 1902.10 L2201.51 1902.10 L2226.88 1901.97 L2252.13 1901.97 L2277.49 1901.85 L2302.74 1901.73 L2328.11 1901.60 L2353.35 1901.48 L2378.72 1901.35 L2403.97 1901.11 L2429.34 1900.86 L2454.58 1900.49 L2479.95 1900.12 L2505.20 1899.75 L2530.56 1899.25 L2555.81 1898.63 L2581.18 1898.01 L2606.42 1897.27 L2631.79 1896.40 L2657.04 1895.41 L2682.41 1894.42 L2707.65 1893.19 L2733.02 1891.95 L2758.26 1890.46 L2783.63 1888.98 L2808.88 1887.25 L2834.25 1885.39 L2859.49 1883.41 L2884.86 1881.31 L2910.11 1878.95 L2935.47 1876.48 L2960.72 1873.76 L2986.09 1870.79 L3011.46 1867.45 L3036.70 1863.98 L3062.07 1860.14 L3087.32 1855.94 L3112.68 1851.36 L3137.93 1846.28 L3163.30 1840.59 L3188.54 1834.40 L3213.91 1827.60 L3239.16 1819.92 L3264.53 1811.39 L3289.77 1801.86 L3315.14 1791.21 L3340.38 1779.33 L3365.75 1766.09 L3391.00 1751.24 L3416.37 1734.78 L3441.61 1716.22 L3466.98 1695.55 L3492.22 1672.29 L3517.59 1646.42 L3542.84 1617.34 L3568.21 1584.92 L3593.45 1548.53 L3618.82 1507.82 L3644.07 1462.28 L3669.43 1411.29 L3694.68 1354.36 L3720.05 1290.63 L3745.42 1219.35 L3770.66 1139.65 L3770.66 597.24 L3745.42 733.86 L3720.05 856.13 L3694.68 965.40 L3669.43 1063.05 L3644.07 1150.29 L3618.82 1228.26 L3593.45 1297.93 L3568.21 1360.18 L3542.84 1415.74 L3517.59 1465.37 L3492.22 1509.67 L3466.98 1549.40 L3441.61 1584.79 L3416.37 1616.47 L3391.00 1644.69 L3365.75 1670.06 L3340.38 1692.71 L3315.14 1712.88 L3289.77 1731.07 L3264.53 1747.28 L3239.16 1761.76 L3213.91 1774.75 L3188.54 1786.39 L3163.30 1796.78 L3137.93 1806.19 L3112.68 1814.60 L3087.32 1822.40 L3062.07 1829.33 L3036.70 1835.76 L3011.46 1841.71 L2986.09 1847.15 L2960.72 1852.10 L2935.47 1856.80 L2910.11 1861.13 L2884.86 1865.09 L2859.49 1868.81 L2834.25 1872.27 L2808.88 1875.37 L2783.63 1878.34 L2758.26 1881.06 L2733.02 1883.41 L2707.65 1885.64 L2682.41 1887.62 L2657.04 1889.47 L2631.79 1890.96 L2606.42 1892.32 L2581.18 1893.56 L2555.81 1894.67 L2530.56 1895.54 L2505.20 1896.40 L2479.95 1897.15 L2454.58 1897.77 L2429.34 1898.26 L2403.97 1898.76 L2378.72 1899.25 L2353.35 1899.50 L2328.11 1899.87 L2302.74 1900.12 L2277.49 1900.36 L2252.13 1900.61 L2226.88 1900.86 L2201.51 1900.98 L2201.51 1902.10 Z" stroke-linejoin="round"/>
	</defs>
	<defs>
		<clipPath id="clipPath_OgNGXCMI">
			<use xlink:href="#path_NfZigNwF"/>
		</clipPath>
	</defs>
	<use xlink:href="#path_NfZigNwF" style="stroke:none;fill:#E6E6E6"/>
	<use xlink:href="#path_NfZigNwF" style="fill:none;stroke:#E0E0E0;stroke-width:14.69" clip-path="url(#clipPath_OgNGXCMI)"/>
	<path d=" M2201.39 1901.97 L2226.76 1901.97 L2252.13 1901.85 L2277.37 1901.85 L2302.74 1901.73 L2327.99 1901.60 L2353.35 1901.48 L2378.60 1901.35 L2403.97 1901.11 L2429.21 1900.86 L2454.58 1900.61 L2479.83 1900.36 L2505.20 1899.99 L2530.44 1899.62 L2555.81 1899.25 L2581.05 1898.63 L2606.42 1898.14 L2631.67 1897.39 L2657.04 1896.65 L2682.28 1895.91 L2707.65 1894.92 L2732.89 1893.93 L2758.26 1892.82 L2783.51 1891.58 L2808.88 1890.22 L2834.12 1888.86 L2859.49 1887.25 L2884.74 1885.51 L2910.11 1883.66 L2935.35 1881.68 L2960.72 1879.57 L2986.09 1877.22 L3011.33 1874.75 L3036.70 1872.02 L3061.95 1869.05 L3087.32 1865.71 L3112.56 1862.12 L3137.93 1858.29 L3163.17 1853.83 L3188.54 1849.01 L3213.79 1843.69 L3239.16 1837.62 L3264.40 1830.94 L3289.77 1823.51 L3315.01 1815.22 L3340.38 1805.82 L3365.63 1795.42 L3391.00 1783.79 L3416.24 1770.79 L3441.61 1756.19 L3466.86 1739.98 L3492.22 1721.66 L3517.47 1701.37 L3542.84 1678.47 L3568.08 1652.98 L3593.45 1624.27 L3618.70 1592.34 L3644.07 1556.45 L3669.31 1516.36 L3694.68 1471.43 L3719.93 1421.19 L3745.29 1365.01 L3770.66 1302.14" stroke-linejoin="round" style="fill:none;stroke:#FF0000;stroke-width:7.34"/>
	<path d=" M2201.39 1902.10 L2226.76 1902.10 L2252.13 1901.97 L2277.37 1901.97 L2302.74 1901.85 L2327.99 1901.85 L2353.35 1901.73 L2378.60 1901.60 L2403.97 1901.48 L2429.21 1901.35 L2454.58 1901.11 L2479.83 1900.98 L2505.20 1900.74 L2530.44 1900.49 L2555.81 1900.12 L2581.05 1899.75 L2606.42 1899.37 L2631.67 1898.88 L2657.04 1898.38 L2682.28 1897.77 L2707.65 1897.15 L2732.89 1896.40 L2758.26 1895.66 L2783.51 1894.80 L2808.88 1893.81 L2834.12 1892.82 L2859.49 1891.70 L2884.74 1890.59 L2910.11 1889.23 L2935.35 1887.87 L2960.72 1886.38 L2986.09 1884.77 L3011.33 1883.04 L3036.70 1881.06 L3061.95 1878.95 L3087.32 1876.73 L3112.56 1874.13 L3137.93 1871.41 L3163.17 1868.31 L3188.54 1864.97 L3213.79 1861.13 L3239.16 1856.93 L3264.40 1852.35 L3289.77 1847.03 L3315.01 1841.21 L3340.38 1834.65 L3365.63 1827.35 L3391.00 1819.18 L3416.24 1810.02 L3441.61 1799.88 L3466.86 1788.49 L3492.22 1775.62 L3517.47 1761.39 L3542.84 1745.30 L3568.08 1727.48 L3593.45 1707.31 L3618.70 1684.91 L3644.07 1659.79 L3669.31 1631.57 L3694.68 1600.14 L3719.93 1564.87 L3745.29 1525.39 L3770.66 1481.33" stroke-linejoin="round" style="fill:none;stroke:#FFD200;stroke-width:7.34"/>
	<path d=" M2201.39 1901.97 L2226.76 1901.85 L2252.13 1901.73 L2277.37 1901.73 L2302.74 1901.60 L2327.99 1901.35 L2353.35 1901.23 L2378.60 1900.98 L2403.97 1900.86 L2429.21 1900.49 L2454.58 1900.24 L2479.83 1899.87 L2505.20 1899.50 L2530.44 1899.00 L2555.81 1898.38 L2581.05 1897.77 L2606.42 1897.02 L2631.67 1896.28 L2657.04 1895.29 L2682.28 1894.30 L2707.65 1893.19 L2732.89 1891.83 L2758.26 1890.46 L2783.51 1888.98 L2808.88 1887.25 L2834.12 1885.51 L2859.49 1883.53 L2884.74 1881.43 L2910.11 1879.08 L2935.35 1876.60 L2960.72 1874.00 L2986.09 1871.03 L3011.33 1867.94 L3036.70 1864.48 L3061.95 1860.76 L3087.32 1856.68 L3112.56 1852.22 L3137.93 1847.27 L3163.17 1841.83 L3188.54 1835.89 L3213.79 1829.08 L3239.16 1821.66 L3264.40 1813.24 L3289.77 1803.96 L3315.01 1793.56 L3340.38 1781.93 L3365.63 1768.94 L3391.00 1754.46 L3416.24 1738.25 L3441.61 1720.06 L3466.86 1699.76 L3492.22 1676.99 L3517.47 1651.50 L3542.84 1623.03 L3568.08 1591.10 L3593.45 1555.46 L3618.70 1515.49 L3644.07 1470.81 L3669.31 1420.82 L3694.68 1364.76 L3719.93 1302.14 L3745.29 1232.09 L3770.66 1153.76" stroke-linejoin="round" style="fill:none;stroke:#FF7F00;stroke-width:7.34"/>
	<path d=" M2201.39 1901.85 L2226.76 1901.73 L2252.13 1901.60 L2277.37 1901.48 L2302.74 1901.23 L2327.99 1901.11 L2353.35 1900.86 L2378.60 1900.61 L2403.97 1900.36 L2429.21 1899.99 L2454.58 1899.50 L2479.83 1899.00 L2505.20 1898.51 L2530.44 1897.89 L2555.81 1897.15 L2581.05 1896.28 L2606.42 1895.29 L2631.67 1894.18 L2657.04 1892.94 L2682.28 1891.58 L2707.65 1890.09 L2732.89 1888.36 L2758.26 1886.50 L2783.51 1884.40 L2808.88 1882.30 L2834.12 1879.82 L2859.49 1877.22 L2884.74 1874.38 L2910.11 1871.41 L2935.35 1868.06 L2960.72 1864.48 L2986.09 1860.64 L3011.33 1856.43 L3036.70 1851.85 L3061.95 1846.90 L3087.32 1841.46 L3112.56 1835.52 L3137.93 1828.96 L3163.17 1821.66 L3188.54 1813.61 L3213.79 1804.70 L3239.16 1794.80 L3264.40 1783.66 L3289.77 1771.17 L3315.01 1757.30 L3340.38 1741.84 L3365.63 1724.51 L3391.00 1705.20 L3416.24 1683.55 L3441.61 1659.29 L3466.86 1632.19 L3492.22 1601.87 L3517.47 1567.96 L3542.84 1529.97 L3568.08 1487.52 L3593.45 1440.00 L3618.70 1386.66 L3644.07 1327.14 L3669.31 1260.43 L3694.68 1185.81 L3719.93 1102.40 L3745.29 1008.97 L3770.66 904.64" stroke-linejoin="round" style="fill:none;stroke:#008000;stroke-width:7.34"/>
	<path d=" M2201.39 1902.22 L2226.76 1902.10 L2252.13 1902.10 L2277.37 1902.10 L2302.74 1901.97 L2327.99 1901.97 L2353.35 1901.85 L2378.60 1901.73 L2403.97 1901.73 L2429.21 1901.60 L2454.58 1901.48 L2479.83 1901.23 L2505.20 1901.11 L2530.44 1900.86 L2555.81 1900.61 L2581.05 1900.36 L2606.42 1900.12 L2631.67 1899.75 L2657.04 1899.37 L2682.28 1898.88 L2707.65 1898.38 L2732.89 1897.89 L2758.26 1897.27 L2783.51 1896.65 L2808.88 1895.91 L2834.12 1895.17 L2859.49 1894.30 L2884.74 1893.43 L2910.11 1892.44 L2935.35 1891.33 L2960.72 1890.22 L2986.09 1888.98 L3011.33 1887.62 L3036.70 1886.13 L3061.95 1884.65 L3087.32 1882.92 L3112.56 1880.94 L3137.93 1878.83 L3163.17 1876.48 L3188.54 1874.00 L3213.79 1871.03 L3239.16 1867.94 L3264.40 1864.35 L3289.77 1860.39 L3315.01 1855.94 L3340.38 1850.99 L3365.63 1845.42 L3391.00 1839.23 L3416.24 1832.30 L3441.61 1824.50 L3466.86 1815.84 L3492.22 1806.19 L3517.47 1795.30 L3542.84 1783.17 L3568.08 1769.56 L3593.45 1754.21 L3618.70 1737.26 L3644.07 1718.07 L3669.31 1696.67 L3694.68 1672.78 L3719.93 1646.05 L3745.29 1616.10 L3770.66 1582.56" stroke-linejoin="round" style="fill:none;stroke:#1A476F;stroke-width:7.34"/>
	<line x1="2201.39" y1="1839.23" x2="2204.24" y2="1839.23" style="stroke:#000000;stroke-width:7.34"/>
	<line x1="2224.41" y1="1839.23" x2="2226.76" y2="1839.23" style="stroke:#000000;stroke-width:7.34"/>
	<line x1="2226.76" y1="1839.23" x2="2227.25" y2="1839.23" style="stroke:#000000;stroke-width:7.34"/>
	<line x1="2247.42" y1="1839.23" x2="2250.27" y2="1839.23" style="stroke:#000000;stroke-width:7.34"/>
	<line x1="2270.44" y1="1839.23" x2="2273.29" y2="1839.23" style="stroke:#000000;stroke-width:7.34"/>
	<line x1="2293.46" y1="1839.23" x2="2296.43" y2="1839.23" style="stroke:#000000;stroke-width:7.34"/>
	<line x1="2316.60" y1="1839.23" x2="2319.45" y2="1839.23" style="stroke:#000000;stroke-width:7.34"/>
	<line x1="2339.62" y1="1839.23" x2="2342.46" y2="1839.23" style="stroke:#000000;stroke-width:7.34"/>
	<line x1="2362.64" y1="1839.23" x2="2365.48" y2="1839.23" style="stroke:#000000;stroke-width:7.34"/>
	<line x1="2385.65" y1="1839.23" x2="2388.50" y2="1839.23" style="stroke:#000000;stroke-width:7.34"/>
	<line x1="2408.67" y1="1839.23" x2="2411.52" y2="1839.23" style="stroke:#000000;stroke-width:7.34"/>
	<line x1="2431.69" y1="1839.23" x2="2434.53" y2="1839.23" style="stroke:#000000;stroke-width:7.34"/>
	<line x1="2454.70" y1="1839.23" x2="2457.55" y2="1839.23" style="stroke:#000000;stroke-width:7.34"/>
	<line x1="2477.72" y1="1839.23" x2="2479.83" y2="1839.23" style="stroke:#000000;stroke-width:7.34"/>
	<line x1="2479.83" y1="1839.23" x2="2480.57" y2="1839.23" style="stroke:#000000;stroke-width:7.34"/>
	<line x1="2500.74" y1="1839.23" x2="2503.59" y2="1839.23" style="stroke:#000000;stroke-width:7.34"/>
	<line x1="2523.76" y1="1839.23" x2="2526.60" y2="1839.23" style="stroke:#000000;stroke-width:7.34"/>
	<line x1="2546.78" y1="1839.23" x2="2549.74" y2="1839.23" style="stroke:#000000;stroke-width:7.34"/>
	<line x1="2569.92" y1="1839.23" x2="2572.76" y2="1839.23" style="stroke:#000000;stroke-width:7.34"/>
	<line x1="2592.93" y1="1839.23" x2="2595.78" y2="1839.23" style="stroke:#000000;stroke-width:7.34"/>
	<line x1="2615.95" y1="1839.23" x2="2618.80" y2="1839.23" style="stroke:#000000;stroke-width:7.34"/>
	<line x1="2638.97" y1="1839.23" x2="2641.82" y2="1839.23" style="stroke:#000000;stroke-width:7.34"/>
	<line x1="2661.99" y1="1839.23" x2="2664.83" y2="1839.23" style="stroke:#000000;stroke-width:7.34"/>
	<line x1="2685.00" y1="1839.23" x2="2687.85" y2="1839.23" style="stroke:#000000;stroke-width:7.34"/>
	<line x1="2708.02" y1="1839.23" x2="2710.87" y2="1839.23" style="stroke:#000000;stroke-width:7.34"/>
	<line x1="2731.04" y1="1839.23" x2="2732.89" y2="1839.23" style="stroke:#000000;stroke-width:7.34"/>
	<line x1="2732.89" y1="1839.23" x2="2733.89" y2="1839.23" style="stroke:#000000;stroke-width:7.34"/>
	<line x1="2754.06" y1="1839.23" x2="2756.90" y2="1839.23" style="stroke:#000000;stroke-width:7.34"/>
	<line x1="2777.07" y1="1839.23" x2="2779.92" y2="1839.23" style="stroke:#000000;stroke-width:7.34"/>
	<line x1="2800.09" y1="1839.23" x2="2803.06" y2="1839.23" style="stroke:#000000;stroke-width:7.34"/>
	<line x1="2823.23" y1="1839.23" x2="2826.08" y2="1839.23" style="stroke:#000000;stroke-width:7.34"/>
	<line x1="2846.25" y1="1839.23" x2="2849.10" y2="1839.23" style="stroke:#000000;stroke-width:7.34"/>
	<line x1="2869.27" y1="1839.23" x2="2872.11" y2="1839.23" style="stroke:#000000;stroke-width:7.34"/>
	<line x1="2892.28" y1="1839.23" x2="2895.13" y2="1839.23" style="stroke:#000000;stroke-width:7.34"/>
	<line x1="2915.30" y1="1839.23" x2="2918.15" y2="1839.23" style="stroke:#000000;stroke-width:7.34"/>
	<line x1="2938.32" y1="1839.23" x2="2941.17" y2="1839.23" style="stroke:#000000;stroke-width:7.34"/>
	<line x1="2961.34" y1="1839.23" x2="2964.18" y2="1839.23" style="stroke:#000000;stroke-width:7.34"/>
	<line x1="2984.36" y1="1839.23" x2="2986.09" y2="1839.23" style="stroke:#000000;stroke-width:7.34"/>
	<line x1="2986.09" y1="1839.23" x2="2987.20" y2="1839.23" style="stroke:#000000;stroke-width:7.34"/>
	<line x1="3007.37" y1="1839.23" x2="3010.22" y2="1839.23" style="stroke:#000000;stroke-width:7.34"/>
	<line x1="3030.39" y1="1839.23" x2="3033.36" y2="1839.23" style="stroke:#000000;stroke-width:7.34"/>
	<line x1="3053.41" y1="1839.23" x2="3056.38" y2="1839.23" style="stroke:#000000;stroke-width:7.34"/>
	<line x1="3076.55" y1="1839.23" x2="3079.39" y2="1839.23" style="stroke:#000000;stroke-width:7.34"/>
	<line x1="3099.57" y1="1839.23" x2="3102.41" y2="1839.23" style="stroke:#000000;stroke-width:7.34"/>
	<line x1="3122.58" y1="1839.23" x2="3125.43" y2="1839.23" style="stroke:#000000;stroke-width:7.34"/>
	<line x1="3145.60" y1="1839.23" x2="3148.45" y2="1839.23" style="stroke:#000000;stroke-width:7.34"/>
	<line x1="3168.62" y1="1839.23" x2="3171.47" y2="1839.23" style="stroke:#000000;stroke-width:7.34"/>
	<line x1="3191.64" y1="1839.23" x2="3194.48" y2="1839.23" style="stroke:#000000;stroke-width:7.34"/>
	<line x1="3214.65" y1="1839.23" x2="3217.50" y2="1839.23" style="stroke:#000000;stroke-width:7.34"/>
	<line x1="3237.67" y1="1839.23" x2="3239.16" y2="1839.23" style="stroke:#000000;stroke-width:7.34"/>
	<line x1="3239.16" y1="1839.23" x2="3240.52" y2="1839.23" style="stroke:#000000;stroke-width:7.34"/>
	<line x1="3260.69" y1="1839.23" x2="3263.53" y2="1839.23" style="stroke:#000000;stroke-width:7.34"/>
	<line x1="3283.71" y1="1839.23" x2="3286.68" y2="1839.23" style="stroke:#000000;stroke-width:7.34"/>
	<line x1="3306.72" y1="1839.23" x2="3309.69" y2="1839.23" style="stroke:#000000;stroke-width:7.34"/>
	<line x1="3329.86" y1="1839.23" x2="3332.71" y2="1839.23" style="stroke:#000000;stroke-width:7.34"/>
	<line x1="3352.88" y1="1839.23" x2="3355.73" y2="1839.23" style="stroke:#000000;stroke-width:7.34"/>
	<line x1="3375.90" y1="1839.23" x2="3378.75" y2="1839.23" style="stroke:#000000;stroke-width:7.34"/>
	<line x1="3398.92" y1="1839.23" x2="3401.76" y2="1839.23" style="stroke:#000000;stroke-width:7.34"/>
	<line x1="3421.93" y1="1839.23" x2="3424.78" y2="1839.23" style="stroke:#000000;stroke-width:7.34"/>
	<line x1="3444.95" y1="1839.23" x2="3447.80" y2="1839.23" style="stroke:#000000;stroke-width:7.34"/>
	<line x1="3467.97" y1="1839.23" x2="3470.82" y2="1839.23" style="stroke:#000000;stroke-width:7.34"/>
	<line x1="3490.99" y1="1839.23" x2="3492.22" y2="1839.23" style="stroke:#000000;stroke-width:7.34"/>
	<line x1="3492.22" y1="1839.23" x2="3493.83" y2="1839.23" style="stroke:#000000;stroke-width:7.34"/>
	<line x1="3514.01" y1="1839.23" x2="3516.85" y2="1839.23" style="stroke:#000000;stroke-width:7.34"/>
	<line x1="3537.02" y1="1839.23" x2="3539.99" y2="1839.23" style="stroke:#000000;stroke-width:7.34"/>
	<line x1="3560.04" y1="1839.23" x2="3563.01" y2="1839.23" style="stroke:#000000;stroke-width:7.34"/>
	<line x1="3583.18" y1="1839.23" x2="3586.03" y2="1839.23" style="stroke:#000000;stroke-width:7.34"/>
	<line x1="3606.20" y1="1839.23" x2="3609.05" y2="1839.23" style="stroke:#000000;stroke-width:7.34"/>
	<line x1="3629.22" y1="1839.23" x2="3632.06" y2="1839.23" style="stroke:#000000;stroke-width:7.34"/>
	<line x1="3652.23" y1="1839.23" x2="3655.08" y2="1839.23" style="stroke:#000000;stroke-width:7.34"/>
	<line x1="3675.25" y1="1839.23" x2="3678.10" y2="1839.23" style="stroke:#000000;stroke-width:7.34"/>
	<line x1="3698.27" y1="1839.23" x2="3701.11" y2="1839.23" style="stroke:#000000;stroke-width:7.34"/>
	<line x1="3721.29" y1="1839.23" x2="3724.13" y2="1839.23" style="stroke:#000000;stroke-width:7.34"/>
	<line x1="3744.30" y1="1839.23" x2="3745.29" y2="1839.23" style="stroke:#000000;stroke-width:7.34"/>
	<line x1="3745.29" y1="1839.23" x2="3747.15" y2="1839.23" style="stroke:#000000;stroke-width:7.34"/>
	<line x1="3767.32" y1="1839.23" x2="3770.17" y2="1839.23" style="stroke:#000000;stroke-width:7.34"/>
	<path d="" stroke-linejoin="round" style="fill:none;stroke:#000000;stroke-width:7.34"/>
	<line x1="401.69" y1="1956.18" x2="401.69" y2="258.27" style="stroke:#000000;stroke-width:4.90"/>
	<line x1="401.69" y1="1902.22" x2="367.66" y2="1902.22" style="stroke:#000000;stroke-width:4.90"/>
	<text x="350.71" y="1932.01" style="font-family:'Helvetica';font-size:85.02px;fill:#000000" text-anchor="end">0</text>
	<line x1="401.69" y1="1675.13" x2="367.66" y2="1675.13" style="stroke:#000000;stroke-width:4.90"/>
	<text x="350.71" y="1704.92" style="font-family:'Helvetica';font-size:85.02px;fill:#000000" text-anchor="end">.001</text>
	<line x1="401.69" y1="1447.92" x2="367.66" y2="1447.92" style="stroke:#000000;stroke-width:4.90"/>
	<text x="350.71" y="1477.71" style="font-family:'Helvetica';font-size:85.02px;fill:#000000" text-anchor="end">.002</text>
	<line x1="401.69" y1="1220.71" x2="367.66" y2="1220.71" style="stroke:#000000;stroke-width:4.90"/>
	<text x="350.71" y="1250.50" style="font-family:'Helvetica';font-size:85.02px;fill:#000000" text-anchor="end">.003</text>
	<line x1="401.69" y1="993.62" x2="367.66" y2="993.62" style="stroke:#000000;stroke-width:4.90"/>
	<text x="350.71" y="1023.41" style="font-family:'Helvetica';font-size:85.02px;fill:#000000" text-anchor="end">.004</text>
	<line x1="401.69" y1="766.41" x2="367.66" y2="766.41" style="stroke:#000000;stroke-width:4.90"/>
	<text x="350.71" y="796.20" style="font-family:'Helvetica';font-size:85.02px;fill:#000000" text-anchor="end">.005</text>
	<line x1="401.69" y1="539.32" x2="367.66" y2="539.32" style="stroke:#000000;stroke-width:4.90"/>
	<text x="350.71" y="569.11" style="font-family:'Helvetica';font-size:85.02px;fill:#000000" text-anchor="end">.006</text>
	<line x1="401.69" y1="312.11" x2="367.66" y2="312.11" style="stroke:#000000;stroke-width:4.90"/>
	<text x="350.71" y="341.89" style="font-family:'Helvetica';font-size:85.02px;fill:#000000" text-anchor="end">.007</text>
	<line x1="401.69" y1="1956.18" x2="2078.51" y2="1956.18" style="stroke:#000000;stroke-width:4.90"/>
	<line x1="506.14" y1="1956.18" x2="506.14" y2="1973.13" style="stroke:#000000;stroke-width:4.90"/>
	<line x1="632.73" y1="1956.18" x2="632.73" y2="1973.13" style="stroke:#000000;stroke-width:4.90"/>
	<line x1="759.21" y1="1956.18" x2="759.21" y2="1973.13" style="stroke:#000000;stroke-width:4.90"/>
	<line x1="885.80" y1="1956.18" x2="885.80" y2="1973.13" style="stroke:#000000;stroke-width:4.90"/>
	<line x1="1012.27" y1="1956.18" x2="1012.27" y2="1973.13" style="stroke:#000000;stroke-width:4.90"/>
	<line x1="1138.87" y1="1956.18" x2="1138.87" y2="1973.13" style="stroke:#000000;stroke-width:4.90"/>
	<line x1="1265.47" y1="1956.18" x2="1265.47" y2="1973.13" style="stroke:#000000;stroke-width:4.90"/>
	<line x1="1391.94" y1="1956.18" x2="1391.94" y2="1973.13" style="stroke:#000000;stroke-width:4.90"/>
	<line x1="1518.54" y1="1956.18" x2="1518.54" y2="1973.13" style="stroke:#000000;stroke-width:4.90"/>
	<line x1="1645.01" y1="1956.18" x2="1645.01" y2="1973.13" style="stroke:#000000;stroke-width:4.90"/>
	<line x1="1771.61" y1="1956.18" x2="1771.61" y2="1973.13" style="stroke:#000000;stroke-width:4.90"/>
	<line x1="1898.20" y1="1956.18" x2="1898.20" y2="1973.13" style="stroke:#000000;stroke-width:4.90"/>
	<line x1="2024.67" y1="1956.18" x2="2024.67" y2="1973.13" style="stroke:#000000;stroke-width:4.90"/>
	<line x1="506.14" y1="1956.18" x2="506.14" y2="1990.09" style="stroke:#000000;stroke-width:4.90"/>
	<text x="506.14" y="2066.62" style="font-family:'Helvetica';font-size:85.02px;fill:#000000" text-anchor="middle">20</text>
	<line x1="1012.27" y1="1956.18" x2="1012.27" y2="1990.09" style="stroke:#000000;stroke-width:4.90"/>
	<text x="1012.27" y="2066.62" style="font-family:'Helvetica';font-size:85.02px;fill:#000000" text-anchor="middle">40</text>
	<line x1="1518.54" y1="1956.18" x2="1518.54" y2="1990.09" style="stroke:#000000;stroke-width:4.90"/>
	<text x="1518.54" y="2066.62" style="font-family:'Helvetica';font-size:85.02px;fill:#000000" text-anchor="middle">60</text>
	<line x1="2024.67" y1="1956.18" x2="2024.67" y2="1990.09" style="stroke:#000000;stroke-width:4.90"/>
	<text x="2024.67" y="2066.62" style="font-family:'Helvetica';font-size:85.02px;fill:#000000" text-anchor="middle">80</text>
	<line x1="2147.68" y1="1956.18" x2="3824.49" y2="1956.18" style="stroke:#000000;stroke-width:4.90"/>
	<line x1="2252.13" y1="1956.18" x2="2252.13" y2="1973.13" style="stroke:#000000;stroke-width:4.90"/>
	<line x1="2378.72" y1="1956.18" x2="2378.72" y2="1973.13" style="stroke:#000000;stroke-width:4.90"/>
	<line x1="2505.20" y1="1956.18" x2="2505.20" y2="1973.13" style="stroke:#000000;stroke-width:4.90"/>
	<line x1="2631.79" y1="1956.18" x2="2631.79" y2="1973.13" style="stroke:#000000;stroke-width:4.90"/>
	<line x1="2758.26" y1="1956.18" x2="2758.26" y2="1973.13" style="stroke:#000000;stroke-width:4.90"/>
	<line x1="2884.86" y1="1956.18" x2="2884.86" y2="1973.13" style="stroke:#000000;stroke-width:4.90"/>
	<line x1="3011.46" y1="1956.18" x2="3011.46" y2="1973.13" style="stroke:#000000;stroke-width:4.90"/>
	<line x1="3137.93" y1="1956.18" x2="3137.93" y2="1973.13" style="stroke:#000000;stroke-width:4.90"/>
	<line x1="3264.53" y1="1956.18" x2="3264.53" y2="1973.13" style="stroke:#000000;stroke-width:4.90"/>
	<line x1="3391.00" y1="1956.18" x2="3391.00" y2="1973.13" style="stroke:#000000;stroke-width:4.90"/>
	<line x1="3517.59" y1="1956.18" x2="3517.59" y2="1973.13" style="stroke:#000000;stroke-width:4.90"/>
	<line x1="3644.07" y1="1956.18" x2="3644.07" y2="1973.13" style="stroke:#000000;stroke-width:4.90"/>
	<line x1="3770.66" y1="1956.18" x2="3770.66" y2="1973.13" style="stroke:#000000;stroke-width:4.90"/>
	<line x1="2252.13" y1="1956.18" x2="2252.13" y2="1990.09" style="stroke:#000000;stroke-width:4.90"/>
	<text x="2252.13" y="2066.62" style="font-family:'Helvetica';font-size:85.02px;fill:#000000" text-anchor="middle">20</text>
	<line x1="2758.26" y1="1956.18" x2="2758.26" y2="1990.09" style="stroke:#000000;stroke-width:4.90"/>
	<text x="2758.26" y="2066.62" style="font-family:'Helvetica';font-size:85.02px;fill:#000000" text-anchor="middle">40</text>
	<line x1="3264.53" y1="1956.18" x2="3264.53" y2="1990.09" style="stroke:#000000;stroke-width:4.90"/>
	<text x="3264.53" y="2066.62" style="font-family:'Helvetica';font-size:85.02px;fill:#000000" text-anchor="middle">60</text>
	<line x1="3770.66" y1="1956.18" x2="3770.66" y2="1990.09" style="stroke:#000000;stroke-width:4.90"/>
	<text x="3770.66" y="2066.62" style="font-family:'Helvetica';font-size:85.02px;fill:#000000" text-anchor="middle">80</text>
	<rect x="401.69" y="135.39" width="1676.81" height="122.89" style="fill:#D9E6EB"/>
	<rect x="404.14" y="137.83" width="1671.92" height="117.99" style="fill:none;stroke:#D9E6EB;stroke-width:4.90"/>
	<text x="1240.10" y="215.42" style="font-family:'Helvetica';font-size:93.56px;fill:#000000" text-anchor="middle">Female</text>
	<rect x="2147.68" y="135.39" width="1676.81" height="122.89" style="fill:#D9E6EB"/>
	<rect x="2150.13" y="137.83" width="1671.92" height="117.99" style="fill:none;stroke:#D9E6EB;stroke-width:4.90"/>
	<text x="2986.09" y="215.42" style="font-family:'Helvetica';font-size:93.56px;fill:#000000" text-anchor="middle">Male</text>
	<rect x="401.32" y="2278.31" width="3157.23" height="466.30" style="fill:#FFFFFF"/>
	<rect x="404.20" y="2281.19" width="3151.47" height="460.54" style="fill:none;stroke:#000000;stroke-width:5.76"/>
	<line x1="444.51" y1="2371.50" x2="818.98" y2="2371.50" style="stroke:#FF0000;stroke-width:8.64"/>
	<line x1="1952.28" y1="2371.50" x2="2326.62" y2="2371.50" style="stroke:#FFD200;stroke-width:8.64"/>
	<line x1="444.51" y1="2511.46" x2="818.98" y2="2511.46" style="stroke:#FF7F00;stroke-width:8.64"/>
	<line x1="1952.28" y1="2511.46" x2="2326.62" y2="2511.46" style="stroke:#008000;stroke-width:8.64"/>
	<line x1="444.51" y1="2651.43" x2="818.98" y2="2651.43" style="stroke:#1A476F;stroke-width:8.64"/>
	<text x="879.00" y="2406.52" style="font-family:'Helvetica';font-size:99.99px;fill:#000000">Liver disease</text>
	<text x="2386.64" y="2406.52" style="font-family:'Helvetica';font-size:99.99px;fill:#000000">Reduced kidney function</text>
	<text x="879.00" y="2546.49" style="font-family:'Helvetica';font-size:99.99px;fill:#000000">Poor kidney function</text>
	<text x="2386.64" y="2546.49" style="font-family:'Helvetica';font-size:99.99px;fill:#000000">Organ transplant</text>
	<text x="879.00" y="2686.46" style="font-family:'Helvetica';font-size:99.99px;fill:#000000">No comborbidity</text>
	<text x="1980.00" y="2213.60" style="font-family:'Helvetica';font-size:99.99px;fill:#000000" text-anchor="middle">Age (years)</text>
</svg>
