<?xml version="1.0" encoding="UTF-8" standalone="no"?>
<!-- This is a Stata 16.1 generated SVG file (http://www.stata.com) -->

<svg version="1.1" width="1600px" height="1164px" viewBox="0 0 3960 2880" xmlns="http://www.w3.org/2000/svg" xmlns:xlink="http://www.w3.org/1999/xlink">
	<desc>Stata Graph - Graph</desc>
	<rect x="0" y="0" width="3960" height="2880" style="fill:#EAF2F3;stroke:none"/>
	<rect x="0.00" y="0.00" width="3959.88" height="2880.00" style="fill:#EAF2F3"/>
	<rect x="2.88" y="2.88" width="3954.12" height="2874.24" style="fill:none;stroke:#EAF2F3;stroke-width:5.76"/>
	<rect x="401.69" y="402.82" width="1676.81" height="1693.32" style="fill:#FFFFFF"/>
	<rect x="404.14" y="405.27" width="1671.92" height="1688.43" style="fill:none;stroke:#FFFFFF;stroke-width:4.90"/>
	<line x1="401.69" y1="2042.31" x2="2078.51" y2="2042.31" style="stroke:#EAF2F3;stroke-width:7.34"/>
	<line x1="401.69" y1="1946.15" x2="2078.51" y2="1946.15" style="stroke:#EAF2F3;stroke-width:7.34"/>
	<line x1="401.69" y1="1849.87" x2="2078.51" y2="1849.87" style="stroke:#EAF2F3;stroke-width:7.34"/>
	<line x1="401.69" y1="1753.72" x2="2078.51" y2="1753.72" style="stroke:#EAF2F3;stroke-width:7.34"/>
	<line x1="401.69" y1="1657.56" x2="2078.51" y2="1657.56" style="stroke:#EAF2F3;stroke-width:7.34"/>
	<line x1="401.69" y1="1561.40" x2="2078.51" y2="1561.40" style="stroke:#EAF2F3;stroke-width:7.34"/>
	<line x1="401.69" y1="1465.25" x2="2078.51" y2="1465.25" style="stroke:#EAF2F3;stroke-width:7.34"/>
	<line x1="401.69" y1="1369.09" x2="2078.51" y2="1369.09" style="stroke:#EAF2F3;stroke-width:7.34"/>
	<line x1="401.69" y1="1272.93" x2="2078.51" y2="1272.93" style="stroke:#EAF2F3;stroke-width:7.34"/>
	<line x1="401.69" y1="1176.65" x2="2078.51" y2="1176.65" style="stroke:#EAF2F3;stroke-width:7.34"/>
	<rect x="2147.68" y="402.82" width="1676.81" height="1693.32" style="fill:#FFFFFF"/>
	<rect x="2150.13" y="405.27" width="1671.92" height="1688.43" style="fill:none;stroke:#FFFFFF;stroke-width:4.90"/>
	<line x1="2147.68" y1="2042.31" x2="3824.49" y2="2042.31" style="stroke:#EAF2F3;stroke-width:7.34"/>
	<line x1="2147.68" y1="1946.15" x2="3824.49" y2="1946.15" style="stroke:#EAF2F3;stroke-width:7.34"/>
	<line x1="2147.68" y1="1849.87" x2="3824.49" y2="1849.87" style="stroke:#EAF2F3;stroke-width:7.34"/>
	<line x1="2147.68" y1="1753.72" x2="3824.49" y2="1753.72" style="stroke:#EAF2F3;stroke-width:7.34"/>
	<line x1="2147.68" y1="1657.56" x2="3824.49" y2="1657.56" style="stroke:#EAF2F3;stroke-width:7.34"/>
	<line x1="2147.68" y1="1561.40" x2="3824.49" y2="1561.40" style="stroke:#EAF2F3;stroke-width:7.34"/>
	<line x1="2147.68" y1="1465.25" x2="3824.49" y2="1465.25" style="stroke:#EAF2F3;stroke-width:7.34"/>
	<line x1="2147.68" y1="1369.09" x2="3824.49" y2="1369.09" style="stroke:#EAF2F3;stroke-width:7.34"/>
	<line x1="2147.68" y1="1272.93" x2="3824.49" y2="1272.93" style="stroke:#EAF2F3;stroke-width:7.34"/>
	<line x1="2147.68" y1="1176.65" x2="3824.49" y2="1176.65" style="stroke:#EAF2F3;stroke-width:7.34"/>
	<defs>
		<path id="path_ZJhPOFtR" d="M455.52 2032.78 L455.52 2032.78 L480.89 2031.91 L506.14 2030.80 L531.51 2029.69 L556.75 2028.57 L582.12 2027.21 L607.37 2025.73 L632.73 2024.24 L657.98 2022.51 L683.35 2020.78 L708.59 2018.80 L733.96 2016.82 L759.21 2014.71 L784.58 2012.49 L809.82 2010.13 L835.19 2007.78 L860.43 2005.43 L885.80 2002.96 L911.05 2000.48 L936.42 1998.13 L961.66 1995.65 L987.03 1993.43 L1012.27 1991.20 L1037.64 1989.22 L1062.89 1987.24 L1088.26 1985.51 L1113.50 1983.90 L1138.87 1982.54 L1164.24 1981.18 L1189.48 1979.81 L1214.85 1978.70 L1240.10 1977.46 L1265.47 1976.35 L1290.71 1975.24 L1316.08 1974.12 L1341.33 1972.88 L1366.69 1971.65 L1391.94 1970.16 L1417.31 1968.55 L1442.55 1966.70 L1467.92 1964.59 L1493.17 1962.24 L1518.54 1959.52 L1543.78 1956.55 L1569.15 1953.21 L1594.39 1949.62 L1619.76 1945.53 L1645.01 1941.08 L1670.38 1936.25 L1695.62 1931.06 L1720.99 1925.24 L1746.24 1918.93 L1771.61 1912.12 L1796.85 1904.82 L1822.22 1896.78 L1847.46 1888.24 L1872.83 1878.95 L1898.20 1868.93 L1923.45 1858.04 L1948.82 1846.53 L1974.06 1834.03 L1999.43 1820.79 L2024.67 1806.56 L2024.67 1758.17 L1999.43 1775.37 L1974.06 1791.46 L1948.82 1806.44 L1923.45 1820.42 L1898.20 1833.41 L1872.83 1845.54 L1847.46 1856.68 L1822.22 1867.07 L1796.85 1876.73 L1771.61 1885.51 L1746.24 1893.81 L1720.99 1901.35 L1695.62 1908.28 L1670.38 1914.60 L1645.01 1920.54 L1619.76 1925.86 L1594.39 1930.81 L1569.15 1935.14 L1543.78 1939.22 L1518.54 1942.81 L1493.17 1946.15 L1467.92 1949.00 L1442.55 1951.60 L1417.31 1953.83 L1391.94 1955.81 L1366.69 1957.54 L1341.33 1959.15 L1316.08 1960.51 L1290.71 1961.87 L1265.47 1963.23 L1240.10 1964.59 L1214.85 1965.83 L1189.48 1967.19 L1164.24 1968.68 L1138.87 1970.29 L1113.50 1972.02 L1088.26 1974.00 L1062.89 1975.98 L1037.64 1978.33 L1012.27 1980.68 L987.03 1983.40 L961.66 1986.13 L936.42 1988.97 L911.05 1991.94 L885.80 1994.91 L860.43 1997.76 L835.19 2000.61 L809.82 2003.33 L784.58 2006.05 L759.21 2008.53 L733.96 2011.00 L708.59 2013.23 L683.35 2015.46 L657.98 2017.44 L632.73 2019.29 L607.37 2021.02 L582.12 2022.76 L556.75 2024.24 L531.51 2025.60 L506.14 2026.84 L480.89 2028.08 L455.52 2029.19 L455.52 2032.78 Z" stroke-linejoin="round"/>
	</defs>
	<defs>
		<clipPath id="clipPath_KbfYMOaj">
			<use xlink:href="#path_ZJhPOFtR"/>
		</clipPath>
	</defs>
	<use xlink:href="#path_ZJhPOFtR" style="stroke:none;fill:#E6E6E6"/>
	<use xlink:href="#path_ZJhPOFtR" style="fill:none;stroke:#E0E0E0;stroke-width:14.69" clip-path="url(#clipPath_KbfYMOaj)"/>
	<defs>
		<path id="path_Kfntwhfk" d="M455.52 2021.77 L455.52 2021.77 L480.89 2019.79 L506.14 2017.68 L531.51 2015.21 L556.75 2012.61 L582.12 2009.76 L607.37 2006.67 L632.73 2003.33 L657.98 1999.74 L683.35 1995.90 L708.59 1991.82 L733.96 1987.49 L759.21 1982.91 L784.58 1978.08 L809.82 1973.13 L835.19 1968.06 L860.43 1962.86 L885.80 1957.66 L911.05 1952.34 L936.42 1947.14 L961.66 1941.95 L987.03 1937.00 L1012.27 1932.29 L1037.64 1927.84 L1062.89 1923.75 L1088.26 1920.04 L1113.50 1916.58 L1138.87 1913.36 L1164.24 1910.39 L1189.48 1907.54 L1214.85 1904.94 L1240.10 1902.47 L1265.47 1899.99 L1290.71 1897.52 L1316.08 1895.04 L1341.33 1892.32 L1366.69 1889.47 L1391.94 1886.38 L1417.31 1882.79 L1442.55 1878.83 L1467.92 1874.25 L1493.17 1869.05 L1518.54 1863.24 L1543.78 1856.68 L1569.15 1849.50 L1594.39 1841.46 L1619.76 1832.79 L1645.01 1823.14 L1670.38 1812.62 L1695.62 1801.11 L1720.99 1788.49 L1746.24 1775.00 L1771.61 1760.15 L1796.85 1744.19 L1822.22 1726.86 L1847.46 1708.17 L1872.83 1687.88 L1898.20 1666.22 L1923.45 1642.71 L1948.82 1617.59 L1974.06 1590.61 L1999.43 1561.77 L2024.67 1530.84 L2024.67 1429.23 L1999.43 1466.36 L1974.06 1500.89 L1948.82 1533.19 L1923.45 1563.38 L1898.20 1591.35 L1872.83 1617.34 L1847.46 1641.47 L1822.22 1663.75 L1796.85 1684.41 L1771.61 1703.60 L1746.24 1721.17 L1720.99 1737.50 L1695.62 1752.35 L1670.38 1766.22 L1645.01 1778.84 L1619.76 1790.35 L1594.39 1800.87 L1569.15 1810.40 L1543.78 1819.06 L1518.54 1826.98 L1493.17 1833.91 L1467.92 1840.22 L1442.55 1845.67 L1417.31 1850.49 L1391.94 1854.70 L1366.69 1858.41 L1341.33 1861.75 L1316.08 1864.85 L1290.71 1867.82 L1265.47 1870.54 L1240.10 1873.39 L1214.85 1876.11 L1189.48 1879.08 L1164.24 1882.30 L1138.87 1885.76 L1113.50 1889.47 L1088.26 1893.56 L1062.89 1898.01 L1037.64 1902.96 L1012.27 1908.28 L987.03 1913.98 L961.66 1920.04 L936.42 1926.23 L911.05 1932.54 L885.80 1938.85 L860.43 1945.16 L835.19 1951.35 L809.82 1957.41 L784.58 1963.23 L759.21 1968.80 L733.96 1974.12 L708.59 1979.07 L683.35 1983.77 L657.98 1988.23 L632.73 1992.31 L607.37 1996.15 L582.12 1999.61 L556.75 2002.96 L531.51 2005.93 L506.14 2008.77 L480.89 2011.37 L455.52 2013.72 L455.52 2021.77 Z" stroke-linejoin="round"/>
	</defs>
	<defs>
		<clipPath id="clipPath_oUqYYULE">
			<use xlink:href="#path_Kfntwhfk"/>
		</clipPath>
	</defs>
	<use xlink:href="#path_Kfntwhfk" style="stroke:none;fill:#E6E6E6"/>
	<use xlink:href="#path_Kfntwhfk" style="fill:none;stroke:#E0E0E0;stroke-width:14.69" clip-path="url(#clipPath_oUqYYULE)"/>
	<defs>
		<path id="path_pqVNluoz" d="M455.52 2004.19 L455.52 2004.19 L480.89 2000.48 L506.14 1996.40 L531.51 1991.94 L556.75 1987.12 L582.12 1981.79 L607.37 1976.10 L632.73 1969.91 L657.98 1963.23 L683.35 1956.05 L708.59 1948.38 L733.96 1940.34 L759.21 1931.92 L784.58 1923.01 L809.82 1913.85 L835.19 1904.45 L860.43 1894.67 L885.80 1885.02 L911.05 1875.12 L936.42 1865.47 L961.66 1855.94 L987.03 1846.78 L1012.27 1837.99 L1037.64 1829.82 L1062.89 1822.28 L1088.26 1815.22 L1113.50 1808.79 L1138.87 1802.85 L1164.24 1797.28 L1189.48 1792.20 L1214.85 1787.25 L1240.10 1782.67 L1265.47 1778.10 L1290.71 1773.52 L1316.08 1768.81 L1341.33 1763.86 L1366.69 1758.54 L1391.94 1752.73 L1417.31 1746.17 L1442.55 1738.74 L1467.92 1730.20 L1493.17 1720.55 L1518.54 1709.66 L1543.78 1697.53 L1569.15 1684.17 L1594.39 1669.32 L1619.76 1652.98 L1645.01 1635.04 L1670.38 1615.36 L1695.62 1593.95 L1720.99 1570.68 L1746.24 1545.31 L1771.61 1517.84 L1796.85 1488.02 L1822.22 1455.84 L1847.46 1420.94 L1872.83 1383.44 L1898.20 1342.85 L1923.45 1299.29 L1948.82 1252.51 L1974.06 1202.27 L1999.43 1148.56 L2024.67 1091.01 L2024.67 904.15 L1999.43 972.71 L1974.06 1036.69 L1948.82 1096.34 L1923.45 1152.02 L1898.20 1203.75 L1872.83 1251.89 L1847.46 1296.57 L1822.22 1337.90 L1796.85 1376.27 L1771.61 1411.66 L1746.24 1444.46 L1720.99 1474.53 L1695.62 1502.37 L1670.38 1527.87 L1645.01 1551.25 L1619.76 1572.66 L1594.39 1592.22 L1569.15 1610.04 L1543.78 1626.13 L1518.54 1640.73 L1493.17 1653.72 L1467.92 1665.36 L1442.55 1675.63 L1417.31 1684.54 L1391.94 1692.33 L1366.69 1699.26 L1341.33 1705.58 L1316.08 1711.27 L1290.71 1716.59 L1265.47 1721.79 L1240.10 1726.99 L1214.85 1732.31 L1189.48 1737.88 L1164.24 1743.69 L1138.87 1750.13 L1113.50 1757.06 L1088.26 1764.73 L1062.89 1773.15 L1037.64 1782.18 L1012.27 1792.20 L987.03 1802.85 L961.66 1814.11 L936.42 1825.74 L911.05 1837.50 L885.80 1849.38 L860.43 1861.13 L835.19 1872.77 L809.82 1884.03 L784.58 1894.80 L759.21 1905.19 L733.96 1915.09 L708.59 1924.37 L683.35 1933.16 L657.98 1941.33 L632.73 1949.12 L607.37 1956.18 L582.12 1962.86 L556.75 1968.92 L531.51 1974.62 L506.14 1979.81 L480.89 1984.64 L455.52 1988.97 L455.52 2004.19 Z" stroke-linejoin="round"/>
	</defs>
	<defs>
		<clipPath id="clipPath_EPhVWjCS">
			<use xlink:href="#path_pqVNluoz"/>
		</clipPath>
	</defs>
	<use xlink:href="#path_pqVNluoz" style="stroke:none;fill:#E6E6E6"/>
	<use xlink:href="#path_pqVNluoz" style="fill:none;stroke:#E0E0E0;stroke-width:14.69" clip-path="url(#clipPath_EPhVWjCS)"/>
	<line x1="455.52" y1="1985.26" x2="458.37" y2="1985.26" style="stroke:#A0A0A0;stroke-width:7.34"/>
	<line x1="478.54" y1="1985.26" x2="480.77" y2="1985.26" style="stroke:#A0A0A0;stroke-width:7.34"/>
	<line x1="480.77" y1="1985.26" x2="481.39" y2="1985.26" style="stroke:#A0A0A0;stroke-width:7.34"/>
	<line x1="501.56" y1="1985.26" x2="504.40" y2="1985.26" style="stroke:#A0A0A0;stroke-width:7.34"/>
	<line x1="524.58" y1="1985.26" x2="527.42" y2="1985.26" style="stroke:#A0A0A0;stroke-width:7.34"/>
	<line x1="547.59" y1="1985.26" x2="550.44" y2="1985.26" style="stroke:#A0A0A0;stroke-width:7.34"/>
	<line x1="570.61" y1="1985.26" x2="573.58" y2="1985.26" style="stroke:#A0A0A0;stroke-width:7.34"/>
	<line x1="593.75" y1="1985.26" x2="596.60" y2="1985.26" style="stroke:#A0A0A0;stroke-width:7.34"/>
	<line x1="616.77" y1="1985.26" x2="619.62" y2="1985.26" style="stroke:#A0A0A0;stroke-width:7.34"/>
	<line x1="639.79" y1="1985.26" x2="642.63" y2="1985.26" style="stroke:#A0A0A0;stroke-width:7.34"/>
	<line x1="662.80" y1="1985.26" x2="665.65" y2="1985.26" style="stroke:#A0A0A0;stroke-width:7.34"/>
	<line x1="685.82" y1="1985.26" x2="688.67" y2="1985.26" style="stroke:#A0A0A0;stroke-width:7.34"/>
	<line x1="708.84" y1="1985.26" x2="711.69" y2="1985.26" style="stroke:#A0A0A0;stroke-width:7.34"/>
	<line x1="731.86" y1="1985.26" x2="733.84" y2="1985.26" style="stroke:#A0A0A0;stroke-width:7.34"/>
	<line x1="733.84" y1="1985.26" x2="734.70" y2="1985.26" style="stroke:#A0A0A0;stroke-width:7.34"/>
	<line x1="754.88" y1="1985.26" x2="757.72" y2="1985.26" style="stroke:#A0A0A0;stroke-width:7.34"/>
	<line x1="777.89" y1="1985.26" x2="780.74" y2="1985.26" style="stroke:#A0A0A0;stroke-width:7.34"/>
	<line x1="800.91" y1="1985.26" x2="803.88" y2="1985.26" style="stroke:#A0A0A0;stroke-width:7.34"/>
	<line x1="823.93" y1="1985.26" x2="826.90" y2="1985.26" style="stroke:#A0A0A0;stroke-width:7.34"/>
	<line x1="847.07" y1="1985.26" x2="849.91" y2="1985.26" style="stroke:#A0A0A0;stroke-width:7.34"/>
	<line x1="870.09" y1="1985.26" x2="872.93" y2="1985.26" style="stroke:#A0A0A0;stroke-width:7.34"/>
	<line x1="893.10" y1="1985.26" x2="895.95" y2="1985.26" style="stroke:#A0A0A0;stroke-width:7.34"/>
	<line x1="916.12" y1="1985.26" x2="918.97" y2="1985.26" style="stroke:#A0A0A0;stroke-width:7.34"/>
	<line x1="939.14" y1="1985.26" x2="941.99" y2="1985.26" style="stroke:#A0A0A0;stroke-width:7.34"/>
	<line x1="962.16" y1="1985.26" x2="965.00" y2="1985.26" style="stroke:#A0A0A0;stroke-width:7.34"/>
	<line x1="985.17" y1="1985.26" x2="986.91" y2="1985.26" style="stroke:#A0A0A0;stroke-width:7.34"/>
	<line x1="986.91" y1="1985.26" x2="988.02" y2="1985.26" style="stroke:#A0A0A0;stroke-width:7.34"/>
	<line x1="1008.19" y1="1985.26" x2="1011.04" y2="1985.26" style="stroke:#A0A0A0;stroke-width:7.34"/>
	<line x1="1031.21" y1="1985.26" x2="1034.06" y2="1985.26" style="stroke:#A0A0A0;stroke-width:7.34"/>
	<line x1="1054.23" y1="1985.26" x2="1057.20" y2="1985.26" style="stroke:#A0A0A0;stroke-width:7.34"/>
	<line x1="1077.24" y1="1985.26" x2="1080.21" y2="1985.26" style="stroke:#A0A0A0;stroke-width:7.34"/>
	<line x1="1100.38" y1="1985.26" x2="1103.23" y2="1985.26" style="stroke:#A0A0A0;stroke-width:7.34"/>
	<line x1="1123.40" y1="1985.26" x2="1126.25" y2="1985.26" style="stroke:#A0A0A0;stroke-width:7.34"/>
	<line x1="1146.42" y1="1985.26" x2="1149.27" y2="1985.26" style="stroke:#A0A0A0;stroke-width:7.34"/>
	<line x1="1169.44" y1="1985.26" x2="1172.28" y2="1985.26" style="stroke:#A0A0A0;stroke-width:7.34"/>
	<line x1="1192.45" y1="1985.26" x2="1195.30" y2="1985.26" style="stroke:#A0A0A0;stroke-width:7.34"/>
	<line x1="1215.47" y1="1985.26" x2="1218.32" y2="1985.26" style="stroke:#A0A0A0;stroke-width:7.34"/>
	<line x1="1238.49" y1="1985.26" x2="1240.10" y2="1985.26" style="stroke:#A0A0A0;stroke-width:7.34"/>
	<line x1="1240.10" y1="1985.26" x2="1241.34" y2="1985.26" style="stroke:#A0A0A0;stroke-width:7.34"/>
	<line x1="1261.51" y1="1985.26" x2="1264.35" y2="1985.26" style="stroke:#A0A0A0;stroke-width:7.34"/>
	<line x1="1284.53" y1="1985.26" x2="1287.37" y2="1985.26" style="stroke:#A0A0A0;stroke-width:7.34"/>
	<line x1="1307.54" y1="1985.26" x2="1310.51" y2="1985.26" style="stroke:#A0A0A0;stroke-width:7.34"/>
	<line x1="1330.56" y1="1985.26" x2="1333.53" y2="1985.26" style="stroke:#A0A0A0;stroke-width:7.34"/>
	<line x1="1353.70" y1="1985.26" x2="1356.55" y2="1985.26" style="stroke:#A0A0A0;stroke-width:7.34"/>
	<line x1="1376.72" y1="1985.26" x2="1379.57" y2="1985.26" style="stroke:#A0A0A0;stroke-width:7.34"/>
	<line x1="1399.74" y1="1985.26" x2="1402.58" y2="1985.26" style="stroke:#A0A0A0;stroke-width:7.34"/>
	<line x1="1422.75" y1="1985.26" x2="1425.60" y2="1985.26" style="stroke:#A0A0A0;stroke-width:7.34"/>
	<line x1="1445.77" y1="1985.26" x2="1448.62" y2="1985.26" style="stroke:#A0A0A0;stroke-width:7.34"/>
	<line x1="1468.79" y1="1985.26" x2="1471.63" y2="1985.26" style="stroke:#A0A0A0;stroke-width:7.34"/>
	<line x1="1491.81" y1="1985.26" x2="1493.17" y2="1985.26" style="stroke:#A0A0A0;stroke-width:7.34"/>
	<line x1="1493.17" y1="1985.26" x2="1494.65" y2="1985.26" style="stroke:#A0A0A0;stroke-width:7.34"/>
	<line x1="1514.82" y1="1985.26" x2="1517.67" y2="1985.26" style="stroke:#A0A0A0;stroke-width:7.34"/>
	<line x1="1537.84" y1="1985.26" x2="1540.69" y2="1985.26" style="stroke:#A0A0A0;stroke-width:7.34"/>
	<line x1="1560.86" y1="1985.26" x2="1563.83" y2="1985.26" style="stroke:#A0A0A0;stroke-width:7.34"/>
	<line x1="1584.00" y1="1985.26" x2="1586.85" y2="1985.26" style="stroke:#A0A0A0;stroke-width:7.34"/>
	<line x1="1607.02" y1="1985.26" x2="1609.86" y2="1985.26" style="stroke:#A0A0A0;stroke-width:7.34"/>
	<line x1="1630.04" y1="1985.26" x2="1632.88" y2="1985.26" style="stroke:#A0A0A0;stroke-width:7.34"/>
	<line x1="1653.05" y1="1985.26" x2="1655.90" y2="1985.26" style="stroke:#A0A0A0;stroke-width:7.34"/>
	<line x1="1676.07" y1="1985.26" x2="1678.92" y2="1985.26" style="stroke:#A0A0A0;stroke-width:7.34"/>
	<line x1="1699.09" y1="1985.26" x2="1701.93" y2="1985.26" style="stroke:#A0A0A0;stroke-width:7.34"/>
	<line x1="1722.11" y1="1985.26" x2="1724.95" y2="1985.26" style="stroke:#A0A0A0;stroke-width:7.34"/>
	<line x1="1745.12" y1="1985.26" x2="1746.24" y2="1985.26" style="stroke:#A0A0A0;stroke-width:7.34"/>
	<line x1="1746.24" y1="1985.26" x2="1747.97" y2="1985.26" style="stroke:#A0A0A0;stroke-width:7.34"/>
	<line x1="1768.14" y1="1985.26" x2="1770.99" y2="1985.26" style="stroke:#A0A0A0;stroke-width:7.34"/>
	<line x1="1791.16" y1="1985.26" x2="1794.00" y2="1985.26" style="stroke:#A0A0A0;stroke-width:7.34"/>
	<line x1="1814.17" y1="1985.26" x2="1817.14" y2="1985.26" style="stroke:#A0A0A0;stroke-width:7.34"/>
	<line x1="1837.32" y1="1985.26" x2="1840.16" y2="1985.26" style="stroke:#A0A0A0;stroke-width:7.34"/>
	<line x1="1860.33" y1="1985.26" x2="1863.18" y2="1985.26" style="stroke:#A0A0A0;stroke-width:7.34"/>
	<line x1="1883.35" y1="1985.26" x2="1886.20" y2="1985.26" style="stroke:#A0A0A0;stroke-width:7.34"/>
	<line x1="1906.37" y1="1985.26" x2="1909.21" y2="1985.26" style="stroke:#A0A0A0;stroke-width:7.34"/>
	<line x1="1929.39" y1="1985.26" x2="1932.23" y2="1985.26" style="stroke:#A0A0A0;stroke-width:7.34"/>
	<line x1="1952.40" y1="1985.26" x2="1955.25" y2="1985.26" style="stroke:#A0A0A0;stroke-width:7.34"/>
	<line x1="1975.42" y1="1985.26" x2="1978.27" y2="1985.26" style="stroke:#A0A0A0;stroke-width:7.34"/>
	<line x1="1998.44" y1="1985.26" x2="1999.31" y2="1985.26" style="stroke:#A0A0A0;stroke-width:7.34"/>
	<line x1="1999.31" y1="1985.26" x2="2001.29" y2="1985.26" style="stroke:#A0A0A0;stroke-width:7.34"/>
	<line x1="2021.46" y1="1985.26" x2="2024.30" y2="1985.26" style="stroke:#A0A0A0;stroke-width:7.34"/>
	<path d="" stroke-linejoin="round" style="fill:none;stroke:#A0A0A0;stroke-width:7.34"/>
	<path d=" M455.52 2018.18 L480.77 2015.95 L506.14 2013.60 L531.38 2011.00 L556.75 2008.15 L582.00 2005.18 L607.37 2001.84 L632.61 1998.25 L657.98 1994.42 L683.22 1990.21 L708.59 1985.88 L733.84 1981.18 L759.21 1976.23 L784.45 1971.15 L809.82 1965.71 L835.07 1960.26 L860.43 1954.57 L885.68 1948.75 L911.05 1942.94 L936.29 1937.24 L961.66 1931.55 L986.91 1926.11 L1012.27 1920.91 L1037.52 1916.08 L1062.89 1911.63 L1088.13 1907.54 L1113.50 1903.71 L1138.87 1900.24 L1164.12 1897.02 L1189.48 1894.05 L1214.73 1891.33 L1240.10 1888.61 L1265.34 1886.01 L1290.71 1883.41 L1315.96 1880.69 L1341.33 1877.84 L1366.57 1874.75 L1391.94 1871.28 L1417.18 1867.45 L1442.55 1863.11 L1467.80 1858.04 L1493.17 1852.35 L1518.41 1846.04 L1543.78 1838.86 L1569.03 1830.94 L1594.39 1822.15 L1619.64 1812.62 L1645.01 1801.98 L1670.25 1790.47 L1695.62 1777.97 L1720.87 1764.24 L1746.24 1749.38 L1771.48 1733.17 L1796.85 1715.72 L1822.10 1696.79 L1847.46 1676.37 L1872.71 1654.22 L1898.08 1630.46 L1923.45 1604.84 L1948.69 1577.37 L1974.06 1547.91 L1999.31 1516.23 L2024.67 1482.32" stroke-linejoin="round" style="fill:none;stroke:#008000;stroke-width:7.34"/>
	<path d=" M455.52 1997.26 L480.77 1993.30 L506.14 1988.85 L531.38 1984.02 L556.75 1978.70 L582.00 1973.01 L607.37 1966.82 L632.61 1960.14 L657.98 1952.96 L683.22 1945.29 L708.59 1937.12 L733.84 1928.46 L759.21 1919.30 L784.45 1909.77 L809.82 1899.75 L835.07 1889.47 L860.43 1878.83 L885.68 1868.19 L911.05 1857.42 L936.29 1846.66 L961.66 1836.14 L986.91 1825.99 L1012.27 1816.34 L1037.52 1807.30 L1062.89 1799.01 L1088.13 1791.34 L1113.50 1784.28 L1138.87 1777.85 L1164.12 1771.91 L1189.48 1766.34 L1214.73 1761.14 L1240.10 1756.19 L1265.34 1751.36 L1290.71 1746.54 L1315.96 1741.46 L1341.33 1736.14 L1366.57 1730.45 L1391.94 1724.02 L1417.18 1716.84 L1442.55 1708.67 L1467.80 1699.39 L1493.17 1688.75 L1518.41 1676.86 L1543.78 1663.62 L1569.03 1648.90 L1594.39 1632.68 L1619.64 1614.74 L1645.01 1595.19 L1670.25 1573.78 L1695.62 1550.39 L1720.87 1524.90 L1746.24 1497.30 L1771.48 1467.23 L1796.85 1434.80 L1822.10 1399.66 L1847.46 1361.66 L1872.71 1320.70 L1898.08 1276.52 L1923.45 1229.00 L1948.69 1178.01 L1974.06 1123.19 L1999.31 1064.53 L2024.67 1001.79" stroke-linejoin="round" style="fill:none;stroke:#FF7F00;stroke-width:7.34"/>
	<path d=" M455.52 2031.17 L480.77 2030.18 L506.14 2029.07 L531.38 2027.83 L556.75 2026.59 L582.00 2025.11 L607.37 2023.62 L632.61 2022.01 L657.98 2020.16 L683.22 2018.30 L708.59 2016.32 L733.84 2014.09 L759.21 2011.87 L784.45 2009.52 L809.82 2007.04 L835.07 2004.44 L860.43 2001.84 L885.68 1999.12 L911.05 1996.52 L936.29 1993.80 L961.66 1991.20 L986.91 1988.72 L1012.27 1986.25 L1037.52 1984.02 L1062.89 1982.04 L1088.13 1980.06 L1113.50 1978.33 L1138.87 1976.72 L1164.12 1975.24 L1189.48 1973.87 L1214.73 1972.64 L1240.10 1971.40 L1265.34 1970.16 L1290.71 1968.92 L1315.96 1967.69 L1341.33 1966.45 L1366.57 1964.96 L1391.94 1963.36 L1417.18 1961.62 L1442.55 1959.52 L1467.80 1957.29 L1493.17 1954.57 L1518.41 1951.72 L1543.78 1948.38 L1569.03 1944.67 L1594.39 1940.71 L1619.64 1936.25 L1645.01 1931.30 L1670.25 1925.98 L1695.62 1920.17 L1720.87 1913.85 L1746.24 1907.05 L1771.48 1899.50 L1796.85 1891.45 L1822.10 1882.67 L1847.46 1873.26 L1872.71 1862.99 L1898.08 1852.10 L1923.45 1840.22 L1948.69 1827.47 L1974.06 1813.86 L1999.31 1799.13 L2024.67 1783.54" stroke-linejoin="round" style="fill:none;stroke:#1A476F;stroke-width:7.34"/>
	<defs>
		<path id="path_skJxnJaB" d="M2201.51 2029.07 L2201.51 2029.07 L2226.88 2027.71 L2252.13 2026.35 L2277.49 2024.74 L2302.74 2023.13 L2328.11 2021.27 L2353.35 2019.17 L2378.72 2017.06 L2403.97 2014.71 L2429.34 2012.24 L2454.58 2009.52 L2479.95 2006.67 L2505.20 2003.70 L2530.56 2000.61 L2555.81 1997.51 L2581.18 1994.17 L2606.42 1990.83 L2631.79 1987.36 L2657.04 1983.90 L2682.41 1980.56 L2707.65 1977.22 L2733.02 1974.00 L2758.26 1971.03 L2783.63 1968.18 L2808.88 1965.46 L2834.25 1963.11 L2859.49 1960.88 L2884.86 1958.78 L2910.11 1956.92 L2935.47 1955.06 L2960.72 1953.45 L2986.09 1951.85 L3011.46 1950.24 L3036.70 1948.75 L3062.07 1947.14 L3087.32 1945.41 L3112.68 1943.55 L3137.93 1941.57 L3163.30 1939.35 L3188.54 1936.75 L3213.91 1933.78 L3239.16 1930.56 L3264.53 1926.72 L3289.77 1922.64 L3315.14 1917.94 L3340.38 1912.86 L3365.75 1907.29 L3391.00 1901.11 L3416.37 1894.30 L3441.61 1886.88 L3466.98 1878.95 L3492.22 1870.17 L3517.59 1860.64 L3542.84 1850.37 L3568.21 1839.23 L3593.45 1827.23 L3618.82 1814.36 L3644.07 1800.37 L3669.43 1785.27 L3694.68 1769.19 L3720.05 1751.86 L3745.42 1733.30 L3770.66 1713.50 L3770.66 1645.31 L3745.42 1669.32 L3720.05 1691.84 L3694.68 1712.88 L3669.43 1732.43 L3644.07 1750.62 L3618.82 1767.45 L3593.45 1783.05 L3568.21 1797.65 L3542.84 1811.01 L3517.59 1823.39 L3492.22 1834.90 L3466.98 1845.42 L3441.61 1855.19 L3416.37 1864.10 L3391.00 1872.27 L3365.75 1879.70 L3340.38 1886.50 L3315.14 1892.82 L3289.77 1898.38 L3264.53 1903.46 L3239.16 1908.04 L3213.91 1912.12 L3188.54 1915.71 L3163.30 1918.80 L3137.93 1921.53 L3112.68 1924.00 L3087.32 1926.23 L3062.07 1928.21 L3036.70 1930.07 L3011.46 1931.92 L2986.09 1933.78 L2960.72 1935.63 L2935.47 1937.49 L2910.11 1939.59 L2884.86 1941.82 L2859.49 1944.17 L2834.25 1946.90 L2808.88 1949.74 L2783.63 1952.96 L2758.26 1956.30 L2733.02 1960.01 L2707.65 1963.85 L2682.41 1967.93 L2657.04 1972.02 L2631.79 1976.10 L2606.42 1980.06 L2581.18 1984.02 L2555.81 1987.98 L2530.56 1991.69 L2505.20 1995.16 L2479.95 1998.62 L2454.58 2001.72 L2429.34 2004.81 L2403.97 2007.66 L2378.72 2010.26 L2353.35 2012.73 L2328.11 2014.96 L2302.74 2017.06 L2277.49 2019.04 L2252.13 2020.78 L2226.88 2022.39 L2201.51 2023.99 L2201.51 2029.07 Z" stroke-linejoin="round"/>
	</defs>
	<defs>
		<clipPath id="clipPath_ZdrFLVEL">
			<use xlink:href="#path_skJxnJaB"/>
		</clipPath>
	</defs>
	<use xlink:href="#path_skJxnJaB" style="stroke:none;fill:#E6E6E6"/>
	<use xlink:href="#path_skJxnJaB" style="fill:none;stroke:#E0E0E0;stroke-width:14.69" clip-path="url(#clipPath_ZdrFLVEL)"/>
	<defs>
		<path id="path_bdnuLIxW" d="M2201.51 2013.72 L2201.51 2013.72 L2226.88 2010.88 L2252.13 2007.91 L2277.49 2004.57 L2302.74 2000.85 L2328.11 1996.89 L2353.35 1992.56 L2378.72 1987.86 L2403.97 1982.91 L2429.34 1977.46 L2454.58 1971.77 L2479.95 1965.71 L2505.20 1959.27 L2530.56 1952.71 L2555.81 1945.78 L2581.18 1938.60 L2606.42 1931.30 L2631.79 1924.00 L2657.04 1916.58 L2682.41 1909.27 L2707.65 1902.10 L2733.02 1895.17 L2758.26 1888.61 L2783.63 1882.54 L2808.88 1876.73 L2834.25 1871.53 L2859.49 1866.70 L2884.86 1862.12 L2910.11 1858.04 L2935.47 1854.08 L2960.72 1850.49 L2986.09 1846.90 L3011.46 1843.56 L3036.70 1840.10 L3062.07 1836.63 L3087.32 1832.92 L3112.68 1828.83 L3137.93 1824.50 L3163.30 1819.55 L3188.54 1813.98 L3213.91 1807.55 L3239.16 1800.25 L3264.53 1792.20 L3289.77 1783.05 L3315.14 1773.02 L3340.38 1761.88 L3365.75 1749.63 L3391.00 1736.14 L3416.37 1721.54 L3441.61 1705.45 L3466.98 1688.00 L3492.22 1669.07 L3517.59 1648.40 L3542.84 1626.13 L3568.21 1601.99 L3593.45 1575.88 L3618.82 1547.79 L3644.07 1517.47 L3669.43 1484.92 L3694.68 1449.90 L3720.05 1412.28 L3745.42 1372.06 L3770.66 1329.12 L3770.66 1186.68 L3745.42 1238.40 L3720.05 1286.79 L3694.68 1331.84 L3669.43 1373.92 L3644.07 1412.90 L3618.82 1449.16 L3593.45 1482.82 L3568.21 1514.00 L3542.84 1542.96 L3517.59 1569.57 L3492.22 1594.20 L3466.98 1616.97 L3441.61 1637.88 L3416.37 1657.06 L3391.00 1674.64 L3365.75 1690.73 L3340.38 1705.45 L3315.14 1718.82 L3289.77 1730.95 L3264.53 1741.84 L3239.16 1751.61 L3213.91 1760.40 L3188.54 1768.07 L3163.30 1774.75 L3137.93 1780.57 L3112.68 1785.77 L3087.32 1790.47 L3062.07 1794.80 L3036.70 1798.76 L3011.46 1802.72 L2986.09 1806.56 L2960.72 1810.52 L2935.47 1814.60 L2910.11 1819.06 L2884.86 1823.76 L2859.49 1828.96 L2834.25 1834.77 L2808.88 1840.96 L2783.63 1847.77 L2758.26 1855.19 L2733.02 1863.24 L2707.65 1871.65 L2682.41 1880.32 L2657.04 1889.10 L2631.79 1898.01 L2606.42 1906.80 L2581.18 1915.46 L2555.81 1923.88 L2530.56 1931.92 L2505.20 1939.72 L2479.95 1947.02 L2454.58 1954.07 L2429.34 1960.63 L2403.97 1966.82 L2378.72 1972.51 L2353.35 1977.83 L2328.11 1982.78 L2302.74 1987.36 L2277.49 1991.57 L2252.13 1995.53 L2226.88 1999.12 L2201.51 2002.34 L2201.51 2013.72 Z" stroke-linejoin="round"/>
	</defs>
	<defs>
		<clipPath id="clipPath_JniDwHqA">
			<use xlink:href="#path_bdnuLIxW"/>
		</clipPath>
	</defs>
	<use xlink:href="#path_bdnuLIxW" style="stroke:none;fill:#E6E6E6"/>
	<use xlink:href="#path_bdnuLIxW" style="fill:none;stroke:#E0E0E0;stroke-width:14.69" clip-path="url(#clipPath_JniDwHqA)"/>
	<defs>
		<path id="path_LSVtVMzT" d="M2201.51 1989.10 L2201.51 1989.10 L2226.88 1983.90 L2252.13 1978.21 L2277.49 1972.02 L2302.74 1965.21 L2328.11 1957.79 L2353.35 1949.74 L2378.72 1941.08 L2403.97 1931.67 L2429.34 1921.77 L2454.58 1911.13 L2479.95 1899.87 L2505.20 1887.99 L2530.56 1875.61 L2555.81 1862.74 L2581.18 1849.63 L2606.42 1836.14 L2631.79 1822.40 L2657.04 1808.79 L2682.41 1795.17 L2707.65 1781.81 L2733.02 1769.06 L2758.26 1756.81 L2783.63 1745.42 L2808.88 1734.78 L2834.25 1725.01 L2859.49 1715.97 L2884.86 1707.68 L2910.11 1699.88 L2935.47 1692.71 L2960.72 1686.02 L2986.09 1679.46 L3011.46 1673.03 L3036.70 1666.72 L3062.07 1660.16 L3087.32 1653.23 L3112.68 1645.80 L3137.93 1637.63 L3163.30 1628.48 L3188.54 1618.08 L3213.91 1606.20 L3239.16 1592.71 L3264.53 1577.49 L3289.77 1560.66 L3315.14 1541.85 L3340.38 1521.18 L3365.75 1498.41 L3391.00 1473.41 L3416.37 1446.06 L3441.61 1416.24 L3466.98 1383.69 L3492.22 1348.42 L3517.59 1310.06 L3542.84 1268.60 L3568.21 1223.68 L3593.45 1175.17 L3618.82 1122.82 L3644.07 1066.51 L3669.43 1005.87 L3694.68 940.78 L3720.05 870.98 L3745.42 796.23 L3770.66 716.29 L3770.66 456.65 L3745.42 551.94 L3720.05 641.05 L3694.68 724.21 L3669.43 801.68 L3644.07 873.83 L3618.82 940.78 L3593.45 1003.03 L3568.21 1060.69 L3542.84 1114.03 L3517.59 1163.41 L3492.22 1208.95 L3466.98 1251.03 L3441.61 1289.76 L3416.37 1325.28 L3391.00 1357.95 L3365.75 1387.78 L3340.38 1415.00 L3315.14 1439.88 L3289.77 1462.28 L3264.53 1482.57 L3239.16 1500.76 L3213.91 1516.97 L3188.54 1531.21 L3163.30 1543.58 L3137.93 1554.47 L3112.68 1564.13 L3087.32 1572.79 L3062.07 1580.83 L3036.70 1588.26 L3011.46 1595.56 L2986.09 1602.74 L2960.72 1610.16 L2935.47 1617.83 L2910.11 1626.00 L2884.86 1634.91 L2859.49 1644.57 L2834.25 1655.21 L2808.88 1666.96 L2783.63 1679.71 L2758.26 1693.45 L2733.02 1708.30 L2707.65 1724.02 L2682.41 1740.23 L2657.04 1756.69 L2631.79 1773.27 L2606.42 1789.73 L2581.18 1805.82 L2555.81 1821.53 L2530.56 1836.63 L2505.20 1851.11 L2479.95 1864.85 L2454.58 1877.84 L2429.34 1890.09 L2403.97 1901.48 L2378.72 1912.24 L2353.35 1922.27 L2328.11 1931.43 L2302.74 1939.97 L2277.49 1947.89 L2252.13 1955.19 L2226.88 1961.87 L2201.51 1967.93 L2201.51 1989.10 Z" stroke-linejoin="round"/>
	</defs>
	<defs>
		<clipPath id="clipPath_YtnDSGFd">
			<use xlink:href="#path_LSVtVMzT"/>
		</clipPath>
	</defs>
	<use xlink:href="#path_LSVtVMzT" style="stroke:none;fill:#E6E6E6"/>
	<use xlink:href="#path_LSVtVMzT" style="fill:none;stroke:#E0E0E0;stroke-width:14.69" clip-path="url(#clipPath_YtnDSGFd)"/>
	<line x1="2201.39" y1="1962.61" x2="2204.24" y2="1962.61" style="stroke:#A0A0A0;stroke-width:7.34"/>
	<line x1="2224.41" y1="1962.61" x2="2226.76" y2="1962.61" style="stroke:#A0A0A0;stroke-width:7.34"/>
	<line x1="2226.76" y1="1962.61" x2="2227.25" y2="1962.61" style="stroke:#A0A0A0;stroke-width:7.34"/>
	<line x1="2247.42" y1="1962.61" x2="2250.27" y2="1962.61" style="stroke:#A0A0A0;stroke-width:7.34"/>
	<line x1="2270.44" y1="1962.61" x2="2273.29" y2="1962.61" style="stroke:#A0A0A0;stroke-width:7.34"/>
	<line x1="2293.46" y1="1962.61" x2="2296.43" y2="1962.61" style="stroke:#A0A0A0;stroke-width:7.34"/>
	<line x1="2316.60" y1="1962.61" x2="2319.45" y2="1962.61" style="stroke:#A0A0A0;stroke-width:7.34"/>
	<line x1="2339.62" y1="1962.61" x2="2342.46" y2="1962.61" style="stroke:#A0A0A0;stroke-width:7.34"/>
	<line x1="2362.64" y1="1962.61" x2="2365.48" y2="1962.61" style="stroke:#A0A0A0;stroke-width:7.34"/>
	<line x1="2385.65" y1="1962.61" x2="2388.50" y2="1962.61" style="stroke:#A0A0A0;stroke-width:7.34"/>
	<line x1="2408.67" y1="1962.61" x2="2411.52" y2="1962.61" style="stroke:#A0A0A0;stroke-width:7.34"/>
	<line x1="2431.69" y1="1962.61" x2="2434.53" y2="1962.61" style="stroke:#A0A0A0;stroke-width:7.34"/>
	<line x1="2454.70" y1="1962.61" x2="2457.55" y2="1962.61" style="stroke:#A0A0A0;stroke-width:7.34"/>
	<line x1="2477.72" y1="1962.61" x2="2479.83" y2="1962.61" style="stroke:#A0A0A0;stroke-width:7.34"/>
	<line x1="2479.83" y1="1962.61" x2="2480.57" y2="1962.61" style="stroke:#A0A0A0;stroke-width:7.34"/>
	<line x1="2500.74" y1="1962.61" x2="2503.59" y2="1962.61" style="stroke:#A0A0A0;stroke-width:7.34"/>
	<line x1="2523.76" y1="1962.61" x2="2526.60" y2="1962.61" style="stroke:#A0A0A0;stroke-width:7.34"/>
	<line x1="2546.78" y1="1962.61" x2="2549.74" y2="1962.61" style="stroke:#A0A0A0;stroke-width:7.34"/>
	<line x1="2569.92" y1="1962.61" x2="2572.76" y2="1962.61" style="stroke:#A0A0A0;stroke-width:7.34"/>
	<line x1="2592.93" y1="1962.61" x2="2595.78" y2="1962.61" style="stroke:#A0A0A0;stroke-width:7.34"/>
	<line x1="2615.95" y1="1962.61" x2="2618.80" y2="1962.61" style="stroke:#A0A0A0;stroke-width:7.34"/>
	<line x1="2638.97" y1="1962.61" x2="2641.82" y2="1962.61" style="stroke:#A0A0A0;stroke-width:7.34"/>
	<line x1="2661.99" y1="1962.61" x2="2664.83" y2="1962.61" style="stroke:#A0A0A0;stroke-width:7.34"/>
	<line x1="2685.00" y1="1962.61" x2="2687.85" y2="1962.61" style="stroke:#A0A0A0;stroke-width:7.34"/>
	<line x1="2708.02" y1="1962.61" x2="2710.87" y2="1962.61" style="stroke:#A0A0A0;stroke-width:7.34"/>
	<line x1="2731.04" y1="1962.61" x2="2732.89" y2="1962.61" style="stroke:#A0A0A0;stroke-width:7.34"/>
	<line x1="2732.89" y1="1962.61" x2="2733.89" y2="1962.61" style="stroke:#A0A0A0;stroke-width:7.34"/>
	<line x1="2754.06" y1="1962.61" x2="2756.90" y2="1962.61" style="stroke:#A0A0A0;stroke-width:7.34"/>
	<line x1="2777.07" y1="1962.61" x2="2779.92" y2="1962.61" style="stroke:#A0A0A0;stroke-width:7.34"/>
	<line x1="2800.09" y1="1962.61" x2="2803.06" y2="1962.61" style="stroke:#A0A0A0;stroke-width:7.34"/>
	<line x1="2823.23" y1="1962.61" x2="2826.08" y2="1962.61" style="stroke:#A0A0A0;stroke-width:7.34"/>
	<line x1="2846.25" y1="1962.61" x2="2849.10" y2="1962.61" style="stroke:#A0A0A0;stroke-width:7.34"/>
	<line x1="2869.27" y1="1962.61" x2="2872.11" y2="1962.61" style="stroke:#A0A0A0;stroke-width:7.34"/>
	<line x1="2892.28" y1="1962.61" x2="2895.13" y2="1962.61" style="stroke:#A0A0A0;stroke-width:7.34"/>
	<line x1="2915.30" y1="1962.61" x2="2918.15" y2="1962.61" style="stroke:#A0A0A0;stroke-width:7.34"/>
	<line x1="2938.32" y1="1962.61" x2="2941.17" y2="1962.61" style="stroke:#A0A0A0;stroke-width:7.34"/>
	<line x1="2961.34" y1="1962.61" x2="2964.18" y2="1962.61" style="stroke:#A0A0A0;stroke-width:7.34"/>
	<line x1="2984.36" y1="1962.61" x2="2986.09" y2="1962.61" style="stroke:#A0A0A0;stroke-width:7.34"/>
	<line x1="2986.09" y1="1962.61" x2="2987.20" y2="1962.61" style="stroke:#A0A0A0;stroke-width:7.34"/>
	<line x1="3007.37" y1="1962.61" x2="3010.22" y2="1962.61" style="stroke:#A0A0A0;stroke-width:7.34"/>
	<line x1="3030.39" y1="1962.61" x2="3033.36" y2="1962.61" style="stroke:#A0A0A0;stroke-width:7.34"/>
	<line x1="3053.41" y1="1962.61" x2="3056.38" y2="1962.61" style="stroke:#A0A0A0;stroke-width:7.34"/>
	<line x1="3076.55" y1="1962.61" x2="3079.39" y2="1962.61" style="stroke:#A0A0A0;stroke-width:7.34"/>
	<line x1="3099.57" y1="1962.61" x2="3102.41" y2="1962.61" style="stroke:#A0A0A0;stroke-width:7.34"/>
	<line x1="3122.58" y1="1962.61" x2="3125.43" y2="1962.61" style="stroke:#A0A0A0;stroke-width:7.34"/>
	<line x1="3145.60" y1="1962.61" x2="3148.45" y2="1962.61" style="stroke:#A0A0A0;stroke-width:7.34"/>
	<line x1="3168.62" y1="1962.61" x2="3171.47" y2="1962.61" style="stroke:#A0A0A0;stroke-width:7.34"/>
	<line x1="3191.64" y1="1962.61" x2="3194.48" y2="1962.61" style="stroke:#A0A0A0;stroke-width:7.34"/>
	<line x1="3214.65" y1="1962.61" x2="3217.50" y2="1962.61" style="stroke:#A0A0A0;stroke-width:7.34"/>
	<line x1="3237.67" y1="1962.61" x2="3239.16" y2="1962.61" style="stroke:#A0A0A0;stroke-width:7.34"/>
	<line x1="3239.16" y1="1962.61" x2="3240.52" y2="1962.61" style="stroke:#A0A0A0;stroke-width:7.34"/>
	<line x1="3260.69" y1="1962.61" x2="3263.53" y2="1962.61" style="stroke:#A0A0A0;stroke-width:7.34"/>
	<line x1="3283.71" y1="1962.61" x2="3286.68" y2="1962.61" style="stroke:#A0A0A0;stroke-width:7.34"/>
	<line x1="3306.72" y1="1962.61" x2="3309.69" y2="1962.61" style="stroke:#A0A0A0;stroke-width:7.34"/>
	<line x1="3329.86" y1="1962.61" x2="3332.71" y2="1962.61" style="stroke:#A0A0A0;stroke-width:7.34"/>
	<line x1="3352.88" y1="1962.61" x2="3355.73" y2="1962.61" style="stroke:#A0A0A0;stroke-width:7.34"/>
	<line x1="3375.90" y1="1962.61" x2="3378.75" y2="1962.61" style="stroke:#A0A0A0;stroke-width:7.34"/>
	<line x1="3398.92" y1="1962.61" x2="3401.76" y2="1962.61" style="stroke:#A0A0A0;stroke-width:7.34"/>
	<line x1="3421.93" y1="1962.61" x2="3424.78" y2="1962.61" style="stroke:#A0A0A0;stroke-width:7.34"/>
	<line x1="3444.95" y1="1962.61" x2="3447.80" y2="1962.61" style="stroke:#A0A0A0;stroke-width:7.34"/>
	<line x1="3467.97" y1="1962.61" x2="3470.82" y2="1962.61" style="stroke:#A0A0A0;stroke-width:7.34"/>
	<line x1="3490.99" y1="1962.61" x2="3492.22" y2="1962.61" style="stroke:#A0A0A0;stroke-width:7.34"/>
	<line x1="3492.22" y1="1962.61" x2="3493.83" y2="1962.61" style="stroke:#A0A0A0;stroke-width:7.34"/>
	<line x1="3514.01" y1="1962.61" x2="3516.85" y2="1962.61" style="stroke:#A0A0A0;stroke-width:7.34"/>
	<line x1="3537.02" y1="1962.61" x2="3539.99" y2="1962.61" style="stroke:#A0A0A0;stroke-width:7.34"/>
	<line x1="3560.04" y1="1962.61" x2="3563.01" y2="1962.61" style="stroke:#A0A0A0;stroke-width:7.34"/>
	<line x1="3583.18" y1="1962.61" x2="3586.03" y2="1962.61" style="stroke:#A0A0A0;stroke-width:7.34"/>
	<line x1="3606.20" y1="1962.61" x2="3609.05" y2="1962.61" style="stroke:#A0A0A0;stroke-width:7.34"/>
	<line x1="3629.22" y1="1962.61" x2="3632.06" y2="1962.61" style="stroke:#A0A0A0;stroke-width:7.34"/>
	<line x1="3652.23" y1="1962.61" x2="3655.08" y2="1962.61" style="stroke:#A0A0A0;stroke-width:7.34"/>
	<line x1="3675.25" y1="1962.61" x2="3678.10" y2="1962.61" style="stroke:#A0A0A0;stroke-width:7.34"/>
	<line x1="3698.27" y1="1962.61" x2="3701.11" y2="1962.61" style="stroke:#A0A0A0;stroke-width:7.34"/>
	<line x1="3721.29" y1="1962.61" x2="3724.13" y2="1962.61" style="stroke:#A0A0A0;stroke-width:7.34"/>
	<line x1="3744.30" y1="1962.61" x2="3745.29" y2="1962.61" style="stroke:#A0A0A0;stroke-width:7.34"/>
	<line x1="3745.29" y1="1962.61" x2="3747.15" y2="1962.61" style="stroke:#A0A0A0;stroke-width:7.34"/>
	<line x1="3767.32" y1="1962.61" x2="3770.17" y2="1962.61" style="stroke:#A0A0A0;stroke-width:7.34"/>
	<path d="" stroke-linejoin="round" style="fill:none;stroke:#A0A0A0;stroke-width:7.34"/>
	<path d=" M2201.39 2008.53 L2226.76 2005.56 L2252.13 2002.21 L2277.37 1998.62 L2302.74 1994.66 L2327.99 1990.33 L2353.35 1985.75 L2378.60 1980.68 L2403.97 1975.36 L2429.21 1969.54 L2454.58 1963.48 L2479.83 1956.92 L2505.20 1950.11 L2530.44 1942.94 L2555.81 1935.39 L2581.05 1927.71 L2606.42 1919.79 L2631.67 1911.75 L2657.04 1903.58 L2682.28 1895.54 L2707.65 1887.74 L2732.89 1880.07 L2758.26 1872.77 L2783.51 1866.08 L2808.88 1859.77 L2834.12 1854.08 L2859.49 1848.76 L2884.74 1843.93 L2910.11 1839.48 L2935.35 1835.39 L2960.72 1831.43 L2986.09 1827.72 L3011.33 1824.13 L3036.70 1820.42 L3061.95 1816.71 L3087.32 1812.75 L3112.56 1808.42 L3137.93 1803.59 L3163.17 1798.27 L3188.54 1792.08 L3213.79 1785.03 L3239.16 1777.11 L3264.40 1768.20 L3289.77 1758.29 L3315.01 1747.16 L3340.38 1735.03 L3365.63 1721.54 L3391.00 1706.94 L3416.24 1690.85 L3441.61 1673.28 L3466.86 1654.22 L3492.22 1633.43 L3517.47 1610.90 L3542.84 1586.52 L3568.08 1560.04 L3593.45 1531.58 L3618.70 1500.76 L3644.07 1467.60 L3669.31 1431.96 L3694.68 1393.59 L3719.93 1352.51 L3745.29 1308.33 L3770.66 1261.18" stroke-linejoin="round" style="fill:none;stroke:#008000;stroke-width:7.34"/>
	<path d=" M2201.39 1979.44 L2226.76 1973.75 L2252.13 1967.56 L2277.37 1960.88 L2302.74 1953.58 L2327.99 1945.53 L2353.35 1936.87 L2378.60 1927.59 L2403.97 1917.57 L2429.21 1906.92 L2454.58 1895.41 L2479.83 1883.29 L2505.20 1870.54 L2530.44 1857.17 L2555.81 1843.31 L2581.05 1828.83 L2606.42 1814.11 L2631.67 1799.13 L2657.04 1784.16 L2682.28 1769.19 L2707.65 1754.46 L2732.89 1740.23 L2758.26 1726.74 L2783.51 1714.24 L2808.88 1702.61 L2834.12 1691.96 L2859.49 1682.19 L2884.74 1673.15 L2910.11 1664.86 L2935.35 1657.19 L2960.72 1649.89 L2986.09 1642.96 L3011.33 1636.27 L3036.70 1629.47 L3061.95 1622.41 L3087.32 1614.99 L3112.56 1606.94 L3137.93 1598.03 L3163.17 1588.01 L3188.54 1576.75 L3213.79 1563.63 L3239.16 1548.90 L3264.40 1532.32 L3289.77 1513.76 L3315.01 1493.21 L3340.38 1470.57 L3365.63 1445.69 L3391.00 1418.34 L3416.24 1388.52 L3441.61 1355.97 L3466.86 1320.45 L3492.22 1281.97 L3517.47 1240.14 L3542.84 1194.84 L3568.08 1145.96 L3593.45 1092.99 L3618.70 1035.94 L3644.07 974.56 L3669.31 908.35 L3694.68 837.32 L3719.93 761.21 L3745.29 679.53 L3770.66 592.29" stroke-linejoin="round" style="fill:none;stroke:#FF7F00;stroke-width:7.34"/>
	<path d=" M2201.39 2026.72 L2226.76 2025.36 L2252.13 2023.87 L2277.37 2022.14 L2302.74 2020.28 L2327.99 2018.30 L2353.35 2016.20 L2378.60 2013.85 L2403.97 2011.37 L2429.21 2008.77 L2454.58 2005.93 L2479.83 2002.96 L2505.20 1999.74 L2530.44 1996.40 L2555.81 1992.93 L2581.05 1989.47 L2606.42 1985.75 L2631.67 1982.04 L2657.04 1978.33 L2682.28 1974.62 L2707.65 1970.90 L2732.89 1967.44 L2758.26 1964.10 L2783.51 1961.00 L2808.88 1958.03 L2834.12 1955.43 L2859.49 1952.96 L2884.74 1950.73 L2910.11 1948.63 L2935.35 1946.77 L2960.72 1944.92 L2986.09 1943.31 L3011.33 1941.57 L3036.70 1939.84 L3061.95 1938.11 L3087.32 1936.25 L3112.56 1934.27 L3137.93 1932.05 L3163.17 1929.57 L3188.54 1926.72 L3213.79 1923.51 L3239.16 1919.92 L3264.40 1915.71 L3289.77 1911.13 L3315.01 1906.06 L3340.38 1900.36 L3365.63 1894.18 L3391.00 1887.37 L3416.24 1879.94 L3441.61 1871.78 L3466.86 1862.99 L3492.22 1853.34 L3517.47 1842.94 L3542.84 1831.68 L3568.08 1819.43 L3593.45 1806.31 L3618.70 1792.08 L3644.07 1776.73 L3669.31 1760.15 L3694.68 1742.45 L3719.93 1723.40 L3745.29 1702.98 L3770.66 1681.07" stroke-linejoin="round" style="fill:none;stroke:#1A476F;stroke-width:7.34"/>
	<line x1="401.69" y1="2096.14" x2="401.69" y2="402.82" style="stroke:#000000;stroke-width:4.90"/>
	<line x1="401.69" y1="2042.31" x2="367.66" y2="2042.31" style="stroke:#000000;stroke-width:4.90"/>
	<text x="350.71" y="2072.10" style="font-family:'Helvetica';font-size:85.02px;fill:#000000" text-anchor="end">0</text>
	<line x1="401.69" y1="1946.15" x2="367.66" y2="1946.15" style="stroke:#000000;stroke-width:4.90"/>
	<text x="350.71" y="1975.94" style="font-family:'Helvetica';font-size:85.02px;fill:#000000" text-anchor="end">.001</text>
	<line x1="401.69" y1="1849.87" x2="367.66" y2="1849.87" style="stroke:#000000;stroke-width:4.90"/>
	<text x="350.71" y="1879.66" style="font-family:'Helvetica';font-size:85.02px;fill:#000000" text-anchor="end">.002</text>
	<line x1="401.69" y1="1753.72" x2="367.66" y2="1753.72" style="stroke:#000000;stroke-width:4.90"/>
	<text x="350.71" y="1783.50" style="font-family:'Helvetica';font-size:85.02px;fill:#000000" text-anchor="end">.003</text>
	<line x1="401.69" y1="1657.56" x2="367.66" y2="1657.56" style="stroke:#000000;stroke-width:4.90"/>
	<text x="350.71" y="1687.35" style="font-family:'Helvetica';font-size:85.02px;fill:#000000" text-anchor="end">.004</text>
	<line x1="401.69" y1="1561.40" x2="367.66" y2="1561.40" style="stroke:#000000;stroke-width:4.90"/>
	<text x="350.71" y="1591.19" style="font-family:'Helvetica';font-size:85.02px;fill:#000000" text-anchor="end">.005</text>
	<line x1="401.69" y1="1465.25" x2="367.66" y2="1465.25" style="stroke:#000000;stroke-width:4.90"/>
	<text x="350.71" y="1495.03" style="font-family:'Helvetica';font-size:85.02px;fill:#000000" text-anchor="end">.006</text>
	<line x1="401.69" y1="1369.09" x2="367.66" y2="1369.09" style="stroke:#000000;stroke-width:4.90"/>
	<text x="350.71" y="1398.88" style="font-family:'Helvetica';font-size:85.02px;fill:#000000" text-anchor="end">.007</text>
	<line x1="401.69" y1="1272.93" x2="367.66" y2="1272.93" style="stroke:#000000;stroke-width:4.90"/>
	<text x="350.71" y="1302.72" style="font-family:'Helvetica';font-size:85.02px;fill:#000000" text-anchor="end">.008</text>
	<line x1="401.69" y1="1176.65" x2="367.66" y2="1176.65" style="stroke:#000000;stroke-width:4.90"/>
	<text x="350.71" y="1206.44" style="font-family:'Helvetica';font-size:85.02px;fill:#000000" text-anchor="end">.009</text>
	<line x1="401.69" y1="2096.14" x2="2078.51" y2="2096.14" style="stroke:#000000;stroke-width:4.90"/>
	<line x1="506.14" y1="2096.14" x2="506.14" y2="2113.10" style="stroke:#000000;stroke-width:4.90"/>
	<line x1="632.73" y1="2096.14" x2="632.73" y2="2113.10" style="stroke:#000000;stroke-width:4.90"/>
	<line x1="759.21" y1="2096.14" x2="759.21" y2="2113.10" style="stroke:#000000;stroke-width:4.90"/>
	<line x1="885.80" y1="2096.14" x2="885.80" y2="2113.10" style="stroke:#000000;stroke-width:4.90"/>
	<line x1="1012.27" y1="2096.14" x2="1012.27" y2="2113.10" style="stroke:#000000;stroke-width:4.90"/>
	<line x1="1138.87" y1="2096.14" x2="1138.87" y2="2113.10" style="stroke:#000000;stroke-width:4.90"/>
	<line x1="1265.47" y1="2096.14" x2="1265.47" y2="2113.10" style="stroke:#000000;stroke-width:4.90"/>
	<line x1="1391.94" y1="2096.14" x2="1391.94" y2="2113.10" style="stroke:#000000;stroke-width:4.90"/>
	<line x1="1518.54" y1="2096.14" x2="1518.54" y2="2113.10" style="stroke:#000000;stroke-width:4.90"/>
	<line x1="1645.01" y1="2096.14" x2="1645.01" y2="2113.10" style="stroke:#000000;stroke-width:4.90"/>
	<line x1="1771.61" y1="2096.14" x2="1771.61" y2="2113.10" style="stroke:#000000;stroke-width:4.90"/>
	<line x1="1898.20" y1="2096.14" x2="1898.20" y2="2113.10" style="stroke:#000000;stroke-width:4.90"/>
	<line x1="2024.67" y1="2096.14" x2="2024.67" y2="2113.10" style="stroke:#000000;stroke-width:4.90"/>
	<line x1="506.14" y1="2096.14" x2="506.14" y2="2130.18" style="stroke:#000000;stroke-width:4.90"/>
	<text x="506.14" y="2206.58" style="font-family:'Helvetica';font-size:85.02px;fill:#000000" text-anchor="middle">20</text>
	<line x1="1012.27" y1="2096.14" x2="1012.27" y2="2130.18" style="stroke:#000000;stroke-width:4.90"/>
	<text x="1012.27" y="2206.58" style="font-family:'Helvetica';font-size:85.02px;fill:#000000" text-anchor="middle">40</text>
	<line x1="1518.54" y1="2096.14" x2="1518.54" y2="2130.18" style="stroke:#000000;stroke-width:4.90"/>
	<text x="1518.54" y="2206.58" style="font-family:'Helvetica';font-size:85.02px;fill:#000000" text-anchor="middle">60</text>
	<line x1="2024.67" y1="2096.14" x2="2024.67" y2="2130.18" style="stroke:#000000;stroke-width:4.90"/>
	<text x="2024.67" y="2206.58" style="font-family:'Helvetica';font-size:85.02px;fill:#000000" text-anchor="middle">80</text>
	<line x1="2147.68" y1="2096.14" x2="3824.49" y2="2096.14" style="stroke:#000000;stroke-width:4.90"/>
	<line x1="2252.13" y1="2096.14" x2="2252.13" y2="2113.10" style="stroke:#000000;stroke-width:4.90"/>
	<line x1="2378.72" y1="2096.14" x2="2378.72" y2="2113.10" style="stroke:#000000;stroke-width:4.90"/>
	<line x1="2505.20" y1="2096.14" x2="2505.20" y2="2113.10" style="stroke:#000000;stroke-width:4.90"/>
	<line x1="2631.79" y1="2096.14" x2="2631.79" y2="2113.10" style="stroke:#000000;stroke-width:4.90"/>
	<line x1="2758.26" y1="2096.14" x2="2758.26" y2="2113.10" style="stroke:#000000;stroke-width:4.90"/>
	<line x1="2884.86" y1="2096.14" x2="2884.86" y2="2113.10" style="stroke:#000000;stroke-width:4.90"/>
	<line x1="3011.46" y1="2096.14" x2="3011.46" y2="2113.10" style="stroke:#000000;stroke-width:4.90"/>
	<line x1="3137.93" y1="2096.14" x2="3137.93" y2="2113.10" style="stroke:#000000;stroke-width:4.90"/>
	<line x1="3264.53" y1="2096.14" x2="3264.53" y2="2113.10" style="stroke:#000000;stroke-width:4.90"/>
	<line x1="3391.00" y1="2096.14" x2="3391.00" y2="2113.10" style="stroke:#000000;stroke-width:4.90"/>
	<line x1="3517.59" y1="2096.14" x2="3517.59" y2="2113.10" style="stroke:#000000;stroke-width:4.90"/>
	<line x1="3644.07" y1="2096.14" x2="3644.07" y2="2113.10" style="stroke:#000000;stroke-width:4.90"/>
	<line x1="3770.66" y1="2096.14" x2="3770.66" y2="2113.10" style="stroke:#000000;stroke-width:4.90"/>
	<line x1="2252.13" y1="2096.14" x2="2252.13" y2="2130.18" style="stroke:#000000;stroke-width:4.90"/>
	<text x="2252.13" y="2206.58" style="font-family:'Helvetica';font-size:85.02px;fill:#000000" text-anchor="middle">20</text>
	<line x1="2758.26" y1="2096.14" x2="2758.26" y2="2130.18" style="stroke:#000000;stroke-width:4.90"/>
	<text x="2758.26" y="2206.58" style="font-family:'Helvetica';font-size:85.02px;fill:#000000" text-anchor="middle">40</text>
	<line x1="3264.53" y1="2096.14" x2="3264.53" y2="2130.18" style="stroke:#000000;stroke-width:4.90"/>
	<text x="3264.53" y="2206.58" style="font-family:'Helvetica';font-size:85.02px;fill:#000000" text-anchor="middle">60</text>
	<line x1="3770.66" y1="2096.14" x2="3770.66" y2="2130.18" style="stroke:#000000;stroke-width:4.90"/>
	<text x="3770.66" y="2206.58" style="font-family:'Helvetica';font-size:85.02px;fill:#000000" text-anchor="middle">80</text>
	<rect x="401.69" y="279.93" width="1676.81" height="122.89" style="fill:#D9E6EB"/>
	<rect x="404.14" y="282.38" width="1671.92" height="117.99" style="fill:none;stroke:#D9E6EB;stroke-width:4.90"/>
	<text x="1240.10" y="359.96" style="font-family:'Helvetica';font-size:93.56px;fill:#000000" text-anchor="middle">Female</text>
	<rect x="2147.68" y="279.93" width="1676.81" height="122.89" style="fill:#D9E6EB"/>
	<rect x="2150.13" y="282.38" width="1671.92" height="117.99" style="fill:none;stroke:#D9E6EB;stroke-width:4.90"/>
	<text x="2986.09" y="359.96" style="font-family:'Helvetica';font-size:93.56px;fill:#000000" text-anchor="middle">Male</text>
	<rect x="592.39" y="2418.27" width="2775.09" height="326.34" style="fill:#FFFFFF"/>
	<rect x="595.27" y="2421.15" width="2769.33" height="320.58" style="fill:none;stroke:#000000;stroke-width:5.76"/>
	<line x1="635.58" y1="2511.46" x2="1009.92" y2="2511.46" style="stroke:#008000;stroke-width:8.64"/>
	<line x1="635.58" y1="2651.43" x2="1009.92" y2="2651.43" style="stroke:#FF7F00;stroke-width:8.64"/>
	<line x1="1971.21" y1="2511.46" x2="2345.56" y2="2511.46" style="stroke:#1A476F;stroke-width:8.64"/>
	<line x1="1971.21" y1="2651.43" x2="1974.06" y2="2651.43" style="stroke:#A0A0A0;stroke-width:8.64"/>
	<line x1="1994.23" y1="2651.43" x2="1997.08" y2="2651.43" style="stroke:#A0A0A0;stroke-width:8.64"/>
	<line x1="2017.25" y1="2651.43" x2="2020.10" y2="2651.43" style="stroke:#A0A0A0;stroke-width:8.64"/>
	<line x1="2040.27" y1="2651.43" x2="2043.24" y2="2651.43" style="stroke:#A0A0A0;stroke-width:8.64"/>
	<line x1="2063.28" y1="2651.43" x2="2066.25" y2="2651.43" style="stroke:#A0A0A0;stroke-width:8.64"/>
	<line x1="2086.43" y1="2651.43" x2="2089.27" y2="2651.43" style="stroke:#A0A0A0;stroke-width:8.64"/>
	<line x1="2109.44" y1="2651.43" x2="2112.29" y2="2651.43" style="stroke:#A0A0A0;stroke-width:8.64"/>
	<line x1="2132.46" y1="2651.43" x2="2135.31" y2="2651.43" style="stroke:#A0A0A0;stroke-width:8.64"/>
	<line x1="2155.48" y1="2651.43" x2="2158.32" y2="2651.43" style="stroke:#A0A0A0;stroke-width:8.64"/>
	<line x1="2178.49" y1="2651.43" x2="2181.34" y2="2651.43" style="stroke:#A0A0A0;stroke-width:8.64"/>
	<line x1="2201.51" y1="2651.43" x2="2204.36" y2="2651.43" style="stroke:#A0A0A0;stroke-width:8.64"/>
	<line x1="2224.53" y1="2651.43" x2="2227.38" y2="2651.43" style="stroke:#A0A0A0;stroke-width:8.64"/>
	<line x1="2247.55" y1="2651.43" x2="2250.39" y2="2651.43" style="stroke:#A0A0A0;stroke-width:8.64"/>
	<line x1="2270.57" y1="2651.43" x2="2273.41" y2="2651.43" style="stroke:#A0A0A0;stroke-width:8.64"/>
	<line x1="2293.58" y1="2651.43" x2="2296.55" y2="2651.43" style="stroke:#A0A0A0;stroke-width:8.64"/>
	<line x1="2316.60" y1="2651.43" x2="2319.57" y2="2651.43" style="stroke:#A0A0A0;stroke-width:8.64"/>
	<line x1="2339.74" y1="2651.43" x2="2342.59" y2="2651.43" style="stroke:#A0A0A0;stroke-width:8.64"/>
	<text x="1069.94" y="2546.49" style="font-family:'Helvetica';font-size:99.99px;fill:#000000">1 comorbidity</text>
	<text x="1069.94" y="2686.46" style="font-family:'Helvetica';font-size:99.99px;fill:#000000">2+ comorbidities</text>
	<text x="2405.58" y="2546.49" style="font-family:'Helvetica';font-size:99.99px;fill:#000000">No comborbidity</text>
	<text x="2405.58" y="2686.46" style="font-family:'Helvetica';font-size:99.99px;fill:#000000">Ref (Age 65, White)</text>
	<text x="1980.00" y="2353.56" style="font-family:'Helvetica';font-size:99.99px;fill:#000000" text-anchor="middle">Age (years)</text>
	<text x="1980.00" y="195.01" style="font-family:'Helvetica';font-size:110.01px;fill:#000000" text-anchor="middle">Ethnicity Black</text>
</svg>
