<?xml version="1.0" encoding="UTF-8" standalone="no"?>
<!-- This is a Stata 16.1 generated SVG file (http://www.stata.com) -->

<svg version="1.1" width="1600px" height="1164px" viewBox="0 0 3960 2880" xmlns="http://www.w3.org/2000/svg" xmlns:xlink="http://www.w3.org/1999/xlink">
	<desc>Stata Graph - Graph</desc>
	<rect x="0" y="0" width="3960" height="2880" style="fill:#EAF2F3;stroke:none"/>
	<rect x="0.00" y="0.00" width="3959.88" height="2880.00" style="fill:#EAF2F3"/>
	<rect x="2.88" y="2.88" width="3954.12" height="2874.24" style="fill:none;stroke:#EAF2F3;stroke-width:5.76"/>
	<rect x="401.69" y="402.82" width="1676.81" height="1693.32" style="fill:#FFFFFF"/>
	<rect x="404.14" y="405.27" width="1671.92" height="1688.43" style="fill:none;stroke:#FFFFFF;stroke-width:4.90"/>
	<line x1="401.69" y1="2042.31" x2="2078.51" y2="2042.31" style="stroke:#EAF2F3;stroke-width:7.34"/>
	<line x1="401.69" y1="1795.54" x2="2078.51" y2="1795.54" style="stroke:#EAF2F3;stroke-width:7.34"/>
	<line x1="401.69" y1="1548.66" x2="2078.51" y2="1548.66" style="stroke:#EAF2F3;stroke-width:7.34"/>
	<line x1="401.69" y1="1301.89" x2="2078.51" y2="1301.89" style="stroke:#EAF2F3;stroke-width:7.34"/>
	<line x1="401.69" y1="1055.13" x2="2078.51" y2="1055.13" style="stroke:#EAF2F3;stroke-width:7.34"/>
	<line x1="401.69" y1="808.36" x2="2078.51" y2="808.36" style="stroke:#EAF2F3;stroke-width:7.34"/>
	<rect x="2147.68" y="402.82" width="1676.81" height="1693.32" style="fill:#FFFFFF"/>
	<rect x="2150.13" y="405.27" width="1671.92" height="1688.43" style="fill:none;stroke:#FFFFFF;stroke-width:4.90"/>
	<line x1="2147.68" y1="2042.31" x2="3824.49" y2="2042.31" style="stroke:#EAF2F3;stroke-width:7.34"/>
	<line x1="2147.68" y1="1795.54" x2="3824.49" y2="1795.54" style="stroke:#EAF2F3;stroke-width:7.34"/>
	<line x1="2147.68" y1="1548.66" x2="3824.49" y2="1548.66" style="stroke:#EAF2F3;stroke-width:7.34"/>
	<line x1="2147.68" y1="1301.89" x2="3824.49" y2="1301.89" style="stroke:#EAF2F3;stroke-width:7.34"/>
	<line x1="2147.68" y1="1055.13" x2="3824.49" y2="1055.13" style="stroke:#EAF2F3;stroke-width:7.34"/>
	<line x1="2147.68" y1="808.36" x2="3824.49" y2="808.36" style="stroke:#EAF2F3;stroke-width:7.34"/>
	<defs>
		<path id="path_QIqAgYZL" d="M455.52 2042.19 L455.52 2042.19 L480.89 2042.19 L506.14 2042.19 L531.51 2042.19 L556.75 2042.06 L582.12 2042.06 L607.37 2042.06 L632.73 2041.94 L657.98 2041.94 L683.35 2041.82 L708.59 2041.69 L733.96 2041.57 L759.21 2041.44 L784.58 2041.32 L809.82 2041.07 L835.19 2040.83 L860.43 2040.58 L885.80 2040.21 L911.05 2039.83 L936.42 2039.46 L961.66 2039.09 L987.03 2038.60 L1012.27 2038.10 L1037.64 2037.61 L1062.89 2036.99 L1088.26 2036.37 L1113.50 2035.75 L1138.87 2035.01 L1164.24 2034.27 L1189.48 2033.40 L1214.85 2032.53 L1240.10 2031.54 L1265.47 2030.55 L1290.71 2029.44 L1316.08 2028.33 L1341.33 2026.96 L1366.69 2025.60 L1391.94 2023.99 L1417.31 2022.39 L1442.55 2020.53 L1467.92 2018.55 L1493.17 2016.32 L1518.54 2013.85 L1543.78 2011.00 L1569.15 2008.03 L1594.39 2004.57 L1619.76 2000.85 L1645.01 1996.64 L1670.38 1992.07 L1695.62 1986.87 L1720.99 1981.05 L1746.24 1974.62 L1771.61 1967.44 L1796.85 1959.52 L1822.22 1950.61 L1847.46 1940.71 L1872.83 1929.57 L1898.20 1917.32 L1923.45 1903.58 L1948.82 1888.36 L1974.06 1871.41 L1999.43 1852.47 L2024.67 1831.43 L2024.67 1765.84 L1999.43 1793.44 L1974.06 1818.19 L1948.82 1840.47 L1923.45 1860.52 L1898.20 1878.46 L1872.83 1894.55 L1847.46 1909.03 L1822.22 1922.02 L1796.85 1933.65 L1771.61 1944.17 L1746.24 1953.58 L1720.99 1961.99 L1695.62 1969.54 L1670.38 1976.47 L1645.01 1982.54 L1619.76 1988.11 L1594.39 1993.06 L1569.15 1997.39 L1543.78 2001.47 L1518.54 2005.06 L1493.17 2008.28 L1467.92 2011.12 L1442.55 2013.72 L1417.31 2016.07 L1391.94 2018.18 L1366.69 2020.03 L1341.33 2021.77 L1316.08 2023.38 L1290.71 2024.86 L1265.47 2026.22 L1240.10 2027.58 L1214.85 2028.82 L1189.48 2029.93 L1164.24 2030.92 L1138.87 2032.04 L1113.50 2032.90 L1088.26 2033.89 L1062.89 2034.64 L1037.64 2035.50 L1012.27 2036.12 L987.03 2036.86 L961.66 2037.48 L936.42 2037.98 L911.05 2038.47 L885.80 2038.97 L860.43 2039.34 L835.19 2039.59 L809.82 2039.96 L784.58 2040.21 L759.21 2040.45 L733.96 2040.70 L708.59 2040.83 L683.35 2040.95 L657.98 2041.20 L632.73 2041.32 L607.37 2041.32 L582.12 2041.44 L556.75 2041.57 L531.51 2041.69 L506.14 2041.69 L480.89 2041.82 L455.52 2041.82 L455.52 2042.19 Z" stroke-linejoin="round"/>
	</defs>
	<defs>
		<clipPath id="clipPath_PzqFiyeZ">
			<use xlink:href="#path_QIqAgYZL"/>
		</clipPath>
	</defs>
	<use xlink:href="#path_QIqAgYZL" style="stroke:none;fill:#E6E6E6"/>
	<use xlink:href="#path_QIqAgYZL" style="fill:none;stroke:#E0E0E0;stroke-width:14.69" clip-path="url(#clipPath_PzqFiyeZ)"/>
	<defs>
		<path id="path_ESLRFpxw" d="M455.52 2042.19 L455.52 2042.19 L480.89 2042.06 L506.14 2042.06 L531.51 2042.06 L556.75 2041.94 L582.12 2041.82 L607.37 2041.82 L632.73 2041.69 L657.98 2041.44 L683.35 2041.32 L708.59 2041.07 L733.96 2040.83 L759.21 2040.58 L784.58 2040.21 L809.82 2039.71 L835.19 2039.22 L860.43 2038.60 L885.80 2037.98 L911.05 2037.24 L936.42 2036.37 L961.66 2035.50 L987.03 2034.51 L1012.27 2033.52 L1037.64 2032.41 L1062.89 2031.17 L1088.26 2029.81 L1113.50 2028.45 L1138.87 2026.96 L1164.24 2025.36 L1189.48 2023.62 L1214.85 2021.77 L1240.10 2019.79 L1265.47 2017.56 L1290.71 2015.21 L1316.08 2012.73 L1341.33 2010.01 L1366.69 2007.04 L1391.94 2003.82 L1417.31 2000.23 L1442.55 1996.27 L1467.92 1991.94 L1493.17 1987.24 L1518.54 1981.92 L1543.78 1976.10 L1569.15 1969.54 L1594.39 1962.37 L1619.76 1954.32 L1645.01 1945.41 L1670.38 1935.51 L1695.62 1924.37 L1720.99 1912.12 L1746.24 1898.38 L1771.61 1883.04 L1796.85 1866.08 L1822.22 1847.03 L1847.46 1825.86 L1872.83 1802.23 L1898.20 1775.99 L1923.45 1746.66 L1948.82 1714.11 L1974.06 1677.85 L1999.43 1637.51 L2024.67 1592.59 L2024.67 1461.78 L1999.43 1519.57 L1974.06 1571.55 L1948.82 1618.08 L1923.45 1660.03 L1898.20 1697.66 L1872.83 1731.44 L1847.46 1761.76 L1822.22 1789.11 L1796.85 1813.61 L1771.61 1835.52 L1746.24 1855.32 L1720.99 1873.01 L1695.62 1888.98 L1670.38 1903.33 L1645.01 1916.20 L1619.76 1927.71 L1594.39 1938.11 L1569.15 1947.51 L1543.78 1955.93 L1518.54 1963.48 L1493.17 1970.16 L1467.92 1976.35 L1442.55 1981.79 L1417.31 1986.62 L1391.94 1991.08 L1366.69 1995.16 L1341.33 1998.75 L1316.08 2002.21 L1290.71 2005.31 L1265.47 2008.15 L1240.10 2010.88 L1214.85 2013.48 L1189.48 2015.83 L1164.24 2018.18 L1138.87 2020.28 L1113.50 2022.39 L1088.26 2024.24 L1062.89 2026.10 L1037.64 2027.71 L1012.27 2029.32 L987.03 2030.68 L961.66 2032.04 L936.42 2033.15 L911.05 2034.14 L885.80 2035.13 L860.43 2035.87 L835.19 2036.62 L809.82 2037.36 L784.58 2037.85 L759.21 2038.35 L733.96 2038.84 L708.59 2039.22 L683.35 2039.59 L657.98 2039.83 L632.73 2040.08 L607.37 2040.33 L582.12 2040.58 L556.75 2040.83 L531.51 2040.95 L506.14 2041.07 L480.89 2041.20 L455.52 2041.32 L455.52 2042.19 Z" stroke-linejoin="round"/>
	</defs>
	<defs>
		<clipPath id="clipPath_RqsKsgjP">
			<use xlink:href="#path_ESLRFpxw"/>
		</clipPath>
	</defs>
	<use xlink:href="#path_ESLRFpxw" style="stroke:none;fill:#E6E6E6"/>
	<use xlink:href="#path_ESLRFpxw" style="fill:none;stroke:#E0E0E0;stroke-width:14.69" clip-path="url(#clipPath_RqsKsgjP)"/>
	<defs>
		<path id="path_DNcmgTVT" d="M455.52 2042.06 L455.52 2042.06 L480.89 2041.94 L506.14 2041.94 L531.51 2041.82 L556.75 2041.69 L582.12 2041.57 L607.37 2041.32 L632.73 2041.20 L657.98 2040.95 L683.35 2040.58 L708.59 2040.21 L733.96 2039.71 L759.21 2039.22 L784.58 2038.47 L809.82 2037.73 L835.19 2036.86 L860.43 2035.75 L885.80 2034.64 L911.05 2033.28 L936.42 2031.91 L961.66 2030.31 L987.03 2028.57 L1012.27 2026.72 L1037.64 2024.61 L1062.89 2022.51 L1088.26 2020.16 L1113.50 2017.68 L1138.87 2015.08 L1164.24 2012.24 L1189.48 2009.14 L1214.85 2005.93 L1240.10 2002.34 L1265.47 1998.50 L1290.71 1994.29 L1316.08 1989.84 L1341.33 1984.89 L1366.69 1979.69 L1391.94 1973.87 L1417.31 1967.56 L1442.55 1960.63 L1467.92 1952.96 L1493.17 1944.42 L1518.54 1935.02 L1543.78 1924.62 L1569.15 1913.11 L1594.39 1900.24 L1619.76 1886.01 L1645.01 1870.04 L1670.38 1852.35 L1695.62 1832.67 L1720.99 1810.77 L1746.24 1786.26 L1771.61 1758.91 L1796.85 1728.59 L1822.22 1694.69 L1847.46 1656.94 L1872.83 1614.86 L1898.20 1567.96 L1923.45 1515.74 L1948.82 1457.57 L1974.06 1392.85 L1999.43 1320.83 L2024.67 1240.76 L2024.67 1012.06 L1999.43 1114.28 L1974.06 1206.23 L1948.82 1288.77 L1923.45 1363.03 L1898.20 1429.73 L1872.83 1489.63 L1847.46 1543.46 L1822.22 1591.85 L1796.85 1635.28 L1771.61 1674.39 L1746.24 1709.41 L1720.99 1740.97 L1695.62 1769.31 L1670.38 1794.80 L1645.01 1817.70 L1619.76 1838.24 L1594.39 1856.68 L1569.15 1873.39 L1543.78 1888.24 L1518.54 1901.73 L1493.17 1913.73 L1467.92 1924.62 L1442.55 1934.40 L1417.31 1943.06 L1391.94 1950.98 L1366.69 1958.16 L1341.33 1964.72 L1316.08 1970.78 L1290.71 1976.35 L1265.47 1981.55 L1240.10 1986.37 L1214.85 1990.95 L1189.48 1995.16 L1164.24 1999.24 L1138.87 2003.08 L1113.50 2006.79 L1088.26 2010.13 L1062.89 2013.35 L1037.64 2016.32 L1012.27 2019.17 L987.03 2021.64 L961.66 2023.99 L936.42 2025.97 L911.05 2027.83 L885.80 2029.56 L860.43 2030.92 L835.19 2032.29 L809.82 2033.40 L784.58 2034.39 L759.21 2035.26 L733.96 2036.12 L708.59 2036.74 L683.35 2037.36 L657.98 2037.98 L632.73 2038.47 L607.37 2038.84 L582.12 2039.34 L556.75 2039.59 L531.51 2039.96 L506.14 2040.21 L480.89 2040.45 L455.52 2040.58 L455.52 2042.06 Z" stroke-linejoin="round"/>
	</defs>
	<defs>
		<clipPath id="clipPath_JSRfjbTj">
			<use xlink:href="#path_DNcmgTVT"/>
		</clipPath>
	</defs>
	<use xlink:href="#path_DNcmgTVT" style="stroke:none;fill:#E6E6E6"/>
	<use xlink:href="#path_DNcmgTVT" style="fill:none;stroke:#E0E0E0;stroke-width:14.69" clip-path="url(#clipPath_JSRfjbTj)"/>
	<line x1="455.52" y1="2008.03" x2="458.37" y2="2008.03" style="stroke:#A0A0A0;stroke-width:7.34"/>
	<line x1="478.54" y1="2008.03" x2="480.77" y2="2008.03" style="stroke:#A0A0A0;stroke-width:7.34"/>
	<line x1="480.77" y1="2008.03" x2="481.39" y2="2008.03" style="stroke:#A0A0A0;stroke-width:7.34"/>
	<line x1="501.56" y1="2008.03" x2="504.40" y2="2008.03" style="stroke:#A0A0A0;stroke-width:7.34"/>
	<line x1="524.58" y1="2008.03" x2="527.42" y2="2008.03" style="stroke:#A0A0A0;stroke-width:7.34"/>
	<line x1="547.59" y1="2008.03" x2="550.44" y2="2008.03" style="stroke:#A0A0A0;stroke-width:7.34"/>
	<line x1="570.61" y1="2008.03" x2="573.58" y2="2008.03" style="stroke:#A0A0A0;stroke-width:7.34"/>
	<line x1="593.75" y1="2008.03" x2="596.60" y2="2008.03" style="stroke:#A0A0A0;stroke-width:7.34"/>
	<line x1="616.77" y1="2008.03" x2="619.62" y2="2008.03" style="stroke:#A0A0A0;stroke-width:7.34"/>
	<line x1="639.79" y1="2008.03" x2="642.63" y2="2008.03" style="stroke:#A0A0A0;stroke-width:7.34"/>
	<line x1="662.80" y1="2008.03" x2="665.65" y2="2008.03" style="stroke:#A0A0A0;stroke-width:7.34"/>
	<line x1="685.82" y1="2008.03" x2="688.67" y2="2008.03" style="stroke:#A0A0A0;stroke-width:7.34"/>
	<line x1="708.84" y1="2008.03" x2="711.69" y2="2008.03" style="stroke:#A0A0A0;stroke-width:7.34"/>
	<line x1="731.86" y1="2008.03" x2="733.84" y2="2008.03" style="stroke:#A0A0A0;stroke-width:7.34"/>
	<line x1="733.84" y1="2008.03" x2="734.70" y2="2008.03" style="stroke:#A0A0A0;stroke-width:7.34"/>
	<line x1="754.88" y1="2008.03" x2="757.72" y2="2008.03" style="stroke:#A0A0A0;stroke-width:7.34"/>
	<line x1="777.89" y1="2008.03" x2="780.74" y2="2008.03" style="stroke:#A0A0A0;stroke-width:7.34"/>
	<line x1="800.91" y1="2008.03" x2="803.88" y2="2008.03" style="stroke:#A0A0A0;stroke-width:7.34"/>
	<line x1="823.93" y1="2008.03" x2="826.90" y2="2008.03" style="stroke:#A0A0A0;stroke-width:7.34"/>
	<line x1="847.07" y1="2008.03" x2="849.91" y2="2008.03" style="stroke:#A0A0A0;stroke-width:7.34"/>
	<line x1="870.09" y1="2008.03" x2="872.93" y2="2008.03" style="stroke:#A0A0A0;stroke-width:7.34"/>
	<line x1="893.10" y1="2008.03" x2="895.95" y2="2008.03" style="stroke:#A0A0A0;stroke-width:7.34"/>
	<line x1="916.12" y1="2008.03" x2="918.97" y2="2008.03" style="stroke:#A0A0A0;stroke-width:7.34"/>
	<line x1="939.14" y1="2008.03" x2="941.99" y2="2008.03" style="stroke:#A0A0A0;stroke-width:7.34"/>
	<line x1="962.16" y1="2008.03" x2="965.00" y2="2008.03" style="stroke:#A0A0A0;stroke-width:7.34"/>
	<line x1="985.17" y1="2008.03" x2="986.91" y2="2008.03" style="stroke:#A0A0A0;stroke-width:7.34"/>
	<line x1="986.91" y1="2008.03" x2="988.02" y2="2008.03" style="stroke:#A0A0A0;stroke-width:7.34"/>
	<line x1="1008.19" y1="2008.03" x2="1011.04" y2="2008.03" style="stroke:#A0A0A0;stroke-width:7.34"/>
	<line x1="1031.21" y1="2008.03" x2="1034.06" y2="2008.03" style="stroke:#A0A0A0;stroke-width:7.34"/>
	<line x1="1054.23" y1="2008.03" x2="1057.20" y2="2008.03" style="stroke:#A0A0A0;stroke-width:7.34"/>
	<line x1="1077.24" y1="2008.03" x2="1080.21" y2="2008.03" style="stroke:#A0A0A0;stroke-width:7.34"/>
	<line x1="1100.38" y1="2008.03" x2="1103.23" y2="2008.03" style="stroke:#A0A0A0;stroke-width:7.34"/>
	<line x1="1123.40" y1="2008.03" x2="1126.25" y2="2008.03" style="stroke:#A0A0A0;stroke-width:7.34"/>
	<line x1="1146.42" y1="2008.03" x2="1149.27" y2="2008.03" style="stroke:#A0A0A0;stroke-width:7.34"/>
	<line x1="1169.44" y1="2008.03" x2="1172.28" y2="2008.03" style="stroke:#A0A0A0;stroke-width:7.34"/>
	<line x1="1192.45" y1="2008.03" x2="1195.30" y2="2008.03" style="stroke:#A0A0A0;stroke-width:7.34"/>
	<line x1="1215.47" y1="2008.03" x2="1218.32" y2="2008.03" style="stroke:#A0A0A0;stroke-width:7.34"/>
	<line x1="1238.49" y1="2008.03" x2="1240.10" y2="2008.03" style="stroke:#A0A0A0;stroke-width:7.34"/>
	<line x1="1240.10" y1="2008.03" x2="1241.34" y2="2008.03" style="stroke:#A0A0A0;stroke-width:7.34"/>
	<line x1="1261.51" y1="2008.03" x2="1264.35" y2="2008.03" style="stroke:#A0A0A0;stroke-width:7.34"/>
	<line x1="1284.53" y1="2008.03" x2="1287.37" y2="2008.03" style="stroke:#A0A0A0;stroke-width:7.34"/>
	<line x1="1307.54" y1="2008.03" x2="1310.51" y2="2008.03" style="stroke:#A0A0A0;stroke-width:7.34"/>
	<line x1="1330.56" y1="2008.03" x2="1333.53" y2="2008.03" style="stroke:#A0A0A0;stroke-width:7.34"/>
	<line x1="1353.70" y1="2008.03" x2="1356.55" y2="2008.03" style="stroke:#A0A0A0;stroke-width:7.34"/>
	<line x1="1376.72" y1="2008.03" x2="1379.57" y2="2008.03" style="stroke:#A0A0A0;stroke-width:7.34"/>
	<line x1="1399.74" y1="2008.03" x2="1402.58" y2="2008.03" style="stroke:#A0A0A0;stroke-width:7.34"/>
	<line x1="1422.75" y1="2008.03" x2="1425.60" y2="2008.03" style="stroke:#A0A0A0;stroke-width:7.34"/>
	<line x1="1445.77" y1="2008.03" x2="1448.62" y2="2008.03" style="stroke:#A0A0A0;stroke-width:7.34"/>
	<line x1="1468.79" y1="2008.03" x2="1471.63" y2="2008.03" style="stroke:#A0A0A0;stroke-width:7.34"/>
	<line x1="1491.81" y1="2008.03" x2="1493.17" y2="2008.03" style="stroke:#A0A0A0;stroke-width:7.34"/>
	<line x1="1493.17" y1="2008.03" x2="1494.65" y2="2008.03" style="stroke:#A0A0A0;stroke-width:7.34"/>
	<line x1="1514.82" y1="2008.03" x2="1517.67" y2="2008.03" style="stroke:#A0A0A0;stroke-width:7.34"/>
	<line x1="1537.84" y1="2008.03" x2="1540.69" y2="2008.03" style="stroke:#A0A0A0;stroke-width:7.34"/>
	<line x1="1560.86" y1="2008.03" x2="1563.83" y2="2008.03" style="stroke:#A0A0A0;stroke-width:7.34"/>
	<line x1="1584.00" y1="2008.03" x2="1586.85" y2="2008.03" style="stroke:#A0A0A0;stroke-width:7.34"/>
	<line x1="1607.02" y1="2008.03" x2="1609.86" y2="2008.03" style="stroke:#A0A0A0;stroke-width:7.34"/>
	<line x1="1630.04" y1="2008.03" x2="1632.88" y2="2008.03" style="stroke:#A0A0A0;stroke-width:7.34"/>
	<line x1="1653.05" y1="2008.03" x2="1655.90" y2="2008.03" style="stroke:#A0A0A0;stroke-width:7.34"/>
	<line x1="1676.07" y1="2008.03" x2="1678.92" y2="2008.03" style="stroke:#A0A0A0;stroke-width:7.34"/>
	<line x1="1699.09" y1="2008.03" x2="1701.93" y2="2008.03" style="stroke:#A0A0A0;stroke-width:7.34"/>
	<line x1="1722.11" y1="2008.03" x2="1724.95" y2="2008.03" style="stroke:#A0A0A0;stroke-width:7.34"/>
	<line x1="1745.12" y1="2008.03" x2="1746.24" y2="2008.03" style="stroke:#A0A0A0;stroke-width:7.34"/>
	<line x1="1746.24" y1="2008.03" x2="1747.97" y2="2008.03" style="stroke:#A0A0A0;stroke-width:7.34"/>
	<line x1="1768.14" y1="2008.03" x2="1770.99" y2="2008.03" style="stroke:#A0A0A0;stroke-width:7.34"/>
	<line x1="1791.16" y1="2008.03" x2="1794.00" y2="2008.03" style="stroke:#A0A0A0;stroke-width:7.34"/>
	<line x1="1814.17" y1="2008.03" x2="1817.14" y2="2008.03" style="stroke:#A0A0A0;stroke-width:7.34"/>
	<line x1="1837.32" y1="2008.03" x2="1840.16" y2="2008.03" style="stroke:#A0A0A0;stroke-width:7.34"/>
	<line x1="1860.33" y1="2008.03" x2="1863.18" y2="2008.03" style="stroke:#A0A0A0;stroke-width:7.34"/>
	<line x1="1883.35" y1="2008.03" x2="1886.20" y2="2008.03" style="stroke:#A0A0A0;stroke-width:7.34"/>
	<line x1="1906.37" y1="2008.03" x2="1909.21" y2="2008.03" style="stroke:#A0A0A0;stroke-width:7.34"/>
	<line x1="1929.39" y1="2008.03" x2="1932.23" y2="2008.03" style="stroke:#A0A0A0;stroke-width:7.34"/>
	<line x1="1952.40" y1="2008.03" x2="1955.25" y2="2008.03" style="stroke:#A0A0A0;stroke-width:7.34"/>
	<line x1="1975.42" y1="2008.03" x2="1978.27" y2="2008.03" style="stroke:#A0A0A0;stroke-width:7.34"/>
	<line x1="1998.44" y1="2008.03" x2="1999.31" y2="2008.03" style="stroke:#A0A0A0;stroke-width:7.34"/>
	<line x1="1999.31" y1="2008.03" x2="2001.29" y2="2008.03" style="stroke:#A0A0A0;stroke-width:7.34"/>
	<line x1="2021.46" y1="2008.03" x2="2024.30" y2="2008.03" style="stroke:#A0A0A0;stroke-width:7.34"/>
	<path d="" stroke-linejoin="round" style="fill:none;stroke:#A0A0A0;stroke-width:7.34"/>
	<path d=" M455.52 2041.94 L480.77 2041.94 L506.14 2041.82 L531.38 2041.69 L556.75 2041.69 L582.00 2041.44 L607.37 2041.32 L632.61 2041.20 L657.98 2040.95 L683.22 2040.70 L708.59 2040.45 L733.84 2040.08 L759.21 2039.71 L784.45 2039.22 L809.82 2038.72 L835.07 2038.23 L860.43 2037.48 L885.68 2036.74 L911.05 2036.00 L936.29 2035.01 L961.66 2034.02 L986.91 2032.90 L1012.27 2031.67 L1037.52 2030.31 L1062.89 2028.94 L1088.13 2027.34 L1113.50 2025.73 L1138.87 2023.99 L1164.12 2022.14 L1189.48 2020.16 L1214.73 2018.05 L1240.10 2015.83 L1265.34 2013.35 L1290.71 2010.75 L1315.96 2007.91 L1341.33 2004.81 L1366.57 2001.60 L1391.94 1997.88 L1417.18 1993.92 L1442.55 1989.59 L1467.80 1984.76 L1493.17 1979.32 L1518.41 1973.38 L1543.78 1966.70 L1569.03 1959.39 L1594.39 1951.10 L1619.64 1941.95 L1645.01 1931.80 L1670.25 1920.54 L1695.62 1907.91 L1720.87 1893.93 L1746.24 1878.34 L1771.48 1860.89 L1796.85 1841.58 L1822.10 1820.05 L1847.46 1795.92 L1872.71 1769.19 L1898.08 1739.36 L1923.45 1706.19 L1948.69 1669.19 L1974.06 1628.11 L1999.31 1582.32 L2024.67 1531.45" stroke-linejoin="round" style="fill:none;stroke:#008000;stroke-width:7.34"/>
	<path d=" M455.52 2041.69 L480.77 2041.57 L506.14 2041.44 L531.38 2041.32 L556.75 2041.07 L582.00 2040.83 L607.37 2040.58 L632.61 2040.21 L657.98 2039.83 L683.22 2039.46 L708.59 2038.97 L733.84 2038.35 L759.21 2037.73 L784.45 2036.86 L809.82 2036.00 L835.07 2035.01 L860.43 2033.77 L885.68 2032.41 L911.05 2030.92 L936.29 2029.32 L961.66 2027.46 L986.91 2025.48 L1012.27 2023.38 L1037.52 2020.90 L1062.89 2018.43 L1088.13 2015.70 L1113.50 2012.86 L1138.87 2009.76 L1164.12 2006.42 L1189.48 2002.83 L1214.73 1999.12 L1240.10 1995.04 L1265.34 1990.70 L1290.71 1986.13 L1315.96 1981.05 L1341.33 1975.61 L1366.57 1969.79 L1391.94 1963.36 L1417.18 1956.30 L1442.55 1948.50 L1467.80 1939.84 L1493.17 1930.19 L1518.41 1919.55 L1543.78 1907.79 L1569.03 1894.55 L1594.39 1879.94 L1619.64 1863.73 L1645.01 1845.67 L1670.25 1825.49 L1695.62 1803.09 L1720.87 1778.22 L1746.24 1750.37 L1771.48 1719.44 L1796.85 1685.03 L1822.10 1646.67 L1847.46 1603.97 L1872.71 1556.33 L1898.08 1503.36 L1923.45 1444.33 L1948.69 1378.62 L1974.06 1305.48 L1999.31 1224.17 L2024.67 1133.59" stroke-linejoin="round" style="fill:none;stroke:#FF7F00;stroke-width:7.34"/>
	<path d=" M455.52 2042.19 L480.77 2042.19 L506.14 2042.06 L531.38 2042.06 L556.75 2042.06 L582.00 2041.94 L607.37 2041.82 L632.61 2041.82 L657.98 2041.69 L683.22 2041.57 L708.59 2041.44 L733.84 2041.32 L759.21 2041.07 L784.45 2040.95 L809.82 2040.70 L835.07 2040.33 L860.43 2040.08 L885.68 2039.71 L911.05 2039.34 L936.29 2038.84 L961.66 2038.35 L986.91 2037.85 L1012.27 2037.24 L1037.52 2036.62 L1062.89 2036.00 L1088.13 2035.26 L1113.50 2034.51 L1138.87 2033.65 L1164.12 2032.78 L1189.48 2031.91 L1214.73 2030.92 L1240.10 2029.81 L1265.34 2028.70 L1290.71 2027.46 L1315.96 2026.10 L1341.33 2024.61 L1366.57 2023.13 L1391.94 2021.40 L1417.18 2019.54 L1442.55 2017.44 L1467.80 2015.08 L1493.17 2012.61 L1518.41 2009.76 L1543.78 2006.67 L1569.03 2003.08 L1594.39 1999.24 L1619.64 1994.91 L1645.01 1990.21 L1670.25 1984.76 L1695.62 1978.82 L1720.87 1972.27 L1746.24 1964.84 L1771.48 1956.67 L1796.85 1947.51 L1822.10 1937.37 L1847.46 1925.98 L1872.71 1913.36 L1898.08 1899.25 L1923.45 1883.53 L1948.69 1866.08 L1974.06 1846.66 L1999.31 1825.00 L2024.67 1800.99" stroke-linejoin="round" style="fill:none;stroke:#1A476F;stroke-width:7.34"/>
	<defs>
		<path id="path_oElQVxuF" d="M2201.51 2042.19 L2201.51 2042.19 L2226.88 2042.19 L2252.13 2042.06 L2277.49 2042.06 L2302.74 2042.06 L2328.11 2041.94 L2353.35 2041.94 L2378.72 2041.82 L2403.97 2041.69 L2429.34 2041.57 L2454.58 2041.44 L2479.95 2041.20 L2505.20 2040.95 L2530.56 2040.70 L2555.81 2040.33 L2581.18 2040.08 L2606.42 2039.59 L2631.79 2039.09 L2657.04 2038.60 L2682.41 2037.98 L2707.65 2037.36 L2733.02 2036.62 L2758.26 2035.87 L2783.63 2035.01 L2808.88 2034.14 L2834.25 2033.15 L2859.49 2032.16 L2884.86 2031.05 L2910.11 2029.81 L2935.47 2028.57 L2960.72 2027.21 L2986.09 2025.73 L3011.46 2024.24 L3036.70 2022.51 L3062.07 2020.65 L3087.32 2018.67 L3112.68 2016.45 L3137.93 2014.09 L3163.30 2011.50 L3188.54 2008.65 L3213.91 2005.56 L3239.16 2002.09 L3264.53 1998.25 L3289.77 1994.05 L3315.14 1989.34 L3340.38 1984.15 L3365.75 1978.33 L3391.00 1971.89 L3416.37 1964.72 L3441.61 1956.67 L3466.98 1947.76 L3492.22 1937.86 L3517.59 1926.85 L3542.84 1914.47 L3568.21 1900.74 L3593.45 1885.51 L3618.82 1868.44 L3644.07 1849.50 L3669.43 1828.34 L3694.68 1804.95 L3720.05 1778.71 L3745.42 1749.63 L3770.66 1717.33 L3770.66 1615.73 L3745.42 1658.30 L3720.05 1696.54 L3694.68 1730.95 L3669.43 1761.88 L3644.07 1789.48 L3618.82 1814.48 L3593.45 1836.75 L3568.21 1856.80 L3542.84 1874.87 L3517.59 1890.96 L3492.22 1905.56 L3466.98 1918.56 L3441.61 1930.31 L3416.37 1940.83 L3391.00 1950.24 L3365.75 1958.78 L3340.38 1966.33 L3315.14 1973.26 L3289.77 1979.32 L3264.53 1984.89 L3239.16 1989.84 L3213.91 1994.29 L3188.54 1998.25 L3163.30 2001.84 L3137.93 2005.18 L3112.68 2008.03 L3087.32 2010.75 L3062.07 2013.23 L3036.70 2015.46 L3011.46 2017.56 L2986.09 2019.54 L2960.72 2021.40 L2935.47 2023.25 L2910.11 2024.86 L2884.86 2026.47 L2859.49 2027.83 L2834.25 2029.32 L2808.88 2030.55 L2783.63 2031.79 L2758.26 2032.90 L2733.02 2033.89 L2707.65 2034.88 L2682.41 2035.75 L2657.04 2036.49 L2631.79 2037.11 L2606.42 2037.73 L2581.18 2038.23 L2555.81 2038.72 L2530.56 2039.09 L2505.20 2039.46 L2479.95 2039.71 L2454.58 2040.08 L2429.34 2040.33 L2403.97 2040.58 L2378.72 2040.70 L2353.35 2040.95 L2328.11 2041.07 L2302.74 2041.20 L2277.49 2041.32 L2252.13 2041.44 L2226.88 2041.57 L2201.51 2041.57 L2201.51 2042.19 Z" stroke-linejoin="round"/>
	</defs>
	<defs>
		<clipPath id="clipPath_FXROJDBT">
			<use xlink:href="#path_oElQVxuF"/>
		</clipPath>
	</defs>
	<use xlink:href="#path_oElQVxuF" style="stroke:none;fill:#E6E6E6"/>
	<use xlink:href="#path_oElQVxuF" style="fill:none;stroke:#E0E0E0;stroke-width:14.69" clip-path="url(#clipPath_FXROJDBT)"/>
	<defs>
		<path id="path_velYZiXj" d="M2201.51 2042.06 L2201.51 2042.06 L2226.88 2042.06 L2252.13 2041.94 L2277.49 2041.82 L2302.74 2041.82 L2328.11 2041.69 L2353.35 2041.44 L2378.72 2041.32 L2403.97 2041.07 L2429.34 2040.83 L2454.58 2040.45 L2479.95 2040.08 L2505.20 2039.59 L2530.56 2038.97 L2555.81 2038.35 L2581.18 2037.48 L2606.42 2036.62 L2631.79 2035.63 L2657.04 2034.51 L2682.41 2033.28 L2707.65 2031.79 L2733.02 2030.31 L2758.26 2028.70 L2783.63 2026.96 L2808.88 2025.11 L2834.25 2023.13 L2859.49 2020.90 L2884.86 2018.67 L2910.11 2016.20 L2935.47 2013.48 L2960.72 2010.63 L2986.09 2007.54 L3011.46 2004.19 L3036.70 2000.61 L3062.07 1996.64 L3087.32 1992.44 L3112.68 1987.73 L3137.93 1982.78 L3163.30 1977.22 L3188.54 1971.15 L3213.91 1964.59 L3239.16 1957.17 L3264.53 1949.00 L3289.77 1939.97 L3315.14 1929.94 L3340.38 1918.80 L3365.75 1906.30 L3391.00 1892.57 L3416.37 1877.22 L3441.61 1860.14 L3466.98 1841.21 L3492.22 1819.92 L3517.59 1796.41 L3542.84 1770.05 L3568.21 1740.72 L3593.45 1708.05 L3618.82 1671.79 L3644.07 1631.20 L3669.43 1586.15 L3694.68 1535.91 L3720.05 1480.10 L3745.42 1417.97 L3770.66 1348.92 L3770.66 1147.32 L3745.42 1236.55 L3720.05 1316.62 L3694.68 1388.52 L3669.43 1453.12 L3644.07 1511.28 L3618.82 1563.38 L3593.45 1610.16 L3568.21 1652.24 L3542.84 1689.98 L3517.59 1723.89 L3492.22 1754.33 L3466.98 1781.68 L3441.61 1806.19 L3416.37 1828.34 L3391.00 1848.14 L3365.75 1865.96 L3340.38 1882.05 L3315.14 1896.40 L3289.77 1909.27 L3264.53 1920.91 L3239.16 1931.30 L3213.91 1940.71 L3188.54 1949.12 L3163.30 1956.67 L3137.93 1963.48 L3112.68 1969.67 L3087.32 1975.36 L3062.07 1980.56 L3036.70 1985.26 L3011.46 1989.84 L2986.09 1993.92 L2960.72 1997.88 L2935.47 2001.60 L2910.11 2005.18 L2884.86 2008.40 L2859.49 2011.62 L2834.25 2014.47 L2808.88 2017.31 L2783.63 2019.91 L2758.26 2022.26 L2733.02 2024.49 L2707.65 2026.47 L2682.41 2028.20 L2657.04 2029.81 L2631.79 2031.30 L2606.42 2032.53 L2581.18 2033.65 L2555.81 2034.64 L2530.56 2035.50 L2505.20 2036.25 L2479.95 2036.99 L2454.58 2037.48 L2429.34 2038.10 L2403.97 2038.60 L2378.72 2038.97 L2353.35 2039.34 L2328.11 2039.71 L2302.74 2039.96 L2277.49 2040.21 L2252.13 2040.45 L2226.88 2040.70 L2201.51 2040.83 L2201.51 2042.06 Z" stroke-linejoin="round"/>
	</defs>
	<defs>
		<clipPath id="clipPath_CriKafks">
			<use xlink:href="#path_velYZiXj"/>
		</clipPath>
	</defs>
	<use xlink:href="#path_velYZiXj" style="stroke:none;fill:#E6E6E6"/>
	<use xlink:href="#path_velYZiXj" style="fill:none;stroke:#E0E0E0;stroke-width:14.69" clip-path="url(#clipPath_CriKafks)"/>
	<defs>
		<path id="path_UeRaNCnO" d="M2201.51 2041.94 L2201.51 2041.94 L2226.88 2041.82 L2252.13 2041.69 L2277.49 2041.57 L2302.74 2041.32 L2328.11 2041.20 L2353.35 2040.83 L2378.72 2040.58 L2403.97 2040.08 L2429.34 2039.59 L2454.58 2039.09 L2479.95 2038.35 L2505.20 2037.48 L2530.56 2036.49 L2555.81 2035.26 L2581.18 2033.89 L2606.42 2032.29 L2631.79 2030.43 L2657.04 2028.45 L2682.41 2026.22 L2707.65 2023.75 L2733.02 2021.02 L2758.26 2018.18 L2783.63 2015.08 L2808.88 2011.74 L2834.25 2008.15 L2859.49 2004.32 L2884.86 2000.23 L2910.11 1995.90 L2935.47 1991.08 L2960.72 1986.00 L2986.09 1980.43 L3011.46 1974.49 L3036.70 1968.06 L3062.07 1961.13 L3087.32 1953.58 L3112.68 1945.41 L3137.93 1936.38 L3163.30 1926.60 L3188.54 1915.83 L3213.91 1904.08 L3239.16 1890.96 L3264.53 1876.36 L3289.77 1860.27 L3315.14 1842.32 L3340.38 1822.52 L3365.75 1800.37 L3391.00 1775.87 L3416.37 1748.52 L3441.61 1718.07 L3466.98 1684.17 L3492.22 1646.30 L3517.59 1604.22 L3542.84 1557.32 L3568.21 1504.97 L3593.45 1446.68 L3618.82 1381.84 L3644.07 1309.56 L3669.43 1229.00 L3694.68 1139.28 L3720.05 1039.53 L3745.42 928.65 L3770.66 805.39 L3770.66 456.65 L3745.42 614.07 L3720.05 755.52 L3694.68 882.74 L3669.43 997.08 L3644.07 1099.68 L3618.82 1192.00 L3593.45 1274.91 L3568.21 1349.41 L3542.84 1416.24 L3517.59 1476.38 L3492.22 1530.34 L3466.98 1578.85 L3441.61 1622.54 L3416.37 1661.64 L3391.00 1696.91 L3365.75 1728.47 L3340.38 1756.93 L3315.14 1782.55 L3289.77 1805.45 L3264.53 1826.11 L3239.16 1844.68 L3213.91 1861.38 L3188.54 1876.36 L3163.30 1889.72 L3137.93 1901.85 L3112.68 1912.86 L3087.32 1923.01 L3062.07 1932.17 L3036.70 1940.83 L3011.46 1948.75 L2986.09 1956.18 L2960.72 1963.23 L2935.47 1969.79 L2910.11 1976.10 L2884.86 1982.04 L2859.49 1987.61 L2834.25 1992.81 L2808.88 1997.76 L2783.63 2002.34 L2758.26 2006.55 L2733.02 2010.51 L2707.65 2014.09 L2682.41 2017.31 L2657.04 2020.16 L2631.79 2022.63 L2606.42 2024.86 L2581.18 2026.84 L2555.81 2028.57 L2530.56 2030.18 L2505.20 2031.54 L2479.95 2032.78 L2454.58 2033.89 L2429.34 2034.76 L2403.97 2035.63 L2378.72 2036.37 L2353.35 2037.11 L2328.11 2037.73 L2302.74 2038.23 L2277.49 2038.60 L2252.13 2039.09 L2226.88 2039.46 L2201.51 2039.71 L2201.51 2041.94 Z" stroke-linejoin="round"/>
	</defs>
	<defs>
		<clipPath id="clipPath_EuoqVCDJ">
			<use xlink:href="#path_UeRaNCnO"/>
		</clipPath>
	</defs>
	<use xlink:href="#path_UeRaNCnO" style="stroke:none;fill:#E6E6E6"/>
	<use xlink:href="#path_UeRaNCnO" style="fill:none;stroke:#E0E0E0;stroke-width:14.69" clip-path="url(#clipPath_EuoqVCDJ)"/>
	<line x1="2201.39" y1="1989.47" x2="2204.24" y2="1989.47" style="stroke:#A0A0A0;stroke-width:7.34"/>
	<line x1="2224.41" y1="1989.47" x2="2226.76" y2="1989.47" style="stroke:#A0A0A0;stroke-width:7.34"/>
	<line x1="2226.76" y1="1989.47" x2="2227.25" y2="1989.47" style="stroke:#A0A0A0;stroke-width:7.34"/>
	<line x1="2247.42" y1="1989.47" x2="2250.27" y2="1989.47" style="stroke:#A0A0A0;stroke-width:7.34"/>
	<line x1="2270.44" y1="1989.47" x2="2273.29" y2="1989.47" style="stroke:#A0A0A0;stroke-width:7.34"/>
	<line x1="2293.46" y1="1989.47" x2="2296.43" y2="1989.47" style="stroke:#A0A0A0;stroke-width:7.34"/>
	<line x1="2316.60" y1="1989.47" x2="2319.45" y2="1989.47" style="stroke:#A0A0A0;stroke-width:7.34"/>
	<line x1="2339.62" y1="1989.47" x2="2342.46" y2="1989.47" style="stroke:#A0A0A0;stroke-width:7.34"/>
	<line x1="2362.64" y1="1989.47" x2="2365.48" y2="1989.47" style="stroke:#A0A0A0;stroke-width:7.34"/>
	<line x1="2385.65" y1="1989.47" x2="2388.50" y2="1989.47" style="stroke:#A0A0A0;stroke-width:7.34"/>
	<line x1="2408.67" y1="1989.47" x2="2411.52" y2="1989.47" style="stroke:#A0A0A0;stroke-width:7.34"/>
	<line x1="2431.69" y1="1989.47" x2="2434.53" y2="1989.47" style="stroke:#A0A0A0;stroke-width:7.34"/>
	<line x1="2454.70" y1="1989.47" x2="2457.55" y2="1989.47" style="stroke:#A0A0A0;stroke-width:7.34"/>
	<line x1="2477.72" y1="1989.47" x2="2479.83" y2="1989.47" style="stroke:#A0A0A0;stroke-width:7.34"/>
	<line x1="2479.83" y1="1989.47" x2="2480.57" y2="1989.47" style="stroke:#A0A0A0;stroke-width:7.34"/>
	<line x1="2500.74" y1="1989.47" x2="2503.59" y2="1989.47" style="stroke:#A0A0A0;stroke-width:7.34"/>
	<line x1="2523.76" y1="1989.47" x2="2526.60" y2="1989.47" style="stroke:#A0A0A0;stroke-width:7.34"/>
	<line x1="2546.78" y1="1989.47" x2="2549.74" y2="1989.47" style="stroke:#A0A0A0;stroke-width:7.34"/>
	<line x1="2569.92" y1="1989.47" x2="2572.76" y2="1989.47" style="stroke:#A0A0A0;stroke-width:7.34"/>
	<line x1="2592.93" y1="1989.47" x2="2595.78" y2="1989.47" style="stroke:#A0A0A0;stroke-width:7.34"/>
	<line x1="2615.95" y1="1989.47" x2="2618.80" y2="1989.47" style="stroke:#A0A0A0;stroke-width:7.34"/>
	<line x1="2638.97" y1="1989.47" x2="2641.82" y2="1989.47" style="stroke:#A0A0A0;stroke-width:7.34"/>
	<line x1="2661.99" y1="1989.47" x2="2664.83" y2="1989.47" style="stroke:#A0A0A0;stroke-width:7.34"/>
	<line x1="2685.00" y1="1989.47" x2="2687.85" y2="1989.47" style="stroke:#A0A0A0;stroke-width:7.34"/>
	<line x1="2708.02" y1="1989.47" x2="2710.87" y2="1989.47" style="stroke:#A0A0A0;stroke-width:7.34"/>
	<line x1="2731.04" y1="1989.47" x2="2732.89" y2="1989.47" style="stroke:#A0A0A0;stroke-width:7.34"/>
	<line x1="2732.89" y1="1989.47" x2="2733.89" y2="1989.47" style="stroke:#A0A0A0;stroke-width:7.34"/>
	<line x1="2754.06" y1="1989.47" x2="2756.90" y2="1989.47" style="stroke:#A0A0A0;stroke-width:7.34"/>
	<line x1="2777.07" y1="1989.47" x2="2779.92" y2="1989.47" style="stroke:#A0A0A0;stroke-width:7.34"/>
	<line x1="2800.09" y1="1989.47" x2="2803.06" y2="1989.47" style="stroke:#A0A0A0;stroke-width:7.34"/>
	<line x1="2823.23" y1="1989.47" x2="2826.08" y2="1989.47" style="stroke:#A0A0A0;stroke-width:7.34"/>
	<line x1="2846.25" y1="1989.47" x2="2849.10" y2="1989.47" style="stroke:#A0A0A0;stroke-width:7.34"/>
	<line x1="2869.27" y1="1989.47" x2="2872.11" y2="1989.47" style="stroke:#A0A0A0;stroke-width:7.34"/>
	<line x1="2892.28" y1="1989.47" x2="2895.13" y2="1989.47" style="stroke:#A0A0A0;stroke-width:7.34"/>
	<line x1="2915.30" y1="1989.47" x2="2918.15" y2="1989.47" style="stroke:#A0A0A0;stroke-width:7.34"/>
	<line x1="2938.32" y1="1989.47" x2="2941.17" y2="1989.47" style="stroke:#A0A0A0;stroke-width:7.34"/>
	<line x1="2961.34" y1="1989.47" x2="2964.18" y2="1989.47" style="stroke:#A0A0A0;stroke-width:7.34"/>
	<line x1="2984.36" y1="1989.47" x2="2986.09" y2="1989.47" style="stroke:#A0A0A0;stroke-width:7.34"/>
	<line x1="2986.09" y1="1989.47" x2="2987.20" y2="1989.47" style="stroke:#A0A0A0;stroke-width:7.34"/>
	<line x1="3007.37" y1="1989.47" x2="3010.22" y2="1989.47" style="stroke:#A0A0A0;stroke-width:7.34"/>
	<line x1="3030.39" y1="1989.47" x2="3033.36" y2="1989.47" style="stroke:#A0A0A0;stroke-width:7.34"/>
	<line x1="3053.41" y1="1989.47" x2="3056.38" y2="1989.47" style="stroke:#A0A0A0;stroke-width:7.34"/>
	<line x1="3076.55" y1="1989.47" x2="3079.39" y2="1989.47" style="stroke:#A0A0A0;stroke-width:7.34"/>
	<line x1="3099.57" y1="1989.47" x2="3102.41" y2="1989.47" style="stroke:#A0A0A0;stroke-width:7.34"/>
	<line x1="3122.58" y1="1989.47" x2="3125.43" y2="1989.47" style="stroke:#A0A0A0;stroke-width:7.34"/>
	<line x1="3145.60" y1="1989.47" x2="3148.45" y2="1989.47" style="stroke:#A0A0A0;stroke-width:7.34"/>
	<line x1="3168.62" y1="1989.47" x2="3171.47" y2="1989.47" style="stroke:#A0A0A0;stroke-width:7.34"/>
	<line x1="3191.64" y1="1989.47" x2="3194.48" y2="1989.47" style="stroke:#A0A0A0;stroke-width:7.34"/>
	<line x1="3214.65" y1="1989.47" x2="3217.50" y2="1989.47" style="stroke:#A0A0A0;stroke-width:7.34"/>
	<line x1="3237.67" y1="1989.47" x2="3239.16" y2="1989.47" style="stroke:#A0A0A0;stroke-width:7.34"/>
	<line x1="3239.16" y1="1989.47" x2="3240.52" y2="1989.47" style="stroke:#A0A0A0;stroke-width:7.34"/>
	<line x1="3260.69" y1="1989.47" x2="3263.53" y2="1989.47" style="stroke:#A0A0A0;stroke-width:7.34"/>
	<line x1="3283.71" y1="1989.47" x2="3286.68" y2="1989.47" style="stroke:#A0A0A0;stroke-width:7.34"/>
	<line x1="3306.72" y1="1989.47" x2="3309.69" y2="1989.47" style="stroke:#A0A0A0;stroke-width:7.34"/>
	<line x1="3329.86" y1="1989.47" x2="3332.71" y2="1989.47" style="stroke:#A0A0A0;stroke-width:7.34"/>
	<line x1="3352.88" y1="1989.47" x2="3355.73" y2="1989.47" style="stroke:#A0A0A0;stroke-width:7.34"/>
	<line x1="3375.90" y1="1989.47" x2="3378.75" y2="1989.47" style="stroke:#A0A0A0;stroke-width:7.34"/>
	<line x1="3398.92" y1="1989.47" x2="3401.76" y2="1989.47" style="stroke:#A0A0A0;stroke-width:7.34"/>
	<line x1="3421.93" y1="1989.47" x2="3424.78" y2="1989.47" style="stroke:#A0A0A0;stroke-width:7.34"/>
	<line x1="3444.95" y1="1989.47" x2="3447.80" y2="1989.47" style="stroke:#A0A0A0;stroke-width:7.34"/>
	<line x1="3467.97" y1="1989.47" x2="3470.82" y2="1989.47" style="stroke:#A0A0A0;stroke-width:7.34"/>
	<line x1="3490.99" y1="1989.47" x2="3492.22" y2="1989.47" style="stroke:#A0A0A0;stroke-width:7.34"/>
	<line x1="3492.22" y1="1989.47" x2="3493.83" y2="1989.47" style="stroke:#A0A0A0;stroke-width:7.34"/>
	<line x1="3514.01" y1="1989.47" x2="3516.85" y2="1989.47" style="stroke:#A0A0A0;stroke-width:7.34"/>
	<line x1="3537.02" y1="1989.47" x2="3539.99" y2="1989.47" style="stroke:#A0A0A0;stroke-width:7.34"/>
	<line x1="3560.04" y1="1989.47" x2="3563.01" y2="1989.47" style="stroke:#A0A0A0;stroke-width:7.34"/>
	<line x1="3583.18" y1="1989.47" x2="3586.03" y2="1989.47" style="stroke:#A0A0A0;stroke-width:7.34"/>
	<line x1="3606.20" y1="1989.47" x2="3609.05" y2="1989.47" style="stroke:#A0A0A0;stroke-width:7.34"/>
	<line x1="3629.22" y1="1989.47" x2="3632.06" y2="1989.47" style="stroke:#A0A0A0;stroke-width:7.34"/>
	<line x1="3652.23" y1="1989.47" x2="3655.08" y2="1989.47" style="stroke:#A0A0A0;stroke-width:7.34"/>
	<line x1="3675.25" y1="1989.47" x2="3678.10" y2="1989.47" style="stroke:#A0A0A0;stroke-width:7.34"/>
	<line x1="3698.27" y1="1989.47" x2="3701.11" y2="1989.47" style="stroke:#A0A0A0;stroke-width:7.34"/>
	<line x1="3721.29" y1="1989.47" x2="3724.13" y2="1989.47" style="stroke:#A0A0A0;stroke-width:7.34"/>
	<line x1="3744.30" y1="1989.47" x2="3745.29" y2="1989.47" style="stroke:#A0A0A0;stroke-width:7.34"/>
	<line x1="3745.29" y1="1989.47" x2="3747.15" y2="1989.47" style="stroke:#A0A0A0;stroke-width:7.34"/>
	<line x1="3767.32" y1="1989.47" x2="3770.17" y2="1989.47" style="stroke:#A0A0A0;stroke-width:7.34"/>
	<path d="" stroke-linejoin="round" style="fill:none;stroke:#A0A0A0;stroke-width:7.34"/>
	<path d=" M2201.39 2041.82 L2226.76 2041.69 L2252.13 2041.57 L2277.37 2041.44 L2302.74 2041.20 L2327.99 2041.07 L2353.35 2040.83 L2378.60 2040.58 L2403.97 2040.21 L2429.21 2039.83 L2454.58 2039.34 L2479.83 2038.84 L2505.20 2038.35 L2530.44 2037.61 L2555.81 2036.86 L2581.05 2035.87 L2606.42 2034.88 L2631.67 2033.77 L2657.04 2032.53 L2682.28 2031.05 L2707.65 2029.44 L2732.89 2027.71 L2758.26 2025.85 L2783.51 2023.87 L2808.88 2021.64 L2834.12 2019.29 L2859.49 2016.69 L2884.74 2014.09 L2910.11 2011.25 L2935.35 2008.15 L2960.72 2004.81 L2986.09 2001.35 L3011.33 1997.63 L3036.70 1993.55 L3061.95 1989.22 L3087.32 1984.52 L3112.56 1979.44 L3137.93 1973.87 L3163.17 1967.69 L3188.54 1961.00 L3213.79 1953.45 L3239.16 1945.16 L3264.40 1935.88 L3289.77 1925.73 L3315.01 1914.35 L3340.38 1901.60 L3365.63 1887.49 L3391.00 1871.90 L3416.24 1854.45 L3441.61 1835.02 L3466.86 1813.37 L3492.22 1789.36 L3517.47 1762.50 L3542.84 1732.68 L3568.08 1699.39 L3593.45 1662.39 L3618.70 1621.05 L3644.07 1575.14 L3669.31 1523.91 L3694.68 1466.98 L3719.93 1403.62 L3745.29 1333.08 L3770.66 1254.62" stroke-linejoin="round" style="fill:none;stroke:#008000;stroke-width:7.34"/>
	<path d=" M2201.39 2041.32 L2226.76 2041.20 L2252.13 2040.95 L2277.37 2040.70 L2302.74 2040.45 L2327.99 2040.08 L2353.35 2039.59 L2378.60 2039.09 L2403.97 2038.60 L2429.21 2037.85 L2454.58 2037.11 L2479.83 2036.25 L2505.20 2035.13 L2530.44 2033.89 L2555.81 2032.53 L2581.05 2030.92 L2606.42 2029.19 L2631.67 2027.09 L2657.04 2024.86 L2682.28 2022.26 L2707.65 2019.42 L2732.89 2016.32 L2758.26 2012.98 L2783.51 2009.39 L2808.88 2005.43 L2834.12 2001.22 L2859.49 1996.77 L2884.74 1992.07 L2910.11 1986.87 L2935.35 1981.42 L2960.72 1975.61 L2986.09 1969.42 L3011.33 1962.74 L3036.70 1955.56 L3061.95 1947.89 L3087.32 1939.47 L3112.56 1930.31 L3137.93 1920.41 L3163.17 1909.52 L3188.54 1897.52 L3213.79 1884.15 L3239.16 1869.43 L3264.40 1852.97 L3289.77 1834.77 L3315.01 1814.48 L3340.38 1791.96 L3365.63 1766.83 L3391.00 1738.99 L3416.24 1707.93 L3441.61 1673.40 L3466.86 1634.91 L3492.22 1592.09 L3517.47 1544.45 L3542.84 1491.36 L3568.08 1432.20 L3593.45 1366.37 L3618.70 1292.98 L3644.07 1211.30 L3669.31 1120.34 L3694.68 1019.11 L3719.93 906.50 L3745.29 781.13 L3770.66 641.79" stroke-linejoin="round" style="fill:none;stroke:#FF7F00;stroke-width:7.34"/>
	<path d=" M2201.39 2042.06 L2226.76 2042.06 L2252.13 2041.94 L2277.37 2041.94 L2302.74 2041.82 L2327.99 2041.69 L2353.35 2041.57 L2378.60 2041.44 L2403.97 2041.32 L2429.21 2041.20 L2454.58 2040.95 L2479.83 2040.70 L2505.20 2040.45 L2530.44 2040.08 L2555.81 2039.71 L2581.05 2039.34 L2606.42 2038.84 L2631.67 2038.35 L2657.04 2037.73 L2682.28 2036.99 L2707.65 2036.25 L2732.89 2035.50 L2758.26 2034.51 L2783.51 2033.65 L2808.88 2032.53 L2834.12 2031.42 L2859.49 2030.31 L2884.74 2028.94 L2910.11 2027.58 L2935.35 2026.22 L2960.72 2024.61 L2986.09 2023.00 L3011.33 2021.27 L3036.70 2019.29 L3061.95 2017.31 L3087.32 2015.08 L3112.56 2012.61 L3137.93 2010.01 L3163.17 2007.04 L3188.54 2003.95 L3213.79 2000.36 L3239.16 1996.40 L3264.40 1992.07 L3289.77 1987.24 L3315.01 1981.92 L3340.38 1975.85 L3365.63 1969.17 L3391.00 1961.87 L3416.24 1953.58 L3441.61 1944.42 L3466.86 1934.15 L3492.22 1922.89 L3517.47 1910.14 L3542.84 1896.03 L3568.08 1880.32 L3593.45 1862.87 L3618.70 1843.31 L3644.07 1821.66 L3669.31 1797.40 L3694.68 1770.55 L3719.93 1740.47 L3745.29 1707.18 L3770.66 1670.06" stroke-linejoin="round" style="fill:none;stroke:#1A476F;stroke-width:7.34"/>
	<line x1="401.69" y1="2096.14" x2="401.69" y2="402.82" style="stroke:#000000;stroke-width:4.90"/>
	<line x1="401.69" y1="2042.31" x2="367.66" y2="2042.31" style="stroke:#000000;stroke-width:4.90"/>
	<text x="350.71" y="2072.10" style="font-family:'Helvetica';font-size:85.02px;fill:#000000" text-anchor="end">0</text>
	<line x1="401.69" y1="1795.54" x2="367.66" y2="1795.54" style="stroke:#000000;stroke-width:4.90"/>
	<text x="350.71" y="1825.33" style="font-family:'Helvetica';font-size:85.02px;fill:#000000" text-anchor="end">.001</text>
	<line x1="401.69" y1="1548.66" x2="367.66" y2="1548.66" style="stroke:#000000;stroke-width:4.90"/>
	<text x="350.71" y="1578.44" style="font-family:'Helvetica';font-size:85.02px;fill:#000000" text-anchor="end">.002</text>
	<line x1="401.69" y1="1301.89" x2="367.66" y2="1301.89" style="stroke:#000000;stroke-width:4.90"/>
	<text x="350.71" y="1331.68" style="font-family:'Helvetica';font-size:85.02px;fill:#000000" text-anchor="end">.003</text>
	<line x1="401.69" y1="1055.13" x2="367.66" y2="1055.13" style="stroke:#000000;stroke-width:4.90"/>
	<text x="350.71" y="1084.91" style="font-family:'Helvetica';font-size:85.02px;fill:#000000" text-anchor="end">.004</text>
	<line x1="401.69" y1="808.36" x2="367.66" y2="808.36" style="stroke:#000000;stroke-width:4.90"/>
	<text x="350.71" y="838.15" style="font-family:'Helvetica';font-size:85.02px;fill:#000000" text-anchor="end">.005</text>
	<line x1="401.69" y1="2096.14" x2="2078.51" y2="2096.14" style="stroke:#000000;stroke-width:4.90"/>
	<line x1="506.14" y1="2096.14" x2="506.14" y2="2113.10" style="stroke:#000000;stroke-width:4.90"/>
	<line x1="632.73" y1="2096.14" x2="632.73" y2="2113.10" style="stroke:#000000;stroke-width:4.90"/>
	<line x1="759.21" y1="2096.14" x2="759.21" y2="2113.10" style="stroke:#000000;stroke-width:4.90"/>
	<line x1="885.80" y1="2096.14" x2="885.80" y2="2113.10" style="stroke:#000000;stroke-width:4.90"/>
	<line x1="1012.27" y1="2096.14" x2="1012.27" y2="2113.10" style="stroke:#000000;stroke-width:4.90"/>
	<line x1="1138.87" y1="2096.14" x2="1138.87" y2="2113.10" style="stroke:#000000;stroke-width:4.90"/>
	<line x1="1265.47" y1="2096.14" x2="1265.47" y2="2113.10" style="stroke:#000000;stroke-width:4.90"/>
	<line x1="1391.94" y1="2096.14" x2="1391.94" y2="2113.10" style="stroke:#000000;stroke-width:4.90"/>
	<line x1="1518.54" y1="2096.14" x2="1518.54" y2="2113.10" style="stroke:#000000;stroke-width:4.90"/>
	<line x1="1645.01" y1="2096.14" x2="1645.01" y2="2113.10" style="stroke:#000000;stroke-width:4.90"/>
	<line x1="1771.61" y1="2096.14" x2="1771.61" y2="2113.10" style="stroke:#000000;stroke-width:4.90"/>
	<line x1="1898.20" y1="2096.14" x2="1898.20" y2="2113.10" style="stroke:#000000;stroke-width:4.90"/>
	<line x1="2024.67" y1="2096.14" x2="2024.67" y2="2113.10" style="stroke:#000000;stroke-width:4.90"/>
	<line x1="506.14" y1="2096.14" x2="506.14" y2="2130.18" style="stroke:#000000;stroke-width:4.90"/>
	<text x="506.14" y="2206.58" style="font-family:'Helvetica';font-size:85.02px;fill:#000000" text-anchor="middle">20</text>
	<line x1="1012.27" y1="2096.14" x2="1012.27" y2="2130.18" style="stroke:#000000;stroke-width:4.90"/>
	<text x="1012.27" y="2206.58" style="font-family:'Helvetica';font-size:85.02px;fill:#000000" text-anchor="middle">40</text>
	<line x1="1518.54" y1="2096.14" x2="1518.54" y2="2130.18" style="stroke:#000000;stroke-width:4.90"/>
	<text x="1518.54" y="2206.58" style="font-family:'Helvetica';font-size:85.02px;fill:#000000" text-anchor="middle">60</text>
	<line x1="2024.67" y1="2096.14" x2="2024.67" y2="2130.18" style="stroke:#000000;stroke-width:4.90"/>
	<text x="2024.67" y="2206.58" style="font-family:'Helvetica';font-size:85.02px;fill:#000000" text-anchor="middle">80</text>
	<line x1="2147.68" y1="2096.14" x2="3824.49" y2="2096.14" style="stroke:#000000;stroke-width:4.90"/>
	<line x1="2252.13" y1="2096.14" x2="2252.13" y2="2113.10" style="stroke:#000000;stroke-width:4.90"/>
	<line x1="2378.72" y1="2096.14" x2="2378.72" y2="2113.10" style="stroke:#000000;stroke-width:4.90"/>
	<line x1="2505.20" y1="2096.14" x2="2505.20" y2="2113.10" style="stroke:#000000;stroke-width:4.90"/>
	<line x1="2631.79" y1="2096.14" x2="2631.79" y2="2113.10" style="stroke:#000000;stroke-width:4.90"/>
	<line x1="2758.26" y1="2096.14" x2="2758.26" y2="2113.10" style="stroke:#000000;stroke-width:4.90"/>
	<line x1="2884.86" y1="2096.14" x2="2884.86" y2="2113.10" style="stroke:#000000;stroke-width:4.90"/>
	<line x1="3011.46" y1="2096.14" x2="3011.46" y2="2113.10" style="stroke:#000000;stroke-width:4.90"/>
	<line x1="3137.93" y1="2096.14" x2="3137.93" y2="2113.10" style="stroke:#000000;stroke-width:4.90"/>
	<line x1="3264.53" y1="2096.14" x2="3264.53" y2="2113.10" style="stroke:#000000;stroke-width:4.90"/>
	<line x1="3391.00" y1="2096.14" x2="3391.00" y2="2113.10" style="stroke:#000000;stroke-width:4.90"/>
	<line x1="3517.59" y1="2096.14" x2="3517.59" y2="2113.10" style="stroke:#000000;stroke-width:4.90"/>
	<line x1="3644.07" y1="2096.14" x2="3644.07" y2="2113.10" style="stroke:#000000;stroke-width:4.90"/>
	<line x1="3770.66" y1="2096.14" x2="3770.66" y2="2113.10" style="stroke:#000000;stroke-width:4.90"/>
	<line x1="2252.13" y1="2096.14" x2="2252.13" y2="2130.18" style="stroke:#000000;stroke-width:4.90"/>
	<text x="2252.13" y="2206.58" style="font-family:'Helvetica';font-size:85.02px;fill:#000000" text-anchor="middle">20</text>
	<line x1="2758.26" y1="2096.14" x2="2758.26" y2="2130.18" style="stroke:#000000;stroke-width:4.90"/>
	<text x="2758.26" y="2206.58" style="font-family:'Helvetica';font-size:85.02px;fill:#000000" text-anchor="middle">40</text>
	<line x1="3264.53" y1="2096.14" x2="3264.53" y2="2130.18" style="stroke:#000000;stroke-width:4.90"/>
	<text x="3264.53" y="2206.58" style="font-family:'Helvetica';font-size:85.02px;fill:#000000" text-anchor="middle">60</text>
	<line x1="3770.66" y1="2096.14" x2="3770.66" y2="2130.18" style="stroke:#000000;stroke-width:4.90"/>
	<text x="3770.66" y="2206.58" style="font-family:'Helvetica';font-size:85.02px;fill:#000000" text-anchor="middle">80</text>
	<rect x="401.69" y="279.93" width="1676.81" height="122.89" style="fill:#D9E6EB"/>
	<rect x="404.14" y="282.38" width="1671.92" height="117.99" style="fill:none;stroke:#D9E6EB;stroke-width:4.90"/>
	<text x="1240.10" y="359.96" style="font-family:'Helvetica';font-size:93.56px;fill:#000000" text-anchor="middle">Female</text>
	<rect x="2147.68" y="279.93" width="1676.81" height="122.89" style="fill:#D9E6EB"/>
	<rect x="2150.13" y="282.38" width="1671.92" height="117.99" style="fill:none;stroke:#D9E6EB;stroke-width:4.90"/>
	<text x="2986.09" y="359.96" style="font-family:'Helvetica';font-size:93.56px;fill:#000000" text-anchor="middle">Male</text>
	<rect x="592.39" y="2418.27" width="2775.09" height="326.34" style="fill:#FFFFFF"/>
	<rect x="595.27" y="2421.15" width="2769.33" height="320.58" style="fill:none;stroke:#000000;stroke-width:5.76"/>
	<line x1="635.58" y1="2511.46" x2="1009.92" y2="2511.46" style="stroke:#008000;stroke-width:8.64"/>
	<line x1="635.58" y1="2651.43" x2="1009.92" y2="2651.43" style="stroke:#FF7F00;stroke-width:8.64"/>
	<line x1="1971.21" y1="2511.46" x2="2345.56" y2="2511.46" style="stroke:#1A476F;stroke-width:8.64"/>
	<line x1="1971.21" y1="2651.43" x2="1974.06" y2="2651.43" style="stroke:#A0A0A0;stroke-width:8.64"/>
	<line x1="1994.23" y1="2651.43" x2="1997.08" y2="2651.43" style="stroke:#A0A0A0;stroke-width:8.64"/>
	<line x1="2017.25" y1="2651.43" x2="2020.10" y2="2651.43" style="stroke:#A0A0A0;stroke-width:8.64"/>
	<line x1="2040.27" y1="2651.43" x2="2043.24" y2="2651.43" style="stroke:#A0A0A0;stroke-width:8.64"/>
	<line x1="2063.28" y1="2651.43" x2="2066.25" y2="2651.43" style="stroke:#A0A0A0;stroke-width:8.64"/>
	<line x1="2086.43" y1="2651.43" x2="2089.27" y2="2651.43" style="stroke:#A0A0A0;stroke-width:8.64"/>
	<line x1="2109.44" y1="2651.43" x2="2112.29" y2="2651.43" style="stroke:#A0A0A0;stroke-width:8.64"/>
	<line x1="2132.46" y1="2651.43" x2="2135.31" y2="2651.43" style="stroke:#A0A0A0;stroke-width:8.64"/>
	<line x1="2155.48" y1="2651.43" x2="2158.32" y2="2651.43" style="stroke:#A0A0A0;stroke-width:8.64"/>
	<line x1="2178.49" y1="2651.43" x2="2181.34" y2="2651.43" style="stroke:#A0A0A0;stroke-width:8.64"/>
	<line x1="2201.51" y1="2651.43" x2="2204.36" y2="2651.43" style="stroke:#A0A0A0;stroke-width:8.64"/>
	<line x1="2224.53" y1="2651.43" x2="2227.38" y2="2651.43" style="stroke:#A0A0A0;stroke-width:8.64"/>
	<line x1="2247.55" y1="2651.43" x2="2250.39" y2="2651.43" style="stroke:#A0A0A0;stroke-width:8.64"/>
	<line x1="2270.57" y1="2651.43" x2="2273.41" y2="2651.43" style="stroke:#A0A0A0;stroke-width:8.64"/>
	<line x1="2293.58" y1="2651.43" x2="2296.55" y2="2651.43" style="stroke:#A0A0A0;stroke-width:8.64"/>
	<line x1="2316.60" y1="2651.43" x2="2319.57" y2="2651.43" style="stroke:#A0A0A0;stroke-width:8.64"/>
	<line x1="2339.74" y1="2651.43" x2="2342.59" y2="2651.43" style="stroke:#A0A0A0;stroke-width:8.64"/>
	<text x="1069.94" y="2546.49" style="font-family:'Helvetica';font-size:99.99px;fill:#000000">1 comorbidity</text>
	<text x="1069.94" y="2686.46" style="font-family:'Helvetica';font-size:99.99px;fill:#000000">2+ comorbidities</text>
	<text x="2405.58" y="2546.49" style="font-family:'Helvetica';font-size:99.99px;fill:#000000">No comborbidity</text>
	<text x="2405.58" y="2686.46" style="font-family:'Helvetica';font-size:99.99px;fill:#000000">Ref (Age 65, White)</text>
	<text x="1980.00" y="2353.56" style="font-family:'Helvetica';font-size:99.99px;fill:#000000" text-anchor="middle">Age (years)</text>
	<text x="1980.00" y="195.01" style="font-family:'Helvetica';font-size:110.01px;fill:#000000" text-anchor="middle">Ethnicity Asian</text>
</svg>
