<?xml version="1.0" encoding="UTF-8" standalone="no"?>
<!-- This is a Stata 16.1 generated SVG file (http://www.stata.com) -->

<svg version="1.1" width="1600px" height="1164px" viewBox="0 0 3960 2880" xmlns="http://www.w3.org/2000/svg" xmlns:xlink="http://www.w3.org/1999/xlink">
	<desc>Stata Graph - Graph</desc>
	<rect x="0" y="0" width="3960" height="2880" style="fill:#EAF2F3;stroke:none"/>
	<rect x="0.00" y="0.00" width="3959.88" height="2880.00" style="fill:#EAF2F3"/>
	<rect x="2.88" y="2.88" width="3954.12" height="2874.24" style="fill:none;stroke:#EAF2F3;stroke-width:5.76"/>
	<rect x="401.69" y="258.27" width="1676.81" height="1557.81" style="fill:#FFFFFF"/>
	<rect x="404.14" y="260.72" width="1671.92" height="1552.92" style="fill:none;stroke:#FFFFFF;stroke-width:4.90"/>
	<line x1="401.69" y1="1762.26" x2="2078.51" y2="1762.26" style="stroke:#EAF2F3;stroke-width:7.34"/>
	<line x1="401.69" y1="1472.30" x2="2078.51" y2="1472.30" style="stroke:#EAF2F3;stroke-width:7.34"/>
	<line x1="401.69" y1="1182.22" x2="2078.51" y2="1182.22" style="stroke:#EAF2F3;stroke-width:7.34"/>
	<line x1="401.69" y1="892.14" x2="2078.51" y2="892.14" style="stroke:#EAF2F3;stroke-width:7.34"/>
	<line x1="401.69" y1="602.19" x2="2078.51" y2="602.19" style="stroke:#EAF2F3;stroke-width:7.34"/>
	<line x1="401.69" y1="312.11" x2="2078.51" y2="312.11" style="stroke:#EAF2F3;stroke-width:7.34"/>
	<rect x="2147.68" y="258.27" width="1676.81" height="1557.81" style="fill:#FFFFFF"/>
	<rect x="2150.13" y="260.72" width="1671.92" height="1552.92" style="fill:none;stroke:#FFFFFF;stroke-width:4.90"/>
	<line x1="2147.68" y1="1762.26" x2="3824.49" y2="1762.26" style="stroke:#EAF2F3;stroke-width:7.34"/>
	<line x1="2147.68" y1="1472.30" x2="3824.49" y2="1472.30" style="stroke:#EAF2F3;stroke-width:7.34"/>
	<line x1="2147.68" y1="1182.22" x2="3824.49" y2="1182.22" style="stroke:#EAF2F3;stroke-width:7.34"/>
	<line x1="2147.68" y1="892.14" x2="3824.49" y2="892.14" style="stroke:#EAF2F3;stroke-width:7.34"/>
	<line x1="2147.68" y1="602.19" x2="3824.49" y2="602.19" style="stroke:#EAF2F3;stroke-width:7.34"/>
	<line x1="2147.68" y1="312.11" x2="3824.49" y2="312.11" style="stroke:#EAF2F3;stroke-width:7.34"/>
	<defs>
		<path id="path_nurUhVlM" d="M455.52 1762.26 L455.52 1762.26 L480.89 1762.26 L506.14 1762.26 L531.51 1762.13 L556.75 1762.13 L582.12 1762.13 L607.37 1762.13 L632.73 1762.01 L657.98 1762.01 L683.35 1761.88 L708.59 1761.76 L733.96 1761.76 L759.21 1761.64 L784.58 1761.51 L809.82 1761.27 L835.19 1761.14 L860.43 1760.89 L885.80 1760.65 L911.05 1760.40 L936.42 1760.03 L961.66 1759.66 L987.03 1759.28 L1012.27 1758.91 L1037.64 1758.42 L1062.89 1757.92 L1088.26 1757.43 L1113.50 1756.81 L1138.87 1756.19 L1164.24 1755.45 L1189.48 1754.71 L1214.85 1753.84 L1240.10 1752.97 L1265.47 1751.98 L1290.71 1750.87 L1316.08 1749.63 L1341.33 1748.27 L1366.69 1746.91 L1391.94 1745.30 L1417.31 1743.44 L1442.55 1741.59 L1467.92 1739.48 L1493.17 1737.13 L1518.54 1734.53 L1543.78 1731.56 L1569.15 1728.35 L1594.39 1724.76 L1619.76 1720.80 L1645.01 1716.34 L1670.38 1711.39 L1695.62 1705.82 L1720.99 1699.64 L1746.24 1692.83 L1771.61 1685.16 L1796.85 1676.62 L1822.22 1667.09 L1847.46 1656.45 L1872.83 1644.57 L1898.20 1631.45 L1923.45 1616.72 L1948.82 1600.26 L1974.06 1581.95 L1999.43 1561.65 L2024.67 1539.00 L2024.67 1489.13 L1999.43 1516.85 L1974.06 1541.73 L1948.82 1564.00 L1923.45 1584.05 L1898.20 1601.99 L1872.83 1618.08 L1847.46 1632.56 L1822.22 1645.43 L1796.85 1657.06 L1771.61 1667.58 L1746.24 1676.99 L1720.99 1685.28 L1695.62 1692.83 L1670.38 1699.64 L1645.01 1705.70 L1619.76 1711.27 L1594.39 1716.09 L1569.15 1720.55 L1543.78 1724.51 L1518.54 1727.98 L1493.17 1731.19 L1467.92 1734.04 L1442.55 1736.64 L1417.31 1738.87 L1391.94 1740.97 L1366.69 1742.83 L1341.33 1744.43 L1316.08 1746.04 L1290.71 1747.40 L1265.47 1748.77 L1240.10 1749.88 L1214.85 1750.99 L1189.48 1752.11 L1164.24 1752.97 L1138.87 1753.96 L1113.50 1754.71 L1088.26 1755.57 L1062.89 1756.19 L1037.64 1756.93 L1012.27 1757.43 L987.03 1758.05 L961.66 1758.54 L936.42 1758.91 L911.05 1759.28 L885.80 1759.66 L860.43 1759.90 L835.19 1760.15 L809.82 1760.40 L784.58 1760.65 L759.21 1760.77 L733.96 1761.02 L708.59 1761.14 L683.35 1761.27 L657.98 1761.39 L632.73 1761.39 L607.37 1761.51 L582.12 1761.64 L556.75 1761.64 L531.51 1761.76 L506.14 1761.76 L480.89 1761.88 L455.52 1761.88 L455.52 1762.26 Z" stroke-linejoin="round"/>
	</defs>
	<defs>
		<clipPath id="clipPath_ZlXDZych">
			<use xlink:href="#path_nurUhVlM"/>
		</clipPath>
	</defs>
	<use xlink:href="#path_nurUhVlM" style="stroke:none;fill:#E6E6E6"/>
	<use xlink:href="#path_nurUhVlM" style="fill:none;stroke:#E0E0E0;stroke-width:14.69" clip-path="url(#clipPath_ZlXDZych)"/>
	<defs>
		<path id="path_dKdYbwit" d="M455.52 1762.13 L455.52 1762.13 L480.89 1762.13 L506.14 1762.13 L531.51 1762.13 L556.75 1762.01 L582.12 1762.01 L607.37 1762.01 L632.73 1761.88 L657.98 1761.76 L683.35 1761.64 L708.59 1761.51 L733.96 1761.39 L759.21 1761.14 L784.58 1760.89 L809.82 1760.65 L835.19 1760.40 L860.43 1760.03 L885.80 1759.66 L911.05 1759.16 L936.42 1758.67 L961.66 1758.17 L987.03 1757.55 L1012.27 1756.93 L1037.64 1756.19 L1062.89 1755.45 L1088.26 1754.58 L1113.50 1753.72 L1138.87 1752.73 L1164.24 1751.61 L1189.48 1750.37 L1214.85 1749.14 L1240.10 1747.65 L1265.47 1746.17 L1290.71 1744.43 L1316.08 1742.58 L1341.33 1740.60 L1366.69 1738.37 L1391.94 1735.90 L1417.31 1733.30 L1442.55 1730.33 L1467.92 1727.11 L1493.17 1723.40 L1518.54 1719.44 L1543.78 1714.86 L1569.15 1709.91 L1594.39 1704.46 L1619.76 1698.27 L1645.01 1691.34 L1670.38 1683.67 L1695.62 1675.26 L1720.99 1665.73 L1746.24 1655.08 L1771.61 1643.33 L1796.85 1630.21 L1822.22 1615.48 L1847.46 1599.15 L1872.83 1580.83 L1898.20 1560.54 L1923.45 1537.89 L1948.82 1512.52 L1974.06 1484.43 L1999.43 1453.12 L2024.67 1418.10 L2024.67 1264.52 L1999.43 1315.01 L1974.06 1360.43 L1948.82 1401.02 L1923.45 1437.52 L1898.20 1470.20 L1872.83 1499.65 L1847.46 1525.89 L1822.22 1549.52 L1796.85 1570.81 L1771.61 1589.74 L1746.24 1606.82 L1720.99 1622.17 L1695.62 1635.90 L1670.38 1648.28 L1645.01 1659.29 L1619.76 1669.32 L1594.39 1678.23 L1569.15 1686.27 L1543.78 1693.45 L1518.54 1699.88 L1493.17 1705.70 L1467.92 1710.90 L1442.55 1715.60 L1417.31 1719.81 L1391.94 1723.52 L1366.69 1726.99 L1341.33 1730.08 L1316.08 1732.93 L1290.71 1735.52 L1265.47 1737.88 L1240.10 1740.10 L1214.85 1742.08 L1189.48 1743.94 L1164.24 1745.67 L1138.87 1747.28 L1113.50 1748.77 L1088.26 1750.25 L1062.89 1751.49 L1037.64 1752.60 L1012.27 1753.72 L987.03 1754.71 L961.66 1755.57 L936.42 1756.31 L911.05 1757.06 L885.80 1757.68 L860.43 1758.17 L835.19 1758.67 L809.82 1759.04 L784.58 1759.41 L759.21 1759.78 L733.96 1760.03 L708.59 1760.28 L683.35 1760.52 L657.98 1760.65 L632.73 1760.89 L607.37 1761.02 L582.12 1761.14 L556.75 1761.27 L531.51 1761.39 L506.14 1761.51 L480.89 1761.51 L455.52 1761.64 L455.52 1762.13 Z" stroke-linejoin="round"/>
	</defs>
	<defs>
		<clipPath id="clipPath_JSMOCeug">
			<use xlink:href="#path_dKdYbwit"/>
		</clipPath>
	</defs>
	<use xlink:href="#path_dKdYbwit" style="stroke:none;fill:#E6E6E6"/>
	<use xlink:href="#path_dKdYbwit" style="fill:none;stroke:#E0E0E0;stroke-width:14.69" clip-path="url(#clipPath_JSMOCeug)"/>
	<defs>
		<path id="path_ZpSkKTCZ" d="M455.52 1762.26 L455.52 1762.26 L480.89 1762.26 L506.14 1762.13 L531.51 1762.13 L556.75 1762.13 L582.12 1762.13 L607.37 1762.01 L632.73 1762.01 L657.98 1761.88 L683.35 1761.88 L708.59 1761.76 L733.96 1761.64 L759.21 1761.51 L784.58 1761.27 L809.82 1761.14 L835.19 1760.89 L860.43 1760.65 L885.80 1760.28 L911.05 1760.03 L936.42 1759.66 L961.66 1759.28 L987.03 1758.79 L1012.27 1758.29 L1037.64 1757.80 L1062.89 1757.18 L1088.26 1756.56 L1113.50 1755.94 L1138.87 1755.20 L1164.24 1754.33 L1189.48 1753.47 L1214.85 1752.48 L1240.10 1751.36 L1265.47 1750.25 L1290.71 1749.01 L1316.08 1747.65 L1341.33 1746.04 L1366.69 1744.43 L1391.94 1742.58 L1417.31 1740.60 L1442.55 1738.37 L1467.92 1735.90 L1493.17 1733.17 L1518.54 1730.20 L1543.78 1726.86 L1569.15 1723.03 L1594.39 1718.94 L1619.76 1714.36 L1645.01 1709.16 L1670.38 1703.47 L1695.62 1697.04 L1720.99 1689.98 L1746.24 1681.94 L1771.61 1673.15 L1796.85 1663.25 L1822.22 1652.24 L1847.46 1639.99 L1872.83 1626.37 L1898.20 1611.03 L1923.45 1594.07 L1948.82 1575.14 L1974.06 1553.98 L1999.43 1530.46 L2024.67 1504.35 L2024.67 1417.48 L1999.43 1452.50 L1974.06 1483.93 L1948.82 1512.02 L1923.45 1537.27 L1898.20 1560.04 L1872.83 1580.34 L1847.46 1598.53 L1822.22 1614.86 L1796.85 1629.59 L1771.61 1642.71 L1746.24 1654.59 L1720.99 1665.23 L1695.62 1674.76 L1670.38 1683.30 L1645.01 1690.97 L1619.76 1697.78 L1594.39 1703.97 L1569.15 1709.54 L1543.78 1714.61 L1518.54 1719.06 L1493.17 1723.03 L1467.92 1726.61 L1442.55 1729.83 L1417.31 1732.80 L1391.94 1735.40 L1366.69 1737.75 L1341.33 1739.86 L1316.08 1741.84 L1290.71 1743.57 L1265.47 1745.30 L1240.10 1746.79 L1214.85 1748.15 L1189.48 1749.51 L1164.24 1750.75 L1138.87 1751.86 L1113.50 1752.85 L1088.26 1753.84 L1062.89 1754.71 L1037.64 1755.57 L1012.27 1756.31 L987.03 1756.93 L961.66 1757.55 L936.42 1758.17 L911.05 1758.54 L885.80 1759.04 L860.43 1759.41 L835.19 1759.78 L809.82 1760.03 L784.58 1760.28 L759.21 1760.52 L733.96 1760.65 L708.59 1760.89 L683.35 1761.02 L657.98 1761.14 L632.73 1761.27 L607.37 1761.39 L582.12 1761.51 L556.75 1761.51 L531.51 1761.64 L506.14 1761.76 L480.89 1761.76 L455.52 1761.88 L455.52 1762.26 Z" stroke-linejoin="round"/>
	</defs>
	<defs>
		<clipPath id="clipPath_mPoodSiQ">
			<use xlink:href="#path_ZpSkKTCZ"/>
		</clipPath>
	</defs>
	<use xlink:href="#path_ZpSkKTCZ" style="stroke:none;fill:#E6E6E6"/>
	<use xlink:href="#path_ZpSkKTCZ" style="fill:none;stroke:#E0E0E0;stroke-width:14.69" clip-path="url(#clipPath_mPoodSiQ)"/>
	<defs>
		<path id="path_aalnXlBV" d="M455.52 1762.26 L455.52 1762.26 L480.89 1762.26 L506.14 1762.26 L531.51 1762.13 L556.75 1762.13 L582.12 1762.13 L607.37 1762.13 L632.73 1762.01 L657.98 1762.01 L683.35 1761.88 L708.59 1761.88 L733.96 1761.76 L759.21 1761.64 L784.58 1761.51 L809.82 1761.27 L835.19 1761.14 L860.43 1760.89 L885.80 1760.65 L911.05 1760.40 L936.42 1760.15 L961.66 1759.78 L987.03 1759.41 L1012.27 1759.04 L1037.64 1758.54 L1062.89 1758.05 L1088.26 1757.55 L1113.50 1756.93 L1138.87 1756.31 L1164.24 1755.70 L1189.48 1754.95 L1214.85 1754.21 L1240.10 1753.22 L1265.47 1752.35 L1290.71 1751.24 L1316.08 1750.13 L1341.33 1748.89 L1366.69 1747.40 L1391.94 1745.92 L1417.31 1744.19 L1442.55 1742.45 L1467.92 1740.35 L1493.17 1738.12 L1518.54 1735.52 L1543.78 1732.80 L1569.15 1729.71 L1594.39 1726.24 L1619.76 1722.41 L1645.01 1718.07 L1670.38 1713.37 L1695.62 1708.05 L1720.99 1702.11 L1746.24 1695.43 L1771.61 1688.13 L1796.85 1679.83 L1822.22 1670.68 L1847.46 1660.53 L1872.83 1649.02 L1898.20 1636.40 L1923.45 1622.17 L1948.82 1606.33 L1974.06 1588.75 L1999.43 1569.20 L2024.67 1547.29 L2024.67 1489.01 L1999.43 1516.73 L1974.06 1541.60 L1948.82 1563.88 L1923.45 1583.93 L1898.20 1601.87 L1872.83 1617.96 L1847.46 1632.44 L1822.22 1645.43 L1796.85 1657.06 L1771.61 1667.46 L1746.24 1676.86 L1720.99 1685.28 L1695.62 1692.83 L1670.38 1699.64 L1645.01 1705.70 L1619.76 1711.14 L1594.39 1716.09 L1569.15 1720.43 L1543.78 1724.39 L1518.54 1727.98 L1493.17 1731.07 L1467.92 1734.04 L1442.55 1736.51 L1417.31 1738.87 L1391.94 1740.97 L1366.69 1742.83 L1341.33 1744.43 L1316.08 1746.04 L1290.71 1747.40 L1265.47 1748.77 L1240.10 1750.00 L1214.85 1751.12 L1189.48 1752.11 L1164.24 1753.10 L1138.87 1753.96 L1113.50 1754.83 L1088.26 1755.57 L1062.89 1756.19 L1037.64 1756.93 L1012.27 1757.55 L987.03 1758.05 L961.66 1758.54 L936.42 1758.91 L911.05 1759.28 L885.80 1759.66 L860.43 1759.90 L835.19 1760.28 L809.82 1760.40 L784.58 1760.65 L759.21 1760.77 L733.96 1761.02 L708.59 1761.14 L683.35 1761.27 L657.98 1761.39 L632.73 1761.51 L607.37 1761.51 L582.12 1761.64 L556.75 1761.76 L531.51 1761.76 L506.14 1761.76 L480.89 1761.88 L455.52 1761.88 L455.52 1762.26 Z" stroke-linejoin="round"/>
	</defs>
	<defs>
		<clipPath id="clipPath_xBgDOSHm">
			<use xlink:href="#path_aalnXlBV"/>
		</clipPath>
	</defs>
	<use xlink:href="#path_aalnXlBV" style="stroke:none;fill:#E6E6E6"/>
	<use xlink:href="#path_aalnXlBV" style="fill:none;stroke:#E0E0E0;stroke-width:14.69" clip-path="url(#clipPath_xBgDOSHm)"/>
	<defs>
		<path id="path_NTqdniOM" d="M455.52 1762.13 L455.52 1762.13 L480.89 1762.13 L506.14 1762.13 L531.51 1762.01 L556.75 1762.01 L582.12 1761.88 L607.37 1761.88 L632.73 1761.76 L657.98 1761.64 L683.35 1761.51 L708.59 1761.39 L733.96 1761.14 L759.21 1760.89 L784.58 1760.65 L809.82 1760.28 L835.19 1760.03 L860.43 1759.53 L885.80 1759.16 L911.05 1758.67 L936.42 1758.05 L961.66 1757.43 L987.03 1756.69 L1012.27 1755.94 L1037.64 1755.20 L1062.89 1754.33 L1088.26 1753.34 L1113.50 1752.23 L1138.87 1751.12 L1164.24 1749.88 L1189.48 1748.52 L1214.85 1747.03 L1240.10 1745.42 L1265.47 1743.57 L1290.71 1741.71 L1316.08 1739.61 L1341.33 1737.26 L1366.69 1734.78 L1391.94 1732.06 L1417.31 1728.97 L1442.55 1725.62 L1467.92 1721.91 L1493.17 1717.70 L1518.54 1713.12 L1543.78 1708.05 L1569.15 1702.36 L1594.39 1695.92 L1619.76 1688.87 L1645.01 1681.07 L1670.38 1672.29 L1695.62 1662.51 L1720.99 1651.74 L1746.24 1639.61 L1771.61 1626.13 L1796.85 1611.03 L1822.22 1594.20 L1847.46 1575.51 L1872.83 1554.72 L1898.20 1531.45 L1923.45 1505.47 L1948.82 1476.63 L1974.06 1444.46 L1999.43 1408.57 L2024.67 1368.59 L2024.67 903.40 L1999.43 990.53 L1974.06 1068.74 L1948.82 1138.91 L1923.45 1201.90 L1898.20 1258.33 L1872.83 1309.07 L1847.46 1354.49 L1822.22 1395.32 L1796.85 1431.96 L1771.61 1464.75 L1746.24 1494.20 L1720.99 1520.69 L1695.62 1544.32 L1670.38 1565.61 L1645.01 1584.79 L1619.76 1601.87 L1594.39 1617.34 L1569.15 1631.08 L1543.78 1643.58 L1518.54 1654.71 L1493.17 1664.74 L1467.92 1673.77 L1442.55 1681.82 L1417.31 1689.12 L1391.94 1695.68 L1366.69 1701.62 L1341.33 1707.06 L1316.08 1712.01 L1290.71 1716.47 L1265.47 1720.55 L1240.10 1724.39 L1214.85 1727.85 L1189.48 1731.19 L1164.24 1734.16 L1138.87 1736.89 L1113.50 1739.48 L1088.26 1741.84 L1062.89 1744.06 L1037.64 1746.04 L1012.27 1747.90 L987.03 1749.51 L961.66 1750.99 L936.42 1752.35 L911.05 1753.59 L885.80 1754.58 L860.43 1755.57 L835.19 1756.31 L809.82 1757.06 L784.58 1757.68 L759.21 1758.29 L733.96 1758.67 L708.59 1759.16 L683.35 1759.53 L657.98 1759.78 L632.73 1760.15 L607.37 1760.40 L582.12 1760.52 L556.75 1760.77 L531.51 1760.89 L506.14 1761.14 L480.89 1761.27 L455.52 1761.39 L455.52 1762.13 Z" stroke-linejoin="round"/>
	</defs>
	<defs>
		<clipPath id="clipPath_IKRbjhIT">
			<use xlink:href="#path_NTqdniOM"/>
		</clipPath>
	</defs>
	<use xlink:href="#path_NTqdniOM" style="stroke:none;fill:#E6E6E6"/>
	<use xlink:href="#path_NTqdniOM" style="fill:none;stroke:#E0E0E0;stroke-width:14.69" clip-path="url(#clipPath_IKRbjhIT)"/>
	<defs>
		<path id="path_plbnCKiB" d="M455.52 1762.13 L455.52 1762.13 L480.89 1762.13 L506.14 1762.01 L531.51 1762.01 L556.75 1762.01 L582.12 1761.88 L607.37 1761.76 L632.73 1761.64 L657.98 1761.51 L683.35 1761.39 L708.59 1761.14 L733.96 1760.89 L759.21 1760.65 L784.58 1760.28 L809.82 1759.90 L835.19 1759.53 L860.43 1759.04 L885.80 1758.42 L911.05 1757.80 L936.42 1757.06 L961.66 1756.31 L987.03 1755.45 L1012.27 1754.58 L1037.64 1753.47 L1062.89 1752.35 L1088.26 1751.24 L1113.50 1749.88 L1138.87 1748.39 L1164.24 1746.91 L1189.48 1745.18 L1214.85 1743.32 L1240.10 1741.34 L1265.47 1739.11 L1290.71 1736.64 L1316.08 1734.04 L1341.33 1731.07 L1366.69 1727.98 L1391.94 1724.51 L1417.31 1720.67 L1442.55 1716.47 L1467.92 1711.76 L1493.17 1706.57 L1518.54 1700.75 L1543.78 1694.31 L1569.15 1687.26 L1594.39 1679.34 L1619.76 1670.55 L1645.01 1660.65 L1670.38 1649.76 L1695.62 1637.51 L1720.99 1623.90 L1746.24 1608.80 L1771.61 1591.85 L1796.85 1573.04 L1822.22 1552.00 L1847.46 1528.61 L1872.83 1502.37 L1898.20 1473.29 L1923.45 1440.87 L1948.82 1404.73 L1974.06 1364.39 L1999.43 1319.46 L2024.67 1269.47 L2024.67 984.34 L1999.43 1063.17 L1974.06 1134.08 L1948.82 1197.57 L1923.45 1254.62 L1898.20 1305.73 L1872.83 1351.64 L1847.46 1392.85 L1822.22 1429.85 L1796.85 1462.89 L1771.61 1492.72 L1746.24 1519.33 L1720.99 1543.33 L1695.62 1564.74 L1670.38 1584.05 L1645.01 1601.38 L1619.76 1616.97 L1594.39 1630.83 L1569.15 1643.45 L1543.78 1654.71 L1518.54 1664.74 L1493.17 1673.89 L1467.92 1681.94 L1442.55 1689.24 L1417.31 1695.80 L1391.94 1701.74 L1366.69 1707.18 L1341.33 1712.01 L1316.08 1716.47 L1290.71 1720.55 L1265.47 1724.26 L1240.10 1727.73 L1214.85 1730.82 L1189.48 1733.79 L1164.24 1736.51 L1138.87 1738.99 L1113.50 1741.34 L1088.26 1743.57 L1062.89 1745.55 L1037.64 1747.28 L1012.27 1749.01 L987.03 1750.50 L961.66 1751.86 L936.42 1753.10 L911.05 1754.21 L885.80 1755.08 L860.43 1755.94 L835.19 1756.69 L809.82 1757.30 L784.58 1757.92 L759.21 1758.42 L733.96 1758.79 L708.59 1759.16 L683.35 1759.53 L657.98 1759.90 L632.73 1760.15 L607.37 1760.40 L582.12 1760.65 L556.75 1760.77 L531.51 1760.89 L506.14 1761.02 L480.89 1761.27 L455.52 1761.39 L455.52 1762.13 Z" stroke-linejoin="round"/>
	</defs>
	<defs>
		<clipPath id="clipPath_eXXiESUX">
			<use xlink:href="#path_plbnCKiB"/>
		</clipPath>
	</defs>
	<use xlink:href="#path_plbnCKiB" style="stroke:none;fill:#E6E6E6"/>
	<use xlink:href="#path_plbnCKiB" style="fill:none;stroke:#E0E0E0;stroke-width:14.69" clip-path="url(#clipPath_eXXiESUX)"/>
	<defs>
		<path id="path_FMnSjtDg" d="M455.52 1762.26 L455.52 1762.26 L480.89 1762.13 L506.14 1762.13 L531.51 1762.13 L556.75 1762.13 L582.12 1762.01 L607.37 1762.01 L632.73 1761.88 L657.98 1761.76 L683.35 1761.76 L708.59 1761.64 L733.96 1761.39 L759.21 1761.27 L784.58 1761.02 L809.82 1760.77 L835.19 1760.52 L860.43 1760.28 L885.80 1759.90 L911.05 1759.41 L936.42 1759.04 L961.66 1758.54 L987.03 1758.05 L1012.27 1757.43 L1037.64 1756.69 L1062.89 1756.07 L1088.26 1755.32 L1113.50 1754.46 L1138.87 1753.59 L1164.24 1752.60 L1189.48 1751.49 L1214.85 1750.25 L1240.10 1749.01 L1265.47 1747.65 L1290.71 1746.04 L1316.08 1744.43 L1341.33 1742.58 L1366.69 1740.60 L1391.94 1738.37 L1417.31 1735.90 L1442.55 1733.30 L1467.92 1730.20 L1493.17 1726.99 L1518.54 1723.27 L1543.78 1719.31 L1569.15 1714.73 L1594.39 1709.66 L1619.76 1704.09 L1645.01 1697.90 L1670.38 1690.97 L1695.62 1683.18 L1720.99 1674.64 L1746.24 1664.98 L1771.61 1654.34 L1796.85 1642.34 L1822.22 1628.97 L1847.46 1614.12 L1872.83 1597.54 L1898.20 1579.10 L1923.45 1558.56 L1948.82 1535.54 L1974.06 1510.04 L1999.43 1481.58 L2024.67 1449.78 L2024.67 1294.34 L1999.43 1341.74 L1974.06 1384.43 L1948.82 1422.67 L1923.45 1456.95 L1898.20 1487.65 L1872.83 1515.24 L1847.46 1540.12 L1822.22 1562.27 L1796.85 1582.19 L1771.61 1600.14 L1746.24 1616.10 L1720.99 1630.58 L1695.62 1643.45 L1670.38 1655.08 L1645.01 1665.48 L1619.76 1674.88 L1594.39 1683.30 L1569.15 1690.73 L1543.78 1697.53 L1518.54 1703.60 L1493.17 1709.04 L1467.92 1713.99 L1442.55 1718.32 L1417.31 1722.28 L1391.94 1725.87 L1366.69 1729.09 L1341.33 1732.06 L1316.08 1734.66 L1290.71 1737.13 L1265.47 1739.36 L1240.10 1741.46 L1214.85 1743.32 L1189.48 1745.05 L1164.24 1746.79 L1138.87 1748.27 L1113.50 1749.63 L1088.26 1750.99 L1062.89 1752.11 L1037.64 1753.22 L1012.27 1754.21 L987.03 1755.20 L961.66 1755.94 L936.42 1756.69 L911.05 1757.43 L885.80 1757.92 L860.43 1758.42 L835.19 1758.91 L809.82 1759.28 L784.58 1759.66 L759.21 1759.90 L733.96 1760.15 L708.59 1760.40 L683.35 1760.65 L657.98 1760.77 L632.73 1761.02 L607.37 1761.14 L582.12 1761.27 L556.75 1761.39 L531.51 1761.39 L506.14 1761.51 L480.89 1761.64 L455.52 1761.64 L455.52 1762.26 Z" stroke-linejoin="round"/>
	</defs>
	<defs>
		<clipPath id="clipPath_CvEofiWk">
			<use xlink:href="#path_FMnSjtDg"/>
		</clipPath>
	</defs>
	<use xlink:href="#path_FMnSjtDg" style="stroke:none;fill:#E6E6E6"/>
	<use xlink:href="#path_FMnSjtDg" style="fill:none;stroke:#E0E0E0;stroke-width:14.69" clip-path="url(#clipPath_CvEofiWk)"/>
	<path d=" M455.52 1762.13 L480.77 1762.01 L506.14 1762.01 L531.38 1761.88 L556.75 1761.88 L582.00 1761.76 L607.37 1761.64 L632.61 1761.64 L657.98 1761.39 L683.22 1761.27 L708.59 1761.14 L733.84 1760.89 L759.21 1760.65 L784.45 1760.40 L809.82 1760.03 L835.07 1759.66 L860.43 1759.28 L885.68 1758.79 L911.05 1758.29 L936.29 1757.68 L961.66 1757.06 L986.91 1756.31 L1012.27 1755.57 L1037.52 1754.71 L1062.89 1753.72 L1088.13 1752.73 L1113.50 1751.61 L1138.87 1750.37 L1164.12 1749.01 L1189.48 1747.65 L1214.73 1746.04 L1240.10 1744.31 L1265.34 1742.45 L1290.71 1740.47 L1315.96 1738.25 L1341.33 1735.90 L1366.57 1733.30 L1391.94 1730.45 L1417.18 1727.23 L1442.55 1723.64 L1467.80 1719.81 L1493.17 1715.48 L1518.41 1710.65 L1543.78 1705.20 L1569.03 1699.26 L1594.39 1692.58 L1619.64 1685.16 L1645.01 1676.86 L1670.25 1667.71 L1695.62 1657.44 L1720.87 1646.05 L1746.24 1633.30 L1771.48 1619.07 L1796.85 1603.23 L1822.10 1585.66 L1847.46 1565.98 L1872.71 1544.08 L1898.08 1519.57 L1923.45 1492.35 L1948.69 1462.03 L1974.06 1428.12 L1999.31 1390.50 L2024.67 1348.42" stroke-linejoin="round" style="fill:none;stroke:#008000;stroke-width:7.34"/>
	<path d=" M455.52 1762.13 L480.77 1762.13 L506.14 1762.13 L531.38 1762.01 L556.75 1762.01 L582.00 1761.88 L607.37 1761.88 L632.61 1761.76 L657.98 1761.64 L683.22 1761.64 L708.59 1761.51 L733.84 1761.27 L759.21 1761.14 L784.45 1760.89 L809.82 1760.77 L835.07 1760.40 L860.43 1760.15 L885.68 1759.78 L911.05 1759.41 L936.29 1759.04 L961.66 1758.54 L986.91 1758.05 L1012.27 1757.43 L1037.52 1756.81 L1062.89 1756.19 L1088.13 1755.45 L1113.50 1754.58 L1138.87 1753.72 L1164.12 1752.73 L1189.48 1751.74 L1214.73 1750.62 L1240.10 1749.38 L1265.34 1748.02 L1290.71 1746.54 L1315.96 1745.05 L1341.33 1743.32 L1366.57 1741.46 L1391.94 1739.36 L1417.18 1737.01 L1442.55 1734.53 L1467.80 1731.69 L1493.17 1728.59 L1518.41 1725.01 L1543.78 1721.17 L1569.03 1716.84 L1594.39 1712.13 L1619.64 1706.69 L1645.01 1700.75 L1670.25 1694.19 L1695.62 1686.77 L1720.87 1678.60 L1746.24 1669.32 L1771.48 1659.17 L1796.85 1647.78 L1822.10 1635.04 L1847.46 1620.80 L1872.71 1605.09 L1898.08 1587.39 L1923.45 1567.84 L1948.69 1545.93 L1974.06 1521.55 L1999.31 1494.33 L2024.67 1464.13" stroke-linejoin="round" style="fill:none;stroke:#55752F;stroke-width:7.34"/>
	<path d=" M455.52 1762.26 L480.77 1762.13 L506.14 1762.13 L531.38 1762.13 L556.75 1762.01 L582.00 1762.01 L607.37 1762.01 L632.61 1761.88 L657.98 1761.76 L683.22 1761.76 L708.59 1761.64 L733.84 1761.51 L759.21 1761.39 L784.45 1761.14 L809.82 1761.02 L835.07 1760.77 L860.43 1760.52 L885.68 1760.28 L911.05 1760.03 L936.29 1759.66 L961.66 1759.28 L986.91 1758.79 L1012.27 1758.42 L1037.52 1757.92 L1062.89 1757.30 L1088.13 1756.69 L1113.50 1756.07 L1138.87 1755.32 L1164.12 1754.58 L1189.48 1753.72 L1214.73 1752.85 L1240.10 1751.86 L1265.34 1750.75 L1290.71 1749.51 L1315.96 1748.27 L1341.33 1746.91 L1366.57 1745.30 L1391.94 1743.69 L1417.18 1741.84 L1442.55 1739.73 L1467.80 1737.38 L1493.17 1734.91 L1518.41 1732.06 L1543.78 1728.84 L1569.03 1725.38 L1594.39 1721.54 L1619.64 1717.21 L1645.01 1712.38 L1670.25 1706.94 L1695.62 1700.87 L1720.87 1694.19 L1746.24 1686.77 L1771.48 1678.47 L1796.85 1669.19 L1822.10 1658.92 L1847.46 1647.41 L1872.71 1634.54 L1898.08 1620.19 L1923.45 1604.22 L1948.69 1586.52 L1974.06 1566.72 L1999.31 1544.57 L2024.67 1519.94" stroke-linejoin="round" style="fill:none;stroke:#00FF00;stroke-width:7.34"/>
	<path d=" M455.52 1762.01 L480.77 1761.88 L506.14 1761.88 L531.38 1761.76 L556.75 1761.64 L582.00 1761.51 L607.37 1761.39 L632.61 1761.27 L657.98 1761.14 L683.22 1760.89 L708.59 1760.65 L733.84 1760.28 L759.21 1760.03 L784.45 1759.66 L809.82 1759.16 L835.07 1758.67 L860.43 1758.05 L885.68 1757.43 L911.05 1756.69 L936.29 1755.82 L961.66 1754.95 L986.91 1753.96 L1012.27 1752.85 L1037.52 1751.61 L1062.89 1750.25 L1088.13 1748.77 L1113.50 1747.28 L1138.87 1745.55 L1164.12 1743.69 L1189.48 1741.59 L1214.73 1739.36 L1240.10 1737.01 L1265.34 1734.41 L1290.71 1731.69 L1315.96 1728.59 L1341.33 1725.13 L1366.57 1721.54 L1391.94 1717.46 L1417.18 1713.00 L1442.55 1708.05 L1467.80 1702.48 L1493.17 1696.42 L1518.41 1689.61 L1543.78 1682.06 L1569.03 1673.65 L1594.39 1664.24 L1619.64 1653.85 L1645.01 1642.21 L1670.25 1629.34 L1695.62 1614.99 L1720.87 1598.90 L1746.24 1580.96 L1771.48 1561.03 L1796.85 1538.76 L1822.10 1514.00 L1847.46 1486.41 L1872.71 1455.59 L1898.08 1421.19 L1923.45 1382.95 L1948.69 1340.25 L1974.06 1292.73 L1999.31 1239.77 L2024.67 1180.86" stroke-linejoin="round" style="fill:none;stroke:#FFD200;stroke-width:7.34"/>
	<path d=" M455.52 1762.01 L480.77 1761.88 L506.14 1761.88 L531.38 1761.76 L556.75 1761.64 L582.00 1761.51 L607.37 1761.39 L632.61 1761.14 L657.98 1761.02 L683.22 1760.77 L708.59 1760.52 L733.84 1760.15 L759.21 1759.78 L784.45 1759.41 L809.82 1758.91 L835.07 1758.42 L860.43 1757.80 L885.68 1757.06 L911.05 1756.31 L936.29 1755.45 L961.66 1754.46 L986.91 1753.34 L1012.27 1752.23 L1037.52 1750.87 L1062.89 1749.51 L1088.13 1747.90 L1113.50 1746.29 L1138.87 1744.43 L1164.12 1742.45 L1189.48 1740.23 L1214.73 1737.88 L1240.10 1735.40 L1265.34 1732.68 L1290.71 1729.58 L1315.96 1726.37 L1341.33 1722.78 L1366.57 1718.82 L1391.94 1714.49 L1417.18 1709.78 L1442.55 1704.46 L1467.80 1698.65 L1493.17 1692.09 L1518.41 1684.91 L1543.78 1676.86 L1569.03 1667.95 L1594.39 1657.93 L1619.64 1646.79 L1645.01 1634.42 L1670.25 1620.68 L1695.62 1605.34 L1720.87 1588.26 L1746.24 1569.20 L1771.48 1548.04 L1796.85 1524.28 L1822.10 1497.92 L1847.46 1468.46 L1872.71 1435.67 L1898.08 1399.16 L1923.45 1358.32 L1948.69 1312.90 L1974.06 1262.29 L1999.31 1205.98 L2024.67 1143.11" stroke-linejoin="round" style="fill:none;stroke:#FF7F00;stroke-width:7.34"/>
	<path d=" M455.52 1762.13 L480.77 1762.13 L506.14 1762.01 L531.38 1762.01 L556.75 1761.88 L582.00 1761.88 L607.37 1761.76 L632.61 1761.64 L657.98 1761.51 L683.22 1761.39 L708.59 1761.27 L733.84 1761.02 L759.21 1760.77 L784.45 1760.52 L809.82 1760.28 L835.07 1759.90 L860.43 1759.53 L885.68 1759.16 L911.05 1758.67 L936.29 1758.05 L961.66 1757.43 L986.91 1756.81 L1012.27 1756.07 L1037.52 1755.32 L1062.89 1754.46 L1088.13 1753.47 L1113.50 1752.35 L1138.87 1751.24 L1164.12 1750.00 L1189.48 1748.77 L1214.73 1747.28 L1240.10 1745.67 L1265.34 1744.06 L1290.71 1742.21 L1315.96 1740.10 L1341.33 1737.88 L1366.57 1735.52 L1391.94 1732.80 L1417.18 1729.83 L1442.55 1726.61 L1467.80 1723.03 L1493.17 1718.94 L1518.41 1714.49 L1543.78 1709.54 L1569.03 1704.09 L1594.39 1697.90 L1619.64 1690.97 L1645.01 1683.42 L1670.25 1674.88 L1695.62 1665.48 L1720.87 1654.84 L1746.24 1643.08 L1771.48 1629.96 L1796.85 1615.36 L1822.10 1599.02 L1847.46 1580.96 L1872.71 1560.66 L1898.08 1538.01 L1923.45 1512.89 L1948.69 1484.80 L1974.06 1453.61 L1999.31 1418.71 L2024.67 1379.98" stroke-linejoin="round" style="fill:none;stroke:#9C8847;stroke-width:7.34"/>
	<path d=" M455.52 1762.26 L480.77 1762.13 L506.14 1762.13 L531.38 1762.13 L556.75 1762.01 L582.00 1762.01 L607.37 1762.01 L632.61 1761.88 L657.98 1761.76 L683.22 1761.76 L708.59 1761.64 L733.84 1761.51 L759.21 1761.39 L784.45 1761.14 L809.82 1761.02 L835.07 1760.77 L860.43 1760.52 L885.68 1760.28 L911.05 1759.90 L936.29 1759.66 L961.66 1759.16 L986.91 1758.79 L1012.27 1758.29 L1037.52 1757.80 L1062.89 1757.18 L1088.13 1756.56 L1113.50 1755.94 L1138.87 1755.20 L1164.12 1754.46 L1189.48 1753.59 L1214.73 1752.60 L1240.10 1751.61 L1265.34 1750.50 L1290.71 1749.26 L1315.96 1748.02 L1341.33 1746.54 L1366.57 1745.05 L1391.94 1743.32 L1417.18 1741.34 L1442.55 1739.24 L1467.80 1737.01 L1493.17 1734.41 L1518.41 1731.44 L1543.78 1728.22 L1569.03 1724.63 L1594.39 1720.67 L1619.64 1716.34 L1645.01 1711.39 L1670.25 1705.82 L1695.62 1699.76 L1720.87 1692.95 L1746.24 1685.40 L1771.48 1676.86 L1796.85 1667.46 L1822.10 1656.94 L1847.46 1645.18 L1872.71 1632.07 L1898.08 1617.46 L1923.45 1601.25 L1948.69 1583.18 L1974.06 1562.89 L1999.31 1540.49 L2024.67 1515.37" stroke-linejoin="round" style="fill:none;stroke:#1A476F;stroke-width:7.34"/>
	<line x1="455.52" y1="1711.39" x2="458.37" y2="1711.39" style="stroke:#000000;stroke-width:7.34"/>
	<line x1="478.54" y1="1711.39" x2="480.77" y2="1711.39" style="stroke:#000000;stroke-width:7.34"/>
	<line x1="480.77" y1="1711.39" x2="481.39" y2="1711.39" style="stroke:#000000;stroke-width:7.34"/>
	<line x1="501.56" y1="1711.39" x2="504.40" y2="1711.39" style="stroke:#000000;stroke-width:7.34"/>
	<line x1="524.58" y1="1711.39" x2="527.42" y2="1711.39" style="stroke:#000000;stroke-width:7.34"/>
	<line x1="547.59" y1="1711.39" x2="550.44" y2="1711.39" style="stroke:#000000;stroke-width:7.34"/>
	<line x1="570.61" y1="1711.39" x2="573.58" y2="1711.39" style="stroke:#000000;stroke-width:7.34"/>
	<line x1="593.75" y1="1711.39" x2="596.60" y2="1711.39" style="stroke:#000000;stroke-width:7.34"/>
	<line x1="616.77" y1="1711.39" x2="619.62" y2="1711.39" style="stroke:#000000;stroke-width:7.34"/>
	<line x1="639.79" y1="1711.39" x2="642.63" y2="1711.39" style="stroke:#000000;stroke-width:7.34"/>
	<line x1="662.80" y1="1711.39" x2="665.65" y2="1711.39" style="stroke:#000000;stroke-width:7.34"/>
	<line x1="685.82" y1="1711.39" x2="688.67" y2="1711.39" style="stroke:#000000;stroke-width:7.34"/>
	<line x1="708.84" y1="1711.39" x2="711.69" y2="1711.39" style="stroke:#000000;stroke-width:7.34"/>
	<line x1="731.86" y1="1711.39" x2="733.84" y2="1711.39" style="stroke:#000000;stroke-width:7.34"/>
	<line x1="733.84" y1="1711.39" x2="734.70" y2="1711.39" style="stroke:#000000;stroke-width:7.34"/>
	<line x1="754.88" y1="1711.39" x2="757.72" y2="1711.39" style="stroke:#000000;stroke-width:7.34"/>
	<line x1="777.89" y1="1711.39" x2="780.74" y2="1711.39" style="stroke:#000000;stroke-width:7.34"/>
	<line x1="800.91" y1="1711.39" x2="803.88" y2="1711.39" style="stroke:#000000;stroke-width:7.34"/>
	<line x1="823.93" y1="1711.39" x2="826.90" y2="1711.39" style="stroke:#000000;stroke-width:7.34"/>
	<line x1="847.07" y1="1711.39" x2="849.91" y2="1711.39" style="stroke:#000000;stroke-width:7.34"/>
	<line x1="870.09" y1="1711.39" x2="872.93" y2="1711.39" style="stroke:#000000;stroke-width:7.34"/>
	<line x1="893.10" y1="1711.39" x2="895.95" y2="1711.39" style="stroke:#000000;stroke-width:7.34"/>
	<line x1="916.12" y1="1711.39" x2="918.97" y2="1711.39" style="stroke:#000000;stroke-width:7.34"/>
	<line x1="939.14" y1="1711.39" x2="941.99" y2="1711.39" style="stroke:#000000;stroke-width:7.34"/>
	<line x1="962.16" y1="1711.39" x2="965.00" y2="1711.39" style="stroke:#000000;stroke-width:7.34"/>
	<line x1="985.17" y1="1711.39" x2="986.91" y2="1711.39" style="stroke:#000000;stroke-width:7.34"/>
	<line x1="986.91" y1="1711.39" x2="988.02" y2="1711.39" style="stroke:#000000;stroke-width:7.34"/>
	<line x1="1008.19" y1="1711.39" x2="1011.04" y2="1711.39" style="stroke:#000000;stroke-width:7.34"/>
	<line x1="1031.21" y1="1711.39" x2="1034.06" y2="1711.39" style="stroke:#000000;stroke-width:7.34"/>
	<line x1="1054.23" y1="1711.39" x2="1057.20" y2="1711.39" style="stroke:#000000;stroke-width:7.34"/>
	<line x1="1077.24" y1="1711.39" x2="1080.21" y2="1711.39" style="stroke:#000000;stroke-width:7.34"/>
	<line x1="1100.38" y1="1711.39" x2="1103.23" y2="1711.39" style="stroke:#000000;stroke-width:7.34"/>
	<line x1="1123.40" y1="1711.39" x2="1126.25" y2="1711.39" style="stroke:#000000;stroke-width:7.34"/>
	<line x1="1146.42" y1="1711.39" x2="1149.27" y2="1711.39" style="stroke:#000000;stroke-width:7.34"/>
	<line x1="1169.44" y1="1711.39" x2="1172.28" y2="1711.39" style="stroke:#000000;stroke-width:7.34"/>
	<line x1="1192.45" y1="1711.39" x2="1195.30" y2="1711.39" style="stroke:#000000;stroke-width:7.34"/>
	<line x1="1215.47" y1="1711.39" x2="1218.32" y2="1711.39" style="stroke:#000000;stroke-width:7.34"/>
	<line x1="1238.49" y1="1711.39" x2="1240.10" y2="1711.39" style="stroke:#000000;stroke-width:7.34"/>
	<line x1="1240.10" y1="1711.39" x2="1241.34" y2="1711.39" style="stroke:#000000;stroke-width:7.34"/>
	<line x1="1261.51" y1="1711.39" x2="1264.35" y2="1711.39" style="stroke:#000000;stroke-width:7.34"/>
	<line x1="1284.53" y1="1711.39" x2="1287.37" y2="1711.39" style="stroke:#000000;stroke-width:7.34"/>
	<line x1="1307.54" y1="1711.39" x2="1310.51" y2="1711.39" style="stroke:#000000;stroke-width:7.34"/>
	<line x1="1330.56" y1="1711.39" x2="1333.53" y2="1711.39" style="stroke:#000000;stroke-width:7.34"/>
	<line x1="1353.70" y1="1711.39" x2="1356.55" y2="1711.39" style="stroke:#000000;stroke-width:7.34"/>
	<line x1="1376.72" y1="1711.39" x2="1379.57" y2="1711.39" style="stroke:#000000;stroke-width:7.34"/>
	<line x1="1399.74" y1="1711.39" x2="1402.58" y2="1711.39" style="stroke:#000000;stroke-width:7.34"/>
	<line x1="1422.75" y1="1711.39" x2="1425.60" y2="1711.39" style="stroke:#000000;stroke-width:7.34"/>
	<line x1="1445.77" y1="1711.39" x2="1448.62" y2="1711.39" style="stroke:#000000;stroke-width:7.34"/>
	<line x1="1468.79" y1="1711.39" x2="1471.63" y2="1711.39" style="stroke:#000000;stroke-width:7.34"/>
	<line x1="1491.81" y1="1711.39" x2="1493.17" y2="1711.39" style="stroke:#000000;stroke-width:7.34"/>
	<line x1="1493.17" y1="1711.39" x2="1494.65" y2="1711.39" style="stroke:#000000;stroke-width:7.34"/>
	<line x1="1514.82" y1="1711.39" x2="1517.67" y2="1711.39" style="stroke:#000000;stroke-width:7.34"/>
	<line x1="1537.84" y1="1711.39" x2="1540.69" y2="1711.39" style="stroke:#000000;stroke-width:7.34"/>
	<line x1="1560.86" y1="1711.39" x2="1563.83" y2="1711.39" style="stroke:#000000;stroke-width:7.34"/>
	<line x1="1584.00" y1="1711.39" x2="1586.85" y2="1711.39" style="stroke:#000000;stroke-width:7.34"/>
	<line x1="1607.02" y1="1711.39" x2="1609.86" y2="1711.39" style="stroke:#000000;stroke-width:7.34"/>
	<line x1="1630.04" y1="1711.39" x2="1632.88" y2="1711.39" style="stroke:#000000;stroke-width:7.34"/>
	<line x1="1653.05" y1="1711.39" x2="1655.90" y2="1711.39" style="stroke:#000000;stroke-width:7.34"/>
	<line x1="1676.07" y1="1711.39" x2="1678.92" y2="1711.39" style="stroke:#000000;stroke-width:7.34"/>
	<line x1="1699.09" y1="1711.39" x2="1701.93" y2="1711.39" style="stroke:#000000;stroke-width:7.34"/>
	<line x1="1722.11" y1="1711.39" x2="1724.95" y2="1711.39" style="stroke:#000000;stroke-width:7.34"/>
	<line x1="1745.12" y1="1711.39" x2="1746.24" y2="1711.39" style="stroke:#000000;stroke-width:7.34"/>
	<line x1="1746.24" y1="1711.39" x2="1747.97" y2="1711.39" style="stroke:#000000;stroke-width:7.34"/>
	<line x1="1768.14" y1="1711.39" x2="1770.99" y2="1711.39" style="stroke:#000000;stroke-width:7.34"/>
	<line x1="1791.16" y1="1711.39" x2="1794.00" y2="1711.39" style="stroke:#000000;stroke-width:7.34"/>
	<line x1="1814.17" y1="1711.39" x2="1817.14" y2="1711.39" style="stroke:#000000;stroke-width:7.34"/>
	<line x1="1837.32" y1="1711.39" x2="1840.16" y2="1711.39" style="stroke:#000000;stroke-width:7.34"/>
	<line x1="1860.33" y1="1711.39" x2="1863.18" y2="1711.39" style="stroke:#000000;stroke-width:7.34"/>
	<line x1="1883.35" y1="1711.39" x2="1886.20" y2="1711.39" style="stroke:#000000;stroke-width:7.34"/>
	<line x1="1906.37" y1="1711.39" x2="1909.21" y2="1711.39" style="stroke:#000000;stroke-width:7.34"/>
	<line x1="1929.39" y1="1711.39" x2="1932.23" y2="1711.39" style="stroke:#000000;stroke-width:7.34"/>
	<line x1="1952.40" y1="1711.39" x2="1955.25" y2="1711.39" style="stroke:#000000;stroke-width:7.34"/>
	<line x1="1975.42" y1="1711.39" x2="1978.27" y2="1711.39" style="stroke:#000000;stroke-width:7.34"/>
	<line x1="1998.44" y1="1711.39" x2="1999.31" y2="1711.39" style="stroke:#000000;stroke-width:7.34"/>
	<line x1="1999.31" y1="1711.39" x2="2001.29" y2="1711.39" style="stroke:#000000;stroke-width:7.34"/>
	<line x1="2021.46" y1="1711.39" x2="2024.30" y2="1711.39" style="stroke:#000000;stroke-width:7.34"/>
	<path d="" stroke-linejoin="round" style="fill:none;stroke:#000000;stroke-width:7.34"/>
	<defs>
		<path id="path_PbuDyhSz" d="M2201.51 1762.26 L2201.51 1762.26 L2226.88 1762.13 L2252.13 1762.13 L2277.49 1762.13 L2302.74 1762.13 L2328.11 1762.01 L2353.35 1762.01 L2378.72 1761.88 L2403.97 1761.76 L2429.34 1761.76 L2454.58 1761.51 L2479.95 1761.39 L2505.20 1761.27 L2530.56 1761.02 L2555.81 1760.77 L2581.18 1760.52 L2606.42 1760.15 L2631.79 1759.78 L2657.04 1759.28 L2682.41 1758.79 L2707.65 1758.29 L2733.02 1757.68 L2758.26 1757.06 L2783.63 1756.44 L2808.88 1755.57 L2834.25 1754.83 L2859.49 1753.96 L2884.86 1752.97 L2910.11 1751.86 L2935.47 1750.62 L2960.72 1749.38 L2986.09 1748.02 L3011.46 1746.41 L3036.70 1744.81 L3062.07 1742.95 L3087.32 1740.85 L3112.68 1738.74 L3137.93 1736.27 L3163.30 1733.54 L3188.54 1730.57 L3213.91 1727.36 L3239.16 1723.77 L3264.53 1719.81 L3289.77 1715.35 L3315.14 1710.40 L3340.38 1704.83 L3365.75 1698.77 L3391.00 1691.96 L3416.37 1684.41 L3441.61 1676.00 L3466.98 1666.59 L3492.22 1656.07 L3517.59 1644.44 L3542.84 1631.45 L3568.21 1616.84 L3593.45 1600.63 L3618.82 1582.56 L3644.07 1562.39 L3669.43 1539.99 L3694.68 1514.99 L3720.05 1487.15 L3745.42 1456.09 L3770.66 1421.56 L3770.66 1343.84 L3745.42 1386.29 L3720.05 1424.41 L3694.68 1458.69 L3669.43 1489.38 L3644.07 1516.85 L3618.82 1541.60 L3593.45 1563.75 L3568.21 1583.55 L3542.84 1601.38 L3517.59 1617.34 L3492.22 1631.69 L3466.98 1644.57 L3441.61 1656.20 L3416.37 1666.47 L3391.00 1675.87 L3365.75 1684.17 L3340.38 1691.72 L3315.14 1698.40 L3289.77 1704.46 L3264.53 1709.91 L3239.16 1714.73 L3213.91 1719.06 L3188.54 1723.03 L3163.30 1726.49 L3137.93 1729.71 L3112.68 1732.55 L3087.32 1735.03 L3062.07 1737.38 L3036.70 1739.61 L3011.46 1741.59 L2986.09 1743.44 L2960.72 1745.05 L2935.47 1746.66 L2910.11 1748.15 L2884.86 1749.51 L2859.49 1750.75 L2834.25 1751.98 L2808.88 1752.97 L2783.63 1754.09 L2758.26 1754.95 L2733.02 1755.82 L2707.65 1756.44 L2682.41 1757.18 L2657.04 1757.68 L2631.79 1758.29 L2606.42 1758.67 L2581.18 1759.04 L2555.81 1759.41 L2530.56 1759.78 L2505.20 1760.03 L2479.95 1760.28 L2454.58 1760.52 L2429.34 1760.65 L2403.97 1760.89 L2378.72 1761.02 L2353.35 1761.14 L2328.11 1761.27 L2302.74 1761.39 L2277.49 1761.51 L2252.13 1761.51 L2226.88 1761.64 L2201.51 1761.76 L2201.51 1762.26 Z" stroke-linejoin="round"/>
	</defs>
	<defs>
		<clipPath id="clipPath_ItSzUvur">
			<use xlink:href="#path_PbuDyhSz"/>
		</clipPath>
	</defs>
	<use xlink:href="#path_PbuDyhSz" style="stroke:none;fill:#E6E6E6"/>
	<use xlink:href="#path_PbuDyhSz" style="fill:none;stroke:#E0E0E0;stroke-width:14.69" clip-path="url(#clipPath_ItSzUvur)"/>
	<defs>
		<path id="path_rCZSIUHN" d="M2201.51 1762.13 L2201.51 1762.13 L2226.88 1762.13 L2252.13 1762.01 L2277.49 1762.01 L2302.74 1761.88 L2328.11 1761.88 L2353.35 1761.76 L2378.72 1761.64 L2403.97 1761.51 L2429.34 1761.39 L2454.58 1761.14 L2479.95 1760.89 L2505.20 1760.65 L2530.56 1760.28 L2555.81 1759.90 L2581.18 1759.41 L2606.42 1758.91 L2631.79 1758.29 L2657.04 1757.55 L2682.41 1756.81 L2707.65 1755.94 L2733.02 1755.08 L2758.26 1754.09 L2783.63 1752.97 L2808.88 1751.86 L2834.25 1750.50 L2859.49 1749.14 L2884.86 1747.65 L2910.11 1745.92 L2935.47 1744.06 L2960.72 1742.08 L2986.09 1739.98 L3011.46 1737.63 L3036.70 1735.03 L3062.07 1732.18 L3087.32 1729.09 L3112.68 1725.62 L3137.93 1721.91 L3163.30 1717.83 L3188.54 1713.37 L3213.91 1708.30 L3239.16 1702.73 L3264.53 1696.67 L3289.77 1689.74 L3315.14 1682.19 L3340.38 1673.65 L3365.75 1664.24 L3391.00 1653.72 L3416.37 1642.09 L3441.61 1628.97 L3466.98 1614.49 L3492.22 1598.28 L3517.59 1580.21 L3542.84 1560.17 L3568.21 1537.64 L3593.45 1512.64 L3618.82 1484.80 L3644.07 1453.74 L3669.43 1419.09 L3694.68 1380.47 L3720.05 1337.41 L3745.42 1289.52 L3770.66 1236.18 L3770.66 1001.42 L3745.42 1078.64 L3720.05 1147.94 L3694.68 1210.19 L3669.43 1265.88 L3644.07 1316.00 L3618.82 1360.92 L3593.45 1401.14 L3568.21 1437.28 L3542.84 1469.70 L3517.59 1498.78 L3492.22 1524.90 L3466.98 1548.28 L3441.61 1569.32 L3416.37 1588.13 L3391.00 1605.09 L3365.75 1620.19 L3340.38 1633.92 L3315.14 1646.05 L3289.77 1657.06 L3264.53 1666.96 L3239.16 1675.87 L3213.91 1683.80 L3188.54 1690.97 L3163.30 1697.28 L3137.93 1703.10 L3112.68 1708.30 L3087.32 1713.00 L3062.07 1717.33 L3036.70 1721.29 L3011.46 1725.01 L2986.09 1728.35 L2960.72 1731.44 L2935.47 1734.29 L2910.11 1737.01 L2884.86 1739.36 L2859.49 1741.71 L2834.25 1743.82 L2808.88 1745.80 L2783.63 1747.53 L2758.26 1749.14 L2733.02 1750.62 L2707.65 1751.98 L2682.41 1753.22 L2657.04 1754.21 L2631.79 1755.20 L2606.42 1755.94 L2581.18 1756.69 L2555.81 1757.30 L2530.56 1757.92 L2505.20 1758.42 L2479.95 1758.79 L2454.58 1759.16 L2429.34 1759.53 L2403.97 1759.90 L2378.72 1760.15 L2353.35 1760.40 L2328.11 1760.52 L2302.74 1760.77 L2277.49 1760.89 L2252.13 1761.02 L2226.88 1761.14 L2201.51 1761.27 L2201.51 1762.13 Z" stroke-linejoin="round"/>
	</defs>
	<defs>
		<clipPath id="clipPath_GOoDESBl">
			<use xlink:href="#path_rCZSIUHN"/>
		</clipPath>
	</defs>
	<use xlink:href="#path_rCZSIUHN" style="stroke:none;fill:#E6E6E6"/>
	<use xlink:href="#path_rCZSIUHN" style="fill:none;stroke:#E0E0E0;stroke-width:14.69" clip-path="url(#clipPath_GOoDESBl)"/>
	<defs>
		<path id="path_cJaytUUF" d="M2201.51 1762.13 L2201.51 1762.13 L2226.88 1762.13 L2252.13 1762.13 L2277.49 1762.13 L2302.74 1762.01 L2328.11 1762.01 L2353.35 1761.88 L2378.72 1761.76 L2403.97 1761.76 L2429.34 1761.64 L2454.58 1761.39 L2479.95 1761.27 L2505.20 1761.02 L2530.56 1760.77 L2555.81 1760.52 L2581.18 1760.15 L2606.42 1759.78 L2631.79 1759.28 L2657.04 1758.79 L2682.41 1758.29 L2707.65 1757.55 L2733.02 1756.93 L2758.26 1756.19 L2783.63 1755.32 L2808.88 1754.46 L2834.25 1753.59 L2859.49 1752.48 L2884.86 1751.36 L2910.11 1750.13 L2935.47 1748.77 L2960.72 1747.28 L2986.09 1745.67 L3011.46 1743.82 L3036.70 1741.96 L3062.07 1739.86 L3087.32 1737.50 L3112.68 1734.91 L3137.93 1732.06 L3163.30 1729.09 L3188.54 1725.62 L3213.91 1721.91 L3239.16 1717.70 L3264.53 1713.12 L3289.77 1707.93 L3315.14 1702.23 L3340.38 1695.92 L3365.75 1688.87 L3391.00 1680.95 L3416.37 1672.16 L3441.61 1662.39 L3466.98 1651.50 L3492.22 1639.37 L3517.59 1625.88 L3542.84 1610.78 L3568.21 1593.95 L3593.45 1575.14 L3618.82 1554.22 L3644.07 1530.96 L3669.43 1504.97 L3694.68 1476.01 L3720.05 1443.84 L3745.42 1407.82 L3770.66 1367.85 L3770.66 1235.19 L3745.42 1288.77 L3720.05 1336.79 L3694.68 1379.86 L3669.43 1418.47 L3644.07 1453.12 L3618.82 1484.30 L3593.45 1512.15 L3568.21 1537.15 L3542.84 1559.55 L3517.59 1579.72 L3492.22 1597.79 L3466.98 1614.00 L3441.61 1628.60 L3416.37 1641.60 L3391.00 1653.35 L3365.75 1663.87 L3340.38 1673.28 L3315.14 1681.82 L3289.77 1689.36 L3264.53 1696.29 L3239.16 1702.36 L3213.91 1707.93 L3188.54 1712.75 L3163.30 1717.21 L3137.93 1721.17 L3112.68 1724.76 L3087.32 1728.10 L3062.07 1731.07 L3036.70 1733.79 L3011.46 1736.27 L2986.09 1738.62 L2960.72 1740.72 L2935.47 1742.70 L2910.11 1744.56 L2884.86 1746.29 L2859.49 1747.90 L2834.25 1749.38 L2808.88 1750.75 L2783.63 1751.98 L2758.26 1753.10 L2733.02 1754.21 L2707.65 1755.08 L2682.41 1755.94 L2657.04 1756.69 L2631.79 1757.30 L2606.42 1757.80 L2581.18 1758.29 L2555.81 1758.79 L2530.56 1759.16 L2505.20 1759.53 L2479.95 1759.90 L2454.58 1760.15 L2429.34 1760.40 L2403.97 1760.52 L2378.72 1760.77 L2353.35 1760.89 L2328.11 1761.02 L2302.74 1761.14 L2277.49 1761.27 L2252.13 1761.39 L2226.88 1761.51 L2201.51 1761.64 L2201.51 1762.13 Z" stroke-linejoin="round"/>
	</defs>
	<defs>
		<clipPath id="clipPath_PJPSFLse">
			<use xlink:href="#path_cJaytUUF"/>
		</clipPath>
	</defs>
	<use xlink:href="#path_cJaytUUF" style="stroke:none;fill:#E6E6E6"/>
	<use xlink:href="#path_cJaytUUF" style="fill:none;stroke:#E0E0E0;stroke-width:14.69" clip-path="url(#clipPath_PJPSFLse)"/>
	<defs>
		<path id="path_dfVfoEBv" d="M2201.51 1762.26 L2201.51 1762.26 L2226.88 1762.13 L2252.13 1762.13 L2277.49 1762.13 L2302.74 1762.13 L2328.11 1762.01 L2353.35 1762.01 L2378.72 1761.88 L2403.97 1761.76 L2429.34 1761.76 L2454.58 1761.64 L2479.95 1761.39 L2505.20 1761.27 L2530.56 1761.02 L2555.81 1760.77 L2581.18 1760.52 L2606.42 1760.15 L2631.79 1759.78 L2657.04 1759.41 L2682.41 1758.91 L2707.65 1758.42 L2733.02 1757.92 L2758.26 1757.30 L2783.63 1756.56 L2808.88 1755.82 L2834.25 1755.08 L2859.49 1754.21 L2884.86 1753.22 L2910.11 1752.23 L2935.47 1751.12 L2960.72 1749.88 L2986.09 1748.52 L3011.46 1747.03 L3036.70 1745.42 L3062.07 1743.69 L3087.32 1741.71 L3112.68 1739.61 L3137.93 1737.26 L3163.30 1734.66 L3188.54 1731.81 L3213.91 1728.72 L3239.16 1725.25 L3264.53 1721.42 L3289.77 1717.08 L3315.14 1712.38 L3340.38 1707.06 L3365.75 1701.24 L3391.00 1694.69 L3416.37 1687.38 L3441.61 1679.22 L3466.98 1670.18 L3492.22 1660.16 L3517.59 1648.90 L3542.84 1636.27 L3568.21 1622.29 L3593.45 1606.70 L3618.82 1589.25 L3644.07 1569.82 L3669.43 1548.28 L3694.68 1524.15 L3720.05 1497.30 L3745.42 1467.35 L3770.66 1434.06 L3770.66 1343.97 L3745.42 1386.54 L3720.05 1424.53 L3694.68 1458.69 L3669.43 1489.38 L3644.07 1516.85 L3618.82 1541.48 L3593.45 1563.63 L3568.21 1583.55 L3542.84 1601.38 L3517.59 1617.34 L3492.22 1631.69 L3466.98 1644.57 L3441.61 1656.07 L3416.37 1666.47 L3391.00 1675.75 L3365.75 1684.17 L3340.38 1691.59 L3315.14 1698.27 L3289.77 1704.34 L3264.53 1709.78 L3239.16 1714.61 L3213.91 1719.06 L3188.54 1722.90 L3163.30 1726.49 L3137.93 1729.58 L3112.68 1732.43 L3087.32 1735.03 L3062.07 1737.38 L3036.70 1739.61 L3011.46 1741.59 L2986.09 1743.44 L2960.72 1745.18 L2935.47 1746.66 L2910.11 1748.15 L2884.86 1749.51 L2859.49 1750.75 L2834.25 1751.98 L2808.88 1753.10 L2783.63 1754.09 L2758.26 1754.95 L2733.02 1755.82 L2707.65 1756.56 L2682.41 1757.18 L2657.04 1757.80 L2631.79 1758.29 L2606.42 1758.79 L2581.18 1759.16 L2555.81 1759.53 L2530.56 1759.78 L2505.20 1760.03 L2479.95 1760.28 L2454.58 1760.52 L2429.34 1760.65 L2403.97 1760.89 L2378.72 1761.02 L2353.35 1761.14 L2328.11 1761.27 L2302.74 1761.39 L2277.49 1761.51 L2252.13 1761.51 L2226.88 1761.64 L2201.51 1761.76 L2201.51 1762.26 Z" stroke-linejoin="round"/>
	</defs>
	<defs>
		<clipPath id="clipPath_uGKAcFAE">
			<use xlink:href="#path_dfVfoEBv"/>
		</clipPath>
	</defs>
	<use xlink:href="#path_dfVfoEBv" style="stroke:none;fill:#E6E6E6"/>
	<use xlink:href="#path_dfVfoEBv" style="fill:none;stroke:#E0E0E0;stroke-width:14.69" clip-path="url(#clipPath_uGKAcFAE)"/>
	<defs>
		<path id="path_XfIeIvcF" d="M2201.51 1762.13 L2201.51 1762.13 L2226.88 1762.01 L2252.13 1762.01 L2277.49 1761.88 L2302.74 1761.88 L2328.11 1761.76 L2353.35 1761.64 L2378.72 1761.51 L2403.97 1761.27 L2429.34 1761.02 L2454.58 1760.77 L2479.95 1760.52 L2505.20 1760.15 L2530.56 1759.78 L2555.81 1759.28 L2581.18 1758.79 L2606.42 1758.17 L2631.79 1757.43 L2657.04 1756.69 L2682.41 1755.82 L2707.65 1754.83 L2733.02 1753.84 L2758.26 1752.73 L2783.63 1751.36 L2808.88 1750.00 L2834.25 1748.52 L2859.49 1746.91 L2884.86 1745.18 L2910.11 1743.20 L2935.47 1741.22 L2960.72 1738.87 L2986.09 1736.39 L3011.46 1733.67 L3036.70 1730.82 L3062.07 1727.60 L3087.32 1724.02 L3112.68 1720.18 L3137.93 1715.97 L3163.30 1711.27 L3188.54 1706.19 L3213.91 1700.50 L3239.16 1694.07 L3264.53 1687.01 L3289.77 1679.22 L3315.14 1670.55 L3340.38 1660.78 L3365.75 1650.01 L3391.00 1638.01 L3416.37 1624.64 L3441.61 1609.79 L3466.98 1593.08 L3492.22 1574.64 L3517.59 1553.98 L3542.84 1530.96 L3568.21 1505.34 L3593.45 1476.63 L3618.82 1444.83 L3644.07 1409.19 L3669.43 1369.58 L3694.68 1325.40 L3720.05 1276.27 L3745.42 1221.45 L3770.66 1160.44 L3770.66 449.97 L3745.42 583.00 L3720.05 702.43 L3694.68 809.72 L3669.43 905.88 L3644.07 992.26 L3618.82 1069.73 L3593.45 1139.15 L3568.21 1201.53 L3542.84 1257.46 L3517.59 1307.58 L3492.22 1352.63 L3466.98 1392.97 L3441.61 1429.23 L3416.37 1461.78 L3391.00 1490.99 L3365.75 1517.22 L3340.38 1540.74 L3315.14 1561.90 L3289.77 1580.83 L3264.53 1597.91 L3239.16 1613.26 L3213.91 1626.99 L3188.54 1639.37 L3163.30 1650.51 L3137.93 1660.53 L3112.68 1669.56 L3087.32 1677.85 L3062.07 1685.40 L3036.70 1692.21 L3011.46 1698.65 L2986.09 1704.46 L2960.72 1709.78 L2935.47 1714.73 L2910.11 1719.31 L2884.86 1723.52 L2859.49 1727.48 L2834.25 1731.07 L2808.88 1734.41 L2783.63 1737.38 L2758.26 1740.23 L2733.02 1742.70 L2707.65 1745.05 L2682.41 1747.16 L2657.04 1748.89 L2631.79 1750.50 L2606.42 1751.98 L2581.18 1753.22 L2555.81 1754.33 L2530.56 1755.32 L2505.20 1756.07 L2479.95 1756.81 L2454.58 1757.43 L2429.34 1758.05 L2403.97 1758.54 L2378.72 1758.91 L2353.35 1759.28 L2328.11 1759.66 L2302.74 1759.90 L2277.49 1760.28 L2252.13 1760.40 L2226.88 1760.65 L2201.51 1760.77 L2201.51 1762.13 Z" stroke-linejoin="round"/>
	</defs>
	<defs>
		<clipPath id="clipPath_zDxzouqM">
			<use xlink:href="#path_XfIeIvcF"/>
		</clipPath>
	</defs>
	<use xlink:href="#path_XfIeIvcF" style="stroke:none;fill:#E6E6E6"/>
	<use xlink:href="#path_XfIeIvcF" style="fill:none;stroke:#E0E0E0;stroke-width:14.69" clip-path="url(#clipPath_zDxzouqM)"/>
	<defs>
		<path id="path_tfbcYlNb" d="M2201.51 1762.01 L2201.51 1762.01 L2226.88 1762.01 L2252.13 1762.01 L2277.49 1761.88 L2302.74 1761.76 L2328.11 1761.64 L2353.35 1761.51 L2378.72 1761.39 L2403.97 1761.14 L2429.34 1760.89 L2454.58 1760.65 L2479.95 1760.28 L2505.20 1759.78 L2530.56 1759.28 L2555.81 1758.67 L2581.18 1758.05 L2606.42 1757.30 L2631.79 1756.44 L2657.04 1755.45 L2682.41 1754.33 L2707.65 1753.22 L2733.02 1751.86 L2758.26 1750.50 L2783.63 1748.89 L2808.88 1747.16 L2834.25 1745.30 L2859.49 1743.32 L2884.86 1741.09 L2910.11 1738.74 L2935.47 1736.14 L2960.72 1733.30 L2986.09 1730.20 L3011.46 1726.74 L3036.70 1723.03 L3062.07 1719.06 L3087.32 1714.61 L3112.68 1709.78 L3137.93 1704.46 L3163.30 1698.52 L3188.54 1692.09 L3213.91 1684.91 L3239.16 1676.99 L3264.53 1668.20 L3289.77 1658.30 L3315.14 1647.41 L3340.38 1635.28 L3365.75 1621.79 L3391.00 1606.82 L3416.37 1589.99 L3441.61 1571.30 L3466.98 1550.51 L3492.22 1527.37 L3517.59 1501.51 L3542.84 1472.67 L3568.21 1440.62 L3593.45 1404.73 L3618.82 1364.88 L3644.07 1320.33 L3669.43 1270.70 L3694.68 1215.51 L3720.05 1153.88 L3745.42 1085.45 L3770.66 1009.09 L3770.66 573.35 L3745.42 694.01 L3720.05 802.17 L3694.68 899.32 L3669.43 986.57 L3644.07 1064.65 L3618.82 1134.82 L3593.45 1197.81 L3568.21 1254.25 L3542.84 1304.98 L3517.59 1350.40 L3492.22 1391.12 L3466.98 1427.75 L3441.61 1460.54 L3416.37 1490.00 L3391.00 1516.48 L3365.75 1540.24 L3340.38 1561.53 L3315.14 1580.71 L3289.77 1597.91 L3264.53 1613.38 L3239.16 1627.12 L3213.91 1639.61 L3188.54 1650.75 L3163.30 1660.78 L3137.93 1669.93 L3112.68 1678.10 L3087.32 1685.53 L3062.07 1692.33 L3036.70 1698.52 L3011.46 1704.21 L2986.09 1709.41 L2960.72 1714.24 L2935.47 1718.69 L2910.11 1722.90 L2884.86 1726.74 L2859.49 1730.33 L2834.25 1733.54 L2808.88 1736.64 L2783.63 1739.48 L2758.26 1741.96 L2733.02 1744.31 L2707.65 1746.41 L2682.41 1748.27 L2657.04 1749.88 L2631.79 1751.36 L2606.42 1752.60 L2581.18 1753.72 L2555.81 1754.71 L2530.56 1755.57 L2505.20 1756.31 L2479.95 1757.06 L2454.58 1757.55 L2429.34 1758.17 L2403.97 1758.54 L2378.72 1759.04 L2353.35 1759.41 L2328.11 1759.66 L2302.74 1759.90 L2277.49 1760.28 L2252.13 1760.40 L2226.88 1760.65 L2201.51 1760.77 L2201.51 1762.01 Z" stroke-linejoin="round"/>
	</defs>
	<defs>
		<clipPath id="clipPath_rrwfhmvb">
			<use xlink:href="#path_tfbcYlNb"/>
		</clipPath>
	</defs>
	<use xlink:href="#path_tfbcYlNb" style="stroke:none;fill:#E6E6E6"/>
	<use xlink:href="#path_tfbcYlNb" style="fill:none;stroke:#E0E0E0;stroke-width:14.69" clip-path="url(#clipPath_rrwfhmvb)"/>
	<defs>
		<path id="path_KUjiHzOO" d="M2201.51 1762.13 L2201.51 1762.13 L2226.88 1762.13 L2252.13 1762.13 L2277.49 1762.01 L2302.74 1762.01 L2328.11 1761.88 L2353.35 1761.76 L2378.72 1761.64 L2403.97 1761.51 L2429.34 1761.39 L2454.58 1761.27 L2479.95 1761.02 L2505.20 1760.77 L2530.56 1760.40 L2555.81 1760.03 L2581.18 1759.66 L2606.42 1759.16 L2631.79 1758.54 L2657.04 1757.92 L2682.41 1757.30 L2707.65 1756.56 L2733.02 1755.70 L2758.26 1754.83 L2783.63 1753.84 L2808.88 1752.73 L2834.25 1751.61 L2859.49 1750.25 L2884.86 1748.89 L2910.11 1747.40 L2935.47 1745.80 L2960.72 1743.94 L2986.09 1741.96 L3011.46 1739.86 L3036.70 1737.50 L3062.07 1734.91 L3087.32 1732.06 L3112.68 1729.09 L3137.93 1725.62 L3163.30 1721.91 L3188.54 1717.83 L3213.91 1713.25 L3239.16 1708.30 L3264.53 1702.61 L3289.77 1696.42 L3315.14 1689.49 L3340.38 1681.82 L3365.75 1673.28 L3391.00 1663.75 L3416.37 1653.10 L3441.61 1641.35 L3466.98 1628.11 L3492.22 1613.50 L3517.59 1597.04 L3542.84 1578.85 L3568.21 1558.43 L3593.45 1535.79 L3618.82 1510.42 L3644.07 1482.20 L3669.43 1450.77 L3694.68 1415.74 L3720.05 1376.76 L3745.42 1333.20 L3770.66 1284.81 L3770.66 1046.59 L3745.42 1119.23 L3720.05 1184.45 L3694.68 1242.86 L3669.43 1295.33 L3644.07 1342.48 L3618.82 1384.68 L3593.45 1422.55 L3568.21 1456.58 L3542.84 1487.03 L3517.59 1514.38 L3492.22 1539.00 L3466.98 1560.91 L3441.61 1580.71 L3416.37 1598.40 L3391.00 1614.37 L3365.75 1628.72 L3340.38 1641.47 L3315.14 1652.98 L3289.77 1663.38 L3264.53 1672.66 L3239.16 1680.95 L3213.91 1688.50 L3188.54 1695.18 L3163.30 1701.24 L3137.93 1706.69 L3112.68 1711.64 L3087.32 1716.09 L3062.07 1720.18 L3036.70 1723.89 L3011.46 1727.23 L2986.09 1730.45 L2960.72 1733.30 L2935.47 1736.02 L2910.11 1738.49 L2884.86 1740.85 L2859.49 1742.95 L2834.25 1744.93 L2808.88 1746.79 L2783.63 1748.52 L2758.26 1750.00 L2733.02 1751.36 L2707.65 1752.73 L2682.41 1753.84 L2657.04 1754.83 L2631.79 1755.70 L2606.42 1756.44 L2581.18 1757.06 L2555.81 1757.68 L2530.56 1758.17 L2505.20 1758.67 L2479.95 1759.04 L2454.58 1759.41 L2429.34 1759.78 L2403.97 1760.03 L2378.72 1760.28 L2353.35 1760.52 L2328.11 1760.65 L2302.74 1760.89 L2277.49 1761.02 L2252.13 1761.14 L2226.88 1761.27 L2201.51 1761.39 L2201.51 1762.13 Z" stroke-linejoin="round"/>
	</defs>
	<defs>
		<clipPath id="clipPath_XnxSlQAa">
			<use xlink:href="#path_KUjiHzOO"/>
		</clipPath>
	</defs>
	<use xlink:href="#path_KUjiHzOO" style="stroke:none;fill:#E6E6E6"/>
	<use xlink:href="#path_KUjiHzOO" style="fill:none;stroke:#E0E0E0;stroke-width:14.69" clip-path="url(#clipPath_XnxSlQAa)"/>
	<path d=" M2201.39 1762.01 L2226.76 1761.88 L2252.13 1761.76 L2277.37 1761.76 L2302.74 1761.64 L2327.99 1761.51 L2353.35 1761.39 L2378.60 1761.14 L2403.97 1761.02 L2429.21 1760.77 L2454.58 1760.52 L2479.83 1760.15 L2505.20 1759.78 L2530.44 1759.41 L2555.81 1758.91 L2581.05 1758.29 L2606.42 1757.68 L2631.67 1756.93 L2657.04 1756.19 L2682.28 1755.32 L2707.65 1754.33 L2732.89 1753.22 L2758.26 1751.98 L2783.51 1750.62 L2808.88 1749.14 L2834.12 1747.65 L2859.49 1745.92 L2884.74 1744.06 L2910.11 1741.96 L2935.35 1739.73 L2960.72 1737.38 L2986.09 1734.78 L3011.33 1731.94 L3036.70 1728.97 L3061.95 1725.62 L3087.32 1721.91 L3112.56 1717.95 L3137.93 1713.50 L3163.17 1708.67 L3188.54 1703.22 L3213.79 1697.28 L3239.16 1690.60 L3264.40 1683.18 L3289.77 1675.01 L3315.01 1665.85 L3340.38 1655.70 L3365.63 1644.32 L3391.00 1631.69 L3416.24 1617.59 L3441.61 1601.99 L3466.86 1584.54 L3492.22 1564.99 L3517.47 1543.33 L3542.84 1519.08 L3568.08 1492.10 L3593.45 1462.15 L3618.70 1428.61 L3644.07 1391.24 L3669.31 1349.54 L3694.68 1303.13 L3719.93 1251.52 L3745.29 1193.85 L3770.66 1129.63" stroke-linejoin="round" style="fill:none;stroke:#008000;stroke-width:7.34"/>
	<path d=" M2201.39 1762.13 L2226.76 1762.01 L2252.13 1762.01 L2277.37 1761.88 L2302.74 1761.88 L2327.99 1761.76 L2353.35 1761.64 L2378.60 1761.51 L2403.97 1761.39 L2429.21 1761.14 L2454.58 1761.02 L2479.83 1760.77 L2505.20 1760.52 L2530.44 1760.15 L2555.81 1759.90 L2581.05 1759.41 L2606.42 1759.04 L2631.67 1758.54 L2657.04 1757.92 L2682.28 1757.30 L2707.65 1756.56 L2732.89 1755.70 L2758.26 1754.83 L2783.51 1753.96 L2808.88 1752.85 L2834.12 1751.74 L2859.49 1750.50 L2884.74 1749.14 L2910.11 1747.65 L2935.35 1746.04 L2960.72 1744.43 L2986.09 1742.45 L3011.33 1740.47 L3036.70 1738.25 L3061.95 1735.90 L3087.32 1733.17 L3112.56 1730.33 L3137.93 1727.11 L3163.17 1723.64 L3188.54 1719.81 L3213.79 1715.48 L3239.16 1710.65 L3264.40 1705.33 L3289.77 1699.39 L3315.01 1692.83 L3340.38 1685.53 L3365.63 1677.36 L3391.00 1668.20 L3416.24 1658.05 L3441.61 1646.79 L3466.86 1634.17 L3492.22 1620.19 L3517.47 1604.59 L3542.84 1587.14 L3568.08 1567.71 L3593.45 1546.06 L3618.70 1521.80 L3644.07 1494.95 L3669.31 1464.87 L3694.68 1431.46 L3719.93 1394.21 L3745.29 1352.63 L3770.66 1306.47" stroke-linejoin="round" style="fill:none;stroke:#55752F;stroke-width:7.34"/>
	<path d=" M2201.39 1762.13 L2226.76 1762.13 L2252.13 1762.01 L2277.37 1762.01 L2302.74 1761.88 L2327.99 1761.88 L2353.35 1761.76 L2378.60 1761.64 L2403.97 1761.51 L2429.21 1761.39 L2454.58 1761.27 L2479.83 1761.02 L2505.20 1760.89 L2530.44 1760.65 L2555.81 1760.28 L2581.05 1760.03 L2606.42 1759.66 L2631.67 1759.16 L2657.04 1758.79 L2682.28 1758.17 L2707.65 1757.68 L2732.89 1756.93 L2758.26 1756.31 L2783.51 1755.45 L2808.88 1754.71 L2834.12 1753.72 L2859.49 1752.73 L2884.74 1751.61 L2910.11 1750.37 L2935.35 1749.14 L2960.72 1747.78 L2986.09 1746.17 L3011.33 1744.56 L3036.70 1742.83 L3061.95 1740.85 L3087.32 1738.62 L3112.56 1736.27 L3137.93 1733.79 L3163.17 1730.95 L3188.54 1727.73 L3213.79 1724.26 L3239.16 1720.30 L3264.40 1715.97 L3289.77 1711.27 L3315.01 1705.82 L3340.38 1699.88 L3365.63 1693.20 L3391.00 1685.90 L3416.24 1677.61 L3441.61 1668.45 L3466.86 1658.18 L3492.22 1646.79 L3517.47 1634.05 L3542.84 1619.94 L3568.08 1604.10 L3593.45 1586.52 L3618.70 1566.97 L3644.07 1545.07 L3669.31 1520.69 L3694.68 1493.46 L3719.93 1463.14 L3745.29 1429.36 L3770.66 1391.86" stroke-linejoin="round" style="fill:none;stroke:#00FF00;stroke-width:7.34"/>
	<path d=" M2201.39 1761.76 L2226.76 1761.76 L2252.13 1761.64 L2277.37 1761.51 L2302.74 1761.39 L2327.99 1761.14 L2353.35 1760.89 L2378.60 1760.65 L2403.97 1760.40 L2429.21 1760.03 L2454.58 1759.66 L2479.83 1759.28 L2505.20 1758.79 L2530.44 1758.17 L2555.81 1757.43 L2581.05 1756.69 L2606.42 1755.82 L2631.67 1754.83 L2657.04 1753.72 L2682.28 1752.48 L2707.65 1750.99 L2732.89 1749.51 L2758.26 1747.78 L2783.51 1745.92 L2808.88 1743.82 L2834.12 1741.59 L2859.49 1739.24 L2884.74 1736.64 L2910.11 1733.79 L2935.35 1730.70 L2960.72 1727.23 L2986.09 1723.64 L3011.33 1719.68 L3036.70 1715.35 L3061.95 1710.65 L3087.32 1705.58 L3112.56 1699.88 L3137.93 1693.70 L3163.17 1686.89 L3188.54 1679.34 L3213.79 1670.92 L3239.16 1661.52 L3264.40 1651.12 L3289.77 1639.61 L3315.01 1626.74 L3340.38 1612.39 L3365.63 1596.42 L3391.00 1578.73 L3416.24 1558.93 L3441.61 1536.90 L3466.86 1512.40 L3492.22 1485.05 L3517.47 1454.60 L3542.84 1420.57 L3568.08 1382.70 L3593.45 1340.50 L3618.70 1293.35 L3644.07 1240.88 L3669.31 1182.34 L3694.68 1117.25 L3719.93 1044.61 L3745.29 963.67 L3770.66 873.58" stroke-linejoin="round" style="fill:none;stroke:#FFD200;stroke-width:7.34"/>
	<path d=" M2201.39 1761.76 L2226.76 1761.64 L2252.13 1761.51 L2277.37 1761.39 L2302.74 1761.27 L2327.99 1761.02 L2353.35 1760.89 L2378.60 1760.65 L2403.97 1760.28 L2429.21 1759.90 L2454.58 1759.53 L2479.83 1759.04 L2505.20 1758.54 L2530.44 1757.92 L2555.81 1757.18 L2581.05 1756.31 L2606.42 1755.45 L2631.67 1754.33 L2657.04 1753.10 L2682.28 1751.86 L2707.65 1750.25 L2732.89 1748.64 L2758.26 1746.79 L2783.51 1744.81 L2808.88 1742.70 L2834.12 1740.35 L2859.49 1737.75 L2884.74 1734.91 L2910.11 1731.94 L2935.35 1728.59 L2960.72 1725.01 L2986.09 1721.17 L3011.33 1716.96 L3036.70 1712.38 L3061.95 1707.31 L3087.32 1701.86 L3112.56 1695.80 L3137.93 1689.24 L3163.17 1681.94 L3188.54 1673.89 L3213.79 1664.98 L3239.16 1654.96 L3264.40 1643.95 L3289.77 1631.57 L3315.01 1617.96 L3340.38 1602.74 L3365.63 1585.78 L3391.00 1566.85 L3416.24 1545.81 L3441.61 1522.30 L3466.86 1496.18 L3492.22 1467.10 L3517.47 1434.55 L3542.84 1398.42 L3568.08 1358.07 L3593.45 1313.15 L3618.70 1263.03 L3644.07 1207.10 L3669.31 1144.85 L3694.68 1075.42 L3719.93 998.07 L3745.29 911.94 L3770.66 816.03" stroke-linejoin="round" style="fill:none;stroke:#FF7F00;stroke-width:7.34"/>
	<path d=" M2201.39 1762.01 L2226.76 1761.88 L2252.13 1761.88 L2277.37 1761.76 L2302.74 1761.64 L2327.99 1761.51 L2353.35 1761.39 L2378.60 1761.27 L2403.97 1761.02 L2429.21 1760.89 L2454.58 1760.65 L2479.83 1760.28 L2505.20 1760.03 L2530.44 1759.53 L2555.81 1759.16 L2581.05 1758.67 L2606.42 1758.05 L2631.67 1757.43 L2657.04 1756.69 L2682.28 1755.82 L2707.65 1754.95 L2732.89 1753.84 L2758.26 1752.73 L2783.51 1751.49 L2808.88 1750.25 L2834.12 1748.77 L2859.49 1747.16 L2884.74 1745.42 L2910.11 1743.57 L2935.35 1741.46 L2960.72 1739.36 L2986.09 1736.89 L3011.33 1734.29 L3036.70 1731.44 L3061.95 1728.35 L3087.32 1725.01 L3112.56 1721.29 L3137.93 1717.21 L3163.17 1712.75 L3188.54 1707.68 L3213.79 1702.23 L3239.16 1696.05 L3264.40 1689.24 L3289.77 1681.69 L3315.01 1673.15 L3340.38 1663.75 L3365.63 1653.35 L3391.00 1641.60 L3416.24 1628.60 L3441.61 1614.12 L3466.86 1598.03 L3492.22 1580.09 L3517.47 1560.04 L3542.84 1537.64 L3568.08 1512.77 L3593.45 1484.92 L3618.70 1453.98 L3644.07 1419.46 L3669.31 1380.97 L3694.68 1338.15 L3719.93 1290.26 L3745.29 1237.04 L3770.66 1177.77" stroke-linejoin="round" style="fill:none;stroke:#9C8847;stroke-width:7.34"/>
	<path d=" M2201.39 1762.13 L2226.76 1762.13 L2252.13 1762.01 L2277.37 1762.01 L2302.74 1761.88 L2327.99 1761.88 L2353.35 1761.76 L2378.60 1761.64 L2403.97 1761.51 L2429.21 1761.39 L2454.58 1761.27 L2479.83 1761.02 L2505.20 1760.77 L2530.44 1760.52 L2555.81 1760.28 L2581.05 1759.90 L2606.42 1759.53 L2631.67 1759.16 L2657.04 1758.67 L2682.28 1758.17 L2707.65 1757.55 L2732.89 1756.93 L2758.26 1756.19 L2783.51 1755.32 L2808.88 1754.46 L2834.12 1753.59 L2859.49 1752.48 L2884.74 1751.36 L2910.11 1750.25 L2935.35 1748.89 L2960.72 1747.40 L2986.09 1745.92 L3011.33 1744.19 L3036.70 1742.45 L3061.95 1740.35 L3087.32 1738.25 L3112.56 1735.77 L3137.93 1733.17 L3163.17 1730.33 L3188.54 1727.11 L3213.79 1723.52 L3239.16 1719.56 L3264.40 1715.10 L3289.77 1710.28 L3315.01 1704.83 L3340.38 1698.65 L3365.63 1691.96 L3391.00 1684.41 L3416.24 1676.00 L3441.61 1666.59 L3466.86 1656.20 L3492.22 1644.57 L3517.47 1631.69 L3542.84 1617.22 L3568.08 1601.13 L3593.45 1583.18 L3618.70 1563.14 L3644.07 1540.86 L3669.31 1515.98 L3694.68 1488.26 L3719.93 1457.45 L3745.29 1423.05 L3770.66 1384.68" stroke-linejoin="round" style="fill:none;stroke:#1A476F;stroke-width:7.34"/>
	<line x1="2201.39" y1="1684.41" x2="2204.24" y2="1684.41" style="stroke:#000000;stroke-width:7.34"/>
	<line x1="2224.41" y1="1684.41" x2="2226.76" y2="1684.41" style="stroke:#000000;stroke-width:7.34"/>
	<line x1="2226.76" y1="1684.41" x2="2227.25" y2="1684.41" style="stroke:#000000;stroke-width:7.34"/>
	<line x1="2247.42" y1="1684.41" x2="2250.27" y2="1684.41" style="stroke:#000000;stroke-width:7.34"/>
	<line x1="2270.44" y1="1684.41" x2="2273.29" y2="1684.41" style="stroke:#000000;stroke-width:7.34"/>
	<line x1="2293.46" y1="1684.41" x2="2296.43" y2="1684.41" style="stroke:#000000;stroke-width:7.34"/>
	<line x1="2316.60" y1="1684.41" x2="2319.45" y2="1684.41" style="stroke:#000000;stroke-width:7.34"/>
	<line x1="2339.62" y1="1684.41" x2="2342.46" y2="1684.41" style="stroke:#000000;stroke-width:7.34"/>
	<line x1="2362.64" y1="1684.41" x2="2365.48" y2="1684.41" style="stroke:#000000;stroke-width:7.34"/>
	<line x1="2385.65" y1="1684.41" x2="2388.50" y2="1684.41" style="stroke:#000000;stroke-width:7.34"/>
	<line x1="2408.67" y1="1684.41" x2="2411.52" y2="1684.41" style="stroke:#000000;stroke-width:7.34"/>
	<line x1="2431.69" y1="1684.41" x2="2434.53" y2="1684.41" style="stroke:#000000;stroke-width:7.34"/>
	<line x1="2454.70" y1="1684.41" x2="2457.55" y2="1684.41" style="stroke:#000000;stroke-width:7.34"/>
	<line x1="2477.72" y1="1684.41" x2="2479.83" y2="1684.41" style="stroke:#000000;stroke-width:7.34"/>
	<line x1="2479.83" y1="1684.41" x2="2480.57" y2="1684.41" style="stroke:#000000;stroke-width:7.34"/>
	<line x1="2500.74" y1="1684.41" x2="2503.59" y2="1684.41" style="stroke:#000000;stroke-width:7.34"/>
	<line x1="2523.76" y1="1684.41" x2="2526.60" y2="1684.41" style="stroke:#000000;stroke-width:7.34"/>
	<line x1="2546.78" y1="1684.41" x2="2549.74" y2="1684.41" style="stroke:#000000;stroke-width:7.34"/>
	<line x1="2569.92" y1="1684.41" x2="2572.76" y2="1684.41" style="stroke:#000000;stroke-width:7.34"/>
	<line x1="2592.93" y1="1684.41" x2="2595.78" y2="1684.41" style="stroke:#000000;stroke-width:7.34"/>
	<line x1="2615.95" y1="1684.41" x2="2618.80" y2="1684.41" style="stroke:#000000;stroke-width:7.34"/>
	<line x1="2638.97" y1="1684.41" x2="2641.82" y2="1684.41" style="stroke:#000000;stroke-width:7.34"/>
	<line x1="2661.99" y1="1684.41" x2="2664.83" y2="1684.41" style="stroke:#000000;stroke-width:7.34"/>
	<line x1="2685.00" y1="1684.41" x2="2687.85" y2="1684.41" style="stroke:#000000;stroke-width:7.34"/>
	<line x1="2708.02" y1="1684.41" x2="2710.87" y2="1684.41" style="stroke:#000000;stroke-width:7.34"/>
	<line x1="2731.04" y1="1684.41" x2="2732.89" y2="1684.41" style="stroke:#000000;stroke-width:7.34"/>
	<line x1="2732.89" y1="1684.41" x2="2733.89" y2="1684.41" style="stroke:#000000;stroke-width:7.34"/>
	<line x1="2754.06" y1="1684.41" x2="2756.90" y2="1684.41" style="stroke:#000000;stroke-width:7.34"/>
	<line x1="2777.07" y1="1684.41" x2="2779.92" y2="1684.41" style="stroke:#000000;stroke-width:7.34"/>
	<line x1="2800.09" y1="1684.41" x2="2803.06" y2="1684.41" style="stroke:#000000;stroke-width:7.34"/>
	<line x1="2823.23" y1="1684.41" x2="2826.08" y2="1684.41" style="stroke:#000000;stroke-width:7.34"/>
	<line x1="2846.25" y1="1684.41" x2="2849.10" y2="1684.41" style="stroke:#000000;stroke-width:7.34"/>
	<line x1="2869.27" y1="1684.41" x2="2872.11" y2="1684.41" style="stroke:#000000;stroke-width:7.34"/>
	<line x1="2892.28" y1="1684.41" x2="2895.13" y2="1684.41" style="stroke:#000000;stroke-width:7.34"/>
	<line x1="2915.30" y1="1684.41" x2="2918.15" y2="1684.41" style="stroke:#000000;stroke-width:7.34"/>
	<line x1="2938.32" y1="1684.41" x2="2941.17" y2="1684.41" style="stroke:#000000;stroke-width:7.34"/>
	<line x1="2961.34" y1="1684.41" x2="2964.18" y2="1684.41" style="stroke:#000000;stroke-width:7.34"/>
	<line x1="2984.36" y1="1684.41" x2="2986.09" y2="1684.41" style="stroke:#000000;stroke-width:7.34"/>
	<line x1="2986.09" y1="1684.41" x2="2987.20" y2="1684.41" style="stroke:#000000;stroke-width:7.34"/>
	<line x1="3007.37" y1="1684.41" x2="3010.22" y2="1684.41" style="stroke:#000000;stroke-width:7.34"/>
	<line x1="3030.39" y1="1684.41" x2="3033.36" y2="1684.41" style="stroke:#000000;stroke-width:7.34"/>
	<line x1="3053.41" y1="1684.41" x2="3056.38" y2="1684.41" style="stroke:#000000;stroke-width:7.34"/>
	<line x1="3076.55" y1="1684.41" x2="3079.39" y2="1684.41" style="stroke:#000000;stroke-width:7.34"/>
	<line x1="3099.57" y1="1684.41" x2="3102.41" y2="1684.41" style="stroke:#000000;stroke-width:7.34"/>
	<line x1="3122.58" y1="1684.41" x2="3125.43" y2="1684.41" style="stroke:#000000;stroke-width:7.34"/>
	<line x1="3145.60" y1="1684.41" x2="3148.45" y2="1684.41" style="stroke:#000000;stroke-width:7.34"/>
	<line x1="3168.62" y1="1684.41" x2="3171.47" y2="1684.41" style="stroke:#000000;stroke-width:7.34"/>
	<line x1="3191.64" y1="1684.41" x2="3194.48" y2="1684.41" style="stroke:#000000;stroke-width:7.34"/>
	<line x1="3214.65" y1="1684.41" x2="3217.50" y2="1684.41" style="stroke:#000000;stroke-width:7.34"/>
	<line x1="3237.67" y1="1684.41" x2="3239.16" y2="1684.41" style="stroke:#000000;stroke-width:7.34"/>
	<line x1="3239.16" y1="1684.41" x2="3240.52" y2="1684.41" style="stroke:#000000;stroke-width:7.34"/>
	<line x1="3260.69" y1="1684.41" x2="3263.53" y2="1684.41" style="stroke:#000000;stroke-width:7.34"/>
	<line x1="3283.71" y1="1684.41" x2="3286.68" y2="1684.41" style="stroke:#000000;stroke-width:7.34"/>
	<line x1="3306.72" y1="1684.41" x2="3309.69" y2="1684.41" style="stroke:#000000;stroke-width:7.34"/>
	<line x1="3329.86" y1="1684.41" x2="3332.71" y2="1684.41" style="stroke:#000000;stroke-width:7.34"/>
	<line x1="3352.88" y1="1684.41" x2="3355.73" y2="1684.41" style="stroke:#000000;stroke-width:7.34"/>
	<line x1="3375.90" y1="1684.41" x2="3378.75" y2="1684.41" style="stroke:#000000;stroke-width:7.34"/>
	<line x1="3398.92" y1="1684.41" x2="3401.76" y2="1684.41" style="stroke:#000000;stroke-width:7.34"/>
	<line x1="3421.93" y1="1684.41" x2="3424.78" y2="1684.41" style="stroke:#000000;stroke-width:7.34"/>
	<line x1="3444.95" y1="1684.41" x2="3447.80" y2="1684.41" style="stroke:#000000;stroke-width:7.34"/>
	<line x1="3467.97" y1="1684.41" x2="3470.82" y2="1684.41" style="stroke:#000000;stroke-width:7.34"/>
	<line x1="3490.99" y1="1684.41" x2="3492.22" y2="1684.41" style="stroke:#000000;stroke-width:7.34"/>
	<line x1="3492.22" y1="1684.41" x2="3493.83" y2="1684.41" style="stroke:#000000;stroke-width:7.34"/>
	<line x1="3514.01" y1="1684.41" x2="3516.85" y2="1684.41" style="stroke:#000000;stroke-width:7.34"/>
	<line x1="3537.02" y1="1684.41" x2="3539.99" y2="1684.41" style="stroke:#000000;stroke-width:7.34"/>
	<line x1="3560.04" y1="1684.41" x2="3563.01" y2="1684.41" style="stroke:#000000;stroke-width:7.34"/>
	<line x1="3583.18" y1="1684.41" x2="3586.03" y2="1684.41" style="stroke:#000000;stroke-width:7.34"/>
	<line x1="3606.20" y1="1684.41" x2="3609.05" y2="1684.41" style="stroke:#000000;stroke-width:7.34"/>
	<line x1="3629.22" y1="1684.41" x2="3632.06" y2="1684.41" style="stroke:#000000;stroke-width:7.34"/>
	<line x1="3652.23" y1="1684.41" x2="3655.08" y2="1684.41" style="stroke:#000000;stroke-width:7.34"/>
	<line x1="3675.25" y1="1684.41" x2="3678.10" y2="1684.41" style="stroke:#000000;stroke-width:7.34"/>
	<line x1="3698.27" y1="1684.41" x2="3701.11" y2="1684.41" style="stroke:#000000;stroke-width:7.34"/>
	<line x1="3721.29" y1="1684.41" x2="3724.13" y2="1684.41" style="stroke:#000000;stroke-width:7.34"/>
	<line x1="3744.30" y1="1684.41" x2="3745.29" y2="1684.41" style="stroke:#000000;stroke-width:7.34"/>
	<line x1="3745.29" y1="1684.41" x2="3747.15" y2="1684.41" style="stroke:#000000;stroke-width:7.34"/>
	<line x1="3767.32" y1="1684.41" x2="3770.17" y2="1684.41" style="stroke:#000000;stroke-width:7.34"/>
	<path d="" stroke-linejoin="round" style="fill:none;stroke:#000000;stroke-width:7.34"/>
	<line x1="401.69" y1="1816.09" x2="401.69" y2="258.27" style="stroke:#000000;stroke-width:4.90"/>
	<line x1="401.69" y1="1762.26" x2="367.66" y2="1762.26" style="stroke:#000000;stroke-width:4.90"/>
	<text x="350.71" y="1792.04" style="font-family:'Helvetica';font-size:85.02px;fill:#000000" text-anchor="end">0</text>
	<line x1="401.69" y1="1472.30" x2="367.66" y2="1472.30" style="stroke:#000000;stroke-width:4.90"/>
	<text x="350.71" y="1502.09" style="font-family:'Helvetica';font-size:85.02px;fill:#000000" text-anchor="end">.001</text>
	<line x1="401.69" y1="1182.22" x2="367.66" y2="1182.22" style="stroke:#000000;stroke-width:4.90"/>
	<text x="350.71" y="1212.01" style="font-family:'Helvetica';font-size:85.02px;fill:#000000" text-anchor="end">.002</text>
	<line x1="401.69" y1="892.14" x2="367.66" y2="892.14" style="stroke:#000000;stroke-width:4.90"/>
	<text x="350.71" y="921.93" style="font-family:'Helvetica';font-size:85.02px;fill:#000000" text-anchor="end">.003</text>
	<line x1="401.69" y1="602.19" x2="367.66" y2="602.19" style="stroke:#000000;stroke-width:4.90"/>
	<text x="350.71" y="631.97" style="font-family:'Helvetica';font-size:85.02px;fill:#000000" text-anchor="end">.004</text>
	<line x1="401.69" y1="312.11" x2="367.66" y2="312.11" style="stroke:#000000;stroke-width:4.90"/>
	<text x="350.71" y="341.89" style="font-family:'Helvetica';font-size:85.02px;fill:#000000" text-anchor="end">.005</text>
	<line x1="401.69" y1="1816.09" x2="2078.51" y2="1816.09" style="stroke:#000000;stroke-width:4.90"/>
	<line x1="506.14" y1="1816.09" x2="506.14" y2="1833.17" style="stroke:#000000;stroke-width:4.90"/>
	<line x1="632.73" y1="1816.09" x2="632.73" y2="1833.17" style="stroke:#000000;stroke-width:4.90"/>
	<line x1="759.21" y1="1816.09" x2="759.21" y2="1833.17" style="stroke:#000000;stroke-width:4.90"/>
	<line x1="885.80" y1="1816.09" x2="885.80" y2="1833.17" style="stroke:#000000;stroke-width:4.90"/>
	<line x1="1012.27" y1="1816.09" x2="1012.27" y2="1833.17" style="stroke:#000000;stroke-width:4.90"/>
	<line x1="1138.87" y1="1816.09" x2="1138.87" y2="1833.17" style="stroke:#000000;stroke-width:4.90"/>
	<line x1="1265.47" y1="1816.09" x2="1265.47" y2="1833.17" style="stroke:#000000;stroke-width:4.90"/>
	<line x1="1391.94" y1="1816.09" x2="1391.94" y2="1833.17" style="stroke:#000000;stroke-width:4.90"/>
	<line x1="1518.54" y1="1816.09" x2="1518.54" y2="1833.17" style="stroke:#000000;stroke-width:4.90"/>
	<line x1="1645.01" y1="1816.09" x2="1645.01" y2="1833.17" style="stroke:#000000;stroke-width:4.90"/>
	<line x1="1771.61" y1="1816.09" x2="1771.61" y2="1833.17" style="stroke:#000000;stroke-width:4.90"/>
	<line x1="1898.20" y1="1816.09" x2="1898.20" y2="1833.17" style="stroke:#000000;stroke-width:4.90"/>
	<line x1="2024.67" y1="1816.09" x2="2024.67" y2="1833.17" style="stroke:#000000;stroke-width:4.90"/>
	<line x1="506.14" y1="1816.09" x2="506.14" y2="1850.12" style="stroke:#000000;stroke-width:4.90"/>
	<text x="506.14" y="1926.53" style="font-family:'Helvetica';font-size:85.02px;fill:#000000" text-anchor="middle">20</text>
	<line x1="1012.27" y1="1816.09" x2="1012.27" y2="1850.12" style="stroke:#000000;stroke-width:4.90"/>
	<text x="1012.27" y="1926.53" style="font-family:'Helvetica';font-size:85.02px;fill:#000000" text-anchor="middle">40</text>
	<line x1="1518.54" y1="1816.09" x2="1518.54" y2="1850.12" style="stroke:#000000;stroke-width:4.90"/>
	<text x="1518.54" y="1926.53" style="font-family:'Helvetica';font-size:85.02px;fill:#000000" text-anchor="middle">60</text>
	<line x1="2024.67" y1="1816.09" x2="2024.67" y2="1850.12" style="stroke:#000000;stroke-width:4.90"/>
	<text x="2024.67" y="1926.53" style="font-family:'Helvetica';font-size:85.02px;fill:#000000" text-anchor="middle">80</text>
	<line x1="2147.68" y1="1816.09" x2="3824.49" y2="1816.09" style="stroke:#000000;stroke-width:4.90"/>
	<line x1="2252.13" y1="1816.09" x2="2252.13" y2="1833.17" style="stroke:#000000;stroke-width:4.90"/>
	<line x1="2378.72" y1="1816.09" x2="2378.72" y2="1833.17" style="stroke:#000000;stroke-width:4.90"/>
	<line x1="2505.20" y1="1816.09" x2="2505.20" y2="1833.17" style="stroke:#000000;stroke-width:4.90"/>
	<line x1="2631.79" y1="1816.09" x2="2631.79" y2="1833.17" style="stroke:#000000;stroke-width:4.90"/>
	<line x1="2758.26" y1="1816.09" x2="2758.26" y2="1833.17" style="stroke:#000000;stroke-width:4.90"/>
	<line x1="2884.86" y1="1816.09" x2="2884.86" y2="1833.17" style="stroke:#000000;stroke-width:4.90"/>
	<line x1="3011.46" y1="1816.09" x2="3011.46" y2="1833.17" style="stroke:#000000;stroke-width:4.90"/>
	<line x1="3137.93" y1="1816.09" x2="3137.93" y2="1833.17" style="stroke:#000000;stroke-width:4.90"/>
	<line x1="3264.53" y1="1816.09" x2="3264.53" y2="1833.17" style="stroke:#000000;stroke-width:4.90"/>
	<line x1="3391.00" y1="1816.09" x2="3391.00" y2="1833.17" style="stroke:#000000;stroke-width:4.90"/>
	<line x1="3517.59" y1="1816.09" x2="3517.59" y2="1833.17" style="stroke:#000000;stroke-width:4.90"/>
	<line x1="3644.07" y1="1816.09" x2="3644.07" y2="1833.17" style="stroke:#000000;stroke-width:4.90"/>
	<line x1="3770.66" y1="1816.09" x2="3770.66" y2="1833.17" style="stroke:#000000;stroke-width:4.90"/>
	<line x1="2252.13" y1="1816.09" x2="2252.13" y2="1850.12" style="stroke:#000000;stroke-width:4.90"/>
	<text x="2252.13" y="1926.53" style="font-family:'Helvetica';font-size:85.02px;fill:#000000" text-anchor="middle">20</text>
	<line x1="2758.26" y1="1816.09" x2="2758.26" y2="1850.12" style="stroke:#000000;stroke-width:4.90"/>
	<text x="2758.26" y="1926.53" style="font-family:'Helvetica';font-size:85.02px;fill:#000000" text-anchor="middle">40</text>
	<line x1="3264.53" y1="1816.09" x2="3264.53" y2="1850.12" style="stroke:#000000;stroke-width:4.90"/>
	<text x="3264.53" y="1926.53" style="font-family:'Helvetica';font-size:85.02px;fill:#000000" text-anchor="middle">60</text>
	<line x1="3770.66" y1="1816.09" x2="3770.66" y2="1850.12" style="stroke:#000000;stroke-width:4.90"/>
	<text x="3770.66" y="1926.53" style="font-family:'Helvetica';font-size:85.02px;fill:#000000" text-anchor="middle">80</text>
	<rect x="401.69" y="135.39" width="1676.81" height="122.89" style="fill:#D9E6EB"/>
	<rect x="404.14" y="137.83" width="1671.92" height="117.99" style="fill:none;stroke:#D9E6EB;stroke-width:4.90"/>
	<text x="1240.10" y="215.42" style="font-family:'Helvetica';font-size:93.56px;fill:#000000" text-anchor="middle">Female</text>
	<rect x="2147.68" y="135.39" width="1676.81" height="122.89" style="fill:#D9E6EB"/>
	<rect x="2150.13" y="137.83" width="1671.92" height="117.99" style="fill:none;stroke:#D9E6EB;stroke-width:4.90"/>
	<text x="2986.09" y="215.42" style="font-family:'Helvetica';font-size:93.56px;fill:#000000" text-anchor="middle">Male</text>
	<rect x="459.73" y="2138.22" width="3040.41" height="606.39" style="fill:#FFFFFF"/>
	<rect x="462.61" y="2141.10" width="3034.65" height="600.63" style="fill:none;stroke:#000000;stroke-width:5.76"/>
	<line x1="502.92" y1="2231.41" x2="877.26" y2="2231.41" style="stroke:#008000;stroke-width:8.64"/>
	<line x1="502.92" y1="2371.50" x2="877.26" y2="2371.50" style="stroke:#55752F;stroke-width:8.64"/>
	<line x1="502.92" y1="2511.46" x2="877.26" y2="2511.46" style="stroke:#00FF00;stroke-width:8.64"/>
	<line x1="502.92" y1="2651.43" x2="877.26" y2="2651.43" style="stroke:#FFD200;stroke-width:8.64"/>
	<line x1="2033.95" y1="2231.41" x2="2408.30" y2="2231.41" style="stroke:#FF7F00;stroke-width:8.64"/>
	<line x1="2033.95" y1="2371.50" x2="2408.30" y2="2371.50" style="stroke:#9C8847;stroke-width:8.64"/>
	<line x1="2033.95" y1="2511.46" x2="2408.30" y2="2511.46" style="stroke:#1A476F;stroke-width:8.64"/>
	<text x="937.28" y="2266.43" style="font-family:'Helvetica';font-size:99.99px;fill:#000000">Other cancer (&lt;1yr)</text>
	<text x="937.28" y="2406.52" style="font-family:'Helvetica';font-size:99.99px;fill:#000000">Other cancer (2-5yr)</text>
	<text x="937.28" y="2546.49" style="font-family:'Helvetica';font-size:99.99px;fill:#000000">Other cancer (&gt;5yr)</text>
	<text x="937.28" y="2686.46" style="font-family:'Helvetica';font-size:99.99px;fill:#000000">Haem. cancer (&lt;1yr)</text>
	<text x="2468.32" y="2266.43" style="font-family:'Helvetica';font-size:99.99px;fill:#000000">Haem. cancer (2-5yr)</text>
	<text x="2468.32" y="2406.52" style="font-family:'Helvetica';font-size:99.99px;fill:#000000">Haem. cancer (&gt;5yr)</text>
	<text x="2468.32" y="2546.49" style="font-family:'Helvetica';font-size:99.99px;fill:#000000">No comborbidity</text>
	<text x="1980.00" y="2073.63" style="font-family:'Helvetica';font-size:99.99px;fill:#000000" text-anchor="middle">Age (years)</text>
</svg>
