<?xml version="1.0" encoding="UTF-8" standalone="no"?>
<!-- This is a Stata 16.1 generated SVG file (http://www.stata.com) -->

<svg version="1.1" width="1600px" height="1164px" viewBox="0 0 3960 2880" xmlns="http://www.w3.org/2000/svg" xmlns:xlink="http://www.w3.org/1999/xlink">
	<desc>Stata Graph - Graph</desc>
	<rect x="0" y="0" width="3960" height="2880" style="fill:#EAF2F3;stroke:none"/>
	<rect x="0.00" y="0.00" width="3959.88" height="2880.00" style="fill:#EAF2F3"/>
	<rect x="2.88" y="2.88" width="3954.12" height="2874.24" style="fill:none;stroke:#EAF2F3;stroke-width:5.76"/>
	<rect x="401.69" y="258.27" width="1676.81" height="1697.90" style="fill:#FFFFFF"/>
	<rect x="404.14" y="260.72" width="1671.92" height="1693.01" style="fill:none;stroke:#FFFFFF;stroke-width:4.90"/>
	<line x1="401.69" y1="1902.22" x2="2078.51" y2="1902.22" style="stroke:#EAF2F3;stroke-width:7.34"/>
	<line x1="401.69" y1="1725.62" x2="2078.51" y2="1725.62" style="stroke:#EAF2F3;stroke-width:7.34"/>
	<line x1="401.69" y1="1548.90" x2="2078.51" y2="1548.90" style="stroke:#EAF2F3;stroke-width:7.34"/>
	<line x1="401.69" y1="1372.18" x2="2078.51" y2="1372.18" style="stroke:#EAF2F3;stroke-width:7.34"/>
	<line x1="401.69" y1="1195.59" x2="2078.51" y2="1195.59" style="stroke:#EAF2F3;stroke-width:7.34"/>
	<line x1="401.69" y1="1018.87" x2="2078.51" y2="1018.87" style="stroke:#EAF2F3;stroke-width:7.34"/>
	<line x1="401.69" y1="842.15" x2="2078.51" y2="842.15" style="stroke:#EAF2F3;stroke-width:7.34"/>
	<line x1="401.69" y1="665.42" x2="2078.51" y2="665.42" style="stroke:#EAF2F3;stroke-width:7.34"/>
	<line x1="401.69" y1="488.83" x2="2078.51" y2="488.83" style="stroke:#EAF2F3;stroke-width:7.34"/>
	<rect x="2147.68" y="258.27" width="1676.81" height="1697.90" style="fill:#FFFFFF"/>
	<rect x="2150.13" y="260.72" width="1671.92" height="1693.01" style="fill:none;stroke:#FFFFFF;stroke-width:4.90"/>
	<line x1="2147.68" y1="1902.22" x2="3824.49" y2="1902.22" style="stroke:#EAF2F3;stroke-width:7.34"/>
	<line x1="2147.68" y1="1725.62" x2="3824.49" y2="1725.62" style="stroke:#EAF2F3;stroke-width:7.34"/>
	<line x1="2147.68" y1="1548.90" x2="3824.49" y2="1548.90" style="stroke:#EAF2F3;stroke-width:7.34"/>
	<line x1="2147.68" y1="1372.18" x2="3824.49" y2="1372.18" style="stroke:#EAF2F3;stroke-width:7.34"/>
	<line x1="2147.68" y1="1195.59" x2="3824.49" y2="1195.59" style="stroke:#EAF2F3;stroke-width:7.34"/>
	<line x1="2147.68" y1="1018.87" x2="3824.49" y2="1018.87" style="stroke:#EAF2F3;stroke-width:7.34"/>
	<line x1="2147.68" y1="842.15" x2="3824.49" y2="842.15" style="stroke:#EAF2F3;stroke-width:7.34"/>
	<line x1="2147.68" y1="665.42" x2="3824.49" y2="665.42" style="stroke:#EAF2F3;stroke-width:7.34"/>
	<line x1="2147.68" y1="488.83" x2="3824.49" y2="488.83" style="stroke:#EAF2F3;stroke-width:7.34"/>
	<defs>
		<path id="path_VnBJENvN" d="M455.52 1893.43 L455.52 1893.43 L480.89 1892.57 L506.14 1891.70 L531.51 1890.59 L556.75 1889.47 L582.12 1888.24 L607.37 1886.88 L632.73 1885.39 L657.98 1883.78 L683.35 1882.05 L708.59 1880.19 L733.96 1878.34 L759.21 1876.23 L784.58 1874.13 L809.82 1871.90 L835.19 1869.55 L860.43 1867.20 L885.80 1864.85 L911.05 1862.50 L936.42 1860.14 L961.66 1857.67 L987.03 1855.44 L1012.27 1853.21 L1037.64 1851.11 L1062.89 1849.13 L1088.26 1847.27 L1113.50 1845.54 L1138.87 1843.93 L1164.24 1842.32 L1189.48 1840.84 L1214.85 1839.48 L1240.10 1838.12 L1265.47 1836.75 L1290.71 1835.39 L1316.08 1833.91 L1341.33 1832.42 L1366.69 1830.81 L1391.94 1829.21 L1417.31 1827.23 L1442.55 1825.12 L1467.92 1822.77 L1493.17 1820.05 L1518.54 1817.08 L1543.78 1813.74 L1569.15 1810.02 L1594.39 1805.94 L1619.76 1801.49 L1645.01 1796.66 L1670.38 1791.34 L1695.62 1785.52 L1720.99 1779.21 L1746.24 1772.40 L1771.61 1764.98 L1796.85 1756.93 L1822.22 1748.15 L1847.46 1738.74 L1872.83 1728.59 L1898.20 1717.58 L1923.45 1705.82 L1948.82 1693.08 L1974.06 1679.46 L1999.43 1664.86 L2024.67 1649.27 L2024.67 1615.24 L1999.43 1633.06 L1974.06 1649.76 L1948.82 1665.36 L1923.45 1679.71 L1898.20 1693.08 L1872.83 1705.58 L1847.46 1717.08 L1822.22 1727.73 L1796.85 1737.63 L1771.61 1746.66 L1746.24 1755.08 L1720.99 1762.87 L1695.62 1770.05 L1670.38 1776.61 L1645.01 1782.55 L1619.76 1788.12 L1594.39 1793.19 L1569.15 1797.77 L1543.78 1801.98 L1518.54 1805.82 L1493.17 1809.28 L1467.92 1812.25 L1442.55 1815.10 L1417.31 1817.45 L1391.94 1819.68 L1366.69 1821.53 L1341.33 1823.27 L1316.08 1825.00 L1290.71 1826.48 L1265.47 1827.97 L1240.10 1829.45 L1214.85 1830.94 L1189.48 1832.42 L1164.24 1834.03 L1138.87 1835.64 L1113.50 1837.50 L1088.26 1839.48 L1062.89 1841.46 L1037.64 1843.69 L1012.27 1846.16 L987.03 1848.64 L961.66 1851.36 L936.42 1854.08 L911.05 1856.80 L885.80 1859.53 L860.43 1862.12 L835.19 1864.72 L809.82 1867.20 L784.58 1869.67 L759.21 1872.02 L733.96 1874.13 L708.59 1876.23 L683.35 1878.21 L657.98 1879.94 L632.73 1881.68 L607.37 1883.29 L582.12 1884.65 L556.75 1886.01 L531.51 1887.25 L506.14 1888.48 L480.89 1889.47 L455.52 1890.46 L455.52 1893.43 Z" stroke-linejoin="round"/>
	</defs>
	<defs>
		<clipPath id="clipPath_XaNQymDK">
			<use xlink:href="#path_VnBJENvN"/>
		</clipPath>
	</defs>
	<use xlink:href="#path_VnBJENvN" style="stroke:none;fill:#E6E6E6"/>
	<use xlink:href="#path_VnBJENvN" style="fill:none;stroke:#E0E0E0;stroke-width:14.69" clip-path="url(#clipPath_XaNQymDK)"/>
	<defs>
		<path id="path_CRFlBRCK" d="M455.52 1886.13 L455.52 1886.13 L480.89 1884.52 L506.14 1882.79 L531.51 1880.94 L556.75 1878.95 L582.12 1876.60 L607.37 1874.25 L632.73 1871.53 L657.98 1868.68 L683.35 1865.71 L708.59 1862.50 L733.96 1859.03 L759.21 1855.32 L784.58 1851.61 L809.82 1847.65 L835.19 1843.56 L860.43 1839.35 L885.80 1835.02 L911.05 1830.81 L936.42 1826.48 L961.66 1822.28 L987.03 1818.07 L1012.27 1814.11 L1037.64 1810.40 L1062.89 1806.81 L1088.26 1803.47 L1113.50 1800.37 L1138.87 1797.40 L1164.24 1794.68 L1189.48 1792.08 L1214.85 1789.48 L1240.10 1787.01 L1265.47 1784.65 L1290.71 1782.18 L1316.08 1779.70 L1341.33 1776.98 L1366.69 1774.14 L1391.94 1771.17 L1417.31 1767.70 L1442.55 1763.86 L1467.92 1759.53 L1493.17 1754.71 L1518.54 1749.38 L1543.78 1743.32 L1569.15 1736.76 L1594.39 1729.46 L1619.76 1721.54 L1645.01 1712.75 L1670.38 1703.22 L1695.62 1692.83 L1720.99 1681.57 L1746.24 1669.19 L1771.61 1655.95 L1796.85 1641.47 L1822.22 1625.88 L1847.46 1608.92 L1872.83 1590.73 L1898.20 1571.06 L1923.45 1549.89 L1948.82 1527.25 L1974.06 1502.87 L1999.43 1476.63 L2024.67 1448.66 L2024.67 1332.71 L1999.43 1368.10 L1974.06 1401.14 L1948.82 1431.96 L1923.45 1460.54 L1898.20 1487.15 L1872.83 1511.78 L1847.46 1534.67 L1822.22 1555.83 L1796.85 1575.39 L1771.61 1593.58 L1746.24 1610.29 L1720.99 1625.63 L1695.62 1639.86 L1670.38 1652.86 L1645.01 1664.86 L1619.76 1675.75 L1594.39 1685.78 L1569.15 1694.93 L1543.78 1703.22 L1518.54 1710.77 L1493.17 1717.58 L1467.92 1723.64 L1442.55 1729.09 L1417.31 1733.92 L1391.94 1738.12 L1366.69 1741.96 L1341.33 1745.42 L1316.08 1748.77 L1290.71 1751.74 L1265.47 1754.71 L1240.10 1757.68 L1214.85 1760.65 L1189.48 1763.74 L1164.24 1766.83 L1138.87 1770.30 L1113.50 1773.89 L1088.26 1777.72 L1062.89 1781.81 L1037.64 1786.26 L1012.27 1790.97 L987.03 1796.04 L961.66 1801.24 L936.42 1806.56 L911.05 1812.00 L885.80 1817.45 L860.43 1822.77 L835.19 1827.97 L809.82 1832.92 L784.58 1837.74 L759.21 1842.45 L733.96 1846.78 L708.59 1850.99 L683.35 1854.82 L657.98 1858.41 L632.73 1861.88 L607.37 1864.97 L582.12 1867.94 L556.75 1870.54 L531.51 1873.01 L506.14 1875.37 L480.89 1877.47 L455.52 1879.33 L455.52 1886.13 Z" stroke-linejoin="round"/>
	</defs>
	<defs>
		<clipPath id="clipPath_OZzAlNRO">
			<use xlink:href="#path_CRFlBRCK"/>
		</clipPath>
	</defs>
	<use xlink:href="#path_CRFlBRCK" style="stroke:none;fill:#E6E6E6"/>
	<use xlink:href="#path_CRFlBRCK" style="fill:none;stroke:#E0E0E0;stroke-width:14.69" clip-path="url(#clipPath_OZzAlNRO)"/>
	<defs>
		<path id="path_fDQZquxm" d="M455.52 1890.34 L455.52 1890.34 L480.89 1889.23 L506.14 1887.87 L531.51 1886.50 L556.75 1884.90 L582.12 1883.29 L607.37 1881.43 L632.73 1879.45 L657.98 1877.22 L683.35 1874.99 L708.59 1872.52 L733.96 1869.92 L759.21 1867.07 L784.58 1864.23 L809.82 1861.26 L835.19 1858.16 L860.43 1854.95 L885.80 1851.73 L911.05 1848.51 L936.42 1845.29 L961.66 1842.08 L987.03 1838.98 L1012.27 1836.01 L1037.64 1833.17 L1062.89 1830.57 L1088.26 1828.09 L1113.50 1825.74 L1138.87 1823.51 L1164.24 1821.41 L1189.48 1819.43 L1214.85 1817.57 L1240.10 1815.72 L1265.47 1813.86 L1290.71 1812.00 L1316.08 1810.15 L1341.33 1808.17 L1366.69 1805.94 L1391.94 1803.71 L1417.31 1801.11 L1442.55 1798.27 L1467.92 1795.05 L1493.17 1791.34 L1518.54 1787.25 L1543.78 1782.80 L1569.15 1777.85 L1594.39 1772.28 L1619.76 1766.34 L1645.01 1759.66 L1670.38 1752.48 L1695.62 1744.56 L1720.99 1736.02 L1746.24 1726.74 L1771.61 1716.59 L1796.85 1705.70 L1822.22 1693.82 L1847.46 1680.95 L1872.83 1667.09 L1898.20 1652.24 L1923.45 1636.15 L1948.82 1618.82 L1974.06 1600.26 L1999.43 1580.34 L2024.67 1559.05 L2024.67 1509.55 L1999.43 1533.81 L1974.06 1556.45 L1948.82 1577.61 L1923.45 1597.29 L1898.20 1615.48 L1872.83 1632.44 L1847.46 1648.15 L1822.22 1662.76 L1796.85 1676.12 L1771.61 1688.62 L1746.24 1700.13 L1720.99 1710.65 L1695.62 1720.43 L1670.38 1729.46 L1645.01 1737.75 L1619.76 1745.30 L1594.39 1752.23 L1569.15 1758.54 L1543.78 1764.24 L1518.54 1769.43 L1493.17 1774.14 L1467.92 1778.34 L1442.55 1782.18 L1417.31 1785.40 L1391.94 1788.37 L1366.69 1791.09 L1341.33 1793.56 L1316.08 1795.79 L1290.71 1797.90 L1265.47 1799.88 L1240.10 1801.98 L1214.85 1803.96 L1189.48 1806.06 L1164.24 1808.29 L1138.87 1810.64 L1113.50 1813.12 L1088.26 1815.84 L1062.89 1818.69 L1037.64 1821.78 L1012.27 1825.00 L987.03 1828.59 L961.66 1832.18 L936.42 1835.89 L911.05 1839.60 L885.80 1843.44 L860.43 1847.03 L835.19 1850.62 L809.82 1854.08 L784.58 1857.42 L759.21 1860.64 L733.96 1863.61 L708.59 1866.46 L683.35 1869.18 L657.98 1871.65 L632.73 1874.00 L607.37 1876.11 L582.12 1878.09 L556.75 1879.94 L531.51 1881.68 L506.14 1883.29 L480.89 1884.77 L455.52 1886.13 L455.52 1890.34 Z" stroke-linejoin="round"/>
	</defs>
	<defs>
		<clipPath id="clipPath_YMLJZZQO">
			<use xlink:href="#path_fDQZquxm"/>
		</clipPath>
	</defs>
	<use xlink:href="#path_fDQZquxm" style="stroke:none;fill:#E6E6E6"/>
	<use xlink:href="#path_fDQZquxm" style="fill:none;stroke:#E0E0E0;stroke-width:14.69" clip-path="url(#clipPath_YMLJZZQO)"/>
	<defs>
		<path id="path_FtJzHCwa" d="M455.52 1879.70 L455.52 1879.70 L480.89 1877.47 L506.14 1875.12 L531.51 1872.40 L556.75 1869.55 L582.12 1866.33 L607.37 1862.87 L632.73 1859.15 L657.98 1855.07 L683.35 1850.74 L708.59 1846.16 L733.96 1841.21 L759.21 1836.14 L784.58 1830.69 L809.82 1825.12 L835.19 1819.31 L860.43 1813.37 L885.80 1807.30 L911.05 1801.24 L936.42 1795.17 L961.66 1789.23 L987.03 1783.42 L1012.27 1777.72 L1037.64 1772.53 L1062.89 1767.45 L1088.26 1762.87 L1113.50 1758.42 L1138.87 1754.33 L1164.24 1750.37 L1189.48 1746.79 L1214.85 1743.20 L1240.10 1739.73 L1265.47 1736.39 L1290.71 1732.93 L1316.08 1729.34 L1341.33 1725.75 L1366.69 1721.66 L1391.94 1717.46 L1417.31 1712.63 L1442.55 1707.18 L1467.92 1701.12 L1493.17 1694.31 L1518.54 1686.77 L1543.78 1678.35 L1569.15 1668.94 L1594.39 1658.67 L1619.76 1647.41 L1645.01 1635.04 L1670.38 1621.55 L1695.62 1606.82 L1720.99 1590.73 L1746.24 1573.28 L1771.61 1554.35 L1796.85 1533.93 L1822.22 1511.65 L1847.46 1487.65 L1872.83 1461.78 L1898.20 1433.81 L1923.45 1403.74 L1948.82 1371.32 L1974.06 1336.67 L1999.43 1299.29 L2024.67 1259.44 L2024.67 1138.66 L1999.43 1185.81 L1974.06 1229.87 L1948.82 1270.83 L1923.45 1309.07 L1898.20 1344.46 L1872.83 1377.38 L1847.46 1407.95 L1822.22 1436.29 L1796.85 1462.40 L1771.61 1486.66 L1746.24 1509.05 L1720.99 1529.60 L1695.62 1548.66 L1670.38 1566.11 L1645.01 1582.19 L1619.76 1596.92 L1594.39 1610.29 L1569.15 1622.66 L1543.78 1633.80 L1518.54 1643.95 L1493.17 1653.10 L1467.92 1661.27 L1442.55 1668.57 L1417.31 1675.13 L1391.94 1680.83 L1366.69 1686.02 L1341.33 1690.85 L1316.08 1695.18 L1290.71 1699.39 L1265.47 1703.47 L1240.10 1707.43 L1214.85 1711.39 L1189.48 1715.48 L1164.24 1719.81 L1138.87 1724.39 L1113.50 1729.21 L1088.26 1734.41 L1062.89 1739.98 L1037.64 1746.04 L1012.27 1752.48 L987.03 1759.16 L961.66 1766.22 L936.42 1773.52 L911.05 1780.69 L885.80 1788.00 L860.43 1795.17 L835.19 1802.10 L809.82 1808.91 L784.58 1815.35 L759.21 1821.53 L733.96 1827.47 L708.59 1832.92 L683.35 1838.12 L657.98 1843.07 L632.73 1847.52 L607.37 1851.73 L582.12 1855.69 L556.75 1859.28 L531.51 1862.62 L506.14 1865.71 L480.89 1868.44 L455.52 1871.03 L455.52 1879.70 Z" stroke-linejoin="round"/>
	</defs>
	<defs>
		<clipPath id="clipPath_GYsItNTa">
			<use xlink:href="#path_FtJzHCwa"/>
		</clipPath>
	</defs>
	<use xlink:href="#path_FtJzHCwa" style="stroke:none;fill:#E6E6E6"/>
	<use xlink:href="#path_FtJzHCwa" style="fill:none;stroke:#E0E0E0;stroke-width:14.69" clip-path="url(#clipPath_GYsItNTa)"/>
	<defs>
		<path id="path_mFrYeAar" d="M455.52 1881.31 L455.52 1881.31 L480.89 1879.33 L506.14 1877.10 L531.51 1874.62 L556.75 1872.02 L582.12 1869.18 L607.37 1866.08 L632.73 1862.74 L657.98 1859.03 L683.35 1855.19 L708.59 1851.11 L733.96 1846.78 L759.21 1842.08 L784.58 1837.25 L809.82 1832.30 L835.19 1827.10 L860.43 1821.66 L885.80 1816.21 L911.05 1810.77 L936.42 1805.20 L961.66 1799.75 L987.03 1794.55 L1012.27 1789.48 L1037.64 1784.65 L1062.89 1780.08 L1088.26 1775.87 L1113.50 1771.91 L1138.87 1768.07 L1164.24 1764.61 L1189.48 1761.27 L1214.85 1758.05 L1240.10 1754.95 L1265.47 1751.86 L1290.71 1748.77 L1316.08 1745.55 L1341.33 1742.21 L1366.69 1738.49 L1391.94 1734.66 L1417.31 1730.33 L1442.55 1725.38 L1467.92 1719.93 L1493.17 1713.74 L1518.54 1706.81 L1543.78 1699.14 L1569.15 1690.73 L1594.39 1681.44 L1619.76 1671.30 L1645.01 1660.16 L1670.38 1647.91 L1695.62 1634.66 L1720.99 1620.31 L1746.24 1604.59 L1771.61 1587.64 L1796.85 1569.20 L1822.22 1549.40 L1847.46 1527.87 L1872.83 1504.60 L1898.20 1479.60 L1923.45 1452.62 L1948.82 1423.66 L1974.06 1392.60 L1999.43 1359.31 L2024.67 1323.55 L2024.67 1077.28 L1999.43 1128.51 L1974.06 1176.40 L1948.82 1220.96 L1923.45 1262.54 L1898.20 1301.02 L1872.83 1336.79 L1847.46 1369.96 L1822.22 1400.65 L1796.85 1429.11 L1771.61 1455.35 L1746.24 1479.60 L1720.99 1501.88 L1695.62 1522.42 L1670.38 1541.35 L1645.01 1558.68 L1619.76 1574.52 L1594.39 1589.12 L1569.15 1602.24 L1543.78 1614.37 L1518.54 1625.26 L1493.17 1635.04 L1467.92 1643.82 L1442.55 1651.74 L1417.31 1658.67 L1391.94 1664.86 L1366.69 1670.43 L1341.33 1675.50 L1316.08 1680.21 L1290.71 1684.66 L1265.47 1688.99 L1240.10 1693.20 L1214.85 1697.53 L1189.48 1701.99 L1164.24 1706.57 L1138.87 1711.52 L1113.50 1716.71 L1088.26 1722.28 L1062.89 1728.22 L1037.64 1734.66 L1012.27 1741.46 L987.03 1748.77 L961.66 1756.31 L936.42 1763.99 L911.05 1771.91 L885.80 1779.70 L860.43 1787.38 L835.19 1794.93 L809.82 1802.23 L784.58 1809.28 L759.21 1815.96 L733.96 1822.28 L708.59 1828.34 L683.35 1834.03 L657.98 1839.35 L632.73 1844.18 L607.37 1848.76 L582.12 1853.09 L556.75 1856.93 L531.51 1860.52 L506.14 1863.86 L480.89 1866.83 L455.52 1869.67 L455.52 1881.31 Z" stroke-linejoin="round"/>
	</defs>
	<defs>
		<clipPath id="clipPath_NpczPnFR">
			<use xlink:href="#path_mFrYeAar"/>
		</clipPath>
	</defs>
	<use xlink:href="#path_mFrYeAar" style="stroke:none;fill:#E6E6E6"/>
	<use xlink:href="#path_mFrYeAar" style="fill:none;stroke:#E0E0E0;stroke-width:14.69" clip-path="url(#clipPath_NpczPnFR)"/>
	<path d=" M455.52 1883.16 L480.77 1881.31 L506.14 1879.45 L531.38 1877.35 L556.75 1875.12 L582.00 1872.64 L607.37 1869.92 L632.61 1867.07 L657.98 1863.98 L683.22 1860.64 L708.59 1857.05 L733.84 1853.34 L759.21 1849.38 L784.45 1845.17 L809.82 1840.84 L835.07 1836.26 L860.43 1831.56 L885.68 1826.85 L911.05 1822.03 L936.29 1817.20 L961.66 1812.38 L986.91 1807.80 L1012.27 1803.34 L1037.52 1799.01 L1062.89 1795.05 L1088.13 1791.46 L1113.50 1787.87 L1138.87 1784.65 L1164.12 1781.68 L1189.48 1778.71 L1214.73 1775.99 L1240.10 1773.27 L1265.34 1770.55 L1290.71 1767.95 L1315.96 1765.10 L1341.33 1762.26 L1366.57 1759.04 L1391.94 1755.57 L1417.18 1751.86 L1442.55 1747.53 L1467.80 1742.70 L1493.17 1737.26 L1518.41 1731.19 L1543.78 1724.51 L1569.03 1717.08 L1594.39 1708.92 L1619.64 1700.01 L1645.01 1690.23 L1670.25 1679.46 L1695.62 1667.83 L1720.87 1655.21 L1746.24 1641.47 L1771.48 1626.50 L1796.85 1610.41 L1822.10 1592.84 L1847.46 1574.03 L1872.71 1553.61 L1898.08 1531.58 L1923.45 1507.82 L1948.69 1482.32 L1974.06 1454.97 L1999.31 1425.52 L2024.67 1393.96" stroke-linejoin="round" style="fill:none;stroke:#FF0000;stroke-width:7.34"/>
	<path d=" M455.52 1888.48 L480.77 1887.25 L506.14 1885.76 L531.38 1884.28 L556.75 1882.67 L582.00 1880.94 L607.37 1878.95 L632.61 1876.85 L657.98 1874.62 L683.22 1872.27 L708.59 1869.67 L733.84 1866.95 L759.21 1864.10 L784.45 1861.01 L809.82 1857.92 L835.07 1854.58 L860.43 1851.23 L885.68 1847.77 L911.05 1844.30 L936.29 1840.84 L961.66 1837.37 L986.91 1834.03 L1012.27 1830.81 L1037.52 1827.72 L1062.89 1824.87 L1088.13 1822.28 L1113.50 1819.68 L1138.87 1817.33 L1164.12 1815.22 L1189.48 1813.12 L1214.73 1811.14 L1240.10 1809.16 L1265.34 1807.18 L1290.71 1805.32 L1315.96 1803.22 L1341.33 1801.11 L1366.57 1798.89 L1391.94 1796.41 L1417.18 1793.69 L1442.55 1790.59 L1467.80 1787.01 L1493.17 1783.17 L1518.41 1778.71 L1543.78 1773.89 L1569.03 1768.57 L1594.39 1762.63 L1619.64 1756.19 L1645.01 1749.14 L1670.25 1741.46 L1695.62 1733.05 L1720.87 1723.89 L1746.24 1713.99 L1771.48 1703.10 L1796.85 1691.47 L1822.10 1678.84 L1847.46 1665.23 L1872.71 1650.38 L1898.08 1634.54 L1923.45 1617.46 L1948.69 1599.02 L1974.06 1579.22 L1999.31 1557.94 L2024.67 1535.17" stroke-linejoin="round" style="fill:none;stroke:#FFD200;stroke-width:7.34"/>
	<path d=" M455.52 1875.86 L480.77 1873.39 L506.14 1870.79 L531.38 1867.94 L556.75 1864.85 L582.00 1861.38 L607.37 1857.67 L632.61 1853.71 L657.98 1849.50 L683.22 1844.92 L708.59 1839.97 L733.84 1834.77 L759.21 1829.21 L784.45 1823.51 L809.82 1817.45 L835.07 1811.14 L860.43 1804.70 L885.68 1798.14 L911.05 1791.58 L936.29 1784.90 L961.66 1778.34 L986.91 1771.91 L1012.27 1765.72 L1037.52 1759.90 L1062.89 1754.46 L1088.13 1749.38 L1113.50 1744.56 L1138.87 1740.10 L1164.12 1735.90 L1189.48 1731.94 L1214.73 1728.10 L1240.10 1724.39 L1265.34 1720.67 L1290.71 1716.96 L1315.96 1713.12 L1341.33 1709.04 L1366.57 1704.71 L1391.94 1700.01 L1417.18 1694.81 L1442.55 1688.87 L1467.80 1682.19 L1493.17 1674.76 L1518.41 1666.35 L1543.78 1657.06 L1569.03 1646.92 L1594.39 1635.65 L1619.64 1623.28 L1645.01 1609.79 L1670.25 1595.06 L1695.62 1579.10 L1720.87 1561.65 L1746.24 1542.72 L1771.48 1522.05 L1796.85 1499.77 L1822.10 1475.64 L1847.46 1449.65 L1872.71 1421.56 L1898.08 1391.12 L1923.45 1358.45 L1948.69 1323.30 L1974.06 1285.56 L1999.31 1245.09 L2024.67 1201.65" stroke-linejoin="round" style="fill:none;stroke:#FF7F00;stroke-width:7.34"/>
	<path d=" M455.52 1876.23 L480.77 1873.76 L506.14 1871.16 L531.38 1868.44 L556.75 1865.34 L582.00 1862.00 L607.37 1858.29 L632.61 1854.45 L657.98 1850.24 L683.22 1845.67 L708.59 1840.84 L733.84 1835.64 L759.21 1830.32 L784.45 1824.63 L809.82 1818.56 L835.07 1812.50 L860.43 1806.06 L885.68 1799.63 L911.05 1793.07 L936.29 1786.51 L961.66 1780.08 L986.91 1773.76 L1012.27 1767.70 L1037.52 1761.88 L1062.89 1756.56 L1088.13 1751.49 L1113.50 1746.79 L1138.87 1742.33 L1164.12 1738.25 L1189.48 1734.29 L1214.73 1730.45 L1240.10 1726.86 L1265.34 1723.15 L1290.71 1719.56 L1315.96 1715.72 L1341.33 1711.76 L1366.57 1707.43 L1391.94 1702.85 L1417.18 1697.66 L1442.55 1691.84 L1467.80 1685.28 L1493.17 1677.85 L1518.41 1669.69 L1543.78 1660.53 L1569.03 1650.38 L1594.39 1639.37 L1619.64 1627.24 L1645.01 1613.87 L1670.25 1599.39 L1695.62 1583.55 L1720.87 1566.35 L1746.24 1547.67 L1771.48 1527.37 L1796.85 1505.34 L1822.10 1481.58 L1847.46 1455.84 L1872.71 1428.12 L1898.08 1398.17 L1923.45 1366.00 L1948.69 1331.34 L1974.06 1294.09 L1999.31 1254.12 L2024.67 1211.30" stroke-linejoin="round" style="fill:none;stroke:#008000;stroke-width:7.34"/>
	<path d=" M455.52 1892.20 L480.77 1891.21 L506.14 1890.22 L531.38 1889.10 L556.75 1887.87 L582.00 1886.63 L607.37 1885.14 L632.61 1883.66 L657.98 1882.05 L683.22 1880.32 L708.59 1878.34 L733.84 1876.36 L759.21 1874.25 L784.45 1872.02 L809.82 1869.67 L835.07 1867.32 L860.43 1864.85 L885.68 1862.37 L911.05 1859.77 L936.29 1857.17 L961.66 1854.70 L986.91 1852.22 L1012.27 1849.87 L1037.52 1847.65 L1062.89 1845.54 L1088.13 1843.56 L1113.50 1841.71 L1138.87 1839.97 L1164.12 1838.36 L1189.48 1836.88 L1214.73 1835.39 L1240.10 1833.91 L1265.34 1832.55 L1290.71 1831.06 L1315.96 1829.58 L1341.33 1828.09 L1366.57 1826.36 L1391.94 1824.63 L1417.18 1822.52 L1442.55 1820.30 L1467.80 1817.70 L1493.17 1814.85 L1518.41 1811.63 L1543.78 1808.04 L1569.03 1804.21 L1594.39 1799.88 L1619.64 1795.05 L1645.01 1789.98 L1670.25 1784.28 L1695.62 1778.10 L1720.87 1771.41 L1746.24 1764.11 L1771.48 1756.19 L1796.85 1747.65 L1822.10 1738.37 L1847.46 1728.35 L1872.71 1717.46 L1898.08 1705.82 L1923.45 1693.20 L1948.69 1679.71 L1974.06 1665.11 L1999.31 1649.52 L2024.67 1632.81" stroke-linejoin="round" style="fill:none;stroke:#1A476F;stroke-width:7.34"/>
	<line x1="455.52" y1="1789.98" x2="458.37" y2="1789.98" style="stroke:#000000;stroke-width:7.34"/>
	<line x1="478.54" y1="1789.98" x2="480.77" y2="1789.98" style="stroke:#000000;stroke-width:7.34"/>
	<line x1="480.77" y1="1789.98" x2="481.39" y2="1789.98" style="stroke:#000000;stroke-width:7.34"/>
	<line x1="501.56" y1="1789.98" x2="504.40" y2="1789.98" style="stroke:#000000;stroke-width:7.34"/>
	<line x1="524.58" y1="1789.98" x2="527.42" y2="1789.98" style="stroke:#000000;stroke-width:7.34"/>
	<line x1="547.59" y1="1789.98" x2="550.44" y2="1789.98" style="stroke:#000000;stroke-width:7.34"/>
	<line x1="570.61" y1="1789.98" x2="573.58" y2="1789.98" style="stroke:#000000;stroke-width:7.34"/>
	<line x1="593.75" y1="1789.98" x2="596.60" y2="1789.98" style="stroke:#000000;stroke-width:7.34"/>
	<line x1="616.77" y1="1789.98" x2="619.62" y2="1789.98" style="stroke:#000000;stroke-width:7.34"/>
	<line x1="639.79" y1="1789.98" x2="642.63" y2="1789.98" style="stroke:#000000;stroke-width:7.34"/>
	<line x1="662.80" y1="1789.98" x2="665.65" y2="1789.98" style="stroke:#000000;stroke-width:7.34"/>
	<line x1="685.82" y1="1789.98" x2="688.67" y2="1789.98" style="stroke:#000000;stroke-width:7.34"/>
	<line x1="708.84" y1="1789.98" x2="711.69" y2="1789.98" style="stroke:#000000;stroke-width:7.34"/>
	<line x1="731.86" y1="1789.98" x2="733.84" y2="1789.98" style="stroke:#000000;stroke-width:7.34"/>
	<line x1="733.84" y1="1789.98" x2="734.70" y2="1789.98" style="stroke:#000000;stroke-width:7.34"/>
	<line x1="754.88" y1="1789.98" x2="757.72" y2="1789.98" style="stroke:#000000;stroke-width:7.34"/>
	<line x1="777.89" y1="1789.98" x2="780.74" y2="1789.98" style="stroke:#000000;stroke-width:7.34"/>
	<line x1="800.91" y1="1789.98" x2="803.88" y2="1789.98" style="stroke:#000000;stroke-width:7.34"/>
	<line x1="823.93" y1="1789.98" x2="826.90" y2="1789.98" style="stroke:#000000;stroke-width:7.34"/>
	<line x1="847.07" y1="1789.98" x2="849.91" y2="1789.98" style="stroke:#000000;stroke-width:7.34"/>
	<line x1="870.09" y1="1789.98" x2="872.93" y2="1789.98" style="stroke:#000000;stroke-width:7.34"/>
	<line x1="893.10" y1="1789.98" x2="895.95" y2="1789.98" style="stroke:#000000;stroke-width:7.34"/>
	<line x1="916.12" y1="1789.98" x2="918.97" y2="1789.98" style="stroke:#000000;stroke-width:7.34"/>
	<line x1="939.14" y1="1789.98" x2="941.99" y2="1789.98" style="stroke:#000000;stroke-width:7.34"/>
	<line x1="962.16" y1="1789.98" x2="965.00" y2="1789.98" style="stroke:#000000;stroke-width:7.34"/>
	<line x1="985.17" y1="1789.98" x2="986.91" y2="1789.98" style="stroke:#000000;stroke-width:7.34"/>
	<line x1="986.91" y1="1789.98" x2="988.02" y2="1789.98" style="stroke:#000000;stroke-width:7.34"/>
	<line x1="1008.19" y1="1789.98" x2="1011.04" y2="1789.98" style="stroke:#000000;stroke-width:7.34"/>
	<line x1="1031.21" y1="1789.98" x2="1034.06" y2="1789.98" style="stroke:#000000;stroke-width:7.34"/>
	<line x1="1054.23" y1="1789.98" x2="1057.20" y2="1789.98" style="stroke:#000000;stroke-width:7.34"/>
	<line x1="1077.24" y1="1789.98" x2="1080.21" y2="1789.98" style="stroke:#000000;stroke-width:7.34"/>
	<line x1="1100.38" y1="1789.98" x2="1103.23" y2="1789.98" style="stroke:#000000;stroke-width:7.34"/>
	<line x1="1123.40" y1="1789.98" x2="1126.25" y2="1789.98" style="stroke:#000000;stroke-width:7.34"/>
	<line x1="1146.42" y1="1789.98" x2="1149.27" y2="1789.98" style="stroke:#000000;stroke-width:7.34"/>
	<line x1="1169.44" y1="1789.98" x2="1172.28" y2="1789.98" style="stroke:#000000;stroke-width:7.34"/>
	<line x1="1192.45" y1="1789.98" x2="1195.30" y2="1789.98" style="stroke:#000000;stroke-width:7.34"/>
	<line x1="1215.47" y1="1789.98" x2="1218.32" y2="1789.98" style="stroke:#000000;stroke-width:7.34"/>
	<line x1="1238.49" y1="1789.98" x2="1240.10" y2="1789.98" style="stroke:#000000;stroke-width:7.34"/>
	<line x1="1240.10" y1="1789.98" x2="1241.34" y2="1789.98" style="stroke:#000000;stroke-width:7.34"/>
	<line x1="1261.51" y1="1789.98" x2="1264.35" y2="1789.98" style="stroke:#000000;stroke-width:7.34"/>
	<line x1="1284.53" y1="1789.98" x2="1287.37" y2="1789.98" style="stroke:#000000;stroke-width:7.34"/>
	<line x1="1307.54" y1="1789.98" x2="1310.51" y2="1789.98" style="stroke:#000000;stroke-width:7.34"/>
	<line x1="1330.56" y1="1789.98" x2="1333.53" y2="1789.98" style="stroke:#000000;stroke-width:7.34"/>
	<line x1="1353.70" y1="1789.98" x2="1356.55" y2="1789.98" style="stroke:#000000;stroke-width:7.34"/>
	<line x1="1376.72" y1="1789.98" x2="1379.57" y2="1789.98" style="stroke:#000000;stroke-width:7.34"/>
	<line x1="1399.74" y1="1789.98" x2="1402.58" y2="1789.98" style="stroke:#000000;stroke-width:7.34"/>
	<line x1="1422.75" y1="1789.98" x2="1425.60" y2="1789.98" style="stroke:#000000;stroke-width:7.34"/>
	<line x1="1445.77" y1="1789.98" x2="1448.62" y2="1789.98" style="stroke:#000000;stroke-width:7.34"/>
	<line x1="1468.79" y1="1789.98" x2="1471.63" y2="1789.98" style="stroke:#000000;stroke-width:7.34"/>
	<line x1="1491.81" y1="1789.98" x2="1493.17" y2="1789.98" style="stroke:#000000;stroke-width:7.34"/>
	<line x1="1493.17" y1="1789.98" x2="1494.65" y2="1789.98" style="stroke:#000000;stroke-width:7.34"/>
	<line x1="1514.82" y1="1789.98" x2="1517.67" y2="1789.98" style="stroke:#000000;stroke-width:7.34"/>
	<line x1="1537.84" y1="1789.98" x2="1540.69" y2="1789.98" style="stroke:#000000;stroke-width:7.34"/>
	<line x1="1560.86" y1="1789.98" x2="1563.83" y2="1789.98" style="stroke:#000000;stroke-width:7.34"/>
	<line x1="1584.00" y1="1789.98" x2="1586.85" y2="1789.98" style="stroke:#000000;stroke-width:7.34"/>
	<line x1="1607.02" y1="1789.98" x2="1609.86" y2="1789.98" style="stroke:#000000;stroke-width:7.34"/>
	<line x1="1630.04" y1="1789.98" x2="1632.88" y2="1789.98" style="stroke:#000000;stroke-width:7.34"/>
	<line x1="1653.05" y1="1789.98" x2="1655.90" y2="1789.98" style="stroke:#000000;stroke-width:7.34"/>
	<line x1="1676.07" y1="1789.98" x2="1678.92" y2="1789.98" style="stroke:#000000;stroke-width:7.34"/>
	<line x1="1699.09" y1="1789.98" x2="1701.93" y2="1789.98" style="stroke:#000000;stroke-width:7.34"/>
	<line x1="1722.11" y1="1789.98" x2="1724.95" y2="1789.98" style="stroke:#000000;stroke-width:7.34"/>
	<line x1="1745.12" y1="1789.98" x2="1746.24" y2="1789.98" style="stroke:#000000;stroke-width:7.34"/>
	<line x1="1746.24" y1="1789.98" x2="1747.97" y2="1789.98" style="stroke:#000000;stroke-width:7.34"/>
	<line x1="1768.14" y1="1789.98" x2="1770.99" y2="1789.98" style="stroke:#000000;stroke-width:7.34"/>
	<line x1="1791.16" y1="1789.98" x2="1794.00" y2="1789.98" style="stroke:#000000;stroke-width:7.34"/>
	<line x1="1814.17" y1="1789.98" x2="1817.14" y2="1789.98" style="stroke:#000000;stroke-width:7.34"/>
	<line x1="1837.32" y1="1789.98" x2="1840.16" y2="1789.98" style="stroke:#000000;stroke-width:7.34"/>
	<line x1="1860.33" y1="1789.98" x2="1863.18" y2="1789.98" style="stroke:#000000;stroke-width:7.34"/>
	<line x1="1883.35" y1="1789.98" x2="1886.20" y2="1789.98" style="stroke:#000000;stroke-width:7.34"/>
	<line x1="1906.37" y1="1789.98" x2="1909.21" y2="1789.98" style="stroke:#000000;stroke-width:7.34"/>
	<line x1="1929.39" y1="1789.98" x2="1932.23" y2="1789.98" style="stroke:#000000;stroke-width:7.34"/>
	<line x1="1952.40" y1="1789.98" x2="1955.25" y2="1789.98" style="stroke:#000000;stroke-width:7.34"/>
	<line x1="1975.42" y1="1789.98" x2="1978.27" y2="1789.98" style="stroke:#000000;stroke-width:7.34"/>
	<line x1="1998.44" y1="1789.98" x2="1999.31" y2="1789.98" style="stroke:#000000;stroke-width:7.34"/>
	<line x1="1999.31" y1="1789.98" x2="2001.29" y2="1789.98" style="stroke:#000000;stroke-width:7.34"/>
	<line x1="2021.46" y1="1789.98" x2="2024.30" y2="1789.98" style="stroke:#000000;stroke-width:7.34"/>
	<path d="" stroke-linejoin="round" style="fill:none;stroke:#000000;stroke-width:7.34"/>
	<defs>
		<path id="path_eCLwGNga" d="M2201.51 1889.97 L2201.51 1889.97 L2226.88 1888.73 L2252.13 1887.37 L2277.49 1886.01 L2302.74 1884.40 L2328.11 1882.54 L2353.35 1880.69 L2378.72 1878.58 L2403.97 1876.36 L2429.34 1874.00 L2454.58 1871.41 L2479.95 1868.68 L2505.20 1865.84 L2530.56 1862.87 L2555.81 1859.77 L2581.18 1856.56 L2606.42 1853.21 L2631.79 1849.87 L2657.04 1846.53 L2682.41 1843.19 L2707.65 1839.97 L2733.02 1836.75 L2758.26 1833.66 L2783.63 1830.69 L2808.88 1827.97 L2834.25 1825.37 L2859.49 1822.89 L2884.86 1820.54 L2910.11 1818.44 L2935.47 1816.34 L2960.72 1814.36 L2986.09 1812.38 L3011.46 1810.52 L3036.70 1808.54 L3062.07 1806.56 L3087.32 1804.58 L3112.68 1802.35 L3137.93 1799.88 L3163.30 1797.28 L3188.54 1794.31 L3213.91 1790.97 L3239.16 1787.13 L3264.53 1783.05 L3289.77 1778.34 L3315.14 1773.15 L3340.38 1767.58 L3365.75 1761.27 L3391.00 1754.58 L3416.37 1747.03 L3441.61 1738.99 L3466.98 1730.20 L3492.22 1720.55 L3517.59 1710.15 L3542.84 1698.89 L3568.21 1686.77 L3593.45 1673.65 L3618.82 1659.42 L3644.07 1644.07 L3669.43 1627.61 L3694.68 1609.91 L3720.05 1590.98 L3745.42 1570.56 L3770.66 1548.78 L3770.66 1500.02 L3745.42 1525.02 L3720.05 1548.41 L3694.68 1570.19 L3669.43 1590.48 L3644.07 1609.30 L3618.82 1626.62 L3593.45 1642.83 L3568.21 1657.81 L3542.84 1671.67 L3517.59 1684.41 L3492.22 1696.17 L3466.98 1707.06 L3441.61 1717.08 L3416.37 1726.24 L3391.00 1734.78 L3365.75 1742.45 L3340.38 1749.51 L3315.14 1756.07 L3289.77 1761.88 L3264.53 1767.21 L3239.16 1772.03 L3213.91 1776.36 L3188.54 1780.20 L3163.30 1783.54 L3137.93 1786.63 L3112.68 1789.36 L3087.32 1791.71 L3062.07 1794.06 L3036.70 1796.16 L3011.46 1798.27 L2986.09 1800.37 L2960.72 1802.35 L2935.47 1804.46 L2910.11 1806.68 L2884.86 1809.03 L2859.49 1811.63 L2834.25 1814.36 L2808.88 1817.20 L2783.63 1820.30 L2758.26 1823.64 L2733.02 1827.23 L2707.65 1830.94 L2682.41 1834.77 L2657.04 1838.61 L2631.79 1842.32 L2606.42 1846.16 L2581.18 1849.75 L2555.81 1853.21 L2530.56 1856.68 L2505.20 1859.90 L2479.95 1862.99 L2454.58 1865.84 L2429.34 1868.56 L2403.97 1871.03 L2378.72 1873.39 L2353.35 1875.61 L2328.11 1877.59 L2302.74 1879.57 L2277.49 1881.31 L2252.13 1882.92 L2226.88 1884.40 L2201.51 1885.76 L2201.51 1889.97 Z" stroke-linejoin="round"/>
	</defs>
	<defs>
		<clipPath id="clipPath_lFAylYOV">
			<use xlink:href="#path_eCLwGNga"/>
		</clipPath>
	</defs>
	<use xlink:href="#path_eCLwGNga" style="stroke:none;fill:#E6E6E6"/>
	<use xlink:href="#path_eCLwGNga" style="fill:none;stroke:#E0E0E0;stroke-width:14.69" clip-path="url(#clipPath_lFAylYOV)"/>
	<defs>
		<path id="path_aXtWkhNB" d="M2201.51 1879.70 L2201.51 1879.70 L2226.88 1877.47 L2252.13 1875.12 L2277.49 1872.40 L2302.74 1869.55 L2328.11 1866.33 L2353.35 1862.99 L2378.72 1859.28 L2403.97 1855.32 L2429.34 1850.99 L2454.58 1846.53 L2479.95 1841.71 L2505.20 1836.63 L2530.56 1831.31 L2555.81 1825.74 L2581.18 1820.05 L2606.42 1814.11 L2631.79 1808.17 L2657.04 1802.10 L2682.41 1796.16 L2707.65 1790.22 L2733.02 1784.41 L2758.26 1778.84 L2783.63 1773.64 L2808.88 1768.69 L2834.25 1763.99 L2859.49 1759.66 L2884.86 1755.57 L2910.11 1751.61 L2935.47 1747.90 L2960.72 1744.43 L2986.09 1740.97 L3011.46 1737.63 L3036.70 1734.16 L3062.07 1730.70 L3087.32 1726.99 L3112.68 1723.03 L3137.93 1718.69 L3163.30 1713.87 L3188.54 1708.55 L3213.91 1702.48 L3239.16 1695.80 L3264.53 1688.25 L3289.77 1679.83 L3315.14 1670.55 L3340.38 1660.41 L3365.75 1649.27 L3391.00 1637.02 L3416.37 1623.65 L3441.61 1609.17 L3466.98 1593.33 L3492.22 1576.25 L3517.59 1557.57 L3542.84 1537.39 L3568.21 1515.61 L3593.45 1491.98 L3618.82 1466.48 L3644.07 1439.13 L3669.43 1409.56 L3694.68 1377.75 L3720.05 1343.72 L3745.42 1307.09 L3770.66 1267.98 L3770.66 1104.87 L3745.42 1154.50 L3720.05 1200.78 L3694.68 1243.85 L3669.43 1283.95 L3644.07 1321.20 L3618.82 1355.72 L3593.45 1387.78 L3568.21 1417.35 L3542.84 1444.83 L3517.59 1470.20 L3492.22 1493.59 L3466.98 1515.12 L3441.61 1534.92 L3416.37 1553.23 L3391.00 1569.94 L3365.75 1585.29 L3340.38 1599.39 L3315.14 1612.14 L3289.77 1623.77 L3264.53 1634.29 L3239.16 1643.82 L3213.91 1652.36 L3188.54 1659.91 L3163.30 1666.59 L3137.93 1672.66 L3112.68 1677.98 L3087.32 1682.81 L3062.07 1687.38 L3036.70 1691.72 L3011.46 1695.92 L2986.09 1700.01 L2960.72 1704.09 L2935.47 1708.30 L2910.11 1712.75 L2884.86 1717.46 L2859.49 1722.53 L2834.25 1727.98 L2808.88 1733.67 L2783.63 1739.98 L2758.26 1746.54 L2733.02 1753.59 L2707.65 1760.89 L2682.41 1768.32 L2657.04 1775.99 L2631.79 1783.54 L2606.42 1790.97 L2581.18 1798.27 L2555.81 1805.32 L2530.56 1812.00 L2505.20 1818.56 L2479.95 1824.63 L2454.58 1830.44 L2429.34 1835.89 L2403.97 1840.96 L2378.72 1845.67 L2353.35 1850.12 L2328.11 1854.20 L2302.74 1857.92 L2277.49 1861.38 L2252.13 1864.60 L2226.88 1867.45 L2201.51 1870.17 L2201.51 1879.70 Z" stroke-linejoin="round"/>
	</defs>
	<defs>
		<clipPath id="clipPath_URlaStTC">
			<use xlink:href="#path_aXtWkhNB"/>
		</clipPath>
	</defs>
	<use xlink:href="#path_aXtWkhNB" style="stroke:none;fill:#E6E6E6"/>
	<use xlink:href="#path_aXtWkhNB" style="fill:none;stroke:#E0E0E0;stroke-width:14.69" clip-path="url(#clipPath_URlaStTC)"/>
	<defs>
		<path id="path_oUOhxNUb" d="M2201.51 1885.64 L2201.51 1885.64 L2226.88 1883.91 L2252.13 1882.17 L2277.49 1880.19 L2302.74 1877.96 L2328.11 1875.61 L2353.35 1873.01 L2378.72 1870.29 L2403.97 1867.20 L2429.34 1863.98 L2454.58 1860.52 L2479.95 1856.93 L2505.20 1853.09 L2530.56 1849.01 L2555.81 1844.80 L2581.18 1840.47 L2606.42 1836.14 L2631.79 1831.56 L2657.04 1827.10 L2682.41 1822.52 L2707.65 1818.07 L2733.02 1813.74 L2758.26 1809.53 L2783.63 1805.69 L2808.88 1801.98 L2834.25 1798.39 L2859.49 1795.17 L2884.86 1792.08 L2910.11 1789.11 L2935.47 1786.39 L2960.72 1783.66 L2986.09 1781.07 L3011.46 1778.59 L3036.70 1775.99 L3062.07 1773.27 L3087.32 1770.55 L3112.68 1767.58 L3137.93 1764.36 L3163.30 1760.77 L3188.54 1756.69 L3213.91 1752.23 L3239.16 1747.16 L3264.53 1741.46 L3289.77 1735.15 L3315.14 1728.10 L3340.38 1720.43 L3365.75 1712.01 L3391.00 1702.85 L3416.37 1692.71 L3441.61 1681.69 L3466.98 1669.81 L3492.22 1656.82 L3517.59 1642.71 L3542.84 1627.36 L3568.21 1610.78 L3593.45 1592.96 L3618.82 1573.53 L3644.07 1552.74 L3669.43 1530.34 L3694.68 1506.21 L3720.05 1480.34 L3745.42 1452.50 L3770.66 1422.80 L3770.66 1351.76 L3745.42 1385.80 L3720.05 1417.60 L3694.68 1447.30 L3669.43 1474.90 L3644.07 1500.39 L3618.82 1524.15 L3593.45 1546.18 L3568.21 1566.60 L3542.84 1585.53 L3517.59 1602.98 L3492.22 1619.07 L3466.98 1633.92 L3441.61 1647.66 L3416.37 1660.28 L3391.00 1671.79 L3365.75 1682.43 L3340.38 1692.09 L3315.14 1701.00 L3289.77 1709.04 L3264.53 1716.34 L3239.16 1722.90 L3213.91 1728.84 L3188.54 1734.04 L3163.30 1738.74 L3137.93 1742.83 L3112.68 1746.54 L3087.32 1750.00 L3062.07 1753.10 L3036.70 1756.07 L3011.46 1759.04 L2986.09 1761.88 L2960.72 1764.73 L2935.47 1767.58 L2910.11 1770.67 L2884.86 1774.01 L2859.49 1777.48 L2834.25 1781.19 L2808.88 1785.27 L2783.63 1789.48 L2758.26 1794.18 L2733.02 1799.01 L2707.65 1804.08 L2682.41 1809.28 L2657.04 1814.60 L2631.79 1819.80 L2606.42 1825.00 L2581.18 1829.95 L2555.81 1834.90 L2530.56 1839.60 L2505.20 1843.93 L2479.95 1848.26 L2454.58 1852.22 L2429.34 1855.94 L2403.97 1859.40 L2378.72 1862.62 L2353.35 1865.71 L2328.11 1868.56 L2302.74 1871.16 L2277.49 1873.51 L2252.13 1875.74 L2226.88 1877.72 L2201.51 1879.57 L2201.51 1885.64 Z" stroke-linejoin="round"/>
	</defs>
	<defs>
		<clipPath id="clipPath_jmMtdPxm">
			<use xlink:href="#path_oUOhxNUb"/>
		</clipPath>
	</defs>
	<use xlink:href="#path_oUOhxNUb" style="stroke:none;fill:#E6E6E6"/>
	<use xlink:href="#path_oUOhxNUb" style="fill:none;stroke:#E0E0E0;stroke-width:14.69" clip-path="url(#clipPath_jmMtdPxm)"/>
	<defs>
		<path id="path_fesXsvqX" d="M2201.51 1870.66 L2201.51 1870.66 L2226.88 1867.57 L2252.13 1864.23 L2277.49 1860.52 L2302.74 1856.43 L2328.11 1851.98 L2353.35 1847.15 L2378.72 1841.83 L2403.97 1836.26 L2429.34 1830.20 L2454.58 1823.76 L2479.95 1816.83 L2505.20 1809.65 L2530.56 1802.10 L2555.81 1794.31 L2581.18 1786.14 L2606.42 1777.85 L2631.79 1769.43 L2657.04 1760.89 L2682.41 1752.48 L2707.65 1744.06 L2733.02 1735.90 L2758.26 1728.10 L2783.63 1720.67 L2808.88 1713.62 L2834.25 1707.18 L2859.49 1701.00 L2884.86 1695.18 L2910.11 1689.74 L2935.47 1684.66 L2960.72 1679.71 L2986.09 1674.88 L3011.46 1670.06 L3036.70 1665.23 L3062.07 1660.28 L3087.32 1655.21 L3112.68 1649.64 L3137.93 1643.58 L3163.30 1636.89 L3188.54 1629.34 L3213.91 1620.80 L3239.16 1611.28 L3264.53 1600.63 L3289.77 1588.88 L3315.14 1575.88 L3340.38 1561.40 L3365.75 1545.69 L3391.00 1528.36 L3416.37 1509.55 L3441.61 1489.01 L3466.98 1466.61 L3492.22 1442.23 L3517.59 1415.74 L3542.84 1387.16 L3568.21 1356.09 L3593.45 1322.68 L3618.82 1286.42 L3644.07 1247.44 L3669.43 1205.49 L3694.68 1160.32 L3720.05 1111.80 L3745.42 1059.83 L3770.66 1004.14 L3770.66 832.86 L3745.42 898.95 L3720.05 960.70 L3694.68 1018.12 L3669.43 1071.58 L3644.07 1121.21 L3618.82 1167.37 L3593.45 1210.19 L3568.21 1249.79 L3542.84 1286.55 L3517.59 1320.45 L3492.22 1351.76 L3466.98 1380.60 L3441.61 1407.21 L3416.37 1431.71 L3391.00 1454.11 L3365.75 1474.77 L3340.38 1493.59 L3315.14 1510.79 L3289.77 1526.50 L3264.53 1540.74 L3239.16 1553.48 L3213.91 1564.99 L3188.54 1575.26 L3163.30 1584.30 L3137.93 1592.46 L3112.68 1599.64 L3087.32 1606.33 L3062.07 1612.51 L3036.70 1618.33 L3011.46 1623.90 L2986.09 1629.47 L2960.72 1635.16 L2935.47 1640.85 L2910.11 1646.92 L2884.86 1653.23 L2859.49 1660.03 L2834.25 1667.34 L2808.88 1675.13 L2783.63 1683.55 L2758.26 1692.46 L2733.02 1701.99 L2707.65 1711.89 L2682.41 1721.91 L2657.04 1732.18 L2631.79 1742.33 L2606.42 1752.35 L2581.18 1762.13 L2555.81 1771.54 L2530.56 1780.69 L2505.20 1789.36 L2479.95 1797.52 L2454.58 1805.32 L2429.34 1812.50 L2403.97 1819.31 L2378.72 1825.74 L2353.35 1831.56 L2328.11 1837.00 L2302.74 1842.08 L2277.49 1846.78 L2252.13 1850.99 L2226.88 1854.95 L2201.51 1858.66 L2201.51 1870.66 Z" stroke-linejoin="round"/>
	</defs>
	<defs>
		<clipPath id="clipPath_bsOfpXRp">
			<use xlink:href="#path_fesXsvqX"/>
		</clipPath>
	</defs>
	<use xlink:href="#path_fesXsvqX" style="stroke:none;fill:#E6E6E6"/>
	<use xlink:href="#path_fesXsvqX" style="fill:none;stroke:#E0E0E0;stroke-width:14.69" clip-path="url(#clipPath_bsOfpXRp)"/>
	<defs>
		<path id="path_mrzptblc" d="M2201.51 1872.89 L2201.51 1872.89 L2226.88 1870.04 L2252.13 1866.95 L2277.49 1863.61 L2302.74 1859.90 L2328.11 1855.94 L2353.35 1851.61 L2378.72 1846.90 L2403.97 1841.83 L2429.34 1836.38 L2454.58 1830.57 L2479.95 1824.50 L2505.20 1818.07 L2530.56 1811.26 L2555.81 1804.21 L2581.18 1796.91 L2606.42 1789.48 L2631.79 1781.81 L2657.04 1774.14 L2682.41 1766.46 L2707.65 1758.79 L2733.02 1751.36 L2758.26 1744.31 L2783.63 1737.50 L2808.88 1731.19 L2834.25 1725.25 L2859.49 1719.68 L2884.86 1714.49 L2910.11 1709.54 L2935.47 1704.83 L2960.72 1700.38 L2986.09 1696.05 L3011.46 1691.72 L3036.70 1687.26 L3062.07 1682.81 L3087.32 1678.10 L3112.68 1673.03 L3137.93 1667.58 L3163.30 1661.52 L3188.54 1654.71 L3213.91 1646.92 L3239.16 1638.25 L3264.53 1628.60 L3289.77 1617.96 L3315.14 1606.20 L3340.38 1593.21 L3365.75 1578.98 L3391.00 1563.38 L3416.37 1546.30 L3441.61 1527.74 L3466.98 1507.69 L3492.22 1485.79 L3517.59 1462.03 L3542.84 1436.29 L3568.21 1408.44 L3593.45 1378.37 L3618.82 1345.95 L3644.07 1310.92 L3669.43 1273.30 L3694.68 1232.84 L3720.05 1189.40 L3745.42 1142.87 L3770.66 1092.99 L3770.66 748.09 L3745.42 819.87 L3720.05 886.82 L3694.68 949.19 L3669.43 1007.23 L3644.07 1061.07 L3618.82 1111.19 L3593.45 1157.59 L3568.21 1200.54 L3542.84 1240.26 L3517.59 1277.02 L3492.22 1310.80 L3466.98 1342.11 L3441.61 1370.82 L3416.37 1397.30 L3391.00 1421.56 L3365.75 1443.71 L3340.38 1464.01 L3315.14 1482.57 L3289.77 1499.40 L3264.53 1514.62 L3239.16 1528.48 L3213.91 1540.74 L3188.54 1551.75 L3163.30 1561.40 L3137.93 1570.07 L3112.68 1577.86 L3087.32 1584.92 L3062.07 1591.60 L3036.70 1597.79 L3011.46 1603.85 L2986.09 1609.79 L2960.72 1615.85 L2935.47 1622.04 L2910.11 1628.48 L2884.86 1635.28 L2859.49 1642.59 L2834.25 1650.38 L2808.88 1658.80 L2783.63 1667.71 L2758.26 1677.36 L2733.02 1687.51 L2707.65 1698.03 L2682.41 1708.79 L2657.04 1719.81 L2631.79 1730.70 L2606.42 1741.46 L2581.18 1751.98 L2555.81 1762.26 L2530.56 1772.03 L2505.20 1781.44 L2479.95 1790.35 L2454.58 1798.89 L2429.34 1806.81 L2403.97 1814.11 L2378.72 1821.04 L2353.35 1827.47 L2328.11 1833.41 L2302.74 1838.86 L2277.49 1843.93 L2252.13 1848.51 L2226.88 1852.72 L2201.51 1856.68 L2201.51 1872.89 Z" stroke-linejoin="round"/>
	</defs>
	<defs>
		<clipPath id="clipPath_htQxdepy">
			<use xlink:href="#path_mrzptblc"/>
		</clipPath>
	</defs>
	<use xlink:href="#path_mrzptblc" style="stroke:none;fill:#E6E6E6"/>
	<use xlink:href="#path_mrzptblc" style="fill:none;stroke:#E0E0E0;stroke-width:14.69" clip-path="url(#clipPath_htQxdepy)"/>
	<path d=" M2201.39 1875.37 L2226.76 1873.01 L2252.13 1870.29 L2277.37 1867.45 L2302.74 1864.23 L2327.99 1860.76 L2353.35 1857.05 L2378.60 1852.97 L2403.97 1848.64 L2429.21 1844.06 L2454.58 1838.98 L2479.83 1833.78 L2505.20 1828.22 L2530.44 1822.28 L2555.81 1816.21 L2581.05 1809.78 L2606.42 1803.34 L2631.67 1796.66 L2657.04 1789.85 L2682.28 1783.17 L2707.65 1776.49 L2732.89 1769.93 L2758.26 1763.74 L2783.51 1757.80 L2808.88 1752.23 L2834.12 1747.03 L2859.49 1742.21 L2884.74 1737.63 L2910.11 1733.42 L2935.35 1729.34 L2960.72 1725.50 L2986.09 1721.66 L3011.33 1717.95 L3036.70 1714.24 L3061.95 1710.28 L3087.32 1706.19 L3112.56 1701.74 L3137.93 1697.04 L3163.17 1691.59 L3188.54 1685.65 L3213.79 1678.84 L3239.16 1671.30 L3264.40 1662.88 L3289.77 1653.48 L3315.01 1643.08 L3340.38 1631.69 L3365.63 1619.20 L3391.00 1605.46 L3416.24 1590.48 L3441.61 1574.27 L3466.86 1556.45 L3492.22 1537.27 L3517.47 1516.36 L3542.84 1493.83 L3568.08 1469.33 L3593.45 1442.85 L3618.70 1414.26 L3644.07 1383.57 L3669.31 1350.40 L3694.68 1314.64 L3719.93 1276.40 L3745.29 1235.19 L3770.66 1191.13" stroke-linejoin="round" style="fill:none;stroke:#FF0000;stroke-width:7.34"/>
	<path d=" M2201.39 1882.92 L2226.76 1881.18 L2252.13 1879.20 L2277.37 1877.10 L2302.74 1874.87 L2327.99 1872.27 L2353.35 1869.67 L2378.60 1866.70 L2403.97 1863.61 L2429.21 1860.27 L2454.58 1856.68 L2479.83 1852.84 L2505.20 1848.76 L2530.44 1844.55 L2555.81 1840.10 L2581.05 1835.52 L2606.42 1830.81 L2631.67 1825.99 L2657.04 1821.16 L2682.28 1816.21 L2707.65 1811.39 L2732.89 1806.68 L2758.26 1802.23 L2783.51 1798.02 L2808.88 1793.94 L2834.12 1790.22 L2859.49 1786.76 L2884.74 1783.42 L2910.11 1780.32 L2935.35 1777.48 L2960.72 1774.63 L2986.09 1771.91 L3011.33 1769.19 L3036.70 1766.46 L3061.95 1763.62 L3087.32 1760.65 L3112.56 1757.55 L3137.93 1754.09 L3163.17 1750.13 L3188.54 1745.92 L3213.79 1740.97 L3239.16 1735.52 L3264.40 1729.34 L3289.77 1722.53 L3315.01 1715.10 L3340.38 1706.81 L3365.63 1697.78 L3391.00 1687.88 L3416.24 1677.11 L3441.61 1665.36 L3466.86 1652.61 L3492.22 1638.62 L3517.47 1623.53 L3542.84 1607.19 L3568.08 1589.62 L3593.45 1570.44 L3618.70 1549.77 L3644.07 1527.62 L3669.31 1503.61 L3694.68 1477.87 L3719.93 1450.15 L3745.29 1420.45 L3770.66 1388.52" stroke-linejoin="round" style="fill:none;stroke:#FFD200;stroke-width:7.34"/>
	<path d=" M2201.39 1865.22 L2226.76 1861.88 L2252.13 1858.16 L2277.37 1854.20 L2302.74 1849.75 L2327.99 1845.05 L2353.35 1839.85 L2378.60 1834.28 L2403.97 1828.34 L2429.21 1821.90 L2454.58 1814.97 L2479.83 1807.80 L2505.20 1800.00 L2530.44 1791.96 L2555.81 1783.54 L2581.05 1774.75 L2606.42 1765.72 L2631.67 1756.56 L2657.04 1747.28 L2682.28 1738.00 L2707.65 1728.72 L2732.89 1719.81 L2758.26 1711.14 L2783.51 1702.98 L2808.88 1695.43 L2834.12 1688.25 L2859.49 1681.57 L2884.74 1675.26 L2910.11 1669.44 L2935.35 1663.75 L2960.72 1658.43 L2986.09 1653.23 L3011.33 1648.15 L3036.70 1642.96 L3061.95 1637.51 L3087.32 1631.94 L3112.56 1625.88 L3137.93 1619.20 L3163.17 1611.89 L3188.54 1603.60 L3213.79 1594.20 L3239.16 1583.80 L3264.40 1572.17 L3289.77 1559.17 L3315.01 1544.82 L3340.38 1529.10 L3365.63 1511.90 L3391.00 1492.97 L3416.24 1472.42 L3441.61 1450.02 L3466.86 1425.52 L3492.22 1399.04 L3517.47 1370.33 L3542.84 1339.14 L3568.08 1305.36 L3593.45 1268.97 L3618.70 1229.62 L3644.07 1187.17 L3669.31 1141.51 L3694.68 1092.38 L3719.93 1039.53 L3745.29 982.98 L3770.66 922.34" stroke-linejoin="round" style="fill:none;stroke:#FF7F00;stroke-width:7.34"/>
	<path d=" M2201.39 1865.71 L2226.76 1862.37 L2252.13 1858.78 L2277.37 1854.82 L2302.74 1850.49 L2327.99 1845.79 L2353.35 1840.72 L2378.60 1835.27 L2403.97 1829.33 L2429.21 1823.02 L2454.58 1816.21 L2479.83 1809.03 L2505.20 1801.49 L2530.44 1793.44 L2555.81 1785.15 L2581.05 1776.49 L2606.42 1767.70 L2631.67 1758.54 L2657.04 1749.38 L2682.28 1740.23 L2707.65 1731.19 L2732.89 1722.28 L2758.26 1713.87 L2783.51 1705.82 L2808.88 1698.27 L2834.12 1691.22 L2859.49 1684.54 L2884.74 1678.47 L2910.11 1672.66 L2935.35 1667.09 L2960.72 1661.77 L2986.09 1656.69 L3011.33 1651.62 L3036.70 1646.55 L3061.95 1641.22 L3087.32 1635.65 L3112.56 1629.59 L3137.93 1623.16 L3163.17 1615.85 L3188.54 1607.69 L3213.79 1598.53 L3239.16 1588.13 L3264.40 1576.62 L3289.77 1563.88 L3315.01 1549.77 L3340.38 1534.30 L3365.63 1517.22 L3391.00 1498.66 L3416.24 1478.36 L3441.61 1456.21 L3466.86 1432.20 L3492.22 1405.97 L3517.47 1377.63 L3542.84 1346.94 L3568.08 1313.65 L3593.45 1277.76 L3618.70 1238.90 L3644.07 1197.07 L3669.31 1152.02 L3694.68 1103.51 L3719.93 1051.54 L3745.29 995.60 L3770.66 935.83" stroke-linejoin="round" style="fill:none;stroke:#008000;stroke-width:7.34"/>
	<path d=" M2201.39 1888.11 L2226.76 1886.75 L2252.13 1885.39 L2277.37 1883.78 L2302.74 1882.17 L2327.99 1880.32 L2353.35 1878.34 L2378.60 1876.23 L2403.97 1873.88 L2429.21 1871.41 L2454.58 1868.81 L2479.83 1865.96 L2505.20 1862.99 L2530.44 1859.90 L2555.81 1856.68 L2581.05 1853.34 L2606.42 1849.87 L2631.67 1846.28 L2657.04 1842.70 L2682.28 1839.23 L2707.65 1835.64 L2732.89 1832.18 L2758.26 1828.83 L2783.51 1825.74 L2808.88 1822.77 L2834.12 1820.05 L2859.49 1817.45 L2884.74 1815.10 L2910.11 1812.87 L2935.35 1810.64 L2960.72 1808.66 L2986.09 1806.56 L3011.33 1804.58 L3036.70 1802.60 L3061.95 1800.62 L3087.32 1798.39 L3112.56 1796.04 L3137.93 1793.56 L3163.17 1790.72 L3188.54 1787.50 L3213.79 1783.91 L3239.16 1779.95 L3264.40 1775.37 L3289.77 1770.42 L3315.01 1764.98 L3340.38 1758.91 L3365.63 1752.23 L3391.00 1745.05 L3416.24 1737.13 L3441.61 1728.47 L3466.86 1719.06 L3492.22 1708.79 L3517.47 1697.78 L3542.84 1685.78 L3568.08 1672.78 L3593.45 1658.80 L3618.70 1643.58 L3644.07 1627.24 L3669.31 1609.67 L3694.68 1590.73 L3719.93 1570.44 L3745.29 1548.66 L3770.66 1525.27" stroke-linejoin="round" style="fill:none;stroke:#1A476F;stroke-width:7.34"/>
	<line x1="2201.39" y1="1745.05" x2="2204.24" y2="1745.05" style="stroke:#000000;stroke-width:7.34"/>
	<line x1="2224.41" y1="1745.05" x2="2226.76" y2="1745.05" style="stroke:#000000;stroke-width:7.34"/>
	<line x1="2226.76" y1="1745.05" x2="2227.25" y2="1745.05" style="stroke:#000000;stroke-width:7.34"/>
	<line x1="2247.42" y1="1745.05" x2="2250.27" y2="1745.05" style="stroke:#000000;stroke-width:7.34"/>
	<line x1="2270.44" y1="1745.05" x2="2273.29" y2="1745.05" style="stroke:#000000;stroke-width:7.34"/>
	<line x1="2293.46" y1="1745.05" x2="2296.43" y2="1745.05" style="stroke:#000000;stroke-width:7.34"/>
	<line x1="2316.60" y1="1745.05" x2="2319.45" y2="1745.05" style="stroke:#000000;stroke-width:7.34"/>
	<line x1="2339.62" y1="1745.05" x2="2342.46" y2="1745.05" style="stroke:#000000;stroke-width:7.34"/>
	<line x1="2362.64" y1="1745.05" x2="2365.48" y2="1745.05" style="stroke:#000000;stroke-width:7.34"/>
	<line x1="2385.65" y1="1745.05" x2="2388.50" y2="1745.05" style="stroke:#000000;stroke-width:7.34"/>
	<line x1="2408.67" y1="1745.05" x2="2411.52" y2="1745.05" style="stroke:#000000;stroke-width:7.34"/>
	<line x1="2431.69" y1="1745.05" x2="2434.53" y2="1745.05" style="stroke:#000000;stroke-width:7.34"/>
	<line x1="2454.70" y1="1745.05" x2="2457.55" y2="1745.05" style="stroke:#000000;stroke-width:7.34"/>
	<line x1="2477.72" y1="1745.05" x2="2479.83" y2="1745.05" style="stroke:#000000;stroke-width:7.34"/>
	<line x1="2479.83" y1="1745.05" x2="2480.57" y2="1745.05" style="stroke:#000000;stroke-width:7.34"/>
	<line x1="2500.74" y1="1745.05" x2="2503.59" y2="1745.05" style="stroke:#000000;stroke-width:7.34"/>
	<line x1="2523.76" y1="1745.05" x2="2526.60" y2="1745.05" style="stroke:#000000;stroke-width:7.34"/>
	<line x1="2546.78" y1="1745.05" x2="2549.74" y2="1745.05" style="stroke:#000000;stroke-width:7.34"/>
	<line x1="2569.92" y1="1745.05" x2="2572.76" y2="1745.05" style="stroke:#000000;stroke-width:7.34"/>
	<line x1="2592.93" y1="1745.05" x2="2595.78" y2="1745.05" style="stroke:#000000;stroke-width:7.34"/>
	<line x1="2615.95" y1="1745.05" x2="2618.80" y2="1745.05" style="stroke:#000000;stroke-width:7.34"/>
	<line x1="2638.97" y1="1745.05" x2="2641.82" y2="1745.05" style="stroke:#000000;stroke-width:7.34"/>
	<line x1="2661.99" y1="1745.05" x2="2664.83" y2="1745.05" style="stroke:#000000;stroke-width:7.34"/>
	<line x1="2685.00" y1="1745.05" x2="2687.85" y2="1745.05" style="stroke:#000000;stroke-width:7.34"/>
	<line x1="2708.02" y1="1745.05" x2="2710.87" y2="1745.05" style="stroke:#000000;stroke-width:7.34"/>
	<line x1="2731.04" y1="1745.05" x2="2732.89" y2="1745.05" style="stroke:#000000;stroke-width:7.34"/>
	<line x1="2732.89" y1="1745.05" x2="2733.89" y2="1745.05" style="stroke:#000000;stroke-width:7.34"/>
	<line x1="2754.06" y1="1745.05" x2="2756.90" y2="1745.05" style="stroke:#000000;stroke-width:7.34"/>
	<line x1="2777.07" y1="1745.05" x2="2779.92" y2="1745.05" style="stroke:#000000;stroke-width:7.34"/>
	<line x1="2800.09" y1="1745.05" x2="2803.06" y2="1745.05" style="stroke:#000000;stroke-width:7.34"/>
	<line x1="2823.23" y1="1745.05" x2="2826.08" y2="1745.05" style="stroke:#000000;stroke-width:7.34"/>
	<line x1="2846.25" y1="1745.05" x2="2849.10" y2="1745.05" style="stroke:#000000;stroke-width:7.34"/>
	<line x1="2869.27" y1="1745.05" x2="2872.11" y2="1745.05" style="stroke:#000000;stroke-width:7.34"/>
	<line x1="2892.28" y1="1745.05" x2="2895.13" y2="1745.05" style="stroke:#000000;stroke-width:7.34"/>
	<line x1="2915.30" y1="1745.05" x2="2918.15" y2="1745.05" style="stroke:#000000;stroke-width:7.34"/>
	<line x1="2938.32" y1="1745.05" x2="2941.17" y2="1745.05" style="stroke:#000000;stroke-width:7.34"/>
	<line x1="2961.34" y1="1745.05" x2="2964.18" y2="1745.05" style="stroke:#000000;stroke-width:7.34"/>
	<line x1="2984.36" y1="1745.05" x2="2986.09" y2="1745.05" style="stroke:#000000;stroke-width:7.34"/>
	<line x1="2986.09" y1="1745.05" x2="2987.20" y2="1745.05" style="stroke:#000000;stroke-width:7.34"/>
	<line x1="3007.37" y1="1745.05" x2="3010.22" y2="1745.05" style="stroke:#000000;stroke-width:7.34"/>
	<line x1="3030.39" y1="1745.05" x2="3033.36" y2="1745.05" style="stroke:#000000;stroke-width:7.34"/>
	<line x1="3053.41" y1="1745.05" x2="3056.38" y2="1745.05" style="stroke:#000000;stroke-width:7.34"/>
	<line x1="3076.55" y1="1745.05" x2="3079.39" y2="1745.05" style="stroke:#000000;stroke-width:7.34"/>
	<line x1="3099.57" y1="1745.05" x2="3102.41" y2="1745.05" style="stroke:#000000;stroke-width:7.34"/>
	<line x1="3122.58" y1="1745.05" x2="3125.43" y2="1745.05" style="stroke:#000000;stroke-width:7.34"/>
	<line x1="3145.60" y1="1745.05" x2="3148.45" y2="1745.05" style="stroke:#000000;stroke-width:7.34"/>
	<line x1="3168.62" y1="1745.05" x2="3171.47" y2="1745.05" style="stroke:#000000;stroke-width:7.34"/>
	<line x1="3191.64" y1="1745.05" x2="3194.48" y2="1745.05" style="stroke:#000000;stroke-width:7.34"/>
	<line x1="3214.65" y1="1745.05" x2="3217.50" y2="1745.05" style="stroke:#000000;stroke-width:7.34"/>
	<line x1="3237.67" y1="1745.05" x2="3239.16" y2="1745.05" style="stroke:#000000;stroke-width:7.34"/>
	<line x1="3239.16" y1="1745.05" x2="3240.52" y2="1745.05" style="stroke:#000000;stroke-width:7.34"/>
	<line x1="3260.69" y1="1745.05" x2="3263.53" y2="1745.05" style="stroke:#000000;stroke-width:7.34"/>
	<line x1="3283.71" y1="1745.05" x2="3286.68" y2="1745.05" style="stroke:#000000;stroke-width:7.34"/>
	<line x1="3306.72" y1="1745.05" x2="3309.69" y2="1745.05" style="stroke:#000000;stroke-width:7.34"/>
	<line x1="3329.86" y1="1745.05" x2="3332.71" y2="1745.05" style="stroke:#000000;stroke-width:7.34"/>
	<line x1="3352.88" y1="1745.05" x2="3355.73" y2="1745.05" style="stroke:#000000;stroke-width:7.34"/>
	<line x1="3375.90" y1="1745.05" x2="3378.75" y2="1745.05" style="stroke:#000000;stroke-width:7.34"/>
	<line x1="3398.92" y1="1745.05" x2="3401.76" y2="1745.05" style="stroke:#000000;stroke-width:7.34"/>
	<line x1="3421.93" y1="1745.05" x2="3424.78" y2="1745.05" style="stroke:#000000;stroke-width:7.34"/>
	<line x1="3444.95" y1="1745.05" x2="3447.80" y2="1745.05" style="stroke:#000000;stroke-width:7.34"/>
	<line x1="3467.97" y1="1745.05" x2="3470.82" y2="1745.05" style="stroke:#000000;stroke-width:7.34"/>
	<line x1="3490.99" y1="1745.05" x2="3492.22" y2="1745.05" style="stroke:#000000;stroke-width:7.34"/>
	<line x1="3492.22" y1="1745.05" x2="3493.83" y2="1745.05" style="stroke:#000000;stroke-width:7.34"/>
	<line x1="3514.01" y1="1745.05" x2="3516.85" y2="1745.05" style="stroke:#000000;stroke-width:7.34"/>
	<line x1="3537.02" y1="1745.05" x2="3539.99" y2="1745.05" style="stroke:#000000;stroke-width:7.34"/>
	<line x1="3560.04" y1="1745.05" x2="3563.01" y2="1745.05" style="stroke:#000000;stroke-width:7.34"/>
	<line x1="3583.18" y1="1745.05" x2="3586.03" y2="1745.05" style="stroke:#000000;stroke-width:7.34"/>
	<line x1="3606.20" y1="1745.05" x2="3609.05" y2="1745.05" style="stroke:#000000;stroke-width:7.34"/>
	<line x1="3629.22" y1="1745.05" x2="3632.06" y2="1745.05" style="stroke:#000000;stroke-width:7.34"/>
	<line x1="3652.23" y1="1745.05" x2="3655.08" y2="1745.05" style="stroke:#000000;stroke-width:7.34"/>
	<line x1="3675.25" y1="1745.05" x2="3678.10" y2="1745.05" style="stroke:#000000;stroke-width:7.34"/>
	<line x1="3698.27" y1="1745.05" x2="3701.11" y2="1745.05" style="stroke:#000000;stroke-width:7.34"/>
	<line x1="3721.29" y1="1745.05" x2="3724.13" y2="1745.05" style="stroke:#000000;stroke-width:7.34"/>
	<line x1="3744.30" y1="1745.05" x2="3745.29" y2="1745.05" style="stroke:#000000;stroke-width:7.34"/>
	<line x1="3745.29" y1="1745.05" x2="3747.15" y2="1745.05" style="stroke:#000000;stroke-width:7.34"/>
	<line x1="3767.32" y1="1745.05" x2="3770.17" y2="1745.05" style="stroke:#000000;stroke-width:7.34"/>
	<path d="" stroke-linejoin="round" style="fill:none;stroke:#000000;stroke-width:7.34"/>
	<line x1="401.69" y1="1956.18" x2="401.69" y2="258.27" style="stroke:#000000;stroke-width:4.90"/>
	<line x1="401.69" y1="1902.22" x2="367.66" y2="1902.22" style="stroke:#000000;stroke-width:4.90"/>
	<text x="350.71" y="1932.01" style="font-family:'Helvetica';font-size:85.02px;fill:#000000" text-anchor="end">0</text>
	<line x1="401.69" y1="1725.62" x2="367.66" y2="1725.62" style="stroke:#000000;stroke-width:4.90"/>
	<text x="350.71" y="1755.41" style="font-family:'Helvetica';font-size:85.02px;fill:#000000" text-anchor="end">.001</text>
	<line x1="401.69" y1="1548.90" x2="367.66" y2="1548.90" style="stroke:#000000;stroke-width:4.90"/>
	<text x="350.71" y="1578.69" style="font-family:'Helvetica';font-size:85.02px;fill:#000000" text-anchor="end">.002</text>
	<line x1="401.69" y1="1372.18" x2="367.66" y2="1372.18" style="stroke:#000000;stroke-width:4.90"/>
	<text x="350.71" y="1401.97" style="font-family:'Helvetica';font-size:85.02px;fill:#000000" text-anchor="end">.003</text>
	<line x1="401.69" y1="1195.59" x2="367.66" y2="1195.59" style="stroke:#000000;stroke-width:4.90"/>
	<text x="350.71" y="1225.37" style="font-family:'Helvetica';font-size:85.02px;fill:#000000" text-anchor="end">.004</text>
	<line x1="401.69" y1="1018.87" x2="367.66" y2="1018.87" style="stroke:#000000;stroke-width:4.90"/>
	<text x="350.71" y="1048.65" style="font-family:'Helvetica';font-size:85.02px;fill:#000000" text-anchor="end">.005</text>
	<line x1="401.69" y1="842.15" x2="367.66" y2="842.15" style="stroke:#000000;stroke-width:4.90"/>
	<text x="350.71" y="871.93" style="font-family:'Helvetica';font-size:85.02px;fill:#000000" text-anchor="end">.006</text>
	<line x1="401.69" y1="665.42" x2="367.66" y2="665.42" style="stroke:#000000;stroke-width:4.90"/>
	<text x="350.71" y="695.21" style="font-family:'Helvetica';font-size:85.02px;fill:#000000" text-anchor="end">.007</text>
	<line x1="401.69" y1="488.83" x2="367.66" y2="488.83" style="stroke:#000000;stroke-width:4.90"/>
	<text x="350.71" y="518.62" style="font-family:'Helvetica';font-size:85.02px;fill:#000000" text-anchor="end">.008</text>
	<line x1="401.69" y1="312.11" x2="367.66" y2="312.11" style="stroke:#000000;stroke-width:4.90"/>
	<text x="350.71" y="341.89" style="font-family:'Helvetica';font-size:85.02px;fill:#000000" text-anchor="end">.009</text>
	<line x1="401.69" y1="1956.18" x2="2078.51" y2="1956.18" style="stroke:#000000;stroke-width:4.90"/>
	<line x1="506.14" y1="1956.18" x2="506.14" y2="1973.13" style="stroke:#000000;stroke-width:4.90"/>
	<line x1="632.73" y1="1956.18" x2="632.73" y2="1973.13" style="stroke:#000000;stroke-width:4.90"/>
	<line x1="759.21" y1="1956.18" x2="759.21" y2="1973.13" style="stroke:#000000;stroke-width:4.90"/>
	<line x1="885.80" y1="1956.18" x2="885.80" y2="1973.13" style="stroke:#000000;stroke-width:4.90"/>
	<line x1="1012.27" y1="1956.18" x2="1012.27" y2="1973.13" style="stroke:#000000;stroke-width:4.90"/>
	<line x1="1138.87" y1="1956.18" x2="1138.87" y2="1973.13" style="stroke:#000000;stroke-width:4.90"/>
	<line x1="1265.47" y1="1956.18" x2="1265.47" y2="1973.13" style="stroke:#000000;stroke-width:4.90"/>
	<line x1="1391.94" y1="1956.18" x2="1391.94" y2="1973.13" style="stroke:#000000;stroke-width:4.90"/>
	<line x1="1518.54" y1="1956.18" x2="1518.54" y2="1973.13" style="stroke:#000000;stroke-width:4.90"/>
	<line x1="1645.01" y1="1956.18" x2="1645.01" y2="1973.13" style="stroke:#000000;stroke-width:4.90"/>
	<line x1="1771.61" y1="1956.18" x2="1771.61" y2="1973.13" style="stroke:#000000;stroke-width:4.90"/>
	<line x1="1898.20" y1="1956.18" x2="1898.20" y2="1973.13" style="stroke:#000000;stroke-width:4.90"/>
	<line x1="2024.67" y1="1956.18" x2="2024.67" y2="1973.13" style="stroke:#000000;stroke-width:4.90"/>
	<line x1="506.14" y1="1956.18" x2="506.14" y2="1990.09" style="stroke:#000000;stroke-width:4.90"/>
	<text x="506.14" y="2066.62" style="font-family:'Helvetica';font-size:85.02px;fill:#000000" text-anchor="middle">20</text>
	<line x1="1012.27" y1="1956.18" x2="1012.27" y2="1990.09" style="stroke:#000000;stroke-width:4.90"/>
	<text x="1012.27" y="2066.62" style="font-family:'Helvetica';font-size:85.02px;fill:#000000" text-anchor="middle">40</text>
	<line x1="1518.54" y1="1956.18" x2="1518.54" y2="1990.09" style="stroke:#000000;stroke-width:4.90"/>
	<text x="1518.54" y="2066.62" style="font-family:'Helvetica';font-size:85.02px;fill:#000000" text-anchor="middle">60</text>
	<line x1="2024.67" y1="1956.18" x2="2024.67" y2="1990.09" style="stroke:#000000;stroke-width:4.90"/>
	<text x="2024.67" y="2066.62" style="font-family:'Helvetica';font-size:85.02px;fill:#000000" text-anchor="middle">80</text>
	<line x1="2147.68" y1="1956.18" x2="3824.49" y2="1956.18" style="stroke:#000000;stroke-width:4.90"/>
	<line x1="2252.13" y1="1956.18" x2="2252.13" y2="1973.13" style="stroke:#000000;stroke-width:4.90"/>
	<line x1="2378.72" y1="1956.18" x2="2378.72" y2="1973.13" style="stroke:#000000;stroke-width:4.90"/>
	<line x1="2505.20" y1="1956.18" x2="2505.20" y2="1973.13" style="stroke:#000000;stroke-width:4.90"/>
	<line x1="2631.79" y1="1956.18" x2="2631.79" y2="1973.13" style="stroke:#000000;stroke-width:4.90"/>
	<line x1="2758.26" y1="1956.18" x2="2758.26" y2="1973.13" style="stroke:#000000;stroke-width:4.90"/>
	<line x1="2884.86" y1="1956.18" x2="2884.86" y2="1973.13" style="stroke:#000000;stroke-width:4.90"/>
	<line x1="3011.46" y1="1956.18" x2="3011.46" y2="1973.13" style="stroke:#000000;stroke-width:4.90"/>
	<line x1="3137.93" y1="1956.18" x2="3137.93" y2="1973.13" style="stroke:#000000;stroke-width:4.90"/>
	<line x1="3264.53" y1="1956.18" x2="3264.53" y2="1973.13" style="stroke:#000000;stroke-width:4.90"/>
	<line x1="3391.00" y1="1956.18" x2="3391.00" y2="1973.13" style="stroke:#000000;stroke-width:4.90"/>
	<line x1="3517.59" y1="1956.18" x2="3517.59" y2="1973.13" style="stroke:#000000;stroke-width:4.90"/>
	<line x1="3644.07" y1="1956.18" x2="3644.07" y2="1973.13" style="stroke:#000000;stroke-width:4.90"/>
	<line x1="3770.66" y1="1956.18" x2="3770.66" y2="1973.13" style="stroke:#000000;stroke-width:4.90"/>
	<line x1="2252.13" y1="1956.18" x2="2252.13" y2="1990.09" style="stroke:#000000;stroke-width:4.90"/>
	<text x="2252.13" y="2066.62" style="font-family:'Helvetica';font-size:85.02px;fill:#000000" text-anchor="middle">20</text>
	<line x1="2758.26" y1="1956.18" x2="2758.26" y2="1990.09" style="stroke:#000000;stroke-width:4.90"/>
	<text x="2758.26" y="2066.62" style="font-family:'Helvetica';font-size:85.02px;fill:#000000" text-anchor="middle">40</text>
	<line x1="3264.53" y1="1956.18" x2="3264.53" y2="1990.09" style="stroke:#000000;stroke-width:4.90"/>
	<text x="3264.53" y="2066.62" style="font-family:'Helvetica';font-size:85.02px;fill:#000000" text-anchor="middle">60</text>
	<line x1="3770.66" y1="1956.18" x2="3770.66" y2="1990.09" style="stroke:#000000;stroke-width:4.90"/>
	<text x="3770.66" y="2066.62" style="font-family:'Helvetica';font-size:85.02px;fill:#000000" text-anchor="middle">80</text>
	<rect x="401.69" y="135.39" width="1676.81" height="122.89" style="fill:#D9E6EB"/>
	<rect x="404.14" y="137.83" width="1671.92" height="117.99" style="fill:none;stroke:#D9E6EB;stroke-width:4.90"/>
	<text x="1240.10" y="215.42" style="font-family:'Helvetica';font-size:93.56px;fill:#000000" text-anchor="middle">Female</text>
	<rect x="2147.68" y="135.39" width="1676.81" height="122.89" style="fill:#D9E6EB"/>
	<rect x="2150.13" y="137.83" width="1671.92" height="117.99" style="fill:none;stroke:#D9E6EB;stroke-width:4.90"/>
	<text x="2986.09" y="215.42" style="font-family:'Helvetica';font-size:93.56px;fill:#000000" text-anchor="middle">Male</text>
	<rect x="401.32" y="2278.31" width="3157.23" height="466.30" style="fill:#FFFFFF"/>
	<rect x="404.20" y="2281.19" width="3151.47" height="460.54" style="fill:none;stroke:#000000;stroke-width:5.76"/>
	<line x1="444.51" y1="2371.50" x2="818.98" y2="2371.50" style="stroke:#FF0000;stroke-width:8.64"/>
	<line x1="1952.28" y1="2371.50" x2="2326.62" y2="2371.50" style="stroke:#FFD200;stroke-width:8.64"/>
	<line x1="444.51" y1="2511.46" x2="818.98" y2="2511.46" style="stroke:#FF7F00;stroke-width:8.64"/>
	<line x1="1952.28" y1="2511.46" x2="2326.62" y2="2511.46" style="stroke:#008000;stroke-width:8.64"/>
	<line x1="444.51" y1="2651.43" x2="818.98" y2="2651.43" style="stroke:#1A476F;stroke-width:8.64"/>
	<text x="879.00" y="2406.52" style="font-family:'Helvetica';font-size:99.99px;fill:#000000">Liver disease</text>
	<text x="2386.64" y="2406.52" style="font-family:'Helvetica';font-size:99.99px;fill:#000000">Reduced kidney function</text>
	<text x="879.00" y="2546.49" style="font-family:'Helvetica';font-size:99.99px;fill:#000000">Poor kidney function</text>
	<text x="2386.64" y="2546.49" style="font-family:'Helvetica';font-size:99.99px;fill:#000000">Organ transplant</text>
	<text x="879.00" y="2686.46" style="font-family:'Helvetica';font-size:99.99px;fill:#000000">No comborbidity</text>
	<text x="1980.00" y="2213.60" style="font-family:'Helvetica';font-size:99.99px;fill:#000000" text-anchor="middle">Age (years)</text>
</svg>
