<?xml version="1.0" encoding="UTF-8" standalone="no"?>
<!-- This is a Stata 16.1 generated SVG file (http://www.stata.com) -->

<svg version="1.1" width="1600px" height="1164px" viewBox="0 0 3960 2880" xmlns="http://www.w3.org/2000/svg" xmlns:xlink="http://www.w3.org/1999/xlink">
	<desc>Stata Graph - Graph</desc>
	<rect x="0" y="0" width="3960" height="2880" style="fill:#EAF2F3;stroke:none"/>
	<rect x="0.00" y="0.00" width="3959.88" height="2880.00" style="fill:#EAF2F3"/>
	<rect x="2.88" y="2.88" width="3954.12" height="2874.24" style="fill:none;stroke:#EAF2F3;stroke-width:5.76"/>
	<rect x="451.32" y="402.82" width="1652.06" height="1553.36" style="fill:#FFFFFF"/>
	<rect x="453.76" y="405.27" width="1647.17" height="1548.46" style="fill:none;stroke:#FFFFFF;stroke-width:4.90"/>
	<line x1="451.32" y1="1902.22" x2="2103.38" y2="1902.22" style="stroke:#EAF2F3;stroke-width:7.34"/>
	<line x1="451.32" y1="1540.86" x2="2103.38" y2="1540.86" style="stroke:#EAF2F3;stroke-width:7.34"/>
	<line x1="451.32" y1="1179.50" x2="2103.38" y2="1179.50" style="stroke:#EAF2F3;stroke-width:7.34"/>
	<line x1="451.32" y1="818.01" x2="2103.38" y2="818.01" style="stroke:#EAF2F3;stroke-width:7.34"/>
	<rect x="2172.43" y="402.82" width="1652.06" height="1553.36" style="fill:#FFFFFF"/>
	<rect x="2174.88" y="405.27" width="1647.17" height="1548.46" style="fill:none;stroke:#FFFFFF;stroke-width:4.90"/>
	<line x1="2172.43" y1="1902.22" x2="3824.49" y2="1902.22" style="stroke:#EAF2F3;stroke-width:7.34"/>
	<line x1="2172.43" y1="1540.86" x2="3824.49" y2="1540.86" style="stroke:#EAF2F3;stroke-width:7.34"/>
	<line x1="2172.43" y1="1179.50" x2="3824.49" y2="1179.50" style="stroke:#EAF2F3;stroke-width:7.34"/>
	<line x1="2172.43" y1="818.01" x2="3824.49" y2="818.01" style="stroke:#EAF2F3;stroke-width:7.34"/>
	<line x1="505.02" y1="1801.98" x2="505.02" y2="1801.98" style="stroke:#A0A0A0;stroke-width:7.34"/>
	<line x1="505.02" y1="1801.98" x2="505.02" y2="1801.98" style="stroke:#A0A0A0;stroke-width:7.34"/>
	<line x1="505.02" y1="1801.98" x2="505.02" y2="1801.98" style="stroke:#A0A0A0;stroke-width:7.34"/>
	<line x1="505.02" y1="1801.98" x2="505.02" y2="1801.98" style="stroke:#A0A0A0;stroke-width:7.34"/>
	<line x1="505.02" y1="1801.98" x2="507.87" y2="1801.98" style="stroke:#A0A0A0;stroke-width:7.34"/>
	<line x1="528.04" y1="1801.98" x2="529.90" y2="1801.98" style="stroke:#A0A0A0;stroke-width:7.34"/>
	<line x1="529.90" y1="1801.98" x2="529.90" y2="1801.98" style="stroke:#A0A0A0;stroke-width:7.34"/>
	<line x1="529.90" y1="1801.98" x2="529.90" y2="1801.98" style="stroke:#A0A0A0;stroke-width:7.34"/>
	<line x1="529.90" y1="1801.98" x2="529.90" y2="1801.98" style="stroke:#A0A0A0;stroke-width:7.34"/>
	<line x1="529.90" y1="1801.98" x2="529.90" y2="1801.98" style="stroke:#A0A0A0;stroke-width:7.34"/>
	<line x1="529.90" y1="1801.98" x2="530.89" y2="1801.98" style="stroke:#A0A0A0;stroke-width:7.34"/>
	<line x1="551.06" y1="1801.98" x2="554.03" y2="1801.98" style="stroke:#A0A0A0;stroke-width:7.34"/>
	<line x1="574.20" y1="1801.98" x2="577.05" y2="1801.98" style="stroke:#A0A0A0;stroke-width:7.34"/>
	<line x1="597.22" y1="1801.98" x2="600.06" y2="1801.98" style="stroke:#A0A0A0;stroke-width:7.34"/>
	<line x1="620.24" y1="1801.98" x2="623.08" y2="1801.98" style="stroke:#A0A0A0;stroke-width:7.34"/>
	<line x1="643.25" y1="1801.98" x2="646.10" y2="1801.98" style="stroke:#A0A0A0;stroke-width:7.34"/>
	<line x1="666.27" y1="1801.98" x2="669.12" y2="1801.98" style="stroke:#A0A0A0;stroke-width:7.34"/>
	<line x1="689.29" y1="1801.98" x2="692.13" y2="1801.98" style="stroke:#A0A0A0;stroke-width:7.34"/>
	<line x1="712.30" y1="1801.98" x2="715.15" y2="1801.98" style="stroke:#A0A0A0;stroke-width:7.34"/>
	<line x1="735.32" y1="1801.98" x2="738.17" y2="1801.98" style="stroke:#A0A0A0;stroke-width:7.34"/>
	<line x1="758.34" y1="1801.98" x2="761.19" y2="1801.98" style="stroke:#A0A0A0;stroke-width:7.34"/>
	<line x1="781.36" y1="1801.98" x2="784.20" y2="1801.98" style="stroke:#A0A0A0;stroke-width:7.34"/>
	<line x1="804.38" y1="1801.98" x2="807.35" y2="1801.98" style="stroke:#A0A0A0;stroke-width:7.34"/>
	<line x1="827.52" y1="1801.98" x2="828.88" y2="1801.98" style="stroke:#A0A0A0;stroke-width:7.34"/>
	<line x1="828.88" y1="1801.98" x2="828.88" y2="1801.98" style="stroke:#A0A0A0;stroke-width:7.34"/>
	<line x1="828.88" y1="1801.98" x2="828.88" y2="1801.98" style="stroke:#A0A0A0;stroke-width:7.34"/>
	<line x1="828.88" y1="1801.98" x2="828.88" y2="1801.98" style="stroke:#A0A0A0;stroke-width:7.34"/>
	<line x1="828.88" y1="1801.98" x2="828.88" y2="1801.98" style="stroke:#A0A0A0;stroke-width:7.34"/>
	<line x1="828.88" y1="1801.98" x2="830.36" y2="1801.98" style="stroke:#A0A0A0;stroke-width:7.34"/>
	<line x1="850.53" y1="1801.98" x2="853.38" y2="1801.98" style="stroke:#A0A0A0;stroke-width:7.34"/>
	<line x1="873.55" y1="1801.98" x2="876.40" y2="1801.98" style="stroke:#A0A0A0;stroke-width:7.34"/>
	<line x1="896.57" y1="1801.98" x2="899.41" y2="1801.98" style="stroke:#A0A0A0;stroke-width:7.34"/>
	<line x1="919.59" y1="1801.98" x2="922.43" y2="1801.98" style="stroke:#A0A0A0;stroke-width:7.34"/>
	<line x1="942.60" y1="1801.98" x2="945.45" y2="1801.98" style="stroke:#A0A0A0;stroke-width:7.34"/>
	<line x1="965.62" y1="1801.98" x2="968.47" y2="1801.98" style="stroke:#A0A0A0;stroke-width:7.34"/>
	<line x1="988.64" y1="1801.98" x2="991.49" y2="1801.98" style="stroke:#A0A0A0;stroke-width:7.34"/>
	<line x1="1011.66" y1="1801.98" x2="1014.50" y2="1801.98" style="stroke:#A0A0A0;stroke-width:7.34"/>
	<line x1="1034.67" y1="1801.98" x2="1037.52" y2="1801.98" style="stroke:#A0A0A0;stroke-width:7.34"/>
	<line x1="1057.69" y1="1801.98" x2="1060.66" y2="1801.98" style="stroke:#A0A0A0;stroke-width:7.34"/>
	<line x1="1080.83" y1="1801.98" x2="1083.68" y2="1801.98" style="stroke:#A0A0A0;stroke-width:7.34"/>
	<line x1="1103.85" y1="1801.98" x2="1106.70" y2="1801.98" style="stroke:#A0A0A0;stroke-width:7.34"/>
	<line x1="1126.87" y1="1801.98" x2="1127.73" y2="1801.98" style="stroke:#A0A0A0;stroke-width:7.34"/>
	<line x1="1127.73" y1="1801.98" x2="1127.73" y2="1801.98" style="stroke:#A0A0A0;stroke-width:7.34"/>
	<line x1="1127.73" y1="1801.98" x2="1127.73" y2="1801.98" style="stroke:#A0A0A0;stroke-width:7.34"/>
	<line x1="1127.73" y1="1801.98" x2="1127.73" y2="1801.98" style="stroke:#A0A0A0;stroke-width:7.34"/>
	<line x1="1127.73" y1="1801.98" x2="1127.73" y2="1801.98" style="stroke:#A0A0A0;stroke-width:7.34"/>
	<line x1="1127.73" y1="1801.98" x2="1129.71" y2="1801.98" style="stroke:#A0A0A0;stroke-width:7.34"/>
	<line x1="1149.88" y1="1801.98" x2="1152.73" y2="1801.98" style="stroke:#A0A0A0;stroke-width:7.34"/>
	<line x1="1172.90" y1="1801.98" x2="1175.75" y2="1801.98" style="stroke:#A0A0A0;stroke-width:7.34"/>
	<line x1="1195.92" y1="1801.98" x2="1198.77" y2="1801.98" style="stroke:#A0A0A0;stroke-width:7.34"/>
	<line x1="1218.94" y1="1801.98" x2="1221.78" y2="1801.98" style="stroke:#A0A0A0;stroke-width:7.34"/>
	<line x1="1241.95" y1="1801.98" x2="1244.80" y2="1801.98" style="stroke:#A0A0A0;stroke-width:7.34"/>
	<line x1="1264.97" y1="1801.98" x2="1267.82" y2="1801.98" style="stroke:#A0A0A0;stroke-width:7.34"/>
	<line x1="1287.99" y1="1801.98" x2="1290.96" y2="1801.98" style="stroke:#A0A0A0;stroke-width:7.34"/>
	<line x1="1311.01" y1="1801.98" x2="1313.98" y2="1801.98" style="stroke:#A0A0A0;stroke-width:7.34"/>
	<line x1="1334.15" y1="1801.98" x2="1336.99" y2="1801.98" style="stroke:#A0A0A0;stroke-width:7.34"/>
	<line x1="1357.17" y1="1801.98" x2="1360.01" y2="1801.98" style="stroke:#A0A0A0;stroke-width:7.34"/>
	<line x1="1380.18" y1="1801.98" x2="1383.03" y2="1801.98" style="stroke:#A0A0A0;stroke-width:7.34"/>
	<line x1="1403.20" y1="1801.98" x2="1406.05" y2="1801.98" style="stroke:#A0A0A0;stroke-width:7.34"/>
	<line x1="1426.22" y1="1801.98" x2="1426.71" y2="1801.98" style="stroke:#A0A0A0;stroke-width:7.34"/>
	<line x1="1426.71" y1="1801.98" x2="1426.71" y2="1801.98" style="stroke:#A0A0A0;stroke-width:7.34"/>
	<line x1="1426.71" y1="1801.98" x2="1426.71" y2="1801.98" style="stroke:#A0A0A0;stroke-width:7.34"/>
	<line x1="1426.71" y1="1801.98" x2="1426.71" y2="1801.98" style="stroke:#A0A0A0;stroke-width:7.34"/>
	<line x1="1426.71" y1="1801.98" x2="1426.71" y2="1801.98" style="stroke:#A0A0A0;stroke-width:7.34"/>
	<line x1="1426.71" y1="1801.98" x2="1429.07" y2="1801.98" style="stroke:#A0A0A0;stroke-width:7.34"/>
	<line x1="1449.24" y1="1801.98" x2="1451.59" y2="1801.98" style="stroke:#A0A0A0;stroke-width:7.34"/>
	<line x1="1451.59" y1="1801.98" x2="1451.59" y2="1801.98" style="stroke:#A0A0A0;stroke-width:7.34"/>
	<line x1="1451.59" y1="1801.98" x2="1451.59" y2="1801.98" style="stroke:#A0A0A0;stroke-width:7.34"/>
	<line x1="1451.59" y1="1801.98" x2="1451.59" y2="1801.98" style="stroke:#A0A0A0;stroke-width:7.34"/>
	<line x1="1451.59" y1="1801.98" x2="1451.59" y2="1801.98" style="stroke:#A0A0A0;stroke-width:7.34"/>
	<line x1="1451.59" y1="1801.98" x2="1452.08" y2="1801.98" style="stroke:#A0A0A0;stroke-width:7.34"/>
	<line x1="1472.25" y1="1801.98" x2="1475.10" y2="1801.98" style="stroke:#A0A0A0;stroke-width:7.34"/>
	<line x1="1495.27" y1="1801.98" x2="1498.12" y2="1801.98" style="stroke:#A0A0A0;stroke-width:7.34"/>
	<line x1="1518.29" y1="1801.98" x2="1521.13" y2="1801.98" style="stroke:#A0A0A0;stroke-width:7.34"/>
	<line x1="1541.31" y1="1801.98" x2="1544.28" y2="1801.98" style="stroke:#A0A0A0;stroke-width:7.34"/>
	<line x1="1564.32" y1="1801.98" x2="1567.29" y2="1801.98" style="stroke:#A0A0A0;stroke-width:7.34"/>
	<line x1="1587.46" y1="1801.98" x2="1590.31" y2="1801.98" style="stroke:#A0A0A0;stroke-width:7.34"/>
	<line x1="1610.48" y1="1801.98" x2="1613.33" y2="1801.98" style="stroke:#A0A0A0;stroke-width:7.34"/>
	<line x1="1633.50" y1="1801.98" x2="1636.35" y2="1801.98" style="stroke:#A0A0A0;stroke-width:7.34"/>
	<line x1="1656.52" y1="1801.98" x2="1659.36" y2="1801.98" style="stroke:#A0A0A0;stroke-width:7.34"/>
	<line x1="1679.54" y1="1801.98" x2="1682.38" y2="1801.98" style="stroke:#A0A0A0;stroke-width:7.34"/>
	<line x1="1702.55" y1="1801.98" x2="1705.40" y2="1801.98" style="stroke:#A0A0A0;stroke-width:7.34"/>
	<line x1="1725.57" y1="1801.98" x2="1725.57" y2="1801.98" style="stroke:#A0A0A0;stroke-width:7.34"/>
	<line x1="1725.57" y1="1801.98" x2="1725.57" y2="1801.98" style="stroke:#A0A0A0;stroke-width:7.34"/>
	<line x1="1725.57" y1="1801.98" x2="1725.57" y2="1801.98" style="stroke:#A0A0A0;stroke-width:7.34"/>
	<line x1="1725.57" y1="1801.98" x2="1725.57" y2="1801.98" style="stroke:#A0A0A0;stroke-width:7.34"/>
	<line x1="1725.57" y1="1801.98" x2="1725.57" y2="1801.98" style="stroke:#A0A0A0;stroke-width:7.34"/>
	<line x1="1725.57" y1="1801.98" x2="1728.42" y2="1801.98" style="stroke:#A0A0A0;stroke-width:7.34"/>
	<line x1="1748.59" y1="1801.98" x2="1750.44" y2="1801.98" style="stroke:#A0A0A0;stroke-width:7.34"/>
	<line x1="1750.44" y1="1801.98" x2="1750.44" y2="1801.98" style="stroke:#A0A0A0;stroke-width:7.34"/>
	<line x1="1750.44" y1="1801.98" x2="1750.44" y2="1801.98" style="stroke:#A0A0A0;stroke-width:7.34"/>
	<line x1="1750.44" y1="1801.98" x2="1750.44" y2="1801.98" style="stroke:#A0A0A0;stroke-width:7.34"/>
	<line x1="1750.44" y1="1801.98" x2="1750.44" y2="1801.98" style="stroke:#A0A0A0;stroke-width:7.34"/>
	<line x1="1750.44" y1="1801.98" x2="1751.43" y2="1801.98" style="stroke:#A0A0A0;stroke-width:7.34"/>
	<line x1="1771.61" y1="1801.98" x2="1774.45" y2="1801.98" style="stroke:#A0A0A0;stroke-width:7.34"/>
	<line x1="1794.62" y1="1801.98" x2="1797.59" y2="1801.98" style="stroke:#A0A0A0;stroke-width:7.34"/>
	<line x1="1817.64" y1="1801.98" x2="1820.61" y2="1801.98" style="stroke:#A0A0A0;stroke-width:7.34"/>
	<line x1="1840.78" y1="1801.98" x2="1843.63" y2="1801.98" style="stroke:#A0A0A0;stroke-width:7.34"/>
	<line x1="1863.80" y1="1801.98" x2="1866.64" y2="1801.98" style="stroke:#A0A0A0;stroke-width:7.34"/>
	<line x1="1886.82" y1="1801.98" x2="1889.66" y2="1801.98" style="stroke:#A0A0A0;stroke-width:7.34"/>
	<line x1="1909.83" y1="1801.98" x2="1912.68" y2="1801.98" style="stroke:#A0A0A0;stroke-width:7.34"/>
	<line x1="1932.85" y1="1801.98" x2="1935.70" y2="1801.98" style="stroke:#A0A0A0;stroke-width:7.34"/>
	<line x1="1955.87" y1="1801.98" x2="1958.71" y2="1801.98" style="stroke:#A0A0A0;stroke-width:7.34"/>
	<line x1="1978.89" y1="1801.98" x2="1981.73" y2="1801.98" style="stroke:#A0A0A0;stroke-width:7.34"/>
	<line x1="2001.90" y1="1801.98" x2="2004.75" y2="1801.98" style="stroke:#A0A0A0;stroke-width:7.34"/>
	<line x1="2024.92" y1="1801.98" x2="2027.77" y2="1801.98" style="stroke:#A0A0A0;stroke-width:7.34"/>
	<line x1="2047.94" y1="1801.98" x2="2049.42" y2="1801.98" style="stroke:#A0A0A0;stroke-width:7.34"/>
	<line x1="2049.42" y1="1801.98" x2="2049.42" y2="1801.98" style="stroke:#A0A0A0;stroke-width:7.34"/>
	<line x1="2049.42" y1="1801.98" x2="2049.42" y2="1801.98" style="stroke:#A0A0A0;stroke-width:7.34"/>
	<line x1="2049.42" y1="1801.98" x2="2049.42" y2="1801.98" style="stroke:#A0A0A0;stroke-width:7.34"/>
	<line x1="2049.42" y1="1801.98" x2="2049.42" y2="1801.98" style="stroke:#A0A0A0;stroke-width:7.34"/>
	<path d="" stroke-linejoin="round" style="fill:none;stroke:#A0A0A0;stroke-width:7.34"/>
	<path d=" M505.02 1901.97 L529.90 1901.97 L554.89 1901.85 L579.77 1901.85 L604.64 1901.73 L629.64 1901.60 L654.51 1901.48 L679.39 1901.23 L704.26 1901.11 L729.26 1900.86 L754.13 1900.61 L779.01 1900.36 L804.00 1899.99 L828.88 1899.50 L853.75 1899.13 L878.63 1898.63 L903.62 1898.01 L928.50 1897.27 L953.37 1896.53 L978.37 1895.66 L1003.24 1894.80 L1028.12 1893.81 L1052.99 1892.69 L1077.99 1891.45 L1102.86 1890.09 L1127.73 1888.73 L1152.73 1887.25 L1177.61 1885.64 L1202.48 1884.03 L1227.35 1882.17 L1252.35 1880.32 L1277.22 1878.21 L1302.10 1875.98 L1327.10 1873.63 L1351.97 1871.03 L1376.84 1868.31 L1401.72 1865.34 L1426.71 1862.00 L1451.59 1858.41 L1476.46 1854.45 L1501.46 1850.00 L1526.33 1845.17 L1551.21 1839.72 L1576.08 1833.66 L1601.08 1826.98 L1625.95 1819.55 L1650.83 1811.26 L1675.82 1801.98 L1700.70 1791.71 L1725.57 1780.32 L1750.44 1767.58 L1775.44 1753.34 L1800.32 1737.63 L1825.19 1719.93 L1850.19 1700.38 L1875.06 1678.60 L1899.93 1654.22 L1924.81 1627.12 L1949.81 1597.04 L1974.68 1563.38 L1999.55 1526.01 L2024.55 1484.43 L2049.42 1438.14" stroke-linejoin="round" style="fill:none;stroke:#1A476F;stroke-width:7.34"/>
	<path d=" M505.02 1901.85 L529.90 1901.73 L554.89 1901.60 L579.77 1901.48 L604.64 1901.35 L629.64 1901.23 L654.51 1900.98 L679.39 1900.74 L704.26 1900.49 L729.26 1900.12 L754.13 1899.75 L779.01 1899.25 L804.00 1898.76 L828.88 1898.14 L853.75 1897.39 L878.63 1896.65 L903.62 1895.66 L928.50 1894.67 L953.37 1893.56 L978.37 1892.20 L1003.24 1890.84 L1028.12 1889.23 L1052.99 1887.62 L1077.99 1885.76 L1102.86 1883.78 L1127.73 1881.68 L1152.73 1879.45 L1177.61 1876.97 L1202.48 1874.38 L1227.35 1871.65 L1252.35 1868.68 L1277.22 1865.59 L1302.10 1862.25 L1327.10 1858.66 L1351.97 1854.70 L1376.84 1850.49 L1401.72 1845.91 L1426.71 1840.96 L1451.59 1835.39 L1476.46 1829.33 L1501.46 1822.65 L1526.33 1815.22 L1551.21 1806.93 L1576.08 1797.77 L1601.08 1787.50 L1625.95 1776.12 L1650.83 1763.49 L1675.82 1749.51 L1700.70 1733.79 L1725.57 1716.47 L1750.44 1697.04 L1775.44 1675.50 L1800.32 1651.37 L1825.19 1624.64 L1850.19 1594.69 L1875.06 1561.53 L1899.93 1524.52 L1924.81 1483.19 L1949.81 1437.28 L1974.68 1386.17 L1999.55 1329.24 L2024.55 1265.88 L2049.42 1195.34" stroke-linejoin="round" style="fill:none;stroke:#FFD200;stroke-width:7.34"/>
	<path d=" M505.02 1901.85 L529.90 1901.73 L554.89 1901.60 L579.77 1901.48 L604.64 1901.35 L629.64 1901.11 L654.51 1900.86 L679.39 1900.61 L704.26 1900.36 L729.26 1899.99 L754.13 1899.50 L779.01 1899.00 L804.00 1898.51 L828.88 1897.77 L853.75 1897.02 L878.63 1896.16 L903.62 1895.17 L928.50 1894.18 L953.37 1892.94 L978.37 1891.45 L1003.24 1889.97 L1028.12 1888.36 L1052.99 1886.50 L1077.99 1884.52 L1102.86 1882.42 L1127.73 1880.19 L1152.73 1877.72 L1177.61 1875.24 L1202.48 1872.40 L1227.35 1869.55 L1252.35 1866.33 L1277.22 1862.99 L1302.10 1859.40 L1327.10 1855.57 L1351.97 1851.36 L1376.84 1846.90 L1401.72 1841.95 L1426.71 1836.63 L1451.59 1830.69 L1476.46 1824.26 L1501.46 1817.08 L1526.33 1809.03 L1551.21 1800.25 L1576.08 1790.35 L1601.08 1779.46 L1625.95 1767.21 L1650.83 1753.72 L1675.82 1738.62 L1700.70 1721.91 L1725.57 1703.22 L1750.44 1682.56 L1775.44 1659.42 L1800.32 1633.67 L1825.19 1604.96 L1850.19 1573.04 L1875.06 1537.39 L1899.93 1497.67 L1924.81 1453.61 L1949.81 1404.36 L1974.68 1349.66 L1999.55 1288.65 L2024.55 1220.83 L2049.42 1145.34" stroke-linejoin="round" style="fill:none;stroke:#008000;stroke-width:7.34"/>
	<path d=" M505.02 1901.85 L529.90 1901.73 L554.89 1901.60 L579.77 1901.48 L604.64 1901.35 L629.64 1901.23 L654.51 1900.98 L679.39 1900.74 L704.26 1900.49 L729.26 1900.12 L754.13 1899.75 L779.01 1899.25 L804.00 1898.76 L828.88 1898.14 L853.75 1897.39 L878.63 1896.65 L903.62 1895.66 L928.50 1894.67 L953.37 1893.56 L978.37 1892.32 L1003.24 1890.84 L1028.12 1889.35 L1052.99 1887.62 L1077.99 1885.76 L1102.86 1883.78 L1127.73 1881.68 L1152.73 1879.45 L1177.61 1877.10 L1202.48 1874.50 L1227.35 1871.78 L1252.35 1868.81 L1277.22 1865.71 L1302.10 1862.37 L1327.10 1858.78 L1351.97 1854.95 L1376.84 1850.74 L1401.72 1846.16 L1426.71 1841.21 L1451.59 1835.64 L1476.46 1829.70 L1501.46 1823.02 L1526.33 1815.59 L1551.21 1807.30 L1576.08 1798.14 L1601.08 1788.00 L1625.95 1776.61 L1650.83 1763.99 L1675.82 1750.00 L1700.70 1734.41 L1725.57 1717.08 L1750.44 1697.78 L1775.44 1676.25 L1800.32 1652.24 L1825.19 1625.63 L1850.19 1595.81 L1875.06 1562.76 L1899.93 1525.89 L1924.81 1484.68 L1949.81 1439.01 L1974.68 1388.02 L1999.55 1331.22 L2024.55 1268.11 L2049.42 1197.94" stroke-linejoin="round" style="fill:none;stroke:#FF0000;stroke-width:7.34"/>
	<path d=" M505.02 1901.85 L529.90 1901.85 L554.89 1901.73 L579.77 1901.60 L604.64 1901.48 L629.64 1901.23 L654.51 1901.11 L679.39 1900.86 L704.26 1900.61 L729.26 1900.24 L754.13 1899.87 L779.01 1899.50 L804.00 1899.00 L828.88 1898.51 L853.75 1897.77 L878.63 1897.02 L903.62 1896.28 L928.50 1895.29 L953.37 1894.18 L978.37 1893.06 L1003.24 1891.70 L1028.12 1890.34 L1052.99 1888.73 L1077.99 1887.12 L1102.86 1885.27 L1127.73 1883.29 L1152.73 1881.31 L1177.61 1879.08 L1202.48 1876.73 L1227.35 1874.13 L1252.35 1871.53 L1277.22 1868.56 L1302.10 1865.47 L1327.10 1862.25 L1351.97 1858.66 L1376.84 1854.70 L1401.72 1850.49 L1426.71 1845.91 L1451.59 1840.96 L1476.46 1835.39 L1501.46 1829.21 L1526.33 1822.28 L1551.21 1814.73 L1576.08 1806.31 L1601.08 1796.91 L1625.95 1786.51 L1650.83 1774.88 L1675.82 1762.01 L1700.70 1747.65 L1725.57 1731.56 L1750.44 1713.74 L1775.44 1693.94 L1800.32 1671.91 L1825.19 1647.29 L1850.19 1619.81 L1875.06 1589.37 L1899.93 1555.34 L1924.81 1517.47 L1949.81 1475.27 L1974.68 1428.24 L1999.55 1376.02 L2024.55 1317.85 L2049.42 1253.13" stroke-linejoin="round" style="fill:none;stroke:#FF7F00;stroke-width:7.34"/>
	<line x1="2226.26" y1="1747.53" x2="2226.26" y2="1747.53" style="stroke:#A0A0A0;stroke-width:7.34"/>
	<line x1="2226.26" y1="1747.53" x2="2226.26" y2="1747.53" style="stroke:#A0A0A0;stroke-width:7.34"/>
	<line x1="2226.26" y1="1747.53" x2="2226.26" y2="1747.53" style="stroke:#A0A0A0;stroke-width:7.34"/>
	<line x1="2226.26" y1="1747.53" x2="2226.26" y2="1747.53" style="stroke:#A0A0A0;stroke-width:7.34"/>
	<line x1="2226.26" y1="1747.53" x2="2229.11" y2="1747.53" style="stroke:#A0A0A0;stroke-width:7.34"/>
	<line x1="2249.28" y1="1747.53" x2="2251.14" y2="1747.53" style="stroke:#A0A0A0;stroke-width:7.34"/>
	<line x1="2251.14" y1="1747.53" x2="2251.14" y2="1747.53" style="stroke:#A0A0A0;stroke-width:7.34"/>
	<line x1="2251.14" y1="1747.53" x2="2251.14" y2="1747.53" style="stroke:#A0A0A0;stroke-width:7.34"/>
	<line x1="2251.14" y1="1747.53" x2="2251.14" y2="1747.53" style="stroke:#A0A0A0;stroke-width:7.34"/>
	<line x1="2251.14" y1="1747.53" x2="2251.14" y2="1747.53" style="stroke:#A0A0A0;stroke-width:7.34"/>
	<line x1="2251.14" y1="1747.53" x2="2252.13" y2="1747.53" style="stroke:#A0A0A0;stroke-width:7.34"/>
	<line x1="2272.30" y1="1747.53" x2="2275.14" y2="1747.53" style="stroke:#A0A0A0;stroke-width:7.34"/>
	<line x1="2295.32" y1="1747.53" x2="2298.16" y2="1747.53" style="stroke:#A0A0A0;stroke-width:7.34"/>
	<line x1="2318.33" y1="1747.53" x2="2321.18" y2="1747.53" style="stroke:#A0A0A0;stroke-width:7.34"/>
	<line x1="2341.35" y1="1747.53" x2="2344.32" y2="1747.53" style="stroke:#A0A0A0;stroke-width:7.34"/>
	<line x1="2364.37" y1="1747.53" x2="2367.34" y2="1747.53" style="stroke:#A0A0A0;stroke-width:7.34"/>
	<line x1="2387.51" y1="1747.53" x2="2390.36" y2="1747.53" style="stroke:#A0A0A0;stroke-width:7.34"/>
	<line x1="2410.53" y1="1747.53" x2="2413.37" y2="1747.53" style="stroke:#A0A0A0;stroke-width:7.34"/>
	<line x1="2433.54" y1="1747.53" x2="2436.39" y2="1747.53" style="stroke:#A0A0A0;stroke-width:7.34"/>
	<line x1="2456.56" y1="1747.53" x2="2459.41" y2="1747.53" style="stroke:#A0A0A0;stroke-width:7.34"/>
	<line x1="2479.58" y1="1747.53" x2="2482.43" y2="1747.53" style="stroke:#A0A0A0;stroke-width:7.34"/>
	<line x1="2502.60" y1="1747.53" x2="2505.44" y2="1747.53" style="stroke:#A0A0A0;stroke-width:7.34"/>
	<line x1="2525.61" y1="1747.53" x2="2528.46" y2="1747.53" style="stroke:#A0A0A0;stroke-width:7.34"/>
	<line x1="2548.63" y1="1747.53" x2="2550.12" y2="1747.53" style="stroke:#A0A0A0;stroke-width:7.34"/>
	<line x1="2550.12" y1="1747.53" x2="2550.12" y2="1747.53" style="stroke:#A0A0A0;stroke-width:7.34"/>
	<line x1="2550.12" y1="1747.53" x2="2550.12" y2="1747.53" style="stroke:#A0A0A0;stroke-width:7.34"/>
	<line x1="2550.12" y1="1747.53" x2="2550.12" y2="1747.53" style="stroke:#A0A0A0;stroke-width:7.34"/>
	<line x1="2550.12" y1="1747.53" x2="2550.12" y2="1747.53" style="stroke:#A0A0A0;stroke-width:7.34"/>
	<line x1="2550.12" y1="1747.53" x2="2551.48" y2="1747.53" style="stroke:#A0A0A0;stroke-width:7.34"/>
	<line x1="2571.65" y1="1747.53" x2="2574.49" y2="1747.53" style="stroke:#A0A0A0;stroke-width:7.34"/>
	<line x1="2594.67" y1="1747.53" x2="2597.64" y2="1747.53" style="stroke:#A0A0A0;stroke-width:7.34"/>
	<line x1="2617.68" y1="1747.53" x2="2620.65" y2="1747.53" style="stroke:#A0A0A0;stroke-width:7.34"/>
	<line x1="2640.82" y1="1747.53" x2="2643.67" y2="1747.53" style="stroke:#A0A0A0;stroke-width:7.34"/>
	<line x1="2663.84" y1="1747.53" x2="2666.69" y2="1747.53" style="stroke:#A0A0A0;stroke-width:7.34"/>
	<line x1="2686.86" y1="1747.53" x2="2689.71" y2="1747.53" style="stroke:#A0A0A0;stroke-width:7.34"/>
	<line x1="2709.88" y1="1747.53" x2="2712.72" y2="1747.53" style="stroke:#A0A0A0;stroke-width:7.34"/>
	<line x1="2732.89" y1="1747.53" x2="2735.74" y2="1747.53" style="stroke:#A0A0A0;stroke-width:7.34"/>
	<line x1="2755.91" y1="1747.53" x2="2758.76" y2="1747.53" style="stroke:#A0A0A0;stroke-width:7.34"/>
	<line x1="2778.93" y1="1747.53" x2="2781.78" y2="1747.53" style="stroke:#A0A0A0;stroke-width:7.34"/>
	<line x1="2801.95" y1="1747.53" x2="2804.79" y2="1747.53" style="stroke:#A0A0A0;stroke-width:7.34"/>
	<line x1="2824.97" y1="1747.53" x2="2827.81" y2="1747.53" style="stroke:#A0A0A0;stroke-width:7.34"/>
	<line x1="2847.98" y1="1747.53" x2="2848.97" y2="1747.53" style="stroke:#A0A0A0;stroke-width:7.34"/>
	<line x1="2848.97" y1="1747.53" x2="2848.97" y2="1747.53" style="stroke:#A0A0A0;stroke-width:7.34"/>
	<line x1="2848.97" y1="1747.53" x2="2848.97" y2="1747.53" style="stroke:#A0A0A0;stroke-width:7.34"/>
	<line x1="2848.97" y1="1747.53" x2="2848.97" y2="1747.53" style="stroke:#A0A0A0;stroke-width:7.34"/>
	<line x1="2848.97" y1="1747.53" x2="2848.97" y2="1747.53" style="stroke:#A0A0A0;stroke-width:7.34"/>
	<line x1="2848.97" y1="1747.53" x2="2850.95" y2="1747.53" style="stroke:#A0A0A0;stroke-width:7.34"/>
	<line x1="2871.00" y1="1747.53" x2="2873.85" y2="1747.53" style="stroke:#A0A0A0;stroke-width:7.34"/>
	<line x1="2873.85" y1="1747.53" x2="2873.85" y2="1747.53" style="stroke:#A0A0A0;stroke-width:7.34"/>
	<line x1="2873.85" y1="1747.53" x2="2873.85" y2="1747.53" style="stroke:#A0A0A0;stroke-width:7.34"/>
	<line x1="2873.85" y1="1747.53" x2="2873.85" y2="1747.53" style="stroke:#A0A0A0;stroke-width:7.34"/>
	<line x1="2873.85" y1="1747.53" x2="2873.85" y2="1747.53" style="stroke:#A0A0A0;stroke-width:7.34"/>
	<line x1="2873.85" y1="1747.53" x2="2873.97" y2="1747.53" style="stroke:#A0A0A0;stroke-width:7.34"/>
	<line x1="2894.14" y1="1747.53" x2="2896.99" y2="1747.53" style="stroke:#A0A0A0;stroke-width:7.34"/>
	<line x1="2917.16" y1="1747.53" x2="2920.01" y2="1747.53" style="stroke:#A0A0A0;stroke-width:7.34"/>
	<line x1="2940.18" y1="1747.53" x2="2943.02" y2="1747.53" style="stroke:#A0A0A0;stroke-width:7.34"/>
	<line x1="2963.19" y1="1747.53" x2="2966.04" y2="1747.53" style="stroke:#A0A0A0;stroke-width:7.34"/>
	<line x1="2986.21" y1="1747.53" x2="2989.06" y2="1747.53" style="stroke:#A0A0A0;stroke-width:7.34"/>
	<line x1="3009.23" y1="1747.53" x2="3012.07" y2="1747.53" style="stroke:#A0A0A0;stroke-width:7.34"/>
	<line x1="3032.25" y1="1747.53" x2="3035.09" y2="1747.53" style="stroke:#A0A0A0;stroke-width:7.34"/>
	<line x1="3055.26" y1="1747.53" x2="3058.11" y2="1747.53" style="stroke:#A0A0A0;stroke-width:7.34"/>
	<line x1="3078.28" y1="1747.53" x2="3081.13" y2="1747.53" style="stroke:#A0A0A0;stroke-width:7.34"/>
	<line x1="3101.30" y1="1747.53" x2="3104.27" y2="1747.53" style="stroke:#A0A0A0;stroke-width:7.34"/>
	<line x1="3124.44" y1="1747.53" x2="3127.29" y2="1747.53" style="stroke:#A0A0A0;stroke-width:7.34"/>
	<line x1="3147.46" y1="1747.53" x2="3147.83" y2="1747.53" style="stroke:#A0A0A0;stroke-width:7.34"/>
	<line x1="3147.83" y1="1747.53" x2="3147.83" y2="1747.53" style="stroke:#A0A0A0;stroke-width:7.34"/>
	<line x1="3147.83" y1="1747.53" x2="3147.83" y2="1747.53" style="stroke:#A0A0A0;stroke-width:7.34"/>
	<line x1="3147.83" y1="1747.53" x2="3147.83" y2="1747.53" style="stroke:#A0A0A0;stroke-width:7.34"/>
	<line x1="3147.83" y1="1747.53" x2="3147.83" y2="1747.53" style="stroke:#A0A0A0;stroke-width:7.34"/>
	<line x1="3147.83" y1="1747.53" x2="3150.30" y2="1747.53" style="stroke:#A0A0A0;stroke-width:7.34"/>
	<line x1="3170.47" y1="1747.53" x2="3172.83" y2="1747.53" style="stroke:#A0A0A0;stroke-width:7.34"/>
	<line x1="3172.83" y1="1747.53" x2="3172.83" y2="1747.53" style="stroke:#A0A0A0;stroke-width:7.34"/>
	<line x1="3172.83" y1="1747.53" x2="3172.83" y2="1747.53" style="stroke:#A0A0A0;stroke-width:7.34"/>
	<line x1="3172.83" y1="1747.53" x2="3172.83" y2="1747.53" style="stroke:#A0A0A0;stroke-width:7.34"/>
	<line x1="3172.83" y1="1747.53" x2="3172.83" y2="1747.53" style="stroke:#A0A0A0;stroke-width:7.34"/>
	<line x1="3172.83" y1="1747.53" x2="3173.32" y2="1747.53" style="stroke:#A0A0A0;stroke-width:7.34"/>
	<line x1="3193.49" y1="1747.53" x2="3196.34" y2="1747.53" style="stroke:#A0A0A0;stroke-width:7.34"/>
	<line x1="3216.51" y1="1747.53" x2="3219.36" y2="1747.53" style="stroke:#A0A0A0;stroke-width:7.34"/>
	<line x1="3239.53" y1="1747.53" x2="3242.37" y2="1747.53" style="stroke:#A0A0A0;stroke-width:7.34"/>
	<line x1="3262.55" y1="1747.53" x2="3265.39" y2="1747.53" style="stroke:#A0A0A0;stroke-width:7.34"/>
	<line x1="3285.56" y1="1747.53" x2="3288.41" y2="1747.53" style="stroke:#A0A0A0;stroke-width:7.34"/>
	<line x1="3308.58" y1="1747.53" x2="3311.43" y2="1747.53" style="stroke:#A0A0A0;stroke-width:7.34"/>
	<line x1="3331.60" y1="1747.53" x2="3334.44" y2="1747.53" style="stroke:#A0A0A0;stroke-width:7.34"/>
	<line x1="3354.61" y1="1747.53" x2="3357.59" y2="1747.53" style="stroke:#A0A0A0;stroke-width:7.34"/>
	<line x1="3377.76" y1="1747.53" x2="3380.60" y2="1747.53" style="stroke:#A0A0A0;stroke-width:7.34"/>
	<line x1="3400.77" y1="1747.53" x2="3403.62" y2="1747.53" style="stroke:#A0A0A0;stroke-width:7.34"/>
	<line x1="3423.79" y1="1747.53" x2="3426.64" y2="1747.53" style="stroke:#A0A0A0;stroke-width:7.34"/>
	<line x1="3446.81" y1="1747.53" x2="3446.81" y2="1747.53" style="stroke:#A0A0A0;stroke-width:7.34"/>
	<line x1="3446.81" y1="1747.53" x2="3446.81" y2="1747.53" style="stroke:#A0A0A0;stroke-width:7.34"/>
	<line x1="3446.81" y1="1747.53" x2="3446.81" y2="1747.53" style="stroke:#A0A0A0;stroke-width:7.34"/>
	<line x1="3446.81" y1="1747.53" x2="3446.81" y2="1747.53" style="stroke:#A0A0A0;stroke-width:7.34"/>
	<line x1="3446.81" y1="1747.53" x2="3446.81" y2="1747.53" style="stroke:#A0A0A0;stroke-width:7.34"/>
	<line x1="3446.81" y1="1747.53" x2="3449.66" y2="1747.53" style="stroke:#A0A0A0;stroke-width:7.34"/>
	<line x1="3469.83" y1="1747.53" x2="3471.68" y2="1747.53" style="stroke:#A0A0A0;stroke-width:7.34"/>
	<line x1="3471.68" y1="1747.53" x2="3471.68" y2="1747.53" style="stroke:#A0A0A0;stroke-width:7.34"/>
	<line x1="3471.68" y1="1747.53" x2="3471.68" y2="1747.53" style="stroke:#A0A0A0;stroke-width:7.34"/>
	<line x1="3471.68" y1="1747.53" x2="3471.68" y2="1747.53" style="stroke:#A0A0A0;stroke-width:7.34"/>
	<line x1="3471.68" y1="1747.53" x2="3471.68" y2="1747.53" style="stroke:#A0A0A0;stroke-width:7.34"/>
	<line x1="3471.68" y1="1747.53" x2="3472.67" y2="1747.53" style="stroke:#A0A0A0;stroke-width:7.34"/>
	<line x1="3492.84" y1="1747.53" x2="3495.69" y2="1747.53" style="stroke:#A0A0A0;stroke-width:7.34"/>
	<line x1="3515.86" y1="1747.53" x2="3518.71" y2="1747.53" style="stroke:#A0A0A0;stroke-width:7.34"/>
	<line x1="3538.88" y1="1747.53" x2="3541.72" y2="1747.53" style="stroke:#A0A0A0;stroke-width:7.34"/>
	<line x1="3561.90" y1="1747.53" x2="3564.74" y2="1747.53" style="stroke:#A0A0A0;stroke-width:7.34"/>
	<line x1="3584.91" y1="1747.53" x2="3587.76" y2="1747.53" style="stroke:#A0A0A0;stroke-width:7.34"/>
	<line x1="3607.93" y1="1747.53" x2="3610.90" y2="1747.53" style="stroke:#A0A0A0;stroke-width:7.34"/>
	<line x1="3631.07" y1="1747.53" x2="3633.92" y2="1747.53" style="stroke:#A0A0A0;stroke-width:7.34"/>
	<line x1="3654.09" y1="1747.53" x2="3656.94" y2="1747.53" style="stroke:#A0A0A0;stroke-width:7.34"/>
	<line x1="3677.11" y1="1747.53" x2="3679.95" y2="1747.53" style="stroke:#A0A0A0;stroke-width:7.34"/>
	<line x1="3700.13" y1="1747.53" x2="3702.97" y2="1747.53" style="stroke:#A0A0A0;stroke-width:7.34"/>
	<line x1="3723.14" y1="1747.53" x2="3725.99" y2="1747.53" style="stroke:#A0A0A0;stroke-width:7.34"/>
	<line x1="3746.16" y1="1747.53" x2="3749.01" y2="1747.53" style="stroke:#A0A0A0;stroke-width:7.34"/>
	<line x1="3769.18" y1="1747.53" x2="3770.66" y2="1747.53" style="stroke:#A0A0A0;stroke-width:7.34"/>
	<line x1="3770.66" y1="1747.53" x2="3770.66" y2="1747.53" style="stroke:#A0A0A0;stroke-width:7.34"/>
	<line x1="3770.66" y1="1747.53" x2="3770.66" y2="1747.53" style="stroke:#A0A0A0;stroke-width:7.34"/>
	<line x1="3770.66" y1="1747.53" x2="3770.66" y2="1747.53" style="stroke:#A0A0A0;stroke-width:7.34"/>
	<line x1="3770.66" y1="1747.53" x2="3770.66" y2="1747.53" style="stroke:#A0A0A0;stroke-width:7.34"/>
	<path d="" stroke-linejoin="round" style="fill:none;stroke:#A0A0A0;stroke-width:7.34"/>
	<path d=" M2226.26 1901.85 L2251.14 1901.73 L2276.01 1901.60 L2301.01 1901.48 L2325.88 1901.35 L2350.76 1901.23 L2375.75 1900.98 L2400.63 1900.74 L2425.50 1900.36 L2450.37 1900.12 L2475.37 1899.62 L2500.24 1899.25 L2525.12 1898.63 L2550.12 1898.01 L2574.99 1897.39 L2599.86 1896.53 L2624.74 1895.66 L2649.74 1894.55 L2674.61 1893.43 L2699.48 1892.07 L2724.48 1890.71 L2749.35 1889.10 L2774.23 1887.37 L2799.10 1885.51 L2824.10 1883.53 L2848.97 1881.43 L2873.85 1879.08 L2898.84 1876.73 L2923.72 1874.00 L2948.59 1871.28 L2973.47 1868.31 L2998.46 1865.09 L3023.34 1861.75 L3048.21 1858.04 L3073.21 1854.08 L3098.08 1849.87 L3122.95 1845.17 L3147.83 1840.10 L3172.83 1834.53 L3197.70 1828.46 L3222.57 1821.66 L3247.57 1814.11 L3272.45 1805.69 L3297.32 1796.41 L3322.19 1786.02 L3347.19 1774.51 L3372.06 1761.76 L3396.94 1747.53 L3421.93 1731.69 L3446.81 1713.99 L3471.68 1694.44 L3496.56 1672.53 L3521.55 1648.15 L3546.43 1621.05 L3571.30 1590.86 L3596.30 1557.07 L3621.17 1519.57 L3646.05 1477.87 L3670.92 1431.34 L3695.92 1379.48 L3720.79 1321.82 L3745.66 1257.71 L3770.66 1186.30" stroke-linejoin="round" style="fill:none;stroke:#1A476F;stroke-width:7.34"/>
	<path d=" M2226.26 1901.60 L2251.14 1901.48 L2276.01 1901.23 L2301.01 1901.11 L2325.88 1900.86 L2350.76 1900.61 L2375.75 1900.24 L2400.63 1899.87 L2425.50 1899.37 L2450.37 1898.88 L2475.37 1898.26 L2500.24 1897.52 L2525.12 1896.78 L2550.12 1895.79 L2574.99 1894.67 L2599.86 1893.43 L2624.74 1892.07 L2649.74 1890.46 L2674.61 1888.73 L2699.48 1886.75 L2724.48 1884.52 L2749.35 1882.17 L2774.23 1879.57 L2799.10 1876.73 L2824.10 1873.63 L2848.97 1870.42 L2873.85 1866.95 L2898.84 1863.24 L2923.72 1859.28 L2948.59 1855.07 L2973.47 1850.49 L2998.46 1845.67 L3023.34 1840.47 L3048.21 1834.90 L3073.21 1828.96 L3098.08 1822.40 L3122.95 1815.35 L3147.83 1807.67 L3172.83 1799.13 L3197.70 1789.85 L3222.57 1779.46 L3247.57 1767.95 L3272.45 1755.20 L3297.32 1740.97 L3322.19 1725.25 L3347.19 1707.68 L3372.06 1688.25 L3396.94 1666.59 L3421.93 1642.46 L3446.81 1615.48 L3471.68 1585.66 L3496.56 1552.37 L3521.55 1515.24 L3546.43 1473.91 L3571.30 1427.87 L3596.30 1376.64 L3621.17 1319.46 L3646.05 1255.85 L3670.92 1184.94 L3695.92 1106.11 L3720.79 1018.37 L3745.66 920.61 L3770.66 811.95" stroke-linejoin="round" style="fill:none;stroke:#FFD200;stroke-width:7.34"/>
	<path d=" M2226.26 1901.48 L2251.14 1901.35 L2276.01 1901.23 L2301.01 1900.98 L2325.88 1900.74 L2350.76 1900.49 L2375.75 1900.12 L2400.63 1899.62 L2425.50 1899.25 L2450.37 1898.63 L2475.37 1898.01 L2500.24 1897.27 L2525.12 1896.40 L2550.12 1895.29 L2574.99 1894.18 L2599.86 1892.82 L2624.74 1891.33 L2649.74 1889.72 L2674.61 1887.74 L2699.48 1885.64 L2724.48 1883.29 L2749.35 1880.69 L2774.23 1877.96 L2799.10 1874.87 L2824.10 1871.65 L2848.97 1868.19 L2873.85 1864.48 L2898.84 1860.52 L2923.72 1856.18 L2948.59 1851.73 L2973.47 1846.78 L2998.46 1841.71 L3023.34 1836.14 L3048.21 1830.20 L3073.21 1823.76 L3098.08 1816.71 L3122.95 1809.16 L3147.83 1800.87 L3172.83 1791.83 L3197.70 1781.81 L3222.57 1770.67 L3247.57 1758.42 L3272.45 1744.81 L3297.32 1729.58 L3322.19 1712.63 L3347.19 1693.94 L3372.06 1673.03 L3396.94 1649.89 L3421.93 1624.02 L3446.81 1595.19 L3471.68 1563.26 L3496.56 1527.49 L3521.55 1487.77 L3546.43 1443.59 L3571.30 1394.21 L3596.30 1339.39 L3621.17 1278.25 L3646.05 1210.07 L3670.92 1134.20 L3695.92 1049.80 L3720.79 955.75 L3745.66 851.18 L3770.66 734.73" stroke-linejoin="round" style="fill:none;stroke:#008000;stroke-width:7.34"/>
	<path d=" M2226.26 1901.60 L2251.14 1901.48 L2276.01 1901.23 L2301.01 1901.11 L2325.88 1900.86 L2350.76 1900.61 L2375.75 1900.24 L2400.63 1899.87 L2425.50 1899.37 L2450.37 1898.88 L2475.37 1898.26 L2500.24 1897.64 L2525.12 1896.78 L2550.12 1895.79 L2574.99 1894.80 L2599.86 1893.56 L2624.74 1892.07 L2649.74 1890.59 L2674.61 1888.73 L2699.48 1886.75 L2724.48 1884.65 L2749.35 1882.17 L2774.23 1879.57 L2799.10 1876.85 L2824.10 1873.76 L2848.97 1870.54 L2873.85 1867.07 L2898.84 1863.36 L2923.72 1859.40 L2948.59 1855.19 L2973.47 1850.74 L2998.46 1845.91 L3023.34 1840.72 L3048.21 1835.15 L3073.21 1829.21 L3098.08 1822.65 L3122.95 1815.59 L3147.83 1807.92 L3172.83 1799.50 L3197.70 1790.22 L3222.57 1779.83 L3247.57 1768.44 L3272.45 1755.70 L3297.32 1741.59 L3322.19 1725.87 L3347.19 1708.42 L3372.06 1688.99 L3396.94 1667.34 L3421.93 1643.33 L3446.81 1616.60 L3471.68 1586.77 L3496.56 1553.61 L3521.55 1516.60 L3546.43 1475.39 L3571.30 1429.60 L3596.30 1378.49 L3621.17 1321.57 L3646.05 1258.21 L3670.92 1187.54 L3695.92 1108.96 L3720.79 1021.46 L3745.66 924.19 L3770.66 815.91" stroke-linejoin="round" style="fill:none;stroke:#FF0000;stroke-width:7.34"/>
	<path d=" M2226.26 1901.60 L2251.14 1901.48 L2276.01 1901.35 L2301.01 1901.23 L2325.88 1900.98 L2350.76 1900.74 L2375.75 1900.36 L2400.63 1900.12 L2425.50 1899.62 L2450.37 1899.13 L2475.37 1898.63 L2500.24 1898.01 L2525.12 1897.15 L2550.12 1896.28 L2574.99 1895.29 L2599.86 1894.18 L2624.74 1892.94 L2649.74 1891.45 L2674.61 1889.85 L2699.48 1887.99 L2724.48 1886.01 L2749.35 1883.78 L2774.23 1881.43 L2799.10 1878.83 L2824.10 1875.98 L2848.97 1873.01 L2873.85 1869.80 L2898.84 1866.46 L2923.72 1862.74 L2948.59 1858.91 L2973.47 1854.70 L2998.46 1850.24 L3023.34 1845.54 L3048.21 1840.47 L3073.21 1834.90 L3098.08 1828.96 L3122.95 1822.40 L3147.83 1815.35 L3172.83 1807.55 L3197.70 1799.01 L3222.57 1789.48 L3247.57 1778.96 L3272.45 1767.21 L3297.32 1754.21 L3322.19 1739.73 L3347.19 1723.64 L3372.06 1705.70 L3396.94 1685.78 L3421.93 1663.62 L3446.81 1639.00 L3471.68 1611.52 L3496.56 1580.96 L3521.55 1546.80 L3546.43 1508.93 L3571.30 1466.61 L3596.30 1419.46 L3621.17 1366.99 L3646.05 1308.57 L3670.92 1243.60 L3695.92 1171.08 L3720.79 1090.52 L3745.66 1000.67 L3770.66 900.93" stroke-linejoin="round" style="fill:none;stroke:#FF7F00;stroke-width:7.34"/>
	<line x1="451.32" y1="1956.18" x2="451.32" y2="402.82" style="stroke:#000000;stroke-width:4.90"/>
	<line x1="451.32" y1="1902.22" x2="417.29" y2="1902.22" style="stroke:#000000;stroke-width:4.90"/>
	<text x="400.21" y="1932.01" style="font-family:'Helvetica';font-size:85.02px;fill:#000000" text-anchor="end">0</text>
	<line x1="451.32" y1="1540.86" x2="417.29" y2="1540.86" style="stroke:#000000;stroke-width:4.90"/>
	<text x="400.21" y="1570.65" style="font-family:'Helvetica';font-size:85.02px;fill:#000000" text-anchor="end">.0005</text>
	<line x1="451.32" y1="1179.50" x2="417.29" y2="1179.50" style="stroke:#000000;stroke-width:4.90"/>
	<text x="400.21" y="1209.29" style="font-family:'Helvetica';font-size:85.02px;fill:#000000" text-anchor="end">.001</text>
	<line x1="451.32" y1="818.01" x2="417.29" y2="818.01" style="stroke:#000000;stroke-width:4.90"/>
	<text x="400.21" y="847.80" style="font-family:'Helvetica';font-size:85.02px;fill:#000000" text-anchor="end">.0015</text>
	<line x1="451.32" y1="456.65" x2="417.29" y2="456.65" style="stroke:#000000;stroke-width:4.90"/>
	<text x="400.21" y="486.44" style="font-family:'Helvetica';font-size:85.02px;fill:#000000" text-anchor="end">.002</text>
	<line x1="451.32" y1="1956.18" x2="2103.38" y2="1956.18" style="stroke:#000000;stroke-width:4.90"/>
	<line x1="554.89" y1="1956.18" x2="554.89" y2="1973.13" style="stroke:#000000;stroke-width:4.90"/>
	<line x1="679.51" y1="1956.18" x2="679.51" y2="1973.13" style="stroke:#000000;stroke-width:4.90"/>
	<line x1="804.00" y1="1956.18" x2="804.00" y2="1973.13" style="stroke:#000000;stroke-width:4.90"/>
	<line x1="928.62" y1="1956.18" x2="928.62" y2="1973.13" style="stroke:#000000;stroke-width:4.90"/>
	<line x1="1053.11" y1="1956.18" x2="1053.11" y2="1973.13" style="stroke:#000000;stroke-width:4.90"/>
	<line x1="1177.61" y1="1956.18" x2="1177.61" y2="1973.13" style="stroke:#000000;stroke-width:4.90"/>
	<line x1="1302.22" y1="1956.18" x2="1302.22" y2="1973.13" style="stroke:#000000;stroke-width:4.90"/>
	<line x1="1426.71" y1="1956.18" x2="1426.71" y2="1973.13" style="stroke:#000000;stroke-width:4.90"/>
	<line x1="1551.33" y1="1956.18" x2="1551.33" y2="1973.13" style="stroke:#000000;stroke-width:4.90"/>
	<line x1="1675.82" y1="1956.18" x2="1675.82" y2="1973.13" style="stroke:#000000;stroke-width:4.90"/>
	<line x1="1800.44" y1="1956.18" x2="1800.44" y2="1973.13" style="stroke:#000000;stroke-width:4.90"/>
	<line x1="1924.93" y1="1956.18" x2="1924.93" y2="1973.13" style="stroke:#000000;stroke-width:4.90"/>
	<line x1="2049.42" y1="1956.18" x2="2049.42" y2="1973.13" style="stroke:#000000;stroke-width:4.90"/>
	<line x1="554.89" y1="1956.18" x2="554.89" y2="1990.09" style="stroke:#000000;stroke-width:4.90"/>
	<text x="554.89" y="2066.62" style="font-family:'Helvetica';font-size:85.02px;fill:#000000" text-anchor="middle">20</text>
	<line x1="1053.11" y1="1956.18" x2="1053.11" y2="1990.09" style="stroke:#000000;stroke-width:4.90"/>
	<text x="1053.11" y="2066.62" style="font-family:'Helvetica';font-size:85.02px;fill:#000000" text-anchor="middle">40</text>
	<line x1="1551.33" y1="1956.18" x2="1551.33" y2="1990.09" style="stroke:#000000;stroke-width:4.90"/>
	<text x="1551.33" y="2066.62" style="font-family:'Helvetica';font-size:85.02px;fill:#000000" text-anchor="middle">60</text>
	<line x1="2049.42" y1="1956.18" x2="2049.42" y2="1990.09" style="stroke:#000000;stroke-width:4.90"/>
	<text x="2049.42" y="2066.62" style="font-family:'Helvetica';font-size:85.02px;fill:#000000" text-anchor="middle">80</text>
	<line x1="2172.43" y1="1956.18" x2="3824.49" y2="1956.18" style="stroke:#000000;stroke-width:4.90"/>
	<line x1="2276.13" y1="1956.18" x2="2276.13" y2="1973.13" style="stroke:#000000;stroke-width:4.90"/>
	<line x1="2400.63" y1="1956.18" x2="2400.63" y2="1973.13" style="stroke:#000000;stroke-width:4.90"/>
	<line x1="2525.24" y1="1956.18" x2="2525.24" y2="1973.13" style="stroke:#000000;stroke-width:4.90"/>
	<line x1="2649.74" y1="1956.18" x2="2649.74" y2="1973.13" style="stroke:#000000;stroke-width:4.90"/>
	<line x1="2774.35" y1="1956.18" x2="2774.35" y2="1973.13" style="stroke:#000000;stroke-width:4.90"/>
	<line x1="2898.84" y1="1956.18" x2="2898.84" y2="1973.13" style="stroke:#000000;stroke-width:4.90"/>
	<line x1="3023.34" y1="1956.18" x2="3023.34" y2="1973.13" style="stroke:#000000;stroke-width:4.90"/>
	<line x1="3147.95" y1="1956.18" x2="3147.95" y2="1973.13" style="stroke:#000000;stroke-width:4.90"/>
	<line x1="3272.45" y1="1956.18" x2="3272.45" y2="1973.13" style="stroke:#000000;stroke-width:4.90"/>
	<line x1="3397.06" y1="1956.18" x2="3397.06" y2="1973.13" style="stroke:#000000;stroke-width:4.90"/>
	<line x1="3521.55" y1="1956.18" x2="3521.55" y2="1973.13" style="stroke:#000000;stroke-width:4.90"/>
	<line x1="3646.17" y1="1956.18" x2="3646.17" y2="1973.13" style="stroke:#000000;stroke-width:4.90"/>
	<line x1="3770.66" y1="1956.18" x2="3770.66" y2="1973.13" style="stroke:#000000;stroke-width:4.90"/>
	<line x1="2276.13" y1="1956.18" x2="2276.13" y2="1990.09" style="stroke:#000000;stroke-width:4.90"/>
	<text x="2276.13" y="2066.62" style="font-family:'Helvetica';font-size:85.02px;fill:#000000" text-anchor="middle">20</text>
	<line x1="2774.35" y1="1956.18" x2="2774.35" y2="1990.09" style="stroke:#000000;stroke-width:4.90"/>
	<text x="2774.35" y="2066.62" style="font-family:'Helvetica';font-size:85.02px;fill:#000000" text-anchor="middle">40</text>
	<line x1="3272.45" y1="1956.18" x2="3272.45" y2="1990.09" style="stroke:#000000;stroke-width:4.90"/>
	<text x="3272.45" y="2066.62" style="font-family:'Helvetica';font-size:85.02px;fill:#000000" text-anchor="middle">60</text>
	<line x1="3770.66" y1="1956.18" x2="3770.66" y2="1990.09" style="stroke:#000000;stroke-width:4.90"/>
	<text x="3770.66" y="2066.62" style="font-family:'Helvetica';font-size:85.02px;fill:#000000" text-anchor="middle">80</text>
	<rect x="451.32" y="279.93" width="1652.06" height="122.89" style="fill:#D9E6EB"/>
	<rect x="453.76" y="282.38" width="1647.17" height="117.99" style="fill:none;stroke:#D9E6EB;stroke-width:4.90"/>
	<text x="1277.35" y="359.96" style="font-family:'Helvetica';font-size:93.56px;fill:#000000" text-anchor="middle">Female</text>
	<rect x="2172.43" y="279.93" width="1652.06" height="122.89" style="fill:#D9E6EB"/>
	<rect x="2174.88" y="282.38" width="1647.17" height="117.99" style="fill:none;stroke:#D9E6EB;stroke-width:4.90"/>
	<text x="2998.46" y="359.96" style="font-family:'Helvetica';font-size:93.56px;fill:#000000" text-anchor="middle">Male</text>
	<rect x="838.78" y="2278.31" width="2282.32" height="466.30" style="fill:#FFFFFF"/>
	<rect x="841.66" y="2281.19" width="2276.56" height="460.54" style="fill:none;stroke:#000000;stroke-width:5.76"/>
	<line x1="882.09" y1="2371.50" x2="1256.43" y2="2371.50" style="stroke:#1A476F;stroke-width:8.64"/>
	<line x1="882.09" y1="2511.46" x2="1256.43" y2="2511.46" style="stroke:#FFD200;stroke-width:8.64"/>
	<line x1="882.09" y1="2651.43" x2="1256.43" y2="2651.43" style="stroke:#008000;stroke-width:8.64"/>
	<line x1="1724.70" y1="2371.50" x2="2099.17" y2="2371.50" style="stroke:#FF0000;stroke-width:8.64"/>
	<line x1="1724.70" y1="2511.46" x2="2099.17" y2="2511.46" style="stroke:#FF7F00;stroke-width:8.64"/>
	<line x1="1724.70" y1="2651.43" x2="1727.55" y2="2651.43" style="stroke:#A0A0A0;stroke-width:8.64"/>
	<line x1="1747.72" y1="2651.43" x2="1750.57" y2="2651.43" style="stroke:#A0A0A0;stroke-width:8.64"/>
	<line x1="1770.74" y1="2651.43" x2="1773.71" y2="2651.43" style="stroke:#A0A0A0;stroke-width:8.64"/>
	<line x1="1793.88" y1="2651.43" x2="1796.73" y2="2651.43" style="stroke:#A0A0A0;stroke-width:8.64"/>
	<line x1="1816.90" y1="2651.43" x2="1819.74" y2="2651.43" style="stroke:#A0A0A0;stroke-width:8.64"/>
	<line x1="1839.91" y1="2651.43" x2="1842.76" y2="2651.43" style="stroke:#A0A0A0;stroke-width:8.64"/>
	<line x1="1862.93" y1="2651.43" x2="1865.78" y2="2651.43" style="stroke:#A0A0A0;stroke-width:8.64"/>
	<line x1="1885.95" y1="2651.43" x2="1888.80" y2="2651.43" style="stroke:#A0A0A0;stroke-width:8.64"/>
	<line x1="1908.97" y1="2651.43" x2="1911.81" y2="2651.43" style="stroke:#A0A0A0;stroke-width:8.64"/>
	<line x1="1931.98" y1="2651.43" x2="1934.83" y2="2651.43" style="stroke:#A0A0A0;stroke-width:8.64"/>
	<line x1="1955.00" y1="2651.43" x2="1957.85" y2="2651.43" style="stroke:#A0A0A0;stroke-width:8.64"/>
	<line x1="1978.02" y1="2651.43" x2="1980.87" y2="2651.43" style="stroke:#A0A0A0;stroke-width:8.64"/>
	<line x1="2001.04" y1="2651.43" x2="2003.88" y2="2651.43" style="stroke:#A0A0A0;stroke-width:8.64"/>
	<line x1="2024.06" y1="2651.43" x2="2027.03" y2="2651.43" style="stroke:#A0A0A0;stroke-width:8.64"/>
	<line x1="2047.20" y1="2651.43" x2="2050.04" y2="2651.43" style="stroke:#A0A0A0;stroke-width:8.64"/>
	<line x1="2070.21" y1="2651.43" x2="2073.06" y2="2651.43" style="stroke:#A0A0A0;stroke-width:8.64"/>
	<line x1="2093.23" y1="2651.43" x2="2096.08" y2="2651.43" style="stroke:#A0A0A0;stroke-width:8.64"/>
	<text x="1316.45" y="2406.52" style="font-family:'Helvetica';font-size:99.99px;fill:#000000">White</text>
	<text x="1316.45" y="2546.49" style="font-family:'Helvetica';font-size:99.99px;fill:#000000">Asian</text>
	<text x="1316.45" y="2686.46" style="font-family:'Helvetica';font-size:99.99px;fill:#000000">Black</text>
	<text x="2159.07" y="2406.52" style="font-family:'Helvetica';font-size:99.99px;fill:#000000">Mixed</text>
	<text x="2159.07" y="2546.49" style="font-family:'Helvetica';font-size:99.99px;fill:#000000">Other</text>
	<text x="2159.07" y="2686.46" style="font-family:'Helvetica';font-size:99.99px;fill:#000000">Ref (Age 65, White)</text>
	<text x="1980.00" y="2213.60" style="font-family:'Helvetica';font-size:99.99px;fill:#000000" text-anchor="middle">Age (years)</text>
	<text x="1980.00" y="195.01" style="font-family:'Helvetica';font-size:110.01px;fill:#000000" text-anchor="middle">No comorbidities</text>
</svg>
