<?xml version="1.0" encoding="UTF-8" standalone="no"?>
<!-- This is a Stata 16.1 generated SVG file (http://www.stata.com) -->

<svg version="1.1" width="1600px" height="1164px" viewBox="0 0 3960 2880" xmlns="http://www.w3.org/2000/svg" xmlns:xlink="http://www.w3.org/1999/xlink">
	<desc>Stata Graph - Graph</desc>
	<rect x="0" y="0" width="3960" height="2880" style="fill:#EAF2F3;stroke:none"/>
	<rect x="0.00" y="0.00" width="3959.88" height="2880.00" style="fill:#EAF2F3"/>
	<rect x="2.88" y="2.88" width="3954.12" height="2874.24" style="fill:none;stroke:#EAF2F3;stroke-width:5.76"/>
	<rect x="401.69" y="258.27" width="1676.81" height="1837.87" style="fill:#FFFFFF"/>
	<rect x="404.14" y="260.72" width="1671.92" height="1832.97" style="fill:none;stroke:#FFFFFF;stroke-width:4.90"/>
	<line x1="401.69" y1="2042.31" x2="2078.51" y2="2042.31" style="stroke:#EAF2F3;stroke-width:7.34"/>
	<line x1="401.69" y1="1850.00" x2="2078.51" y2="1850.00" style="stroke:#EAF2F3;stroke-width:7.34"/>
	<line x1="401.69" y1="1657.81" x2="2078.51" y2="1657.81" style="stroke:#EAF2F3;stroke-width:7.34"/>
	<line x1="401.69" y1="1465.49" x2="2078.51" y2="1465.49" style="stroke:#EAF2F3;stroke-width:7.34"/>
	<line x1="401.69" y1="1273.30" x2="2078.51" y2="1273.30" style="stroke:#EAF2F3;stroke-width:7.34"/>
	<line x1="401.69" y1="1081.11" x2="2078.51" y2="1081.11" style="stroke:#EAF2F3;stroke-width:7.34"/>
	<line x1="401.69" y1="888.80" x2="2078.51" y2="888.80" style="stroke:#EAF2F3;stroke-width:7.34"/>
	<line x1="401.69" y1="696.61" x2="2078.51" y2="696.61" style="stroke:#EAF2F3;stroke-width:7.34"/>
	<line x1="401.69" y1="504.30" x2="2078.51" y2="504.30" style="stroke:#EAF2F3;stroke-width:7.34"/>
	<rect x="2147.68" y="258.27" width="1676.81" height="1837.87" style="fill:#FFFFFF"/>
	<rect x="2150.13" y="260.72" width="1671.92" height="1832.97" style="fill:none;stroke:#FFFFFF;stroke-width:4.90"/>
	<line x1="2147.68" y1="2042.31" x2="3824.49" y2="2042.31" style="stroke:#EAF2F3;stroke-width:7.34"/>
	<line x1="2147.68" y1="1850.00" x2="3824.49" y2="1850.00" style="stroke:#EAF2F3;stroke-width:7.34"/>
	<line x1="2147.68" y1="1657.81" x2="3824.49" y2="1657.81" style="stroke:#EAF2F3;stroke-width:7.34"/>
	<line x1="2147.68" y1="1465.49" x2="3824.49" y2="1465.49" style="stroke:#EAF2F3;stroke-width:7.34"/>
	<line x1="2147.68" y1="1273.30" x2="3824.49" y2="1273.30" style="stroke:#EAF2F3;stroke-width:7.34"/>
	<line x1="2147.68" y1="1081.11" x2="3824.49" y2="1081.11" style="stroke:#EAF2F3;stroke-width:7.34"/>
	<line x1="2147.68" y1="888.80" x2="3824.49" y2="888.80" style="stroke:#EAF2F3;stroke-width:7.34"/>
	<line x1="2147.68" y1="696.61" x2="3824.49" y2="696.61" style="stroke:#EAF2F3;stroke-width:7.34"/>
	<line x1="2147.68" y1="504.30" x2="3824.49" y2="504.30" style="stroke:#EAF2F3;stroke-width:7.34"/>
	<defs>
		<path id="path_IwMgrfOc" d="M455.52 2032.66 L455.52 2032.66 L480.89 2031.79 L506.14 2030.68 L531.51 2029.56 L556.75 2028.33 L582.12 2026.96 L607.37 2025.48 L632.73 2023.87 L657.98 2022.14 L683.35 2020.28 L708.59 2018.30 L733.96 2016.20 L759.21 2013.97 L784.58 2011.62 L809.82 2009.27 L835.19 2006.67 L860.43 2004.19 L885.80 2001.60 L911.05 1999.00 L936.42 1996.40 L961.66 1993.80 L987.03 1991.32 L1012.27 1988.85 L1037.64 1986.62 L1062.89 1984.52 L1088.26 1982.41 L1113.50 1980.56 L1138.87 1978.82 L1164.24 1977.09 L1189.48 1975.48 L1214.85 1973.87 L1240.10 1972.39 L1265.47 1970.90 L1290.71 1969.42 L1316.08 1967.93 L1341.33 1966.33 L1366.69 1964.59 L1391.94 1962.74 L1417.31 1960.63 L1442.55 1958.28 L1467.92 1955.68 L1493.17 1952.84 L1518.54 1949.49 L1543.78 1945.91 L1569.15 1941.95 L1594.39 1937.49 L1619.76 1932.66 L1645.01 1927.34 L1670.38 1921.65 L1695.62 1915.34 L1720.99 1908.41 L1746.24 1900.98 L1771.61 1892.82 L1796.85 1884.03 L1822.22 1874.62 L1847.46 1864.35 L1872.83 1853.34 L1898.20 1841.33 L1923.45 1828.46 L1948.82 1814.73 L1974.06 1799.88 L1999.43 1784.04 L2024.67 1766.96 L2024.67 1729.96 L1999.43 1749.38 L1974.06 1767.58 L1948.82 1784.41 L1923.45 1800.12 L1898.20 1814.73 L1872.83 1828.22 L1847.46 1840.72 L1822.22 1852.35 L1796.85 1863.11 L1771.61 1873.01 L1746.24 1882.17 L1720.99 1890.59 L1695.62 1898.38 L1670.38 1905.56 L1645.01 1912.12 L1619.76 1918.06 L1594.39 1923.63 L1569.15 1928.58 L1543.78 1933.16 L1518.54 1937.24 L1493.17 1941.08 L1467.92 1944.42 L1442.55 1947.39 L1417.31 1949.99 L1391.94 1952.34 L1366.69 1954.44 L1341.33 1956.30 L1316.08 1958.16 L1290.71 1959.77 L1265.47 1961.38 L1240.10 1962.98 L1214.85 1964.59 L1189.48 1966.33 L1164.24 1968.06 L1138.87 1969.79 L1113.50 1971.77 L1088.26 1973.87 L1062.89 1976.10 L1037.64 1978.58 L1012.27 1981.18 L987.03 1983.90 L961.66 1986.87 L936.42 1989.71 L911.05 1992.68 L885.80 1995.65 L860.43 1998.62 L835.19 2001.47 L809.82 2004.19 L784.58 2006.79 L759.21 2009.27 L733.96 2011.74 L708.59 2013.97 L683.35 2016.07 L657.98 2018.05 L632.73 2019.79 L607.37 2021.52 L582.12 2023.13 L556.75 2024.61 L531.51 2025.97 L506.14 2027.21 L480.89 2028.33 L455.52 2029.44 L455.52 2032.66 Z" stroke-linejoin="round"/>
	</defs>
	<defs>
		<clipPath id="clipPath_tzxGnCzF">
			<use xlink:href="#path_IwMgrfOc"/>
		</clipPath>
	</defs>
	<use xlink:href="#path_IwMgrfOc" style="stroke:none;fill:#E6E6E6"/>
	<use xlink:href="#path_IwMgrfOc" style="fill:none;stroke:#E0E0E0;stroke-width:14.69" clip-path="url(#clipPath_tzxGnCzF)"/>
	<defs>
		<path id="path_mlyxnxJt" d="M455.52 2025.36 L455.52 2025.36 L480.89 2023.75 L506.14 2021.89 L531.51 2019.91 L556.75 2017.68 L582.12 2015.33 L607.37 2012.73 L632.73 2009.89 L657.98 2006.92 L683.35 2003.58 L708.59 2000.11 L733.96 1996.52 L759.21 1992.56 L784.58 1988.48 L809.82 1984.27 L835.19 1979.94 L860.43 1975.48 L885.80 1970.90 L911.05 1966.45 L936.42 1961.87 L961.66 1957.29 L987.03 1952.96 L1012.27 1948.75 L1037.64 1944.79 L1062.89 1940.96 L1088.26 1937.49 L1113.50 1934.15 L1138.87 1930.93 L1164.24 1928.09 L1189.48 1925.24 L1214.85 1922.52 L1240.10 1919.92 L1265.47 1917.19 L1290.71 1914.60 L1316.08 1911.87 L1341.33 1909.03 L1366.69 1906.06 L1391.94 1902.72 L1417.31 1899.13 L1442.55 1895.04 L1467.92 1890.46 L1493.17 1885.27 L1518.54 1879.57 L1543.78 1873.14 L1569.15 1866.08 L1594.39 1858.41 L1619.76 1849.87 L1645.01 1840.59 L1670.38 1830.32 L1695.62 1819.31 L1720.99 1807.18 L1746.24 1794.06 L1771.61 1779.83 L1796.85 1764.48 L1822.22 1747.78 L1847.46 1729.71 L1872.83 1710.28 L1898.20 1689.36 L1923.45 1666.72 L1948.82 1642.46 L1974.06 1616.47 L1999.43 1588.50 L2024.67 1558.68 L2024.67 1484.18 L1999.43 1518.95 L1974.06 1551.25 L1948.82 1581.33 L1923.45 1609.42 L1898.20 1635.41 L1872.83 1659.54 L1847.46 1681.94 L1822.22 1702.73 L1796.85 1721.79 L1771.61 1739.61 L1746.24 1755.94 L1720.99 1770.92 L1695.62 1784.90 L1670.38 1797.65 L1645.01 1809.28 L1619.76 1820.05 L1594.39 1829.82 L1569.15 1838.86 L1543.78 1846.90 L1518.54 1854.33 L1493.17 1861.01 L1467.92 1866.95 L1442.55 1872.27 L1417.31 1876.97 L1391.94 1881.18 L1366.69 1884.90 L1341.33 1888.36 L1316.08 1891.45 L1290.71 1894.42 L1265.47 1897.39 L1240.10 1900.12 L1214.85 1903.09 L1189.48 1906.06 L1164.24 1909.15 L1138.87 1912.37 L1113.50 1915.96 L1088.26 1919.67 L1062.89 1923.75 L1037.64 1928.09 L1012.27 1932.79 L987.03 1937.74 L961.66 1942.81 L936.42 1948.13 L911.05 1953.45 L885.80 1958.78 L860.43 1963.97 L835.19 1969.05 L809.82 1974.00 L784.58 1978.70 L759.21 1983.28 L733.96 1987.49 L708.59 1991.57 L683.35 1995.41 L657.98 1998.87 L632.73 2002.21 L607.37 2005.31 L582.12 2008.15 L556.75 2010.75 L531.51 2013.23 L506.14 2015.46 L480.89 2017.44 L455.52 2019.42 L455.52 2025.36 Z" stroke-linejoin="round"/>
	</defs>
	<defs>
		<clipPath id="clipPath_LmEaYsws">
			<use xlink:href="#path_mlyxnxJt"/>
		</clipPath>
	</defs>
	<use xlink:href="#path_mlyxnxJt" style="stroke:none;fill:#E6E6E6"/>
	<use xlink:href="#path_mlyxnxJt" style="fill:none;stroke:#E0E0E0;stroke-width:14.69" clip-path="url(#clipPath_LmEaYsws)"/>
	<defs>
		<path id="path_MVjmUuCO" d="M455.52 2031.30 L455.52 2031.30 L480.89 2030.18 L506.14 2029.07 L531.51 2027.71 L556.75 2026.35 L582.12 2024.74 L607.37 2023.13 L632.73 2021.27 L657.98 2019.29 L683.35 2017.19 L708.59 2014.84 L733.96 2012.49 L759.21 2010.01 L784.58 2007.29 L809.82 2004.57 L835.19 2001.72 L860.43 1998.75 L885.80 1995.90 L911.05 1992.81 L936.42 1989.96 L961.66 1986.99 L987.03 1984.15 L1012.27 1981.42 L1037.64 1978.82 L1062.89 1976.35 L1088.26 1974.00 L1113.50 1971.89 L1138.87 1969.91 L1164.24 1967.93 L1189.48 1966.08 L1214.85 1964.35 L1240.10 1962.61 L1265.47 1961.00 L1290.71 1959.27 L1316.08 1957.54 L1341.33 1955.68 L1366.69 1953.70 L1391.94 1951.60 L1417.31 1949.25 L1442.55 1946.65 L1467.92 1943.68 L1493.17 1940.34 L1518.54 1936.62 L1543.78 1932.54 L1569.15 1927.96 L1594.39 1922.89 L1619.76 1917.44 L1645.01 1911.38 L1670.38 1904.82 L1695.62 1897.64 L1720.99 1889.85 L1746.24 1881.31 L1771.61 1872.15 L1796.85 1862.12 L1822.22 1851.36 L1847.46 1839.72 L1872.83 1827.10 L1898.20 1813.49 L1923.45 1798.89 L1948.82 1783.17 L1974.06 1766.34 L1999.43 1748.27 L2024.67 1728.84 L2024.67 1680.45 L1999.43 1702.98 L1974.06 1724.02 L1948.82 1743.57 L1923.45 1761.76 L1898.20 1778.59 L1872.83 1794.31 L1847.46 1808.79 L1822.22 1822.28 L1796.85 1834.65 L1771.61 1846.16 L1746.24 1856.80 L1720.99 1866.58 L1695.62 1875.61 L1670.38 1883.91 L1645.01 1891.45 L1619.76 1898.38 L1594.39 1904.82 L1569.15 1910.64 L1543.78 1915.96 L1518.54 1920.66 L1493.17 1924.99 L1467.92 1928.95 L1442.55 1932.29 L1417.31 1935.39 L1391.94 1938.11 L1366.69 1940.58 L1341.33 1942.81 L1316.08 1944.79 L1290.71 1946.77 L1265.47 1948.63 L1240.10 1950.48 L1214.85 1952.34 L1189.48 1954.32 L1164.24 1956.30 L1138.87 1958.40 L1113.50 1960.76 L1088.26 1963.23 L1062.89 1965.83 L1037.64 1968.68 L1012.27 1971.65 L987.03 1974.86 L961.66 1978.21 L936.42 1981.55 L911.05 1985.01 L885.80 1988.48 L860.43 1991.82 L835.19 1995.04 L809.82 1998.25 L784.58 2001.35 L759.21 2004.19 L733.96 2006.92 L708.59 2009.52 L683.35 2011.99 L657.98 2014.22 L632.73 2016.45 L607.37 2018.43 L582.12 2020.16 L556.75 2021.89 L531.51 2023.50 L506.14 2024.86 L480.89 2026.22 L455.52 2027.46 L455.52 2031.30 Z" stroke-linejoin="round"/>
	</defs>
	<defs>
		<clipPath id="clipPath_Apnideqq">
			<use xlink:href="#path_MVjmUuCO"/>
		</clipPath>
	</defs>
	<use xlink:href="#path_MVjmUuCO" style="stroke:none;fill:#E6E6E6"/>
	<use xlink:href="#path_MVjmUuCO" style="fill:none;stroke:#E0E0E0;stroke-width:14.69" clip-path="url(#clipPath_Apnideqq)"/>
	<defs>
		<path id="path_LNPakoCS" d="M455.52 2029.32 L455.52 2029.32 L480.89 2027.95 L506.14 2026.59 L531.51 2025.11 L556.75 2023.38 L582.12 2021.52 L607.37 2019.54 L632.73 2017.44 L657.98 2015.08 L683.35 2012.61 L708.59 2010.01 L733.96 2007.16 L759.21 2004.19 L784.58 2001.10 L809.82 1997.88 L835.19 1994.54 L860.43 1991.08 L885.80 1987.73 L911.05 1984.15 L936.42 1980.68 L961.66 1977.22 L987.03 1973.87 L1012.27 1970.66 L1037.64 1967.56 L1062.89 1964.72 L1088.26 1961.99 L1113.50 1959.52 L1138.87 1957.04 L1164.24 1954.82 L1189.48 1952.71 L1214.85 1950.61 L1240.10 1948.63 L1265.47 1946.65 L1290.71 1944.67 L1316.08 1942.69 L1341.33 1940.46 L1366.69 1938.23 L1391.94 1935.76 L1417.31 1932.91 L1442.55 1929.82 L1467.92 1926.35 L1493.17 1922.39 L1518.54 1918.06 L1543.78 1913.11 L1569.15 1907.79 L1594.39 1901.85 L1619.76 1895.41 L1645.01 1888.36 L1670.38 1880.56 L1695.62 1872.15 L1720.99 1862.87 L1746.24 1852.97 L1771.61 1842.08 L1796.85 1830.32 L1822.22 1817.70 L1847.46 1803.96 L1872.83 1789.11 L1898.20 1773.15 L1923.45 1755.94 L1948.82 1737.50 L1974.06 1717.58 L1999.43 1696.29 L2024.67 1673.52 L2024.67 1598.40 L1999.43 1626.00 L1974.06 1651.87 L1948.82 1675.75 L1923.45 1698.15 L1898.20 1718.82 L1872.83 1738.00 L1847.46 1755.82 L1822.22 1772.40 L1796.85 1787.62 L1771.61 1801.73 L1746.24 1814.73 L1720.99 1826.73 L1695.62 1837.74 L1670.38 1847.89 L1645.01 1857.30 L1619.76 1865.84 L1594.39 1873.63 L1569.15 1880.69 L1543.78 1887.25 L1518.54 1893.06 L1493.17 1898.38 L1467.92 1903.09 L1442.55 1907.29 L1417.31 1911.13 L1391.94 1914.47 L1366.69 1917.44 L1341.33 1920.17 L1316.08 1922.64 L1290.71 1925.12 L1265.47 1927.34 L1240.10 1929.69 L1214.85 1931.92 L1189.48 1934.27 L1164.24 1936.75 L1138.87 1939.47 L1113.50 1942.19 L1088.26 1945.16 L1062.89 1948.38 L1037.64 1951.85 L1012.27 1955.56 L987.03 1959.52 L961.66 1963.60 L936.42 1967.69 L911.05 1972.02 L885.80 1976.10 L860.43 1980.31 L835.19 1984.39 L809.82 1988.23 L784.58 1992.07 L759.21 1995.65 L733.96 1999.00 L708.59 2002.21 L683.35 2005.18 L657.98 2008.03 L632.73 2010.63 L607.37 2013.10 L582.12 2015.33 L556.75 2017.44 L531.51 2019.42 L506.14 2021.15 L480.89 2022.76 L455.52 2024.24 L455.52 2029.32 Z" stroke-linejoin="round"/>
	</defs>
	<defs>
		<clipPath id="clipPath_YxhNftxp">
			<use xlink:href="#path_LNPakoCS"/>
		</clipPath>
	</defs>
	<use xlink:href="#path_LNPakoCS" style="stroke:none;fill:#E6E6E6"/>
	<use xlink:href="#path_LNPakoCS" style="fill:none;stroke:#E0E0E0;stroke-width:14.69" clip-path="url(#clipPath_YxhNftxp)"/>
	<path d=" M455.52 2022.63 L480.77 2020.90 L506.14 2018.92 L531.38 2016.82 L556.75 2014.47 L582.00 2011.99 L607.37 2009.27 L632.61 2006.30 L657.98 2003.20 L683.22 1999.74 L708.59 1996.15 L733.84 1992.31 L759.21 1988.23 L784.45 1983.90 L809.82 1979.44 L835.07 1974.74 L860.43 1970.04 L885.68 1965.21 L911.05 1960.26 L936.29 1955.31 L961.66 1950.48 L986.91 1945.66 L1012.27 1941.08 L1037.52 1936.75 L1062.89 1932.79 L1088.13 1928.95 L1113.50 1925.36 L1138.87 1922.15 L1164.12 1918.93 L1189.48 1916.08 L1214.73 1913.23 L1240.10 1910.39 L1265.34 1907.67 L1290.71 1904.94 L1315.96 1902.10 L1341.33 1899.13 L1366.57 1895.91 L1391.94 1892.44 L1417.18 1888.48 L1442.55 1884.15 L1467.80 1879.20 L1493.17 1873.63 L1518.41 1867.45 L1543.78 1860.64 L1569.03 1852.97 L1594.39 1844.68 L1619.64 1835.52 L1645.01 1825.49 L1670.25 1814.60 L1695.62 1802.72 L1720.87 1789.85 L1746.24 1775.74 L1771.48 1760.52 L1796.85 1743.94 L1822.10 1726.12 L1847.46 1706.81 L1872.71 1685.90 L1898.08 1663.38 L1923.45 1639.12 L1948.69 1613.13 L1974.06 1585.04 L1999.31 1555.09 L2024.67 1522.79" stroke-linejoin="round" style="fill:none;stroke:#FF0000;stroke-width:7.34"/>
	<path d=" M455.52 2029.56 L480.77 2028.45 L506.14 2027.21 L531.38 2025.85 L556.75 2024.37 L582.00 2022.63 L607.37 2020.90 L632.61 2019.04 L657.98 2016.94 L683.22 2014.71 L708.59 2012.36 L733.84 2009.89 L759.21 2007.29 L784.45 2004.44 L809.82 2001.60 L835.07 1998.62 L860.43 1995.53 L885.68 1992.31 L911.05 1989.10 L936.29 1986.00 L961.66 1982.78 L986.91 1979.69 L1012.27 1976.72 L1037.52 1974.00 L1062.89 1971.28 L1088.13 1968.92 L1113.50 1966.57 L1138.87 1964.47 L1164.12 1962.37 L1189.48 1960.51 L1214.73 1958.65 L1240.10 1956.92 L1265.34 1955.06 L1290.71 1953.33 L1315.96 1951.47 L1341.33 1949.49 L1366.57 1947.51 L1391.94 1945.16 L1417.18 1942.69 L1442.55 1939.84 L1467.80 1936.62 L1493.17 1933.04 L1518.41 1928.95 L1543.78 1924.62 L1569.03 1919.67 L1594.39 1914.22 L1619.64 1908.28 L1645.01 1901.85 L1670.25 1894.80 L1695.62 1887.12 L1720.87 1878.71 L1746.24 1869.55 L1771.48 1859.65 L1796.85 1849.01 L1822.10 1837.37 L1847.46 1824.87 L1872.71 1811.39 L1898.08 1796.78 L1923.45 1781.07 L1948.69 1764.11 L1974.06 1745.92 L1999.31 1726.49 L2024.67 1705.58" stroke-linejoin="round" style="fill:none;stroke:#008000;stroke-width:7.34"/>
	<path d=" M455.52 2027.09 L480.77 2025.60 L506.14 2024.12 L531.38 2022.51 L556.75 2020.65 L582.00 2018.67 L607.37 2016.57 L632.61 2014.34 L657.98 2011.87 L683.22 2009.14 L708.59 2006.30 L733.84 2003.33 L759.21 2000.23 L784.45 1996.89 L809.82 1993.43 L835.07 1989.71 L860.43 1986.00 L885.68 1982.29 L911.05 1978.45 L936.29 1974.62 L961.66 1970.78 L986.91 1967.07 L1012.27 1963.48 L1037.52 1960.14 L1062.89 1957.04 L1088.13 1954.07 L1113.50 1951.35 L1138.87 1948.75 L1164.12 1946.28 L1189.48 1944.05 L1214.73 1941.82 L1240.10 1939.59 L1265.34 1937.49 L1290.71 1935.39 L1315.96 1933.16 L1341.33 1930.81 L1366.57 1928.33 L1391.94 1925.61 L1417.18 1922.52 L1442.55 1919.17 L1467.80 1915.34 L1493.17 1911.01 L1518.41 1906.18 L1543.78 1900.86 L1569.03 1894.92 L1594.39 1888.48 L1619.64 1881.31 L1645.01 1873.51 L1670.25 1865.09 L1695.62 1855.81 L1720.87 1845.67 L1746.24 1834.77 L1771.48 1822.89 L1796.85 1810.02 L1822.10 1796.16 L1847.46 1781.07 L1872.71 1764.85 L1898.08 1747.28 L1923.45 1728.47 L1948.69 1708.05 L1974.06 1686.27 L1999.31 1662.88 L2024.67 1637.76" stroke-linejoin="round" style="fill:none;stroke:#FFD200;stroke-width:7.34"/>
	<path d=" M455.52 2031.30 L480.77 2030.18 L506.14 2029.19 L531.38 2027.95 L556.75 2026.59 L582.00 2025.23 L607.37 2023.62 L632.61 2022.01 L657.98 2020.28 L683.22 2018.30 L708.59 2016.32 L733.84 2014.09 L759.21 2011.74 L784.45 2009.39 L809.82 2006.79 L835.07 2004.19 L860.43 2001.60 L885.68 1998.75 L911.05 1996.03 L936.29 1993.18 L961.66 1990.46 L986.91 1987.86 L1012.27 1985.26 L1037.52 1982.78 L1062.89 1980.56 L1088.13 1978.33 L1113.50 1976.35 L1138.87 1974.49 L1164.12 1972.76 L1189.48 1971.03 L1214.73 1969.54 L1240.10 1967.93 L1265.34 1966.45 L1290.71 1964.84 L1315.96 1963.23 L1341.33 1961.50 L1366.57 1959.77 L1391.94 1957.79 L1417.18 1955.56 L1442.55 1953.08 L1467.80 1950.24 L1493.17 1947.14 L1518.41 1943.68 L1543.78 1939.84 L1569.03 1935.51 L1594.39 1930.81 L1619.64 1925.61 L1645.01 1920.04 L1670.25 1913.85 L1695.62 1907.17 L1720.87 1899.87 L1746.24 1891.95 L1771.48 1883.29 L1796.85 1874.00 L1822.10 1863.86 L1847.46 1852.97 L1872.71 1841.21 L1898.08 1828.46 L1923.45 1814.85 L1948.69 1800.12 L1974.06 1784.28 L1999.31 1767.33 L2024.67 1749.14" stroke-linejoin="round" style="fill:none;stroke:#1A476F;stroke-width:7.34"/>
	<line x1="455.52" y1="1920.04" x2="458.37" y2="1920.04" style="stroke:#000000;stroke-width:7.34"/>
	<line x1="478.54" y1="1920.04" x2="480.77" y2="1920.04" style="stroke:#000000;stroke-width:7.34"/>
	<line x1="480.77" y1="1920.04" x2="481.39" y2="1920.04" style="stroke:#000000;stroke-width:7.34"/>
	<line x1="501.56" y1="1920.04" x2="504.40" y2="1920.04" style="stroke:#000000;stroke-width:7.34"/>
	<line x1="524.58" y1="1920.04" x2="527.42" y2="1920.04" style="stroke:#000000;stroke-width:7.34"/>
	<line x1="547.59" y1="1920.04" x2="550.44" y2="1920.04" style="stroke:#000000;stroke-width:7.34"/>
	<line x1="570.61" y1="1920.04" x2="573.58" y2="1920.04" style="stroke:#000000;stroke-width:7.34"/>
	<line x1="593.75" y1="1920.04" x2="596.60" y2="1920.04" style="stroke:#000000;stroke-width:7.34"/>
	<line x1="616.77" y1="1920.04" x2="619.62" y2="1920.04" style="stroke:#000000;stroke-width:7.34"/>
	<line x1="639.79" y1="1920.04" x2="642.63" y2="1920.04" style="stroke:#000000;stroke-width:7.34"/>
	<line x1="662.80" y1="1920.04" x2="665.65" y2="1920.04" style="stroke:#000000;stroke-width:7.34"/>
	<line x1="685.82" y1="1920.04" x2="688.67" y2="1920.04" style="stroke:#000000;stroke-width:7.34"/>
	<line x1="708.84" y1="1920.04" x2="711.69" y2="1920.04" style="stroke:#000000;stroke-width:7.34"/>
	<line x1="731.86" y1="1920.04" x2="733.84" y2="1920.04" style="stroke:#000000;stroke-width:7.34"/>
	<line x1="733.84" y1="1920.04" x2="734.70" y2="1920.04" style="stroke:#000000;stroke-width:7.34"/>
	<line x1="754.88" y1="1920.04" x2="757.72" y2="1920.04" style="stroke:#000000;stroke-width:7.34"/>
	<line x1="777.89" y1="1920.04" x2="780.74" y2="1920.04" style="stroke:#000000;stroke-width:7.34"/>
	<line x1="800.91" y1="1920.04" x2="803.88" y2="1920.04" style="stroke:#000000;stroke-width:7.34"/>
	<line x1="823.93" y1="1920.04" x2="826.90" y2="1920.04" style="stroke:#000000;stroke-width:7.34"/>
	<line x1="847.07" y1="1920.04" x2="849.91" y2="1920.04" style="stroke:#000000;stroke-width:7.34"/>
	<line x1="870.09" y1="1920.04" x2="872.93" y2="1920.04" style="stroke:#000000;stroke-width:7.34"/>
	<line x1="893.10" y1="1920.04" x2="895.95" y2="1920.04" style="stroke:#000000;stroke-width:7.34"/>
	<line x1="916.12" y1="1920.04" x2="918.97" y2="1920.04" style="stroke:#000000;stroke-width:7.34"/>
	<line x1="939.14" y1="1920.04" x2="941.99" y2="1920.04" style="stroke:#000000;stroke-width:7.34"/>
	<line x1="962.16" y1="1920.04" x2="965.00" y2="1920.04" style="stroke:#000000;stroke-width:7.34"/>
	<line x1="985.17" y1="1920.04" x2="986.91" y2="1920.04" style="stroke:#000000;stroke-width:7.34"/>
	<line x1="986.91" y1="1920.04" x2="988.02" y2="1920.04" style="stroke:#000000;stroke-width:7.34"/>
	<line x1="1008.19" y1="1920.04" x2="1011.04" y2="1920.04" style="stroke:#000000;stroke-width:7.34"/>
	<line x1="1031.21" y1="1920.04" x2="1034.06" y2="1920.04" style="stroke:#000000;stroke-width:7.34"/>
	<line x1="1054.23" y1="1920.04" x2="1057.20" y2="1920.04" style="stroke:#000000;stroke-width:7.34"/>
	<line x1="1077.24" y1="1920.04" x2="1080.21" y2="1920.04" style="stroke:#000000;stroke-width:7.34"/>
	<line x1="1100.38" y1="1920.04" x2="1103.23" y2="1920.04" style="stroke:#000000;stroke-width:7.34"/>
	<line x1="1123.40" y1="1920.04" x2="1126.25" y2="1920.04" style="stroke:#000000;stroke-width:7.34"/>
	<line x1="1146.42" y1="1920.04" x2="1149.27" y2="1920.04" style="stroke:#000000;stroke-width:7.34"/>
	<line x1="1169.44" y1="1920.04" x2="1172.28" y2="1920.04" style="stroke:#000000;stroke-width:7.34"/>
	<line x1="1192.45" y1="1920.04" x2="1195.30" y2="1920.04" style="stroke:#000000;stroke-width:7.34"/>
	<line x1="1215.47" y1="1920.04" x2="1218.32" y2="1920.04" style="stroke:#000000;stroke-width:7.34"/>
	<line x1="1238.49" y1="1920.04" x2="1240.10" y2="1920.04" style="stroke:#000000;stroke-width:7.34"/>
	<line x1="1240.10" y1="1920.04" x2="1241.34" y2="1920.04" style="stroke:#000000;stroke-width:7.34"/>
	<line x1="1261.51" y1="1920.04" x2="1264.35" y2="1920.04" style="stroke:#000000;stroke-width:7.34"/>
	<line x1="1284.53" y1="1920.04" x2="1287.37" y2="1920.04" style="stroke:#000000;stroke-width:7.34"/>
	<line x1="1307.54" y1="1920.04" x2="1310.51" y2="1920.04" style="stroke:#000000;stroke-width:7.34"/>
	<line x1="1330.56" y1="1920.04" x2="1333.53" y2="1920.04" style="stroke:#000000;stroke-width:7.34"/>
	<line x1="1353.70" y1="1920.04" x2="1356.55" y2="1920.04" style="stroke:#000000;stroke-width:7.34"/>
	<line x1="1376.72" y1="1920.04" x2="1379.57" y2="1920.04" style="stroke:#000000;stroke-width:7.34"/>
	<line x1="1399.74" y1="1920.04" x2="1402.58" y2="1920.04" style="stroke:#000000;stroke-width:7.34"/>
	<line x1="1422.75" y1="1920.04" x2="1425.60" y2="1920.04" style="stroke:#000000;stroke-width:7.34"/>
	<line x1="1445.77" y1="1920.04" x2="1448.62" y2="1920.04" style="stroke:#000000;stroke-width:7.34"/>
	<line x1="1468.79" y1="1920.04" x2="1471.63" y2="1920.04" style="stroke:#000000;stroke-width:7.34"/>
	<line x1="1491.81" y1="1920.04" x2="1493.17" y2="1920.04" style="stroke:#000000;stroke-width:7.34"/>
	<line x1="1493.17" y1="1920.04" x2="1494.65" y2="1920.04" style="stroke:#000000;stroke-width:7.34"/>
	<line x1="1514.82" y1="1920.04" x2="1517.67" y2="1920.04" style="stroke:#000000;stroke-width:7.34"/>
	<line x1="1537.84" y1="1920.04" x2="1540.69" y2="1920.04" style="stroke:#000000;stroke-width:7.34"/>
	<line x1="1560.86" y1="1920.04" x2="1563.83" y2="1920.04" style="stroke:#000000;stroke-width:7.34"/>
	<line x1="1584.00" y1="1920.04" x2="1586.85" y2="1920.04" style="stroke:#000000;stroke-width:7.34"/>
	<line x1="1607.02" y1="1920.04" x2="1609.86" y2="1920.04" style="stroke:#000000;stroke-width:7.34"/>
	<line x1="1630.04" y1="1920.04" x2="1632.88" y2="1920.04" style="stroke:#000000;stroke-width:7.34"/>
	<line x1="1653.05" y1="1920.04" x2="1655.90" y2="1920.04" style="stroke:#000000;stroke-width:7.34"/>
	<line x1="1676.07" y1="1920.04" x2="1678.92" y2="1920.04" style="stroke:#000000;stroke-width:7.34"/>
	<line x1="1699.09" y1="1920.04" x2="1701.93" y2="1920.04" style="stroke:#000000;stroke-width:7.34"/>
	<line x1="1722.11" y1="1920.04" x2="1724.95" y2="1920.04" style="stroke:#000000;stroke-width:7.34"/>
	<line x1="1745.12" y1="1920.04" x2="1746.24" y2="1920.04" style="stroke:#000000;stroke-width:7.34"/>
	<line x1="1746.24" y1="1920.04" x2="1747.97" y2="1920.04" style="stroke:#000000;stroke-width:7.34"/>
	<line x1="1768.14" y1="1920.04" x2="1770.99" y2="1920.04" style="stroke:#000000;stroke-width:7.34"/>
	<line x1="1791.16" y1="1920.04" x2="1794.00" y2="1920.04" style="stroke:#000000;stroke-width:7.34"/>
	<line x1="1814.17" y1="1920.04" x2="1817.14" y2="1920.04" style="stroke:#000000;stroke-width:7.34"/>
	<line x1="1837.32" y1="1920.04" x2="1840.16" y2="1920.04" style="stroke:#000000;stroke-width:7.34"/>
	<line x1="1860.33" y1="1920.04" x2="1863.18" y2="1920.04" style="stroke:#000000;stroke-width:7.34"/>
	<line x1="1883.35" y1="1920.04" x2="1886.20" y2="1920.04" style="stroke:#000000;stroke-width:7.34"/>
	<line x1="1906.37" y1="1920.04" x2="1909.21" y2="1920.04" style="stroke:#000000;stroke-width:7.34"/>
	<line x1="1929.39" y1="1920.04" x2="1932.23" y2="1920.04" style="stroke:#000000;stroke-width:7.34"/>
	<line x1="1952.40" y1="1920.04" x2="1955.25" y2="1920.04" style="stroke:#000000;stroke-width:7.34"/>
	<line x1="1975.42" y1="1920.04" x2="1978.27" y2="1920.04" style="stroke:#000000;stroke-width:7.34"/>
	<line x1="1998.44" y1="1920.04" x2="1999.31" y2="1920.04" style="stroke:#000000;stroke-width:7.34"/>
	<line x1="1999.31" y1="1920.04" x2="2001.29" y2="1920.04" style="stroke:#000000;stroke-width:7.34"/>
	<line x1="2021.46" y1="1920.04" x2="2024.30" y2="1920.04" style="stroke:#000000;stroke-width:7.34"/>
	<path d="" stroke-linejoin="round" style="fill:none;stroke:#000000;stroke-width:7.34"/>
	<defs>
		<path id="path_sajkAXFU" d="M2201.51 2028.94 L2201.51 2028.94 L2226.88 2027.58 L2252.13 2026.10 L2277.49 2024.49 L2302.74 2022.76 L2328.11 2020.90 L2353.35 2018.80 L2378.72 2016.57 L2403.97 2014.09 L2429.34 2011.50 L2454.58 2008.65 L2479.95 2005.80 L2505.20 2002.59 L2530.56 1999.37 L2555.81 1996.03 L2581.18 1992.56 L2606.42 1988.97 L2631.79 1985.26 L2657.04 1981.67 L2682.41 1977.96 L2707.65 1974.37 L2733.02 1970.90 L2758.26 1967.56 L2783.63 1964.35 L2808.88 1961.38 L2834.25 1958.53 L2859.49 1955.93 L2884.86 1953.33 L2910.11 1950.98 L2935.47 1948.75 L2960.72 1946.65 L2986.09 1944.54 L3011.46 1942.44 L3036.70 1940.34 L3062.07 1938.23 L3087.32 1935.88 L3112.68 1933.53 L3137.93 1930.93 L3163.30 1927.96 L3188.54 1924.74 L3213.91 1921.16 L3239.16 1917.07 L3264.53 1912.49 L3289.77 1907.42 L3315.14 1901.85 L3340.38 1895.66 L3365.75 1888.86 L3391.00 1881.55 L3416.37 1873.39 L3441.61 1864.60 L3466.98 1855.07 L3492.22 1844.55 L3517.59 1833.29 L3542.84 1821.04 L3568.21 1807.80 L3593.45 1793.44 L3618.82 1777.97 L3644.07 1761.39 L3669.43 1743.44 L3694.68 1724.14 L3720.05 1703.47 L3745.42 1681.32 L3770.66 1657.68 L3770.66 1604.59 L3745.42 1631.82 L3720.05 1657.31 L3694.68 1680.95 L3669.43 1702.98 L3644.07 1723.40 L3618.82 1742.45 L3593.45 1760.03 L3568.21 1776.24 L3542.84 1791.34 L3517.59 1805.20 L3492.22 1818.07 L3466.98 1829.82 L3441.61 1840.72 L3416.37 1850.74 L3391.00 1860.02 L3365.75 1868.44 L3340.38 1876.11 L3315.14 1883.16 L3289.77 1889.60 L3264.53 1895.29 L3239.16 1900.61 L3213.91 1905.31 L3188.54 1909.40 L3163.30 1913.11 L3137.93 1916.45 L3112.68 1919.30 L3087.32 1922.02 L3062.07 1924.50 L3036.70 1926.85 L3011.46 1929.08 L2986.09 1931.30 L2960.72 1933.53 L2935.47 1935.88 L2910.11 1938.36 L2884.86 1940.83 L2859.49 1943.55 L2834.25 1946.52 L2808.88 1949.74 L2783.63 1953.08 L2758.26 1956.80 L2733.02 1960.63 L2707.65 1964.59 L2682.41 1968.80 L2657.04 1972.88 L2631.79 1977.09 L2606.42 1981.18 L2581.18 1985.14 L2555.81 1988.97 L2530.56 1992.68 L2505.20 1996.15 L2479.95 1999.49 L2454.58 2002.59 L2429.34 2005.56 L2403.97 2008.28 L2378.72 2010.88 L2353.35 2013.23 L2328.11 2015.46 L2302.74 2017.56 L2277.49 2019.42 L2252.13 2021.15 L2226.88 2022.76 L2201.51 2024.24 L2201.51 2028.94 Z" stroke-linejoin="round"/>
	</defs>
	<defs>
		<clipPath id="clipPath_yKVbPnuy">
			<use xlink:href="#path_sajkAXFU"/>
		</clipPath>
	</defs>
	<use xlink:href="#path_sajkAXFU" style="stroke:none;fill:#E6E6E6"/>
	<use xlink:href="#path_sajkAXFU" style="fill:none;stroke:#E0E0E0;stroke-width:14.69" clip-path="url(#clipPath_yKVbPnuy)"/>
	<defs>
		<path id="path_hFdmkkFY" d="M2201.51 2018.67 L2201.51 2018.67 L2226.88 2016.32 L2252.13 2013.72 L2277.49 2011.00 L2302.74 2007.91 L2328.11 2004.57 L2353.35 2000.85 L2378.72 1997.02 L2403.97 1992.68 L2429.34 1988.11 L2454.58 1983.28 L2479.95 1978.08 L2505.20 1972.64 L2530.56 1967.07 L2555.81 1961.13 L2581.18 1955.06 L2606.42 1948.75 L2631.79 1942.44 L2657.04 1936.01 L2682.41 1929.69 L2707.65 1923.38 L2733.02 1917.19 L2758.26 1911.25 L2783.63 1905.69 L2808.88 1900.49 L2834.25 1895.54 L2859.49 1890.84 L2884.86 1886.50 L2910.11 1882.30 L2935.47 1878.34 L2960.72 1874.62 L2986.09 1870.91 L3011.46 1867.20 L3036.70 1863.49 L3062.07 1859.77 L3087.32 1855.81 L3112.68 1851.48 L3137.93 1846.90 L3163.30 1841.83 L3188.54 1836.14 L3213.91 1829.70 L3239.16 1822.52 L3264.53 1814.48 L3289.77 1805.57 L3315.14 1795.67 L3340.38 1784.78 L3365.75 1772.90 L3391.00 1759.90 L3416.37 1745.67 L3441.61 1730.20 L3466.98 1713.37 L3492.22 1695.06 L3517.59 1675.13 L3542.84 1653.60 L3568.21 1630.33 L3593.45 1605.09 L3618.82 1577.99 L3644.07 1548.66 L3669.43 1517.22 L3694.68 1483.31 L3720.05 1446.93 L3745.42 1408.07 L3770.66 1366.37 L3770.66 1260.80 L3745.42 1309.44 L3720.05 1354.73 L3694.68 1396.93 L3669.43 1436.16 L3644.07 1472.67 L3618.82 1506.46 L3593.45 1537.89 L3568.21 1566.85 L3542.84 1593.70 L3517.59 1618.58 L3492.22 1641.47 L3466.98 1662.51 L3441.61 1681.94 L3416.37 1699.88 L3391.00 1716.22 L3365.75 1731.32 L3340.38 1745.05 L3315.14 1757.55 L3289.77 1768.94 L3264.53 1779.33 L3239.16 1788.61 L3213.91 1797.03 L3188.54 1804.46 L3163.30 1811.01 L3137.93 1816.83 L3112.68 1822.15 L3087.32 1826.85 L3062.07 1831.31 L3036.70 1835.52 L3011.46 1839.48 L2986.09 1843.44 L2960.72 1847.52 L2935.47 1851.61 L2910.11 1855.94 L2884.86 1860.52 L2859.49 1865.47 L2834.25 1870.79 L2808.88 1876.36 L2783.63 1882.54 L2758.26 1888.98 L2733.02 1895.91 L2707.65 1903.09 L2682.41 1910.51 L2657.04 1917.94 L2631.79 1925.36 L2606.42 1932.66 L2581.18 1939.84 L2555.81 1946.77 L2530.56 1953.33 L2505.20 1959.64 L2479.95 1965.71 L2454.58 1971.28 L2429.34 1976.60 L2403.97 1981.55 L2378.72 1986.25 L2353.35 1990.46 L2328.11 1994.54 L2302.74 1998.13 L2277.49 2001.60 L2252.13 2004.69 L2226.88 2007.54 L2201.51 2010.26 L2201.51 2018.67 Z" stroke-linejoin="round"/>
	</defs>
	<defs>
		<clipPath id="clipPath_JaaVCvqR">
			<use xlink:href="#path_hFdmkkFY"/>
		</clipPath>
	</defs>
	<use xlink:href="#path_hFdmkkFY" style="stroke:none;fill:#E6E6E6"/>
	<use xlink:href="#path_hFdmkkFY" style="fill:none;stroke:#E0E0E0;stroke-width:14.69" clip-path="url(#clipPath_JaaVCvqR)"/>
	<defs>
		<path id="path_tcNdFpSy" d="M2201.51 2026.96 L2201.51 2026.96 L2226.88 2025.48 L2252.13 2023.75 L2277.49 2021.89 L2302.74 2019.91 L2328.11 2017.81 L2353.35 2015.46 L2378.72 2012.86 L2403.97 2010.13 L2429.34 2007.16 L2454.58 2003.95 L2479.95 2000.61 L2505.20 1997.02 L2530.56 1993.30 L2555.81 1989.47 L2581.18 1985.51 L2606.42 1981.42 L2631.79 1977.34 L2657.04 1973.13 L2682.41 1969.05 L2707.65 1964.96 L2733.02 1960.88 L2758.26 1957.17 L2783.63 1953.45 L2808.88 1950.11 L2834.25 1946.90 L2859.49 1943.80 L2884.86 1940.96 L2910.11 1938.36 L2935.47 1935.76 L2960.72 1933.28 L2986.09 1930.93 L3011.46 1928.58 L3036.70 1926.23 L3062.07 1923.75 L3087.32 1921.16 L3112.68 1918.43 L3137.93 1915.46 L3163.30 1912.24 L3188.54 1908.53 L3213.91 1904.45 L3239.16 1899.75 L3264.53 1894.55 L3289.77 1888.73 L3315.14 1882.42 L3340.38 1875.37 L3365.75 1867.69 L3391.00 1859.28 L3416.37 1850.12 L3441.61 1840.10 L3466.98 1829.21 L3492.22 1817.33 L3517.59 1804.46 L3542.84 1790.47 L3568.21 1775.50 L3593.45 1759.16 L3618.82 1741.59 L3644.07 1722.65 L3669.43 1702.23 L3694.68 1680.33 L3720.05 1656.82 L3745.42 1631.57 L3770.66 1604.59 L3770.66 1534.92 L3745.42 1566.48 L3720.05 1596.05 L3694.68 1623.40 L3669.43 1649.02 L3644.07 1672.66 L3618.82 1694.69 L3593.45 1714.98 L3568.21 1733.92 L3542.84 1751.36 L3517.59 1767.45 L3492.22 1782.30 L3466.98 1796.04 L3441.61 1808.66 L3416.37 1820.30 L3391.00 1830.94 L3365.75 1840.72 L3340.38 1849.75 L3315.14 1857.79 L3289.77 1865.22 L3264.53 1872.02 L3239.16 1878.09 L3213.91 1883.41 L3188.54 1888.36 L3163.30 1892.57 L3137.93 1896.40 L3112.68 1899.87 L3087.32 1902.96 L3062.07 1905.81 L3036.70 1908.53 L3011.46 1911.13 L2986.09 1913.73 L2960.72 1916.33 L2935.47 1919.05 L2910.11 1921.90 L2884.86 1924.87 L2859.49 1928.09 L2834.25 1931.43 L2808.88 1935.14 L2783.63 1939.10 L2758.26 1943.31 L2733.02 1947.76 L2707.65 1952.46 L2682.41 1957.17 L2657.04 1961.99 L2631.79 1966.82 L2606.42 1971.52 L2581.18 1976.10 L2555.81 1980.56 L2530.56 1984.89 L2505.20 1988.97 L2479.95 1992.81 L2454.58 1996.40 L2429.34 1999.86 L2403.97 2003.08 L2378.72 2006.05 L2353.35 2008.77 L2328.11 2011.37 L2302.74 2013.72 L2277.49 2015.95 L2252.13 2017.93 L2226.88 2019.79 L2201.51 2021.52 L2201.51 2026.96 Z" stroke-linejoin="round"/>
	</defs>
	<defs>
		<clipPath id="clipPath_vCfVlbKk">
			<use xlink:href="#path_tcNdFpSy"/>
		</clipPath>
	</defs>
	<use xlink:href="#path_tcNdFpSy" style="stroke:none;fill:#E6E6E6"/>
	<use xlink:href="#path_tcNdFpSy" style="fill:none;stroke:#E0E0E0;stroke-width:14.69" clip-path="url(#clipPath_vCfVlbKk)"/>
	<defs>
		<path id="path_obguhXbN" d="M2201.51 2024.12 L2201.51 2024.12 L2226.88 2022.26 L2252.13 2020.28 L2277.49 2018.18 L2302.74 2015.83 L2328.11 2013.35 L2353.35 2010.51 L2378.72 2007.54 L2403.97 2004.32 L2429.34 2000.85 L2454.58 1997.14 L2479.95 1993.18 L2505.20 1988.97 L2530.56 1984.64 L2555.81 1980.19 L2581.18 1975.48 L2606.42 1970.78 L2631.79 1965.95 L2657.04 1961.00 L2682.41 1956.18 L2707.65 1951.35 L2733.02 1946.65 L2758.26 1942.07 L2783.63 1937.86 L2808.88 1933.90 L2834.25 1930.07 L2859.49 1926.48 L2884.86 1923.14 L2910.11 1920.04 L2935.47 1917.07 L2960.72 1914.22 L2986.09 1911.38 L3011.46 1908.66 L3036.70 1905.81 L3062.07 1902.96 L3087.32 1899.99 L3112.68 1896.78 L3137.93 1893.31 L3163.30 1889.35 L3188.54 1885.02 L3213.91 1880.19 L3239.16 1874.75 L3264.53 1868.56 L3289.77 1861.75 L3315.14 1854.33 L3340.38 1846.04 L3365.75 1837.00 L3391.00 1827.10 L3416.37 1816.21 L3441.61 1804.46 L3466.98 1791.58 L3492.22 1777.72 L3517.59 1762.63 L3542.84 1746.17 L3568.21 1728.47 L3593.45 1709.29 L3618.82 1688.62 L3644.07 1666.35 L3669.43 1642.34 L3694.68 1616.60 L3720.05 1588.88 L3745.42 1559.17 L3770.66 1527.37 L3770.66 1419.95 L3745.42 1458.69 L3720.05 1494.82 L3694.68 1528.48 L3669.43 1559.67 L3644.07 1588.75 L3618.82 1615.73 L3593.45 1640.73 L3568.21 1663.87 L3542.84 1685.28 L3517.59 1705.08 L3492.22 1723.27 L3466.98 1740.10 L3441.61 1755.70 L3416.37 1769.93 L3391.00 1782.92 L3365.75 1794.93 L3340.38 1805.94 L3315.14 1815.84 L3289.77 1825.00 L3264.53 1833.17 L3239.16 1840.59 L3213.91 1847.27 L3188.54 1853.21 L3163.30 1858.41 L3137.93 1863.11 L3112.68 1867.32 L3087.32 1871.16 L3062.07 1874.75 L3036.70 1878.09 L3011.46 1881.31 L2986.09 1884.52 L2960.72 1887.74 L2935.47 1890.96 L2910.11 1894.42 L2884.86 1898.14 L2859.49 1902.10 L2834.25 1906.30 L2808.88 1910.76 L2783.63 1915.59 L2758.26 1920.78 L2733.02 1926.23 L2707.65 1932.05 L2682.41 1937.86 L2657.04 1943.80 L2631.79 1949.62 L2606.42 1955.43 L2581.18 1961.13 L2555.81 1966.57 L2530.56 1971.89 L2505.20 1976.84 L2479.95 1981.67 L2454.58 1986.13 L2429.34 1990.33 L2403.97 1994.29 L2378.72 1998.01 L2353.35 2001.35 L2328.11 2004.57 L2302.74 2007.54 L2277.49 2010.13 L2252.13 2012.61 L2226.88 2014.96 L2201.51 2017.06 L2201.51 2024.12 Z" stroke-linejoin="round"/>
	</defs>
	<defs>
		<clipPath id="clipPath_EGqDWIbb">
			<use xlink:href="#path_obguhXbN"/>
		</clipPath>
	</defs>
	<use xlink:href="#path_obguhXbN" style="stroke:none;fill:#E6E6E6"/>
	<use xlink:href="#path_obguhXbN" style="fill:none;stroke:#E0E0E0;stroke-width:14.69" clip-path="url(#clipPath_EGqDWIbb)"/>
	<path d=" M2201.39 2014.84 L2226.76 2012.36 L2252.13 2009.64 L2277.37 2006.67 L2302.74 2003.33 L2327.99 1999.86 L2353.35 1996.03 L2378.60 1991.94 L2403.97 1987.49 L2429.21 1982.66 L2454.58 1977.59 L2479.83 1972.27 L2505.20 1966.57 L2530.44 1960.51 L2555.81 1954.32 L2581.05 1947.76 L2606.42 1941.08 L2631.67 1934.27 L2657.04 1927.47 L2682.28 1920.54 L2707.65 1913.73 L2732.89 1907.05 L2758.26 1900.61 L2783.51 1894.67 L2808.88 1888.98 L2834.12 1883.66 L2859.49 1878.71 L2884.74 1874.00 L2910.11 1869.67 L2935.35 1865.59 L2960.72 1861.63 L2986.09 1857.79 L3011.33 1853.96 L3036.70 1850.12 L3061.95 1846.04 L3087.32 1841.95 L3112.56 1837.37 L3137.93 1832.42 L3163.17 1826.98 L3188.54 1820.91 L3213.79 1813.98 L3239.16 1806.19 L3264.40 1797.52 L3289.77 1788.00 L3315.01 1777.35 L3340.38 1765.72 L3365.63 1752.97 L3391.00 1738.99 L3416.24 1723.64 L3441.61 1707.06 L3466.86 1688.87 L3492.22 1669.19 L3517.47 1647.91 L3542.84 1624.76 L3568.08 1599.77 L3593.45 1572.79 L3618.70 1543.58 L3644.07 1512.15 L3669.31 1478.24 L3694.68 1441.73 L3719.93 1402.63 L3745.29 1360.55 L3770.66 1315.50" stroke-linejoin="round" style="fill:none;stroke:#FF0000;stroke-width:7.34"/>
	<path d=" M2201.39 2024.49 L2226.76 2022.88 L2252.13 2021.15 L2277.37 2019.17 L2302.74 2017.06 L2327.99 2014.84 L2353.35 2012.36 L2378.60 2009.64 L2403.97 2006.79 L2429.21 2003.70 L2454.58 2000.36 L2479.83 1996.89 L2505.20 1993.18 L2530.44 1989.34 L2555.81 1985.26 L2581.05 1981.05 L2606.42 1976.72 L2631.67 1972.39 L2657.04 1967.93 L2682.28 1963.36 L2707.65 1959.02 L2732.89 1954.69 L2758.26 1950.48 L2783.51 1946.65 L2808.88 1942.94 L2834.12 1939.47 L2859.49 1936.25 L2884.74 1933.28 L2910.11 1930.44 L2935.35 1927.84 L2960.72 1925.24 L2986.09 1922.76 L3011.33 1920.29 L3036.70 1917.69 L3061.95 1915.21 L3087.32 1912.49 L3112.56 1909.52 L3137.93 1906.30 L3163.17 1902.84 L3188.54 1898.88 L3213.79 1894.42 L3239.16 1889.35 L3264.40 1883.78 L3289.77 1877.47 L3315.01 1870.66 L3340.38 1863.11 L3365.63 1854.82 L3391.00 1845.67 L3416.24 1835.76 L3441.61 1825.00 L3466.86 1813.24 L3492.22 1800.50 L3517.47 1786.76 L3542.84 1771.66 L3568.08 1755.45 L3593.45 1738.00 L3618.70 1719.06 L3644.07 1698.65 L3669.31 1676.62 L3694.68 1652.98 L3719.93 1627.61 L3745.29 1600.39 L3770.66 1571.18" stroke-linejoin="round" style="fill:none;stroke:#008000;stroke-width:7.34"/>
	<path d=" M2201.39 2020.90 L2226.76 2018.92 L2252.13 2016.82 L2277.37 2014.59 L2302.74 2011.99 L2327.99 2009.27 L2353.35 2006.30 L2378.60 2003.08 L2403.97 1999.61 L2429.21 1995.90 L2454.58 1991.94 L2479.83 1987.73 L2505.20 1983.28 L2530.44 1978.70 L2555.81 1973.75 L2581.05 1968.68 L2606.42 1963.48 L2631.67 1958.28 L2657.04 1952.84 L2682.28 1947.51 L2707.65 1942.19 L2732.89 1937.00 L2758.26 1932.05 L2783.51 1927.34 L2808.88 1922.89 L2834.12 1918.80 L2859.49 1914.97 L2884.74 1911.38 L2910.11 1907.91 L2935.35 1904.70 L2960.72 1901.60 L2986.09 1898.63 L3011.33 1895.66 L3036.70 1892.69 L3061.95 1889.60 L3087.32 1886.26 L3112.56 1882.79 L3137.93 1878.95 L3163.17 1874.75 L3188.54 1869.92 L3213.79 1864.60 L3239.16 1858.54 L3264.40 1851.73 L3289.77 1844.30 L3315.01 1836.01 L3340.38 1826.98 L3365.63 1816.95 L3391.00 1806.06 L3416.24 1794.18 L3441.61 1781.31 L3466.86 1767.21 L3492.22 1751.86 L3517.47 1735.28 L3542.84 1717.21 L3568.08 1697.78 L3593.45 1676.74 L3618.70 1653.97 L3644.07 1629.47 L3669.31 1602.98 L3694.68 1574.64 L3719.93 1544.08 L3745.29 1511.41 L3770.66 1476.26" stroke-linejoin="round" style="fill:none;stroke:#FFD200;stroke-width:7.34"/>
	<path d=" M2201.39 2026.84 L2226.76 2025.36 L2252.13 2023.87 L2277.37 2022.14 L2302.74 2020.41 L2327.99 2018.43 L2353.35 2016.20 L2378.60 2013.85 L2403.97 2011.37 L2429.21 2008.65 L2454.58 2005.80 L2479.83 2002.83 L2505.20 1999.61 L2530.44 1996.15 L2555.81 1992.68 L2581.05 1988.97 L2606.42 1985.26 L2631.67 1981.42 L2657.04 1977.46 L2682.28 1973.63 L2707.65 1969.79 L2732.89 1966.08 L2758.26 1962.37 L2783.51 1959.02 L2808.88 1955.81 L2834.12 1952.84 L2859.49 1949.99 L2884.74 1947.39 L2910.11 1944.92 L2935.35 1942.56 L2960.72 1940.34 L2986.09 1938.23 L3011.33 1936.01 L3036.70 1933.90 L3061.95 1931.67 L3087.32 1929.20 L3112.56 1926.72 L3137.93 1923.88 L3163.17 1920.91 L3188.54 1917.44 L3213.79 1913.48 L3239.16 1909.15 L3264.40 1904.20 L3289.77 1898.88 L3315.01 1892.82 L3340.38 1886.26 L3365.63 1879.08 L3391.00 1871.16 L3416.24 1862.50 L3441.61 1853.09 L3466.86 1842.94 L3492.22 1831.80 L3517.47 1819.80 L3542.84 1806.68 L3568.08 1792.57 L3593.45 1777.35 L3618.70 1760.89 L3644.07 1743.07 L3669.31 1723.89 L3694.68 1703.35 L3719.93 1681.20 L3745.29 1657.44 L3770.66 1632.07" stroke-linejoin="round" style="fill:none;stroke:#1A476F;stroke-width:7.34"/>
	<line x1="2201.39" y1="1871.16" x2="2204.24" y2="1871.16" style="stroke:#000000;stroke-width:7.34"/>
	<line x1="2224.41" y1="1871.16" x2="2226.76" y2="1871.16" style="stroke:#000000;stroke-width:7.34"/>
	<line x1="2226.76" y1="1871.16" x2="2227.25" y2="1871.16" style="stroke:#000000;stroke-width:7.34"/>
	<line x1="2247.42" y1="1871.16" x2="2250.27" y2="1871.16" style="stroke:#000000;stroke-width:7.34"/>
	<line x1="2270.44" y1="1871.16" x2="2273.29" y2="1871.16" style="stroke:#000000;stroke-width:7.34"/>
	<line x1="2293.46" y1="1871.16" x2="2296.43" y2="1871.16" style="stroke:#000000;stroke-width:7.34"/>
	<line x1="2316.60" y1="1871.16" x2="2319.45" y2="1871.16" style="stroke:#000000;stroke-width:7.34"/>
	<line x1="2339.62" y1="1871.16" x2="2342.46" y2="1871.16" style="stroke:#000000;stroke-width:7.34"/>
	<line x1="2362.64" y1="1871.16" x2="2365.48" y2="1871.16" style="stroke:#000000;stroke-width:7.34"/>
	<line x1="2385.65" y1="1871.16" x2="2388.50" y2="1871.16" style="stroke:#000000;stroke-width:7.34"/>
	<line x1="2408.67" y1="1871.16" x2="2411.52" y2="1871.16" style="stroke:#000000;stroke-width:7.34"/>
	<line x1="2431.69" y1="1871.16" x2="2434.53" y2="1871.16" style="stroke:#000000;stroke-width:7.34"/>
	<line x1="2454.70" y1="1871.16" x2="2457.55" y2="1871.16" style="stroke:#000000;stroke-width:7.34"/>
	<line x1="2477.72" y1="1871.16" x2="2479.83" y2="1871.16" style="stroke:#000000;stroke-width:7.34"/>
	<line x1="2479.83" y1="1871.16" x2="2480.57" y2="1871.16" style="stroke:#000000;stroke-width:7.34"/>
	<line x1="2500.74" y1="1871.16" x2="2503.59" y2="1871.16" style="stroke:#000000;stroke-width:7.34"/>
	<line x1="2523.76" y1="1871.16" x2="2526.60" y2="1871.16" style="stroke:#000000;stroke-width:7.34"/>
	<line x1="2546.78" y1="1871.16" x2="2549.74" y2="1871.16" style="stroke:#000000;stroke-width:7.34"/>
	<line x1="2569.92" y1="1871.16" x2="2572.76" y2="1871.16" style="stroke:#000000;stroke-width:7.34"/>
	<line x1="2592.93" y1="1871.16" x2="2595.78" y2="1871.16" style="stroke:#000000;stroke-width:7.34"/>
	<line x1="2615.95" y1="1871.16" x2="2618.80" y2="1871.16" style="stroke:#000000;stroke-width:7.34"/>
	<line x1="2638.97" y1="1871.16" x2="2641.82" y2="1871.16" style="stroke:#000000;stroke-width:7.34"/>
	<line x1="2661.99" y1="1871.16" x2="2664.83" y2="1871.16" style="stroke:#000000;stroke-width:7.34"/>
	<line x1="2685.00" y1="1871.16" x2="2687.85" y2="1871.16" style="stroke:#000000;stroke-width:7.34"/>
	<line x1="2708.02" y1="1871.16" x2="2710.87" y2="1871.16" style="stroke:#000000;stroke-width:7.34"/>
	<line x1="2731.04" y1="1871.16" x2="2732.89" y2="1871.16" style="stroke:#000000;stroke-width:7.34"/>
	<line x1="2732.89" y1="1871.16" x2="2733.89" y2="1871.16" style="stroke:#000000;stroke-width:7.34"/>
	<line x1="2754.06" y1="1871.16" x2="2756.90" y2="1871.16" style="stroke:#000000;stroke-width:7.34"/>
	<line x1="2777.07" y1="1871.16" x2="2779.92" y2="1871.16" style="stroke:#000000;stroke-width:7.34"/>
	<line x1="2800.09" y1="1871.16" x2="2803.06" y2="1871.16" style="stroke:#000000;stroke-width:7.34"/>
	<line x1="2823.23" y1="1871.16" x2="2826.08" y2="1871.16" style="stroke:#000000;stroke-width:7.34"/>
	<line x1="2846.25" y1="1871.16" x2="2849.10" y2="1871.16" style="stroke:#000000;stroke-width:7.34"/>
	<line x1="2869.27" y1="1871.16" x2="2872.11" y2="1871.16" style="stroke:#000000;stroke-width:7.34"/>
	<line x1="2892.28" y1="1871.16" x2="2895.13" y2="1871.16" style="stroke:#000000;stroke-width:7.34"/>
	<line x1="2915.30" y1="1871.16" x2="2918.15" y2="1871.16" style="stroke:#000000;stroke-width:7.34"/>
	<line x1="2938.32" y1="1871.16" x2="2941.17" y2="1871.16" style="stroke:#000000;stroke-width:7.34"/>
	<line x1="2961.34" y1="1871.16" x2="2964.18" y2="1871.16" style="stroke:#000000;stroke-width:7.34"/>
	<line x1="2984.36" y1="1871.16" x2="2986.09" y2="1871.16" style="stroke:#000000;stroke-width:7.34"/>
	<line x1="2986.09" y1="1871.16" x2="2987.20" y2="1871.16" style="stroke:#000000;stroke-width:7.34"/>
	<line x1="3007.37" y1="1871.16" x2="3010.22" y2="1871.16" style="stroke:#000000;stroke-width:7.34"/>
	<line x1="3030.39" y1="1871.16" x2="3033.36" y2="1871.16" style="stroke:#000000;stroke-width:7.34"/>
	<line x1="3053.41" y1="1871.16" x2="3056.38" y2="1871.16" style="stroke:#000000;stroke-width:7.34"/>
	<line x1="3076.55" y1="1871.16" x2="3079.39" y2="1871.16" style="stroke:#000000;stroke-width:7.34"/>
	<line x1="3099.57" y1="1871.16" x2="3102.41" y2="1871.16" style="stroke:#000000;stroke-width:7.34"/>
	<line x1="3122.58" y1="1871.16" x2="3125.43" y2="1871.16" style="stroke:#000000;stroke-width:7.34"/>
	<line x1="3145.60" y1="1871.16" x2="3148.45" y2="1871.16" style="stroke:#000000;stroke-width:7.34"/>
	<line x1="3168.62" y1="1871.16" x2="3171.47" y2="1871.16" style="stroke:#000000;stroke-width:7.34"/>
	<line x1="3191.64" y1="1871.16" x2="3194.48" y2="1871.16" style="stroke:#000000;stroke-width:7.34"/>
	<line x1="3214.65" y1="1871.16" x2="3217.50" y2="1871.16" style="stroke:#000000;stroke-width:7.34"/>
	<line x1="3237.67" y1="1871.16" x2="3239.16" y2="1871.16" style="stroke:#000000;stroke-width:7.34"/>
	<line x1="3239.16" y1="1871.16" x2="3240.52" y2="1871.16" style="stroke:#000000;stroke-width:7.34"/>
	<line x1="3260.69" y1="1871.16" x2="3263.53" y2="1871.16" style="stroke:#000000;stroke-width:7.34"/>
	<line x1="3283.71" y1="1871.16" x2="3286.68" y2="1871.16" style="stroke:#000000;stroke-width:7.34"/>
	<line x1="3306.72" y1="1871.16" x2="3309.69" y2="1871.16" style="stroke:#000000;stroke-width:7.34"/>
	<line x1="3329.86" y1="1871.16" x2="3332.71" y2="1871.16" style="stroke:#000000;stroke-width:7.34"/>
	<line x1="3352.88" y1="1871.16" x2="3355.73" y2="1871.16" style="stroke:#000000;stroke-width:7.34"/>
	<line x1="3375.90" y1="1871.16" x2="3378.75" y2="1871.16" style="stroke:#000000;stroke-width:7.34"/>
	<line x1="3398.92" y1="1871.16" x2="3401.76" y2="1871.16" style="stroke:#000000;stroke-width:7.34"/>
	<line x1="3421.93" y1="1871.16" x2="3424.78" y2="1871.16" style="stroke:#000000;stroke-width:7.34"/>
	<line x1="3444.95" y1="1871.16" x2="3447.80" y2="1871.16" style="stroke:#000000;stroke-width:7.34"/>
	<line x1="3467.97" y1="1871.16" x2="3470.82" y2="1871.16" style="stroke:#000000;stroke-width:7.34"/>
	<line x1="3490.99" y1="1871.16" x2="3492.22" y2="1871.16" style="stroke:#000000;stroke-width:7.34"/>
	<line x1="3492.22" y1="1871.16" x2="3493.83" y2="1871.16" style="stroke:#000000;stroke-width:7.34"/>
	<line x1="3514.01" y1="1871.16" x2="3516.85" y2="1871.16" style="stroke:#000000;stroke-width:7.34"/>
	<line x1="3537.02" y1="1871.16" x2="3539.99" y2="1871.16" style="stroke:#000000;stroke-width:7.34"/>
	<line x1="3560.04" y1="1871.16" x2="3563.01" y2="1871.16" style="stroke:#000000;stroke-width:7.34"/>
	<line x1="3583.18" y1="1871.16" x2="3586.03" y2="1871.16" style="stroke:#000000;stroke-width:7.34"/>
	<line x1="3606.20" y1="1871.16" x2="3609.05" y2="1871.16" style="stroke:#000000;stroke-width:7.34"/>
	<line x1="3629.22" y1="1871.16" x2="3632.06" y2="1871.16" style="stroke:#000000;stroke-width:7.34"/>
	<line x1="3652.23" y1="1871.16" x2="3655.08" y2="1871.16" style="stroke:#000000;stroke-width:7.34"/>
	<line x1="3675.25" y1="1871.16" x2="3678.10" y2="1871.16" style="stroke:#000000;stroke-width:7.34"/>
	<line x1="3698.27" y1="1871.16" x2="3701.11" y2="1871.16" style="stroke:#000000;stroke-width:7.34"/>
	<line x1="3721.29" y1="1871.16" x2="3724.13" y2="1871.16" style="stroke:#000000;stroke-width:7.34"/>
	<line x1="3744.30" y1="1871.16" x2="3745.29" y2="1871.16" style="stroke:#000000;stroke-width:7.34"/>
	<line x1="3745.29" y1="1871.16" x2="3747.15" y2="1871.16" style="stroke:#000000;stroke-width:7.34"/>
	<line x1="3767.32" y1="1871.16" x2="3770.17" y2="1871.16" style="stroke:#000000;stroke-width:7.34"/>
	<path d="" stroke-linejoin="round" style="fill:none;stroke:#000000;stroke-width:7.34"/>
	<line x1="401.69" y1="2096.14" x2="401.69" y2="258.27" style="stroke:#000000;stroke-width:4.90"/>
	<line x1="401.69" y1="2042.31" x2="367.66" y2="2042.31" style="stroke:#000000;stroke-width:4.90"/>
	<text x="350.71" y="2072.10" style="font-family:'Helvetica';font-size:85.02px;fill:#000000" text-anchor="end">0</text>
	<line x1="401.69" y1="1850.00" x2="367.66" y2="1850.00" style="stroke:#000000;stroke-width:4.90"/>
	<text x="350.71" y="1879.78" style="font-family:'Helvetica';font-size:85.02px;fill:#000000" text-anchor="end">.001</text>
	<line x1="401.69" y1="1657.81" x2="367.66" y2="1657.81" style="stroke:#000000;stroke-width:4.90"/>
	<text x="350.71" y="1687.59" style="font-family:'Helvetica';font-size:85.02px;fill:#000000" text-anchor="end">.002</text>
	<line x1="401.69" y1="1465.49" x2="367.66" y2="1465.49" style="stroke:#000000;stroke-width:4.90"/>
	<text x="350.71" y="1495.28" style="font-family:'Helvetica';font-size:85.02px;fill:#000000" text-anchor="end">.003</text>
	<line x1="401.69" y1="1273.30" x2="367.66" y2="1273.30" style="stroke:#000000;stroke-width:4.90"/>
	<text x="350.71" y="1303.09" style="font-family:'Helvetica';font-size:85.02px;fill:#000000" text-anchor="end">.004</text>
	<line x1="401.69" y1="1081.11" x2="367.66" y2="1081.11" style="stroke:#000000;stroke-width:4.90"/>
	<text x="350.71" y="1110.90" style="font-family:'Helvetica';font-size:85.02px;fill:#000000" text-anchor="end">.005</text>
	<line x1="401.69" y1="888.80" x2="367.66" y2="888.80" style="stroke:#000000;stroke-width:4.90"/>
	<text x="350.71" y="918.59" style="font-family:'Helvetica';font-size:85.02px;fill:#000000" text-anchor="end">.006</text>
	<line x1="401.69" y1="696.61" x2="367.66" y2="696.61" style="stroke:#000000;stroke-width:4.90"/>
	<text x="350.71" y="726.40" style="font-family:'Helvetica';font-size:85.02px;fill:#000000" text-anchor="end">.007</text>
	<line x1="401.69" y1="504.30" x2="367.66" y2="504.30" style="stroke:#000000;stroke-width:4.90"/>
	<text x="350.71" y="534.08" style="font-family:'Helvetica';font-size:85.02px;fill:#000000" text-anchor="end">.008</text>
	<line x1="401.69" y1="312.11" x2="367.66" y2="312.11" style="stroke:#000000;stroke-width:4.90"/>
	<text x="350.71" y="341.89" style="font-family:'Helvetica';font-size:85.02px;fill:#000000" text-anchor="end">.009</text>
	<line x1="401.69" y1="2096.14" x2="2078.51" y2="2096.14" style="stroke:#000000;stroke-width:4.90"/>
	<line x1="506.14" y1="2096.14" x2="506.14" y2="2113.10" style="stroke:#000000;stroke-width:4.90"/>
	<line x1="632.73" y1="2096.14" x2="632.73" y2="2113.10" style="stroke:#000000;stroke-width:4.90"/>
	<line x1="759.21" y1="2096.14" x2="759.21" y2="2113.10" style="stroke:#000000;stroke-width:4.90"/>
	<line x1="885.80" y1="2096.14" x2="885.80" y2="2113.10" style="stroke:#000000;stroke-width:4.90"/>
	<line x1="1012.27" y1="2096.14" x2="1012.27" y2="2113.10" style="stroke:#000000;stroke-width:4.90"/>
	<line x1="1138.87" y1="2096.14" x2="1138.87" y2="2113.10" style="stroke:#000000;stroke-width:4.90"/>
	<line x1="1265.47" y1="2096.14" x2="1265.47" y2="2113.10" style="stroke:#000000;stroke-width:4.90"/>
	<line x1="1391.94" y1="2096.14" x2="1391.94" y2="2113.10" style="stroke:#000000;stroke-width:4.90"/>
	<line x1="1518.54" y1="2096.14" x2="1518.54" y2="2113.10" style="stroke:#000000;stroke-width:4.90"/>
	<line x1="1645.01" y1="2096.14" x2="1645.01" y2="2113.10" style="stroke:#000000;stroke-width:4.90"/>
	<line x1="1771.61" y1="2096.14" x2="1771.61" y2="2113.10" style="stroke:#000000;stroke-width:4.90"/>
	<line x1="1898.20" y1="2096.14" x2="1898.20" y2="2113.10" style="stroke:#000000;stroke-width:4.90"/>
	<line x1="2024.67" y1="2096.14" x2="2024.67" y2="2113.10" style="stroke:#000000;stroke-width:4.90"/>
	<line x1="506.14" y1="2096.14" x2="506.14" y2="2130.18" style="stroke:#000000;stroke-width:4.90"/>
	<text x="506.14" y="2206.58" style="font-family:'Helvetica';font-size:85.02px;fill:#000000" text-anchor="middle">20</text>
	<line x1="1012.27" y1="2096.14" x2="1012.27" y2="2130.18" style="stroke:#000000;stroke-width:4.90"/>
	<text x="1012.27" y="2206.58" style="font-family:'Helvetica';font-size:85.02px;fill:#000000" text-anchor="middle">40</text>
	<line x1="1518.54" y1="2096.14" x2="1518.54" y2="2130.18" style="stroke:#000000;stroke-width:4.90"/>
	<text x="1518.54" y="2206.58" style="font-family:'Helvetica';font-size:85.02px;fill:#000000" text-anchor="middle">60</text>
	<line x1="2024.67" y1="2096.14" x2="2024.67" y2="2130.18" style="stroke:#000000;stroke-width:4.90"/>
	<text x="2024.67" y="2206.58" style="font-family:'Helvetica';font-size:85.02px;fill:#000000" text-anchor="middle">80</text>
	<line x1="2147.68" y1="2096.14" x2="3824.49" y2="2096.14" style="stroke:#000000;stroke-width:4.90"/>
	<line x1="2252.13" y1="2096.14" x2="2252.13" y2="2113.10" style="stroke:#000000;stroke-width:4.90"/>
	<line x1="2378.72" y1="2096.14" x2="2378.72" y2="2113.10" style="stroke:#000000;stroke-width:4.90"/>
	<line x1="2505.20" y1="2096.14" x2="2505.20" y2="2113.10" style="stroke:#000000;stroke-width:4.90"/>
	<line x1="2631.79" y1="2096.14" x2="2631.79" y2="2113.10" style="stroke:#000000;stroke-width:4.90"/>
	<line x1="2758.26" y1="2096.14" x2="2758.26" y2="2113.10" style="stroke:#000000;stroke-width:4.90"/>
	<line x1="2884.86" y1="2096.14" x2="2884.86" y2="2113.10" style="stroke:#000000;stroke-width:4.90"/>
	<line x1="3011.46" y1="2096.14" x2="3011.46" y2="2113.10" style="stroke:#000000;stroke-width:4.90"/>
	<line x1="3137.93" y1="2096.14" x2="3137.93" y2="2113.10" style="stroke:#000000;stroke-width:4.90"/>
	<line x1="3264.53" y1="2096.14" x2="3264.53" y2="2113.10" style="stroke:#000000;stroke-width:4.90"/>
	<line x1="3391.00" y1="2096.14" x2="3391.00" y2="2113.10" style="stroke:#000000;stroke-width:4.90"/>
	<line x1="3517.59" y1="2096.14" x2="3517.59" y2="2113.10" style="stroke:#000000;stroke-width:4.90"/>
	<line x1="3644.07" y1="2096.14" x2="3644.07" y2="2113.10" style="stroke:#000000;stroke-width:4.90"/>
	<line x1="3770.66" y1="2096.14" x2="3770.66" y2="2113.10" style="stroke:#000000;stroke-width:4.90"/>
	<line x1="2252.13" y1="2096.14" x2="2252.13" y2="2130.18" style="stroke:#000000;stroke-width:4.90"/>
	<text x="2252.13" y="2206.58" style="font-family:'Helvetica';font-size:85.02px;fill:#000000" text-anchor="middle">20</text>
	<line x1="2758.26" y1="2096.14" x2="2758.26" y2="2130.18" style="stroke:#000000;stroke-width:4.90"/>
	<text x="2758.26" y="2206.58" style="font-family:'Helvetica';font-size:85.02px;fill:#000000" text-anchor="middle">40</text>
	<line x1="3264.53" y1="2096.14" x2="3264.53" y2="2130.18" style="stroke:#000000;stroke-width:4.90"/>
	<text x="3264.53" y="2206.58" style="font-family:'Helvetica';font-size:85.02px;fill:#000000" text-anchor="middle">60</text>
	<line x1="3770.66" y1="2096.14" x2="3770.66" y2="2130.18" style="stroke:#000000;stroke-width:4.90"/>
	<text x="3770.66" y="2206.58" style="font-family:'Helvetica';font-size:85.02px;fill:#000000" text-anchor="middle">80</text>
	<rect x="401.69" y="135.39" width="1676.81" height="122.89" style="fill:#D9E6EB"/>
	<rect x="404.14" y="137.83" width="1671.92" height="117.99" style="fill:none;stroke:#D9E6EB;stroke-width:4.90"/>
	<text x="1240.10" y="215.42" style="font-family:'Helvetica';font-size:93.56px;fill:#000000" text-anchor="middle">Female</text>
	<rect x="2147.68" y="135.39" width="1676.81" height="122.89" style="fill:#D9E6EB"/>
	<rect x="2150.13" y="137.83" width="1671.92" height="117.99" style="fill:none;stroke:#D9E6EB;stroke-width:4.90"/>
	<text x="2986.09" y="215.42" style="font-family:'Helvetica';font-size:93.56px;fill:#000000" text-anchor="middle">Male</text>
	<rect x="596.72" y="2418.27" width="2766.43" height="326.34" style="fill:#FFFFFF"/>
	<rect x="599.60" y="2421.15" width="2760.67" height="320.58" style="fill:none;stroke:#000000;stroke-width:5.76"/>
	<line x1="639.91" y1="2511.46" x2="1014.38" y2="2511.46" style="stroke:#FF0000;stroke-width:8.64"/>
	<line x1="2133.08" y1="2511.46" x2="2507.42" y2="2511.46" style="stroke:#008000;stroke-width:8.64"/>
	<line x1="639.91" y1="2651.43" x2="1014.38" y2="2651.43" style="stroke:#FFD200;stroke-width:8.64"/>
	<line x1="2133.08" y1="2651.43" x2="2507.42" y2="2651.43" style="stroke:#1A476F;stroke-width:8.64"/>
	<text x="1074.40" y="2546.49" style="font-family:'Helvetica';font-size:99.99px;fill:#000000">Respiratory disease</text>
	<text x="2567.44" y="2546.49" style="font-family:'Helvetica';font-size:99.99px;fill:#000000">Asthma, mild</text>
	<text x="1074.40" y="2686.46" style="font-family:'Helvetica';font-size:99.99px;fill:#000000">Asthma, severe</text>
	<text x="2567.44" y="2686.46" style="font-family:'Helvetica';font-size:99.99px;fill:#000000">No comborbidity</text>
	<text x="1980.00" y="2353.56" style="font-family:'Helvetica';font-size:99.99px;fill:#000000" text-anchor="middle">Age (years)</text>
</svg>
