<?xml version="1.0" encoding="UTF-8" standalone="no"?>
<!-- This is a Stata 16.1 generated SVG file (http://www.stata.com) -->

<svg version="1.1" width="1600px" height="1164px" viewBox="0 0 3960 2880" xmlns="http://www.w3.org/2000/svg" xmlns:xlink="http://www.w3.org/1999/xlink">
	<desc>Stata Graph - Graph</desc>
	<rect x="0" y="0" width="3960" height="2880" style="fill:#EAF2F3;stroke:none"/>
	<rect x="0.00" y="0.00" width="3959.88" height="2880.00" style="fill:#EAF2F3"/>
	<rect x="2.88" y="2.88" width="3954.12" height="2874.24" style="fill:none;stroke:#EAF2F3;stroke-width:5.76"/>
	<rect x="401.69" y="258.27" width="1676.81" height="1837.87" style="fill:#FFFFFF"/>
	<rect x="404.14" y="260.72" width="1671.92" height="1832.97" style="fill:none;stroke:#FFFFFF;stroke-width:4.90"/>
	<line x1="401.69" y1="2042.31" x2="2078.51" y2="2042.31" style="stroke:#EAF2F3;stroke-width:7.34"/>
	<line x1="401.69" y1="1696.29" x2="2078.51" y2="1696.29" style="stroke:#EAF2F3;stroke-width:7.34"/>
	<line x1="401.69" y1="1350.15" x2="2078.51" y2="1350.15" style="stroke:#EAF2F3;stroke-width:7.34"/>
	<line x1="401.69" y1="1004.14" x2="2078.51" y2="1004.14" style="stroke:#EAF2F3;stroke-width:7.34"/>
	<line x1="401.69" y1="658.12" x2="2078.51" y2="658.12" style="stroke:#EAF2F3;stroke-width:7.34"/>
	<rect x="2147.68" y="258.27" width="1676.81" height="1837.87" style="fill:#FFFFFF"/>
	<rect x="2150.13" y="260.72" width="1671.92" height="1832.97" style="fill:none;stroke:#FFFFFF;stroke-width:4.90"/>
	<line x1="2147.68" y1="2042.31" x2="3824.49" y2="2042.31" style="stroke:#EAF2F3;stroke-width:7.34"/>
	<line x1="2147.68" y1="1696.29" x2="3824.49" y2="1696.29" style="stroke:#EAF2F3;stroke-width:7.34"/>
	<line x1="2147.68" y1="1350.15" x2="3824.49" y2="1350.15" style="stroke:#EAF2F3;stroke-width:7.34"/>
	<line x1="2147.68" y1="1004.14" x2="3824.49" y2="1004.14" style="stroke:#EAF2F3;stroke-width:7.34"/>
	<line x1="2147.68" y1="658.12" x2="3824.49" y2="658.12" style="stroke:#EAF2F3;stroke-width:7.34"/>
	<defs>
		<path id="path_WfvLZTpI" d="M455.52 2042.19 L455.52 2042.19 L480.89 2042.19 L506.14 2042.19 L531.51 2042.19 L556.75 2042.06 L582.12 2042.06 L607.37 2042.06 L632.73 2041.94 L657.98 2041.94 L683.35 2041.82 L708.59 2041.69 L733.96 2041.57 L759.21 2041.44 L784.58 2041.32 L809.82 2041.07 L835.19 2040.83 L860.43 2040.58 L885.80 2040.33 L911.05 2039.96 L936.42 2039.59 L961.66 2039.22 L987.03 2038.72 L1012.27 2038.23 L1037.64 2037.73 L1062.89 2037.11 L1088.26 2036.49 L1113.50 2035.75 L1138.87 2035.01 L1164.24 2034.14 L1189.48 2033.28 L1214.85 2032.29 L1240.10 2031.17 L1265.47 2029.93 L1290.71 2028.57 L1316.08 2027.21 L1341.33 2025.60 L1366.69 2023.87 L1391.94 2022.01 L1417.31 2019.91 L1442.55 2017.56 L1467.92 2015.08 L1493.17 2012.24 L1518.54 2009.14 L1543.78 2005.68 L1569.15 2001.84 L1594.39 1997.51 L1619.76 1992.68 L1645.01 1987.49 L1670.38 1981.55 L1695.62 1974.99 L1720.99 1967.56 L1746.24 1959.39 L1771.61 1950.24 L1796.85 1940.09 L1822.22 1928.70 L1847.46 1916.08 L1872.83 1901.85 L1898.20 1886.13 L1923.45 1868.56 L1948.82 1849.01 L1974.06 1827.10 L1999.43 1802.85 L2024.67 1775.87 L2024.67 1716.34 L1999.43 1749.51 L1974.06 1779.09 L1948.82 1805.82 L1923.45 1829.58 L1898.20 1850.99 L1872.83 1870.29 L1847.46 1887.49 L1822.22 1902.96 L1796.85 1916.82 L1771.61 1929.32 L1746.24 1940.46 L1720.99 1950.48 L1695.62 1959.52 L1670.38 1967.56 L1645.01 1974.86 L1619.76 1981.30 L1594.39 1987.24 L1569.15 1992.44 L1543.78 1997.14 L1518.54 2001.35 L1493.17 2005.18 L1467.92 2008.53 L1442.55 2011.62 L1417.31 2014.34 L1391.94 2016.82 L1366.69 2019.04 L1341.33 2021.02 L1316.08 2022.88 L1290.71 2024.61 L1265.47 2026.10 L1240.10 2027.58 L1214.85 2028.82 L1189.48 2030.06 L1164.24 2031.30 L1138.87 2032.29 L1113.50 2033.28 L1088.26 2034.27 L1062.89 2035.01 L1037.64 2035.87 L1012.27 2036.49 L987.03 2037.24 L961.66 2037.73 L936.42 2038.23 L911.05 2038.72 L885.80 2039.09 L860.43 2039.46 L835.19 2039.83 L809.82 2040.08 L784.58 2040.33 L759.21 2040.58 L733.96 2040.70 L708.59 2040.95 L683.35 2041.07 L657.98 2041.20 L632.73 2041.32 L607.37 2041.44 L582.12 2041.44 L556.75 2041.57 L531.51 2041.69 L506.14 2041.69 L480.89 2041.82 L455.52 2041.82 L455.52 2042.19 Z" stroke-linejoin="round"/>
	</defs>
	<defs>
		<clipPath id="clipPath_PNTFMkBp">
			<use xlink:href="#path_WfvLZTpI"/>
		</clipPath>
	</defs>
	<use xlink:href="#path_WfvLZTpI" style="stroke:none;fill:#E6E6E6"/>
	<use xlink:href="#path_WfvLZTpI" style="fill:none;stroke:#E0E0E0;stroke-width:14.69" clip-path="url(#clipPath_PNTFMkBp)"/>
	<defs>
		<path id="path_htQJnoKW" d="M455.52 2042.19 L455.52 2042.19 L480.89 2042.06 L506.14 2042.06 L531.51 2041.94 L556.75 2041.94 L582.12 2041.82 L607.37 2041.82 L632.73 2041.69 L657.98 2041.44 L683.35 2041.32 L708.59 2041.07 L733.96 2040.83 L759.21 2040.58 L784.58 2040.21 L809.82 2039.71 L835.19 2039.22 L860.43 2038.72 L885.80 2038.10 L911.05 2037.36 L936.42 2036.49 L961.66 2035.63 L987.03 2034.64 L1012.27 2033.65 L1037.64 2032.41 L1062.89 2031.17 L1088.26 2029.81 L1113.50 2028.33 L1138.87 2026.72 L1164.24 2024.86 L1189.48 2023.00 L1214.85 2020.78 L1240.10 2018.55 L1265.47 2015.95 L1290.71 2013.10 L1316.08 2010.13 L1341.33 2006.79 L1366.69 2003.08 L1391.94 1999.12 L1417.31 1994.66 L1442.55 1989.71 L1467.92 1984.39 L1493.17 1978.33 L1518.54 1971.77 L1543.78 1964.35 L1569.15 1956.18 L1594.39 1947.02 L1619.76 1936.87 L1645.01 1925.61 L1670.38 1912.99 L1695.62 1899.00 L1720.99 1883.41 L1746.24 1865.96 L1771.61 1846.41 L1796.85 1824.75 L1822.22 1800.50 L1847.46 1773.52 L1872.83 1743.32 L1898.20 1709.78 L1923.45 1672.29 L1948.82 1630.46 L1974.06 1583.93 L1999.43 1532.07 L2024.67 1474.40 L2024.67 1332.58 L1999.43 1404.48 L1974.06 1468.96 L1948.82 1526.88 L1923.45 1578.73 L1898.20 1625.38 L1872.83 1667.09 L1847.46 1704.71 L1822.22 1738.37 L1796.85 1768.57 L1771.61 1795.67 L1746.24 1820.05 L1720.99 1841.95 L1695.62 1861.51 L1670.38 1879.20 L1645.01 1895.04 L1619.76 1909.27 L1594.39 1922.02 L1569.15 1933.41 L1543.78 1943.68 L1518.54 1952.96 L1493.17 1961.25 L1467.92 1968.68 L1442.55 1975.36 L1417.31 1981.30 L1391.94 1986.74 L1366.69 1991.57 L1341.33 1996.03 L1316.08 1999.99 L1290.71 2003.70 L1265.47 2007.04 L1240.10 2010.13 L1214.85 2013.10 L1189.48 2015.83 L1164.24 2018.30 L1138.87 2020.65 L1113.50 2022.76 L1088.26 2024.74 L1062.89 2026.59 L1037.64 2028.33 L1012.27 2029.81 L987.03 2031.17 L961.66 2032.53 L936.42 2033.65 L911.05 2034.64 L885.80 2035.50 L860.43 2036.25 L835.19 2036.86 L809.82 2037.48 L784.58 2037.98 L759.21 2038.47 L733.96 2038.84 L708.59 2039.22 L683.35 2039.59 L657.98 2039.83 L632.73 2040.21 L607.37 2040.33 L582.12 2040.58 L556.75 2040.83 L531.51 2040.95 L506.14 2041.07 L480.89 2041.20 L455.52 2041.32 L455.52 2042.19 Z" stroke-linejoin="round"/>
	</defs>
	<defs>
		<clipPath id="clipPath_hRkARsuV">
			<use xlink:href="#path_htQJnoKW"/>
		</clipPath>
	</defs>
	<use xlink:href="#path_htQJnoKW" style="stroke:none;fill:#E6E6E6"/>
	<use xlink:href="#path_htQJnoKW" style="fill:none;stroke:#E0E0E0;stroke-width:14.69" clip-path="url(#clipPath_hRkARsuV)"/>
	<defs>
		<path id="path_rjKXnrbv" d="M455.52 2042.06 L455.52 2042.06 L480.89 2042.06 L506.14 2042.06 L531.51 2041.94 L556.75 2041.82 L582.12 2041.82 L607.37 2041.69 L632.73 2041.57 L657.98 2041.32 L683.35 2041.20 L708.59 2040.95 L733.96 2040.58 L759.21 2040.21 L784.58 2039.83 L809.82 2039.34 L835.19 2038.84 L860.43 2038.10 L885.80 2037.36 L911.05 2036.62 L936.42 2035.63 L961.66 2034.64 L987.03 2033.52 L1012.27 2032.29 L1037.64 2030.92 L1062.89 2029.56 L1088.26 2027.95 L1113.50 2026.22 L1138.87 2024.37 L1164.24 2022.26 L1189.48 2020.03 L1214.85 2017.68 L1240.10 2014.96 L1265.47 2011.99 L1290.71 2008.90 L1316.08 2005.31 L1341.33 2001.47 L1366.69 1997.26 L1391.94 1992.68 L1417.31 1987.61 L1442.55 1982.04 L1467.92 1975.85 L1493.17 1969.05 L1518.54 1961.38 L1543.78 1952.96 L1569.15 1943.55 L1594.39 1933.16 L1619.76 1921.53 L1645.01 1908.53 L1670.38 1894.18 L1695.62 1878.09 L1720.99 1860.14 L1746.24 1840.22 L1771.61 1817.94 L1796.85 1793.07 L1822.22 1765.35 L1847.46 1734.53 L1872.83 1700.13 L1898.20 1661.64 L1923.45 1618.95 L1948.82 1571.18 L1974.06 1518.09 L1999.43 1458.93 L2024.67 1393.10 L2024.67 1193.98 L1999.43 1279.99 L1974.06 1357.21 L1948.82 1426.51 L1923.45 1488.64 L1898.20 1544.45 L1872.83 1594.44 L1847.46 1639.37 L1822.22 1679.59 L1796.85 1715.72 L1771.61 1748.15 L1746.24 1777.23 L1720.99 1803.34 L1695.62 1826.73 L1670.38 1847.77 L1645.01 1866.70 L1619.76 1883.66 L1594.39 1898.88 L1569.15 1912.49 L1543.78 1924.74 L1518.54 1935.76 L1493.17 1945.66 L1467.92 1954.57 L1442.55 1962.49 L1417.31 1969.67 L1391.94 1976.10 L1366.69 1981.92 L1341.33 1987.12 L1316.08 1991.94 L1290.71 1996.40 L1265.47 2000.36 L1240.10 2004.07 L1214.85 2007.54 L1189.48 2010.75 L1164.24 2013.72 L1138.87 2016.57 L1113.50 2019.04 L1088.26 2021.52 L1062.89 2023.62 L1037.64 2025.60 L1012.27 2027.46 L987.03 2029.19 L961.66 2030.68 L936.42 2032.04 L911.05 2033.15 L885.80 2034.27 L860.43 2035.13 L835.19 2035.87 L809.82 2036.62 L784.58 2037.24 L759.21 2037.85 L733.96 2038.35 L708.59 2038.72 L683.35 2039.09 L657.98 2039.46 L632.73 2039.83 L607.37 2040.08 L582.12 2040.33 L556.75 2040.45 L531.51 2040.70 L506.14 2040.83 L480.89 2041.07 L455.52 2041.20 L455.52 2042.06 Z" stroke-linejoin="round"/>
	</defs>
	<defs>
		<clipPath id="clipPath_CSmkKxKD">
			<use xlink:href="#path_rjKXnrbv"/>
		</clipPath>
	</defs>
	<use xlink:href="#path_rjKXnrbv" style="stroke:none;fill:#E6E6E6"/>
	<use xlink:href="#path_rjKXnrbv" style="fill:none;stroke:#E0E0E0;stroke-width:14.69" clip-path="url(#clipPath_CSmkKxKD)"/>
	<path d=" M455.52 2041.94 L480.77 2041.94 L506.14 2041.82 L531.38 2041.69 L556.75 2041.57 L582.00 2041.44 L607.37 2041.32 L632.61 2041.20 L657.98 2040.95 L683.22 2040.70 L708.59 2040.45 L733.84 2040.08 L759.21 2039.71 L784.45 2039.34 L809.82 2038.84 L835.07 2038.35 L860.43 2037.73 L885.68 2036.99 L911.05 2036.12 L936.29 2035.26 L961.66 2034.27 L986.91 2033.15 L1012.27 2031.91 L1037.52 2030.55 L1062.89 2029.19 L1088.13 2027.58 L1113.50 2025.85 L1138.87 2023.99 L1164.12 2021.89 L1189.48 2019.66 L1214.73 2017.31 L1240.10 2014.71 L1265.34 2011.87 L1290.71 2008.77 L1315.96 2005.43 L1341.33 2001.72 L1366.57 1997.76 L1391.94 1993.30 L1417.18 1988.48 L1442.55 1983.03 L1467.80 1977.09 L1493.17 1970.41 L1518.41 1962.98 L1543.78 1954.69 L1569.03 1945.53 L1594.39 1935.26 L1619.64 1923.88 L1645.01 1911.25 L1670.25 1897.15 L1695.62 1881.43 L1720.87 1863.86 L1746.24 1844.30 L1771.48 1822.52 L1796.85 1798.27 L1822.10 1771.29 L1847.46 1741.09 L1872.71 1707.43 L1898.08 1669.93 L1923.45 1628.23 L1948.69 1581.57 L1974.06 1529.72 L1999.31 1471.93 L2024.67 1407.45" stroke-linejoin="round" style="fill:none;stroke:#008000;stroke-width:7.34"/>
	<path d=" M455.52 2041.94 L480.77 2041.82 L506.14 2041.69 L531.38 2041.57 L556.75 2041.44 L582.00 2041.32 L607.37 2041.20 L632.61 2040.95 L657.98 2040.70 L683.22 2040.45 L708.59 2040.08 L733.84 2039.71 L759.21 2039.34 L784.45 2038.84 L809.82 2038.23 L835.07 2037.61 L860.43 2036.86 L885.68 2036.12 L911.05 2035.13 L936.29 2034.02 L961.66 2032.90 L986.91 2031.67 L1012.27 2030.18 L1037.52 2028.57 L1062.89 2026.96 L1088.13 2025.11 L1113.50 2023.00 L1138.87 2020.90 L1164.12 2018.43 L1189.48 2015.83 L1214.73 2013.10 L1240.10 2010.01 L1265.34 2006.79 L1290.71 2003.08 L1315.96 1999.24 L1341.33 1994.91 L1366.57 1990.21 L1391.94 1985.01 L1417.18 1979.32 L1442.55 1973.01 L1467.80 1965.95 L1493.17 1958.16 L1518.41 1949.49 L1543.78 1939.84 L1569.03 1929.20 L1594.39 1917.19 L1619.64 1903.95 L1645.01 1889.10 L1670.25 1872.64 L1695.62 1854.20 L1720.87 1833.78 L1746.24 1810.89 L1771.48 1785.40 L1796.85 1757.06 L1822.10 1725.38 L1847.46 1690.23 L1872.71 1650.88 L1898.08 1607.07 L1923.45 1558.18 L1948.69 1503.73 L1974.06 1443.09 L1999.31 1375.52 L2024.67 1300.28" stroke-linejoin="round" style="fill:none;stroke:#FF7F00;stroke-width:7.34"/>
	<path d=" M455.52 2042.19 L480.77 2042.19 L506.14 2042.06 L531.38 2042.06 L556.75 2041.94 L582.00 2041.94 L607.37 2041.82 L632.61 2041.82 L657.98 2041.69 L683.22 2041.57 L708.59 2041.44 L733.84 2041.32 L759.21 2041.20 L784.45 2040.95 L809.82 2040.70 L835.07 2040.45 L860.43 2040.21 L885.68 2039.83 L911.05 2039.46 L936.29 2039.09 L961.66 2038.60 L986.91 2038.10 L1012.27 2037.48 L1037.52 2036.86 L1062.89 2036.25 L1088.13 2035.50 L1113.50 2034.64 L1138.87 2033.77 L1164.12 2032.90 L1189.48 2031.79 L1214.73 2030.68 L1240.10 2029.56 L1265.34 2028.20 L1290.71 2026.84 L1315.96 2025.23 L1341.33 2023.50 L1366.57 2021.64 L1391.94 2019.54 L1417.18 2017.31 L1442.55 2014.84 L1467.80 2011.99 L1493.17 2008.90 L1518.41 2005.56 L1543.78 2001.72 L1569.03 1997.39 L1594.39 1992.68 L1619.64 1987.36 L1645.01 1981.55 L1670.25 1974.99 L1695.62 1967.69 L1720.87 1959.52 L1746.24 1950.48 L1771.48 1940.34 L1796.85 1929.08 L1822.10 1916.58 L1847.46 1902.59 L1872.71 1886.88 L1898.08 1869.55 L1923.45 1850.12 L1948.69 1828.46 L1974.06 1804.46 L1999.31 1777.60 L2024.67 1747.65" stroke-linejoin="round" style="fill:none;stroke:#1A476F;stroke-width:7.34"/>
	<line x1="455.52" y1="1981.55" x2="458.37" y2="1981.55" style="stroke:#000000;stroke-width:7.34"/>
	<line x1="478.54" y1="1981.55" x2="480.77" y2="1981.55" style="stroke:#000000;stroke-width:7.34"/>
	<line x1="480.77" y1="1981.55" x2="481.39" y2="1981.55" style="stroke:#000000;stroke-width:7.34"/>
	<line x1="501.56" y1="1981.55" x2="504.40" y2="1981.55" style="stroke:#000000;stroke-width:7.34"/>
	<line x1="524.58" y1="1981.55" x2="527.42" y2="1981.55" style="stroke:#000000;stroke-width:7.34"/>
	<line x1="547.59" y1="1981.55" x2="550.44" y2="1981.55" style="stroke:#000000;stroke-width:7.34"/>
	<line x1="570.61" y1="1981.55" x2="573.58" y2="1981.55" style="stroke:#000000;stroke-width:7.34"/>
	<line x1="593.75" y1="1981.55" x2="596.60" y2="1981.55" style="stroke:#000000;stroke-width:7.34"/>
	<line x1="616.77" y1="1981.55" x2="619.62" y2="1981.55" style="stroke:#000000;stroke-width:7.34"/>
	<line x1="639.79" y1="1981.55" x2="642.63" y2="1981.55" style="stroke:#000000;stroke-width:7.34"/>
	<line x1="662.80" y1="1981.55" x2="665.65" y2="1981.55" style="stroke:#000000;stroke-width:7.34"/>
	<line x1="685.82" y1="1981.55" x2="688.67" y2="1981.55" style="stroke:#000000;stroke-width:7.34"/>
	<line x1="708.84" y1="1981.55" x2="711.69" y2="1981.55" style="stroke:#000000;stroke-width:7.34"/>
	<line x1="731.86" y1="1981.55" x2="733.84" y2="1981.55" style="stroke:#000000;stroke-width:7.34"/>
	<line x1="733.84" y1="1981.55" x2="734.70" y2="1981.55" style="stroke:#000000;stroke-width:7.34"/>
	<line x1="754.88" y1="1981.55" x2="757.72" y2="1981.55" style="stroke:#000000;stroke-width:7.34"/>
	<line x1="777.89" y1="1981.55" x2="780.74" y2="1981.55" style="stroke:#000000;stroke-width:7.34"/>
	<line x1="800.91" y1="1981.55" x2="803.88" y2="1981.55" style="stroke:#000000;stroke-width:7.34"/>
	<line x1="823.93" y1="1981.55" x2="826.90" y2="1981.55" style="stroke:#000000;stroke-width:7.34"/>
	<line x1="847.07" y1="1981.55" x2="849.91" y2="1981.55" style="stroke:#000000;stroke-width:7.34"/>
	<line x1="870.09" y1="1981.55" x2="872.93" y2="1981.55" style="stroke:#000000;stroke-width:7.34"/>
	<line x1="893.10" y1="1981.55" x2="895.95" y2="1981.55" style="stroke:#000000;stroke-width:7.34"/>
	<line x1="916.12" y1="1981.55" x2="918.97" y2="1981.55" style="stroke:#000000;stroke-width:7.34"/>
	<line x1="939.14" y1="1981.55" x2="941.99" y2="1981.55" style="stroke:#000000;stroke-width:7.34"/>
	<line x1="962.16" y1="1981.55" x2="965.00" y2="1981.55" style="stroke:#000000;stroke-width:7.34"/>
	<line x1="985.17" y1="1981.55" x2="986.91" y2="1981.55" style="stroke:#000000;stroke-width:7.34"/>
	<line x1="986.91" y1="1981.55" x2="988.02" y2="1981.55" style="stroke:#000000;stroke-width:7.34"/>
	<line x1="1008.19" y1="1981.55" x2="1011.04" y2="1981.55" style="stroke:#000000;stroke-width:7.34"/>
	<line x1="1031.21" y1="1981.55" x2="1034.06" y2="1981.55" style="stroke:#000000;stroke-width:7.34"/>
	<line x1="1054.23" y1="1981.55" x2="1057.20" y2="1981.55" style="stroke:#000000;stroke-width:7.34"/>
	<line x1="1077.24" y1="1981.55" x2="1080.21" y2="1981.55" style="stroke:#000000;stroke-width:7.34"/>
	<line x1="1100.38" y1="1981.55" x2="1103.23" y2="1981.55" style="stroke:#000000;stroke-width:7.34"/>
	<line x1="1123.40" y1="1981.55" x2="1126.25" y2="1981.55" style="stroke:#000000;stroke-width:7.34"/>
	<line x1="1146.42" y1="1981.55" x2="1149.27" y2="1981.55" style="stroke:#000000;stroke-width:7.34"/>
	<line x1="1169.44" y1="1981.55" x2="1172.28" y2="1981.55" style="stroke:#000000;stroke-width:7.34"/>
	<line x1="1192.45" y1="1981.55" x2="1195.30" y2="1981.55" style="stroke:#000000;stroke-width:7.34"/>
	<line x1="1215.47" y1="1981.55" x2="1218.32" y2="1981.55" style="stroke:#000000;stroke-width:7.34"/>
	<line x1="1238.49" y1="1981.55" x2="1240.10" y2="1981.55" style="stroke:#000000;stroke-width:7.34"/>
	<line x1="1240.10" y1="1981.55" x2="1241.34" y2="1981.55" style="stroke:#000000;stroke-width:7.34"/>
	<line x1="1261.51" y1="1981.55" x2="1264.35" y2="1981.55" style="stroke:#000000;stroke-width:7.34"/>
	<line x1="1284.53" y1="1981.55" x2="1287.37" y2="1981.55" style="stroke:#000000;stroke-width:7.34"/>
	<line x1="1307.54" y1="1981.55" x2="1310.51" y2="1981.55" style="stroke:#000000;stroke-width:7.34"/>
	<line x1="1330.56" y1="1981.55" x2="1333.53" y2="1981.55" style="stroke:#000000;stroke-width:7.34"/>
	<line x1="1353.70" y1="1981.55" x2="1356.55" y2="1981.55" style="stroke:#000000;stroke-width:7.34"/>
	<line x1="1376.72" y1="1981.55" x2="1379.57" y2="1981.55" style="stroke:#000000;stroke-width:7.34"/>
	<line x1="1399.74" y1="1981.55" x2="1402.58" y2="1981.55" style="stroke:#000000;stroke-width:7.34"/>
	<line x1="1422.75" y1="1981.55" x2="1425.60" y2="1981.55" style="stroke:#000000;stroke-width:7.34"/>
	<line x1="1445.77" y1="1981.55" x2="1448.62" y2="1981.55" style="stroke:#000000;stroke-width:7.34"/>
	<line x1="1468.79" y1="1981.55" x2="1471.63" y2="1981.55" style="stroke:#000000;stroke-width:7.34"/>
	<line x1="1491.81" y1="1981.55" x2="1493.17" y2="1981.55" style="stroke:#000000;stroke-width:7.34"/>
	<line x1="1493.17" y1="1981.55" x2="1494.65" y2="1981.55" style="stroke:#000000;stroke-width:7.34"/>
	<line x1="1514.82" y1="1981.55" x2="1517.67" y2="1981.55" style="stroke:#000000;stroke-width:7.34"/>
	<line x1="1537.84" y1="1981.55" x2="1540.69" y2="1981.55" style="stroke:#000000;stroke-width:7.34"/>
	<line x1="1560.86" y1="1981.55" x2="1563.83" y2="1981.55" style="stroke:#000000;stroke-width:7.34"/>
	<line x1="1584.00" y1="1981.55" x2="1586.85" y2="1981.55" style="stroke:#000000;stroke-width:7.34"/>
	<line x1="1607.02" y1="1981.55" x2="1609.86" y2="1981.55" style="stroke:#000000;stroke-width:7.34"/>
	<line x1="1630.04" y1="1981.55" x2="1632.88" y2="1981.55" style="stroke:#000000;stroke-width:7.34"/>
	<line x1="1653.05" y1="1981.55" x2="1655.90" y2="1981.55" style="stroke:#000000;stroke-width:7.34"/>
	<line x1="1676.07" y1="1981.55" x2="1678.92" y2="1981.55" style="stroke:#000000;stroke-width:7.34"/>
	<line x1="1699.09" y1="1981.55" x2="1701.93" y2="1981.55" style="stroke:#000000;stroke-width:7.34"/>
	<line x1="1722.11" y1="1981.55" x2="1724.95" y2="1981.55" style="stroke:#000000;stroke-width:7.34"/>
	<line x1="1745.12" y1="1981.55" x2="1746.24" y2="1981.55" style="stroke:#000000;stroke-width:7.34"/>
	<line x1="1746.24" y1="1981.55" x2="1747.97" y2="1981.55" style="stroke:#000000;stroke-width:7.34"/>
	<line x1="1768.14" y1="1981.55" x2="1770.99" y2="1981.55" style="stroke:#000000;stroke-width:7.34"/>
	<line x1="1791.16" y1="1981.55" x2="1794.00" y2="1981.55" style="stroke:#000000;stroke-width:7.34"/>
	<line x1="1814.17" y1="1981.55" x2="1817.14" y2="1981.55" style="stroke:#000000;stroke-width:7.34"/>
	<line x1="1837.32" y1="1981.55" x2="1840.16" y2="1981.55" style="stroke:#000000;stroke-width:7.34"/>
	<line x1="1860.33" y1="1981.55" x2="1863.18" y2="1981.55" style="stroke:#000000;stroke-width:7.34"/>
	<line x1="1883.35" y1="1981.55" x2="1886.20" y2="1981.55" style="stroke:#000000;stroke-width:7.34"/>
	<line x1="1906.37" y1="1981.55" x2="1909.21" y2="1981.55" style="stroke:#000000;stroke-width:7.34"/>
	<line x1="1929.39" y1="1981.55" x2="1932.23" y2="1981.55" style="stroke:#000000;stroke-width:7.34"/>
	<line x1="1952.40" y1="1981.55" x2="1955.25" y2="1981.55" style="stroke:#000000;stroke-width:7.34"/>
	<line x1="1975.42" y1="1981.55" x2="1978.27" y2="1981.55" style="stroke:#000000;stroke-width:7.34"/>
	<line x1="1998.44" y1="1981.55" x2="1999.31" y2="1981.55" style="stroke:#000000;stroke-width:7.34"/>
	<line x1="1999.31" y1="1981.55" x2="2001.29" y2="1981.55" style="stroke:#000000;stroke-width:7.34"/>
	<line x1="2021.46" y1="1981.55" x2="2024.30" y2="1981.55" style="stroke:#000000;stroke-width:7.34"/>
	<path d="" stroke-linejoin="round" style="fill:none;stroke:#000000;stroke-width:7.34"/>
	<defs>
		<path id="path_BOUFbniu" d="M2201.51 2042.19 L2201.51 2042.19 L2226.88 2042.19 L2252.13 2042.06 L2277.49 2042.06 L2302.74 2042.06 L2328.11 2041.94 L2353.35 2041.94 L2378.72 2041.82 L2403.97 2041.69 L2429.34 2041.57 L2454.58 2041.44 L2479.95 2041.20 L2505.20 2041.07 L2530.56 2040.83 L2555.81 2040.45 L2581.18 2040.08 L2606.42 2039.71 L2631.79 2039.22 L2657.04 2038.72 L2682.41 2038.23 L2707.65 2037.48 L2733.02 2036.86 L2758.26 2036.12 L2783.63 2035.26 L2808.88 2034.39 L2834.25 2033.40 L2859.49 2032.29 L2884.86 2031.17 L2910.11 2029.81 L2935.47 2028.45 L2960.72 2026.96 L2986.09 2025.23 L3011.46 2023.38 L3036.70 2021.40 L3062.07 2019.17 L3087.32 2016.82 L3112.68 2014.09 L3137.93 2011.25 L3163.30 2008.03 L3188.54 2004.57 L3213.91 2000.61 L3239.16 1996.27 L3264.53 1991.57 L3289.77 1986.25 L3315.14 1980.31 L3340.38 1973.75 L3365.75 1966.57 L3391.00 1958.40 L3416.37 1949.37 L3441.61 1939.35 L3466.98 1928.09 L3492.22 1915.59 L3517.59 1901.73 L3542.84 1886.13 L3568.21 1868.81 L3593.45 1849.50 L3618.82 1827.84 L3644.07 1803.84 L3669.43 1777.11 L3694.68 1747.16 L3720.05 1713.99 L3745.42 1676.99 L3770.66 1635.78 L3770.66 1542.96 L3745.42 1593.70 L3720.05 1639.24 L3694.68 1680.08 L3669.43 1716.71 L3644.07 1749.51 L3618.82 1778.96 L3593.45 1805.32 L3568.21 1829.08 L3542.84 1850.37 L3517.59 1869.43 L3492.22 1886.50 L3466.98 1901.85 L3441.61 1915.71 L3416.37 1928.09 L3391.00 1939.10 L3365.75 1949.12 L3340.38 1958.03 L3315.14 1966.08 L3289.77 1973.26 L3264.53 1979.81 L3239.16 1985.63 L3213.91 1990.83 L3188.54 1995.41 L3163.30 1999.61 L3137.93 2003.33 L3112.68 2006.79 L3087.32 2009.76 L3062.07 2012.61 L3036.70 2015.21 L3011.46 2017.56 L2986.09 2019.79 L2960.72 2021.77 L2935.47 2023.62 L2910.11 2025.36 L2884.86 2027.09 L2859.49 2028.57 L2834.25 2029.93 L2808.88 2031.30 L2783.63 2032.41 L2758.26 2033.52 L2733.02 2034.51 L2707.65 2035.38 L2682.41 2036.12 L2657.04 2036.86 L2631.79 2037.48 L2606.42 2037.98 L2581.18 2038.47 L2555.81 2038.84 L2530.56 2039.22 L2505.20 2039.59 L2479.95 2039.83 L2454.58 2040.21 L2429.34 2040.33 L2403.97 2040.58 L2378.72 2040.83 L2353.35 2040.95 L2328.11 2041.07 L2302.74 2041.20 L2277.49 2041.32 L2252.13 2041.44 L2226.88 2041.57 L2201.51 2041.57 L2201.51 2042.19 Z" stroke-linejoin="round"/>
	</defs>
	<defs>
		<clipPath id="clipPath_zAmnkwqm">
			<use xlink:href="#path_BOUFbniu"/>
		</clipPath>
	</defs>
	<use xlink:href="#path_BOUFbniu" style="stroke:none;fill:#E6E6E6"/>
	<use xlink:href="#path_BOUFbniu" style="fill:none;stroke:#E0E0E0;stroke-width:14.69" clip-path="url(#clipPath_zAmnkwqm)"/>
	<defs>
		<path id="path_sfyfsEXz" d="M2201.51 2042.06 L2201.51 2042.06 L2226.88 2041.94 L2252.13 2041.94 L2277.49 2041.82 L2302.74 2041.69 L2328.11 2041.57 L2353.35 2041.44 L2378.72 2041.32 L2403.97 2041.07 L2429.34 2040.83 L2454.58 2040.45 L2479.95 2040.08 L2505.20 2039.59 L2530.56 2039.09 L2555.81 2038.47 L2581.18 2037.73 L2606.42 2036.86 L2631.79 2035.87 L2657.04 2034.76 L2682.41 2033.52 L2707.65 2032.16 L2733.02 2030.68 L2758.26 2029.07 L2783.63 2027.21 L2808.88 2025.36 L2834.25 2023.25 L2859.49 2020.90 L2884.86 2018.43 L2910.11 2015.70 L2935.47 2012.73 L2960.72 2009.52 L2986.09 2005.93 L3011.46 2001.97 L3036.70 1997.76 L3062.07 1993.06 L3087.32 1987.98 L3112.68 1982.29 L3137.93 1976.23 L3163.30 1969.42 L3188.54 1961.87 L3213.91 1953.70 L3239.16 1944.54 L3264.53 1934.40 L3289.77 1923.01 L3315.14 1910.51 L3340.38 1896.65 L3365.75 1881.06 L3391.00 1863.86 L3416.37 1844.68 L3441.61 1823.14 L3466.98 1799.26 L3492.22 1772.65 L3517.59 1742.95 L3542.84 1709.78 L3568.21 1672.78 L3593.45 1631.57 L3618.82 1585.66 L3644.07 1534.30 L3669.43 1477.25 L3694.68 1413.52 L3720.05 1342.61 L3745.42 1263.65 L3770.66 1175.66 L3770.66 955.75 L3745.42 1065.89 L3720.05 1164.65 L3694.68 1253.38 L3669.43 1332.95 L3644.07 1404.24 L3618.82 1468.34 L3593.45 1525.76 L3568.21 1577.37 L3542.84 1623.65 L3517.59 1665.11 L3492.22 1702.48 L3466.98 1735.90 L3441.61 1765.97 L3416.37 1792.95 L3391.00 1817.08 L3365.75 1838.86 L3340.38 1858.41 L3315.14 1875.98 L3289.77 1891.70 L3264.53 1905.81 L3239.16 1918.43 L3213.91 1929.82 L3188.54 1939.97 L3163.30 1949.12 L3137.93 1957.29 L3112.68 1964.72 L3087.32 1971.52 L3062.07 1977.59 L3036.70 1983.28 L3011.46 1988.48 L2986.09 1993.18 L2960.72 1997.63 L2935.47 2001.72 L2910.11 2005.56 L2884.86 2009.14 L2859.49 2012.36 L2834.25 2015.46 L2808.88 2018.30 L2783.63 2020.90 L2758.26 2023.25 L2733.02 2025.36 L2707.65 2027.34 L2682.41 2028.94 L2657.04 2030.55 L2631.79 2031.79 L2606.42 2033.03 L2581.18 2034.02 L2555.81 2035.01 L2530.56 2035.75 L2505.20 2036.49 L2479.95 2037.11 L2454.58 2037.73 L2429.34 2038.23 L2403.97 2038.60 L2378.72 2038.97 L2353.35 2039.34 L2328.11 2039.71 L2302.74 2039.96 L2277.49 2040.21 L2252.13 2040.45 L2226.88 2040.58 L2201.51 2040.83 L2201.51 2042.06 Z" stroke-linejoin="round"/>
	</defs>
	<defs>
		<clipPath id="clipPath_ZlZRfwPF">
			<use xlink:href="#path_sfyfsEXz"/>
		</clipPath>
	</defs>
	<use xlink:href="#path_sfyfsEXz" style="stroke:none;fill:#E6E6E6"/>
	<use xlink:href="#path_sfyfsEXz" style="fill:none;stroke:#E0E0E0;stroke-width:14.69" clip-path="url(#clipPath_ZlZRfwPF)"/>
	<defs>
		<path id="path_cOCIrrpD" d="M2201.51 2042.06 L2201.51 2042.06 L2226.88 2041.94 L2252.13 2041.82 L2277.49 2041.82 L2302.74 2041.69 L2328.11 2041.57 L2353.35 2041.32 L2378.72 2041.07 L2403.97 2040.83 L2429.34 2040.58 L2454.58 2040.21 L2479.95 2039.71 L2505.20 2039.22 L2530.56 2038.60 L2555.81 2037.85 L2581.18 2036.99 L2606.42 2036.00 L2631.79 2034.76 L2657.04 2033.52 L2682.41 2032.16 L2707.65 2030.55 L2733.02 2028.82 L2758.26 2026.96 L2783.63 2024.98 L2808.88 2022.76 L2834.25 2020.41 L2859.49 2017.68 L2884.86 2014.84 L2910.11 2011.74 L2935.47 2008.28 L2960.72 2004.57 L2986.09 2000.48 L3011.46 1996.03 L3036.70 1991.08 L3062.07 1985.75 L3087.32 1979.94 L3112.68 1973.50 L3137.93 1966.45 L3163.30 1958.65 L3188.54 1950.11 L3213.91 1940.58 L3239.16 1930.07 L3264.53 1918.43 L3289.77 1905.56 L3315.14 1891.21 L3340.38 1875.24 L3365.75 1857.42 L3391.00 1837.62 L3416.37 1815.59 L3441.61 1791.09 L3466.98 1763.62 L3492.22 1733.17 L3517.59 1699.14 L3542.84 1661.27 L3568.21 1618.95 L3593.45 1571.80 L3618.82 1519.20 L3644.07 1460.67 L3669.43 1395.32 L3694.68 1322.56 L3720.05 1241.62 L3745.42 1151.41 L3770.66 1051.04 L3770.66 744.75 L3745.42 876.42 L3720.05 994.61 L3694.68 1100.54 L3669.43 1195.71 L3644.07 1280.98 L3618.82 1357.58 L3593.45 1426.26 L3568.21 1487.77 L3542.84 1543.09 L3517.59 1592.71 L3492.22 1637.14 L3466.98 1677.11 L3441.61 1713.00 L3416.37 1745.18 L3391.00 1774.01 L3365.75 1799.88 L3340.38 1823.14 L3315.14 1844.06 L3289.77 1862.87 L3264.53 1879.70 L3239.16 1894.67 L3213.91 1908.28 L3188.54 1920.41 L3163.30 1931.30 L3137.93 1941.08 L3112.68 1949.99 L3087.32 1958.03 L3062.07 1965.34 L3036.70 1972.02 L3011.46 1978.21 L2986.09 1983.90 L2960.72 1989.22 L2935.47 1994.17 L2910.11 1998.62 L2884.86 2002.96 L2859.49 2006.79 L2834.25 2010.51 L2808.88 2013.85 L2783.63 2016.82 L2758.26 2019.66 L2733.02 2022.26 L2707.65 2024.49 L2682.41 2026.59 L2657.04 2028.33 L2631.79 2029.93 L2606.42 2031.30 L2581.18 2032.53 L2555.81 2033.65 L2530.56 2034.64 L2505.20 2035.50 L2479.95 2036.25 L2454.58 2036.86 L2429.34 2037.48 L2403.97 2037.98 L2378.72 2038.47 L2353.35 2038.84 L2328.11 2039.22 L2302.74 2039.59 L2277.49 2039.83 L2252.13 2040.08 L2226.88 2040.33 L2201.51 2040.58 L2201.51 2042.06 Z" stroke-linejoin="round"/>
	</defs>
	<defs>
		<clipPath id="clipPath_dwPnEcyt">
			<use xlink:href="#path_cOCIrrpD"/>
		</clipPath>
	</defs>
	<use xlink:href="#path_cOCIrrpD" style="stroke:none;fill:#E6E6E6"/>
	<use xlink:href="#path_cOCIrrpD" style="fill:none;stroke:#E0E0E0;stroke-width:14.69" clip-path="url(#clipPath_dwPnEcyt)"/>
	<path d=" M2201.39 2041.82 L2226.76 2041.69 L2252.13 2041.57 L2277.37 2041.44 L2302.74 2041.20 L2327.99 2041.07 L2353.35 2040.83 L2378.60 2040.58 L2403.97 2040.21 L2429.21 2039.83 L2454.58 2039.46 L2479.83 2038.97 L2505.20 2038.35 L2530.44 2037.73 L2555.81 2036.99 L2581.05 2036.12 L2606.42 2035.26 L2631.67 2034.14 L2657.04 2032.90 L2682.28 2031.54 L2707.65 2030.06 L2732.89 2028.33 L2758.26 2026.47 L2783.51 2024.37 L2808.88 2022.14 L2834.12 2019.79 L2859.49 2017.06 L2884.74 2014.22 L2910.11 2011.12 L2935.35 2007.78 L2960.72 2004.07 L2986.09 2000.11 L3011.33 1995.78 L3036.70 1991.08 L3061.95 1985.88 L3087.32 1980.31 L3112.56 1974.12 L3137.93 1967.44 L3163.17 1959.89 L3188.54 1951.72 L3213.79 1942.44 L3239.16 1932.29 L3264.40 1920.91 L3289.77 1908.28 L3315.01 1894.30 L3340.38 1878.71 L3365.63 1861.26 L3391.00 1841.95 L3416.24 1820.30 L3441.61 1796.29 L3466.86 1769.56 L3492.22 1739.61 L3517.47 1706.32 L3542.84 1669.19 L3568.08 1627.86 L3593.45 1581.82 L3618.70 1530.34 L3644.07 1473.04 L3669.31 1409.19 L3694.68 1338.03 L3719.93 1258.70 L3745.29 1170.46 L3770.66 1071.96" stroke-linejoin="round" style="fill:none;stroke:#008000;stroke-width:7.34"/>
	<path d=" M2201.39 2041.69 L2226.76 2041.57 L2252.13 2041.44 L2277.37 2041.20 L2302.74 2041.07 L2327.99 2040.83 L2353.35 2040.58 L2378.60 2040.21 L2403.97 2039.83 L2429.21 2039.46 L2454.58 2038.97 L2479.83 2038.35 L2505.20 2037.73 L2530.44 2036.99 L2555.81 2036.12 L2581.05 2035.13 L2606.42 2034.02 L2631.67 2032.78 L2657.04 2031.30 L2682.28 2029.69 L2707.65 2027.95 L2732.89 2025.97 L2758.26 2023.75 L2783.51 2021.40 L2808.88 2018.80 L2834.12 2015.95 L2859.49 2012.86 L2884.74 2009.52 L2910.11 2005.80 L2935.35 2001.84 L2960.72 1997.63 L2986.09 1992.93 L3011.33 1987.86 L3036.70 1982.41 L3061.95 1976.35 L3087.32 1969.79 L3112.56 1962.61 L3137.93 1954.69 L3163.17 1946.03 L3188.54 1936.38 L3213.79 1925.61 L3239.16 1913.73 L3264.40 1900.49 L3289.77 1885.64 L3315.01 1869.30 L3340.38 1850.99 L3365.63 1830.69 L3391.00 1808.04 L3416.24 1782.80 L3441.61 1754.71 L3466.86 1723.40 L3492.22 1688.50 L3517.47 1649.52 L3542.84 1606.20 L3568.08 1557.81 L3593.45 1503.98 L3618.70 1443.84 L3644.07 1376.89 L3669.31 1302.26 L3694.68 1219.10 L3719.93 1126.41 L3745.29 1023.20 L3770.66 908.23" stroke-linejoin="round" style="fill:none;stroke:#FF7F00;stroke-width:7.34"/>
	<path d=" M2201.39 2042.06 L2226.76 2042.06 L2252.13 2041.94 L2277.37 2041.94 L2302.74 2041.82 L2327.99 2041.69 L2353.35 2041.57 L2378.60 2041.44 L2403.97 2041.32 L2429.21 2041.20 L2454.58 2040.95 L2479.83 2040.83 L2505.20 2040.45 L2530.44 2040.21 L2555.81 2039.83 L2581.05 2039.46 L2606.42 2039.09 L2631.67 2038.47 L2657.04 2037.98 L2682.28 2037.36 L2707.65 2036.62 L2732.89 2035.87 L2758.26 2035.01 L2783.51 2034.02 L2808.88 2033.03 L2834.12 2031.79 L2859.49 2030.68 L2884.74 2029.32 L2910.11 2027.83 L2935.35 2026.35 L2960.72 2024.61 L2986.09 2022.76 L3011.33 2020.78 L3036.70 2018.55 L3061.95 2016.20 L3087.32 2013.60 L3112.56 2010.75 L3137.93 2007.54 L3163.17 2004.07 L3188.54 2000.23 L3213.79 1996.03 L3239.16 1991.32 L3264.40 1986.00 L3289.77 1980.19 L3315.01 1973.63 L3340.38 1966.45 L3365.63 1958.28 L3391.00 1949.37 L3416.24 1939.35 L3441.61 1928.21 L3466.86 1915.71 L3492.22 1901.85 L3517.47 1886.38 L3542.84 1869.18 L3568.08 1850.00 L3593.45 1828.59 L3618.70 1804.70 L3644.07 1778.10 L3669.31 1748.52 L3694.68 1715.35 L3719.93 1678.60 L3745.29 1637.51 L3770.66 1591.85" stroke-linejoin="round" style="fill:none;stroke:#1A476F;stroke-width:7.34"/>
	<line x1="2201.39" y1="1949.37" x2="2204.24" y2="1949.37" style="stroke:#000000;stroke-width:7.34"/>
	<line x1="2224.41" y1="1949.37" x2="2226.76" y2="1949.37" style="stroke:#000000;stroke-width:7.34"/>
	<line x1="2226.76" y1="1949.37" x2="2227.25" y2="1949.37" style="stroke:#000000;stroke-width:7.34"/>
	<line x1="2247.42" y1="1949.37" x2="2250.27" y2="1949.37" style="stroke:#000000;stroke-width:7.34"/>
	<line x1="2270.44" y1="1949.37" x2="2273.29" y2="1949.37" style="stroke:#000000;stroke-width:7.34"/>
	<line x1="2293.46" y1="1949.37" x2="2296.43" y2="1949.37" style="stroke:#000000;stroke-width:7.34"/>
	<line x1="2316.60" y1="1949.37" x2="2319.45" y2="1949.37" style="stroke:#000000;stroke-width:7.34"/>
	<line x1="2339.62" y1="1949.37" x2="2342.46" y2="1949.37" style="stroke:#000000;stroke-width:7.34"/>
	<line x1="2362.64" y1="1949.37" x2="2365.48" y2="1949.37" style="stroke:#000000;stroke-width:7.34"/>
	<line x1="2385.65" y1="1949.37" x2="2388.50" y2="1949.37" style="stroke:#000000;stroke-width:7.34"/>
	<line x1="2408.67" y1="1949.37" x2="2411.52" y2="1949.37" style="stroke:#000000;stroke-width:7.34"/>
	<line x1="2431.69" y1="1949.37" x2="2434.53" y2="1949.37" style="stroke:#000000;stroke-width:7.34"/>
	<line x1="2454.70" y1="1949.37" x2="2457.55" y2="1949.37" style="stroke:#000000;stroke-width:7.34"/>
	<line x1="2477.72" y1="1949.37" x2="2479.83" y2="1949.37" style="stroke:#000000;stroke-width:7.34"/>
	<line x1="2479.83" y1="1949.37" x2="2480.57" y2="1949.37" style="stroke:#000000;stroke-width:7.34"/>
	<line x1="2500.74" y1="1949.37" x2="2503.59" y2="1949.37" style="stroke:#000000;stroke-width:7.34"/>
	<line x1="2523.76" y1="1949.37" x2="2526.60" y2="1949.37" style="stroke:#000000;stroke-width:7.34"/>
	<line x1="2546.78" y1="1949.37" x2="2549.74" y2="1949.37" style="stroke:#000000;stroke-width:7.34"/>
	<line x1="2569.92" y1="1949.37" x2="2572.76" y2="1949.37" style="stroke:#000000;stroke-width:7.34"/>
	<line x1="2592.93" y1="1949.37" x2="2595.78" y2="1949.37" style="stroke:#000000;stroke-width:7.34"/>
	<line x1="2615.95" y1="1949.37" x2="2618.80" y2="1949.37" style="stroke:#000000;stroke-width:7.34"/>
	<line x1="2638.97" y1="1949.37" x2="2641.82" y2="1949.37" style="stroke:#000000;stroke-width:7.34"/>
	<line x1="2661.99" y1="1949.37" x2="2664.83" y2="1949.37" style="stroke:#000000;stroke-width:7.34"/>
	<line x1="2685.00" y1="1949.37" x2="2687.85" y2="1949.37" style="stroke:#000000;stroke-width:7.34"/>
	<line x1="2708.02" y1="1949.37" x2="2710.87" y2="1949.37" style="stroke:#000000;stroke-width:7.34"/>
	<line x1="2731.04" y1="1949.37" x2="2732.89" y2="1949.37" style="stroke:#000000;stroke-width:7.34"/>
	<line x1="2732.89" y1="1949.37" x2="2733.89" y2="1949.37" style="stroke:#000000;stroke-width:7.34"/>
	<line x1="2754.06" y1="1949.37" x2="2756.90" y2="1949.37" style="stroke:#000000;stroke-width:7.34"/>
	<line x1="2777.07" y1="1949.37" x2="2779.92" y2="1949.37" style="stroke:#000000;stroke-width:7.34"/>
	<line x1="2800.09" y1="1949.37" x2="2803.06" y2="1949.37" style="stroke:#000000;stroke-width:7.34"/>
	<line x1="2823.23" y1="1949.37" x2="2826.08" y2="1949.37" style="stroke:#000000;stroke-width:7.34"/>
	<line x1="2846.25" y1="1949.37" x2="2849.10" y2="1949.37" style="stroke:#000000;stroke-width:7.34"/>
	<line x1="2869.27" y1="1949.37" x2="2872.11" y2="1949.37" style="stroke:#000000;stroke-width:7.34"/>
	<line x1="2892.28" y1="1949.37" x2="2895.13" y2="1949.37" style="stroke:#000000;stroke-width:7.34"/>
	<line x1="2915.30" y1="1949.37" x2="2918.15" y2="1949.37" style="stroke:#000000;stroke-width:7.34"/>
	<line x1="2938.32" y1="1949.37" x2="2941.17" y2="1949.37" style="stroke:#000000;stroke-width:7.34"/>
	<line x1="2961.34" y1="1949.37" x2="2964.18" y2="1949.37" style="stroke:#000000;stroke-width:7.34"/>
	<line x1="2984.36" y1="1949.37" x2="2986.09" y2="1949.37" style="stroke:#000000;stroke-width:7.34"/>
	<line x1="2986.09" y1="1949.37" x2="2987.20" y2="1949.37" style="stroke:#000000;stroke-width:7.34"/>
	<line x1="3007.37" y1="1949.37" x2="3010.22" y2="1949.37" style="stroke:#000000;stroke-width:7.34"/>
	<line x1="3030.39" y1="1949.37" x2="3033.36" y2="1949.37" style="stroke:#000000;stroke-width:7.34"/>
	<line x1="3053.41" y1="1949.37" x2="3056.38" y2="1949.37" style="stroke:#000000;stroke-width:7.34"/>
	<line x1="3076.55" y1="1949.37" x2="3079.39" y2="1949.37" style="stroke:#000000;stroke-width:7.34"/>
	<line x1="3099.57" y1="1949.37" x2="3102.41" y2="1949.37" style="stroke:#000000;stroke-width:7.34"/>
	<line x1="3122.58" y1="1949.37" x2="3125.43" y2="1949.37" style="stroke:#000000;stroke-width:7.34"/>
	<line x1="3145.60" y1="1949.37" x2="3148.45" y2="1949.37" style="stroke:#000000;stroke-width:7.34"/>
	<line x1="3168.62" y1="1949.37" x2="3171.47" y2="1949.37" style="stroke:#000000;stroke-width:7.34"/>
	<line x1="3191.64" y1="1949.37" x2="3194.48" y2="1949.37" style="stroke:#000000;stroke-width:7.34"/>
	<line x1="3214.65" y1="1949.37" x2="3217.50" y2="1949.37" style="stroke:#000000;stroke-width:7.34"/>
	<line x1="3237.67" y1="1949.37" x2="3239.16" y2="1949.37" style="stroke:#000000;stroke-width:7.34"/>
	<line x1="3239.16" y1="1949.37" x2="3240.52" y2="1949.37" style="stroke:#000000;stroke-width:7.34"/>
	<line x1="3260.69" y1="1949.37" x2="3263.53" y2="1949.37" style="stroke:#000000;stroke-width:7.34"/>
	<line x1="3283.71" y1="1949.37" x2="3286.68" y2="1949.37" style="stroke:#000000;stroke-width:7.34"/>
	<line x1="3306.72" y1="1949.37" x2="3309.69" y2="1949.37" style="stroke:#000000;stroke-width:7.34"/>
	<line x1="3329.86" y1="1949.37" x2="3332.71" y2="1949.37" style="stroke:#000000;stroke-width:7.34"/>
	<line x1="3352.88" y1="1949.37" x2="3355.73" y2="1949.37" style="stroke:#000000;stroke-width:7.34"/>
	<line x1="3375.90" y1="1949.37" x2="3378.75" y2="1949.37" style="stroke:#000000;stroke-width:7.34"/>
	<line x1="3398.92" y1="1949.37" x2="3401.76" y2="1949.37" style="stroke:#000000;stroke-width:7.34"/>
	<line x1="3421.93" y1="1949.37" x2="3424.78" y2="1949.37" style="stroke:#000000;stroke-width:7.34"/>
	<line x1="3444.95" y1="1949.37" x2="3447.80" y2="1949.37" style="stroke:#000000;stroke-width:7.34"/>
	<line x1="3467.97" y1="1949.37" x2="3470.82" y2="1949.37" style="stroke:#000000;stroke-width:7.34"/>
	<line x1="3490.99" y1="1949.37" x2="3492.22" y2="1949.37" style="stroke:#000000;stroke-width:7.34"/>
	<line x1="3492.22" y1="1949.37" x2="3493.83" y2="1949.37" style="stroke:#000000;stroke-width:7.34"/>
	<line x1="3514.01" y1="1949.37" x2="3516.85" y2="1949.37" style="stroke:#000000;stroke-width:7.34"/>
	<line x1="3537.02" y1="1949.37" x2="3539.99" y2="1949.37" style="stroke:#000000;stroke-width:7.34"/>
	<line x1="3560.04" y1="1949.37" x2="3563.01" y2="1949.37" style="stroke:#000000;stroke-width:7.34"/>
	<line x1="3583.18" y1="1949.37" x2="3586.03" y2="1949.37" style="stroke:#000000;stroke-width:7.34"/>
	<line x1="3606.20" y1="1949.37" x2="3609.05" y2="1949.37" style="stroke:#000000;stroke-width:7.34"/>
	<line x1="3629.22" y1="1949.37" x2="3632.06" y2="1949.37" style="stroke:#000000;stroke-width:7.34"/>
	<line x1="3652.23" y1="1949.37" x2="3655.08" y2="1949.37" style="stroke:#000000;stroke-width:7.34"/>
	<line x1="3675.25" y1="1949.37" x2="3678.10" y2="1949.37" style="stroke:#000000;stroke-width:7.34"/>
	<line x1="3698.27" y1="1949.37" x2="3701.11" y2="1949.37" style="stroke:#000000;stroke-width:7.34"/>
	<line x1="3721.29" y1="1949.37" x2="3724.13" y2="1949.37" style="stroke:#000000;stroke-width:7.34"/>
	<line x1="3744.30" y1="1949.37" x2="3745.29" y2="1949.37" style="stroke:#000000;stroke-width:7.34"/>
	<line x1="3745.29" y1="1949.37" x2="3747.15" y2="1949.37" style="stroke:#000000;stroke-width:7.34"/>
	<line x1="3767.32" y1="1949.37" x2="3770.17" y2="1949.37" style="stroke:#000000;stroke-width:7.34"/>
	<path d="" stroke-linejoin="round" style="fill:none;stroke:#000000;stroke-width:7.34"/>
	<line x1="401.69" y1="2096.14" x2="401.69" y2="258.27" style="stroke:#000000;stroke-width:4.90"/>
	<line x1="401.69" y1="2042.31" x2="367.66" y2="2042.31" style="stroke:#000000;stroke-width:4.90"/>
	<text x="350.71" y="2072.10" style="font-family:'Helvetica';font-size:85.02px;fill:#000000" text-anchor="end">0</text>
	<line x1="401.69" y1="1696.29" x2="367.66" y2="1696.29" style="stroke:#000000;stroke-width:4.90"/>
	<text x="350.71" y="1726.08" style="font-family:'Helvetica';font-size:85.02px;fill:#000000" text-anchor="end">.001</text>
	<line x1="401.69" y1="1350.15" x2="367.66" y2="1350.15" style="stroke:#000000;stroke-width:4.90"/>
	<text x="350.71" y="1379.94" style="font-family:'Helvetica';font-size:85.02px;fill:#000000" text-anchor="end">.002</text>
	<line x1="401.69" y1="1004.14" x2="367.66" y2="1004.14" style="stroke:#000000;stroke-width:4.90"/>
	<text x="350.71" y="1033.93" style="font-family:'Helvetica';font-size:85.02px;fill:#000000" text-anchor="end">.003</text>
	<line x1="401.69" y1="658.12" x2="367.66" y2="658.12" style="stroke:#000000;stroke-width:4.90"/>
	<text x="350.71" y="687.91" style="font-family:'Helvetica';font-size:85.02px;fill:#000000" text-anchor="end">.004</text>
	<line x1="401.69" y1="312.11" x2="367.66" y2="312.11" style="stroke:#000000;stroke-width:4.90"/>
	<text x="350.71" y="341.89" style="font-family:'Helvetica';font-size:85.02px;fill:#000000" text-anchor="end">.005</text>
	<line x1="401.69" y1="2096.14" x2="2078.51" y2="2096.14" style="stroke:#000000;stroke-width:4.90"/>
	<line x1="506.14" y1="2096.14" x2="506.14" y2="2113.10" style="stroke:#000000;stroke-width:4.90"/>
	<line x1="632.73" y1="2096.14" x2="632.73" y2="2113.10" style="stroke:#000000;stroke-width:4.90"/>
	<line x1="759.21" y1="2096.14" x2="759.21" y2="2113.10" style="stroke:#000000;stroke-width:4.90"/>
	<line x1="885.80" y1="2096.14" x2="885.80" y2="2113.10" style="stroke:#000000;stroke-width:4.90"/>
	<line x1="1012.27" y1="2096.14" x2="1012.27" y2="2113.10" style="stroke:#000000;stroke-width:4.90"/>
	<line x1="1138.87" y1="2096.14" x2="1138.87" y2="2113.10" style="stroke:#000000;stroke-width:4.90"/>
	<line x1="1265.47" y1="2096.14" x2="1265.47" y2="2113.10" style="stroke:#000000;stroke-width:4.90"/>
	<line x1="1391.94" y1="2096.14" x2="1391.94" y2="2113.10" style="stroke:#000000;stroke-width:4.90"/>
	<line x1="1518.54" y1="2096.14" x2="1518.54" y2="2113.10" style="stroke:#000000;stroke-width:4.90"/>
	<line x1="1645.01" y1="2096.14" x2="1645.01" y2="2113.10" style="stroke:#000000;stroke-width:4.90"/>
	<line x1="1771.61" y1="2096.14" x2="1771.61" y2="2113.10" style="stroke:#000000;stroke-width:4.90"/>
	<line x1="1898.20" y1="2096.14" x2="1898.20" y2="2113.10" style="stroke:#000000;stroke-width:4.90"/>
	<line x1="2024.67" y1="2096.14" x2="2024.67" y2="2113.10" style="stroke:#000000;stroke-width:4.90"/>
	<line x1="506.14" y1="2096.14" x2="506.14" y2="2130.18" style="stroke:#000000;stroke-width:4.90"/>
	<text x="506.14" y="2206.58" style="font-family:'Helvetica';font-size:85.02px;fill:#000000" text-anchor="middle">20</text>
	<line x1="1012.27" y1="2096.14" x2="1012.27" y2="2130.18" style="stroke:#000000;stroke-width:4.90"/>
	<text x="1012.27" y="2206.58" style="font-family:'Helvetica';font-size:85.02px;fill:#000000" text-anchor="middle">40</text>
	<line x1="1518.54" y1="2096.14" x2="1518.54" y2="2130.18" style="stroke:#000000;stroke-width:4.90"/>
	<text x="1518.54" y="2206.58" style="font-family:'Helvetica';font-size:85.02px;fill:#000000" text-anchor="middle">60</text>
	<line x1="2024.67" y1="2096.14" x2="2024.67" y2="2130.18" style="stroke:#000000;stroke-width:4.90"/>
	<text x="2024.67" y="2206.58" style="font-family:'Helvetica';font-size:85.02px;fill:#000000" text-anchor="middle">80</text>
	<line x1="2147.68" y1="2096.14" x2="3824.49" y2="2096.14" style="stroke:#000000;stroke-width:4.90"/>
	<line x1="2252.13" y1="2096.14" x2="2252.13" y2="2113.10" style="stroke:#000000;stroke-width:4.90"/>
	<line x1="2378.72" y1="2096.14" x2="2378.72" y2="2113.10" style="stroke:#000000;stroke-width:4.90"/>
	<line x1="2505.20" y1="2096.14" x2="2505.20" y2="2113.10" style="stroke:#000000;stroke-width:4.90"/>
	<line x1="2631.79" y1="2096.14" x2="2631.79" y2="2113.10" style="stroke:#000000;stroke-width:4.90"/>
	<line x1="2758.26" y1="2096.14" x2="2758.26" y2="2113.10" style="stroke:#000000;stroke-width:4.90"/>
	<line x1="2884.86" y1="2096.14" x2="2884.86" y2="2113.10" style="stroke:#000000;stroke-width:4.90"/>
	<line x1="3011.46" y1="2096.14" x2="3011.46" y2="2113.10" style="stroke:#000000;stroke-width:4.90"/>
	<line x1="3137.93" y1="2096.14" x2="3137.93" y2="2113.10" style="stroke:#000000;stroke-width:4.90"/>
	<line x1="3264.53" y1="2096.14" x2="3264.53" y2="2113.10" style="stroke:#000000;stroke-width:4.90"/>
	<line x1="3391.00" y1="2096.14" x2="3391.00" y2="2113.10" style="stroke:#000000;stroke-width:4.90"/>
	<line x1="3517.59" y1="2096.14" x2="3517.59" y2="2113.10" style="stroke:#000000;stroke-width:4.90"/>
	<line x1="3644.07" y1="2096.14" x2="3644.07" y2="2113.10" style="stroke:#000000;stroke-width:4.90"/>
	<line x1="3770.66" y1="2096.14" x2="3770.66" y2="2113.10" style="stroke:#000000;stroke-width:4.90"/>
	<line x1="2252.13" y1="2096.14" x2="2252.13" y2="2130.18" style="stroke:#000000;stroke-width:4.90"/>
	<text x="2252.13" y="2206.58" style="font-family:'Helvetica';font-size:85.02px;fill:#000000" text-anchor="middle">20</text>
	<line x1="2758.26" y1="2096.14" x2="2758.26" y2="2130.18" style="stroke:#000000;stroke-width:4.90"/>
	<text x="2758.26" y="2206.58" style="font-family:'Helvetica';font-size:85.02px;fill:#000000" text-anchor="middle">40</text>
	<line x1="3264.53" y1="2096.14" x2="3264.53" y2="2130.18" style="stroke:#000000;stroke-width:4.90"/>
	<text x="3264.53" y="2206.58" style="font-family:'Helvetica';font-size:85.02px;fill:#000000" text-anchor="middle">60</text>
	<line x1="3770.66" y1="2096.14" x2="3770.66" y2="2130.18" style="stroke:#000000;stroke-width:4.90"/>
	<text x="3770.66" y="2206.58" style="font-family:'Helvetica';font-size:85.02px;fill:#000000" text-anchor="middle">80</text>
	<rect x="401.69" y="135.39" width="1676.81" height="122.89" style="fill:#D9E6EB"/>
	<rect x="404.14" y="137.83" width="1671.92" height="117.99" style="fill:none;stroke:#D9E6EB;stroke-width:4.90"/>
	<text x="1240.10" y="215.42" style="font-family:'Helvetica';font-size:93.56px;fill:#000000" text-anchor="middle">Female</text>
	<rect x="2147.68" y="135.39" width="1676.81" height="122.89" style="fill:#D9E6EB"/>
	<rect x="2150.13" y="137.83" width="1671.92" height="117.99" style="fill:none;stroke:#D9E6EB;stroke-width:4.90"/>
	<text x="2986.09" y="215.42" style="font-family:'Helvetica';font-size:93.56px;fill:#000000" text-anchor="middle">Male</text>
	<rect x="630.26" y="2418.27" width="2699.36" height="326.34" style="fill:#FFFFFF"/>
	<rect x="633.14" y="2421.15" width="2693.60" height="320.58" style="fill:none;stroke:#000000;stroke-width:5.76"/>
	<line x1="673.45" y1="2511.46" x2="1047.91" y2="2511.46" style="stroke:#008000;stroke-width:8.64"/>
	<line x1="2012.05" y1="2511.46" x2="2386.39" y2="2511.46" style="stroke:#FF7F00;stroke-width:8.64"/>
	<line x1="673.45" y1="2651.43" x2="1047.91" y2="2651.43" style="stroke:#1A476F;stroke-width:8.64"/>
	<text x="1107.93" y="2546.49" style="font-family:'Helvetica';font-size:99.99px;fill:#000000">Stroke/dementia</text>
	<text x="2446.41" y="2546.49" style="font-family:'Helvetica';font-size:99.99px;fill:#000000">Other neurological</text>
	<text x="1107.93" y="2686.46" style="font-family:'Helvetica';font-size:99.99px;fill:#000000">No comborbidity</text>
	<text x="1980.00" y="2353.56" style="font-family:'Helvetica';font-size:99.99px;fill:#000000" text-anchor="middle">Age (years)</text>
</svg>
