<?xml version="1.0" encoding="UTF-8" standalone="no"?>
<!-- This is a Stata 16.1 generated SVG file (http://www.stata.com) -->

<svg version="1.1" width="1600px" height="1164px" viewBox="0 0 3960 2880" xmlns="http://www.w3.org/2000/svg" xmlns:xlink="http://www.w3.org/1999/xlink">
	<desc>Stata Graph - Graph</desc>
	<rect x="0" y="0" width="3960" height="2880" style="fill:#EAF2F3;stroke:none"/>
	<rect x="0.00" y="0.00" width="3959.88" height="2880.00" style="fill:#EAF2F3"/>
	<rect x="2.88" y="2.88" width="3954.12" height="2874.24" style="fill:none;stroke:#EAF2F3;stroke-width:5.76"/>
	<rect x="401.69" y="258.27" width="1676.81" height="1557.81" style="fill:#FFFFFF"/>
	<rect x="404.14" y="260.72" width="1671.92" height="1552.92" style="fill:none;stroke:#FFFFFF;stroke-width:4.90"/>
	<line x1="401.69" y1="1762.26" x2="2078.51" y2="1762.26" style="stroke:#EAF2F3;stroke-width:7.34"/>
	<line x1="401.69" y1="1555.09" x2="2078.51" y2="1555.09" style="stroke:#EAF2F3;stroke-width:7.34"/>
	<line x1="401.69" y1="1347.93" x2="2078.51" y2="1347.93" style="stroke:#EAF2F3;stroke-width:7.34"/>
	<line x1="401.69" y1="1140.76" x2="2078.51" y2="1140.76" style="stroke:#EAF2F3;stroke-width:7.34"/>
	<line x1="401.69" y1="933.60" x2="2078.51" y2="933.60" style="stroke:#EAF2F3;stroke-width:7.34"/>
	<line x1="401.69" y1="726.44" x2="2078.51" y2="726.44" style="stroke:#EAF2F3;stroke-width:7.34"/>
	<line x1="401.69" y1="519.27" x2="2078.51" y2="519.27" style="stroke:#EAF2F3;stroke-width:7.34"/>
	<rect x="2147.68" y="258.27" width="1676.81" height="1557.81" style="fill:#FFFFFF"/>
	<rect x="2150.13" y="260.72" width="1671.92" height="1552.92" style="fill:none;stroke:#FFFFFF;stroke-width:4.90"/>
	<line x1="2147.68" y1="1762.26" x2="3824.49" y2="1762.26" style="stroke:#EAF2F3;stroke-width:7.34"/>
	<line x1="2147.68" y1="1555.09" x2="3824.49" y2="1555.09" style="stroke:#EAF2F3;stroke-width:7.34"/>
	<line x1="2147.68" y1="1347.93" x2="3824.49" y2="1347.93" style="stroke:#EAF2F3;stroke-width:7.34"/>
	<line x1="2147.68" y1="1140.76" x2="3824.49" y2="1140.76" style="stroke:#EAF2F3;stroke-width:7.34"/>
	<line x1="2147.68" y1="933.60" x2="3824.49" y2="933.60" style="stroke:#EAF2F3;stroke-width:7.34"/>
	<line x1="2147.68" y1="726.44" x2="3824.49" y2="726.44" style="stroke:#EAF2F3;stroke-width:7.34"/>
	<line x1="2147.68" y1="519.27" x2="3824.49" y2="519.27" style="stroke:#EAF2F3;stroke-width:7.34"/>
	<defs>
		<path id="path_IDEbTlGX" d="M455.52 1762.26 L455.52 1762.26 L480.89 1762.26 L506.14 1762.26 L531.51 1762.26 L556.75 1762.13 L582.12 1762.13 L607.37 1762.13 L632.73 1762.13 L657.98 1762.01 L683.35 1762.01 L708.59 1761.88 L733.96 1761.88 L759.21 1761.76 L784.58 1761.64 L809.82 1761.51 L835.19 1761.39 L860.43 1761.14 L885.80 1760.89 L911.05 1760.77 L936.42 1760.52 L961.66 1760.15 L987.03 1759.90 L1012.27 1759.53 L1037.64 1759.16 L1062.89 1758.79 L1088.26 1758.29 L1113.50 1757.92 L1138.87 1757.43 L1164.24 1756.81 L1189.48 1756.19 L1214.85 1755.57 L1240.10 1754.83 L1265.47 1754.09 L1290.71 1753.22 L1316.08 1752.23 L1341.33 1751.24 L1366.69 1750.13 L1391.94 1748.89 L1417.31 1747.53 L1442.55 1746.04 L1467.92 1744.31 L1493.17 1742.45 L1518.54 1740.47 L1543.78 1738.12 L1569.15 1735.65 L1594.39 1732.68 L1619.76 1729.58 L1645.01 1726.00 L1670.38 1722.04 L1695.62 1717.46 L1720.99 1712.51 L1746.24 1706.94 L1771.61 1700.63 L1796.85 1693.70 L1822.22 1685.78 L1847.46 1676.99 L1872.83 1667.09 L1898.20 1656.07 L1923.45 1643.70 L1948.82 1629.96 L1974.06 1614.49 L1999.43 1597.17 L2024.67 1577.86 L2024.67 1543.33 L1999.43 1566.23 L1974.06 1586.77 L1948.82 1605.09 L1923.45 1621.42 L1898.20 1636.03 L1872.83 1649.14 L1847.46 1660.78 L1822.22 1671.17 L1796.85 1680.45 L1771.61 1688.87 L1746.24 1696.29 L1720.99 1702.98 L1695.62 1708.92 L1670.38 1714.24 L1645.01 1718.94 L1619.76 1723.15 L1594.39 1726.99 L1569.15 1730.45 L1543.78 1733.42 L1518.54 1736.14 L1493.17 1738.62 L1467.92 1740.72 L1442.55 1742.70 L1417.31 1744.43 L1391.94 1746.04 L1366.69 1747.40 L1341.33 1748.64 L1316.08 1749.88 L1290.71 1750.87 L1265.47 1751.86 L1240.10 1752.85 L1214.85 1753.59 L1189.48 1754.46 L1164.24 1755.20 L1138.87 1755.82 L1113.50 1756.44 L1088.26 1757.06 L1062.89 1757.55 L1037.64 1758.17 L1012.27 1758.54 L987.03 1759.04 L961.66 1759.41 L936.42 1759.66 L911.05 1760.03 L885.80 1760.28 L860.43 1760.52 L835.19 1760.77 L809.82 1760.89 L784.58 1761.02 L759.21 1761.14 L733.96 1761.27 L708.59 1761.39 L683.35 1761.51 L657.98 1761.64 L632.73 1761.64 L607.37 1761.76 L582.12 1761.88 L556.75 1761.88 L531.51 1761.88 L506.14 1762.01 L480.89 1762.01 L455.52 1762.01 L455.52 1762.26 Z" stroke-linejoin="round"/>
	</defs>
	<defs>
		<clipPath id="clipPath_wMyuhVkj">
			<use xlink:href="#path_IDEbTlGX"/>
		</clipPath>
	</defs>
	<use xlink:href="#path_IDEbTlGX" style="stroke:none;fill:#E6E6E6"/>
	<use xlink:href="#path_IDEbTlGX" style="fill:none;stroke:#E0E0E0;stroke-width:14.69" clip-path="url(#clipPath_wMyuhVkj)"/>
	<defs>
		<path id="path_SDBAlWmI" d="M455.52 1762.26 L455.52 1762.26 L480.89 1762.13 L506.14 1762.13 L531.51 1762.13 L556.75 1762.13 L582.12 1762.01 L607.37 1762.01 L632.73 1762.01 L657.98 1761.88 L683.35 1761.76 L708.59 1761.64 L733.96 1761.51 L759.21 1761.39 L784.58 1761.27 L809.82 1761.02 L835.19 1760.77 L860.43 1760.52 L885.80 1760.15 L911.05 1759.90 L936.42 1759.41 L961.66 1759.04 L987.03 1758.54 L1012.27 1758.05 L1037.64 1757.55 L1062.89 1756.93 L1088.26 1756.19 L1113.50 1755.57 L1138.87 1754.71 L1164.24 1753.96 L1189.48 1752.97 L1214.85 1751.98 L1240.10 1750.99 L1265.47 1749.76 L1290.71 1748.52 L1316.08 1747.03 L1341.33 1745.55 L1366.69 1743.82 L1391.94 1741.96 L1417.31 1739.98 L1442.55 1737.63 L1467.92 1735.15 L1493.17 1732.43 L1518.54 1729.21 L1543.78 1725.75 L1569.15 1721.91 L1594.39 1717.58 L1619.76 1712.75 L1645.01 1707.43 L1670.38 1701.37 L1695.62 1694.56 L1720.99 1687.01 L1746.24 1678.60 L1771.61 1669.19 L1796.85 1658.55 L1822.22 1646.67 L1847.46 1633.43 L1872.83 1618.45 L1898.20 1601.87 L1923.45 1583.18 L1948.82 1562.39 L1974.06 1539.00 L1999.43 1512.89 L2024.67 1483.69 L2024.67 1382.21 L1999.43 1422.06 L1974.06 1457.57 L1948.82 1489.38 L1923.45 1517.84 L1898.20 1543.21 L1872.83 1565.86 L1847.46 1586.15 L1822.22 1604.22 L1796.85 1620.43 L1771.61 1634.91 L1746.24 1647.78 L1720.99 1659.29 L1695.62 1669.69 L1670.38 1678.84 L1645.01 1687.14 L1619.76 1694.44 L1594.39 1701.12 L1569.15 1706.94 L1543.78 1712.26 L1518.54 1716.96 L1493.17 1721.17 L1467.92 1725.01 L1442.55 1728.35 L1417.31 1731.44 L1391.94 1734.16 L1366.69 1736.64 L1341.33 1738.87 L1316.08 1740.85 L1290.71 1742.70 L1265.47 1744.43 L1240.10 1746.04 L1214.85 1747.53 L1189.48 1748.89 L1164.24 1750.13 L1138.87 1751.24 L1113.50 1752.35 L1088.26 1753.34 L1062.89 1754.33 L1037.64 1755.20 L1012.27 1755.94 L987.03 1756.69 L961.66 1757.30 L936.42 1757.92 L911.05 1758.42 L885.80 1758.91 L860.43 1759.28 L835.19 1759.66 L809.82 1759.90 L784.58 1760.28 L759.21 1760.52 L733.96 1760.65 L708.59 1760.89 L683.35 1761.02 L657.98 1761.14 L632.73 1761.27 L607.37 1761.39 L582.12 1761.51 L556.75 1761.64 L531.51 1761.64 L506.14 1761.76 L480.89 1761.88 L455.52 1761.88 L455.52 1762.26 Z" stroke-linejoin="round"/>
	</defs>
	<defs>
		<clipPath id="clipPath_livpbCWd">
			<use xlink:href="#path_SDBAlWmI"/>
		</clipPath>
	</defs>
	<use xlink:href="#path_SDBAlWmI" style="stroke:none;fill:#E6E6E6"/>
	<use xlink:href="#path_SDBAlWmI" style="fill:none;stroke:#E0E0E0;stroke-width:14.69" clip-path="url(#clipPath_livpbCWd)"/>
	<defs>
		<path id="path_RJcFhpGL" d="M455.52 1762.26 L455.52 1762.26 L480.89 1762.26 L506.14 1762.26 L531.51 1762.13 L556.75 1762.13 L582.12 1762.13 L607.37 1762.13 L632.73 1762.01 L657.98 1762.01 L683.35 1761.88 L708.59 1761.88 L733.96 1761.76 L759.21 1761.64 L784.58 1761.51 L809.82 1761.39 L835.19 1761.14 L860.43 1760.89 L885.80 1760.65 L911.05 1760.40 L936.42 1760.15 L961.66 1759.78 L987.03 1759.41 L1012.27 1759.04 L1037.64 1758.54 L1062.89 1758.17 L1088.26 1757.68 L1113.50 1757.06 L1138.87 1756.44 L1164.24 1755.82 L1189.48 1755.08 L1214.85 1754.33 L1240.10 1753.47 L1265.47 1752.60 L1290.71 1751.61 L1316.08 1750.50 L1341.33 1749.38 L1366.69 1748.02 L1391.94 1746.54 L1417.31 1745.05 L1442.55 1743.20 L1467.92 1741.34 L1493.17 1739.11 L1518.54 1736.76 L1543.78 1734.04 L1569.15 1731.07 L1594.39 1727.73 L1619.76 1723.89 L1645.01 1719.68 L1670.38 1715.10 L1695.62 1709.78 L1720.99 1703.97 L1746.24 1697.41 L1771.61 1690.11 L1796.85 1681.82 L1822.22 1672.66 L1847.46 1662.39 L1872.83 1650.75 L1898.20 1637.88 L1923.45 1623.40 L1948.82 1607.32 L1974.06 1589.12 L1999.43 1568.95 L2024.67 1546.30 L2024.67 1485.91 L1999.43 1514.87 L1974.06 1540.74 L1948.82 1563.88 L1923.45 1584.42 L1898.20 1602.98 L1872.83 1619.44 L1847.46 1634.17 L1822.22 1647.29 L1796.85 1659.04 L1771.61 1669.56 L1746.24 1678.97 L1720.99 1687.38 L1695.62 1694.93 L1670.38 1701.62 L1645.01 1707.56 L1619.76 1713.00 L1594.39 1717.70 L1569.15 1722.04 L1543.78 1725.87 L1518.54 1729.34 L1493.17 1732.43 L1467.92 1735.15 L1442.55 1737.63 L1417.31 1739.73 L1391.94 1741.71 L1366.69 1743.57 L1341.33 1745.18 L1316.08 1746.66 L1290.71 1748.02 L1265.47 1749.26 L1240.10 1750.37 L1214.85 1751.49 L1189.48 1752.48 L1164.24 1753.34 L1138.87 1754.21 L1113.50 1755.08 L1088.26 1755.82 L1062.89 1756.44 L1037.64 1757.06 L1012.27 1757.68 L987.03 1758.17 L961.66 1758.67 L936.42 1759.04 L911.05 1759.41 L885.80 1759.78 L860.43 1760.03 L835.19 1760.40 L809.82 1760.52 L784.58 1760.77 L759.21 1760.89 L733.96 1761.14 L708.59 1761.27 L683.35 1761.39 L657.98 1761.51 L632.73 1761.51 L607.37 1761.64 L582.12 1761.76 L556.75 1761.76 L531.51 1761.88 L506.14 1761.88 L480.89 1761.88 L455.52 1762.01 L455.52 1762.26 Z" stroke-linejoin="round"/>
	</defs>
	<defs>
		<clipPath id="clipPath_DSsPyROI">
			<use xlink:href="#path_RJcFhpGL"/>
		</clipPath>
	</defs>
	<use xlink:href="#path_RJcFhpGL" style="stroke:none;fill:#E6E6E6"/>
	<use xlink:href="#path_RJcFhpGL" style="fill:none;stroke:#E0E0E0;stroke-width:14.69" clip-path="url(#clipPath_DSsPyROI)"/>
	<defs>
		<path id="path_MSTZjGbE" d="M455.52 1762.26 L455.52 1762.26 L480.89 1762.26 L506.14 1762.26 L531.51 1762.26 L556.75 1762.13 L582.12 1762.13 L607.37 1762.13 L632.73 1762.13 L657.98 1762.01 L683.35 1762.01 L708.59 1761.88 L733.96 1761.88 L759.21 1761.76 L784.58 1761.64 L809.82 1761.51 L835.19 1761.39 L860.43 1761.14 L885.80 1761.02 L911.05 1760.77 L936.42 1760.52 L961.66 1760.15 L987.03 1759.90 L1012.27 1759.53 L1037.64 1759.16 L1062.89 1758.79 L1088.26 1758.42 L1113.50 1757.92 L1138.87 1757.43 L1164.24 1756.93 L1189.48 1756.31 L1214.85 1755.70 L1240.10 1754.95 L1265.47 1754.21 L1290.71 1753.34 L1316.08 1752.35 L1341.33 1751.36 L1366.69 1750.37 L1391.94 1749.14 L1417.31 1747.78 L1442.55 1746.29 L1467.92 1744.68 L1493.17 1742.83 L1518.54 1740.85 L1543.78 1738.49 L1569.15 1736.02 L1594.39 1733.17 L1619.76 1730.08 L1645.01 1726.49 L1670.38 1722.65 L1695.62 1718.20 L1720.99 1713.25 L1746.24 1707.80 L1771.61 1701.62 L1796.85 1694.69 L1822.22 1686.89 L1847.46 1678.23 L1872.83 1668.57 L1898.20 1657.68 L1923.45 1645.43 L1948.82 1631.82 L1974.06 1616.60 L1999.43 1599.52 L2024.67 1580.46 L2024.67 1539.50 L1999.43 1562.76 L1974.06 1583.68 L1948.82 1602.24 L1923.45 1618.95 L1898.20 1633.80 L1872.83 1647.04 L1847.46 1658.92 L1822.22 1669.56 L1796.85 1678.97 L1771.61 1687.51 L1746.24 1695.06 L1720.99 1701.86 L1695.62 1707.93 L1670.38 1713.25 L1645.01 1718.07 L1619.76 1722.53 L1594.39 1726.37 L1569.15 1729.83 L1543.78 1732.93 L1518.54 1735.65 L1493.17 1738.12 L1467.92 1740.35 L1442.55 1742.33 L1417.31 1744.06 L1391.94 1745.67 L1366.69 1747.16 L1341.33 1748.39 L1316.08 1749.63 L1290.71 1750.75 L1265.47 1751.74 L1240.10 1752.60 L1214.85 1753.47 L1189.48 1754.33 L1164.24 1755.08 L1138.87 1755.70 L1113.50 1756.44 L1088.26 1756.93 L1062.89 1757.55 L1037.64 1758.05 L1012.27 1758.54 L987.03 1758.91 L961.66 1759.28 L936.42 1759.66 L911.05 1760.03 L885.80 1760.28 L860.43 1760.52 L835.19 1760.65 L809.82 1760.89 L784.58 1761.02 L759.21 1761.14 L733.96 1761.27 L708.59 1761.39 L683.35 1761.51 L657.98 1761.64 L632.73 1761.64 L607.37 1761.76 L582.12 1761.88 L556.75 1761.88 L531.51 1761.88 L506.14 1762.01 L480.89 1762.01 L455.52 1762.01 L455.52 1762.26 Z" stroke-linejoin="round"/>
	</defs>
	<defs>
		<clipPath id="clipPath_mlshxzNb">
			<use xlink:href="#path_MSTZjGbE"/>
		</clipPath>
	</defs>
	<use xlink:href="#path_MSTZjGbE" style="stroke:none;fill:#E6E6E6"/>
	<use xlink:href="#path_MSTZjGbE" style="fill:none;stroke:#E0E0E0;stroke-width:14.69" clip-path="url(#clipPath_mlshxzNb)"/>
	<defs>
		<path id="path_wdJqyOmw" d="M455.52 1762.13 L455.52 1762.13 L480.89 1762.13 L506.14 1762.13 L531.51 1762.01 L556.75 1762.01 L582.12 1762.01 L607.37 1761.88 L632.73 1761.76 L657.98 1761.64 L683.35 1761.51 L708.59 1761.39 L733.96 1761.27 L759.21 1761.02 L784.58 1760.77 L809.82 1760.40 L835.19 1760.15 L860.43 1759.78 L885.80 1759.28 L911.05 1758.79 L936.42 1758.29 L961.66 1757.68 L987.03 1757.06 L1012.27 1756.31 L1037.64 1755.57 L1062.89 1754.71 L1088.26 1753.72 L1113.50 1752.73 L1138.87 1751.61 L1164.24 1750.50 L1189.48 1749.26 L1214.85 1747.78 L1240.10 1746.29 L1265.47 1744.68 L1290.71 1742.95 L1316.08 1740.97 L1341.33 1738.87 L1366.69 1736.51 L1391.94 1733.92 L1417.31 1731.19 L1442.55 1727.98 L1467.92 1724.51 L1493.17 1720.67 L1518.54 1716.34 L1543.78 1711.52 L1569.15 1706.19 L1594.39 1700.13 L1619.76 1693.45 L1645.01 1685.90 L1670.38 1677.48 L1695.62 1668.20 L1720.99 1657.68 L1746.24 1645.93 L1771.61 1632.81 L1796.85 1618.08 L1822.22 1601.50 L1847.46 1583.06 L1872.83 1562.39 L1898.20 1539.37 L1923.45 1513.39 L1948.82 1484.43 L1974.06 1452.13 L1999.43 1415.87 L2024.67 1375.28 L2024.67 1045.97 L1999.43 1120.84 L1974.06 1187.91 L1948.82 1247.81 L1923.45 1301.40 L1898.20 1349.29 L1872.83 1392.11 L1847.46 1430.22 L1822.22 1464.38 L1796.85 1494.95 L1771.61 1522.17 L1746.24 1546.55 L1720.99 1568.33 L1695.62 1587.76 L1670.38 1605.09 L1645.01 1620.68 L1619.76 1634.54 L1594.39 1647.04 L1569.15 1658.05 L1543.78 1668.08 L1518.54 1676.99 L1493.17 1684.91 L1467.92 1692.09 L1442.55 1698.52 L1417.31 1704.21 L1391.94 1709.41 L1366.69 1714.11 L1341.33 1718.32 L1316.08 1722.16 L1290.71 1725.75 L1265.47 1728.97 L1240.10 1731.94 L1214.85 1734.66 L1189.48 1737.26 L1164.24 1739.61 L1138.87 1741.84 L1113.50 1743.94 L1088.26 1745.80 L1062.89 1747.53 L1037.64 1749.14 L1012.27 1750.62 L987.03 1751.98 L961.66 1753.22 L936.42 1754.33 L911.05 1755.20 L885.80 1756.07 L860.43 1756.93 L835.19 1757.55 L809.82 1758.17 L784.58 1758.67 L759.21 1759.04 L733.96 1759.53 L708.59 1759.78 L683.35 1760.15 L657.98 1760.40 L632.73 1760.65 L607.37 1760.77 L582.12 1761.02 L556.75 1761.14 L531.51 1761.27 L506.14 1761.39 L480.89 1761.51 L455.52 1761.64 L455.52 1762.13 Z" stroke-linejoin="round"/>
	</defs>
	<defs>
		<clipPath id="clipPath_MDVpnwoh">
			<use xlink:href="#path_wdJqyOmw"/>
		</clipPath>
	</defs>
	<use xlink:href="#path_wdJqyOmw" style="stroke:none;fill:#E6E6E6"/>
	<use xlink:href="#path_wdJqyOmw" style="fill:none;stroke:#E0E0E0;stroke-width:14.69" clip-path="url(#clipPath_MDVpnwoh)"/>
	<defs>
		<path id="path_YVDhbUvw" d="M455.52 1762.13 L455.52 1762.13 L480.89 1762.13 L506.14 1762.13 L531.51 1762.13 L556.75 1762.01 L582.12 1762.01 L607.37 1761.88 L632.73 1761.88 L657.98 1761.76 L683.35 1761.64 L708.59 1761.39 L733.96 1761.27 L759.21 1761.02 L784.58 1760.77 L809.82 1760.52 L835.19 1760.15 L860.43 1759.78 L885.80 1759.41 L911.05 1758.91 L936.42 1758.42 L961.66 1757.80 L987.03 1757.18 L1012.27 1756.44 L1037.64 1755.70 L1062.89 1754.83 L1088.26 1753.96 L1113.50 1752.97 L1138.87 1751.86 L1164.24 1750.75 L1189.48 1749.51 L1214.85 1748.15 L1240.10 1746.54 L1265.47 1744.93 L1290.71 1743.20 L1316.08 1741.34 L1341.33 1739.24 L1366.69 1736.89 L1391.94 1734.29 L1417.31 1731.56 L1442.55 1728.47 L1467.92 1725.01 L1493.17 1721.17 L1518.54 1716.96 L1543.78 1712.13 L1569.15 1706.81 L1594.39 1700.87 L1619.76 1694.31 L1645.01 1686.89 L1670.38 1678.60 L1695.62 1669.32 L1720.99 1658.92 L1746.24 1647.29 L1771.61 1634.29 L1796.85 1619.69 L1822.22 1603.48 L1847.46 1585.16 L1872.83 1564.74 L1898.20 1541.85 L1923.45 1516.36 L1948.82 1487.65 L1974.06 1455.59 L1999.43 1419.83 L2024.67 1379.73 L2024.67 1191.50 L1999.43 1251.15 L1974.06 1304.61 L1948.82 1352.38 L1923.45 1395.08 L1898.20 1433.19 L1872.83 1467.23 L1847.46 1497.67 L1822.22 1524.90 L1796.85 1549.15 L1771.61 1570.93 L1746.24 1590.36 L1720.99 1607.69 L1695.62 1623.16 L1670.38 1637.02 L1645.01 1649.39 L1619.76 1660.53 L1594.39 1670.43 L1569.15 1679.22 L1543.78 1687.14 L1518.54 1694.31 L1493.17 1700.63 L1467.92 1706.32 L1442.55 1711.39 L1417.31 1715.97 L1391.94 1720.06 L1366.69 1723.77 L1341.33 1727.11 L1316.08 1730.20 L1290.71 1733.05 L1265.47 1735.65 L1240.10 1738.00 L1214.85 1740.10 L1189.48 1742.21 L1164.24 1744.06 L1138.87 1745.80 L1113.50 1747.53 L1088.26 1749.01 L1062.89 1750.37 L1037.64 1751.74 L1012.27 1752.85 L987.03 1753.96 L961.66 1754.95 L936.42 1755.82 L911.05 1756.56 L885.80 1757.30 L860.43 1757.92 L835.19 1758.42 L809.82 1758.91 L784.58 1759.28 L759.21 1759.66 L733.96 1759.90 L708.59 1760.28 L683.35 1760.52 L657.98 1760.65 L632.73 1760.89 L607.37 1761.02 L582.12 1761.14 L556.75 1761.27 L531.51 1761.39 L506.14 1761.51 L480.89 1761.64 L455.52 1761.64 L455.52 1762.13 Z" stroke-linejoin="round"/>
	</defs>
	<defs>
		<clipPath id="clipPath_KKYEXDYH">
			<use xlink:href="#path_YVDhbUvw"/>
		</clipPath>
	</defs>
	<use xlink:href="#path_YVDhbUvw" style="stroke:none;fill:#E6E6E6"/>
	<use xlink:href="#path_YVDhbUvw" style="fill:none;stroke:#E0E0E0;stroke-width:14.69" clip-path="url(#clipPath_KKYEXDYH)"/>
	<defs>
		<path id="path_rBtXoCzB" d="M455.52 1762.26 L455.52 1762.26 L480.89 1762.13 L506.14 1762.13 L531.51 1762.13 L556.75 1762.13 L582.12 1762.13 L607.37 1762.01 L632.73 1762.01 L657.98 1761.88 L683.35 1761.76 L708.59 1761.76 L733.96 1761.64 L759.21 1761.39 L784.58 1761.27 L809.82 1761.02 L835.19 1760.77 L860.43 1760.52 L885.80 1760.28 L911.05 1759.90 L936.42 1759.53 L961.66 1759.16 L987.03 1758.67 L1012.27 1758.17 L1037.64 1757.68 L1062.89 1757.06 L1088.26 1756.44 L1113.50 1755.70 L1138.87 1754.95 L1164.24 1754.09 L1189.48 1753.22 L1214.85 1752.23 L1240.10 1751.24 L1265.47 1750.13 L1290.71 1748.89 L1316.08 1747.53 L1341.33 1746.04 L1366.69 1744.31 L1391.94 1742.58 L1417.31 1740.60 L1442.55 1738.37 L1467.92 1736.02 L1493.17 1733.30 L1518.54 1730.20 L1543.78 1726.86 L1569.15 1723.15 L1594.39 1718.94 L1619.76 1714.24 L1645.01 1709.04 L1670.38 1703.22 L1695.62 1696.67 L1720.99 1689.24 L1746.24 1681.07 L1771.61 1671.91 L1796.85 1661.64 L1822.22 1650.13 L1847.46 1637.26 L1872.83 1622.78 L1898.20 1606.70 L1923.45 1588.63 L1948.82 1568.33 L1974.06 1545.69 L1999.43 1520.32 L2024.67 1492.10 L2024.67 1382.45 L1999.43 1422.18 L1974.06 1457.82 L1948.82 1489.50 L1923.45 1517.96 L1898.20 1543.33 L1872.83 1565.98 L1847.46 1586.28 L1822.22 1604.35 L1796.85 1620.56 L1771.61 1634.91 L1746.24 1647.91 L1720.99 1659.42 L1695.62 1669.69 L1670.38 1678.97 L1645.01 1687.14 L1619.76 1694.56 L1594.39 1701.12 L1569.15 1707.06 L1543.78 1712.26 L1518.54 1717.08 L1493.17 1721.29 L1467.92 1725.01 L1442.55 1728.47 L1417.31 1731.44 L1391.94 1734.16 L1366.69 1736.64 L1341.33 1738.87 L1316.08 1740.85 L1290.71 1742.83 L1265.47 1744.43 L1240.10 1746.04 L1214.85 1747.53 L1189.48 1748.89 L1164.24 1750.13 L1138.87 1751.36 L1113.50 1752.35 L1088.26 1753.47 L1062.89 1754.33 L1037.64 1755.20 L1012.27 1755.94 L987.03 1756.69 L961.66 1757.30 L936.42 1757.92 L911.05 1758.42 L885.80 1758.91 L860.43 1759.28 L835.19 1759.66 L809.82 1760.03 L784.58 1760.28 L759.21 1760.52 L733.96 1760.65 L708.59 1760.89 L683.35 1761.02 L657.98 1761.14 L632.73 1761.39 L607.37 1761.39 L582.12 1761.51 L556.75 1761.64 L531.51 1761.76 L506.14 1761.76 L480.89 1761.88 L455.52 1761.88 L455.52 1762.26 Z" stroke-linejoin="round"/>
	</defs>
	<defs>
		<clipPath id="clipPath_tLeNMkDf">
			<use xlink:href="#path_rBtXoCzB"/>
		</clipPath>
	</defs>
	<use xlink:href="#path_rBtXoCzB" style="stroke:none;fill:#E6E6E6"/>
	<use xlink:href="#path_rBtXoCzB" style="fill:none;stroke:#E0E0E0;stroke-width:14.69" clip-path="url(#clipPath_tLeNMkDf)"/>
	<path d=" M455.52 1762.13 L480.77 1762.13 L506.14 1762.13 L531.38 1762.01 L556.75 1762.01 L582.00 1761.88 L607.37 1761.88 L632.61 1761.76 L657.98 1761.64 L683.22 1761.51 L708.59 1761.39 L733.84 1761.27 L759.21 1761.14 L784.45 1760.89 L809.82 1760.65 L835.07 1760.40 L860.43 1760.03 L885.68 1759.66 L911.05 1759.28 L936.29 1758.79 L961.66 1758.29 L986.91 1757.80 L1012.27 1757.18 L1037.52 1756.56 L1062.89 1755.82 L1088.13 1754.95 L1113.50 1754.21 L1138.87 1753.22 L1164.12 1752.23 L1189.48 1751.12 L1214.73 1750.00 L1240.10 1748.77 L1265.34 1747.40 L1290.71 1745.92 L1315.96 1744.31 L1341.33 1742.45 L1366.57 1740.60 L1391.94 1738.49 L1417.18 1736.02 L1442.55 1733.42 L1467.80 1730.57 L1493.17 1727.36 L1518.41 1723.64 L1543.78 1719.68 L1569.03 1715.10 L1594.39 1710.03 L1619.64 1704.46 L1645.01 1698.15 L1670.25 1691.10 L1695.62 1683.18 L1720.87 1674.39 L1746.24 1664.49 L1771.48 1653.35 L1796.85 1640.98 L1822.10 1627.12 L1847.46 1611.65 L1872.71 1594.32 L1898.08 1574.89 L1923.45 1553.11 L1948.69 1528.73 L1974.06 1501.51 L1999.31 1471.06 L2024.67 1437.03" stroke-linejoin="round" style="fill:none;stroke:#008000;stroke-width:7.34"/>
	<path d=" M455.52 1762.26 L480.77 1762.13 L506.14 1762.13 L531.38 1762.13 L556.75 1762.13 L582.00 1762.01 L607.37 1762.01 L632.61 1761.88 L657.98 1761.88 L683.22 1761.76 L708.59 1761.64 L733.84 1761.51 L759.21 1761.39 L784.45 1761.27 L809.82 1761.02 L835.07 1760.89 L860.43 1760.65 L885.68 1760.40 L911.05 1760.03 L936.29 1759.66 L961.66 1759.28 L986.91 1758.91 L1012.27 1758.42 L1037.52 1757.92 L1062.89 1757.43 L1088.13 1756.81 L1113.50 1756.19 L1138.87 1755.57 L1164.12 1754.71 L1189.48 1753.96 L1214.73 1753.10 L1240.10 1752.11 L1265.34 1751.12 L1290.71 1750.00 L1315.96 1748.77 L1341.33 1747.40 L1366.57 1746.04 L1391.94 1744.43 L1417.18 1742.58 L1442.55 1740.60 L1467.80 1738.49 L1493.17 1736.02 L1518.41 1733.30 L1543.78 1730.33 L1569.03 1726.86 L1594.39 1723.03 L1619.64 1718.82 L1645.01 1714.11 L1670.25 1708.79 L1695.62 1702.85 L1720.87 1696.29 L1746.24 1688.87 L1771.48 1680.58 L1796.85 1671.30 L1822.10 1660.90 L1847.46 1649.14 L1872.71 1636.15 L1898.08 1621.55 L1923.45 1605.21 L1948.69 1586.90 L1974.06 1566.48 L1999.31 1543.58 L2024.67 1517.96" stroke-linejoin="round" style="fill:none;stroke:#55752F;stroke-width:7.34"/>
	<path d=" M455.52 1762.26 L480.77 1762.26 L506.14 1762.13 L531.38 1762.13 L556.75 1762.13 L582.00 1762.13 L607.37 1762.01 L632.61 1762.01 L657.98 1761.88 L683.22 1761.88 L708.59 1761.76 L733.84 1761.64 L759.21 1761.51 L784.45 1761.39 L809.82 1761.27 L835.07 1761.14 L860.43 1760.89 L885.68 1760.65 L911.05 1760.40 L936.29 1760.15 L961.66 1759.90 L986.91 1759.53 L1012.27 1759.16 L1037.52 1758.79 L1062.89 1758.29 L1088.13 1757.80 L1113.50 1757.30 L1138.87 1756.69 L1164.12 1756.07 L1189.48 1755.45 L1214.73 1754.71 L1240.10 1753.96 L1265.34 1753.10 L1290.71 1752.23 L1315.96 1751.12 L1341.33 1750.13 L1366.57 1748.89 L1391.94 1747.53 L1417.18 1746.04 L1442.55 1744.43 L1467.80 1742.70 L1493.17 1740.72 L1518.41 1738.37 L1543.78 1735.90 L1569.03 1733.17 L1594.39 1729.96 L1619.64 1726.49 L1645.01 1722.65 L1670.25 1718.20 L1695.62 1713.37 L1720.87 1707.93 L1746.24 1701.86 L1771.48 1694.93 L1796.85 1687.26 L1822.10 1678.72 L1847.46 1669.19 L1872.71 1658.43 L1898.08 1646.42 L1923.45 1632.93 L1948.69 1617.83 L1974.06 1601.00 L1999.31 1582.19 L2024.67 1561.03" stroke-linejoin="round" style="fill:none;stroke:#00FF00;stroke-width:7.34"/>
	<path d=" M455.52 1762.01 L480.77 1762.01 L506.14 1761.88 L531.38 1761.88 L556.75 1761.76 L582.00 1761.64 L607.37 1761.51 L632.61 1761.39 L657.98 1761.27 L683.22 1761.14 L708.59 1760.89 L733.84 1760.65 L759.21 1760.28 L784.45 1760.03 L809.82 1759.53 L835.07 1759.16 L860.43 1758.67 L885.68 1758.05 L911.05 1757.43 L936.29 1756.69 L961.66 1755.82 L986.91 1754.95 L1012.27 1753.96 L1037.52 1752.85 L1062.89 1751.74 L1088.13 1750.50 L1113.50 1749.14 L1138.87 1747.65 L1164.12 1746.04 L1189.48 1744.31 L1214.73 1742.33 L1240.10 1740.35 L1265.34 1738.12 L1290.71 1735.77 L1315.96 1733.05 L1341.33 1730.20 L1366.57 1727.11 L1391.94 1723.64 L1417.18 1719.81 L1442.55 1715.60 L1467.80 1710.90 L1493.17 1705.58 L1518.41 1699.76 L1543.78 1693.20 L1569.03 1685.90 L1594.39 1677.73 L1619.64 1668.57 L1645.01 1658.30 L1670.25 1646.92 L1695.62 1634.17 L1720.87 1619.81 L1746.24 1603.85 L1771.48 1586.03 L1796.85 1565.98 L1822.10 1543.58 L1847.46 1518.46 L1872.71 1490.37 L1898.08 1458.93 L1923.45 1423.66 L1948.69 1384.31 L1974.06 1340.25 L1999.31 1290.88 L2024.67 1235.81" stroke-linejoin="round" style="fill:none;stroke:#FFD200;stroke-width:7.34"/>
	<path d=" M455.52 1762.13 L480.77 1762.01 L506.14 1762.01 L531.38 1761.88 L556.75 1761.88 L582.00 1761.76 L607.37 1761.64 L632.61 1761.51 L657.98 1761.39 L683.22 1761.27 L708.59 1761.02 L733.84 1760.77 L759.21 1760.52 L784.45 1760.28 L809.82 1759.90 L835.07 1759.53 L860.43 1759.04 L885.68 1758.54 L911.05 1757.92 L936.29 1757.30 L961.66 1756.56 L986.91 1755.82 L1012.27 1754.95 L1037.52 1753.96 L1062.89 1752.97 L1088.13 1751.86 L1113.50 1750.62 L1138.87 1749.26 L1164.12 1747.90 L1189.48 1746.29 L1214.73 1744.68 L1240.10 1742.83 L1265.34 1740.85 L1290.71 1738.74 L1315.96 1736.39 L1341.33 1733.92 L1366.57 1731.07 L1391.94 1727.98 L1417.18 1724.63 L1442.55 1720.80 L1467.80 1716.71 L1493.17 1712.01 L1518.41 1706.81 L1543.78 1701.00 L1569.03 1694.44 L1594.39 1687.26 L1619.64 1679.09 L1645.01 1670.06 L1670.25 1659.91 L1695.62 1648.65 L1720.87 1635.90 L1746.24 1621.67 L1771.48 1605.83 L1796.85 1588.01 L1822.10 1568.21 L1847.46 1545.93 L1872.71 1520.94 L1898.08 1493.09 L1923.45 1461.78 L1948.69 1426.88 L1974.06 1387.78 L1999.31 1343.97 L2024.67 1295.08" stroke-linejoin="round" style="fill:none;stroke:#FF7F00;stroke-width:7.34"/>
	<path d=" M455.52 1762.13 L480.77 1762.13 L506.14 1762.13 L531.38 1762.01 L556.75 1762.01 L582.00 1761.88 L607.37 1761.88 L632.61 1761.76 L657.98 1761.64 L683.22 1761.64 L708.59 1761.39 L733.84 1761.27 L759.21 1761.14 L784.45 1760.89 L809.82 1760.65 L835.07 1760.40 L860.43 1760.03 L885.68 1759.78 L911.05 1759.28 L936.29 1758.91 L961.66 1758.42 L986.91 1757.80 L1012.27 1757.30 L1037.52 1756.56 L1062.89 1755.94 L1088.13 1755.08 L1113.50 1754.33 L1138.87 1753.34 L1164.12 1752.35 L1189.48 1751.36 L1214.73 1750.25 L1240.10 1749.01 L1265.34 1747.65 L1290.71 1746.17 L1315.96 1744.56 L1341.33 1742.83 L1366.57 1740.97 L1391.94 1738.87 L1417.18 1736.51 L1442.55 1733.92 L1467.80 1731.07 L1493.17 1727.85 L1518.41 1724.26 L1543.78 1720.30 L1569.03 1715.85 L1594.39 1710.90 L1619.64 1705.33 L1645.01 1699.14 L1670.25 1692.09 L1695.62 1684.41 L1720.87 1675.63 L1746.24 1665.97 L1771.48 1655.08 L1796.85 1642.83 L1822.10 1629.22 L1847.46 1614.00 L1872.71 1596.92 L1898.08 1577.74 L1923.45 1556.33 L1948.69 1532.32 L1974.06 1505.47 L1999.31 1475.52 L2024.67 1441.98" stroke-linejoin="round" style="fill:none;stroke:#9C8847;stroke-width:7.34"/>
	<path d=" M455.52 1762.26 L480.77 1762.26 L506.14 1762.13 L531.38 1762.13 L556.75 1762.13 L582.00 1762.13 L607.37 1762.01 L632.61 1762.01 L657.98 1761.88 L683.22 1761.88 L708.59 1761.76 L733.84 1761.64 L759.21 1761.51 L784.45 1761.39 L809.82 1761.27 L835.07 1761.14 L860.43 1760.89 L885.68 1760.65 L911.05 1760.40 L936.29 1760.15 L961.66 1759.90 L986.91 1759.53 L1012.27 1759.16 L1037.52 1758.79 L1062.89 1758.29 L1088.13 1757.80 L1113.50 1757.30 L1138.87 1756.69 L1164.12 1756.07 L1189.48 1755.45 L1214.73 1754.71 L1240.10 1753.96 L1265.34 1753.10 L1290.71 1752.23 L1315.96 1751.24 L1341.33 1750.13 L1366.57 1748.89 L1391.94 1747.53 L1417.18 1746.17 L1442.55 1744.56 L1467.80 1742.70 L1493.17 1740.72 L1518.41 1738.49 L1543.78 1736.02 L1569.03 1733.17 L1594.39 1730.08 L1619.64 1726.61 L1645.01 1722.65 L1670.25 1718.32 L1695.62 1713.50 L1720.87 1708.05 L1746.24 1701.86 L1771.48 1695.06 L1796.85 1687.38 L1822.10 1678.84 L1847.46 1669.32 L1872.71 1658.55 L1898.08 1646.55 L1923.45 1633.18 L1948.69 1618.08 L1974.06 1601.25 L1999.31 1582.44 L2024.67 1561.40" stroke-linejoin="round" style="fill:none;stroke:#1A476F;stroke-width:7.34"/>
	<line x1="455.52" y1="1722.65" x2="458.37" y2="1722.65" style="stroke:#000000;stroke-width:7.34"/>
	<line x1="478.54" y1="1722.65" x2="480.77" y2="1722.65" style="stroke:#000000;stroke-width:7.34"/>
	<line x1="480.77" y1="1722.65" x2="481.39" y2="1722.65" style="stroke:#000000;stroke-width:7.34"/>
	<line x1="501.56" y1="1722.65" x2="504.40" y2="1722.65" style="stroke:#000000;stroke-width:7.34"/>
	<line x1="524.58" y1="1722.65" x2="527.42" y2="1722.65" style="stroke:#000000;stroke-width:7.34"/>
	<line x1="547.59" y1="1722.65" x2="550.44" y2="1722.65" style="stroke:#000000;stroke-width:7.34"/>
	<line x1="570.61" y1="1722.65" x2="573.58" y2="1722.65" style="stroke:#000000;stroke-width:7.34"/>
	<line x1="593.75" y1="1722.65" x2="596.60" y2="1722.65" style="stroke:#000000;stroke-width:7.34"/>
	<line x1="616.77" y1="1722.65" x2="619.62" y2="1722.65" style="stroke:#000000;stroke-width:7.34"/>
	<line x1="639.79" y1="1722.65" x2="642.63" y2="1722.65" style="stroke:#000000;stroke-width:7.34"/>
	<line x1="662.80" y1="1722.65" x2="665.65" y2="1722.65" style="stroke:#000000;stroke-width:7.34"/>
	<line x1="685.82" y1="1722.65" x2="688.67" y2="1722.65" style="stroke:#000000;stroke-width:7.34"/>
	<line x1="708.84" y1="1722.65" x2="711.69" y2="1722.65" style="stroke:#000000;stroke-width:7.34"/>
	<line x1="731.86" y1="1722.65" x2="733.84" y2="1722.65" style="stroke:#000000;stroke-width:7.34"/>
	<line x1="733.84" y1="1722.65" x2="734.70" y2="1722.65" style="stroke:#000000;stroke-width:7.34"/>
	<line x1="754.88" y1="1722.65" x2="757.72" y2="1722.65" style="stroke:#000000;stroke-width:7.34"/>
	<line x1="777.89" y1="1722.65" x2="780.74" y2="1722.65" style="stroke:#000000;stroke-width:7.34"/>
	<line x1="800.91" y1="1722.65" x2="803.88" y2="1722.65" style="stroke:#000000;stroke-width:7.34"/>
	<line x1="823.93" y1="1722.65" x2="826.90" y2="1722.65" style="stroke:#000000;stroke-width:7.34"/>
	<line x1="847.07" y1="1722.65" x2="849.91" y2="1722.65" style="stroke:#000000;stroke-width:7.34"/>
	<line x1="870.09" y1="1722.65" x2="872.93" y2="1722.65" style="stroke:#000000;stroke-width:7.34"/>
	<line x1="893.10" y1="1722.65" x2="895.95" y2="1722.65" style="stroke:#000000;stroke-width:7.34"/>
	<line x1="916.12" y1="1722.65" x2="918.97" y2="1722.65" style="stroke:#000000;stroke-width:7.34"/>
	<line x1="939.14" y1="1722.65" x2="941.99" y2="1722.65" style="stroke:#000000;stroke-width:7.34"/>
	<line x1="962.16" y1="1722.65" x2="965.00" y2="1722.65" style="stroke:#000000;stroke-width:7.34"/>
	<line x1="985.17" y1="1722.65" x2="986.91" y2="1722.65" style="stroke:#000000;stroke-width:7.34"/>
	<line x1="986.91" y1="1722.65" x2="988.02" y2="1722.65" style="stroke:#000000;stroke-width:7.34"/>
	<line x1="1008.19" y1="1722.65" x2="1011.04" y2="1722.65" style="stroke:#000000;stroke-width:7.34"/>
	<line x1="1031.21" y1="1722.65" x2="1034.06" y2="1722.65" style="stroke:#000000;stroke-width:7.34"/>
	<line x1="1054.23" y1="1722.65" x2="1057.20" y2="1722.65" style="stroke:#000000;stroke-width:7.34"/>
	<line x1="1077.24" y1="1722.65" x2="1080.21" y2="1722.65" style="stroke:#000000;stroke-width:7.34"/>
	<line x1="1100.38" y1="1722.65" x2="1103.23" y2="1722.65" style="stroke:#000000;stroke-width:7.34"/>
	<line x1="1123.40" y1="1722.65" x2="1126.25" y2="1722.65" style="stroke:#000000;stroke-width:7.34"/>
	<line x1="1146.42" y1="1722.65" x2="1149.27" y2="1722.65" style="stroke:#000000;stroke-width:7.34"/>
	<line x1="1169.44" y1="1722.65" x2="1172.28" y2="1722.65" style="stroke:#000000;stroke-width:7.34"/>
	<line x1="1192.45" y1="1722.65" x2="1195.30" y2="1722.65" style="stroke:#000000;stroke-width:7.34"/>
	<line x1="1215.47" y1="1722.65" x2="1218.32" y2="1722.65" style="stroke:#000000;stroke-width:7.34"/>
	<line x1="1238.49" y1="1722.65" x2="1240.10" y2="1722.65" style="stroke:#000000;stroke-width:7.34"/>
	<line x1="1240.10" y1="1722.65" x2="1241.34" y2="1722.65" style="stroke:#000000;stroke-width:7.34"/>
	<line x1="1261.51" y1="1722.65" x2="1264.35" y2="1722.65" style="stroke:#000000;stroke-width:7.34"/>
	<line x1="1284.53" y1="1722.65" x2="1287.37" y2="1722.65" style="stroke:#000000;stroke-width:7.34"/>
	<line x1="1307.54" y1="1722.65" x2="1310.51" y2="1722.65" style="stroke:#000000;stroke-width:7.34"/>
	<line x1="1330.56" y1="1722.65" x2="1333.53" y2="1722.65" style="stroke:#000000;stroke-width:7.34"/>
	<line x1="1353.70" y1="1722.65" x2="1356.55" y2="1722.65" style="stroke:#000000;stroke-width:7.34"/>
	<line x1="1376.72" y1="1722.65" x2="1379.57" y2="1722.65" style="stroke:#000000;stroke-width:7.34"/>
	<line x1="1399.74" y1="1722.65" x2="1402.58" y2="1722.65" style="stroke:#000000;stroke-width:7.34"/>
	<line x1="1422.75" y1="1722.65" x2="1425.60" y2="1722.65" style="stroke:#000000;stroke-width:7.34"/>
	<line x1="1445.77" y1="1722.65" x2="1448.62" y2="1722.65" style="stroke:#000000;stroke-width:7.34"/>
	<line x1="1468.79" y1="1722.65" x2="1471.63" y2="1722.65" style="stroke:#000000;stroke-width:7.34"/>
	<line x1="1491.81" y1="1722.65" x2="1493.17" y2="1722.65" style="stroke:#000000;stroke-width:7.34"/>
	<line x1="1493.17" y1="1722.65" x2="1494.65" y2="1722.65" style="stroke:#000000;stroke-width:7.34"/>
	<line x1="1514.82" y1="1722.65" x2="1517.67" y2="1722.65" style="stroke:#000000;stroke-width:7.34"/>
	<line x1="1537.84" y1="1722.65" x2="1540.69" y2="1722.65" style="stroke:#000000;stroke-width:7.34"/>
	<line x1="1560.86" y1="1722.65" x2="1563.83" y2="1722.65" style="stroke:#000000;stroke-width:7.34"/>
	<line x1="1584.00" y1="1722.65" x2="1586.85" y2="1722.65" style="stroke:#000000;stroke-width:7.34"/>
	<line x1="1607.02" y1="1722.65" x2="1609.86" y2="1722.65" style="stroke:#000000;stroke-width:7.34"/>
	<line x1="1630.04" y1="1722.65" x2="1632.88" y2="1722.65" style="stroke:#000000;stroke-width:7.34"/>
	<line x1="1653.05" y1="1722.65" x2="1655.90" y2="1722.65" style="stroke:#000000;stroke-width:7.34"/>
	<line x1="1676.07" y1="1722.65" x2="1678.92" y2="1722.65" style="stroke:#000000;stroke-width:7.34"/>
	<line x1="1699.09" y1="1722.65" x2="1701.93" y2="1722.65" style="stroke:#000000;stroke-width:7.34"/>
	<line x1="1722.11" y1="1722.65" x2="1724.95" y2="1722.65" style="stroke:#000000;stroke-width:7.34"/>
	<line x1="1745.12" y1="1722.65" x2="1746.24" y2="1722.65" style="stroke:#000000;stroke-width:7.34"/>
	<line x1="1746.24" y1="1722.65" x2="1747.97" y2="1722.65" style="stroke:#000000;stroke-width:7.34"/>
	<line x1="1768.14" y1="1722.65" x2="1770.99" y2="1722.65" style="stroke:#000000;stroke-width:7.34"/>
	<line x1="1791.16" y1="1722.65" x2="1794.00" y2="1722.65" style="stroke:#000000;stroke-width:7.34"/>
	<line x1="1814.17" y1="1722.65" x2="1817.14" y2="1722.65" style="stroke:#000000;stroke-width:7.34"/>
	<line x1="1837.32" y1="1722.65" x2="1840.16" y2="1722.65" style="stroke:#000000;stroke-width:7.34"/>
	<line x1="1860.33" y1="1722.65" x2="1863.18" y2="1722.65" style="stroke:#000000;stroke-width:7.34"/>
	<line x1="1883.35" y1="1722.65" x2="1886.20" y2="1722.65" style="stroke:#000000;stroke-width:7.34"/>
	<line x1="1906.37" y1="1722.65" x2="1909.21" y2="1722.65" style="stroke:#000000;stroke-width:7.34"/>
	<line x1="1929.39" y1="1722.65" x2="1932.23" y2="1722.65" style="stroke:#000000;stroke-width:7.34"/>
	<line x1="1952.40" y1="1722.65" x2="1955.25" y2="1722.65" style="stroke:#000000;stroke-width:7.34"/>
	<line x1="1975.42" y1="1722.65" x2="1978.27" y2="1722.65" style="stroke:#000000;stroke-width:7.34"/>
	<line x1="1998.44" y1="1722.65" x2="1999.31" y2="1722.65" style="stroke:#000000;stroke-width:7.34"/>
	<line x1="1999.31" y1="1722.65" x2="2001.29" y2="1722.65" style="stroke:#000000;stroke-width:7.34"/>
	<line x1="2021.46" y1="1722.65" x2="2024.30" y2="1722.65" style="stroke:#000000;stroke-width:7.34"/>
	<path d="" stroke-linejoin="round" style="fill:none;stroke:#000000;stroke-width:7.34"/>
	<defs>
		<path id="path_lsYARTRl" d="M2201.51 1762.26 L2201.51 1762.26 L2226.88 1762.26 L2252.13 1762.13 L2277.49 1762.13 L2302.74 1762.13 L2328.11 1762.13 L2353.35 1762.01 L2378.72 1762.01 L2403.97 1761.88 L2429.34 1761.88 L2454.58 1761.76 L2479.95 1761.64 L2505.20 1761.51 L2530.56 1761.27 L2555.81 1761.14 L2581.18 1760.89 L2606.42 1760.65 L2631.79 1760.40 L2657.04 1760.03 L2682.41 1759.66 L2707.65 1759.28 L2733.02 1758.79 L2758.26 1758.29 L2783.63 1757.80 L2808.88 1757.18 L2834.25 1756.56 L2859.49 1755.94 L2884.86 1755.20 L2910.11 1754.33 L2935.47 1753.47 L2960.72 1752.48 L2986.09 1751.49 L3011.46 1750.37 L3036.70 1749.14 L3062.07 1747.78 L3087.32 1746.29 L3112.68 1744.68 L3137.93 1742.83 L3163.30 1740.85 L3188.54 1738.74 L3213.91 1736.27 L3239.16 1733.54 L3264.53 1730.57 L3289.77 1727.23 L3315.14 1723.52 L3340.38 1719.44 L3365.75 1714.73 L3391.00 1709.54 L3416.37 1703.84 L3441.61 1697.28 L3466.98 1690.11 L3492.22 1681.94 L3517.59 1672.90 L3542.84 1662.76 L3568.21 1651.37 L3593.45 1638.62 L3618.82 1624.39 L3644.07 1608.43 L3669.43 1590.48 L3694.68 1570.56 L3720.05 1548.16 L3745.42 1523.16 L3770.66 1495.19 L3770.66 1443.96 L3745.42 1477.25 L3720.05 1507.07 L3694.68 1533.81 L3669.43 1557.57 L3644.07 1578.85 L3618.82 1597.79 L3593.45 1614.86 L3568.21 1629.96 L3542.84 1643.58 L3517.59 1655.58 L3492.22 1666.47 L3466.98 1676.12 L3441.61 1684.79 L3416.37 1692.46 L3391.00 1699.39 L3365.75 1705.58 L3340.38 1711.02 L3315.14 1715.97 L3289.77 1720.43 L3264.53 1724.39 L3239.16 1727.85 L3213.91 1731.07 L3188.54 1733.92 L3163.30 1736.39 L3137.93 1738.62 L3112.68 1740.72 L3087.32 1742.58 L3062.07 1744.19 L3036.70 1745.80 L3011.46 1747.16 L2986.09 1748.52 L2960.72 1749.76 L2935.47 1750.87 L2910.11 1751.98 L2884.86 1752.97 L2859.49 1753.84 L2834.25 1754.71 L2808.88 1755.45 L2783.63 1756.19 L2758.26 1756.93 L2733.02 1757.55 L2707.65 1758.05 L2682.41 1758.54 L2657.04 1759.04 L2631.79 1759.41 L2606.42 1759.66 L2581.18 1760.03 L2555.81 1760.28 L2530.56 1760.52 L2505.20 1760.65 L2479.95 1760.89 L2454.58 1761.02 L2429.34 1761.14 L2403.97 1761.27 L2378.72 1761.39 L2353.35 1761.51 L2328.11 1761.64 L2302.74 1761.64 L2277.49 1761.76 L2252.13 1761.88 L2226.88 1761.88 L2201.51 1761.88 L2201.51 1762.26 Z" stroke-linejoin="round"/>
	</defs>
	<defs>
		<clipPath id="clipPath_STQrhPsu">
			<use xlink:href="#path_lsYARTRl"/>
		</clipPath>
	</defs>
	<use xlink:href="#path_lsYARTRl" style="stroke:none;fill:#E6E6E6"/>
	<use xlink:href="#path_lsYARTRl" style="fill:none;stroke:#E0E0E0;stroke-width:14.69" clip-path="url(#clipPath_STQrhPsu)"/>
	<defs>
		<path id="path_bHSHwjwL" d="M2201.51 1762.13 L2201.51 1762.13 L2226.88 1762.13 L2252.13 1762.13 L2277.49 1762.13 L2302.74 1762.01 L2328.11 1762.01 L2353.35 1761.88 L2378.72 1761.76 L2403.97 1761.76 L2429.34 1761.64 L2454.58 1761.39 L2479.95 1761.27 L2505.20 1761.02 L2530.56 1760.77 L2555.81 1760.52 L2581.18 1760.15 L2606.42 1759.78 L2631.79 1759.28 L2657.04 1758.79 L2682.41 1758.17 L2707.65 1757.55 L2733.02 1756.93 L2758.26 1756.19 L2783.63 1755.32 L2808.88 1754.46 L2834.25 1753.47 L2859.49 1752.48 L2884.86 1751.36 L2910.11 1750.13 L2935.47 1748.77 L2960.72 1747.40 L2986.09 1745.80 L3011.46 1744.06 L3036.70 1742.21 L3062.07 1740.10 L3087.32 1737.88 L3112.68 1735.52 L3137.93 1732.80 L3163.30 1729.83 L3188.54 1726.49 L3213.91 1722.90 L3239.16 1718.82 L3264.53 1714.36 L3289.77 1709.29 L3315.14 1703.72 L3340.38 1697.41 L3365.75 1690.35 L3391.00 1682.56 L3416.37 1673.77 L3441.61 1663.99 L3466.98 1652.98 L3492.22 1640.73 L3517.59 1626.99 L3542.84 1611.65 L3568.21 1594.44 L3593.45 1575.14 L3618.82 1553.61 L3644.07 1529.35 L3669.43 1502.37 L3694.68 1472.18 L3720.05 1438.27 L3745.42 1400.52 L3770.66 1358.20 L3770.66 1210.81 L3745.42 1268.60 L3720.05 1320.21 L3694.68 1366.37 L3669.43 1407.58 L3644.07 1444.46 L3618.82 1477.37 L3593.45 1506.83 L3568.21 1533.06 L3542.84 1556.58 L3517.59 1577.49 L3492.22 1596.18 L3466.98 1613.01 L3441.61 1627.98 L3416.37 1641.35 L3391.00 1653.23 L3365.75 1663.99 L3340.38 1673.52 L3315.14 1682.06 L3289.77 1689.74 L3264.53 1696.54 L3239.16 1702.73 L3213.91 1708.17 L3188.54 1713.12 L3163.30 1717.46 L3137.93 1721.42 L3112.68 1725.01 L3087.32 1728.22 L3062.07 1731.19 L3036.70 1733.92 L3011.46 1736.39 L2986.09 1738.74 L2960.72 1740.85 L2935.47 1742.83 L2910.11 1744.68 L2884.86 1746.29 L2859.49 1747.90 L2834.25 1749.38 L2808.88 1750.75 L2783.63 1751.98 L2758.26 1753.10 L2733.02 1754.21 L2707.65 1755.08 L2682.41 1755.94 L2657.04 1756.69 L2631.79 1757.30 L2606.42 1757.92 L2581.18 1758.42 L2555.81 1758.91 L2530.56 1759.28 L2505.20 1759.66 L2479.95 1760.03 L2454.58 1760.28 L2429.34 1760.52 L2403.97 1760.65 L2378.72 1760.89 L2353.35 1761.02 L2328.11 1761.14 L2302.74 1761.27 L2277.49 1761.39 L2252.13 1761.51 L2226.88 1761.64 L2201.51 1761.64 L2201.51 1762.13 Z" stroke-linejoin="round"/>
	</defs>
	<defs>
		<clipPath id="clipPath_RmayVbKI">
			<use xlink:href="#path_bHSHwjwL"/>
		</clipPath>
	</defs>
	<use xlink:href="#path_bHSHwjwL" style="stroke:none;fill:#E6E6E6"/>
	<use xlink:href="#path_bHSHwjwL" style="fill:none;stroke:#E0E0E0;stroke-width:14.69" clip-path="url(#clipPath_RmayVbKI)"/>
	<defs>
		<path id="path_jtbveItV" d="M2201.51 1762.26 L2201.51 1762.26 L2226.88 1762.13 L2252.13 1762.13 L2277.49 1762.13 L2302.74 1762.13 L2328.11 1762.01 L2353.35 1762.01 L2378.72 1761.88 L2403.97 1761.88 L2429.34 1761.76 L2454.58 1761.64 L2479.95 1761.51 L2505.20 1761.27 L2530.56 1761.14 L2555.81 1760.89 L2581.18 1760.65 L2606.42 1760.28 L2631.79 1760.03 L2657.04 1759.53 L2682.41 1759.16 L2707.65 1758.67 L2733.02 1758.17 L2758.26 1757.55 L2783.63 1756.93 L2808.88 1756.31 L2834.25 1755.57 L2859.49 1754.71 L2884.86 1753.84 L2910.11 1752.97 L2935.47 1751.86 L2960.72 1750.75 L2986.09 1749.51 L3011.46 1748.27 L3036.70 1746.79 L3062.07 1745.18 L3087.32 1743.44 L3112.68 1741.59 L3137.93 1739.48 L3163.30 1737.13 L3188.54 1734.66 L3213.91 1731.81 L3239.16 1728.59 L3264.53 1725.13 L3289.77 1721.17 L3315.14 1716.84 L3340.38 1712.01 L3365.75 1706.57 L3391.00 1700.50 L3416.37 1693.70 L3441.61 1686.02 L3466.98 1677.61 L3492.22 1668.08 L3517.59 1657.44 L3542.84 1645.43 L3568.21 1632.19 L3593.45 1617.22 L3618.82 1600.39 L3644.07 1581.70 L3669.43 1560.78 L3694.68 1537.27 L3720.05 1511.03 L3745.42 1481.71 L3770.66 1448.91 L3770.66 1361.17 L3745.42 1403.25 L3720.05 1440.74 L3694.68 1474.40 L3669.43 1504.35 L3644.07 1531.08 L3618.82 1555.09 L3593.45 1576.50 L3568.21 1595.56 L3542.84 1612.64 L3517.59 1627.86 L3492.22 1641.47 L3466.98 1653.72 L3441.61 1664.61 L3416.37 1674.27 L3391.00 1683.05 L3365.75 1690.73 L3340.38 1697.78 L3315.14 1703.97 L3289.77 1709.54 L3264.53 1714.49 L3239.16 1718.94 L3213.91 1722.90 L3188.54 1726.49 L3163.30 1729.71 L3137.93 1732.55 L3112.68 1735.15 L3087.32 1737.50 L3062.07 1739.61 L3036.70 1741.59 L3011.46 1743.32 L2986.09 1745.05 L2960.72 1746.54 L2935.47 1748.02 L2910.11 1749.38 L2884.86 1750.62 L2859.49 1751.74 L2834.25 1752.85 L2808.88 1753.84 L2783.63 1754.71 L2758.26 1755.57 L2733.02 1756.31 L2707.65 1757.06 L2682.41 1757.68 L2657.04 1758.17 L2631.79 1758.67 L2606.42 1759.04 L2581.18 1759.41 L2555.81 1759.78 L2530.56 1760.03 L2505.20 1760.40 L2479.95 1760.52 L2454.58 1760.77 L2429.34 1760.89 L2403.97 1761.14 L2378.72 1761.27 L2353.35 1761.39 L2328.11 1761.51 L2302.74 1761.51 L2277.49 1761.64 L2252.13 1761.76 L2226.88 1761.76 L2201.51 1761.88 L2201.51 1762.26 Z" stroke-linejoin="round"/>
	</defs>
	<defs>
		<clipPath id="clipPath_AGfovbJn">
			<use xlink:href="#path_jtbveItV"/>
		</clipPath>
	</defs>
	<use xlink:href="#path_jtbveItV" style="stroke:none;fill:#E6E6E6"/>
	<use xlink:href="#path_jtbveItV" style="fill:none;stroke:#E0E0E0;stroke-width:14.69" clip-path="url(#clipPath_AGfovbJn)"/>
	<defs>
		<path id="path_xhkiDPyZ" d="M2201.51 1762.26 L2201.51 1762.26 L2226.88 1762.26 L2252.13 1762.13 L2277.49 1762.13 L2302.74 1762.13 L2328.11 1762.13 L2353.35 1762.01 L2378.72 1762.01 L2403.97 1761.88 L2429.34 1761.88 L2454.58 1761.76 L2479.95 1761.64 L2505.20 1761.51 L2530.56 1761.27 L2555.81 1761.14 L2581.18 1760.89 L2606.42 1760.65 L2631.79 1760.40 L2657.04 1760.03 L2682.41 1759.66 L2707.65 1759.28 L2733.02 1758.79 L2758.26 1758.29 L2783.63 1757.80 L2808.88 1757.30 L2834.25 1756.69 L2859.49 1755.94 L2884.86 1755.20 L2910.11 1754.46 L2935.47 1753.59 L2960.72 1752.60 L2986.09 1751.61 L3011.46 1750.50 L3036.70 1749.26 L3062.07 1747.90 L3087.32 1746.54 L3112.68 1744.93 L3137.93 1743.20 L3163.30 1741.22 L3188.54 1739.11 L3213.91 1736.64 L3239.16 1734.04 L3264.53 1731.07 L3289.77 1727.85 L3315.14 1724.14 L3340.38 1720.06 L3365.75 1715.48 L3391.00 1710.40 L3416.37 1704.71 L3441.61 1698.27 L3466.98 1691.10 L3492.22 1683.18 L3517.59 1674.14 L3542.84 1664.12 L3568.21 1652.98 L3593.45 1640.36 L3618.82 1626.25 L3644.07 1610.53 L3669.43 1592.96 L3694.68 1573.16 L3720.05 1551.13 L3745.42 1526.38 L3770.66 1498.78 L3770.66 1438.51 L3745.42 1472.55 L3720.05 1502.74 L3694.68 1529.85 L3669.43 1554.10 L3644.07 1575.63 L3618.82 1594.94 L3593.45 1612.27 L3568.21 1627.61 L3542.84 1641.47 L3517.59 1653.72 L3492.22 1664.74 L3466.98 1674.51 L3441.61 1683.30 L3416.37 1691.22 L3391.00 1698.27 L3365.75 1704.59 L3340.38 1710.15 L3315.14 1715.23 L3289.77 1719.68 L3264.53 1723.64 L3239.16 1727.23 L3213.91 1730.45 L3188.54 1733.42 L3163.30 1735.90 L3137.93 1738.25 L3112.68 1740.35 L3087.32 1742.21 L3062.07 1743.94 L3036.70 1745.55 L3011.46 1746.91 L2986.09 1748.27 L2960.72 1749.51 L2935.47 1750.75 L2910.11 1751.74 L2884.86 1752.85 L2859.49 1753.72 L2834.25 1754.58 L2808.88 1755.45 L2783.63 1756.19 L2758.26 1756.81 L2733.02 1757.43 L2707.65 1758.05 L2682.41 1758.54 L2657.04 1758.91 L2631.79 1759.28 L2606.42 1759.66 L2581.18 1760.03 L2555.81 1760.28 L2530.56 1760.52 L2505.20 1760.65 L2479.95 1760.89 L2454.58 1761.02 L2429.34 1761.14 L2403.97 1761.27 L2378.72 1761.39 L2353.35 1761.51 L2328.11 1761.64 L2302.74 1761.64 L2277.49 1761.76 L2252.13 1761.88 L2226.88 1761.88 L2201.51 1761.88 L2201.51 1762.26 Z" stroke-linejoin="round"/>
	</defs>
	<defs>
		<clipPath id="clipPath_QLSJriWj">
			<use xlink:href="#path_xhkiDPyZ"/>
		</clipPath>
	</defs>
	<use xlink:href="#path_xhkiDPyZ" style="stroke:none;fill:#E6E6E6"/>
	<use xlink:href="#path_xhkiDPyZ" style="fill:none;stroke:#E0E0E0;stroke-width:14.69" clip-path="url(#clipPath_QLSJriWj)"/>
	<defs>
		<path id="path_ayzlQjku" d="M2201.51 1762.13 L2201.51 1762.13 L2226.88 1762.13 L2252.13 1762.01 L2277.49 1762.01 L2302.74 1761.88 L2328.11 1761.76 L2353.35 1761.64 L2378.72 1761.51 L2403.97 1761.39 L2429.34 1761.27 L2454.58 1761.02 L2479.95 1760.77 L2505.20 1760.40 L2530.56 1760.03 L2555.81 1759.66 L2581.18 1759.16 L2606.42 1758.54 L2631.79 1757.92 L2657.04 1757.18 L2682.41 1756.44 L2707.65 1755.57 L2733.02 1754.58 L2758.26 1753.59 L2783.63 1752.48 L2808.88 1751.24 L2834.25 1749.88 L2859.49 1748.39 L2884.86 1746.91 L2910.11 1745.18 L2935.47 1743.32 L2960.72 1741.34 L2986.09 1739.11 L3011.46 1736.76 L3036.70 1734.16 L3062.07 1731.32 L3087.32 1728.22 L3112.68 1724.88 L3137.93 1721.17 L3163.30 1717.08 L3188.54 1712.51 L3213.91 1707.43 L3239.16 1701.86 L3264.53 1695.55 L3289.77 1688.62 L3315.14 1680.70 L3340.38 1672.04 L3365.75 1662.26 L3391.00 1651.37 L3416.37 1639.24 L3441.61 1625.63 L3466.98 1610.41 L3492.22 1593.33 L3517.59 1574.27 L3542.84 1552.86 L3568.21 1528.98 L3593.45 1502.25 L3618.82 1472.30 L3644.07 1438.64 L3669.43 1401.14 L3694.68 1359.19 L3720.05 1312.16 L3745.42 1259.69 L3770.66 1200.91 L3770.66 723.34 L3745.42 832.00 L3720.05 929.27 L3694.68 1016.14 L3669.43 1093.86 L3644.07 1163.29 L3618.82 1225.29 L3593.45 1280.73 L3568.21 1330.23 L3542.84 1374.41 L3517.59 1414.01 L3492.22 1449.28 L3466.98 1480.84 L3441.61 1509.05 L3416.37 1534.30 L3391.00 1556.82 L3365.75 1577.00 L3340.38 1595.06 L3315.14 1611.15 L3289.77 1625.63 L3264.53 1638.50 L3239.16 1650.13 L3213.91 1660.53 L3188.54 1669.81 L3163.30 1678.10 L3137.93 1685.53 L3112.68 1692.33 L3087.32 1698.52 L3062.07 1704.09 L3036.70 1709.29 L3011.46 1713.99 L2986.09 1718.32 L2960.72 1722.28 L2935.47 1726.00 L2910.11 1729.46 L2884.86 1732.68 L2859.49 1735.65 L2834.25 1738.37 L2808.88 1740.85 L2783.63 1743.20 L2758.26 1745.30 L2733.02 1747.28 L2707.65 1749.14 L2682.41 1750.62 L2657.04 1752.11 L2631.79 1753.34 L2606.42 1754.46 L2581.18 1755.45 L2555.81 1756.31 L2530.56 1757.06 L2505.20 1757.68 L2479.95 1758.17 L2454.58 1758.67 L2429.34 1759.16 L2403.97 1759.53 L2378.72 1759.90 L2353.35 1760.15 L2328.11 1760.40 L2302.74 1760.65 L2277.49 1760.89 L2252.13 1761.02 L2226.88 1761.14 L2201.51 1761.27 L2201.51 1762.13 Z" stroke-linejoin="round"/>
	</defs>
	<defs>
		<clipPath id="clipPath_uPGyhbWC">
			<use xlink:href="#path_ayzlQjku"/>
		</clipPath>
	</defs>
	<use xlink:href="#path_ayzlQjku" style="stroke:none;fill:#E6E6E6"/>
	<use xlink:href="#path_ayzlQjku" style="fill:none;stroke:#E0E0E0;stroke-width:14.69" clip-path="url(#clipPath_uPGyhbWC)"/>
	<defs>
		<path id="path_HrctHUMj" d="M2201.51 1762.13 L2201.51 1762.13 L2226.88 1762.13 L2252.13 1762.01 L2277.49 1762.01 L2302.74 1761.88 L2328.11 1761.88 L2353.35 1761.76 L2378.72 1761.64 L2403.97 1761.51 L2429.34 1761.27 L2454.58 1761.02 L2479.95 1760.77 L2505.20 1760.52 L2530.56 1760.15 L2555.81 1759.78 L2581.18 1759.28 L2606.42 1758.67 L2631.79 1758.05 L2657.04 1757.43 L2682.41 1756.56 L2707.65 1755.70 L2733.02 1754.83 L2758.26 1753.84 L2783.63 1752.73 L2808.88 1751.49 L2834.25 1750.13 L2859.49 1748.77 L2884.86 1747.16 L2910.11 1745.42 L2935.47 1743.69 L2960.72 1741.71 L2986.09 1739.48 L3011.46 1737.13 L3036.70 1734.53 L3062.07 1731.81 L3087.32 1728.72 L3112.68 1725.38 L3137.93 1721.66 L3163.30 1717.58 L3188.54 1713.12 L3213.91 1708.17 L3239.16 1702.61 L3264.53 1696.42 L3289.77 1689.49 L3315.14 1681.69 L3340.38 1673.15 L3365.75 1663.50 L3391.00 1652.73 L3416.37 1640.73 L3441.61 1627.24 L3466.98 1612.14 L3492.22 1595.31 L3517.59 1576.50 L3542.84 1555.34 L3568.21 1531.70 L3593.45 1505.22 L3618.82 1475.64 L3644.07 1442.48 L3669.43 1405.35 L3694.68 1363.77 L3720.05 1317.36 L3745.42 1265.38 L3770.66 1207.34 L3770.66 934.22 L3745.42 1020.85 L3720.05 1098.44 L3694.68 1167.74 L3669.43 1229.62 L3644.07 1284.94 L3618.82 1334.31 L3593.45 1378.49 L3568.21 1417.97 L3542.84 1453.24 L3517.59 1484.80 L3492.22 1512.89 L3466.98 1538.01 L3441.61 1560.54 L3416.37 1580.58 L3391.00 1598.53 L3365.75 1614.62 L3340.38 1628.97 L3315.14 1641.84 L3289.77 1653.35 L3264.53 1663.62 L3239.16 1672.90 L3213.91 1681.07 L3188.54 1688.50 L3163.30 1695.06 L3137.93 1701.00 L3112.68 1706.44 L3087.32 1711.27 L3062.07 1715.72 L3036.70 1719.81 L3011.46 1723.52 L2986.09 1726.99 L2960.72 1730.20 L2935.47 1733.17 L2910.11 1735.90 L2884.86 1738.49 L2859.49 1740.85 L2834.25 1743.07 L2808.88 1745.05 L2783.63 1746.91 L2758.26 1748.64 L2733.02 1750.25 L2707.65 1751.61 L2682.41 1752.85 L2657.04 1753.96 L2631.79 1754.95 L2606.42 1755.94 L2581.18 1756.69 L2555.81 1757.30 L2530.56 1757.92 L2505.20 1758.42 L2479.95 1758.91 L2454.58 1759.28 L2429.34 1759.66 L2403.97 1759.90 L2378.72 1760.28 L2353.35 1760.52 L2328.11 1760.65 L2302.74 1760.89 L2277.49 1761.02 L2252.13 1761.14 L2226.88 1761.27 L2201.51 1761.39 L2201.51 1762.13 Z" stroke-linejoin="round"/>
	</defs>
	<defs>
		<clipPath id="clipPath_iUqQEouF">
			<use xlink:href="#path_HrctHUMj"/>
		</clipPath>
	</defs>
	<use xlink:href="#path_HrctHUMj" style="stroke:none;fill:#E6E6E6"/>
	<use xlink:href="#path_HrctHUMj" style="fill:none;stroke:#E0E0E0;stroke-width:14.69" clip-path="url(#clipPath_iUqQEouF)"/>
	<defs>
		<path id="path_CVQeRgGA" d="M2201.51 1762.13 L2201.51 1762.13 L2226.88 1762.13 L2252.13 1762.13 L2277.49 1762.13 L2302.74 1762.01 L2328.11 1762.01 L2353.35 1761.88 L2378.72 1761.76 L2403.97 1761.76 L2429.34 1761.64 L2454.58 1761.39 L2479.95 1761.27 L2505.20 1761.02 L2530.56 1760.77 L2555.81 1760.52 L2581.18 1760.15 L2606.42 1759.78 L2631.79 1759.28 L2657.04 1758.79 L2682.41 1758.29 L2707.65 1757.68 L2733.02 1757.06 L2758.26 1756.31 L2783.63 1755.57 L2808.88 1754.71 L2834.25 1753.72 L2859.49 1752.73 L2884.86 1751.61 L2910.11 1750.50 L2935.47 1749.14 L2960.72 1747.78 L2986.09 1746.29 L3011.46 1744.56 L3036.70 1742.83 L3062.07 1740.85 L3087.32 1738.62 L3112.68 1736.27 L3137.93 1733.67 L3163.30 1730.82 L3188.54 1727.60 L3213.91 1724.02 L3239.16 1720.18 L3264.53 1715.72 L3289.77 1710.90 L3315.14 1705.45 L3340.38 1699.39 L3365.75 1692.58 L3391.00 1684.91 L3416.37 1676.49 L3441.61 1666.96 L3466.98 1656.32 L3492.22 1644.44 L3517.59 1631.08 L3542.84 1616.23 L3568.21 1599.52 L3593.45 1580.83 L3618.82 1559.92 L3644.07 1536.53 L3669.43 1510.29 L3694.68 1480.96 L3720.05 1448.17 L3745.42 1411.41 L3770.66 1370.45 L3770.66 1210.93 L3745.42 1268.72 L3720.05 1320.33 L3694.68 1366.49 L3669.43 1407.70 L3644.07 1444.46 L3618.82 1477.37 L3593.45 1506.83 L3568.21 1533.06 L3542.84 1556.58 L3517.59 1577.49 L3492.22 1596.30 L3466.98 1613.01 L3441.61 1627.98 L3416.37 1641.35 L3391.00 1653.35 L3365.75 1663.99 L3340.38 1673.52 L3315.14 1682.19 L3289.77 1689.74 L3264.53 1696.67 L3239.16 1702.73 L3213.91 1708.30 L3188.54 1713.12 L3163.30 1717.58 L3137.93 1721.54 L3112.68 1725.13 L3087.32 1728.35 L3062.07 1731.32 L3036.70 1734.04 L3011.46 1736.51 L2986.09 1738.74 L2960.72 1740.85 L2935.47 1742.83 L2910.11 1744.68 L2884.86 1746.41 L2859.49 1747.90 L2834.25 1749.38 L2808.88 1750.75 L2783.63 1751.98 L2758.26 1753.22 L2733.02 1754.21 L2707.65 1755.20 L2682.41 1755.94 L2657.04 1756.69 L2631.79 1757.43 L2606.42 1757.92 L2581.18 1758.54 L2555.81 1758.91 L2530.56 1759.28 L2505.20 1759.66 L2479.95 1760.03 L2454.58 1760.28 L2429.34 1760.52 L2403.97 1760.77 L2378.72 1760.89 L2353.35 1761.02 L2328.11 1761.27 L2302.74 1761.39 L2277.49 1761.39 L2252.13 1761.51 L2226.88 1761.64 L2201.51 1761.76 L2201.51 1762.13 Z" stroke-linejoin="round"/>
	</defs>
	<defs>
		<clipPath id="clipPath_ywgFsLDw">
			<use xlink:href="#path_CVQeRgGA"/>
		</clipPath>
	</defs>
	<use xlink:href="#path_CVQeRgGA" style="stroke:none;fill:#E6E6E6"/>
	<use xlink:href="#path_CVQeRgGA" style="fill:none;stroke:#E0E0E0;stroke-width:14.69" clip-path="url(#clipPath_ywgFsLDw)"/>
	<path d=" M2201.39 1762.13 L2226.76 1762.01 L2252.13 1762.01 L2277.37 1761.88 L2302.74 1761.88 L2327.99 1761.76 L2353.35 1761.64 L2378.60 1761.51 L2403.97 1761.39 L2429.21 1761.27 L2454.58 1761.02 L2479.83 1760.77 L2505.20 1760.52 L2530.44 1760.28 L2555.81 1759.90 L2581.05 1759.41 L2606.42 1759.04 L2631.67 1758.54 L2657.04 1757.92 L2682.28 1757.30 L2707.65 1756.56 L2732.89 1755.70 L2758.26 1754.83 L2783.51 1753.84 L2808.88 1752.85 L2834.12 1751.74 L2859.49 1750.50 L2884.74 1749.14 L2910.11 1747.65 L2935.35 1746.17 L2960.72 1744.43 L2986.09 1742.58 L3011.33 1740.60 L3036.70 1738.49 L3061.95 1736.14 L3087.32 1733.54 L3112.56 1730.70 L3137.93 1727.60 L3163.17 1724.26 L3188.54 1720.43 L3213.79 1716.22 L3239.16 1711.52 L3264.40 1706.19 L3289.77 1700.38 L3315.01 1693.82 L3340.38 1686.52 L3365.63 1678.23 L3391.00 1669.07 L3416.24 1658.92 L3441.61 1647.41 L3466.86 1634.66 L3492.22 1620.31 L3517.47 1604.22 L3542.84 1586.28 L3568.08 1566.23 L3593.45 1543.71 L3618.70 1518.46 L3644.07 1490.24 L3669.31 1458.69 L3694.68 1423.42 L3719.93 1383.94 L3745.29 1339.64 L3770.66 1290.26" stroke-linejoin="round" style="fill:none;stroke:#008000;stroke-width:7.34"/>
	<path d=" M2201.39 1762.13 L2226.76 1762.13 L2252.13 1762.13 L2277.37 1762.01 L2302.74 1762.01 L2327.99 1761.88 L2353.35 1761.88 L2378.60 1761.76 L2403.97 1761.64 L2429.21 1761.51 L2454.58 1761.39 L2479.83 1761.14 L2505.20 1761.02 L2530.44 1760.77 L2555.81 1760.52 L2581.05 1760.15 L2606.42 1759.78 L2631.67 1759.41 L2657.04 1759.04 L2682.28 1758.54 L2707.65 1757.92 L2732.89 1757.43 L2758.26 1756.69 L2783.51 1755.94 L2808.88 1755.20 L2834.12 1754.33 L2859.49 1753.47 L2884.74 1752.48 L2910.11 1751.36 L2935.35 1750.13 L2960.72 1748.89 L2986.09 1747.53 L3011.33 1746.04 L3036.70 1744.43 L3061.95 1742.70 L3087.32 1740.72 L3112.56 1738.62 L3137.93 1736.27 L3163.17 1733.67 L3188.54 1730.82 L3213.79 1727.73 L3239.16 1724.14 L3264.40 1720.18 L3289.77 1715.85 L3315.01 1710.90 L3340.38 1705.33 L3365.63 1699.26 L3391.00 1692.33 L3416.24 1684.66 L3441.61 1676.00 L3466.86 1666.47 L3492.22 1655.70 L3517.47 1643.58 L3542.84 1630.09 L3568.08 1614.99 L3593.45 1598.16 L3618.70 1579.22 L3644.07 1558.06 L3669.31 1534.30 L3694.68 1507.82 L3719.93 1478.12 L3745.29 1444.95 L3770.66 1407.82" stroke-linejoin="round" style="fill:none;stroke:#55752F;stroke-width:7.34"/>
	<path d=" M2201.39 1762.13 L2226.76 1762.13 L2252.13 1762.13 L2277.37 1762.13 L2302.74 1762.01 L2327.99 1762.01 L2353.35 1761.88 L2378.60 1761.88 L2403.97 1761.76 L2429.21 1761.64 L2454.58 1761.51 L2479.83 1761.39 L2505.20 1761.27 L2530.44 1761.02 L2555.81 1760.77 L2581.05 1760.52 L2606.42 1760.28 L2631.67 1759.90 L2657.04 1759.66 L2682.28 1759.16 L2707.65 1758.79 L2732.89 1758.29 L2758.26 1757.68 L2783.51 1757.06 L2808.88 1756.44 L2834.12 1755.82 L2859.49 1754.95 L2884.74 1754.21 L2910.11 1753.34 L2935.35 1752.35 L2960.72 1751.24 L2986.09 1750.13 L3011.33 1748.89 L3036.70 1747.53 L3061.95 1746.17 L3087.32 1744.56 L3112.56 1742.83 L3137.93 1740.85 L3163.17 1738.74 L3188.54 1736.39 L3213.79 1733.79 L3239.16 1730.95 L3264.40 1727.60 L3289.77 1724.02 L3315.01 1719.93 L3340.38 1715.48 L3365.63 1710.40 L3391.00 1704.71 L3416.24 1698.40 L3441.61 1691.22 L3466.86 1683.30 L3492.22 1674.51 L3517.47 1664.61 L3542.84 1653.48 L3568.08 1640.98 L3593.45 1627.12 L3618.70 1611.52 L3644.07 1594.07 L3669.31 1574.52 L3694.68 1552.74 L3719.93 1528.24 L3745.29 1500.89 L3770.66 1470.32" stroke-linejoin="round" style="fill:none;stroke:#00FF00;stroke-width:7.34"/>
	<path d=" M2201.39 1761.88 L2226.76 1761.88 L2252.13 1761.76 L2277.37 1761.64 L2302.74 1761.51 L2327.99 1761.39 L2353.35 1761.27 L2378.60 1761.02 L2403.97 1760.77 L2429.21 1760.52 L2454.58 1760.15 L2479.83 1759.78 L2505.20 1759.41 L2530.44 1758.91 L2555.81 1758.29 L2581.05 1757.68 L2606.42 1756.93 L2631.67 1756.07 L2657.04 1755.20 L2682.28 1754.09 L2707.65 1752.97 L2732.89 1751.61 L2758.26 1750.25 L2783.51 1748.64 L2808.88 1746.91 L2834.12 1745.18 L2859.49 1743.07 L2884.74 1740.97 L2910.11 1738.62 L2935.35 1736.14 L2960.72 1733.42 L2986.09 1730.45 L3011.33 1727.23 L3036.70 1723.77 L3061.95 1719.93 L3087.32 1715.72 L3112.56 1711.14 L3137.93 1706.19 L3163.17 1700.63 L3188.54 1694.44 L3213.79 1687.63 L3239.16 1679.96 L3264.40 1671.54 L3289.77 1662.01 L3315.01 1651.37 L3340.38 1639.49 L3365.63 1626.25 L3391.00 1611.40 L3416.24 1594.82 L3441.61 1576.38 L3466.86 1555.59 L3492.22 1532.44 L3517.47 1506.46 L3542.84 1477.37 L3568.08 1444.83 L3593.45 1408.44 L3618.70 1367.73 L3644.07 1322.06 L3669.31 1270.95 L3694.68 1213.90 L3719.93 1149.92 L3745.29 1078.51 L3770.66 998.57" stroke-linejoin="round" style="fill:none;stroke:#FFD200;stroke-width:7.34"/>
	<path d=" M2201.39 1762.01 L2226.76 1761.88 L2252.13 1761.88 L2277.37 1761.76 L2302.74 1761.64 L2327.99 1761.51 L2353.35 1761.39 L2378.60 1761.14 L2403.97 1761.02 L2429.21 1760.77 L2454.58 1760.40 L2479.83 1760.15 L2505.20 1759.78 L2530.44 1759.28 L2555.81 1758.79 L2581.05 1758.17 L2606.42 1757.55 L2631.67 1756.81 L2657.04 1755.94 L2682.28 1755.08 L2707.65 1753.96 L2732.89 1752.85 L2758.26 1751.61 L2783.51 1750.25 L2808.88 1748.64 L2834.12 1747.03 L2859.49 1745.30 L2884.74 1743.32 L2910.11 1741.34 L2935.35 1739.11 L2960.72 1736.64 L2986.09 1734.04 L3011.33 1731.19 L3036.70 1728.10 L3061.95 1724.63 L3087.32 1721.05 L3112.56 1716.96 L3137.93 1712.51 L3163.17 1707.56 L3188.54 1702.11 L3213.79 1696.05 L3239.16 1689.24 L3264.40 1681.69 L3289.77 1673.28 L3315.01 1663.87 L3340.38 1653.35 L3365.63 1641.60 L3391.00 1628.48 L3416.24 1613.75 L3441.61 1597.29 L3466.86 1578.85 L3492.22 1558.31 L3517.47 1535.29 L3542.84 1509.43 L3568.08 1480.59 L3593.45 1448.29 L3618.70 1412.03 L3644.07 1371.56 L3669.31 1326.27 L3694.68 1275.53 L3719.93 1218.85 L3745.29 1155.37 L3770.66 1084.46" stroke-linejoin="round" style="fill:none;stroke:#FF7F00;stroke-width:7.34"/>
	<path d=" M2201.39 1762.13 L2226.76 1762.01 L2252.13 1762.01 L2277.37 1761.88 L2302.74 1761.88 L2327.99 1761.76 L2353.35 1761.64 L2378.60 1761.51 L2403.97 1761.39 L2429.21 1761.27 L2454.58 1761.02 L2479.83 1760.77 L2505.20 1760.52 L2530.44 1760.28 L2555.81 1759.90 L2581.05 1759.53 L2606.42 1759.04 L2631.67 1758.54 L2657.04 1757.92 L2682.28 1757.30 L2707.65 1756.69 L2732.89 1755.82 L2758.26 1754.95 L2783.51 1753.96 L2808.88 1752.97 L2834.12 1751.86 L2859.49 1750.62 L2884.74 1749.38 L2910.11 1747.90 L2935.35 1746.41 L2960.72 1744.68 L2986.09 1742.95 L3011.33 1740.97 L3036.70 1738.87 L3061.95 1736.51 L3087.32 1734.04 L3112.56 1731.19 L3137.93 1728.22 L3163.17 1724.76 L3188.54 1721.05 L3213.79 1716.96 L3239.16 1712.26 L3264.40 1707.06 L3289.77 1701.24 L3315.01 1694.81 L3340.38 1687.63 L3365.63 1679.59 L3391.00 1670.55 L3416.24 1660.53 L3441.61 1649.14 L3466.86 1636.52 L3492.22 1622.41 L3517.47 1606.70 L3542.84 1589.00 L3568.08 1569.20 L3593.45 1547.05 L3618.70 1522.17 L3644.07 1494.45 L3669.31 1463.39 L3694.68 1428.61 L3719.93 1389.76 L3745.29 1346.19 L3770.66 1297.56" stroke-linejoin="round" style="fill:none;stroke:#9C8847;stroke-width:7.34"/>
	<path d=" M2201.39 1762.13 L2226.76 1762.13 L2252.13 1762.13 L2277.37 1762.13 L2302.74 1762.01 L2327.99 1762.01 L2353.35 1761.88 L2378.60 1761.88 L2403.97 1761.76 L2429.21 1761.64 L2454.58 1761.51 L2479.83 1761.39 L2505.20 1761.27 L2530.44 1761.02 L2555.81 1760.77 L2581.05 1760.52 L2606.42 1760.28 L2631.67 1760.03 L2657.04 1759.66 L2682.28 1759.16 L2707.65 1758.79 L2732.89 1758.29 L2758.26 1757.68 L2783.51 1757.18 L2808.88 1756.44 L2834.12 1755.82 L2859.49 1754.95 L2884.74 1754.21 L2910.11 1753.34 L2935.35 1752.35 L2960.72 1751.24 L2986.09 1750.13 L3011.33 1748.89 L3036.70 1747.65 L3061.95 1746.17 L3087.32 1744.56 L3112.56 1742.83 L3137.93 1740.97 L3163.17 1738.87 L3188.54 1736.51 L3213.79 1733.79 L3239.16 1730.95 L3264.40 1727.73 L3289.77 1724.02 L3315.01 1720.06 L3340.38 1715.48 L3365.63 1710.40 L3391.00 1704.83 L3416.24 1698.40 L3441.61 1691.34 L3466.86 1683.42 L3492.22 1674.64 L3517.47 1664.74 L3542.84 1653.60 L3568.08 1641.22 L3593.45 1627.24 L3618.70 1611.77 L3644.07 1594.32 L3669.31 1574.77 L3694.68 1552.99 L3719.93 1528.61 L3745.29 1501.26 L3770.66 1470.69" stroke-linejoin="round" style="fill:none;stroke:#1A476F;stroke-width:7.34"/>
	<line x1="2201.39" y1="1704.83" x2="2204.24" y2="1704.83" style="stroke:#000000;stroke-width:7.34"/>
	<line x1="2224.41" y1="1704.83" x2="2226.76" y2="1704.83" style="stroke:#000000;stroke-width:7.34"/>
	<line x1="2226.76" y1="1704.83" x2="2227.25" y2="1704.83" style="stroke:#000000;stroke-width:7.34"/>
	<line x1="2247.42" y1="1704.83" x2="2250.27" y2="1704.83" style="stroke:#000000;stroke-width:7.34"/>
	<line x1="2270.44" y1="1704.83" x2="2273.29" y2="1704.83" style="stroke:#000000;stroke-width:7.34"/>
	<line x1="2293.46" y1="1704.83" x2="2296.43" y2="1704.83" style="stroke:#000000;stroke-width:7.34"/>
	<line x1="2316.60" y1="1704.83" x2="2319.45" y2="1704.83" style="stroke:#000000;stroke-width:7.34"/>
	<line x1="2339.62" y1="1704.83" x2="2342.46" y2="1704.83" style="stroke:#000000;stroke-width:7.34"/>
	<line x1="2362.64" y1="1704.83" x2="2365.48" y2="1704.83" style="stroke:#000000;stroke-width:7.34"/>
	<line x1="2385.65" y1="1704.83" x2="2388.50" y2="1704.83" style="stroke:#000000;stroke-width:7.34"/>
	<line x1="2408.67" y1="1704.83" x2="2411.52" y2="1704.83" style="stroke:#000000;stroke-width:7.34"/>
	<line x1="2431.69" y1="1704.83" x2="2434.53" y2="1704.83" style="stroke:#000000;stroke-width:7.34"/>
	<line x1="2454.70" y1="1704.83" x2="2457.55" y2="1704.83" style="stroke:#000000;stroke-width:7.34"/>
	<line x1="2477.72" y1="1704.83" x2="2479.83" y2="1704.83" style="stroke:#000000;stroke-width:7.34"/>
	<line x1="2479.83" y1="1704.83" x2="2480.57" y2="1704.83" style="stroke:#000000;stroke-width:7.34"/>
	<line x1="2500.74" y1="1704.83" x2="2503.59" y2="1704.83" style="stroke:#000000;stroke-width:7.34"/>
	<line x1="2523.76" y1="1704.83" x2="2526.60" y2="1704.83" style="stroke:#000000;stroke-width:7.34"/>
	<line x1="2546.78" y1="1704.83" x2="2549.74" y2="1704.83" style="stroke:#000000;stroke-width:7.34"/>
	<line x1="2569.92" y1="1704.83" x2="2572.76" y2="1704.83" style="stroke:#000000;stroke-width:7.34"/>
	<line x1="2592.93" y1="1704.83" x2="2595.78" y2="1704.83" style="stroke:#000000;stroke-width:7.34"/>
	<line x1="2615.95" y1="1704.83" x2="2618.80" y2="1704.83" style="stroke:#000000;stroke-width:7.34"/>
	<line x1="2638.97" y1="1704.83" x2="2641.82" y2="1704.83" style="stroke:#000000;stroke-width:7.34"/>
	<line x1="2661.99" y1="1704.83" x2="2664.83" y2="1704.83" style="stroke:#000000;stroke-width:7.34"/>
	<line x1="2685.00" y1="1704.83" x2="2687.85" y2="1704.83" style="stroke:#000000;stroke-width:7.34"/>
	<line x1="2708.02" y1="1704.83" x2="2710.87" y2="1704.83" style="stroke:#000000;stroke-width:7.34"/>
	<line x1="2731.04" y1="1704.83" x2="2732.89" y2="1704.83" style="stroke:#000000;stroke-width:7.34"/>
	<line x1="2732.89" y1="1704.83" x2="2733.89" y2="1704.83" style="stroke:#000000;stroke-width:7.34"/>
	<line x1="2754.06" y1="1704.83" x2="2756.90" y2="1704.83" style="stroke:#000000;stroke-width:7.34"/>
	<line x1="2777.07" y1="1704.83" x2="2779.92" y2="1704.83" style="stroke:#000000;stroke-width:7.34"/>
	<line x1="2800.09" y1="1704.83" x2="2803.06" y2="1704.83" style="stroke:#000000;stroke-width:7.34"/>
	<line x1="2823.23" y1="1704.83" x2="2826.08" y2="1704.83" style="stroke:#000000;stroke-width:7.34"/>
	<line x1="2846.25" y1="1704.83" x2="2849.10" y2="1704.83" style="stroke:#000000;stroke-width:7.34"/>
	<line x1="2869.27" y1="1704.83" x2="2872.11" y2="1704.83" style="stroke:#000000;stroke-width:7.34"/>
	<line x1="2892.28" y1="1704.83" x2="2895.13" y2="1704.83" style="stroke:#000000;stroke-width:7.34"/>
	<line x1="2915.30" y1="1704.83" x2="2918.15" y2="1704.83" style="stroke:#000000;stroke-width:7.34"/>
	<line x1="2938.32" y1="1704.83" x2="2941.17" y2="1704.83" style="stroke:#000000;stroke-width:7.34"/>
	<line x1="2961.34" y1="1704.83" x2="2964.18" y2="1704.83" style="stroke:#000000;stroke-width:7.34"/>
	<line x1="2984.36" y1="1704.83" x2="2986.09" y2="1704.83" style="stroke:#000000;stroke-width:7.34"/>
	<line x1="2986.09" y1="1704.83" x2="2987.20" y2="1704.83" style="stroke:#000000;stroke-width:7.34"/>
	<line x1="3007.37" y1="1704.83" x2="3010.22" y2="1704.83" style="stroke:#000000;stroke-width:7.34"/>
	<line x1="3030.39" y1="1704.83" x2="3033.36" y2="1704.83" style="stroke:#000000;stroke-width:7.34"/>
	<line x1="3053.41" y1="1704.83" x2="3056.38" y2="1704.83" style="stroke:#000000;stroke-width:7.34"/>
	<line x1="3076.55" y1="1704.83" x2="3079.39" y2="1704.83" style="stroke:#000000;stroke-width:7.34"/>
	<line x1="3099.57" y1="1704.83" x2="3102.41" y2="1704.83" style="stroke:#000000;stroke-width:7.34"/>
	<line x1="3122.58" y1="1704.83" x2="3125.43" y2="1704.83" style="stroke:#000000;stroke-width:7.34"/>
	<line x1="3145.60" y1="1704.83" x2="3148.45" y2="1704.83" style="stroke:#000000;stroke-width:7.34"/>
	<line x1="3168.62" y1="1704.83" x2="3171.47" y2="1704.83" style="stroke:#000000;stroke-width:7.34"/>
	<line x1="3191.64" y1="1704.83" x2="3194.48" y2="1704.83" style="stroke:#000000;stroke-width:7.34"/>
	<line x1="3214.65" y1="1704.83" x2="3217.50" y2="1704.83" style="stroke:#000000;stroke-width:7.34"/>
	<line x1="3237.67" y1="1704.83" x2="3239.16" y2="1704.83" style="stroke:#000000;stroke-width:7.34"/>
	<line x1="3239.16" y1="1704.83" x2="3240.52" y2="1704.83" style="stroke:#000000;stroke-width:7.34"/>
	<line x1="3260.69" y1="1704.83" x2="3263.53" y2="1704.83" style="stroke:#000000;stroke-width:7.34"/>
	<line x1="3283.71" y1="1704.83" x2="3286.68" y2="1704.83" style="stroke:#000000;stroke-width:7.34"/>
	<line x1="3306.72" y1="1704.83" x2="3309.69" y2="1704.83" style="stroke:#000000;stroke-width:7.34"/>
	<line x1="3329.86" y1="1704.83" x2="3332.71" y2="1704.83" style="stroke:#000000;stroke-width:7.34"/>
	<line x1="3352.88" y1="1704.83" x2="3355.73" y2="1704.83" style="stroke:#000000;stroke-width:7.34"/>
	<line x1="3375.90" y1="1704.83" x2="3378.75" y2="1704.83" style="stroke:#000000;stroke-width:7.34"/>
	<line x1="3398.92" y1="1704.83" x2="3401.76" y2="1704.83" style="stroke:#000000;stroke-width:7.34"/>
	<line x1="3421.93" y1="1704.83" x2="3424.78" y2="1704.83" style="stroke:#000000;stroke-width:7.34"/>
	<line x1="3444.95" y1="1704.83" x2="3447.80" y2="1704.83" style="stroke:#000000;stroke-width:7.34"/>
	<line x1="3467.97" y1="1704.83" x2="3470.82" y2="1704.83" style="stroke:#000000;stroke-width:7.34"/>
	<line x1="3490.99" y1="1704.83" x2="3492.22" y2="1704.83" style="stroke:#000000;stroke-width:7.34"/>
	<line x1="3492.22" y1="1704.83" x2="3493.83" y2="1704.83" style="stroke:#000000;stroke-width:7.34"/>
	<line x1="3514.01" y1="1704.83" x2="3516.85" y2="1704.83" style="stroke:#000000;stroke-width:7.34"/>
	<line x1="3537.02" y1="1704.83" x2="3539.99" y2="1704.83" style="stroke:#000000;stroke-width:7.34"/>
	<line x1="3560.04" y1="1704.83" x2="3563.01" y2="1704.83" style="stroke:#000000;stroke-width:7.34"/>
	<line x1="3583.18" y1="1704.83" x2="3586.03" y2="1704.83" style="stroke:#000000;stroke-width:7.34"/>
	<line x1="3606.20" y1="1704.83" x2="3609.05" y2="1704.83" style="stroke:#000000;stroke-width:7.34"/>
	<line x1="3629.22" y1="1704.83" x2="3632.06" y2="1704.83" style="stroke:#000000;stroke-width:7.34"/>
	<line x1="3652.23" y1="1704.83" x2="3655.08" y2="1704.83" style="stroke:#000000;stroke-width:7.34"/>
	<line x1="3675.25" y1="1704.83" x2="3678.10" y2="1704.83" style="stroke:#000000;stroke-width:7.34"/>
	<line x1="3698.27" y1="1704.83" x2="3701.11" y2="1704.83" style="stroke:#000000;stroke-width:7.34"/>
	<line x1="3721.29" y1="1704.83" x2="3724.13" y2="1704.83" style="stroke:#000000;stroke-width:7.34"/>
	<line x1="3744.30" y1="1704.83" x2="3745.29" y2="1704.83" style="stroke:#000000;stroke-width:7.34"/>
	<line x1="3745.29" y1="1704.83" x2="3747.15" y2="1704.83" style="stroke:#000000;stroke-width:7.34"/>
	<line x1="3767.32" y1="1704.83" x2="3770.17" y2="1704.83" style="stroke:#000000;stroke-width:7.34"/>
	<path d="" stroke-linejoin="round" style="fill:none;stroke:#000000;stroke-width:7.34"/>
	<line x1="401.69" y1="1816.09" x2="401.69" y2="258.27" style="stroke:#000000;stroke-width:4.90"/>
	<line x1="401.69" y1="1762.26" x2="367.66" y2="1762.26" style="stroke:#000000;stroke-width:4.90"/>
	<text x="350.71" y="1792.04" style="font-family:'Helvetica';font-size:85.02px;fill:#000000" text-anchor="end">0</text>
	<line x1="401.69" y1="1555.09" x2="367.66" y2="1555.09" style="stroke:#000000;stroke-width:4.90"/>
	<text x="350.71" y="1584.88" style="font-family:'Helvetica';font-size:85.02px;fill:#000000" text-anchor="end">.001</text>
	<line x1="401.69" y1="1347.93" x2="367.66" y2="1347.93" style="stroke:#000000;stroke-width:4.90"/>
	<text x="350.71" y="1377.71" style="font-family:'Helvetica';font-size:85.02px;fill:#000000" text-anchor="end">.002</text>
	<line x1="401.69" y1="1140.76" x2="367.66" y2="1140.76" style="stroke:#000000;stroke-width:4.90"/>
	<text x="350.71" y="1170.55" style="font-family:'Helvetica';font-size:85.02px;fill:#000000" text-anchor="end">.003</text>
	<line x1="401.69" y1="933.60" x2="367.66" y2="933.60" style="stroke:#000000;stroke-width:4.90"/>
	<text x="350.71" y="963.39" style="font-family:'Helvetica';font-size:85.02px;fill:#000000" text-anchor="end">.004</text>
	<line x1="401.69" y1="726.44" x2="367.66" y2="726.44" style="stroke:#000000;stroke-width:4.90"/>
	<text x="350.71" y="756.22" style="font-family:'Helvetica';font-size:85.02px;fill:#000000" text-anchor="end">.005</text>
	<line x1="401.69" y1="519.27" x2="367.66" y2="519.27" style="stroke:#000000;stroke-width:4.90"/>
	<text x="350.71" y="549.06" style="font-family:'Helvetica';font-size:85.02px;fill:#000000" text-anchor="end">.006</text>
	<line x1="401.69" y1="312.11" x2="367.66" y2="312.11" style="stroke:#000000;stroke-width:4.90"/>
	<text x="350.71" y="341.89" style="font-family:'Helvetica';font-size:85.02px;fill:#000000" text-anchor="end">.007</text>
	<line x1="401.69" y1="1816.09" x2="2078.51" y2="1816.09" style="stroke:#000000;stroke-width:4.90"/>
	<line x1="506.14" y1="1816.09" x2="506.14" y2="1833.17" style="stroke:#000000;stroke-width:4.90"/>
	<line x1="632.73" y1="1816.09" x2="632.73" y2="1833.17" style="stroke:#000000;stroke-width:4.90"/>
	<line x1="759.21" y1="1816.09" x2="759.21" y2="1833.17" style="stroke:#000000;stroke-width:4.90"/>
	<line x1="885.80" y1="1816.09" x2="885.80" y2="1833.17" style="stroke:#000000;stroke-width:4.90"/>
	<line x1="1012.27" y1="1816.09" x2="1012.27" y2="1833.17" style="stroke:#000000;stroke-width:4.90"/>
	<line x1="1138.87" y1="1816.09" x2="1138.87" y2="1833.17" style="stroke:#000000;stroke-width:4.90"/>
	<line x1="1265.47" y1="1816.09" x2="1265.47" y2="1833.17" style="stroke:#000000;stroke-width:4.90"/>
	<line x1="1391.94" y1="1816.09" x2="1391.94" y2="1833.17" style="stroke:#000000;stroke-width:4.90"/>
	<line x1="1518.54" y1="1816.09" x2="1518.54" y2="1833.17" style="stroke:#000000;stroke-width:4.90"/>
	<line x1="1645.01" y1="1816.09" x2="1645.01" y2="1833.17" style="stroke:#000000;stroke-width:4.90"/>
	<line x1="1771.61" y1="1816.09" x2="1771.61" y2="1833.17" style="stroke:#000000;stroke-width:4.90"/>
	<line x1="1898.20" y1="1816.09" x2="1898.20" y2="1833.17" style="stroke:#000000;stroke-width:4.90"/>
	<line x1="2024.67" y1="1816.09" x2="2024.67" y2="1833.17" style="stroke:#000000;stroke-width:4.90"/>
	<line x1="506.14" y1="1816.09" x2="506.14" y2="1850.12" style="stroke:#000000;stroke-width:4.90"/>
	<text x="506.14" y="1926.53" style="font-family:'Helvetica';font-size:85.02px;fill:#000000" text-anchor="middle">20</text>
	<line x1="1012.27" y1="1816.09" x2="1012.27" y2="1850.12" style="stroke:#000000;stroke-width:4.90"/>
	<text x="1012.27" y="1926.53" style="font-family:'Helvetica';font-size:85.02px;fill:#000000" text-anchor="middle">40</text>
	<line x1="1518.54" y1="1816.09" x2="1518.54" y2="1850.12" style="stroke:#000000;stroke-width:4.90"/>
	<text x="1518.54" y="1926.53" style="font-family:'Helvetica';font-size:85.02px;fill:#000000" text-anchor="middle">60</text>
	<line x1="2024.67" y1="1816.09" x2="2024.67" y2="1850.12" style="stroke:#000000;stroke-width:4.90"/>
	<text x="2024.67" y="1926.53" style="font-family:'Helvetica';font-size:85.02px;fill:#000000" text-anchor="middle">80</text>
	<line x1="2147.68" y1="1816.09" x2="3824.49" y2="1816.09" style="stroke:#000000;stroke-width:4.90"/>
	<line x1="2252.13" y1="1816.09" x2="2252.13" y2="1833.17" style="stroke:#000000;stroke-width:4.90"/>
	<line x1="2378.72" y1="1816.09" x2="2378.72" y2="1833.17" style="stroke:#000000;stroke-width:4.90"/>
	<line x1="2505.20" y1="1816.09" x2="2505.20" y2="1833.17" style="stroke:#000000;stroke-width:4.90"/>
	<line x1="2631.79" y1="1816.09" x2="2631.79" y2="1833.17" style="stroke:#000000;stroke-width:4.90"/>
	<line x1="2758.26" y1="1816.09" x2="2758.26" y2="1833.17" style="stroke:#000000;stroke-width:4.90"/>
	<line x1="2884.86" y1="1816.09" x2="2884.86" y2="1833.17" style="stroke:#000000;stroke-width:4.90"/>
	<line x1="3011.46" y1="1816.09" x2="3011.46" y2="1833.17" style="stroke:#000000;stroke-width:4.90"/>
	<line x1="3137.93" y1="1816.09" x2="3137.93" y2="1833.17" style="stroke:#000000;stroke-width:4.90"/>
	<line x1="3264.53" y1="1816.09" x2="3264.53" y2="1833.17" style="stroke:#000000;stroke-width:4.90"/>
	<line x1="3391.00" y1="1816.09" x2="3391.00" y2="1833.17" style="stroke:#000000;stroke-width:4.90"/>
	<line x1="3517.59" y1="1816.09" x2="3517.59" y2="1833.17" style="stroke:#000000;stroke-width:4.90"/>
	<line x1="3644.07" y1="1816.09" x2="3644.07" y2="1833.17" style="stroke:#000000;stroke-width:4.90"/>
	<line x1="3770.66" y1="1816.09" x2="3770.66" y2="1833.17" style="stroke:#000000;stroke-width:4.90"/>
	<line x1="2252.13" y1="1816.09" x2="2252.13" y2="1850.12" style="stroke:#000000;stroke-width:4.90"/>
	<text x="2252.13" y="1926.53" style="font-family:'Helvetica';font-size:85.02px;fill:#000000" text-anchor="middle">20</text>
	<line x1="2758.26" y1="1816.09" x2="2758.26" y2="1850.12" style="stroke:#000000;stroke-width:4.90"/>
	<text x="2758.26" y="1926.53" style="font-family:'Helvetica';font-size:85.02px;fill:#000000" text-anchor="middle">40</text>
	<line x1="3264.53" y1="1816.09" x2="3264.53" y2="1850.12" style="stroke:#000000;stroke-width:4.90"/>
	<text x="3264.53" y="1926.53" style="font-family:'Helvetica';font-size:85.02px;fill:#000000" text-anchor="middle">60</text>
	<line x1="3770.66" y1="1816.09" x2="3770.66" y2="1850.12" style="stroke:#000000;stroke-width:4.90"/>
	<text x="3770.66" y="1926.53" style="font-family:'Helvetica';font-size:85.02px;fill:#000000" text-anchor="middle">80</text>
	<rect x="401.69" y="135.39" width="1676.81" height="122.89" style="fill:#D9E6EB"/>
	<rect x="404.14" y="137.83" width="1671.92" height="117.99" style="fill:none;stroke:#D9E6EB;stroke-width:4.90"/>
	<text x="1240.10" y="215.42" style="font-family:'Helvetica';font-size:93.56px;fill:#000000" text-anchor="middle">Female</text>
	<rect x="2147.68" y="135.39" width="1676.81" height="122.89" style="fill:#D9E6EB"/>
	<rect x="2150.13" y="137.83" width="1671.92" height="117.99" style="fill:none;stroke:#D9E6EB;stroke-width:4.90"/>
	<text x="2986.09" y="215.42" style="font-family:'Helvetica';font-size:93.56px;fill:#000000" text-anchor="middle">Male</text>
	<rect x="459.73" y="2138.22" width="3040.41" height="606.39" style="fill:#FFFFFF"/>
	<rect x="462.61" y="2141.10" width="3034.65" height="600.63" style="fill:none;stroke:#000000;stroke-width:5.76"/>
	<line x1="502.92" y1="2231.41" x2="877.26" y2="2231.41" style="stroke:#008000;stroke-width:8.64"/>
	<line x1="502.92" y1="2371.50" x2="877.26" y2="2371.50" style="stroke:#55752F;stroke-width:8.64"/>
	<line x1="502.92" y1="2511.46" x2="877.26" y2="2511.46" style="stroke:#00FF00;stroke-width:8.64"/>
	<line x1="502.92" y1="2651.43" x2="877.26" y2="2651.43" style="stroke:#FFD200;stroke-width:8.64"/>
	<line x1="2033.95" y1="2231.41" x2="2408.30" y2="2231.41" style="stroke:#FF7F00;stroke-width:8.64"/>
	<line x1="2033.95" y1="2371.50" x2="2408.30" y2="2371.50" style="stroke:#9C8847;stroke-width:8.64"/>
	<line x1="2033.95" y1="2511.46" x2="2408.30" y2="2511.46" style="stroke:#1A476F;stroke-width:8.64"/>
	<text x="937.28" y="2266.43" style="font-family:'Helvetica';font-size:99.99px;fill:#000000">Other cancer (&lt;1yr)</text>
	<text x="937.28" y="2406.52" style="font-family:'Helvetica';font-size:99.99px;fill:#000000">Other cancer (2-5yr)</text>
	<text x="937.28" y="2546.49" style="font-family:'Helvetica';font-size:99.99px;fill:#000000">Other cancer (&gt;5yr)</text>
	<text x="937.28" y="2686.46" style="font-family:'Helvetica';font-size:99.99px;fill:#000000">Haem. cancer (&lt;1yr)</text>
	<text x="2468.32" y="2266.43" style="font-family:'Helvetica';font-size:99.99px;fill:#000000">Haem. cancer (2-5yr)</text>
	<text x="2468.32" y="2406.52" style="font-family:'Helvetica';font-size:99.99px;fill:#000000">Haem. cancer (&gt;5yr)</text>
	<text x="2468.32" y="2546.49" style="font-family:'Helvetica';font-size:99.99px;fill:#000000">No comborbidity</text>
	<text x="1980.00" y="2073.63" style="font-family:'Helvetica';font-size:99.99px;fill:#000000" text-anchor="middle">Age (years)</text>
</svg>
