<?xml version="1.0" encoding="UTF-8" standalone="no"?>
<!-- This is a Stata 16.1 generated SVG file (http://www.stata.com) -->

<svg version="1.1" width="1600px" height="1164px" viewBox="0 0 3960 2880" xmlns="http://www.w3.org/2000/svg" xmlns:xlink="http://www.w3.org/1999/xlink">
	<desc>Stata Graph - Graph</desc>
	<rect x="0" y="0" width="3960" height="2880" style="fill:#EAF2F3;stroke:none"/>
	<rect x="0.00" y="0.00" width="3959.88" height="2880.00" style="fill:#EAF2F3"/>
	<rect x="2.88" y="2.88" width="3954.12" height="2874.24" style="fill:none;stroke:#EAF2F3;stroke-width:5.76"/>
	<rect x="401.69" y="258.27" width="1676.81" height="1697.90" style="fill:#FFFFFF"/>
	<rect x="404.14" y="260.72" width="1671.92" height="1693.01" style="fill:none;stroke:#FFFFFF;stroke-width:4.90"/>
	<line x1="401.69" y1="1902.22" x2="2078.51" y2="1902.22" style="stroke:#EAF2F3;stroke-width:7.34"/>
	<line x1="401.69" y1="1675.13" x2="2078.51" y2="1675.13" style="stroke:#EAF2F3;stroke-width:7.34"/>
	<line x1="401.69" y1="1447.92" x2="2078.51" y2="1447.92" style="stroke:#EAF2F3;stroke-width:7.34"/>
	<line x1="401.69" y1="1220.71" x2="2078.51" y2="1220.71" style="stroke:#EAF2F3;stroke-width:7.34"/>
	<line x1="401.69" y1="993.62" x2="2078.51" y2="993.62" style="stroke:#EAF2F3;stroke-width:7.34"/>
	<line x1="401.69" y1="766.41" x2="2078.51" y2="766.41" style="stroke:#EAF2F3;stroke-width:7.34"/>
	<line x1="401.69" y1="539.32" x2="2078.51" y2="539.32" style="stroke:#EAF2F3;stroke-width:7.34"/>
	<rect x="2147.68" y="258.27" width="1676.81" height="1697.90" style="fill:#FFFFFF"/>
	<rect x="2150.13" y="260.72" width="1671.92" height="1693.01" style="fill:none;stroke:#FFFFFF;stroke-width:4.90"/>
	<line x1="2147.68" y1="1902.22" x2="3824.49" y2="1902.22" style="stroke:#EAF2F3;stroke-width:7.34"/>
	<line x1="2147.68" y1="1675.13" x2="3824.49" y2="1675.13" style="stroke:#EAF2F3;stroke-width:7.34"/>
	<line x1="2147.68" y1="1447.92" x2="3824.49" y2="1447.92" style="stroke:#EAF2F3;stroke-width:7.34"/>
	<line x1="2147.68" y1="1220.71" x2="3824.49" y2="1220.71" style="stroke:#EAF2F3;stroke-width:7.34"/>
	<line x1="2147.68" y1="993.62" x2="3824.49" y2="993.62" style="stroke:#EAF2F3;stroke-width:7.34"/>
	<line x1="2147.68" y1="766.41" x2="3824.49" y2="766.41" style="stroke:#EAF2F3;stroke-width:7.34"/>
	<line x1="2147.68" y1="539.32" x2="3824.49" y2="539.32" style="stroke:#EAF2F3;stroke-width:7.34"/>
	<defs>
		<path id="path_WNKZpgCL" d="M455.52 1902.22 L455.52 1902.22 L480.89 1902.22 L506.14 1902.22 L531.51 1902.22 L556.75 1902.10 L582.12 1902.10 L607.37 1902.10 L632.73 1902.10 L657.98 1901.97 L683.35 1901.97 L708.59 1901.85 L733.96 1901.73 L759.21 1901.73 L784.58 1901.60 L809.82 1901.35 L835.19 1901.23 L860.43 1900.98 L885.80 1900.86 L911.05 1900.61 L936.42 1900.24 L961.66 1899.99 L987.03 1899.62 L1012.27 1899.25 L1037.64 1898.88 L1062.89 1898.38 L1088.26 1898.01 L1113.50 1897.52 L1138.87 1896.90 L1164.24 1896.28 L1189.48 1895.66 L1214.85 1894.92 L1240.10 1894.18 L1265.47 1893.31 L1290.71 1892.32 L1316.08 1891.33 L1341.33 1890.22 L1366.69 1888.98 L1391.94 1887.62 L1417.31 1886.13 L1442.55 1884.40 L1467.92 1882.67 L1493.17 1880.56 L1518.54 1878.34 L1543.78 1875.86 L1569.15 1873.01 L1594.39 1869.92 L1619.76 1866.33 L1645.01 1862.50 L1670.38 1858.04 L1695.62 1853.21 L1720.99 1847.77 L1746.24 1841.58 L1771.61 1834.65 L1796.85 1826.98 L1822.22 1818.44 L1847.46 1808.79 L1872.83 1797.90 L1898.20 1785.89 L1923.45 1772.28 L1948.82 1757.18 L1974.06 1740.23 L1999.43 1721.17 L2024.67 1700.01 L2024.67 1662.14 L1999.43 1687.26 L1974.06 1709.78 L1948.82 1729.83 L1923.45 1747.78 L1898.20 1763.86 L1872.83 1778.10 L1847.46 1790.97 L1822.22 1802.35 L1796.85 1812.62 L1771.61 1821.78 L1746.24 1829.95 L1720.99 1837.25 L1695.62 1843.69 L1670.38 1849.50 L1645.01 1854.82 L1619.76 1859.40 L1594.39 1863.61 L1569.15 1867.32 L1543.78 1870.66 L1518.54 1873.63 L1493.17 1876.36 L1467.92 1878.71 L1442.55 1880.81 L1417.31 1882.67 L1391.94 1884.40 L1366.69 1886.01 L1341.33 1887.37 L1316.08 1888.61 L1290.71 1889.85 L1265.47 1890.84 L1240.10 1891.95 L1214.85 1892.82 L1189.48 1893.68 L1164.24 1894.42 L1138.87 1895.17 L1113.50 1895.91 L1088.26 1896.53 L1062.89 1897.15 L1037.64 1897.77 L1012.27 1898.26 L987.03 1898.63 L961.66 1899.13 L936.42 1899.50 L911.05 1899.75 L885.80 1900.12 L860.43 1900.36 L835.19 1900.61 L809.82 1900.74 L784.58 1900.98 L759.21 1901.11 L733.96 1901.23 L708.59 1901.35 L683.35 1901.48 L657.98 1901.60 L632.73 1901.60 L607.37 1901.73 L582.12 1901.73 L556.75 1901.85 L531.51 1901.85 L506.14 1901.97 L480.89 1901.97 L455.52 1901.97 L455.52 1902.22 Z" stroke-linejoin="round"/>
	</defs>
	<defs>
		<clipPath id="clipPath_vYnvbyOz">
			<use xlink:href="#path_WNKZpgCL"/>
		</clipPath>
	</defs>
	<use xlink:href="#path_WNKZpgCL" style="stroke:none;fill:#E6E6E6"/>
	<use xlink:href="#path_WNKZpgCL" style="fill:none;stroke:#E0E0E0;stroke-width:14.69" clip-path="url(#clipPath_vYnvbyOz)"/>
	<defs>
		<path id="path_aaLVSayZ" d="M455.52 1902.22 L455.52 1902.22 L480.89 1902.22 L506.14 1902.22 L531.51 1902.22 L556.75 1902.22 L582.12 1902.10 L607.37 1902.10 L632.73 1902.10 L657.98 1901.97 L683.35 1901.97 L708.59 1901.85 L733.96 1901.85 L759.21 1901.73 L784.58 1901.60 L809.82 1901.48 L835.19 1901.35 L860.43 1901.11 L885.80 1900.98 L911.05 1900.74 L936.42 1900.49 L961.66 1900.24 L987.03 1899.87 L1012.27 1899.62 L1037.64 1899.25 L1062.89 1898.88 L1088.26 1898.38 L1113.50 1897.89 L1138.87 1897.39 L1164.24 1896.90 L1189.48 1896.28 L1214.85 1895.66 L1240.10 1894.92 L1265.47 1894.18 L1290.71 1893.31 L1316.08 1892.44 L1341.33 1891.33 L1366.69 1890.22 L1391.94 1888.98 L1417.31 1887.74 L1442.55 1886.13 L1467.92 1884.52 L1493.17 1882.67 L1518.54 1880.69 L1543.78 1878.34 L1569.15 1875.86 L1594.39 1873.01 L1619.76 1869.80 L1645.01 1866.21 L1670.38 1862.25 L1695.62 1857.79 L1720.99 1852.84 L1746.24 1847.27 L1771.61 1841.09 L1796.85 1834.03 L1822.22 1826.24 L1847.46 1817.45 L1872.83 1807.67 L1898.20 1796.66 L1923.45 1784.41 L1948.82 1770.67 L1974.06 1755.20 L1999.43 1738.00 L2024.67 1718.69 L2024.67 1685.90 L1999.43 1708.55 L1974.06 1728.72 L1948.82 1746.79 L1923.45 1763.00 L1898.20 1777.35 L1872.83 1790.35 L1847.46 1801.86 L1822.22 1812.13 L1796.85 1821.29 L1771.61 1829.58 L1746.24 1836.88 L1720.99 1843.44 L1695.62 1849.38 L1670.38 1854.58 L1645.01 1859.28 L1619.76 1863.49 L1594.39 1867.32 L1569.15 1870.66 L1543.78 1873.63 L1518.54 1876.36 L1493.17 1878.71 L1467.92 1880.94 L1442.55 1882.79 L1417.31 1884.52 L1391.94 1886.13 L1366.69 1887.49 L1341.33 1888.73 L1316.08 1889.85 L1290.71 1890.96 L1265.47 1891.95 L1240.10 1892.82 L1214.85 1893.68 L1189.48 1894.42 L1164.24 1895.17 L1138.87 1895.91 L1113.50 1896.53 L1088.26 1897.02 L1062.89 1897.64 L1037.64 1898.14 L1012.27 1898.63 L987.03 1899.00 L961.66 1899.37 L936.42 1899.75 L911.05 1899.99 L885.80 1900.24 L860.43 1900.49 L835.19 1900.74 L809.82 1900.86 L784.58 1901.11 L759.21 1901.23 L733.96 1901.35 L708.59 1901.48 L683.35 1901.48 L657.98 1901.60 L632.73 1901.73 L607.37 1901.73 L582.12 1901.85 L556.75 1901.85 L531.51 1901.97 L506.14 1901.97 L480.89 1901.97 L455.52 1901.97 L455.52 1902.22 Z" stroke-linejoin="round"/>
	</defs>
	<defs>
		<clipPath id="clipPath_wICrmLWT">
			<use xlink:href="#path_aaLVSayZ"/>
		</clipPath>
	</defs>
	<use xlink:href="#path_aaLVSayZ" style="stroke:none;fill:#E6E6E6"/>
	<use xlink:href="#path_aaLVSayZ" style="fill:none;stroke:#E0E0E0;stroke-width:14.69" clip-path="url(#clipPath_wICrmLWT)"/>
	<defs>
		<path id="path_psMRzins" d="M455.52 1902.22 L455.52 1902.22 L480.89 1902.22 L506.14 1902.22 L531.51 1902.10 L556.75 1902.10 L582.12 1902.10 L607.37 1902.10 L632.73 1901.97 L657.98 1901.97 L683.35 1901.85 L708.59 1901.85 L733.96 1901.73 L759.21 1901.60 L784.58 1901.48 L809.82 1901.23 L835.19 1901.11 L860.43 1900.86 L885.80 1900.61 L911.05 1900.24 L936.42 1899.99 L961.66 1899.62 L987.03 1899.25 L1012.27 1898.76 L1037.64 1898.26 L1062.89 1897.77 L1088.26 1897.27 L1113.50 1896.65 L1138.87 1896.03 L1164.24 1895.29 L1189.48 1894.55 L1214.85 1893.68 L1240.10 1892.82 L1265.47 1891.83 L1290.71 1890.71 L1316.08 1889.47 L1341.33 1888.24 L1366.69 1886.75 L1391.94 1885.27 L1417.31 1883.53 L1442.55 1881.55 L1467.92 1879.45 L1493.17 1877.10 L1518.54 1874.50 L1543.78 1871.53 L1569.15 1868.31 L1594.39 1864.60 L1619.76 1860.52 L1645.01 1856.06 L1670.38 1850.99 L1695.62 1845.29 L1720.99 1838.86 L1746.24 1831.68 L1771.61 1823.76 L1796.85 1814.85 L1822.22 1804.70 L1847.46 1793.56 L1872.83 1780.94 L1898.20 1766.83 L1923.45 1751.12 L1948.82 1733.42 L1974.06 1713.74 L1999.43 1691.59 L2024.67 1666.96 L2024.67 1618.82 L1999.43 1648.40 L1974.06 1675.01 L1948.82 1698.65 L1923.45 1719.81 L1898.20 1738.74 L1872.83 1755.57 L1847.46 1770.67 L1822.22 1784.28 L1796.85 1796.29 L1771.61 1807.05 L1746.24 1816.71 L1720.99 1825.37 L1695.62 1833.04 L1670.38 1839.85 L1645.01 1846.04 L1619.76 1851.61 L1594.39 1856.56 L1569.15 1860.89 L1543.78 1864.85 L1518.54 1868.44 L1493.17 1871.53 L1467.92 1874.38 L1442.55 1876.85 L1417.31 1879.08 L1391.94 1881.18 L1366.69 1883.04 L1341.33 1884.65 L1316.08 1886.13 L1290.71 1887.49 L1265.47 1888.86 L1240.10 1889.97 L1214.85 1891.08 L1189.48 1892.07 L1164.24 1893.06 L1138.87 1893.93 L1113.50 1894.80 L1088.26 1895.54 L1062.89 1896.28 L1037.64 1896.90 L1012.27 1897.52 L987.03 1898.01 L961.66 1898.51 L936.42 1899.00 L911.05 1899.37 L885.80 1899.62 L860.43 1899.99 L835.19 1900.24 L809.82 1900.49 L784.58 1900.74 L759.21 1900.86 L733.96 1900.98 L708.59 1901.23 L683.35 1901.35 L657.98 1901.48 L632.73 1901.48 L607.37 1901.60 L582.12 1901.73 L556.75 1901.73 L531.51 1901.85 L506.14 1901.85 L480.89 1901.85 L455.52 1901.97 L455.52 1902.22 Z" stroke-linejoin="round"/>
	</defs>
	<defs>
		<clipPath id="clipPath_zPrGHVMg">
			<use xlink:href="#path_psMRzins"/>
		</clipPath>
	</defs>
	<use xlink:href="#path_psMRzins" style="stroke:none;fill:#E6E6E6"/>
	<use xlink:href="#path_psMRzins" style="fill:none;stroke:#E0E0E0;stroke-width:14.69" clip-path="url(#clipPath_zPrGHVMg)"/>
	<defs>
		<path id="path_KpLQzVjE" d="M455.52 1902.22 L455.52 1902.22 L480.89 1902.22 L506.14 1902.22 L531.51 1902.10 L556.75 1902.10 L582.12 1902.10 L607.37 1902.10 L632.73 1901.97 L657.98 1901.97 L683.35 1901.85 L708.59 1901.73 L733.96 1901.60 L759.21 1901.48 L784.58 1901.35 L809.82 1901.11 L835.19 1900.98 L860.43 1900.74 L885.80 1900.36 L911.05 1900.12 L936.42 1899.75 L961.66 1899.37 L987.03 1898.88 L1012.27 1898.38 L1037.64 1897.89 L1062.89 1897.39 L1088.26 1896.78 L1113.50 1896.16 L1138.87 1895.41 L1164.24 1894.67 L1189.48 1893.81 L1214.85 1892.94 L1240.10 1891.95 L1265.47 1890.84 L1290.71 1889.60 L1316.08 1888.36 L1341.33 1886.88 L1366.69 1885.27 L1391.94 1883.66 L1417.31 1881.68 L1442.55 1879.57 L1467.92 1877.35 L1493.17 1874.75 L1518.54 1871.78 L1543.78 1868.56 L1569.15 1865.09 L1594.39 1861.01 L1619.76 1856.56 L1645.01 1851.61 L1670.38 1846.04 L1695.62 1839.85 L1720.99 1832.79 L1746.24 1825.00 L1771.61 1816.21 L1796.85 1806.44 L1822.22 1795.54 L1847.46 1783.17 L1872.83 1769.43 L1898.20 1754.09 L1923.45 1736.89 L1948.82 1717.58 L1974.06 1695.92 L1999.43 1671.79 L2024.67 1644.94 L2024.67 1590.36 L1999.43 1623.03 L1974.06 1652.24 L1948.82 1678.35 L1923.45 1701.62 L1898.20 1722.53 L1872.83 1741.09 L1847.46 1757.68 L1822.22 1772.53 L1796.85 1785.77 L1771.61 1797.65 L1746.24 1808.29 L1720.99 1817.70 L1695.62 1826.24 L1670.38 1833.78 L1645.01 1840.59 L1619.76 1846.66 L1594.39 1851.98 L1569.15 1856.80 L1543.78 1861.13 L1518.54 1865.09 L1493.17 1868.56 L1467.92 1871.65 L1442.55 1874.38 L1417.31 1876.85 L1391.94 1879.08 L1366.69 1881.06 L1341.33 1882.92 L1316.08 1884.52 L1290.71 1886.13 L1265.47 1887.49 L1240.10 1888.73 L1214.85 1889.97 L1189.48 1891.08 L1164.24 1892.20 L1138.87 1893.06 L1113.50 1894.05 L1088.26 1894.80 L1062.89 1895.66 L1037.64 1896.40 L1012.27 1897.02 L987.03 1897.64 L961.66 1898.14 L936.42 1898.63 L911.05 1899.00 L885.80 1899.37 L860.43 1899.75 L835.19 1899.99 L809.82 1900.36 L784.58 1900.49 L759.21 1900.74 L733.96 1900.98 L708.59 1901.11 L683.35 1901.23 L657.98 1901.35 L632.73 1901.48 L607.37 1901.60 L582.12 1901.60 L556.75 1901.73 L531.51 1901.73 L506.14 1901.85 L480.89 1901.85 L455.52 1901.97 L455.52 1902.22 Z" stroke-linejoin="round"/>
	</defs>
	<defs>
		<clipPath id="clipPath_bogxDyxw">
			<use xlink:href="#path_KpLQzVjE"/>
		</clipPath>
	</defs>
	<use xlink:href="#path_KpLQzVjE" style="stroke:none;fill:#E6E6E6"/>
	<use xlink:href="#path_KpLQzVjE" style="fill:none;stroke:#E0E0E0;stroke-width:14.69" clip-path="url(#clipPath_bogxDyxw)"/>
	<defs>
		<path id="path_QgwQiHKI" d="M455.52 1902.22 L455.52 1902.22 L480.89 1902.10 L506.14 1902.10 L531.51 1902.10 L556.75 1902.10 L582.12 1901.97 L607.37 1901.97 L632.73 1901.85 L657.98 1901.73 L683.35 1901.60 L708.59 1901.48 L733.96 1901.35 L759.21 1901.11 L784.58 1900.98 L809.82 1900.74 L835.19 1900.36 L860.43 1899.99 L885.80 1899.62 L911.05 1899.13 L936.42 1898.63 L961.66 1898.14 L987.03 1897.52 L1012.27 1896.78 L1037.64 1896.03 L1062.89 1895.29 L1088.26 1894.42 L1113.50 1893.56 L1138.87 1892.44 L1164.24 1891.33 L1189.48 1890.22 L1214.85 1888.86 L1240.10 1887.49 L1265.47 1885.89 L1290.71 1884.15 L1316.08 1882.30 L1341.33 1880.32 L1366.69 1878.09 L1391.94 1875.61 L1417.31 1872.89 L1442.55 1869.92 L1467.92 1866.58 L1493.17 1862.99 L1518.54 1858.78 L1543.78 1854.20 L1569.15 1849.13 L1594.39 1843.44 L1619.76 1837.13 L1645.01 1830.07 L1670.38 1822.15 L1695.62 1813.24 L1720.99 1803.22 L1746.24 1792.08 L1771.61 1779.70 L1796.85 1765.72 L1822.22 1750.13 L1847.46 1732.68 L1872.83 1713.00 L1898.20 1691.10 L1923.45 1666.59 L1948.82 1639.12 L1974.06 1608.43 L1999.43 1574.15 L2024.67 1535.79 L2024.67 1449.78 L1999.43 1497.17 L1974.06 1539.50 L1948.82 1577.49 L1923.45 1611.28 L1898.20 1641.47 L1872.83 1668.45 L1847.46 1692.58 L1822.22 1714.11 L1796.85 1733.42 L1771.61 1750.62 L1746.24 1765.97 L1720.99 1779.70 L1695.62 1791.96 L1670.38 1802.97 L1645.01 1812.75 L1619.76 1821.53 L1594.39 1829.45 L1569.15 1836.38 L1543.78 1842.70 L1518.54 1848.39 L1493.17 1853.34 L1467.92 1857.79 L1442.55 1861.88 L1417.31 1865.47 L1391.94 1868.68 L1366.69 1871.65 L1341.33 1874.25 L1316.08 1876.60 L1290.71 1878.83 L1265.47 1880.94 L1240.10 1882.79 L1214.85 1884.52 L1189.48 1886.13 L1164.24 1887.62 L1138.87 1888.98 L1113.50 1890.34 L1088.26 1891.58 L1062.89 1892.69 L1037.64 1893.68 L1012.27 1894.67 L987.03 1895.54 L961.66 1896.28 L936.42 1897.02 L911.05 1897.64 L885.80 1898.14 L860.43 1898.63 L835.19 1899.13 L809.82 1899.37 L784.58 1899.75 L759.21 1900.12 L733.96 1900.36 L708.59 1900.49 L683.35 1900.74 L657.98 1900.98 L632.73 1901.11 L607.37 1901.23 L582.12 1901.35 L556.75 1901.48 L531.51 1901.60 L506.14 1901.60 L480.89 1901.73 L455.52 1901.73 L455.52 1902.22 Z" stroke-linejoin="round"/>
	</defs>
	<defs>
		<clipPath id="clipPath_iQeGrnag">
			<use xlink:href="#path_QgwQiHKI"/>
		</clipPath>
	</defs>
	<use xlink:href="#path_QgwQiHKI" style="stroke:none;fill:#E6E6E6"/>
	<use xlink:href="#path_QgwQiHKI" style="fill:none;stroke:#E0E0E0;stroke-width:14.69" clip-path="url(#clipPath_iQeGrnag)"/>
	<defs>
		<path id="path_nYIdbFbU" d="M455.52 1902.22 L455.52 1902.22 L480.89 1902.10 L506.14 1902.10 L531.51 1902.10 L556.75 1902.10 L582.12 1901.97 L607.37 1901.97 L632.73 1901.85 L657.98 1901.73 L683.35 1901.73 L708.59 1901.48 L733.96 1901.35 L759.21 1901.23 L784.58 1900.98 L809.82 1900.74 L835.19 1900.36 L860.43 1899.99 L885.80 1899.62 L911.05 1899.25 L936.42 1898.76 L961.66 1898.14 L987.03 1897.52 L1012.27 1896.90 L1037.64 1896.16 L1062.89 1895.41 L1088.26 1894.55 L1113.50 1893.68 L1138.87 1892.69 L1164.24 1891.58 L1189.48 1890.46 L1214.85 1889.23 L1240.10 1887.74 L1265.47 1886.26 L1290.71 1884.65 L1316.08 1882.79 L1341.33 1880.81 L1366.69 1878.71 L1391.94 1876.36 L1417.31 1873.63 L1442.55 1870.79 L1467.92 1867.57 L1493.17 1863.98 L1518.54 1860.02 L1543.78 1855.57 L1569.15 1850.62 L1594.39 1845.05 L1619.76 1838.86 L1645.01 1832.05 L1670.38 1824.26 L1695.62 1815.59 L1720.99 1805.94 L1746.24 1795.17 L1771.61 1783.05 L1796.85 1769.43 L1822.22 1754.21 L1847.46 1737.13 L1872.83 1718.07 L1898.20 1696.79 L1923.45 1672.90 L1948.82 1646.17 L1974.06 1616.23 L1999.43 1582.69 L2024.67 1545.31 L2024.67 1442.10 L1999.43 1490.24 L1974.06 1533.31 L1948.82 1571.80 L1923.45 1606.20 L1898.20 1636.89 L1872.83 1664.37 L1847.46 1688.87 L1822.22 1710.77 L1796.85 1730.33 L1771.61 1747.90 L1746.24 1763.49 L1720.99 1777.48 L1695.62 1789.98 L1670.38 1801.11 L1645.01 1811.14 L1619.76 1820.05 L1594.39 1828.09 L1569.15 1835.27 L1543.78 1841.58 L1518.54 1847.40 L1493.17 1852.47 L1467.92 1857.05 L1442.55 1861.13 L1417.31 1864.85 L1391.94 1868.19 L1366.69 1871.16 L1341.33 1873.76 L1316.08 1876.23 L1290.71 1878.58 L1265.47 1880.56 L1240.10 1882.54 L1214.85 1884.28 L1189.48 1885.89 L1164.24 1887.49 L1138.87 1888.86 L1113.50 1890.22 L1088.26 1891.45 L1062.89 1892.57 L1037.64 1893.68 L1012.27 1894.55 L987.03 1895.41 L961.66 1896.28 L936.42 1896.90 L911.05 1897.52 L885.80 1898.14 L860.43 1898.63 L835.19 1899.00 L809.82 1899.37 L784.58 1899.75 L759.21 1900.12 L733.96 1900.36 L708.59 1900.49 L683.35 1900.74 L657.98 1900.98 L632.73 1901.11 L607.37 1901.23 L582.12 1901.35 L556.75 1901.48 L531.51 1901.60 L506.14 1901.60 L480.89 1901.73 L455.52 1901.73 L455.52 1902.22 Z" stroke-linejoin="round"/>
	</defs>
	<defs>
		<clipPath id="clipPath_kyvdYJgs">
			<use xlink:href="#path_nYIdbFbU"/>
		</clipPath>
	</defs>
	<use xlink:href="#path_nYIdbFbU" style="stroke:none;fill:#E6E6E6"/>
	<use xlink:href="#path_nYIdbFbU" style="fill:none;stroke:#E0E0E0;stroke-width:14.69" clip-path="url(#clipPath_kyvdYJgs)"/>
	<path d=" M455.52 1902.22 L480.77 1902.22 L506.14 1902.22 L531.38 1902.22 L556.75 1902.10 L582.00 1902.10 L607.37 1902.10 L632.61 1901.97 L657.98 1901.97 L683.22 1901.85 L708.59 1901.73 L733.84 1901.73 L759.21 1901.60 L784.45 1901.48 L809.82 1901.35 L835.07 1901.11 L860.43 1900.98 L885.68 1900.74 L911.05 1900.49 L936.29 1900.24 L961.66 1899.87 L986.91 1899.50 L1012.27 1899.13 L1037.52 1898.76 L1062.89 1898.38 L1088.13 1897.89 L1113.50 1897.27 L1138.87 1896.78 L1164.12 1896.16 L1189.48 1895.54 L1214.73 1894.80 L1240.10 1894.05 L1265.34 1893.19 L1290.71 1892.32 L1315.96 1891.33 L1341.33 1890.22 L1366.57 1888.98 L1391.94 1887.74 L1417.18 1886.26 L1442.55 1884.65 L1467.80 1882.92 L1493.17 1880.94 L1518.41 1878.71 L1543.78 1876.23 L1569.03 1873.39 L1594.39 1870.29 L1619.64 1866.83 L1645.01 1862.99 L1670.25 1858.66 L1695.62 1853.83 L1720.87 1848.39 L1746.24 1842.45 L1771.48 1835.64 L1796.85 1828.09 L1822.10 1819.55 L1847.46 1810.02 L1872.71 1799.38 L1898.08 1787.50 L1923.45 1774.14 L1948.69 1759.28 L1974.06 1742.58 L1999.31 1723.89 L2024.67 1702.98" stroke-linejoin="round" style="fill:none;stroke:#FF0000;stroke-width:7.34"/>
	<path d=" M455.52 1902.22 L480.77 1902.22 L506.14 1902.10 L531.38 1902.10 L556.75 1902.10 L582.00 1901.97 L607.37 1901.97 L632.61 1901.85 L657.98 1901.85 L683.22 1901.73 L708.59 1901.60 L733.84 1901.48 L759.21 1901.35 L784.45 1901.23 L809.82 1900.98 L835.07 1900.74 L860.43 1900.49 L885.68 1900.24 L911.05 1899.87 L936.29 1899.62 L961.66 1899.13 L986.91 1898.76 L1012.27 1898.26 L1037.52 1897.77 L1062.89 1897.15 L1088.13 1896.53 L1113.50 1895.79 L1138.87 1895.17 L1164.12 1894.30 L1189.48 1893.43 L1214.73 1892.57 L1240.10 1891.58 L1265.34 1890.46 L1290.71 1889.35 L1315.96 1887.99 L1341.33 1886.63 L1366.57 1885.02 L1391.94 1883.41 L1417.18 1881.55 L1442.55 1879.45 L1467.80 1877.10 L1493.17 1874.50 L1518.41 1871.65 L1543.78 1868.44 L1569.03 1864.85 L1594.39 1860.89 L1619.64 1856.31 L1645.01 1851.36 L1670.25 1845.79 L1695.62 1839.48 L1720.87 1832.42 L1746.24 1824.63 L1771.48 1815.84 L1796.85 1806.06 L1822.10 1795.05 L1847.46 1782.67 L1872.71 1768.94 L1898.08 1753.47 L1923.45 1736.27 L1948.69 1716.96 L1974.06 1695.30 L1999.31 1671.05 L2024.67 1644.07" stroke-linejoin="round" style="fill:none;stroke:#008000;stroke-width:7.34"/>
	<path d=" M455.52 1902.22 L480.77 1902.10 L506.14 1902.10 L531.38 1902.10 L556.75 1902.10 L582.00 1901.97 L607.37 1901.97 L632.61 1901.85 L657.98 1901.73 L683.22 1901.60 L708.59 1901.60 L733.84 1901.35 L759.21 1901.23 L784.45 1901.11 L809.82 1900.86 L835.07 1900.61 L860.43 1900.36 L885.68 1899.99 L911.05 1899.62 L936.29 1899.25 L961.66 1898.88 L986.91 1898.38 L1012.27 1897.89 L1037.52 1897.27 L1062.89 1896.65 L1088.13 1895.91 L1113.50 1895.17 L1138.87 1894.42 L1164.12 1893.56 L1189.48 1892.57 L1214.73 1891.58 L1240.10 1890.46 L1265.34 1889.35 L1290.71 1887.99 L1315.96 1886.63 L1341.33 1885.02 L1366.57 1883.41 L1391.94 1881.55 L1417.18 1879.45 L1442.55 1877.22 L1467.80 1874.62 L1493.17 1871.78 L1518.41 1868.68 L1543.78 1865.09 L1569.03 1861.26 L1594.39 1856.80 L1619.64 1851.85 L1645.01 1846.41 L1670.25 1840.22 L1695.62 1833.41 L1720.87 1825.74 L1746.24 1817.08 L1771.48 1807.43 L1796.85 1796.66 L1822.10 1784.65 L1847.46 1771.17 L1872.71 1756.07 L1898.08 1739.11 L1923.45 1720.18 L1948.69 1698.89 L1974.06 1675.26 L1999.31 1648.65 L2024.67 1618.95" stroke-linejoin="round" style="fill:none;stroke:#FFD200;stroke-width:7.34"/>
	<path d=" M455.52 1902.10 L480.77 1902.10 L506.14 1901.97 L531.38 1901.97 L556.75 1901.85 L582.00 1901.85 L607.37 1901.73 L632.61 1901.60 L657.98 1901.48 L683.22 1901.35 L708.59 1901.23 L733.84 1900.98 L759.21 1900.74 L784.45 1900.49 L809.82 1900.24 L835.07 1899.87 L860.43 1899.50 L885.68 1899.00 L911.05 1898.51 L936.29 1898.01 L961.66 1897.27 L986.91 1896.65 L1012.27 1895.91 L1037.52 1895.04 L1062.89 1894.18 L1088.13 1893.19 L1113.50 1892.07 L1138.87 1890.96 L1164.12 1889.72 L1189.48 1888.36 L1214.73 1886.88 L1240.10 1885.39 L1265.34 1883.66 L1290.71 1881.80 L1315.96 1879.70 L1341.33 1877.47 L1366.57 1875.12 L1391.94 1872.40 L1417.18 1869.43 L1442.55 1866.21 L1467.80 1862.50 L1493.17 1858.41 L1518.41 1853.96 L1543.78 1848.88 L1569.03 1843.19 L1594.39 1836.88 L1619.64 1829.82 L1645.01 1821.90 L1670.25 1813.12 L1695.62 1803.22 L1720.87 1792.20 L1746.24 1779.83 L1771.48 1765.97 L1796.85 1750.50 L1822.10 1733.17 L1847.46 1713.74 L1872.71 1691.96 L1898.08 1667.71 L1923.45 1640.48 L1948.69 1610.04 L1974.06 1575.88 L1999.31 1537.77 L2024.67 1495.07" stroke-linejoin="round" style="fill:none;stroke:#FF7F00;stroke-width:7.34"/>
	<path d=" M455.52 1902.10 L480.77 1902.10 L506.14 1901.97 L531.38 1901.97 L556.75 1901.97 L582.00 1901.85 L607.37 1901.73 L632.61 1901.60 L657.98 1901.48 L683.22 1901.35 L708.59 1901.23 L733.84 1900.98 L759.21 1900.74 L784.45 1900.49 L809.82 1900.24 L835.07 1899.87 L860.43 1899.50 L885.68 1899.00 L911.05 1898.51 L936.29 1898.01 L961.66 1897.39 L986.91 1896.65 L1012.27 1895.91 L1037.52 1895.04 L1062.89 1894.18 L1088.13 1893.19 L1113.50 1892.20 L1138.87 1890.96 L1164.12 1889.72 L1189.48 1888.48 L1214.73 1887.00 L1240.10 1885.39 L1265.34 1883.66 L1290.71 1881.80 L1315.96 1879.82 L1341.33 1877.59 L1366.57 1875.24 L1391.94 1872.52 L1417.18 1869.67 L1442.55 1866.33 L1467.80 1862.74 L1493.17 1858.66 L1518.41 1854.20 L1543.78 1849.13 L1569.03 1843.44 L1594.39 1837.25 L1619.64 1830.20 L1645.01 1822.28 L1670.25 1813.49 L1695.62 1803.71 L1720.87 1792.70 L1746.24 1780.45 L1771.48 1766.59 L1796.85 1751.24 L1822.10 1733.92 L1847.46 1714.61 L1872.71 1692.95 L1898.08 1668.82 L1923.45 1641.72 L1948.69 1611.40 L1974.06 1577.49 L1999.31 1539.50 L2024.67 1497.05" stroke-linejoin="round" style="fill:none;stroke:#9C8847;stroke-width:7.34"/>
	<path d=" M455.52 1902.22 L480.77 1902.22 L506.14 1902.22 L531.38 1902.10 L556.75 1902.10 L582.00 1902.10 L607.37 1901.97 L632.61 1901.97 L657.98 1901.85 L683.22 1901.85 L708.59 1901.73 L733.84 1901.60 L759.21 1901.48 L784.45 1901.35 L809.82 1901.23 L835.07 1900.98 L860.43 1900.74 L885.68 1900.49 L911.05 1900.24 L936.29 1899.99 L961.66 1899.62 L986.91 1899.25 L1012.27 1898.88 L1037.52 1898.38 L1062.89 1897.89 L1088.13 1897.39 L1113.50 1896.78 L1138.87 1896.16 L1164.12 1895.54 L1189.48 1894.80 L1214.73 1893.93 L1240.10 1893.19 L1265.34 1892.20 L1290.71 1891.21 L1315.96 1890.09 L1341.33 1888.86 L1366.57 1887.62 L1391.94 1886.13 L1417.18 1884.52 L1442.55 1882.79 L1467.80 1880.81 L1493.17 1878.58 L1518.41 1876.11 L1543.78 1873.39 L1569.03 1870.29 L1594.39 1866.95 L1619.64 1863.11 L1645.01 1858.78 L1670.25 1854.08 L1695.62 1848.76 L1720.87 1842.70 L1746.24 1836.01 L1771.48 1828.59 L1796.85 1820.17 L1822.10 1810.77 L1847.46 1800.25 L1872.71 1788.49 L1898.08 1775.37 L1923.45 1760.65 L1948.69 1744.19 L1974.06 1725.75 L1999.31 1705.08 L2024.67 1681.94" stroke-linejoin="round" style="fill:none;stroke:#1A476F;stroke-width:7.34"/>
	<line x1="455.52" y1="1858.78" x2="458.37" y2="1858.78" style="stroke:#000000;stroke-width:7.34"/>
	<line x1="478.54" y1="1858.78" x2="480.77" y2="1858.78" style="stroke:#000000;stroke-width:7.34"/>
	<line x1="480.77" y1="1858.78" x2="481.39" y2="1858.78" style="stroke:#000000;stroke-width:7.34"/>
	<line x1="501.56" y1="1858.78" x2="504.40" y2="1858.78" style="stroke:#000000;stroke-width:7.34"/>
	<line x1="524.58" y1="1858.78" x2="527.42" y2="1858.78" style="stroke:#000000;stroke-width:7.34"/>
	<line x1="547.59" y1="1858.78" x2="550.44" y2="1858.78" style="stroke:#000000;stroke-width:7.34"/>
	<line x1="570.61" y1="1858.78" x2="573.58" y2="1858.78" style="stroke:#000000;stroke-width:7.34"/>
	<line x1="593.75" y1="1858.78" x2="596.60" y2="1858.78" style="stroke:#000000;stroke-width:7.34"/>
	<line x1="616.77" y1="1858.78" x2="619.62" y2="1858.78" style="stroke:#000000;stroke-width:7.34"/>
	<line x1="639.79" y1="1858.78" x2="642.63" y2="1858.78" style="stroke:#000000;stroke-width:7.34"/>
	<line x1="662.80" y1="1858.78" x2="665.65" y2="1858.78" style="stroke:#000000;stroke-width:7.34"/>
	<line x1="685.82" y1="1858.78" x2="688.67" y2="1858.78" style="stroke:#000000;stroke-width:7.34"/>
	<line x1="708.84" y1="1858.78" x2="711.69" y2="1858.78" style="stroke:#000000;stroke-width:7.34"/>
	<line x1="731.86" y1="1858.78" x2="733.84" y2="1858.78" style="stroke:#000000;stroke-width:7.34"/>
	<line x1="733.84" y1="1858.78" x2="734.70" y2="1858.78" style="stroke:#000000;stroke-width:7.34"/>
	<line x1="754.88" y1="1858.78" x2="757.72" y2="1858.78" style="stroke:#000000;stroke-width:7.34"/>
	<line x1="777.89" y1="1858.78" x2="780.74" y2="1858.78" style="stroke:#000000;stroke-width:7.34"/>
	<line x1="800.91" y1="1858.78" x2="803.88" y2="1858.78" style="stroke:#000000;stroke-width:7.34"/>
	<line x1="823.93" y1="1858.78" x2="826.90" y2="1858.78" style="stroke:#000000;stroke-width:7.34"/>
	<line x1="847.07" y1="1858.78" x2="849.91" y2="1858.78" style="stroke:#000000;stroke-width:7.34"/>
	<line x1="870.09" y1="1858.78" x2="872.93" y2="1858.78" style="stroke:#000000;stroke-width:7.34"/>
	<line x1="893.10" y1="1858.78" x2="895.95" y2="1858.78" style="stroke:#000000;stroke-width:7.34"/>
	<line x1="916.12" y1="1858.78" x2="918.97" y2="1858.78" style="stroke:#000000;stroke-width:7.34"/>
	<line x1="939.14" y1="1858.78" x2="941.99" y2="1858.78" style="stroke:#000000;stroke-width:7.34"/>
	<line x1="962.16" y1="1858.78" x2="965.00" y2="1858.78" style="stroke:#000000;stroke-width:7.34"/>
	<line x1="985.17" y1="1858.78" x2="986.91" y2="1858.78" style="stroke:#000000;stroke-width:7.34"/>
	<line x1="986.91" y1="1858.78" x2="988.02" y2="1858.78" style="stroke:#000000;stroke-width:7.34"/>
	<line x1="1008.19" y1="1858.78" x2="1011.04" y2="1858.78" style="stroke:#000000;stroke-width:7.34"/>
	<line x1="1031.21" y1="1858.78" x2="1034.06" y2="1858.78" style="stroke:#000000;stroke-width:7.34"/>
	<line x1="1054.23" y1="1858.78" x2="1057.20" y2="1858.78" style="stroke:#000000;stroke-width:7.34"/>
	<line x1="1077.24" y1="1858.78" x2="1080.21" y2="1858.78" style="stroke:#000000;stroke-width:7.34"/>
	<line x1="1100.38" y1="1858.78" x2="1103.23" y2="1858.78" style="stroke:#000000;stroke-width:7.34"/>
	<line x1="1123.40" y1="1858.78" x2="1126.25" y2="1858.78" style="stroke:#000000;stroke-width:7.34"/>
	<line x1="1146.42" y1="1858.78" x2="1149.27" y2="1858.78" style="stroke:#000000;stroke-width:7.34"/>
	<line x1="1169.44" y1="1858.78" x2="1172.28" y2="1858.78" style="stroke:#000000;stroke-width:7.34"/>
	<line x1="1192.45" y1="1858.78" x2="1195.30" y2="1858.78" style="stroke:#000000;stroke-width:7.34"/>
	<line x1="1215.47" y1="1858.78" x2="1218.32" y2="1858.78" style="stroke:#000000;stroke-width:7.34"/>
	<line x1="1238.49" y1="1858.78" x2="1240.10" y2="1858.78" style="stroke:#000000;stroke-width:7.34"/>
	<line x1="1240.10" y1="1858.78" x2="1241.34" y2="1858.78" style="stroke:#000000;stroke-width:7.34"/>
	<line x1="1261.51" y1="1858.78" x2="1264.35" y2="1858.78" style="stroke:#000000;stroke-width:7.34"/>
	<line x1="1284.53" y1="1858.78" x2="1287.37" y2="1858.78" style="stroke:#000000;stroke-width:7.34"/>
	<line x1="1307.54" y1="1858.78" x2="1310.51" y2="1858.78" style="stroke:#000000;stroke-width:7.34"/>
	<line x1="1330.56" y1="1858.78" x2="1333.53" y2="1858.78" style="stroke:#000000;stroke-width:7.34"/>
	<line x1="1353.70" y1="1858.78" x2="1356.55" y2="1858.78" style="stroke:#000000;stroke-width:7.34"/>
	<line x1="1376.72" y1="1858.78" x2="1379.57" y2="1858.78" style="stroke:#000000;stroke-width:7.34"/>
	<line x1="1399.74" y1="1858.78" x2="1402.58" y2="1858.78" style="stroke:#000000;stroke-width:7.34"/>
	<line x1="1422.75" y1="1858.78" x2="1425.60" y2="1858.78" style="stroke:#000000;stroke-width:7.34"/>
	<line x1="1445.77" y1="1858.78" x2="1448.62" y2="1858.78" style="stroke:#000000;stroke-width:7.34"/>
	<line x1="1468.79" y1="1858.78" x2="1471.63" y2="1858.78" style="stroke:#000000;stroke-width:7.34"/>
	<line x1="1491.81" y1="1858.78" x2="1493.17" y2="1858.78" style="stroke:#000000;stroke-width:7.34"/>
	<line x1="1493.17" y1="1858.78" x2="1494.65" y2="1858.78" style="stroke:#000000;stroke-width:7.34"/>
	<line x1="1514.82" y1="1858.78" x2="1517.67" y2="1858.78" style="stroke:#000000;stroke-width:7.34"/>
	<line x1="1537.84" y1="1858.78" x2="1540.69" y2="1858.78" style="stroke:#000000;stroke-width:7.34"/>
	<line x1="1560.86" y1="1858.78" x2="1563.83" y2="1858.78" style="stroke:#000000;stroke-width:7.34"/>
	<line x1="1584.00" y1="1858.78" x2="1586.85" y2="1858.78" style="stroke:#000000;stroke-width:7.34"/>
	<line x1="1607.02" y1="1858.78" x2="1609.86" y2="1858.78" style="stroke:#000000;stroke-width:7.34"/>
	<line x1="1630.04" y1="1858.78" x2="1632.88" y2="1858.78" style="stroke:#000000;stroke-width:7.34"/>
	<line x1="1653.05" y1="1858.78" x2="1655.90" y2="1858.78" style="stroke:#000000;stroke-width:7.34"/>
	<line x1="1676.07" y1="1858.78" x2="1678.92" y2="1858.78" style="stroke:#000000;stroke-width:7.34"/>
	<line x1="1699.09" y1="1858.78" x2="1701.93" y2="1858.78" style="stroke:#000000;stroke-width:7.34"/>
	<line x1="1722.11" y1="1858.78" x2="1724.95" y2="1858.78" style="stroke:#000000;stroke-width:7.34"/>
	<line x1="1745.12" y1="1858.78" x2="1746.24" y2="1858.78" style="stroke:#000000;stroke-width:7.34"/>
	<line x1="1746.24" y1="1858.78" x2="1747.97" y2="1858.78" style="stroke:#000000;stroke-width:7.34"/>
	<line x1="1768.14" y1="1858.78" x2="1770.99" y2="1858.78" style="stroke:#000000;stroke-width:7.34"/>
	<line x1="1791.16" y1="1858.78" x2="1794.00" y2="1858.78" style="stroke:#000000;stroke-width:7.34"/>
	<line x1="1814.17" y1="1858.78" x2="1817.14" y2="1858.78" style="stroke:#000000;stroke-width:7.34"/>
	<line x1="1837.32" y1="1858.78" x2="1840.16" y2="1858.78" style="stroke:#000000;stroke-width:7.34"/>
	<line x1="1860.33" y1="1858.78" x2="1863.18" y2="1858.78" style="stroke:#000000;stroke-width:7.34"/>
	<line x1="1883.35" y1="1858.78" x2="1886.20" y2="1858.78" style="stroke:#000000;stroke-width:7.34"/>
	<line x1="1906.37" y1="1858.78" x2="1909.21" y2="1858.78" style="stroke:#000000;stroke-width:7.34"/>
	<line x1="1929.39" y1="1858.78" x2="1932.23" y2="1858.78" style="stroke:#000000;stroke-width:7.34"/>
	<line x1="1952.40" y1="1858.78" x2="1955.25" y2="1858.78" style="stroke:#000000;stroke-width:7.34"/>
	<line x1="1975.42" y1="1858.78" x2="1978.27" y2="1858.78" style="stroke:#000000;stroke-width:7.34"/>
	<line x1="1998.44" y1="1858.78" x2="1999.31" y2="1858.78" style="stroke:#000000;stroke-width:7.34"/>
	<line x1="1999.31" y1="1858.78" x2="2001.29" y2="1858.78" style="stroke:#000000;stroke-width:7.34"/>
	<line x1="2021.46" y1="1858.78" x2="2024.30" y2="1858.78" style="stroke:#000000;stroke-width:7.34"/>
	<path d="" stroke-linejoin="round" style="fill:none;stroke:#000000;stroke-width:7.34"/>
	<defs>
		<path id="path_JNFWTJwx" d="M2201.51 1902.22 L2201.51 1902.22 L2226.88 1902.22 L2252.13 1902.10 L2277.49 1902.10 L2302.74 1902.10 L2328.11 1902.10 L2353.35 1901.97 L2378.72 1901.97 L2403.97 1901.85 L2429.34 1901.85 L2454.58 1901.73 L2479.95 1901.60 L2505.20 1901.35 L2530.56 1901.23 L2555.81 1900.98 L2581.18 1900.74 L2606.42 1900.49 L2631.79 1900.12 L2657.04 1899.75 L2682.41 1899.37 L2707.65 1899.00 L2733.02 1898.38 L2758.26 1897.89 L2783.63 1897.39 L2808.88 1896.65 L2834.25 1896.03 L2859.49 1895.29 L2884.86 1894.42 L2910.11 1893.56 L2935.47 1892.69 L2960.72 1891.58 L2986.09 1890.46 L3011.46 1889.23 L3036.70 1887.87 L3062.07 1886.38 L3087.32 1884.77 L3112.68 1882.92 L3137.93 1880.94 L3163.30 1878.83 L3188.54 1876.36 L3213.91 1873.76 L3239.16 1870.79 L3264.53 1867.57 L3289.77 1863.86 L3315.14 1859.77 L3340.38 1855.19 L3365.75 1850.12 L3391.00 1844.55 L3416.37 1838.12 L3441.61 1831.06 L3466.98 1823.14 L3492.22 1814.23 L3517.59 1804.33 L3542.84 1793.19 L3568.21 1780.69 L3593.45 1766.71 L3618.82 1750.99 L3644.07 1733.54 L3669.43 1713.99 L3694.68 1691.96 L3720.05 1667.46 L3745.42 1639.99 L3770.66 1609.42 L3770.66 1553.11 L3745.42 1589.74 L3720.05 1622.54 L3694.68 1651.74 L3669.43 1677.85 L3644.07 1701.12 L3618.82 1721.91 L3593.45 1740.60 L3568.21 1757.18 L3542.84 1772.03 L3517.59 1785.27 L3492.22 1797.15 L3466.98 1807.80 L3441.61 1817.20 L3416.37 1825.74 L3391.00 1833.29 L3365.75 1840.10 L3340.38 1846.16 L3315.14 1851.48 L3289.77 1856.43 L3264.53 1860.76 L3239.16 1864.60 L3213.91 1868.06 L3188.54 1871.16 L3163.30 1873.88 L3137.93 1876.36 L3112.68 1878.58 L3087.32 1880.69 L3062.07 1882.54 L3036.70 1884.15 L3011.46 1885.76 L2986.09 1887.25 L2960.72 1888.48 L2935.47 1889.85 L2910.11 1890.96 L2884.86 1892.07 L2859.49 1893.06 L2834.25 1893.93 L2808.88 1894.80 L2783.63 1895.66 L2758.26 1896.40 L2733.02 1897.02 L2707.65 1897.64 L2682.41 1898.14 L2657.04 1898.63 L2631.79 1899.13 L2606.42 1899.50 L2581.18 1899.75 L2555.81 1900.12 L2530.56 1900.36 L2505.20 1900.49 L2479.95 1900.74 L2454.58 1900.98 L2429.34 1901.11 L2403.97 1901.23 L2378.72 1901.35 L2353.35 1901.48 L2328.11 1901.60 L2302.74 1901.60 L2277.49 1901.73 L2252.13 1901.73 L2226.88 1901.85 L2201.51 1901.85 L2201.51 1902.22 Z" stroke-linejoin="round"/>
	</defs>
	<defs>
		<clipPath id="clipPath_kpFLLZVG">
			<use xlink:href="#path_JNFWTJwx"/>
		</clipPath>
	</defs>
	<use xlink:href="#path_JNFWTJwx" style="stroke:none;fill:#E6E6E6"/>
	<use xlink:href="#path_JNFWTJwx" style="fill:none;stroke:#E0E0E0;stroke-width:14.69" clip-path="url(#clipPath_kpFLLZVG)"/>
	<defs>
		<path id="path_FZYaUnxY" d="M2201.51 1902.22 L2201.51 1902.22 L2226.88 1902.22 L2252.13 1902.22 L2277.49 1902.10 L2302.74 1902.10 L2328.11 1902.10 L2353.35 1901.97 L2378.72 1901.97 L2403.97 1901.85 L2429.34 1901.85 L2454.58 1901.73 L2479.95 1901.60 L2505.20 1901.48 L2530.56 1901.35 L2555.81 1901.11 L2581.18 1900.86 L2606.42 1900.61 L2631.79 1900.36 L2657.04 1899.99 L2682.41 1899.62 L2707.65 1899.25 L2733.02 1898.88 L2758.26 1898.38 L2783.63 1897.89 L2808.88 1897.27 L2834.25 1896.65 L2859.49 1896.03 L2884.86 1895.29 L2910.11 1894.42 L2935.47 1893.56 L2960.72 1892.69 L2986.09 1891.58 L3011.46 1890.46 L3036.70 1889.23 L3062.07 1887.99 L3087.32 1886.50 L3112.68 1884.90 L3137.93 1883.04 L3163.30 1881.06 L3188.54 1878.95 L3213.91 1876.48 L3239.16 1873.88 L3264.53 1870.91 L3289.77 1867.57 L3315.14 1863.86 L3340.38 1859.77 L3365.75 1855.19 L3391.00 1850.00 L3416.37 1844.30 L3441.61 1837.87 L3466.98 1830.57 L3492.22 1822.52 L3517.59 1813.49 L3542.84 1803.47 L3568.21 1792.08 L3593.45 1779.46 L3618.82 1765.23 L3644.07 1749.26 L3669.43 1731.56 L3694.68 1711.64 L3720.05 1689.36 L3745.42 1664.37 L3770.66 1636.52 L3770.66 1587.51 L3745.42 1620.43 L3720.05 1649.89 L3694.68 1676.25 L3669.43 1699.76 L3644.07 1720.80 L3618.82 1739.48 L3593.45 1756.31 L3568.21 1771.29 L3542.84 1784.65 L3517.59 1796.66 L3492.22 1807.30 L3466.98 1816.83 L3441.61 1825.49 L3416.37 1833.04 L3391.00 1839.85 L3365.75 1846.04 L3340.38 1851.48 L3315.14 1856.31 L3289.77 1860.76 L3264.53 1864.60 L3239.16 1868.19 L3213.91 1871.28 L3188.54 1874.00 L3163.30 1876.60 L3137.93 1878.83 L3112.68 1880.81 L3087.32 1882.67 L3062.07 1884.28 L3036.70 1885.89 L3011.46 1887.25 L2986.09 1888.61 L2960.72 1889.85 L2935.47 1890.96 L2910.11 1891.95 L2884.86 1892.94 L2859.49 1893.93 L2834.25 1894.80 L2808.88 1895.54 L2783.63 1896.28 L2758.26 1896.90 L2733.02 1897.52 L2707.65 1898.01 L2682.41 1898.51 L2657.04 1899.00 L2631.79 1899.37 L2606.42 1899.75 L2581.18 1899.99 L2555.81 1900.24 L2530.56 1900.49 L2505.20 1900.74 L2479.95 1900.86 L2454.58 1901.11 L2429.34 1901.23 L2403.97 1901.35 L2378.72 1901.48 L2353.35 1901.48 L2328.11 1901.60 L2302.74 1901.73 L2277.49 1901.73 L2252.13 1901.85 L2226.88 1901.85 L2201.51 1901.97 L2201.51 1902.22 Z" stroke-linejoin="round"/>
	</defs>
	<defs>
		<clipPath id="clipPath_VHAKNcEb">
			<use xlink:href="#path_FZYaUnxY"/>
		</clipPath>
	</defs>
	<use xlink:href="#path_FZYaUnxY" style="stroke:none;fill:#E6E6E6"/>
	<use xlink:href="#path_FZYaUnxY" style="fill:none;stroke:#E0E0E0;stroke-width:14.69" clip-path="url(#clipPath_VHAKNcEb)"/>
	<defs>
		<path id="path_KzIgLNMy" d="M2201.51 1902.22 L2201.51 1902.22 L2226.88 1902.22 L2252.13 1902.10 L2277.49 1902.10 L2302.74 1902.10 L2328.11 1901.97 L2353.35 1901.97 L2378.72 1901.85 L2403.97 1901.85 L2429.34 1901.73 L2454.58 1901.60 L2479.95 1901.48 L2505.20 1901.23 L2530.56 1900.98 L2555.81 1900.86 L2581.18 1900.49 L2606.42 1900.12 L2631.79 1899.75 L2657.04 1899.37 L2682.41 1898.88 L2707.65 1898.38 L2733.02 1897.77 L2758.26 1897.15 L2783.63 1896.53 L2808.88 1895.79 L2834.25 1895.04 L2859.49 1894.18 L2884.86 1893.19 L2910.11 1892.20 L2935.47 1891.08 L2960.72 1889.85 L2986.09 1888.48 L3011.46 1887.00 L3036.70 1885.51 L3062.07 1883.78 L3087.32 1881.80 L3112.68 1879.82 L3137.93 1877.47 L3163.30 1874.99 L3188.54 1872.15 L3213.91 1869.05 L3239.16 1865.71 L3264.53 1861.88 L3289.77 1857.55 L3315.14 1852.84 L3340.38 1847.52 L3365.75 1841.71 L3391.00 1835.02 L3416.37 1827.60 L3441.61 1819.43 L3466.98 1810.15 L3492.22 1799.75 L3517.59 1788.12 L3542.84 1775.13 L3568.21 1760.65 L3593.45 1744.31 L3618.82 1726.12 L3644.07 1705.70 L3669.43 1682.81 L3694.68 1657.19 L3720.05 1628.60 L3745.42 1596.55 L3770.66 1560.78 L3770.66 1490.99 L3745.42 1534.05 L3720.05 1572.54 L3694.68 1606.94 L3669.43 1637.63 L3644.07 1665.11 L3618.82 1689.61 L3593.45 1711.52 L3568.21 1731.07 L3542.84 1748.64 L3517.59 1764.24 L3492.22 1778.22 L3466.98 1790.72 L3441.61 1801.86 L3416.37 1811.88 L3391.00 1820.79 L3365.75 1828.83 L3340.38 1836.01 L3315.14 1842.32 L3289.77 1848.02 L3264.53 1853.21 L3239.16 1857.79 L3213.91 1861.88 L3188.54 1865.47 L3163.30 1868.81 L3137.93 1871.65 L3112.68 1874.38 L3087.32 1876.73 L3062.07 1878.95 L3036.70 1880.94 L3011.46 1882.79 L2986.09 1884.52 L2960.72 1886.01 L2935.47 1887.49 L2910.11 1888.86 L2884.86 1890.22 L2859.49 1891.33 L2834.25 1892.44 L2808.88 1893.56 L2783.63 1894.42 L2758.26 1895.29 L2733.02 1896.16 L2707.65 1896.78 L2682.41 1897.52 L2657.04 1898.01 L2631.79 1898.51 L2606.42 1899.00 L2581.18 1899.37 L2555.81 1899.62 L2530.56 1899.99 L2505.20 1900.24 L2479.95 1900.49 L2454.58 1900.74 L2429.34 1900.86 L2403.97 1900.98 L2378.72 1901.23 L2353.35 1901.35 L2328.11 1901.48 L2302.74 1901.48 L2277.49 1901.60 L2252.13 1901.73 L2226.88 1901.73 L2201.51 1901.85 L2201.51 1902.22 Z" stroke-linejoin="round"/>
	</defs>
	<defs>
		<clipPath id="clipPath_twIqjCAH">
			<use xlink:href="#path_KzIgLNMy"/>
		</clipPath>
	</defs>
	<use xlink:href="#path_KzIgLNMy" style="stroke:none;fill:#E6E6E6"/>
	<use xlink:href="#path_KzIgLNMy" style="fill:none;stroke:#E0E0E0;stroke-width:14.69" clip-path="url(#clipPath_twIqjCAH)"/>
	<defs>
		<path id="path_IaoTIzqw" d="M2201.51 1902.22 L2201.51 1902.22 L2226.88 1902.10 L2252.13 1902.10 L2277.49 1902.10 L2302.74 1902.10 L2328.11 1901.97 L2353.35 1901.97 L2378.72 1901.85 L2403.97 1901.73 L2429.34 1901.60 L2454.58 1901.48 L2479.95 1901.35 L2505.20 1901.11 L2530.56 1900.98 L2555.81 1900.61 L2581.18 1900.36 L2606.42 1899.99 L2631.79 1899.62 L2657.04 1899.13 L2682.41 1898.63 L2707.65 1898.01 L2733.02 1897.39 L2758.26 1896.65 L2783.63 1896.03 L2808.88 1895.17 L2834.25 1894.30 L2859.49 1893.31 L2884.86 1892.32 L2910.11 1891.21 L2935.47 1889.97 L2960.72 1888.61 L2986.09 1887.25 L3011.46 1885.64 L3036.70 1883.91 L3062.07 1882.05 L3087.32 1879.94 L3112.68 1877.72 L3137.93 1875.12 L3163.30 1872.40 L3188.54 1869.30 L3213.91 1865.96 L3239.16 1862.25 L3264.53 1858.04 L3289.77 1853.34 L3315.14 1848.14 L3340.38 1842.45 L3365.75 1835.89 L3391.00 1828.71 L3416.37 1820.54 L3441.61 1811.51 L3466.98 1801.49 L3492.22 1790.10 L3517.59 1777.48 L3542.84 1763.25 L3568.21 1747.28 L3593.45 1729.46 L3618.82 1709.54 L3644.07 1687.26 L3669.43 1662.26 L3694.68 1634.42 L3720.05 1603.11 L3745.42 1568.21 L3770.66 1529.23 L3770.66 1449.28 L3745.42 1496.80 L3720.05 1539.25 L3694.68 1577.12 L3669.43 1611.03 L3644.07 1641.22 L3618.82 1668.33 L3593.45 1692.46 L3568.21 1713.99 L3542.84 1733.30 L3517.59 1750.50 L3492.22 1765.84 L3466.98 1779.58 L3441.61 1791.96 L3416.37 1802.97 L3391.00 1812.75 L3365.75 1821.53 L3340.38 1829.33 L3315.14 1836.38 L3289.77 1842.70 L3264.53 1848.26 L3239.16 1853.34 L3213.91 1857.79 L3188.54 1861.88 L3163.30 1865.47 L3137.93 1868.68 L3112.68 1871.53 L3087.32 1874.13 L3062.07 1876.60 L3036.70 1878.83 L3011.46 1880.81 L2986.09 1882.67 L2960.72 1884.40 L2935.47 1886.01 L2910.11 1887.62 L2884.86 1888.98 L2859.49 1890.34 L2834.25 1891.45 L2808.88 1892.69 L2783.63 1893.68 L2758.26 1894.67 L2733.02 1895.54 L2707.65 1896.28 L2682.41 1897.02 L2657.04 1897.64 L2631.79 1898.14 L2606.42 1898.63 L2581.18 1899.00 L2555.81 1899.37 L2530.56 1899.75 L2505.20 1899.99 L2479.95 1900.24 L2454.58 1900.49 L2429.34 1900.74 L2403.97 1900.86 L2378.72 1901.11 L2353.35 1901.23 L2328.11 1901.35 L2302.74 1901.48 L2277.49 1901.60 L2252.13 1901.60 L2226.88 1901.73 L2201.51 1901.73 L2201.51 1902.22 Z" stroke-linejoin="round"/>
	</defs>
	<defs>
		<clipPath id="clipPath_UuKwSulj">
			<use xlink:href="#path_IaoTIzqw"/>
		</clipPath>
	</defs>
	<use xlink:href="#path_IaoTIzqw" style="stroke:none;fill:#E6E6E6"/>
	<use xlink:href="#path_IaoTIzqw" style="fill:none;stroke:#E0E0E0;stroke-width:14.69" clip-path="url(#clipPath_UuKwSulj)"/>
	<defs>
		<path id="path_tuhdgHvY" d="M2201.51 1902.10 L2201.51 1902.10 L2226.88 1902.10 L2252.13 1902.10 L2277.49 1901.97 L2302.74 1901.97 L2328.11 1901.85 L2353.35 1901.85 L2378.72 1901.73 L2403.97 1901.60 L2429.34 1901.35 L2454.58 1901.23 L2479.95 1900.98 L2505.20 1900.61 L2530.56 1900.36 L2555.81 1899.99 L2581.18 1899.50 L2606.42 1899.00 L2631.79 1898.38 L2657.04 1897.77 L2682.41 1897.02 L2707.65 1896.16 L2733.02 1895.29 L2758.26 1894.30 L2783.63 1893.31 L2808.88 1892.07 L2834.25 1890.84 L2859.49 1889.47 L2884.86 1888.11 L2910.11 1886.50 L2935.47 1884.77 L2960.72 1882.79 L2986.09 1880.69 L3011.46 1878.46 L3036.70 1875.98 L3062.07 1873.39 L3087.32 1870.42 L3112.68 1867.07 L3137.93 1863.61 L3163.30 1859.65 L3188.54 1855.32 L3213.91 1850.49 L3239.16 1845.17 L3264.53 1839.11 L3289.77 1832.55 L3315.14 1825.12 L3340.38 1816.83 L3365.75 1807.67 L3391.00 1797.28 L3416.37 1785.77 L3441.61 1772.90 L3466.98 1758.42 L3492.22 1742.33 L3517.59 1724.26 L3542.84 1704.09 L3568.21 1681.32 L3593.45 1656.07 L3618.82 1627.61 L3644.07 1595.93 L3669.43 1560.29 L3694.68 1520.56 L3720.05 1476.14 L3745.42 1426.39 L3770.66 1370.82 L3770.66 1245.46 L3745.42 1314.39 L3720.05 1375.90 L3694.68 1430.84 L3669.43 1479.97 L3644.07 1523.91 L3618.82 1563.14 L3593.45 1598.16 L3568.21 1629.34 L3542.84 1657.31 L3517.59 1682.31 L3492.22 1704.59 L3466.98 1724.51 L3441.61 1742.33 L3416.37 1758.29 L3391.00 1772.53 L3365.75 1785.27 L3340.38 1796.66 L3315.14 1806.81 L3289.77 1815.96 L3264.53 1824.13 L3239.16 1831.31 L3213.91 1837.87 L3188.54 1843.69 L3163.30 1848.88 L3137.93 1853.59 L3112.68 1857.79 L3087.32 1861.63 L3062.07 1865.09 L3036.70 1868.31 L3011.46 1871.28 L2986.09 1874.00 L2960.72 1876.48 L2935.47 1878.83 L2910.11 1881.06 L2884.86 1883.04 L2859.49 1885.02 L2834.25 1886.75 L2808.88 1888.36 L2783.63 1889.85 L2758.26 1891.21 L2733.02 1892.44 L2707.65 1893.56 L2682.41 1894.67 L2657.04 1895.54 L2631.79 1896.28 L2606.42 1897.02 L2581.18 1897.64 L2555.81 1898.14 L2530.56 1898.63 L2505.20 1899.00 L2479.95 1899.37 L2454.58 1899.75 L2429.34 1900.12 L2403.97 1900.36 L2378.72 1900.49 L2353.35 1900.74 L2328.11 1900.98 L2302.74 1901.11 L2277.49 1901.23 L2252.13 1901.35 L2226.88 1901.48 L2201.51 1901.60 L2201.51 1902.10 Z" stroke-linejoin="round"/>
	</defs>
	<defs>
		<clipPath id="clipPath_NuCKIsAp">
			<use xlink:href="#path_tuhdgHvY"/>
		</clipPath>
	</defs>
	<use xlink:href="#path_tuhdgHvY" style="stroke:none;fill:#E6E6E6"/>
	<use xlink:href="#path_tuhdgHvY" style="fill:none;stroke:#E0E0E0;stroke-width:14.69" clip-path="url(#clipPath_NuCKIsAp)"/>
	<defs>
		<path id="path_gMDedtNB" d="M2201.51 1902.10 L2201.51 1902.10 L2226.88 1902.10 L2252.13 1902.10 L2277.49 1901.97 L2302.74 1901.97 L2328.11 1901.85 L2353.35 1901.85 L2378.72 1901.73 L2403.97 1901.60 L2429.34 1901.35 L2454.58 1901.23 L2479.95 1900.98 L2505.20 1900.74 L2530.56 1900.36 L2555.81 1899.99 L2581.18 1899.50 L2606.42 1899.00 L2631.79 1898.51 L2657.04 1897.77 L2682.41 1897.15 L2707.65 1896.28 L2733.02 1895.41 L2758.26 1894.42 L2783.63 1893.43 L2808.88 1892.32 L2834.25 1891.08 L2859.49 1889.85 L2884.86 1888.36 L2910.11 1886.75 L2935.47 1885.14 L2960.72 1883.29 L2986.09 1881.18 L3011.46 1879.08 L3036.70 1876.60 L3062.07 1874.00 L3087.32 1871.16 L3112.68 1868.06 L3137.93 1864.60 L3163.30 1860.76 L3188.54 1856.56 L3213.91 1851.85 L3239.16 1846.66 L3264.53 1840.96 L3289.77 1834.53 L3315.14 1827.35 L3340.38 1819.31 L3365.75 1810.27 L3391.00 1800.25 L3416.37 1789.11 L3441.61 1776.49 L3466.98 1762.50 L3492.22 1746.79 L3517.59 1729.21 L3542.84 1709.54 L3568.21 1687.51 L3593.45 1662.88 L3618.82 1635.16 L3644.07 1604.35 L3669.43 1569.69 L3694.68 1530.96 L3720.05 1487.65 L3745.42 1439.26 L3770.66 1385.05 L3770.66 1233.95 L3745.42 1303.87 L3720.05 1366.37 L3694.68 1422.30 L3669.43 1472.30 L3644.07 1516.97 L3618.82 1556.82 L3593.45 1592.46 L3568.21 1624.27 L3542.84 1652.73 L3517.59 1678.10 L3492.22 1700.87 L3466.98 1721.17 L3441.61 1739.36 L3416.37 1755.57 L3391.00 1770.05 L3365.75 1783.05 L3340.38 1794.68 L3315.14 1805.07 L3289.77 1814.36 L3264.53 1822.65 L3239.16 1830.07 L3213.91 1836.63 L3188.54 1842.57 L3163.30 1847.89 L3137.93 1852.72 L3112.68 1857.05 L3087.32 1861.01 L3062.07 1864.60 L3036.70 1867.82 L3011.46 1870.79 L2986.09 1873.63 L2960.72 1876.23 L2935.47 1878.58 L2910.11 1880.81 L2884.86 1882.79 L2859.49 1884.77 L2834.25 1886.50 L2808.88 1888.24 L2783.63 1889.72 L2758.26 1891.08 L2733.02 1892.32 L2707.65 1893.56 L2682.41 1894.55 L2657.04 1895.41 L2631.79 1896.28 L2606.42 1897.02 L2581.18 1897.64 L2555.81 1898.14 L2530.56 1898.63 L2505.20 1899.00 L2479.95 1899.37 L2454.58 1899.75 L2429.34 1900.12 L2403.97 1900.36 L2378.72 1900.49 L2353.35 1900.74 L2328.11 1900.98 L2302.74 1901.11 L2277.49 1901.23 L2252.13 1901.35 L2226.88 1901.48 L2201.51 1901.60 L2201.51 1902.10 Z" stroke-linejoin="round"/>
	</defs>
	<defs>
		<clipPath id="clipPath_DNrQMlyW">
			<use xlink:href="#path_gMDedtNB"/>
		</clipPath>
	</defs>
	<use xlink:href="#path_gMDedtNB" style="stroke:none;fill:#E6E6E6"/>
	<use xlink:href="#path_gMDedtNB" style="fill:none;stroke:#E0E0E0;stroke-width:14.69" clip-path="url(#clipPath_DNrQMlyW)"/>
	<path d=" M2201.39 1902.22 L2226.76 1902.10 L2252.13 1902.10 L2277.37 1902.10 L2302.74 1901.97 L2327.99 1901.97 L2353.35 1901.97 L2378.60 1901.85 L2403.97 1901.73 L2429.21 1901.60 L2454.58 1901.48 L2479.83 1901.35 L2505.20 1901.23 L2530.44 1900.98 L2555.81 1900.86 L2581.05 1900.61 L2606.42 1900.24 L2631.67 1899.99 L2657.04 1899.62 L2682.28 1899.25 L2707.65 1898.76 L2732.89 1898.26 L2758.26 1897.77 L2783.51 1897.15 L2808.88 1896.53 L2834.12 1895.79 L2859.49 1895.04 L2884.74 1894.30 L2910.11 1893.31 L2935.35 1892.44 L2960.72 1891.33 L2986.09 1890.22 L3011.33 1889.10 L3036.70 1887.74 L3061.95 1886.26 L3087.32 1884.77 L3112.56 1883.04 L3137.93 1881.06 L3163.17 1878.95 L3188.54 1876.73 L3213.79 1874.13 L3239.16 1871.16 L3264.40 1867.94 L3289.77 1864.35 L3315.01 1860.39 L3340.38 1855.81 L3365.63 1850.86 L3391.00 1845.29 L3416.24 1838.98 L3441.61 1831.93 L3466.86 1824.13 L3492.22 1815.35 L3517.47 1805.57 L3542.84 1794.55 L3568.08 1782.18 L3593.45 1768.44 L3618.70 1752.97 L3644.07 1735.65 L3669.31 1716.34 L3694.68 1694.69 L3719.93 1670.55 L3745.29 1643.45 L3770.66 1613.13" stroke-linejoin="round" style="fill:none;stroke:#FF0000;stroke-width:7.34"/>
	<path d=" M2201.39 1902.10 L2226.76 1902.10 L2252.13 1902.10 L2277.37 1901.97 L2302.74 1901.97 L2327.99 1901.85 L2353.35 1901.85 L2378.60 1901.73 L2403.97 1901.60 L2429.21 1901.48 L2454.58 1901.23 L2479.83 1901.11 L2505.20 1900.86 L2530.44 1900.61 L2555.81 1900.36 L2581.05 1900.12 L2606.42 1899.75 L2631.67 1899.25 L2657.04 1898.88 L2682.28 1898.26 L2707.65 1897.77 L2732.89 1897.15 L2758.26 1896.40 L2783.51 1895.66 L2808.88 1894.80 L2834.12 1893.93 L2859.49 1892.94 L2884.74 1891.83 L2910.11 1890.71 L2935.35 1889.47 L2960.72 1888.11 L2986.09 1886.63 L3011.33 1885.14 L3036.70 1883.41 L3061.95 1881.55 L3087.32 1879.45 L3112.56 1877.22 L3137.93 1874.75 L3163.17 1872.15 L3188.54 1869.05 L3213.79 1865.71 L3239.16 1862.00 L3264.40 1857.79 L3289.77 1853.09 L3315.01 1847.89 L3340.38 1842.08 L3365.63 1835.64 L3391.00 1828.34 L3416.24 1820.17 L3441.61 1811.14 L3466.86 1800.99 L3492.22 1789.60 L3517.47 1776.86 L3542.84 1762.63 L3568.08 1746.66 L3593.45 1728.72 L3618.70 1708.79 L3644.07 1686.39 L3669.31 1661.27 L3694.68 1633.30 L3719.93 1601.87 L3745.29 1566.85 L3770.66 1527.49" stroke-linejoin="round" style="fill:none;stroke:#008000;stroke-width:7.34"/>
	<path d=" M2201.39 1902.10 L2226.76 1902.10 L2252.13 1901.97 L2277.37 1901.97 L2302.74 1901.85 L2327.99 1901.85 L2353.35 1901.73 L2378.60 1901.60 L2403.97 1901.48 L2429.21 1901.35 L2454.58 1901.23 L2479.83 1900.98 L2505.20 1900.74 L2530.44 1900.49 L2555.81 1900.24 L2581.05 1899.87 L2606.42 1899.50 L2631.67 1899.00 L2657.04 1898.51 L2682.28 1897.89 L2707.65 1897.27 L2732.89 1896.53 L2758.26 1895.79 L2783.51 1894.92 L2808.88 1894.05 L2834.12 1893.06 L2859.49 1891.95 L2884.74 1890.84 L2910.11 1889.60 L2935.35 1888.24 L2960.72 1886.75 L2986.09 1885.14 L3011.33 1883.41 L3036.70 1881.55 L3061.95 1879.57 L3087.32 1877.22 L3112.56 1874.87 L3137.93 1872.15 L3163.17 1869.18 L3188.54 1865.84 L3213.79 1862.12 L3239.16 1858.04 L3264.40 1853.46 L3289.77 1848.39 L3315.01 1842.70 L3340.38 1836.26 L3365.63 1829.08 L3391.00 1821.16 L3416.24 1812.25 L3441.61 1802.23 L3466.86 1791.09 L3492.22 1778.59 L3517.47 1764.73 L3542.84 1749.01 L3568.08 1731.56 L3593.45 1711.89 L3618.70 1689.98 L3644.07 1665.48 L3669.31 1638.01 L3694.68 1607.19 L3719.93 1572.79 L3745.29 1534.30 L3770.66 1491.23" stroke-linejoin="round" style="fill:none;stroke:#FFD200;stroke-width:7.34"/>
	<path d=" M2201.39 1901.97 L2226.76 1901.97 L2252.13 1901.85 L2277.37 1901.85 L2302.74 1901.73 L2327.99 1901.60 L2353.35 1901.48 L2378.60 1901.35 L2403.97 1901.11 L2429.21 1900.98 L2454.58 1900.74 L2479.83 1900.36 L2505.20 1900.12 L2530.44 1899.62 L2555.81 1899.25 L2581.05 1898.76 L2606.42 1898.14 L2631.67 1897.52 L2657.04 1896.78 L2682.28 1896.03 L2707.65 1895.04 L2732.89 1894.05 L2758.26 1892.94 L2783.51 1891.70 L2808.88 1890.46 L2834.12 1888.98 L2859.49 1887.49 L2884.74 1885.76 L2910.11 1884.03 L2935.35 1882.05 L2960.72 1879.94 L2986.09 1877.59 L3011.33 1875.12 L3036.70 1872.52 L3061.95 1869.55 L3087.32 1866.33 L3112.56 1862.74 L3137.93 1858.91 L3163.17 1854.58 L3188.54 1849.87 L3213.79 1844.55 L3239.16 1838.73 L3264.40 1832.05 L3289.77 1824.75 L3315.01 1816.58 L3340.38 1807.30 L3365.63 1797.15 L3391.00 1785.64 L3416.24 1772.90 L3441.61 1758.54 L3466.86 1742.45 L3492.22 1724.51 L3517.47 1704.46 L3542.84 1681.94 L3568.08 1656.82 L3593.45 1628.60 L3618.70 1597.17 L3644.07 1561.90 L3669.31 1522.30 L3694.68 1478.12 L3719.93 1428.74 L3745.29 1373.42 L3770.66 1311.54" stroke-linejoin="round" style="fill:none;stroke:#FF7F00;stroke-width:7.34"/>
	<path d=" M2201.39 1901.97 L2226.76 1901.97 L2252.13 1901.85 L2277.37 1901.85 L2302.74 1901.73 L2327.99 1901.60 L2353.35 1901.48 L2378.60 1901.35 L2403.97 1901.11 L2429.21 1900.98 L2454.58 1900.74 L2479.83 1900.36 L2505.20 1900.12 L2530.44 1899.75 L2555.81 1899.25 L2581.05 1898.76 L2606.42 1898.14 L2631.67 1897.52 L2657.04 1896.78 L2682.28 1896.03 L2707.65 1895.17 L2732.89 1894.05 L2758.26 1893.06 L2783.51 1891.83 L2808.88 1890.46 L2834.12 1889.10 L2859.49 1887.49 L2884.74 1885.89 L2910.11 1884.15 L2935.35 1882.17 L2960.72 1880.07 L2986.09 1877.72 L3011.33 1875.24 L3036.70 1872.64 L3061.95 1869.67 L3087.32 1866.46 L3112.56 1862.99 L3137.93 1859.15 L3163.17 1854.82 L3188.54 1850.12 L3213.79 1844.80 L3239.16 1838.98 L3264.40 1832.42 L3289.77 1825.12 L3315.01 1816.95 L3340.38 1807.80 L3365.63 1797.65 L3391.00 1786.26 L3416.24 1773.52 L3441.61 1759.16 L3466.86 1743.20 L3492.22 1725.38 L3517.47 1705.45 L3542.84 1683.05 L3568.08 1658.05 L3593.45 1629.96 L3618.70 1598.53 L3644.07 1563.51 L3669.31 1524.15 L3694.68 1480.22 L3719.93 1430.97 L3745.29 1375.90 L3770.66 1314.39" stroke-linejoin="round" style="fill:none;stroke:#9C8847;stroke-width:7.34"/>
	<path d=" M2201.39 1902.22 L2226.76 1902.10 L2252.13 1902.10 L2277.37 1902.10 L2302.74 1901.97 L2327.99 1901.97 L2353.35 1901.85 L2378.60 1901.73 L2403.97 1901.73 L2429.21 1901.60 L2454.58 1901.48 L2479.83 1901.23 L2505.20 1901.11 L2530.44 1900.86 L2555.81 1900.61 L2581.05 1900.36 L2606.42 1900.12 L2631.67 1899.75 L2657.04 1899.37 L2682.28 1898.88 L2707.65 1898.38 L2732.89 1897.89 L2758.26 1897.27 L2783.51 1896.65 L2808.88 1895.91 L2834.12 1895.17 L2859.49 1894.30 L2884.74 1893.43 L2910.11 1892.44 L2935.35 1891.33 L2960.72 1890.22 L2986.09 1888.98 L3011.33 1887.62 L3036.70 1886.13 L3061.95 1884.65 L3087.32 1882.92 L3112.56 1880.94 L3137.93 1878.83 L3163.17 1876.48 L3188.54 1874.00 L3213.79 1871.03 L3239.16 1867.94 L3264.40 1864.35 L3289.77 1860.39 L3315.01 1855.94 L3340.38 1850.99 L3365.63 1845.42 L3391.00 1839.23 L3416.24 1832.30 L3441.61 1824.50 L3466.86 1815.84 L3492.22 1806.19 L3517.47 1795.30 L3542.84 1783.17 L3568.08 1769.56 L3593.45 1754.21 L3618.70 1737.26 L3644.07 1718.07 L3669.31 1696.67 L3694.68 1672.78 L3719.93 1646.05 L3745.29 1616.10 L3770.66 1582.56" stroke-linejoin="round" style="fill:none;stroke:#1A476F;stroke-width:7.34"/>
	<line x1="2201.39" y1="1839.23" x2="2204.24" y2="1839.23" style="stroke:#000000;stroke-width:7.34"/>
	<line x1="2224.41" y1="1839.23" x2="2226.76" y2="1839.23" style="stroke:#000000;stroke-width:7.34"/>
	<line x1="2226.76" y1="1839.23" x2="2227.25" y2="1839.23" style="stroke:#000000;stroke-width:7.34"/>
	<line x1="2247.42" y1="1839.23" x2="2250.27" y2="1839.23" style="stroke:#000000;stroke-width:7.34"/>
	<line x1="2270.44" y1="1839.23" x2="2273.29" y2="1839.23" style="stroke:#000000;stroke-width:7.34"/>
	<line x1="2293.46" y1="1839.23" x2="2296.43" y2="1839.23" style="stroke:#000000;stroke-width:7.34"/>
	<line x1="2316.60" y1="1839.23" x2="2319.45" y2="1839.23" style="stroke:#000000;stroke-width:7.34"/>
	<line x1="2339.62" y1="1839.23" x2="2342.46" y2="1839.23" style="stroke:#000000;stroke-width:7.34"/>
	<line x1="2362.64" y1="1839.23" x2="2365.48" y2="1839.23" style="stroke:#000000;stroke-width:7.34"/>
	<line x1="2385.65" y1="1839.23" x2="2388.50" y2="1839.23" style="stroke:#000000;stroke-width:7.34"/>
	<line x1="2408.67" y1="1839.23" x2="2411.52" y2="1839.23" style="stroke:#000000;stroke-width:7.34"/>
	<line x1="2431.69" y1="1839.23" x2="2434.53" y2="1839.23" style="stroke:#000000;stroke-width:7.34"/>
	<line x1="2454.70" y1="1839.23" x2="2457.55" y2="1839.23" style="stroke:#000000;stroke-width:7.34"/>
	<line x1="2477.72" y1="1839.23" x2="2479.83" y2="1839.23" style="stroke:#000000;stroke-width:7.34"/>
	<line x1="2479.83" y1="1839.23" x2="2480.57" y2="1839.23" style="stroke:#000000;stroke-width:7.34"/>
	<line x1="2500.74" y1="1839.23" x2="2503.59" y2="1839.23" style="stroke:#000000;stroke-width:7.34"/>
	<line x1="2523.76" y1="1839.23" x2="2526.60" y2="1839.23" style="stroke:#000000;stroke-width:7.34"/>
	<line x1="2546.78" y1="1839.23" x2="2549.74" y2="1839.23" style="stroke:#000000;stroke-width:7.34"/>
	<line x1="2569.92" y1="1839.23" x2="2572.76" y2="1839.23" style="stroke:#000000;stroke-width:7.34"/>
	<line x1="2592.93" y1="1839.23" x2="2595.78" y2="1839.23" style="stroke:#000000;stroke-width:7.34"/>
	<line x1="2615.95" y1="1839.23" x2="2618.80" y2="1839.23" style="stroke:#000000;stroke-width:7.34"/>
	<line x1="2638.97" y1="1839.23" x2="2641.82" y2="1839.23" style="stroke:#000000;stroke-width:7.34"/>
	<line x1="2661.99" y1="1839.23" x2="2664.83" y2="1839.23" style="stroke:#000000;stroke-width:7.34"/>
	<line x1="2685.00" y1="1839.23" x2="2687.85" y2="1839.23" style="stroke:#000000;stroke-width:7.34"/>
	<line x1="2708.02" y1="1839.23" x2="2710.87" y2="1839.23" style="stroke:#000000;stroke-width:7.34"/>
	<line x1="2731.04" y1="1839.23" x2="2732.89" y2="1839.23" style="stroke:#000000;stroke-width:7.34"/>
	<line x1="2732.89" y1="1839.23" x2="2733.89" y2="1839.23" style="stroke:#000000;stroke-width:7.34"/>
	<line x1="2754.06" y1="1839.23" x2="2756.90" y2="1839.23" style="stroke:#000000;stroke-width:7.34"/>
	<line x1="2777.07" y1="1839.23" x2="2779.92" y2="1839.23" style="stroke:#000000;stroke-width:7.34"/>
	<line x1="2800.09" y1="1839.23" x2="2803.06" y2="1839.23" style="stroke:#000000;stroke-width:7.34"/>
	<line x1="2823.23" y1="1839.23" x2="2826.08" y2="1839.23" style="stroke:#000000;stroke-width:7.34"/>
	<line x1="2846.25" y1="1839.23" x2="2849.10" y2="1839.23" style="stroke:#000000;stroke-width:7.34"/>
	<line x1="2869.27" y1="1839.23" x2="2872.11" y2="1839.23" style="stroke:#000000;stroke-width:7.34"/>
	<line x1="2892.28" y1="1839.23" x2="2895.13" y2="1839.23" style="stroke:#000000;stroke-width:7.34"/>
	<line x1="2915.30" y1="1839.23" x2="2918.15" y2="1839.23" style="stroke:#000000;stroke-width:7.34"/>
	<line x1="2938.32" y1="1839.23" x2="2941.17" y2="1839.23" style="stroke:#000000;stroke-width:7.34"/>
	<line x1="2961.34" y1="1839.23" x2="2964.18" y2="1839.23" style="stroke:#000000;stroke-width:7.34"/>
	<line x1="2984.36" y1="1839.23" x2="2986.09" y2="1839.23" style="stroke:#000000;stroke-width:7.34"/>
	<line x1="2986.09" y1="1839.23" x2="2987.20" y2="1839.23" style="stroke:#000000;stroke-width:7.34"/>
	<line x1="3007.37" y1="1839.23" x2="3010.22" y2="1839.23" style="stroke:#000000;stroke-width:7.34"/>
	<line x1="3030.39" y1="1839.23" x2="3033.36" y2="1839.23" style="stroke:#000000;stroke-width:7.34"/>
	<line x1="3053.41" y1="1839.23" x2="3056.38" y2="1839.23" style="stroke:#000000;stroke-width:7.34"/>
	<line x1="3076.55" y1="1839.23" x2="3079.39" y2="1839.23" style="stroke:#000000;stroke-width:7.34"/>
	<line x1="3099.57" y1="1839.23" x2="3102.41" y2="1839.23" style="stroke:#000000;stroke-width:7.34"/>
	<line x1="3122.58" y1="1839.23" x2="3125.43" y2="1839.23" style="stroke:#000000;stroke-width:7.34"/>
	<line x1="3145.60" y1="1839.23" x2="3148.45" y2="1839.23" style="stroke:#000000;stroke-width:7.34"/>
	<line x1="3168.62" y1="1839.23" x2="3171.47" y2="1839.23" style="stroke:#000000;stroke-width:7.34"/>
	<line x1="3191.64" y1="1839.23" x2="3194.48" y2="1839.23" style="stroke:#000000;stroke-width:7.34"/>
	<line x1="3214.65" y1="1839.23" x2="3217.50" y2="1839.23" style="stroke:#000000;stroke-width:7.34"/>
	<line x1="3237.67" y1="1839.23" x2="3239.16" y2="1839.23" style="stroke:#000000;stroke-width:7.34"/>
	<line x1="3239.16" y1="1839.23" x2="3240.52" y2="1839.23" style="stroke:#000000;stroke-width:7.34"/>
	<line x1="3260.69" y1="1839.23" x2="3263.53" y2="1839.23" style="stroke:#000000;stroke-width:7.34"/>
	<line x1="3283.71" y1="1839.23" x2="3286.68" y2="1839.23" style="stroke:#000000;stroke-width:7.34"/>
	<line x1="3306.72" y1="1839.23" x2="3309.69" y2="1839.23" style="stroke:#000000;stroke-width:7.34"/>
	<line x1="3329.86" y1="1839.23" x2="3332.71" y2="1839.23" style="stroke:#000000;stroke-width:7.34"/>
	<line x1="3352.88" y1="1839.23" x2="3355.73" y2="1839.23" style="stroke:#000000;stroke-width:7.34"/>
	<line x1="3375.90" y1="1839.23" x2="3378.75" y2="1839.23" style="stroke:#000000;stroke-width:7.34"/>
	<line x1="3398.92" y1="1839.23" x2="3401.76" y2="1839.23" style="stroke:#000000;stroke-width:7.34"/>
	<line x1="3421.93" y1="1839.23" x2="3424.78" y2="1839.23" style="stroke:#000000;stroke-width:7.34"/>
	<line x1="3444.95" y1="1839.23" x2="3447.80" y2="1839.23" style="stroke:#000000;stroke-width:7.34"/>
	<line x1="3467.97" y1="1839.23" x2="3470.82" y2="1839.23" style="stroke:#000000;stroke-width:7.34"/>
	<line x1="3490.99" y1="1839.23" x2="3492.22" y2="1839.23" style="stroke:#000000;stroke-width:7.34"/>
	<line x1="3492.22" y1="1839.23" x2="3493.83" y2="1839.23" style="stroke:#000000;stroke-width:7.34"/>
	<line x1="3514.01" y1="1839.23" x2="3516.85" y2="1839.23" style="stroke:#000000;stroke-width:7.34"/>
	<line x1="3537.02" y1="1839.23" x2="3539.99" y2="1839.23" style="stroke:#000000;stroke-width:7.34"/>
	<line x1="3560.04" y1="1839.23" x2="3563.01" y2="1839.23" style="stroke:#000000;stroke-width:7.34"/>
	<line x1="3583.18" y1="1839.23" x2="3586.03" y2="1839.23" style="stroke:#000000;stroke-width:7.34"/>
	<line x1="3606.20" y1="1839.23" x2="3609.05" y2="1839.23" style="stroke:#000000;stroke-width:7.34"/>
	<line x1="3629.22" y1="1839.23" x2="3632.06" y2="1839.23" style="stroke:#000000;stroke-width:7.34"/>
	<line x1="3652.23" y1="1839.23" x2="3655.08" y2="1839.23" style="stroke:#000000;stroke-width:7.34"/>
	<line x1="3675.25" y1="1839.23" x2="3678.10" y2="1839.23" style="stroke:#000000;stroke-width:7.34"/>
	<line x1="3698.27" y1="1839.23" x2="3701.11" y2="1839.23" style="stroke:#000000;stroke-width:7.34"/>
	<line x1="3721.29" y1="1839.23" x2="3724.13" y2="1839.23" style="stroke:#000000;stroke-width:7.34"/>
	<line x1="3744.30" y1="1839.23" x2="3745.29" y2="1839.23" style="stroke:#000000;stroke-width:7.34"/>
	<line x1="3745.29" y1="1839.23" x2="3747.15" y2="1839.23" style="stroke:#000000;stroke-width:7.34"/>
	<line x1="3767.32" y1="1839.23" x2="3770.17" y2="1839.23" style="stroke:#000000;stroke-width:7.34"/>
	<path d="" stroke-linejoin="round" style="fill:none;stroke:#000000;stroke-width:7.34"/>
	<line x1="401.69" y1="1956.18" x2="401.69" y2="258.27" style="stroke:#000000;stroke-width:4.90"/>
	<line x1="401.69" y1="1902.22" x2="367.66" y2="1902.22" style="stroke:#000000;stroke-width:4.90"/>
	<text x="350.71" y="1932.01" style="font-family:'Helvetica';font-size:85.02px;fill:#000000" text-anchor="end">0</text>
	<line x1="401.69" y1="1675.13" x2="367.66" y2="1675.13" style="stroke:#000000;stroke-width:4.90"/>
	<text x="350.71" y="1704.92" style="font-family:'Helvetica';font-size:85.02px;fill:#000000" text-anchor="end">.001</text>
	<line x1="401.69" y1="1447.92" x2="367.66" y2="1447.92" style="stroke:#000000;stroke-width:4.90"/>
	<text x="350.71" y="1477.71" style="font-family:'Helvetica';font-size:85.02px;fill:#000000" text-anchor="end">.002</text>
	<line x1="401.69" y1="1220.71" x2="367.66" y2="1220.71" style="stroke:#000000;stroke-width:4.90"/>
	<text x="350.71" y="1250.50" style="font-family:'Helvetica';font-size:85.02px;fill:#000000" text-anchor="end">.003</text>
	<line x1="401.69" y1="993.62" x2="367.66" y2="993.62" style="stroke:#000000;stroke-width:4.90"/>
	<text x="350.71" y="1023.41" style="font-family:'Helvetica';font-size:85.02px;fill:#000000" text-anchor="end">.004</text>
	<line x1="401.69" y1="766.41" x2="367.66" y2="766.41" style="stroke:#000000;stroke-width:4.90"/>
	<text x="350.71" y="796.20" style="font-family:'Helvetica';font-size:85.02px;fill:#000000" text-anchor="end">.005</text>
	<line x1="401.69" y1="539.32" x2="367.66" y2="539.32" style="stroke:#000000;stroke-width:4.90"/>
	<text x="350.71" y="569.11" style="font-family:'Helvetica';font-size:85.02px;fill:#000000" text-anchor="end">.006</text>
	<line x1="401.69" y1="312.11" x2="367.66" y2="312.11" style="stroke:#000000;stroke-width:4.90"/>
	<text x="350.71" y="341.89" style="font-family:'Helvetica';font-size:85.02px;fill:#000000" text-anchor="end">.007</text>
	<line x1="401.69" y1="1956.18" x2="2078.51" y2="1956.18" style="stroke:#000000;stroke-width:4.90"/>
	<line x1="506.14" y1="1956.18" x2="506.14" y2="1973.13" style="stroke:#000000;stroke-width:4.90"/>
	<line x1="632.73" y1="1956.18" x2="632.73" y2="1973.13" style="stroke:#000000;stroke-width:4.90"/>
	<line x1="759.21" y1="1956.18" x2="759.21" y2="1973.13" style="stroke:#000000;stroke-width:4.90"/>
	<line x1="885.80" y1="1956.18" x2="885.80" y2="1973.13" style="stroke:#000000;stroke-width:4.90"/>
	<line x1="1012.27" y1="1956.18" x2="1012.27" y2="1973.13" style="stroke:#000000;stroke-width:4.90"/>
	<line x1="1138.87" y1="1956.18" x2="1138.87" y2="1973.13" style="stroke:#000000;stroke-width:4.90"/>
	<line x1="1265.47" y1="1956.18" x2="1265.47" y2="1973.13" style="stroke:#000000;stroke-width:4.90"/>
	<line x1="1391.94" y1="1956.18" x2="1391.94" y2="1973.13" style="stroke:#000000;stroke-width:4.90"/>
	<line x1="1518.54" y1="1956.18" x2="1518.54" y2="1973.13" style="stroke:#000000;stroke-width:4.90"/>
	<line x1="1645.01" y1="1956.18" x2="1645.01" y2="1973.13" style="stroke:#000000;stroke-width:4.90"/>
	<line x1="1771.61" y1="1956.18" x2="1771.61" y2="1973.13" style="stroke:#000000;stroke-width:4.90"/>
	<line x1="1898.20" y1="1956.18" x2="1898.20" y2="1973.13" style="stroke:#000000;stroke-width:4.90"/>
	<line x1="2024.67" y1="1956.18" x2="2024.67" y2="1973.13" style="stroke:#000000;stroke-width:4.90"/>
	<line x1="506.14" y1="1956.18" x2="506.14" y2="1990.09" style="stroke:#000000;stroke-width:4.90"/>
	<text x="506.14" y="2066.62" style="font-family:'Helvetica';font-size:85.02px;fill:#000000" text-anchor="middle">20</text>
	<line x1="1012.27" y1="1956.18" x2="1012.27" y2="1990.09" style="stroke:#000000;stroke-width:4.90"/>
	<text x="1012.27" y="2066.62" style="font-family:'Helvetica';font-size:85.02px;fill:#000000" text-anchor="middle">40</text>
	<line x1="1518.54" y1="1956.18" x2="1518.54" y2="1990.09" style="stroke:#000000;stroke-width:4.90"/>
	<text x="1518.54" y="2066.62" style="font-family:'Helvetica';font-size:85.02px;fill:#000000" text-anchor="middle">60</text>
	<line x1="2024.67" y1="1956.18" x2="2024.67" y2="1990.09" style="stroke:#000000;stroke-width:4.90"/>
	<text x="2024.67" y="2066.62" style="font-family:'Helvetica';font-size:85.02px;fill:#000000" text-anchor="middle">80</text>
	<line x1="2147.68" y1="1956.18" x2="3824.49" y2="1956.18" style="stroke:#000000;stroke-width:4.90"/>
	<line x1="2252.13" y1="1956.18" x2="2252.13" y2="1973.13" style="stroke:#000000;stroke-width:4.90"/>
	<line x1="2378.72" y1="1956.18" x2="2378.72" y2="1973.13" style="stroke:#000000;stroke-width:4.90"/>
	<line x1="2505.20" y1="1956.18" x2="2505.20" y2="1973.13" style="stroke:#000000;stroke-width:4.90"/>
	<line x1="2631.79" y1="1956.18" x2="2631.79" y2="1973.13" style="stroke:#000000;stroke-width:4.90"/>
	<line x1="2758.26" y1="1956.18" x2="2758.26" y2="1973.13" style="stroke:#000000;stroke-width:4.90"/>
	<line x1="2884.86" y1="1956.18" x2="2884.86" y2="1973.13" style="stroke:#000000;stroke-width:4.90"/>
	<line x1="3011.46" y1="1956.18" x2="3011.46" y2="1973.13" style="stroke:#000000;stroke-width:4.90"/>
	<line x1="3137.93" y1="1956.18" x2="3137.93" y2="1973.13" style="stroke:#000000;stroke-width:4.90"/>
	<line x1="3264.53" y1="1956.18" x2="3264.53" y2="1973.13" style="stroke:#000000;stroke-width:4.90"/>
	<line x1="3391.00" y1="1956.18" x2="3391.00" y2="1973.13" style="stroke:#000000;stroke-width:4.90"/>
	<line x1="3517.59" y1="1956.18" x2="3517.59" y2="1973.13" style="stroke:#000000;stroke-width:4.90"/>
	<line x1="3644.07" y1="1956.18" x2="3644.07" y2="1973.13" style="stroke:#000000;stroke-width:4.90"/>
	<line x1="3770.66" y1="1956.18" x2="3770.66" y2="1973.13" style="stroke:#000000;stroke-width:4.90"/>
	<line x1="2252.13" y1="1956.18" x2="2252.13" y2="1990.09" style="stroke:#000000;stroke-width:4.90"/>
	<text x="2252.13" y="2066.62" style="font-family:'Helvetica';font-size:85.02px;fill:#000000" text-anchor="middle">20</text>
	<line x1="2758.26" y1="1956.18" x2="2758.26" y2="1990.09" style="stroke:#000000;stroke-width:4.90"/>
	<text x="2758.26" y="2066.62" style="font-family:'Helvetica';font-size:85.02px;fill:#000000" text-anchor="middle">40</text>
	<line x1="3264.53" y1="1956.18" x2="3264.53" y2="1990.09" style="stroke:#000000;stroke-width:4.90"/>
	<text x="3264.53" y="2066.62" style="font-family:'Helvetica';font-size:85.02px;fill:#000000" text-anchor="middle">60</text>
	<line x1="3770.66" y1="1956.18" x2="3770.66" y2="1990.09" style="stroke:#000000;stroke-width:4.90"/>
	<text x="3770.66" y="2066.62" style="font-family:'Helvetica';font-size:85.02px;fill:#000000" text-anchor="middle">80</text>
	<rect x="401.69" y="135.39" width="1676.81" height="122.89" style="fill:#D9E6EB"/>
	<rect x="404.14" y="137.83" width="1671.92" height="117.99" style="fill:none;stroke:#D9E6EB;stroke-width:4.90"/>
	<text x="1240.10" y="215.42" style="font-family:'Helvetica';font-size:93.56px;fill:#000000" text-anchor="middle">Female</text>
	<rect x="2147.68" y="135.39" width="1676.81" height="122.89" style="fill:#D9E6EB"/>
	<rect x="2150.13" y="137.83" width="1671.92" height="117.99" style="fill:none;stroke:#D9E6EB;stroke-width:4.90"/>
	<text x="2986.09" y="215.42" style="font-family:'Helvetica';font-size:93.56px;fill:#000000" text-anchor="middle">Male</text>
	<rect x="421.74" y="2278.31" width="3116.40" height="466.30" style="fill:#FFFFFF"/>
	<rect x="424.62" y="2281.19" width="3110.64" height="460.54" style="fill:none;stroke:#000000;stroke-width:5.76"/>
	<line x1="464.93" y1="2371.50" x2="839.40" y2="2371.50" style="stroke:#FF0000;stroke-width:8.64"/>
	<line x1="2033.95" y1="2371.50" x2="2408.30" y2="2371.50" style="stroke:#008000;stroke-width:8.64"/>
	<line x1="464.93" y1="2511.46" x2="839.40" y2="2511.46" style="stroke:#FFD200;stroke-width:8.64"/>
	<line x1="2033.95" y1="2511.46" x2="2408.30" y2="2511.46" style="stroke:#FF7F00;stroke-width:8.64"/>
	<line x1="464.93" y1="2651.43" x2="839.40" y2="2651.43" style="stroke:#9C8847;stroke-width:8.64"/>
	<line x1="2033.95" y1="2651.43" x2="2408.30" y2="2651.43" style="stroke:#1A476F;stroke-width:8.64"/>
	<text x="899.41" y="2406.52" style="font-family:'Helvetica';font-size:99.99px;fill:#000000">High BP/hypertension</text>
	<text x="2468.32" y="2406.52" style="font-family:'Helvetica';font-size:99.99px;fill:#000000">Cardiac disease</text>
	<text x="899.41" y="2546.49" style="font-family:'Helvetica';font-size:99.99px;fill:#000000">Diabetes, controlled</text>
	<text x="2468.32" y="2546.49" style="font-family:'Helvetica';font-size:99.99px;fill:#000000">Diabetes, uncontrolled</text>
	<text x="899.41" y="2686.46" style="font-family:'Helvetica';font-size:99.99px;fill:#000000">Diabetes, unknown</text>
	<text x="2468.32" y="2686.46" style="font-family:'Helvetica';font-size:99.99px;fill:#000000">No comborbidity</text>
	<text x="1980.00" y="2213.60" style="font-family:'Helvetica';font-size:99.99px;fill:#000000" text-anchor="middle">Age (years)</text>
</svg>
