<?xml version="1.0" encoding="UTF-8" standalone="no"?>
<!-- This is a Stata 16.1 generated SVG file (http://www.stata.com) -->

<svg version="1.1" width="1600px" height="1164px" viewBox="0 0 3960 2880" xmlns="http://www.w3.org/2000/svg" xmlns:xlink="http://www.w3.org/1999/xlink">
	<desc>Stata Graph - Graph</desc>
	<rect x="0" y="0" width="3960" height="2880" style="fill:#EAF2F3;stroke:none"/>
	<rect x="0.00" y="0.00" width="3959.88" height="2880.00" style="fill:#EAF2F3"/>
	<rect x="2.88" y="2.88" width="3954.12" height="2874.24" style="fill:none;stroke:#EAF2F3;stroke-width:5.76"/>
	<rect x="401.69" y="258.27" width="1676.81" height="1837.87" style="fill:#FFFFFF"/>
	<rect x="404.14" y="260.72" width="1671.92" height="1832.97" style="fill:none;stroke:#FFFFFF;stroke-width:4.90"/>
	<line x1="401.69" y1="2042.31" x2="2078.51" y2="2042.31" style="stroke:#EAF2F3;stroke-width:7.34"/>
	<line x1="401.69" y1="1886.26" x2="2078.51" y2="1886.26" style="stroke:#EAF2F3;stroke-width:7.34"/>
	<line x1="401.69" y1="1730.33" x2="2078.51" y2="1730.33" style="stroke:#EAF2F3;stroke-width:7.34"/>
	<line x1="401.69" y1="1574.27" x2="2078.51" y2="1574.27" style="stroke:#EAF2F3;stroke-width:7.34"/>
	<line x1="401.69" y1="1418.34" x2="2078.51" y2="1418.34" style="stroke:#EAF2F3;stroke-width:7.34"/>
	<line x1="401.69" y1="1262.29" x2="2078.51" y2="1262.29" style="stroke:#EAF2F3;stroke-width:7.34"/>
	<line x1="401.69" y1="1106.24" x2="2078.51" y2="1106.24" style="stroke:#EAF2F3;stroke-width:7.34"/>
	<line x1="401.69" y1="950.31" x2="2078.51" y2="950.31" style="stroke:#EAF2F3;stroke-width:7.34"/>
	<line x1="401.69" y1="794.25" x2="2078.51" y2="794.25" style="stroke:#EAF2F3;stroke-width:7.34"/>
	<line x1="401.69" y1="638.32" x2="2078.51" y2="638.32" style="stroke:#EAF2F3;stroke-width:7.34"/>
	<rect x="2147.68" y="258.27" width="1676.81" height="1837.87" style="fill:#FFFFFF"/>
	<rect x="2150.13" y="260.72" width="1671.92" height="1832.97" style="fill:none;stroke:#FFFFFF;stroke-width:4.90"/>
	<line x1="2147.68" y1="2042.31" x2="3824.49" y2="2042.31" style="stroke:#EAF2F3;stroke-width:7.34"/>
	<line x1="2147.68" y1="1886.26" x2="3824.49" y2="1886.26" style="stroke:#EAF2F3;stroke-width:7.34"/>
	<line x1="2147.68" y1="1730.33" x2="3824.49" y2="1730.33" style="stroke:#EAF2F3;stroke-width:7.34"/>
	<line x1="2147.68" y1="1574.27" x2="3824.49" y2="1574.27" style="stroke:#EAF2F3;stroke-width:7.34"/>
	<line x1="2147.68" y1="1418.34" x2="3824.49" y2="1418.34" style="stroke:#EAF2F3;stroke-width:7.34"/>
	<line x1="2147.68" y1="1262.29" x2="3824.49" y2="1262.29" style="stroke:#EAF2F3;stroke-width:7.34"/>
	<line x1="2147.68" y1="1106.24" x2="3824.49" y2="1106.24" style="stroke:#EAF2F3;stroke-width:7.34"/>
	<line x1="2147.68" y1="950.31" x2="3824.49" y2="950.31" style="stroke:#EAF2F3;stroke-width:7.34"/>
	<line x1="2147.68" y1="794.25" x2="3824.49" y2="794.25" style="stroke:#EAF2F3;stroke-width:7.34"/>
	<line x1="2147.68" y1="638.32" x2="3824.49" y2="638.32" style="stroke:#EAF2F3;stroke-width:7.34"/>
	<defs>
		<path id="path_KrcGpAop" d="M455.52 2034.51 L455.52 2034.51 L480.89 2033.77 L506.14 2032.90 L531.51 2032.04 L556.75 2030.92 L582.12 2029.81 L607.37 2028.70 L632.73 2027.34 L657.98 2025.97 L683.35 2024.49 L708.59 2022.88 L733.96 2021.15 L759.21 2019.29 L784.58 2017.44 L809.82 2015.46 L835.19 2013.48 L860.43 2011.37 L885.80 2009.27 L911.05 2007.16 L936.42 2005.06 L961.66 2002.96 L987.03 2000.98 L1012.27 1999.00 L1037.64 1997.14 L1062.89 1995.41 L1088.26 1993.80 L1113.50 1992.19 L1138.87 1990.70 L1164.24 1989.34 L1189.48 1988.11 L1214.85 1986.87 L1240.10 1985.63 L1265.47 1984.39 L1290.71 1983.16 L1316.08 1981.92 L1341.33 1980.68 L1366.69 1979.20 L1391.94 1977.71 L1417.31 1975.98 L1442.55 1974.12 L1467.92 1972.02 L1493.17 1969.67 L1518.54 1967.07 L1543.78 1964.10 L1569.15 1960.88 L1594.39 1957.29 L1619.76 1953.33 L1645.01 1949.00 L1670.38 1944.30 L1695.62 1939.22 L1720.99 1933.65 L1746.24 1927.59 L1771.61 1921.03 L1796.85 1913.85 L1822.22 1906.18 L1847.46 1897.89 L1872.83 1888.86 L1898.20 1879.20 L1923.45 1868.81 L1948.82 1857.67 L1974.06 1845.54 L1999.43 1832.67 L2024.67 1818.93 L2024.67 1788.86 L1999.43 1804.58 L1974.06 1819.31 L1948.82 1833.04 L1923.45 1845.79 L1898.20 1857.67 L1872.83 1868.56 L1847.46 1878.71 L1822.22 1888.11 L1796.85 1896.90 L1771.61 1904.94 L1746.24 1912.37 L1720.99 1919.17 L1695.62 1925.49 L1670.38 1931.30 L1645.01 1936.62 L1619.76 1941.45 L1594.39 1945.91 L1569.15 1949.99 L1543.78 1953.70 L1518.54 1957.04 L1493.17 1960.14 L1467.92 1962.86 L1442.55 1965.21 L1417.31 1967.44 L1391.94 1969.30 L1366.69 1971.03 L1341.33 1972.51 L1316.08 1974.00 L1290.71 1975.36 L1265.47 1976.72 L1240.10 1977.96 L1214.85 1979.32 L1189.48 1980.56 L1164.24 1982.04 L1138.87 1983.53 L1113.50 1985.14 L1088.26 1986.74 L1062.89 1988.60 L1037.64 1990.58 L1012.27 1992.68 L987.03 1994.91 L961.66 1997.26 L936.42 1999.61 L911.05 2002.09 L885.80 2004.44 L860.43 2006.79 L835.19 2009.14 L809.82 2011.37 L784.58 2013.48 L759.21 2015.58 L733.96 2017.44 L708.59 2019.29 L683.35 2021.02 L657.98 2022.51 L632.73 2024.12 L607.37 2025.48 L582.12 2026.72 L556.75 2027.95 L531.51 2029.07 L506.14 2030.06 L480.89 2030.92 L455.52 2031.79 L455.52 2034.51 Z" stroke-linejoin="round"/>
	</defs>
	<defs>
		<clipPath id="clipPath_SWAAEBlO">
			<use xlink:href="#path_KrcGpAop"/>
		</clipPath>
	</defs>
	<use xlink:href="#path_KrcGpAop" style="stroke:none;fill:#E6E6E6"/>
	<use xlink:href="#path_KrcGpAop" style="fill:none;stroke:#E0E0E0;stroke-width:14.69" clip-path="url(#clipPath_SWAAEBlO)"/>
	<defs>
		<path id="path_lljRKkON" d="M455.52 2029.81 L455.52 2029.81 L480.89 2028.70 L506.14 2027.34 L531.51 2025.97 L556.75 2024.37 L582.12 2022.76 L607.37 2020.90 L632.73 2018.92 L657.98 2016.82 L683.35 2014.59 L708.59 2012.11 L733.96 2009.52 L759.21 2006.79 L784.58 2003.95 L809.82 2000.98 L835.19 1998.01 L860.43 1994.79 L885.80 1991.57 L911.05 1988.35 L936.42 1985.14 L961.66 1981.92 L987.03 1978.82 L1012.27 1975.85 L1037.64 1973.01 L1062.89 1970.29 L1088.26 1967.81 L1113.50 1965.46 L1138.87 1963.36 L1164.24 1961.25 L1189.48 1959.27 L1214.85 1957.41 L1240.10 1955.56 L1265.47 1953.70 L1290.71 1951.97 L1316.08 1949.99 L1341.33 1948.01 L1366.69 1945.91 L1391.94 1943.55 L1417.31 1941.08 L1442.55 1938.11 L1467.92 1934.89 L1493.17 1931.30 L1518.54 1927.22 L1543.78 1922.76 L1569.15 1917.69 L1594.39 1912.24 L1619.76 1906.30 L1645.01 1899.62 L1670.38 1892.44 L1695.62 1884.65 L1720.99 1876.11 L1746.24 1866.95 L1771.61 1856.93 L1796.85 1846.04 L1822.22 1834.28 L1847.46 1821.53 L1872.83 1807.80 L1898.20 1793.07 L1923.45 1777.11 L1948.82 1759.90 L1974.06 1741.59 L1999.43 1721.79 L2024.67 1700.63 L2024.67 1533.31 L1999.43 1564.99 L1974.06 1594.44 L1948.82 1621.92 L1923.45 1647.41 L1898.20 1671.17 L1872.83 1693.20 L1847.46 1713.62 L1822.22 1732.55 L1796.85 1750.13 L1771.61 1766.22 L1746.24 1781.19 L1720.99 1794.93 L1695.62 1807.67 L1670.38 1819.31 L1645.01 1829.95 L1619.76 1839.72 L1594.39 1848.76 L1569.15 1856.93 L1543.78 1864.35 L1518.54 1871.03 L1493.17 1877.10 L1467.92 1882.54 L1442.55 1887.37 L1417.31 1891.70 L1391.94 1895.54 L1366.69 1898.88 L1341.33 1902.10 L1316.08 1904.94 L1290.71 1907.79 L1265.47 1910.39 L1240.10 1913.11 L1214.85 1915.71 L1189.48 1918.43 L1164.24 1921.40 L1138.87 1924.37 L1113.50 1927.59 L1088.26 1931.06 L1062.89 1934.77 L1037.64 1938.73 L1012.27 1942.94 L987.03 1947.39 L961.66 1952.09 L936.42 1956.92 L911.05 1961.75 L885.80 1966.57 L860.43 1971.28 L835.19 1975.98 L809.82 1980.43 L784.58 1984.76 L759.21 1988.97 L733.96 1992.93 L708.59 1996.64 L683.35 2000.11 L657.98 2003.45 L632.73 2006.42 L607.37 2009.27 L582.12 2011.87 L556.75 2014.34 L531.51 2016.57 L506.14 2018.55 L480.89 2020.53 L455.52 2022.26 L455.52 2029.81 Z" stroke-linejoin="round"/>
	</defs>
	<defs>
		<clipPath id="clipPath_zvMWLeeQ">
			<use xlink:href="#path_lljRKkON"/>
		</clipPath>
	</defs>
	<use xlink:href="#path_lljRKkON" style="stroke:none;fill:#E6E6E6"/>
	<use xlink:href="#path_lljRKkON" style="fill:none;stroke:#E0E0E0;stroke-width:14.69" clip-path="url(#clipPath_zvMWLeeQ)"/>
	<defs>
		<path id="path_cMGIuAUP" d="M455.52 2032.90 L455.52 2032.90 L480.89 2031.91 L506.14 2030.92 L531.51 2029.81 L556.75 2028.57 L582.12 2027.21 L607.37 2025.85 L632.73 2024.24 L657.98 2022.51 L683.35 2020.78 L708.59 2018.80 L733.96 2016.69 L759.21 2014.59 L784.58 2012.36 L809.82 2010.01 L835.19 2007.54 L860.43 2005.06 L885.80 2002.59 L911.05 1999.99 L936.42 1997.39 L961.66 1994.91 L987.03 1992.44 L1012.27 1990.09 L1037.64 1987.86 L1062.89 1985.75 L1088.26 1983.77 L1113.50 1982.04 L1138.87 1980.19 L1164.24 1978.58 L1189.48 1976.97 L1214.85 1975.48 L1240.10 1974.12 L1265.47 1972.64 L1290.71 1971.15 L1316.08 1969.67 L1341.33 1968.06 L1366.69 1966.45 L1391.94 1964.59 L1417.31 1962.49 L1442.55 1960.26 L1467.92 1957.79 L1493.17 1954.94 L1518.54 1951.72 L1543.78 1948.13 L1569.15 1944.17 L1594.39 1939.97 L1619.76 1935.14 L1645.01 1930.07 L1670.38 1924.37 L1695.62 1918.18 L1720.99 1911.50 L1746.24 1904.20 L1771.61 1896.28 L1796.85 1887.74 L1822.22 1878.46 L1847.46 1868.44 L1872.83 1857.67 L1898.20 1846.04 L1923.45 1833.41 L1948.82 1820.05 L1974.06 1805.57 L1999.43 1789.98 L2024.67 1773.39 L2024.67 1728.72 L1999.43 1748.27 L1974.06 1766.46 L1948.82 1783.42 L1923.45 1799.13 L1898.20 1813.74 L1872.83 1827.35 L1847.46 1839.97 L1822.22 1851.61 L1796.85 1862.37 L1771.61 1872.40 L1746.24 1881.55 L1720.99 1889.97 L1695.62 1897.77 L1670.38 1904.94 L1645.01 1911.50 L1619.76 1917.57 L1594.39 1923.14 L1569.15 1928.21 L1543.78 1932.79 L1518.54 1936.87 L1493.17 1940.58 L1467.92 1943.93 L1442.55 1946.90 L1417.31 1949.62 L1391.94 1951.97 L1366.69 1954.07 L1341.33 1955.93 L1316.08 1957.79 L1290.71 1959.39 L1265.47 1961.00 L1240.10 1962.61 L1214.85 1964.35 L1189.48 1965.95 L1164.24 1967.69 L1138.87 1969.54 L1113.50 1971.52 L1088.26 1973.63 L1062.89 1975.85 L1037.64 1978.33 L1012.27 1980.93 L987.03 1983.77 L961.66 1986.62 L936.42 1989.59 L911.05 1992.56 L885.80 1995.53 L860.43 1998.38 L835.19 2001.22 L809.82 2004.07 L784.58 2006.67 L759.21 2009.27 L733.96 2011.62 L708.59 2013.85 L683.35 2015.95 L657.98 2017.93 L632.73 2019.79 L607.37 2021.52 L582.12 2023.13 L556.75 2024.61 L531.51 2025.97 L506.14 2027.21 L480.89 2028.33 L455.52 2029.44 L455.52 2032.90 Z" stroke-linejoin="round"/>
	</defs>
	<defs>
		<clipPath id="clipPath_JOkoclCN">
			<use xlink:href="#path_cMGIuAUP"/>
		</clipPath>
	</defs>
	<use xlink:href="#path_cMGIuAUP" style="stroke:none;fill:#E6E6E6"/>
	<use xlink:href="#path_cMGIuAUP" style="fill:none;stroke:#E0E0E0;stroke-width:14.69" clip-path="url(#clipPath_JOkoclCN)"/>
	<defs>
		<path id="path_lZqlzAHi" d="M455.52 2016.32 L455.52 2016.32 L480.89 2013.85 L506.14 2011.12 L531.51 2008.28 L556.75 2005.06 L582.12 2001.60 L607.37 1997.76 L632.73 1993.80 L657.98 1989.34 L683.35 1984.64 L708.59 1979.69 L733.96 1974.37 L759.21 1968.80 L784.58 1962.98 L809.82 1956.80 L835.19 1950.48 L860.43 1943.93 L885.80 1937.37 L911.05 1930.68 L936.42 1924.00 L961.66 1917.32 L987.03 1910.88 L1012.27 1904.70 L1037.64 1898.76 L1062.89 1893.31 L1088.26 1888.11 L1113.50 1883.29 L1138.87 1878.71 L1164.24 1874.50 L1189.48 1870.42 L1214.85 1866.58 L1240.10 1862.74 L1265.47 1859.03 L1290.71 1855.19 L1316.08 1851.36 L1341.33 1847.27 L1366.69 1842.94 L1391.94 1838.12 L1417.31 1832.79 L1442.55 1826.85 L1467.92 1820.17 L1493.17 1812.62 L1518.54 1804.21 L1543.78 1794.80 L1569.15 1784.53 L1594.39 1773.27 L1619.76 1760.77 L1645.01 1747.16 L1670.38 1732.31 L1695.62 1716.09 L1720.99 1698.52 L1746.24 1679.46 L1771.61 1658.67 L1796.85 1636.15 L1822.22 1611.89 L1847.46 1585.66 L1872.83 1557.19 L1898.20 1526.63 L1923.45 1493.71 L1948.82 1458.32 L1974.06 1420.32 L1999.43 1379.48 L2024.67 1335.80 L2024.67 804.65 L1999.43 881.25 L1974.06 952.78 L1948.82 1019.48 L1923.45 1081.49 L1898.20 1139.15 L1872.83 1192.74 L1847.46 1242.37 L1822.22 1288.40 L1796.85 1330.97 L1771.61 1370.33 L1746.24 1406.59 L1720.99 1440.12 L1695.62 1470.94 L1670.38 1499.28 L1645.01 1525.27 L1619.76 1549.03 L1594.39 1570.81 L1569.15 1590.73 L1543.78 1608.80 L1518.54 1625.14 L1493.17 1639.86 L1467.92 1653.10 L1442.55 1664.98 L1417.31 1675.38 L1391.94 1684.66 L1366.69 1693.08 L1341.33 1700.63 L1316.08 1707.80 L1290.71 1714.49 L1265.47 1721.05 L1240.10 1727.48 L1214.85 1734.04 L1189.48 1740.72 L1164.24 1747.78 L1138.87 1755.08 L1113.50 1763.00 L1088.26 1771.41 L1062.89 1780.45 L1037.64 1790.10 L1012.27 1800.37 L987.03 1811.26 L961.66 1822.65 L936.42 1834.28 L911.05 1846.04 L885.80 1857.79 L860.43 1869.43 L835.19 1880.81 L809.82 1891.83 L784.58 1902.47 L759.21 1912.62 L733.96 1922.15 L708.59 1931.30 L683.35 1939.84 L657.98 1947.89 L632.73 1955.43 L607.37 1962.37 L582.12 1968.80 L556.75 1974.62 L531.51 1980.06 L506.14 1985.14 L480.89 1989.71 L455.52 1993.92 L455.52 2016.32 Z" stroke-linejoin="round"/>
	</defs>
	<defs>
		<clipPath id="clipPath_NwPeYbdT">
			<use xlink:href="#path_lZqlzAHi"/>
		</clipPath>
	</defs>
	<use xlink:href="#path_lZqlzAHi" style="stroke:none;fill:#E6E6E6"/>
	<use xlink:href="#path_lZqlzAHi" style="fill:none;stroke:#E0E0E0;stroke-width:14.69" clip-path="url(#clipPath_NwPeYbdT)"/>
	<path d=" M455.52 2026.59 L480.77 2025.11 L506.14 2023.62 L531.38 2021.89 L556.75 2020.03 L582.00 2017.93 L607.37 2015.83 L632.61 2013.48 L657.98 2010.88 L683.22 2008.15 L708.59 2005.18 L733.84 2002.09 L759.21 1998.87 L784.45 1995.41 L809.82 1991.82 L835.07 1988.11 L860.43 1984.27 L885.68 1980.43 L911.05 1976.47 L936.29 1972.51 L961.66 1968.55 L986.91 1964.72 L1012.27 1961.13 L1037.52 1957.66 L1062.89 1954.44 L1088.13 1951.35 L1113.50 1948.50 L1138.87 1945.78 L1164.12 1943.31 L1189.48 1940.96 L1214.73 1938.73 L1240.10 1936.50 L1265.34 1934.27 L1290.71 1932.05 L1315.96 1929.82 L1341.33 1927.34 L1366.57 1924.87 L1391.94 1922.02 L1417.18 1918.80 L1442.55 1915.34 L1467.80 1911.38 L1493.17 1906.92 L1518.41 1901.97 L1543.78 1896.40 L1569.03 1890.34 L1594.39 1883.66 L1619.64 1876.36 L1645.01 1868.31 L1670.25 1859.53 L1695.62 1850.00 L1720.87 1839.60 L1746.24 1828.34 L1771.48 1816.09 L1796.85 1802.85 L1822.10 1788.49 L1847.46 1773.02 L1872.71 1756.19 L1898.08 1738.25 L1923.45 1718.69 L1948.69 1697.78 L1974.06 1675.38 L1999.31 1651.25 L2024.67 1625.38" stroke-linejoin="round" style="fill:none;stroke:#008000;stroke-width:7.34"/>
	<path d=" M455.52 2031.30 L480.77 2030.31 L506.14 2029.32 L531.38 2028.08 L556.75 2026.84 L582.00 2025.36 L607.37 2023.87 L632.61 2022.26 L657.98 2020.41 L683.22 2018.55 L708.59 2016.57 L733.84 2014.34 L759.21 2012.11 L784.45 2009.64 L809.82 2007.16 L835.07 2004.57 L860.43 2001.97 L885.68 1999.24 L911.05 1996.52 L936.29 1993.67 L961.66 1990.95 L986.91 1988.35 L1012.27 1985.75 L1037.52 1983.40 L1062.89 1981.05 L1088.13 1978.95 L1113.50 1976.97 L1138.87 1975.11 L1164.12 1973.38 L1189.48 1971.77 L1214.73 1970.16 L1240.10 1968.68 L1265.34 1967.07 L1290.71 1965.58 L1315.96 1963.97 L1341.33 1962.37 L1366.57 1960.51 L1391.94 1958.53 L1417.18 1956.42 L1442.55 1953.95 L1467.80 1951.23 L1493.17 1948.13 L1518.41 1944.67 L1543.78 1940.83 L1569.03 1936.50 L1594.39 1931.92 L1619.64 1926.85 L1645.01 1921.16 L1670.25 1915.09 L1695.62 1908.41 L1720.87 1901.23 L1746.24 1893.31 L1771.48 1884.90 L1796.85 1875.61 L1822.10 1865.59 L1847.46 1854.82 L1872.71 1843.19 L1898.08 1830.57 L1923.45 1817.08 L1948.69 1802.48 L1974.06 1786.76 L1999.31 1770.05 L2024.67 1751.98" stroke-linejoin="round" style="fill:none;stroke:#FF0000;stroke-width:7.34"/>
	<path d=" M455.52 2006.92 L480.77 2003.70 L506.14 2000.11 L531.38 1996.40 L556.75 1992.19 L582.00 1987.61 L607.37 1982.66 L632.61 1977.46 L657.98 1971.65 L683.22 1965.58 L708.59 1959.02 L733.84 1952.09 L759.21 1944.67 L784.45 1937.00 L809.82 1928.95 L835.07 1920.54 L860.43 1912.00 L885.68 1903.21 L911.05 1894.30 L936.29 1885.51 L961.66 1876.73 L986.91 1868.06 L1012.27 1859.90 L1037.52 1852.10 L1062.89 1844.80 L1088.13 1837.99 L1113.50 1831.56 L1138.87 1825.62 L1164.12 1820.05 L1189.48 1814.73 L1214.73 1809.53 L1240.10 1804.58 L1265.34 1799.75 L1290.71 1794.80 L1315.96 1789.60 L1341.33 1784.28 L1366.57 1778.47 L1391.94 1772.16 L1417.18 1765.10 L1442.55 1757.18 L1467.80 1748.27 L1493.17 1738.37 L1518.41 1727.23 L1543.78 1714.86 L1569.03 1701.12 L1594.39 1686.15 L1619.64 1669.69 L1645.01 1651.74 L1670.25 1632.07 L1695.62 1610.66 L1720.87 1587.39 L1746.24 1562.02 L1771.48 1534.55 L1796.85 1504.85 L1822.10 1472.67 L1847.46 1437.90 L1872.71 1400.40 L1898.08 1359.93 L1923.45 1316.25 L1948.69 1269.47 L1974.06 1219.10 L1999.31 1165.02 L2024.67 1107.10" stroke-linejoin="round" style="fill:none;stroke:#FFD200;stroke-width:7.34"/>
	<path d=" M455.52 2033.28 L480.77 2032.53 L506.14 2031.67 L531.38 2030.68 L556.75 2029.56 L582.00 2028.45 L607.37 2027.21 L632.61 2025.85 L657.98 2024.37 L683.22 2022.88 L708.59 2021.15 L733.84 2019.42 L759.21 2017.56 L784.45 2015.58 L809.82 2013.60 L835.07 2011.37 L860.43 2009.27 L885.68 2007.04 L911.05 2004.81 L936.29 2002.46 L961.66 2000.23 L986.91 1998.13 L1012.27 1996.03 L1037.52 1994.05 L1062.89 1992.19 L1088.13 1990.46 L1113.50 1988.85 L1138.87 1987.24 L1164.12 1985.88 L1189.48 1984.52 L1214.73 1983.28 L1240.10 1981.92 L1265.34 1980.68 L1290.71 1979.44 L1315.96 1978.21 L1341.33 1976.72 L1366.57 1975.36 L1391.94 1973.75 L1417.18 1971.89 L1442.55 1969.91 L1467.80 1967.69 L1493.17 1965.09 L1518.41 1962.24 L1543.78 1959.15 L1569.03 1955.68 L1594.39 1951.85 L1619.64 1947.64 L1645.01 1943.06 L1670.25 1938.11 L1695.62 1932.66 L1720.87 1926.72 L1746.24 1920.29 L1771.48 1913.23 L1796.85 1905.69 L1822.10 1897.52 L1847.46 1888.73 L1872.71 1879.08 L1898.08 1868.81 L1923.45 1857.67 L1948.69 1845.79 L1974.06 1832.92 L1999.31 1819.18 L2024.67 1804.46" stroke-linejoin="round" style="fill:none;stroke:#1A476F;stroke-width:7.34"/>
	<line x1="455.52" y1="1943.06" x2="458.37" y2="1943.06" style="stroke:#000000;stroke-width:7.34"/>
	<line x1="478.54" y1="1943.06" x2="480.77" y2="1943.06" style="stroke:#000000;stroke-width:7.34"/>
	<line x1="480.77" y1="1943.06" x2="481.39" y2="1943.06" style="stroke:#000000;stroke-width:7.34"/>
	<line x1="501.56" y1="1943.06" x2="504.40" y2="1943.06" style="stroke:#000000;stroke-width:7.34"/>
	<line x1="524.58" y1="1943.06" x2="527.42" y2="1943.06" style="stroke:#000000;stroke-width:7.34"/>
	<line x1="547.59" y1="1943.06" x2="550.44" y2="1943.06" style="stroke:#000000;stroke-width:7.34"/>
	<line x1="570.61" y1="1943.06" x2="573.58" y2="1943.06" style="stroke:#000000;stroke-width:7.34"/>
	<line x1="593.75" y1="1943.06" x2="596.60" y2="1943.06" style="stroke:#000000;stroke-width:7.34"/>
	<line x1="616.77" y1="1943.06" x2="619.62" y2="1943.06" style="stroke:#000000;stroke-width:7.34"/>
	<line x1="639.79" y1="1943.06" x2="642.63" y2="1943.06" style="stroke:#000000;stroke-width:7.34"/>
	<line x1="662.80" y1="1943.06" x2="665.65" y2="1943.06" style="stroke:#000000;stroke-width:7.34"/>
	<line x1="685.82" y1="1943.06" x2="688.67" y2="1943.06" style="stroke:#000000;stroke-width:7.34"/>
	<line x1="708.84" y1="1943.06" x2="711.69" y2="1943.06" style="stroke:#000000;stroke-width:7.34"/>
	<line x1="731.86" y1="1943.06" x2="733.84" y2="1943.06" style="stroke:#000000;stroke-width:7.34"/>
	<line x1="733.84" y1="1943.06" x2="734.70" y2="1943.06" style="stroke:#000000;stroke-width:7.34"/>
	<line x1="754.88" y1="1943.06" x2="757.72" y2="1943.06" style="stroke:#000000;stroke-width:7.34"/>
	<line x1="777.89" y1="1943.06" x2="780.74" y2="1943.06" style="stroke:#000000;stroke-width:7.34"/>
	<line x1="800.91" y1="1943.06" x2="803.88" y2="1943.06" style="stroke:#000000;stroke-width:7.34"/>
	<line x1="823.93" y1="1943.06" x2="826.90" y2="1943.06" style="stroke:#000000;stroke-width:7.34"/>
	<line x1="847.07" y1="1943.06" x2="849.91" y2="1943.06" style="stroke:#000000;stroke-width:7.34"/>
	<line x1="870.09" y1="1943.06" x2="872.93" y2="1943.06" style="stroke:#000000;stroke-width:7.34"/>
	<line x1="893.10" y1="1943.06" x2="895.95" y2="1943.06" style="stroke:#000000;stroke-width:7.34"/>
	<line x1="916.12" y1="1943.06" x2="918.97" y2="1943.06" style="stroke:#000000;stroke-width:7.34"/>
	<line x1="939.14" y1="1943.06" x2="941.99" y2="1943.06" style="stroke:#000000;stroke-width:7.34"/>
	<line x1="962.16" y1="1943.06" x2="965.00" y2="1943.06" style="stroke:#000000;stroke-width:7.34"/>
	<line x1="985.17" y1="1943.06" x2="986.91" y2="1943.06" style="stroke:#000000;stroke-width:7.34"/>
	<line x1="986.91" y1="1943.06" x2="988.02" y2="1943.06" style="stroke:#000000;stroke-width:7.34"/>
	<line x1="1008.19" y1="1943.06" x2="1011.04" y2="1943.06" style="stroke:#000000;stroke-width:7.34"/>
	<line x1="1031.21" y1="1943.06" x2="1034.06" y2="1943.06" style="stroke:#000000;stroke-width:7.34"/>
	<line x1="1054.23" y1="1943.06" x2="1057.20" y2="1943.06" style="stroke:#000000;stroke-width:7.34"/>
	<line x1="1077.24" y1="1943.06" x2="1080.21" y2="1943.06" style="stroke:#000000;stroke-width:7.34"/>
	<line x1="1100.38" y1="1943.06" x2="1103.23" y2="1943.06" style="stroke:#000000;stroke-width:7.34"/>
	<line x1="1123.40" y1="1943.06" x2="1126.25" y2="1943.06" style="stroke:#000000;stroke-width:7.34"/>
	<line x1="1146.42" y1="1943.06" x2="1149.27" y2="1943.06" style="stroke:#000000;stroke-width:7.34"/>
	<line x1="1169.44" y1="1943.06" x2="1172.28" y2="1943.06" style="stroke:#000000;stroke-width:7.34"/>
	<line x1="1192.45" y1="1943.06" x2="1195.30" y2="1943.06" style="stroke:#000000;stroke-width:7.34"/>
	<line x1="1215.47" y1="1943.06" x2="1218.32" y2="1943.06" style="stroke:#000000;stroke-width:7.34"/>
	<line x1="1238.49" y1="1943.06" x2="1240.10" y2="1943.06" style="stroke:#000000;stroke-width:7.34"/>
	<line x1="1240.10" y1="1943.06" x2="1241.34" y2="1943.06" style="stroke:#000000;stroke-width:7.34"/>
	<line x1="1261.51" y1="1943.06" x2="1264.35" y2="1943.06" style="stroke:#000000;stroke-width:7.34"/>
	<line x1="1284.53" y1="1943.06" x2="1287.37" y2="1943.06" style="stroke:#000000;stroke-width:7.34"/>
	<line x1="1307.54" y1="1943.06" x2="1310.51" y2="1943.06" style="stroke:#000000;stroke-width:7.34"/>
	<line x1="1330.56" y1="1943.06" x2="1333.53" y2="1943.06" style="stroke:#000000;stroke-width:7.34"/>
	<line x1="1353.70" y1="1943.06" x2="1356.55" y2="1943.06" style="stroke:#000000;stroke-width:7.34"/>
	<line x1="1376.72" y1="1943.06" x2="1379.57" y2="1943.06" style="stroke:#000000;stroke-width:7.34"/>
	<line x1="1399.74" y1="1943.06" x2="1402.58" y2="1943.06" style="stroke:#000000;stroke-width:7.34"/>
	<line x1="1422.75" y1="1943.06" x2="1425.60" y2="1943.06" style="stroke:#000000;stroke-width:7.34"/>
	<line x1="1445.77" y1="1943.06" x2="1448.62" y2="1943.06" style="stroke:#000000;stroke-width:7.34"/>
	<line x1="1468.79" y1="1943.06" x2="1471.63" y2="1943.06" style="stroke:#000000;stroke-width:7.34"/>
	<line x1="1491.81" y1="1943.06" x2="1493.17" y2="1943.06" style="stroke:#000000;stroke-width:7.34"/>
	<line x1="1493.17" y1="1943.06" x2="1494.65" y2="1943.06" style="stroke:#000000;stroke-width:7.34"/>
	<line x1="1514.82" y1="1943.06" x2="1517.67" y2="1943.06" style="stroke:#000000;stroke-width:7.34"/>
	<line x1="1537.84" y1="1943.06" x2="1540.69" y2="1943.06" style="stroke:#000000;stroke-width:7.34"/>
	<line x1="1560.86" y1="1943.06" x2="1563.83" y2="1943.06" style="stroke:#000000;stroke-width:7.34"/>
	<line x1="1584.00" y1="1943.06" x2="1586.85" y2="1943.06" style="stroke:#000000;stroke-width:7.34"/>
	<line x1="1607.02" y1="1943.06" x2="1609.86" y2="1943.06" style="stroke:#000000;stroke-width:7.34"/>
	<line x1="1630.04" y1="1943.06" x2="1632.88" y2="1943.06" style="stroke:#000000;stroke-width:7.34"/>
	<line x1="1653.05" y1="1943.06" x2="1655.90" y2="1943.06" style="stroke:#000000;stroke-width:7.34"/>
	<line x1="1676.07" y1="1943.06" x2="1678.92" y2="1943.06" style="stroke:#000000;stroke-width:7.34"/>
	<line x1="1699.09" y1="1943.06" x2="1701.93" y2="1943.06" style="stroke:#000000;stroke-width:7.34"/>
	<line x1="1722.11" y1="1943.06" x2="1724.95" y2="1943.06" style="stroke:#000000;stroke-width:7.34"/>
	<line x1="1745.12" y1="1943.06" x2="1746.24" y2="1943.06" style="stroke:#000000;stroke-width:7.34"/>
	<line x1="1746.24" y1="1943.06" x2="1747.97" y2="1943.06" style="stroke:#000000;stroke-width:7.34"/>
	<line x1="1768.14" y1="1943.06" x2="1770.99" y2="1943.06" style="stroke:#000000;stroke-width:7.34"/>
	<line x1="1791.16" y1="1943.06" x2="1794.00" y2="1943.06" style="stroke:#000000;stroke-width:7.34"/>
	<line x1="1814.17" y1="1943.06" x2="1817.14" y2="1943.06" style="stroke:#000000;stroke-width:7.34"/>
	<line x1="1837.32" y1="1943.06" x2="1840.16" y2="1943.06" style="stroke:#000000;stroke-width:7.34"/>
	<line x1="1860.33" y1="1943.06" x2="1863.18" y2="1943.06" style="stroke:#000000;stroke-width:7.34"/>
	<line x1="1883.35" y1="1943.06" x2="1886.20" y2="1943.06" style="stroke:#000000;stroke-width:7.34"/>
	<line x1="1906.37" y1="1943.06" x2="1909.21" y2="1943.06" style="stroke:#000000;stroke-width:7.34"/>
	<line x1="1929.39" y1="1943.06" x2="1932.23" y2="1943.06" style="stroke:#000000;stroke-width:7.34"/>
	<line x1="1952.40" y1="1943.06" x2="1955.25" y2="1943.06" style="stroke:#000000;stroke-width:7.34"/>
	<line x1="1975.42" y1="1943.06" x2="1978.27" y2="1943.06" style="stroke:#000000;stroke-width:7.34"/>
	<line x1="1998.44" y1="1943.06" x2="1999.31" y2="1943.06" style="stroke:#000000;stroke-width:7.34"/>
	<line x1="1999.31" y1="1943.06" x2="2001.29" y2="1943.06" style="stroke:#000000;stroke-width:7.34"/>
	<line x1="2021.46" y1="1943.06" x2="2024.30" y2="1943.06" style="stroke:#000000;stroke-width:7.34"/>
	<path d="" stroke-linejoin="round" style="fill:none;stroke:#000000;stroke-width:7.34"/>
	<defs>
		<path id="path_CVtERObh" d="M2201.51 2031.42 L2201.51 2031.42 L2226.88 2030.31 L2252.13 2029.19 L2277.49 2027.83 L2302.74 2026.47 L2328.11 2024.86 L2353.35 2023.25 L2378.72 2021.40 L2403.97 2019.42 L2429.34 2017.31 L2454.58 2015.08 L2479.95 2012.61 L2505.20 2010.13 L2530.56 2007.41 L2555.81 2004.69 L2581.18 2001.84 L2606.42 1999.00 L2631.79 1996.03 L2657.04 1993.06 L2682.41 1990.09 L2707.65 1987.24 L2733.02 1984.39 L2758.26 1981.67 L2783.63 1979.07 L2808.88 1976.60 L2834.25 1974.37 L2859.49 1972.14 L2884.86 1970.16 L2910.11 1968.18 L2935.47 1966.45 L2960.72 1964.59 L2986.09 1962.98 L3011.46 1961.25 L3036.70 1959.52 L3062.07 1957.79 L3087.32 1955.93 L3112.68 1954.07 L3137.93 1951.85 L3163.30 1949.62 L3188.54 1946.90 L3213.91 1943.93 L3239.16 1940.71 L3264.53 1937.00 L3289.77 1932.79 L3315.14 1928.33 L3340.38 1923.26 L3365.75 1917.81 L3391.00 1911.87 L3416.37 1905.31 L3441.61 1898.14 L3466.98 1890.34 L3492.22 1881.93 L3517.59 1872.64 L3542.84 1862.74 L3568.21 1851.98 L3593.45 1840.34 L3618.82 1827.84 L3644.07 1814.36 L3669.43 1799.75 L3694.68 1784.16 L3720.05 1767.33 L3745.42 1749.38 L3770.66 1730.20 L3770.66 1687.14 L3745.42 1709.29 L3720.05 1729.83 L3694.68 1749.14 L3669.43 1766.96 L3644.07 1783.54 L3618.82 1799.01 L3593.45 1813.24 L3568.21 1826.36 L3542.84 1838.61 L3517.59 1849.87 L3492.22 1860.27 L3466.98 1869.92 L3441.61 1878.71 L3416.37 1886.88 L3391.00 1894.30 L3365.75 1901.23 L3340.38 1907.42 L3315.14 1913.11 L3289.77 1918.31 L3264.53 1923.01 L3239.16 1927.34 L3213.91 1931.06 L3188.54 1934.52 L3163.30 1937.49 L3137.93 1940.09 L3112.68 1942.56 L3087.32 1944.67 L3062.07 1946.77 L3036.70 1948.63 L3011.46 1950.48 L2986.09 1952.22 L2960.72 1954.07 L2935.47 1955.93 L2910.11 1957.91 L2884.86 1960.01 L2859.49 1962.24 L2834.25 1964.59 L2808.88 1967.19 L2783.63 1969.91 L2758.26 1972.88 L2733.02 1975.98 L2707.65 1979.32 L2682.41 1982.66 L2657.04 1986.00 L2631.79 1989.34 L2606.42 1992.68 L2581.18 1995.90 L2555.81 1999.00 L2530.56 2001.97 L2505.20 2004.81 L2479.95 2007.54 L2454.58 2010.13 L2429.34 2012.49 L2403.97 2014.71 L2378.72 2016.82 L2353.35 2018.67 L2328.11 2020.53 L2302.74 2022.14 L2277.49 2023.75 L2252.13 2025.11 L2226.88 2026.47 L2201.51 2027.71 L2201.51 2031.42 Z" stroke-linejoin="round"/>
	</defs>
	<defs>
		<clipPath id="clipPath_ACbOvVou">
			<use xlink:href="#path_CVtERObh"/>
		</clipPath>
	</defs>
	<use xlink:href="#path_CVtERObh" style="stroke:none;fill:#E6E6E6"/>
	<use xlink:href="#path_CVtERObh" style="fill:none;stroke:#E0E0E0;stroke-width:14.69" clip-path="url(#clipPath_ACbOvVou)"/>
	<defs>
		<path id="path_ZmjdtFiT" d="M2201.51 2024.86 L2201.51 2024.86 L2226.88 2023.25 L2252.13 2021.40 L2277.49 2019.42 L2302.74 2017.31 L2328.11 2014.96 L2353.35 2012.36 L2378.72 2009.64 L2403.97 2006.67 L2429.34 2003.45 L2454.58 2000.11 L2479.95 1996.52 L2505.20 1992.68 L2530.56 1988.72 L2555.81 1984.52 L2581.18 1980.31 L2606.42 1975.85 L2631.79 1971.40 L2657.04 1966.82 L2682.41 1962.24 L2707.65 1957.79 L2733.02 1953.45 L2758.26 1949.25 L2783.63 1945.29 L2808.88 1941.57 L2834.25 1938.11 L2859.49 1934.77 L2884.86 1931.67 L2910.11 1928.83 L2935.47 1926.11 L2960.72 1923.51 L2986.09 1920.91 L3011.46 1918.31 L3036.70 1915.83 L3062.07 1913.11 L3087.32 1910.39 L3112.68 1907.42 L3137.93 1904.20 L3163.30 1900.61 L3188.54 1896.53 L3213.91 1892.07 L3239.16 1886.88 L3264.53 1881.31 L3289.77 1874.99 L3315.14 1867.94 L3340.38 1860.27 L3365.75 1851.85 L3391.00 1842.70 L3416.37 1832.67 L3441.61 1821.78 L3466.98 1809.78 L3492.22 1796.91 L3517.59 1782.92 L3542.84 1767.70 L3568.21 1751.24 L3593.45 1733.42 L3618.82 1714.24 L3644.07 1693.57 L3669.43 1671.30 L3694.68 1647.41 L3720.05 1621.67 L3745.42 1594.07 L3770.66 1564.50 L3770.66 1329.98 L3745.42 1374.16 L3720.05 1415.50 L3694.68 1453.86 L3669.43 1489.63 L3644.07 1522.92 L3618.82 1553.73 L3593.45 1582.32 L3568.21 1608.80 L3542.84 1633.30 L3517.59 1655.95 L3492.22 1676.86 L3466.98 1696.17 L3441.61 1713.87 L3416.37 1730.20 L3391.00 1745.18 L3365.75 1758.79 L3340.38 1771.41 L3315.14 1782.80 L3289.77 1793.19 L3264.53 1802.60 L3239.16 1811.14 L3213.91 1818.69 L3188.54 1825.49 L3163.30 1831.43 L3137.93 1836.88 L3112.68 1841.71 L3087.32 1846.04 L3062.07 1850.12 L3036.70 1853.96 L3011.46 1857.67 L2986.09 1861.38 L2960.72 1865.22 L2935.47 1869.05 L2910.11 1873.01 L2884.86 1877.22 L2859.49 1881.80 L2834.25 1886.63 L2808.88 1891.83 L2783.63 1897.39 L2758.26 1903.21 L2733.02 1909.52 L2707.65 1916.08 L2682.41 1922.76 L2657.04 1929.57 L2631.79 1936.25 L2606.42 1942.94 L2581.18 1949.49 L2555.81 1955.81 L2530.56 1961.87 L2505.20 1967.69 L2479.95 1973.13 L2454.58 1978.45 L2429.34 1983.28 L2403.97 1987.86 L2378.72 1992.19 L2353.35 1996.15 L2328.11 1999.74 L2302.74 2003.20 L2277.49 2006.30 L2252.13 2009.14 L2226.88 2011.74 L2201.51 2014.22 L2201.51 2024.86 Z" stroke-linejoin="round"/>
	</defs>
	<defs>
		<clipPath id="clipPath_ekkHkHIV">
			<use xlink:href="#path_ZmjdtFiT"/>
		</clipPath>
	</defs>
	<use xlink:href="#path_ZmjdtFiT" style="stroke:none;fill:#E6E6E6"/>
	<use xlink:href="#path_ZmjdtFiT" style="fill:none;stroke:#E0E0E0;stroke-width:14.69" clip-path="url(#clipPath_ekkHkHIV)"/>
	<defs>
		<path id="path_CkWUeeAD" d="M2201.51 2029.07 L2201.51 2029.07 L2226.88 2027.83 L2252.13 2026.35 L2277.49 2024.86 L2302.74 2023.13 L2328.11 2021.27 L2353.35 2019.17 L2378.72 2017.06 L2403.97 2014.71 L2429.34 2012.11 L2454.58 2009.39 L2479.95 2006.55 L2505.20 2003.58 L2530.56 2000.36 L2555.81 1997.02 L2581.18 1993.67 L2606.42 1990.21 L2631.79 1986.62 L2657.04 1983.16 L2682.41 1979.57 L2707.65 1975.98 L2733.02 1972.64 L2758.26 1969.30 L2783.63 1966.20 L2808.88 1963.23 L2834.25 1960.51 L2859.49 1957.91 L2884.86 1955.43 L2910.11 1953.21 L2935.47 1950.98 L2960.72 1948.88 L2986.09 1946.90 L3011.46 1944.79 L3036.70 1942.81 L3062.07 1940.71 L3087.32 1938.48 L3112.68 1936.13 L3137.93 1933.53 L3163.30 1930.81 L3188.54 1927.59 L3213.91 1924.00 L3239.16 1920.04 L3264.53 1915.59 L3289.77 1910.64 L3315.14 1905.19 L3340.38 1899.13 L3365.75 1892.57 L3391.00 1885.27 L3416.37 1877.35 L3441.61 1868.81 L3466.98 1859.40 L3492.22 1849.25 L3517.59 1838.24 L3542.84 1826.24 L3568.21 1813.37 L3593.45 1799.38 L3618.82 1784.28 L3644.07 1768.07 L3669.43 1750.50 L3694.68 1731.69 L3720.05 1711.52 L3745.42 1689.86 L3770.66 1666.72 L3770.66 1602.74 L3745.42 1630.09 L3720.05 1655.70 L3694.68 1679.46 L3669.43 1701.49 L3644.07 1722.04 L3618.82 1741.09 L3593.45 1758.79 L3568.21 1775.13 L3542.84 1790.22 L3517.59 1804.21 L3492.22 1817.08 L3466.98 1828.96 L3441.61 1839.85 L3416.37 1850.00 L3391.00 1859.15 L3365.75 1867.69 L3340.38 1875.37 L3315.14 1882.42 L3289.77 1888.86 L3264.53 1894.67 L3239.16 1899.87 L3213.91 1904.57 L3188.54 1908.78 L3163.30 1912.49 L3137.93 1915.83 L3112.68 1918.68 L3087.32 1921.40 L3062.07 1923.88 L3036.70 1926.23 L3011.46 1928.58 L2986.09 1930.81 L2960.72 1933.04 L2935.47 1935.39 L2910.11 1937.86 L2884.86 1940.46 L2859.49 1943.18 L2834.25 1946.15 L2808.88 1949.37 L2783.63 1952.71 L2758.26 1956.42 L2733.02 1960.26 L2707.65 1964.35 L2682.41 1968.43 L2657.04 1972.64 L2631.79 1976.72 L2606.42 1980.93 L2581.18 1984.89 L2555.81 1988.72 L2530.56 1992.44 L2505.20 1996.03 L2479.95 1999.37 L2454.58 2002.46 L2429.34 2005.43 L2403.97 2008.28 L2378.72 2010.88 L2353.35 2013.23 L2328.11 2015.46 L2302.74 2017.56 L2277.49 2019.42 L2252.13 2021.27 L2226.88 2022.88 L2201.51 2024.37 L2201.51 2029.07 Z" stroke-linejoin="round"/>
	</defs>
	<defs>
		<clipPath id="clipPath_BstErciy">
			<use xlink:href="#path_CkWUeeAD"/>
		</clipPath>
	</defs>
	<use xlink:href="#path_CkWUeeAD" style="stroke:none;fill:#E6E6E6"/>
	<use xlink:href="#path_CkWUeeAD" style="fill:none;stroke:#E0E0E0;stroke-width:14.69" clip-path="url(#clipPath_BstErciy)"/>
	<defs>
		<path id="path_XcePyhUh" d="M2201.51 2005.93 L2201.51 2005.93 L2226.88 2002.46 L2252.13 1998.75 L2277.49 1994.66 L2302.74 1990.21 L2328.11 1985.26 L2353.35 1980.06 L2378.72 1974.37 L2403.97 1968.18 L2429.34 1961.62 L2454.58 1954.69 L2479.95 1947.27 L2505.20 1939.47 L2530.56 1931.18 L2555.81 1922.64 L2581.18 1913.73 L2606.42 1904.70 L2631.79 1895.41 L2657.04 1886.01 L2682.41 1876.60 L2707.65 1867.32 L2733.02 1858.29 L2758.26 1849.63 L2783.63 1841.46 L2808.88 1833.78 L2834.25 1826.48 L2859.49 1819.80 L2884.86 1813.37 L2910.11 1807.43 L2935.47 1801.73 L2960.72 1796.29 L2986.09 1791.09 L3011.46 1785.77 L3036.70 1780.57 L3062.07 1775.13 L3087.32 1769.31 L3112.68 1763.25 L3137.93 1756.56 L3163.30 1749.14 L3188.54 1740.72 L3213.91 1731.44 L3239.16 1720.80 L3264.53 1709.04 L3289.77 1696.05 L3315.14 1681.57 L3340.38 1665.73 L3365.75 1648.40 L3391.00 1629.34 L3416.37 1608.55 L3441.61 1585.91 L3466.98 1561.40 L3492.22 1534.67 L3517.59 1505.59 L3542.84 1474.16 L3568.21 1440.25 L3593.45 1403.49 L3618.82 1363.89 L3644.07 1321.07 L3669.43 1275.04 L3694.68 1225.66 L3720.05 1172.44 L3745.42 1115.52 L3770.66 1054.51 L3770.66 312.11 L3745.42 419.15 L3720.05 519.02 L3694.68 612.09 L3669.43 698.71 L3644.07 779.28 L3618.82 854.15 L3593.45 923.58 L3568.21 987.80 L3542.84 1047.33 L3517.59 1102.28 L3492.22 1153.14 L3466.98 1199.92 L3441.61 1242.98 L3416.37 1282.59 L3391.00 1318.97 L3365.75 1352.26 L3340.38 1382.83 L3315.14 1410.55 L3289.77 1435.79 L3264.53 1458.69 L3239.16 1479.35 L3213.91 1497.92 L3188.54 1514.38 L3163.30 1528.98 L3137.93 1541.97 L3112.68 1553.61 L3087.32 1564.37 L3062.07 1574.27 L3036.70 1583.68 L3011.46 1592.84 L2986.09 1601.87 L2960.72 1610.90 L2935.47 1620.31 L2910.11 1630.09 L2884.86 1640.48 L2859.49 1651.50 L2834.25 1663.25 L2808.88 1675.87 L2783.63 1689.36 L2758.26 1703.84 L2733.02 1719.06 L2707.65 1734.91 L2682.41 1751.24 L2657.04 1767.70 L2631.79 1784.16 L2606.42 1800.37 L2581.18 1816.21 L2555.81 1831.68 L2530.56 1846.53 L2505.20 1860.76 L2479.95 1874.25 L2454.58 1887.00 L2429.34 1899.00 L2403.97 1910.26 L2378.72 1920.66 L2353.35 1930.44 L2328.11 1939.35 L2302.74 1947.64 L2277.49 1955.31 L2252.13 1962.24 L2226.88 1968.68 L2201.51 1974.49 L2201.51 2005.93 Z" stroke-linejoin="round"/>
	</defs>
	<defs>
		<clipPath id="clipPath_iuGWdYfF">
			<use xlink:href="#path_XcePyhUh"/>
		</clipPath>
	</defs>
	<use xlink:href="#path_XcePyhUh" style="stroke:none;fill:#E6E6E6"/>
	<use xlink:href="#path_XcePyhUh" style="fill:none;stroke:#E0E0E0;stroke-width:14.69" clip-path="url(#clipPath_iuGWdYfF)"/>
	<path d=" M2201.39 2020.28 L2226.76 2018.30 L2252.13 2016.07 L2277.37 2013.72 L2302.74 2011.12 L2327.99 2008.28 L2353.35 2005.18 L2378.60 2001.84 L2403.97 1998.25 L2429.21 1994.54 L2454.58 1990.46 L2479.83 1986.13 L2505.20 1981.55 L2530.44 1976.72 L2555.81 1971.65 L2581.05 1966.45 L2606.42 1961.13 L2631.67 1955.68 L2657.04 1950.11 L2682.28 1944.54 L2707.65 1939.10 L2732.89 1933.78 L2758.26 1928.58 L2783.51 1923.75 L2808.88 1919.17 L2834.12 1914.97 L2859.49 1911.01 L2884.74 1907.29 L2910.11 1903.71 L2935.35 1900.49 L2960.72 1897.27 L2986.09 1894.18 L3011.33 1891.08 L3036.70 1887.99 L3061.95 1884.77 L3087.32 1881.43 L3112.56 1877.84 L3137.93 1873.88 L3163.17 1869.55 L3188.54 1864.60 L3213.79 1859.03 L3239.16 1852.84 L3264.40 1845.91 L3289.77 1838.24 L3315.01 1829.70 L3340.38 1820.30 L3365.63 1810.02 L3391.00 1798.76 L3416.24 1786.51 L3441.61 1773.15 L3466.86 1758.67 L3492.22 1742.83 L3517.47 1725.75 L3542.84 1707.18 L3568.08 1687.14 L3593.45 1665.48 L3618.70 1641.97 L3644.07 1616.72 L3669.31 1589.49 L3694.68 1560.29 L3719.93 1528.86 L3745.29 1495.07 L3770.66 1458.93" stroke-linejoin="round" style="fill:none;stroke:#008000;stroke-width:7.34"/>
	<path d=" M2201.39 2026.96 L2226.76 2025.60 L2252.13 2023.99 L2277.37 2022.39 L2302.74 2020.53 L2327.99 2018.55 L2353.35 2016.45 L2378.60 2014.22 L2403.97 2011.74 L2429.21 2009.02 L2454.58 2006.17 L2479.83 2003.20 L2505.20 1999.99 L2530.44 1996.64 L2555.81 1993.18 L2581.05 1989.47 L2606.42 1985.75 L2631.67 1981.92 L2657.04 1978.08 L2682.28 1974.25 L2707.65 1970.41 L2732.89 1966.70 L2758.26 1963.23 L2783.51 1959.77 L2808.88 1956.67 L2834.12 1953.70 L2859.49 1950.86 L2884.74 1948.26 L2910.11 1945.91 L2935.35 1943.55 L2960.72 1941.33 L2986.09 1939.22 L3011.33 1937.12 L3036.70 1934.89 L3061.95 1932.66 L3087.32 1930.31 L3112.56 1927.84 L3137.93 1925.12 L3163.17 1922.02 L3188.54 1918.56 L3213.79 1914.72 L3239.16 1910.39 L3264.40 1905.56 L3289.77 1900.24 L3315.01 1894.30 L3340.38 1887.74 L3365.63 1880.56 L3391.00 1872.77 L3416.24 1864.23 L3441.61 1854.95 L3466.86 1844.80 L3492.22 1833.78 L3517.47 1821.90 L3542.84 1809.03 L3568.08 1795.05 L3593.45 1779.95 L3618.70 1763.62 L3644.07 1746.04 L3669.31 1726.99 L3694.68 1706.69 L3719.93 1684.79 L3745.29 1661.27 L3770.66 1636.03" stroke-linejoin="round" style="fill:none;stroke:#FF0000;stroke-width:7.34"/>
	<path d=" M2201.39 1992.68 L2226.76 1988.23 L2252.13 1983.28 L2277.37 1977.96 L2302.74 1972.14 L2327.99 1965.83 L2353.35 1958.90 L2378.60 1951.47 L2403.97 1943.43 L2429.21 1934.89 L2454.58 1925.73 L2479.83 1915.96 L2505.20 1905.69 L2530.44 1894.92 L2555.81 1883.66 L2581.05 1871.90 L2606.42 1859.90 L2631.67 1847.65 L2657.04 1835.15 L2682.28 1822.77 L2707.65 1810.52 L2732.89 1798.51 L2758.26 1787.01 L2783.51 1776.12 L2808.88 1765.97 L2834.12 1756.31 L2859.49 1747.40 L2884.74 1739.11 L2910.11 1731.19 L2935.35 1723.77 L2960.72 1716.59 L2986.09 1709.66 L3011.33 1702.85 L3036.70 1695.80 L3061.95 1688.75 L3087.32 1681.20 L3112.56 1673.03 L3137.93 1664.24 L3163.17 1654.34 L3188.54 1643.33 L3213.79 1630.95 L3239.16 1616.97 L3264.40 1601.38 L3289.77 1584.05 L3315.01 1564.99 L3340.38 1543.95 L3365.63 1520.94 L3391.00 1495.81 L3416.24 1468.34 L3441.61 1438.39 L3466.86 1405.84 L3492.22 1370.45 L3517.47 1332.09 L3542.84 1290.51 L3568.08 1245.46 L3593.45 1196.95 L3618.70 1144.48 L3644.07 1087.92 L3669.31 1026.91 L3694.68 961.44 L3719.93 891.15 L3745.29 815.66 L3770.66 734.85" stroke-linejoin="round" style="fill:none;stroke:#FFD200;stroke-width:7.34"/>
	<path d=" M2201.39 2029.69 L2226.76 2028.57 L2252.13 2027.34 L2277.37 2025.97 L2302.74 2024.49 L2327.99 2022.88 L2353.35 2021.15 L2378.60 2019.29 L2403.97 2017.19 L2429.21 2015.08 L2454.58 2012.73 L2479.83 2010.26 L2505.20 2007.66 L2530.44 2004.94 L2555.81 2002.09 L2581.05 1999.12 L2606.42 1996.03 L2631.67 1992.93 L2657.04 1989.71 L2682.28 1986.62 L2707.65 1983.40 L2732.89 1980.43 L2758.26 1977.46 L2783.51 1974.74 L2808.88 1972.14 L2834.12 1969.67 L2859.49 1967.44 L2884.74 1965.34 L2910.11 1963.36 L2935.35 1961.38 L2960.72 1959.64 L2986.09 1957.79 L3011.33 1956.05 L3036.70 1954.32 L3061.95 1952.46 L3087.32 1950.61 L3112.56 1948.50 L3137.93 1946.28 L3163.17 1943.80 L3188.54 1940.96 L3213.79 1937.74 L3239.16 1934.27 L3264.40 1930.31 L3289.77 1925.86 L3315.01 1921.03 L3340.38 1915.71 L3365.63 1909.77 L3391.00 1903.46 L3416.24 1896.40 L3441.61 1888.86 L3466.86 1880.56 L3492.22 1871.53 L3517.47 1861.75 L3542.84 1851.11 L3568.08 1839.72 L3593.45 1827.35 L3618.70 1813.86 L3644.07 1799.50 L3669.31 1783.91 L3694.68 1767.21 L3719.93 1749.26 L3745.29 1730.08 L3770.66 1709.41" stroke-linejoin="round" style="fill:none;stroke:#1A476F;stroke-width:7.34"/>
	<line x1="2201.39" y1="1903.46" x2="2204.24" y2="1903.46" style="stroke:#000000;stroke-width:7.34"/>
	<line x1="2224.41" y1="1903.46" x2="2226.76" y2="1903.46" style="stroke:#000000;stroke-width:7.34"/>
	<line x1="2226.76" y1="1903.46" x2="2227.25" y2="1903.46" style="stroke:#000000;stroke-width:7.34"/>
	<line x1="2247.42" y1="1903.46" x2="2250.27" y2="1903.46" style="stroke:#000000;stroke-width:7.34"/>
	<line x1="2270.44" y1="1903.46" x2="2273.29" y2="1903.46" style="stroke:#000000;stroke-width:7.34"/>
	<line x1="2293.46" y1="1903.46" x2="2296.43" y2="1903.46" style="stroke:#000000;stroke-width:7.34"/>
	<line x1="2316.60" y1="1903.46" x2="2319.45" y2="1903.46" style="stroke:#000000;stroke-width:7.34"/>
	<line x1="2339.62" y1="1903.46" x2="2342.46" y2="1903.46" style="stroke:#000000;stroke-width:7.34"/>
	<line x1="2362.64" y1="1903.46" x2="2365.48" y2="1903.46" style="stroke:#000000;stroke-width:7.34"/>
	<line x1="2385.65" y1="1903.46" x2="2388.50" y2="1903.46" style="stroke:#000000;stroke-width:7.34"/>
	<line x1="2408.67" y1="1903.46" x2="2411.52" y2="1903.46" style="stroke:#000000;stroke-width:7.34"/>
	<line x1="2431.69" y1="1903.46" x2="2434.53" y2="1903.46" style="stroke:#000000;stroke-width:7.34"/>
	<line x1="2454.70" y1="1903.46" x2="2457.55" y2="1903.46" style="stroke:#000000;stroke-width:7.34"/>
	<line x1="2477.72" y1="1903.46" x2="2479.83" y2="1903.46" style="stroke:#000000;stroke-width:7.34"/>
	<line x1="2479.83" y1="1903.46" x2="2480.57" y2="1903.46" style="stroke:#000000;stroke-width:7.34"/>
	<line x1="2500.74" y1="1903.46" x2="2503.59" y2="1903.46" style="stroke:#000000;stroke-width:7.34"/>
	<line x1="2523.76" y1="1903.46" x2="2526.60" y2="1903.46" style="stroke:#000000;stroke-width:7.34"/>
	<line x1="2546.78" y1="1903.46" x2="2549.74" y2="1903.46" style="stroke:#000000;stroke-width:7.34"/>
	<line x1="2569.92" y1="1903.46" x2="2572.76" y2="1903.46" style="stroke:#000000;stroke-width:7.34"/>
	<line x1="2592.93" y1="1903.46" x2="2595.78" y2="1903.46" style="stroke:#000000;stroke-width:7.34"/>
	<line x1="2615.95" y1="1903.46" x2="2618.80" y2="1903.46" style="stroke:#000000;stroke-width:7.34"/>
	<line x1="2638.97" y1="1903.46" x2="2641.82" y2="1903.46" style="stroke:#000000;stroke-width:7.34"/>
	<line x1="2661.99" y1="1903.46" x2="2664.83" y2="1903.46" style="stroke:#000000;stroke-width:7.34"/>
	<line x1="2685.00" y1="1903.46" x2="2687.85" y2="1903.46" style="stroke:#000000;stroke-width:7.34"/>
	<line x1="2708.02" y1="1903.46" x2="2710.87" y2="1903.46" style="stroke:#000000;stroke-width:7.34"/>
	<line x1="2731.04" y1="1903.46" x2="2732.89" y2="1903.46" style="stroke:#000000;stroke-width:7.34"/>
	<line x1="2732.89" y1="1903.46" x2="2733.89" y2="1903.46" style="stroke:#000000;stroke-width:7.34"/>
	<line x1="2754.06" y1="1903.46" x2="2756.90" y2="1903.46" style="stroke:#000000;stroke-width:7.34"/>
	<line x1="2777.07" y1="1903.46" x2="2779.92" y2="1903.46" style="stroke:#000000;stroke-width:7.34"/>
	<line x1="2800.09" y1="1903.46" x2="2803.06" y2="1903.46" style="stroke:#000000;stroke-width:7.34"/>
	<line x1="2823.23" y1="1903.46" x2="2826.08" y2="1903.46" style="stroke:#000000;stroke-width:7.34"/>
	<line x1="2846.25" y1="1903.46" x2="2849.10" y2="1903.46" style="stroke:#000000;stroke-width:7.34"/>
	<line x1="2869.27" y1="1903.46" x2="2872.11" y2="1903.46" style="stroke:#000000;stroke-width:7.34"/>
	<line x1="2892.28" y1="1903.46" x2="2895.13" y2="1903.46" style="stroke:#000000;stroke-width:7.34"/>
	<line x1="2915.30" y1="1903.46" x2="2918.15" y2="1903.46" style="stroke:#000000;stroke-width:7.34"/>
	<line x1="2938.32" y1="1903.46" x2="2941.17" y2="1903.46" style="stroke:#000000;stroke-width:7.34"/>
	<line x1="2961.34" y1="1903.46" x2="2964.18" y2="1903.46" style="stroke:#000000;stroke-width:7.34"/>
	<line x1="2984.36" y1="1903.46" x2="2986.09" y2="1903.46" style="stroke:#000000;stroke-width:7.34"/>
	<line x1="2986.09" y1="1903.46" x2="2987.20" y2="1903.46" style="stroke:#000000;stroke-width:7.34"/>
	<line x1="3007.37" y1="1903.46" x2="3010.22" y2="1903.46" style="stroke:#000000;stroke-width:7.34"/>
	<line x1="3030.39" y1="1903.46" x2="3033.36" y2="1903.46" style="stroke:#000000;stroke-width:7.34"/>
	<line x1="3053.41" y1="1903.46" x2="3056.38" y2="1903.46" style="stroke:#000000;stroke-width:7.34"/>
	<line x1="3076.55" y1="1903.46" x2="3079.39" y2="1903.46" style="stroke:#000000;stroke-width:7.34"/>
	<line x1="3099.57" y1="1903.46" x2="3102.41" y2="1903.46" style="stroke:#000000;stroke-width:7.34"/>
	<line x1="3122.58" y1="1903.46" x2="3125.43" y2="1903.46" style="stroke:#000000;stroke-width:7.34"/>
	<line x1="3145.60" y1="1903.46" x2="3148.45" y2="1903.46" style="stroke:#000000;stroke-width:7.34"/>
	<line x1="3168.62" y1="1903.46" x2="3171.47" y2="1903.46" style="stroke:#000000;stroke-width:7.34"/>
	<line x1="3191.64" y1="1903.46" x2="3194.48" y2="1903.46" style="stroke:#000000;stroke-width:7.34"/>
	<line x1="3214.65" y1="1903.46" x2="3217.50" y2="1903.46" style="stroke:#000000;stroke-width:7.34"/>
	<line x1="3237.67" y1="1903.46" x2="3239.16" y2="1903.46" style="stroke:#000000;stroke-width:7.34"/>
	<line x1="3239.16" y1="1903.46" x2="3240.52" y2="1903.46" style="stroke:#000000;stroke-width:7.34"/>
	<line x1="3260.69" y1="1903.46" x2="3263.53" y2="1903.46" style="stroke:#000000;stroke-width:7.34"/>
	<line x1="3283.71" y1="1903.46" x2="3286.68" y2="1903.46" style="stroke:#000000;stroke-width:7.34"/>
	<line x1="3306.72" y1="1903.46" x2="3309.69" y2="1903.46" style="stroke:#000000;stroke-width:7.34"/>
	<line x1="3329.86" y1="1903.46" x2="3332.71" y2="1903.46" style="stroke:#000000;stroke-width:7.34"/>
	<line x1="3352.88" y1="1903.46" x2="3355.73" y2="1903.46" style="stroke:#000000;stroke-width:7.34"/>
	<line x1="3375.90" y1="1903.46" x2="3378.75" y2="1903.46" style="stroke:#000000;stroke-width:7.34"/>
	<line x1="3398.92" y1="1903.46" x2="3401.76" y2="1903.46" style="stroke:#000000;stroke-width:7.34"/>
	<line x1="3421.93" y1="1903.46" x2="3424.78" y2="1903.46" style="stroke:#000000;stroke-width:7.34"/>
	<line x1="3444.95" y1="1903.46" x2="3447.80" y2="1903.46" style="stroke:#000000;stroke-width:7.34"/>
	<line x1="3467.97" y1="1903.46" x2="3470.82" y2="1903.46" style="stroke:#000000;stroke-width:7.34"/>
	<line x1="3490.99" y1="1903.46" x2="3492.22" y2="1903.46" style="stroke:#000000;stroke-width:7.34"/>
	<line x1="3492.22" y1="1903.46" x2="3493.83" y2="1903.46" style="stroke:#000000;stroke-width:7.34"/>
	<line x1="3514.01" y1="1903.46" x2="3516.85" y2="1903.46" style="stroke:#000000;stroke-width:7.34"/>
	<line x1="3537.02" y1="1903.46" x2="3539.99" y2="1903.46" style="stroke:#000000;stroke-width:7.34"/>
	<line x1="3560.04" y1="1903.46" x2="3563.01" y2="1903.46" style="stroke:#000000;stroke-width:7.34"/>
	<line x1="3583.18" y1="1903.46" x2="3586.03" y2="1903.46" style="stroke:#000000;stroke-width:7.34"/>
	<line x1="3606.20" y1="1903.46" x2="3609.05" y2="1903.46" style="stroke:#000000;stroke-width:7.34"/>
	<line x1="3629.22" y1="1903.46" x2="3632.06" y2="1903.46" style="stroke:#000000;stroke-width:7.34"/>
	<line x1="3652.23" y1="1903.46" x2="3655.08" y2="1903.46" style="stroke:#000000;stroke-width:7.34"/>
	<line x1="3675.25" y1="1903.46" x2="3678.10" y2="1903.46" style="stroke:#000000;stroke-width:7.34"/>
	<line x1="3698.27" y1="1903.46" x2="3701.11" y2="1903.46" style="stroke:#000000;stroke-width:7.34"/>
	<line x1="3721.29" y1="1903.46" x2="3724.13" y2="1903.46" style="stroke:#000000;stroke-width:7.34"/>
	<line x1="3744.30" y1="1903.46" x2="3745.29" y2="1903.46" style="stroke:#000000;stroke-width:7.34"/>
	<line x1="3745.29" y1="1903.46" x2="3747.15" y2="1903.46" style="stroke:#000000;stroke-width:7.34"/>
	<line x1="3767.32" y1="1903.46" x2="3770.17" y2="1903.46" style="stroke:#000000;stroke-width:7.34"/>
	<path d="" stroke-linejoin="round" style="fill:none;stroke:#000000;stroke-width:7.34"/>
	<line x1="401.69" y1="2096.14" x2="401.69" y2="258.27" style="stroke:#000000;stroke-width:4.90"/>
	<line x1="401.69" y1="2042.31" x2="367.66" y2="2042.31" style="stroke:#000000;stroke-width:4.90"/>
	<text x="350.71" y="2072.10" style="font-family:'Helvetica';font-size:85.02px;fill:#000000" text-anchor="end">0</text>
	<line x1="401.69" y1="1886.26" x2="367.66" y2="1886.26" style="stroke:#000000;stroke-width:4.90"/>
	<text x="350.71" y="1916.04" style="font-family:'Helvetica';font-size:85.02px;fill:#000000" text-anchor="end">.001</text>
	<line x1="401.69" y1="1730.33" x2="367.66" y2="1730.33" style="stroke:#000000;stroke-width:4.90"/>
	<text x="350.71" y="1760.11" style="font-family:'Helvetica';font-size:85.02px;fill:#000000" text-anchor="end">.002</text>
	<line x1="401.69" y1="1574.27" x2="367.66" y2="1574.27" style="stroke:#000000;stroke-width:4.90"/>
	<text x="350.71" y="1604.06" style="font-family:'Helvetica';font-size:85.02px;fill:#000000" text-anchor="end">.003</text>
	<line x1="401.69" y1="1418.34" x2="367.66" y2="1418.34" style="stroke:#000000;stroke-width:4.90"/>
	<text x="350.71" y="1448.13" style="font-family:'Helvetica';font-size:85.02px;fill:#000000" text-anchor="end">.004</text>
	<line x1="401.69" y1="1262.29" x2="367.66" y2="1262.29" style="stroke:#000000;stroke-width:4.90"/>
	<text x="350.71" y="1292.08" style="font-family:'Helvetica';font-size:85.02px;fill:#000000" text-anchor="end">.005</text>
	<line x1="401.69" y1="1106.24" x2="367.66" y2="1106.24" style="stroke:#000000;stroke-width:4.90"/>
	<text x="350.71" y="1136.02" style="font-family:'Helvetica';font-size:85.02px;fill:#000000" text-anchor="end">.006</text>
	<line x1="401.69" y1="950.31" x2="367.66" y2="950.31" style="stroke:#000000;stroke-width:4.90"/>
	<text x="350.71" y="980.09" style="font-family:'Helvetica';font-size:85.02px;fill:#000000" text-anchor="end">.007</text>
	<line x1="401.69" y1="794.25" x2="367.66" y2="794.25" style="stroke:#000000;stroke-width:4.90"/>
	<text x="350.71" y="824.04" style="font-family:'Helvetica';font-size:85.02px;fill:#000000" text-anchor="end">.008</text>
	<line x1="401.69" y1="638.32" x2="367.66" y2="638.32" style="stroke:#000000;stroke-width:4.90"/>
	<text x="350.71" y="668.11" style="font-family:'Helvetica';font-size:85.02px;fill:#000000" text-anchor="end">.009</text>
	<line x1="401.69" y1="2096.14" x2="2078.51" y2="2096.14" style="stroke:#000000;stroke-width:4.90"/>
	<line x1="506.14" y1="2096.14" x2="506.14" y2="2113.10" style="stroke:#000000;stroke-width:4.90"/>
	<line x1="632.73" y1="2096.14" x2="632.73" y2="2113.10" style="stroke:#000000;stroke-width:4.90"/>
	<line x1="759.21" y1="2096.14" x2="759.21" y2="2113.10" style="stroke:#000000;stroke-width:4.90"/>
	<line x1="885.80" y1="2096.14" x2="885.80" y2="2113.10" style="stroke:#000000;stroke-width:4.90"/>
	<line x1="1012.27" y1="2096.14" x2="1012.27" y2="2113.10" style="stroke:#000000;stroke-width:4.90"/>
	<line x1="1138.87" y1="2096.14" x2="1138.87" y2="2113.10" style="stroke:#000000;stroke-width:4.90"/>
	<line x1="1265.47" y1="2096.14" x2="1265.47" y2="2113.10" style="stroke:#000000;stroke-width:4.90"/>
	<line x1="1391.94" y1="2096.14" x2="1391.94" y2="2113.10" style="stroke:#000000;stroke-width:4.90"/>
	<line x1="1518.54" y1="2096.14" x2="1518.54" y2="2113.10" style="stroke:#000000;stroke-width:4.90"/>
	<line x1="1645.01" y1="2096.14" x2="1645.01" y2="2113.10" style="stroke:#000000;stroke-width:4.90"/>
	<line x1="1771.61" y1="2096.14" x2="1771.61" y2="2113.10" style="stroke:#000000;stroke-width:4.90"/>
	<line x1="1898.20" y1="2096.14" x2="1898.20" y2="2113.10" style="stroke:#000000;stroke-width:4.90"/>
	<line x1="2024.67" y1="2096.14" x2="2024.67" y2="2113.10" style="stroke:#000000;stroke-width:4.90"/>
	<line x1="506.14" y1="2096.14" x2="506.14" y2="2130.18" style="stroke:#000000;stroke-width:4.90"/>
	<text x="506.14" y="2206.58" style="font-family:'Helvetica';font-size:85.02px;fill:#000000" text-anchor="middle">20</text>
	<line x1="1012.27" y1="2096.14" x2="1012.27" y2="2130.18" style="stroke:#000000;stroke-width:4.90"/>
	<text x="1012.27" y="2206.58" style="font-family:'Helvetica';font-size:85.02px;fill:#000000" text-anchor="middle">40</text>
	<line x1="1518.54" y1="2096.14" x2="1518.54" y2="2130.18" style="stroke:#000000;stroke-width:4.90"/>
	<text x="1518.54" y="2206.58" style="font-family:'Helvetica';font-size:85.02px;fill:#000000" text-anchor="middle">60</text>
	<line x1="2024.67" y1="2096.14" x2="2024.67" y2="2130.18" style="stroke:#000000;stroke-width:4.90"/>
	<text x="2024.67" y="2206.58" style="font-family:'Helvetica';font-size:85.02px;fill:#000000" text-anchor="middle">80</text>
	<line x1="2147.68" y1="2096.14" x2="3824.49" y2="2096.14" style="stroke:#000000;stroke-width:4.90"/>
	<line x1="2252.13" y1="2096.14" x2="2252.13" y2="2113.10" style="stroke:#000000;stroke-width:4.90"/>
	<line x1="2378.72" y1="2096.14" x2="2378.72" y2="2113.10" style="stroke:#000000;stroke-width:4.90"/>
	<line x1="2505.20" y1="2096.14" x2="2505.20" y2="2113.10" style="stroke:#000000;stroke-width:4.90"/>
	<line x1="2631.79" y1="2096.14" x2="2631.79" y2="2113.10" style="stroke:#000000;stroke-width:4.90"/>
	<line x1="2758.26" y1="2096.14" x2="2758.26" y2="2113.10" style="stroke:#000000;stroke-width:4.90"/>
	<line x1="2884.86" y1="2096.14" x2="2884.86" y2="2113.10" style="stroke:#000000;stroke-width:4.90"/>
	<line x1="3011.46" y1="2096.14" x2="3011.46" y2="2113.10" style="stroke:#000000;stroke-width:4.90"/>
	<line x1="3137.93" y1="2096.14" x2="3137.93" y2="2113.10" style="stroke:#000000;stroke-width:4.90"/>
	<line x1="3264.53" y1="2096.14" x2="3264.53" y2="2113.10" style="stroke:#000000;stroke-width:4.90"/>
	<line x1="3391.00" y1="2096.14" x2="3391.00" y2="2113.10" style="stroke:#000000;stroke-width:4.90"/>
	<line x1="3517.59" y1="2096.14" x2="3517.59" y2="2113.10" style="stroke:#000000;stroke-width:4.90"/>
	<line x1="3644.07" y1="2096.14" x2="3644.07" y2="2113.10" style="stroke:#000000;stroke-width:4.90"/>
	<line x1="3770.66" y1="2096.14" x2="3770.66" y2="2113.10" style="stroke:#000000;stroke-width:4.90"/>
	<line x1="2252.13" y1="2096.14" x2="2252.13" y2="2130.18" style="stroke:#000000;stroke-width:4.90"/>
	<text x="2252.13" y="2206.58" style="font-family:'Helvetica';font-size:85.02px;fill:#000000" text-anchor="middle">20</text>
	<line x1="2758.26" y1="2096.14" x2="2758.26" y2="2130.18" style="stroke:#000000;stroke-width:4.90"/>
	<text x="2758.26" y="2206.58" style="font-family:'Helvetica';font-size:85.02px;fill:#000000" text-anchor="middle">40</text>
	<line x1="3264.53" y1="2096.14" x2="3264.53" y2="2130.18" style="stroke:#000000;stroke-width:4.90"/>
	<text x="3264.53" y="2206.58" style="font-family:'Helvetica';font-size:85.02px;fill:#000000" text-anchor="middle">60</text>
	<line x1="3770.66" y1="2096.14" x2="3770.66" y2="2130.18" style="stroke:#000000;stroke-width:4.90"/>
	<text x="3770.66" y="2206.58" style="font-family:'Helvetica';font-size:85.02px;fill:#000000" text-anchor="middle">80</text>
	<rect x="401.69" y="135.39" width="1676.81" height="122.89" style="fill:#D9E6EB"/>
	<rect x="404.14" y="137.83" width="1671.92" height="117.99" style="fill:none;stroke:#D9E6EB;stroke-width:4.90"/>
	<text x="1240.10" y="215.42" style="font-family:'Helvetica';font-size:93.56px;fill:#000000" text-anchor="middle">Female</text>
	<rect x="2147.68" y="135.39" width="1676.81" height="122.89" style="fill:#D9E6EB"/>
	<rect x="2150.13" y="137.83" width="1671.92" height="117.99" style="fill:none;stroke:#D9E6EB;stroke-width:4.90"/>
	<text x="2986.09" y="215.42" style="font-family:'Helvetica';font-size:93.56px;fill:#000000" text-anchor="middle">Male</text>
	<rect x="334.25" y="2418.27" width="3291.38" height="326.34" style="fill:#FFFFFF"/>
	<rect x="337.13" y="2421.15" width="3285.62" height="320.58" style="fill:none;stroke:#000000;stroke-width:5.76"/>
	<line x1="377.44" y1="2511.46" x2="751.90" y2="2511.46" style="stroke:#008000;stroke-width:8.64"/>
	<line x1="2328.48" y1="2511.46" x2="2702.82" y2="2511.46" style="stroke:#FF0000;stroke-width:8.64"/>
	<line x1="377.44" y1="2651.43" x2="751.90" y2="2651.43" style="stroke:#FFD200;stroke-width:8.64"/>
	<line x1="2328.48" y1="2651.43" x2="2702.82" y2="2651.43" style="stroke:#1A476F;stroke-width:8.64"/>
	<text x="811.80" y="2546.49" style="font-family:'Helvetica';font-size:99.99px;fill:#000000">Spleen</text>
	<text x="2762.84" y="2546.49" style="font-family:'Helvetica';font-size:99.99px;fill:#000000">RA/SLE/Psoriasis</text>
	<text x="811.80" y="2686.46" style="font-family:'Helvetica';font-size:99.99px;fill:#000000">Immunosuppression (not HIV)</text>
	<text x="2762.84" y="2686.46" style="font-family:'Helvetica';font-size:99.99px;fill:#000000">No comborbidity</text>
	<text x="1980.00" y="2353.56" style="font-family:'Helvetica';font-size:99.99px;fill:#000000" text-anchor="middle">Age (years)</text>
</svg>
