<?xml version="1.0" encoding="UTF-8" standalone="no"?>
<!-- This is a Stata 16.1 generated SVG file (http://www.stata.com) -->

<svg version="1.1" width="1600px" height="1164px" viewBox="0 0 3960 2880" xmlns="http://www.w3.org/2000/svg" xmlns:xlink="http://www.w3.org/1999/xlink">
	<desc>Stata Graph - Graph</desc>
	<rect x="0" y="0" width="3960" height="2880" style="fill:#EAF2F3;stroke:none"/>
	<rect x="0.00" y="0.00" width="3959.88" height="2880.00" style="fill:#EAF2F3"/>
	<rect x="2.88" y="2.88" width="3954.12" height="2874.24" style="fill:none;stroke:#EAF2F3;stroke-width:5.76"/>
	<rect x="401.69" y="402.82" width="1676.81" height="1693.32" style="fill:#FFFFFF"/>
	<rect x="404.14" y="405.27" width="1671.92" height="1688.43" style="fill:none;stroke:#FFFFFF;stroke-width:4.90"/>
	<line x1="401.69" y1="2042.31" x2="2078.51" y2="2042.31" style="stroke:#EAF2F3;stroke-width:7.34"/>
	<line x1="401.69" y1="1866.08" x2="2078.51" y2="1866.08" style="stroke:#EAF2F3;stroke-width:7.34"/>
	<line x1="401.69" y1="1689.86" x2="2078.51" y2="1689.86" style="stroke:#EAF2F3;stroke-width:7.34"/>
	<line x1="401.69" y1="1513.76" x2="2078.51" y2="1513.76" style="stroke:#EAF2F3;stroke-width:7.34"/>
	<line x1="401.69" y1="1337.53" x2="2078.51" y2="1337.53" style="stroke:#EAF2F3;stroke-width:7.34"/>
	<line x1="401.69" y1="1161.43" x2="2078.51" y2="1161.43" style="stroke:#EAF2F3;stroke-width:7.34"/>
	<line x1="401.69" y1="985.20" x2="2078.51" y2="985.20" style="stroke:#EAF2F3;stroke-width:7.34"/>
	<line x1="401.69" y1="808.98" x2="2078.51" y2="808.98" style="stroke:#EAF2F3;stroke-width:7.34"/>
	<line x1="401.69" y1="632.88" x2="2078.51" y2="632.88" style="stroke:#EAF2F3;stroke-width:7.34"/>
	<rect x="2147.68" y="402.82" width="1676.81" height="1693.32" style="fill:#FFFFFF"/>
	<rect x="2150.13" y="405.27" width="1671.92" height="1688.43" style="fill:none;stroke:#FFFFFF;stroke-width:4.90"/>
	<line x1="2147.68" y1="2042.31" x2="3824.49" y2="2042.31" style="stroke:#EAF2F3;stroke-width:7.34"/>
	<line x1="2147.68" y1="1866.08" x2="3824.49" y2="1866.08" style="stroke:#EAF2F3;stroke-width:7.34"/>
	<line x1="2147.68" y1="1689.86" x2="3824.49" y2="1689.86" style="stroke:#EAF2F3;stroke-width:7.34"/>
	<line x1="2147.68" y1="1513.76" x2="3824.49" y2="1513.76" style="stroke:#EAF2F3;stroke-width:7.34"/>
	<line x1="2147.68" y1="1337.53" x2="3824.49" y2="1337.53" style="stroke:#EAF2F3;stroke-width:7.34"/>
	<line x1="2147.68" y1="1161.43" x2="3824.49" y2="1161.43" style="stroke:#EAF2F3;stroke-width:7.34"/>
	<line x1="2147.68" y1="985.20" x2="3824.49" y2="985.20" style="stroke:#EAF2F3;stroke-width:7.34"/>
	<line x1="2147.68" y1="808.98" x2="3824.49" y2="808.98" style="stroke:#EAF2F3;stroke-width:7.34"/>
	<line x1="2147.68" y1="632.88" x2="3824.49" y2="632.88" style="stroke:#EAF2F3;stroke-width:7.34"/>
	<defs>
		<path id="path_BqEOWwaG" d="M455.52 2033.15 L455.52 2033.15 L480.89 2032.29 L506.14 2031.30 L531.51 2030.31 L556.75 2029.07 L582.12 2027.83 L607.37 2026.47 L632.73 2024.86 L657.98 2023.25 L683.35 2021.52 L708.59 2019.66 L733.96 2017.68 L759.21 2015.70 L784.58 2013.48 L809.82 2011.25 L835.19 2009.02 L860.43 2006.67 L885.80 2004.19 L911.05 2001.84 L936.42 1999.49 L961.66 1997.26 L987.03 1995.04 L1012.27 1992.93 L1037.64 1990.95 L1062.89 1989.10 L1088.26 1987.49 L1113.50 1985.88 L1138.87 1984.39 L1164.24 1983.03 L1189.48 1981.79 L1214.85 1980.68 L1240.10 1979.57 L1265.47 1978.45 L1290.71 1977.34 L1316.08 1976.23 L1341.33 1974.99 L1366.69 1973.75 L1391.94 1972.27 L1417.31 1970.78 L1442.55 1968.92 L1467.92 1966.94 L1493.17 1964.59 L1518.54 1961.99 L1543.78 1959.02 L1569.15 1955.81 L1594.39 1952.34 L1619.76 1948.38 L1645.01 1944.05 L1670.38 1939.35 L1695.62 1934.15 L1720.99 1928.58 L1746.24 1922.52 L1771.61 1915.83 L1796.85 1908.66 L1822.22 1900.86 L1847.46 1892.57 L1872.83 1883.41 L1898.20 1873.76 L1923.45 1863.24 L1948.82 1851.98 L1974.06 1839.85 L1999.43 1826.85 L2024.67 1812.99 L2024.67 1782.80 L1999.43 1798.64 L1974.06 1813.37 L1948.82 1826.98 L1923.45 1839.85 L1898.20 1851.61 L1872.83 1862.62 L1847.46 1872.89 L1822.22 1882.30 L1796.85 1891.08 L1771.61 1899.25 L1746.24 1906.68 L1720.99 1913.61 L1695.62 1919.92 L1670.38 1925.73 L1645.01 1931.06 L1619.76 1935.88 L1594.39 1940.46 L1569.15 1944.42 L1543.78 1948.13 L1518.54 1951.47 L1493.17 1954.44 L1467.92 1957.04 L1442.55 1959.39 L1417.31 1961.50 L1391.94 1963.23 L1366.69 1964.84 L1341.33 1966.20 L1316.08 1967.56 L1290.71 1968.80 L1265.47 1969.91 L1240.10 1971.15 L1214.85 1972.27 L1189.48 1973.50 L1164.24 1974.86 L1138.87 1976.35 L1113.50 1977.83 L1088.26 1979.57 L1062.89 1981.55 L1037.64 1983.53 L1012.27 1985.88 L987.03 1988.23 L961.66 1990.83 L936.42 1993.43 L911.05 1996.15 L885.80 1998.75 L860.43 2001.47 L835.19 2004.07 L809.82 2006.55 L784.58 2009.02 L759.21 2011.25 L733.96 2013.48 L708.59 2015.58 L683.35 2017.56 L657.98 2019.42 L632.73 2021.15 L607.37 2022.76 L582.12 2024.24 L556.75 2025.60 L531.51 2026.84 L506.14 2027.95 L480.89 2029.07 L455.52 2030.06 L455.52 2033.15 Z" stroke-linejoin="round"/>
	</defs>
	<defs>
		<clipPath id="clipPath_vcmaZJci">
			<use xlink:href="#path_BqEOWwaG"/>
		</clipPath>
	</defs>
	<use xlink:href="#path_BqEOWwaG" style="stroke:none;fill:#E6E6E6"/>
	<use xlink:href="#path_BqEOWwaG" style="fill:none;stroke:#E0E0E0;stroke-width:14.69" clip-path="url(#clipPath_vcmaZJci)"/>
	<defs>
		<path id="path_lnwgLYCq" d="M455.52 2022.76 L455.52 2022.76 L480.89 2020.78 L506.14 2018.67 L531.51 2016.45 L556.75 2013.85 L582.12 2011.12 L607.37 2008.15 L632.73 2004.94 L657.98 2001.47 L683.35 1997.76 L708.59 1993.80 L733.96 1989.59 L759.21 1985.14 L784.58 1980.56 L809.82 1975.73 L835.19 1970.78 L860.43 1965.83 L885.80 1960.76 L911.05 1955.56 L936.42 1950.61 L961.66 1945.66 L987.03 1940.83 L1012.27 1936.25 L1037.64 1932.05 L1062.89 1928.09 L1088.26 1924.37 L1113.50 1921.03 L1138.87 1917.94 L1164.24 1914.97 L1189.48 1912.24 L1214.85 1909.65 L1240.10 1907.17 L1265.47 1904.82 L1290.71 1902.34 L1316.08 1899.87 L1341.33 1897.27 L1366.69 1894.42 L1391.94 1891.33 L1417.31 1887.87 L1442.55 1883.91 L1467.92 1879.45 L1493.17 1874.38 L1518.54 1868.68 L1543.78 1862.37 L1569.15 1855.32 L1594.39 1847.65 L1619.76 1838.98 L1645.01 1829.70 L1670.38 1819.43 L1695.62 1808.17 L1720.99 1796.04 L1746.24 1782.80 L1771.61 1768.32 L1796.85 1752.73 L1822.22 1735.90 L1847.46 1717.58 L1872.83 1697.90 L1898.20 1676.74 L1923.45 1653.85 L1948.82 1629.34 L1974.06 1603.11 L1999.43 1574.89 L2024.67 1544.82 L2024.67 1481.83 L1999.43 1515.74 L1974.06 1547.42 L1948.82 1577.00 L1923.45 1604.47 L1898.20 1630.09 L1872.83 1653.85 L1847.46 1675.87 L1822.22 1696.17 L1796.85 1715.10 L1771.61 1732.55 L1746.24 1748.64 L1720.99 1763.49 L1695.62 1777.11 L1670.38 1789.73 L1645.01 1801.11 L1619.76 1811.76 L1594.39 1821.29 L1569.15 1830.07 L1543.78 1837.99 L1518.54 1845.05 L1493.17 1851.48 L1467.92 1857.17 L1442.55 1862.25 L1417.31 1866.58 L1391.94 1870.42 L1366.69 1873.76 L1341.33 1876.73 L1316.08 1879.57 L1290.71 1882.17 L1265.47 1884.65 L1240.10 1887.12 L1214.85 1889.72 L1189.48 1892.32 L1164.24 1895.17 L1138.87 1898.26 L1113.50 1901.73 L1088.26 1905.44 L1062.89 1909.52 L1037.64 1913.98 L1012.27 1918.93 L987.03 1924.13 L961.66 1929.69 L936.42 1935.39 L911.05 1941.20 L885.80 1947.14 L860.43 1952.96 L835.19 1958.65 L809.82 1964.10 L784.58 1969.42 L759.21 1974.49 L733.96 1979.44 L708.59 1984.02 L683.35 1988.23 L657.98 1992.31 L632.73 1996.03 L607.37 1999.61 L582.12 2002.83 L556.75 2005.80 L531.51 2008.65 L506.14 2011.25 L480.89 2013.60 L455.52 2015.70 L455.52 2022.76 Z" stroke-linejoin="round"/>
	</defs>
	<defs>
		<clipPath id="clipPath_uMZNzMpm">
			<use xlink:href="#path_lnwgLYCq"/>
		</clipPath>
	</defs>
	<use xlink:href="#path_lnwgLYCq" style="stroke:none;fill:#E6E6E6"/>
	<use xlink:href="#path_lnwgLYCq" style="fill:none;stroke:#E0E0E0;stroke-width:14.69" clip-path="url(#clipPath_uMZNzMpm)"/>
	<defs>
		<path id="path_PyPMQJaj" d="M455.52 2005.93 L455.52 2005.93 L480.89 2002.34 L506.14 1998.50 L531.51 1994.17 L556.75 1989.47 L582.12 1984.39 L607.37 1978.82 L632.73 1972.88 L657.98 1966.33 L683.35 1959.39 L708.59 1952.09 L733.96 1944.30 L759.21 1936.13 L784.58 1927.59 L809.82 1918.68 L835.19 1909.52 L860.43 1900.24 L885.80 1890.84 L911.05 1881.43 L936.42 1872.02 L961.66 1862.87 L987.03 1853.96 L1012.27 1845.54 L1037.64 1837.62 L1062.89 1830.32 L1088.26 1823.51 L1113.50 1817.33 L1138.87 1811.51 L1164.24 1806.06 L1189.48 1800.99 L1214.85 1796.29 L1240.10 1791.71 L1265.47 1787.13 L1290.71 1782.67 L1316.08 1778.10 L1341.33 1773.15 L1366.69 1767.95 L1391.94 1762.26 L1417.31 1755.82 L1442.55 1748.52 L1467.92 1740.23 L1493.17 1730.70 L1518.54 1720.18 L1543.78 1708.42 L1569.15 1695.30 L1594.39 1680.83 L1619.76 1664.86 L1645.01 1647.41 L1670.38 1628.35 L1695.62 1607.44 L1720.99 1584.67 L1746.24 1559.92 L1771.61 1533.19 L1796.85 1504.10 L1822.22 1472.55 L1847.46 1438.51 L1872.83 1401.88 L1898.20 1362.28 L1923.45 1319.71 L1948.82 1273.92 L1974.06 1224.92 L1999.43 1172.32 L2024.67 1116.14 L2024.67 1000.43 L1999.43 1063.17 L1974.06 1121.83 L1948.82 1176.53 L1923.45 1227.39 L1898.20 1274.79 L1872.83 1318.72 L1847.46 1359.56 L1822.22 1397.43 L1796.85 1432.33 L1771.61 1464.75 L1746.24 1494.70 L1720.99 1522.17 L1695.62 1547.54 L1670.38 1570.93 L1645.01 1592.22 L1619.76 1611.89 L1594.39 1629.71 L1569.15 1645.93 L1543.78 1660.65 L1518.54 1674.02 L1493.17 1685.90 L1467.92 1696.42 L1442.55 1705.82 L1417.31 1713.87 L1391.94 1721.05 L1366.69 1727.23 L1341.33 1732.93 L1316.08 1738.12 L1290.71 1742.95 L1265.47 1747.65 L1240.10 1752.23 L1214.85 1757.06 L1189.48 1762.01 L1164.24 1767.33 L1138.87 1773.15 L1113.50 1779.58 L1088.26 1786.51 L1062.89 1794.18 L1037.64 1802.60 L1012.27 1811.76 L987.03 1821.53 L961.66 1831.93 L936.42 1842.70 L911.05 1853.59 L885.80 1864.48 L860.43 1875.37 L835.19 1886.01 L809.82 1896.40 L784.58 1906.30 L759.21 1915.83 L733.96 1924.87 L708.59 1933.41 L683.35 1941.45 L657.98 1949.00 L632.73 1956.05 L607.37 1962.61 L582.12 1968.68 L556.75 1974.37 L531.51 1979.57 L506.14 1984.39 L480.89 1988.72 L455.52 1992.81 L455.52 2005.93 Z" stroke-linejoin="round"/>
	</defs>
	<defs>
		<clipPath id="clipPath_qEvbeWMg">
			<use xlink:href="#path_PyPMQJaj"/>
		</clipPath>
	</defs>
	<use xlink:href="#path_PyPMQJaj" style="stroke:none;fill:#E6E6E6"/>
	<use xlink:href="#path_PyPMQJaj" style="fill:none;stroke:#E0E0E0;stroke-width:14.69" clip-path="url(#clipPath_qEvbeWMg)"/>
	<line x1="455.52" y1="1937.86" x2="458.37" y2="1937.86" style="stroke:#A0A0A0;stroke-width:7.34"/>
	<line x1="478.54" y1="1937.86" x2="480.77" y2="1937.86" style="stroke:#A0A0A0;stroke-width:7.34"/>
	<line x1="480.77" y1="1937.86" x2="481.39" y2="1937.86" style="stroke:#A0A0A0;stroke-width:7.34"/>
	<line x1="501.56" y1="1937.86" x2="504.40" y2="1937.86" style="stroke:#A0A0A0;stroke-width:7.34"/>
	<line x1="524.58" y1="1937.86" x2="527.42" y2="1937.86" style="stroke:#A0A0A0;stroke-width:7.34"/>
	<line x1="547.59" y1="1937.86" x2="550.44" y2="1937.86" style="stroke:#A0A0A0;stroke-width:7.34"/>
	<line x1="570.61" y1="1937.86" x2="573.58" y2="1937.86" style="stroke:#A0A0A0;stroke-width:7.34"/>
	<line x1="593.75" y1="1937.86" x2="596.60" y2="1937.86" style="stroke:#A0A0A0;stroke-width:7.34"/>
	<line x1="616.77" y1="1937.86" x2="619.62" y2="1937.86" style="stroke:#A0A0A0;stroke-width:7.34"/>
	<line x1="639.79" y1="1937.86" x2="642.63" y2="1937.86" style="stroke:#A0A0A0;stroke-width:7.34"/>
	<line x1="662.80" y1="1937.86" x2="665.65" y2="1937.86" style="stroke:#A0A0A0;stroke-width:7.34"/>
	<line x1="685.82" y1="1937.86" x2="688.67" y2="1937.86" style="stroke:#A0A0A0;stroke-width:7.34"/>
	<line x1="708.84" y1="1937.86" x2="711.69" y2="1937.86" style="stroke:#A0A0A0;stroke-width:7.34"/>
	<line x1="731.86" y1="1937.86" x2="733.84" y2="1937.86" style="stroke:#A0A0A0;stroke-width:7.34"/>
	<line x1="733.84" y1="1937.86" x2="734.70" y2="1937.86" style="stroke:#A0A0A0;stroke-width:7.34"/>
	<line x1="754.88" y1="1937.86" x2="757.72" y2="1937.86" style="stroke:#A0A0A0;stroke-width:7.34"/>
	<line x1="777.89" y1="1937.86" x2="780.74" y2="1937.86" style="stroke:#A0A0A0;stroke-width:7.34"/>
	<line x1="800.91" y1="1937.86" x2="803.88" y2="1937.86" style="stroke:#A0A0A0;stroke-width:7.34"/>
	<line x1="823.93" y1="1937.86" x2="826.90" y2="1937.86" style="stroke:#A0A0A0;stroke-width:7.34"/>
	<line x1="847.07" y1="1937.86" x2="849.91" y2="1937.86" style="stroke:#A0A0A0;stroke-width:7.34"/>
	<line x1="870.09" y1="1937.86" x2="872.93" y2="1937.86" style="stroke:#A0A0A0;stroke-width:7.34"/>
	<line x1="893.10" y1="1937.86" x2="895.95" y2="1937.86" style="stroke:#A0A0A0;stroke-width:7.34"/>
	<line x1="916.12" y1="1937.86" x2="918.97" y2="1937.86" style="stroke:#A0A0A0;stroke-width:7.34"/>
	<line x1="939.14" y1="1937.86" x2="941.99" y2="1937.86" style="stroke:#A0A0A0;stroke-width:7.34"/>
	<line x1="962.16" y1="1937.86" x2="965.00" y2="1937.86" style="stroke:#A0A0A0;stroke-width:7.34"/>
	<line x1="985.17" y1="1937.86" x2="986.91" y2="1937.86" style="stroke:#A0A0A0;stroke-width:7.34"/>
	<line x1="986.91" y1="1937.86" x2="988.02" y2="1937.86" style="stroke:#A0A0A0;stroke-width:7.34"/>
	<line x1="1008.19" y1="1937.86" x2="1011.04" y2="1937.86" style="stroke:#A0A0A0;stroke-width:7.34"/>
	<line x1="1031.21" y1="1937.86" x2="1034.06" y2="1937.86" style="stroke:#A0A0A0;stroke-width:7.34"/>
	<line x1="1054.23" y1="1937.86" x2="1057.20" y2="1937.86" style="stroke:#A0A0A0;stroke-width:7.34"/>
	<line x1="1077.24" y1="1937.86" x2="1080.21" y2="1937.86" style="stroke:#A0A0A0;stroke-width:7.34"/>
	<line x1="1100.38" y1="1937.86" x2="1103.23" y2="1937.86" style="stroke:#A0A0A0;stroke-width:7.34"/>
	<line x1="1123.40" y1="1937.86" x2="1126.25" y2="1937.86" style="stroke:#A0A0A0;stroke-width:7.34"/>
	<line x1="1146.42" y1="1937.86" x2="1149.27" y2="1937.86" style="stroke:#A0A0A0;stroke-width:7.34"/>
	<line x1="1169.44" y1="1937.86" x2="1172.28" y2="1937.86" style="stroke:#A0A0A0;stroke-width:7.34"/>
	<line x1="1192.45" y1="1937.86" x2="1195.30" y2="1937.86" style="stroke:#A0A0A0;stroke-width:7.34"/>
	<line x1="1215.47" y1="1937.86" x2="1218.32" y2="1937.86" style="stroke:#A0A0A0;stroke-width:7.34"/>
	<line x1="1238.49" y1="1937.86" x2="1240.10" y2="1937.86" style="stroke:#A0A0A0;stroke-width:7.34"/>
	<line x1="1240.10" y1="1937.86" x2="1241.34" y2="1937.86" style="stroke:#A0A0A0;stroke-width:7.34"/>
	<line x1="1261.51" y1="1937.86" x2="1264.35" y2="1937.86" style="stroke:#A0A0A0;stroke-width:7.34"/>
	<line x1="1284.53" y1="1937.86" x2="1287.37" y2="1937.86" style="stroke:#A0A0A0;stroke-width:7.34"/>
	<line x1="1307.54" y1="1937.86" x2="1310.51" y2="1937.86" style="stroke:#A0A0A0;stroke-width:7.34"/>
	<line x1="1330.56" y1="1937.86" x2="1333.53" y2="1937.86" style="stroke:#A0A0A0;stroke-width:7.34"/>
	<line x1="1353.70" y1="1937.86" x2="1356.55" y2="1937.86" style="stroke:#A0A0A0;stroke-width:7.34"/>
	<line x1="1376.72" y1="1937.86" x2="1379.57" y2="1937.86" style="stroke:#A0A0A0;stroke-width:7.34"/>
	<line x1="1399.74" y1="1937.86" x2="1402.58" y2="1937.86" style="stroke:#A0A0A0;stroke-width:7.34"/>
	<line x1="1422.75" y1="1937.86" x2="1425.60" y2="1937.86" style="stroke:#A0A0A0;stroke-width:7.34"/>
	<line x1="1445.77" y1="1937.86" x2="1448.62" y2="1937.86" style="stroke:#A0A0A0;stroke-width:7.34"/>
	<line x1="1468.79" y1="1937.86" x2="1471.63" y2="1937.86" style="stroke:#A0A0A0;stroke-width:7.34"/>
	<line x1="1491.81" y1="1937.86" x2="1493.17" y2="1937.86" style="stroke:#A0A0A0;stroke-width:7.34"/>
	<line x1="1493.17" y1="1937.86" x2="1494.65" y2="1937.86" style="stroke:#A0A0A0;stroke-width:7.34"/>
	<line x1="1514.82" y1="1937.86" x2="1517.67" y2="1937.86" style="stroke:#A0A0A0;stroke-width:7.34"/>
	<line x1="1537.84" y1="1937.86" x2="1540.69" y2="1937.86" style="stroke:#A0A0A0;stroke-width:7.34"/>
	<line x1="1560.86" y1="1937.86" x2="1563.83" y2="1937.86" style="stroke:#A0A0A0;stroke-width:7.34"/>
	<line x1="1584.00" y1="1937.86" x2="1586.85" y2="1937.86" style="stroke:#A0A0A0;stroke-width:7.34"/>
	<line x1="1607.02" y1="1937.86" x2="1609.86" y2="1937.86" style="stroke:#A0A0A0;stroke-width:7.34"/>
	<line x1="1630.04" y1="1937.86" x2="1632.88" y2="1937.86" style="stroke:#A0A0A0;stroke-width:7.34"/>
	<line x1="1653.05" y1="1937.86" x2="1655.90" y2="1937.86" style="stroke:#A0A0A0;stroke-width:7.34"/>
	<line x1="1676.07" y1="1937.86" x2="1678.92" y2="1937.86" style="stroke:#A0A0A0;stroke-width:7.34"/>
	<line x1="1699.09" y1="1937.86" x2="1701.93" y2="1937.86" style="stroke:#A0A0A0;stroke-width:7.34"/>
	<line x1="1722.11" y1="1937.86" x2="1724.95" y2="1937.86" style="stroke:#A0A0A0;stroke-width:7.34"/>
	<line x1="1745.12" y1="1937.86" x2="1746.24" y2="1937.86" style="stroke:#A0A0A0;stroke-width:7.34"/>
	<line x1="1746.24" y1="1937.86" x2="1747.97" y2="1937.86" style="stroke:#A0A0A0;stroke-width:7.34"/>
	<line x1="1768.14" y1="1937.86" x2="1770.99" y2="1937.86" style="stroke:#A0A0A0;stroke-width:7.34"/>
	<line x1="1791.16" y1="1937.86" x2="1794.00" y2="1937.86" style="stroke:#A0A0A0;stroke-width:7.34"/>
	<line x1="1814.17" y1="1937.86" x2="1817.14" y2="1937.86" style="stroke:#A0A0A0;stroke-width:7.34"/>
	<line x1="1837.32" y1="1937.86" x2="1840.16" y2="1937.86" style="stroke:#A0A0A0;stroke-width:7.34"/>
	<line x1="1860.33" y1="1937.86" x2="1863.18" y2="1937.86" style="stroke:#A0A0A0;stroke-width:7.34"/>
	<line x1="1883.35" y1="1937.86" x2="1886.20" y2="1937.86" style="stroke:#A0A0A0;stroke-width:7.34"/>
	<line x1="1906.37" y1="1937.86" x2="1909.21" y2="1937.86" style="stroke:#A0A0A0;stroke-width:7.34"/>
	<line x1="1929.39" y1="1937.86" x2="1932.23" y2="1937.86" style="stroke:#A0A0A0;stroke-width:7.34"/>
	<line x1="1952.40" y1="1937.86" x2="1955.25" y2="1937.86" style="stroke:#A0A0A0;stroke-width:7.34"/>
	<line x1="1975.42" y1="1937.86" x2="1978.27" y2="1937.86" style="stroke:#A0A0A0;stroke-width:7.34"/>
	<line x1="1998.44" y1="1937.86" x2="1999.31" y2="1937.86" style="stroke:#A0A0A0;stroke-width:7.34"/>
	<line x1="1999.31" y1="1937.86" x2="2001.29" y2="1937.86" style="stroke:#A0A0A0;stroke-width:7.34"/>
	<line x1="2021.46" y1="1937.86" x2="2024.30" y2="1937.86" style="stroke:#A0A0A0;stroke-width:7.34"/>
	<path d="" stroke-linejoin="round" style="fill:none;stroke:#A0A0A0;stroke-width:7.34"/>
	<path d=" M455.52 2019.54 L480.77 2017.56 L506.14 2015.33 L531.38 2012.86 L556.75 2010.13 L582.00 2007.29 L607.37 2004.19 L632.61 2000.85 L657.98 1997.14 L683.22 1993.30 L708.59 1989.10 L733.84 1984.76 L759.21 1980.19 L784.45 1975.24 L809.82 1970.29 L835.07 1964.96 L860.43 1959.64 L885.68 1954.20 L911.05 1948.75 L936.29 1943.31 L961.66 1937.99 L986.91 1932.91 L1012.27 1927.96 L1037.52 1923.38 L1062.89 1919.17 L1088.13 1915.34 L1113.50 1911.75 L1138.87 1908.53 L1164.12 1905.56 L1189.48 1902.72 L1214.73 1900.12 L1240.10 1897.52 L1265.34 1895.17 L1290.71 1892.69 L1315.96 1890.09 L1341.33 1887.37 L1366.57 1884.52 L1391.94 1881.31 L1417.18 1877.59 L1442.55 1873.51 L1467.80 1868.81 L1493.17 1863.36 L1518.41 1857.42 L1543.78 1850.62 L1569.03 1843.19 L1594.39 1834.90 L1619.64 1825.86 L1645.01 1815.96 L1670.25 1805.07 L1695.62 1793.19 L1720.87 1780.32 L1746.24 1766.22 L1771.48 1750.99 L1796.85 1734.53 L1822.10 1716.71 L1847.46 1697.41 L1872.71 1676.62 L1898.08 1654.09 L1923.45 1629.96 L1948.69 1604.10 L1974.06 1576.13 L1999.31 1546.30 L2024.67 1514.38" stroke-linejoin="round" style="fill:none;stroke:#008000;stroke-width:7.34"/>
	<path d=" M455.52 1999.99 L480.77 1996.15 L506.14 1991.94 L531.38 1987.36 L556.75 1982.41 L582.00 1977.09 L607.37 1971.28 L632.61 1964.96 L657.98 1958.16 L683.22 1950.98 L708.59 1943.31 L733.84 1935.14 L759.21 1926.48 L784.45 1917.44 L809.82 1908.04 L835.07 1898.26 L860.43 1888.36 L885.68 1878.21 L911.05 1868.06 L936.29 1858.04 L961.66 1848.02 L986.91 1838.49 L1012.27 1829.33 L1037.52 1820.91 L1062.89 1812.99 L1088.13 1805.82 L1113.50 1799.26 L1138.87 1793.07 L1164.12 1787.50 L1189.48 1782.30 L1214.73 1777.48 L1240.10 1772.77 L1265.34 1768.20 L1290.71 1763.62 L1315.96 1758.79 L1341.33 1753.84 L1366.57 1748.39 L1391.94 1742.33 L1417.18 1735.65 L1442.55 1727.98 L1467.80 1719.06 L1493.17 1709.16 L1518.41 1697.90 L1543.78 1685.40 L1569.03 1671.54 L1594.39 1656.20 L1619.64 1639.24 L1645.01 1620.80 L1670.25 1600.63 L1695.62 1578.48 L1720.87 1554.47 L1746.24 1528.36 L1771.48 1500.14 L1796.85 1469.45 L1822.10 1436.16 L1847.46 1400.28 L1872.71 1361.66 L1898.08 1319.83 L1923.45 1275.04 L1948.69 1226.77 L1974.06 1174.92 L1999.31 1119.48 L2024.67 1060.08" stroke-linejoin="round" style="fill:none;stroke:#FF7F00;stroke-width:7.34"/>
	<path d=" M455.52 2031.79 L480.77 2030.92 L506.14 2029.81 L531.38 2028.70 L556.75 2027.46 L582.00 2026.22 L607.37 2024.74 L632.61 2023.13 L657.98 2021.52 L683.22 2019.66 L708.59 2017.81 L733.84 2015.70 L759.21 2013.60 L784.45 2011.37 L809.82 2009.02 L835.07 2006.67 L860.43 2004.19 L885.68 2001.72 L911.05 1999.12 L936.29 1996.64 L961.66 1994.17 L986.91 1991.82 L1012.27 1989.59 L1037.52 1987.49 L1062.89 1985.51 L1088.13 1983.77 L1113.50 1982.04 L1138.87 1980.56 L1164.12 1979.20 L1189.48 1977.83 L1214.73 1976.72 L1240.10 1975.48 L1265.34 1974.37 L1290.71 1973.26 L1315.96 1972.02 L1341.33 1970.78 L1366.57 1969.42 L1391.94 1967.93 L1417.18 1966.33 L1442.55 1964.35 L1467.80 1962.24 L1493.17 1959.77 L1518.41 1956.92 L1543.78 1953.83 L1569.03 1950.36 L1594.39 1946.65 L1619.64 1942.44 L1645.01 1937.86 L1670.25 1932.79 L1695.62 1927.34 L1720.87 1921.40 L1746.24 1914.84 L1771.48 1907.79 L1796.85 1900.24 L1822.10 1891.95 L1847.46 1883.04 L1872.71 1873.51 L1898.08 1863.11 L1923.45 1851.98 L1948.69 1839.97 L1974.06 1827.10 L1999.31 1813.24 L2024.67 1798.51" stroke-linejoin="round" style="fill:none;stroke:#1A476F;stroke-width:7.34"/>
	<defs>
		<path id="path_gLAECuOB" d="M2201.51 2029.56 L2201.51 2029.56 L2226.88 2028.33 L2252.13 2026.96 L2277.49 2025.48 L2302.74 2023.87 L2328.11 2022.14 L2353.35 2020.16 L2378.72 2018.05 L2403.97 2015.70 L2429.34 2013.35 L2454.58 2010.75 L2479.95 2008.03 L2505.20 2005.06 L2530.56 2002.09 L2555.81 1999.00 L2581.18 1995.78 L2606.42 1992.44 L2631.79 1989.22 L2657.04 1985.88 L2682.41 1982.66 L2707.65 1979.44 L2733.02 1976.35 L2758.26 1973.38 L2783.63 1970.66 L2808.88 1968.06 L2834.25 1965.71 L2859.49 1963.48 L2884.86 1961.50 L2910.11 1959.64 L2935.47 1957.91 L2960.72 1956.18 L2986.09 1954.69 L3011.46 1953.08 L3036.70 1951.60 L3062.07 1949.99 L3087.32 1948.38 L3112.68 1946.52 L3137.93 1944.54 L3163.30 1942.32 L3188.54 1939.84 L3213.91 1937.00 L3239.16 1933.78 L3264.53 1930.19 L3289.77 1926.11 L3315.14 1921.65 L3340.38 1916.58 L3365.75 1911.13 L3391.00 1905.19 L3416.37 1898.63 L3441.61 1891.45 L3466.98 1883.53 L3492.22 1875.12 L3517.59 1865.84 L3542.84 1855.81 L3568.21 1845.05 L3593.45 1833.41 L3618.82 1820.79 L3644.07 1807.18 L3669.43 1792.57 L3694.68 1776.86 L3720.05 1760.03 L3745.42 1741.96 L3770.66 1722.78 L3770.66 1679.46 L3745.42 1701.49 L3720.05 1722.16 L3694.68 1741.34 L3669.43 1759.16 L3644.07 1775.87 L3618.82 1791.21 L3593.45 1805.57 L3568.21 1818.81 L3542.84 1831.06 L3517.59 1842.32 L3492.22 1852.84 L3466.98 1862.50 L3441.61 1871.28 L3416.37 1879.45 L3391.00 1886.88 L3365.75 1893.81 L3340.38 1899.99 L3315.14 1905.69 L3289.77 1910.76 L3264.53 1915.46 L3239.16 1919.67 L3213.91 1923.26 L3188.54 1926.60 L3163.30 1929.45 L3137.93 1931.92 L3112.68 1934.15 L3087.32 1936.13 L3062.07 1937.86 L3036.70 1939.59 L3011.46 1941.20 L2986.09 1942.94 L2960.72 1944.54 L2935.47 1946.28 L2910.11 1948.13 L2884.86 1950.11 L2859.49 1952.34 L2834.25 1954.82 L2808.88 1957.41 L2783.63 1960.26 L2758.26 1963.48 L2733.02 1966.82 L2707.65 1970.41 L2682.41 1974.00 L2657.04 1977.83 L2631.79 1981.55 L2606.42 1985.26 L2581.18 1988.85 L2555.81 1992.44 L2530.56 1995.78 L2505.20 1999.00 L2479.95 2002.09 L2454.58 2005.06 L2429.34 2007.78 L2403.97 2010.26 L2378.72 2012.73 L2353.35 2014.96 L2328.11 2017.06 L2302.74 2018.92 L2277.49 2020.78 L2252.13 2022.39 L2226.88 2023.87 L2201.51 2025.23 L2201.51 2029.56 Z" stroke-linejoin="round"/>
	</defs>
	<defs>
		<clipPath id="clipPath_QosStzqs">
			<use xlink:href="#path_gLAECuOB"/>
		</clipPath>
	</defs>
	<use xlink:href="#path_gLAECuOB" style="stroke:none;fill:#E6E6E6"/>
	<use xlink:href="#path_gLAECuOB" style="fill:none;stroke:#E0E0E0;stroke-width:14.69" clip-path="url(#clipPath_QosStzqs)"/>
	<defs>
		<path id="path_WAEJVJIv" d="M2201.51 2014.96 L2201.51 2014.96 L2226.88 2012.36 L2252.13 2009.39 L2277.49 2006.17 L2302.74 2002.59 L2328.11 1998.75 L2353.35 1994.66 L2378.72 1990.09 L2403.97 1985.26 L2429.34 1980.06 L2454.58 1974.49 L2479.95 1968.55 L2505.20 1962.49 L2530.56 1955.93 L2555.81 1949.25 L2581.18 1942.44 L2606.42 1935.39 L2631.79 1928.33 L2657.04 1921.16 L2682.41 1914.10 L2707.65 1907.29 L2733.02 1900.61 L2758.26 1894.18 L2783.63 1888.24 L2808.88 1882.79 L2834.25 1877.59 L2859.49 1872.89 L2884.86 1868.56 L2910.11 1864.48 L2935.47 1860.64 L2960.72 1857.05 L2986.09 1853.59 L3011.46 1850.12 L3036.70 1846.78 L3062.07 1843.31 L3087.32 1839.60 L3112.68 1835.64 L3137.93 1831.31 L3163.30 1826.48 L3188.54 1821.04 L3213.91 1814.85 L3239.16 1807.80 L3264.53 1799.75 L3289.77 1790.97 L3315.14 1781.19 L3340.38 1770.30 L3365.75 1758.42 L3391.00 1745.30 L3416.37 1730.95 L3441.61 1715.35 L3466.98 1698.40 L3492.22 1679.83 L3517.59 1659.79 L3542.84 1638.01 L3568.21 1614.49 L3593.45 1589.12 L3618.82 1561.65 L3644.07 1532.20 L3669.43 1500.39 L3694.68 1466.24 L3720.05 1429.73 L3745.42 1390.50 L3770.66 1348.67 L3770.66 1259.32 L3745.42 1306.72 L3720.05 1351.02 L3694.68 1392.35 L3669.43 1430.84 L3644.07 1466.61 L3618.82 1499.77 L3593.45 1530.59 L3568.21 1559.05 L3542.84 1585.41 L3517.59 1609.79 L3492.22 1632.31 L3466.98 1653.10 L3441.61 1672.16 L3416.37 1689.74 L3391.00 1705.82 L3365.75 1720.43 L3340.38 1733.92 L3315.14 1746.17 L3289.77 1757.18 L3264.53 1767.08 L3239.16 1776.12 L3213.91 1784.04 L3188.54 1790.97 L3163.30 1797.15 L3137.93 1802.35 L3112.68 1807.05 L3087.32 1811.39 L3062.07 1815.22 L3036.70 1818.81 L3011.46 1822.28 L2986.09 1825.74 L2960.72 1829.33 L2935.47 1833.04 L2910.11 1837.00 L2884.86 1841.33 L2859.49 1846.04 L2834.25 1851.23 L2808.88 1856.93 L2783.63 1863.24 L2758.26 1870.04 L2733.02 1877.35 L2707.65 1885.14 L2682.41 1893.19 L2657.04 1901.23 L2631.79 1909.40 L2606.42 1917.57 L2581.18 1925.49 L2555.81 1933.16 L2530.56 1940.58 L2505.20 1947.76 L2479.95 1954.44 L2454.58 1960.88 L2429.34 1966.94 L2403.97 1972.51 L2378.72 1977.83 L2353.35 1982.66 L2328.11 1987.24 L2302.74 1991.45 L2277.49 1995.28 L2252.13 1998.87 L2226.88 2002.21 L2201.51 2005.31 L2201.51 2014.96 Z" stroke-linejoin="round"/>
	</defs>
	<defs>
		<clipPath id="clipPath_hbPqozBM">
			<use xlink:href="#path_WAEJVJIv"/>
		</clipPath>
	</defs>
	<use xlink:href="#path_WAEJVJIv" style="stroke:none;fill:#E6E6E6"/>
	<use xlink:href="#path_WAEJVJIv" style="fill:none;stroke:#E0E0E0;stroke-width:14.69" clip-path="url(#clipPath_hbPqozBM)"/>
	<defs>
		<path id="path_dAywzhQZ" d="M2201.51 1991.45 L2201.51 1991.45 L2226.88 1986.50 L2252.13 1981.05 L2277.49 1974.99 L2302.74 1968.43 L2328.11 1961.38 L2353.35 1953.58 L2378.72 1945.16 L2403.97 1936.13 L2429.34 1926.48 L2454.58 1916.20 L2479.95 1905.31 L2505.20 1893.81 L2530.56 1881.93 L2555.81 1869.43 L2581.18 1856.68 L2606.42 1843.69 L2631.79 1830.57 L2657.04 1817.33 L2682.41 1804.33 L2707.65 1791.46 L2733.02 1779.09 L2758.26 1767.33 L2783.63 1756.31 L2808.88 1746.04 L2834.25 1736.51 L2859.49 1727.73 L2884.86 1719.68 L2910.11 1712.13 L2935.47 1704.96 L2960.72 1698.27 L2986.09 1691.96 L3011.46 1685.65 L3036.70 1679.34 L3062.07 1672.78 L3087.32 1666.10 L3112.68 1658.67 L3137.93 1650.63 L3163.30 1641.72 L3188.54 1631.45 L3213.91 1619.81 L3239.16 1606.70 L3264.53 1591.97 L3289.77 1575.39 L3315.14 1557.19 L3340.38 1536.90 L3365.75 1514.75 L3391.00 1490.37 L3416.37 1463.64 L3441.61 1434.55 L3466.98 1402.87 L3492.22 1368.35 L3517.59 1330.97 L3542.84 1290.38 L3568.21 1246.57 L3593.45 1199.17 L3618.82 1147.94 L3644.07 1092.87 L3669.43 1033.59 L3694.68 969.86 L3720.05 901.55 L3745.42 828.41 L3770.66 750.20 L3770.66 588.82 L3745.42 676.44 L3720.05 758.36 L3694.68 834.60 L3669.43 905.63 L3644.07 971.72 L3618.82 1033.22 L3593.45 1090.15 L3568.21 1142.99 L3542.84 1191.75 L3517.59 1236.92 L3492.22 1278.62 L3466.98 1317.11 L3441.61 1352.51 L3416.37 1385.05 L3391.00 1414.88 L3365.75 1442.23 L3340.38 1467.10 L3315.14 1489.87 L3289.77 1510.42 L3264.53 1528.86 L3239.16 1545.44 L3213.91 1560.29 L3188.54 1573.16 L3163.30 1584.54 L3137.93 1594.44 L3112.68 1603.23 L3087.32 1611.03 L3062.07 1618.21 L3036.70 1625.01 L3011.46 1631.45 L2986.09 1637.88 L2960.72 1644.57 L2935.47 1651.50 L2910.11 1658.92 L2884.86 1666.96 L2859.49 1675.87 L2834.25 1685.65 L2808.88 1696.29 L2783.63 1708.05 L2758.26 1720.80 L2733.02 1734.41 L2707.65 1748.89 L2682.41 1763.86 L2657.04 1779.09 L2631.79 1794.31 L2606.42 1809.53 L2581.18 1824.38 L2555.81 1838.73 L2530.56 1852.60 L2505.20 1865.84 L2479.95 1878.46 L2454.58 1890.46 L2429.34 1901.73 L2403.97 1912.24 L2378.72 1922.02 L2353.35 1931.18 L2328.11 1939.59 L2302.74 1947.51 L2277.49 1954.82 L2252.13 1961.38 L2226.88 1967.56 L2201.51 1973.26 L2201.51 1991.45 Z" stroke-linejoin="round"/>
	</defs>
	<defs>
		<clipPath id="clipPath_NbfcUNlA">
			<use xlink:href="#path_dAywzhQZ"/>
		</clipPath>
	</defs>
	<use xlink:href="#path_dAywzhQZ" style="stroke:none;fill:#E6E6E6"/>
	<use xlink:href="#path_dAywzhQZ" style="fill:none;stroke:#E0E0E0;stroke-width:14.69" clip-path="url(#clipPath_NbfcUNlA)"/>
	<line x1="2201.39" y1="1896.40" x2="2204.24" y2="1896.40" style="stroke:#A0A0A0;stroke-width:7.34"/>
	<line x1="2224.41" y1="1896.40" x2="2226.76" y2="1896.40" style="stroke:#A0A0A0;stroke-width:7.34"/>
	<line x1="2226.76" y1="1896.40" x2="2227.25" y2="1896.40" style="stroke:#A0A0A0;stroke-width:7.34"/>
	<line x1="2247.42" y1="1896.40" x2="2250.27" y2="1896.40" style="stroke:#A0A0A0;stroke-width:7.34"/>
	<line x1="2270.44" y1="1896.40" x2="2273.29" y2="1896.40" style="stroke:#A0A0A0;stroke-width:7.34"/>
	<line x1="2293.46" y1="1896.40" x2="2296.43" y2="1896.40" style="stroke:#A0A0A0;stroke-width:7.34"/>
	<line x1="2316.60" y1="1896.40" x2="2319.45" y2="1896.40" style="stroke:#A0A0A0;stroke-width:7.34"/>
	<line x1="2339.62" y1="1896.40" x2="2342.46" y2="1896.40" style="stroke:#A0A0A0;stroke-width:7.34"/>
	<line x1="2362.64" y1="1896.40" x2="2365.48" y2="1896.40" style="stroke:#A0A0A0;stroke-width:7.34"/>
	<line x1="2385.65" y1="1896.40" x2="2388.50" y2="1896.40" style="stroke:#A0A0A0;stroke-width:7.34"/>
	<line x1="2408.67" y1="1896.40" x2="2411.52" y2="1896.40" style="stroke:#A0A0A0;stroke-width:7.34"/>
	<line x1="2431.69" y1="1896.40" x2="2434.53" y2="1896.40" style="stroke:#A0A0A0;stroke-width:7.34"/>
	<line x1="2454.70" y1="1896.40" x2="2457.55" y2="1896.40" style="stroke:#A0A0A0;stroke-width:7.34"/>
	<line x1="2477.72" y1="1896.40" x2="2479.83" y2="1896.40" style="stroke:#A0A0A0;stroke-width:7.34"/>
	<line x1="2479.83" y1="1896.40" x2="2480.57" y2="1896.40" style="stroke:#A0A0A0;stroke-width:7.34"/>
	<line x1="2500.74" y1="1896.40" x2="2503.59" y2="1896.40" style="stroke:#A0A0A0;stroke-width:7.34"/>
	<line x1="2523.76" y1="1896.40" x2="2526.60" y2="1896.40" style="stroke:#A0A0A0;stroke-width:7.34"/>
	<line x1="2546.78" y1="1896.40" x2="2549.74" y2="1896.40" style="stroke:#A0A0A0;stroke-width:7.34"/>
	<line x1="2569.92" y1="1896.40" x2="2572.76" y2="1896.40" style="stroke:#A0A0A0;stroke-width:7.34"/>
	<line x1="2592.93" y1="1896.40" x2="2595.78" y2="1896.40" style="stroke:#A0A0A0;stroke-width:7.34"/>
	<line x1="2615.95" y1="1896.40" x2="2618.80" y2="1896.40" style="stroke:#A0A0A0;stroke-width:7.34"/>
	<line x1="2638.97" y1="1896.40" x2="2641.82" y2="1896.40" style="stroke:#A0A0A0;stroke-width:7.34"/>
	<line x1="2661.99" y1="1896.40" x2="2664.83" y2="1896.40" style="stroke:#A0A0A0;stroke-width:7.34"/>
	<line x1="2685.00" y1="1896.40" x2="2687.85" y2="1896.40" style="stroke:#A0A0A0;stroke-width:7.34"/>
	<line x1="2708.02" y1="1896.40" x2="2710.87" y2="1896.40" style="stroke:#A0A0A0;stroke-width:7.34"/>
	<line x1="2731.04" y1="1896.40" x2="2732.89" y2="1896.40" style="stroke:#A0A0A0;stroke-width:7.34"/>
	<line x1="2732.89" y1="1896.40" x2="2733.89" y2="1896.40" style="stroke:#A0A0A0;stroke-width:7.34"/>
	<line x1="2754.06" y1="1896.40" x2="2756.90" y2="1896.40" style="stroke:#A0A0A0;stroke-width:7.34"/>
	<line x1="2777.07" y1="1896.40" x2="2779.92" y2="1896.40" style="stroke:#A0A0A0;stroke-width:7.34"/>
	<line x1="2800.09" y1="1896.40" x2="2803.06" y2="1896.40" style="stroke:#A0A0A0;stroke-width:7.34"/>
	<line x1="2823.23" y1="1896.40" x2="2826.08" y2="1896.40" style="stroke:#A0A0A0;stroke-width:7.34"/>
	<line x1="2846.25" y1="1896.40" x2="2849.10" y2="1896.40" style="stroke:#A0A0A0;stroke-width:7.34"/>
	<line x1="2869.27" y1="1896.40" x2="2872.11" y2="1896.40" style="stroke:#A0A0A0;stroke-width:7.34"/>
	<line x1="2892.28" y1="1896.40" x2="2895.13" y2="1896.40" style="stroke:#A0A0A0;stroke-width:7.34"/>
	<line x1="2915.30" y1="1896.40" x2="2918.15" y2="1896.40" style="stroke:#A0A0A0;stroke-width:7.34"/>
	<line x1="2938.32" y1="1896.40" x2="2941.17" y2="1896.40" style="stroke:#A0A0A0;stroke-width:7.34"/>
	<line x1="2961.34" y1="1896.40" x2="2964.18" y2="1896.40" style="stroke:#A0A0A0;stroke-width:7.34"/>
	<line x1="2984.36" y1="1896.40" x2="2986.09" y2="1896.40" style="stroke:#A0A0A0;stroke-width:7.34"/>
	<line x1="2986.09" y1="1896.40" x2="2987.20" y2="1896.40" style="stroke:#A0A0A0;stroke-width:7.34"/>
	<line x1="3007.37" y1="1896.40" x2="3010.22" y2="1896.40" style="stroke:#A0A0A0;stroke-width:7.34"/>
	<line x1="3030.39" y1="1896.40" x2="3033.36" y2="1896.40" style="stroke:#A0A0A0;stroke-width:7.34"/>
	<line x1="3053.41" y1="1896.40" x2="3056.38" y2="1896.40" style="stroke:#A0A0A0;stroke-width:7.34"/>
	<line x1="3076.55" y1="1896.40" x2="3079.39" y2="1896.40" style="stroke:#A0A0A0;stroke-width:7.34"/>
	<line x1="3099.57" y1="1896.40" x2="3102.41" y2="1896.40" style="stroke:#A0A0A0;stroke-width:7.34"/>
	<line x1="3122.58" y1="1896.40" x2="3125.43" y2="1896.40" style="stroke:#A0A0A0;stroke-width:7.34"/>
	<line x1="3145.60" y1="1896.40" x2="3148.45" y2="1896.40" style="stroke:#A0A0A0;stroke-width:7.34"/>
	<line x1="3168.62" y1="1896.40" x2="3171.47" y2="1896.40" style="stroke:#A0A0A0;stroke-width:7.34"/>
	<line x1="3191.64" y1="1896.40" x2="3194.48" y2="1896.40" style="stroke:#A0A0A0;stroke-width:7.34"/>
	<line x1="3214.65" y1="1896.40" x2="3217.50" y2="1896.40" style="stroke:#A0A0A0;stroke-width:7.34"/>
	<line x1="3237.67" y1="1896.40" x2="3239.16" y2="1896.40" style="stroke:#A0A0A0;stroke-width:7.34"/>
	<line x1="3239.16" y1="1896.40" x2="3240.52" y2="1896.40" style="stroke:#A0A0A0;stroke-width:7.34"/>
	<line x1="3260.69" y1="1896.40" x2="3263.53" y2="1896.40" style="stroke:#A0A0A0;stroke-width:7.34"/>
	<line x1="3283.71" y1="1896.40" x2="3286.68" y2="1896.40" style="stroke:#A0A0A0;stroke-width:7.34"/>
	<line x1="3306.72" y1="1896.40" x2="3309.69" y2="1896.40" style="stroke:#A0A0A0;stroke-width:7.34"/>
	<line x1="3329.86" y1="1896.40" x2="3332.71" y2="1896.40" style="stroke:#A0A0A0;stroke-width:7.34"/>
	<line x1="3352.88" y1="1896.40" x2="3355.73" y2="1896.40" style="stroke:#A0A0A0;stroke-width:7.34"/>
	<line x1="3375.90" y1="1896.40" x2="3378.75" y2="1896.40" style="stroke:#A0A0A0;stroke-width:7.34"/>
	<line x1="3398.92" y1="1896.40" x2="3401.76" y2="1896.40" style="stroke:#A0A0A0;stroke-width:7.34"/>
	<line x1="3421.93" y1="1896.40" x2="3424.78" y2="1896.40" style="stroke:#A0A0A0;stroke-width:7.34"/>
	<line x1="3444.95" y1="1896.40" x2="3447.80" y2="1896.40" style="stroke:#A0A0A0;stroke-width:7.34"/>
	<line x1="3467.97" y1="1896.40" x2="3470.82" y2="1896.40" style="stroke:#A0A0A0;stroke-width:7.34"/>
	<line x1="3490.99" y1="1896.40" x2="3492.22" y2="1896.40" style="stroke:#A0A0A0;stroke-width:7.34"/>
	<line x1="3492.22" y1="1896.40" x2="3493.83" y2="1896.40" style="stroke:#A0A0A0;stroke-width:7.34"/>
	<line x1="3514.01" y1="1896.40" x2="3516.85" y2="1896.40" style="stroke:#A0A0A0;stroke-width:7.34"/>
	<line x1="3537.02" y1="1896.40" x2="3539.99" y2="1896.40" style="stroke:#A0A0A0;stroke-width:7.34"/>
	<line x1="3560.04" y1="1896.40" x2="3563.01" y2="1896.40" style="stroke:#A0A0A0;stroke-width:7.34"/>
	<line x1="3583.18" y1="1896.40" x2="3586.03" y2="1896.40" style="stroke:#A0A0A0;stroke-width:7.34"/>
	<line x1="3606.20" y1="1896.40" x2="3609.05" y2="1896.40" style="stroke:#A0A0A0;stroke-width:7.34"/>
	<line x1="3629.22" y1="1896.40" x2="3632.06" y2="1896.40" style="stroke:#A0A0A0;stroke-width:7.34"/>
	<line x1="3652.23" y1="1896.40" x2="3655.08" y2="1896.40" style="stroke:#A0A0A0;stroke-width:7.34"/>
	<line x1="3675.25" y1="1896.40" x2="3678.10" y2="1896.40" style="stroke:#A0A0A0;stroke-width:7.34"/>
	<line x1="3698.27" y1="1896.40" x2="3701.11" y2="1896.40" style="stroke:#A0A0A0;stroke-width:7.34"/>
	<line x1="3721.29" y1="1896.40" x2="3724.13" y2="1896.40" style="stroke:#A0A0A0;stroke-width:7.34"/>
	<line x1="3744.30" y1="1896.40" x2="3745.29" y2="1896.40" style="stroke:#A0A0A0;stroke-width:7.34"/>
	<line x1="3745.29" y1="1896.40" x2="3747.15" y2="1896.40" style="stroke:#A0A0A0;stroke-width:7.34"/>
	<line x1="3767.32" y1="1896.40" x2="3770.17" y2="1896.40" style="stroke:#A0A0A0;stroke-width:7.34"/>
	<path d="" stroke-linejoin="round" style="fill:none;stroke:#A0A0A0;stroke-width:7.34"/>
	<path d=" M2201.39 2010.51 L2226.76 2007.66 L2252.13 2004.57 L2277.37 2001.10 L2302.74 1997.39 L2327.99 1993.43 L2353.35 1989.10 L2378.60 1984.27 L2403.97 1979.20 L2429.21 1973.87 L2454.58 1968.06 L2479.83 1961.87 L2505.20 1955.43 L2530.44 1948.63 L2555.81 1941.70 L2581.05 1934.40 L2606.42 1926.85 L2631.67 1919.30 L2657.04 1911.63 L2682.28 1904.08 L2707.65 1896.65 L2732.89 1889.47 L2758.26 1882.67 L2783.51 1876.23 L2808.88 1870.42 L2834.12 1864.97 L2859.49 1860.02 L2884.74 1855.44 L2910.11 1851.23 L2935.35 1847.40 L2960.72 1843.69 L2986.09 1840.22 L3011.33 1836.75 L3036.70 1833.29 L3061.95 1829.70 L3087.32 1825.99 L3112.56 1821.90 L3137.93 1817.45 L3163.17 1812.38 L3188.54 1806.56 L3213.79 1800.00 L3239.16 1792.45 L3264.40 1784.04 L3289.77 1774.63 L3315.01 1764.24 L3340.38 1752.73 L3365.63 1740.10 L3391.00 1726.24 L3416.24 1711.02 L3441.61 1694.44 L3466.86 1676.49 L3492.22 1656.94 L3517.47 1635.65 L3542.84 1612.64 L3568.08 1587.76 L3593.45 1560.78 L3618.70 1531.70 L3644.07 1500.39 L3669.31 1466.73 L3694.68 1430.47 L3719.93 1391.61 L3745.29 1349.91 L3770.66 1305.36" stroke-linejoin="round" style="fill:none;stroke:#008000;stroke-width:7.34"/>
	<path d=" M2201.39 1983.16 L2226.76 1977.83 L2252.13 1972.02 L2277.37 1965.58 L2302.74 1958.65 L2327.99 1951.23 L2353.35 1943.06 L2378.60 1934.27 L2403.97 1924.87 L2429.21 1914.72 L2454.58 1903.95 L2479.83 1892.57 L2505.20 1880.56 L2530.44 1867.94 L2555.81 1854.82 L2581.05 1841.21 L2606.42 1827.35 L2631.67 1813.24 L2657.04 1799.01 L2682.28 1784.90 L2707.65 1771.04 L2732.89 1757.68 L2758.26 1744.93 L2783.51 1733.17 L2808.88 1722.16 L2834.12 1712.13 L2859.49 1702.85 L2884.74 1694.44 L2910.11 1686.52 L2935.35 1679.34 L2960.72 1672.53 L2986.09 1665.97 L3011.33 1659.54 L3036.70 1653.10 L3061.95 1646.55 L3087.32 1639.49 L3112.56 1631.94 L3137.93 1623.53 L3163.17 1614.12 L3188.54 1603.36 L3213.79 1591.10 L3239.16 1577.12 L3264.40 1561.53 L3289.77 1544.08 L3315.01 1524.65 L3340.38 1503.24 L3365.63 1479.72 L3391.00 1453.86 L3416.24 1425.64 L3441.61 1394.95 L3466.86 1361.42 L3492.22 1325.03 L3517.47 1285.43 L3542.84 1242.74 L3568.08 1196.33 L3593.45 1146.33 L3618.70 1092.38 L3644.07 1034.21 L3669.31 971.59 L3694.68 904.27 L3719.93 832.12 L3745.29 754.77 L3770.66 671.98" stroke-linejoin="round" style="fill:none;stroke:#FF7F00;stroke-width:7.34"/>
	<path d=" M2201.39 2027.71 L2226.76 2026.35 L2252.13 2024.86 L2277.37 2023.38 L2302.74 2021.64 L2327.99 2019.79 L2353.35 2017.68 L2378.60 2015.58 L2403.97 2013.23 L2429.21 2010.75 L2454.58 2008.03 L2479.83 2005.18 L2505.20 2002.21 L2530.44 1999.12 L2555.81 1995.90 L2581.05 1992.44 L2606.42 1989.10 L2631.67 1985.51 L2657.04 1982.04 L2682.28 1978.58 L2707.65 1975.11 L2732.89 1971.77 L2758.26 1968.68 L2783.51 1965.71 L2808.88 1962.98 L2834.12 1960.51 L2859.49 1958.16 L2884.74 1956.05 L2910.11 1954.07 L2935.35 1952.34 L2960.72 1950.61 L2986.09 1949.00 L3011.33 1947.39 L3036.70 1945.78 L3061.95 1944.17 L3087.32 1942.44 L3112.56 1940.58 L3137.93 1938.48 L3163.17 1936.13 L3188.54 1933.53 L3213.79 1930.44 L3239.16 1926.97 L3264.40 1923.14 L3289.77 1918.80 L3315.01 1913.98 L3340.38 1908.66 L3365.63 1902.84 L3391.00 1896.40 L3416.24 1889.35 L3441.61 1881.68 L3466.86 1873.39 L3492.22 1864.35 L3517.47 1854.58 L3542.84 1843.93 L3568.08 1832.42 L3593.45 1819.92 L3618.70 1806.56 L3644.07 1792.08 L3669.31 1776.49 L3694.68 1759.78 L3719.93 1741.71 L3745.29 1722.53 L3770.66 1701.86" stroke-linejoin="round" style="fill:none;stroke:#1A476F;stroke-width:7.34"/>
	<line x1="401.69" y1="2096.14" x2="401.69" y2="402.82" style="stroke:#000000;stroke-width:4.90"/>
	<line x1="401.69" y1="2042.31" x2="367.66" y2="2042.31" style="stroke:#000000;stroke-width:4.90"/>
	<text x="350.71" y="2072.10" style="font-family:'Helvetica';font-size:85.02px;fill:#000000" text-anchor="end">0</text>
	<line x1="401.69" y1="1866.08" x2="367.66" y2="1866.08" style="stroke:#000000;stroke-width:4.90"/>
	<text x="350.71" y="1895.87" style="font-family:'Helvetica';font-size:85.02px;fill:#000000" text-anchor="end">.001</text>
	<line x1="401.69" y1="1689.86" x2="367.66" y2="1689.86" style="stroke:#000000;stroke-width:4.90"/>
	<text x="350.71" y="1719.65" style="font-family:'Helvetica';font-size:85.02px;fill:#000000" text-anchor="end">.002</text>
	<line x1="401.69" y1="1513.76" x2="367.66" y2="1513.76" style="stroke:#000000;stroke-width:4.90"/>
	<text x="350.71" y="1543.54" style="font-family:'Helvetica';font-size:85.02px;fill:#000000" text-anchor="end">.003</text>
	<line x1="401.69" y1="1337.53" x2="367.66" y2="1337.53" style="stroke:#000000;stroke-width:4.90"/>
	<text x="350.71" y="1367.32" style="font-family:'Helvetica';font-size:85.02px;fill:#000000" text-anchor="end">.004</text>
	<line x1="401.69" y1="1161.43" x2="367.66" y2="1161.43" style="stroke:#000000;stroke-width:4.90"/>
	<text x="350.71" y="1191.22" style="font-family:'Helvetica';font-size:85.02px;fill:#000000" text-anchor="end">.005</text>
	<line x1="401.69" y1="985.20" x2="367.66" y2="985.20" style="stroke:#000000;stroke-width:4.90"/>
	<text x="350.71" y="1014.99" style="font-family:'Helvetica';font-size:85.02px;fill:#000000" text-anchor="end">.006</text>
	<line x1="401.69" y1="808.98" x2="367.66" y2="808.98" style="stroke:#000000;stroke-width:4.90"/>
	<text x="350.71" y="838.77" style="font-family:'Helvetica';font-size:85.02px;fill:#000000" text-anchor="end">.007</text>
	<line x1="401.69" y1="632.88" x2="367.66" y2="632.88" style="stroke:#000000;stroke-width:4.90"/>
	<text x="350.71" y="662.66" style="font-family:'Helvetica';font-size:85.02px;fill:#000000" text-anchor="end">.008</text>
	<line x1="401.69" y1="456.65" x2="367.66" y2="456.65" style="stroke:#000000;stroke-width:4.90"/>
	<text x="350.71" y="486.44" style="font-family:'Helvetica';font-size:85.02px;fill:#000000" text-anchor="end">.009</text>
	<line x1="401.69" y1="2096.14" x2="2078.51" y2="2096.14" style="stroke:#000000;stroke-width:4.90"/>
	<line x1="506.14" y1="2096.14" x2="506.14" y2="2113.10" style="stroke:#000000;stroke-width:4.90"/>
	<line x1="632.73" y1="2096.14" x2="632.73" y2="2113.10" style="stroke:#000000;stroke-width:4.90"/>
	<line x1="759.21" y1="2096.14" x2="759.21" y2="2113.10" style="stroke:#000000;stroke-width:4.90"/>
	<line x1="885.80" y1="2096.14" x2="885.80" y2="2113.10" style="stroke:#000000;stroke-width:4.90"/>
	<line x1="1012.27" y1="2096.14" x2="1012.27" y2="2113.10" style="stroke:#000000;stroke-width:4.90"/>
	<line x1="1138.87" y1="2096.14" x2="1138.87" y2="2113.10" style="stroke:#000000;stroke-width:4.90"/>
	<line x1="1265.47" y1="2096.14" x2="1265.47" y2="2113.10" style="stroke:#000000;stroke-width:4.90"/>
	<line x1="1391.94" y1="2096.14" x2="1391.94" y2="2113.10" style="stroke:#000000;stroke-width:4.90"/>
	<line x1="1518.54" y1="2096.14" x2="1518.54" y2="2113.10" style="stroke:#000000;stroke-width:4.90"/>
	<line x1="1645.01" y1="2096.14" x2="1645.01" y2="2113.10" style="stroke:#000000;stroke-width:4.90"/>
	<line x1="1771.61" y1="2096.14" x2="1771.61" y2="2113.10" style="stroke:#000000;stroke-width:4.90"/>
	<line x1="1898.20" y1="2096.14" x2="1898.20" y2="2113.10" style="stroke:#000000;stroke-width:4.90"/>
	<line x1="2024.67" y1="2096.14" x2="2024.67" y2="2113.10" style="stroke:#000000;stroke-width:4.90"/>
	<line x1="506.14" y1="2096.14" x2="506.14" y2="2130.18" style="stroke:#000000;stroke-width:4.90"/>
	<text x="506.14" y="2206.58" style="font-family:'Helvetica';font-size:85.02px;fill:#000000" text-anchor="middle">20</text>
	<line x1="1012.27" y1="2096.14" x2="1012.27" y2="2130.18" style="stroke:#000000;stroke-width:4.90"/>
	<text x="1012.27" y="2206.58" style="font-family:'Helvetica';font-size:85.02px;fill:#000000" text-anchor="middle">40</text>
	<line x1="1518.54" y1="2096.14" x2="1518.54" y2="2130.18" style="stroke:#000000;stroke-width:4.90"/>
	<text x="1518.54" y="2206.58" style="font-family:'Helvetica';font-size:85.02px;fill:#000000" text-anchor="middle">60</text>
	<line x1="2024.67" y1="2096.14" x2="2024.67" y2="2130.18" style="stroke:#000000;stroke-width:4.90"/>
	<text x="2024.67" y="2206.58" style="font-family:'Helvetica';font-size:85.02px;fill:#000000" text-anchor="middle">80</text>
	<line x1="2147.68" y1="2096.14" x2="3824.49" y2="2096.14" style="stroke:#000000;stroke-width:4.90"/>
	<line x1="2252.13" y1="2096.14" x2="2252.13" y2="2113.10" style="stroke:#000000;stroke-width:4.90"/>
	<line x1="2378.72" y1="2096.14" x2="2378.72" y2="2113.10" style="stroke:#000000;stroke-width:4.90"/>
	<line x1="2505.20" y1="2096.14" x2="2505.20" y2="2113.10" style="stroke:#000000;stroke-width:4.90"/>
	<line x1="2631.79" y1="2096.14" x2="2631.79" y2="2113.10" style="stroke:#000000;stroke-width:4.90"/>
	<line x1="2758.26" y1="2096.14" x2="2758.26" y2="2113.10" style="stroke:#000000;stroke-width:4.90"/>
	<line x1="2884.86" y1="2096.14" x2="2884.86" y2="2113.10" style="stroke:#000000;stroke-width:4.90"/>
	<line x1="3011.46" y1="2096.14" x2="3011.46" y2="2113.10" style="stroke:#000000;stroke-width:4.90"/>
	<line x1="3137.93" y1="2096.14" x2="3137.93" y2="2113.10" style="stroke:#000000;stroke-width:4.90"/>
	<line x1="3264.53" y1="2096.14" x2="3264.53" y2="2113.10" style="stroke:#000000;stroke-width:4.90"/>
	<line x1="3391.00" y1="2096.14" x2="3391.00" y2="2113.10" style="stroke:#000000;stroke-width:4.90"/>
	<line x1="3517.59" y1="2096.14" x2="3517.59" y2="2113.10" style="stroke:#000000;stroke-width:4.90"/>
	<line x1="3644.07" y1="2096.14" x2="3644.07" y2="2113.10" style="stroke:#000000;stroke-width:4.90"/>
	<line x1="3770.66" y1="2096.14" x2="3770.66" y2="2113.10" style="stroke:#000000;stroke-width:4.90"/>
	<line x1="2252.13" y1="2096.14" x2="2252.13" y2="2130.18" style="stroke:#000000;stroke-width:4.90"/>
	<text x="2252.13" y="2206.58" style="font-family:'Helvetica';font-size:85.02px;fill:#000000" text-anchor="middle">20</text>
	<line x1="2758.26" y1="2096.14" x2="2758.26" y2="2130.18" style="stroke:#000000;stroke-width:4.90"/>
	<text x="2758.26" y="2206.58" style="font-family:'Helvetica';font-size:85.02px;fill:#000000" text-anchor="middle">40</text>
	<line x1="3264.53" y1="2096.14" x2="3264.53" y2="2130.18" style="stroke:#000000;stroke-width:4.90"/>
	<text x="3264.53" y="2206.58" style="font-family:'Helvetica';font-size:85.02px;fill:#000000" text-anchor="middle">60</text>
	<line x1="3770.66" y1="2096.14" x2="3770.66" y2="2130.18" style="stroke:#000000;stroke-width:4.90"/>
	<text x="3770.66" y="2206.58" style="font-family:'Helvetica';font-size:85.02px;fill:#000000" text-anchor="middle">80</text>
	<rect x="401.69" y="279.93" width="1676.81" height="122.89" style="fill:#D9E6EB"/>
	<rect x="404.14" y="282.38" width="1671.92" height="117.99" style="fill:none;stroke:#D9E6EB;stroke-width:4.90"/>
	<text x="1240.10" y="359.96" style="font-family:'Helvetica';font-size:93.56px;fill:#000000" text-anchor="middle">Female</text>
	<rect x="2147.68" y="279.93" width="1676.81" height="122.89" style="fill:#D9E6EB"/>
	<rect x="2150.13" y="282.38" width="1671.92" height="117.99" style="fill:none;stroke:#D9E6EB;stroke-width:4.90"/>
	<text x="2986.09" y="359.96" style="font-family:'Helvetica';font-size:93.56px;fill:#000000" text-anchor="middle">Male</text>
	<rect x="592.39" y="2418.27" width="2775.09" height="326.34" style="fill:#FFFFFF"/>
	<rect x="595.27" y="2421.15" width="2769.33" height="320.58" style="fill:none;stroke:#000000;stroke-width:5.76"/>
	<line x1="635.58" y1="2511.46" x2="1009.92" y2="2511.46" style="stroke:#008000;stroke-width:8.64"/>
	<line x1="635.58" y1="2651.43" x2="1009.92" y2="2651.43" style="stroke:#FF7F00;stroke-width:8.64"/>
	<line x1="1971.21" y1="2511.46" x2="2345.56" y2="2511.46" style="stroke:#1A476F;stroke-width:8.64"/>
	<line x1="1971.21" y1="2651.43" x2="1974.06" y2="2651.43" style="stroke:#A0A0A0;stroke-width:8.64"/>
	<line x1="1994.23" y1="2651.43" x2="1997.08" y2="2651.43" style="stroke:#A0A0A0;stroke-width:8.64"/>
	<line x1="2017.25" y1="2651.43" x2="2020.10" y2="2651.43" style="stroke:#A0A0A0;stroke-width:8.64"/>
	<line x1="2040.27" y1="2651.43" x2="2043.24" y2="2651.43" style="stroke:#A0A0A0;stroke-width:8.64"/>
	<line x1="2063.28" y1="2651.43" x2="2066.25" y2="2651.43" style="stroke:#A0A0A0;stroke-width:8.64"/>
	<line x1="2086.43" y1="2651.43" x2="2089.27" y2="2651.43" style="stroke:#A0A0A0;stroke-width:8.64"/>
	<line x1="2109.44" y1="2651.43" x2="2112.29" y2="2651.43" style="stroke:#A0A0A0;stroke-width:8.64"/>
	<line x1="2132.46" y1="2651.43" x2="2135.31" y2="2651.43" style="stroke:#A0A0A0;stroke-width:8.64"/>
	<line x1="2155.48" y1="2651.43" x2="2158.32" y2="2651.43" style="stroke:#A0A0A0;stroke-width:8.64"/>
	<line x1="2178.49" y1="2651.43" x2="2181.34" y2="2651.43" style="stroke:#A0A0A0;stroke-width:8.64"/>
	<line x1="2201.51" y1="2651.43" x2="2204.36" y2="2651.43" style="stroke:#A0A0A0;stroke-width:8.64"/>
	<line x1="2224.53" y1="2651.43" x2="2227.38" y2="2651.43" style="stroke:#A0A0A0;stroke-width:8.64"/>
	<line x1="2247.55" y1="2651.43" x2="2250.39" y2="2651.43" style="stroke:#A0A0A0;stroke-width:8.64"/>
	<line x1="2270.57" y1="2651.43" x2="2273.41" y2="2651.43" style="stroke:#A0A0A0;stroke-width:8.64"/>
	<line x1="2293.58" y1="2651.43" x2="2296.55" y2="2651.43" style="stroke:#A0A0A0;stroke-width:8.64"/>
	<line x1="2316.60" y1="2651.43" x2="2319.57" y2="2651.43" style="stroke:#A0A0A0;stroke-width:8.64"/>
	<line x1="2339.74" y1="2651.43" x2="2342.59" y2="2651.43" style="stroke:#A0A0A0;stroke-width:8.64"/>
	<text x="1069.94" y="2546.49" style="font-family:'Helvetica';font-size:99.99px;fill:#000000">1 comorbidity</text>
	<text x="1069.94" y="2686.46" style="font-family:'Helvetica';font-size:99.99px;fill:#000000">2+ comorbidities</text>
	<text x="2405.58" y="2546.49" style="font-family:'Helvetica';font-size:99.99px;fill:#000000">No comborbidity</text>
	<text x="2405.58" y="2686.46" style="font-family:'Helvetica';font-size:99.99px;fill:#000000">Ref (Age 65, White)</text>
	<text x="1980.00" y="2353.56" style="font-family:'Helvetica';font-size:99.99px;fill:#000000" text-anchor="middle">Age (years)</text>
	<text x="1980.00" y="195.01" style="font-family:'Helvetica';font-size:110.01px;fill:#000000" text-anchor="middle">Ethnicity White</text>
</svg>
