<?xml version="1.0" encoding="UTF-8" standalone="no"?>
<!-- This is a Stata 16.1 generated SVG file (http://www.stata.com) -->

<svg version="1.1" width="1600px" height="1164px" viewBox="0 0 3960 2880" xmlns="http://www.w3.org/2000/svg" xmlns:xlink="http://www.w3.org/1999/xlink">
	<desc>Stata Graph - Graph</desc>
	<rect x="0" y="0" width="3960" height="2880" style="fill:#EAF2F3;stroke:none"/>
	<rect x="0.00" y="0.00" width="3959.88" height="2880.00" style="fill:#EAF2F3"/>
	<rect x="2.88" y="2.88" width="3954.12" height="2874.24" style="fill:none;stroke:#EAF2F3;stroke-width:5.76"/>
	<rect x="401.69" y="258.27" width="1676.81" height="1137.92" style="fill:#FFFFFF"/>
	<rect x="404.14" y="260.72" width="1671.92" height="1133.02" style="fill:none;stroke:#FFFFFF;stroke-width:4.90"/>
	<line x1="401.69" y1="1342.23" x2="2078.51" y2="1342.23" style="stroke:#EAF2F3;stroke-width:7.34"/>
	<line x1="401.69" y1="1136.31" x2="2078.51" y2="1136.31" style="stroke:#EAF2F3;stroke-width:7.34"/>
	<line x1="401.69" y1="930.26" x2="2078.51" y2="930.26" style="stroke:#EAF2F3;stroke-width:7.34"/>
	<line x1="401.69" y1="724.21" x2="2078.51" y2="724.21" style="stroke:#EAF2F3;stroke-width:7.34"/>
	<line x1="401.69" y1="518.16" x2="2078.51" y2="518.16" style="stroke:#EAF2F3;stroke-width:7.34"/>
	<line x1="401.69" y1="312.11" x2="2078.51" y2="312.11" style="stroke:#EAF2F3;stroke-width:7.34"/>
	<rect x="2147.68" y="258.27" width="1676.81" height="1137.92" style="fill:#FFFFFF"/>
	<rect x="2150.13" y="260.72" width="1671.92" height="1133.02" style="fill:none;stroke:#FFFFFF;stroke-width:4.90"/>
	<line x1="2147.68" y1="1342.23" x2="3824.49" y2="1342.23" style="stroke:#EAF2F3;stroke-width:7.34"/>
	<line x1="2147.68" y1="1136.31" x2="3824.49" y2="1136.31" style="stroke:#EAF2F3;stroke-width:7.34"/>
	<line x1="2147.68" y1="930.26" x2="3824.49" y2="930.26" style="stroke:#EAF2F3;stroke-width:7.34"/>
	<line x1="2147.68" y1="724.21" x2="3824.49" y2="724.21" style="stroke:#EAF2F3;stroke-width:7.34"/>
	<line x1="2147.68" y1="518.16" x2="3824.49" y2="518.16" style="stroke:#EAF2F3;stroke-width:7.34"/>
	<line x1="2147.68" y1="312.11" x2="3824.49" y2="312.11" style="stroke:#EAF2F3;stroke-width:7.34"/>
	<path d=" M455.52 1342.23 L477.30 1342.11 L499.08 1342.11 L520.86 1342.11 L542.64 1341.99 L564.42 1341.99 L586.20 1341.86 L607.98 1341.86 L629.76 1341.74 L651.67 1341.62 L673.45 1341.49 L695.23 1341.37 L717.01 1341.12 L738.79 1341.00 L760.57 1340.75 L782.35 1340.50 L804.13 1340.25 L825.91 1339.88 L847.81 1339.51 L869.59 1339.14 L891.37 1338.65 L913.15 1338.15 L934.93 1337.53 L956.71 1336.91 L978.49 1336.29 L1000.27 1335.55 L1022.05 1334.81 L1043.95 1333.94 L1065.73 1332.95 L1087.52 1331.96 L1109.30 1330.85 L1131.08 1329.61 L1152.86 1328.37 L1174.63 1326.89 L1196.41 1325.40 L1218.19 1323.67 L1240.10 1321.82 L1261.88 1319.83 L1283.66 1317.48 L1305.44 1315.01 L1327.22 1312.29 L1349.00 1309.19 L1370.78 1305.85 L1392.56 1302.01 L1414.34 1297.81 L1436.24 1293.10 L1458.02 1287.78 L1479.80 1281.97 L1501.58 1275.53 L1523.36 1268.23 L1545.14 1260.19 L1566.92 1251.15 L1588.70 1241.13 L1610.48 1229.99 L1632.39 1217.49 L1654.17 1203.63 L1675.95 1188.16 L1697.73 1170.84 L1719.51 1151.65 L1741.29 1130.12 L1763.07 1106.24 L1784.85 1079.63 L1806.63 1049.93" stroke-linejoin="round" style="fill:none;stroke:#82C0E9;stroke-width:3.67"/>
	<path d=" M455.52 1342.23 L477.30 1342.23 L499.08 1342.23 L520.86 1342.23 L542.64 1342.11 L564.42 1342.11 L586.20 1342.11 L607.98 1341.99 L629.76 1341.99 L651.67 1341.99 L673.45 1341.86 L695.23 1341.74 L717.01 1341.74 L738.79 1341.62 L760.57 1341.49 L782.35 1341.37 L804.13 1341.12 L825.91 1341.00 L847.81 1340.75 L869.59 1340.50 L891.37 1340.25 L913.15 1340.01 L934.93 1339.64 L956.71 1339.26 L978.49 1338.89 L1000.27 1338.52 L1022.05 1338.03 L1043.95 1337.53 L1065.73 1337.04 L1087.52 1336.54 L1109.30 1335.80 L1131.08 1335.18 L1152.86 1334.44 L1174.63 1333.70 L1196.41 1332.83 L1218.19 1331.84 L1240.10 1330.73 L1261.88 1329.61 L1283.66 1328.37 L1305.44 1327.01 L1327.22 1325.40 L1349.00 1323.67 L1370.78 1321.69 L1392.56 1319.59 L1414.34 1317.24 L1436.24 1314.64 L1458.02 1311.67 L1479.80 1308.33 L1501.58 1304.61 L1523.36 1300.65 L1545.14 1296.07 L1566.92 1291.00 L1588.70 1285.31 L1610.48 1279.00 L1632.39 1271.94 L1654.17 1264.15 L1675.95 1255.48 L1697.73 1245.71 L1719.51 1234.82 L1741.29 1222.81 L1763.07 1209.32 L1784.85 1194.22 L1806.63 1177.52" stroke-linejoin="round" style="fill:none;stroke:#0000FF;stroke-width:3.67"/>
	<path d=" M455.52 1342.23 L477.30 1342.23 L499.08 1342.23 L520.86 1342.11 L542.64 1342.11 L564.42 1342.11 L586.20 1342.11 L607.98 1341.99 L629.76 1341.99 L651.67 1341.86 L673.45 1341.74 L695.23 1341.74 L717.01 1341.62 L738.79 1341.49 L760.57 1341.37 L782.35 1341.12 L804.13 1341.00 L825.91 1340.75 L847.81 1340.50 L869.59 1340.25 L891.37 1339.88 L913.15 1339.64 L934.93 1339.26 L956.71 1338.89 L978.49 1338.40 L1000.27 1337.90 L1022.05 1337.41 L1043.95 1336.91 L1065.73 1336.29 L1087.52 1335.55 L1109.30 1334.93 L1131.08 1334.07 L1152.86 1333.20 L1174.63 1332.33 L1196.41 1331.34 L1218.19 1330.23 L1240.10 1328.99 L1261.88 1327.76 L1283.66 1326.27 L1305.44 1324.66 L1327.22 1322.81 L1349.00 1320.83 L1370.78 1318.60 L1392.56 1316.12 L1414.34 1313.40 L1436.24 1310.43 L1458.02 1306.96 L1479.80 1303.25 L1501.58 1299.04 L1523.36 1294.34 L1545.14 1289.02 L1566.92 1283.20 L1588.70 1276.77 L1610.48 1269.47 L1632.39 1261.42 L1654.17 1252.39 L1675.95 1242.37 L1697.73 1231.10 L1719.51 1218.60 L1741.29 1204.74 L1763.07 1189.15 L1784.85 1171.95 L1806.63 1152.64" stroke-linejoin="round" style="fill:none;stroke:#0080FF;stroke-width:3.67"/>
	<path d=" M455.52 1342.23 L477.30 1342.23 L499.08 1342.23 L520.86 1342.23 L542.64 1342.11 L564.42 1342.11 L586.20 1342.11 L607.98 1342.11 L629.76 1341.99 L651.67 1341.99 L673.45 1341.86 L695.23 1341.74 L717.01 1341.74 L738.79 1341.62 L760.57 1341.49 L782.35 1341.37 L804.13 1341.12 L825.91 1341.00 L847.81 1340.75 L869.59 1340.63 L891.37 1340.25 L913.15 1340.01 L934.93 1339.76 L956.71 1339.39 L978.49 1339.02 L1000.27 1338.65 L1022.05 1338.15 L1043.95 1337.66 L1065.73 1337.16 L1087.52 1336.67 L1109.30 1336.05 L1131.08 1335.43 L1152.86 1334.69 L1174.63 1333.82 L1196.41 1333.08 L1218.19 1332.09 L1240.10 1331.10 L1261.88 1329.98 L1283.66 1328.75 L1305.44 1327.38 L1327.22 1325.90 L1349.00 1324.17 L1370.78 1322.31 L1392.56 1320.21 L1414.34 1317.85 L1436.24 1315.26 L1458.02 1312.41 L1479.80 1309.19 L1501.58 1305.60 L1523.36 1301.64 L1545.14 1297.19 L1566.92 1292.36 L1588.70 1286.79 L1610.48 1280.61 L1632.39 1273.80 L1654.17 1266.13 L1675.95 1257.71 L1697.73 1248.18 L1719.51 1237.66 L1741.29 1225.91 L1763.07 1212.66 L1784.85 1198.06 L1806.63 1181.85" stroke-linejoin="round" style="fill:none;stroke:#C0DCC0;stroke-width:3.67"/>
	<path d=" M455.52 1342.23 L477.30 1342.23 L499.08 1342.23 L520.86 1342.11 L542.64 1342.11 L564.42 1342.11 L586.20 1341.99 L607.98 1341.99 L629.76 1341.86 L651.67 1341.86 L673.45 1341.74 L695.23 1341.62 L717.01 1341.49 L738.79 1341.37 L760.57 1341.24 L782.35 1341.12 L804.13 1340.87 L825.91 1340.63 L847.81 1340.38 L869.59 1340.13 L891.37 1339.76 L913.15 1339.39 L934.93 1339.02 L956.71 1338.65 L978.49 1338.15 L1000.27 1337.66 L1022.05 1337.04 L1043.95 1336.54 L1065.73 1335.80 L1087.52 1335.18 L1109.30 1334.31 L1131.08 1333.57 L1152.86 1332.58 L1174.63 1331.59 L1196.41 1330.60 L1218.19 1329.36 L1240.10 1328.13 L1261.88 1326.77 L1283.66 1325.16 L1305.44 1323.42 L1327.22 1321.57 L1349.00 1319.34 L1370.78 1316.99 L1392.56 1314.39 L1414.34 1311.42 L1436.24 1308.20 L1458.02 1304.61 L1479.80 1300.53 L1501.58 1295.95 L1523.36 1291.00 L1545.14 1285.43 L1566.92 1279.12 L1588.70 1272.19 L1610.48 1264.39 L1632.39 1255.85 L1654.17 1246.20 L1675.95 1235.43 L1697.73 1223.43 L1719.51 1210.07 L1741.29 1195.21 L1763.07 1178.63 L1784.85 1160.19 L1806.63 1139.65" stroke-linejoin="round" style="fill:none;stroke:#00FF80;stroke-width:3.67"/>
	<path d=" M455.52 1342.23 L477.30 1342.23 L499.08 1342.11 L520.86 1342.11 L542.64 1342.11 L564.42 1341.99 L586.20 1341.99 L607.98 1341.99 L629.76 1341.86 L651.67 1341.74 L673.45 1341.62 L695.23 1341.62 L717.01 1341.37 L738.79 1341.24 L760.57 1341.12 L782.35 1340.87 L804.13 1340.63 L825.91 1340.38 L847.81 1340.13 L869.59 1339.76 L891.37 1339.39 L913.15 1339.02 L934.93 1338.65 L956.71 1338.15 L978.49 1337.53 L1000.27 1337.04 L1022.05 1336.42 L1043.95 1335.68 L1065.73 1334.93 L1087.52 1334.19 L1109.30 1333.32 L1131.08 1332.33 L1152.86 1331.34 L1174.63 1330.23 L1196.41 1328.99 L1218.19 1327.63 L1240.10 1326.27 L1261.88 1324.66 L1283.66 1322.93 L1305.44 1320.95 L1327.22 1318.72 L1349.00 1316.37 L1370.78 1313.65 L1392.56 1310.68 L1414.34 1307.34 L1436.24 1303.62 L1458.02 1299.54 L1479.80 1294.96 L1501.58 1289.89 L1523.36 1284.19 L1545.14 1277.88 L1566.92 1270.83 L1588.70 1262.91 L1610.48 1254.12 L1632.39 1244.35 L1654.17 1233.45 L1675.95 1221.33 L1697.73 1207.71 L1719.51 1192.62 L1741.29 1175.79 L1763.07 1156.97 L1784.85 1136.06 L1806.63 1112.79" stroke-linejoin="round" style="fill:none;stroke:#00B000;stroke-width:3.67"/>
	<path d=" M455.52 1342.11 L477.30 1342.11 L499.08 1342.11 L520.86 1341.99 L542.64 1341.99 L564.42 1341.86 L586.20 1341.86 L607.98 1341.74 L629.76 1341.62 L651.67 1341.49 L673.45 1341.37 L695.23 1341.24 L717.01 1341.00 L738.79 1340.75 L760.57 1340.50 L782.35 1340.25 L804.13 1340.01 L825.91 1339.64 L847.81 1339.14 L869.59 1338.65 L891.37 1338.15 L913.15 1337.66 L934.93 1337.04 L956.71 1336.29 L978.49 1335.55 L1000.27 1334.69 L1022.05 1333.82 L1043.95 1332.83 L1065.73 1331.84 L1087.52 1330.60 L1109.30 1329.36 L1131.08 1328.13 L1152.86 1326.64 L1174.63 1325.03 L1196.41 1323.30 L1218.19 1321.44 L1240.10 1319.34 L1261.88 1316.99 L1283.66 1314.51 L1305.44 1311.67 L1327.22 1308.57 L1349.00 1305.23 L1370.78 1301.40 L1392.56 1297.06 L1414.34 1292.36 L1436.24 1287.04 L1458.02 1281.22 L1479.80 1274.66 L1501.58 1267.36 L1523.36 1259.20 L1545.14 1250.16 L1566.92 1240.01 L1588.70 1228.88 L1610.48 1216.25 L1632.39 1202.27 L1654.17 1186.68 L1675.95 1169.35 L1697.73 1149.92 L1719.51 1128.39 L1741.29 1104.26 L1763.07 1077.52 L1784.85 1047.58 L1806.63 1014.29" stroke-linejoin="round" style="fill:none;stroke:#008000;stroke-width:3.67"/>
	<path d=" M455.52 1342.11 L477.30 1342.11 L499.08 1342.11 L520.86 1341.99 L542.64 1341.99 L564.42 1341.86 L586.20 1341.86 L607.98 1341.74 L629.76 1341.62 L651.67 1341.49 L673.45 1341.37 L695.23 1341.12 L717.01 1341.00 L738.79 1340.75 L760.57 1340.50 L782.35 1340.25 L804.13 1339.88 L825.91 1339.51 L847.81 1339.02 L869.59 1338.65 L891.37 1338.03 L913.15 1337.41 L934.93 1336.79 L956.71 1336.05 L978.49 1335.30 L1000.27 1334.44 L1022.05 1333.57 L1043.95 1332.58 L1065.73 1331.47 L1087.52 1330.35 L1109.30 1328.99 L1131.08 1327.63 L1152.86 1326.15 L1174.63 1324.54 L1196.41 1322.68 L1218.19 1320.70 L1240.10 1318.60 L1261.88 1316.25 L1283.66 1313.65 L1305.44 1310.80 L1327.22 1307.58 L1349.00 1303.99 L1370.78 1300.03 L1392.56 1295.70 L1414.34 1290.75 L1436.24 1285.31 L1458.02 1279.24 L1479.80 1272.56 L1501.58 1265.01 L1523.36 1256.72 L1545.14 1247.32 L1566.92 1236.92 L1588.70 1225.29 L1610.48 1212.42 L1632.39 1198.06 L1654.17 1181.97 L1675.95 1164.03 L1697.73 1144.10 L1719.51 1121.83 L1741.29 1097.08 L1763.07 1069.36 L1784.85 1038.54 L1806.63 1004.26" stroke-linejoin="round" style="fill:none;stroke:#006000;stroke-width:3.67"/>
	<path d=" M455.52 1342.11 L477.30 1342.11 L499.08 1342.11 L520.86 1342.11 L542.64 1341.99 L564.42 1341.99 L586.20 1341.86 L607.98 1341.74 L629.76 1341.74 L651.67 1341.62 L673.45 1341.49 L695.23 1341.24 L717.01 1341.12 L738.79 1340.87 L760.57 1340.63 L782.35 1340.38 L804.13 1340.13 L825.91 1339.76 L847.81 1339.39 L869.59 1338.89 L891.37 1338.52 L913.15 1337.90 L934.93 1337.28 L956.71 1336.67 L978.49 1336.05 L1000.27 1335.18 L1022.05 1334.44 L1043.95 1333.45 L1065.73 1332.46 L1087.52 1331.47 L1109.30 1330.23 L1131.08 1328.99 L1152.86 1327.63 L1174.63 1326.15 L1196.41 1324.54 L1218.19 1322.81 L1240.10 1320.83 L1261.88 1318.72 L1283.66 1316.37 L1305.44 1313.77 L1327.22 1310.80 L1349.00 1307.58 L1370.78 1304.12 L1392.56 1300.03 L1414.34 1295.70 L1436.24 1290.75 L1458.02 1285.18 L1479.80 1279.12 L1501.58 1272.31 L1523.36 1264.76 L1545.14 1256.23 L1566.92 1246.82 L1588.70 1236.30 L1610.48 1224.67 L1632.39 1211.55 L1654.17 1197.07 L1675.95 1180.86 L1697.73 1162.67 L1719.51 1142.62 L1741.29 1120.10 L1763.07 1095.10 L1784.85 1067.13 L1806.63 1036.07" stroke-linejoin="round" style="fill:none;stroke:#5C4717;stroke-width:3.67"/>
	<path d=" M455.52 1342.23 L477.30 1342.23 L499.08 1342.11 L520.86 1342.11 L542.64 1342.11 L564.42 1341.99 L586.20 1341.99 L607.98 1341.86 L629.76 1341.86 L651.67 1341.74 L673.45 1341.62 L695.23 1341.49 L717.01 1341.37 L738.79 1341.24 L760.57 1341.00 L782.35 1340.87 L804.13 1340.63 L825.91 1340.38 L847.81 1340.01 L869.59 1339.64 L891.37 1339.26 L913.15 1338.89 L934.93 1338.40 L956.71 1337.90 L978.49 1337.41 L1000.27 1336.79 L1022.05 1336.17 L1043.95 1335.43 L1065.73 1334.69 L1087.52 1333.82 L1109.30 1332.95 L1131.08 1331.96 L1152.86 1330.85 L1174.63 1329.74 L1196.41 1328.50 L1218.19 1327.14 L1240.10 1325.53 L1261.88 1323.92 L1283.66 1322.06 L1305.44 1320.08 L1327.22 1317.85 L1349.00 1315.26 L1370.78 1312.53 L1392.56 1309.44 L1414.34 1305.97 L1436.24 1302.14 L1458.02 1297.81 L1479.80 1293.10 L1501.58 1287.78 L1523.36 1281.84 L1545.14 1275.28 L1566.92 1267.86 L1588.70 1259.69 L1610.48 1250.53 L1632.39 1240.39 L1654.17 1229.00 L1675.95 1216.38 L1697.73 1202.27 L1719.51 1186.55 L1741.29 1169.10 L1763.07 1149.55 L1784.85 1127.77 L1806.63 1103.51" stroke-linejoin="round" style="fill:none;stroke:#D7D29E;stroke-width:3.67"/>
	<path d=" M455.52 1342.11 L477.30 1341.99 L499.08 1341.99 L520.86 1341.99 L542.64 1341.86 L564.42 1341.74 L586.20 1341.62 L607.98 1341.49 L629.76 1341.37 L651.67 1341.24 L673.45 1341.00 L695.23 1340.87 L717.01 1340.63 L738.79 1340.25 L760.57 1340.01 L782.35 1339.64 L804.13 1339.14 L825.91 1338.65 L847.81 1338.15 L869.59 1337.53 L891.37 1336.79 L913.15 1336.05 L934.93 1335.18 L956.71 1334.31 L978.49 1333.32 L1000.27 1332.21 L1022.05 1331.10 L1043.95 1329.74 L1065.73 1328.37 L1087.52 1326.89 L1109.30 1325.16 L1131.08 1323.42 L1152.86 1321.44 L1174.63 1319.34 L1196.41 1317.11 L1218.19 1314.51 L1240.10 1311.79 L1261.88 1308.70 L1283.66 1305.36 L1305.44 1301.64 L1327.22 1297.56 L1349.00 1292.98 L1370.78 1287.91 L1392.56 1282.21 L1414.34 1276.03 L1436.24 1268.97 L1458.02 1261.18 L1479.80 1252.51 L1501.58 1242.86 L1523.36 1232.09 L1545.14 1219.97 L1566.92 1206.60 L1588.70 1191.75 L1610.48 1175.04 L1632.39 1156.48 L1654.17 1135.81 L1675.95 1112.79 L1697.73 1087.05 L1719.51 1058.47 L1741.29 1026.54 L1763.07 990.90 L1784.85 951.30 L1806.63 907.24" stroke-linejoin="round" style="fill:none;stroke:#D9C263;stroke-width:3.67"/>
	<path d=" M455.52 1341.99 L477.30 1341.99 L499.08 1341.86 L520.86 1341.74 L542.64 1341.62 L564.42 1341.49 L586.20 1341.37 L607.98 1341.24 L629.76 1341.00 L651.67 1340.87 L673.45 1340.50 L695.23 1340.25 L717.01 1339.88 L738.79 1339.51 L760.57 1339.02 L782.35 1338.52 L804.13 1337.90 L825.91 1337.28 L847.81 1336.54 L869.59 1335.68 L891.37 1334.69 L913.15 1333.70 L934.93 1332.46 L956.71 1331.22 L978.49 1329.86 L1000.27 1328.37 L1022.05 1326.64 L1043.95 1324.91 L1065.73 1322.93 L1087.52 1320.83 L1109.30 1318.60 L1131.08 1316.12 L1152.86 1313.40 L1174.63 1310.55 L1196.41 1307.34 L1218.19 1303.87 L1240.10 1300.03 L1261.88 1295.83 L1283.66 1291.25 L1305.44 1286.05 L1327.22 1280.36 L1349.00 1274.05 L1370.78 1266.99 L1392.56 1259.20 L1414.34 1250.41 L1436.24 1240.76 L1458.02 1229.99 L1479.80 1217.99 L1501.58 1204.50 L1523.36 1189.65 L1545.14 1172.94 L1566.92 1154.50 L1588.70 1133.83 L1610.48 1110.81 L1632.39 1085.07 L1654.17 1056.49 L1675.95 1024.56 L1697.73 989.04 L1719.51 949.32 L1741.29 905.14 L1763.07 856.01 L1784.85 801.06 L1806.63 740.05" stroke-linejoin="round" style="fill:none;stroke:#A0522D;stroke-width:3.67"/>
	<path d=" M455.52 1342.11 L477.30 1342.11 L499.08 1341.99 L520.86 1341.99 L542.64 1341.86 L564.42 1341.86 L586.20 1341.74 L607.98 1341.62 L629.76 1341.49 L651.67 1341.37 L673.45 1341.24 L695.23 1341.00 L717.01 1340.87 L738.79 1340.63 L760.57 1340.25 L782.35 1340.01 L804.13 1339.64 L825.91 1339.14 L847.81 1338.65 L869.59 1338.15 L891.37 1337.53 L913.15 1336.91 L934.93 1336.17 L956.71 1335.30 L978.49 1334.44 L1000.27 1333.57 L1022.05 1332.58 L1043.95 1331.47 L1065.73 1330.23 L1087.52 1328.87 L1109.30 1327.51 L1131.08 1325.90 L1152.86 1324.17 L1174.63 1322.43 L1196.41 1320.33 L1218.19 1318.23 L1240.10 1315.75 L1261.88 1313.15 L1283.66 1310.31 L1305.44 1307.09 L1327.22 1303.50 L1349.00 1299.54 L1370.78 1295.08 L1392.56 1290.13 L1414.34 1284.69 L1436.24 1278.62 L1458.02 1271.82 L1479.80 1264.27 L1501.58 1255.85 L1523.36 1246.57 L1545.14 1236.05 L1566.92 1224.42 L1588.70 1211.55 L1610.48 1197.07 L1632.39 1180.98 L1654.17 1163.04 L1675.95 1142.99 L1697.73 1120.59 L1719.51 1095.72 L1741.29 1068.00 L1763.07 1037.18 L1784.85 1002.65 L1806.63 964.41" stroke-linejoin="round" style="fill:none;stroke:#FF0000;stroke-width:3.67"/>
	<path d=" M455.52 1342.11 L477.30 1341.99 L499.08 1341.99 L520.86 1341.86 L542.64 1341.86 L564.42 1341.74 L586.20 1341.62 L607.98 1341.49 L629.76 1341.37 L651.67 1341.24 L673.45 1341.00 L695.23 1340.87 L717.01 1340.50 L738.79 1340.25 L760.57 1339.88 L782.35 1339.51 L804.13 1339.14 L825.91 1338.65 L847.81 1338.03 L869.59 1337.41 L891.37 1336.79 L913.15 1335.92 L934.93 1335.06 L956.71 1334.19 L978.49 1333.20 L1000.27 1332.09 L1022.05 1330.85 L1043.95 1329.61 L1065.73 1328.13 L1087.52 1326.64 L1109.30 1324.91 L1131.08 1323.18 L1152.86 1321.20 L1174.63 1318.97 L1196.41 1316.62 L1218.19 1314.14 L1240.10 1311.30 L1261.88 1308.20 L1283.66 1304.86 L1305.44 1301.02 L1327.22 1296.94 L1349.00 1292.24 L1370.78 1287.04 L1392.56 1281.35 L1414.34 1274.91 L1436.24 1267.86 L1458.02 1259.94 L1479.80 1251.15 L1501.58 1241.25 L1523.36 1230.36 L1545.14 1218.11 L1566.92 1204.50 L1588.70 1189.40 L1610.48 1172.44 L1632.39 1153.63 L1654.17 1132.72 L1675.95 1109.21 L1697.73 1083.22 L1719.51 1054.14 L1741.29 1021.71 L1763.07 985.58 L1784.85 945.36 L1806.63 900.56" stroke-linejoin="round" style="fill:none;stroke:#90353B;stroke-width:3.67"/>
	<path d=" M455.52 1342.23 L477.30 1342.11 L499.08 1342.11 L520.86 1342.11 L542.64 1341.99 L564.42 1341.99 L586.20 1341.86 L607.98 1341.86 L629.76 1341.74 L651.67 1341.62 L673.45 1341.49 L695.23 1341.37 L717.01 1341.12 L738.79 1341.00 L760.57 1340.75 L782.35 1340.50 L804.13 1340.25 L825.91 1339.88 L847.81 1339.51 L869.59 1339.14 L891.37 1338.65 L913.15 1338.15 L934.93 1337.53 L956.71 1336.91 L978.49 1336.29 L1000.27 1335.55 L1022.05 1334.69 L1043.95 1333.82 L1065.73 1332.95 L1087.52 1331.84 L1109.30 1330.73 L1131.08 1329.61 L1152.86 1328.25 L1174.63 1326.77 L1196.41 1325.28 L1218.19 1323.55 L1240.10 1321.69 L1261.88 1319.71 L1283.66 1317.36 L1305.44 1314.88 L1327.22 1312.16 L1349.00 1309.07 L1370.78 1305.60 L1392.56 1301.77 L1414.34 1297.56 L1436.24 1292.73 L1458.02 1287.54 L1479.80 1281.60 L1501.58 1275.16 L1523.36 1267.86 L1545.14 1259.69 L1566.92 1250.66 L1588.70 1240.63 L1610.48 1229.37 L1632.39 1216.87 L1654.17 1202.89 L1675.95 1187.29 L1697.73 1169.97 L1719.51 1150.54 L1741.29 1129.01 L1763.07 1105.00 L1784.85 1078.14 L1806.63 1048.32" stroke-linejoin="round" style="fill:none;stroke:#303030;stroke-width:3.67"/>
	<path d=" M455.52 1342.23 L477.30 1342.23 L499.08 1342.23 L520.86 1342.11 L542.64 1342.11 L564.42 1342.11 L586.20 1341.99 L607.98 1341.99 L629.76 1341.86 L651.67 1341.86 L673.45 1341.74 L695.23 1341.62 L717.01 1341.49 L738.79 1341.37 L760.57 1341.24 L782.35 1341.00 L804.13 1340.75 L825.91 1340.50 L847.81 1340.25 L869.59 1340.01 L891.37 1339.64 L913.15 1339.26 L934.93 1338.89 L956.71 1338.40 L978.49 1337.90 L1000.27 1337.41 L1022.05 1336.79 L1043.95 1336.17 L1065.73 1335.55 L1087.52 1334.81 L1109.30 1334.07 L1131.08 1333.08 L1152.86 1332.21 L1174.63 1331.22 L1196.41 1330.11 L1218.19 1328.87 L1240.10 1327.51 L1261.88 1326.02 L1283.66 1324.41 L1305.44 1322.56 L1327.22 1320.58 L1349.00 1318.35 L1370.78 1315.87 L1392.56 1313.15 L1414.34 1310.06 L1436.24 1306.59 L1458.02 1302.88 L1479.80 1298.67 L1501.58 1293.97 L1523.36 1288.65 L1545.14 1282.83 L1566.92 1276.27 L1588.70 1269.10 L1610.48 1260.93 L1632.39 1251.89 L1654.17 1241.87 L1675.95 1230.61 L1697.73 1218.11 L1719.51 1204.13 L1741.29 1188.66 L1763.07 1171.33 L1784.85 1152.02 L1806.63 1130.49" stroke-linejoin="round" style="fill:none;stroke:#505050;stroke-width:3.67"/>
	<path d=" M455.52 1342.23 L477.30 1342.23 L499.08 1342.23 L520.86 1342.23 L542.64 1342.11 L564.42 1342.11 L586.20 1342.11 L607.98 1341.99 L629.76 1341.99 L651.67 1341.86 L673.45 1341.86 L695.23 1341.74 L717.01 1341.62 L738.79 1341.49 L760.57 1341.37 L782.35 1341.24 L804.13 1341.12 L825.91 1340.87 L847.81 1340.63 L869.59 1340.38 L891.37 1340.13 L913.15 1339.88 L934.93 1339.51 L956.71 1339.14 L978.49 1338.77 L1000.27 1338.40 L1022.05 1337.90 L1043.95 1337.41 L1065.73 1336.79 L1087.52 1336.17 L1109.30 1335.55 L1131.08 1334.81 L1152.86 1334.07 L1174.63 1333.32 L1196.41 1332.33 L1218.19 1331.34 L1240.10 1330.23 L1261.88 1329.12 L1283.66 1327.76 L1305.44 1326.27 L1327.22 1324.66 L1349.00 1322.81 L1370.78 1320.83 L1392.56 1318.60 L1414.34 1316.12 L1436.24 1313.28 L1458.02 1310.31 L1479.80 1306.84 L1501.58 1303.00 L1523.36 1298.67 L1545.14 1293.97 L1566.92 1288.65 L1588.70 1282.83 L1610.48 1276.15 L1632.39 1268.85 L1654.17 1260.68 L1675.95 1251.52 L1697.73 1241.38 L1719.51 1230.11 L1741.29 1217.37 L1763.07 1203.38 L1784.85 1187.67 L1806.63 1170.22" stroke-linejoin="round" style="fill:none;stroke:#707070;stroke-width:3.67"/>
	<path d=" M455.52 1342.11 L477.30 1342.11 L499.08 1341.99 L520.86 1341.99 L542.64 1341.86 L564.42 1341.74 L586.20 1341.74 L607.98 1341.62 L629.76 1341.49 L651.67 1341.24 L673.45 1341.12 L695.23 1340.87 L717.01 1340.63 L738.79 1340.38 L760.57 1340.13 L782.35 1339.76 L804.13 1339.26 L825.91 1338.89 L847.81 1338.40 L869.59 1337.78 L891.37 1337.16 L913.15 1336.42 L934.93 1335.55 L956.71 1334.69 L978.49 1333.82 L1000.27 1332.71 L1022.05 1331.59 L1043.95 1330.35 L1065.73 1329.12 L1087.52 1327.63 L1109.30 1326.02 L1131.08 1324.41 L1152.86 1322.56 L1174.63 1320.58 L1196.41 1318.35 L1218.19 1316.00 L1240.10 1313.28 L1261.88 1310.43 L1283.66 1307.34 L1305.44 1303.75 L1327.22 1299.91 L1349.00 1295.58 L1370.78 1290.75 L1392.56 1285.31 L1414.34 1279.37 L1436.24 1272.68 L1458.02 1265.26 L1479.80 1257.09 L1501.58 1247.81 L1523.36 1237.66 L1545.14 1226.28 L1566.92 1213.53 L1588.70 1199.30 L1610.48 1183.58 L1632.39 1165.89 L1654.17 1146.33 L1675.95 1124.43 L1697.73 1100.05 L1719.51 1072.82 L1741.29 1042.50 L1763.07 1008.72 L1784.85 971.10 L1806.63 929.27" stroke-linejoin="round" style="fill:none;stroke:#FFE474;stroke-width:3.67"/>
	<path d=" M455.52 1342.11 L477.30 1341.99 L499.08 1341.99 L520.86 1341.86 L542.64 1341.86 L564.42 1341.74 L586.20 1341.62 L607.98 1341.49 L629.76 1341.37 L651.67 1341.24 L673.45 1341.00 L695.23 1340.87 L717.01 1340.63 L738.79 1340.25 L760.57 1339.88 L782.35 1339.51 L804.13 1339.14 L825.91 1338.65 L847.81 1338.03 L869.59 1337.41 L891.37 1336.79 L913.15 1336.05 L934.93 1335.18 L956.71 1334.19 L978.49 1333.20 L1000.27 1332.09 L1022.05 1330.97 L1043.95 1329.61 L1065.73 1328.25 L1087.52 1326.64 L1109.30 1325.03 L1131.08 1323.18 L1152.86 1321.20 L1174.63 1319.09 L1196.41 1316.74 L1218.19 1314.27 L1240.10 1311.42 L1261.88 1308.45 L1283.66 1304.98 L1305.44 1301.27 L1327.22 1297.06 L1349.00 1292.49 L1370.78 1287.29 L1392.56 1281.60 L1414.34 1275.28 L1436.24 1268.23 L1458.02 1260.31 L1479.80 1251.52 L1501.58 1241.75 L1523.36 1230.86 L1545.14 1218.73 L1566.92 1205.12 L1588.70 1190.02 L1610.48 1173.31 L1632.39 1154.50 L1654.17 1133.59 L1675.95 1110.32 L1697.73 1084.33 L1719.51 1055.37 L1741.29 1023.07 L1763.07 987.18 L1784.85 947.09 L1806.63 902.54" stroke-linejoin="round" style="fill:none;stroke:#FFD200;stroke-width:3.67"/>
	<path d=" M455.52 1342.23 L477.30 1342.11 L499.08 1342.11 L520.86 1342.11 L542.64 1341.99 L564.42 1341.99 L586.20 1341.86 L607.98 1341.86 L629.76 1341.74 L651.67 1341.62 L673.45 1341.49 L695.23 1341.37 L717.01 1341.24 L738.79 1341.12 L760.57 1340.87 L782.35 1340.63 L804.13 1340.38 L825.91 1340.01 L847.81 1339.76 L869.59 1339.39 L891.37 1338.89 L913.15 1338.40 L934.93 1337.90 L956.71 1337.28 L978.49 1336.67 L1000.27 1336.05 L1022.05 1335.30 L1043.95 1334.44 L1065.73 1333.57 L1087.52 1332.71 L1109.30 1331.59 L1131.08 1330.48 L1152.86 1329.36 L1174.63 1328.00 L1196.41 1326.52 L1218.19 1325.03 L1240.10 1323.30 L1261.88 1321.44 L1283.66 1319.34 L1305.44 1316.99 L1327.22 1314.39 L1349.00 1311.54 L1370.78 1308.45 L1392.56 1304.86 L1414.34 1300.90 L1436.24 1296.57 L1458.02 1291.74 L1479.80 1286.30 L1501.58 1280.23 L1523.36 1273.55 L1545.14 1266.00 L1566.92 1257.71 L1588.70 1248.31 L1610.48 1237.91 L1632.39 1226.40 L1654.17 1213.41 L1675.95 1199.05 L1697.73 1183.09 L1719.51 1165.14 L1741.29 1145.22 L1763.07 1123.07 L1784.85 1098.32 L1806.63 1070.72" stroke-linejoin="round" style="fill:none;stroke:#FFFF00;stroke-width:3.67"/>
	<path d=" M455.52 1342.23 L477.30 1342.23 L499.08 1342.11 L520.86 1342.11 L542.64 1342.11 L564.42 1341.99 L586.20 1341.99 L607.98 1341.86 L629.76 1341.86 L651.67 1341.74 L673.45 1341.62 L695.23 1341.49 L717.01 1341.37 L738.79 1341.24 L760.57 1341.12 L782.35 1340.87 L804.13 1340.63 L825.91 1340.38 L847.81 1340.13 L869.59 1339.76 L891.37 1339.39 L913.15 1339.02 L934.93 1338.52 L956.71 1338.03 L978.49 1337.53 L1000.27 1336.91 L1022.05 1336.29 L1043.95 1335.55 L1065.73 1334.81 L1087.52 1334.07 L1109.30 1333.20 L1131.08 1332.21 L1152.86 1331.22 L1174.63 1329.98 L1196.41 1328.75 L1218.19 1327.51 L1240.10 1326.02 L1261.88 1324.41 L1283.66 1322.56 L1305.44 1320.58 L1327.22 1318.35 L1349.00 1315.87 L1370.78 1313.15 L1392.56 1310.18 L1414.34 1306.84 L1436.24 1303.00 L1458.02 1298.92 L1479.80 1294.22 L1501.58 1289.02 L1523.36 1283.20 L1545.14 1276.77 L1566.92 1269.59 L1588.70 1261.67 L1610.48 1252.76 L1632.39 1242.74 L1654.17 1231.72 L1675.95 1219.35 L1697.73 1205.61 L1719.51 1190.26 L1741.29 1173.19 L1763.07 1154.00 L1784.85 1132.84 L1806.63 1109.21" stroke-linejoin="round" style="fill:none;stroke:#FF80FF;stroke-width:3.67"/>
	<path d=" M455.52 1342.23 L477.30 1342.23 L499.08 1342.23 L520.86 1342.11 L542.64 1342.11 L564.42 1342.11 L586.20 1341.99 L607.98 1341.99 L629.76 1341.86 L651.67 1341.86 L673.45 1341.74 L695.23 1341.62 L717.01 1341.49 L738.79 1341.37 L760.57 1341.24 L782.35 1341.12 L804.13 1340.87 L825.91 1340.63 L847.81 1340.38 L869.59 1340.13 L891.37 1339.76 L913.15 1339.39 L934.93 1339.02 L956.71 1338.65 L978.49 1338.15 L1000.27 1337.66 L1022.05 1337.04 L1043.95 1336.54 L1065.73 1335.80 L1087.52 1335.18 L1109.30 1334.44 L1131.08 1333.57 L1152.86 1332.71 L1174.63 1331.72 L1196.41 1330.60 L1218.19 1329.36 L1240.10 1328.13 L1261.88 1326.77 L1283.66 1325.16 L1305.44 1323.42 L1327.22 1321.57 L1349.00 1319.46 L1370.78 1317.11 L1392.56 1314.39 L1414.34 1311.54 L1436.24 1308.20 L1458.02 1304.61 L1479.80 1300.53 L1501.58 1296.07 L1523.36 1291.12 L1545.14 1285.43 L1566.92 1279.24 L1588.70 1272.31 L1610.48 1264.52 L1632.39 1255.98 L1654.17 1246.33 L1675.95 1235.56 L1697.73 1223.68 L1719.51 1210.31 L1741.29 1195.46 L1763.07 1178.88 L1784.85 1160.44 L1806.63 1139.90" stroke-linejoin="round" style="fill:none;stroke:#FF00FF;stroke-width:3.67"/>
	<path d=" M455.52 1342.11 L477.30 1342.11 L499.08 1341.99 L520.86 1341.99 L542.64 1341.86 L564.42 1341.86 L586.20 1341.74 L607.98 1341.62 L629.76 1341.49 L651.67 1341.37 L673.45 1341.24 L695.23 1341.00 L717.01 1340.75 L738.79 1340.50 L760.57 1340.25 L782.35 1339.88 L804.13 1339.51 L825.91 1339.02 L847.81 1338.52 L869.59 1338.03 L891.37 1337.41 L913.15 1336.79 L934.93 1335.92 L956.71 1335.18 L978.49 1334.31 L1000.27 1333.32 L1022.05 1332.21 L1043.95 1331.10 L1065.73 1329.86 L1087.52 1328.50 L1109.30 1327.01 L1131.08 1325.40 L1152.86 1323.67 L1174.63 1321.82 L1196.41 1319.71 L1218.19 1317.48 L1240.10 1315.01 L1261.88 1312.29 L1283.66 1309.32 L1305.44 1305.97 L1327.22 1302.39 L1349.00 1298.30 L1370.78 1293.72 L1392.56 1288.65 L1414.34 1282.96 L1436.24 1276.77 L1458.02 1269.84 L1479.80 1262.04 L1501.58 1253.38 L1523.36 1243.73 L1545.14 1232.96 L1566.92 1220.96 L1588.70 1207.71 L1610.48 1192.74 L1632.39 1176.16 L1654.17 1157.72 L1675.95 1137.05 L1697.73 1114.16 L1719.51 1088.54 L1741.29 1059.95 L1763.07 1028.15 L1784.85 992.75 L1806.63 953.28" stroke-linejoin="round" style="fill:none;stroke:#FF0000;stroke-width:3.67"/>
	<path d=" M455.52 1342.23 L477.30 1342.23 L499.08 1342.23 L520.86 1342.23 L542.64 1342.11 L564.42 1342.11 L586.20 1342.11 L607.98 1341.99 L629.76 1341.99 L651.67 1341.86 L673.45 1341.86 L695.23 1341.74 L717.01 1341.62 L738.79 1341.49 L760.57 1341.37 L782.35 1341.24 L804.13 1341.12 L825.91 1340.87 L847.81 1340.63 L869.59 1340.38 L891.37 1340.13 L913.15 1339.76 L934.93 1339.51 L956.71 1339.14 L978.49 1338.65 L1000.27 1338.27 L1022.05 1337.78 L1043.95 1337.28 L1065.73 1336.67 L1087.52 1336.05 L1109.30 1335.43 L1131.08 1334.69 L1152.86 1333.94 L1174.63 1333.08 L1196.41 1332.21 L1218.19 1331.10 L1240.10 1329.98 L1261.88 1328.87 L1283.66 1327.51 L1305.44 1326.02 L1327.22 1324.29 L1349.00 1322.43 L1370.78 1320.45 L1392.56 1318.10 L1414.34 1315.63 L1436.24 1312.78 L1458.02 1309.69 L1479.80 1306.10 L1501.58 1302.26 L1523.36 1297.93 L1545.14 1293.10 L1566.92 1287.66 L1588.70 1281.60 L1610.48 1274.91 L1632.39 1267.49 L1654.17 1259.07 L1675.95 1249.79 L1697.73 1239.52 L1719.51 1227.89 L1741.29 1215.02 L1763.07 1200.66 L1784.85 1184.70 L1806.63 1166.88" stroke-linejoin="round" style="fill:none;stroke:#000000;stroke-width:3.67"/>
	<line x1="455.52" y1="1306.10" x2="458.37" y2="1306.10" style="stroke:#000000;stroke-width:7.34"/>
	<line x1="478.54" y1="1306.10" x2="481.39" y2="1306.10" style="stroke:#000000;stroke-width:7.34"/>
	<line x1="501.56" y1="1306.10" x2="504.40" y2="1306.10" style="stroke:#000000;stroke-width:7.34"/>
	<line x1="524.58" y1="1306.10" x2="527.42" y2="1306.10" style="stroke:#000000;stroke-width:7.34"/>
	<line x1="547.59" y1="1306.10" x2="550.44" y2="1306.10" style="stroke:#000000;stroke-width:7.34"/>
	<line x1="570.61" y1="1306.10" x2="573.58" y2="1306.10" style="stroke:#000000;stroke-width:7.34"/>
	<line x1="593.75" y1="1306.10" x2="596.60" y2="1306.10" style="stroke:#000000;stroke-width:7.34"/>
	<line x1="616.77" y1="1306.10" x2="619.62" y2="1306.10" style="stroke:#000000;stroke-width:7.34"/>
	<line x1="639.79" y1="1306.10" x2="642.63" y2="1306.10" style="stroke:#000000;stroke-width:7.34"/>
	<line x1="662.80" y1="1306.10" x2="665.65" y2="1306.10" style="stroke:#000000;stroke-width:7.34"/>
	<line x1="685.82" y1="1306.10" x2="688.67" y2="1306.10" style="stroke:#000000;stroke-width:7.34"/>
	<line x1="708.84" y1="1306.10" x2="711.69" y2="1306.10" style="stroke:#000000;stroke-width:7.34"/>
	<line x1="731.86" y1="1306.10" x2="734.70" y2="1306.10" style="stroke:#000000;stroke-width:7.34"/>
	<line x1="754.88" y1="1306.10" x2="757.72" y2="1306.10" style="stroke:#000000;stroke-width:7.34"/>
	<line x1="777.89" y1="1306.10" x2="780.74" y2="1306.10" style="stroke:#000000;stroke-width:7.34"/>
	<line x1="800.91" y1="1306.10" x2="803.88" y2="1306.10" style="stroke:#000000;stroke-width:7.34"/>
	<line x1="823.93" y1="1306.10" x2="825.91" y2="1306.10" style="stroke:#000000;stroke-width:7.34"/>
	<line x1="825.91" y1="1306.10" x2="826.90" y2="1306.10" style="stroke:#000000;stroke-width:7.34"/>
	<line x1="847.07" y1="1306.10" x2="847.81" y2="1306.10" style="stroke:#000000;stroke-width:7.34"/>
	<line x1="847.81" y1="1306.10" x2="849.91" y2="1306.10" style="stroke:#000000;stroke-width:7.34"/>
	<line x1="870.09" y1="1306.10" x2="872.93" y2="1306.10" style="stroke:#000000;stroke-width:7.34"/>
	<line x1="893.10" y1="1306.10" x2="895.95" y2="1306.10" style="stroke:#000000;stroke-width:7.34"/>
	<line x1="916.12" y1="1306.10" x2="918.97" y2="1306.10" style="stroke:#000000;stroke-width:7.34"/>
	<line x1="939.14" y1="1306.10" x2="941.99" y2="1306.10" style="stroke:#000000;stroke-width:7.34"/>
	<line x1="962.16" y1="1306.10" x2="965.00" y2="1306.10" style="stroke:#000000;stroke-width:7.34"/>
	<line x1="985.17" y1="1306.10" x2="988.02" y2="1306.10" style="stroke:#000000;stroke-width:7.34"/>
	<line x1="1008.19" y1="1306.10" x2="1011.04" y2="1306.10" style="stroke:#000000;stroke-width:7.34"/>
	<line x1="1031.21" y1="1306.10" x2="1034.06" y2="1306.10" style="stroke:#000000;stroke-width:7.34"/>
	<line x1="1054.23" y1="1306.10" x2="1057.20" y2="1306.10" style="stroke:#000000;stroke-width:7.34"/>
	<line x1="1077.24" y1="1306.10" x2="1080.21" y2="1306.10" style="stroke:#000000;stroke-width:7.34"/>
	<line x1="1100.38" y1="1306.10" x2="1103.23" y2="1306.10" style="stroke:#000000;stroke-width:7.34"/>
	<line x1="1123.40" y1="1306.10" x2="1126.25" y2="1306.10" style="stroke:#000000;stroke-width:7.34"/>
	<line x1="1146.42" y1="1306.10" x2="1149.27" y2="1306.10" style="stroke:#000000;stroke-width:7.34"/>
	<line x1="1169.44" y1="1306.10" x2="1172.28" y2="1306.10" style="stroke:#000000;stroke-width:7.34"/>
	<line x1="1192.45" y1="1306.10" x2="1195.30" y2="1306.10" style="stroke:#000000;stroke-width:7.34"/>
	<line x1="1215.47" y1="1306.10" x2="1218.19" y2="1306.10" style="stroke:#000000;stroke-width:7.34"/>
	<line x1="1218.19" y1="1306.10" x2="1218.32" y2="1306.10" style="stroke:#000000;stroke-width:7.34"/>
	<line x1="1238.49" y1="1306.10" x2="1240.10" y2="1306.10" style="stroke:#000000;stroke-width:7.34"/>
	<line x1="1240.10" y1="1306.10" x2="1241.34" y2="1306.10" style="stroke:#000000;stroke-width:7.34"/>
	<line x1="1261.51" y1="1306.10" x2="1261.88" y2="1306.10" style="stroke:#000000;stroke-width:7.34"/>
	<line x1="1261.88" y1="1306.10" x2="1264.35" y2="1306.10" style="stroke:#000000;stroke-width:7.34"/>
	<line x1="1284.53" y1="1306.10" x2="1287.37" y2="1306.10" style="stroke:#000000;stroke-width:7.34"/>
	<line x1="1307.54" y1="1306.10" x2="1310.51" y2="1306.10" style="stroke:#000000;stroke-width:7.34"/>
	<line x1="1330.56" y1="1306.10" x2="1333.53" y2="1306.10" style="stroke:#000000;stroke-width:7.34"/>
	<line x1="1353.70" y1="1306.10" x2="1356.55" y2="1306.10" style="stroke:#000000;stroke-width:7.34"/>
	<line x1="1376.72" y1="1306.10" x2="1379.57" y2="1306.10" style="stroke:#000000;stroke-width:7.34"/>
	<line x1="1399.74" y1="1306.10" x2="1402.58" y2="1306.10" style="stroke:#000000;stroke-width:7.34"/>
	<line x1="1422.75" y1="1306.10" x2="1425.60" y2="1306.10" style="stroke:#000000;stroke-width:7.34"/>
	<line x1="1445.77" y1="1306.10" x2="1448.62" y2="1306.10" style="stroke:#000000;stroke-width:7.34"/>
	<line x1="1468.79" y1="1306.10" x2="1471.63" y2="1306.10" style="stroke:#000000;stroke-width:7.34"/>
	<line x1="1491.81" y1="1306.10" x2="1494.65" y2="1306.10" style="stroke:#000000;stroke-width:7.34"/>
	<line x1="1514.82" y1="1306.10" x2="1517.67" y2="1306.10" style="stroke:#000000;stroke-width:7.34"/>
	<line x1="1537.84" y1="1306.10" x2="1540.69" y2="1306.10" style="stroke:#000000;stroke-width:7.34"/>
	<line x1="1560.86" y1="1306.10" x2="1563.83" y2="1306.10" style="stroke:#000000;stroke-width:7.34"/>
	<line x1="1584.00" y1="1306.10" x2="1586.85" y2="1306.10" style="stroke:#000000;stroke-width:7.34"/>
	<line x1="1607.02" y1="1306.10" x2="1609.86" y2="1306.10" style="stroke:#000000;stroke-width:7.34"/>
	<line x1="1630.04" y1="1306.10" x2="1632.39" y2="1306.10" style="stroke:#000000;stroke-width:7.34"/>
	<line x1="1632.39" y1="1306.10" x2="1632.88" y2="1306.10" style="stroke:#000000;stroke-width:7.34"/>
	<line x1="1653.05" y1="1306.10" x2="1654.17" y2="1306.10" style="stroke:#000000;stroke-width:7.34"/>
	<line x1="1654.17" y1="1306.10" x2="1655.90" y2="1306.10" style="stroke:#000000;stroke-width:7.34"/>
	<line x1="1676.07" y1="1306.10" x2="1678.92" y2="1306.10" style="stroke:#000000;stroke-width:7.34"/>
	<line x1="1699.09" y1="1306.10" x2="1701.93" y2="1306.10" style="stroke:#000000;stroke-width:7.34"/>
	<line x1="1722.11" y1="1306.10" x2="1724.95" y2="1306.10" style="stroke:#000000;stroke-width:7.34"/>
	<line x1="1745.12" y1="1306.10" x2="1747.97" y2="1306.10" style="stroke:#000000;stroke-width:7.34"/>
	<line x1="1768.14" y1="1306.10" x2="1770.99" y2="1306.10" style="stroke:#000000;stroke-width:7.34"/>
	<line x1="1791.16" y1="1306.10" x2="1794.00" y2="1306.10" style="stroke:#000000;stroke-width:7.34"/>
	<path d="" stroke-linejoin="round" style="fill:none;stroke:#000000;stroke-width:7.34"/>
	<path d=" M2201.39 1342.11 L2223.29 1341.99 L2245.07 1341.99 L2266.85 1341.86 L2288.63 1341.86 L2310.41 1341.74 L2332.19 1341.62 L2353.97 1341.49 L2375.75 1341.37 L2397.53 1341.24 L2419.44 1341.00 L2441.22 1340.75 L2463.00 1340.50 L2484.78 1340.25 L2506.56 1339.88 L2528.34 1339.51 L2550.12 1339.02 L2571.90 1338.52 L2593.68 1338.03 L2615.58 1337.41 L2637.36 1336.67 L2659.14 1335.92 L2680.92 1335.06 L2702.70 1334.07 L2724.48 1333.08 L2746.26 1331.96 L2768.04 1330.73 L2789.94 1329.36 L2811.72 1328.00 L2833.50 1326.39 L2855.28 1324.79 L2877.06 1322.93 L2898.84 1320.95 L2920.62 1318.72 L2942.40 1316.37 L2964.18 1313.77 L2986.09 1310.92 L3007.87 1307.83 L3029.65 1304.37 L3051.43 1300.65 L3073.21 1296.32 L3094.99 1291.62 L3116.77 1286.42 L3138.55 1280.61 L3160.33 1274.17 L3182.23 1266.99 L3204.01 1258.95 L3225.79 1250.04 L3247.57 1240.14 L3269.35 1229.00 L3291.13 1216.75 L3312.91 1202.89 L3334.69 1187.67 L3356.47 1170.46 L3378.38 1151.41 L3400.16 1130.24 L3421.93 1106.61 L3443.72 1080.12 L3465.49 1050.79 L3487.28 1018.00 L3509.05 981.37 L3530.84 940.65 L3552.61 895.36" stroke-linejoin="round" style="fill:none;stroke:#82C0E9;stroke-width:3.67"/>
	<path d=" M2201.39 1342.23 L2223.29 1342.23 L2245.07 1342.11 L2266.85 1342.11 L2288.63 1342.11 L2310.41 1341.99 L2332.19 1341.99 L2353.97 1341.86 L2375.75 1341.86 L2397.53 1341.74 L2419.44 1341.62 L2441.22 1341.49 L2463.00 1341.37 L2484.78 1341.12 L2506.56 1341.00 L2528.34 1340.75 L2550.12 1340.50 L2571.90 1340.25 L2593.68 1339.88 L2615.58 1339.51 L2637.36 1339.14 L2659.14 1338.77 L2680.92 1338.27 L2702.70 1337.66 L2724.48 1337.16 L2746.26 1336.54 L2768.04 1335.80 L2789.94 1335.06 L2811.72 1334.19 L2833.50 1333.32 L2855.28 1332.46 L2877.06 1331.34 L2898.84 1330.23 L2920.62 1328.99 L2942.40 1327.76 L2964.18 1326.27 L2986.09 1324.66 L3007.87 1322.93 L3029.65 1320.95 L3051.43 1318.84 L3073.21 1316.49 L3094.99 1313.77 L3116.77 1310.80 L3138.55 1307.58 L3160.33 1303.99 L3182.23 1299.91 L3204.01 1295.33 L3225.79 1290.38 L3247.57 1284.69 L3269.35 1278.50 L3291.13 1271.57 L3312.91 1263.77 L3334.69 1255.11 L3356.47 1245.46 L3378.38 1234.82 L3400.16 1222.81 L3421.93 1209.45 L3443.72 1194.60 L3465.49 1178.01 L3487.28 1159.45 L3509.05 1138.91 L3530.84 1116.01 L3552.61 1090.40" stroke-linejoin="round" style="fill:none;stroke:#0000FF;stroke-width:3.67"/>
	<path d=" M2201.39 1342.23 L2223.29 1342.11 L2245.07 1342.11 L2266.85 1342.11 L2288.63 1341.99 L2310.41 1341.99 L2332.19 1341.86 L2353.97 1341.86 L2375.75 1341.74 L2397.53 1341.62 L2419.44 1341.49 L2441.22 1341.37 L2463.00 1341.12 L2484.78 1341.00 L2506.56 1340.75 L2528.34 1340.50 L2550.12 1340.25 L2571.90 1339.88 L2593.68 1339.51 L2615.58 1339.14 L2637.36 1338.65 L2659.14 1338.15 L2680.92 1337.66 L2702.70 1337.04 L2724.48 1336.29 L2746.26 1335.55 L2768.04 1334.81 L2789.94 1333.94 L2811.72 1333.08 L2833.50 1331.96 L2855.28 1330.97 L2877.06 1329.74 L2898.84 1328.50 L2920.62 1327.01 L2942.40 1325.53 L2964.18 1323.80 L2986.09 1321.94 L3007.87 1319.96 L3029.65 1317.73 L3051.43 1315.26 L3073.21 1312.53 L3094.99 1309.44 L3116.77 1306.10 L3138.55 1302.39 L3160.33 1298.18 L3182.23 1293.48 L3204.01 1288.28 L3225.79 1282.46 L3247.57 1276.03 L3269.35 1268.85 L3291.13 1260.80 L3312.91 1251.89 L3334.69 1241.99 L3356.47 1230.86 L3378.38 1218.48 L3400.16 1204.74 L3421.93 1189.40 L3443.72 1172.32 L3465.49 1153.14 L3487.28 1131.85 L3509.05 1108.22 L3530.84 1081.73 L3552.61 1052.40" stroke-linejoin="round" style="fill:none;stroke:#0080FF;stroke-width:3.67"/>
	<path d=" M2201.39 1342.23 L2223.29 1342.23 L2245.07 1342.11 L2266.85 1342.11 L2288.63 1342.11 L2310.41 1341.99 L2332.19 1341.99 L2353.97 1341.86 L2375.75 1341.86 L2397.53 1341.74 L2419.44 1341.62 L2441.22 1341.49 L2463.00 1341.37 L2484.78 1341.24 L2506.56 1341.00 L2528.34 1340.75 L2550.12 1340.50 L2571.90 1340.25 L2593.68 1340.01 L2615.58 1339.64 L2637.36 1339.26 L2659.14 1338.77 L2680.92 1338.27 L2702.70 1337.78 L2724.48 1337.28 L2746.26 1336.67 L2768.04 1335.92 L2789.94 1335.30 L2811.72 1334.44 L2833.50 1333.57 L2855.28 1332.71 L2877.06 1331.72 L2898.84 1330.60 L2920.62 1329.36 L2942.40 1328.13 L2964.18 1326.64 L2986.09 1325.16 L3007.87 1323.42 L3029.65 1321.57 L3051.43 1319.46 L3073.21 1317.11 L3094.99 1314.51 L3116.77 1311.67 L3138.55 1308.45 L3160.33 1304.98 L3182.23 1301.02 L3204.01 1296.57 L3225.79 1291.74 L3247.57 1286.17 L3269.35 1280.11 L3291.13 1273.43 L3312.91 1265.88 L3334.69 1257.34 L3356.47 1248.06 L3378.38 1237.54 L3400.16 1225.91 L3421.93 1212.91 L3443.72 1198.43 L3465.49 1182.22 L3487.28 1164.28 L3509.05 1144.10 L3530.84 1121.83 L3552.61 1096.83" stroke-linejoin="round" style="fill:none;stroke:#C0DCC0;stroke-width:3.67"/>
	<path d=" M2201.39 1342.11 L2223.29 1342.11 L2245.07 1342.11 L2266.85 1342.11 L2288.63 1341.99 L2310.41 1341.99 L2332.19 1341.86 L2353.97 1341.74 L2375.75 1341.74 L2397.53 1341.62 L2419.44 1341.49 L2441.22 1341.24 L2463.00 1341.12 L2484.78 1340.87 L2506.56 1340.63 L2528.34 1340.38 L2550.12 1340.13 L2571.90 1339.76 L2593.68 1339.39 L2615.58 1338.89 L2637.36 1338.40 L2659.14 1337.90 L2680.92 1337.28 L2702.70 1336.67 L2724.48 1335.92 L2746.26 1335.18 L2768.04 1334.31 L2789.94 1333.32 L2811.72 1332.33 L2833.50 1331.34 L2855.28 1330.11 L2877.06 1328.87 L2898.84 1327.51 L2920.62 1326.02 L2942.40 1324.29 L2964.18 1322.56 L2986.09 1320.58 L3007.87 1318.47 L3029.65 1316.00 L3051.43 1313.40 L3073.21 1310.43 L3094.99 1307.21 L3116.77 1303.62 L3138.55 1299.54 L3160.33 1295.08 L3182.23 1290.13 L3204.01 1284.57 L3225.79 1278.38 L3247.57 1271.45 L3269.35 1263.77 L3291.13 1255.24 L3312.91 1245.71 L3334.69 1235.06 L3356.47 1223.18 L3378.38 1210.07 L3400.16 1195.34 L3421.93 1178.88 L3443.72 1160.56 L3465.49 1140.14 L3487.28 1117.50 L3509.05 1092.13 L3530.84 1063.91 L3552.61 1032.48" stroke-linejoin="round" style="fill:none;stroke:#00FF80;stroke-width:3.67"/>
	<path d=" M2201.39 1342.11 L2223.29 1342.11 L2245.07 1342.11 L2266.85 1341.99 L2288.63 1341.99 L2310.41 1341.86 L2332.19 1341.74 L2353.97 1341.74 L2375.75 1341.62 L2397.53 1341.49 L2419.44 1341.37 L2441.22 1341.12 L2463.00 1340.87 L2484.78 1340.75 L2506.56 1340.38 L2528.34 1340.13 L2550.12 1339.76 L2571.90 1339.39 L2593.68 1338.89 L2615.58 1338.40 L2637.36 1337.90 L2659.14 1337.28 L2680.92 1336.67 L2702.70 1335.92 L2724.48 1335.06 L2746.26 1334.19 L2768.04 1333.20 L2789.94 1332.21 L2811.72 1331.10 L2833.50 1329.86 L2855.28 1328.50 L2877.06 1327.14 L2898.84 1325.53 L2920.62 1323.80 L2942.40 1321.94 L2964.18 1319.96 L2986.09 1317.73 L3007.87 1315.26 L3029.65 1312.53 L3051.43 1309.56 L3073.21 1306.22 L3094.99 1302.51 L3116.77 1298.43 L3138.55 1293.97 L3160.33 1288.90 L3182.23 1283.20 L3204.01 1276.89 L3225.79 1269.84 L3247.57 1262.04 L3269.35 1253.38 L3291.13 1243.73 L3312.91 1232.96 L3334.69 1220.83 L3356.47 1207.47 L3378.38 1192.49 L3400.16 1175.79 L3421.93 1157.22 L3443.72 1136.56 L3465.49 1113.41 L3487.28 1087.67 L3509.05 1058.96 L3530.84 1027.03 L3552.61 991.39" stroke-linejoin="round" style="fill:none;stroke:#00B000;stroke-width:3.67"/>
	<path d=" M2201.39 1342.11 L2223.29 1341.99 L2245.07 1341.99 L2266.85 1341.86 L2288.63 1341.74 L2310.41 1341.74 L2332.19 1341.62 L2353.97 1341.37 L2375.75 1341.24 L2397.53 1341.12 L2419.44 1340.87 L2441.22 1340.63 L2463.00 1340.38 L2484.78 1340.01 L2506.56 1339.64 L2528.34 1339.14 L2550.12 1338.65 L2571.90 1338.15 L2593.68 1337.53 L2615.58 1336.79 L2637.36 1335.92 L2659.14 1335.06 L2680.92 1334.19 L2702.70 1333.08 L2724.48 1331.96 L2746.26 1330.73 L2768.04 1329.36 L2789.94 1327.88 L2811.72 1326.27 L2833.50 1324.54 L2855.28 1322.56 L2877.06 1320.58 L2898.84 1318.35 L2920.62 1315.87 L2942.40 1313.15 L2964.18 1310.31 L2986.09 1307.09 L3007.87 1303.62 L3029.65 1299.79 L3051.43 1295.46 L3073.21 1290.75 L3094.99 1285.56 L3116.77 1279.61 L3138.55 1273.18 L3160.33 1265.88 L3182.23 1257.83 L3204.01 1248.80 L3225.79 1238.78 L3247.57 1227.64 L3269.35 1215.26 L3291.13 1201.40 L3312.91 1185.93 L3334.69 1168.73 L3356.47 1149.55 L3378.38 1128.26 L3400.16 1104.38 L3421.93 1077.77 L3443.72 1048.20 L3465.49 1015.28 L3487.28 978.40 L3509.05 937.44 L3530.84 891.77 L3552.61 840.91" stroke-linejoin="round" style="fill:none;stroke:#008000;stroke-width:3.67"/>
	<path d=" M2201.39 1341.99 L2223.29 1341.99 L2245.07 1341.86 L2266.85 1341.86 L2288.63 1341.74 L2310.41 1341.62 L2332.19 1341.49 L2353.97 1341.37 L2375.75 1341.24 L2397.53 1341.00 L2419.44 1340.87 L2441.22 1340.50 L2463.00 1340.25 L2484.78 1339.88 L2506.56 1339.51 L2528.34 1339.02 L2550.12 1338.52 L2571.90 1338.03 L2593.68 1337.28 L2615.58 1336.54 L2637.36 1335.80 L2659.14 1334.93 L2680.92 1333.94 L2702.70 1332.83 L2724.48 1331.59 L2746.26 1330.35 L2768.04 1328.87 L2789.94 1327.38 L2811.72 1325.78 L2833.50 1323.92 L2855.28 1321.94 L2877.06 1319.83 L2898.84 1317.61 L2920.62 1315.01 L2942.40 1312.29 L2964.18 1309.32 L2986.09 1306.10 L3007.87 1302.39 L3029.65 1298.43 L3051.43 1294.09 L3073.21 1289.14 L3094.99 1283.70 L3116.77 1277.76 L3138.55 1270.95 L3160.33 1263.53 L3182.23 1255.24 L3204.01 1245.95 L3225.79 1235.68 L3247.57 1224.17 L3269.35 1211.30 L3291.13 1197.07 L3312.91 1181.11 L3334.69 1163.41 L3356.47 1143.73 L3378.38 1121.71 L3400.16 1097.08 L3421.93 1069.73 L3443.72 1039.16 L3465.49 1005.25 L3487.28 967.26 L3509.05 925.06 L3530.84 878.03 L3552.61 825.56" stroke-linejoin="round" style="fill:none;stroke:#006000;stroke-width:3.67"/>
	<path d=" M2201.39 1342.11 L2223.29 1341.99 L2245.07 1341.99 L2266.85 1341.86 L2288.63 1341.86 L2310.41 1341.74 L2332.19 1341.62 L2353.97 1341.49 L2375.75 1341.37 L2397.53 1341.12 L2419.44 1341.00 L2441.22 1340.75 L2463.00 1340.50 L2484.78 1340.13 L2506.56 1339.76 L2528.34 1339.39 L2550.12 1338.89 L2571.90 1338.40 L2593.68 1337.78 L2615.58 1337.16 L2637.36 1336.42 L2659.14 1335.55 L2680.92 1334.69 L2702.70 1333.70 L2724.48 1332.58 L2746.26 1331.47 L2768.04 1330.23 L2789.94 1328.75 L2811.72 1327.26 L2833.50 1325.65 L2855.28 1323.92 L2877.06 1321.94 L2898.84 1319.83 L2920.62 1317.61 L2942.40 1315.13 L2964.18 1312.41 L2986.09 1309.44 L3007.87 1306.22 L3029.65 1302.63 L3051.43 1298.67 L3073.21 1294.22 L3094.99 1289.27 L3116.77 1283.82 L3138.55 1277.76 L3160.33 1270.95 L3182.23 1263.40 L3204.01 1254.99 L3225.79 1245.71 L3247.57 1235.31 L3269.35 1223.68 L3291.13 1210.68 L3312.91 1196.33 L3334.69 1180.24 L3356.47 1162.42 L3378.38 1142.37 L3400.16 1120.22 L3421.93 1095.35 L3443.72 1067.75 L3465.49 1036.93 L3487.28 1002.53 L3509.05 964.29 L3530.84 921.72 L3552.61 874.20" stroke-linejoin="round" style="fill:none;stroke:#5C4717;stroke-width:3.67"/>
	<path d=" M2201.39 1342.11 L2223.29 1342.11 L2245.07 1342.11 L2266.85 1341.99 L2288.63 1341.99 L2310.41 1341.86 L2332.19 1341.74 L2353.97 1341.62 L2375.75 1341.62 L2397.53 1341.37 L2419.44 1341.24 L2441.22 1341.12 L2463.00 1340.87 L2484.78 1340.63 L2506.56 1340.38 L2528.34 1340.01 L2550.12 1339.64 L2571.90 1339.26 L2593.68 1338.77 L2615.58 1338.27 L2637.36 1337.66 L2659.14 1337.04 L2680.92 1336.42 L2702.70 1335.55 L2724.48 1334.81 L2746.26 1333.82 L2768.04 1332.83 L2789.94 1331.84 L2811.72 1330.60 L2833.50 1329.36 L2855.28 1328.00 L2877.06 1326.52 L2898.84 1324.79 L2920.62 1323.05 L2942.40 1321.20 L2964.18 1318.97 L2986.09 1316.74 L3007.87 1314.14 L3029.65 1311.42 L3051.43 1308.20 L3073.21 1304.86 L3094.99 1301.02 L3116.77 1296.69 L3138.55 1291.99 L3160.33 1286.67 L3182.23 1280.85 L3204.01 1274.29 L3225.79 1266.99 L3247.57 1258.82 L3269.35 1249.79 L3291.13 1239.77 L3312.91 1228.50 L3334.69 1216.01 L3356.47 1202.02 L3378.38 1186.43 L3400.16 1169.10 L3421.93 1149.80 L3443.72 1128.26 L3465.49 1104.13 L3487.28 1077.40 L3509.05 1047.58 L3530.84 1014.29 L3552.61 977.28" stroke-linejoin="round" style="fill:none;stroke:#D7D29E;stroke-width:3.67"/>
	<path d=" M2201.39 1341.99 L2223.29 1341.86 L2245.07 1341.86 L2266.85 1341.74 L2288.63 1341.62 L2310.41 1341.49 L2332.19 1341.24 L2353.97 1341.12 L2375.75 1340.87 L2397.53 1340.63 L2419.44 1340.38 L2441.22 1340.01 L2463.00 1339.64 L2484.78 1339.26 L2506.56 1338.77 L2528.34 1338.15 L2550.12 1337.53 L2571.90 1336.67 L2593.68 1335.92 L2615.58 1334.93 L2637.36 1333.94 L2659.14 1332.71 L2680.92 1331.47 L2702.70 1330.11 L2724.48 1328.50 L2746.26 1326.89 L2768.04 1325.03 L2789.94 1323.05 L2811.72 1320.95 L2833.50 1318.60 L2855.28 1316.12 L2877.06 1313.40 L2898.84 1310.43 L2920.62 1307.21 L2942.40 1303.62 L2964.18 1299.79 L2986.09 1295.58 L3007.87 1291.00 L3029.65 1285.80 L3051.43 1280.23 L3073.21 1273.92 L3094.99 1266.87 L3116.77 1259.20 L3138.55 1250.53 L3160.33 1240.88 L3182.23 1230.11 L3204.01 1218.23 L3225.79 1204.99 L3247.57 1190.14 L3269.35 1173.68 L3291.13 1155.37 L3312.91 1134.82 L3334.69 1112.05 L3356.47 1086.56 L3378.38 1058.22 L3400.16 1026.66 L3421.93 991.39 L3443.72 952.16 L3465.49 908.35 L3487.28 859.59 L3509.05 805.27 L3530.84 744.75 L3552.61 677.30" stroke-linejoin="round" style="fill:none;stroke:#D9C263;stroke-width:3.67"/>
	<path d=" M2201.39 1341.74 L2223.29 1341.74 L2245.07 1341.62 L2266.85 1341.49 L2288.63 1341.24 L2310.41 1341.12 L2332.19 1340.87 L2353.97 1340.63 L2375.75 1340.38 L2397.53 1340.01 L2419.44 1339.64 L2441.22 1339.14 L2463.00 1338.65 L2484.78 1338.03 L2506.56 1337.28 L2528.34 1336.54 L2550.12 1335.55 L2571.90 1334.56 L2593.68 1333.45 L2615.58 1332.09 L2637.36 1330.60 L2659.14 1328.99 L2680.92 1327.26 L2702.70 1325.28 L2724.48 1323.18 L2746.26 1320.95 L2768.04 1318.35 L2789.94 1315.63 L2811.72 1312.66 L2833.50 1309.56 L2855.28 1305.97 L2877.06 1302.26 L2898.84 1298.18 L2920.62 1293.72 L2942.40 1288.77 L2964.18 1283.45 L2986.09 1277.63 L3007.87 1271.20 L3029.65 1264.15 L3051.43 1256.35 L3073.21 1247.56 L3094.99 1237.91 L3116.77 1227.14 L3138.55 1215.14 L3160.33 1201.90 L3182.23 1187.05 L3204.01 1170.46 L3225.79 1152.15 L3247.57 1131.61 L3269.35 1108.83 L3291.13 1083.47 L3312.91 1055.13 L3334.69 1023.44 L3356.47 988.30 L3378.38 949.07 L3400.16 905.38 L3421.93 856.62 L3443.72 802.17 L3465.49 741.66 L3487.28 674.21 L3509.05 598.97 L3530.84 515.31 L3552.61 422.00" stroke-linejoin="round" style="fill:none;stroke:#A0522D;stroke-width:3.67"/>
	<path d=" M2201.39 1341.99 L2223.29 1341.99 L2245.07 1341.86 L2266.85 1341.74 L2288.63 1341.74 L2310.41 1341.62 L2332.19 1341.49 L2353.97 1341.24 L2375.75 1341.12 L2397.53 1340.87 L2419.44 1340.63 L2441.22 1340.38 L2463.00 1340.01 L2484.78 1339.64 L2506.56 1339.14 L2528.34 1338.65 L2550.12 1338.15 L2571.90 1337.41 L2593.68 1336.79 L2615.58 1335.92 L2637.36 1335.06 L2659.14 1333.94 L2680.92 1332.83 L2702.70 1331.72 L2724.48 1330.35 L2746.26 1328.87 L2768.04 1327.38 L2789.94 1325.65 L2811.72 1323.80 L2833.50 1321.69 L2855.28 1319.59 L2877.06 1317.24 L2898.84 1314.64 L2920.62 1311.79 L2942.40 1308.82 L2964.18 1305.48 L2986.09 1301.77 L3007.87 1297.68 L3029.65 1293.23 L3051.43 1288.40 L3073.21 1282.96 L3094.99 1276.77 L3116.77 1270.09 L3138.55 1262.54 L3160.33 1254.25 L3182.23 1244.96 L3204.01 1234.57 L3225.79 1223.06 L3247.57 1210.19 L3269.35 1195.83 L3291.13 1179.87 L3312.91 1162.17 L3334.69 1142.25 L3356.47 1120.22 L3378.38 1095.59 L3400.16 1068.12 L3421.93 1037.55 L3443.72 1003.40 L3465.49 965.40 L3487.28 922.96 L3509.05 875.81 L3530.84 823.21 L3552.61 764.55" stroke-linejoin="round" style="fill:none;stroke:#FF0000;stroke-width:3.67"/>
	<path d=" M2201.39 1341.99 L2223.29 1341.86 L2245.07 1341.74 L2266.85 1341.74 L2288.63 1341.62 L2310.41 1341.49 L2332.19 1341.24 L2353.97 1341.12 L2375.75 1340.87 L2397.53 1340.63 L2419.44 1340.38 L2441.22 1340.01 L2463.00 1339.64 L2484.78 1339.14 L2506.56 1338.65 L2528.34 1338.03 L2550.12 1337.41 L2571.90 1336.67 L2593.68 1335.80 L2615.58 1334.81 L2637.36 1333.82 L2659.14 1332.58 L2680.92 1331.34 L2702.70 1329.86 L2724.48 1328.25 L2746.26 1326.64 L2768.04 1324.79 L2789.94 1322.81 L2811.72 1320.58 L2833.50 1318.23 L2855.28 1315.75 L2877.06 1312.90 L2898.84 1309.93 L2920.62 1306.72 L2942.40 1303.13 L2964.18 1299.17 L2986.09 1294.84 L3007.87 1290.13 L3029.65 1284.94 L3051.43 1279.24 L3073.21 1272.81 L3094.99 1265.75 L3116.77 1257.83 L3138.55 1249.05 L3160.33 1239.27 L3182.23 1228.38 L3204.01 1216.38 L3225.79 1202.89 L3247.57 1187.79 L3269.35 1171.08 L3291.13 1152.40 L3312.91 1131.61 L3334.69 1108.46 L3356.47 1082.72 L3378.38 1053.89 L3400.16 1021.84 L3421.93 986.07 L3443.72 946.10 L3465.49 901.67 L3487.28 852.17 L3509.05 796.97 L3530.84 735.47 L3552.61 667.03" stroke-linejoin="round" style="fill:none;stroke:#90353B;stroke-width:3.67"/>
	<path d=" M2201.39 1342.11 L2223.29 1341.99 L2245.07 1341.99 L2266.85 1341.86 L2288.63 1341.86 L2310.41 1341.74 L2332.19 1341.62 L2353.97 1341.49 L2375.75 1341.37 L2397.53 1341.24 L2419.44 1341.00 L2441.22 1340.75 L2463.00 1340.50 L2484.78 1340.25 L2506.56 1339.88 L2528.34 1339.51 L2550.12 1339.02 L2571.90 1338.52 L2593.68 1338.03 L2615.58 1337.41 L2637.36 1336.67 L2659.14 1335.80 L2680.92 1334.93 L2702.70 1334.07 L2724.48 1332.95 L2746.26 1331.84 L2768.04 1330.73 L2789.94 1329.36 L2811.72 1327.88 L2833.50 1326.27 L2855.28 1324.66 L2877.06 1322.81 L2898.84 1320.83 L2920.62 1318.60 L2942.40 1316.25 L2964.18 1313.65 L2986.09 1310.80 L3007.87 1307.71 L3029.65 1304.24 L3051.43 1300.41 L3073.21 1296.07 L3094.99 1291.37 L3116.77 1286.17 L3138.55 1280.36 L3160.33 1273.80 L3182.23 1266.62 L3204.01 1258.45 L3225.79 1249.54 L3247.57 1239.52 L3269.35 1228.38 L3291.13 1216.01 L3312.91 1202.15 L3334.69 1186.80 L3356.47 1169.60 L3378.38 1150.42 L3400.16 1129.01 L3421.93 1105.25 L3443.72 1078.76 L3465.49 1049.19 L3487.28 1016.14 L3509.05 979.39 L3530.84 938.55 L3552.61 892.88" stroke-linejoin="round" style="fill:none;stroke:#303030;stroke-width:3.67"/>
	<path d=" M2201.39 1342.11 L2223.29 1342.11 L2245.07 1342.11 L2266.85 1341.99 L2288.63 1341.99 L2310.41 1341.86 L2332.19 1341.86 L2353.97 1341.74 L2375.75 1341.62 L2397.53 1341.49 L2419.44 1341.37 L2441.22 1341.24 L2463.00 1341.00 L2484.78 1340.87 L2506.56 1340.63 L2528.34 1340.25 L2550.12 1340.01 L2571.90 1339.64 L2593.68 1339.26 L2615.58 1338.77 L2637.36 1338.27 L2659.14 1337.66 L2680.92 1337.04 L2702.70 1336.42 L2724.48 1335.68 L2746.26 1334.81 L2768.04 1333.94 L2789.94 1332.95 L2811.72 1331.96 L2833.50 1330.85 L2855.28 1329.61 L2877.06 1328.25 L2898.84 1326.77 L2920.62 1325.28 L2942.40 1323.55 L2964.18 1321.69 L2986.09 1319.59 L3007.87 1317.36 L3029.65 1314.88 L3051.43 1312.16 L3073.21 1309.07 L3094.99 1305.60 L3116.77 1301.89 L3138.55 1297.68 L3160.33 1292.98 L3182.23 1287.78 L3204.01 1281.97 L3225.79 1275.53 L3247.57 1268.23 L3269.35 1260.31 L3291.13 1251.28 L3312.91 1241.38 L3334.69 1230.24 L3356.47 1217.86 L3378.38 1204.00 L3400.16 1188.66 L3421.93 1171.45 L3443.72 1152.40 L3465.49 1131.11 L3487.28 1107.35 L3509.05 1080.87 L3530.84 1051.29 L3552.61 1018.49" stroke-linejoin="round" style="fill:none;stroke:#505050;stroke-width:3.67"/>
	<path d=" M2201.39 1342.23 L2223.29 1342.11 L2245.07 1342.11 L2266.85 1342.11 L2288.63 1342.11 L2310.41 1341.99 L2332.19 1341.99 L2353.97 1341.86 L2375.75 1341.74 L2397.53 1341.74 L2419.44 1341.62 L2441.22 1341.49 L2463.00 1341.24 L2484.78 1341.12 L2506.56 1340.87 L2528.34 1340.63 L2550.12 1340.38 L2571.90 1340.13 L2593.68 1339.76 L2615.58 1339.39 L2637.36 1339.02 L2659.14 1338.52 L2680.92 1338.03 L2702.70 1337.53 L2724.48 1336.91 L2746.26 1336.17 L2768.04 1335.55 L2789.94 1334.69 L2811.72 1333.94 L2833.50 1332.95 L2855.28 1331.96 L2877.06 1330.85 L2898.84 1329.74 L2920.62 1328.50 L2942.40 1327.01 L2964.18 1325.53 L2986.09 1323.92 L3007.87 1322.06 L3029.65 1319.96 L3051.43 1317.73 L3073.21 1315.26 L3094.99 1312.53 L3116.77 1309.44 L3138.55 1305.97 L3160.33 1302.26 L3182.23 1297.93 L3204.01 1293.23 L3225.79 1288.03 L3247.57 1282.21 L3269.35 1275.65 L3291.13 1268.35 L3312.91 1260.31 L3334.69 1251.28 L3356.47 1241.25 L3378.38 1229.99 L3400.16 1217.49 L3421.93 1203.51 L3443.72 1188.04 L3465.49 1170.71 L3487.28 1151.28 L3509.05 1129.87 L3530.84 1105.86 L3552.61 1079.13" stroke-linejoin="round" style="fill:none;stroke:#707070;stroke-width:3.67"/>
	<path d=" M2201.39 1341.99 L2223.29 1341.86 L2245.07 1341.86 L2266.85 1341.74 L2288.63 1341.62 L2310.41 1341.49 L2332.19 1341.37 L2353.97 1341.24 L2375.75 1341.00 L2397.53 1340.75 L2419.44 1340.50 L2441.22 1340.13 L2463.00 1339.76 L2484.78 1339.39 L2506.56 1338.89 L2528.34 1338.40 L2550.12 1337.78 L2571.90 1337.04 L2593.68 1336.17 L2615.58 1335.30 L2637.36 1334.31 L2659.14 1333.20 L2680.92 1331.96 L2702.70 1330.73 L2724.48 1329.24 L2746.26 1327.63 L2768.04 1325.90 L2789.94 1324.04 L2811.72 1322.06 L2833.50 1319.83 L2855.28 1317.48 L2877.06 1314.88 L2898.84 1312.04 L2920.62 1308.94 L2942.40 1305.60 L2964.18 1302.01 L2986.09 1297.93 L3007.87 1293.60 L3029.65 1288.77 L3051.43 1283.33 L3073.21 1277.39 L3094.99 1270.70 L3116.77 1263.40 L3138.55 1255.11 L3160.33 1246.08 L3182.23 1235.81 L3204.01 1224.54 L3225.79 1211.92 L3247.57 1197.94 L3269.35 1182.22 L3291.13 1164.77 L3312.91 1145.34 L3334.69 1123.69 L3356.47 1099.55 L3378.38 1072.70 L3400.16 1042.63 L3421.93 1009.21 L3443.72 971.96 L3465.49 930.38 L3487.28 884.10 L3509.05 832.49 L3530.84 774.95 L3552.61 710.97" stroke-linejoin="round" style="fill:none;stroke:#FFE474;stroke-width:3.67"/>
	<path d=" M2201.39 1341.99 L2223.29 1341.86 L2245.07 1341.74 L2266.85 1341.74 L2288.63 1341.62 L2310.41 1341.49 L2332.19 1341.24 L2353.97 1341.12 L2375.75 1340.87 L2397.53 1340.63 L2419.44 1340.38 L2441.22 1340.01 L2463.00 1339.64 L2484.78 1339.14 L2506.56 1338.65 L2528.34 1338.03 L2550.12 1337.41 L2571.90 1336.67 L2593.68 1335.80 L2615.58 1334.81 L2637.36 1333.82 L2659.14 1332.58 L2680.92 1331.34 L2702.70 1329.86 L2724.48 1328.37 L2746.26 1326.64 L2768.04 1324.91 L2789.94 1322.93 L2811.72 1320.70 L2833.50 1318.35 L2855.28 1315.87 L2877.06 1313.03 L2898.84 1310.06 L2920.62 1306.84 L2942.40 1303.25 L2964.18 1299.42 L2986.09 1295.08 L3007.87 1290.38 L3029.65 1285.18 L3051.43 1279.49 L3073.21 1273.18 L3094.99 1266.13 L3116.77 1258.21 L3138.55 1249.54 L3160.33 1239.77 L3182.23 1229.00 L3204.01 1216.87 L3225.79 1203.51 L3247.57 1188.53 L3269.35 1171.83 L3291.13 1153.26 L3312.91 1132.60 L3334.69 1109.58 L3356.47 1083.84 L3378.38 1055.13 L3400.16 1023.20 L3421.93 987.56 L3443.72 947.95 L3465.49 903.65 L3487.28 854.40 L3509.05 799.45 L3530.84 738.19 L3552.61 670.13" stroke-linejoin="round" style="fill:none;stroke:#FFD200;stroke-width:3.67"/>
	<path d=" M2201.39 1342.11 L2223.29 1342.11 L2245.07 1341.99 L2266.85 1341.99 L2288.63 1341.86 L2310.41 1341.74 L2332.19 1341.74 L2353.97 1341.62 L2375.75 1341.49 L2397.53 1341.24 L2419.44 1341.12 L2441.22 1340.87 L2463.00 1340.63 L2484.78 1340.38 L2506.56 1340.13 L2528.34 1339.76 L2550.12 1339.26 L2571.90 1338.89 L2593.68 1338.27 L2615.58 1337.78 L2637.36 1337.04 L2659.14 1336.29 L2680.92 1335.55 L2702.70 1334.69 L2724.48 1333.70 L2746.26 1332.71 L2768.04 1331.59 L2789.94 1330.35 L2811.72 1328.99 L2833.50 1327.51 L2855.28 1326.02 L2877.06 1324.29 L2898.84 1322.43 L2920.62 1320.45 L2942.40 1318.23 L2964.18 1315.87 L2986.09 1313.15 L3007.87 1310.31 L3029.65 1307.09 L3051.43 1303.62 L3073.21 1299.66 L3094.99 1295.33 L3116.77 1290.38 L3138.55 1285.06 L3160.33 1279.00 L3182.23 1272.31 L3204.01 1264.89 L3225.79 1256.60 L3247.57 1247.32 L3269.35 1237.04 L3291.13 1225.66 L3312.91 1212.79 L3334.69 1198.56 L3356.47 1182.72 L3378.38 1165.02 L3400.16 1145.34 L3421.93 1123.31 L3443.72 1098.81 L3465.49 1071.46 L3487.28 1041.02 L3509.05 1006.99 L3530.84 969.24 L3552.61 927.04" stroke-linejoin="round" style="fill:none;stroke:#FFFF00;stroke-width:3.67"/>
	<path d=" M2201.39 1342.11 L2223.29 1342.11 L2245.07 1342.11 L2266.85 1341.99 L2288.63 1341.99 L2310.41 1341.86 L2332.19 1341.74 L2353.97 1341.74 L2375.75 1341.62 L2397.53 1341.49 L2419.44 1341.24 L2441.22 1341.12 L2463.00 1340.87 L2484.78 1340.63 L2506.56 1340.38 L2528.34 1340.13 L2550.12 1339.76 L2571.90 1339.39 L2593.68 1338.89 L2615.58 1338.40 L2637.36 1337.78 L2659.14 1337.16 L2680.92 1336.54 L2702.70 1335.80 L2724.48 1334.93 L2746.26 1334.07 L2768.04 1333.08 L2789.94 1332.09 L2811.72 1330.85 L2833.50 1329.61 L2855.28 1328.25 L2877.06 1326.89 L2898.84 1325.28 L2920.62 1323.55 L2942.40 1321.69 L2964.18 1319.59 L2986.09 1317.36 L3007.87 1314.88 L3029.65 1312.04 L3051.43 1309.07 L3073.21 1305.73 L3094.99 1301.89 L3116.77 1297.81 L3138.55 1293.10 L3160.33 1288.03 L3182.23 1282.21 L3204.01 1275.90 L3225.79 1268.72 L3247.57 1260.80 L3269.35 1252.02 L3291.13 1242.12 L3312.91 1231.23 L3334.69 1218.98 L3356.47 1205.36 L3378.38 1190.14 L3400.16 1173.19 L3421.93 1154.25 L3443.72 1133.21 L3465.49 1109.82 L3487.28 1083.59 L3509.05 1054.51 L3530.84 1022.08 L3552.61 985.82" stroke-linejoin="round" style="fill:none;stroke:#FF80FF;stroke-width:3.67"/>
	<path d=" M2201.39 1342.11 L2223.29 1342.11 L2245.07 1342.11 L2266.85 1342.11 L2288.63 1341.99 L2310.41 1341.99 L2332.19 1341.86 L2353.97 1341.74 L2375.75 1341.74 L2397.53 1341.62 L2419.44 1341.49 L2441.22 1341.24 L2463.00 1341.12 L2484.78 1340.87 L2506.56 1340.63 L2528.34 1340.38 L2550.12 1340.13 L2571.90 1339.76 L2593.68 1339.39 L2615.58 1338.89 L2637.36 1338.40 L2659.14 1337.90 L2680.92 1337.28 L2702.70 1336.67 L2724.48 1335.92 L2746.26 1335.18 L2768.04 1334.31 L2789.94 1333.45 L2811.72 1332.46 L2833.50 1331.34 L2855.28 1330.11 L2877.06 1328.87 L2898.84 1327.51 L2920.62 1326.02 L2942.40 1324.41 L2964.18 1322.56 L2986.09 1320.58 L3007.87 1318.47 L3029.65 1316.12 L3051.43 1313.40 L3073.21 1310.55 L3094.99 1307.34 L3116.77 1303.62 L3138.55 1299.66 L3160.33 1295.21 L3182.23 1290.13 L3204.01 1284.69 L3225.79 1278.50 L3247.57 1271.57 L3269.35 1263.90 L3291.13 1255.36 L3312.91 1245.83 L3334.69 1235.31 L3356.47 1223.43 L3378.38 1210.19 L3400.16 1195.59 L3421.93 1179.13 L3443.72 1160.81 L3465.49 1140.52 L3487.28 1117.74 L3509.05 1092.50 L3530.84 1064.28 L3552.61 1032.97" stroke-linejoin="round" style="fill:none;stroke:#FF00FF;stroke-width:3.67"/>
	<path d=" M2201.39 1341.99 L2223.29 1341.99 L2245.07 1341.86 L2266.85 1341.74 L2288.63 1341.62 L2310.41 1341.62 L2332.19 1341.37 L2353.97 1341.24 L2375.75 1341.12 L2397.53 1340.87 L2419.44 1340.63 L2441.22 1340.25 L2463.00 1339.88 L2484.78 1339.51 L2506.56 1339.14 L2528.34 1338.52 L2550.12 1338.03 L2571.90 1337.28 L2593.68 1336.54 L2615.58 1335.68 L2637.36 1334.81 L2659.14 1333.70 L2680.92 1332.58 L2702.70 1331.34 L2724.48 1329.98 L2746.26 1328.50 L2768.04 1326.89 L2789.94 1325.16 L2811.72 1323.18 L2833.50 1321.20 L2855.28 1318.84 L2877.06 1316.49 L2898.84 1313.77 L2920.62 1310.92 L2942.40 1307.83 L2964.18 1304.37 L2986.09 1300.53 L3007.87 1296.45 L3029.65 1291.87 L3051.43 1286.79 L3073.21 1281.10 L3094.99 1274.91 L3116.77 1267.98 L3138.55 1260.19 L3160.33 1251.65 L3182.23 1241.99 L3204.01 1231.35 L3225.79 1219.47 L3247.57 1206.23 L3269.35 1191.50 L3291.13 1175.17 L3312.91 1156.85 L3334.69 1136.43 L3356.47 1113.66 L3378.38 1088.29 L3400.16 1060.08 L3421.93 1028.52 L3443.72 993.50 L3465.49 954.27 L3487.28 910.70 L3509.05 862.07 L3530.84 807.99 L3552.61 747.60" stroke-linejoin="round" style="fill:none;stroke:#FF0000;stroke-width:3.67"/>
	<path d=" M2201.39 1342.23 L2223.29 1342.11 L2245.07 1342.11 L2266.85 1342.11 L2288.63 1341.99 L2310.41 1341.99 L2332.19 1341.99 L2353.97 1341.86 L2375.75 1341.74 L2397.53 1341.62 L2419.44 1341.62 L2441.22 1341.37 L2463.00 1341.24 L2484.78 1341.12 L2506.56 1340.87 L2528.34 1340.63 L2550.12 1340.38 L2571.90 1340.13 L2593.68 1339.76 L2615.58 1339.39 L2637.36 1338.89 L2659.14 1338.52 L2680.92 1337.90 L2702.70 1337.41 L2724.48 1336.79 L2746.26 1336.05 L2768.04 1335.43 L2789.94 1334.56 L2811.72 1333.70 L2833.50 1332.83 L2855.28 1331.84 L2877.06 1330.73 L2898.84 1329.49 L2920.62 1328.13 L2942.40 1326.77 L2964.18 1325.16 L2986.09 1323.55 L3007.87 1321.69 L3029.65 1319.59 L3051.43 1317.36 L3073.21 1314.76 L3094.99 1311.91 L3116.77 1308.82 L3138.55 1305.36 L3160.33 1301.40 L3182.23 1297.19 L3204.01 1292.36 L3225.79 1286.92 L3247.57 1280.98 L3269.35 1274.42 L3291.13 1266.99 L3312.91 1258.70 L3334.69 1249.54 L3356.47 1239.27 L3378.38 1227.89 L3400.16 1215.14 L3421.93 1200.91 L3443.72 1185.07 L3465.49 1167.37 L3487.28 1147.69 L3509.05 1125.79 L3530.84 1101.29 L3552.61 1074.06" stroke-linejoin="round" style="fill:none;stroke:#000000;stroke-width:3.67"/>
	<line x1="2201.39" y1="1286.92" x2="2204.24" y2="1286.92" style="stroke:#000000;stroke-width:7.34"/>
	<line x1="2224.41" y1="1286.92" x2="2227.25" y2="1286.92" style="stroke:#000000;stroke-width:7.34"/>
	<line x1="2247.42" y1="1286.92" x2="2250.27" y2="1286.92" style="stroke:#000000;stroke-width:7.34"/>
	<line x1="2270.44" y1="1286.92" x2="2273.29" y2="1286.92" style="stroke:#000000;stroke-width:7.34"/>
	<line x1="2293.46" y1="1286.92" x2="2296.43" y2="1286.92" style="stroke:#000000;stroke-width:7.34"/>
	<line x1="2316.60" y1="1286.92" x2="2319.45" y2="1286.92" style="stroke:#000000;stroke-width:7.34"/>
	<line x1="2339.62" y1="1286.92" x2="2342.46" y2="1286.92" style="stroke:#000000;stroke-width:7.34"/>
	<line x1="2362.64" y1="1286.92" x2="2365.48" y2="1286.92" style="stroke:#000000;stroke-width:7.34"/>
	<line x1="2385.65" y1="1286.92" x2="2388.50" y2="1286.92" style="stroke:#000000;stroke-width:7.34"/>
	<line x1="2408.67" y1="1286.92" x2="2411.52" y2="1286.92" style="stroke:#000000;stroke-width:7.34"/>
	<line x1="2431.69" y1="1286.92" x2="2434.53" y2="1286.92" style="stroke:#000000;stroke-width:7.34"/>
	<line x1="2454.70" y1="1286.92" x2="2457.55" y2="1286.92" style="stroke:#000000;stroke-width:7.34"/>
	<line x1="2477.72" y1="1286.92" x2="2480.57" y2="1286.92" style="stroke:#000000;stroke-width:7.34"/>
	<line x1="2500.74" y1="1286.92" x2="2503.59" y2="1286.92" style="stroke:#000000;stroke-width:7.34"/>
	<line x1="2523.76" y1="1286.92" x2="2526.60" y2="1286.92" style="stroke:#000000;stroke-width:7.34"/>
	<line x1="2546.78" y1="1286.92" x2="2549.74" y2="1286.92" style="stroke:#000000;stroke-width:7.34"/>
	<line x1="2569.92" y1="1286.92" x2="2571.90" y2="1286.92" style="stroke:#000000;stroke-width:7.34"/>
	<line x1="2571.90" y1="1286.92" x2="2572.76" y2="1286.92" style="stroke:#000000;stroke-width:7.34"/>
	<line x1="2592.93" y1="1286.92" x2="2593.68" y2="1286.92" style="stroke:#000000;stroke-width:7.34"/>
	<line x1="2593.68" y1="1286.92" x2="2595.78" y2="1286.92" style="stroke:#000000;stroke-width:7.34"/>
	<line x1="2615.95" y1="1286.92" x2="2618.80" y2="1286.92" style="stroke:#000000;stroke-width:7.34"/>
	<line x1="2638.97" y1="1286.92" x2="2641.82" y2="1286.92" style="stroke:#000000;stroke-width:7.34"/>
	<line x1="2661.99" y1="1286.92" x2="2664.83" y2="1286.92" style="stroke:#000000;stroke-width:7.34"/>
	<line x1="2685.00" y1="1286.92" x2="2687.85" y2="1286.92" style="stroke:#000000;stroke-width:7.34"/>
	<line x1="2708.02" y1="1286.92" x2="2710.87" y2="1286.92" style="stroke:#000000;stroke-width:7.34"/>
	<line x1="2731.04" y1="1286.92" x2="2733.89" y2="1286.92" style="stroke:#000000;stroke-width:7.34"/>
	<line x1="2754.06" y1="1286.92" x2="2756.90" y2="1286.92" style="stroke:#000000;stroke-width:7.34"/>
	<line x1="2777.07" y1="1286.92" x2="2779.92" y2="1286.92" style="stroke:#000000;stroke-width:7.34"/>
	<line x1="2800.09" y1="1286.92" x2="2803.06" y2="1286.92" style="stroke:#000000;stroke-width:7.34"/>
	<line x1="2823.23" y1="1286.92" x2="2826.08" y2="1286.92" style="stroke:#000000;stroke-width:7.34"/>
	<line x1="2846.25" y1="1286.92" x2="2849.10" y2="1286.92" style="stroke:#000000;stroke-width:7.34"/>
	<line x1="2869.27" y1="1286.92" x2="2872.11" y2="1286.92" style="stroke:#000000;stroke-width:7.34"/>
	<line x1="2892.28" y1="1286.92" x2="2895.13" y2="1286.92" style="stroke:#000000;stroke-width:7.34"/>
	<line x1="2915.30" y1="1286.92" x2="2918.15" y2="1286.92" style="stroke:#000000;stroke-width:7.34"/>
	<line x1="2938.32" y1="1286.92" x2="2941.17" y2="1286.92" style="stroke:#000000;stroke-width:7.34"/>
	<line x1="2961.34" y1="1286.92" x2="2964.18" y2="1286.92" style="stroke:#000000;stroke-width:7.34"/>
	<line x1="2984.36" y1="1286.92" x2="2986.09" y2="1286.92" style="stroke:#000000;stroke-width:7.34"/>
	<line x1="2986.09" y1="1286.92" x2="2987.20" y2="1286.92" style="stroke:#000000;stroke-width:7.34"/>
	<line x1="3007.37" y1="1286.92" x2="3007.87" y2="1286.92" style="stroke:#000000;stroke-width:7.34"/>
	<line x1="3007.87" y1="1286.92" x2="3010.22" y2="1286.92" style="stroke:#000000;stroke-width:7.34"/>
	<line x1="3030.39" y1="1286.92" x2="3033.36" y2="1286.92" style="stroke:#000000;stroke-width:7.34"/>
	<line x1="3053.41" y1="1286.92" x2="3056.38" y2="1286.92" style="stroke:#000000;stroke-width:7.34"/>
	<line x1="3076.55" y1="1286.92" x2="3079.39" y2="1286.92" style="stroke:#000000;stroke-width:7.34"/>
	<line x1="3099.57" y1="1286.92" x2="3102.41" y2="1286.92" style="stroke:#000000;stroke-width:7.34"/>
	<line x1="3122.58" y1="1286.92" x2="3125.43" y2="1286.92" style="stroke:#000000;stroke-width:7.34"/>
	<line x1="3145.60" y1="1286.92" x2="3148.45" y2="1286.92" style="stroke:#000000;stroke-width:7.34"/>
	<line x1="3168.62" y1="1286.92" x2="3171.47" y2="1286.92" style="stroke:#000000;stroke-width:7.34"/>
	<line x1="3191.64" y1="1286.92" x2="3194.48" y2="1286.92" style="stroke:#000000;stroke-width:7.34"/>
	<line x1="3214.65" y1="1286.92" x2="3217.50" y2="1286.92" style="stroke:#000000;stroke-width:7.34"/>
	<line x1="3237.67" y1="1286.92" x2="3240.52" y2="1286.92" style="stroke:#000000;stroke-width:7.34"/>
	<line x1="3260.69" y1="1286.92" x2="3263.53" y2="1286.92" style="stroke:#000000;stroke-width:7.34"/>
	<line x1="3283.71" y1="1286.92" x2="3286.68" y2="1286.92" style="stroke:#000000;stroke-width:7.34"/>
	<line x1="3306.72" y1="1286.92" x2="3309.69" y2="1286.92" style="stroke:#000000;stroke-width:7.34"/>
	<line x1="3329.86" y1="1286.92" x2="3332.71" y2="1286.92" style="stroke:#000000;stroke-width:7.34"/>
	<line x1="3352.88" y1="1286.92" x2="3355.73" y2="1286.92" style="stroke:#000000;stroke-width:7.34"/>
	<line x1="3375.90" y1="1286.92" x2="3378.38" y2="1286.92" style="stroke:#000000;stroke-width:7.34"/>
	<line x1="3378.38" y1="1286.92" x2="3378.75" y2="1286.92" style="stroke:#000000;stroke-width:7.34"/>
	<line x1="3398.92" y1="1286.92" x2="3400.16" y2="1286.92" style="stroke:#000000;stroke-width:7.34"/>
	<line x1="3400.16" y1="1286.92" x2="3401.76" y2="1286.92" style="stroke:#000000;stroke-width:7.34"/>
	<line x1="3421.93" y1="1286.92" x2="3421.93" y2="1286.92" style="stroke:#000000;stroke-width:7.34"/>
	<line x1="3421.93" y1="1286.92" x2="3424.78" y2="1286.92" style="stroke:#000000;stroke-width:7.34"/>
	<line x1="3444.95" y1="1286.92" x2="3447.80" y2="1286.92" style="stroke:#000000;stroke-width:7.34"/>
	<line x1="3467.97" y1="1286.92" x2="3470.82" y2="1286.92" style="stroke:#000000;stroke-width:7.34"/>
	<line x1="3490.99" y1="1286.92" x2="3493.83" y2="1286.92" style="stroke:#000000;stroke-width:7.34"/>
	<line x1="3514.01" y1="1286.92" x2="3516.85" y2="1286.92" style="stroke:#000000;stroke-width:7.34"/>
	<line x1="3537.02" y1="1286.92" x2="3539.99" y2="1286.92" style="stroke:#000000;stroke-width:7.34"/>
	<path d="" stroke-linejoin="round" style="fill:none;stroke:#000000;stroke-width:7.34"/>
	<line x1="401.69" y1="1396.19" x2="401.69" y2="258.27" style="stroke:#000000;stroke-width:4.90"/>
	<line x1="401.69" y1="1342.23" x2="367.66" y2="1342.23" style="stroke:#000000;stroke-width:4.90"/>
	<text x="350.71" y="1372.02" style="font-family:'Helvetica';font-size:85.02px;fill:#000000" text-anchor="end">0</text>
	<line x1="401.69" y1="1136.31" x2="367.66" y2="1136.31" style="stroke:#000000;stroke-width:4.90"/>
	<text x="350.71" y="1166.10" style="font-family:'Helvetica';font-size:85.02px;fill:#000000" text-anchor="end">.001</text>
	<line x1="401.69" y1="930.26" x2="367.66" y2="930.26" style="stroke:#000000;stroke-width:4.90"/>
	<text x="350.71" y="960.05" style="font-family:'Helvetica';font-size:85.02px;fill:#000000" text-anchor="end">.002</text>
	<line x1="401.69" y1="724.21" x2="367.66" y2="724.21" style="stroke:#000000;stroke-width:4.90"/>
	<text x="350.71" y="754.00" style="font-family:'Helvetica';font-size:85.02px;fill:#000000" text-anchor="end">.003</text>
	<line x1="401.69" y1="518.16" x2="367.66" y2="518.16" style="stroke:#000000;stroke-width:4.90"/>
	<text x="350.71" y="547.94" style="font-family:'Helvetica';font-size:85.02px;fill:#000000" text-anchor="end">.004</text>
	<line x1="401.69" y1="312.11" x2="367.66" y2="312.11" style="stroke:#000000;stroke-width:4.90"/>
	<text x="350.71" y="341.89" style="font-family:'Helvetica';font-size:85.02px;fill:#000000" text-anchor="end">.005</text>
	<line x1="401.69" y1="1396.19" x2="2078.51" y2="1396.19" style="stroke:#000000;stroke-width:4.90"/>
	<line x1="499.08" y1="1396.19" x2="499.08" y2="1413.15" style="stroke:#000000;stroke-width:4.90"/>
	<line x1="608.11" y1="1396.19" x2="608.11" y2="1413.15" style="stroke:#000000;stroke-width:4.90"/>
	<line x1="717.01" y1="1396.19" x2="717.01" y2="1413.15" style="stroke:#000000;stroke-width:4.90"/>
	<line x1="826.03" y1="1396.19" x2="826.03" y2="1413.15" style="stroke:#000000;stroke-width:4.90"/>
	<line x1="935.05" y1="1396.19" x2="935.05" y2="1413.15" style="stroke:#000000;stroke-width:4.90"/>
	<line x1="1043.95" y1="1396.19" x2="1043.95" y2="1413.15" style="stroke:#000000;stroke-width:4.90"/>
	<line x1="1152.98" y1="1396.19" x2="1152.98" y2="1413.15" style="stroke:#000000;stroke-width:4.90"/>
	<line x1="1261.88" y1="1396.19" x2="1261.88" y2="1413.15" style="stroke:#000000;stroke-width:4.90"/>
	<line x1="1370.90" y1="1396.19" x2="1370.90" y2="1413.15" style="stroke:#000000;stroke-width:4.90"/>
	<line x1="1479.80" y1="1396.19" x2="1479.80" y2="1413.15" style="stroke:#000000;stroke-width:4.90"/>
	<line x1="1588.83" y1="1396.19" x2="1588.83" y2="1413.15" style="stroke:#000000;stroke-width:4.90"/>
	<line x1="1697.73" y1="1396.19" x2="1697.73" y2="1413.15" style="stroke:#000000;stroke-width:4.90"/>
	<line x1="1806.75" y1="1396.19" x2="1806.75" y2="1413.15" style="stroke:#000000;stroke-width:4.90"/>
	<line x1="1915.77" y1="1396.19" x2="1915.77" y2="1413.15" style="stroke:#000000;stroke-width:4.90"/>
	<line x1="2024.67" y1="1396.19" x2="2024.67" y2="1413.15" style="stroke:#000000;stroke-width:4.90"/>
	<line x1="499.08" y1="1396.19" x2="499.08" y2="1430.10" style="stroke:#000000;stroke-width:4.90"/>
	<text x="499.08" y="1506.63" style="font-family:'Helvetica';font-size:85.02px;fill:#000000" text-anchor="middle">20</text>
	<line x1="935.05" y1="1396.19" x2="935.05" y2="1430.10" style="stroke:#000000;stroke-width:4.90"/>
	<text x="935.05" y="1506.63" style="font-family:'Helvetica';font-size:85.02px;fill:#000000" text-anchor="middle">40</text>
	<line x1="1370.90" y1="1396.19" x2="1370.90" y2="1430.10" style="stroke:#000000;stroke-width:4.90"/>
	<text x="1370.90" y="1506.63" style="font-family:'Helvetica';font-size:85.02px;fill:#000000" text-anchor="middle">60</text>
	<line x1="1806.75" y1="1396.19" x2="1806.75" y2="1430.10" style="stroke:#000000;stroke-width:4.90"/>
	<text x="1806.75" y="1506.63" style="font-family:'Helvetica';font-size:85.02px;fill:#000000" text-anchor="middle">80</text>
	<line x1="2147.68" y1="1396.19" x2="3824.49" y2="1396.19" style="stroke:#000000;stroke-width:4.90"/>
	<line x1="2245.07" y1="1396.19" x2="2245.07" y2="1413.15" style="stroke:#000000;stroke-width:4.90"/>
	<line x1="2354.10" y1="1396.19" x2="2354.10" y2="1413.15" style="stroke:#000000;stroke-width:4.90"/>
	<line x1="2463.00" y1="1396.19" x2="2463.00" y2="1413.15" style="stroke:#000000;stroke-width:4.90"/>
	<line x1="2572.02" y1="1396.19" x2="2572.02" y2="1413.15" style="stroke:#000000;stroke-width:4.90"/>
	<line x1="2680.92" y1="1396.19" x2="2680.92" y2="1413.15" style="stroke:#000000;stroke-width:4.90"/>
	<line x1="2789.94" y1="1396.19" x2="2789.94" y2="1413.15" style="stroke:#000000;stroke-width:4.90"/>
	<line x1="2898.97" y1="1396.19" x2="2898.97" y2="1413.15" style="stroke:#000000;stroke-width:4.90"/>
	<line x1="3007.87" y1="1396.19" x2="3007.87" y2="1413.15" style="stroke:#000000;stroke-width:4.90"/>
	<line x1="3116.89" y1="1396.19" x2="3116.89" y2="1413.15" style="stroke:#000000;stroke-width:4.90"/>
	<line x1="3225.79" y1="1396.19" x2="3225.79" y2="1413.15" style="stroke:#000000;stroke-width:4.90"/>
	<line x1="3334.82" y1="1396.19" x2="3334.82" y2="1413.15" style="stroke:#000000;stroke-width:4.90"/>
	<line x1="3443.72" y1="1396.19" x2="3443.72" y2="1413.15" style="stroke:#000000;stroke-width:4.90"/>
	<line x1="3552.74" y1="1396.19" x2="3552.74" y2="1413.15" style="stroke:#000000;stroke-width:4.90"/>
	<line x1="3661.64" y1="1396.19" x2="3661.64" y2="1413.15" style="stroke:#000000;stroke-width:4.90"/>
	<line x1="3770.66" y1="1396.19" x2="3770.66" y2="1413.15" style="stroke:#000000;stroke-width:4.90"/>
	<line x1="2245.07" y1="1396.19" x2="2245.07" y2="1430.10" style="stroke:#000000;stroke-width:4.90"/>
	<text x="2245.07" y="1506.63" style="font-family:'Helvetica';font-size:85.02px;fill:#000000" text-anchor="middle">20</text>
	<line x1="2680.92" y1="1396.19" x2="2680.92" y2="1430.10" style="stroke:#000000;stroke-width:4.90"/>
	<text x="2680.92" y="1506.63" style="font-family:'Helvetica';font-size:85.02px;fill:#000000" text-anchor="middle">40</text>
	<line x1="3116.89" y1="1396.19" x2="3116.89" y2="1430.10" style="stroke:#000000;stroke-width:4.90"/>
	<text x="3116.89" y="1506.63" style="font-family:'Helvetica';font-size:85.02px;fill:#000000" text-anchor="middle">60</text>
	<line x1="3552.74" y1="1396.19" x2="3552.74" y2="1430.10" style="stroke:#000000;stroke-width:4.90"/>
	<text x="3552.74" y="1506.63" style="font-family:'Helvetica';font-size:85.02px;fill:#000000" text-anchor="middle">80</text>
	<rect x="401.69" y="135.39" width="1676.81" height="122.89" style="fill:#D9E6EB"/>
	<rect x="404.14" y="137.83" width="1671.92" height="117.99" style="fill:none;stroke:#D9E6EB;stroke-width:4.90"/>
	<text x="1240.10" y="215.42" style="font-family:'Helvetica';font-size:93.56px;fill:#000000" text-anchor="middle">Female</text>
	<rect x="2147.68" y="135.39" width="1676.81" height="122.89" style="fill:#D9E6EB"/>
	<rect x="2150.13" y="137.83" width="1671.92" height="117.99" style="fill:none;stroke:#D9E6EB;stroke-width:4.90"/>
	<text x="2986.09" y="215.42" style="font-family:'Helvetica';font-size:93.56px;fill:#000000" text-anchor="middle">Male</text>
	<rect x="162.73" y="1718.20" width="3634.41" height="1026.41" style="fill:#FFFFFF"/>
	<rect x="165.61" y="1721.08" width="3628.65" height="1020.65" style="fill:none;stroke:#000000;stroke-width:5.76"/>
	<line x1="205.92" y1="1811.51" x2="580.26" y2="1811.51" style="stroke:#82C0E9;stroke-width:4.32"/>
	<line x1="1088.26" y1="1811.51" x2="1462.60" y2="1811.51" style="stroke:#0000FF;stroke-width:4.32"/>
	<line x1="2017.25" y1="1811.51" x2="2391.72" y2="1811.51" style="stroke:#0080FF;stroke-width:4.32"/>
	<line x1="2964.93" y1="1811.51" x2="3339.39" y2="1811.51" style="stroke:#C0DCC0;stroke-width:4.32"/>
	<line x1="205.92" y1="1951.47" x2="580.26" y2="1951.47" style="stroke:#00FF80;stroke-width:4.32"/>
	<line x1="1088.26" y1="1951.47" x2="1462.60" y2="1951.47" style="stroke:#00B000;stroke-width:4.32"/>
	<line x1="2017.25" y1="1951.47" x2="2391.72" y2="1951.47" style="stroke:#008000;stroke-width:4.32"/>
	<line x1="2964.93" y1="1951.47" x2="3339.39" y2="1951.47" style="stroke:#006000;stroke-width:4.32"/>
	<line x1="205.92" y1="2091.44" x2="580.26" y2="2091.44" style="stroke:#5C4717;stroke-width:4.32"/>
	<line x1="1088.26" y1="2091.44" x2="1462.60" y2="2091.44" style="stroke:#D7D29E;stroke-width:4.32"/>
	<line x1="2017.25" y1="2091.44" x2="2391.72" y2="2091.44" style="stroke:#D9C263;stroke-width:4.32"/>
	<line x1="2964.93" y1="2091.44" x2="3339.39" y2="2091.44" style="stroke:#A0522D;stroke-width:4.32"/>
	<line x1="205.92" y1="2231.41" x2="580.26" y2="2231.41" style="stroke:#FF0000;stroke-width:4.32"/>
	<line x1="1088.26" y1="2231.41" x2="1462.60" y2="2231.41" style="stroke:#90353B;stroke-width:4.32"/>
	<line x1="2017.25" y1="2231.41" x2="2391.72" y2="2231.41" style="stroke:#303030;stroke-width:4.32"/>
	<line x1="2964.93" y1="2231.41" x2="3339.39" y2="2231.41" style="stroke:#505050;stroke-width:4.32"/>
	<line x1="205.92" y1="2371.50" x2="580.26" y2="2371.50" style="stroke:#707070;stroke-width:4.32"/>
	<line x1="1088.26" y1="2371.50" x2="1462.60" y2="2371.50" style="stroke:#FFE474;stroke-width:4.32"/>
	<line x1="2017.25" y1="2371.50" x2="2391.72" y2="2371.50" style="stroke:#FFD200;stroke-width:4.32"/>
	<line x1="2964.93" y1="2371.50" x2="3339.39" y2="2371.50" style="stroke:#FFFF00;stroke-width:4.32"/>
	<line x1="205.92" y1="2511.46" x2="580.26" y2="2511.46" style="stroke:#FF80FF;stroke-width:4.32"/>
	<line x1="1088.26" y1="2511.46" x2="1462.60" y2="2511.46" style="stroke:#FF00FF;stroke-width:4.32"/>
	<line x1="2017.25" y1="2511.46" x2="2391.72" y2="2511.46" style="stroke:#FF0000;stroke-width:4.32"/>
	<line x1="2964.93" y1="2511.46" x2="3339.39" y2="2511.46" style="stroke:#000000;stroke-width:4.32"/>
	<line x1="205.92" y1="2651.43" x2="208.77" y2="2651.43" style="stroke:#000000;stroke-width:8.64"/>
	<line x1="228.94" y1="2651.43" x2="231.78" y2="2651.43" style="stroke:#000000;stroke-width:8.64"/>
	<line x1="251.96" y1="2651.43" x2="254.80" y2="2651.43" style="stroke:#000000;stroke-width:8.64"/>
	<line x1="274.97" y1="2651.43" x2="277.82" y2="2651.43" style="stroke:#000000;stroke-width:8.64"/>
	<line x1="297.99" y1="2651.43" x2="300.96" y2="2651.43" style="stroke:#000000;stroke-width:8.64"/>
	<line x1="321.01" y1="2651.43" x2="323.98" y2="2651.43" style="stroke:#000000;stroke-width:8.64"/>
	<line x1="344.15" y1="2651.43" x2="347.00" y2="2651.43" style="stroke:#000000;stroke-width:8.64"/>
	<line x1="367.17" y1="2651.43" x2="370.01" y2="2651.43" style="stroke:#000000;stroke-width:8.64"/>
	<line x1="390.18" y1="2651.43" x2="393.03" y2="2651.43" style="stroke:#000000;stroke-width:8.64"/>
	<line x1="413.20" y1="2651.43" x2="416.05" y2="2651.43" style="stroke:#000000;stroke-width:8.64"/>
	<line x1="436.22" y1="2651.43" x2="439.06" y2="2651.43" style="stroke:#000000;stroke-width:8.64"/>
	<line x1="459.24" y1="2651.43" x2="462.08" y2="2651.43" style="stroke:#000000;stroke-width:8.64"/>
	<line x1="482.25" y1="2651.43" x2="485.10" y2="2651.43" style="stroke:#000000;stroke-width:8.64"/>
	<line x1="505.27" y1="2651.43" x2="508.12" y2="2651.43" style="stroke:#000000;stroke-width:8.64"/>
	<line x1="528.29" y1="2651.43" x2="531.13" y2="2651.43" style="stroke:#000000;stroke-width:8.64"/>
	<line x1="551.31" y1="2651.43" x2="554.28" y2="2651.43" style="stroke:#000000;stroke-width:8.64"/>
	<line x1="574.32" y1="2651.43" x2="577.29" y2="2651.43" style="stroke:#000000;stroke-width:8.64"/>
	<text x="640.28" y="1825.53" style="font-family:'Helvetica';font-size:39.97px;fill:#000000">Respiratory</text>
	<text x="1522.62" y="1825.53" style="font-family:'Helvetica';font-size:39.97px;fill:#000000">Asthma mod</text>
	<text x="2451.61" y="1825.53" style="font-family:'Helvetica';font-size:39.97px;fill:#000000">Asthma sev</text>
	<text x="3399.29" y="1825.53" style="font-family:'Helvetica';font-size:39.97px;fill:#000000">Hypertension</text>
	<text x="640.28" y="1965.50" style="font-family:'Helvetica';font-size:39.97px;fill:#000000">Cardiac</text>
	<text x="1522.62" y="1965.50" style="font-family:'Helvetica';font-size:39.97px;fill:#000000">Diab, control</text>
	<text x="2451.61" y="1965.50" style="font-family:'Helvetica';font-size:39.97px;fill:#000000">Diab, uncontrol</text>
	<text x="3399.29" y="1965.50" style="font-family:'Helvetica';font-size:39.97px;fill:#000000">Diab, unknown</text>
	<text x="640.28" y="2105.46" style="font-family:'Helvetica';font-size:39.97px;fill:#000000">Liver</text>
	<text x="1522.62" y="2105.46" style="font-family:'Helvetica';font-size:39.97px;fill:#000000">Mod kidney</text>
	<text x="2451.61" y="2105.46" style="font-family:'Helvetica';font-size:39.97px;fill:#000000">Sev kidney</text>
	<text x="3399.29" y="2105.46" style="font-family:'Helvetica';font-size:39.97px;fill:#000000">Transplant</text>
	<text x="640.28" y="2245.43" style="font-family:'Helvetica';font-size:39.97px;fill:#000000">Stroke/dementia</text>
	<text x="1522.62" y="2245.43" style="font-family:'Helvetica';font-size:39.97px;fill:#000000">Neuro</text>
	<text x="2451.61" y="2245.43" style="font-family:'Helvetica';font-size:39.97px;fill:#000000">Canc. Oth (&lt;1yr)</text>
	<text x="3399.29" y="2245.43" style="font-family:'Helvetica';font-size:39.97px;fill:#000000">Canc. Oth (2-4yr)</text>
	<text x="640.28" y="2385.52" style="font-family:'Helvetica';font-size:39.97px;fill:#000000">Canc. Oth (5+yr)</text>
	<text x="1522.62" y="2385.52" style="font-family:'Helvetica';font-size:39.97px;fill:#000000">Canc. Haem (&lt;1yr)</text>
	<text x="2451.61" y="2385.52" style="font-family:'Helvetica';font-size:39.97px;fill:#000000">Canc. Haem (2-4yr)</text>
	<text x="3399.29" y="2385.52" style="font-family:'Helvetica';font-size:39.97px;fill:#000000">Canc. Haem (5+yr)</text>
	<text x="640.28" y="2525.48" style="font-family:'Helvetica';font-size:39.97px;fill:#000000">Spleen</text>
	<text x="1522.62" y="2525.48" style="font-family:'Helvetica';font-size:39.97px;fill:#000000">RA/SLE/psoriasis</text>
	<text x="2451.61" y="2525.48" style="font-family:'Helvetica';font-size:39.97px;fill:#000000">Immunosuppression</text>
	<text x="3399.29" y="2525.48" style="font-family:'Helvetica';font-size:39.97px;fill:#000000">No comorbidity</text>
	<text x="640.28" y="2665.45" style="font-family:'Helvetica';font-size:39.97px;fill:#000000">risk_age_65</text>
	<text x="1980.00" y="1653.61" style="font-family:'Helvetica';font-size:99.99px;fill:#000000" text-anchor="middle">Age (years)</text>
</svg>
