<?xml version="1.0" encoding="UTF-8" standalone="no"?>
<!-- This is a Stata 16.1 generated SVG file (http://www.stata.com) -->

<svg version="1.1" width="1600px" height="1164px" viewBox="0 0 3960 2880" xmlns="http://www.w3.org/2000/svg" xmlns:xlink="http://www.w3.org/1999/xlink">
	<desc>Stata Graph - Graph</desc>
	<rect x="0" y="0" width="3960" height="2880" style="fill:#EAF2F3;stroke:none"/>
	<rect x="0.00" y="0.00" width="3959.88" height="2880.00" style="fill:#EAF2F3"/>
	<rect x="2.88" y="2.88" width="3954.12" height="2874.24" style="fill:none;stroke:#EAF2F3;stroke-width:5.76"/>
	<rect x="401.69" y="258.27" width="1676.81" height="1277.88" style="fill:#FFFFFF"/>
	<rect x="404.14" y="260.72" width="1671.92" height="1272.99" style="fill:none;stroke:#FFFFFF;stroke-width:4.90"/>
	<line x1="401.69" y1="1482.32" x2="2078.51" y2="1482.32" style="stroke:#EAF2F3;stroke-width:7.34"/>
	<line x1="401.69" y1="1248.31" x2="2078.51" y2="1248.31" style="stroke:#EAF2F3;stroke-width:7.34"/>
	<line x1="401.69" y1="1014.16" x2="2078.51" y2="1014.16" style="stroke:#EAF2F3;stroke-width:7.34"/>
	<line x1="401.69" y1="780.14" x2="2078.51" y2="780.14" style="stroke:#EAF2F3;stroke-width:7.34"/>
	<line x1="401.69" y1="546.13" x2="2078.51" y2="546.13" style="stroke:#EAF2F3;stroke-width:7.34"/>
	<line x1="401.69" y1="312.11" x2="2078.51" y2="312.11" style="stroke:#EAF2F3;stroke-width:7.34"/>
	<rect x="2147.68" y="258.27" width="1676.81" height="1277.88" style="fill:#FFFFFF"/>
	<rect x="2150.13" y="260.72" width="1671.92" height="1272.99" style="fill:none;stroke:#FFFFFF;stroke-width:4.90"/>
	<line x1="2147.68" y1="1482.32" x2="3824.49" y2="1482.32" style="stroke:#EAF2F3;stroke-width:7.34"/>
	<line x1="2147.68" y1="1248.31" x2="3824.49" y2="1248.31" style="stroke:#EAF2F3;stroke-width:7.34"/>
	<line x1="2147.68" y1="1014.16" x2="3824.49" y2="1014.16" style="stroke:#EAF2F3;stroke-width:7.34"/>
	<line x1="2147.68" y1="780.14" x2="3824.49" y2="780.14" style="stroke:#EAF2F3;stroke-width:7.34"/>
	<line x1="2147.68" y1="546.13" x2="3824.49" y2="546.13" style="stroke:#EAF2F3;stroke-width:7.34"/>
	<line x1="2147.68" y1="312.11" x2="3824.49" y2="312.11" style="stroke:#EAF2F3;stroke-width:7.34"/>
	<path d=" M455.52 1482.20 L480.77 1482.08 L506.14 1482.08 L531.38 1482.08 L556.75 1481.95 L582.00 1481.95 L607.37 1481.83 L632.61 1481.71 L657.98 1481.58 L683.22 1481.46 L708.59 1481.33 L733.84 1481.21 L759.21 1480.96 L784.45 1480.84 L809.82 1480.59 L835.07 1480.22 L860.43 1479.97 L885.68 1479.60 L911.05 1479.11 L936.29 1478.61 L961.66 1478.12 L986.91 1477.50 L1012.27 1476.88 L1037.52 1476.26 L1062.89 1475.39 L1088.13 1474.65 L1113.50 1473.66 L1138.87 1472.79 L1164.12 1471.68 L1189.48 1470.57 L1214.73 1469.21 L1240.10 1467.84 L1265.34 1466.36 L1290.71 1464.75 L1315.96 1463.02 L1341.33 1461.16 L1366.57 1459.06 L1391.94 1456.71 L1417.18 1454.11 L1442.55 1451.39 L1467.80 1448.17 L1493.17 1444.70 L1518.41 1440.87 L1543.78 1436.53 L1569.03 1431.71 L1594.39 1426.39 L1619.64 1420.45 L1645.01 1413.76 L1670.25 1406.34 L1695.62 1398.17 L1720.87 1389.01 L1746.24 1378.74 L1771.48 1367.36 L1796.85 1354.73 L1822.10 1340.50 L1847.46 1324.79 L1872.71 1307.21 L1898.08 1287.54 L1923.45 1265.63 L1948.69 1241.38 L1974.06 1214.15 L1999.31 1183.95 L2024.67 1150.17" stroke-linejoin="round" style="fill:none;stroke:#82C0E9;stroke-width:3.67"/>
	<path d=" M455.52 1482.20 L480.77 1482.20 L506.14 1482.20 L531.38 1482.20 L556.75 1482.08 L582.00 1482.08 L607.37 1482.08 L632.61 1481.95 L657.98 1481.95 L683.22 1481.83 L708.59 1481.83 L733.84 1481.71 L759.21 1481.58 L784.45 1481.46 L809.82 1481.33 L835.07 1481.21 L860.43 1480.96 L885.68 1480.72 L911.05 1480.59 L936.29 1480.22 L961.66 1479.97 L986.91 1479.60 L1012.27 1479.23 L1037.52 1478.86 L1062.89 1478.49 L1088.13 1477.99 L1113.50 1477.50 L1138.87 1476.88 L1164.12 1476.38 L1189.48 1475.64 L1214.73 1475.02 L1240.10 1474.16 L1265.34 1473.41 L1290.71 1472.42 L1315.96 1471.43 L1341.33 1470.44 L1366.57 1469.21 L1391.94 1467.84 L1417.18 1466.48 L1442.55 1464.87 L1467.80 1463.14 L1493.17 1461.16 L1518.41 1458.93 L1543.78 1456.46 L1569.03 1453.86 L1594.39 1450.77 L1619.64 1447.43 L1645.01 1443.71 L1670.25 1439.50 L1695.62 1434.93 L1720.87 1429.73 L1746.24 1424.04 L1771.48 1417.60 L1796.85 1410.42 L1822.10 1402.38 L1847.46 1393.59 L1872.71 1383.57 L1898.08 1372.55 L1923.45 1360.30 L1948.69 1346.57 L1974.06 1331.22 L1999.31 1314.14 L2024.67 1295.21" stroke-linejoin="round" style="fill:none;stroke:#0000FF;stroke-width:3.67"/>
	<path d=" M455.52 1482.20 L480.77 1482.20 L506.14 1482.20 L531.38 1482.20 L556.75 1482.08 L582.00 1482.08 L607.37 1481.95 L632.61 1481.95 L657.98 1481.83 L683.22 1481.83 L708.59 1481.71 L733.84 1481.58 L759.21 1481.46 L784.45 1481.33 L809.82 1481.21 L835.07 1480.96 L860.43 1480.72 L885.68 1480.47 L911.05 1480.22 L936.29 1479.97 L961.66 1479.60 L986.91 1479.23 L1012.27 1478.86 L1037.52 1478.36 L1062.89 1477.87 L1088.13 1477.37 L1113.50 1476.75 L1138.87 1476.14 L1164.12 1475.39 L1189.48 1474.65 L1214.73 1473.91 L1240.10 1472.92 L1265.34 1472.05 L1290.71 1470.94 L1315.96 1469.82 L1341.33 1468.59 L1366.57 1467.23 L1391.94 1465.74 L1417.18 1464.01 L1442.55 1462.28 L1467.80 1460.17 L1493.17 1457.94 L1518.41 1455.47 L1543.78 1452.62 L1569.03 1449.53 L1594.39 1446.06 L1619.64 1442.23 L1645.01 1437.90 L1670.25 1433.07 L1695.62 1427.75 L1720.87 1421.81 L1746.24 1415.13 L1771.48 1407.82 L1796.85 1399.53 L1822.10 1390.37 L1847.46 1380.10 L1872.71 1368.72 L1898.08 1355.97 L1923.45 1341.86 L1948.69 1326.02 L1974.06 1308.45 L1999.31 1288.77 L2024.67 1266.87" stroke-linejoin="round" style="fill:none;stroke:#0080FF;stroke-width:3.67"/>
	<path d=" M455.52 1482.20 L480.77 1482.20 L506.14 1482.20 L531.38 1482.20 L556.75 1482.20 L582.00 1482.08 L607.37 1482.08 L632.61 1481.95 L657.98 1481.95 L683.22 1481.83 L708.59 1481.83 L733.84 1481.71 L759.21 1481.58 L784.45 1481.46 L809.82 1481.33 L835.07 1481.21 L860.43 1480.96 L885.68 1480.84 L911.05 1480.59 L936.29 1480.34 L961.66 1479.97 L986.91 1479.72 L1012.27 1479.35 L1037.52 1478.98 L1062.89 1478.61 L1088.13 1478.12 L1113.50 1477.62 L1138.87 1477.13 L1164.12 1476.51 L1189.48 1475.89 L1214.73 1475.15 L1240.10 1474.40 L1265.34 1473.66 L1290.71 1472.67 L1315.96 1471.80 L1341.33 1470.69 L1366.57 1469.58 L1391.94 1468.22 L1417.18 1466.85 L1442.55 1465.37 L1467.80 1463.64 L1493.17 1461.66 L1518.41 1459.55 L1543.78 1457.20 L1569.03 1454.60 L1594.39 1451.63 L1619.64 1448.29 L1645.01 1444.70 L1670.25 1440.62 L1695.62 1436.16 L1720.87 1431.09 L1746.24 1425.52 L1771.48 1419.21 L1796.85 1412.28 L1822.10 1404.48 L1847.46 1395.82 L1872.71 1386.17 L1898.08 1375.40 L1923.45 1363.40 L1948.69 1350.03 L1974.06 1335.06 L1999.31 1318.47 L2024.67 1300.03" stroke-linejoin="round" style="fill:none;stroke:#C0DCC0;stroke-width:3.67"/>
	<path d=" M455.52 1482.20 L480.77 1482.20 L506.14 1482.20 L531.38 1482.08 L556.75 1482.08 L582.00 1482.08 L607.37 1481.95 L632.61 1481.95 L657.98 1481.83 L683.22 1481.71 L708.59 1481.71 L733.84 1481.58 L759.21 1481.46 L784.45 1481.21 L809.82 1481.09 L835.07 1480.84 L860.43 1480.72 L885.68 1480.34 L911.05 1480.10 L936.29 1479.72 L961.66 1479.48 L986.91 1478.98 L1012.27 1478.61 L1037.52 1478.12 L1062.89 1477.62 L1088.13 1477.00 L1113.50 1476.38 L1138.87 1475.64 L1164.12 1474.90 L1189.48 1474.16 L1214.73 1473.29 L1240.10 1472.30 L1265.34 1471.31 L1290.71 1470.20 L1315.96 1468.96 L1341.33 1467.60 L1366.57 1466.24 L1391.94 1464.63 L1417.18 1462.77 L1442.55 1460.79 L1467.80 1458.69 L1493.17 1456.21 L1518.41 1453.61 L1543.78 1450.52 L1569.03 1447.30 L1594.39 1443.59 L1619.64 1439.38 L1645.01 1434.80 L1670.25 1429.73 L1695.62 1424.04 L1720.87 1417.60 L1746.24 1410.55 L1771.48 1402.63 L1796.85 1393.84 L1822.10 1384.06 L1847.46 1373.05 L1872.71 1360.92 L1898.08 1347.31 L1923.45 1332.21 L1948.69 1315.26 L1974.06 1296.45 L1999.31 1275.41 L2024.67 1252.14" stroke-linejoin="round" style="fill:none;stroke:#00FF80;stroke-width:3.67"/>
	<path d=" M455.52 1482.20 L480.77 1482.20 L506.14 1482.08 L531.38 1482.08 L556.75 1482.08 L582.00 1481.95 L607.37 1481.95 L632.61 1481.83 L657.98 1481.83 L683.22 1481.71 L708.59 1481.58 L733.84 1481.46 L759.21 1481.33 L784.45 1481.09 L809.82 1480.96 L835.07 1480.72 L860.43 1480.47 L885.68 1480.10 L911.05 1479.85 L936.29 1479.48 L961.66 1478.98 L986.91 1478.61 L1012.27 1478.12 L1037.52 1477.50 L1062.89 1476.88 L1088.13 1476.26 L1113.50 1475.52 L1138.87 1474.77 L1164.12 1473.91 L1189.48 1473.04 L1214.73 1472.05 L1240.10 1471.06 L1265.34 1469.82 L1290.71 1468.59 L1315.96 1467.23 L1341.33 1465.74 L1366.57 1464.01 L1391.94 1462.28 L1417.18 1460.17 L1442.55 1457.94 L1467.80 1455.59 L1493.17 1452.75 L1518.41 1449.78 L1543.78 1446.31 L1569.03 1442.60 L1594.39 1438.39 L1619.64 1433.69 L1645.01 1428.49 L1670.25 1422.67 L1695.62 1416.24 L1720.87 1409.06 L1746.24 1401.02 L1771.48 1392.11 L1796.85 1382.08 L1822.10 1371.07 L1847.46 1358.69 L1872.71 1344.83 L1898.08 1329.36 L1923.45 1312.29 L1948.69 1293.10 L1974.06 1271.82 L1999.31 1248.06 L2024.67 1221.57" stroke-linejoin="round" style="fill:none;stroke:#00B000;stroke-width:3.67"/>
	<path d=" M455.52 1482.08 L480.77 1482.08 L506.14 1482.08 L531.38 1481.95 L556.75 1481.95 L582.00 1481.83 L607.37 1481.71 L632.61 1481.71 L657.98 1481.58 L683.22 1481.46 L708.59 1481.21 L733.84 1481.09 L759.21 1480.84 L784.45 1480.59 L809.82 1480.34 L835.07 1479.97 L860.43 1479.60 L885.68 1479.23 L911.05 1478.73 L936.29 1478.24 L961.66 1477.62 L986.91 1477.00 L1012.27 1476.26 L1037.52 1475.52 L1062.89 1474.65 L1088.13 1473.66 L1113.50 1472.67 L1138.87 1471.56 L1164.12 1470.32 L1189.48 1469.08 L1214.73 1467.72 L1240.10 1466.11 L1265.34 1464.50 L1290.71 1462.65 L1315.96 1460.67 L1341.33 1458.56 L1366.57 1456.21 L1391.94 1453.61 L1417.18 1450.77 L1442.55 1447.55 L1467.80 1444.08 L1493.17 1440.12 L1518.41 1435.79 L1543.78 1430.97 L1569.03 1425.52 L1594.39 1419.58 L1619.64 1412.90 L1645.01 1405.47 L1670.25 1397.18 L1695.62 1387.90 L1720.87 1377.63 L1746.24 1366.12 L1771.48 1353.37 L1796.85 1339.14 L1822.10 1323.30 L1847.46 1305.60 L1872.71 1285.80 L1898.08 1263.77 L1923.45 1239.27 L1948.69 1211.92 L1974.06 1181.48 L1999.31 1147.57 L2024.67 1109.70" stroke-linejoin="round" style="fill:none;stroke:#008000;stroke-width:3.67"/>
	<path d=" M455.52 1482.08 L480.77 1482.08 L506.14 1482.08 L531.38 1481.95 L556.75 1481.95 L582.00 1481.83 L607.37 1481.71 L632.61 1481.58 L657.98 1481.46 L683.22 1481.33 L708.59 1481.21 L733.84 1480.96 L759.21 1480.84 L784.45 1480.59 L809.82 1480.22 L835.07 1479.97 L860.43 1479.48 L885.68 1479.11 L911.05 1478.61 L936.29 1478.12 L961.66 1477.50 L986.91 1476.75 L1012.27 1476.01 L1037.52 1475.27 L1062.89 1474.40 L1088.13 1473.41 L1113.50 1472.42 L1138.87 1471.19 L1164.12 1469.95 L1189.48 1468.71 L1214.73 1467.23 L1240.10 1465.62 L1265.34 1463.88 L1290.71 1462.03 L1315.96 1460.05 L1341.33 1457.82 L1366.57 1455.35 L1391.94 1452.75 L1417.18 1449.78 L1442.55 1446.44 L1467.80 1442.85 L1493.17 1438.76 L1518.41 1434.31 L1543.78 1429.36 L1569.03 1423.79 L1594.39 1417.60 L1619.64 1410.67 L1645.01 1403.12 L1670.25 1394.58 L1695.62 1385.05 L1720.87 1374.41 L1746.24 1362.65 L1771.48 1349.41 L1796.85 1334.81 L1822.10 1318.35 L1847.46 1300.16 L1872.71 1279.74 L1898.08 1257.09 L1923.45 1231.85 L1948.69 1203.63 L1974.06 1172.32 L1999.31 1137.30 L2024.67 1098.32" stroke-linejoin="round" style="fill:none;stroke:#006000;stroke-width:3.67"/>
	<path d=" M455.52 1482.20 L480.77 1482.08 L506.14 1482.08 L531.38 1481.95 L556.75 1481.95 L582.00 1481.83 L607.37 1481.83 L632.61 1481.71 L657.98 1481.58 L683.22 1481.46 L708.59 1481.33 L733.84 1481.09 L759.21 1480.96 L784.45 1480.72 L809.82 1480.47 L835.07 1480.10 L860.43 1479.85 L885.68 1479.35 L911.05 1478.98 L936.29 1478.49 L961.66 1477.87 L986.91 1477.37 L1012.27 1476.63 L1037.52 1475.89 L1062.89 1475.15 L1088.13 1474.28 L1113.50 1473.29 L1138.87 1472.30 L1164.12 1471.19 L1189.48 1469.95 L1214.73 1468.59 L1240.10 1467.23 L1265.34 1465.62 L1290.71 1464.01 L1315.96 1462.15 L1341.33 1460.17 L1366.57 1457.94 L1391.94 1455.47 L1417.18 1452.87 L1442.55 1449.90 L1467.80 1446.56 L1493.17 1442.97 L1518.41 1438.89 L1543.78 1434.31 L1569.03 1429.36 L1594.39 1423.66 L1619.64 1417.48 L1645.01 1410.55 L1670.25 1402.75 L1695.62 1394.21 L1720.87 1384.56 L1746.24 1373.92 L1771.48 1361.91 L1796.85 1348.67 L1822.10 1333.82 L1847.46 1317.24 L1872.71 1298.80 L1898.08 1278.25 L1923.45 1255.36 L1948.69 1229.87 L1974.06 1201.40 L1999.31 1169.72 L2024.67 1134.45" stroke-linejoin="round" style="fill:none;stroke:#5C4717;stroke-width:3.67"/>
	<path d=" M455.52 1482.20 L480.77 1482.20 L506.14 1482.08 L531.38 1482.08 L556.75 1482.08 L582.00 1481.95 L607.37 1481.95 L632.61 1481.83 L657.98 1481.71 L683.22 1481.71 L708.59 1481.58 L733.84 1481.46 L759.21 1481.21 L784.45 1481.09 L809.82 1480.84 L835.07 1480.59 L860.43 1480.34 L885.68 1480.10 L911.05 1479.72 L936.29 1479.35 L961.66 1478.86 L986.91 1478.49 L1012.27 1477.87 L1037.52 1477.37 L1062.89 1476.75 L1088.13 1476.01 L1113.50 1475.27 L1138.87 1474.53 L1164.12 1473.66 L1189.48 1472.67 L1214.73 1471.68 L1240.10 1470.57 L1265.34 1469.33 L1290.71 1467.97 L1315.96 1466.61 L1341.33 1465.00 L1366.57 1463.27 L1391.94 1461.41 L1417.18 1459.31 L1442.55 1457.08 L1467.80 1454.48 L1493.17 1451.63 L1518.41 1448.42 L1543.78 1444.95 L1569.03 1440.99 L1594.39 1436.66 L1619.64 1431.71 L1645.01 1426.39 L1670.25 1420.32 L1695.62 1413.64 L1720.87 1406.09 L1746.24 1397.80 L1771.48 1388.52 L1796.85 1378.12 L1822.10 1366.49 L1847.46 1353.62 L1872.71 1339.26 L1898.08 1323.30 L1923.45 1305.36 L1948.69 1285.43 L1974.06 1263.28 L1999.31 1238.65 L2024.67 1211.06" stroke-linejoin="round" style="fill:none;stroke:#D7D29E;stroke-width:3.67"/>
	<path d=" M455.52 1482.08 L480.77 1481.95 L506.14 1481.95 L531.38 1481.83 L556.75 1481.83 L582.00 1481.71 L607.37 1481.58 L632.61 1481.46 L657.98 1481.33 L683.22 1481.09 L708.59 1480.84 L733.84 1480.59 L759.21 1480.34 L784.45 1479.97 L809.82 1479.60 L835.07 1479.23 L860.43 1478.73 L885.68 1478.12 L911.05 1477.50 L936.29 1476.88 L961.66 1476.01 L986.91 1475.15 L1012.27 1474.28 L1037.52 1473.17 L1062.89 1472.05 L1088.13 1470.81 L1113.50 1469.45 L1138.87 1468.09 L1164.12 1466.48 L1189.48 1464.75 L1214.73 1462.89 L1240.10 1460.79 L1265.34 1458.69 L1290.71 1456.21 L1315.96 1453.61 L1341.33 1450.77 L1366.57 1447.67 L1391.94 1444.21 L1417.18 1440.37 L1442.55 1436.16 L1467.80 1431.46 L1493.17 1426.26 L1518.41 1420.57 L1543.78 1414.14 L1569.03 1406.96 L1594.39 1399.04 L1619.64 1390.13 L1645.01 1380.23 L1670.25 1369.34 L1695.62 1357.08 L1720.87 1343.35 L1746.24 1328.13 L1771.48 1311.17 L1796.85 1292.36 L1822.10 1271.20 L1847.46 1247.81 L1872.71 1221.57 L1898.08 1192.37 L1923.45 1159.82 L1948.69 1123.56 L1974.06 1083.22 L1999.31 1038.17 L2024.67 988.05" stroke-linejoin="round" style="fill:none;stroke:#D9C263;stroke-width:3.67"/>
	<path d=" M455.52 1481.95 L480.77 1481.83 L506.14 1481.83 L531.38 1481.71 L556.75 1481.58 L582.00 1481.46 L607.37 1481.21 L632.61 1481.09 L657.98 1480.84 L683.22 1480.59 L708.59 1480.34 L733.84 1479.97 L759.21 1479.60 L784.45 1479.11 L809.82 1478.61 L835.07 1477.99 L860.43 1477.37 L885.68 1476.51 L911.05 1475.64 L936.29 1474.77 L961.66 1473.66 L986.91 1472.42 L1012.27 1471.19 L1037.52 1469.70 L1062.89 1468.09 L1088.13 1466.36 L1113.50 1464.50 L1138.87 1462.52 L1164.12 1460.30 L1189.48 1457.94 L1214.73 1455.35 L1240.10 1452.62 L1265.34 1449.53 L1290.71 1446.19 L1315.96 1442.60 L1341.33 1438.64 L1366.57 1434.31 L1391.94 1429.48 L1417.18 1424.28 L1442.55 1418.47 L1467.80 1411.91 L1493.17 1404.73 L1518.41 1396.81 L1543.78 1387.90 L1569.03 1378.00 L1594.39 1366.99 L1619.64 1354.73 L1645.01 1341.00 L1670.25 1325.78 L1695.62 1308.82 L1720.87 1290.01 L1746.24 1268.85 L1771.48 1245.46 L1796.85 1219.22 L1822.10 1190.14 L1847.46 1157.59 L1872.71 1121.33 L1898.08 1080.99 L1923.45 1035.94 L1948.69 985.70 L1974.06 929.89 L1999.31 867.51 L2024.67 798.21" stroke-linejoin="round" style="fill:none;stroke:#A0522D;stroke-width:3.67"/>
	<path d=" M455.52 1482.08 L480.77 1482.08 L506.14 1481.95 L531.38 1481.95 L556.75 1481.83 L582.00 1481.83 L607.37 1481.71 L632.61 1481.58 L657.98 1481.46 L683.22 1481.21 L708.59 1481.09 L733.84 1480.84 L759.21 1480.59 L784.45 1480.34 L809.82 1479.97 L835.07 1479.60 L860.43 1479.23 L885.68 1478.73 L911.05 1478.12 L936.29 1477.62 L961.66 1476.88 L986.91 1476.14 L1012.27 1475.27 L1037.52 1474.40 L1062.89 1473.41 L1088.13 1472.30 L1113.50 1471.19 L1138.87 1469.95 L1164.12 1468.59 L1189.48 1467.10 L1214.73 1465.37 L1240.10 1463.64 L1265.34 1461.78 L1290.71 1459.68 L1315.96 1457.45 L1341.33 1454.97 L1366.57 1452.25 L1391.94 1449.16 L1417.18 1445.94 L1442.55 1442.23 L1467.80 1438.14 L1493.17 1433.69 L1518.41 1428.61 L1543.78 1423.05 L1569.03 1416.86 L1594.39 1409.93 L1619.64 1402.26 L1645.01 1393.72 L1670.25 1384.19 L1695.62 1373.54 L1720.87 1361.66 L1746.24 1348.42 L1771.48 1333.70 L1796.85 1317.36 L1822.10 1299.04 L1847.46 1278.62 L1872.71 1255.85 L1898.08 1230.48 L1923.45 1202.27 L1948.69 1170.71 L1974.06 1135.69 L1999.31 1096.58 L2024.67 1053.02" stroke-linejoin="round" style="fill:none;stroke:#FF0000;stroke-width:3.67"/>
	<path d=" M455.52 1482.08 L480.77 1481.95 L506.14 1481.95 L531.38 1481.83 L556.75 1481.83 L582.00 1481.71 L607.37 1481.58 L632.61 1481.46 L657.98 1481.21 L683.22 1481.09 L708.59 1480.84 L733.84 1480.59 L759.21 1480.34 L784.45 1479.97 L809.82 1479.60 L835.07 1479.11 L860.43 1478.61 L885.68 1478.12 L911.05 1477.50 L936.29 1476.75 L961.66 1476.01 L986.91 1475.15 L1012.27 1474.16 L1037.52 1473.04 L1062.89 1471.93 L1088.13 1470.69 L1113.50 1469.33 L1138.87 1467.84 L1164.12 1466.24 L1189.48 1464.50 L1214.73 1462.52 L1240.10 1460.54 L1265.34 1458.32 L1290.71 1455.84 L1315.96 1453.24 L1341.33 1450.27 L1366.57 1447.05 L1391.94 1443.59 L1417.18 1439.75 L1442.55 1435.42 L1467.80 1430.72 L1493.17 1425.40 L1518.41 1419.58 L1543.78 1413.02 L1569.03 1405.84 L1594.39 1397.68 L1619.64 1388.77 L1645.01 1378.74 L1670.25 1367.60 L1695.62 1355.10 L1720.87 1341.24 L1746.24 1325.78 L1771.48 1308.57 L1796.85 1289.39 L1822.10 1267.98 L1847.46 1244.22 L1872.71 1217.61 L1898.08 1187.91 L1923.45 1154.87 L1948.69 1118.12 L1974.06 1077.03 L1999.31 1031.36 L2024.67 980.50" stroke-linejoin="round" style="fill:none;stroke:#90353B;stroke-width:3.67"/>
	<path d=" M455.52 1482.20 L480.77 1482.08 L506.14 1482.08 L531.38 1482.08 L556.75 1481.95 L582.00 1481.95 L607.37 1481.83 L632.61 1481.71 L657.98 1481.58 L683.22 1481.46 L708.59 1481.33 L733.84 1481.21 L759.21 1480.96 L784.45 1480.72 L809.82 1480.47 L835.07 1480.22 L860.43 1479.85 L885.68 1479.48 L911.05 1479.11 L936.29 1478.61 L961.66 1478.12 L986.91 1477.50 L1012.27 1476.88 L1037.52 1476.14 L1062.89 1475.39 L1088.13 1474.53 L1113.50 1473.66 L1138.87 1472.67 L1164.12 1471.56 L1189.48 1470.44 L1214.73 1469.21 L1240.10 1467.84 L1265.34 1466.36 L1290.71 1464.75 L1315.96 1462.89 L1341.33 1461.04 L1366.57 1458.93 L1391.94 1456.58 L1417.18 1453.98 L1442.55 1451.14 L1467.80 1448.04 L1493.17 1444.46 L1518.41 1440.62 L1543.78 1436.29 L1569.03 1431.46 L1594.39 1426.02 L1619.64 1420.08 L1645.01 1413.39 L1670.25 1405.97 L1695.62 1397.68 L1720.87 1388.52 L1746.24 1378.25 L1771.48 1366.74 L1796.85 1353.99 L1822.10 1339.76 L1847.46 1323.92 L1872.71 1306.22 L1898.08 1286.42 L1923.45 1264.52 L1948.69 1240.01 L1974.06 1212.66 L1999.31 1182.22 L2024.67 1148.44" stroke-linejoin="round" style="fill:none;stroke:#303030;stroke-width:3.67"/>
	<path d=" M455.52 1482.20 L480.77 1482.20 L506.14 1482.20 L531.38 1482.08 L556.75 1482.08 L582.00 1482.08 L607.37 1481.95 L632.61 1481.95 L657.98 1481.83 L683.22 1481.71 L708.59 1481.58 L733.84 1481.46 L759.21 1481.33 L784.45 1481.21 L809.82 1481.09 L835.07 1480.84 L860.43 1480.59 L885.68 1480.34 L911.05 1479.97 L936.29 1479.72 L961.66 1479.35 L986.91 1478.86 L1012.27 1478.36 L1037.52 1477.87 L1062.89 1477.37 L1088.13 1476.75 L1113.50 1476.14 L1138.87 1475.39 L1164.12 1474.65 L1189.48 1473.78 L1214.73 1472.92 L1240.10 1471.93 L1265.34 1470.81 L1290.71 1469.70 L1315.96 1468.34 L1341.33 1466.98 L1366.57 1465.49 L1391.94 1463.76 L1417.18 1461.90 L1442.55 1459.92 L1467.80 1457.57 L1493.17 1455.10 L1518.41 1452.25 L1543.78 1449.16 L1569.03 1445.69 L1594.39 1441.73 L1619.64 1437.52 L1645.01 1432.70 L1670.25 1427.38 L1695.62 1421.31 L1720.87 1414.75 L1746.24 1407.33 L1771.48 1399.04 L1796.85 1389.88 L1822.10 1379.61 L1847.46 1368.22 L1872.71 1355.48 L1898.08 1341.24 L1923.45 1325.40 L1948.69 1307.71 L1974.06 1288.03 L1999.31 1266.13 L2024.67 1241.75" stroke-linejoin="round" style="fill:none;stroke:#505050;stroke-width:3.67"/>
	<path d=" M455.52 1482.20 L480.77 1482.20 L506.14 1482.20 L531.38 1482.20 L556.75 1482.08 L582.00 1482.08 L607.37 1482.08 L632.61 1481.95 L657.98 1481.95 L683.22 1481.83 L708.59 1481.83 L733.84 1481.71 L759.21 1481.58 L784.45 1481.46 L809.82 1481.33 L835.07 1481.09 L860.43 1480.96 L885.68 1480.72 L911.05 1480.47 L936.29 1480.22 L961.66 1479.85 L986.91 1479.48 L1012.27 1479.11 L1037.52 1478.73 L1062.89 1478.24 L1088.13 1477.74 L1113.50 1477.25 L1138.87 1476.63 L1164.12 1476.01 L1189.48 1475.39 L1214.73 1474.65 L1240.10 1473.78 L1265.34 1472.92 L1290.71 1472.05 L1315.96 1470.94 L1341.33 1469.82 L1366.57 1468.59 L1391.94 1467.23 L1417.18 1465.74 L1442.55 1464.13 L1467.80 1462.28 L1493.17 1460.17 L1518.41 1457.94 L1543.78 1455.35 L1569.03 1452.50 L1594.39 1449.41 L1619.64 1445.94 L1645.01 1441.98 L1670.25 1437.65 L1695.62 1432.82 L1720.87 1427.38 L1746.24 1421.44 L1771.48 1414.63 L1796.85 1407.21 L1822.10 1398.91 L1847.46 1389.63 L1872.71 1379.24 L1898.08 1367.60 L1923.45 1354.73 L1948.69 1340.50 L1974.06 1324.41 L1999.31 1306.59 L2024.67 1286.79" stroke-linejoin="round" style="fill:none;stroke:#707070;stroke-width:3.67"/>
	<path d=" M455.52 1482.08 L480.77 1482.08 L506.14 1481.95 L531.38 1481.95 L556.75 1481.83 L582.00 1481.71 L607.37 1481.58 L632.61 1481.46 L657.98 1481.33 L683.22 1481.21 L708.59 1480.96 L733.84 1480.72 L759.21 1480.47 L784.45 1480.10 L809.82 1479.72 L835.07 1479.35 L860.43 1478.86 L885.68 1478.36 L911.05 1477.74 L936.29 1477.13 L961.66 1476.38 L986.91 1475.52 L1012.27 1474.65 L1037.52 1473.66 L1062.89 1472.55 L1088.13 1471.43 L1113.50 1470.20 L1138.87 1468.71 L1164.12 1467.23 L1189.48 1465.62 L1214.73 1463.88 L1240.10 1461.90 L1265.34 1459.80 L1290.71 1457.57 L1315.96 1455.10 L1341.33 1452.38 L1366.57 1449.41 L1391.94 1446.06 L1417.18 1442.48 L1442.55 1438.51 L1467.80 1434.06 L1493.17 1429.11 L1518.41 1423.66 L1543.78 1417.60 L1569.03 1410.79 L1594.39 1403.25 L1619.64 1394.83 L1645.01 1385.42 L1670.25 1375.03 L1695.62 1363.40 L1720.87 1350.40 L1746.24 1336.05 L1771.48 1319.96 L1796.85 1302.01 L1822.10 1281.97 L1847.46 1259.69 L1872.71 1234.82 L1898.08 1207.10 L1923.45 1176.16 L1948.69 1141.75 L1974.06 1103.39 L1999.31 1060.69 L2024.67 1013.05" stroke-linejoin="round" style="fill:none;stroke:#FFE474;stroke-width:3.67"/>
	<path d=" M455.52 1482.08 L480.77 1481.95 L506.14 1481.95 L531.38 1481.83 L556.75 1481.83 L582.00 1481.71 L607.37 1481.58 L632.61 1481.46 L657.98 1481.21 L683.22 1481.09 L708.59 1480.84 L733.84 1480.59 L759.21 1480.34 L784.45 1479.97 L809.82 1479.60 L835.07 1479.23 L860.43 1478.73 L885.68 1478.12 L911.05 1477.50 L936.29 1476.75 L961.66 1476.01 L986.91 1475.15 L1012.27 1474.16 L1037.52 1473.17 L1062.89 1471.93 L1088.13 1470.69 L1113.50 1469.33 L1138.87 1467.84 L1164.12 1466.24 L1189.48 1464.50 L1214.73 1462.65 L1240.10 1460.67 L1265.34 1458.44 L1290.71 1455.96 L1315.96 1453.37 L1341.33 1450.40 L1366.57 1447.30 L1391.94 1443.71 L1417.18 1439.88 L1442.55 1435.67 L1467.80 1430.97 L1493.17 1425.64 L1518.41 1419.83 L1543.78 1413.39 L1569.03 1406.09 L1594.39 1398.05 L1619.64 1389.14 L1645.01 1379.11 L1670.25 1368.10 L1695.62 1355.72 L1720.87 1341.86 L1746.24 1326.52 L1771.48 1309.32 L1796.85 1290.26 L1822.10 1268.97 L1847.46 1245.21 L1872.71 1218.73 L1898.08 1189.27 L1923.45 1156.36 L1948.69 1119.72 L1974.06 1078.89 L1999.31 1033.34 L2024.67 982.73" stroke-linejoin="round" style="fill:none;stroke:#FFD200;stroke-width:3.67"/>
	<path d=" M455.52 1482.20 L480.77 1482.08 L506.14 1482.08 L531.38 1482.08 L556.75 1481.95 L582.00 1481.95 L607.37 1481.83 L632.61 1481.83 L657.98 1481.71 L683.22 1481.58 L708.59 1481.46 L733.84 1481.33 L759.21 1481.09 L784.45 1480.84 L809.82 1480.72 L835.07 1480.34 L860.43 1480.10 L885.68 1479.72 L911.05 1479.35 L936.29 1478.86 L961.66 1478.49 L986.91 1477.87 L1012.27 1477.25 L1037.52 1476.63 L1062.89 1475.89 L1088.13 1475.15 L1113.50 1474.28 L1138.87 1473.41 L1164.12 1472.42 L1189.48 1471.31 L1214.73 1470.20 L1240.10 1468.96 L1265.34 1467.60 L1290.71 1466.11 L1315.96 1464.38 L1341.33 1462.65 L1366.57 1460.67 L1391.94 1458.56 L1417.18 1456.21 L1442.55 1453.49 L1467.80 1450.64 L1493.17 1447.43 L1518.41 1443.71 L1543.78 1439.75 L1569.03 1435.30 L1594.39 1430.35 L1619.64 1424.78 L1645.01 1418.59 L1670.25 1411.78 L1695.62 1404.11 L1720.87 1395.57 L1746.24 1386.17 L1771.48 1375.52 L1796.85 1363.77 L1822.10 1350.65 L1847.46 1335.92 L1872.71 1319.59 L1898.08 1301.40 L1923.45 1281.10 L1948.69 1258.45 L1974.06 1233.21 L1999.31 1205.12 L2024.67 1173.81" stroke-linejoin="round" style="fill:none;stroke:#FFFF00;stroke-width:3.67"/>
	<path d=" M455.52 1482.20 L480.77 1482.20 L506.14 1482.08 L531.38 1482.08 L556.75 1482.08 L582.00 1481.95 L607.37 1481.95 L632.61 1481.83 L657.98 1481.83 L683.22 1481.71 L708.59 1481.58 L733.84 1481.46 L759.21 1481.33 L784.45 1481.09 L809.82 1480.84 L835.07 1480.72 L860.43 1480.47 L885.68 1480.10 L911.05 1479.72 L936.29 1479.35 L961.66 1478.98 L986.91 1478.49 L1012.27 1477.99 L1037.52 1477.50 L1062.89 1476.88 L1088.13 1476.14 L1113.50 1475.52 L1138.87 1474.65 L1164.12 1473.78 L1189.48 1472.92 L1214.73 1471.93 L1240.10 1470.81 L1265.34 1469.70 L1290.71 1468.34 L1315.96 1466.98 L1341.33 1465.37 L1366.57 1463.76 L1391.94 1461.90 L1417.18 1459.92 L1442.55 1457.57 L1467.80 1455.10 L1493.17 1452.38 L1518.41 1449.28 L1543.78 1445.82 L1569.03 1441.98 L1594.39 1437.65 L1619.64 1432.95 L1645.01 1427.62 L1670.25 1421.81 L1695.62 1415.25 L1720.87 1407.95 L1746.24 1399.78 L1771.48 1390.62 L1796.85 1380.60 L1822.10 1369.21 L1847.46 1356.71 L1872.71 1342.61 L1898.08 1327.01 L1923.45 1309.56 L1948.69 1290.13 L1974.06 1268.48 L1999.31 1244.35 L2024.67 1217.49" stroke-linejoin="round" style="fill:none;stroke:#FF4500;stroke-width:3.67"/>
	<path d=" M455.52 1482.20 L480.77 1482.20 L506.14 1482.20 L531.38 1482.08 L556.75 1482.08 L582.00 1482.08 L607.37 1481.95 L632.61 1481.95 L657.98 1481.83 L683.22 1481.71 L708.59 1481.71 L733.84 1481.58 L759.21 1481.46 L784.45 1481.21 L809.82 1481.09 L835.07 1480.84 L860.43 1480.72 L885.68 1480.47 L911.05 1480.10 L936.29 1479.85 L961.66 1479.48 L986.91 1478.98 L1012.27 1478.61 L1037.52 1478.12 L1062.89 1477.62 L1088.13 1477.00 L1113.50 1476.38 L1138.87 1475.64 L1164.12 1474.90 L1189.48 1474.16 L1214.73 1473.29 L1240.10 1472.30 L1265.34 1471.31 L1290.71 1470.20 L1315.96 1468.96 L1341.33 1467.72 L1366.57 1466.24 L1391.94 1464.63 L1417.18 1462.89 L1442.55 1460.91 L1467.80 1458.69 L1493.17 1456.34 L1518.41 1453.61 L1543.78 1450.64 L1569.03 1447.30 L1594.39 1443.59 L1619.64 1439.50 L1645.01 1434.93 L1670.25 1429.73 L1695.62 1424.04 L1720.87 1417.72 L1746.24 1410.67 L1771.48 1402.75 L1796.85 1393.96 L1822.10 1384.19 L1847.46 1373.30 L1872.71 1361.05 L1898.08 1347.56 L1923.45 1332.33 L1948.69 1315.50 L1974.06 1296.69 L1999.31 1275.78 L2024.67 1252.39" stroke-linejoin="round" style="fill:none;stroke:#FF00FF;stroke-width:3.67"/>
	<path d=" M455.52 1482.08 L480.77 1482.08 L506.14 1481.95 L531.38 1481.95 L556.75 1481.83 L582.00 1481.71 L607.37 1481.71 L632.61 1481.58 L657.98 1481.33 L683.22 1481.21 L708.59 1481.09 L733.84 1480.84 L759.21 1480.59 L784.45 1480.22 L809.82 1479.97 L835.07 1479.60 L860.43 1479.11 L885.68 1478.61 L911.05 1478.12 L936.29 1477.37 L961.66 1476.75 L986.91 1476.01 L1012.27 1475.15 L1037.52 1474.16 L1062.89 1473.17 L1088.13 1472.05 L1113.50 1470.81 L1138.87 1469.58 L1164.12 1468.09 L1189.48 1466.61 L1214.73 1464.87 L1240.10 1463.14 L1265.34 1461.16 L1290.71 1459.06 L1315.96 1456.71 L1341.33 1454.11 L1366.57 1451.26 L1391.94 1448.17 L1417.18 1444.83 L1442.55 1441.11 L1467.80 1436.91 L1493.17 1432.20 L1518.41 1427.13 L1543.78 1421.31 L1569.03 1415.00 L1594.39 1407.82 L1619.64 1399.90 L1645.01 1391.12 L1670.25 1381.22 L1695.62 1370.33 L1720.87 1358.07 L1746.24 1344.46 L1771.48 1329.36 L1796.85 1312.41 L1822.10 1293.60 L1847.46 1272.56 L1872.71 1249.17 L1898.08 1223.06 L1923.45 1193.98 L1948.69 1161.55 L1974.06 1125.42 L1999.31 1085.20 L2024.67 1040.40" stroke-linejoin="round" style="fill:none;stroke:#FF0000;stroke-width:3.67"/>
	<path d=" M455.52 1482.20 L480.77 1482.20 L506.14 1482.20 L531.38 1482.20 L556.75 1482.08 L582.00 1482.08 L607.37 1482.08 L632.61 1481.95 L657.98 1481.95 L683.22 1481.83 L708.59 1481.71 L733.84 1481.71 L759.21 1481.58 L784.45 1481.46 L809.82 1481.21 L835.07 1481.09 L860.43 1480.84 L885.68 1480.72 L911.05 1480.47 L936.29 1480.10 L961.66 1479.85 L986.91 1479.48 L1012.27 1479.11 L1037.52 1478.61 L1062.89 1478.24 L1088.13 1477.74 L1113.50 1477.13 L1138.87 1476.63 L1164.12 1475.89 L1189.48 1475.27 L1214.73 1474.53 L1240.10 1473.66 L1265.34 1472.79 L1290.71 1471.80 L1315.96 1470.81 L1341.33 1469.58 L1366.57 1468.34 L1391.94 1466.98 L1417.18 1465.49 L1442.55 1463.76 L1467.80 1461.90 L1493.17 1459.80 L1518.41 1457.45 L1543.78 1454.85 L1569.03 1452.00 L1594.39 1448.79 L1619.64 1445.20 L1645.01 1441.24 L1670.25 1436.78 L1695.62 1431.83 L1720.87 1426.39 L1746.24 1420.20 L1771.48 1413.39 L1796.85 1405.72 L1822.10 1397.30 L1847.46 1387.78 L1872.71 1377.26 L1898.08 1365.50 L1923.45 1352.38 L1948.69 1337.78 L1974.06 1321.44 L1999.31 1303.25 L2024.67 1283.08" stroke-linejoin="round" style="fill:none;stroke:#000000;stroke-width:3.67"/>
	<line x1="455.52" y1="1441.24" x2="458.37" y2="1441.24" style="stroke:#000000;stroke-width:7.34"/>
	<line x1="478.54" y1="1441.24" x2="480.77" y2="1441.24" style="stroke:#000000;stroke-width:7.34"/>
	<line x1="480.77" y1="1441.24" x2="481.39" y2="1441.24" style="stroke:#000000;stroke-width:7.34"/>
	<line x1="501.56" y1="1441.24" x2="504.40" y2="1441.24" style="stroke:#000000;stroke-width:7.34"/>
	<line x1="524.58" y1="1441.24" x2="527.42" y2="1441.24" style="stroke:#000000;stroke-width:7.34"/>
	<line x1="547.59" y1="1441.24" x2="550.44" y2="1441.24" style="stroke:#000000;stroke-width:7.34"/>
	<line x1="570.61" y1="1441.24" x2="573.58" y2="1441.24" style="stroke:#000000;stroke-width:7.34"/>
	<line x1="593.75" y1="1441.24" x2="596.60" y2="1441.24" style="stroke:#000000;stroke-width:7.34"/>
	<line x1="616.77" y1="1441.24" x2="619.62" y2="1441.24" style="stroke:#000000;stroke-width:7.34"/>
	<line x1="639.79" y1="1441.24" x2="642.63" y2="1441.24" style="stroke:#000000;stroke-width:7.34"/>
	<line x1="662.80" y1="1441.24" x2="665.65" y2="1441.24" style="stroke:#000000;stroke-width:7.34"/>
	<line x1="685.82" y1="1441.24" x2="688.67" y2="1441.24" style="stroke:#000000;stroke-width:7.34"/>
	<line x1="708.84" y1="1441.24" x2="711.69" y2="1441.24" style="stroke:#000000;stroke-width:7.34"/>
	<line x1="731.86" y1="1441.24" x2="733.84" y2="1441.24" style="stroke:#000000;stroke-width:7.34"/>
	<line x1="733.84" y1="1441.24" x2="734.70" y2="1441.24" style="stroke:#000000;stroke-width:7.34"/>
	<line x1="754.88" y1="1441.24" x2="757.72" y2="1441.24" style="stroke:#000000;stroke-width:7.34"/>
	<line x1="777.89" y1="1441.24" x2="780.74" y2="1441.24" style="stroke:#000000;stroke-width:7.34"/>
	<line x1="800.91" y1="1441.24" x2="803.88" y2="1441.24" style="stroke:#000000;stroke-width:7.34"/>
	<line x1="823.93" y1="1441.24" x2="826.90" y2="1441.24" style="stroke:#000000;stroke-width:7.34"/>
	<line x1="847.07" y1="1441.24" x2="849.91" y2="1441.24" style="stroke:#000000;stroke-width:7.34"/>
	<line x1="870.09" y1="1441.24" x2="872.93" y2="1441.24" style="stroke:#000000;stroke-width:7.34"/>
	<line x1="893.10" y1="1441.24" x2="895.95" y2="1441.24" style="stroke:#000000;stroke-width:7.34"/>
	<line x1="916.12" y1="1441.24" x2="918.97" y2="1441.24" style="stroke:#000000;stroke-width:7.34"/>
	<line x1="939.14" y1="1441.24" x2="941.99" y2="1441.24" style="stroke:#000000;stroke-width:7.34"/>
	<line x1="962.16" y1="1441.24" x2="965.00" y2="1441.24" style="stroke:#000000;stroke-width:7.34"/>
	<line x1="985.17" y1="1441.24" x2="986.91" y2="1441.24" style="stroke:#000000;stroke-width:7.34"/>
	<line x1="986.91" y1="1441.24" x2="988.02" y2="1441.24" style="stroke:#000000;stroke-width:7.34"/>
	<line x1="1008.19" y1="1441.24" x2="1011.04" y2="1441.24" style="stroke:#000000;stroke-width:7.34"/>
	<line x1="1031.21" y1="1441.24" x2="1034.06" y2="1441.24" style="stroke:#000000;stroke-width:7.34"/>
	<line x1="1054.23" y1="1441.24" x2="1057.20" y2="1441.24" style="stroke:#000000;stroke-width:7.34"/>
	<line x1="1077.24" y1="1441.24" x2="1080.21" y2="1441.24" style="stroke:#000000;stroke-width:7.34"/>
	<line x1="1100.38" y1="1441.24" x2="1103.23" y2="1441.24" style="stroke:#000000;stroke-width:7.34"/>
	<line x1="1123.40" y1="1441.24" x2="1126.25" y2="1441.24" style="stroke:#000000;stroke-width:7.34"/>
	<line x1="1146.42" y1="1441.24" x2="1149.27" y2="1441.24" style="stroke:#000000;stroke-width:7.34"/>
	<line x1="1169.44" y1="1441.24" x2="1172.28" y2="1441.24" style="stroke:#000000;stroke-width:7.34"/>
	<line x1="1192.45" y1="1441.24" x2="1195.30" y2="1441.24" style="stroke:#000000;stroke-width:7.34"/>
	<line x1="1215.47" y1="1441.24" x2="1218.32" y2="1441.24" style="stroke:#000000;stroke-width:7.34"/>
	<line x1="1238.49" y1="1441.24" x2="1240.10" y2="1441.24" style="stroke:#000000;stroke-width:7.34"/>
	<line x1="1240.10" y1="1441.24" x2="1241.34" y2="1441.24" style="stroke:#000000;stroke-width:7.34"/>
	<line x1="1261.51" y1="1441.24" x2="1264.35" y2="1441.24" style="stroke:#000000;stroke-width:7.34"/>
	<line x1="1284.53" y1="1441.24" x2="1287.37" y2="1441.24" style="stroke:#000000;stroke-width:7.34"/>
	<line x1="1307.54" y1="1441.24" x2="1310.51" y2="1441.24" style="stroke:#000000;stroke-width:7.34"/>
	<line x1="1330.56" y1="1441.24" x2="1333.53" y2="1441.24" style="stroke:#000000;stroke-width:7.34"/>
	<line x1="1353.70" y1="1441.24" x2="1356.55" y2="1441.24" style="stroke:#000000;stroke-width:7.34"/>
	<line x1="1376.72" y1="1441.24" x2="1379.57" y2="1441.24" style="stroke:#000000;stroke-width:7.34"/>
	<line x1="1399.74" y1="1441.24" x2="1402.58" y2="1441.24" style="stroke:#000000;stroke-width:7.34"/>
	<line x1="1422.75" y1="1441.24" x2="1425.60" y2="1441.24" style="stroke:#000000;stroke-width:7.34"/>
	<line x1="1445.77" y1="1441.24" x2="1448.62" y2="1441.24" style="stroke:#000000;stroke-width:7.34"/>
	<line x1="1468.79" y1="1441.24" x2="1471.63" y2="1441.24" style="stroke:#000000;stroke-width:7.34"/>
	<line x1="1491.81" y1="1441.24" x2="1493.17" y2="1441.24" style="stroke:#000000;stroke-width:7.34"/>
	<line x1="1493.17" y1="1441.24" x2="1494.65" y2="1441.24" style="stroke:#000000;stroke-width:7.34"/>
	<line x1="1514.82" y1="1441.24" x2="1517.67" y2="1441.24" style="stroke:#000000;stroke-width:7.34"/>
	<line x1="1537.84" y1="1441.24" x2="1540.69" y2="1441.24" style="stroke:#000000;stroke-width:7.34"/>
	<line x1="1560.86" y1="1441.24" x2="1563.83" y2="1441.24" style="stroke:#000000;stroke-width:7.34"/>
	<line x1="1584.00" y1="1441.24" x2="1586.85" y2="1441.24" style="stroke:#000000;stroke-width:7.34"/>
	<line x1="1607.02" y1="1441.24" x2="1609.86" y2="1441.24" style="stroke:#000000;stroke-width:7.34"/>
	<line x1="1630.04" y1="1441.24" x2="1632.88" y2="1441.24" style="stroke:#000000;stroke-width:7.34"/>
	<line x1="1653.05" y1="1441.24" x2="1655.90" y2="1441.24" style="stroke:#000000;stroke-width:7.34"/>
	<line x1="1676.07" y1="1441.24" x2="1678.92" y2="1441.24" style="stroke:#000000;stroke-width:7.34"/>
	<line x1="1699.09" y1="1441.24" x2="1701.93" y2="1441.24" style="stroke:#000000;stroke-width:7.34"/>
	<line x1="1722.11" y1="1441.24" x2="1724.95" y2="1441.24" style="stroke:#000000;stroke-width:7.34"/>
	<line x1="1745.12" y1="1441.24" x2="1746.24" y2="1441.24" style="stroke:#000000;stroke-width:7.34"/>
	<line x1="1746.24" y1="1441.24" x2="1747.97" y2="1441.24" style="stroke:#000000;stroke-width:7.34"/>
	<line x1="1768.14" y1="1441.24" x2="1770.99" y2="1441.24" style="stroke:#000000;stroke-width:7.34"/>
	<line x1="1791.16" y1="1441.24" x2="1794.00" y2="1441.24" style="stroke:#000000;stroke-width:7.34"/>
	<line x1="1814.17" y1="1441.24" x2="1817.14" y2="1441.24" style="stroke:#000000;stroke-width:7.34"/>
	<line x1="1837.32" y1="1441.24" x2="1840.16" y2="1441.24" style="stroke:#000000;stroke-width:7.34"/>
	<line x1="1860.33" y1="1441.24" x2="1863.18" y2="1441.24" style="stroke:#000000;stroke-width:7.34"/>
	<line x1="1883.35" y1="1441.24" x2="1886.20" y2="1441.24" style="stroke:#000000;stroke-width:7.34"/>
	<line x1="1906.37" y1="1441.24" x2="1909.21" y2="1441.24" style="stroke:#000000;stroke-width:7.34"/>
	<line x1="1929.39" y1="1441.24" x2="1932.23" y2="1441.24" style="stroke:#000000;stroke-width:7.34"/>
	<line x1="1952.40" y1="1441.24" x2="1955.25" y2="1441.24" style="stroke:#000000;stroke-width:7.34"/>
	<line x1="1975.42" y1="1441.24" x2="1978.27" y2="1441.24" style="stroke:#000000;stroke-width:7.34"/>
	<line x1="1998.44" y1="1441.24" x2="1999.31" y2="1441.24" style="stroke:#000000;stroke-width:7.34"/>
	<line x1="1999.31" y1="1441.24" x2="2001.29" y2="1441.24" style="stroke:#000000;stroke-width:7.34"/>
	<line x1="2021.46" y1="1441.24" x2="2024.30" y2="1441.24" style="stroke:#000000;stroke-width:7.34"/>
	<path d="" stroke-linejoin="round" style="fill:none;stroke:#000000;stroke-width:7.34"/>
	<path d=" M2201.39 1482.08 L2226.76 1481.95 L2252.13 1481.95 L2277.37 1481.83 L2302.74 1481.83 L2327.99 1481.71 L2353.35 1481.58 L2378.60 1481.46 L2403.97 1481.21 L2429.21 1481.09 L2454.58 1480.84 L2479.83 1480.59 L2505.20 1480.34 L2530.44 1479.97 L2555.81 1479.60 L2581.05 1479.11 L2606.42 1478.61 L2631.67 1478.12 L2657.04 1477.37 L2682.28 1476.75 L2707.65 1475.89 L2732.89 1475.02 L2758.26 1474.03 L2783.51 1472.92 L2808.88 1471.80 L2834.12 1470.57 L2859.49 1469.21 L2884.74 1467.60 L2910.11 1465.99 L2935.35 1464.26 L2960.72 1462.28 L2986.09 1460.30 L3011.33 1457.94 L3036.70 1455.47 L3061.95 1452.87 L3087.32 1449.90 L3112.56 1446.68 L3137.93 1443.09 L3163.17 1439.26 L3188.54 1434.93 L3213.79 1430.10 L3239.16 1424.78 L3264.40 1418.84 L3289.77 1412.28 L3315.01 1404.85 L3340.38 1396.69 L3365.63 1387.65 L3391.00 1377.50 L3416.24 1366.24 L3441.61 1353.62 L3466.86 1339.64 L3492.22 1324.04 L3517.47 1306.59 L3542.84 1287.16 L3568.08 1265.51 L3593.45 1241.38 L3618.70 1214.52 L3644.07 1184.57 L3669.31 1151.16 L3694.68 1113.91 L3719.93 1072.33 L3745.29 1026.17 L3770.66 974.69" stroke-linejoin="round" style="fill:none;stroke:#82C0E9;stroke-width:3.67"/>
	<path d=" M2201.39 1482.20 L2226.76 1482.20 L2252.13 1482.08 L2277.37 1482.08 L2302.74 1482.08 L2327.99 1481.95 L2353.35 1481.95 L2378.60 1481.83 L2403.97 1481.71 L2429.21 1481.58 L2454.58 1481.46 L2479.83 1481.33 L2505.20 1481.21 L2530.44 1480.96 L2555.81 1480.84 L2581.05 1480.59 L2606.42 1480.22 L2631.67 1479.97 L2657.04 1479.60 L2682.28 1479.11 L2707.65 1478.73 L2732.89 1478.24 L2758.26 1477.62 L2783.51 1477.00 L2808.88 1476.38 L2834.12 1475.64 L2859.49 1474.90 L2884.74 1474.03 L2910.11 1473.17 L2935.35 1472.18 L2960.72 1471.06 L2986.09 1469.95 L3011.33 1468.59 L3036.70 1467.23 L3061.95 1465.74 L3087.32 1464.01 L3112.56 1462.28 L3137.93 1460.30 L3163.17 1458.07 L3188.54 1455.59 L3213.79 1452.87 L3239.16 1449.90 L3264.40 1446.56 L3289.77 1442.85 L3315.01 1438.76 L3340.38 1434.06 L3365.63 1428.99 L3391.00 1423.29 L3416.24 1416.86 L3441.61 1409.80 L3466.86 1401.88 L3492.22 1393.10 L3517.47 1383.32 L3542.84 1372.31 L3568.08 1360.18 L3593.45 1346.57 L3618.70 1331.34 L3644.07 1314.51 L3669.31 1295.70 L3694.68 1274.66 L3719.93 1251.28 L3745.29 1225.16 L3770.66 1196.08" stroke-linejoin="round" style="fill:none;stroke:#0000FF;stroke-width:3.67"/>
	<path d=" M2201.39 1482.20 L2226.76 1482.08 L2252.13 1482.08 L2277.37 1482.08 L2302.74 1481.95 L2327.99 1481.95 L2353.35 1481.83 L2378.60 1481.71 L2403.97 1481.58 L2429.21 1481.46 L2454.58 1481.33 L2479.83 1481.21 L2505.20 1480.96 L2530.44 1480.84 L2555.81 1480.59 L2581.05 1480.22 L2606.42 1479.97 L2631.67 1479.60 L2657.04 1479.11 L2682.28 1478.73 L2707.65 1478.12 L2732.89 1477.62 L2758.26 1477.00 L2783.51 1476.26 L2808.88 1475.52 L2834.12 1474.65 L2859.49 1473.78 L2884.74 1472.79 L2910.11 1471.80 L2935.35 1470.57 L2960.72 1469.33 L2986.09 1467.97 L3011.33 1466.61 L3036.70 1465.00 L3061.95 1463.27 L3087.32 1461.29 L3112.56 1459.18 L3137.93 1456.95 L3163.17 1454.36 L3188.54 1451.63 L3213.79 1448.42 L3239.16 1445.07 L3264.40 1441.11 L3289.77 1436.91 L3315.01 1432.08 L3340.38 1426.88 L3365.63 1420.94 L3391.00 1414.38 L3416.24 1407.08 L3441.61 1398.91 L3466.86 1389.76 L3492.22 1379.61 L3517.47 1368.35 L3542.84 1355.72 L3568.08 1341.74 L3593.45 1326.02 L3618.70 1308.57 L3644.07 1289.14 L3669.31 1267.49 L3694.68 1243.36 L3719.93 1216.38 L3745.29 1186.43 L3770.66 1153.01" stroke-linejoin="round" style="fill:none;stroke:#0080FF;stroke-width:3.67"/>
	<path d=" M2201.39 1482.20 L2226.76 1482.20 L2252.13 1482.08 L2277.37 1482.08 L2302.74 1482.08 L2327.99 1481.95 L2353.35 1481.95 L2378.60 1481.83 L2403.97 1481.71 L2429.21 1481.58 L2454.58 1481.58 L2479.83 1481.33 L2505.20 1481.21 L2530.44 1481.09 L2555.81 1480.84 L2581.05 1480.59 L2606.42 1480.34 L2631.67 1479.97 L2657.04 1479.60 L2682.28 1479.23 L2707.65 1478.86 L2732.89 1478.36 L2758.26 1477.74 L2783.51 1477.25 L2808.88 1476.51 L2834.12 1475.89 L2859.49 1475.15 L2884.74 1474.28 L2910.11 1473.41 L2935.35 1472.42 L2960.72 1471.31 L2986.09 1470.20 L3011.33 1468.96 L3036.70 1467.60 L3061.95 1466.11 L3087.32 1464.50 L3112.56 1462.77 L3137.93 1460.79 L3163.17 1458.69 L3188.54 1456.34 L3213.79 1453.74 L3239.16 1450.77 L3264.40 1447.55 L3289.77 1443.84 L3315.01 1439.88 L3340.38 1435.30 L3365.63 1430.35 L3391.00 1424.78 L3416.24 1418.59 L3441.61 1411.66 L3466.86 1403.99 L3492.22 1395.45 L3517.47 1385.80 L3542.84 1375.15 L3568.08 1363.27 L3593.45 1350.03 L3618.70 1335.30 L3644.07 1318.84 L3669.31 1300.53 L3694.68 1279.99 L3719.93 1257.22 L3745.29 1231.85 L3770.66 1203.51" stroke-linejoin="round" style="fill:none;stroke:#C0DCC0;stroke-width:3.67"/>
	<path d=" M2201.39 1482.08 L2226.76 1482.08 L2252.13 1482.08 L2277.37 1481.95 L2302.74 1481.95 L2327.99 1481.83 L2353.35 1481.83 L2378.60 1481.71 L2403.97 1481.58 L2429.21 1481.46 L2454.58 1481.33 L2479.83 1481.09 L2505.20 1480.96 L2530.44 1480.72 L2555.81 1480.47 L2581.05 1480.10 L2606.42 1479.72 L2631.67 1479.35 L2657.04 1478.98 L2682.28 1478.49 L2707.65 1477.87 L2732.89 1477.25 L2758.26 1476.63 L2783.51 1475.89 L2808.88 1475.02 L2834.12 1474.16 L2859.49 1473.17 L2884.74 1472.18 L2910.11 1471.06 L2935.35 1469.82 L2960.72 1468.46 L2986.09 1466.98 L3011.33 1465.49 L3036.70 1463.76 L3061.95 1461.90 L3087.32 1459.80 L3112.56 1457.57 L3137.93 1455.22 L3163.17 1452.50 L3188.54 1449.53 L3213.79 1446.19 L3239.16 1442.48 L3264.40 1438.39 L3289.77 1433.81 L3315.01 1428.61 L3340.38 1423.05 L3365.63 1416.73 L3391.00 1409.68 L3416.24 1401.88 L3441.61 1393.10 L3466.86 1383.44 L3492.22 1372.55 L3517.47 1360.55 L3542.84 1347.06 L3568.08 1332.09 L3593.45 1315.26 L3618.70 1296.69 L3644.07 1275.90 L3669.31 1252.76 L3694.68 1226.90 L3719.93 1198.06 L3745.29 1166.01 L3770.66 1130.37" stroke-linejoin="round" style="fill:none;stroke:#00FF80;stroke-width:3.67"/>
	<path d=" M2201.39 1482.08 L2226.76 1482.08 L2252.13 1482.08 L2277.37 1481.95 L2302.74 1481.95 L2327.99 1481.83 L2353.35 1481.71 L2378.60 1481.58 L2403.97 1481.46 L2429.21 1481.33 L2454.58 1481.21 L2479.83 1480.96 L2505.20 1480.72 L2530.44 1480.47 L2555.81 1480.22 L2581.05 1479.85 L2606.42 1479.48 L2631.67 1478.98 L2657.04 1478.49 L2682.28 1477.87 L2707.65 1477.25 L2732.89 1476.63 L2758.26 1475.76 L2783.51 1475.02 L2808.88 1474.03 L2834.12 1473.04 L2859.49 1471.93 L2884.74 1470.81 L2910.11 1469.58 L2935.35 1468.09 L2960.72 1466.61 L2986.09 1465.00 L3011.33 1463.27 L3036.70 1461.29 L3061.95 1459.18 L3087.32 1456.83 L3112.56 1454.36 L3137.93 1451.63 L3163.17 1448.54 L3188.54 1445.07 L3213.79 1441.36 L3239.16 1437.15 L3264.40 1432.45 L3289.77 1427.38 L3315.01 1421.56 L3340.38 1415.13 L3365.63 1407.95 L3391.00 1400.03 L3416.24 1391.24 L3441.61 1381.34 L3466.86 1370.33 L3492.22 1358.07 L3517.47 1344.34 L3542.84 1329.12 L3568.08 1312.16 L3593.45 1293.23 L3618.70 1272.07 L3644.07 1248.55 L3669.31 1222.32 L3694.68 1193.11 L3719.93 1160.44 L3745.29 1124.18 L3770.66 1083.71" stroke-linejoin="round" style="fill:none;stroke:#00B000;stroke-width:3.67"/>
	<path d=" M2201.39 1481.95 L2226.76 1481.95 L2252.13 1481.83 L2277.37 1481.83 L2302.74 1481.71 L2327.99 1481.58 L2353.35 1481.46 L2378.60 1481.33 L2403.97 1481.09 L2429.21 1480.96 L2454.58 1480.72 L2479.83 1480.34 L2505.20 1480.10 L2530.44 1479.72 L2555.81 1479.23 L2581.05 1478.73 L2606.42 1478.12 L2631.67 1477.50 L2657.04 1476.75 L2682.28 1476.01 L2707.65 1475.15 L2732.89 1474.16 L2758.26 1473.04 L2783.51 1471.80 L2808.88 1470.57 L2834.12 1469.08 L2859.49 1467.60 L2884.74 1465.86 L2910.11 1464.01 L2935.35 1462.03 L2960.72 1459.92 L2986.09 1457.57 L3011.33 1454.97 L3036.70 1452.25 L3061.95 1449.28 L3087.32 1445.94 L3112.56 1442.35 L3137.93 1438.39 L3163.17 1433.94 L3188.54 1429.11 L3213.79 1423.79 L3239.16 1417.72 L3264.40 1411.17 L3289.77 1403.74 L3315.01 1395.45 L3340.38 1386.29 L3365.63 1376.14 L3391.00 1364.76 L3416.24 1352.01 L3441.61 1337.90 L3466.86 1322.19 L3492.22 1304.74 L3517.47 1285.18 L3542.84 1263.40 L3568.08 1239.15 L3593.45 1212.05 L3618.70 1181.85 L3644.07 1148.19 L3669.31 1110.81 L3694.68 1068.99 L3719.93 1022.45 L3745.29 970.60 L3770.66 912.81" stroke-linejoin="round" style="fill:none;stroke:#008000;stroke-width:3.67"/>
	<path d=" M2201.39 1481.95 L2226.76 1481.95 L2252.13 1481.83 L2277.37 1481.83 L2302.74 1481.71 L2327.99 1481.58 L2353.35 1481.46 L2378.60 1481.21 L2403.97 1481.09 L2429.21 1480.84 L2454.58 1480.59 L2479.83 1480.34 L2505.20 1479.97 L2530.44 1479.60 L2555.81 1479.11 L2581.05 1478.61 L2606.42 1477.99 L2631.67 1477.37 L2657.04 1476.63 L2682.28 1475.76 L2707.65 1474.90 L2732.89 1473.91 L2758.26 1472.79 L2783.51 1471.56 L2808.88 1470.20 L2834.12 1468.71 L2859.49 1467.10 L2884.74 1465.37 L2910.11 1463.51 L2935.35 1461.41 L2960.72 1459.18 L2986.09 1456.83 L3011.33 1454.23 L3036.70 1451.39 L3061.95 1448.29 L3087.32 1444.83 L3112.56 1441.11 L3137.93 1437.03 L3163.17 1432.45 L3188.54 1427.50 L3213.79 1421.93 L3239.16 1415.74 L3264.40 1408.94 L3289.77 1401.27 L3315.01 1392.85 L3340.38 1383.32 L3365.63 1372.80 L3391.00 1361.17 L3416.24 1348.05 L3441.61 1333.57 L3466.86 1317.36 L3492.22 1299.29 L3517.47 1279.12 L3542.84 1256.72 L3568.08 1231.72 L3593.45 1203.75 L3618.70 1172.69 L3644.07 1138.04 L3669.31 1099.43 L3694.68 1056.36 L3719.93 1008.35 L3745.29 954.88 L3770.66 895.36" stroke-linejoin="round" style="fill:none;stroke:#006000;stroke-width:3.67"/>
	<path d=" M2201.39 1482.08 L2226.76 1481.95 L2252.13 1481.95 L2277.37 1481.83 L2302.74 1481.71 L2327.99 1481.58 L2353.35 1481.46 L2378.60 1481.33 L2403.97 1481.21 L2429.21 1480.96 L2454.58 1480.72 L2479.83 1480.47 L2505.20 1480.22 L2530.44 1479.85 L2555.81 1479.48 L2581.05 1478.98 L2606.42 1478.49 L2631.67 1477.87 L2657.04 1477.13 L2682.28 1476.38 L2707.65 1475.64 L2732.89 1474.65 L2758.26 1473.66 L2783.51 1472.55 L2808.88 1471.31 L2834.12 1469.95 L2859.49 1468.46 L2884.74 1466.98 L2910.11 1465.25 L2935.35 1463.39 L2960.72 1461.41 L2986.09 1459.18 L3011.33 1456.83 L3036.70 1454.23 L3061.95 1451.39 L3087.32 1448.42 L3112.56 1444.95 L3137.93 1441.24 L3163.17 1437.15 L3188.54 1432.70 L3213.79 1427.62 L3239.16 1422.06 L3264.40 1415.87 L3289.77 1408.94 L3315.01 1401.27 L3340.38 1392.73 L3365.63 1383.20 L3391.00 1372.55 L3416.24 1360.67 L3441.61 1347.56 L3466.86 1332.83 L3492.22 1316.49 L3517.47 1298.30 L3542.84 1277.88 L3568.08 1255.24 L3593.45 1229.99 L3618.70 1201.77 L3644.07 1170.46 L3669.31 1135.44 L3694.68 1096.34 L3719.93 1052.90 L3745.29 1004.51 L3770.66 950.55" stroke-linejoin="round" style="fill:none;stroke:#5C4717;stroke-width:3.67"/>
	<path d=" M2201.39 1482.08 L2226.76 1482.08 L2252.13 1481.95 L2277.37 1481.95 L2302.74 1481.83 L2327.99 1481.83 L2353.35 1481.71 L2378.60 1481.58 L2403.97 1481.46 L2429.21 1481.33 L2454.58 1481.09 L2479.83 1480.96 L2505.20 1480.72 L2530.44 1480.34 L2555.81 1480.10 L2581.05 1479.72 L2606.42 1479.35 L2631.67 1478.86 L2657.04 1478.36 L2682.28 1477.74 L2707.65 1477.13 L2732.89 1476.38 L2758.26 1475.52 L2783.51 1474.65 L2808.88 1473.78 L2834.12 1472.67 L2859.49 1471.56 L2884.74 1470.32 L2910.11 1468.96 L2935.35 1467.60 L2960.72 1465.99 L2986.09 1464.26 L3011.33 1462.40 L3036.70 1460.42 L3061.95 1458.19 L3087.32 1455.84 L3112.56 1453.24 L3137.93 1450.27 L3163.17 1447.18 L3188.54 1443.59 L3213.79 1439.75 L3239.16 1435.30 L3264.40 1430.47 L3289.77 1425.15 L3315.01 1419.09 L3340.38 1412.40 L3365.63 1404.98 L3391.00 1396.69 L3416.24 1387.53 L3441.61 1377.26 L3466.86 1365.75 L3492.22 1353.00 L3517.47 1338.77 L3542.84 1322.93 L3568.08 1305.23 L3593.45 1285.56 L3618.70 1263.53 L3644.07 1239.15 L3669.31 1211.80 L3694.68 1181.35 L3719.93 1147.45 L3745.29 1109.70 L3770.66 1067.62" stroke-linejoin="round" style="fill:none;stroke:#D7D29E;stroke-width:3.67"/>
	<path d=" M2201.39 1481.95 L2226.76 1481.83 L2252.13 1481.71 L2277.37 1481.58 L2302.74 1481.46 L2327.99 1481.33 L2353.35 1481.21 L2378.60 1480.96 L2403.97 1480.72 L2429.21 1480.47 L2454.58 1480.10 L2479.83 1479.72 L2505.20 1479.23 L2530.44 1478.73 L2555.81 1478.24 L2581.05 1477.50 L2606.42 1476.75 L2631.67 1476.01 L2657.04 1475.02 L2682.28 1473.91 L2707.65 1472.79 L2732.89 1471.43 L2758.26 1469.95 L2783.51 1468.34 L2808.88 1466.61 L2834.12 1464.75 L2859.49 1462.65 L2884.74 1460.42 L2910.11 1458.07 L2935.35 1455.47 L2960.72 1452.50 L2986.09 1449.41 L3011.33 1446.06 L3036.70 1442.48 L3061.95 1438.39 L3087.32 1434.06 L3112.56 1429.23 L3137.93 1424.04 L3163.17 1418.22 L3188.54 1411.78 L3213.79 1404.61 L3239.16 1396.69 L3264.40 1387.78 L3289.77 1378.00 L3315.01 1367.11 L3340.38 1354.86 L3365.63 1341.37 L3391.00 1326.27 L3416.24 1309.44 L3441.61 1290.75 L3466.86 1269.84 L3492.22 1246.70 L3517.47 1220.71 L3542.84 1191.87 L3568.08 1159.57 L3593.45 1123.69 L3618.70 1083.71 L3644.07 1039.16 L3669.31 989.41 L3694.68 933.97 L3719.93 872.22 L3745.29 803.53 L3770.66 726.93" stroke-linejoin="round" style="fill:none;stroke:#D9C263;stroke-width:3.67"/>
	<path d=" M2201.39 1481.71 L2226.76 1481.58 L2252.13 1481.46 L2277.37 1481.33 L2302.74 1481.21 L2327.99 1480.96 L2353.35 1480.72 L2378.60 1480.47 L2403.97 1480.10 L2429.21 1479.72 L2454.58 1479.23 L2479.83 1478.73 L2505.20 1478.12 L2530.44 1477.37 L2555.81 1476.63 L2581.05 1475.76 L2606.42 1474.65 L2631.67 1473.54 L2657.04 1472.18 L2682.28 1470.69 L2707.65 1469.08 L2732.89 1467.23 L2758.26 1465.25 L2783.51 1463.02 L2808.88 1460.54 L2834.12 1457.94 L2859.49 1455.10 L2884.74 1452.00 L2910.11 1448.66 L2935.35 1445.07 L2960.72 1441.11 L2986.09 1436.78 L3011.33 1432.20 L3036.70 1427.13 L3061.95 1421.56 L3087.32 1415.50 L3112.56 1408.81 L3137.93 1401.51 L3163.17 1393.47 L3188.54 1384.56 L3213.79 1374.66 L3239.16 1363.64 L3264.40 1351.52 L3289.77 1337.90 L3315.01 1322.81 L3340.38 1305.85 L3365.63 1287.16 L3391.00 1266.25 L3416.24 1242.98 L3441.61 1217.12 L3466.86 1188.16 L3492.22 1155.98 L3517.47 1120.22 L3542.84 1080.12 L3568.08 1035.57 L3593.45 985.95 L3618.70 930.51 L3644.07 868.88 L3669.31 800.07 L3694.68 723.34 L3719.93 637.95 L3745.29 542.91 L3770.66 436.97" stroke-linejoin="round" style="fill:none;stroke:#A0522D;stroke-width:3.67"/>
	<path d=" M2201.39 1481.95 L2226.76 1481.83 L2252.13 1481.83 L2277.37 1481.71 L2302.74 1481.58 L2327.99 1481.46 L2353.35 1481.33 L2378.60 1481.09 L2403.97 1480.96 L2429.21 1480.72 L2454.58 1480.34 L2479.83 1480.10 L2505.20 1479.72 L2530.44 1479.23 L2555.81 1478.73 L2581.05 1478.24 L2606.42 1477.50 L2631.67 1476.75 L2657.04 1476.01 L2682.28 1475.02 L2707.65 1474.03 L2732.89 1472.92 L2758.26 1471.56 L2783.51 1470.20 L2808.88 1468.71 L2834.12 1467.10 L2859.49 1465.25 L2884.74 1463.39 L2910.11 1461.29 L2935.35 1458.93 L2960.72 1456.46 L2986.09 1453.74 L3011.33 1450.89 L3036.70 1447.67 L3061.95 1444.21 L3087.32 1440.37 L3112.56 1436.29 L3137.93 1431.71 L3163.17 1426.63 L3188.54 1421.07 L3213.79 1414.88 L3239.16 1407.95 L3264.40 1400.28 L3289.77 1391.74 L3315.01 1382.21 L3340.38 1371.69 L3365.63 1359.93 L3391.00 1346.81 L3416.24 1332.21 L3441.61 1315.87 L3466.86 1297.81 L3492.22 1277.63 L3517.47 1255.11 L3542.84 1229.99 L3568.08 1202.02 L3593.45 1170.84 L3618.70 1136.06 L3644.07 1097.33 L3669.31 1054.14 L3694.68 1006.00 L3719.93 952.41 L3745.29 892.64 L3770.66 826.06" stroke-linejoin="round" style="fill:none;stroke:#FF0000;stroke-width:3.67"/>
	<path d=" M2201.39 1481.83 L2226.76 1481.83 L2252.13 1481.71 L2277.37 1481.58 L2302.74 1481.46 L2327.99 1481.33 L2353.35 1481.09 L2378.60 1480.96 L2403.97 1480.72 L2429.21 1480.34 L2454.58 1480.10 L2479.83 1479.72 L2505.20 1479.23 L2530.44 1478.73 L2555.81 1478.12 L2581.05 1477.50 L2606.42 1476.75 L2631.67 1475.89 L2657.04 1474.90 L2682.28 1473.78 L2707.65 1472.55 L2732.89 1471.31 L2758.26 1469.82 L2783.51 1468.22 L2808.88 1466.36 L2834.12 1464.50 L2859.49 1462.40 L2884.74 1460.17 L2910.11 1457.70 L2935.35 1454.97 L2960.72 1452.13 L2986.09 1448.91 L3011.33 1445.57 L3036.70 1441.86 L3061.95 1437.77 L3087.32 1433.32 L3112.56 1428.49 L3137.93 1423.05 L3163.17 1417.23 L3188.54 1410.67 L3213.79 1403.37 L3239.16 1395.32 L3264.40 1386.41 L3289.77 1376.39 L3315.01 1365.25 L3340.38 1353.00 L3365.63 1339.14 L3391.00 1323.92 L3416.24 1306.84 L3441.61 1287.78 L3466.86 1266.62 L3492.22 1242.98 L3517.47 1216.75 L3542.84 1187.42 L3568.08 1154.62 L3593.45 1118.24 L3618.70 1077.52 L3644.07 1032.23 L3669.31 981.86 L3694.68 925.56 L3719.93 862.94 L3745.29 793.01 L3770.66 715.30" stroke-linejoin="round" style="fill:none;stroke:#90353B;stroke-width:3.67"/>
	<path d=" M2201.39 1482.08 L2226.76 1481.95 L2252.13 1481.95 L2277.37 1481.83 L2302.74 1481.71 L2327.99 1481.71 L2353.35 1481.58 L2378.60 1481.46 L2403.97 1481.21 L2429.21 1481.09 L2454.58 1480.84 L2479.83 1480.59 L2505.20 1480.22 L2530.44 1479.97 L2555.81 1479.60 L2581.05 1479.11 L2606.42 1478.61 L2631.67 1477.99 L2657.04 1477.37 L2682.28 1476.63 L2707.65 1475.89 L2732.89 1475.02 L2758.26 1474.03 L2783.51 1472.92 L2808.88 1471.68 L2834.12 1470.44 L2859.49 1469.08 L2884.74 1467.60 L2910.11 1465.99 L2935.35 1464.13 L2960.72 1462.28 L2986.09 1460.17 L3011.33 1457.82 L3036.70 1455.35 L3061.95 1452.62 L3087.32 1449.78 L3112.56 1446.44 L3137.93 1442.97 L3163.17 1439.01 L3188.54 1434.68 L3213.79 1429.85 L3239.16 1424.41 L3264.40 1418.47 L3289.77 1411.91 L3315.01 1404.48 L3340.38 1396.31 L3365.63 1387.16 L3391.00 1376.89 L3416.24 1365.62 L3441.61 1352.88 L3466.86 1338.89 L3492.22 1323.18 L3517.47 1305.60 L3542.84 1286.05 L3568.08 1264.39 L3593.45 1240.01 L3618.70 1213.04 L3644.07 1182.84 L3669.31 1149.30 L3694.68 1111.80 L3719.93 1070.10 L3745.29 1023.57 L3770.66 971.84" stroke-linejoin="round" style="fill:none;stroke:#303030;stroke-width:3.67"/>
	<path d=" M2201.39 1482.08 L2226.76 1482.08 L2252.13 1482.08 L2277.37 1481.95 L2302.74 1481.95 L2327.99 1481.83 L2353.35 1481.83 L2378.60 1481.71 L2403.97 1481.58 L2429.21 1481.46 L2454.58 1481.21 L2479.83 1481.09 L2505.20 1480.84 L2530.44 1480.59 L2555.81 1480.34 L2581.05 1479.97 L2606.42 1479.60 L2631.67 1479.23 L2657.04 1478.73 L2682.28 1478.24 L2707.65 1477.62 L2732.89 1477.00 L2758.26 1476.38 L2783.51 1475.52 L2808.88 1474.65 L2834.12 1473.78 L2859.49 1472.79 L2884.74 1471.68 L2910.11 1470.57 L2935.35 1469.21 L2960.72 1467.84 L2986.09 1466.36 L3011.33 1464.75 L3036.70 1462.89 L3061.95 1460.91 L3087.32 1458.81 L3112.56 1456.46 L3137.93 1453.98 L3163.17 1451.14 L3188.54 1448.04 L3213.79 1444.46 L3239.16 1440.62 L3264.40 1436.41 L3289.77 1431.58 L3315.01 1426.26 L3340.38 1420.32 L3365.63 1413.76 L3391.00 1406.34 L3416.24 1398.17 L3441.61 1389.14 L3466.86 1378.99 L3492.22 1367.60 L3517.47 1354.98 L3542.84 1341.00 L3568.08 1325.28 L3593.45 1307.83 L3618.70 1288.28 L3644.07 1266.62 L3669.31 1242.37 L3694.68 1215.39 L3719.93 1185.31 L3745.29 1151.78 L3770.66 1114.40" stroke-linejoin="round" style="fill:none;stroke:#505050;stroke-width:3.67"/>
	<path d=" M2201.39 1482.20 L2226.76 1482.20 L2252.13 1482.08 L2277.37 1482.08 L2302.74 1481.95 L2327.99 1481.95 L2353.35 1481.83 L2378.60 1481.83 L2403.97 1481.71 L2429.21 1481.58 L2454.58 1481.46 L2479.83 1481.33 L2505.20 1481.09 L2530.44 1480.96 L2555.81 1480.72 L2581.05 1480.47 L2606.42 1480.10 L2631.67 1479.85 L2657.04 1479.48 L2682.28 1478.98 L2707.65 1478.61 L2732.89 1477.99 L2758.26 1477.50 L2783.51 1476.88 L2808.88 1476.14 L2834.12 1475.39 L2859.49 1474.53 L2884.74 1473.66 L2910.11 1472.79 L2935.35 1471.68 L2960.72 1470.57 L2986.09 1469.33 L3011.33 1467.97 L3036.70 1466.61 L3061.95 1465.00 L3087.32 1463.27 L3112.56 1461.41 L3137.93 1459.31 L3163.17 1456.95 L3188.54 1454.48 L3213.79 1451.63 L3239.16 1448.42 L3264.40 1444.95 L3289.77 1441.11 L3315.01 1436.78 L3340.38 1431.96 L3365.63 1426.63 L3391.00 1420.57 L3416.24 1414.01 L3441.61 1406.59 L3466.86 1398.29 L3492.22 1389.14 L3517.47 1378.87 L3542.84 1367.48 L3568.08 1354.73 L3593.45 1340.50 L3618.70 1324.66 L3644.07 1306.96 L3669.31 1287.29 L3694.68 1265.38 L3719.93 1240.88 L3745.29 1213.65 L3770.66 1183.33" stroke-linejoin="round" style="fill:none;stroke:#707070;stroke-width:3.67"/>
	<path d=" M2201.39 1481.95 L2226.76 1481.83 L2252.13 1481.71 L2277.37 1481.71 L2302.74 1481.58 L2327.99 1481.33 L2353.35 1481.21 L2378.60 1480.96 L2403.97 1480.84 L2429.21 1480.47 L2454.58 1480.22 L2479.83 1479.85 L2505.20 1479.48 L2530.44 1478.98 L2555.81 1478.36 L2581.05 1477.74 L2606.42 1477.13 L2631.67 1476.26 L2657.04 1475.39 L2682.28 1474.40 L2707.65 1473.29 L2732.89 1471.93 L2758.26 1470.57 L2783.51 1469.08 L2808.88 1467.47 L2834.12 1465.62 L2859.49 1463.64 L2884.74 1461.53 L2910.11 1459.31 L2935.35 1456.83 L2960.72 1454.11 L2986.09 1451.14 L3011.33 1447.92 L3036.70 1444.46 L3061.95 1440.62 L3087.32 1436.53 L3112.56 1431.96 L3137.93 1427.01 L3163.17 1421.44 L3188.54 1415.37 L3213.79 1408.57 L3239.16 1401.02 L3264.40 1392.60 L3289.77 1383.32 L3315.01 1372.93 L3340.38 1361.42 L3365.63 1348.55 L3391.00 1334.19 L3416.24 1318.23 L3441.61 1300.53 L3466.86 1280.73 L3492.22 1258.58 L3517.47 1233.95 L3542.84 1206.60 L3568.08 1176.03 L3593.45 1141.88 L3618.70 1103.88 L3644.07 1061.56 L3669.31 1014.41 L3694.68 961.82 L3719.93 903.16 L3745.29 837.94 L3770.66 765.17" stroke-linejoin="round" style="fill:none;stroke:#FFE474;stroke-width:3.67"/>
	<path d=" M2201.39 1481.95 L2226.76 1481.83 L2252.13 1481.71 L2277.37 1481.58 L2302.74 1481.46 L2327.99 1481.33 L2353.35 1481.09 L2378.60 1480.96 L2403.97 1480.72 L2429.21 1480.47 L2454.58 1480.10 L2479.83 1479.72 L2505.20 1479.23 L2530.44 1478.73 L2555.81 1478.12 L2581.05 1477.50 L2606.42 1476.75 L2631.67 1475.89 L2657.04 1474.90 L2682.28 1473.78 L2707.65 1472.67 L2732.89 1471.31 L2758.26 1469.82 L2783.51 1468.22 L2808.88 1466.48 L2834.12 1464.50 L2859.49 1462.52 L2884.74 1460.17 L2910.11 1457.82 L2935.35 1455.10 L2960.72 1452.25 L2986.09 1449.16 L3011.33 1445.69 L3036.70 1441.98 L3061.95 1437.90 L3087.32 1433.56 L3112.56 1428.74 L3137.93 1423.42 L3163.17 1417.48 L3188.54 1410.92 L3213.79 1403.74 L3239.16 1395.70 L3264.40 1386.79 L3289.77 1376.89 L3315.01 1365.87 L3340.38 1353.50 L3365.63 1339.88 L3391.00 1324.54 L3416.24 1307.58 L3441.61 1288.65 L3466.86 1267.61 L3492.22 1244.10 L3517.47 1217.86 L3542.84 1188.66 L3568.08 1156.11 L3593.45 1119.85 L3618.70 1079.38 L3644.07 1034.33 L3669.31 984.09 L3694.68 928.03 L3719.93 865.66 L3745.29 796.11 L3770.66 718.76" stroke-linejoin="round" style="fill:none;stroke:#FFD200;stroke-width:3.67"/>
	<path d=" M2201.39 1482.08 L2226.76 1482.08 L2252.13 1481.95 L2277.37 1481.83 L2302.74 1481.83 L2327.99 1481.71 L2353.35 1481.58 L2378.60 1481.46 L2403.97 1481.33 L2429.21 1481.21 L2454.58 1480.96 L2479.83 1480.72 L2505.20 1480.47 L2530.44 1480.10 L2555.81 1479.72 L2581.05 1479.35 L2606.42 1478.86 L2631.67 1478.36 L2657.04 1477.74 L2682.28 1477.13 L2707.65 1476.38 L2732.89 1475.52 L2758.26 1474.65 L2783.51 1473.66 L2808.88 1472.55 L2834.12 1471.31 L2859.49 1470.07 L2884.74 1468.71 L2910.11 1467.23 L2935.35 1465.49 L2960.72 1463.76 L2986.09 1461.78 L3011.33 1459.68 L3036.70 1457.45 L3061.95 1454.97 L3087.32 1452.25 L3112.56 1449.16 L3137.93 1445.94 L3163.17 1442.35 L3188.54 1438.27 L3213.79 1433.81 L3239.16 1428.86 L3264.40 1423.42 L3289.77 1417.23 L3315.01 1410.42 L3340.38 1402.87 L3365.63 1394.33 L3391.00 1384.93 L3416.24 1374.41 L3441.61 1362.78 L3466.86 1349.78 L3492.22 1335.18 L3517.47 1319.09 L3542.84 1301.02 L3568.08 1280.98 L3593.45 1258.45 L3618.70 1233.45 L3644.07 1205.61 L3669.31 1174.67 L3694.68 1140.02 L3719.93 1101.41 L3745.29 1058.47 L3770.66 1010.70" stroke-linejoin="round" style="fill:none;stroke:#FFFF00;stroke-width:3.67"/>
	<path d=" M2201.39 1482.08 L2226.76 1482.08 L2252.13 1481.95 L2277.37 1481.95 L2302.74 1481.83 L2327.99 1481.83 L2353.35 1481.71 L2378.60 1481.58 L2403.97 1481.46 L2429.21 1481.33 L2454.58 1481.09 L2479.83 1480.96 L2505.20 1480.72 L2530.44 1480.47 L2555.81 1480.10 L2581.05 1479.72 L2606.42 1479.35 L2631.67 1478.98 L2657.04 1478.36 L2682.28 1477.87 L2707.65 1477.25 L2732.89 1476.51 L2758.26 1475.76 L2783.51 1474.90 L2808.88 1473.91 L2834.12 1472.92 L2859.49 1471.80 L2884.74 1470.57 L2910.11 1469.33 L2935.35 1467.97 L2960.72 1466.36 L2986.09 1464.75 L3011.33 1462.89 L3036.70 1460.91 L3061.95 1458.81 L3087.32 1456.46 L3112.56 1453.86 L3137.93 1451.14 L3163.17 1447.92 L3188.54 1444.58 L3213.79 1440.74 L3239.16 1436.41 L3264.40 1431.71 L3289.77 1426.51 L3315.01 1420.57 L3340.38 1414.14 L3365.63 1406.83 L3391.00 1398.79 L3416.24 1389.76 L3441.61 1379.73 L3466.86 1368.47 L3492.22 1356.09 L3517.47 1342.23 L3542.84 1326.64 L3568.08 1309.44 L3593.45 1290.26 L3618.70 1268.72 L3644.07 1244.84 L3669.31 1218.23 L3694.68 1188.53 L3719.93 1155.37 L3745.29 1118.49 L3770.66 1077.40" stroke-linejoin="round" style="fill:none;stroke:#FF4500;stroke-width:3.67"/>
	<path d=" M2201.39 1482.20 L2226.76 1482.08 L2252.13 1482.08 L2277.37 1481.95 L2302.74 1481.95 L2327.99 1481.83 L2353.35 1481.83 L2378.60 1481.71 L2403.97 1481.58 L2429.21 1481.46 L2454.58 1481.33 L2479.83 1481.09 L2505.20 1480.96 L2530.44 1480.72 L2555.81 1480.47 L2581.05 1480.10 L2606.42 1479.72 L2631.67 1479.35 L2657.04 1478.98 L2682.28 1478.49 L2707.65 1477.87 L2732.89 1477.25 L2758.26 1476.63 L2783.51 1475.89 L2808.88 1475.02 L2834.12 1474.16 L2859.49 1473.17 L2884.74 1472.18 L2910.11 1471.06 L2935.35 1469.82 L2960.72 1468.46 L2986.09 1467.10 L3011.33 1465.49 L3036.70 1463.76 L3061.95 1461.90 L3087.32 1459.92 L3112.56 1457.70 L3137.93 1455.22 L3163.17 1452.50 L3188.54 1449.53 L3213.79 1446.19 L3239.16 1442.48 L3264.40 1438.39 L3289.77 1433.81 L3315.01 1428.74 L3340.38 1423.05 L3365.63 1416.86 L3391.00 1409.80 L3416.24 1402.01 L3441.61 1393.22 L3466.86 1383.57 L3492.22 1372.80 L3517.47 1360.67 L3542.84 1347.31 L3568.08 1332.33 L3593.45 1315.63 L3618.70 1296.94 L3644.07 1276.15 L3669.31 1253.01 L3694.68 1227.27 L3719.93 1198.56 L3745.29 1166.50 L3770.66 1130.86" stroke-linejoin="round" style="fill:none;stroke:#FF00FF;stroke-width:3.67"/>
	<path d=" M2201.39 1481.95 L2226.76 1481.83 L2252.13 1481.83 L2277.37 1481.71 L2302.74 1481.58 L2327.99 1481.46 L2353.35 1481.33 L2378.60 1481.09 L2403.97 1480.84 L2429.21 1480.59 L2454.58 1480.34 L2479.83 1479.97 L2505.20 1479.60 L2530.44 1479.11 L2555.81 1478.61 L2581.05 1478.12 L2606.42 1477.37 L2631.67 1476.63 L2657.04 1475.76 L2682.28 1474.77 L2707.65 1473.78 L2732.89 1472.55 L2758.26 1471.31 L2783.51 1469.82 L2808.88 1468.34 L2834.12 1466.61 L2859.49 1464.75 L2884.74 1462.77 L2910.11 1460.67 L2935.35 1458.32 L2960.72 1455.72 L2986.09 1452.99 L3011.33 1449.90 L3036.70 1446.68 L3061.95 1443.09 L3087.32 1439.13 L3112.56 1434.93 L3137.93 1430.22 L3163.17 1425.03 L3188.54 1419.21 L3213.79 1412.77 L3239.16 1405.72 L3264.40 1397.80 L3289.77 1389.01 L3315.01 1379.24 L3340.38 1368.35 L3365.63 1356.34 L3391.00 1342.85 L3416.24 1327.76 L3441.61 1311.05 L3466.86 1292.36 L3492.22 1271.57 L3517.47 1248.43 L3542.84 1222.56 L3568.08 1193.85 L3593.45 1161.68 L3618.70 1125.91 L3644.07 1086.06 L3669.31 1041.51 L3694.68 992.01 L3719.93 936.82 L3745.29 875.31 L3770.66 806.88" stroke-linejoin="round" style="fill:none;stroke:#FF0000;stroke-width:3.67"/>
	<path d=" M2201.39 1482.20 L2226.76 1482.08 L2252.13 1482.08 L2277.37 1482.08 L2302.74 1481.95 L2327.99 1481.95 L2353.35 1481.83 L2378.60 1481.83 L2403.97 1481.71 L2429.21 1481.58 L2454.58 1481.46 L2479.83 1481.33 L2505.20 1481.09 L2530.44 1480.96 L2555.81 1480.72 L2581.05 1480.47 L2606.42 1480.10 L2631.67 1479.72 L2657.04 1479.35 L2682.28 1478.98 L2707.65 1478.49 L2732.89 1477.99 L2758.26 1477.37 L2783.51 1476.75 L2808.88 1476.01 L2834.12 1475.27 L2859.49 1474.40 L2884.74 1473.54 L2910.11 1472.55 L2935.35 1471.43 L2960.72 1470.32 L2986.09 1469.08 L3011.33 1467.72 L3036.70 1466.24 L3061.95 1464.63 L3087.32 1462.89 L3112.56 1460.91 L3137.93 1458.81 L3163.17 1456.46 L3188.54 1453.86 L3213.79 1451.01 L3239.16 1447.80 L3264.40 1444.21 L3289.77 1440.25 L3315.01 1435.92 L3340.38 1430.97 L3365.63 1425.52 L3391.00 1419.46 L3416.24 1412.65 L3441.61 1405.10 L3466.86 1396.69 L3492.22 1387.40 L3517.47 1376.89 L3542.84 1365.25 L3568.08 1352.26 L3593.45 1337.78 L3618.70 1321.69 L3644.07 1303.62 L3669.31 1283.58 L3694.68 1261.18 L3719.93 1236.30 L3745.29 1208.58 L3770.66 1177.64" stroke-linejoin="round" style="fill:none;stroke:#000000;stroke-width:3.67"/>
	<line x1="2201.39" y1="1419.46" x2="2204.24" y2="1419.46" style="stroke:#000000;stroke-width:7.34"/>
	<line x1="2224.41" y1="1419.46" x2="2226.76" y2="1419.46" style="stroke:#000000;stroke-width:7.34"/>
	<line x1="2226.76" y1="1419.46" x2="2227.25" y2="1419.46" style="stroke:#000000;stroke-width:7.34"/>
	<line x1="2247.42" y1="1419.46" x2="2250.27" y2="1419.46" style="stroke:#000000;stroke-width:7.34"/>
	<line x1="2270.44" y1="1419.46" x2="2273.29" y2="1419.46" style="stroke:#000000;stroke-width:7.34"/>
	<line x1="2293.46" y1="1419.46" x2="2296.43" y2="1419.46" style="stroke:#000000;stroke-width:7.34"/>
	<line x1="2316.60" y1="1419.46" x2="2319.45" y2="1419.46" style="stroke:#000000;stroke-width:7.34"/>
	<line x1="2339.62" y1="1419.46" x2="2342.46" y2="1419.46" style="stroke:#000000;stroke-width:7.34"/>
	<line x1="2362.64" y1="1419.46" x2="2365.48" y2="1419.46" style="stroke:#000000;stroke-width:7.34"/>
	<line x1="2385.65" y1="1419.46" x2="2388.50" y2="1419.46" style="stroke:#000000;stroke-width:7.34"/>
	<line x1="2408.67" y1="1419.46" x2="2411.52" y2="1419.46" style="stroke:#000000;stroke-width:7.34"/>
	<line x1="2431.69" y1="1419.46" x2="2434.53" y2="1419.46" style="stroke:#000000;stroke-width:7.34"/>
	<line x1="2454.70" y1="1419.46" x2="2457.55" y2="1419.46" style="stroke:#000000;stroke-width:7.34"/>
	<line x1="2477.72" y1="1419.46" x2="2479.83" y2="1419.46" style="stroke:#000000;stroke-width:7.34"/>
	<line x1="2479.83" y1="1419.46" x2="2480.57" y2="1419.46" style="stroke:#000000;stroke-width:7.34"/>
	<line x1="2500.74" y1="1419.46" x2="2503.59" y2="1419.46" style="stroke:#000000;stroke-width:7.34"/>
	<line x1="2523.76" y1="1419.46" x2="2526.60" y2="1419.46" style="stroke:#000000;stroke-width:7.34"/>
	<line x1="2546.78" y1="1419.46" x2="2549.74" y2="1419.46" style="stroke:#000000;stroke-width:7.34"/>
	<line x1="2569.92" y1="1419.46" x2="2572.76" y2="1419.46" style="stroke:#000000;stroke-width:7.34"/>
	<line x1="2592.93" y1="1419.46" x2="2595.78" y2="1419.46" style="stroke:#000000;stroke-width:7.34"/>
	<line x1="2615.95" y1="1419.46" x2="2618.80" y2="1419.46" style="stroke:#000000;stroke-width:7.34"/>
	<line x1="2638.97" y1="1419.46" x2="2641.82" y2="1419.46" style="stroke:#000000;stroke-width:7.34"/>
	<line x1="2661.99" y1="1419.46" x2="2664.83" y2="1419.46" style="stroke:#000000;stroke-width:7.34"/>
	<line x1="2685.00" y1="1419.46" x2="2687.85" y2="1419.46" style="stroke:#000000;stroke-width:7.34"/>
	<line x1="2708.02" y1="1419.46" x2="2710.87" y2="1419.46" style="stroke:#000000;stroke-width:7.34"/>
	<line x1="2731.04" y1="1419.46" x2="2732.89" y2="1419.46" style="stroke:#000000;stroke-width:7.34"/>
	<line x1="2732.89" y1="1419.46" x2="2733.89" y2="1419.46" style="stroke:#000000;stroke-width:7.34"/>
	<line x1="2754.06" y1="1419.46" x2="2756.90" y2="1419.46" style="stroke:#000000;stroke-width:7.34"/>
	<line x1="2777.07" y1="1419.46" x2="2779.92" y2="1419.46" style="stroke:#000000;stroke-width:7.34"/>
	<line x1="2800.09" y1="1419.46" x2="2803.06" y2="1419.46" style="stroke:#000000;stroke-width:7.34"/>
	<line x1="2823.23" y1="1419.46" x2="2826.08" y2="1419.46" style="stroke:#000000;stroke-width:7.34"/>
	<line x1="2846.25" y1="1419.46" x2="2849.10" y2="1419.46" style="stroke:#000000;stroke-width:7.34"/>
	<line x1="2869.27" y1="1419.46" x2="2872.11" y2="1419.46" style="stroke:#000000;stroke-width:7.34"/>
	<line x1="2892.28" y1="1419.46" x2="2895.13" y2="1419.46" style="stroke:#000000;stroke-width:7.34"/>
	<line x1="2915.30" y1="1419.46" x2="2918.15" y2="1419.46" style="stroke:#000000;stroke-width:7.34"/>
	<line x1="2938.32" y1="1419.46" x2="2941.17" y2="1419.46" style="stroke:#000000;stroke-width:7.34"/>
	<line x1="2961.34" y1="1419.46" x2="2964.18" y2="1419.46" style="stroke:#000000;stroke-width:7.34"/>
	<line x1="2984.36" y1="1419.46" x2="2986.09" y2="1419.46" style="stroke:#000000;stroke-width:7.34"/>
	<line x1="2986.09" y1="1419.46" x2="2987.20" y2="1419.46" style="stroke:#000000;stroke-width:7.34"/>
	<line x1="3007.37" y1="1419.46" x2="3010.22" y2="1419.46" style="stroke:#000000;stroke-width:7.34"/>
	<line x1="3030.39" y1="1419.46" x2="3033.36" y2="1419.46" style="stroke:#000000;stroke-width:7.34"/>
	<line x1="3053.41" y1="1419.46" x2="3056.38" y2="1419.46" style="stroke:#000000;stroke-width:7.34"/>
	<line x1="3076.55" y1="1419.46" x2="3079.39" y2="1419.46" style="stroke:#000000;stroke-width:7.34"/>
	<line x1="3099.57" y1="1419.46" x2="3102.41" y2="1419.46" style="stroke:#000000;stroke-width:7.34"/>
	<line x1="3122.58" y1="1419.46" x2="3125.43" y2="1419.46" style="stroke:#000000;stroke-width:7.34"/>
	<line x1="3145.60" y1="1419.46" x2="3148.45" y2="1419.46" style="stroke:#000000;stroke-width:7.34"/>
	<line x1="3168.62" y1="1419.46" x2="3171.47" y2="1419.46" style="stroke:#000000;stroke-width:7.34"/>
	<line x1="3191.64" y1="1419.46" x2="3194.48" y2="1419.46" style="stroke:#000000;stroke-width:7.34"/>
	<line x1="3214.65" y1="1419.46" x2="3217.50" y2="1419.46" style="stroke:#000000;stroke-width:7.34"/>
	<line x1="3237.67" y1="1419.46" x2="3239.16" y2="1419.46" style="stroke:#000000;stroke-width:7.34"/>
	<line x1="3239.16" y1="1419.46" x2="3240.52" y2="1419.46" style="stroke:#000000;stroke-width:7.34"/>
	<line x1="3260.69" y1="1419.46" x2="3263.53" y2="1419.46" style="stroke:#000000;stroke-width:7.34"/>
	<line x1="3283.71" y1="1419.46" x2="3286.68" y2="1419.46" style="stroke:#000000;stroke-width:7.34"/>
	<line x1="3306.72" y1="1419.46" x2="3309.69" y2="1419.46" style="stroke:#000000;stroke-width:7.34"/>
	<line x1="3329.86" y1="1419.46" x2="3332.71" y2="1419.46" style="stroke:#000000;stroke-width:7.34"/>
	<line x1="3352.88" y1="1419.46" x2="3355.73" y2="1419.46" style="stroke:#000000;stroke-width:7.34"/>
	<line x1="3375.90" y1="1419.46" x2="3378.75" y2="1419.46" style="stroke:#000000;stroke-width:7.34"/>
	<line x1="3398.92" y1="1419.46" x2="3401.76" y2="1419.46" style="stroke:#000000;stroke-width:7.34"/>
	<line x1="3421.93" y1="1419.46" x2="3424.78" y2="1419.46" style="stroke:#000000;stroke-width:7.34"/>
	<line x1="3444.95" y1="1419.46" x2="3447.80" y2="1419.46" style="stroke:#000000;stroke-width:7.34"/>
	<line x1="3467.97" y1="1419.46" x2="3470.82" y2="1419.46" style="stroke:#000000;stroke-width:7.34"/>
	<line x1="3490.99" y1="1419.46" x2="3492.22" y2="1419.46" style="stroke:#000000;stroke-width:7.34"/>
	<line x1="3492.22" y1="1419.46" x2="3493.83" y2="1419.46" style="stroke:#000000;stroke-width:7.34"/>
	<line x1="3514.01" y1="1419.46" x2="3516.85" y2="1419.46" style="stroke:#000000;stroke-width:7.34"/>
	<line x1="3537.02" y1="1419.46" x2="3539.99" y2="1419.46" style="stroke:#000000;stroke-width:7.34"/>
	<line x1="3560.04" y1="1419.46" x2="3563.01" y2="1419.46" style="stroke:#000000;stroke-width:7.34"/>
	<line x1="3583.18" y1="1419.46" x2="3586.03" y2="1419.46" style="stroke:#000000;stroke-width:7.34"/>
	<line x1="3606.20" y1="1419.46" x2="3609.05" y2="1419.46" style="stroke:#000000;stroke-width:7.34"/>
	<line x1="3629.22" y1="1419.46" x2="3632.06" y2="1419.46" style="stroke:#000000;stroke-width:7.34"/>
	<line x1="3652.23" y1="1419.46" x2="3655.08" y2="1419.46" style="stroke:#000000;stroke-width:7.34"/>
	<line x1="3675.25" y1="1419.46" x2="3678.10" y2="1419.46" style="stroke:#000000;stroke-width:7.34"/>
	<line x1="3698.27" y1="1419.46" x2="3701.11" y2="1419.46" style="stroke:#000000;stroke-width:7.34"/>
	<line x1="3721.29" y1="1419.46" x2="3724.13" y2="1419.46" style="stroke:#000000;stroke-width:7.34"/>
	<line x1="3744.30" y1="1419.46" x2="3745.29" y2="1419.46" style="stroke:#000000;stroke-width:7.34"/>
	<line x1="3745.29" y1="1419.46" x2="3747.15" y2="1419.46" style="stroke:#000000;stroke-width:7.34"/>
	<line x1="3767.32" y1="1419.46" x2="3770.17" y2="1419.46" style="stroke:#000000;stroke-width:7.34"/>
	<path d="" stroke-linejoin="round" style="fill:none;stroke:#000000;stroke-width:7.34"/>
	<line x1="401.69" y1="1536.16" x2="401.69" y2="258.27" style="stroke:#000000;stroke-width:4.90"/>
	<line x1="401.69" y1="1482.32" x2="367.66" y2="1482.32" style="stroke:#000000;stroke-width:4.90"/>
	<text x="350.71" y="1512.11" style="font-family:'Helvetica';font-size:85.02px;fill:#000000" text-anchor="end">0</text>
	<line x1="401.69" y1="1248.31" x2="367.66" y2="1248.31" style="stroke:#000000;stroke-width:4.90"/>
	<text x="350.71" y="1278.09" style="font-family:'Helvetica';font-size:85.02px;fill:#000000" text-anchor="end">.001</text>
	<line x1="401.69" y1="1014.16" x2="367.66" y2="1014.16" style="stroke:#000000;stroke-width:4.90"/>
	<text x="350.71" y="1043.95" style="font-family:'Helvetica';font-size:85.02px;fill:#000000" text-anchor="end">.002</text>
	<line x1="401.69" y1="780.14" x2="367.66" y2="780.14" style="stroke:#000000;stroke-width:4.90"/>
	<text x="350.71" y="809.93" style="font-family:'Helvetica';font-size:85.02px;fill:#000000" text-anchor="end">.003</text>
	<line x1="401.69" y1="546.13" x2="367.66" y2="546.13" style="stroke:#000000;stroke-width:4.90"/>
	<text x="350.71" y="575.91" style="font-family:'Helvetica';font-size:85.02px;fill:#000000" text-anchor="end">.004</text>
	<line x1="401.69" y1="312.11" x2="367.66" y2="312.11" style="stroke:#000000;stroke-width:4.90"/>
	<text x="350.71" y="341.89" style="font-family:'Helvetica';font-size:85.02px;fill:#000000" text-anchor="end">.005</text>
	<line x1="401.69" y1="1536.16" x2="2078.51" y2="1536.16" style="stroke:#000000;stroke-width:4.90"/>
	<line x1="506.14" y1="1536.16" x2="506.14" y2="1553.11" style="stroke:#000000;stroke-width:4.90"/>
	<line x1="632.73" y1="1536.16" x2="632.73" y2="1553.11" style="stroke:#000000;stroke-width:4.90"/>
	<line x1="759.21" y1="1536.16" x2="759.21" y2="1553.11" style="stroke:#000000;stroke-width:4.90"/>
	<line x1="885.80" y1="1536.16" x2="885.80" y2="1553.11" style="stroke:#000000;stroke-width:4.90"/>
	<line x1="1012.27" y1="1536.16" x2="1012.27" y2="1553.11" style="stroke:#000000;stroke-width:4.90"/>
	<line x1="1138.87" y1="1536.16" x2="1138.87" y2="1553.11" style="stroke:#000000;stroke-width:4.90"/>
	<line x1="1265.47" y1="1536.16" x2="1265.47" y2="1553.11" style="stroke:#000000;stroke-width:4.90"/>
	<line x1="1391.94" y1="1536.16" x2="1391.94" y2="1553.11" style="stroke:#000000;stroke-width:4.90"/>
	<line x1="1518.54" y1="1536.16" x2="1518.54" y2="1553.11" style="stroke:#000000;stroke-width:4.90"/>
	<line x1="1645.01" y1="1536.16" x2="1645.01" y2="1553.11" style="stroke:#000000;stroke-width:4.90"/>
	<line x1="1771.61" y1="1536.16" x2="1771.61" y2="1553.11" style="stroke:#000000;stroke-width:4.90"/>
	<line x1="1898.20" y1="1536.16" x2="1898.20" y2="1553.11" style="stroke:#000000;stroke-width:4.90"/>
	<line x1="2024.67" y1="1536.16" x2="2024.67" y2="1553.11" style="stroke:#000000;stroke-width:4.90"/>
	<line x1="506.14" y1="1536.16" x2="506.14" y2="1570.19" style="stroke:#000000;stroke-width:4.90"/>
	<text x="506.14" y="1646.59" style="font-family:'Helvetica';font-size:85.02px;fill:#000000" text-anchor="middle">20</text>
	<line x1="1012.27" y1="1536.16" x2="1012.27" y2="1570.19" style="stroke:#000000;stroke-width:4.90"/>
	<text x="1012.27" y="1646.59" style="font-family:'Helvetica';font-size:85.02px;fill:#000000" text-anchor="middle">40</text>
	<line x1="1518.54" y1="1536.16" x2="1518.54" y2="1570.19" style="stroke:#000000;stroke-width:4.90"/>
	<text x="1518.54" y="1646.59" style="font-family:'Helvetica';font-size:85.02px;fill:#000000" text-anchor="middle">60</text>
	<line x1="2024.67" y1="1536.16" x2="2024.67" y2="1570.19" style="stroke:#000000;stroke-width:4.90"/>
	<text x="2024.67" y="1646.59" style="font-family:'Helvetica';font-size:85.02px;fill:#000000" text-anchor="middle">80</text>
	<line x1="2147.68" y1="1536.16" x2="3824.49" y2="1536.16" style="stroke:#000000;stroke-width:4.90"/>
	<line x1="2252.13" y1="1536.16" x2="2252.13" y2="1553.11" style="stroke:#000000;stroke-width:4.90"/>
	<line x1="2378.72" y1="1536.16" x2="2378.72" y2="1553.11" style="stroke:#000000;stroke-width:4.90"/>
	<line x1="2505.20" y1="1536.16" x2="2505.20" y2="1553.11" style="stroke:#000000;stroke-width:4.90"/>
	<line x1="2631.79" y1="1536.16" x2="2631.79" y2="1553.11" style="stroke:#000000;stroke-width:4.90"/>
	<line x1="2758.26" y1="1536.16" x2="2758.26" y2="1553.11" style="stroke:#000000;stroke-width:4.90"/>
	<line x1="2884.86" y1="1536.16" x2="2884.86" y2="1553.11" style="stroke:#000000;stroke-width:4.90"/>
	<line x1="3011.46" y1="1536.16" x2="3011.46" y2="1553.11" style="stroke:#000000;stroke-width:4.90"/>
	<line x1="3137.93" y1="1536.16" x2="3137.93" y2="1553.11" style="stroke:#000000;stroke-width:4.90"/>
	<line x1="3264.53" y1="1536.16" x2="3264.53" y2="1553.11" style="stroke:#000000;stroke-width:4.90"/>
	<line x1="3391.00" y1="1536.16" x2="3391.00" y2="1553.11" style="stroke:#000000;stroke-width:4.90"/>
	<line x1="3517.59" y1="1536.16" x2="3517.59" y2="1553.11" style="stroke:#000000;stroke-width:4.90"/>
	<line x1="3644.07" y1="1536.16" x2="3644.07" y2="1553.11" style="stroke:#000000;stroke-width:4.90"/>
	<line x1="3770.66" y1="1536.16" x2="3770.66" y2="1553.11" style="stroke:#000000;stroke-width:4.90"/>
	<line x1="2252.13" y1="1536.16" x2="2252.13" y2="1570.19" style="stroke:#000000;stroke-width:4.90"/>
	<text x="2252.13" y="1646.59" style="font-family:'Helvetica';font-size:85.02px;fill:#000000" text-anchor="middle">20</text>
	<line x1="2758.26" y1="1536.16" x2="2758.26" y2="1570.19" style="stroke:#000000;stroke-width:4.90"/>
	<text x="2758.26" y="1646.59" style="font-family:'Helvetica';font-size:85.02px;fill:#000000" text-anchor="middle">40</text>
	<line x1="3264.53" y1="1536.16" x2="3264.53" y2="1570.19" style="stroke:#000000;stroke-width:4.90"/>
	<text x="3264.53" y="1646.59" style="font-family:'Helvetica';font-size:85.02px;fill:#000000" text-anchor="middle">60</text>
	<line x1="3770.66" y1="1536.16" x2="3770.66" y2="1570.19" style="stroke:#000000;stroke-width:4.90"/>
	<text x="3770.66" y="1646.59" style="font-family:'Helvetica';font-size:85.02px;fill:#000000" text-anchor="middle">80</text>
	<rect x="401.69" y="135.39" width="1676.81" height="122.89" style="fill:#D9E6EB"/>
	<rect x="404.14" y="137.83" width="1671.92" height="117.99" style="fill:none;stroke:#D9E6EB;stroke-width:4.90"/>
	<text x="1240.10" y="215.42" style="font-family:'Helvetica';font-size:93.56px;fill:#000000" text-anchor="middle">Female</text>
	<rect x="2147.68" y="135.39" width="1676.81" height="122.89" style="fill:#D9E6EB"/>
	<rect x="2150.13" y="137.83" width="1671.92" height="117.99" style="fill:none;stroke:#D9E6EB;stroke-width:4.90"/>
	<text x="2986.09" y="215.42" style="font-family:'Helvetica';font-size:93.56px;fill:#000000" text-anchor="middle">Male</text>
	<rect x="234.51" y="1858.29" width="3490.86" height="886.33" style="fill:#FFFFFF"/>
	<rect x="237.39" y="1861.17" width="3485.10" height="880.57" style="fill:none;stroke:#000000;stroke-width:5.76"/>
	<line x1="277.69" y1="1951.47" x2="652.04" y2="1951.47" style="stroke:#82C0E9;stroke-width:4.32"/>
	<line x1="277.69" y1="2091.44" x2="652.04" y2="2091.44" style="stroke:#0000FF;stroke-width:4.32"/>
	<line x1="277.69" y1="2231.41" x2="652.04" y2="2231.41" style="stroke:#0080FF;stroke-width:4.32"/>
	<line x1="277.69" y1="2371.50" x2="652.04" y2="2371.50" style="stroke:#C0DCC0;stroke-width:4.32"/>
	<line x1="277.69" y1="2511.46" x2="652.04" y2="2511.46" style="stroke:#00FF80;stroke-width:4.32"/>
	<line x1="277.69" y1="2651.43" x2="652.04" y2="2651.43" style="stroke:#00B000;stroke-width:4.32"/>
	<line x1="1094.69" y1="1951.47" x2="1469.04" y2="1951.47" style="stroke:#008000;stroke-width:4.32"/>
	<line x1="1094.69" y1="2091.44" x2="1469.04" y2="2091.44" style="stroke:#006000;stroke-width:4.32"/>
	<line x1="1094.69" y1="2231.41" x2="1469.04" y2="2231.41" style="stroke:#5C4717;stroke-width:4.32"/>
	<line x1="1094.69" y1="2371.50" x2="1469.04" y2="2371.50" style="stroke:#D7D29E;stroke-width:4.32"/>
	<line x1="1094.69" y1="2511.46" x2="1469.04" y2="2511.46" style="stroke:#D9C263;stroke-width:4.32"/>
	<line x1="1094.69" y1="2651.43" x2="1469.04" y2="2651.43" style="stroke:#A0522D;stroke-width:4.32"/>
	<line x1="1945.47" y1="1951.47" x2="2319.94" y2="1951.47" style="stroke:#FF0000;stroke-width:4.32"/>
	<line x1="1945.47" y1="2091.44" x2="2319.94" y2="2091.44" style="stroke:#90353B;stroke-width:4.32"/>
	<line x1="1945.47" y1="2231.41" x2="2319.94" y2="2231.41" style="stroke:#303030;stroke-width:4.32"/>
	<line x1="1945.47" y1="2371.50" x2="2319.94" y2="2371.50" style="stroke:#505050;stroke-width:4.32"/>
	<line x1="1945.47" y1="2511.46" x2="2319.94" y2="2511.46" style="stroke:#707070;stroke-width:4.32"/>
	<line x1="1945.47" y1="2651.43" x2="2319.94" y2="2651.43" style="stroke:#FFE474;stroke-width:4.32"/>
	<line x1="2874.59" y1="1951.47" x2="3248.93" y2="1951.47" style="stroke:#FFD200;stroke-width:4.32"/>
	<line x1="2874.59" y1="2091.44" x2="3248.93" y2="2091.44" style="stroke:#FFFF00;stroke-width:4.32"/>
	<line x1="2874.59" y1="2231.41" x2="3248.93" y2="2231.41" style="stroke:#FF4500;stroke-width:4.32"/>
	<line x1="2874.59" y1="2371.50" x2="3248.93" y2="2371.50" style="stroke:#FF00FF;stroke-width:4.32"/>
	<line x1="2874.59" y1="2511.46" x2="3248.93" y2="2511.46" style="stroke:#FF0000;stroke-width:4.32"/>
	<line x1="2874.59" y1="2651.43" x2="3248.93" y2="2651.43" style="stroke:#000000;stroke-width:4.32"/>
	<text x="712.06" y="1965.50" style="font-family:'Helvetica';font-size:39.97px;fill:#000000">Respiratory</text>
	<text x="712.06" y="2105.46" style="font-family:'Helvetica';font-size:39.97px;fill:#000000">Asthma mild</text>
	<text x="712.06" y="2245.43" style="font-family:'Helvetica';font-size:39.97px;fill:#000000">Asthma sev</text>
	<text x="712.06" y="2385.52" style="font-family:'Helvetica';font-size:39.97px;fill:#000000">Hypertension</text>
	<text x="712.06" y="2525.48" style="font-family:'Helvetica';font-size:39.97px;fill:#000000">Cardiac</text>
	<text x="712.06" y="2665.45" style="font-family:'Helvetica';font-size:39.97px;fill:#000000">Diab, control</text>
	<text x="1529.06" y="1965.50" style="font-family:'Helvetica';font-size:39.97px;fill:#000000">Diab, uncontrol</text>
	<text x="1529.06" y="2105.46" style="font-family:'Helvetica';font-size:39.97px;fill:#000000">Diab, unknown</text>
	<text x="1529.06" y="2245.43" style="font-family:'Helvetica';font-size:39.97px;fill:#000000">Liver</text>
	<text x="1529.06" y="2385.52" style="font-family:'Helvetica';font-size:39.97px;fill:#000000">Red kidney</text>
	<text x="1529.06" y="2525.48" style="font-family:'Helvetica';font-size:39.97px;fill:#000000">Poor kidney</text>
	<text x="1529.06" y="2665.45" style="font-family:'Helvetica';font-size:39.97px;fill:#000000">Transplant</text>
	<text x="2379.96" y="1965.50" style="font-family:'Helvetica';font-size:39.97px;fill:#000000">Stroke/dementia</text>
	<text x="2379.96" y="2105.46" style="font-family:'Helvetica';font-size:39.97px;fill:#000000">Neuro</text>
	<text x="2379.96" y="2245.43" style="font-family:'Helvetica';font-size:39.97px;fill:#000000">Canc. Oth (&lt;1yr)</text>
	<text x="2379.96" y="2385.52" style="font-family:'Helvetica';font-size:39.97px;fill:#000000">Canc. Oth (2-4yr)</text>
	<text x="2379.96" y="2525.48" style="font-family:'Helvetica';font-size:39.97px;fill:#000000">Canc. Oth (5+yr)</text>
	<text x="2379.96" y="2665.45" style="font-family:'Helvetica';font-size:39.97px;fill:#000000">Canc. Haem (&lt;1yr)</text>
	<text x="3308.95" y="1965.50" style="font-family:'Helvetica';font-size:39.97px;fill:#000000">Canc. Haem (2-4yr)</text>
	<text x="3308.95" y="2105.46" style="font-family:'Helvetica';font-size:39.97px;fill:#000000">Canc. Haem (5+yr)</text>
	<text x="3308.95" y="2245.43" style="font-family:'Helvetica';font-size:39.97px;fill:#000000">Spleen</text>
	<text x="3308.95" y="2385.52" style="font-family:'Helvetica';font-size:39.97px;fill:#000000">RA/SLE/psoriasis</text>
	<text x="3308.95" y="2525.48" style="font-family:'Helvetica';font-size:39.97px;fill:#000000">Immunosuppression</text>
	<text x="3308.95" y="2665.45" style="font-family:'Helvetica';font-size:39.97px;fill:#000000">No comorbidity</text>
	<text x="1980.00" y="1793.58" style="font-family:'Helvetica';font-size:99.99px;fill:#000000" text-anchor="middle">Age (years)</text>
</svg>
