<?xml version="1.0" encoding="UTF-8" standalone="no"?>
<!-- This is a Stata 16.1 generated SVG file (http://www.stata.com) -->

<svg version="1.1" width="1600px" height="1164px" viewBox="0 0 3960 2880" xmlns="http://www.w3.org/2000/svg" xmlns:xlink="http://www.w3.org/1999/xlink">
	<desc>Stata Graph - Graph</desc>
	<rect x="0" y="0" width="3960" height="2880" style="fill:#EAF2F3;stroke:none"/>
	<rect x="0.00" y="0.00" width="3959.88" height="2880.00" style="fill:#EAF2F3"/>
	<rect x="2.88" y="2.88" width="3954.12" height="2874.24" style="fill:none;stroke:#EAF2F3;stroke-width:5.76"/>
	<rect x="401.69" y="402.82" width="1676.81" height="1693.32" style="fill:#FFFFFF"/>
	<rect x="404.14" y="405.27" width="1671.92" height="1688.43" style="fill:none;stroke:#FFFFFF;stroke-width:4.90"/>
	<line x1="401.69" y1="2042.31" x2="2078.51" y2="2042.31" style="stroke:#EAF2F3;stroke-width:7.34"/>
	<line x1="401.69" y1="1725.13" x2="2078.51" y2="1725.13" style="stroke:#EAF2F3;stroke-width:7.34"/>
	<line x1="401.69" y1="1408.07" x2="2078.51" y2="1408.07" style="stroke:#EAF2F3;stroke-width:7.34"/>
	<line x1="401.69" y1="1090.89" x2="2078.51" y2="1090.89" style="stroke:#EAF2F3;stroke-width:7.34"/>
	<line x1="401.69" y1="773.83" x2="2078.51" y2="773.83" style="stroke:#EAF2F3;stroke-width:7.34"/>
	<rect x="2147.68" y="402.82" width="1676.81" height="1693.32" style="fill:#FFFFFF"/>
	<rect x="2150.13" y="405.27" width="1671.92" height="1688.43" style="fill:none;stroke:#FFFFFF;stroke-width:4.90"/>
	<line x1="2147.68" y1="2042.31" x2="3824.49" y2="2042.31" style="stroke:#EAF2F3;stroke-width:7.34"/>
	<line x1="2147.68" y1="1725.13" x2="3824.49" y2="1725.13" style="stroke:#EAF2F3;stroke-width:7.34"/>
	<line x1="2147.68" y1="1408.07" x2="3824.49" y2="1408.07" style="stroke:#EAF2F3;stroke-width:7.34"/>
	<line x1="2147.68" y1="1090.89" x2="3824.49" y2="1090.89" style="stroke:#EAF2F3;stroke-width:7.34"/>
	<line x1="2147.68" y1="773.83" x2="3824.49" y2="773.83" style="stroke:#EAF2F3;stroke-width:7.34"/>
	<defs>
		<path id="path_yLIuCkOo" d="M455.52 2042.19 L455.52 2042.19 L480.89 2042.19 L506.14 2042.19 L531.51 2042.19 L556.75 2042.06 L582.12 2042.06 L607.37 2042.06 L632.73 2041.94 L657.98 2041.94 L683.35 2041.82 L708.59 2041.69 L733.96 2041.57 L759.21 2041.44 L784.58 2041.32 L809.82 2041.07 L835.19 2040.83 L860.43 2040.58 L885.80 2040.33 L911.05 2039.96 L936.42 2039.59 L961.66 2039.22 L987.03 2038.72 L1012.27 2038.23 L1037.64 2037.73 L1062.89 2037.11 L1088.26 2036.49 L1113.50 2035.87 L1138.87 2035.26 L1164.24 2034.51 L1189.48 2033.77 L1214.85 2032.90 L1240.10 2032.04 L1265.47 2031.05 L1290.71 2030.06 L1316.08 2028.94 L1341.33 2027.71 L1366.69 2026.35 L1391.94 2024.86 L1417.31 2023.38 L1442.55 2021.64 L1467.92 2019.66 L1493.17 2017.56 L1518.54 2015.21 L1543.78 2012.61 L1569.15 2009.64 L1594.39 2006.42 L1619.76 2002.71 L1645.01 1998.75 L1670.38 1994.17 L1695.62 1989.10 L1720.99 1983.53 L1746.24 1977.22 L1771.61 1970.16 L1796.85 1962.24 L1822.22 1953.33 L1847.46 1943.43 L1872.83 1932.42 L1898.20 1920.04 L1923.45 1906.30 L1948.82 1890.84 L1974.06 1873.63 L1999.43 1854.33 L2024.67 1832.92 L2024.67 1792.82 L1999.43 1818.32 L1974.06 1841.21 L1948.82 1861.63 L1923.45 1880.07 L1898.20 1896.40 L1872.83 1911.13 L1847.46 1924.25 L1822.22 1936.01 L1796.85 1946.52 L1771.61 1955.93 L1746.24 1964.35 L1720.99 1971.89 L1695.62 1978.70 L1670.38 1984.76 L1645.01 1990.09 L1619.76 1995.04 L1594.39 1999.37 L1569.15 2003.20 L1543.78 2006.67 L1518.54 2009.76 L1493.17 2012.61 L1467.92 2015.08 L1442.55 2017.31 L1417.31 2019.29 L1391.94 2021.15 L1366.69 2022.76 L1341.33 2024.24 L1316.08 2025.60 L1290.71 2026.96 L1265.47 2028.08 L1240.10 2029.19 L1214.85 2030.18 L1189.48 2031.30 L1164.24 2032.16 L1138.87 2033.03 L1113.50 2033.89 L1088.26 2034.64 L1062.89 2035.50 L1037.64 2036.12 L1012.27 2036.74 L987.03 2037.36 L961.66 2037.98 L936.42 2038.47 L911.05 2038.84 L885.80 2039.34 L860.43 2039.59 L835.19 2039.96 L809.82 2040.21 L784.58 2040.45 L759.21 2040.70 L733.96 2040.83 L708.59 2041.07 L683.35 2041.20 L657.98 2041.32 L632.73 2041.44 L607.37 2041.57 L582.12 2041.69 L556.75 2041.69 L531.51 2041.82 L506.14 2041.82 L480.89 2041.94 L455.52 2041.94 L455.52 2042.19 Z" stroke-linejoin="round"/>
	</defs>
	<defs>
		<clipPath id="clipPath_FIIGRqPK">
			<use xlink:href="#path_yLIuCkOo"/>
		</clipPath>
	</defs>
	<use xlink:href="#path_yLIuCkOo" style="stroke:none;fill:#E6E6E6"/>
	<use xlink:href="#path_yLIuCkOo" style="fill:none;stroke:#E0E0E0;stroke-width:14.69" clip-path="url(#clipPath_FIIGRqPK)"/>
	<defs>
		<path id="path_tcCfQOCv" d="M455.52 2042.19 L455.52 2042.19 L480.89 2042.06 L506.14 2042.06 L531.51 2042.06 L556.75 2041.94 L582.12 2041.82 L607.37 2041.82 L632.73 2041.69 L657.98 2041.57 L683.35 2041.32 L708.59 2041.20 L733.96 2040.83 L759.21 2040.58 L784.58 2040.21 L809.82 2039.83 L835.19 2039.34 L860.43 2038.72 L885.80 2038.10 L911.05 2037.36 L936.42 2036.62 L961.66 2035.75 L987.03 2034.76 L1012.27 2033.77 L1037.64 2032.66 L1062.89 2031.42 L1088.26 2030.18 L1113.50 2028.94 L1138.87 2027.46 L1164.24 2025.97 L1189.48 2024.37 L1214.85 2022.51 L1240.10 2020.65 L1265.47 2018.67 L1290.71 2016.45 L1316.08 2014.09 L1341.33 2011.50 L1366.69 2008.65 L1391.94 2005.68 L1417.31 2002.34 L1442.55 1998.62 L1467.92 1994.54 L1493.17 1989.96 L1518.54 1984.89 L1543.78 1979.32 L1569.15 1973.13 L1594.39 1966.20 L1619.76 1958.40 L1645.01 1949.74 L1670.38 1940.09 L1695.62 1929.32 L1720.99 1917.32 L1746.24 1903.83 L1771.61 1888.73 L1796.85 1871.90 L1822.22 1852.97 L1847.46 1831.93 L1872.83 1808.29 L1898.20 1781.81 L1923.45 1752.35 L1948.82 1719.31 L1974.06 1682.43 L1999.43 1641.35 L2024.67 1595.43 L2024.67 1516.11 L1999.43 1569.82 L1974.06 1617.96 L1948.82 1661.02 L1923.45 1699.64 L1898.20 1734.16 L1872.83 1765.10 L1847.46 1792.82 L1822.22 1817.57 L1796.85 1839.72 L1771.61 1859.53 L1746.24 1877.35 L1720.99 1893.31 L1695.62 1907.54 L1670.38 1920.29 L1645.01 1931.67 L1619.76 1941.95 L1594.39 1951.10 L1569.15 1959.27 L1543.78 1966.70 L1518.54 1973.26 L1493.17 1979.20 L1467.92 1984.39 L1442.55 1989.10 L1417.31 1993.43 L1391.94 1997.14 L1366.69 2000.61 L1341.33 2003.82 L1316.08 2006.67 L1290.71 2009.39 L1265.47 2011.99 L1240.10 2014.34 L1214.85 2016.57 L1189.48 2018.67 L1164.24 2020.65 L1138.87 2022.51 L1113.50 2024.37 L1088.26 2026.10 L1062.89 2027.58 L1037.64 2029.19 L1012.27 2030.55 L987.03 2031.79 L961.66 2033.03 L936.42 2034.02 L911.05 2035.01 L885.80 2035.87 L860.43 2036.62 L835.19 2037.24 L809.82 2037.85 L784.58 2038.35 L759.21 2038.84 L733.96 2039.22 L708.59 2039.59 L683.35 2039.96 L657.98 2040.21 L632.73 2040.45 L607.37 2040.70 L582.12 2040.95 L556.75 2041.07 L531.51 2041.20 L506.14 2041.32 L480.89 2041.44 L455.52 2041.57 L455.52 2042.19 Z" stroke-linejoin="round"/>
	</defs>
	<defs>
		<clipPath id="clipPath_GVpIqTfI">
			<use xlink:href="#path_tcCfQOCv"/>
		</clipPath>
	</defs>
	<use xlink:href="#path_tcCfQOCv" style="stroke:none;fill:#E6E6E6"/>
	<use xlink:href="#path_tcCfQOCv" style="fill:none;stroke:#E0E0E0;stroke-width:14.69" clip-path="url(#clipPath_GVpIqTfI)"/>
	<defs>
		<path id="path_cImmAJwt" d="M455.52 2042.06 L455.52 2042.06 L480.89 2041.94 L506.14 2041.94 L531.51 2041.82 L556.75 2041.69 L582.12 2041.57 L607.37 2041.44 L632.73 2041.20 L657.98 2040.95 L683.35 2040.70 L708.59 2040.33 L733.96 2039.83 L759.21 2039.34 L784.58 2038.72 L809.82 2037.98 L835.19 2037.11 L860.43 2036.12 L885.80 2035.01 L911.05 2033.77 L936.42 2032.41 L961.66 2030.80 L987.03 2029.19 L1012.27 2027.34 L1037.64 2025.48 L1062.89 2023.50 L1088.26 2021.27 L1113.50 2018.92 L1138.87 2016.45 L1164.24 2013.85 L1189.48 2011.00 L1214.85 2007.91 L1240.10 2004.57 L1265.47 2001.10 L1290.71 1997.26 L1316.08 1993.18 L1341.33 1988.60 L1366.69 1983.77 L1391.94 1978.45 L1417.31 1972.64 L1442.55 1966.20 L1467.92 1959.02 L1493.17 1951.10 L1518.54 1942.44 L1543.78 1932.66 L1569.15 1921.77 L1594.39 1909.65 L1619.76 1896.16 L1645.01 1881.06 L1670.38 1864.23 L1695.62 1845.29 L1720.99 1824.26 L1746.24 1800.74 L1771.61 1774.38 L1796.85 1744.81 L1822.22 1711.89 L1847.46 1675.01 L1872.83 1633.67 L1898.20 1587.39 L1923.45 1535.79 L1948.82 1477.99 L1974.06 1413.52 L1999.43 1341.49 L2024.67 1261.05 L2024.67 1123.81 L1999.43 1217.24 L1974.06 1301.15 L1948.82 1376.14 L1923.45 1443.47 L1898.20 1503.61 L1872.83 1557.57 L1847.46 1605.83 L1822.22 1649.14 L1796.85 1687.88 L1771.61 1722.53 L1746.24 1753.47 L1720.99 1781.31 L1695.62 1806.19 L1670.38 1828.59 L1645.01 1848.51 L1619.76 1866.46 L1594.39 1882.42 L1569.15 1896.90 L1543.78 1909.77 L1518.54 1921.28 L1493.17 1931.55 L1467.92 1940.83 L1442.55 1949.12 L1417.31 1956.55 L1391.94 1963.23 L1366.69 1969.30 L1341.33 1974.86 L1316.08 1979.94 L1290.71 1984.64 L1265.47 1989.10 L1240.10 1993.18 L1214.85 1997.14 L1189.48 2000.85 L1164.24 2004.32 L1138.87 2007.66 L1113.50 2010.88 L1088.26 2013.85 L1062.89 2016.69 L1037.64 2019.29 L1012.27 2021.77 L987.03 2023.99 L961.66 2026.10 L936.42 2027.95 L911.05 2029.56 L885.80 2031.05 L860.43 2032.41 L835.19 2033.52 L809.82 2034.64 L784.58 2035.50 L759.21 2036.37 L733.96 2036.99 L708.59 2037.61 L683.35 2038.23 L657.98 2038.72 L632.73 2039.22 L607.37 2039.59 L582.12 2039.83 L556.75 2040.21 L531.51 2040.45 L506.14 2040.70 L480.89 2040.83 L455.52 2040.95 L455.52 2042.06 Z" stroke-linejoin="round"/>
	</defs>
	<defs>
		<clipPath id="clipPath_zOibnJsq">
			<use xlink:href="#path_cImmAJwt"/>
		</clipPath>
	</defs>
	<use xlink:href="#path_cImmAJwt" style="stroke:none;fill:#E6E6E6"/>
	<use xlink:href="#path_cImmAJwt" style="fill:none;stroke:#E0E0E0;stroke-width:14.69" clip-path="url(#clipPath_zOibnJsq)"/>
	<line x1="455.52" y1="1994.66" x2="458.37" y2="1994.66" style="stroke:#A0A0A0;stroke-width:7.34"/>
	<line x1="478.54" y1="1994.66" x2="480.77" y2="1994.66" style="stroke:#A0A0A0;stroke-width:7.34"/>
	<line x1="480.77" y1="1994.66" x2="481.39" y2="1994.66" style="stroke:#A0A0A0;stroke-width:7.34"/>
	<line x1="501.56" y1="1994.66" x2="504.40" y2="1994.66" style="stroke:#A0A0A0;stroke-width:7.34"/>
	<line x1="524.58" y1="1994.66" x2="527.42" y2="1994.66" style="stroke:#A0A0A0;stroke-width:7.34"/>
	<line x1="547.59" y1="1994.66" x2="550.44" y2="1994.66" style="stroke:#A0A0A0;stroke-width:7.34"/>
	<line x1="570.61" y1="1994.66" x2="573.58" y2="1994.66" style="stroke:#A0A0A0;stroke-width:7.34"/>
	<line x1="593.75" y1="1994.66" x2="596.60" y2="1994.66" style="stroke:#A0A0A0;stroke-width:7.34"/>
	<line x1="616.77" y1="1994.66" x2="619.62" y2="1994.66" style="stroke:#A0A0A0;stroke-width:7.34"/>
	<line x1="639.79" y1="1994.66" x2="642.63" y2="1994.66" style="stroke:#A0A0A0;stroke-width:7.34"/>
	<line x1="662.80" y1="1994.66" x2="665.65" y2="1994.66" style="stroke:#A0A0A0;stroke-width:7.34"/>
	<line x1="685.82" y1="1994.66" x2="688.67" y2="1994.66" style="stroke:#A0A0A0;stroke-width:7.34"/>
	<line x1="708.84" y1="1994.66" x2="711.69" y2="1994.66" style="stroke:#A0A0A0;stroke-width:7.34"/>
	<line x1="731.86" y1="1994.66" x2="733.84" y2="1994.66" style="stroke:#A0A0A0;stroke-width:7.34"/>
	<line x1="733.84" y1="1994.66" x2="734.70" y2="1994.66" style="stroke:#A0A0A0;stroke-width:7.34"/>
	<line x1="754.88" y1="1994.66" x2="757.72" y2="1994.66" style="stroke:#A0A0A0;stroke-width:7.34"/>
	<line x1="777.89" y1="1994.66" x2="780.74" y2="1994.66" style="stroke:#A0A0A0;stroke-width:7.34"/>
	<line x1="800.91" y1="1994.66" x2="803.88" y2="1994.66" style="stroke:#A0A0A0;stroke-width:7.34"/>
	<line x1="823.93" y1="1994.66" x2="826.90" y2="1994.66" style="stroke:#A0A0A0;stroke-width:7.34"/>
	<line x1="847.07" y1="1994.66" x2="849.91" y2="1994.66" style="stroke:#A0A0A0;stroke-width:7.34"/>
	<line x1="870.09" y1="1994.66" x2="872.93" y2="1994.66" style="stroke:#A0A0A0;stroke-width:7.34"/>
	<line x1="893.10" y1="1994.66" x2="895.95" y2="1994.66" style="stroke:#A0A0A0;stroke-width:7.34"/>
	<line x1="916.12" y1="1994.66" x2="918.97" y2="1994.66" style="stroke:#A0A0A0;stroke-width:7.34"/>
	<line x1="939.14" y1="1994.66" x2="941.99" y2="1994.66" style="stroke:#A0A0A0;stroke-width:7.34"/>
	<line x1="962.16" y1="1994.66" x2="965.00" y2="1994.66" style="stroke:#A0A0A0;stroke-width:7.34"/>
	<line x1="985.17" y1="1994.66" x2="986.91" y2="1994.66" style="stroke:#A0A0A0;stroke-width:7.34"/>
	<line x1="986.91" y1="1994.66" x2="988.02" y2="1994.66" style="stroke:#A0A0A0;stroke-width:7.34"/>
	<line x1="1008.19" y1="1994.66" x2="1011.04" y2="1994.66" style="stroke:#A0A0A0;stroke-width:7.34"/>
	<line x1="1031.21" y1="1994.66" x2="1034.06" y2="1994.66" style="stroke:#A0A0A0;stroke-width:7.34"/>
	<line x1="1054.23" y1="1994.66" x2="1057.20" y2="1994.66" style="stroke:#A0A0A0;stroke-width:7.34"/>
	<line x1="1077.24" y1="1994.66" x2="1080.21" y2="1994.66" style="stroke:#A0A0A0;stroke-width:7.34"/>
	<line x1="1100.38" y1="1994.66" x2="1103.23" y2="1994.66" style="stroke:#A0A0A0;stroke-width:7.34"/>
	<line x1="1123.40" y1="1994.66" x2="1126.25" y2="1994.66" style="stroke:#A0A0A0;stroke-width:7.34"/>
	<line x1="1146.42" y1="1994.66" x2="1149.27" y2="1994.66" style="stroke:#A0A0A0;stroke-width:7.34"/>
	<line x1="1169.44" y1="1994.66" x2="1172.28" y2="1994.66" style="stroke:#A0A0A0;stroke-width:7.34"/>
	<line x1="1192.45" y1="1994.66" x2="1195.30" y2="1994.66" style="stroke:#A0A0A0;stroke-width:7.34"/>
	<line x1="1215.47" y1="1994.66" x2="1218.32" y2="1994.66" style="stroke:#A0A0A0;stroke-width:7.34"/>
	<line x1="1238.49" y1="1994.66" x2="1240.10" y2="1994.66" style="stroke:#A0A0A0;stroke-width:7.34"/>
	<line x1="1240.10" y1="1994.66" x2="1241.34" y2="1994.66" style="stroke:#A0A0A0;stroke-width:7.34"/>
	<line x1="1261.51" y1="1994.66" x2="1264.35" y2="1994.66" style="stroke:#A0A0A0;stroke-width:7.34"/>
	<line x1="1284.53" y1="1994.66" x2="1287.37" y2="1994.66" style="stroke:#A0A0A0;stroke-width:7.34"/>
	<line x1="1307.54" y1="1994.66" x2="1310.51" y2="1994.66" style="stroke:#A0A0A0;stroke-width:7.34"/>
	<line x1="1330.56" y1="1994.66" x2="1333.53" y2="1994.66" style="stroke:#A0A0A0;stroke-width:7.34"/>
	<line x1="1353.70" y1="1994.66" x2="1356.55" y2="1994.66" style="stroke:#A0A0A0;stroke-width:7.34"/>
	<line x1="1376.72" y1="1994.66" x2="1379.57" y2="1994.66" style="stroke:#A0A0A0;stroke-width:7.34"/>
	<line x1="1399.74" y1="1994.66" x2="1402.58" y2="1994.66" style="stroke:#A0A0A0;stroke-width:7.34"/>
	<line x1="1422.75" y1="1994.66" x2="1425.60" y2="1994.66" style="stroke:#A0A0A0;stroke-width:7.34"/>
	<line x1="1445.77" y1="1994.66" x2="1448.62" y2="1994.66" style="stroke:#A0A0A0;stroke-width:7.34"/>
	<line x1="1468.79" y1="1994.66" x2="1471.63" y2="1994.66" style="stroke:#A0A0A0;stroke-width:7.34"/>
	<line x1="1491.81" y1="1994.66" x2="1493.17" y2="1994.66" style="stroke:#A0A0A0;stroke-width:7.34"/>
	<line x1="1493.17" y1="1994.66" x2="1494.65" y2="1994.66" style="stroke:#A0A0A0;stroke-width:7.34"/>
	<line x1="1514.82" y1="1994.66" x2="1517.67" y2="1994.66" style="stroke:#A0A0A0;stroke-width:7.34"/>
	<line x1="1537.84" y1="1994.66" x2="1540.69" y2="1994.66" style="stroke:#A0A0A0;stroke-width:7.34"/>
	<line x1="1560.86" y1="1994.66" x2="1563.83" y2="1994.66" style="stroke:#A0A0A0;stroke-width:7.34"/>
	<line x1="1584.00" y1="1994.66" x2="1586.85" y2="1994.66" style="stroke:#A0A0A0;stroke-width:7.34"/>
	<line x1="1607.02" y1="1994.66" x2="1609.86" y2="1994.66" style="stroke:#A0A0A0;stroke-width:7.34"/>
	<line x1="1630.04" y1="1994.66" x2="1632.88" y2="1994.66" style="stroke:#A0A0A0;stroke-width:7.34"/>
	<line x1="1653.05" y1="1994.66" x2="1655.90" y2="1994.66" style="stroke:#A0A0A0;stroke-width:7.34"/>
	<line x1="1676.07" y1="1994.66" x2="1678.92" y2="1994.66" style="stroke:#A0A0A0;stroke-width:7.34"/>
	<line x1="1699.09" y1="1994.66" x2="1701.93" y2="1994.66" style="stroke:#A0A0A0;stroke-width:7.34"/>
	<line x1="1722.11" y1="1994.66" x2="1724.95" y2="1994.66" style="stroke:#A0A0A0;stroke-width:7.34"/>
	<line x1="1745.12" y1="1994.66" x2="1746.24" y2="1994.66" style="stroke:#A0A0A0;stroke-width:7.34"/>
	<line x1="1746.24" y1="1994.66" x2="1747.97" y2="1994.66" style="stroke:#A0A0A0;stroke-width:7.34"/>
	<line x1="1768.14" y1="1994.66" x2="1770.99" y2="1994.66" style="stroke:#A0A0A0;stroke-width:7.34"/>
	<line x1="1791.16" y1="1994.66" x2="1794.00" y2="1994.66" style="stroke:#A0A0A0;stroke-width:7.34"/>
	<line x1="1814.17" y1="1994.66" x2="1817.14" y2="1994.66" style="stroke:#A0A0A0;stroke-width:7.34"/>
	<line x1="1837.32" y1="1994.66" x2="1840.16" y2="1994.66" style="stroke:#A0A0A0;stroke-width:7.34"/>
	<line x1="1860.33" y1="1994.66" x2="1863.18" y2="1994.66" style="stroke:#A0A0A0;stroke-width:7.34"/>
	<line x1="1883.35" y1="1994.66" x2="1886.20" y2="1994.66" style="stroke:#A0A0A0;stroke-width:7.34"/>
	<line x1="1906.37" y1="1994.66" x2="1909.21" y2="1994.66" style="stroke:#A0A0A0;stroke-width:7.34"/>
	<line x1="1929.39" y1="1994.66" x2="1932.23" y2="1994.66" style="stroke:#A0A0A0;stroke-width:7.34"/>
	<line x1="1952.40" y1="1994.66" x2="1955.25" y2="1994.66" style="stroke:#A0A0A0;stroke-width:7.34"/>
	<line x1="1975.42" y1="1994.66" x2="1978.27" y2="1994.66" style="stroke:#A0A0A0;stroke-width:7.34"/>
	<line x1="1998.44" y1="1994.66" x2="1999.31" y2="1994.66" style="stroke:#A0A0A0;stroke-width:7.34"/>
	<line x1="1999.31" y1="1994.66" x2="2001.29" y2="1994.66" style="stroke:#A0A0A0;stroke-width:7.34"/>
	<line x1="2021.46" y1="1994.66" x2="2024.30" y2="1994.66" style="stroke:#A0A0A0;stroke-width:7.34"/>
	<path d="" stroke-linejoin="round" style="fill:none;stroke:#A0A0A0;stroke-width:7.34"/>
	<path d=" M455.52 2042.06 L480.77 2041.94 L506.14 2041.94 L531.38 2041.82 L556.75 2041.69 L582.00 2041.57 L607.37 2041.44 L632.61 2041.32 L657.98 2041.07 L683.22 2040.83 L708.59 2040.58 L733.84 2040.33 L759.21 2039.96 L784.45 2039.46 L809.82 2039.09 L835.07 2038.47 L860.43 2037.85 L885.68 2037.11 L911.05 2036.37 L936.29 2035.50 L961.66 2034.51 L986.91 2033.52 L1012.27 2032.29 L1037.52 2031.05 L1062.89 2029.81 L1088.13 2028.33 L1113.50 2026.84 L1138.87 2025.23 L1164.12 2023.50 L1189.48 2021.77 L1214.73 2019.79 L1240.10 2017.81 L1265.34 2015.58 L1290.71 2013.23 L1315.96 2010.63 L1341.33 2007.91 L1366.57 2004.94 L1391.94 2001.72 L1417.18 1998.13 L1442.55 1994.17 L1467.80 1989.71 L1493.17 1984.89 L1518.41 1979.44 L1543.78 1973.38 L1569.03 1966.57 L1594.39 1959.02 L1619.64 1950.61 L1645.01 1941.20 L1670.25 1930.68 L1695.62 1918.93 L1720.87 1905.81 L1746.24 1891.21 L1771.48 1874.87 L1796.85 1856.56 L1822.10 1836.14 L1847.46 1813.24 L1872.71 1787.62 L1898.08 1759.04 L1923.45 1727.11 L1948.69 1691.47 L1974.06 1651.62 L1999.31 1607.07 L2024.67 1557.44" stroke-linejoin="round" style="fill:none;stroke:#008000;stroke-width:7.34"/>
	<path d=" M455.52 2041.82 L480.77 2041.69 L506.14 2041.57 L531.38 2041.44 L556.75 2041.20 L582.00 2041.07 L607.37 2040.83 L632.61 2040.45 L657.98 2040.21 L683.22 2039.71 L708.59 2039.34 L733.84 2038.72 L759.21 2038.10 L784.45 2037.36 L809.82 2036.62 L835.07 2035.63 L860.43 2034.51 L885.68 2033.28 L911.05 2031.91 L936.29 2030.43 L961.66 2028.70 L986.91 2026.84 L1012.27 2024.86 L1037.52 2022.63 L1062.89 2020.41 L1088.13 2017.93 L1113.50 2015.21 L1138.87 2012.49 L1164.12 2009.52 L1189.48 2006.30 L1214.73 2002.96 L1240.10 1999.37 L1265.34 1995.53 L1290.71 1991.45 L1315.96 1986.99 L1341.33 1982.17 L1366.57 1976.97 L1391.94 1971.28 L1417.18 1965.09 L1442.55 1958.16 L1467.80 1950.48 L1493.17 1941.95 L1518.41 1932.42 L1543.78 1921.77 L1569.03 1909.89 L1594.39 1896.78 L1619.64 1882.05 L1645.01 1865.59 L1670.25 1847.27 L1695.62 1826.73 L1720.87 1803.84 L1746.24 1778.22 L1771.48 1749.63 L1796.85 1717.70 L1822.10 1681.94 L1847.46 1641.97 L1872.71 1597.29 L1898.08 1547.42 L1923.45 1491.61 L1948.69 1429.23 L1974.06 1359.68 L1999.31 1281.97 L2024.67 1195.21" stroke-linejoin="round" style="fill:none;stroke:#FF7F00;stroke-width:7.34"/>
	<path d=" M455.52 2042.19 L480.77 2042.19 L506.14 2042.19 L531.38 2042.06 L556.75 2042.06 L582.00 2041.94 L607.37 2041.94 L632.61 2041.82 L657.98 2041.69 L683.22 2041.69 L708.59 2041.57 L733.84 2041.32 L759.21 2041.20 L784.45 2040.95 L809.82 2040.83 L835.07 2040.58 L860.43 2040.21 L885.68 2039.96 L911.05 2039.59 L936.29 2039.09 L961.66 2038.72 L986.91 2038.23 L1012.27 2037.61 L1037.52 2036.99 L1062.89 2036.37 L1088.13 2035.75 L1113.50 2035.01 L1138.87 2034.27 L1164.12 2033.52 L1189.48 2032.66 L1214.73 2031.67 L1240.10 2030.80 L1265.34 2029.69 L1290.71 2028.57 L1315.96 2027.46 L1341.33 2026.10 L1366.57 2024.74 L1391.94 2023.13 L1417.18 2021.52 L1442.55 2019.66 L1467.80 2017.56 L1493.17 2015.21 L1518.41 2012.73 L1543.78 2009.89 L1569.03 2006.67 L1594.39 2003.08 L1619.64 1999.12 L1645.01 1994.66 L1670.25 1989.71 L1695.62 1984.15 L1720.87 1978.08 L1746.24 1971.15 L1771.48 1963.36 L1796.85 1954.82 L1822.10 1945.16 L1847.46 1934.40 L1872.71 1922.27 L1898.08 1908.78 L1923.45 1893.81 L1948.69 1876.97 L1974.06 1858.16 L1999.31 1837.13 L2024.67 1813.74" stroke-linejoin="round" style="fill:none;stroke:#1A476F;stroke-width:7.34"/>
	<defs>
		<path id="path_tEiOqvlb" d="M2201.51 2042.19 L2201.51 2042.19 L2226.88 2042.19 L2252.13 2042.06 L2277.49 2042.06 L2302.74 2042.06 L2328.11 2041.94 L2353.35 2041.94 L2378.72 2041.82 L2403.97 2041.69 L2429.34 2041.69 L2454.58 2041.44 L2479.95 2041.32 L2505.20 2041.07 L2530.56 2040.83 L2555.81 2040.58 L2581.18 2040.21 L2606.42 2039.83 L2631.79 2039.34 L2657.04 2038.84 L2682.41 2038.35 L2707.65 2037.73 L2733.02 2036.99 L2758.26 2036.37 L2783.63 2035.50 L2808.88 2034.76 L2834.25 2033.89 L2859.49 2032.90 L2884.86 2031.91 L2910.11 2030.92 L2935.47 2029.81 L2960.72 2028.57 L2986.09 2027.21 L3011.46 2025.85 L3036.70 2024.24 L3062.07 2022.63 L3087.32 2020.90 L3112.68 2018.92 L3137.93 2016.82 L3163.30 2014.47 L3188.54 2011.99 L3213.91 2009.14 L3239.16 2006.05 L3264.53 2002.59 L3289.77 1998.62 L3315.14 1994.42 L3340.38 1989.59 L3365.75 1984.27 L3391.00 1978.33 L3416.37 1971.77 L3441.61 1964.35 L3466.98 1956.05 L3492.22 1946.77 L3517.59 1936.50 L3542.84 1924.87 L3568.21 1912.00 L3593.45 1897.52 L3618.82 1881.31 L3644.07 1863.24 L3669.43 1843.07 L3694.68 1820.42 L3720.05 1795.30 L3745.42 1767.08 L3770.66 1735.77 L3770.66 1675.26 L3745.42 1712.88 L3720.05 1746.54 L3694.68 1776.73 L3669.43 1803.71 L3644.07 1827.84 L3618.82 1849.50 L3593.45 1868.81 L3568.21 1886.13 L3542.84 1901.60 L3517.59 1915.46 L3492.22 1927.84 L3466.98 1938.98 L3441.61 1948.88 L3416.37 1957.79 L3391.00 1965.71 L3365.75 1972.88 L3340.38 1979.20 L3315.14 1984.89 L3289.77 1990.09 L3264.53 1994.66 L3239.16 1998.75 L3213.91 2002.46 L3188.54 2005.68 L3163.30 2008.65 L3137.93 2011.25 L3112.68 2013.60 L3087.32 2015.83 L3062.07 2017.81 L3036.70 2019.66 L3011.46 2021.40 L2986.09 2023.13 L2960.72 2024.61 L2935.47 2026.10 L2910.11 2027.46 L2884.86 2028.70 L2859.49 2029.93 L2834.25 2031.17 L2808.88 2032.29 L2783.63 2033.28 L2758.26 2034.27 L2733.02 2035.13 L2707.65 2035.87 L2682.41 2036.62 L2657.04 2037.36 L2631.79 2037.85 L2606.42 2038.35 L2581.18 2038.84 L2555.81 2039.22 L2530.56 2039.59 L2505.20 2039.96 L2479.95 2040.21 L2454.58 2040.45 L2429.34 2040.70 L2403.97 2040.83 L2378.72 2041.07 L2353.35 2041.20 L2328.11 2041.32 L2302.74 2041.44 L2277.49 2041.57 L2252.13 2041.69 L2226.88 2041.69 L2201.51 2041.82 L2201.51 2042.19 Z" stroke-linejoin="round"/>
	</defs>
	<defs>
		<clipPath id="clipPath_mjNMenpB">
			<use xlink:href="#path_tEiOqvlb"/>
		</clipPath>
	</defs>
	<use xlink:href="#path_tEiOqvlb" style="stroke:none;fill:#E6E6E6"/>
	<use xlink:href="#path_tEiOqvlb" style="fill:none;stroke:#E0E0E0;stroke-width:14.69" clip-path="url(#clipPath_mjNMenpB)"/>
	<defs>
		<path id="path_DheJEbRu" d="M2201.51 2042.06 L2201.51 2042.06 L2226.88 2042.06 L2252.13 2041.94 L2277.49 2041.94 L2302.74 2041.82 L2328.11 2041.69 L2353.35 2041.57 L2378.72 2041.32 L2403.97 2041.20 L2429.34 2040.95 L2454.58 2040.58 L2479.95 2040.21 L2505.20 2039.83 L2530.56 2039.22 L2555.81 2038.60 L2581.18 2037.98 L2606.42 2037.11 L2631.79 2036.12 L2657.04 2035.13 L2682.41 2033.89 L2707.65 2032.66 L2733.02 2031.30 L2758.26 2029.81 L2783.63 2028.20 L2808.88 2026.47 L2834.25 2024.61 L2859.49 2022.63 L2884.86 2020.53 L2910.11 2018.30 L2935.47 2015.95 L2960.72 2013.35 L2986.09 2010.51 L3011.46 2007.54 L3036.70 2004.32 L3062.07 2000.85 L3087.32 1997.14 L3112.68 1992.93 L3137.93 1988.48 L3163.30 1983.53 L3188.54 1978.08 L3213.91 1972.14 L3239.16 1965.46 L3264.53 1958.03 L3289.77 1949.87 L3315.14 1940.71 L3340.38 1930.56 L3365.75 1919.17 L3391.00 1906.55 L3416.37 1892.32 L3441.61 1876.48 L3466.98 1858.91 L3492.22 1839.11 L3517.59 1816.95 L3542.84 1792.20 L3568.21 1764.61 L3593.45 1733.67 L3618.82 1699.14 L3644.07 1660.53 L3669.43 1617.34 L3694.68 1568.95 L3720.05 1515.12 L3745.42 1454.97 L3770.66 1387.78 L3770.66 1268.97 L3745.42 1348.05 L3720.05 1418.84 L3694.68 1482.20 L3669.43 1539.00 L3644.07 1589.74 L3618.82 1635.28 L3593.45 1676.00 L3568.21 1712.38 L3542.84 1744.93 L3517.59 1774.14 L3492.22 1800.25 L3466.98 1823.64 L3441.61 1844.55 L3416.37 1863.24 L3391.00 1880.07 L3365.75 1895.04 L3340.38 1908.53 L3315.14 1920.54 L3289.77 1931.30 L3264.53 1941.08 L3239.16 1949.74 L3213.91 1957.41 L3188.54 1964.35 L3163.30 1970.53 L3137.93 1976.10 L3112.68 1981.18 L3087.32 1985.88 L3062.07 1990.09 L3036.70 1994.05 L3011.46 1997.76 L2986.09 2001.22 L2960.72 2004.44 L2935.47 2007.54 L2910.11 2010.51 L2884.86 2013.35 L2859.49 2015.95 L2834.25 2018.43 L2808.88 2020.78 L2783.63 2023.00 L2758.26 2025.11 L2733.02 2026.96 L2707.65 2028.70 L2682.41 2030.18 L2657.04 2031.67 L2631.79 2032.90 L2606.42 2034.02 L2581.18 2035.01 L2555.81 2035.87 L2530.56 2036.62 L2505.20 2037.24 L2479.95 2037.85 L2454.58 2038.35 L2429.34 2038.84 L2403.97 2039.34 L2378.72 2039.59 L2353.35 2039.96 L2328.11 2040.21 L2302.74 2040.45 L2277.49 2040.70 L2252.13 2040.95 L2226.88 2041.07 L2201.51 2041.20 L2201.51 2042.06 Z" stroke-linejoin="round"/>
	</defs>
	<defs>
		<clipPath id="clipPath_bHYtibNp">
			<use xlink:href="#path_DheJEbRu"/>
		</clipPath>
	</defs>
	<use xlink:href="#path_DheJEbRu" style="stroke:none;fill:#E6E6E6"/>
	<use xlink:href="#path_DheJEbRu" style="fill:none;stroke:#E0E0E0;stroke-width:14.69" clip-path="url(#clipPath_bHYtibNp)"/>
	<defs>
		<path id="path_FVLjWmdQ" d="M2201.51 2041.94 L2201.51 2041.94 L2226.88 2041.82 L2252.13 2041.69 L2277.49 2041.57 L2302.74 2041.44 L2328.11 2041.20 L2353.35 2040.95 L2378.72 2040.70 L2403.97 2040.33 L2429.34 2039.83 L2454.58 2039.34 L2479.95 2038.72 L2505.20 2037.98 L2530.56 2036.99 L2555.81 2035.87 L2581.18 2034.64 L2606.42 2033.28 L2631.79 2031.54 L2657.04 2029.81 L2682.41 2027.71 L2707.65 2025.48 L2733.02 2023.00 L2758.26 2020.41 L2783.63 2017.68 L2808.88 2014.71 L2834.25 2011.50 L2859.49 2008.03 L2884.86 2004.44 L2910.11 2000.48 L2935.47 1996.27 L2960.72 1991.82 L2986.09 1986.99 L3011.46 1981.79 L3036.70 1976.10 L3062.07 1970.04 L3087.32 1963.48 L3112.68 1956.30 L3137.93 1948.50 L3163.30 1939.84 L3188.54 1930.44 L3213.91 1919.92 L3239.16 1908.28 L3264.53 1895.41 L3289.77 1881.06 L3315.14 1865.09 L3340.38 1847.27 L3365.75 1827.47 L3391.00 1805.32 L3416.37 1780.57 L3441.61 1752.85 L3466.98 1721.91 L3492.22 1687.38 L3517.59 1648.77 L3542.84 1605.46 L3568.21 1557.07 L3593.45 1502.99 L3618.82 1442.48 L3644.07 1374.78 L3669.43 1299.04 L3694.68 1214.52 L3720.05 1120.10 L3745.42 1014.66 L3770.66 896.97 L3770.66 694.63 L3745.42 831.87 L3720.05 955.01 L3694.68 1065.27 L3669.43 1164.03 L3644.07 1252.39 L3618.82 1331.59 L3593.45 1402.50 L3568.21 1465.99 L3542.84 1522.79 L3517.59 1573.65 L3492.22 1619.07 L3466.98 1659.91 L3441.61 1696.42 L3416.37 1729.09 L3391.00 1758.42 L3365.75 1784.65 L3340.38 1808.17 L3315.14 1829.21 L3289.77 1848.14 L3264.53 1864.97 L3239.16 1880.19 L3213.91 1893.68 L3188.54 1905.81 L3163.30 1916.70 L3137.93 1926.48 L3112.68 1935.39 L3087.32 1943.43 L3062.07 1950.98 L3036.70 1957.91 L3011.46 1964.35 L2986.09 1970.41 L2960.72 1976.10 L2935.47 1981.55 L2910.11 1986.62 L2884.86 1991.57 L2859.49 1996.15 L2834.25 2000.61 L2808.88 2004.69 L2783.63 2008.53 L2758.26 2012.11 L2733.02 2015.46 L2707.65 2018.43 L2682.41 2021.27 L2657.04 2023.62 L2631.79 2025.85 L2606.42 2027.83 L2581.18 2029.44 L2555.81 2031.05 L2530.56 2032.41 L2505.20 2033.52 L2479.95 2034.64 L2454.58 2035.50 L2429.34 2036.37 L2403.97 2037.11 L2378.72 2037.73 L2353.35 2038.23 L2328.11 2038.72 L2302.74 2039.22 L2277.49 2039.59 L2252.13 2039.83 L2226.88 2040.21 L2201.51 2040.45 L2201.51 2041.94 Z" stroke-linejoin="round"/>
	</defs>
	<defs>
		<clipPath id="clipPath_BBiySisE">
			<use xlink:href="#path_FVLjWmdQ"/>
		</clipPath>
	</defs>
	<use xlink:href="#path_FVLjWmdQ" style="stroke:none;fill:#E6E6E6"/>
	<use xlink:href="#path_FVLjWmdQ" style="fill:none;stroke:#E0E0E0;stroke-width:14.69" clip-path="url(#clipPath_BBiySisE)"/>
	<line x1="2201.39" y1="1972.39" x2="2204.24" y2="1972.39" style="stroke:#A0A0A0;stroke-width:7.34"/>
	<line x1="2224.41" y1="1972.39" x2="2226.76" y2="1972.39" style="stroke:#A0A0A0;stroke-width:7.34"/>
	<line x1="2226.76" y1="1972.39" x2="2227.25" y2="1972.39" style="stroke:#A0A0A0;stroke-width:7.34"/>
	<line x1="2247.42" y1="1972.39" x2="2250.27" y2="1972.39" style="stroke:#A0A0A0;stroke-width:7.34"/>
	<line x1="2270.44" y1="1972.39" x2="2273.29" y2="1972.39" style="stroke:#A0A0A0;stroke-width:7.34"/>
	<line x1="2293.46" y1="1972.39" x2="2296.43" y2="1972.39" style="stroke:#A0A0A0;stroke-width:7.34"/>
	<line x1="2316.60" y1="1972.39" x2="2319.45" y2="1972.39" style="stroke:#A0A0A0;stroke-width:7.34"/>
	<line x1="2339.62" y1="1972.39" x2="2342.46" y2="1972.39" style="stroke:#A0A0A0;stroke-width:7.34"/>
	<line x1="2362.64" y1="1972.39" x2="2365.48" y2="1972.39" style="stroke:#A0A0A0;stroke-width:7.34"/>
	<line x1="2385.65" y1="1972.39" x2="2388.50" y2="1972.39" style="stroke:#A0A0A0;stroke-width:7.34"/>
	<line x1="2408.67" y1="1972.39" x2="2411.52" y2="1972.39" style="stroke:#A0A0A0;stroke-width:7.34"/>
	<line x1="2431.69" y1="1972.39" x2="2434.53" y2="1972.39" style="stroke:#A0A0A0;stroke-width:7.34"/>
	<line x1="2454.70" y1="1972.39" x2="2457.55" y2="1972.39" style="stroke:#A0A0A0;stroke-width:7.34"/>
	<line x1="2477.72" y1="1972.39" x2="2479.83" y2="1972.39" style="stroke:#A0A0A0;stroke-width:7.34"/>
	<line x1="2479.83" y1="1972.39" x2="2480.57" y2="1972.39" style="stroke:#A0A0A0;stroke-width:7.34"/>
	<line x1="2500.74" y1="1972.39" x2="2503.59" y2="1972.39" style="stroke:#A0A0A0;stroke-width:7.34"/>
	<line x1="2523.76" y1="1972.39" x2="2526.60" y2="1972.39" style="stroke:#A0A0A0;stroke-width:7.34"/>
	<line x1="2546.78" y1="1972.39" x2="2549.74" y2="1972.39" style="stroke:#A0A0A0;stroke-width:7.34"/>
	<line x1="2569.92" y1="1972.39" x2="2572.76" y2="1972.39" style="stroke:#A0A0A0;stroke-width:7.34"/>
	<line x1="2592.93" y1="1972.39" x2="2595.78" y2="1972.39" style="stroke:#A0A0A0;stroke-width:7.34"/>
	<line x1="2615.95" y1="1972.39" x2="2618.80" y2="1972.39" style="stroke:#A0A0A0;stroke-width:7.34"/>
	<line x1="2638.97" y1="1972.39" x2="2641.82" y2="1972.39" style="stroke:#A0A0A0;stroke-width:7.34"/>
	<line x1="2661.99" y1="1972.39" x2="2664.83" y2="1972.39" style="stroke:#A0A0A0;stroke-width:7.34"/>
	<line x1="2685.00" y1="1972.39" x2="2687.85" y2="1972.39" style="stroke:#A0A0A0;stroke-width:7.34"/>
	<line x1="2708.02" y1="1972.39" x2="2710.87" y2="1972.39" style="stroke:#A0A0A0;stroke-width:7.34"/>
	<line x1="2731.04" y1="1972.39" x2="2732.89" y2="1972.39" style="stroke:#A0A0A0;stroke-width:7.34"/>
	<line x1="2732.89" y1="1972.39" x2="2733.89" y2="1972.39" style="stroke:#A0A0A0;stroke-width:7.34"/>
	<line x1="2754.06" y1="1972.39" x2="2756.90" y2="1972.39" style="stroke:#A0A0A0;stroke-width:7.34"/>
	<line x1="2777.07" y1="1972.39" x2="2779.92" y2="1972.39" style="stroke:#A0A0A0;stroke-width:7.34"/>
	<line x1="2800.09" y1="1972.39" x2="2803.06" y2="1972.39" style="stroke:#A0A0A0;stroke-width:7.34"/>
	<line x1="2823.23" y1="1972.39" x2="2826.08" y2="1972.39" style="stroke:#A0A0A0;stroke-width:7.34"/>
	<line x1="2846.25" y1="1972.39" x2="2849.10" y2="1972.39" style="stroke:#A0A0A0;stroke-width:7.34"/>
	<line x1="2869.27" y1="1972.39" x2="2872.11" y2="1972.39" style="stroke:#A0A0A0;stroke-width:7.34"/>
	<line x1="2892.28" y1="1972.39" x2="2895.13" y2="1972.39" style="stroke:#A0A0A0;stroke-width:7.34"/>
	<line x1="2915.30" y1="1972.39" x2="2918.15" y2="1972.39" style="stroke:#A0A0A0;stroke-width:7.34"/>
	<line x1="2938.32" y1="1972.39" x2="2941.17" y2="1972.39" style="stroke:#A0A0A0;stroke-width:7.34"/>
	<line x1="2961.34" y1="1972.39" x2="2964.18" y2="1972.39" style="stroke:#A0A0A0;stroke-width:7.34"/>
	<line x1="2984.36" y1="1972.39" x2="2986.09" y2="1972.39" style="stroke:#A0A0A0;stroke-width:7.34"/>
	<line x1="2986.09" y1="1972.39" x2="2987.20" y2="1972.39" style="stroke:#A0A0A0;stroke-width:7.34"/>
	<line x1="3007.37" y1="1972.39" x2="3010.22" y2="1972.39" style="stroke:#A0A0A0;stroke-width:7.34"/>
	<line x1="3030.39" y1="1972.39" x2="3033.36" y2="1972.39" style="stroke:#A0A0A0;stroke-width:7.34"/>
	<line x1="3053.41" y1="1972.39" x2="3056.38" y2="1972.39" style="stroke:#A0A0A0;stroke-width:7.34"/>
	<line x1="3076.55" y1="1972.39" x2="3079.39" y2="1972.39" style="stroke:#A0A0A0;stroke-width:7.34"/>
	<line x1="3099.57" y1="1972.39" x2="3102.41" y2="1972.39" style="stroke:#A0A0A0;stroke-width:7.34"/>
	<line x1="3122.58" y1="1972.39" x2="3125.43" y2="1972.39" style="stroke:#A0A0A0;stroke-width:7.34"/>
	<line x1="3145.60" y1="1972.39" x2="3148.45" y2="1972.39" style="stroke:#A0A0A0;stroke-width:7.34"/>
	<line x1="3168.62" y1="1972.39" x2="3171.47" y2="1972.39" style="stroke:#A0A0A0;stroke-width:7.34"/>
	<line x1="3191.64" y1="1972.39" x2="3194.48" y2="1972.39" style="stroke:#A0A0A0;stroke-width:7.34"/>
	<line x1="3214.65" y1="1972.39" x2="3217.50" y2="1972.39" style="stroke:#A0A0A0;stroke-width:7.34"/>
	<line x1="3237.67" y1="1972.39" x2="3239.16" y2="1972.39" style="stroke:#A0A0A0;stroke-width:7.34"/>
	<line x1="3239.16" y1="1972.39" x2="3240.52" y2="1972.39" style="stroke:#A0A0A0;stroke-width:7.34"/>
	<line x1="3260.69" y1="1972.39" x2="3263.53" y2="1972.39" style="stroke:#A0A0A0;stroke-width:7.34"/>
	<line x1="3283.71" y1="1972.39" x2="3286.68" y2="1972.39" style="stroke:#A0A0A0;stroke-width:7.34"/>
	<line x1="3306.72" y1="1972.39" x2="3309.69" y2="1972.39" style="stroke:#A0A0A0;stroke-width:7.34"/>
	<line x1="3329.86" y1="1972.39" x2="3332.71" y2="1972.39" style="stroke:#A0A0A0;stroke-width:7.34"/>
	<line x1="3352.88" y1="1972.39" x2="3355.73" y2="1972.39" style="stroke:#A0A0A0;stroke-width:7.34"/>
	<line x1="3375.90" y1="1972.39" x2="3378.75" y2="1972.39" style="stroke:#A0A0A0;stroke-width:7.34"/>
	<line x1="3398.92" y1="1972.39" x2="3401.76" y2="1972.39" style="stroke:#A0A0A0;stroke-width:7.34"/>
	<line x1="3421.93" y1="1972.39" x2="3424.78" y2="1972.39" style="stroke:#A0A0A0;stroke-width:7.34"/>
	<line x1="3444.95" y1="1972.39" x2="3447.80" y2="1972.39" style="stroke:#A0A0A0;stroke-width:7.34"/>
	<line x1="3467.97" y1="1972.39" x2="3470.82" y2="1972.39" style="stroke:#A0A0A0;stroke-width:7.34"/>
	<line x1="3490.99" y1="1972.39" x2="3492.22" y2="1972.39" style="stroke:#A0A0A0;stroke-width:7.34"/>
	<line x1="3492.22" y1="1972.39" x2="3493.83" y2="1972.39" style="stroke:#A0A0A0;stroke-width:7.34"/>
	<line x1="3514.01" y1="1972.39" x2="3516.85" y2="1972.39" style="stroke:#A0A0A0;stroke-width:7.34"/>
	<line x1="3537.02" y1="1972.39" x2="3539.99" y2="1972.39" style="stroke:#A0A0A0;stroke-width:7.34"/>
	<line x1="3560.04" y1="1972.39" x2="3563.01" y2="1972.39" style="stroke:#A0A0A0;stroke-width:7.34"/>
	<line x1="3583.18" y1="1972.39" x2="3586.03" y2="1972.39" style="stroke:#A0A0A0;stroke-width:7.34"/>
	<line x1="3606.20" y1="1972.39" x2="3609.05" y2="1972.39" style="stroke:#A0A0A0;stroke-width:7.34"/>
	<line x1="3629.22" y1="1972.39" x2="3632.06" y2="1972.39" style="stroke:#A0A0A0;stroke-width:7.34"/>
	<line x1="3652.23" y1="1972.39" x2="3655.08" y2="1972.39" style="stroke:#A0A0A0;stroke-width:7.34"/>
	<line x1="3675.25" y1="1972.39" x2="3678.10" y2="1972.39" style="stroke:#A0A0A0;stroke-width:7.34"/>
	<line x1="3698.27" y1="1972.39" x2="3701.11" y2="1972.39" style="stroke:#A0A0A0;stroke-width:7.34"/>
	<line x1="3721.29" y1="1972.39" x2="3724.13" y2="1972.39" style="stroke:#A0A0A0;stroke-width:7.34"/>
	<line x1="3744.30" y1="1972.39" x2="3745.29" y2="1972.39" style="stroke:#A0A0A0;stroke-width:7.34"/>
	<line x1="3745.29" y1="1972.39" x2="3747.15" y2="1972.39" style="stroke:#A0A0A0;stroke-width:7.34"/>
	<line x1="3767.32" y1="1972.39" x2="3770.17" y2="1972.39" style="stroke:#A0A0A0;stroke-width:7.34"/>
	<path d="" stroke-linejoin="round" style="fill:none;stroke:#A0A0A0;stroke-width:7.34"/>
	<path d=" M2201.39 2041.82 L2226.76 2041.82 L2252.13 2041.69 L2277.37 2041.57 L2302.74 2041.44 L2327.99 2041.20 L2353.35 2041.07 L2378.60 2040.83 L2403.97 2040.45 L2429.21 2040.21 L2454.58 2039.83 L2479.83 2039.34 L2505.20 2038.84 L2530.44 2038.23 L2555.81 2037.48 L2581.05 2036.74 L2606.42 2035.75 L2631.67 2034.76 L2657.04 2033.65 L2682.28 2032.29 L2707.65 2030.92 L2732.89 2029.32 L2758.26 2027.71 L2783.51 2025.85 L2808.88 2023.87 L2834.12 2021.77 L2859.49 2019.66 L2884.74 2017.31 L2910.11 2014.71 L2935.35 2012.11 L2960.72 2009.27 L2986.09 2006.30 L3011.33 2003.08 L3036.70 1999.61 L3061.95 1995.90 L3087.32 1991.82 L3112.56 1987.49 L3137.93 1982.66 L3163.17 1977.46 L3188.54 1971.65 L3213.79 1965.21 L3239.16 1958.03 L3264.40 1949.99 L3289.77 1941.08 L3315.01 1931.18 L3340.38 1920.04 L3365.63 1907.67 L3391.00 1893.93 L3416.24 1878.46 L3441.61 1861.26 L3466.86 1842.08 L3492.22 1820.54 L3517.47 1796.53 L3542.84 1769.68 L3568.08 1739.73 L3593.45 1706.07 L3618.70 1668.57 L3644.07 1626.74 L3669.31 1579.84 L3694.68 1527.49 L3719.93 1469.08 L3745.29 1403.74 L3770.66 1330.97" stroke-linejoin="round" style="fill:none;stroke:#008000;stroke-width:7.34"/>
	<path d=" M2201.39 2041.57 L2226.76 2041.32 L2252.13 2041.20 L2277.37 2040.95 L2302.74 2040.70 L2327.99 2040.45 L2353.35 2040.08 L2378.60 2039.71 L2403.97 2039.09 L2429.21 2038.60 L2454.58 2037.85 L2479.83 2037.11 L2505.20 2036.12 L2530.44 2035.13 L2555.81 2033.89 L2581.05 2032.53 L2606.42 2030.92 L2631.67 2029.07 L2657.04 2027.09 L2682.28 2024.86 L2707.65 2022.39 L2732.89 2019.66 L2758.26 2016.69 L2783.51 2013.48 L2808.88 2010.13 L2834.12 2006.42 L2859.49 2002.59 L2884.74 1998.50 L2910.11 1994.17 L2935.35 1989.47 L2960.72 1984.52 L2986.09 1979.32 L3011.33 1973.63 L3036.70 1967.56 L3061.95 1961.13 L3087.32 1954.07 L3112.56 1946.40 L3137.93 1938.11 L3163.17 1928.95 L3188.54 1918.80 L3213.79 1907.54 L3239.16 1894.92 L3264.40 1880.94 L3289.77 1865.47 L3315.01 1848.02 L3340.38 1828.71 L3365.63 1807.05 L3391.00 1782.92 L3416.24 1756.07 L3441.61 1726.00 L3466.86 1692.33 L3492.22 1654.84 L3517.47 1612.88 L3542.84 1565.98 L3568.08 1513.51 L3593.45 1454.97 L3618.70 1389.38 L3644.07 1316.25 L3669.31 1234.44 L3694.68 1142.99 L3719.93 1041.02 L3745.29 927.04 L3770.66 799.94" stroke-linejoin="round" style="fill:none;stroke:#FF7F00;stroke-width:7.34"/>
	<path d=" M2201.39 2042.06 L2226.76 2042.06 L2252.13 2042.06 L2277.37 2041.94 L2302.74 2041.94 L2327.99 2041.82 L2353.35 2041.69 L2378.60 2041.57 L2403.97 2041.44 L2429.21 2041.32 L2454.58 2041.20 L2479.83 2040.95 L2505.20 2040.70 L2530.44 2040.33 L2555.81 2040.08 L2581.05 2039.71 L2606.42 2039.22 L2631.67 2038.72 L2657.04 2038.23 L2682.28 2037.61 L2707.65 2036.99 L2732.89 2036.25 L2758.26 2035.38 L2783.51 2034.51 L2808.88 2033.65 L2834.12 2032.66 L2859.49 2031.67 L2884.74 2030.55 L2910.11 2029.32 L2935.35 2028.08 L2960.72 2026.72 L2986.09 2025.36 L3011.33 2023.87 L3036.70 2022.14 L3061.95 2020.41 L3087.32 2018.55 L3112.56 2016.45 L3137.93 2014.22 L3163.17 2011.74 L3188.54 2009.02 L3213.79 2005.93 L3239.16 2002.59 L3264.40 1998.87 L3289.77 1994.66 L3315.01 1989.96 L3340.38 1984.76 L3365.63 1978.95 L3391.00 1972.39 L3416.24 1965.09 L3441.61 1957.04 L3466.86 1948.01 L3492.22 1937.86 L3517.47 1926.48 L3542.84 1913.85 L3568.08 1899.75 L3593.45 1883.91 L3618.70 1866.21 L3644.07 1846.41 L3669.31 1824.38 L3694.68 1799.63 L3719.93 1772.03 L3745.29 1741.34 L3770.66 1706.94" stroke-linejoin="round" style="fill:none;stroke:#1A476F;stroke-width:7.34"/>
	<line x1="401.69" y1="2096.14" x2="401.69" y2="402.82" style="stroke:#000000;stroke-width:4.90"/>
	<line x1="401.69" y1="2042.31" x2="367.66" y2="2042.31" style="stroke:#000000;stroke-width:4.90"/>
	<text x="350.71" y="2072.10" style="font-family:'Helvetica';font-size:85.02px;fill:#000000" text-anchor="end">0</text>
	<line x1="401.69" y1="1725.13" x2="367.66" y2="1725.13" style="stroke:#000000;stroke-width:4.90"/>
	<text x="350.71" y="1754.92" style="font-family:'Helvetica';font-size:85.02px;fill:#000000" text-anchor="end">.001</text>
	<line x1="401.69" y1="1408.07" x2="367.66" y2="1408.07" style="stroke:#000000;stroke-width:4.90"/>
	<text x="350.71" y="1437.86" style="font-family:'Helvetica';font-size:85.02px;fill:#000000" text-anchor="end">.002</text>
	<line x1="401.69" y1="1090.89" x2="367.66" y2="1090.89" style="stroke:#000000;stroke-width:4.90"/>
	<text x="350.71" y="1120.68" style="font-family:'Helvetica';font-size:85.02px;fill:#000000" text-anchor="end">.003</text>
	<line x1="401.69" y1="773.83" x2="367.66" y2="773.83" style="stroke:#000000;stroke-width:4.90"/>
	<text x="350.71" y="803.62" style="font-family:'Helvetica';font-size:85.02px;fill:#000000" text-anchor="end">.004</text>
	<line x1="401.69" y1="456.65" x2="367.66" y2="456.65" style="stroke:#000000;stroke-width:4.90"/>
	<text x="350.71" y="486.44" style="font-family:'Helvetica';font-size:85.02px;fill:#000000" text-anchor="end">.005</text>
	<line x1="401.69" y1="2096.14" x2="2078.51" y2="2096.14" style="stroke:#000000;stroke-width:4.90"/>
	<line x1="506.14" y1="2096.14" x2="506.14" y2="2113.10" style="stroke:#000000;stroke-width:4.90"/>
	<line x1="632.73" y1="2096.14" x2="632.73" y2="2113.10" style="stroke:#000000;stroke-width:4.90"/>
	<line x1="759.21" y1="2096.14" x2="759.21" y2="2113.10" style="stroke:#000000;stroke-width:4.90"/>
	<line x1="885.80" y1="2096.14" x2="885.80" y2="2113.10" style="stroke:#000000;stroke-width:4.90"/>
	<line x1="1012.27" y1="2096.14" x2="1012.27" y2="2113.10" style="stroke:#000000;stroke-width:4.90"/>
	<line x1="1138.87" y1="2096.14" x2="1138.87" y2="2113.10" style="stroke:#000000;stroke-width:4.90"/>
	<line x1="1265.47" y1="2096.14" x2="1265.47" y2="2113.10" style="stroke:#000000;stroke-width:4.90"/>
	<line x1="1391.94" y1="2096.14" x2="1391.94" y2="2113.10" style="stroke:#000000;stroke-width:4.90"/>
	<line x1="1518.54" y1="2096.14" x2="1518.54" y2="2113.10" style="stroke:#000000;stroke-width:4.90"/>
	<line x1="1645.01" y1="2096.14" x2="1645.01" y2="2113.10" style="stroke:#000000;stroke-width:4.90"/>
	<line x1="1771.61" y1="2096.14" x2="1771.61" y2="2113.10" style="stroke:#000000;stroke-width:4.90"/>
	<line x1="1898.20" y1="2096.14" x2="1898.20" y2="2113.10" style="stroke:#000000;stroke-width:4.90"/>
	<line x1="2024.67" y1="2096.14" x2="2024.67" y2="2113.10" style="stroke:#000000;stroke-width:4.90"/>
	<line x1="506.14" y1="2096.14" x2="506.14" y2="2130.18" style="stroke:#000000;stroke-width:4.90"/>
	<text x="506.14" y="2206.58" style="font-family:'Helvetica';font-size:85.02px;fill:#000000" text-anchor="middle">20</text>
	<line x1="1012.27" y1="2096.14" x2="1012.27" y2="2130.18" style="stroke:#000000;stroke-width:4.90"/>
	<text x="1012.27" y="2206.58" style="font-family:'Helvetica';font-size:85.02px;fill:#000000" text-anchor="middle">40</text>
	<line x1="1518.54" y1="2096.14" x2="1518.54" y2="2130.18" style="stroke:#000000;stroke-width:4.90"/>
	<text x="1518.54" y="2206.58" style="font-family:'Helvetica';font-size:85.02px;fill:#000000" text-anchor="middle">60</text>
	<line x1="2024.67" y1="2096.14" x2="2024.67" y2="2130.18" style="stroke:#000000;stroke-width:4.90"/>
	<text x="2024.67" y="2206.58" style="font-family:'Helvetica';font-size:85.02px;fill:#000000" text-anchor="middle">80</text>
	<line x1="2147.68" y1="2096.14" x2="3824.49" y2="2096.14" style="stroke:#000000;stroke-width:4.90"/>
	<line x1="2252.13" y1="2096.14" x2="2252.13" y2="2113.10" style="stroke:#000000;stroke-width:4.90"/>
	<line x1="2378.72" y1="2096.14" x2="2378.72" y2="2113.10" style="stroke:#000000;stroke-width:4.90"/>
	<line x1="2505.20" y1="2096.14" x2="2505.20" y2="2113.10" style="stroke:#000000;stroke-width:4.90"/>
	<line x1="2631.79" y1="2096.14" x2="2631.79" y2="2113.10" style="stroke:#000000;stroke-width:4.90"/>
	<line x1="2758.26" y1="2096.14" x2="2758.26" y2="2113.10" style="stroke:#000000;stroke-width:4.90"/>
	<line x1="2884.86" y1="2096.14" x2="2884.86" y2="2113.10" style="stroke:#000000;stroke-width:4.90"/>
	<line x1="3011.46" y1="2096.14" x2="3011.46" y2="2113.10" style="stroke:#000000;stroke-width:4.90"/>
	<line x1="3137.93" y1="2096.14" x2="3137.93" y2="2113.10" style="stroke:#000000;stroke-width:4.90"/>
	<line x1="3264.53" y1="2096.14" x2="3264.53" y2="2113.10" style="stroke:#000000;stroke-width:4.90"/>
	<line x1="3391.00" y1="2096.14" x2="3391.00" y2="2113.10" style="stroke:#000000;stroke-width:4.90"/>
	<line x1="3517.59" y1="2096.14" x2="3517.59" y2="2113.10" style="stroke:#000000;stroke-width:4.90"/>
	<line x1="3644.07" y1="2096.14" x2="3644.07" y2="2113.10" style="stroke:#000000;stroke-width:4.90"/>
	<line x1="3770.66" y1="2096.14" x2="3770.66" y2="2113.10" style="stroke:#000000;stroke-width:4.90"/>
	<line x1="2252.13" y1="2096.14" x2="2252.13" y2="2130.18" style="stroke:#000000;stroke-width:4.90"/>
	<text x="2252.13" y="2206.58" style="font-family:'Helvetica';font-size:85.02px;fill:#000000" text-anchor="middle">20</text>
	<line x1="2758.26" y1="2096.14" x2="2758.26" y2="2130.18" style="stroke:#000000;stroke-width:4.90"/>
	<text x="2758.26" y="2206.58" style="font-family:'Helvetica';font-size:85.02px;fill:#000000" text-anchor="middle">40</text>
	<line x1="3264.53" y1="2096.14" x2="3264.53" y2="2130.18" style="stroke:#000000;stroke-width:4.90"/>
	<text x="3264.53" y="2206.58" style="font-family:'Helvetica';font-size:85.02px;fill:#000000" text-anchor="middle">60</text>
	<line x1="3770.66" y1="2096.14" x2="3770.66" y2="2130.18" style="stroke:#000000;stroke-width:4.90"/>
	<text x="3770.66" y="2206.58" style="font-family:'Helvetica';font-size:85.02px;fill:#000000" text-anchor="middle">80</text>
	<rect x="401.69" y="279.93" width="1676.81" height="122.89" style="fill:#D9E6EB"/>
	<rect x="404.14" y="282.38" width="1671.92" height="117.99" style="fill:none;stroke:#D9E6EB;stroke-width:4.90"/>
	<text x="1240.10" y="359.96" style="font-family:'Helvetica';font-size:93.56px;fill:#000000" text-anchor="middle">Female</text>
	<rect x="2147.68" y="279.93" width="1676.81" height="122.89" style="fill:#D9E6EB"/>
	<rect x="2150.13" y="282.38" width="1671.92" height="117.99" style="fill:none;stroke:#D9E6EB;stroke-width:4.90"/>
	<text x="2986.09" y="359.96" style="font-family:'Helvetica';font-size:93.56px;fill:#000000" text-anchor="middle">Male</text>
	<rect x="592.39" y="2418.27" width="2775.09" height="326.34" style="fill:#FFFFFF"/>
	<rect x="595.27" y="2421.15" width="2769.33" height="320.58" style="fill:none;stroke:#000000;stroke-width:5.76"/>
	<line x1="635.58" y1="2511.46" x2="1009.92" y2="2511.46" style="stroke:#008000;stroke-width:8.64"/>
	<line x1="635.58" y1="2651.43" x2="1009.92" y2="2651.43" style="stroke:#FF7F00;stroke-width:8.64"/>
	<line x1="1971.21" y1="2511.46" x2="2345.56" y2="2511.46" style="stroke:#1A476F;stroke-width:8.64"/>
	<line x1="1971.21" y1="2651.43" x2="1974.06" y2="2651.43" style="stroke:#A0A0A0;stroke-width:8.64"/>
	<line x1="1994.23" y1="2651.43" x2="1997.08" y2="2651.43" style="stroke:#A0A0A0;stroke-width:8.64"/>
	<line x1="2017.25" y1="2651.43" x2="2020.10" y2="2651.43" style="stroke:#A0A0A0;stroke-width:8.64"/>
	<line x1="2040.27" y1="2651.43" x2="2043.24" y2="2651.43" style="stroke:#A0A0A0;stroke-width:8.64"/>
	<line x1="2063.28" y1="2651.43" x2="2066.25" y2="2651.43" style="stroke:#A0A0A0;stroke-width:8.64"/>
	<line x1="2086.43" y1="2651.43" x2="2089.27" y2="2651.43" style="stroke:#A0A0A0;stroke-width:8.64"/>
	<line x1="2109.44" y1="2651.43" x2="2112.29" y2="2651.43" style="stroke:#A0A0A0;stroke-width:8.64"/>
	<line x1="2132.46" y1="2651.43" x2="2135.31" y2="2651.43" style="stroke:#A0A0A0;stroke-width:8.64"/>
	<line x1="2155.48" y1="2651.43" x2="2158.32" y2="2651.43" style="stroke:#A0A0A0;stroke-width:8.64"/>
	<line x1="2178.49" y1="2651.43" x2="2181.34" y2="2651.43" style="stroke:#A0A0A0;stroke-width:8.64"/>
	<line x1="2201.51" y1="2651.43" x2="2204.36" y2="2651.43" style="stroke:#A0A0A0;stroke-width:8.64"/>
	<line x1="2224.53" y1="2651.43" x2="2227.38" y2="2651.43" style="stroke:#A0A0A0;stroke-width:8.64"/>
	<line x1="2247.55" y1="2651.43" x2="2250.39" y2="2651.43" style="stroke:#A0A0A0;stroke-width:8.64"/>
	<line x1="2270.57" y1="2651.43" x2="2273.41" y2="2651.43" style="stroke:#A0A0A0;stroke-width:8.64"/>
	<line x1="2293.58" y1="2651.43" x2="2296.55" y2="2651.43" style="stroke:#A0A0A0;stroke-width:8.64"/>
	<line x1="2316.60" y1="2651.43" x2="2319.57" y2="2651.43" style="stroke:#A0A0A0;stroke-width:8.64"/>
	<line x1="2339.74" y1="2651.43" x2="2342.59" y2="2651.43" style="stroke:#A0A0A0;stroke-width:8.64"/>
	<text x="1069.94" y="2546.49" style="font-family:'Helvetica';font-size:99.99px;fill:#000000">1 comorbidity</text>
	<text x="1069.94" y="2686.46" style="font-family:'Helvetica';font-size:99.99px;fill:#000000">2+ comorbidities</text>
	<text x="2405.58" y="2546.49" style="font-family:'Helvetica';font-size:99.99px;fill:#000000">No comborbidity</text>
	<text x="2405.58" y="2686.46" style="font-family:'Helvetica';font-size:99.99px;fill:#000000">Ref (Age 65, White)</text>
	<text x="1980.00" y="2353.56" style="font-family:'Helvetica';font-size:99.99px;fill:#000000" text-anchor="middle">Age (years)</text>
	<text x="1980.00" y="195.01" style="font-family:'Helvetica';font-size:110.01px;fill:#000000" text-anchor="middle">Ethnicity White</text>
</svg>
