<?xml version="1.0" encoding="UTF-8" standalone="no"?>
<!-- This is a Stata 16.1 generated SVG file (http://www.stata.com) -->

<svg version="1.1" width="1600px" height="1164px" viewBox="0 0 3960 2880" xmlns="http://www.w3.org/2000/svg" xmlns:xlink="http://www.w3.org/1999/xlink">
	<desc>Stata Graph - Graph</desc>
	<rect x="0" y="0" width="3960" height="2880" style="fill:#EAF2F3;stroke:none"/>
	<rect x="0.00" y="0.00" width="3959.88" height="2880.00" style="fill:#EAF2F3"/>
	<rect x="2.88" y="2.88" width="3954.12" height="2874.24" style="fill:none;stroke:#EAF2F3;stroke-width:5.76"/>
	<rect x="401.69" y="258.27" width="1676.81" height="1837.87" style="fill:#FFFFFF"/>
	<rect x="404.14" y="260.72" width="1671.92" height="1832.97" style="fill:none;stroke:#FFFFFF;stroke-width:4.90"/>
	<line x1="401.69" y1="2042.31" x2="2078.51" y2="2042.31" style="stroke:#EAF2F3;stroke-width:7.34"/>
	<line x1="401.69" y1="1696.29" x2="2078.51" y2="1696.29" style="stroke:#EAF2F3;stroke-width:7.34"/>
	<line x1="401.69" y1="1350.15" x2="2078.51" y2="1350.15" style="stroke:#EAF2F3;stroke-width:7.34"/>
	<line x1="401.69" y1="1004.14" x2="2078.51" y2="1004.14" style="stroke:#EAF2F3;stroke-width:7.34"/>
	<line x1="401.69" y1="658.12" x2="2078.51" y2="658.12" style="stroke:#EAF2F3;stroke-width:7.34"/>
	<rect x="2147.68" y="258.27" width="1676.81" height="1837.87" style="fill:#FFFFFF"/>
	<rect x="2150.13" y="260.72" width="1671.92" height="1832.97" style="fill:none;stroke:#FFFFFF;stroke-width:4.90"/>
	<line x1="2147.68" y1="2042.31" x2="3824.49" y2="2042.31" style="stroke:#EAF2F3;stroke-width:7.34"/>
	<line x1="2147.68" y1="1696.29" x2="3824.49" y2="1696.29" style="stroke:#EAF2F3;stroke-width:7.34"/>
	<line x1="2147.68" y1="1350.15" x2="3824.49" y2="1350.15" style="stroke:#EAF2F3;stroke-width:7.34"/>
	<line x1="2147.68" y1="1004.14" x2="3824.49" y2="1004.14" style="stroke:#EAF2F3;stroke-width:7.34"/>
	<line x1="2147.68" y1="658.12" x2="3824.49" y2="658.12" style="stroke:#EAF2F3;stroke-width:7.34"/>
	<defs>
		<path id="path_wgsJBAlE" d="M455.52 2042.19 L455.52 2042.19 L480.89 2042.19 L506.14 2042.19 L531.51 2042.19 L556.75 2042.06 L582.12 2042.06 L607.37 2042.06 L632.73 2041.94 L657.98 2041.94 L683.35 2041.82 L708.59 2041.69 L733.96 2041.57 L759.21 2041.44 L784.58 2041.32 L809.82 2041.07 L835.19 2040.83 L860.43 2040.58 L885.80 2040.33 L911.05 2039.96 L936.42 2039.59 L961.66 2039.22 L987.03 2038.72 L1012.27 2038.23 L1037.64 2037.73 L1062.89 2037.11 L1088.26 2036.49 L1113.50 2035.75 L1138.87 2035.01 L1164.24 2034.14 L1189.48 2033.28 L1214.85 2032.29 L1240.10 2031.17 L1265.47 2029.93 L1290.71 2028.57 L1316.08 2027.21 L1341.33 2025.60 L1366.69 2023.87 L1391.94 2022.01 L1417.31 2019.91 L1442.55 2017.56 L1467.92 2015.08 L1493.17 2012.24 L1518.54 2009.14 L1543.78 2005.68 L1569.15 2001.84 L1594.39 1997.51 L1619.76 1992.68 L1645.01 1987.49 L1670.38 1981.55 L1695.62 1974.99 L1720.99 1967.56 L1746.24 1959.39 L1771.61 1950.24 L1796.85 1940.09 L1822.22 1928.70 L1847.46 1916.08 L1872.83 1901.85 L1898.20 1886.13 L1923.45 1868.56 L1948.82 1849.01 L1974.06 1827.10 L1999.43 1802.85 L2024.67 1775.87 L2024.67 1716.34 L1999.43 1749.51 L1974.06 1779.09 L1948.82 1805.82 L1923.45 1829.58 L1898.20 1850.99 L1872.83 1870.29 L1847.46 1887.49 L1822.22 1902.96 L1796.85 1916.82 L1771.61 1929.32 L1746.24 1940.46 L1720.99 1950.48 L1695.62 1959.52 L1670.38 1967.56 L1645.01 1974.86 L1619.76 1981.30 L1594.39 1987.24 L1569.15 1992.44 L1543.78 1997.14 L1518.54 2001.35 L1493.17 2005.18 L1467.92 2008.53 L1442.55 2011.62 L1417.31 2014.34 L1391.94 2016.82 L1366.69 2019.04 L1341.33 2021.02 L1316.08 2022.88 L1290.71 2024.61 L1265.47 2026.10 L1240.10 2027.58 L1214.85 2028.82 L1189.48 2030.06 L1164.24 2031.30 L1138.87 2032.29 L1113.50 2033.28 L1088.26 2034.27 L1062.89 2035.01 L1037.64 2035.87 L1012.27 2036.49 L987.03 2037.24 L961.66 2037.73 L936.42 2038.23 L911.05 2038.72 L885.80 2039.09 L860.43 2039.46 L835.19 2039.83 L809.82 2040.08 L784.58 2040.33 L759.21 2040.58 L733.96 2040.70 L708.59 2040.95 L683.35 2041.07 L657.98 2041.20 L632.73 2041.32 L607.37 2041.44 L582.12 2041.44 L556.75 2041.57 L531.51 2041.69 L506.14 2041.69 L480.89 2041.82 L455.52 2041.82 L455.52 2042.19 Z" stroke-linejoin="round"/>
	</defs>
	<defs>
		<clipPath id="clipPath_fBfKWLDw">
			<use xlink:href="#path_wgsJBAlE"/>
		</clipPath>
	</defs>
	<use xlink:href="#path_wgsJBAlE" style="stroke:none;fill:#E6E6E6"/>
	<use xlink:href="#path_wgsJBAlE" style="fill:none;stroke:#E0E0E0;stroke-width:14.69" clip-path="url(#clipPath_fBfKWLDw)"/>
	<defs>
		<path id="path_EOAOzbiC" d="M455.52 2042.19 L455.52 2042.19 L480.89 2042.19 L506.14 2042.06 L531.51 2042.06 L556.75 2042.06 L582.12 2041.94 L607.37 2041.82 L632.73 2041.82 L657.98 2041.69 L683.35 2041.57 L708.59 2041.32 L733.96 2041.20 L759.21 2040.95 L784.58 2040.70 L809.82 2040.33 L835.19 2039.96 L860.43 2039.46 L885.80 2038.97 L911.05 2038.47 L936.42 2037.85 L961.66 2037.11 L987.03 2036.37 L1012.27 2035.63 L1037.64 2034.76 L1062.89 2033.77 L1088.26 2032.66 L1113.50 2031.54 L1138.87 2030.31 L1164.24 2028.94 L1189.48 2027.34 L1214.85 2025.73 L1240.10 2023.99 L1265.47 2022.01 L1290.71 2019.79 L1316.08 2017.44 L1341.33 2014.84 L1366.69 2011.99 L1391.94 2008.90 L1417.31 2005.43 L1442.55 2001.72 L1467.92 1997.51 L1493.17 1992.93 L1518.54 1987.73 L1543.78 1982.04 L1569.15 1975.73 L1594.39 1968.68 L1619.76 1960.76 L1645.01 1952.09 L1670.38 1942.32 L1695.62 1931.55 L1720.99 1919.42 L1746.24 1905.93 L1771.61 1890.84 L1796.85 1874.13 L1822.22 1855.44 L1847.46 1834.53 L1872.83 1811.26 L1898.20 1785.27 L1923.45 1756.44 L1948.82 1724.14 L1974.06 1688.25 L1999.43 1648.28 L2024.67 1603.85 L2024.67 1492.22 L1999.43 1548.04 L1974.06 1598.03 L1948.82 1642.96 L1923.45 1683.30 L1898.20 1719.44 L1872.83 1751.86 L1847.46 1780.94 L1822.22 1807.05 L1796.85 1830.44 L1771.61 1851.48 L1746.24 1870.29 L1720.99 1887.25 L1695.62 1902.47 L1670.38 1916.08 L1645.01 1928.33 L1619.76 1939.35 L1594.39 1949.25 L1569.15 1958.03 L1543.78 1965.95 L1518.54 1973.13 L1493.17 1979.57 L1467.92 1985.26 L1442.55 1990.46 L1417.31 1995.04 L1391.94 1999.24 L1366.69 2002.96 L1341.33 2006.42 L1316.08 2009.52 L1290.71 2012.36 L1265.47 2014.96 L1240.10 2017.44 L1214.85 2019.66 L1189.48 2021.77 L1164.24 2023.62 L1138.87 2025.48 L1113.50 2027.09 L1088.26 2028.70 L1062.89 2030.06 L1037.64 2031.42 L1012.27 2032.66 L987.03 2033.65 L961.66 2034.64 L936.42 2035.50 L911.05 2036.37 L885.80 2036.99 L860.43 2037.61 L835.19 2038.10 L809.82 2038.60 L784.58 2038.97 L759.21 2039.34 L733.96 2039.71 L708.59 2039.96 L683.35 2040.21 L657.98 2040.45 L632.73 2040.58 L607.37 2040.83 L582.12 2040.95 L556.75 2041.07 L531.51 2041.20 L506.14 2041.32 L480.89 2041.44 L455.52 2041.57 L455.52 2042.19 Z" stroke-linejoin="round"/>
	</defs>
	<defs>
		<clipPath id="clipPath_uZwcpmcG">
			<use xlink:href="#path_EOAOzbiC"/>
		</clipPath>
	</defs>
	<use xlink:href="#path_EOAOzbiC" style="stroke:none;fill:#E6E6E6"/>
	<use xlink:href="#path_EOAOzbiC" style="fill:none;stroke:#E0E0E0;stroke-width:14.69" clip-path="url(#clipPath_uZwcpmcG)"/>
	<defs>
		<path id="path_sLbQeXkm" d="M455.52 2042.19 L455.52 2042.19 L480.89 2042.19 L506.14 2042.19 L531.51 2042.19 L556.75 2042.19 L582.12 2042.06 L607.37 2042.06 L632.73 2041.94 L657.98 2041.94 L683.35 2041.82 L708.59 2041.82 L733.96 2041.69 L759.21 2041.57 L784.58 2041.32 L809.82 2041.20 L835.19 2040.95 L860.43 2040.70 L885.80 2040.45 L911.05 2040.08 L936.42 2039.83 L961.66 2039.34 L987.03 2038.97 L1012.27 2038.47 L1037.64 2037.98 L1062.89 2037.48 L1088.26 2036.86 L1113.50 2036.25 L1138.87 2035.50 L1164.24 2034.76 L1189.48 2033.89 L1214.85 2032.90 L1240.10 2031.91 L1265.47 2030.80 L1290.71 2029.56 L1316.08 2028.33 L1341.33 2026.84 L1366.69 2025.23 L1391.94 2023.50 L1417.31 2021.64 L1442.55 2019.42 L1467.92 2017.06 L1493.17 2014.47 L1518.54 2011.62 L1543.78 2008.40 L1569.15 2004.94 L1594.39 2000.98 L1619.76 1996.52 L1645.01 1991.69 L1670.38 1986.25 L1695.62 1980.19 L1720.99 1973.38 L1746.24 1965.83 L1771.61 1957.41 L1796.85 1948.01 L1822.22 1937.49 L1847.46 1925.86 L1872.83 1912.74 L1898.20 1898.26 L1923.45 1882.05 L1948.82 1863.98 L1974.06 1843.93 L1999.43 1821.53 L2024.67 1796.66 L2024.67 1730.45 L1999.43 1762.13 L1974.06 1790.47 L1948.82 1815.96 L1923.45 1838.86 L1898.20 1859.28 L1872.83 1877.72 L1847.46 1894.18 L1822.22 1909.03 L1796.85 1922.27 L1771.61 1934.27 L1746.24 1944.92 L1720.99 1954.57 L1695.62 1963.11 L1670.38 1970.90 L1645.01 1977.83 L1619.76 1984.02 L1594.39 1989.59 L1569.15 1994.66 L1543.78 1999.12 L1518.54 2003.20 L1493.17 2006.79 L1467.92 2010.13 L1442.55 2012.98 L1417.31 2015.58 L1391.94 2017.93 L1366.69 2020.16 L1341.33 2022.01 L1316.08 2023.75 L1290.71 2025.36 L1265.47 2026.84 L1240.10 2028.20 L1214.85 2029.56 L1189.48 2030.68 L1164.24 2031.79 L1138.87 2032.78 L1113.50 2033.77 L1088.26 2034.64 L1062.89 2035.38 L1037.64 2036.12 L1012.27 2036.86 L987.03 2037.48 L961.66 2037.98 L936.42 2038.47 L911.05 2038.97 L885.80 2039.34 L860.43 2039.59 L835.19 2039.96 L809.82 2040.21 L784.58 2040.45 L759.21 2040.58 L733.96 2040.83 L708.59 2040.95 L683.35 2041.07 L657.98 2041.20 L632.73 2041.32 L607.37 2041.44 L582.12 2041.57 L556.75 2041.57 L531.51 2041.69 L506.14 2041.82 L480.89 2041.82 L455.52 2041.82 L455.52 2042.19 Z" stroke-linejoin="round"/>
	</defs>
	<defs>
		<clipPath id="clipPath_OidRpFXU">
			<use xlink:href="#path_sLbQeXkm"/>
		</clipPath>
	</defs>
	<use xlink:href="#path_sLbQeXkm" style="stroke:none;fill:#E6E6E6"/>
	<use xlink:href="#path_sLbQeXkm" style="fill:none;stroke:#E0E0E0;stroke-width:14.69" clip-path="url(#clipPath_OidRpFXU)"/>
	<defs>
		<path id="path_laFAiOoC" d="M455.52 2042.19 L455.52 2042.19 L480.89 2042.19 L506.14 2042.19 L531.51 2042.19 L556.75 2042.06 L582.12 2042.06 L607.37 2042.06 L632.73 2041.94 L657.98 2041.94 L683.35 2041.82 L708.59 2041.69 L733.96 2041.57 L759.21 2041.44 L784.58 2041.20 L809.82 2041.07 L835.19 2040.83 L860.43 2040.58 L885.80 2040.21 L911.05 2039.83 L936.42 2039.46 L961.66 2039.09 L987.03 2038.60 L1012.27 2038.10 L1037.64 2037.48 L1062.89 2036.86 L1088.26 2036.25 L1113.50 2035.50 L1138.87 2034.76 L1164.24 2033.89 L1189.48 2032.90 L1214.85 2031.91 L1240.10 2030.80 L1265.47 2029.56 L1290.71 2028.20 L1316.08 2026.72 L1341.33 2025.11 L1366.69 2023.38 L1391.94 2021.52 L1417.31 2019.29 L1442.55 2017.06 L1467.92 2014.47 L1493.17 2011.50 L1518.54 2008.40 L1543.78 2004.81 L1569.15 2000.85 L1594.39 1996.52 L1619.76 1991.69 L1645.01 1986.25 L1670.38 1980.19 L1695.62 1973.50 L1720.99 1965.95 L1746.24 1957.66 L1771.61 1948.38 L1796.85 1937.99 L1822.22 1926.35 L1847.46 1913.36 L1872.83 1899.00 L1898.20 1882.92 L1923.45 1864.97 L1948.82 1845.05 L1974.06 1822.89 L1999.43 1798.02 L2024.67 1770.55 L2024.67 1668.94 L1999.43 1706.81 L1974.06 1740.85 L1948.82 1771.29 L1923.45 1798.76 L1898.20 1823.27 L1872.83 1845.29 L1847.46 1865.09 L1822.22 1882.79 L1796.85 1898.63 L1771.61 1912.99 L1746.24 1925.73 L1720.99 1937.24 L1695.62 1947.51 L1670.38 1956.80 L1645.01 1965.09 L1619.76 1972.51 L1594.39 1979.32 L1569.15 1985.26 L1543.78 1990.70 L1518.54 1995.53 L1493.17 1999.86 L1467.92 2003.82 L1442.55 2007.29 L1417.31 2010.38 L1391.94 2013.23 L1366.69 2015.83 L1341.33 2018.18 L1316.08 2020.28 L1290.71 2022.14 L1265.47 2023.99 L1240.10 2025.60 L1214.85 2027.09 L1189.48 2028.57 L1164.24 2029.81 L1138.87 2031.05 L1113.50 2032.16 L1088.26 2033.15 L1062.89 2034.14 L1037.64 2035.01 L1012.27 2035.87 L987.03 2036.62 L961.66 2037.24 L936.42 2037.85 L911.05 2038.35 L885.80 2038.72 L860.43 2039.22 L835.19 2039.46 L809.82 2039.83 L784.58 2040.08 L759.21 2040.33 L733.96 2040.58 L708.59 2040.70 L683.35 2040.95 L657.98 2041.07 L632.73 2041.20 L607.37 2041.32 L582.12 2041.44 L556.75 2041.57 L531.51 2041.57 L506.14 2041.69 L480.89 2041.69 L455.52 2041.82 L455.52 2042.19 Z" stroke-linejoin="round"/>
	</defs>
	<defs>
		<clipPath id="clipPath_QtFXABLQ">
			<use xlink:href="#path_laFAiOoC"/>
		</clipPath>
	</defs>
	<use xlink:href="#path_laFAiOoC" style="stroke:none;fill:#E6E6E6"/>
	<use xlink:href="#path_laFAiOoC" style="fill:none;stroke:#E0E0E0;stroke-width:14.69" clip-path="url(#clipPath_QtFXABLQ)"/>
	<path d=" M455.52 2042.06 L480.77 2041.94 L506.14 2041.94 L531.38 2041.82 L556.75 2041.82 L582.00 2041.69 L607.37 2041.57 L632.61 2041.44 L657.98 2041.32 L683.22 2041.07 L708.59 2040.83 L733.84 2040.58 L759.21 2040.33 L784.45 2040.08 L809.82 2039.59 L835.07 2039.22 L860.43 2038.72 L885.68 2038.23 L911.05 2037.61 L936.29 2036.86 L961.66 2036.12 L986.91 2035.26 L1012.27 2034.27 L1037.52 2033.28 L1062.89 2032.16 L1088.13 2030.92 L1113.50 2029.56 L1138.87 2028.08 L1164.12 2026.59 L1189.48 2024.86 L1214.73 2023.00 L1240.10 2021.02 L1265.34 2018.80 L1290.71 2016.45 L1315.96 2013.85 L1341.33 2011.00 L1366.57 2007.91 L1391.94 2004.44 L1417.18 2000.61 L1442.55 1996.52 L1467.80 1991.82 L1493.17 1986.62 L1518.41 1980.93 L1543.78 1974.62 L1569.03 1967.44 L1594.39 1959.52 L1619.64 1950.73 L1645.01 1940.96 L1670.25 1930.07 L1695.62 1917.81 L1720.87 1904.32 L1746.24 1889.23 L1771.48 1872.40 L1796.85 1853.59 L1822.10 1832.67 L1847.46 1809.28 L1872.71 1783.29 L1898.08 1754.33 L1923.45 1722.04 L1948.69 1685.90 L1974.06 1645.80 L1999.31 1601.13 L2024.67 1551.25" stroke-linejoin="round" style="fill:none;stroke:#FF0000;stroke-width:7.34"/>
	<path d=" M455.52 2042.19 L480.77 2042.19 L506.14 2042.06 L531.38 2042.06 L556.75 2042.06 L582.00 2041.94 L607.37 2041.94 L632.61 2041.82 L657.98 2041.69 L683.22 2041.69 L708.59 2041.57 L733.84 2041.32 L759.21 2041.20 L784.45 2041.07 L809.82 2040.83 L835.07 2040.58 L860.43 2040.33 L885.68 2039.96 L911.05 2039.59 L936.29 2039.22 L961.66 2038.84 L986.91 2038.35 L1012.27 2037.85 L1037.52 2037.24 L1062.89 2036.62 L1088.13 2035.87 L1113.50 2035.13 L1138.87 2034.27 L1164.12 2033.40 L1189.48 2032.53 L1214.73 2031.42 L1240.10 2030.31 L1265.34 2029.07 L1290.71 2027.71 L1315.96 2026.22 L1341.33 2024.61 L1366.57 2022.88 L1391.94 2021.02 L1417.18 2018.80 L1442.55 2016.45 L1467.80 2013.85 L1493.17 2011.00 L1518.41 2007.78 L1543.78 2004.19 L1569.03 2000.11 L1594.39 1995.65 L1619.64 1990.70 L1645.01 1985.26 L1670.25 1979.07 L1695.62 1972.14 L1720.87 1964.59 L1746.24 1956.05 L1771.48 1946.52 L1796.85 1936.01 L1822.10 1924.13 L1847.46 1911.01 L1872.71 1896.40 L1898.08 1880.07 L1923.45 1861.75 L1948.69 1841.46 L1974.06 1818.81 L1999.31 1793.69 L2024.67 1765.60" stroke-linejoin="round" style="fill:none;stroke:#008000;stroke-width:7.34"/>
	<path d=" M455.52 2042.19 L480.77 2042.06 L506.14 2042.06 L531.38 2042.06 L556.75 2041.94 L582.00 2041.94 L607.37 2041.82 L632.61 2041.69 L657.98 2041.69 L683.22 2041.57 L708.59 2041.44 L733.84 2041.20 L759.21 2041.07 L784.45 2040.83 L809.82 2040.58 L835.07 2040.33 L860.43 2039.96 L885.68 2039.59 L911.05 2039.22 L936.29 2038.84 L961.66 2038.35 L986.91 2037.73 L1012.27 2037.11 L1037.52 2036.49 L1062.89 2035.75 L1088.13 2034.88 L1113.50 2034.02 L1138.87 2033.15 L1164.12 2032.04 L1189.48 2031.05 L1214.73 2029.81 L1240.10 2028.45 L1265.34 2027.09 L1290.71 2025.48 L1315.96 2023.87 L1341.33 2022.01 L1366.57 2020.03 L1391.94 2017.81 L1417.18 2015.33 L1442.55 2012.61 L1467.80 2009.64 L1493.17 2006.30 L1518.41 2002.46 L1543.78 1998.38 L1569.03 1993.80 L1594.39 1988.60 L1619.64 1982.91 L1645.01 1976.60 L1670.25 1969.54 L1695.62 1961.62 L1720.87 1952.84 L1746.24 1943.06 L1771.48 1932.05 L1796.85 1919.92 L1822.10 1906.30 L1847.46 1891.21 L1872.71 1874.38 L1898.08 1855.57 L1923.45 1834.53 L1948.69 1811.14 L1974.06 1785.15 L1999.31 1756.07 L2024.67 1723.77" stroke-linejoin="round" style="fill:none;stroke:#FFD200;stroke-width:7.34"/>
	<path d=" M455.52 2042.19 L480.77 2042.19 L506.14 2042.06 L531.38 2042.06 L556.75 2041.94 L582.00 2041.94 L607.37 2041.82 L632.61 2041.82 L657.98 2041.69 L683.22 2041.57 L708.59 2041.44 L733.84 2041.32 L759.21 2041.20 L784.45 2040.95 L809.82 2040.70 L835.07 2040.45 L860.43 2040.21 L885.68 2039.83 L911.05 2039.46 L936.29 2039.09 L961.66 2038.60 L986.91 2038.10 L1012.27 2037.48 L1037.52 2036.86 L1062.89 2036.25 L1088.13 2035.50 L1113.50 2034.64 L1138.87 2033.77 L1164.12 2032.90 L1189.48 2031.79 L1214.73 2030.68 L1240.10 2029.56 L1265.34 2028.20 L1290.71 2026.84 L1315.96 2025.23 L1341.33 2023.50 L1366.57 2021.64 L1391.94 2019.54 L1417.18 2017.31 L1442.55 2014.84 L1467.80 2011.99 L1493.17 2008.90 L1518.41 2005.56 L1543.78 2001.72 L1569.03 1997.39 L1594.39 1992.68 L1619.64 1987.36 L1645.01 1981.55 L1670.25 1974.99 L1695.62 1967.69 L1720.87 1959.52 L1746.24 1950.48 L1771.48 1940.34 L1796.85 1929.08 L1822.10 1916.58 L1847.46 1902.59 L1872.71 1886.88 L1898.08 1869.55 L1923.45 1850.12 L1948.69 1828.46 L1974.06 1804.46 L1999.31 1777.60 L2024.67 1747.65" stroke-linejoin="round" style="fill:none;stroke:#1A476F;stroke-width:7.34"/>
	<line x1="455.52" y1="1981.55" x2="458.37" y2="1981.55" style="stroke:#000000;stroke-width:7.34"/>
	<line x1="478.54" y1="1981.55" x2="480.77" y2="1981.55" style="stroke:#000000;stroke-width:7.34"/>
	<line x1="480.77" y1="1981.55" x2="481.39" y2="1981.55" style="stroke:#000000;stroke-width:7.34"/>
	<line x1="501.56" y1="1981.55" x2="504.40" y2="1981.55" style="stroke:#000000;stroke-width:7.34"/>
	<line x1="524.58" y1="1981.55" x2="527.42" y2="1981.55" style="stroke:#000000;stroke-width:7.34"/>
	<line x1="547.59" y1="1981.55" x2="550.44" y2="1981.55" style="stroke:#000000;stroke-width:7.34"/>
	<line x1="570.61" y1="1981.55" x2="573.58" y2="1981.55" style="stroke:#000000;stroke-width:7.34"/>
	<line x1="593.75" y1="1981.55" x2="596.60" y2="1981.55" style="stroke:#000000;stroke-width:7.34"/>
	<line x1="616.77" y1="1981.55" x2="619.62" y2="1981.55" style="stroke:#000000;stroke-width:7.34"/>
	<line x1="639.79" y1="1981.55" x2="642.63" y2="1981.55" style="stroke:#000000;stroke-width:7.34"/>
	<line x1="662.80" y1="1981.55" x2="665.65" y2="1981.55" style="stroke:#000000;stroke-width:7.34"/>
	<line x1="685.82" y1="1981.55" x2="688.67" y2="1981.55" style="stroke:#000000;stroke-width:7.34"/>
	<line x1="708.84" y1="1981.55" x2="711.69" y2="1981.55" style="stroke:#000000;stroke-width:7.34"/>
	<line x1="731.86" y1="1981.55" x2="733.84" y2="1981.55" style="stroke:#000000;stroke-width:7.34"/>
	<line x1="733.84" y1="1981.55" x2="734.70" y2="1981.55" style="stroke:#000000;stroke-width:7.34"/>
	<line x1="754.88" y1="1981.55" x2="757.72" y2="1981.55" style="stroke:#000000;stroke-width:7.34"/>
	<line x1="777.89" y1="1981.55" x2="780.74" y2="1981.55" style="stroke:#000000;stroke-width:7.34"/>
	<line x1="800.91" y1="1981.55" x2="803.88" y2="1981.55" style="stroke:#000000;stroke-width:7.34"/>
	<line x1="823.93" y1="1981.55" x2="826.90" y2="1981.55" style="stroke:#000000;stroke-width:7.34"/>
	<line x1="847.07" y1="1981.55" x2="849.91" y2="1981.55" style="stroke:#000000;stroke-width:7.34"/>
	<line x1="870.09" y1="1981.55" x2="872.93" y2="1981.55" style="stroke:#000000;stroke-width:7.34"/>
	<line x1="893.10" y1="1981.55" x2="895.95" y2="1981.55" style="stroke:#000000;stroke-width:7.34"/>
	<line x1="916.12" y1="1981.55" x2="918.97" y2="1981.55" style="stroke:#000000;stroke-width:7.34"/>
	<line x1="939.14" y1="1981.55" x2="941.99" y2="1981.55" style="stroke:#000000;stroke-width:7.34"/>
	<line x1="962.16" y1="1981.55" x2="965.00" y2="1981.55" style="stroke:#000000;stroke-width:7.34"/>
	<line x1="985.17" y1="1981.55" x2="986.91" y2="1981.55" style="stroke:#000000;stroke-width:7.34"/>
	<line x1="986.91" y1="1981.55" x2="988.02" y2="1981.55" style="stroke:#000000;stroke-width:7.34"/>
	<line x1="1008.19" y1="1981.55" x2="1011.04" y2="1981.55" style="stroke:#000000;stroke-width:7.34"/>
	<line x1="1031.21" y1="1981.55" x2="1034.06" y2="1981.55" style="stroke:#000000;stroke-width:7.34"/>
	<line x1="1054.23" y1="1981.55" x2="1057.20" y2="1981.55" style="stroke:#000000;stroke-width:7.34"/>
	<line x1="1077.24" y1="1981.55" x2="1080.21" y2="1981.55" style="stroke:#000000;stroke-width:7.34"/>
	<line x1="1100.38" y1="1981.55" x2="1103.23" y2="1981.55" style="stroke:#000000;stroke-width:7.34"/>
	<line x1="1123.40" y1="1981.55" x2="1126.25" y2="1981.55" style="stroke:#000000;stroke-width:7.34"/>
	<line x1="1146.42" y1="1981.55" x2="1149.27" y2="1981.55" style="stroke:#000000;stroke-width:7.34"/>
	<line x1="1169.44" y1="1981.55" x2="1172.28" y2="1981.55" style="stroke:#000000;stroke-width:7.34"/>
	<line x1="1192.45" y1="1981.55" x2="1195.30" y2="1981.55" style="stroke:#000000;stroke-width:7.34"/>
	<line x1="1215.47" y1="1981.55" x2="1218.32" y2="1981.55" style="stroke:#000000;stroke-width:7.34"/>
	<line x1="1238.49" y1="1981.55" x2="1240.10" y2="1981.55" style="stroke:#000000;stroke-width:7.34"/>
	<line x1="1240.10" y1="1981.55" x2="1241.34" y2="1981.55" style="stroke:#000000;stroke-width:7.34"/>
	<line x1="1261.51" y1="1981.55" x2="1264.35" y2="1981.55" style="stroke:#000000;stroke-width:7.34"/>
	<line x1="1284.53" y1="1981.55" x2="1287.37" y2="1981.55" style="stroke:#000000;stroke-width:7.34"/>
	<line x1="1307.54" y1="1981.55" x2="1310.51" y2="1981.55" style="stroke:#000000;stroke-width:7.34"/>
	<line x1="1330.56" y1="1981.55" x2="1333.53" y2="1981.55" style="stroke:#000000;stroke-width:7.34"/>
	<line x1="1353.70" y1="1981.55" x2="1356.55" y2="1981.55" style="stroke:#000000;stroke-width:7.34"/>
	<line x1="1376.72" y1="1981.55" x2="1379.57" y2="1981.55" style="stroke:#000000;stroke-width:7.34"/>
	<line x1="1399.74" y1="1981.55" x2="1402.58" y2="1981.55" style="stroke:#000000;stroke-width:7.34"/>
	<line x1="1422.75" y1="1981.55" x2="1425.60" y2="1981.55" style="stroke:#000000;stroke-width:7.34"/>
	<line x1="1445.77" y1="1981.55" x2="1448.62" y2="1981.55" style="stroke:#000000;stroke-width:7.34"/>
	<line x1="1468.79" y1="1981.55" x2="1471.63" y2="1981.55" style="stroke:#000000;stroke-width:7.34"/>
	<line x1="1491.81" y1="1981.55" x2="1493.17" y2="1981.55" style="stroke:#000000;stroke-width:7.34"/>
	<line x1="1493.17" y1="1981.55" x2="1494.65" y2="1981.55" style="stroke:#000000;stroke-width:7.34"/>
	<line x1="1514.82" y1="1981.55" x2="1517.67" y2="1981.55" style="stroke:#000000;stroke-width:7.34"/>
	<line x1="1537.84" y1="1981.55" x2="1540.69" y2="1981.55" style="stroke:#000000;stroke-width:7.34"/>
	<line x1="1560.86" y1="1981.55" x2="1563.83" y2="1981.55" style="stroke:#000000;stroke-width:7.34"/>
	<line x1="1584.00" y1="1981.55" x2="1586.85" y2="1981.55" style="stroke:#000000;stroke-width:7.34"/>
	<line x1="1607.02" y1="1981.55" x2="1609.86" y2="1981.55" style="stroke:#000000;stroke-width:7.34"/>
	<line x1="1630.04" y1="1981.55" x2="1632.88" y2="1981.55" style="stroke:#000000;stroke-width:7.34"/>
	<line x1="1653.05" y1="1981.55" x2="1655.90" y2="1981.55" style="stroke:#000000;stroke-width:7.34"/>
	<line x1="1676.07" y1="1981.55" x2="1678.92" y2="1981.55" style="stroke:#000000;stroke-width:7.34"/>
	<line x1="1699.09" y1="1981.55" x2="1701.93" y2="1981.55" style="stroke:#000000;stroke-width:7.34"/>
	<line x1="1722.11" y1="1981.55" x2="1724.95" y2="1981.55" style="stroke:#000000;stroke-width:7.34"/>
	<line x1="1745.12" y1="1981.55" x2="1746.24" y2="1981.55" style="stroke:#000000;stroke-width:7.34"/>
	<line x1="1746.24" y1="1981.55" x2="1747.97" y2="1981.55" style="stroke:#000000;stroke-width:7.34"/>
	<line x1="1768.14" y1="1981.55" x2="1770.99" y2="1981.55" style="stroke:#000000;stroke-width:7.34"/>
	<line x1="1791.16" y1="1981.55" x2="1794.00" y2="1981.55" style="stroke:#000000;stroke-width:7.34"/>
	<line x1="1814.17" y1="1981.55" x2="1817.14" y2="1981.55" style="stroke:#000000;stroke-width:7.34"/>
	<line x1="1837.32" y1="1981.55" x2="1840.16" y2="1981.55" style="stroke:#000000;stroke-width:7.34"/>
	<line x1="1860.33" y1="1981.55" x2="1863.18" y2="1981.55" style="stroke:#000000;stroke-width:7.34"/>
	<line x1="1883.35" y1="1981.55" x2="1886.20" y2="1981.55" style="stroke:#000000;stroke-width:7.34"/>
	<line x1="1906.37" y1="1981.55" x2="1909.21" y2="1981.55" style="stroke:#000000;stroke-width:7.34"/>
	<line x1="1929.39" y1="1981.55" x2="1932.23" y2="1981.55" style="stroke:#000000;stroke-width:7.34"/>
	<line x1="1952.40" y1="1981.55" x2="1955.25" y2="1981.55" style="stroke:#000000;stroke-width:7.34"/>
	<line x1="1975.42" y1="1981.55" x2="1978.27" y2="1981.55" style="stroke:#000000;stroke-width:7.34"/>
	<line x1="1998.44" y1="1981.55" x2="1999.31" y2="1981.55" style="stroke:#000000;stroke-width:7.34"/>
	<line x1="1999.31" y1="1981.55" x2="2001.29" y2="1981.55" style="stroke:#000000;stroke-width:7.34"/>
	<line x1="2021.46" y1="1981.55" x2="2024.30" y2="1981.55" style="stroke:#000000;stroke-width:7.34"/>
	<path d="" stroke-linejoin="round" style="fill:none;stroke:#000000;stroke-width:7.34"/>
	<defs>
		<path id="path_mZLsSICG" d="M2201.51 2042.19 L2201.51 2042.19 L2226.88 2042.19 L2252.13 2042.06 L2277.49 2042.06 L2302.74 2042.06 L2328.11 2041.94 L2353.35 2041.94 L2378.72 2041.82 L2403.97 2041.69 L2429.34 2041.57 L2454.58 2041.44 L2479.95 2041.20 L2505.20 2041.07 L2530.56 2040.83 L2555.81 2040.45 L2581.18 2040.08 L2606.42 2039.71 L2631.79 2039.22 L2657.04 2038.72 L2682.41 2038.23 L2707.65 2037.48 L2733.02 2036.86 L2758.26 2036.12 L2783.63 2035.26 L2808.88 2034.39 L2834.25 2033.40 L2859.49 2032.29 L2884.86 2031.17 L2910.11 2029.81 L2935.47 2028.45 L2960.72 2026.96 L2986.09 2025.23 L3011.46 2023.38 L3036.70 2021.40 L3062.07 2019.17 L3087.32 2016.82 L3112.68 2014.09 L3137.93 2011.25 L3163.30 2008.03 L3188.54 2004.57 L3213.91 2000.61 L3239.16 1996.27 L3264.53 1991.57 L3289.77 1986.25 L3315.14 1980.31 L3340.38 1973.75 L3365.75 1966.57 L3391.00 1958.40 L3416.37 1949.37 L3441.61 1939.35 L3466.98 1928.09 L3492.22 1915.59 L3517.59 1901.73 L3542.84 1886.13 L3568.21 1868.81 L3593.45 1849.50 L3618.82 1827.84 L3644.07 1803.84 L3669.43 1777.11 L3694.68 1747.16 L3720.05 1713.99 L3745.42 1676.99 L3770.66 1635.78 L3770.66 1542.96 L3745.42 1593.70 L3720.05 1639.24 L3694.68 1680.08 L3669.43 1716.71 L3644.07 1749.51 L3618.82 1778.96 L3593.45 1805.32 L3568.21 1829.08 L3542.84 1850.37 L3517.59 1869.43 L3492.22 1886.50 L3466.98 1901.85 L3441.61 1915.71 L3416.37 1928.09 L3391.00 1939.10 L3365.75 1949.12 L3340.38 1958.03 L3315.14 1966.08 L3289.77 1973.26 L3264.53 1979.81 L3239.16 1985.63 L3213.91 1990.83 L3188.54 1995.41 L3163.30 1999.61 L3137.93 2003.33 L3112.68 2006.79 L3087.32 2009.76 L3062.07 2012.61 L3036.70 2015.21 L3011.46 2017.56 L2986.09 2019.79 L2960.72 2021.77 L2935.47 2023.62 L2910.11 2025.36 L2884.86 2027.09 L2859.49 2028.57 L2834.25 2029.93 L2808.88 2031.30 L2783.63 2032.41 L2758.26 2033.52 L2733.02 2034.51 L2707.65 2035.38 L2682.41 2036.12 L2657.04 2036.86 L2631.79 2037.48 L2606.42 2037.98 L2581.18 2038.47 L2555.81 2038.84 L2530.56 2039.22 L2505.20 2039.59 L2479.95 2039.83 L2454.58 2040.21 L2429.34 2040.33 L2403.97 2040.58 L2378.72 2040.83 L2353.35 2040.95 L2328.11 2041.07 L2302.74 2041.20 L2277.49 2041.32 L2252.13 2041.44 L2226.88 2041.57 L2201.51 2041.57 L2201.51 2042.19 Z" stroke-linejoin="round"/>
	</defs>
	<defs>
		<clipPath id="clipPath_BaqfSGfz">
			<use xlink:href="#path_mZLsSICG"/>
		</clipPath>
	</defs>
	<use xlink:href="#path_mZLsSICG" style="stroke:none;fill:#E6E6E6"/>
	<use xlink:href="#path_mZLsSICG" style="fill:none;stroke:#E0E0E0;stroke-width:14.69" clip-path="url(#clipPath_BaqfSGfz)"/>
	<defs>
		<path id="path_uUPbNaMk" d="M2201.51 2042.06 L2201.51 2042.06 L2226.88 2042.06 L2252.13 2042.06 L2277.49 2041.94 L2302.74 2041.82 L2328.11 2041.82 L2353.35 2041.69 L2378.72 2041.57 L2403.97 2041.32 L2429.34 2041.07 L2454.58 2040.83 L2479.95 2040.58 L2505.20 2040.21 L2530.56 2039.83 L2555.81 2039.34 L2581.18 2038.72 L2606.42 2038.10 L2631.79 2037.36 L2657.04 2036.49 L2682.41 2035.50 L2707.65 2034.51 L2733.02 2033.28 L2758.26 2032.04 L2783.63 2030.68 L2808.88 2029.19 L2834.25 2027.58 L2859.49 2025.85 L2884.86 2023.87 L2910.11 2021.77 L2935.47 2019.54 L2960.72 2016.94 L2986.09 2014.22 L3011.46 2011.25 L3036.70 2007.91 L3062.07 2004.32 L3087.32 2000.36 L3112.68 1996.03 L3137.93 1991.20 L3163.30 1986.00 L3188.54 1980.19 L3213.91 1973.75 L3239.16 1966.70 L3264.53 1958.78 L3289.77 1950.11 L3315.14 1940.46 L3340.38 1929.57 L3365.75 1917.57 L3391.00 1904.32 L3416.37 1889.35 L3441.61 1872.77 L3466.98 1854.33 L3492.22 1833.78 L3517.59 1810.77 L3542.84 1785.15 L3568.21 1756.56 L3593.45 1724.76 L3618.82 1689.24 L3644.07 1649.64 L3669.43 1605.46 L3694.68 1556.33 L3720.05 1501.63 L3745.42 1440.74 L3770.66 1372.80 L3770.66 1200.41 L3745.42 1285.93 L3720.05 1362.65 L3694.68 1431.34 L3669.43 1493.09 L3644.07 1548.41 L3618.82 1598.03 L3593.45 1642.59 L3568.21 1682.56 L3542.84 1718.45 L3517.59 1750.50 L3492.22 1779.46 L3466.98 1805.32 L3441.61 1828.59 L3416.37 1849.38 L3391.00 1868.19 L3365.75 1885.02 L3340.38 1900.12 L3315.14 1913.61 L3289.77 1925.73 L3264.53 1936.62 L3239.16 1946.40 L3213.91 1955.19 L3188.54 1963.11 L3163.30 1970.16 L3137.93 1976.47 L3112.68 1982.17 L3087.32 1987.36 L3062.07 1992.19 L3036.70 1996.52 L3011.46 2000.48 L2986.09 2004.19 L2960.72 2007.66 L2935.47 2010.88 L2910.11 2013.85 L2884.86 2016.57 L2859.49 2019.17 L2834.25 2021.52 L2808.88 2023.62 L2783.63 2025.73 L2758.26 2027.46 L2733.02 2029.19 L2707.65 2030.68 L2682.41 2032.04 L2657.04 2033.15 L2631.79 2034.14 L2606.42 2035.13 L2581.18 2035.87 L2555.81 2036.62 L2530.56 2037.24 L2505.20 2037.85 L2479.95 2038.23 L2454.58 2038.72 L2429.34 2039.09 L2403.97 2039.46 L2378.72 2039.71 L2353.35 2040.08 L2328.11 2040.33 L2302.74 2040.45 L2277.49 2040.70 L2252.13 2040.83 L2226.88 2040.95 L2201.51 2041.20 L2201.51 2042.06 Z" stroke-linejoin="round"/>
	</defs>
	<defs>
		<clipPath id="clipPath_mmYZhefS">
			<use xlink:href="#path_uUPbNaMk"/>
		</clipPath>
	</defs>
	<use xlink:href="#path_uUPbNaMk" style="stroke:none;fill:#E6E6E6"/>
	<use xlink:href="#path_uUPbNaMk" style="fill:none;stroke:#E0E0E0;stroke-width:14.69" clip-path="url(#clipPath_mmYZhefS)"/>
	<defs>
		<path id="path_nednKNqP" d="M2201.51 2042.19 L2201.51 2042.19 L2226.88 2042.19 L2252.13 2042.19 L2277.49 2042.06 L2302.74 2042.06 L2328.11 2041.94 L2353.35 2041.94 L2378.72 2041.82 L2403.97 2041.69 L2429.34 2041.69 L2454.58 2041.44 L2479.95 2041.32 L2505.20 2041.07 L2530.56 2040.83 L2555.81 2040.58 L2581.18 2040.33 L2606.42 2039.96 L2631.79 2039.46 L2657.04 2038.97 L2682.41 2038.47 L2707.65 2037.85 L2733.02 2037.24 L2758.26 2036.49 L2783.63 2035.75 L2808.88 2034.88 L2834.25 2034.02 L2859.49 2033.03 L2884.86 2031.91 L2910.11 2030.80 L2935.47 2029.44 L2960.72 2028.08 L2986.09 2026.47 L3011.46 2024.74 L3036.70 2023.00 L3062.07 2020.90 L3087.32 2018.67 L3112.68 2016.32 L3137.93 2013.60 L3163.30 2010.63 L3188.54 2007.41 L3213.91 2003.82 L3239.16 1999.86 L3264.53 1995.53 L3289.77 1990.58 L3315.14 1985.14 L3340.38 1979.20 L3365.75 1972.39 L3391.00 1964.96 L3416.37 1956.67 L3441.61 1947.39 L3466.98 1937.12 L3492.22 1925.49 L3517.59 1912.74 L3542.84 1898.38 L3568.21 1882.42 L3593.45 1864.60 L3618.82 1844.80 L3644.07 1822.65 L3669.43 1797.90 L3694.68 1770.42 L3720.05 1739.86 L3745.42 1705.82 L3770.66 1667.83 L3770.66 1564.00 L3745.42 1612.64 L3720.05 1656.20 L3694.68 1695.30 L3669.43 1730.45 L3644.07 1761.88 L3618.82 1790.10 L3593.45 1815.35 L3568.21 1838.12 L3542.84 1858.41 L3517.59 1876.73 L3492.22 1893.19 L3466.98 1907.91 L3441.61 1921.03 L3416.37 1932.91 L3391.00 1943.55 L3365.75 1953.08 L3340.38 1961.62 L3315.14 1969.42 L3289.77 1976.23 L3264.53 1982.41 L3239.16 1987.98 L3213.91 1993.06 L3188.54 1997.51 L3163.30 2001.47 L3137.93 2005.06 L3112.68 2008.40 L3087.32 2011.25 L3062.07 2013.97 L3036.70 2016.45 L3011.46 2018.67 L2986.09 2020.78 L2960.72 2022.76 L2935.47 2024.61 L2910.11 2026.22 L2884.86 2027.83 L2859.49 2029.19 L2834.25 2030.55 L2808.88 2031.79 L2783.63 2032.90 L2758.26 2034.02 L2733.02 2034.88 L2707.65 2035.75 L2682.41 2036.49 L2657.04 2037.11 L2631.79 2037.73 L2606.42 2038.23 L2581.18 2038.72 L2555.81 2039.09 L2530.56 2039.46 L2505.20 2039.71 L2479.95 2040.08 L2454.58 2040.33 L2429.34 2040.45 L2403.97 2040.70 L2378.72 2040.83 L2353.35 2041.07 L2328.11 2041.20 L2302.74 2041.32 L2277.49 2041.32 L2252.13 2041.44 L2226.88 2041.57 L2201.51 2041.69 L2201.51 2042.19 Z" stroke-linejoin="round"/>
	</defs>
	<defs>
		<clipPath id="clipPath_ZauvlhAe">
			<use xlink:href="#path_nednKNqP"/>
		</clipPath>
	</defs>
	<use xlink:href="#path_nednKNqP" style="stroke:none;fill:#E6E6E6"/>
	<use xlink:href="#path_nednKNqP" style="fill:none;stroke:#E0E0E0;stroke-width:14.69" clip-path="url(#clipPath_ZauvlhAe)"/>
	<defs>
		<path id="path_dbuKAquy" d="M2201.51 2042.19 L2201.51 2042.19 L2226.88 2042.19 L2252.13 2042.06 L2277.49 2042.06 L2302.74 2042.06 L2328.11 2041.94 L2353.35 2041.94 L2378.72 2041.82 L2403.97 2041.69 L2429.34 2041.57 L2454.58 2041.44 L2479.95 2041.20 L2505.20 2040.95 L2530.56 2040.70 L2555.81 2040.33 L2581.18 2039.96 L2606.42 2039.59 L2631.79 2039.09 L2657.04 2038.60 L2682.41 2037.98 L2707.65 2037.36 L2733.02 2036.62 L2758.26 2035.87 L2783.63 2035.01 L2808.88 2034.02 L2834.25 2033.03 L2859.49 2031.91 L2884.86 2030.68 L2910.11 2029.44 L2935.47 2027.95 L2960.72 2026.47 L2986.09 2024.74 L3011.46 2022.88 L3036.70 2020.78 L3062.07 2018.55 L3087.32 2016.07 L3112.68 2013.48 L3137.93 2010.51 L3163.30 2007.29 L3188.54 2003.70 L3213.91 1999.74 L3239.16 1995.41 L3264.53 1990.46 L3289.77 1985.14 L3315.14 1979.07 L3340.38 1972.39 L3365.75 1964.96 L3391.00 1956.80 L3416.37 1947.51 L3441.61 1937.24 L3466.98 1925.86 L3492.22 1913.11 L3517.59 1898.88 L3542.84 1883.04 L3568.21 1865.34 L3593.45 1845.67 L3618.82 1823.76 L3644.07 1799.26 L3669.43 1771.91 L3694.68 1741.59 L3720.05 1707.68 L3745.42 1669.93 L3770.66 1627.98 L3770.66 1469.82 L3745.42 1527.99 L3720.05 1580.09 L3694.68 1626.87 L3669.43 1668.94 L3644.07 1706.57 L3618.82 1740.35 L3593.45 1770.67 L3568.21 1797.90 L3542.84 1822.28 L3517.59 1844.18 L3492.22 1863.73 L3466.98 1881.43 L3441.61 1897.15 L3416.37 1911.38 L3391.00 1924.13 L3365.75 1935.51 L3340.38 1945.78 L3315.14 1954.94 L3289.77 1963.23 L3264.53 1970.66 L3239.16 1977.34 L3213.91 1983.28 L3188.54 1988.72 L3163.30 1993.43 L3137.93 1997.88 L3112.68 2001.72 L3087.32 2005.31 L3062.07 2008.53 L3036.70 2011.50 L3011.46 2014.22 L2986.09 2016.69 L2960.72 2019.04 L2935.47 2021.27 L2910.11 2023.25 L2884.86 2025.11 L2859.49 2026.84 L2834.25 2028.33 L2808.88 2029.81 L2783.63 2031.17 L2758.26 2032.41 L2733.02 2033.52 L2707.65 2034.51 L2682.41 2035.38 L2657.04 2036.25 L2631.79 2036.86 L2606.42 2037.48 L2581.18 2038.10 L2555.81 2038.60 L2530.56 2038.97 L2505.20 2039.34 L2479.95 2039.71 L2454.58 2039.96 L2429.34 2040.21 L2403.97 2040.45 L2378.72 2040.58 L2353.35 2040.83 L2328.11 2040.95 L2302.74 2041.07 L2277.49 2041.20 L2252.13 2041.32 L2226.88 2041.44 L2201.51 2041.57 L2201.51 2042.19 Z" stroke-linejoin="round"/>
	</defs>
	<defs>
		<clipPath id="clipPath_OwvRwZPD">
			<use xlink:href="#path_dbuKAquy"/>
		</clipPath>
	</defs>
	<use xlink:href="#path_dbuKAquy" style="stroke:none;fill:#E6E6E6"/>
	<use xlink:href="#path_dbuKAquy" style="fill:none;stroke:#E0E0E0;stroke-width:14.69" clip-path="url(#clipPath_OwvRwZPD)"/>
	<path d=" M2201.39 2041.94 L2226.76 2041.82 L2252.13 2041.69 L2277.37 2041.57 L2302.74 2041.44 L2327.99 2041.32 L2353.35 2041.20 L2378.60 2040.95 L2403.97 2040.70 L2429.21 2040.45 L2454.58 2040.08 L2479.83 2039.71 L2505.20 2039.34 L2530.44 2038.84 L2555.81 2038.23 L2581.05 2037.61 L2606.42 2036.86 L2631.67 2036.00 L2657.04 2035.01 L2682.28 2034.02 L2707.65 2032.78 L2732.89 2031.54 L2758.26 2030.06 L2783.51 2028.45 L2808.88 2026.72 L2834.12 2024.86 L2859.49 2022.76 L2884.74 2020.65 L2910.11 2018.18 L2935.35 2015.58 L2960.72 2012.73 L2986.09 2009.64 L3011.33 2006.30 L3036.70 2002.71 L3061.95 1998.75 L3087.32 1994.42 L3112.56 1989.59 L3137.93 1984.39 L3163.17 1978.58 L3188.54 1972.27 L3213.79 1965.09 L3239.16 1957.17 L3264.40 1948.50 L3289.77 1938.73 L3315.01 1927.84 L3340.38 1915.71 L3365.63 1902.34 L3391.00 1887.37 L3416.24 1870.66 L3441.61 1851.98 L3466.86 1831.31 L3492.22 1808.17 L3517.47 1782.43 L3542.84 1753.72 L3568.08 1721.79 L3593.45 1686.02 L3618.70 1646.30 L3644.07 1601.99 L3669.31 1552.62 L3694.68 1497.55 L3719.93 1436.16 L3745.29 1367.85 L3770.66 1291.62" stroke-linejoin="round" style="fill:none;stroke:#FF0000;stroke-width:7.34"/>
	<path d=" M2201.39 2042.06 L2226.76 2042.06 L2252.13 2041.94 L2277.37 2041.94 L2302.74 2041.82 L2327.99 2041.82 L2353.35 2041.69 L2378.60 2041.57 L2403.97 2041.44 L2429.21 2041.32 L2454.58 2041.07 L2479.83 2040.83 L2505.20 2040.58 L2530.44 2040.33 L2555.81 2039.96 L2581.05 2039.71 L2606.42 2039.22 L2631.67 2038.72 L2657.04 2038.23 L2682.28 2037.61 L2707.65 2036.99 L2732.89 2036.25 L2758.26 2035.38 L2783.51 2034.51 L2808.88 2033.52 L2834.12 2032.53 L2859.49 2031.30 L2884.74 2030.06 L2910.11 2028.70 L2935.35 2027.21 L2960.72 2025.60 L2986.09 2023.87 L3011.33 2022.01 L3036.70 2020.03 L3061.95 2017.81 L3087.32 2015.33 L3112.56 2012.61 L3137.93 2009.64 L3163.17 2006.42 L3188.54 2002.83 L3213.79 1998.87 L3239.16 1994.42 L3264.40 1989.47 L3289.77 1983.90 L3315.01 1977.83 L3340.38 1971.03 L3365.63 1963.48 L3391.00 1954.94 L3416.24 1945.53 L3441.61 1935.14 L3466.86 1923.38 L3492.22 1910.39 L3517.47 1895.91 L3542.84 1879.70 L3568.08 1861.63 L3593.45 1841.58 L3618.70 1819.18 L3644.07 1794.18 L3669.31 1766.34 L3694.68 1735.28 L3719.93 1700.63 L3745.29 1662.14 L3770.66 1619.20" stroke-linejoin="round" style="fill:none;stroke:#008000;stroke-width:7.34"/>
	<path d=" M2201.39 2042.06 L2226.76 2041.94 L2252.13 2041.94 L2277.37 2041.82 L2302.74 2041.82 L2327.99 2041.69 L2353.35 2041.57 L2378.60 2041.44 L2403.97 2041.32 L2429.21 2041.07 L2454.58 2040.95 L2479.83 2040.70 L2505.20 2040.33 L2530.44 2040.08 L2555.81 2039.71 L2581.05 2039.22 L2606.42 2038.72 L2631.67 2038.23 L2657.04 2037.61 L2682.28 2036.86 L2707.65 2036.12 L2732.89 2035.26 L2758.26 2034.39 L2783.51 2033.28 L2808.88 2032.16 L2834.12 2031.05 L2859.49 2029.69 L2884.74 2028.20 L2910.11 2026.72 L2935.35 2024.98 L2960.72 2023.13 L2986.09 2021.15 L3011.33 2018.92 L3036.70 2016.57 L3061.95 2014.09 L3087.32 2011.25 L3112.56 2008.15 L3137.93 2004.69 L3163.17 2000.98 L3188.54 1996.89 L3213.79 1992.31 L3239.16 1987.12 L3264.40 1981.42 L3289.77 1975.11 L3315.01 1968.06 L3340.38 1960.26 L3365.63 1951.47 L3391.00 1941.82 L3416.24 1930.93 L3441.61 1918.93 L3466.86 1905.44 L3492.22 1890.46 L3517.47 1873.76 L3542.84 1855.19 L3568.08 1834.40 L3593.45 1811.26 L3618.70 1785.52 L3644.07 1756.69 L3669.31 1724.63 L3694.68 1688.87 L3719.93 1649.14 L3745.29 1604.72 L3770.66 1555.34" stroke-linejoin="round" style="fill:none;stroke:#FFD200;stroke-width:7.34"/>
	<path d=" M2201.39 2042.06 L2226.76 2042.06 L2252.13 2041.94 L2277.37 2041.94 L2302.74 2041.82 L2327.99 2041.69 L2353.35 2041.57 L2378.60 2041.44 L2403.97 2041.32 L2429.21 2041.20 L2454.58 2040.95 L2479.83 2040.83 L2505.20 2040.45 L2530.44 2040.21 L2555.81 2039.83 L2581.05 2039.46 L2606.42 2039.09 L2631.67 2038.47 L2657.04 2037.98 L2682.28 2037.36 L2707.65 2036.62 L2732.89 2035.87 L2758.26 2035.01 L2783.51 2034.02 L2808.88 2033.03 L2834.12 2031.79 L2859.49 2030.68 L2884.74 2029.32 L2910.11 2027.83 L2935.35 2026.35 L2960.72 2024.61 L2986.09 2022.76 L3011.33 2020.78 L3036.70 2018.55 L3061.95 2016.20 L3087.32 2013.60 L3112.56 2010.75 L3137.93 2007.54 L3163.17 2004.07 L3188.54 2000.23 L3213.79 1996.03 L3239.16 1991.32 L3264.40 1986.00 L3289.77 1980.19 L3315.01 1973.63 L3340.38 1966.45 L3365.63 1958.28 L3391.00 1949.37 L3416.24 1939.35 L3441.61 1928.21 L3466.86 1915.71 L3492.22 1901.85 L3517.47 1886.38 L3542.84 1869.18 L3568.08 1850.00 L3593.45 1828.59 L3618.70 1804.70 L3644.07 1778.10 L3669.31 1748.52 L3694.68 1715.35 L3719.93 1678.60 L3745.29 1637.51 L3770.66 1591.85" stroke-linejoin="round" style="fill:none;stroke:#1A476F;stroke-width:7.34"/>
	<line x1="2201.39" y1="1949.37" x2="2204.24" y2="1949.37" style="stroke:#000000;stroke-width:7.34"/>
	<line x1="2224.41" y1="1949.37" x2="2226.76" y2="1949.37" style="stroke:#000000;stroke-width:7.34"/>
	<line x1="2226.76" y1="1949.37" x2="2227.25" y2="1949.37" style="stroke:#000000;stroke-width:7.34"/>
	<line x1="2247.42" y1="1949.37" x2="2250.27" y2="1949.37" style="stroke:#000000;stroke-width:7.34"/>
	<line x1="2270.44" y1="1949.37" x2="2273.29" y2="1949.37" style="stroke:#000000;stroke-width:7.34"/>
	<line x1="2293.46" y1="1949.37" x2="2296.43" y2="1949.37" style="stroke:#000000;stroke-width:7.34"/>
	<line x1="2316.60" y1="1949.37" x2="2319.45" y2="1949.37" style="stroke:#000000;stroke-width:7.34"/>
	<line x1="2339.62" y1="1949.37" x2="2342.46" y2="1949.37" style="stroke:#000000;stroke-width:7.34"/>
	<line x1="2362.64" y1="1949.37" x2="2365.48" y2="1949.37" style="stroke:#000000;stroke-width:7.34"/>
	<line x1="2385.65" y1="1949.37" x2="2388.50" y2="1949.37" style="stroke:#000000;stroke-width:7.34"/>
	<line x1="2408.67" y1="1949.37" x2="2411.52" y2="1949.37" style="stroke:#000000;stroke-width:7.34"/>
	<line x1="2431.69" y1="1949.37" x2="2434.53" y2="1949.37" style="stroke:#000000;stroke-width:7.34"/>
	<line x1="2454.70" y1="1949.37" x2="2457.55" y2="1949.37" style="stroke:#000000;stroke-width:7.34"/>
	<line x1="2477.72" y1="1949.37" x2="2479.83" y2="1949.37" style="stroke:#000000;stroke-width:7.34"/>
	<line x1="2479.83" y1="1949.37" x2="2480.57" y2="1949.37" style="stroke:#000000;stroke-width:7.34"/>
	<line x1="2500.74" y1="1949.37" x2="2503.59" y2="1949.37" style="stroke:#000000;stroke-width:7.34"/>
	<line x1="2523.76" y1="1949.37" x2="2526.60" y2="1949.37" style="stroke:#000000;stroke-width:7.34"/>
	<line x1="2546.78" y1="1949.37" x2="2549.74" y2="1949.37" style="stroke:#000000;stroke-width:7.34"/>
	<line x1="2569.92" y1="1949.37" x2="2572.76" y2="1949.37" style="stroke:#000000;stroke-width:7.34"/>
	<line x1="2592.93" y1="1949.37" x2="2595.78" y2="1949.37" style="stroke:#000000;stroke-width:7.34"/>
	<line x1="2615.95" y1="1949.37" x2="2618.80" y2="1949.37" style="stroke:#000000;stroke-width:7.34"/>
	<line x1="2638.97" y1="1949.37" x2="2641.82" y2="1949.37" style="stroke:#000000;stroke-width:7.34"/>
	<line x1="2661.99" y1="1949.37" x2="2664.83" y2="1949.37" style="stroke:#000000;stroke-width:7.34"/>
	<line x1="2685.00" y1="1949.37" x2="2687.85" y2="1949.37" style="stroke:#000000;stroke-width:7.34"/>
	<line x1="2708.02" y1="1949.37" x2="2710.87" y2="1949.37" style="stroke:#000000;stroke-width:7.34"/>
	<line x1="2731.04" y1="1949.37" x2="2732.89" y2="1949.37" style="stroke:#000000;stroke-width:7.34"/>
	<line x1="2732.89" y1="1949.37" x2="2733.89" y2="1949.37" style="stroke:#000000;stroke-width:7.34"/>
	<line x1="2754.06" y1="1949.37" x2="2756.90" y2="1949.37" style="stroke:#000000;stroke-width:7.34"/>
	<line x1="2777.07" y1="1949.37" x2="2779.92" y2="1949.37" style="stroke:#000000;stroke-width:7.34"/>
	<line x1="2800.09" y1="1949.37" x2="2803.06" y2="1949.37" style="stroke:#000000;stroke-width:7.34"/>
	<line x1="2823.23" y1="1949.37" x2="2826.08" y2="1949.37" style="stroke:#000000;stroke-width:7.34"/>
	<line x1="2846.25" y1="1949.37" x2="2849.10" y2="1949.37" style="stroke:#000000;stroke-width:7.34"/>
	<line x1="2869.27" y1="1949.37" x2="2872.11" y2="1949.37" style="stroke:#000000;stroke-width:7.34"/>
	<line x1="2892.28" y1="1949.37" x2="2895.13" y2="1949.37" style="stroke:#000000;stroke-width:7.34"/>
	<line x1="2915.30" y1="1949.37" x2="2918.15" y2="1949.37" style="stroke:#000000;stroke-width:7.34"/>
	<line x1="2938.32" y1="1949.37" x2="2941.17" y2="1949.37" style="stroke:#000000;stroke-width:7.34"/>
	<line x1="2961.34" y1="1949.37" x2="2964.18" y2="1949.37" style="stroke:#000000;stroke-width:7.34"/>
	<line x1="2984.36" y1="1949.37" x2="2986.09" y2="1949.37" style="stroke:#000000;stroke-width:7.34"/>
	<line x1="2986.09" y1="1949.37" x2="2987.20" y2="1949.37" style="stroke:#000000;stroke-width:7.34"/>
	<line x1="3007.37" y1="1949.37" x2="3010.22" y2="1949.37" style="stroke:#000000;stroke-width:7.34"/>
	<line x1="3030.39" y1="1949.37" x2="3033.36" y2="1949.37" style="stroke:#000000;stroke-width:7.34"/>
	<line x1="3053.41" y1="1949.37" x2="3056.38" y2="1949.37" style="stroke:#000000;stroke-width:7.34"/>
	<line x1="3076.55" y1="1949.37" x2="3079.39" y2="1949.37" style="stroke:#000000;stroke-width:7.34"/>
	<line x1="3099.57" y1="1949.37" x2="3102.41" y2="1949.37" style="stroke:#000000;stroke-width:7.34"/>
	<line x1="3122.58" y1="1949.37" x2="3125.43" y2="1949.37" style="stroke:#000000;stroke-width:7.34"/>
	<line x1="3145.60" y1="1949.37" x2="3148.45" y2="1949.37" style="stroke:#000000;stroke-width:7.34"/>
	<line x1="3168.62" y1="1949.37" x2="3171.47" y2="1949.37" style="stroke:#000000;stroke-width:7.34"/>
	<line x1="3191.64" y1="1949.37" x2="3194.48" y2="1949.37" style="stroke:#000000;stroke-width:7.34"/>
	<line x1="3214.65" y1="1949.37" x2="3217.50" y2="1949.37" style="stroke:#000000;stroke-width:7.34"/>
	<line x1="3237.67" y1="1949.37" x2="3239.16" y2="1949.37" style="stroke:#000000;stroke-width:7.34"/>
	<line x1="3239.16" y1="1949.37" x2="3240.52" y2="1949.37" style="stroke:#000000;stroke-width:7.34"/>
	<line x1="3260.69" y1="1949.37" x2="3263.53" y2="1949.37" style="stroke:#000000;stroke-width:7.34"/>
	<line x1="3283.71" y1="1949.37" x2="3286.68" y2="1949.37" style="stroke:#000000;stroke-width:7.34"/>
	<line x1="3306.72" y1="1949.37" x2="3309.69" y2="1949.37" style="stroke:#000000;stroke-width:7.34"/>
	<line x1="3329.86" y1="1949.37" x2="3332.71" y2="1949.37" style="stroke:#000000;stroke-width:7.34"/>
	<line x1="3352.88" y1="1949.37" x2="3355.73" y2="1949.37" style="stroke:#000000;stroke-width:7.34"/>
	<line x1="3375.90" y1="1949.37" x2="3378.75" y2="1949.37" style="stroke:#000000;stroke-width:7.34"/>
	<line x1="3398.92" y1="1949.37" x2="3401.76" y2="1949.37" style="stroke:#000000;stroke-width:7.34"/>
	<line x1="3421.93" y1="1949.37" x2="3424.78" y2="1949.37" style="stroke:#000000;stroke-width:7.34"/>
	<line x1="3444.95" y1="1949.37" x2="3447.80" y2="1949.37" style="stroke:#000000;stroke-width:7.34"/>
	<line x1="3467.97" y1="1949.37" x2="3470.82" y2="1949.37" style="stroke:#000000;stroke-width:7.34"/>
	<line x1="3490.99" y1="1949.37" x2="3492.22" y2="1949.37" style="stroke:#000000;stroke-width:7.34"/>
	<line x1="3492.22" y1="1949.37" x2="3493.83" y2="1949.37" style="stroke:#000000;stroke-width:7.34"/>
	<line x1="3514.01" y1="1949.37" x2="3516.85" y2="1949.37" style="stroke:#000000;stroke-width:7.34"/>
	<line x1="3537.02" y1="1949.37" x2="3539.99" y2="1949.37" style="stroke:#000000;stroke-width:7.34"/>
	<line x1="3560.04" y1="1949.37" x2="3563.01" y2="1949.37" style="stroke:#000000;stroke-width:7.34"/>
	<line x1="3583.18" y1="1949.37" x2="3586.03" y2="1949.37" style="stroke:#000000;stroke-width:7.34"/>
	<line x1="3606.20" y1="1949.37" x2="3609.05" y2="1949.37" style="stroke:#000000;stroke-width:7.34"/>
	<line x1="3629.22" y1="1949.37" x2="3632.06" y2="1949.37" style="stroke:#000000;stroke-width:7.34"/>
	<line x1="3652.23" y1="1949.37" x2="3655.08" y2="1949.37" style="stroke:#000000;stroke-width:7.34"/>
	<line x1="3675.25" y1="1949.37" x2="3678.10" y2="1949.37" style="stroke:#000000;stroke-width:7.34"/>
	<line x1="3698.27" y1="1949.37" x2="3701.11" y2="1949.37" style="stroke:#000000;stroke-width:7.34"/>
	<line x1="3721.29" y1="1949.37" x2="3724.13" y2="1949.37" style="stroke:#000000;stroke-width:7.34"/>
	<line x1="3744.30" y1="1949.37" x2="3745.29" y2="1949.37" style="stroke:#000000;stroke-width:7.34"/>
	<line x1="3745.29" y1="1949.37" x2="3747.15" y2="1949.37" style="stroke:#000000;stroke-width:7.34"/>
	<line x1="3767.32" y1="1949.37" x2="3770.17" y2="1949.37" style="stroke:#000000;stroke-width:7.34"/>
	<path d="" stroke-linejoin="round" style="fill:none;stroke:#000000;stroke-width:7.34"/>
	<line x1="401.69" y1="2096.14" x2="401.69" y2="258.27" style="stroke:#000000;stroke-width:4.90"/>
	<line x1="401.69" y1="2042.31" x2="367.66" y2="2042.31" style="stroke:#000000;stroke-width:4.90"/>
	<text x="350.71" y="2072.10" style="font-family:'Helvetica';font-size:85.02px;fill:#000000" text-anchor="end">0</text>
	<line x1="401.69" y1="1696.29" x2="367.66" y2="1696.29" style="stroke:#000000;stroke-width:4.90"/>
	<text x="350.71" y="1726.08" style="font-family:'Helvetica';font-size:85.02px;fill:#000000" text-anchor="end">.001</text>
	<line x1="401.69" y1="1350.15" x2="367.66" y2="1350.15" style="stroke:#000000;stroke-width:4.90"/>
	<text x="350.71" y="1379.94" style="font-family:'Helvetica';font-size:85.02px;fill:#000000" text-anchor="end">.002</text>
	<line x1="401.69" y1="1004.14" x2="367.66" y2="1004.14" style="stroke:#000000;stroke-width:4.90"/>
	<text x="350.71" y="1033.93" style="font-family:'Helvetica';font-size:85.02px;fill:#000000" text-anchor="end">.003</text>
	<line x1="401.69" y1="658.12" x2="367.66" y2="658.12" style="stroke:#000000;stroke-width:4.90"/>
	<text x="350.71" y="687.91" style="font-family:'Helvetica';font-size:85.02px;fill:#000000" text-anchor="end">.004</text>
	<line x1="401.69" y1="312.11" x2="367.66" y2="312.11" style="stroke:#000000;stroke-width:4.90"/>
	<text x="350.71" y="341.89" style="font-family:'Helvetica';font-size:85.02px;fill:#000000" text-anchor="end">.005</text>
	<line x1="401.69" y1="2096.14" x2="2078.51" y2="2096.14" style="stroke:#000000;stroke-width:4.90"/>
	<line x1="506.14" y1="2096.14" x2="506.14" y2="2113.10" style="stroke:#000000;stroke-width:4.90"/>
	<line x1="632.73" y1="2096.14" x2="632.73" y2="2113.10" style="stroke:#000000;stroke-width:4.90"/>
	<line x1="759.21" y1="2096.14" x2="759.21" y2="2113.10" style="stroke:#000000;stroke-width:4.90"/>
	<line x1="885.80" y1="2096.14" x2="885.80" y2="2113.10" style="stroke:#000000;stroke-width:4.90"/>
	<line x1="1012.27" y1="2096.14" x2="1012.27" y2="2113.10" style="stroke:#000000;stroke-width:4.90"/>
	<line x1="1138.87" y1="2096.14" x2="1138.87" y2="2113.10" style="stroke:#000000;stroke-width:4.90"/>
	<line x1="1265.47" y1="2096.14" x2="1265.47" y2="2113.10" style="stroke:#000000;stroke-width:4.90"/>
	<line x1="1391.94" y1="2096.14" x2="1391.94" y2="2113.10" style="stroke:#000000;stroke-width:4.90"/>
	<line x1="1518.54" y1="2096.14" x2="1518.54" y2="2113.10" style="stroke:#000000;stroke-width:4.90"/>
	<line x1="1645.01" y1="2096.14" x2="1645.01" y2="2113.10" style="stroke:#000000;stroke-width:4.90"/>
	<line x1="1771.61" y1="2096.14" x2="1771.61" y2="2113.10" style="stroke:#000000;stroke-width:4.90"/>
	<line x1="1898.20" y1="2096.14" x2="1898.20" y2="2113.10" style="stroke:#000000;stroke-width:4.90"/>
	<line x1="2024.67" y1="2096.14" x2="2024.67" y2="2113.10" style="stroke:#000000;stroke-width:4.90"/>
	<line x1="506.14" y1="2096.14" x2="506.14" y2="2130.18" style="stroke:#000000;stroke-width:4.90"/>
	<text x="506.14" y="2206.58" style="font-family:'Helvetica';font-size:85.02px;fill:#000000" text-anchor="middle">20</text>
	<line x1="1012.27" y1="2096.14" x2="1012.27" y2="2130.18" style="stroke:#000000;stroke-width:4.90"/>
	<text x="1012.27" y="2206.58" style="font-family:'Helvetica';font-size:85.02px;fill:#000000" text-anchor="middle">40</text>
	<line x1="1518.54" y1="2096.14" x2="1518.54" y2="2130.18" style="stroke:#000000;stroke-width:4.90"/>
	<text x="1518.54" y="2206.58" style="font-family:'Helvetica';font-size:85.02px;fill:#000000" text-anchor="middle">60</text>
	<line x1="2024.67" y1="2096.14" x2="2024.67" y2="2130.18" style="stroke:#000000;stroke-width:4.90"/>
	<text x="2024.67" y="2206.58" style="font-family:'Helvetica';font-size:85.02px;fill:#000000" text-anchor="middle">80</text>
	<line x1="2147.68" y1="2096.14" x2="3824.49" y2="2096.14" style="stroke:#000000;stroke-width:4.90"/>
	<line x1="2252.13" y1="2096.14" x2="2252.13" y2="2113.10" style="stroke:#000000;stroke-width:4.90"/>
	<line x1="2378.72" y1="2096.14" x2="2378.72" y2="2113.10" style="stroke:#000000;stroke-width:4.90"/>
	<line x1="2505.20" y1="2096.14" x2="2505.20" y2="2113.10" style="stroke:#000000;stroke-width:4.90"/>
	<line x1="2631.79" y1="2096.14" x2="2631.79" y2="2113.10" style="stroke:#000000;stroke-width:4.90"/>
	<line x1="2758.26" y1="2096.14" x2="2758.26" y2="2113.10" style="stroke:#000000;stroke-width:4.90"/>
	<line x1="2884.86" y1="2096.14" x2="2884.86" y2="2113.10" style="stroke:#000000;stroke-width:4.90"/>
	<line x1="3011.46" y1="2096.14" x2="3011.46" y2="2113.10" style="stroke:#000000;stroke-width:4.90"/>
	<line x1="3137.93" y1="2096.14" x2="3137.93" y2="2113.10" style="stroke:#000000;stroke-width:4.90"/>
	<line x1="3264.53" y1="2096.14" x2="3264.53" y2="2113.10" style="stroke:#000000;stroke-width:4.90"/>
	<line x1="3391.00" y1="2096.14" x2="3391.00" y2="2113.10" style="stroke:#000000;stroke-width:4.90"/>
	<line x1="3517.59" y1="2096.14" x2="3517.59" y2="2113.10" style="stroke:#000000;stroke-width:4.90"/>
	<line x1="3644.07" y1="2096.14" x2="3644.07" y2="2113.10" style="stroke:#000000;stroke-width:4.90"/>
	<line x1="3770.66" y1="2096.14" x2="3770.66" y2="2113.10" style="stroke:#000000;stroke-width:4.90"/>
	<line x1="2252.13" y1="2096.14" x2="2252.13" y2="2130.18" style="stroke:#000000;stroke-width:4.90"/>
	<text x="2252.13" y="2206.58" style="font-family:'Helvetica';font-size:85.02px;fill:#000000" text-anchor="middle">20</text>
	<line x1="2758.26" y1="2096.14" x2="2758.26" y2="2130.18" style="stroke:#000000;stroke-width:4.90"/>
	<text x="2758.26" y="2206.58" style="font-family:'Helvetica';font-size:85.02px;fill:#000000" text-anchor="middle">40</text>
	<line x1="3264.53" y1="2096.14" x2="3264.53" y2="2130.18" style="stroke:#000000;stroke-width:4.90"/>
	<text x="3264.53" y="2206.58" style="font-family:'Helvetica';font-size:85.02px;fill:#000000" text-anchor="middle">60</text>
	<line x1="3770.66" y1="2096.14" x2="3770.66" y2="2130.18" style="stroke:#000000;stroke-width:4.90"/>
	<text x="3770.66" y="2206.58" style="font-family:'Helvetica';font-size:85.02px;fill:#000000" text-anchor="middle">80</text>
	<rect x="401.69" y="135.39" width="1676.81" height="122.89" style="fill:#D9E6EB"/>
	<rect x="404.14" y="137.83" width="1671.92" height="117.99" style="fill:none;stroke:#D9E6EB;stroke-width:4.90"/>
	<text x="1240.10" y="215.42" style="font-family:'Helvetica';font-size:93.56px;fill:#000000" text-anchor="middle">Female</text>
	<rect x="2147.68" y="135.39" width="1676.81" height="122.89" style="fill:#D9E6EB"/>
	<rect x="2150.13" y="137.83" width="1671.92" height="117.99" style="fill:none;stroke:#D9E6EB;stroke-width:4.90"/>
	<text x="2986.09" y="215.42" style="font-family:'Helvetica';font-size:93.56px;fill:#000000" text-anchor="middle">Male</text>
	<rect x="596.72" y="2418.27" width="2766.43" height="326.34" style="fill:#FFFFFF"/>
	<rect x="599.60" y="2421.15" width="2760.67" height="320.58" style="fill:none;stroke:#000000;stroke-width:5.76"/>
	<line x1="639.91" y1="2511.46" x2="1014.38" y2="2511.46" style="stroke:#FF0000;stroke-width:8.64"/>
	<line x1="2133.08" y1="2511.46" x2="2507.42" y2="2511.46" style="stroke:#008000;stroke-width:8.64"/>
	<line x1="639.91" y1="2651.43" x2="1014.38" y2="2651.43" style="stroke:#FFD200;stroke-width:8.64"/>
	<line x1="2133.08" y1="2651.43" x2="2507.42" y2="2651.43" style="stroke:#1A476F;stroke-width:8.64"/>
	<text x="1074.40" y="2546.49" style="font-family:'Helvetica';font-size:99.99px;fill:#000000">Respiratory disease</text>
	<text x="2567.44" y="2546.49" style="font-family:'Helvetica';font-size:99.99px;fill:#000000">Asthma, mild</text>
	<text x="1074.40" y="2686.46" style="font-family:'Helvetica';font-size:99.99px;fill:#000000">Asthma, severe</text>
	<text x="2567.44" y="2686.46" style="font-family:'Helvetica';font-size:99.99px;fill:#000000">No comborbidity</text>
	<text x="1980.00" y="2353.56" style="font-family:'Helvetica';font-size:99.99px;fill:#000000" text-anchor="middle">Age (years)</text>
</svg>
