<?xml version="1.0" encoding="UTF-8" standalone="no"?>
<!-- This is a Stata 16.1 generated SVG file (http://www.stata.com) -->

<svg version="1.1" width="1600px" height="1164px" viewBox="0 0 3960 2880" xmlns="http://www.w3.org/2000/svg" xmlns:xlink="http://www.w3.org/1999/xlink">
	<desc>Stata Graph - Graph</desc>
	<rect x="0" y="0" width="3960" height="2880" style="fill:#EAF2F3;stroke:none"/>
	<rect x="0.00" y="0.00" width="3959.88" height="2880.00" style="fill:#EAF2F3"/>
	<rect x="2.88" y="2.88" width="3954.12" height="2874.24" style="fill:none;stroke:#EAF2F3;stroke-width:5.76"/>
	<rect x="401.69" y="402.82" width="1676.81" height="1693.32" style="fill:#FFFFFF"/>
	<rect x="404.14" y="405.27" width="1671.92" height="1688.43" style="fill:none;stroke:#FFFFFF;stroke-width:4.90"/>
	<line x1="401.69" y1="2042.31" x2="2078.51" y2="2042.31" style="stroke:#EAF2F3;stroke-width:7.34"/>
	<line x1="401.69" y1="1927.71" x2="2078.51" y2="1927.71" style="stroke:#EAF2F3;stroke-width:7.34"/>
	<line x1="401.69" y1="1813.12" x2="2078.51" y2="1813.12" style="stroke:#EAF2F3;stroke-width:7.34"/>
	<line x1="401.69" y1="1698.52" x2="2078.51" y2="1698.52" style="stroke:#EAF2F3;stroke-width:7.34"/>
	<line x1="401.69" y1="1583.93" x2="2078.51" y2="1583.93" style="stroke:#EAF2F3;stroke-width:7.34"/>
	<line x1="401.69" y1="1469.33" x2="2078.51" y2="1469.33" style="stroke:#EAF2F3;stroke-width:7.34"/>
	<line x1="401.69" y1="1354.73" x2="2078.51" y2="1354.73" style="stroke:#EAF2F3;stroke-width:7.34"/>
	<line x1="401.69" y1="1240.14" x2="2078.51" y2="1240.14" style="stroke:#EAF2F3;stroke-width:7.34"/>
	<line x1="401.69" y1="1125.67" x2="2078.51" y2="1125.67" style="stroke:#EAF2F3;stroke-width:7.34"/>
	<line x1="401.69" y1="1011.07" x2="2078.51" y2="1011.07" style="stroke:#EAF2F3;stroke-width:7.34"/>
	<rect x="2147.68" y="402.82" width="1676.81" height="1693.32" style="fill:#FFFFFF"/>
	<rect x="2150.13" y="405.27" width="1671.92" height="1688.43" style="fill:none;stroke:#FFFFFF;stroke-width:4.90"/>
	<line x1="2147.68" y1="2042.31" x2="3824.49" y2="2042.31" style="stroke:#EAF2F3;stroke-width:7.34"/>
	<line x1="2147.68" y1="1927.71" x2="3824.49" y2="1927.71" style="stroke:#EAF2F3;stroke-width:7.34"/>
	<line x1="2147.68" y1="1813.12" x2="3824.49" y2="1813.12" style="stroke:#EAF2F3;stroke-width:7.34"/>
	<line x1="2147.68" y1="1698.52" x2="3824.49" y2="1698.52" style="stroke:#EAF2F3;stroke-width:7.34"/>
	<line x1="2147.68" y1="1583.93" x2="3824.49" y2="1583.93" style="stroke:#EAF2F3;stroke-width:7.34"/>
	<line x1="2147.68" y1="1469.33" x2="3824.49" y2="1469.33" style="stroke:#EAF2F3;stroke-width:7.34"/>
	<line x1="2147.68" y1="1354.73" x2="3824.49" y2="1354.73" style="stroke:#EAF2F3;stroke-width:7.34"/>
	<line x1="2147.68" y1="1240.14" x2="3824.49" y2="1240.14" style="stroke:#EAF2F3;stroke-width:7.34"/>
	<line x1="2147.68" y1="1125.67" x2="3824.49" y2="1125.67" style="stroke:#EAF2F3;stroke-width:7.34"/>
	<line x1="2147.68" y1="1011.07" x2="3824.49" y2="1011.07" style="stroke:#EAF2F3;stroke-width:7.34"/>
	<defs>
		<path id="path_aWGeBysU" d="M455.52 2032.53 L455.52 2032.53 L480.89 2031.67 L506.14 2030.55 L531.51 2029.44 L556.75 2028.20 L582.12 2026.84 L607.37 2025.36 L632.73 2023.75 L657.98 2022.01 L683.35 2020.16 L708.59 2018.18 L733.96 2016.07 L759.21 2013.85 L784.58 2011.50 L809.82 2009.14 L835.19 2006.67 L860.43 2004.19 L885.80 2001.72 L911.05 1999.12 L936.42 1996.64 L961.66 1994.17 L987.03 1991.82 L1012.27 1989.59 L1037.64 1987.49 L1062.89 1985.51 L1088.26 1983.77 L1113.50 1982.04 L1138.87 1980.56 L1164.24 1979.20 L1189.48 1977.83 L1214.85 1976.60 L1240.10 1975.36 L1265.47 1974.25 L1290.71 1973.13 L1316.08 1971.89 L1341.33 1970.66 L1366.69 1969.30 L1391.94 1967.81 L1417.31 1966.20 L1442.55 1964.35 L1467.92 1962.12 L1493.17 1959.64 L1518.54 1956.92 L1543.78 1953.83 L1569.15 1950.48 L1594.39 1946.65 L1619.76 1942.44 L1645.01 1937.86 L1670.38 1932.91 L1695.62 1927.47 L1720.99 1921.53 L1746.24 1915.09 L1771.61 1908.04 L1796.85 1900.49 L1822.22 1892.20 L1847.46 1883.29 L1872.83 1873.76 L1898.20 1863.49 L1923.45 1852.35 L1948.82 1840.34 L1974.06 1827.60 L1999.43 1813.86 L2024.67 1799.13 L2024.67 1757.80 L1999.43 1775.13 L1974.06 1791.21 L1948.82 1806.31 L1923.45 1820.30 L1898.20 1833.29 L1872.83 1845.42 L1847.46 1856.56 L1822.22 1866.95 L1796.85 1876.60 L1771.61 1885.51 L1746.24 1893.68 L1720.99 1901.23 L1695.62 1908.16 L1670.38 1914.60 L1645.01 1920.41 L1619.76 1925.86 L1594.39 1930.68 L1569.15 1935.14 L1543.78 1939.22 L1518.54 1942.81 L1493.17 1946.15 L1467.92 1949.00 L1442.55 1951.60 L1417.31 1953.83 L1391.94 1955.81 L1366.69 1957.54 L1341.33 1959.15 L1316.08 1960.63 L1290.71 1961.99 L1265.47 1963.23 L1240.10 1964.59 L1214.85 1965.83 L1189.48 1967.19 L1164.24 1968.68 L1138.87 1970.29 L1113.50 1972.02 L1088.26 1973.87 L1062.89 1975.98 L1037.64 1978.33 L1012.27 1980.68 L987.03 1983.40 L961.66 1986.13 L936.42 1988.97 L911.05 1991.94 L885.80 1994.91 L860.43 1997.76 L835.19 2000.61 L809.82 2003.33 L784.58 2006.05 L759.21 2008.53 L733.96 2011.00 L708.59 2013.23 L683.35 2015.33 L657.98 2017.31 L632.73 2019.29 L607.37 2021.02 L582.12 2022.63 L556.75 2024.12 L531.51 2025.48 L506.14 2026.84 L480.89 2027.95 L455.52 2029.07 L455.52 2032.53 Z" stroke-linejoin="round"/>
	</defs>
	<defs>
		<clipPath id="clipPath_LpqxOUKy">
			<use xlink:href="#path_aWGeBysU"/>
		</clipPath>
	</defs>
	<use xlink:href="#path_aWGeBysU" style="stroke:none;fill:#E6E6E6"/>
	<use xlink:href="#path_aWGeBysU" style="fill:none;stroke:#E0E0E0;stroke-width:14.69" clip-path="url(#clipPath_LpqxOUKy)"/>
	<defs>
		<path id="path_DqSnGepN" d="M455.52 2021.27 L455.52 2021.27 L480.89 2019.29 L506.14 2016.94 L531.51 2014.59 L556.75 2011.87 L582.12 2008.90 L607.37 2005.68 L632.73 2002.21 L657.98 1998.50 L683.35 1994.54 L708.59 1990.33 L733.96 1985.75 L759.21 1981.05 L784.58 1976.10 L809.82 1971.03 L835.19 1965.71 L860.43 1960.39 L885.80 1954.94 L911.05 1949.49 L936.42 1944.05 L961.66 1938.85 L987.03 1933.65 L1012.27 1928.83 L1037.64 1924.25 L1062.89 1920.04 L1088.26 1916.20 L1113.50 1912.49 L1138.87 1909.27 L1164.24 1906.18 L1189.48 1903.21 L1214.85 1900.49 L1240.10 1897.89 L1265.47 1895.41 L1290.71 1892.82 L1316.08 1890.22 L1341.33 1887.49 L1366.69 1884.52 L1391.94 1881.31 L1417.31 1877.59 L1442.55 1873.51 L1467.92 1868.68 L1493.17 1863.36 L1518.54 1857.30 L1543.78 1850.62 L1569.15 1843.19 L1594.39 1834.90 L1619.76 1825.86 L1645.01 1815.96 L1670.38 1805.07 L1695.62 1793.19 L1720.99 1780.20 L1746.24 1766.22 L1771.61 1750.87 L1796.85 1734.41 L1822.22 1716.47 L1847.46 1697.16 L1872.83 1676.25 L1898.20 1653.85 L1923.45 1629.59 L1948.82 1603.60 L1974.06 1575.76 L1999.43 1545.93 L2024.67 1514.00 L2024.67 1429.11 L1999.43 1466.24 L1974.06 1501.01 L1948.82 1533.31 L1923.45 1563.38 L1898.20 1591.35 L1872.83 1617.34 L1847.46 1641.47 L1822.22 1663.87 L1796.85 1684.54 L1771.61 1703.60 L1746.24 1721.29 L1720.99 1737.50 L1695.62 1752.48 L1670.38 1766.22 L1645.01 1778.84 L1619.76 1790.47 L1594.39 1800.99 L1569.15 1810.52 L1543.78 1819.18 L1518.54 1827.10 L1493.17 1834.03 L1467.92 1840.34 L1442.55 1845.79 L1417.31 1850.62 L1391.94 1854.82 L1366.69 1858.54 L1341.33 1861.88 L1316.08 1864.97 L1290.71 1867.82 L1265.47 1870.54 L1240.10 1873.39 L1214.85 1876.11 L1189.48 1879.08 L1164.24 1882.30 L1138.87 1885.64 L1113.50 1889.35 L1088.26 1893.43 L1062.89 1898.01 L1037.64 1902.84 L1012.27 1908.16 L987.03 1913.85 L961.66 1919.92 L936.42 1926.11 L911.05 1932.54 L885.80 1938.85 L860.43 1945.16 L835.19 1951.35 L809.82 1957.29 L784.58 1963.11 L759.21 1968.68 L733.96 1974.00 L708.59 1978.95 L683.35 1983.65 L657.98 1987.98 L632.73 1992.07 L607.37 1995.90 L582.12 1999.49 L556.75 2002.71 L531.51 2005.80 L506.14 2008.53 L480.89 2011.12 L455.52 2013.48 L455.52 2021.27 Z" stroke-linejoin="round"/>
	</defs>
	<defs>
		<clipPath id="clipPath_WxGrPHDf">
			<use xlink:href="#path_DqSnGepN"/>
		</clipPath>
	</defs>
	<use xlink:href="#path_DqSnGepN" style="stroke:none;fill:#E6E6E6"/>
	<use xlink:href="#path_DqSnGepN" style="fill:none;stroke:#E0E0E0;stroke-width:14.69" clip-path="url(#clipPath_WxGrPHDf)"/>
	<defs>
		<path id="path_HlFaWVnC" d="M455.52 2003.20 L455.52 2003.20 L480.89 1999.37 L506.14 1995.28 L531.51 1990.58 L556.75 1985.63 L582.12 1980.19 L607.37 1974.25 L632.73 1967.81 L657.98 1960.88 L683.35 1953.45 L708.59 1945.53 L733.96 1937.24 L759.21 1928.46 L784.58 1919.30 L809.82 1909.89 L835.19 1900.12 L860.43 1890.09 L885.80 1879.94 L911.05 1869.92 L936.42 1859.90 L961.66 1850.00 L987.03 1840.59 L1012.27 1831.56 L1037.64 1823.14 L1062.89 1815.22 L1088.26 1808.04 L1113.50 1801.36 L1138.87 1795.17 L1164.24 1789.48 L1189.48 1784.16 L1214.85 1779.09 L1240.10 1774.26 L1265.47 1769.56 L1290.71 1764.85 L1316.08 1759.90 L1341.33 1754.83 L1366.69 1749.26 L1391.94 1743.20 L1417.31 1736.51 L1442.55 1728.72 L1467.92 1719.93 L1493.17 1709.91 L1518.54 1698.77 L1543.78 1686.27 L1569.15 1672.29 L1594.39 1657.06 L1619.76 1640.11 L1645.01 1621.55 L1670.38 1601.38 L1695.62 1579.22 L1720.99 1555.09 L1746.24 1528.98 L1771.61 1500.52 L1796.85 1469.70 L1822.22 1436.29 L1847.46 1400.28 L1872.83 1361.42 L1898.20 1319.46 L1923.45 1274.42 L1948.82 1226.03 L1974.06 1174.18 L1999.43 1118.49 L2024.67 1059.09 L2024.67 904.15 L1999.43 972.71 L1974.06 1036.81 L1948.82 1096.58 L1923.45 1152.15 L1898.20 1204.00 L1872.83 1252.14 L1847.46 1296.69 L1822.22 1338.15 L1796.85 1376.39 L1771.61 1411.91 L1746.24 1444.58 L1720.99 1474.65 L1695.62 1502.50 L1670.38 1527.99 L1645.01 1551.38 L1619.76 1572.79 L1594.39 1592.34 L1569.15 1610.16 L1543.78 1626.25 L1518.54 1640.85 L1493.17 1653.85 L1467.92 1665.48 L1442.55 1675.75 L1417.31 1684.66 L1391.94 1692.46 L1366.69 1699.39 L1341.33 1705.58 L1316.08 1711.27 L1290.71 1716.59 L1265.47 1721.79 L1240.10 1726.99 L1214.85 1732.18 L1189.48 1737.75 L1164.24 1743.57 L1138.87 1750.00 L1113.50 1756.93 L1088.26 1764.48 L1062.89 1772.90 L1037.64 1782.06 L1012.27 1791.96 L987.03 1802.60 L961.66 1813.86 L936.42 1825.49 L911.05 1837.37 L885.80 1849.25 L860.43 1861.01 L835.19 1872.64 L809.82 1883.78 L784.58 1894.67 L759.21 1904.94 L733.96 1914.84 L708.59 1924.13 L683.35 1932.91 L657.98 1941.08 L632.73 1948.75 L607.37 1955.93 L582.12 1962.49 L556.75 1968.55 L531.51 1974.25 L506.14 1979.44 L480.89 1984.27 L455.52 1988.72 L455.52 2003.20 Z" stroke-linejoin="round"/>
	</defs>
	<defs>
		<clipPath id="clipPath_vByikxsP">
			<use xlink:href="#path_HlFaWVnC"/>
		</clipPath>
	</defs>
	<use xlink:href="#path_HlFaWVnC" style="stroke:none;fill:#E6E6E6"/>
	<use xlink:href="#path_HlFaWVnC" style="fill:none;stroke:#E0E0E0;stroke-width:14.69" clip-path="url(#clipPath_vByikxsP)"/>
	<line x1="455.52" y1="1974.37" x2="458.37" y2="1974.37" style="stroke:#A0A0A0;stroke-width:7.34"/>
	<line x1="478.54" y1="1974.37" x2="480.77" y2="1974.37" style="stroke:#A0A0A0;stroke-width:7.34"/>
	<line x1="480.77" y1="1974.37" x2="481.39" y2="1974.37" style="stroke:#A0A0A0;stroke-width:7.34"/>
	<line x1="501.56" y1="1974.37" x2="504.40" y2="1974.37" style="stroke:#A0A0A0;stroke-width:7.34"/>
	<line x1="524.58" y1="1974.37" x2="527.42" y2="1974.37" style="stroke:#A0A0A0;stroke-width:7.34"/>
	<line x1="547.59" y1="1974.37" x2="550.44" y2="1974.37" style="stroke:#A0A0A0;stroke-width:7.34"/>
	<line x1="570.61" y1="1974.37" x2="573.58" y2="1974.37" style="stroke:#A0A0A0;stroke-width:7.34"/>
	<line x1="593.75" y1="1974.37" x2="596.60" y2="1974.37" style="stroke:#A0A0A0;stroke-width:7.34"/>
	<line x1="616.77" y1="1974.37" x2="619.62" y2="1974.37" style="stroke:#A0A0A0;stroke-width:7.34"/>
	<line x1="639.79" y1="1974.37" x2="642.63" y2="1974.37" style="stroke:#A0A0A0;stroke-width:7.34"/>
	<line x1="662.80" y1="1974.37" x2="665.65" y2="1974.37" style="stroke:#A0A0A0;stroke-width:7.34"/>
	<line x1="685.82" y1="1974.37" x2="688.67" y2="1974.37" style="stroke:#A0A0A0;stroke-width:7.34"/>
	<line x1="708.84" y1="1974.37" x2="711.69" y2="1974.37" style="stroke:#A0A0A0;stroke-width:7.34"/>
	<line x1="731.86" y1="1974.37" x2="733.84" y2="1974.37" style="stroke:#A0A0A0;stroke-width:7.34"/>
	<line x1="733.84" y1="1974.37" x2="734.70" y2="1974.37" style="stroke:#A0A0A0;stroke-width:7.34"/>
	<line x1="754.88" y1="1974.37" x2="757.72" y2="1974.37" style="stroke:#A0A0A0;stroke-width:7.34"/>
	<line x1="777.89" y1="1974.37" x2="780.74" y2="1974.37" style="stroke:#A0A0A0;stroke-width:7.34"/>
	<line x1="800.91" y1="1974.37" x2="803.88" y2="1974.37" style="stroke:#A0A0A0;stroke-width:7.34"/>
	<line x1="823.93" y1="1974.37" x2="826.90" y2="1974.37" style="stroke:#A0A0A0;stroke-width:7.34"/>
	<line x1="847.07" y1="1974.37" x2="849.91" y2="1974.37" style="stroke:#A0A0A0;stroke-width:7.34"/>
	<line x1="870.09" y1="1974.37" x2="872.93" y2="1974.37" style="stroke:#A0A0A0;stroke-width:7.34"/>
	<line x1="893.10" y1="1974.37" x2="895.95" y2="1974.37" style="stroke:#A0A0A0;stroke-width:7.34"/>
	<line x1="916.12" y1="1974.37" x2="918.97" y2="1974.37" style="stroke:#A0A0A0;stroke-width:7.34"/>
	<line x1="939.14" y1="1974.37" x2="941.99" y2="1974.37" style="stroke:#A0A0A0;stroke-width:7.34"/>
	<line x1="962.16" y1="1974.37" x2="965.00" y2="1974.37" style="stroke:#A0A0A0;stroke-width:7.34"/>
	<line x1="985.17" y1="1974.37" x2="986.91" y2="1974.37" style="stroke:#A0A0A0;stroke-width:7.34"/>
	<line x1="986.91" y1="1974.37" x2="988.02" y2="1974.37" style="stroke:#A0A0A0;stroke-width:7.34"/>
	<line x1="1008.19" y1="1974.37" x2="1011.04" y2="1974.37" style="stroke:#A0A0A0;stroke-width:7.34"/>
	<line x1="1031.21" y1="1974.37" x2="1034.06" y2="1974.37" style="stroke:#A0A0A0;stroke-width:7.34"/>
	<line x1="1054.23" y1="1974.37" x2="1057.20" y2="1974.37" style="stroke:#A0A0A0;stroke-width:7.34"/>
	<line x1="1077.24" y1="1974.37" x2="1080.21" y2="1974.37" style="stroke:#A0A0A0;stroke-width:7.34"/>
	<line x1="1100.38" y1="1974.37" x2="1103.23" y2="1974.37" style="stroke:#A0A0A0;stroke-width:7.34"/>
	<line x1="1123.40" y1="1974.37" x2="1126.25" y2="1974.37" style="stroke:#A0A0A0;stroke-width:7.34"/>
	<line x1="1146.42" y1="1974.37" x2="1149.27" y2="1974.37" style="stroke:#A0A0A0;stroke-width:7.34"/>
	<line x1="1169.44" y1="1974.37" x2="1172.28" y2="1974.37" style="stroke:#A0A0A0;stroke-width:7.34"/>
	<line x1="1192.45" y1="1974.37" x2="1195.30" y2="1974.37" style="stroke:#A0A0A0;stroke-width:7.34"/>
	<line x1="1215.47" y1="1974.37" x2="1218.32" y2="1974.37" style="stroke:#A0A0A0;stroke-width:7.34"/>
	<line x1="1238.49" y1="1974.37" x2="1240.10" y2="1974.37" style="stroke:#A0A0A0;stroke-width:7.34"/>
	<line x1="1240.10" y1="1974.37" x2="1241.34" y2="1974.37" style="stroke:#A0A0A0;stroke-width:7.34"/>
	<line x1="1261.51" y1="1974.37" x2="1264.35" y2="1974.37" style="stroke:#A0A0A0;stroke-width:7.34"/>
	<line x1="1284.53" y1="1974.37" x2="1287.37" y2="1974.37" style="stroke:#A0A0A0;stroke-width:7.34"/>
	<line x1="1307.54" y1="1974.37" x2="1310.51" y2="1974.37" style="stroke:#A0A0A0;stroke-width:7.34"/>
	<line x1="1330.56" y1="1974.37" x2="1333.53" y2="1974.37" style="stroke:#A0A0A0;stroke-width:7.34"/>
	<line x1="1353.70" y1="1974.37" x2="1356.55" y2="1974.37" style="stroke:#A0A0A0;stroke-width:7.34"/>
	<line x1="1376.72" y1="1974.37" x2="1379.57" y2="1974.37" style="stroke:#A0A0A0;stroke-width:7.34"/>
	<line x1="1399.74" y1="1974.37" x2="1402.58" y2="1974.37" style="stroke:#A0A0A0;stroke-width:7.34"/>
	<line x1="1422.75" y1="1974.37" x2="1425.60" y2="1974.37" style="stroke:#A0A0A0;stroke-width:7.34"/>
	<line x1="1445.77" y1="1974.37" x2="1448.62" y2="1974.37" style="stroke:#A0A0A0;stroke-width:7.34"/>
	<line x1="1468.79" y1="1974.37" x2="1471.63" y2="1974.37" style="stroke:#A0A0A0;stroke-width:7.34"/>
	<line x1="1491.81" y1="1974.37" x2="1493.17" y2="1974.37" style="stroke:#A0A0A0;stroke-width:7.34"/>
	<line x1="1493.17" y1="1974.37" x2="1494.65" y2="1974.37" style="stroke:#A0A0A0;stroke-width:7.34"/>
	<line x1="1514.82" y1="1974.37" x2="1517.67" y2="1974.37" style="stroke:#A0A0A0;stroke-width:7.34"/>
	<line x1="1537.84" y1="1974.37" x2="1540.69" y2="1974.37" style="stroke:#A0A0A0;stroke-width:7.34"/>
	<line x1="1560.86" y1="1974.37" x2="1563.83" y2="1974.37" style="stroke:#A0A0A0;stroke-width:7.34"/>
	<line x1="1584.00" y1="1974.37" x2="1586.85" y2="1974.37" style="stroke:#A0A0A0;stroke-width:7.34"/>
	<line x1="1607.02" y1="1974.37" x2="1609.86" y2="1974.37" style="stroke:#A0A0A0;stroke-width:7.34"/>
	<line x1="1630.04" y1="1974.37" x2="1632.88" y2="1974.37" style="stroke:#A0A0A0;stroke-width:7.34"/>
	<line x1="1653.05" y1="1974.37" x2="1655.90" y2="1974.37" style="stroke:#A0A0A0;stroke-width:7.34"/>
	<line x1="1676.07" y1="1974.37" x2="1678.92" y2="1974.37" style="stroke:#A0A0A0;stroke-width:7.34"/>
	<line x1="1699.09" y1="1974.37" x2="1701.93" y2="1974.37" style="stroke:#A0A0A0;stroke-width:7.34"/>
	<line x1="1722.11" y1="1974.37" x2="1724.95" y2="1974.37" style="stroke:#A0A0A0;stroke-width:7.34"/>
	<line x1="1745.12" y1="1974.37" x2="1746.24" y2="1974.37" style="stroke:#A0A0A0;stroke-width:7.34"/>
	<line x1="1746.24" y1="1974.37" x2="1747.97" y2="1974.37" style="stroke:#A0A0A0;stroke-width:7.34"/>
	<line x1="1768.14" y1="1974.37" x2="1770.99" y2="1974.37" style="stroke:#A0A0A0;stroke-width:7.34"/>
	<line x1="1791.16" y1="1974.37" x2="1794.00" y2="1974.37" style="stroke:#A0A0A0;stroke-width:7.34"/>
	<line x1="1814.17" y1="1974.37" x2="1817.14" y2="1974.37" style="stroke:#A0A0A0;stroke-width:7.34"/>
	<line x1="1837.32" y1="1974.37" x2="1840.16" y2="1974.37" style="stroke:#A0A0A0;stroke-width:7.34"/>
	<line x1="1860.33" y1="1974.37" x2="1863.18" y2="1974.37" style="stroke:#A0A0A0;stroke-width:7.34"/>
	<line x1="1883.35" y1="1974.37" x2="1886.20" y2="1974.37" style="stroke:#A0A0A0;stroke-width:7.34"/>
	<line x1="1906.37" y1="1974.37" x2="1909.21" y2="1974.37" style="stroke:#A0A0A0;stroke-width:7.34"/>
	<line x1="1929.39" y1="1974.37" x2="1932.23" y2="1974.37" style="stroke:#A0A0A0;stroke-width:7.34"/>
	<line x1="1952.40" y1="1974.37" x2="1955.25" y2="1974.37" style="stroke:#A0A0A0;stroke-width:7.34"/>
	<line x1="1975.42" y1="1974.37" x2="1978.27" y2="1974.37" style="stroke:#A0A0A0;stroke-width:7.34"/>
	<line x1="1998.44" y1="1974.37" x2="1999.31" y2="1974.37" style="stroke:#A0A0A0;stroke-width:7.34"/>
	<line x1="1999.31" y1="1974.37" x2="2001.29" y2="1974.37" style="stroke:#A0A0A0;stroke-width:7.34"/>
	<line x1="2021.46" y1="1974.37" x2="2024.30" y2="1974.37" style="stroke:#A0A0A0;stroke-width:7.34"/>
	<path d="" stroke-linejoin="round" style="fill:none;stroke:#A0A0A0;stroke-width:7.34"/>
	<path d=" M455.52 2017.81 L480.77 2015.58 L506.14 2013.10 L531.38 2010.51 L556.75 2007.66 L582.00 2004.57 L607.37 2001.22 L632.61 1997.51 L657.98 1993.55 L683.22 1989.47 L708.59 1984.89 L733.84 1980.19 L759.21 1975.24 L784.45 1970.04 L809.82 1964.59 L835.07 1958.90 L860.43 1953.21 L885.68 1947.27 L911.05 1941.45 L936.29 1935.51 L961.66 1929.82 L986.91 1924.25 L1012.27 1918.93 L1037.52 1914.10 L1062.89 1909.52 L1088.13 1905.31 L1113.50 1901.48 L1138.87 1898.01 L1164.12 1894.80 L1189.48 1891.70 L1214.73 1888.86 L1240.10 1886.13 L1265.34 1883.53 L1290.71 1880.94 L1315.96 1878.09 L1341.33 1875.24 L1366.57 1872.02 L1391.94 1868.56 L1417.18 1864.72 L1442.55 1860.27 L1467.80 1855.07 L1493.17 1849.38 L1518.41 1842.82 L1543.78 1835.64 L1569.03 1827.60 L1594.39 1818.69 L1619.64 1808.91 L1645.01 1798.14 L1670.25 1786.51 L1695.62 1773.64 L1720.87 1759.78 L1746.24 1744.68 L1771.48 1728.22 L1796.85 1710.40 L1822.10 1691.22 L1847.46 1670.43 L1872.71 1648.03 L1898.08 1623.77 L1923.45 1597.79 L1948.69 1569.82 L1974.06 1539.87 L1999.31 1507.69 L2024.67 1473.29" stroke-linejoin="round" style="fill:none;stroke:#008000;stroke-width:7.34"/>
	<path d=" M455.52 1996.64 L480.77 1992.44 L506.14 1987.98 L531.38 1983.03 L556.75 1977.71 L582.00 1971.89 L607.37 1965.71 L632.61 1958.90 L657.98 1951.60 L683.22 1943.80 L708.59 1935.51 L733.84 1926.60 L759.21 1917.32 L784.45 1907.67 L809.82 1897.52 L835.07 1887.00 L860.43 1876.23 L885.68 1865.34 L911.05 1854.45 L936.29 1843.56 L961.66 1832.79 L986.91 1822.52 L1012.27 1812.62 L1037.52 1803.47 L1062.89 1795.05 L1088.13 1787.25 L1113.50 1780.20 L1138.87 1773.64 L1164.12 1767.58 L1189.48 1761.88 L1214.73 1756.69 L1240.10 1751.61 L1265.34 1746.66 L1290.71 1741.71 L1315.96 1736.64 L1341.33 1731.19 L1366.57 1725.38 L1391.94 1718.94 L1417.18 1711.64 L1442.55 1703.35 L1467.80 1693.82 L1493.17 1683.05 L1518.41 1670.92 L1543.78 1657.44 L1569.03 1642.46 L1594.39 1626.00 L1619.64 1607.81 L1645.01 1587.89 L1670.25 1566.11 L1695.62 1542.34 L1720.87 1516.48 L1746.24 1488.39 L1771.48 1457.94 L1796.85 1424.90 L1822.10 1389.14 L1847.46 1350.53 L1872.71 1308.82 L1898.08 1263.90 L1923.45 1215.63 L1948.69 1163.78 L1974.06 1107.97 L1999.31 1048.32 L2024.67 984.46" stroke-linejoin="round" style="fill:none;stroke:#FF7F00;stroke-width:7.34"/>
	<path d=" M455.52 2031.05 L480.77 2029.93 L506.14 2028.82 L531.38 2027.71 L556.75 2026.35 L582.00 2024.86 L607.37 2023.38 L632.61 2021.64 L657.98 2019.79 L683.22 2017.93 L708.59 2015.83 L733.84 2013.72 L759.21 2011.37 L784.45 2008.90 L809.82 2006.42 L835.07 2003.82 L860.43 2001.22 L885.68 1998.50 L911.05 1995.78 L936.29 1993.06 L961.66 1990.33 L986.91 1987.86 L1012.27 1985.38 L1037.52 1983.16 L1062.89 1981.05 L1088.13 1979.07 L1113.50 1977.34 L1138.87 1975.73 L1164.12 1974.25 L1189.48 1972.76 L1214.73 1971.52 L1240.10 1970.29 L1265.34 1969.05 L1290.71 1967.81 L1315.96 1966.57 L1341.33 1965.21 L1366.57 1963.73 L1391.94 1962.12 L1417.18 1960.26 L1442.55 1958.28 L1467.80 1955.93 L1493.17 1953.21 L1518.41 1950.24 L1543.78 1946.90 L1569.03 1943.18 L1594.39 1939.10 L1619.64 1934.52 L1645.01 1929.57 L1670.25 1924.13 L1695.62 1918.31 L1720.87 1911.87 L1746.24 1904.82 L1771.48 1897.27 L1796.85 1889.10 L1822.10 1880.19 L1847.46 1870.54 L1872.71 1860.14 L1898.08 1849.01 L1923.45 1837.00 L1948.69 1824.01 L1974.06 1810.15 L1999.31 1795.30 L2024.67 1779.33" stroke-linejoin="round" style="fill:none;stroke:#1A476F;stroke-width:7.34"/>
	<defs>
		<path id="path_VIMOwVUu" d="M2201.51 2028.70 L2201.51 2028.70 L2226.88 2027.34 L2252.13 2025.85 L2277.49 2024.37 L2302.74 2022.51 L2328.11 2020.65 L2353.35 2018.55 L2378.72 2016.32 L2403.97 2013.85 L2429.34 2011.25 L2454.58 2008.53 L2479.95 2005.68 L2505.20 2002.59 L2530.56 1999.37 L2555.81 1996.03 L2581.18 1992.56 L2606.42 1989.10 L2631.79 1985.63 L2657.04 1982.04 L2682.41 1978.58 L2707.65 1975.11 L2733.02 1971.77 L2758.26 1968.68 L2783.63 1965.71 L2808.88 1962.98 L2834.25 1960.51 L2859.49 1958.16 L2884.86 1956.05 L2910.11 1954.07 L2935.47 1952.22 L2960.72 1950.48 L2986.09 1948.88 L3011.46 1947.27 L3036.70 1945.66 L3062.07 1943.93 L3087.32 1942.19 L3112.68 1940.34 L3137.93 1938.23 L3163.30 1936.01 L3188.54 1933.28 L3213.91 1930.31 L3239.16 1926.85 L3264.53 1923.01 L3289.77 1918.68 L3315.14 1913.98 L3340.38 1908.66 L3365.75 1902.84 L3391.00 1896.53 L3416.37 1889.60 L3441.61 1881.93 L3466.98 1873.63 L3492.22 1864.60 L3517.59 1854.82 L3542.84 1844.30 L3568.21 1832.79 L3593.45 1820.42 L3618.82 1807.05 L3644.07 1792.70 L3669.43 1777.23 L3694.68 1760.52 L3720.05 1742.70 L3745.42 1723.52 L3770.66 1703.10 L3770.66 1644.81 L3745.42 1669.07 L3720.05 1691.59 L3694.68 1712.63 L3669.43 1732.18 L3644.07 1750.37 L3618.82 1767.33 L3593.45 1783.05 L3568.21 1797.52 L3542.84 1810.89 L3517.59 1823.39 L3492.22 1834.77 L3466.98 1845.42 L3441.61 1855.07 L3416.37 1864.10 L3391.00 1872.27 L3365.75 1879.70 L3340.38 1886.63 L3315.14 1892.82 L3289.77 1898.51 L3264.53 1903.58 L3239.16 1908.16 L3213.91 1912.12 L3188.54 1915.71 L3163.30 1918.93 L3137.93 1921.65 L3112.68 1924.13 L3087.32 1926.23 L3062.07 1928.33 L3036.70 1930.19 L3011.46 1932.05 L2986.09 1933.78 L2960.72 1935.63 L2935.47 1937.61 L2910.11 1939.59 L2884.86 1941.82 L2859.49 1944.30 L2834.25 1946.90 L2808.88 1949.74 L2783.63 1952.96 L2758.26 1956.30 L2733.02 1960.01 L2707.65 1963.97 L2682.41 1967.93 L2657.04 1972.02 L2631.79 1976.10 L2606.42 1980.06 L2581.18 1984.15 L2555.81 1987.98 L2530.56 1991.57 L2505.20 1995.16 L2479.95 1998.50 L2454.58 2001.72 L2429.34 2004.69 L2403.97 2007.54 L2378.72 2010.13 L2353.35 2012.61 L2328.11 2014.84 L2302.74 2016.94 L2277.49 2018.92 L2252.13 2020.65 L2226.88 2022.26 L2201.51 2023.87 L2201.51 2028.70 Z" stroke-linejoin="round"/>
	</defs>
	<defs>
		<clipPath id="clipPath_ZKMPelOz">
			<use xlink:href="#path_VIMOwVUu"/>
		</clipPath>
	</defs>
	<use xlink:href="#path_VIMOwVUu" style="stroke:none;fill:#E6E6E6"/>
	<use xlink:href="#path_VIMOwVUu" style="fill:none;stroke:#E0E0E0;stroke-width:14.69" clip-path="url(#clipPath_ZKMPelOz)"/>
	<defs>
		<path id="path_mAyxVqhT" d="M2201.51 2012.98 L2201.51 2012.98 L2226.88 2010.13 L2252.13 2006.92 L2277.49 2003.45 L2302.74 1999.74 L2328.11 1995.65 L2353.35 1991.20 L2378.72 1986.37 L2403.97 1981.18 L2429.34 1975.61 L2454.58 1969.67 L2479.95 1963.36 L2505.20 1956.67 L2530.56 1949.87 L2555.81 1942.69 L2581.18 1935.39 L2606.42 1927.84 L2631.79 1920.17 L2657.04 1912.62 L2682.41 1905.07 L2707.65 1897.64 L2733.02 1890.46 L2758.26 1883.78 L2783.63 1877.35 L2808.88 1871.53 L2834.25 1865.96 L2859.49 1861.01 L2884.86 1856.31 L2910.11 1851.98 L2935.47 1848.02 L2960.72 1844.18 L2986.09 1840.59 L3011.46 1837.00 L3036.70 1833.41 L3062.07 1829.70 L3087.32 1825.86 L3112.68 1821.78 L3137.93 1817.20 L3163.30 1812.13 L3188.54 1806.31 L3213.91 1799.75 L3239.16 1792.20 L3264.53 1783.79 L3289.77 1774.38 L3315.14 1763.99 L3340.38 1752.48 L3365.75 1739.86 L3391.00 1726.00 L3416.37 1710.77 L3441.61 1694.31 L3466.98 1676.25 L3492.22 1656.57 L3517.59 1635.41 L3542.84 1612.27 L3568.21 1587.39 L3593.45 1560.41 L3618.82 1531.33 L3644.07 1500.02 L3669.43 1466.36 L3694.68 1430.22 L3720.05 1391.36 L3745.42 1349.91 L3770.66 1305.48 L3770.66 1186.68 L3745.42 1238.53 L3720.05 1286.92 L3694.68 1332.09 L3669.43 1374.04 L3644.07 1413.15 L3618.82 1449.41 L3593.45 1483.19 L3568.21 1514.38 L3542.84 1543.21 L3517.59 1569.94 L3492.22 1594.57 L3466.98 1617.22 L3441.61 1638.13 L3416.37 1657.31 L3391.00 1674.88 L3365.75 1690.97 L3340.38 1705.70 L3315.14 1719.06 L3289.77 1731.19 L3264.53 1742.08 L3239.16 1751.86 L3213.91 1760.65 L3188.54 1768.32 L3163.30 1775.00 L3137.93 1780.82 L3112.68 1786.02 L3087.32 1790.72 L3062.07 1794.93 L3036.70 1799.01 L3011.46 1802.85 L2986.09 1806.68 L2960.72 1810.64 L2935.47 1814.73 L2910.11 1819.06 L2884.86 1823.76 L2859.49 1828.96 L2834.25 1834.65 L2808.88 1840.96 L2783.63 1847.77 L2758.26 1855.19 L2733.02 1863.11 L2707.65 1871.53 L2682.41 1880.32 L2657.04 1889.10 L2631.79 1898.01 L2606.42 1906.80 L2581.18 1915.46 L2555.81 1923.75 L2530.56 1931.92 L2505.20 1939.59 L2479.95 1946.90 L2454.58 1953.95 L2429.34 1960.39 L2403.97 1966.57 L2378.72 1972.27 L2353.35 1977.59 L2328.11 1982.54 L2302.74 1987.12 L2277.49 1991.32 L2252.13 1995.28 L2226.88 1998.87 L2201.51 2002.09 L2201.51 2012.98 Z" stroke-linejoin="round"/>
	</defs>
	<defs>
		<clipPath id="clipPath_vMQkOOTq">
			<use xlink:href="#path_mAyxVqhT"/>
		</clipPath>
	</defs>
	<use xlink:href="#path_mAyxVqhT" style="stroke:none;fill:#E6E6E6"/>
	<use xlink:href="#path_mAyxVqhT" style="fill:none;stroke:#E0E0E0;stroke-width:14.69" clip-path="url(#clipPath_vMQkOOTq)"/>
	<defs>
		<path id="path_hHrMTmGP" d="M2201.51 1987.73 L2201.51 1987.73 L2226.88 1982.29 L2252.13 1976.47 L2277.49 1970.04 L2302.74 1963.11 L2328.11 1955.43 L2353.35 1947.14 L2378.72 1938.11 L2403.97 1928.46 L2429.34 1918.06 L2454.58 1907.05 L2479.95 1895.41 L2505.20 1883.16 L2530.56 1870.29 L2555.81 1857.05 L2581.18 1843.44 L2606.42 1829.45 L2631.79 1815.35 L2657.04 1801.24 L2682.41 1787.25 L2707.65 1773.52 L2733.02 1760.28 L2758.26 1747.65 L2783.63 1735.77 L2808.88 1724.88 L2834.25 1714.73 L2859.49 1705.45 L2884.86 1696.79 L2910.11 1688.75 L2935.47 1681.32 L2960.72 1674.27 L2986.09 1667.46 L3011.46 1660.90 L3036.70 1654.22 L3062.07 1647.41 L3087.32 1640.36 L3112.68 1632.56 L3137.93 1624.15 L3163.30 1614.62 L3188.54 1603.85 L3213.91 1591.60 L3239.16 1577.61 L3264.53 1561.90 L3289.77 1544.45 L3315.14 1525.02 L3340.38 1503.61 L3365.75 1480.10 L3391.00 1454.23 L3416.37 1426.02 L3441.61 1395.08 L3466.98 1361.54 L3492.22 1325.03 L3517.59 1285.31 L3542.84 1242.37 L3568.21 1195.96 L3593.45 1145.71 L3618.82 1091.51 L3644.07 1033.22 L3669.43 970.48 L3694.68 903.03 L3720.05 830.88 L3745.42 753.41 L3770.66 670.75 L3770.66 456.65 L3745.42 552.19 L3720.05 641.29 L3694.68 724.58 L3669.43 802.17 L3644.07 874.32 L3618.82 941.27 L3593.45 1003.52 L3568.21 1061.19 L3542.84 1114.53 L3517.59 1163.91 L3492.22 1209.45 L3466.98 1251.52 L3441.61 1290.13 L3416.37 1325.78 L3391.00 1358.32 L3365.75 1388.27 L3340.38 1415.50 L3315.14 1440.25 L3289.77 1462.77 L3264.53 1482.94 L3239.16 1501.13 L3213.91 1517.35 L3188.54 1531.58 L3163.30 1543.95 L3137.93 1554.84 L3112.68 1564.50 L3087.32 1573.16 L3062.07 1581.08 L3036.70 1588.50 L3011.46 1595.68 L2986.09 1602.86 L2960.72 1610.16 L2935.47 1617.83 L2910.11 1626.00 L2884.86 1634.91 L2859.49 1644.57 L2834.25 1655.21 L2808.88 1666.84 L2783.63 1679.59 L2758.26 1693.32 L2733.02 1708.30 L2707.65 1723.89 L2682.41 1740.23 L2657.04 1756.69 L2631.79 1773.27 L2606.42 1789.60 L2581.18 1805.69 L2555.81 1821.41 L2530.56 1836.51 L2505.20 1850.86 L2479.95 1864.60 L2454.58 1877.59 L2429.34 1889.72 L2403.97 1901.11 L2378.72 1911.87 L2353.35 1921.77 L2328.11 1931.06 L2302.74 1939.47 L2277.49 1947.39 L2252.13 1954.69 L2226.88 1961.38 L2201.51 1967.56 L2201.51 1987.73 Z" stroke-linejoin="round"/>
	</defs>
	<defs>
		<clipPath id="clipPath_XqtNZGam">
			<use xlink:href="#path_hHrMTmGP"/>
		</clipPath>
	</defs>
	<use xlink:href="#path_hHrMTmGP" style="stroke:none;fill:#E6E6E6"/>
	<use xlink:href="#path_hHrMTmGP" style="fill:none;stroke:#E0E0E0;stroke-width:14.69" clip-path="url(#clipPath_XqtNZGam)"/>
	<line x1="2201.39" y1="1947.39" x2="2204.24" y2="1947.39" style="stroke:#A0A0A0;stroke-width:7.34"/>
	<line x1="2224.41" y1="1947.39" x2="2226.76" y2="1947.39" style="stroke:#A0A0A0;stroke-width:7.34"/>
	<line x1="2226.76" y1="1947.39" x2="2227.25" y2="1947.39" style="stroke:#A0A0A0;stroke-width:7.34"/>
	<line x1="2247.42" y1="1947.39" x2="2250.27" y2="1947.39" style="stroke:#A0A0A0;stroke-width:7.34"/>
	<line x1="2270.44" y1="1947.39" x2="2273.29" y2="1947.39" style="stroke:#A0A0A0;stroke-width:7.34"/>
	<line x1="2293.46" y1="1947.39" x2="2296.43" y2="1947.39" style="stroke:#A0A0A0;stroke-width:7.34"/>
	<line x1="2316.60" y1="1947.39" x2="2319.45" y2="1947.39" style="stroke:#A0A0A0;stroke-width:7.34"/>
	<line x1="2339.62" y1="1947.39" x2="2342.46" y2="1947.39" style="stroke:#A0A0A0;stroke-width:7.34"/>
	<line x1="2362.64" y1="1947.39" x2="2365.48" y2="1947.39" style="stroke:#A0A0A0;stroke-width:7.34"/>
	<line x1="2385.65" y1="1947.39" x2="2388.50" y2="1947.39" style="stroke:#A0A0A0;stroke-width:7.34"/>
	<line x1="2408.67" y1="1947.39" x2="2411.52" y2="1947.39" style="stroke:#A0A0A0;stroke-width:7.34"/>
	<line x1="2431.69" y1="1947.39" x2="2434.53" y2="1947.39" style="stroke:#A0A0A0;stroke-width:7.34"/>
	<line x1="2454.70" y1="1947.39" x2="2457.55" y2="1947.39" style="stroke:#A0A0A0;stroke-width:7.34"/>
	<line x1="2477.72" y1="1947.39" x2="2479.83" y2="1947.39" style="stroke:#A0A0A0;stroke-width:7.34"/>
	<line x1="2479.83" y1="1947.39" x2="2480.57" y2="1947.39" style="stroke:#A0A0A0;stroke-width:7.34"/>
	<line x1="2500.74" y1="1947.39" x2="2503.59" y2="1947.39" style="stroke:#A0A0A0;stroke-width:7.34"/>
	<line x1="2523.76" y1="1947.39" x2="2526.60" y2="1947.39" style="stroke:#A0A0A0;stroke-width:7.34"/>
	<line x1="2546.78" y1="1947.39" x2="2549.74" y2="1947.39" style="stroke:#A0A0A0;stroke-width:7.34"/>
	<line x1="2569.92" y1="1947.39" x2="2572.76" y2="1947.39" style="stroke:#A0A0A0;stroke-width:7.34"/>
	<line x1="2592.93" y1="1947.39" x2="2595.78" y2="1947.39" style="stroke:#A0A0A0;stroke-width:7.34"/>
	<line x1="2615.95" y1="1947.39" x2="2618.80" y2="1947.39" style="stroke:#A0A0A0;stroke-width:7.34"/>
	<line x1="2638.97" y1="1947.39" x2="2641.82" y2="1947.39" style="stroke:#A0A0A0;stroke-width:7.34"/>
	<line x1="2661.99" y1="1947.39" x2="2664.83" y2="1947.39" style="stroke:#A0A0A0;stroke-width:7.34"/>
	<line x1="2685.00" y1="1947.39" x2="2687.85" y2="1947.39" style="stroke:#A0A0A0;stroke-width:7.34"/>
	<line x1="2708.02" y1="1947.39" x2="2710.87" y2="1947.39" style="stroke:#A0A0A0;stroke-width:7.34"/>
	<line x1="2731.04" y1="1947.39" x2="2732.89" y2="1947.39" style="stroke:#A0A0A0;stroke-width:7.34"/>
	<line x1="2732.89" y1="1947.39" x2="2733.89" y2="1947.39" style="stroke:#A0A0A0;stroke-width:7.34"/>
	<line x1="2754.06" y1="1947.39" x2="2756.90" y2="1947.39" style="stroke:#A0A0A0;stroke-width:7.34"/>
	<line x1="2777.07" y1="1947.39" x2="2779.92" y2="1947.39" style="stroke:#A0A0A0;stroke-width:7.34"/>
	<line x1="2800.09" y1="1947.39" x2="2803.06" y2="1947.39" style="stroke:#A0A0A0;stroke-width:7.34"/>
	<line x1="2823.23" y1="1947.39" x2="2826.08" y2="1947.39" style="stroke:#A0A0A0;stroke-width:7.34"/>
	<line x1="2846.25" y1="1947.39" x2="2849.10" y2="1947.39" style="stroke:#A0A0A0;stroke-width:7.34"/>
	<line x1="2869.27" y1="1947.39" x2="2872.11" y2="1947.39" style="stroke:#A0A0A0;stroke-width:7.34"/>
	<line x1="2892.28" y1="1947.39" x2="2895.13" y2="1947.39" style="stroke:#A0A0A0;stroke-width:7.34"/>
	<line x1="2915.30" y1="1947.39" x2="2918.15" y2="1947.39" style="stroke:#A0A0A0;stroke-width:7.34"/>
	<line x1="2938.32" y1="1947.39" x2="2941.17" y2="1947.39" style="stroke:#A0A0A0;stroke-width:7.34"/>
	<line x1="2961.34" y1="1947.39" x2="2964.18" y2="1947.39" style="stroke:#A0A0A0;stroke-width:7.34"/>
	<line x1="2984.36" y1="1947.39" x2="2986.09" y2="1947.39" style="stroke:#A0A0A0;stroke-width:7.34"/>
	<line x1="2986.09" y1="1947.39" x2="2987.20" y2="1947.39" style="stroke:#A0A0A0;stroke-width:7.34"/>
	<line x1="3007.37" y1="1947.39" x2="3010.22" y2="1947.39" style="stroke:#A0A0A0;stroke-width:7.34"/>
	<line x1="3030.39" y1="1947.39" x2="3033.36" y2="1947.39" style="stroke:#A0A0A0;stroke-width:7.34"/>
	<line x1="3053.41" y1="1947.39" x2="3056.38" y2="1947.39" style="stroke:#A0A0A0;stroke-width:7.34"/>
	<line x1="3076.55" y1="1947.39" x2="3079.39" y2="1947.39" style="stroke:#A0A0A0;stroke-width:7.34"/>
	<line x1="3099.57" y1="1947.39" x2="3102.41" y2="1947.39" style="stroke:#A0A0A0;stroke-width:7.34"/>
	<line x1="3122.58" y1="1947.39" x2="3125.43" y2="1947.39" style="stroke:#A0A0A0;stroke-width:7.34"/>
	<line x1="3145.60" y1="1947.39" x2="3148.45" y2="1947.39" style="stroke:#A0A0A0;stroke-width:7.34"/>
	<line x1="3168.62" y1="1947.39" x2="3171.47" y2="1947.39" style="stroke:#A0A0A0;stroke-width:7.34"/>
	<line x1="3191.64" y1="1947.39" x2="3194.48" y2="1947.39" style="stroke:#A0A0A0;stroke-width:7.34"/>
	<line x1="3214.65" y1="1947.39" x2="3217.50" y2="1947.39" style="stroke:#A0A0A0;stroke-width:7.34"/>
	<line x1="3237.67" y1="1947.39" x2="3239.16" y2="1947.39" style="stroke:#A0A0A0;stroke-width:7.34"/>
	<line x1="3239.16" y1="1947.39" x2="3240.52" y2="1947.39" style="stroke:#A0A0A0;stroke-width:7.34"/>
	<line x1="3260.69" y1="1947.39" x2="3263.53" y2="1947.39" style="stroke:#A0A0A0;stroke-width:7.34"/>
	<line x1="3283.71" y1="1947.39" x2="3286.68" y2="1947.39" style="stroke:#A0A0A0;stroke-width:7.34"/>
	<line x1="3306.72" y1="1947.39" x2="3309.69" y2="1947.39" style="stroke:#A0A0A0;stroke-width:7.34"/>
	<line x1="3329.86" y1="1947.39" x2="3332.71" y2="1947.39" style="stroke:#A0A0A0;stroke-width:7.34"/>
	<line x1="3352.88" y1="1947.39" x2="3355.73" y2="1947.39" style="stroke:#A0A0A0;stroke-width:7.34"/>
	<line x1="3375.90" y1="1947.39" x2="3378.75" y2="1947.39" style="stroke:#A0A0A0;stroke-width:7.34"/>
	<line x1="3398.92" y1="1947.39" x2="3401.76" y2="1947.39" style="stroke:#A0A0A0;stroke-width:7.34"/>
	<line x1="3421.93" y1="1947.39" x2="3424.78" y2="1947.39" style="stroke:#A0A0A0;stroke-width:7.34"/>
	<line x1="3444.95" y1="1947.39" x2="3447.80" y2="1947.39" style="stroke:#A0A0A0;stroke-width:7.34"/>
	<line x1="3467.97" y1="1947.39" x2="3470.82" y2="1947.39" style="stroke:#A0A0A0;stroke-width:7.34"/>
	<line x1="3490.99" y1="1947.39" x2="3492.22" y2="1947.39" style="stroke:#A0A0A0;stroke-width:7.34"/>
	<line x1="3492.22" y1="1947.39" x2="3493.83" y2="1947.39" style="stroke:#A0A0A0;stroke-width:7.34"/>
	<line x1="3514.01" y1="1947.39" x2="3516.85" y2="1947.39" style="stroke:#A0A0A0;stroke-width:7.34"/>
	<line x1="3537.02" y1="1947.39" x2="3539.99" y2="1947.39" style="stroke:#A0A0A0;stroke-width:7.34"/>
	<line x1="3560.04" y1="1947.39" x2="3563.01" y2="1947.39" style="stroke:#A0A0A0;stroke-width:7.34"/>
	<line x1="3583.18" y1="1947.39" x2="3586.03" y2="1947.39" style="stroke:#A0A0A0;stroke-width:7.34"/>
	<line x1="3606.20" y1="1947.39" x2="3609.05" y2="1947.39" style="stroke:#A0A0A0;stroke-width:7.34"/>
	<line x1="3629.22" y1="1947.39" x2="3632.06" y2="1947.39" style="stroke:#A0A0A0;stroke-width:7.34"/>
	<line x1="3652.23" y1="1947.39" x2="3655.08" y2="1947.39" style="stroke:#A0A0A0;stroke-width:7.34"/>
	<line x1="3675.25" y1="1947.39" x2="3678.10" y2="1947.39" style="stroke:#A0A0A0;stroke-width:7.34"/>
	<line x1="3698.27" y1="1947.39" x2="3701.11" y2="1947.39" style="stroke:#A0A0A0;stroke-width:7.34"/>
	<line x1="3721.29" y1="1947.39" x2="3724.13" y2="1947.39" style="stroke:#A0A0A0;stroke-width:7.34"/>
	<line x1="3744.30" y1="1947.39" x2="3745.29" y2="1947.39" style="stroke:#A0A0A0;stroke-width:7.34"/>
	<line x1="3745.29" y1="1947.39" x2="3747.15" y2="1947.39" style="stroke:#A0A0A0;stroke-width:7.34"/>
	<line x1="3767.32" y1="1947.39" x2="3770.17" y2="1947.39" style="stroke:#A0A0A0;stroke-width:7.34"/>
	<path d="" stroke-linejoin="round" style="fill:none;stroke:#A0A0A0;stroke-width:7.34"/>
	<path d=" M2201.39 2008.03 L2226.76 2004.94 L2252.13 2001.60 L2277.37 1997.88 L2302.74 1993.92 L2327.99 1989.59 L2353.35 1984.89 L2378.60 1979.81 L2403.97 1974.25 L2429.21 1968.43 L2454.58 1962.24 L2479.83 1955.56 L2505.20 1948.63 L2530.44 1941.33 L2555.81 1933.65 L2581.05 1925.86 L2606.42 1917.81 L2631.67 1909.65 L2657.04 1901.35 L2682.28 1893.19 L2707.65 1885.27 L2732.89 1877.47 L2758.26 1870.04 L2783.51 1863.24 L2808.88 1856.93 L2834.12 1851.11 L2859.49 1845.67 L2884.74 1840.84 L2910.11 1836.26 L2935.35 1832.05 L2960.72 1828.09 L2986.09 1824.38 L3011.33 1820.67 L3036.70 1816.95 L3061.95 1813.12 L3087.32 1809.03 L3112.56 1804.58 L3137.93 1799.75 L3163.17 1794.31 L3188.54 1788.12 L3213.79 1780.94 L3239.16 1772.90 L3264.40 1763.86 L3289.77 1753.72 L3315.01 1742.45 L3340.38 1730.08 L3365.63 1716.47 L3391.00 1701.49 L3416.24 1685.16 L3441.61 1667.34 L3466.86 1647.91 L3492.22 1626.74 L3517.47 1603.85 L3542.84 1579.10 L3568.08 1552.24 L3593.45 1523.29 L3618.70 1491.98 L3644.07 1458.32 L3669.31 1421.93 L3694.68 1382.95 L3719.93 1341.12 L3745.29 1296.32 L3770.66 1248.31" stroke-linejoin="round" style="fill:none;stroke:#008000;stroke-width:7.34"/>
	<path d=" M2201.39 1978.45 L2226.76 1972.64 L2252.13 1966.45 L2277.37 1959.52 L2302.74 1952.09 L2327.99 1944.05 L2353.35 1935.26 L2378.60 1925.73 L2403.97 1915.59 L2429.21 1904.70 L2454.58 1893.06 L2479.83 1880.81 L2505.20 1867.82 L2530.44 1854.20 L2555.81 1840.10 L2581.05 1825.49 L2606.42 1810.52 L2631.67 1795.30 L2657.04 1779.95 L2682.28 1764.73 L2707.65 1749.88 L2732.89 1735.40 L2758.26 1721.66 L2783.51 1708.92 L2808.88 1697.16 L2834.12 1686.27 L2859.49 1676.37 L2884.74 1667.21 L2910.11 1658.80 L2935.35 1650.88 L2960.72 1643.58 L2986.09 1636.52 L3011.33 1629.71 L3036.70 1622.78 L3061.95 1615.61 L3087.32 1608.06 L3112.56 1599.89 L3137.93 1590.86 L3163.17 1580.71 L3188.54 1569.08 L3213.79 1555.96 L3239.16 1540.86 L3264.40 1524.03 L3289.77 1505.22 L3315.01 1484.30 L3340.38 1461.29 L3365.63 1435.92 L3391.00 1408.20 L3416.24 1377.75 L3441.61 1344.71 L3466.86 1308.57 L3492.22 1269.47 L3517.47 1226.90 L3542.84 1180.86 L3568.08 1131.11 L3593.45 1077.28 L3618.70 1019.24 L3644.07 956.74 L3669.31 889.42 L3694.68 817.15 L3719.93 739.55 L3745.29 656.51 L3770.66 567.66" stroke-linejoin="round" style="fill:none;stroke:#FF7F00;stroke-width:7.34"/>
	<path d=" M2201.39 2026.47 L2226.76 2025.11 L2252.13 2023.50 L2277.37 2021.77 L2302.74 2020.03 L2327.99 2017.93 L2353.35 2015.83 L2378.60 2013.48 L2403.97 2010.88 L2429.21 2008.28 L2454.58 2005.31 L2479.83 2002.34 L2505.20 1999.12 L2530.44 1995.65 L2555.81 1992.19 L2581.05 1988.60 L2606.42 1984.89 L2631.67 1981.05 L2657.04 1977.34 L2682.28 1973.50 L2707.65 1969.79 L2732.89 1966.20 L2758.26 1962.86 L2783.51 1959.64 L2808.88 1956.67 L2834.12 1954.07 L2859.49 1951.60 L2884.74 1949.25 L2910.11 1947.14 L2935.35 1945.29 L2960.72 1943.43 L2986.09 1941.70 L3011.33 1939.97 L3036.70 1938.23 L3061.95 1936.50 L3087.32 1934.64 L3112.56 1932.54 L3137.93 1930.31 L3163.17 1927.84 L3188.54 1924.87 L3213.79 1921.65 L3239.16 1917.94 L3264.40 1913.73 L3289.77 1909.03 L3315.01 1903.83 L3340.38 1898.14 L3365.63 1891.83 L3391.00 1884.90 L3416.24 1877.35 L3441.61 1869.05 L3466.86 1860.14 L3492.22 1850.37 L3517.47 1839.85 L3542.84 1828.34 L3568.08 1815.96 L3593.45 1802.48 L3618.70 1788.00 L3644.07 1772.40 L3669.31 1755.57 L3694.68 1737.63 L3719.93 1718.20 L3745.29 1697.41 L3770.66 1675.26" stroke-linejoin="round" style="fill:none;stroke:#1A476F;stroke-width:7.34"/>
	<line x1="401.69" y1="2096.14" x2="401.69" y2="402.82" style="stroke:#000000;stroke-width:4.90"/>
	<line x1="401.69" y1="2042.31" x2="367.66" y2="2042.31" style="stroke:#000000;stroke-width:4.90"/>
	<text x="350.71" y="2072.10" style="font-family:'Helvetica';font-size:85.02px;fill:#000000" text-anchor="end">0</text>
	<line x1="401.69" y1="1927.71" x2="367.66" y2="1927.71" style="stroke:#000000;stroke-width:4.90"/>
	<text x="350.71" y="1957.50" style="font-family:'Helvetica';font-size:85.02px;fill:#000000" text-anchor="end">.001</text>
	<line x1="401.69" y1="1813.12" x2="367.66" y2="1813.12" style="stroke:#000000;stroke-width:4.90"/>
	<text x="350.71" y="1842.91" style="font-family:'Helvetica';font-size:85.02px;fill:#000000" text-anchor="end">.002</text>
	<line x1="401.69" y1="1698.52" x2="367.66" y2="1698.52" style="stroke:#000000;stroke-width:4.90"/>
	<text x="350.71" y="1728.31" style="font-family:'Helvetica';font-size:85.02px;fill:#000000" text-anchor="end">.003</text>
	<line x1="401.69" y1="1583.93" x2="367.66" y2="1583.93" style="stroke:#000000;stroke-width:4.90"/>
	<text x="350.71" y="1613.71" style="font-family:'Helvetica';font-size:85.02px;fill:#000000" text-anchor="end">.004</text>
	<line x1="401.69" y1="1469.33" x2="367.66" y2="1469.33" style="stroke:#000000;stroke-width:4.90"/>
	<text x="350.71" y="1499.12" style="font-family:'Helvetica';font-size:85.02px;fill:#000000" text-anchor="end">.005</text>
	<line x1="401.69" y1="1354.73" x2="367.66" y2="1354.73" style="stroke:#000000;stroke-width:4.90"/>
	<text x="350.71" y="1384.52" style="font-family:'Helvetica';font-size:85.02px;fill:#000000" text-anchor="end">.006</text>
	<line x1="401.69" y1="1240.14" x2="367.66" y2="1240.14" style="stroke:#000000;stroke-width:4.90"/>
	<text x="350.71" y="1269.93" style="font-family:'Helvetica';font-size:85.02px;fill:#000000" text-anchor="end">.007</text>
	<line x1="401.69" y1="1125.67" x2="367.66" y2="1125.67" style="stroke:#000000;stroke-width:4.90"/>
	<text x="350.71" y="1155.45" style="font-family:'Helvetica';font-size:85.02px;fill:#000000" text-anchor="end">.008</text>
	<line x1="401.69" y1="1011.07" x2="367.66" y2="1011.07" style="stroke:#000000;stroke-width:4.90"/>
	<text x="350.71" y="1040.86" style="font-family:'Helvetica';font-size:85.02px;fill:#000000" text-anchor="end">.009</text>
	<line x1="401.69" y1="2096.14" x2="2078.51" y2="2096.14" style="stroke:#000000;stroke-width:4.90"/>
	<line x1="506.14" y1="2096.14" x2="506.14" y2="2113.10" style="stroke:#000000;stroke-width:4.90"/>
	<line x1="632.73" y1="2096.14" x2="632.73" y2="2113.10" style="stroke:#000000;stroke-width:4.90"/>
	<line x1="759.21" y1="2096.14" x2="759.21" y2="2113.10" style="stroke:#000000;stroke-width:4.90"/>
	<line x1="885.80" y1="2096.14" x2="885.80" y2="2113.10" style="stroke:#000000;stroke-width:4.90"/>
	<line x1="1012.27" y1="2096.14" x2="1012.27" y2="2113.10" style="stroke:#000000;stroke-width:4.90"/>
	<line x1="1138.87" y1="2096.14" x2="1138.87" y2="2113.10" style="stroke:#000000;stroke-width:4.90"/>
	<line x1="1265.47" y1="2096.14" x2="1265.47" y2="2113.10" style="stroke:#000000;stroke-width:4.90"/>
	<line x1="1391.94" y1="2096.14" x2="1391.94" y2="2113.10" style="stroke:#000000;stroke-width:4.90"/>
	<line x1="1518.54" y1="2096.14" x2="1518.54" y2="2113.10" style="stroke:#000000;stroke-width:4.90"/>
	<line x1="1645.01" y1="2096.14" x2="1645.01" y2="2113.10" style="stroke:#000000;stroke-width:4.90"/>
	<line x1="1771.61" y1="2096.14" x2="1771.61" y2="2113.10" style="stroke:#000000;stroke-width:4.90"/>
	<line x1="1898.20" y1="2096.14" x2="1898.20" y2="2113.10" style="stroke:#000000;stroke-width:4.90"/>
	<line x1="2024.67" y1="2096.14" x2="2024.67" y2="2113.10" style="stroke:#000000;stroke-width:4.90"/>
	<line x1="506.14" y1="2096.14" x2="506.14" y2="2130.18" style="stroke:#000000;stroke-width:4.90"/>
	<text x="506.14" y="2206.58" style="font-family:'Helvetica';font-size:85.02px;fill:#000000" text-anchor="middle">20</text>
	<line x1="1012.27" y1="2096.14" x2="1012.27" y2="2130.18" style="stroke:#000000;stroke-width:4.90"/>
	<text x="1012.27" y="2206.58" style="font-family:'Helvetica';font-size:85.02px;fill:#000000" text-anchor="middle">40</text>
	<line x1="1518.54" y1="2096.14" x2="1518.54" y2="2130.18" style="stroke:#000000;stroke-width:4.90"/>
	<text x="1518.54" y="2206.58" style="font-family:'Helvetica';font-size:85.02px;fill:#000000" text-anchor="middle">60</text>
	<line x1="2024.67" y1="2096.14" x2="2024.67" y2="2130.18" style="stroke:#000000;stroke-width:4.90"/>
	<text x="2024.67" y="2206.58" style="font-family:'Helvetica';font-size:85.02px;fill:#000000" text-anchor="middle">80</text>
	<line x1="2147.68" y1="2096.14" x2="3824.49" y2="2096.14" style="stroke:#000000;stroke-width:4.90"/>
	<line x1="2252.13" y1="2096.14" x2="2252.13" y2="2113.10" style="stroke:#000000;stroke-width:4.90"/>
	<line x1="2378.72" y1="2096.14" x2="2378.72" y2="2113.10" style="stroke:#000000;stroke-width:4.90"/>
	<line x1="2505.20" y1="2096.14" x2="2505.20" y2="2113.10" style="stroke:#000000;stroke-width:4.90"/>
	<line x1="2631.79" y1="2096.14" x2="2631.79" y2="2113.10" style="stroke:#000000;stroke-width:4.90"/>
	<line x1="2758.26" y1="2096.14" x2="2758.26" y2="2113.10" style="stroke:#000000;stroke-width:4.90"/>
	<line x1="2884.86" y1="2096.14" x2="2884.86" y2="2113.10" style="stroke:#000000;stroke-width:4.90"/>
	<line x1="3011.46" y1="2096.14" x2="3011.46" y2="2113.10" style="stroke:#000000;stroke-width:4.90"/>
	<line x1="3137.93" y1="2096.14" x2="3137.93" y2="2113.10" style="stroke:#000000;stroke-width:4.90"/>
	<line x1="3264.53" y1="2096.14" x2="3264.53" y2="2113.10" style="stroke:#000000;stroke-width:4.90"/>
	<line x1="3391.00" y1="2096.14" x2="3391.00" y2="2113.10" style="stroke:#000000;stroke-width:4.90"/>
	<line x1="3517.59" y1="2096.14" x2="3517.59" y2="2113.10" style="stroke:#000000;stroke-width:4.90"/>
	<line x1="3644.07" y1="2096.14" x2="3644.07" y2="2113.10" style="stroke:#000000;stroke-width:4.90"/>
	<line x1="3770.66" y1="2096.14" x2="3770.66" y2="2113.10" style="stroke:#000000;stroke-width:4.90"/>
	<line x1="2252.13" y1="2096.14" x2="2252.13" y2="2130.18" style="stroke:#000000;stroke-width:4.90"/>
	<text x="2252.13" y="2206.58" style="font-family:'Helvetica';font-size:85.02px;fill:#000000" text-anchor="middle">20</text>
	<line x1="2758.26" y1="2096.14" x2="2758.26" y2="2130.18" style="stroke:#000000;stroke-width:4.90"/>
	<text x="2758.26" y="2206.58" style="font-family:'Helvetica';font-size:85.02px;fill:#000000" text-anchor="middle">40</text>
	<line x1="3264.53" y1="2096.14" x2="3264.53" y2="2130.18" style="stroke:#000000;stroke-width:4.90"/>
	<text x="3264.53" y="2206.58" style="font-family:'Helvetica';font-size:85.02px;fill:#000000" text-anchor="middle">60</text>
	<line x1="3770.66" y1="2096.14" x2="3770.66" y2="2130.18" style="stroke:#000000;stroke-width:4.90"/>
	<text x="3770.66" y="2206.58" style="font-family:'Helvetica';font-size:85.02px;fill:#000000" text-anchor="middle">80</text>
	<rect x="401.69" y="279.93" width="1676.81" height="122.89" style="fill:#D9E6EB"/>
	<rect x="404.14" y="282.38" width="1671.92" height="117.99" style="fill:none;stroke:#D9E6EB;stroke-width:4.90"/>
	<text x="1240.10" y="359.96" style="font-family:'Helvetica';font-size:93.56px;fill:#000000" text-anchor="middle">Female</text>
	<rect x="2147.68" y="279.93" width="1676.81" height="122.89" style="fill:#D9E6EB"/>
	<rect x="2150.13" y="282.38" width="1671.92" height="117.99" style="fill:none;stroke:#D9E6EB;stroke-width:4.90"/>
	<text x="2986.09" y="359.96" style="font-family:'Helvetica';font-size:93.56px;fill:#000000" text-anchor="middle">Male</text>
	<rect x="592.39" y="2418.27" width="2775.09" height="326.34" style="fill:#FFFFFF"/>
	<rect x="595.27" y="2421.15" width="2769.33" height="320.58" style="fill:none;stroke:#000000;stroke-width:5.76"/>
	<line x1="635.58" y1="2511.46" x2="1009.92" y2="2511.46" style="stroke:#008000;stroke-width:8.64"/>
	<line x1="635.58" y1="2651.43" x2="1009.92" y2="2651.43" style="stroke:#FF7F00;stroke-width:8.64"/>
	<line x1="1971.21" y1="2511.46" x2="2345.56" y2="2511.46" style="stroke:#1A476F;stroke-width:8.64"/>
	<line x1="1971.21" y1="2651.43" x2="1974.06" y2="2651.43" style="stroke:#A0A0A0;stroke-width:8.64"/>
	<line x1="1994.23" y1="2651.43" x2="1997.08" y2="2651.43" style="stroke:#A0A0A0;stroke-width:8.64"/>
	<line x1="2017.25" y1="2651.43" x2="2020.10" y2="2651.43" style="stroke:#A0A0A0;stroke-width:8.64"/>
	<line x1="2040.27" y1="2651.43" x2="2043.24" y2="2651.43" style="stroke:#A0A0A0;stroke-width:8.64"/>
	<line x1="2063.28" y1="2651.43" x2="2066.25" y2="2651.43" style="stroke:#A0A0A0;stroke-width:8.64"/>
	<line x1="2086.43" y1="2651.43" x2="2089.27" y2="2651.43" style="stroke:#A0A0A0;stroke-width:8.64"/>
	<line x1="2109.44" y1="2651.43" x2="2112.29" y2="2651.43" style="stroke:#A0A0A0;stroke-width:8.64"/>
	<line x1="2132.46" y1="2651.43" x2="2135.31" y2="2651.43" style="stroke:#A0A0A0;stroke-width:8.64"/>
	<line x1="2155.48" y1="2651.43" x2="2158.32" y2="2651.43" style="stroke:#A0A0A0;stroke-width:8.64"/>
	<line x1="2178.49" y1="2651.43" x2="2181.34" y2="2651.43" style="stroke:#A0A0A0;stroke-width:8.64"/>
	<line x1="2201.51" y1="2651.43" x2="2204.36" y2="2651.43" style="stroke:#A0A0A0;stroke-width:8.64"/>
	<line x1="2224.53" y1="2651.43" x2="2227.38" y2="2651.43" style="stroke:#A0A0A0;stroke-width:8.64"/>
	<line x1="2247.55" y1="2651.43" x2="2250.39" y2="2651.43" style="stroke:#A0A0A0;stroke-width:8.64"/>
	<line x1="2270.57" y1="2651.43" x2="2273.41" y2="2651.43" style="stroke:#A0A0A0;stroke-width:8.64"/>
	<line x1="2293.58" y1="2651.43" x2="2296.55" y2="2651.43" style="stroke:#A0A0A0;stroke-width:8.64"/>
	<line x1="2316.60" y1="2651.43" x2="2319.57" y2="2651.43" style="stroke:#A0A0A0;stroke-width:8.64"/>
	<line x1="2339.74" y1="2651.43" x2="2342.59" y2="2651.43" style="stroke:#A0A0A0;stroke-width:8.64"/>
	<text x="1069.94" y="2546.49" style="font-family:'Helvetica';font-size:99.99px;fill:#000000">1 comorbidity</text>
	<text x="1069.94" y="2686.46" style="font-family:'Helvetica';font-size:99.99px;fill:#000000">2+ comorbidities</text>
	<text x="2405.58" y="2546.49" style="font-family:'Helvetica';font-size:99.99px;fill:#000000">No comborbidity</text>
	<text x="2405.58" y="2686.46" style="font-family:'Helvetica';font-size:99.99px;fill:#000000">Ref (Age 65, White)</text>
	<text x="1980.00" y="2353.56" style="font-family:'Helvetica';font-size:99.99px;fill:#000000" text-anchor="middle">Age (years)</text>
	<text x="1980.00" y="195.01" style="font-family:'Helvetica';font-size:110.01px;fill:#000000" text-anchor="middle">Ethnicity Asian</text>
</svg>
