<?xml version="1.0" encoding="UTF-8" standalone="no"?>
<!-- This is a Stata 16.1 generated SVG file (http://www.stata.com) -->

<svg version="1.1" width="1600px" height="1164px" viewBox="0 0 3960 2880" xmlns="http://www.w3.org/2000/svg" xmlns:xlink="http://www.w3.org/1999/xlink">
	<desc>Stata Graph - Graph</desc>
	<rect x="0" y="0" width="3960" height="2880" style="fill:#EAF2F3;stroke:none"/>
	<rect x="0.00" y="0.00" width="3959.88" height="2880.00" style="fill:#EAF2F3"/>
	<rect x="2.88" y="2.88" width="3954.12" height="2874.24" style="fill:none;stroke:#EAF2F3;stroke-width:5.76"/>
	<rect x="401.69" y="258.27" width="1676.81" height="1697.90" style="fill:#FFFFFF"/>
	<rect x="404.14" y="260.72" width="1671.92" height="1693.01" style="fill:none;stroke:#FFFFFF;stroke-width:4.90"/>
	<line x1="401.69" y1="1902.22" x2="2078.51" y2="1902.22" style="stroke:#EAF2F3;stroke-width:7.34"/>
	<line x1="401.69" y1="1584.30" x2="2078.51" y2="1584.30" style="stroke:#EAF2F3;stroke-width:7.34"/>
	<line x1="401.69" y1="1266.25" x2="2078.51" y2="1266.25" style="stroke:#EAF2F3;stroke-width:7.34"/>
	<line x1="401.69" y1="948.20" x2="2078.51" y2="948.20" style="stroke:#EAF2F3;stroke-width:7.34"/>
	<line x1="401.69" y1="630.15" x2="2078.51" y2="630.15" style="stroke:#EAF2F3;stroke-width:7.34"/>
	<rect x="2147.68" y="258.27" width="1676.81" height="1697.90" style="fill:#FFFFFF"/>
	<rect x="2150.13" y="260.72" width="1671.92" height="1693.01" style="fill:none;stroke:#FFFFFF;stroke-width:4.90"/>
	<line x1="2147.68" y1="1902.22" x2="3824.49" y2="1902.22" style="stroke:#EAF2F3;stroke-width:7.34"/>
	<line x1="2147.68" y1="1584.30" x2="3824.49" y2="1584.30" style="stroke:#EAF2F3;stroke-width:7.34"/>
	<line x1="2147.68" y1="1266.25" x2="3824.49" y2="1266.25" style="stroke:#EAF2F3;stroke-width:7.34"/>
	<line x1="2147.68" y1="948.20" x2="3824.49" y2="948.20" style="stroke:#EAF2F3;stroke-width:7.34"/>
	<line x1="2147.68" y1="630.15" x2="3824.49" y2="630.15" style="stroke:#EAF2F3;stroke-width:7.34"/>
	<defs>
		<path id="path_vrEPVaYJ" d="M455.52 1902.22 L455.52 1902.22 L480.89 1902.22 L506.14 1902.22 L531.51 1902.22 L556.75 1902.10 L582.12 1902.10 L607.37 1902.10 L632.73 1901.97 L657.98 1901.97 L683.35 1901.85 L708.59 1901.73 L733.96 1901.73 L759.21 1901.48 L784.58 1901.35 L809.82 1901.23 L835.19 1900.98 L860.43 1900.74 L885.80 1900.49 L911.05 1900.12 L936.42 1899.87 L961.66 1899.37 L987.03 1899.00 L1012.27 1898.51 L1037.64 1898.01 L1062.89 1897.52 L1088.26 1896.90 L1113.50 1896.28 L1138.87 1895.54 L1164.24 1894.80 L1189.48 1893.93 L1214.85 1893.06 L1240.10 1892.07 L1265.47 1890.96 L1290.71 1889.72 L1316.08 1888.36 L1341.33 1887.00 L1366.69 1885.39 L1391.94 1883.66 L1417.31 1881.68 L1442.55 1879.57 L1467.92 1877.22 L1493.17 1874.62 L1518.54 1871.78 L1543.78 1868.56 L1569.15 1865.09 L1594.39 1861.13 L1619.76 1856.80 L1645.01 1851.85 L1670.38 1846.41 L1695.62 1840.34 L1720.99 1833.66 L1746.24 1826.11 L1771.61 1817.70 L1796.85 1808.29 L1822.22 1797.90 L1847.46 1786.26 L1872.83 1773.27 L1898.20 1758.79 L1923.45 1742.58 L1948.82 1724.63 L1974.06 1704.59 L1999.43 1682.31 L2024.67 1657.44 L2024.67 1602.74 L1999.43 1633.18 L1974.06 1660.41 L1948.82 1684.91 L1923.45 1706.81 L1898.20 1726.49 L1872.83 1744.19 L1847.46 1760.03 L1822.22 1774.26 L1796.85 1787.01 L1771.61 1798.39 L1746.24 1808.66 L1720.99 1817.94 L1695.62 1826.24 L1670.38 1833.66 L1645.01 1840.34 L1619.76 1846.28 L1594.39 1851.61 L1569.15 1856.43 L1543.78 1860.76 L1518.54 1864.72 L1493.17 1868.19 L1467.92 1871.28 L1442.55 1874.13 L1417.31 1876.60 L1391.94 1878.83 L1366.69 1880.94 L1341.33 1882.79 L1316.08 1884.40 L1290.71 1886.01 L1265.47 1887.37 L1240.10 1888.73 L1214.85 1889.97 L1189.48 1891.08 L1164.24 1892.20 L1138.87 1893.06 L1113.50 1894.05 L1088.26 1894.92 L1062.89 1895.66 L1037.64 1896.40 L1012.27 1897.02 L987.03 1897.64 L961.66 1898.14 L936.42 1898.63 L911.05 1899.00 L885.80 1899.37 L860.43 1899.75 L835.19 1899.99 L809.82 1900.24 L784.58 1900.49 L759.21 1900.61 L733.96 1900.86 L708.59 1900.98 L683.35 1901.11 L657.98 1901.23 L632.73 1901.35 L607.37 1901.48 L582.12 1901.60 L556.75 1901.60 L531.51 1901.73 L506.14 1901.73 L480.89 1901.85 L455.52 1901.85 L455.52 1902.22 Z" stroke-linejoin="round"/>
	</defs>
	<defs>
		<clipPath id="clipPath_iVNdqPFH">
			<use xlink:href="#path_vrEPVaYJ"/>
		</clipPath>
	</defs>
	<use xlink:href="#path_vrEPVaYJ" style="stroke:none;fill:#E6E6E6"/>
	<use xlink:href="#path_vrEPVaYJ" style="fill:none;stroke:#E0E0E0;stroke-width:14.69" clip-path="url(#clipPath_iVNdqPFH)"/>
	<defs>
		<path id="path_QRbwOOWR" d="M455.52 1902.22 L455.52 1902.22 L480.89 1902.22 L506.14 1902.22 L531.51 1902.22 L556.75 1902.10 L582.12 1902.10 L607.37 1902.10 L632.73 1901.97 L657.98 1901.97 L683.35 1901.85 L708.59 1901.85 L733.96 1901.73 L759.21 1901.60 L784.58 1901.48 L809.82 1901.23 L835.19 1901.11 L860.43 1900.86 L885.80 1900.61 L911.05 1900.36 L936.42 1899.99 L961.66 1899.62 L987.03 1899.25 L1012.27 1898.88 L1037.64 1898.38 L1062.89 1897.89 L1088.26 1897.39 L1113.50 1896.78 L1138.87 1896.16 L1164.24 1895.41 L1189.48 1894.67 L1214.85 1893.81 L1240.10 1892.94 L1265.47 1891.95 L1290.71 1890.84 L1316.08 1889.60 L1341.33 1888.36 L1366.69 1886.88 L1391.94 1885.27 L1417.31 1883.53 L1442.55 1881.55 L1467.92 1879.45 L1493.17 1877.10 L1518.54 1874.38 L1543.78 1871.53 L1569.15 1868.19 L1594.39 1864.60 L1619.76 1860.64 L1645.01 1856.06 L1670.38 1851.11 L1695.62 1845.54 L1720.99 1839.35 L1746.24 1832.42 L1771.61 1824.75 L1796.85 1816.09 L1822.22 1806.56 L1847.46 1795.79 L1872.83 1783.91 L1898.20 1770.55 L1923.45 1755.70 L1948.82 1739.11 L1974.06 1720.67 L1999.43 1700.13 L2024.67 1677.24 L2024.67 1629.34 L1999.43 1657.06 L1974.06 1681.82 L1948.82 1704.09 L1923.45 1724.02 L1898.20 1741.96 L1872.83 1758.05 L1847.46 1772.40 L1822.22 1785.40 L1796.85 1797.03 L1771.61 1807.43 L1746.24 1816.83 L1720.99 1825.25 L1695.62 1832.79 L1670.38 1839.48 L1645.01 1845.54 L1619.76 1851.11 L1594.39 1855.94 L1569.15 1860.39 L1543.78 1864.35 L1518.54 1867.82 L1493.17 1871.03 L1467.92 1873.88 L1442.55 1876.48 L1417.31 1878.71 L1391.94 1880.81 L1366.69 1882.67 L1341.33 1884.40 L1316.08 1885.89 L1290.71 1887.37 L1265.47 1888.61 L1240.10 1889.85 L1214.85 1890.96 L1189.48 1891.95 L1164.24 1892.94 L1138.87 1893.81 L1113.50 1894.67 L1088.26 1895.41 L1062.89 1896.16 L1037.64 1896.78 L1012.27 1897.39 L987.03 1898.01 L961.66 1898.51 L936.42 1898.88 L911.05 1899.25 L885.80 1899.62 L860.43 1899.87 L835.19 1900.12 L809.82 1900.36 L784.58 1900.61 L759.21 1900.86 L733.96 1900.98 L708.59 1901.11 L683.35 1901.23 L657.98 1901.35 L632.73 1901.48 L607.37 1901.48 L582.12 1901.60 L556.75 1901.73 L531.51 1901.73 L506.14 1901.85 L480.89 1901.85 L455.52 1901.85 L455.52 1902.22 Z" stroke-linejoin="round"/>
	</defs>
	<defs>
		<clipPath id="clipPath_qAhfpPff">
			<use xlink:href="#path_QRbwOOWR"/>
		</clipPath>
	</defs>
	<use xlink:href="#path_QRbwOOWR" style="stroke:none;fill:#E6E6E6"/>
	<use xlink:href="#path_QRbwOOWR" style="fill:none;stroke:#E0E0E0;stroke-width:14.69" clip-path="url(#clipPath_qAhfpPff)"/>
	<defs>
		<path id="path_dgEXRwwI" d="M455.52 1902.22 L455.52 1902.22 L480.89 1902.22 L506.14 1902.22 L531.51 1902.10 L556.75 1902.10 L582.12 1902.10 L607.37 1901.97 L632.73 1901.97 L657.98 1901.85 L683.35 1901.85 L708.59 1901.73 L733.96 1901.60 L759.21 1901.48 L784.58 1901.23 L809.82 1900.98 L835.19 1900.86 L860.43 1900.49 L885.80 1900.24 L911.05 1899.87 L936.42 1899.50 L961.66 1899.00 L987.03 1898.51 L1012.27 1898.01 L1037.64 1897.39 L1062.89 1896.78 L1088.26 1896.16 L1113.50 1895.41 L1138.87 1894.55 L1164.24 1893.68 L1189.48 1892.82 L1214.85 1891.70 L1240.10 1890.59 L1265.47 1889.35 L1290.71 1887.87 L1316.08 1886.38 L1341.33 1884.77 L1366.69 1882.92 L1391.94 1880.94 L1417.31 1878.71 L1442.55 1876.36 L1467.92 1873.63 L1493.17 1870.66 L1518.54 1867.45 L1543.78 1863.73 L1569.15 1859.77 L1594.39 1855.19 L1619.76 1850.24 L1645.01 1844.68 L1670.38 1838.49 L1695.62 1831.43 L1720.99 1823.76 L1746.24 1815.10 L1771.61 1805.57 L1796.85 1794.80 L1822.22 1782.80 L1847.46 1769.43 L1872.83 1754.58 L1898.20 1738.00 L1923.45 1719.44 L1948.82 1698.89 L1974.06 1675.87 L1999.43 1650.26 L2024.67 1621.79 L2024.67 1553.23 L1999.43 1588.63 L1974.06 1620.43 L1948.82 1648.77 L1923.45 1674.39 L1898.20 1697.28 L1872.83 1717.83 L1847.46 1736.27 L1822.22 1752.85 L1796.85 1767.70 L1771.61 1781.07 L1746.24 1793.07 L1720.99 1803.84 L1695.62 1813.49 L1670.38 1822.15 L1645.01 1829.82 L1619.76 1836.88 L1594.39 1843.19 L1569.15 1848.76 L1543.78 1853.83 L1518.54 1858.41 L1493.17 1862.37 L1467.92 1866.08 L1442.55 1869.43 L1417.31 1872.27 L1391.94 1874.99 L1366.69 1877.35 L1341.33 1879.45 L1316.08 1881.43 L1290.71 1883.29 L1265.47 1884.90 L1240.10 1886.50 L1214.85 1887.87 L1189.48 1889.23 L1164.24 1890.46 L1138.87 1891.58 L1113.50 1892.69 L1088.26 1893.68 L1062.89 1894.55 L1037.64 1895.41 L1012.27 1896.16 L987.03 1896.78 L961.66 1897.39 L936.42 1898.01 L911.05 1898.51 L885.80 1898.88 L860.43 1899.25 L835.19 1899.62 L809.82 1899.87 L784.58 1900.12 L759.21 1900.36 L733.96 1900.61 L708.59 1900.86 L683.35 1900.98 L657.98 1901.11 L632.73 1901.23 L607.37 1901.35 L582.12 1901.48 L556.75 1901.48 L531.51 1901.60 L506.14 1901.73 L480.89 1901.73 L455.52 1901.85 L455.52 1902.22 Z" stroke-linejoin="round"/>
	</defs>
	<defs>
		<clipPath id="clipPath_fdQpJzas">
			<use xlink:href="#path_dgEXRwwI"/>
		</clipPath>
	</defs>
	<use xlink:href="#path_dgEXRwwI" style="stroke:none;fill:#E6E6E6"/>
	<use xlink:href="#path_dgEXRwwI" style="fill:none;stroke:#E0E0E0;stroke-width:14.69" clip-path="url(#clipPath_fdQpJzas)"/>
	<defs>
		<path id="path_BeRfpEdO" d="M455.52 1902.22 L455.52 1902.22 L480.89 1902.22 L506.14 1902.10 L531.51 1902.10 L556.75 1902.10 L582.12 1901.97 L607.37 1901.97 L632.73 1901.97 L657.98 1901.85 L683.35 1901.73 L708.59 1901.60 L733.96 1901.48 L759.21 1901.35 L784.58 1901.11 L809.82 1900.86 L835.19 1900.61 L860.43 1900.24 L885.80 1899.87 L911.05 1899.50 L936.42 1899.13 L961.66 1898.63 L987.03 1898.01 L1012.27 1897.39 L1037.64 1896.78 L1062.89 1896.16 L1088.26 1895.29 L1113.50 1894.55 L1138.87 1893.56 L1164.24 1892.57 L1189.48 1891.58 L1214.85 1890.34 L1240.10 1888.98 L1265.47 1887.62 L1290.71 1886.01 L1316.08 1884.40 L1341.33 1882.42 L1366.69 1880.44 L1391.94 1878.21 L1417.31 1875.74 L1442.55 1873.01 L1467.92 1869.92 L1493.17 1866.58 L1518.54 1862.87 L1543.78 1858.78 L1569.15 1854.20 L1594.39 1849.13 L1619.76 1843.44 L1645.01 1837.13 L1670.38 1830.07 L1695.62 1822.28 L1720.99 1813.49 L1746.24 1803.71 L1771.61 1792.95 L1796.85 1780.82 L1822.22 1767.33 L1847.46 1752.23 L1872.83 1735.40 L1898.20 1716.71 L1923.45 1695.80 L1948.82 1672.53 L1974.06 1646.55 L1999.43 1617.71 L2024.67 1585.66 L2024.67 1505.84 L1999.43 1546.06 L1974.06 1582.07 L1948.82 1614.49 L1923.45 1643.58 L1898.20 1669.56 L1872.83 1692.95 L1847.46 1713.99 L1822.22 1732.80 L1796.85 1749.63 L1771.61 1764.73 L1746.24 1778.34 L1720.99 1790.59 L1695.62 1801.49 L1670.38 1811.39 L1645.01 1820.17 L1619.76 1828.09 L1594.39 1835.27 L1569.15 1841.58 L1543.78 1847.40 L1518.54 1852.47 L1493.17 1857.05 L1467.92 1861.26 L1442.55 1864.97 L1417.31 1868.31 L1391.94 1871.28 L1366.69 1874.00 L1341.33 1876.48 L1316.08 1878.71 L1290.71 1880.69 L1265.47 1882.54 L1240.10 1884.40 L1214.85 1886.01 L1189.48 1887.49 L1164.24 1888.86 L1138.87 1890.09 L1113.50 1891.33 L1088.26 1892.44 L1062.89 1893.56 L1037.64 1894.42 L1012.27 1895.29 L987.03 1896.16 L961.66 1896.78 L936.42 1897.39 L911.05 1898.01 L885.80 1898.51 L860.43 1898.88 L835.19 1899.25 L809.82 1899.62 L784.58 1899.87 L759.21 1900.12 L733.96 1900.36 L708.59 1900.61 L683.35 1900.74 L657.98 1900.98 L632.73 1901.11 L607.37 1901.23 L582.12 1901.35 L556.75 1901.48 L531.51 1901.48 L506.14 1901.60 L480.89 1901.73 L455.52 1901.73 L455.52 1902.22 Z" stroke-linejoin="round"/>
	</defs>
	<defs>
		<clipPath id="clipPath_LKLXMYQO">
			<use xlink:href="#path_BeRfpEdO"/>
		</clipPath>
	</defs>
	<use xlink:href="#path_BeRfpEdO" style="stroke:none;fill:#E6E6E6"/>
	<use xlink:href="#path_BeRfpEdO" style="fill:none;stroke:#E0E0E0;stroke-width:14.69" clip-path="url(#clipPath_LKLXMYQO)"/>
	<defs>
		<path id="path_LgyuITjE" d="M455.52 1902.22 L455.52 1902.22 L480.89 1902.10 L506.14 1902.10 L531.51 1902.10 L556.75 1901.97 L582.12 1901.97 L607.37 1901.85 L632.73 1901.73 L657.98 1901.60 L683.35 1901.48 L708.59 1901.35 L733.96 1901.11 L759.21 1900.86 L784.58 1900.61 L809.82 1900.24 L835.19 1899.87 L860.43 1899.37 L885.80 1898.88 L911.05 1898.38 L936.42 1897.77 L961.66 1897.02 L987.03 1896.28 L1012.27 1895.41 L1037.64 1894.55 L1062.89 1893.56 L1088.26 1892.44 L1113.50 1891.21 L1138.87 1889.97 L1164.24 1888.61 L1189.48 1887.00 L1214.85 1885.39 L1240.10 1883.53 L1265.47 1881.43 L1290.71 1879.20 L1316.08 1876.85 L1341.33 1874.25 L1366.69 1871.28 L1391.94 1868.06 L1417.31 1864.60 L1442.55 1860.76 L1467.92 1856.43 L1493.17 1851.73 L1518.54 1846.41 L1543.78 1840.59 L1569.15 1834.16 L1594.39 1826.98 L1619.76 1818.93 L1645.01 1810.02 L1670.38 1800.12 L1695.62 1788.99 L1720.99 1776.61 L1746.24 1762.87 L1771.61 1747.53 L1796.85 1730.33 L1822.22 1711.27 L1847.46 1689.98 L1872.83 1666.22 L1898.20 1639.74 L1923.45 1610.29 L1948.82 1577.37 L1974.06 1540.86 L1999.43 1500.02 L2024.67 1454.73 L2024.67 1329.49 L1999.43 1387.65 L1974.06 1439.88 L1948.82 1486.66 L1923.45 1528.61 L1898.20 1566.35 L1872.83 1600.14 L1847.46 1630.33 L1822.22 1657.56 L1796.85 1681.94 L1771.61 1703.84 L1746.24 1723.52 L1720.99 1741.09 L1695.62 1756.93 L1670.38 1771.04 L1645.01 1783.79 L1619.76 1795.30 L1594.39 1805.57 L1569.15 1814.73 L1543.78 1823.02 L1518.54 1830.44 L1493.17 1837.13 L1467.92 1843.07 L1442.55 1848.39 L1417.31 1853.21 L1391.94 1857.55 L1366.69 1861.51 L1341.33 1864.97 L1316.08 1868.19 L1290.71 1871.28 L1265.47 1873.88 L1240.10 1876.48 L1214.85 1878.83 L1189.48 1880.94 L1164.24 1882.92 L1138.87 1884.90 L1113.50 1886.50 L1088.26 1888.11 L1062.89 1889.60 L1037.64 1890.96 L1012.27 1892.20 L987.03 1893.43 L961.66 1894.42 L936.42 1895.29 L911.05 1896.16 L885.80 1896.78 L860.43 1897.39 L835.19 1898.01 L809.82 1898.51 L784.58 1898.88 L759.21 1899.25 L733.96 1899.62 L708.59 1899.87 L683.35 1900.12 L657.98 1900.36 L632.73 1900.61 L607.37 1900.74 L582.12 1900.98 L556.75 1901.11 L531.51 1901.23 L506.14 1901.35 L480.89 1901.48 L455.52 1901.48 L455.52 1902.22 Z" stroke-linejoin="round"/>
	</defs>
	<defs>
		<clipPath id="clipPath_VCSDqecH">
			<use xlink:href="#path_LgyuITjE"/>
		</clipPath>
	</defs>
	<use xlink:href="#path_LgyuITjE" style="stroke:none;fill:#E6E6E6"/>
	<use xlink:href="#path_LgyuITjE" style="fill:none;stroke:#E0E0E0;stroke-width:14.69" clip-path="url(#clipPath_VCSDqecH)"/>
	<defs>
		<path id="path_IfwGziyM" d="M455.52 1902.22 L455.52 1902.22 L480.89 1902.10 L506.14 1902.10 L531.51 1902.10 L556.75 1901.97 L582.12 1901.97 L607.37 1901.85 L632.73 1901.73 L657.98 1901.60 L683.35 1901.48 L708.59 1901.35 L733.96 1901.11 L759.21 1900.86 L784.58 1900.61 L809.82 1900.24 L835.19 1899.87 L860.43 1899.37 L885.80 1898.88 L911.05 1898.26 L936.42 1897.64 L961.66 1896.90 L987.03 1896.16 L1012.27 1895.29 L1037.64 1894.42 L1062.89 1893.43 L1088.26 1892.32 L1113.50 1891.08 L1138.87 1889.85 L1164.24 1888.36 L1189.48 1886.88 L1214.85 1885.14 L1240.10 1883.29 L1265.47 1881.31 L1290.71 1879.08 L1316.08 1876.60 L1341.33 1874.00 L1366.69 1871.03 L1391.94 1867.82 L1417.31 1864.35 L1442.55 1860.52 L1467.92 1856.18 L1493.17 1851.48 L1518.54 1846.16 L1543.78 1840.34 L1569.15 1833.78 L1594.39 1826.61 L1619.76 1818.56 L1645.01 1809.53 L1670.38 1799.63 L1695.62 1788.49 L1720.99 1775.99 L1746.24 1762.13 L1771.61 1746.79 L1796.85 1729.46 L1822.22 1710.28 L1847.46 1688.87 L1872.83 1664.98 L1898.20 1638.38 L1923.45 1608.68 L1948.82 1575.51 L1974.06 1538.63 L1999.43 1497.67 L2024.67 1451.88 L2024.67 1297.68 L1999.43 1358.94 L1974.06 1414.01 L1948.82 1463.39 L1923.45 1507.57 L1898.20 1547.29 L1872.83 1582.94 L1847.46 1614.99 L1822.22 1643.70 L1796.85 1669.44 L1771.61 1692.58 L1746.24 1713.25 L1720.99 1731.94 L1695.62 1748.64 L1670.38 1763.62 L1645.01 1777.11 L1619.76 1789.11 L1594.39 1800.00 L1569.15 1809.78 L1543.78 1818.56 L1518.54 1826.36 L1493.17 1833.41 L1467.92 1839.72 L1442.55 1845.42 L1417.31 1850.49 L1391.94 1855.07 L1366.69 1859.28 L1341.33 1862.99 L1316.08 1866.46 L1290.71 1869.55 L1265.47 1872.52 L1240.10 1875.12 L1214.85 1877.59 L1189.48 1879.94 L1164.24 1882.05 L1138.87 1884.03 L1113.50 1885.76 L1088.26 1887.49 L1062.89 1889.10 L1037.64 1890.46 L1012.27 1891.83 L987.03 1892.94 L961.66 1894.05 L936.42 1894.92 L911.05 1895.79 L885.80 1896.53 L860.43 1897.27 L835.19 1897.77 L809.82 1898.26 L784.58 1898.76 L759.21 1899.13 L733.96 1899.50 L708.59 1899.75 L683.35 1900.12 L657.98 1900.24 L632.73 1900.49 L607.37 1900.74 L582.12 1900.86 L556.75 1900.98 L531.51 1901.11 L506.14 1901.23 L480.89 1901.35 L455.52 1901.48 L455.52 1902.22 Z" stroke-linejoin="round"/>
	</defs>
	<defs>
		<clipPath id="clipPath_INkpMvUU">
			<use xlink:href="#path_IfwGziyM"/>
		</clipPath>
	</defs>
	<use xlink:href="#path_IfwGziyM" style="stroke:none;fill:#E6E6E6"/>
	<use xlink:href="#path_IfwGziyM" style="fill:none;stroke:#E0E0E0;stroke-width:14.69" clip-path="url(#clipPath_INkpMvUU)"/>
	<path d=" M455.52 1902.22 L480.77 1902.22 L506.14 1902.10 L531.38 1902.10 L556.75 1902.10 L582.00 1901.97 L607.37 1901.97 L632.61 1901.85 L657.98 1901.85 L683.22 1901.73 L708.59 1901.60 L733.84 1901.48 L759.21 1901.35 L784.45 1901.23 L809.82 1900.98 L835.07 1900.74 L860.43 1900.49 L885.68 1900.24 L911.05 1899.99 L936.29 1899.62 L961.66 1899.25 L986.91 1898.76 L1012.27 1898.26 L1037.52 1897.77 L1062.89 1897.15 L1088.13 1896.53 L1113.50 1895.91 L1138.87 1895.17 L1164.12 1894.42 L1189.48 1893.56 L1214.73 1892.57 L1240.10 1891.58 L1265.34 1890.46 L1290.71 1889.23 L1315.96 1887.99 L1341.33 1886.50 L1366.57 1884.90 L1391.94 1883.16 L1417.18 1881.31 L1442.55 1879.20 L1467.80 1876.85 L1493.17 1874.25 L1518.41 1871.41 L1543.78 1868.19 L1569.03 1864.60 L1594.39 1860.52 L1619.64 1856.18 L1645.01 1851.23 L1670.25 1845.67 L1695.62 1839.60 L1720.87 1832.67 L1746.24 1825.12 L1771.48 1816.58 L1796.85 1807.05 L1822.10 1796.53 L1847.46 1784.78 L1872.71 1771.66 L1898.08 1757.06 L1923.45 1740.72 L1948.69 1722.53 L1974.06 1702.23 L1999.31 1679.71 L2024.67 1654.47" stroke-linejoin="round" style="fill:none;stroke:#FF0000;stroke-width:7.34"/>
	<path d=" M455.52 1902.10 L480.77 1902.10 L506.14 1902.10 L531.38 1902.10 L556.75 1901.97 L582.00 1901.97 L607.37 1901.85 L632.61 1901.73 L657.98 1901.60 L683.22 1901.60 L708.59 1901.35 L733.84 1901.23 L759.21 1901.11 L784.45 1900.86 L809.82 1900.61 L835.07 1900.36 L860.43 1899.99 L885.68 1899.75 L911.05 1899.25 L936.29 1898.88 L961.66 1898.38 L986.91 1897.77 L1012.27 1897.27 L1037.52 1896.53 L1062.89 1895.79 L1088.13 1895.04 L1113.50 1894.18 L1138.87 1893.31 L1164.12 1892.32 L1189.48 1891.21 L1214.73 1889.97 L1240.10 1888.73 L1265.34 1887.37 L1290.71 1885.76 L1315.96 1884.15 L1341.33 1882.30 L1366.57 1880.32 L1391.94 1878.21 L1417.18 1875.74 L1442.55 1873.14 L1467.80 1870.17 L1493.17 1866.83 L1518.41 1863.24 L1543.78 1859.15 L1569.03 1854.58 L1594.39 1849.63 L1619.64 1844.06 L1645.01 1837.74 L1670.25 1830.81 L1695.62 1823.02 L1720.87 1814.36 L1746.24 1804.83 L1771.48 1794.06 L1796.85 1782.06 L1822.10 1768.81 L1847.46 1753.84 L1872.71 1737.26 L1898.08 1718.82 L1923.45 1698.27 L1948.69 1675.26 L1974.06 1649.64 L1999.31 1621.18 L2024.67 1589.37" stroke-linejoin="round" style="fill:none;stroke:#008000;stroke-width:7.34"/>
	<path d=" M455.52 1902.10 L480.77 1902.10 L506.14 1902.10 L531.38 1901.97 L556.75 1901.97 L582.00 1901.85 L607.37 1901.73 L632.61 1901.73 L657.98 1901.60 L683.22 1901.48 L708.59 1901.23 L733.84 1901.11 L759.21 1900.86 L784.45 1900.61 L809.82 1900.36 L835.07 1900.12 L860.43 1899.75 L885.68 1899.37 L911.05 1898.88 L936.29 1898.38 L961.66 1897.89 L986.91 1897.27 L1012.27 1896.53 L1037.52 1895.79 L1062.89 1894.92 L1088.13 1894.05 L1113.50 1893.19 L1138.87 1892.07 L1164.12 1890.96 L1189.48 1889.72 L1214.73 1888.36 L1240.10 1886.88 L1265.34 1885.39 L1290.71 1883.66 L1315.96 1881.80 L1341.33 1879.70 L1366.57 1877.47 L1391.94 1874.99 L1417.18 1872.27 L1442.55 1869.30 L1467.80 1865.96 L1493.17 1862.12 L1518.41 1858.04 L1543.78 1853.46 L1569.03 1848.26 L1594.39 1842.57 L1619.64 1836.26 L1645.01 1829.21 L1670.25 1821.29 L1695.62 1812.50 L1720.87 1802.72 L1746.24 1791.83 L1771.48 1779.70 L1796.85 1766.22 L1822.10 1751.12 L1847.46 1734.16 L1872.71 1715.48 L1898.08 1694.56 L1923.45 1671.17 L1948.69 1645.18 L1974.06 1616.23 L1999.31 1583.93 L2024.67 1548.04" stroke-linejoin="round" style="fill:none;stroke:#FFD200;stroke-width:7.34"/>
	<path d=" M455.52 1902.10 L480.77 1901.97 L506.14 1901.97 L531.38 1901.85 L556.75 1901.73 L582.00 1901.60 L607.37 1901.60 L632.61 1901.35 L657.98 1901.23 L683.22 1901.11 L708.59 1900.86 L733.84 1900.61 L759.21 1900.24 L784.45 1899.99 L809.82 1899.62 L835.07 1899.13 L860.43 1898.63 L885.68 1898.01 L911.05 1897.39 L936.29 1896.65 L961.66 1895.91 L986.91 1895.04 L1012.27 1894.05 L1037.52 1892.94 L1062.89 1891.83 L1088.13 1890.59 L1113.50 1889.23 L1138.87 1887.74 L1164.12 1886.01 L1189.48 1884.28 L1214.73 1882.42 L1240.10 1880.32 L1265.34 1878.09 L1290.71 1875.61 L1315.96 1872.89 L1341.33 1870.04 L1366.57 1866.83 L1391.94 1863.24 L1417.18 1859.40 L1442.55 1855.07 L1467.80 1850.24 L1493.17 1844.92 L1518.41 1838.98 L1543.78 1832.42 L1569.03 1825.12 L1594.39 1816.95 L1619.64 1807.92 L1645.01 1797.77 L1670.25 1786.51 L1695.62 1774.01 L1720.87 1760.03 L1746.24 1744.43 L1771.48 1727.11 L1796.85 1707.68 L1822.10 1686.15 L1847.46 1662.14 L1872.71 1635.28 L1898.08 1605.34 L1923.45 1572.05 L1948.69 1534.92 L1974.06 1493.46 L1999.31 1447.43 L2024.67 1396.07" stroke-linejoin="round" style="fill:none;stroke:#FF7F00;stroke-width:7.34"/>
	<path d=" M455.52 1901.97 L480.77 1901.97 L506.14 1901.85 L531.38 1901.85 L556.75 1901.73 L582.00 1901.60 L607.37 1901.48 L632.61 1901.35 L657.98 1901.23 L683.22 1900.98 L708.59 1900.74 L733.84 1900.49 L759.21 1900.24 L784.45 1899.87 L809.82 1899.50 L835.07 1899.00 L860.43 1898.51 L885.68 1897.89 L911.05 1897.27 L936.29 1896.53 L961.66 1895.66 L986.91 1894.80 L1012.27 1893.81 L1037.52 1892.69 L1062.89 1891.45 L1088.13 1890.22 L1113.50 1888.73 L1138.87 1887.25 L1164.12 1885.51 L1189.48 1883.78 L1214.73 1881.80 L1240.10 1879.70 L1265.34 1877.35 L1290.71 1874.75 L1315.96 1872.02 L1341.33 1869.05 L1366.57 1865.71 L1391.94 1862.00 L1417.18 1858.04 L1442.55 1853.59 L1467.80 1848.64 L1493.17 1843.19 L1518.41 1837.13 L1543.78 1830.32 L1569.03 1822.77 L1594.39 1814.36 L1619.64 1805.07 L1645.01 1794.55 L1670.25 1783.05 L1695.62 1770.05 L1720.87 1755.70 L1746.24 1739.61 L1771.48 1721.66 L1796.85 1701.74 L1822.10 1679.59 L1847.46 1654.71 L1872.71 1627.12 L1898.08 1596.30 L1923.45 1561.90 L1948.69 1523.66 L1974.06 1480.96 L1999.31 1433.44 L2024.67 1380.47" stroke-linejoin="round" style="fill:none;stroke:#9C8847;stroke-width:7.34"/>
	<path d=" M455.52 1902.22 L480.77 1902.10 L506.14 1902.10 L531.38 1902.10 L556.75 1901.97 L582.00 1901.97 L607.37 1901.97 L632.61 1901.85 L657.98 1901.73 L683.22 1901.60 L708.59 1901.48 L733.84 1901.35 L759.21 1901.23 L784.45 1901.11 L809.82 1900.86 L835.07 1900.61 L860.43 1900.36 L885.68 1899.99 L911.05 1899.75 L936.29 1899.37 L961.66 1898.88 L986.91 1898.38 L1012.27 1897.89 L1037.52 1897.39 L1062.89 1896.78 L1088.13 1896.03 L1113.50 1895.29 L1138.87 1894.55 L1164.12 1893.68 L1189.48 1892.69 L1214.73 1891.70 L1240.10 1890.59 L1265.34 1889.35 L1290.71 1887.99 L1315.96 1886.63 L1341.33 1885.02 L1366.57 1883.29 L1391.94 1881.43 L1417.18 1879.33 L1442.55 1877.10 L1467.80 1874.50 L1493.17 1871.65 L1518.41 1868.44 L1543.78 1864.97 L1569.03 1861.01 L1594.39 1856.68 L1619.64 1851.85 L1645.01 1846.41 L1670.25 1840.47 L1695.62 1833.66 L1720.87 1826.24 L1746.24 1817.94 L1771.48 1808.66 L1796.85 1798.27 L1822.10 1786.76 L1847.46 1773.89 L1872.71 1759.53 L1898.08 1743.57 L1923.45 1725.75 L1948.69 1705.82 L1974.06 1683.67 L1999.31 1659.04 L2024.67 1631.57" stroke-linejoin="round" style="fill:none;stroke:#1A476F;stroke-width:7.34"/>
	<line x1="455.52" y1="1846.41" x2="458.37" y2="1846.41" style="stroke:#000000;stroke-width:7.34"/>
	<line x1="478.54" y1="1846.41" x2="480.77" y2="1846.41" style="stroke:#000000;stroke-width:7.34"/>
	<line x1="480.77" y1="1846.41" x2="481.39" y2="1846.41" style="stroke:#000000;stroke-width:7.34"/>
	<line x1="501.56" y1="1846.41" x2="504.40" y2="1846.41" style="stroke:#000000;stroke-width:7.34"/>
	<line x1="524.58" y1="1846.41" x2="527.42" y2="1846.41" style="stroke:#000000;stroke-width:7.34"/>
	<line x1="547.59" y1="1846.41" x2="550.44" y2="1846.41" style="stroke:#000000;stroke-width:7.34"/>
	<line x1="570.61" y1="1846.41" x2="573.58" y2="1846.41" style="stroke:#000000;stroke-width:7.34"/>
	<line x1="593.75" y1="1846.41" x2="596.60" y2="1846.41" style="stroke:#000000;stroke-width:7.34"/>
	<line x1="616.77" y1="1846.41" x2="619.62" y2="1846.41" style="stroke:#000000;stroke-width:7.34"/>
	<line x1="639.79" y1="1846.41" x2="642.63" y2="1846.41" style="stroke:#000000;stroke-width:7.34"/>
	<line x1="662.80" y1="1846.41" x2="665.65" y2="1846.41" style="stroke:#000000;stroke-width:7.34"/>
	<line x1="685.82" y1="1846.41" x2="688.67" y2="1846.41" style="stroke:#000000;stroke-width:7.34"/>
	<line x1="708.84" y1="1846.41" x2="711.69" y2="1846.41" style="stroke:#000000;stroke-width:7.34"/>
	<line x1="731.86" y1="1846.41" x2="733.84" y2="1846.41" style="stroke:#000000;stroke-width:7.34"/>
	<line x1="733.84" y1="1846.41" x2="734.70" y2="1846.41" style="stroke:#000000;stroke-width:7.34"/>
	<line x1="754.88" y1="1846.41" x2="757.72" y2="1846.41" style="stroke:#000000;stroke-width:7.34"/>
	<line x1="777.89" y1="1846.41" x2="780.74" y2="1846.41" style="stroke:#000000;stroke-width:7.34"/>
	<line x1="800.91" y1="1846.41" x2="803.88" y2="1846.41" style="stroke:#000000;stroke-width:7.34"/>
	<line x1="823.93" y1="1846.41" x2="826.90" y2="1846.41" style="stroke:#000000;stroke-width:7.34"/>
	<line x1="847.07" y1="1846.41" x2="849.91" y2="1846.41" style="stroke:#000000;stroke-width:7.34"/>
	<line x1="870.09" y1="1846.41" x2="872.93" y2="1846.41" style="stroke:#000000;stroke-width:7.34"/>
	<line x1="893.10" y1="1846.41" x2="895.95" y2="1846.41" style="stroke:#000000;stroke-width:7.34"/>
	<line x1="916.12" y1="1846.41" x2="918.97" y2="1846.41" style="stroke:#000000;stroke-width:7.34"/>
	<line x1="939.14" y1="1846.41" x2="941.99" y2="1846.41" style="stroke:#000000;stroke-width:7.34"/>
	<line x1="962.16" y1="1846.41" x2="965.00" y2="1846.41" style="stroke:#000000;stroke-width:7.34"/>
	<line x1="985.17" y1="1846.41" x2="986.91" y2="1846.41" style="stroke:#000000;stroke-width:7.34"/>
	<line x1="986.91" y1="1846.41" x2="988.02" y2="1846.41" style="stroke:#000000;stroke-width:7.34"/>
	<line x1="1008.19" y1="1846.41" x2="1011.04" y2="1846.41" style="stroke:#000000;stroke-width:7.34"/>
	<line x1="1031.21" y1="1846.41" x2="1034.06" y2="1846.41" style="stroke:#000000;stroke-width:7.34"/>
	<line x1="1054.23" y1="1846.41" x2="1057.20" y2="1846.41" style="stroke:#000000;stroke-width:7.34"/>
	<line x1="1077.24" y1="1846.41" x2="1080.21" y2="1846.41" style="stroke:#000000;stroke-width:7.34"/>
	<line x1="1100.38" y1="1846.41" x2="1103.23" y2="1846.41" style="stroke:#000000;stroke-width:7.34"/>
	<line x1="1123.40" y1="1846.41" x2="1126.25" y2="1846.41" style="stroke:#000000;stroke-width:7.34"/>
	<line x1="1146.42" y1="1846.41" x2="1149.27" y2="1846.41" style="stroke:#000000;stroke-width:7.34"/>
	<line x1="1169.44" y1="1846.41" x2="1172.28" y2="1846.41" style="stroke:#000000;stroke-width:7.34"/>
	<line x1="1192.45" y1="1846.41" x2="1195.30" y2="1846.41" style="stroke:#000000;stroke-width:7.34"/>
	<line x1="1215.47" y1="1846.41" x2="1218.32" y2="1846.41" style="stroke:#000000;stroke-width:7.34"/>
	<line x1="1238.49" y1="1846.41" x2="1240.10" y2="1846.41" style="stroke:#000000;stroke-width:7.34"/>
	<line x1="1240.10" y1="1846.41" x2="1241.34" y2="1846.41" style="stroke:#000000;stroke-width:7.34"/>
	<line x1="1261.51" y1="1846.41" x2="1264.35" y2="1846.41" style="stroke:#000000;stroke-width:7.34"/>
	<line x1="1284.53" y1="1846.41" x2="1287.37" y2="1846.41" style="stroke:#000000;stroke-width:7.34"/>
	<line x1="1307.54" y1="1846.41" x2="1310.51" y2="1846.41" style="stroke:#000000;stroke-width:7.34"/>
	<line x1="1330.56" y1="1846.41" x2="1333.53" y2="1846.41" style="stroke:#000000;stroke-width:7.34"/>
	<line x1="1353.70" y1="1846.41" x2="1356.55" y2="1846.41" style="stroke:#000000;stroke-width:7.34"/>
	<line x1="1376.72" y1="1846.41" x2="1379.57" y2="1846.41" style="stroke:#000000;stroke-width:7.34"/>
	<line x1="1399.74" y1="1846.41" x2="1402.58" y2="1846.41" style="stroke:#000000;stroke-width:7.34"/>
	<line x1="1422.75" y1="1846.41" x2="1425.60" y2="1846.41" style="stroke:#000000;stroke-width:7.34"/>
	<line x1="1445.77" y1="1846.41" x2="1448.62" y2="1846.41" style="stroke:#000000;stroke-width:7.34"/>
	<line x1="1468.79" y1="1846.41" x2="1471.63" y2="1846.41" style="stroke:#000000;stroke-width:7.34"/>
	<line x1="1491.81" y1="1846.41" x2="1493.17" y2="1846.41" style="stroke:#000000;stroke-width:7.34"/>
	<line x1="1493.17" y1="1846.41" x2="1494.65" y2="1846.41" style="stroke:#000000;stroke-width:7.34"/>
	<line x1="1514.82" y1="1846.41" x2="1517.67" y2="1846.41" style="stroke:#000000;stroke-width:7.34"/>
	<line x1="1537.84" y1="1846.41" x2="1540.69" y2="1846.41" style="stroke:#000000;stroke-width:7.34"/>
	<line x1="1560.86" y1="1846.41" x2="1563.83" y2="1846.41" style="stroke:#000000;stroke-width:7.34"/>
	<line x1="1584.00" y1="1846.41" x2="1586.85" y2="1846.41" style="stroke:#000000;stroke-width:7.34"/>
	<line x1="1607.02" y1="1846.41" x2="1609.86" y2="1846.41" style="stroke:#000000;stroke-width:7.34"/>
	<line x1="1630.04" y1="1846.41" x2="1632.88" y2="1846.41" style="stroke:#000000;stroke-width:7.34"/>
	<line x1="1653.05" y1="1846.41" x2="1655.90" y2="1846.41" style="stroke:#000000;stroke-width:7.34"/>
	<line x1="1676.07" y1="1846.41" x2="1678.92" y2="1846.41" style="stroke:#000000;stroke-width:7.34"/>
	<line x1="1699.09" y1="1846.41" x2="1701.93" y2="1846.41" style="stroke:#000000;stroke-width:7.34"/>
	<line x1="1722.11" y1="1846.41" x2="1724.95" y2="1846.41" style="stroke:#000000;stroke-width:7.34"/>
	<line x1="1745.12" y1="1846.41" x2="1746.24" y2="1846.41" style="stroke:#000000;stroke-width:7.34"/>
	<line x1="1746.24" y1="1846.41" x2="1747.97" y2="1846.41" style="stroke:#000000;stroke-width:7.34"/>
	<line x1="1768.14" y1="1846.41" x2="1770.99" y2="1846.41" style="stroke:#000000;stroke-width:7.34"/>
	<line x1="1791.16" y1="1846.41" x2="1794.00" y2="1846.41" style="stroke:#000000;stroke-width:7.34"/>
	<line x1="1814.17" y1="1846.41" x2="1817.14" y2="1846.41" style="stroke:#000000;stroke-width:7.34"/>
	<line x1="1837.32" y1="1846.41" x2="1840.16" y2="1846.41" style="stroke:#000000;stroke-width:7.34"/>
	<line x1="1860.33" y1="1846.41" x2="1863.18" y2="1846.41" style="stroke:#000000;stroke-width:7.34"/>
	<line x1="1883.35" y1="1846.41" x2="1886.20" y2="1846.41" style="stroke:#000000;stroke-width:7.34"/>
	<line x1="1906.37" y1="1846.41" x2="1909.21" y2="1846.41" style="stroke:#000000;stroke-width:7.34"/>
	<line x1="1929.39" y1="1846.41" x2="1932.23" y2="1846.41" style="stroke:#000000;stroke-width:7.34"/>
	<line x1="1952.40" y1="1846.41" x2="1955.25" y2="1846.41" style="stroke:#000000;stroke-width:7.34"/>
	<line x1="1975.42" y1="1846.41" x2="1978.27" y2="1846.41" style="stroke:#000000;stroke-width:7.34"/>
	<line x1="1998.44" y1="1846.41" x2="1999.31" y2="1846.41" style="stroke:#000000;stroke-width:7.34"/>
	<line x1="1999.31" y1="1846.41" x2="2001.29" y2="1846.41" style="stroke:#000000;stroke-width:7.34"/>
	<line x1="2021.46" y1="1846.41" x2="2024.30" y2="1846.41" style="stroke:#000000;stroke-width:7.34"/>
	<path d="" stroke-linejoin="round" style="fill:none;stroke:#000000;stroke-width:7.34"/>
	<defs>
		<path id="path_HgsGXCYZ" d="M2201.51 1902.22 L2201.51 1902.22 L2226.88 1902.22 L2252.13 1902.10 L2277.49 1902.10 L2302.74 1902.10 L2328.11 1901.97 L2353.35 1901.97 L2378.72 1901.85 L2403.97 1901.73 L2429.34 1901.60 L2454.58 1901.48 L2479.95 1901.35 L2505.20 1901.11 L2530.56 1900.86 L2555.81 1900.61 L2581.18 1900.36 L2606.42 1899.87 L2631.79 1899.50 L2657.04 1899.00 L2682.41 1898.51 L2707.65 1897.89 L2733.02 1897.27 L2758.26 1896.53 L2783.63 1895.79 L2808.88 1894.92 L2834.25 1894.05 L2859.49 1893.06 L2884.86 1892.07 L2910.11 1890.84 L2935.47 1889.60 L2960.72 1888.11 L2986.09 1886.63 L3011.46 1884.90 L3036.70 1883.04 L3062.07 1881.06 L3087.32 1878.83 L3112.68 1876.36 L3137.93 1873.76 L3163.30 1870.79 L3188.54 1867.57 L3213.91 1863.98 L3239.16 1860.02 L3264.53 1855.69 L3289.77 1850.74 L3315.14 1845.29 L3340.38 1839.35 L3365.75 1832.67 L3391.00 1825.25 L3416.37 1816.95 L3441.61 1807.67 L3466.98 1797.40 L3492.22 1785.89 L3517.59 1773.02 L3542.84 1758.79 L3568.21 1742.83 L3593.45 1725.01 L3618.82 1705.20 L3644.07 1683.18 L3669.43 1658.55 L3694.68 1631.08 L3720.05 1600.51 L3745.42 1566.48 L3770.66 1528.73 L3770.66 1443.34 L3745.42 1490.00 L3720.05 1531.83 L3694.68 1569.32 L3669.43 1602.98 L3644.07 1633.18 L3618.82 1660.28 L3593.45 1684.54 L3568.21 1706.32 L3542.84 1725.87 L3517.59 1743.32 L3492.22 1759.04 L3466.98 1773.27 L3441.61 1785.89 L3416.37 1797.28 L3391.00 1807.55 L3365.75 1816.71 L3340.38 1824.87 L3315.14 1832.30 L3289.77 1838.86 L3264.53 1844.80 L3239.16 1850.12 L3213.91 1854.95 L3188.54 1859.15 L3163.30 1863.11 L3137.93 1866.46 L3112.68 1869.67 L3087.32 1872.40 L3062.07 1874.99 L3036.70 1877.35 L3011.46 1879.57 L2986.09 1881.55 L2960.72 1883.41 L2935.47 1885.14 L2910.11 1886.75 L2884.86 1888.24 L2859.49 1889.60 L2834.25 1890.96 L2808.88 1892.20 L2783.63 1893.19 L2758.26 1894.18 L2733.02 1895.17 L2707.65 1895.91 L2682.41 1896.65 L2657.04 1897.27 L2631.79 1897.89 L2606.42 1898.38 L2581.18 1898.76 L2555.81 1899.13 L2530.56 1899.50 L2505.20 1899.87 L2479.95 1900.12 L2454.58 1900.36 L2429.34 1900.49 L2403.97 1900.74 L2378.72 1900.86 L2353.35 1900.98 L2328.11 1901.23 L2302.74 1901.23 L2277.49 1901.35 L2252.13 1901.48 L2226.88 1901.60 L2201.51 1901.60 L2201.51 1902.22 Z" stroke-linejoin="round"/>
	</defs>
	<defs>
		<clipPath id="clipPath_VhgLsEaS">
			<use xlink:href="#path_HgsGXCYZ"/>
		</clipPath>
	</defs>
	<use xlink:href="#path_HgsGXCYZ" style="stroke:none;fill:#E6E6E6"/>
	<use xlink:href="#path_HgsGXCYZ" style="fill:none;stroke:#E0E0E0;stroke-width:14.69" clip-path="url(#clipPath_VhgLsEaS)"/>
	<defs>
		<path id="path_nEIwhcBG" d="M2201.51 1902.22 L2201.51 1902.22 L2226.88 1902.22 L2252.13 1902.10 L2277.49 1902.10 L2302.74 1902.10 L2328.11 1901.97 L2353.35 1901.97 L2378.72 1901.85 L2403.97 1901.85 L2429.34 1901.73 L2454.58 1901.60 L2479.95 1901.48 L2505.20 1901.23 L2530.56 1900.98 L2555.81 1900.74 L2581.18 1900.49 L2606.42 1900.12 L2631.79 1899.75 L2657.04 1899.37 L2682.41 1898.88 L2707.65 1898.26 L2733.02 1897.77 L2758.26 1897.02 L2783.63 1896.40 L2808.88 1895.66 L2834.25 1894.80 L2859.49 1893.93 L2884.86 1892.94 L2910.11 1891.95 L2935.47 1890.71 L2960.72 1889.47 L2986.09 1887.99 L3011.46 1886.50 L3036.70 1884.77 L3062.07 1882.92 L3087.32 1880.94 L3112.68 1878.71 L3137.93 1876.23 L3163.30 1873.51 L3188.54 1870.54 L3213.91 1867.32 L3239.16 1863.73 L3264.53 1859.65 L3289.77 1855.19 L3315.14 1850.24 L3340.38 1844.68 L3365.75 1838.61 L3391.00 1831.68 L3416.37 1824.13 L3441.61 1815.59 L3466.98 1806.19 L3492.22 1795.54 L3517.59 1783.79 L3542.84 1770.67 L3568.21 1756.07 L3593.45 1739.73 L3618.82 1721.54 L3644.07 1701.24 L3669.43 1678.60 L3694.68 1653.35 L3720.05 1625.26 L3745.42 1593.95 L3770.66 1559.17 L3770.66 1483.93 L3745.42 1526.38 L3720.05 1564.37 L3694.68 1598.65 L3669.43 1629.22 L3644.07 1656.69 L3618.82 1681.32 L3593.45 1703.47 L3568.21 1723.27 L3542.84 1741.09 L3517.59 1757.18 L3492.22 1771.41 L3466.98 1784.28 L3441.61 1795.92 L3416.37 1806.31 L3391.00 1815.59 L3365.75 1823.88 L3340.38 1831.43 L3315.14 1838.12 L3289.77 1844.18 L3264.53 1849.63 L3239.16 1854.45 L3213.91 1858.91 L3188.54 1862.74 L3163.30 1866.33 L3137.93 1869.43 L3112.68 1872.27 L3087.32 1874.87 L3062.07 1877.22 L3036.70 1879.45 L3011.46 1881.43 L2986.09 1883.29 L2960.72 1884.90 L2935.47 1886.50 L2910.11 1887.99 L2884.86 1889.35 L2859.49 1890.71 L2834.25 1891.83 L2808.88 1892.94 L2783.63 1893.93 L2758.26 1894.92 L2733.02 1895.66 L2707.65 1896.40 L2682.41 1897.15 L2657.04 1897.64 L2631.79 1898.26 L2606.42 1898.63 L2581.18 1899.13 L2555.81 1899.37 L2530.56 1899.75 L2505.20 1899.99 L2479.95 1900.24 L2454.58 1900.49 L2429.34 1900.74 L2403.97 1900.86 L2378.72 1900.98 L2353.35 1901.11 L2328.11 1901.23 L2302.74 1901.35 L2277.49 1901.48 L2252.13 1901.60 L2226.88 1901.60 L2201.51 1901.73 L2201.51 1902.22 Z" stroke-linejoin="round"/>
	</defs>
	<defs>
		<clipPath id="clipPath_XygFOZRd">
			<use xlink:href="#path_nEIwhcBG"/>
		</clipPath>
	</defs>
	<use xlink:href="#path_nEIwhcBG" style="stroke:none;fill:#E6E6E6"/>
	<use xlink:href="#path_nEIwhcBG" style="fill:none;stroke:#E0E0E0;stroke-width:14.69" clip-path="url(#clipPath_XygFOZRd)"/>
	<defs>
		<path id="path_mkJOKhwT" d="M2201.51 1902.22 L2201.51 1902.22 L2226.88 1902.10 L2252.13 1902.10 L2277.49 1902.10 L2302.74 1901.97 L2328.11 1901.97 L2353.35 1901.85 L2378.72 1901.73 L2403.97 1901.73 L2429.34 1901.48 L2454.58 1901.35 L2479.95 1901.23 L2505.20 1900.98 L2530.56 1900.74 L2555.81 1900.36 L2581.18 1899.99 L2606.42 1899.62 L2631.79 1899.13 L2657.04 1898.51 L2682.41 1897.89 L2707.65 1897.27 L2733.02 1896.53 L2758.26 1895.79 L2783.63 1894.92 L2808.88 1893.93 L2834.25 1892.82 L2859.49 1891.70 L2884.86 1890.46 L2910.11 1889.10 L2935.47 1887.74 L2960.72 1886.13 L2986.09 1884.28 L3011.46 1882.42 L3036.70 1880.32 L3062.07 1877.96 L3087.32 1875.37 L3112.68 1872.64 L3137.93 1869.55 L3163.30 1866.21 L3188.54 1862.50 L3213.91 1858.41 L3239.16 1853.96 L3264.53 1848.88 L3289.77 1843.31 L3315.14 1837.13 L3340.38 1830.20 L3365.75 1822.52 L3391.00 1813.98 L3416.37 1804.46 L3441.61 1793.81 L3466.98 1782.06 L3492.22 1768.81 L3517.59 1754.09 L3542.84 1737.75 L3568.21 1719.44 L3593.45 1699.02 L3618.82 1676.25 L3644.07 1650.88 L3669.43 1622.54 L3694.68 1591.10 L3720.05 1555.96 L3745.42 1516.85 L3770.66 1473.29 L3770.66 1368.72 L3745.42 1422.92 L3720.05 1471.43 L3694.68 1514.99 L3669.43 1554.10 L3644.07 1589.12 L3618.82 1620.56 L3593.45 1648.77 L3568.21 1674.14 L3542.84 1696.79 L3517.59 1717.21 L3492.22 1735.52 L3466.98 1751.98 L3441.61 1766.71 L3416.37 1779.95 L3391.00 1791.83 L3365.75 1802.48 L3340.38 1812.00 L3315.14 1820.67 L3289.77 1828.34 L3264.53 1835.27 L3239.16 1841.46 L3213.91 1847.03 L3188.54 1852.10 L3163.30 1856.56 L3137.93 1860.52 L3112.68 1864.23 L3087.32 1867.57 L3062.07 1870.54 L3036.70 1873.26 L3011.46 1875.86 L2986.09 1878.21 L2960.72 1880.32 L2935.47 1882.30 L2910.11 1884.28 L2884.86 1886.01 L2859.49 1887.62 L2834.25 1889.10 L2808.88 1890.46 L2783.63 1891.70 L2758.26 1892.94 L2733.02 1893.93 L2707.65 1894.92 L2682.41 1895.79 L2657.04 1896.53 L2631.79 1897.15 L2606.42 1897.77 L2581.18 1898.26 L2555.81 1898.63 L2530.56 1899.13 L2505.20 1899.37 L2479.95 1899.75 L2454.58 1899.99 L2429.34 1900.24 L2403.97 1900.49 L2378.72 1900.61 L2353.35 1900.86 L2328.11 1900.98 L2302.74 1901.11 L2277.49 1901.23 L2252.13 1901.35 L2226.88 1901.48 L2201.51 1901.60 L2201.51 1902.22 Z" stroke-linejoin="round"/>
	</defs>
	<defs>
		<clipPath id="clipPath_xidJUAcU">
			<use xlink:href="#path_mkJOKhwT"/>
		</clipPath>
	</defs>
	<use xlink:href="#path_mkJOKhwT" style="stroke:none;fill:#E6E6E6"/>
	<use xlink:href="#path_mkJOKhwT" style="fill:none;stroke:#E0E0E0;stroke-width:14.69" clip-path="url(#clipPath_xidJUAcU)"/>
	<defs>
		<path id="path_ssiPjXOC" d="M2201.51 1902.10 L2201.51 1902.10 L2226.88 1902.10 L2252.13 1902.10 L2277.49 1901.97 L2302.74 1901.97 L2328.11 1901.97 L2353.35 1901.85 L2378.72 1901.73 L2403.97 1901.60 L2429.34 1901.48 L2454.58 1901.23 L2479.95 1900.98 L2505.20 1900.86 L2530.56 1900.49 L2555.81 1900.12 L2581.18 1899.75 L2606.42 1899.25 L2631.79 1898.63 L2657.04 1898.01 L2682.41 1897.39 L2707.65 1896.65 L2733.02 1895.79 L2758.26 1894.92 L2783.63 1893.93 L2808.88 1892.82 L2834.25 1891.70 L2859.49 1890.34 L2884.86 1888.98 L2910.11 1887.49 L2935.47 1885.76 L2960.72 1884.03 L2986.09 1882.05 L3011.46 1879.82 L3036.70 1877.47 L3062.07 1874.87 L3087.32 1872.02 L3112.68 1868.81 L3137.93 1865.34 L3163.30 1861.63 L3188.54 1857.42 L3213.91 1852.72 L3239.16 1847.65 L3264.53 1841.95 L3289.77 1835.64 L3315.14 1828.59 L3340.38 1820.79 L3365.75 1812.13 L3391.00 1802.48 L3416.37 1791.83 L3441.61 1779.83 L3466.98 1766.46 L3492.22 1751.61 L3517.59 1734.91 L3542.84 1716.47 L3568.21 1695.80 L3593.45 1672.78 L3618.82 1647.16 L3644.07 1618.58 L3669.43 1586.65 L3694.68 1551.13 L3720.05 1511.65 L3745.42 1467.60 L3770.66 1418.59 L3770.66 1295.58 L3745.42 1357.21 L3720.05 1412.53 L3694.68 1462.03 L3669.43 1506.58 L3644.07 1546.43 L3618.82 1582.19 L3593.45 1614.37 L3568.21 1643.08 L3542.84 1668.94 L3517.59 1692.09 L3492.22 1712.88 L3466.98 1731.56 L3441.61 1748.39 L3416.37 1763.37 L3391.00 1776.86 L3365.75 1788.99 L3340.38 1799.88 L3315.14 1809.65 L3289.77 1818.32 L3264.53 1826.24 L3239.16 1833.29 L3213.91 1839.60 L3188.54 1845.29 L3163.30 1850.37 L3137.93 1854.95 L3112.68 1859.03 L3087.32 1862.74 L3062.07 1866.21 L3036.70 1869.30 L3011.46 1872.27 L2986.09 1874.87 L2960.72 1877.35 L2935.47 1879.57 L2910.11 1881.80 L2884.86 1883.78 L2859.49 1885.64 L2834.25 1887.25 L2808.88 1888.86 L2783.63 1890.34 L2758.26 1891.58 L2733.02 1892.82 L2707.65 1893.93 L2682.41 1894.80 L2657.04 1895.66 L2631.79 1896.40 L2606.42 1897.15 L2581.18 1897.64 L2555.81 1898.26 L2530.56 1898.63 L2505.20 1899.00 L2479.95 1899.37 L2454.58 1899.75 L2429.34 1899.99 L2403.97 1900.24 L2378.72 1900.49 L2353.35 1900.61 L2328.11 1900.86 L2302.74 1900.98 L2277.49 1901.11 L2252.13 1901.23 L2226.88 1901.35 L2201.51 1901.48 L2201.51 1902.10 Z" stroke-linejoin="round"/>
	</defs>
	<defs>
		<clipPath id="clipPath_iYnnehPu">
			<use xlink:href="#path_ssiPjXOC"/>
		</clipPath>
	</defs>
	<use xlink:href="#path_ssiPjXOC" style="stroke:none;fill:#E6E6E6"/>
	<use xlink:href="#path_ssiPjXOC" style="fill:none;stroke:#E0E0E0;stroke-width:14.69" clip-path="url(#clipPath_iYnnehPu)"/>
	<defs>
		<path id="path_MzCGlSKn" d="M2201.51 1902.10 L2201.51 1902.10 L2226.88 1902.10 L2252.13 1901.97 L2277.49 1901.97 L2302.74 1901.85 L2328.11 1901.73 L2353.35 1901.60 L2378.72 1901.48 L2403.97 1901.35 L2429.34 1901.11 L2454.58 1900.86 L2479.95 1900.49 L2505.20 1900.12 L2530.56 1899.75 L2555.81 1899.25 L2581.18 1898.63 L2606.42 1897.89 L2631.79 1897.15 L2657.04 1896.28 L2682.41 1895.29 L2707.65 1894.30 L2733.02 1893.06 L2758.26 1891.83 L2783.63 1890.34 L2808.88 1888.86 L2834.25 1887.25 L2859.49 1885.39 L2884.86 1883.41 L2910.11 1881.31 L2935.47 1878.95 L2960.72 1876.36 L2986.09 1873.51 L3011.46 1870.42 L3036.70 1867.07 L3062.07 1863.36 L3087.32 1859.28 L3112.68 1854.82 L3137.93 1850.00 L3163.30 1844.55 L3188.54 1838.61 L3213.91 1832.18 L3239.16 1824.87 L3264.53 1816.83 L3289.77 1807.92 L3315.14 1798.02 L3340.38 1787.01 L3365.75 1774.63 L3391.00 1761.02 L3416.37 1745.80 L3441.61 1728.84 L3466.98 1709.91 L3492.22 1688.87 L3517.59 1665.36 L3542.84 1639.24 L3568.21 1610.04 L3593.45 1577.49 L3618.82 1541.23 L3644.07 1500.89 L3669.43 1455.84 L3694.68 1405.60 L3720.05 1349.78 L3745.42 1287.54 L3770.66 1218.36 L3770.66 1026.41 L3745.42 1115.39 L3720.05 1195.34 L3694.68 1266.99 L3669.43 1331.22 L3644.07 1388.77 L3618.82 1440.50 L3593.45 1486.78 L3568.21 1528.36 L3542.84 1565.73 L3517.59 1599.15 L3492.22 1629.10 L3466.98 1656.07 L3441.61 1680.21 L3416.37 1701.99 L3391.00 1721.42 L3365.75 1738.87 L3340.38 1754.58 L3315.14 1768.69 L3289.77 1781.31 L3264.53 1792.57 L3239.16 1802.85 L3213.91 1811.88 L3188.54 1820.05 L3163.30 1827.47 L3137.93 1834.03 L3112.68 1839.97 L3087.32 1845.42 L3062.07 1850.37 L3036.70 1854.82 L3011.46 1859.03 L2986.09 1862.87 L2960.72 1866.33 L2935.47 1869.67 L2910.11 1872.77 L2884.86 1875.61 L2859.49 1878.34 L2834.25 1880.69 L2808.88 1883.04 L2783.63 1885.02 L2758.26 1887.00 L2733.02 1888.73 L2707.65 1890.22 L2682.41 1891.58 L2657.04 1892.82 L2631.79 1893.93 L2606.42 1894.80 L2581.18 1895.66 L2555.81 1896.40 L2530.56 1897.02 L2505.20 1897.64 L2479.95 1898.14 L2454.58 1898.63 L2429.34 1899.00 L2403.97 1899.37 L2378.72 1899.62 L2353.35 1899.99 L2328.11 1900.24 L2302.74 1900.49 L2277.49 1900.61 L2252.13 1900.86 L2226.88 1900.98 L2201.51 1901.11 L2201.51 1902.10 Z" stroke-linejoin="round"/>
	</defs>
	<defs>
		<clipPath id="clipPath_VMxpavHI">
			<use xlink:href="#path_MzCGlSKn"/>
		</clipPath>
	</defs>
	<use xlink:href="#path_MzCGlSKn" style="stroke:none;fill:#E6E6E6"/>
	<use xlink:href="#path_MzCGlSKn" style="fill:none;stroke:#E0E0E0;stroke-width:14.69" clip-path="url(#clipPath_VMxpavHI)"/>
	<defs>
		<path id="path_VAFqxPOL" d="M2201.51 1902.10 L2201.51 1902.10 L2226.88 1902.10 L2252.13 1901.97 L2277.49 1901.97 L2302.74 1901.85 L2328.11 1901.73 L2353.35 1901.60 L2378.72 1901.48 L2403.97 1901.23 L2429.34 1901.11 L2454.58 1900.86 L2479.95 1900.49 L2505.20 1900.12 L2530.56 1899.62 L2555.81 1899.13 L2581.18 1898.51 L2606.42 1897.89 L2631.79 1897.02 L2657.04 1896.16 L2682.41 1895.17 L2707.65 1894.18 L2733.02 1892.94 L2758.26 1891.70 L2783.63 1890.22 L2808.88 1888.73 L2834.25 1887.00 L2859.49 1885.14 L2884.86 1883.16 L2910.11 1881.06 L2935.47 1878.71 L2960.72 1876.11 L2986.09 1873.26 L3011.46 1870.17 L3036.70 1866.70 L3062.07 1862.99 L3087.32 1859.03 L3112.68 1854.58 L3137.93 1849.63 L3163.30 1844.30 L3188.54 1838.36 L3213.91 1831.80 L3239.16 1824.50 L3264.53 1816.46 L3289.77 1807.55 L3315.14 1797.65 L3340.38 1786.51 L3365.75 1774.26 L3391.00 1760.52 L3416.37 1745.18 L3441.61 1728.22 L3466.98 1709.29 L3492.22 1688.13 L3517.59 1664.49 L3542.84 1638.25 L3568.21 1608.92 L3593.45 1576.13 L3618.82 1539.75 L3644.07 1499.03 L3669.43 1453.74 L3694.68 1403.25 L3720.05 1347.06 L3745.42 1284.44 L3770.66 1214.64 L3770.66 977.04 L3745.42 1070.84 L3720.05 1155.12 L3694.68 1230.73 L3669.43 1298.43 L3644.07 1359.31 L3618.82 1413.89 L3593.45 1462.89 L3568.21 1506.83 L3542.84 1546.18 L3517.59 1581.57 L3492.22 1613.26 L3466.98 1641.72 L3441.61 1667.34 L3416.37 1690.23 L3391.00 1710.90 L3365.75 1729.34 L3340.38 1745.92 L3315.14 1760.89 L3289.77 1774.26 L3264.53 1786.26 L3239.16 1797.03 L3213.91 1806.68 L3188.54 1815.35 L3163.30 1823.14 L3137.93 1830.20 L3112.68 1836.51 L3087.32 1842.32 L3062.07 1847.52 L3036.70 1852.35 L3011.46 1856.68 L2986.09 1860.76 L2960.72 1864.60 L2935.47 1868.06 L2910.11 1871.28 L2884.86 1874.25 L2859.49 1877.10 L2834.25 1879.70 L2808.88 1882.05 L2783.63 1884.28 L2758.26 1886.26 L2733.02 1887.99 L2707.65 1889.72 L2682.41 1891.08 L2657.04 1892.44 L2631.79 1893.56 L2606.42 1894.55 L2581.18 1895.41 L2555.81 1896.16 L2530.56 1896.90 L2505.20 1897.52 L2479.95 1898.01 L2454.58 1898.51 L2429.34 1898.88 L2403.97 1899.25 L2378.72 1899.62 L2353.35 1899.87 L2328.11 1900.12 L2302.74 1900.36 L2277.49 1900.61 L2252.13 1900.74 L2226.88 1900.86 L2201.51 1901.11 L2201.51 1902.10 Z" stroke-linejoin="round"/>
	</defs>
	<defs>
		<clipPath id="clipPath_joiTkYVF">
			<use xlink:href="#path_VAFqxPOL"/>
		</clipPath>
	</defs>
	<use xlink:href="#path_VAFqxPOL" style="stroke:none;fill:#E6E6E6"/>
	<use xlink:href="#path_VAFqxPOL" style="fill:none;stroke:#E0E0E0;stroke-width:14.69" clip-path="url(#clipPath_joiTkYVF)"/>
	<path d=" M2201.39 1902.10 L2226.76 1902.10 L2252.13 1901.97 L2277.37 1901.97 L2302.74 1901.85 L2327.99 1901.85 L2353.35 1901.73 L2378.60 1901.60 L2403.97 1901.48 L2429.21 1901.35 L2454.58 1901.23 L2479.83 1900.98 L2505.20 1900.86 L2530.44 1900.61 L2555.81 1900.24 L2581.05 1899.99 L2606.42 1899.62 L2631.67 1899.13 L2657.04 1898.63 L2682.28 1898.14 L2707.65 1897.52 L2732.89 1896.90 L2758.26 1896.16 L2783.51 1895.29 L2808.88 1894.42 L2834.12 1893.56 L2859.49 1892.44 L2884.74 1891.33 L2910.11 1890.22 L2935.35 1888.86 L2960.72 1887.37 L2986.09 1885.89 L3011.33 1884.15 L3036.70 1882.30 L3061.95 1880.32 L3087.32 1878.09 L3112.56 1875.74 L3137.93 1873.14 L3163.17 1870.17 L3188.54 1866.95 L3213.79 1863.36 L3239.16 1859.40 L3264.40 1854.95 L3289.77 1850.00 L3315.01 1844.55 L3340.38 1838.49 L3365.63 1831.68 L3391.00 1824.13 L3416.24 1815.72 L3441.61 1806.31 L3466.86 1795.92 L3492.22 1784.16 L3517.47 1771.17 L3542.84 1756.69 L3568.08 1740.60 L3593.45 1722.53 L3618.70 1702.48 L3644.07 1680.08 L3669.31 1655.21 L3694.68 1627.36 L3719.93 1596.42 L3745.29 1561.90 L3770.66 1523.41" stroke-linejoin="round" style="fill:none;stroke:#FF0000;stroke-width:7.34"/>
	<path d=" M2201.39 1902.10 L2226.76 1901.97 L2252.13 1901.97 L2277.37 1901.85 L2302.74 1901.85 L2327.99 1901.73 L2353.35 1901.60 L2378.60 1901.48 L2403.97 1901.35 L2429.21 1901.11 L2454.58 1900.86 L2479.83 1900.74 L2505.20 1900.36 L2530.44 1900.12 L2555.81 1899.75 L2581.05 1899.25 L2606.42 1898.88 L2631.67 1898.26 L2657.04 1897.64 L2682.28 1897.02 L2707.65 1896.28 L2732.89 1895.41 L2758.26 1894.55 L2783.51 1893.56 L2808.88 1892.44 L2834.12 1891.21 L2859.49 1889.85 L2884.74 1888.48 L2910.11 1887.00 L2935.35 1885.27 L2960.72 1883.53 L2986.09 1881.55 L3011.33 1879.45 L3036.70 1877.10 L3061.95 1874.50 L3087.32 1871.78 L3112.56 1868.81 L3137.93 1865.47 L3163.17 1861.75 L3188.54 1857.67 L3213.79 1853.09 L3239.16 1848.14 L3264.40 1842.57 L3289.77 1836.26 L3315.01 1829.45 L3340.38 1821.66 L3365.63 1813.12 L3391.00 1803.59 L3416.24 1792.95 L3441.61 1781.07 L3466.86 1767.95 L3492.22 1753.22 L3517.47 1736.76 L3542.84 1718.45 L3568.08 1698.03 L3593.45 1675.38 L3618.70 1650.01 L3644.07 1621.79 L3669.31 1590.24 L3694.68 1555.21 L3719.93 1516.11 L3745.29 1472.55 L3770.66 1423.91" stroke-linejoin="round" style="fill:none;stroke:#008000;stroke-width:7.34"/>
	<path d=" M2201.39 1901.97 L2226.76 1901.97 L2252.13 1901.85 L2277.37 1901.85 L2302.74 1901.73 L2327.99 1901.60 L2353.35 1901.48 L2378.60 1901.35 L2403.97 1901.11 L2429.21 1900.98 L2454.58 1900.74 L2479.83 1900.49 L2505.20 1900.12 L2530.44 1899.75 L2555.81 1899.37 L2581.05 1898.88 L2606.42 1898.38 L2631.67 1897.77 L2657.04 1897.02 L2682.28 1896.28 L2707.65 1895.41 L2732.89 1894.55 L2758.26 1893.43 L2783.51 1892.32 L2808.88 1891.08 L2834.12 1889.72 L2859.49 1888.24 L2884.74 1886.63 L2910.11 1884.90 L2935.35 1883.04 L2960.72 1880.94 L2986.09 1878.83 L3011.33 1876.36 L3036.70 1873.76 L3061.95 1870.91 L3087.32 1867.69 L3112.56 1864.35 L3137.93 1860.52 L3163.17 1856.31 L3188.54 1851.73 L3213.79 1846.66 L3239.16 1840.96 L3264.40 1834.65 L3289.77 1827.60 L3315.01 1819.68 L3340.38 1811.01 L3365.63 1801.36 L3391.00 1790.47 L3416.24 1778.47 L3441.61 1764.98 L3466.86 1750.13 L3492.22 1733.42 L3517.47 1714.86 L3542.84 1694.07 L3568.08 1671.05 L3593.45 1645.31 L3618.70 1616.60 L3644.07 1584.67 L3669.31 1548.90 L3694.68 1509.18 L3719.93 1464.87 L3745.29 1415.62 L3770.66 1360.67" stroke-linejoin="round" style="fill:none;stroke:#FFD200;stroke-width:7.34"/>
	<path d=" M2201.39 1901.85 L2226.76 1901.85 L2252.13 1901.73 L2277.37 1901.60 L2302.74 1901.48 L2327.99 1901.35 L2353.35 1901.11 L2378.60 1900.86 L2403.97 1900.61 L2429.21 1900.36 L2454.58 1899.99 L2479.83 1899.62 L2505.20 1899.25 L2530.44 1898.63 L2555.81 1898.14 L2581.05 1897.39 L2606.42 1896.65 L2631.67 1895.79 L2657.04 1894.80 L2682.28 1893.68 L2707.65 1892.44 L2732.89 1891.21 L2758.26 1889.72 L2783.51 1887.99 L2808.88 1886.26 L2834.12 1884.28 L2859.49 1882.17 L2884.74 1879.94 L2910.11 1877.47 L2935.35 1874.75 L2960.72 1871.78 L2986.09 1868.68 L3011.33 1865.22 L3036.70 1861.51 L3061.95 1857.30 L3087.32 1852.84 L3112.56 1848.02 L3137.93 1842.57 L3163.17 1836.63 L3188.54 1830.07 L3213.79 1822.77 L3239.16 1814.60 L3264.40 1805.57 L3289.77 1795.42 L3315.01 1784.28 L3340.38 1771.78 L3365.63 1757.92 L3391.00 1742.45 L3416.24 1725.25 L3441.61 1706.07 L3466.86 1684.79 L3492.22 1660.90 L3517.47 1634.42 L3542.84 1604.84 L3568.08 1571.80 L3593.45 1535.04 L3618.70 1494.08 L3644.07 1448.29 L3669.31 1397.43 L3694.68 1340.63 L3719.93 1277.39 L3745.29 1206.85 L3770.66 1128.39" stroke-linejoin="round" style="fill:none;stroke:#FF7F00;stroke-width:7.34"/>
	<path d=" M2201.39 1901.85 L2226.76 1901.73 L2252.13 1901.73 L2277.37 1901.60 L2302.74 1901.48 L2327.99 1901.23 L2353.35 1901.11 L2378.60 1900.86 L2403.97 1900.61 L2429.21 1900.36 L2454.58 1899.99 L2479.83 1899.62 L2505.20 1899.13 L2530.44 1898.63 L2555.81 1898.01 L2581.05 1897.27 L2606.42 1896.53 L2631.67 1895.54 L2657.04 1894.55 L2682.28 1893.43 L2707.65 1892.20 L2732.89 1890.84 L2758.26 1889.23 L2783.51 1887.62 L2808.88 1885.76 L2834.12 1883.78 L2859.49 1881.55 L2884.74 1879.20 L2910.11 1876.73 L2935.35 1873.88 L2960.72 1870.91 L2986.09 1867.57 L3011.33 1864.10 L3036.70 1860.14 L3061.95 1855.94 L3087.32 1851.36 L3112.56 1846.28 L3137.93 1840.72 L3163.17 1834.65 L3188.54 1827.84 L3213.79 1820.30 L3239.16 1811.88 L3264.40 1802.60 L3289.77 1792.20 L3315.01 1780.69 L3340.38 1767.82 L3365.63 1753.47 L3391.00 1737.63 L3416.24 1719.81 L3441.61 1700.13 L3466.86 1678.10 L3492.22 1653.48 L3517.47 1626.13 L3542.84 1595.68 L3568.08 1561.65 L3593.45 1523.78 L3618.70 1481.58 L3644.07 1434.43 L3669.31 1381.96 L3694.68 1323.42 L3719.93 1258.21 L3745.29 1185.56 L3770.66 1104.75" stroke-linejoin="round" style="fill:none;stroke:#9C8847;stroke-width:7.34"/>
	<path d=" M2201.39 1902.10 L2226.76 1902.10 L2252.13 1901.97 L2277.37 1901.97 L2302.74 1901.85 L2327.99 1901.73 L2353.35 1901.73 L2378.60 1901.60 L2403.97 1901.48 L2429.21 1901.23 L2454.58 1901.11 L2479.83 1900.86 L2505.20 1900.61 L2530.44 1900.36 L2555.81 1900.12 L2581.05 1899.75 L2606.42 1899.25 L2631.67 1898.88 L2657.04 1898.26 L2682.28 1897.77 L2707.65 1897.02 L2732.89 1896.40 L2758.26 1895.54 L2783.51 1894.67 L2808.88 1893.68 L2834.12 1892.69 L2859.49 1891.58 L2884.74 1890.34 L2910.11 1888.98 L2935.35 1887.62 L2960.72 1886.01 L2986.09 1884.28 L3011.33 1882.54 L3036.70 1880.44 L3061.95 1878.34 L3087.32 1875.86 L3112.56 1873.26 L3137.93 1870.42 L3163.17 1867.20 L3188.54 1863.73 L3213.79 1859.77 L3239.16 1855.44 L3264.40 1850.62 L3289.77 1845.17 L3315.01 1839.23 L3340.38 1832.55 L3365.63 1825.12 L3391.00 1816.83 L3416.24 1807.67 L3441.61 1797.40 L3466.86 1786.02 L3492.22 1773.27 L3517.47 1759.04 L3542.84 1743.20 L3568.08 1725.50 L3593.45 1705.95 L3618.70 1683.92 L3644.07 1659.54 L3669.31 1632.19 L3694.68 1601.87 L3719.93 1567.96 L3745.29 1530.34 L3770.66 1488.26" stroke-linejoin="round" style="fill:none;stroke:#1A476F;stroke-width:7.34"/>
	<line x1="2201.39" y1="1816.83" x2="2204.24" y2="1816.83" style="stroke:#000000;stroke-width:7.34"/>
	<line x1="2224.41" y1="1816.83" x2="2226.76" y2="1816.83" style="stroke:#000000;stroke-width:7.34"/>
	<line x1="2226.76" y1="1816.83" x2="2227.25" y2="1816.83" style="stroke:#000000;stroke-width:7.34"/>
	<line x1="2247.42" y1="1816.83" x2="2250.27" y2="1816.83" style="stroke:#000000;stroke-width:7.34"/>
	<line x1="2270.44" y1="1816.83" x2="2273.29" y2="1816.83" style="stroke:#000000;stroke-width:7.34"/>
	<line x1="2293.46" y1="1816.83" x2="2296.43" y2="1816.83" style="stroke:#000000;stroke-width:7.34"/>
	<line x1="2316.60" y1="1816.83" x2="2319.45" y2="1816.83" style="stroke:#000000;stroke-width:7.34"/>
	<line x1="2339.62" y1="1816.83" x2="2342.46" y2="1816.83" style="stroke:#000000;stroke-width:7.34"/>
	<line x1="2362.64" y1="1816.83" x2="2365.48" y2="1816.83" style="stroke:#000000;stroke-width:7.34"/>
	<line x1="2385.65" y1="1816.83" x2="2388.50" y2="1816.83" style="stroke:#000000;stroke-width:7.34"/>
	<line x1="2408.67" y1="1816.83" x2="2411.52" y2="1816.83" style="stroke:#000000;stroke-width:7.34"/>
	<line x1="2431.69" y1="1816.83" x2="2434.53" y2="1816.83" style="stroke:#000000;stroke-width:7.34"/>
	<line x1="2454.70" y1="1816.83" x2="2457.55" y2="1816.83" style="stroke:#000000;stroke-width:7.34"/>
	<line x1="2477.72" y1="1816.83" x2="2479.83" y2="1816.83" style="stroke:#000000;stroke-width:7.34"/>
	<line x1="2479.83" y1="1816.83" x2="2480.57" y2="1816.83" style="stroke:#000000;stroke-width:7.34"/>
	<line x1="2500.74" y1="1816.83" x2="2503.59" y2="1816.83" style="stroke:#000000;stroke-width:7.34"/>
	<line x1="2523.76" y1="1816.83" x2="2526.60" y2="1816.83" style="stroke:#000000;stroke-width:7.34"/>
	<line x1="2546.78" y1="1816.83" x2="2549.74" y2="1816.83" style="stroke:#000000;stroke-width:7.34"/>
	<line x1="2569.92" y1="1816.83" x2="2572.76" y2="1816.83" style="stroke:#000000;stroke-width:7.34"/>
	<line x1="2592.93" y1="1816.83" x2="2595.78" y2="1816.83" style="stroke:#000000;stroke-width:7.34"/>
	<line x1="2615.95" y1="1816.83" x2="2618.80" y2="1816.83" style="stroke:#000000;stroke-width:7.34"/>
	<line x1="2638.97" y1="1816.83" x2="2641.82" y2="1816.83" style="stroke:#000000;stroke-width:7.34"/>
	<line x1="2661.99" y1="1816.83" x2="2664.83" y2="1816.83" style="stroke:#000000;stroke-width:7.34"/>
	<line x1="2685.00" y1="1816.83" x2="2687.85" y2="1816.83" style="stroke:#000000;stroke-width:7.34"/>
	<line x1="2708.02" y1="1816.83" x2="2710.87" y2="1816.83" style="stroke:#000000;stroke-width:7.34"/>
	<line x1="2731.04" y1="1816.83" x2="2732.89" y2="1816.83" style="stroke:#000000;stroke-width:7.34"/>
	<line x1="2732.89" y1="1816.83" x2="2733.89" y2="1816.83" style="stroke:#000000;stroke-width:7.34"/>
	<line x1="2754.06" y1="1816.83" x2="2756.90" y2="1816.83" style="stroke:#000000;stroke-width:7.34"/>
	<line x1="2777.07" y1="1816.83" x2="2779.92" y2="1816.83" style="stroke:#000000;stroke-width:7.34"/>
	<line x1="2800.09" y1="1816.83" x2="2803.06" y2="1816.83" style="stroke:#000000;stroke-width:7.34"/>
	<line x1="2823.23" y1="1816.83" x2="2826.08" y2="1816.83" style="stroke:#000000;stroke-width:7.34"/>
	<line x1="2846.25" y1="1816.83" x2="2849.10" y2="1816.83" style="stroke:#000000;stroke-width:7.34"/>
	<line x1="2869.27" y1="1816.83" x2="2872.11" y2="1816.83" style="stroke:#000000;stroke-width:7.34"/>
	<line x1="2892.28" y1="1816.83" x2="2895.13" y2="1816.83" style="stroke:#000000;stroke-width:7.34"/>
	<line x1="2915.30" y1="1816.83" x2="2918.15" y2="1816.83" style="stroke:#000000;stroke-width:7.34"/>
	<line x1="2938.32" y1="1816.83" x2="2941.17" y2="1816.83" style="stroke:#000000;stroke-width:7.34"/>
	<line x1="2961.34" y1="1816.83" x2="2964.18" y2="1816.83" style="stroke:#000000;stroke-width:7.34"/>
	<line x1="2984.36" y1="1816.83" x2="2986.09" y2="1816.83" style="stroke:#000000;stroke-width:7.34"/>
	<line x1="2986.09" y1="1816.83" x2="2987.20" y2="1816.83" style="stroke:#000000;stroke-width:7.34"/>
	<line x1="3007.37" y1="1816.83" x2="3010.22" y2="1816.83" style="stroke:#000000;stroke-width:7.34"/>
	<line x1="3030.39" y1="1816.83" x2="3033.36" y2="1816.83" style="stroke:#000000;stroke-width:7.34"/>
	<line x1="3053.41" y1="1816.83" x2="3056.38" y2="1816.83" style="stroke:#000000;stroke-width:7.34"/>
	<line x1="3076.55" y1="1816.83" x2="3079.39" y2="1816.83" style="stroke:#000000;stroke-width:7.34"/>
	<line x1="3099.57" y1="1816.83" x2="3102.41" y2="1816.83" style="stroke:#000000;stroke-width:7.34"/>
	<line x1="3122.58" y1="1816.83" x2="3125.43" y2="1816.83" style="stroke:#000000;stroke-width:7.34"/>
	<line x1="3145.60" y1="1816.83" x2="3148.45" y2="1816.83" style="stroke:#000000;stroke-width:7.34"/>
	<line x1="3168.62" y1="1816.83" x2="3171.47" y2="1816.83" style="stroke:#000000;stroke-width:7.34"/>
	<line x1="3191.64" y1="1816.83" x2="3194.48" y2="1816.83" style="stroke:#000000;stroke-width:7.34"/>
	<line x1="3214.65" y1="1816.83" x2="3217.50" y2="1816.83" style="stroke:#000000;stroke-width:7.34"/>
	<line x1="3237.67" y1="1816.83" x2="3239.16" y2="1816.83" style="stroke:#000000;stroke-width:7.34"/>
	<line x1="3239.16" y1="1816.83" x2="3240.52" y2="1816.83" style="stroke:#000000;stroke-width:7.34"/>
	<line x1="3260.69" y1="1816.83" x2="3263.53" y2="1816.83" style="stroke:#000000;stroke-width:7.34"/>
	<line x1="3283.71" y1="1816.83" x2="3286.68" y2="1816.83" style="stroke:#000000;stroke-width:7.34"/>
	<line x1="3306.72" y1="1816.83" x2="3309.69" y2="1816.83" style="stroke:#000000;stroke-width:7.34"/>
	<line x1="3329.86" y1="1816.83" x2="3332.71" y2="1816.83" style="stroke:#000000;stroke-width:7.34"/>
	<line x1="3352.88" y1="1816.83" x2="3355.73" y2="1816.83" style="stroke:#000000;stroke-width:7.34"/>
	<line x1="3375.90" y1="1816.83" x2="3378.75" y2="1816.83" style="stroke:#000000;stroke-width:7.34"/>
	<line x1="3398.92" y1="1816.83" x2="3401.76" y2="1816.83" style="stroke:#000000;stroke-width:7.34"/>
	<line x1="3421.93" y1="1816.83" x2="3424.78" y2="1816.83" style="stroke:#000000;stroke-width:7.34"/>
	<line x1="3444.95" y1="1816.83" x2="3447.80" y2="1816.83" style="stroke:#000000;stroke-width:7.34"/>
	<line x1="3467.97" y1="1816.83" x2="3470.82" y2="1816.83" style="stroke:#000000;stroke-width:7.34"/>
	<line x1="3490.99" y1="1816.83" x2="3492.22" y2="1816.83" style="stroke:#000000;stroke-width:7.34"/>
	<line x1="3492.22" y1="1816.83" x2="3493.83" y2="1816.83" style="stroke:#000000;stroke-width:7.34"/>
	<line x1="3514.01" y1="1816.83" x2="3516.85" y2="1816.83" style="stroke:#000000;stroke-width:7.34"/>
	<line x1="3537.02" y1="1816.83" x2="3539.99" y2="1816.83" style="stroke:#000000;stroke-width:7.34"/>
	<line x1="3560.04" y1="1816.83" x2="3563.01" y2="1816.83" style="stroke:#000000;stroke-width:7.34"/>
	<line x1="3583.18" y1="1816.83" x2="3586.03" y2="1816.83" style="stroke:#000000;stroke-width:7.34"/>
	<line x1="3606.20" y1="1816.83" x2="3609.05" y2="1816.83" style="stroke:#000000;stroke-width:7.34"/>
	<line x1="3629.22" y1="1816.83" x2="3632.06" y2="1816.83" style="stroke:#000000;stroke-width:7.34"/>
	<line x1="3652.23" y1="1816.83" x2="3655.08" y2="1816.83" style="stroke:#000000;stroke-width:7.34"/>
	<line x1="3675.25" y1="1816.83" x2="3678.10" y2="1816.83" style="stroke:#000000;stroke-width:7.34"/>
	<line x1="3698.27" y1="1816.83" x2="3701.11" y2="1816.83" style="stroke:#000000;stroke-width:7.34"/>
	<line x1="3721.29" y1="1816.83" x2="3724.13" y2="1816.83" style="stroke:#000000;stroke-width:7.34"/>
	<line x1="3744.30" y1="1816.83" x2="3745.29" y2="1816.83" style="stroke:#000000;stroke-width:7.34"/>
	<line x1="3745.29" y1="1816.83" x2="3747.15" y2="1816.83" style="stroke:#000000;stroke-width:7.34"/>
	<line x1="3767.32" y1="1816.83" x2="3770.17" y2="1816.83" style="stroke:#000000;stroke-width:7.34"/>
	<path d="" stroke-linejoin="round" style="fill:none;stroke:#000000;stroke-width:7.34"/>
	<line x1="401.69" y1="1956.18" x2="401.69" y2="258.27" style="stroke:#000000;stroke-width:4.90"/>
	<line x1="401.69" y1="1902.22" x2="367.66" y2="1902.22" style="stroke:#000000;stroke-width:4.90"/>
	<text x="350.71" y="1932.01" style="font-family:'Helvetica';font-size:85.02px;fill:#000000" text-anchor="end">0</text>
	<line x1="401.69" y1="1584.30" x2="367.66" y2="1584.30" style="stroke:#000000;stroke-width:4.90"/>
	<text x="350.71" y="1614.08" style="font-family:'Helvetica';font-size:85.02px;fill:#000000" text-anchor="end">.001</text>
	<line x1="401.69" y1="1266.25" x2="367.66" y2="1266.25" style="stroke:#000000;stroke-width:4.90"/>
	<text x="350.71" y="1296.04" style="font-family:'Helvetica';font-size:85.02px;fill:#000000" text-anchor="end">.002</text>
	<line x1="401.69" y1="948.20" x2="367.66" y2="948.20" style="stroke:#000000;stroke-width:4.90"/>
	<text x="350.71" y="977.99" style="font-family:'Helvetica';font-size:85.02px;fill:#000000" text-anchor="end">.003</text>
	<line x1="401.69" y1="630.15" x2="367.66" y2="630.15" style="stroke:#000000;stroke-width:4.90"/>
	<text x="350.71" y="659.94" style="font-family:'Helvetica';font-size:85.02px;fill:#000000" text-anchor="end">.004</text>
	<line x1="401.69" y1="312.11" x2="367.66" y2="312.11" style="stroke:#000000;stroke-width:4.90"/>
	<text x="350.71" y="341.89" style="font-family:'Helvetica';font-size:85.02px;fill:#000000" text-anchor="end">.005</text>
	<line x1="401.69" y1="1956.18" x2="2078.51" y2="1956.18" style="stroke:#000000;stroke-width:4.90"/>
	<line x1="506.14" y1="1956.18" x2="506.14" y2="1973.13" style="stroke:#000000;stroke-width:4.90"/>
	<line x1="632.73" y1="1956.18" x2="632.73" y2="1973.13" style="stroke:#000000;stroke-width:4.90"/>
	<line x1="759.21" y1="1956.18" x2="759.21" y2="1973.13" style="stroke:#000000;stroke-width:4.90"/>
	<line x1="885.80" y1="1956.18" x2="885.80" y2="1973.13" style="stroke:#000000;stroke-width:4.90"/>
	<line x1="1012.27" y1="1956.18" x2="1012.27" y2="1973.13" style="stroke:#000000;stroke-width:4.90"/>
	<line x1="1138.87" y1="1956.18" x2="1138.87" y2="1973.13" style="stroke:#000000;stroke-width:4.90"/>
	<line x1="1265.47" y1="1956.18" x2="1265.47" y2="1973.13" style="stroke:#000000;stroke-width:4.90"/>
	<line x1="1391.94" y1="1956.18" x2="1391.94" y2="1973.13" style="stroke:#000000;stroke-width:4.90"/>
	<line x1="1518.54" y1="1956.18" x2="1518.54" y2="1973.13" style="stroke:#000000;stroke-width:4.90"/>
	<line x1="1645.01" y1="1956.18" x2="1645.01" y2="1973.13" style="stroke:#000000;stroke-width:4.90"/>
	<line x1="1771.61" y1="1956.18" x2="1771.61" y2="1973.13" style="stroke:#000000;stroke-width:4.90"/>
	<line x1="1898.20" y1="1956.18" x2="1898.20" y2="1973.13" style="stroke:#000000;stroke-width:4.90"/>
	<line x1="2024.67" y1="1956.18" x2="2024.67" y2="1973.13" style="stroke:#000000;stroke-width:4.90"/>
	<line x1="506.14" y1="1956.18" x2="506.14" y2="1990.09" style="stroke:#000000;stroke-width:4.90"/>
	<text x="506.14" y="2066.62" style="font-family:'Helvetica';font-size:85.02px;fill:#000000" text-anchor="middle">20</text>
	<line x1="1012.27" y1="1956.18" x2="1012.27" y2="1990.09" style="stroke:#000000;stroke-width:4.90"/>
	<text x="1012.27" y="2066.62" style="font-family:'Helvetica';font-size:85.02px;fill:#000000" text-anchor="middle">40</text>
	<line x1="1518.54" y1="1956.18" x2="1518.54" y2="1990.09" style="stroke:#000000;stroke-width:4.90"/>
	<text x="1518.54" y="2066.62" style="font-family:'Helvetica';font-size:85.02px;fill:#000000" text-anchor="middle">60</text>
	<line x1="2024.67" y1="1956.18" x2="2024.67" y2="1990.09" style="stroke:#000000;stroke-width:4.90"/>
	<text x="2024.67" y="2066.62" style="font-family:'Helvetica';font-size:85.02px;fill:#000000" text-anchor="middle">80</text>
	<line x1="2147.68" y1="1956.18" x2="3824.49" y2="1956.18" style="stroke:#000000;stroke-width:4.90"/>
	<line x1="2252.13" y1="1956.18" x2="2252.13" y2="1973.13" style="stroke:#000000;stroke-width:4.90"/>
	<line x1="2378.72" y1="1956.18" x2="2378.72" y2="1973.13" style="stroke:#000000;stroke-width:4.90"/>
	<line x1="2505.20" y1="1956.18" x2="2505.20" y2="1973.13" style="stroke:#000000;stroke-width:4.90"/>
	<line x1="2631.79" y1="1956.18" x2="2631.79" y2="1973.13" style="stroke:#000000;stroke-width:4.90"/>
	<line x1="2758.26" y1="1956.18" x2="2758.26" y2="1973.13" style="stroke:#000000;stroke-width:4.90"/>
	<line x1="2884.86" y1="1956.18" x2="2884.86" y2="1973.13" style="stroke:#000000;stroke-width:4.90"/>
	<line x1="3011.46" y1="1956.18" x2="3011.46" y2="1973.13" style="stroke:#000000;stroke-width:4.90"/>
	<line x1="3137.93" y1="1956.18" x2="3137.93" y2="1973.13" style="stroke:#000000;stroke-width:4.90"/>
	<line x1="3264.53" y1="1956.18" x2="3264.53" y2="1973.13" style="stroke:#000000;stroke-width:4.90"/>
	<line x1="3391.00" y1="1956.18" x2="3391.00" y2="1973.13" style="stroke:#000000;stroke-width:4.90"/>
	<line x1="3517.59" y1="1956.18" x2="3517.59" y2="1973.13" style="stroke:#000000;stroke-width:4.90"/>
	<line x1="3644.07" y1="1956.18" x2="3644.07" y2="1973.13" style="stroke:#000000;stroke-width:4.90"/>
	<line x1="3770.66" y1="1956.18" x2="3770.66" y2="1973.13" style="stroke:#000000;stroke-width:4.90"/>
	<line x1="2252.13" y1="1956.18" x2="2252.13" y2="1990.09" style="stroke:#000000;stroke-width:4.90"/>
	<text x="2252.13" y="2066.62" style="font-family:'Helvetica';font-size:85.02px;fill:#000000" text-anchor="middle">20</text>
	<line x1="2758.26" y1="1956.18" x2="2758.26" y2="1990.09" style="stroke:#000000;stroke-width:4.90"/>
	<text x="2758.26" y="2066.62" style="font-family:'Helvetica';font-size:85.02px;fill:#000000" text-anchor="middle">40</text>
	<line x1="3264.53" y1="1956.18" x2="3264.53" y2="1990.09" style="stroke:#000000;stroke-width:4.90"/>
	<text x="3264.53" y="2066.62" style="font-family:'Helvetica';font-size:85.02px;fill:#000000" text-anchor="middle">60</text>
	<line x1="3770.66" y1="1956.18" x2="3770.66" y2="1990.09" style="stroke:#000000;stroke-width:4.90"/>
	<text x="3770.66" y="2066.62" style="font-family:'Helvetica';font-size:85.02px;fill:#000000" text-anchor="middle">80</text>
	<rect x="401.69" y="135.39" width="1676.81" height="122.89" style="fill:#D9E6EB"/>
	<rect x="404.14" y="137.83" width="1671.92" height="117.99" style="fill:none;stroke:#D9E6EB;stroke-width:4.90"/>
	<text x="1240.10" y="215.42" style="font-family:'Helvetica';font-size:93.56px;fill:#000000" text-anchor="middle">Female</text>
	<rect x="2147.68" y="135.39" width="1676.81" height="122.89" style="fill:#D9E6EB"/>
	<rect x="2150.13" y="137.83" width="1671.92" height="117.99" style="fill:none;stroke:#D9E6EB;stroke-width:4.90"/>
	<text x="2986.09" y="215.42" style="font-family:'Helvetica';font-size:93.56px;fill:#000000" text-anchor="middle">Male</text>
	<rect x="421.74" y="2278.31" width="3116.40" height="466.30" style="fill:#FFFFFF"/>
	<rect x="424.62" y="2281.19" width="3110.64" height="460.54" style="fill:none;stroke:#000000;stroke-width:5.76"/>
	<line x1="464.93" y1="2371.50" x2="839.40" y2="2371.50" style="stroke:#FF0000;stroke-width:8.64"/>
	<line x1="2033.95" y1="2371.50" x2="2408.30" y2="2371.50" style="stroke:#008000;stroke-width:8.64"/>
	<line x1="464.93" y1="2511.46" x2="839.40" y2="2511.46" style="stroke:#FFD200;stroke-width:8.64"/>
	<line x1="2033.95" y1="2511.46" x2="2408.30" y2="2511.46" style="stroke:#FF7F00;stroke-width:8.64"/>
	<line x1="464.93" y1="2651.43" x2="839.40" y2="2651.43" style="stroke:#9C8847;stroke-width:8.64"/>
	<line x1="2033.95" y1="2651.43" x2="2408.30" y2="2651.43" style="stroke:#1A476F;stroke-width:8.64"/>
	<text x="899.41" y="2406.52" style="font-family:'Helvetica';font-size:99.99px;fill:#000000">High BP/hypertension</text>
	<text x="2468.32" y="2406.52" style="font-family:'Helvetica';font-size:99.99px;fill:#000000">Cardiac disease</text>
	<text x="899.41" y="2546.49" style="font-family:'Helvetica';font-size:99.99px;fill:#000000">Diabetes, controlled</text>
	<text x="2468.32" y="2546.49" style="font-family:'Helvetica';font-size:99.99px;fill:#000000">Diabetes, uncontrolled</text>
	<text x="899.41" y="2686.46" style="font-family:'Helvetica';font-size:99.99px;fill:#000000">Diabetes, unknown</text>
	<text x="2468.32" y="2686.46" style="font-family:'Helvetica';font-size:99.99px;fill:#000000">No comborbidity</text>
	<text x="1980.00" y="2213.60" style="font-family:'Helvetica';font-size:99.99px;fill:#000000" text-anchor="middle">Age (years)</text>
</svg>
