<?xml version="1.0" encoding="UTF-8" standalone="no"?>
<!-- This is a Stata 16.1 generated SVG file (http://www.stata.com) -->

<svg version="1.1" width="1600px" height="1164px" viewBox="0 0 3960 2880" xmlns="http://www.w3.org/2000/svg" xmlns:xlink="http://www.w3.org/1999/xlink">
	<desc>Stata Graph - Graph</desc>
	<rect x="0" y="0" width="3960" height="2880" style="fill:#EAF2F3;stroke:none"/>
	<rect x="0.00" y="0.00" width="3959.88" height="2880.00" style="fill:#EAF2F3"/>
	<rect x="2.88" y="2.88" width="3954.12" height="2874.24" style="fill:none;stroke:#EAF2F3;stroke-width:5.76"/>
	<rect x="401.69" y="258.27" width="1676.81" height="1837.87" style="fill:#FFFFFF"/>
	<rect x="404.14" y="260.72" width="1671.92" height="1832.97" style="fill:none;stroke:#FFFFFF;stroke-width:4.90"/>
	<line x1="401.69" y1="2042.31" x2="2078.51" y2="2042.31" style="stroke:#EAF2F3;stroke-width:7.34"/>
	<line x1="401.69" y1="1795.05" x2="2078.51" y2="1795.05" style="stroke:#EAF2F3;stroke-width:7.34"/>
	<line x1="401.69" y1="1547.91" x2="2078.51" y2="1547.91" style="stroke:#EAF2F3;stroke-width:7.34"/>
	<line x1="401.69" y1="1300.78" x2="2078.51" y2="1300.78" style="stroke:#EAF2F3;stroke-width:7.34"/>
	<line x1="401.69" y1="1053.64" x2="2078.51" y2="1053.64" style="stroke:#EAF2F3;stroke-width:7.34"/>
	<line x1="401.69" y1="806.38" x2="2078.51" y2="806.38" style="stroke:#EAF2F3;stroke-width:7.34"/>
	<line x1="401.69" y1="559.24" x2="2078.51" y2="559.24" style="stroke:#EAF2F3;stroke-width:7.34"/>
	<rect x="2147.68" y="258.27" width="1676.81" height="1837.87" style="fill:#FFFFFF"/>
	<rect x="2150.13" y="260.72" width="1671.92" height="1832.97" style="fill:none;stroke:#FFFFFF;stroke-width:4.90"/>
	<line x1="2147.68" y1="2042.31" x2="3824.49" y2="2042.31" style="stroke:#EAF2F3;stroke-width:7.34"/>
	<line x1="2147.68" y1="1795.05" x2="3824.49" y2="1795.05" style="stroke:#EAF2F3;stroke-width:7.34"/>
	<line x1="2147.68" y1="1547.91" x2="3824.49" y2="1547.91" style="stroke:#EAF2F3;stroke-width:7.34"/>
	<line x1="2147.68" y1="1300.78" x2="3824.49" y2="1300.78" style="stroke:#EAF2F3;stroke-width:7.34"/>
	<line x1="2147.68" y1="1053.64" x2="3824.49" y2="1053.64" style="stroke:#EAF2F3;stroke-width:7.34"/>
	<line x1="2147.68" y1="806.38" x2="3824.49" y2="806.38" style="stroke:#EAF2F3;stroke-width:7.34"/>
	<line x1="2147.68" y1="559.24" x2="3824.49" y2="559.24" style="stroke:#EAF2F3;stroke-width:7.34"/>
	<defs>
		<path id="path_HvoPJTgO" d="M455.52 2042.19 L455.52 2042.19 L480.89 2042.19 L506.14 2042.19 L531.51 2042.19 L556.75 2042.19 L582.12 2042.06 L607.37 2042.06 L632.73 2042.06 L657.98 2041.94 L683.35 2041.94 L708.59 2041.82 L733.96 2041.69 L759.21 2041.57 L784.58 2041.44 L809.82 2041.32 L835.19 2041.20 L860.43 2040.95 L885.80 2040.70 L911.05 2040.45 L936.42 2040.08 L961.66 2039.71 L987.03 2039.34 L1012.27 2038.97 L1037.64 2038.60 L1062.89 2038.10 L1088.26 2037.61 L1113.50 2036.99 L1138.87 2036.37 L1164.24 2035.75 L1189.48 2035.01 L1214.85 2034.27 L1240.10 2033.40 L1265.47 2032.53 L1290.71 2031.42 L1316.08 2030.31 L1341.33 2029.07 L1366.69 2027.83 L1391.94 2026.35 L1417.31 2024.74 L1442.55 2022.88 L1467.92 2020.90 L1493.17 2018.67 L1518.54 2016.20 L1543.78 2013.48 L1569.15 2010.38 L1594.39 2007.04 L1619.76 2003.20 L1645.01 1999.00 L1670.38 1994.17 L1695.62 1988.85 L1720.99 1982.91 L1746.24 1976.23 L1771.61 1968.80 L1796.85 1960.39 L1822.22 1950.98 L1847.46 1940.46 L1872.83 1928.70 L1898.20 1915.59 L1923.45 1900.86 L1948.82 1884.40 L1974.06 1865.96 L1999.43 1845.29 L2024.67 1822.28 L2024.67 1781.07 L1999.43 1808.42 L1974.06 1832.79 L1948.82 1854.70 L1923.45 1874.25 L1898.20 1891.70 L1872.83 1907.17 L1847.46 1921.16 L1822.22 1933.65 L1796.85 1944.67 L1771.61 1954.69 L1746.24 1963.48 L1720.99 1971.40 L1695.62 1978.58 L1670.38 1984.89 L1645.01 1990.58 L1619.76 1995.65 L1594.39 2000.23 L1569.15 2004.19 L1543.78 2007.91 L1518.54 2011.12 L1493.17 2013.97 L1467.92 2016.57 L1442.55 2018.92 L1417.31 2021.02 L1391.94 2022.88 L1366.69 2024.49 L1341.33 2026.10 L1316.08 2027.46 L1290.71 2028.70 L1265.47 2029.93 L1240.10 2030.92 L1214.85 2031.91 L1189.48 2032.90 L1164.24 2033.77 L1138.87 2034.64 L1113.50 2035.38 L1088.26 2036.00 L1062.89 2036.74 L1037.64 2037.36 L1012.27 2037.85 L987.03 2038.35 L961.66 2038.84 L936.42 2039.22 L911.05 2039.59 L885.80 2039.83 L860.43 2040.21 L835.19 2040.45 L809.82 2040.58 L784.58 2040.83 L759.21 2040.95 L733.96 2041.07 L708.59 2041.20 L683.35 2041.32 L657.98 2041.44 L632.73 2041.57 L607.37 2041.69 L582.12 2041.69 L556.75 2041.82 L531.51 2041.82 L506.14 2041.94 L480.89 2041.94 L455.52 2041.94 L455.52 2042.19 Z" stroke-linejoin="round"/>
	</defs>
	<defs>
		<clipPath id="clipPath_iEPNnjdw">
			<use xlink:href="#path_HvoPJTgO"/>
		</clipPath>
	</defs>
	<use xlink:href="#path_HvoPJTgO" style="stroke:none;fill:#E6E6E6"/>
	<use xlink:href="#path_HvoPJTgO" style="fill:none;stroke:#E0E0E0;stroke-width:14.69" clip-path="url(#clipPath_iEPNnjdw)"/>
	<defs>
		<path id="path_NjSxNqQH" d="M455.52 2042.19 L455.52 2042.19 L480.89 2042.19 L506.14 2042.19 L531.51 2042.06 L556.75 2042.06 L582.12 2042.06 L607.37 2041.94 L632.73 2041.82 L657.98 2041.82 L683.35 2041.69 L708.59 2041.57 L733.96 2041.44 L759.21 2041.20 L784.58 2040.95 L809.82 2040.70 L835.19 2040.45 L860.43 2040.08 L885.80 2039.71 L911.05 2039.34 L936.42 2038.84 L961.66 2038.23 L987.03 2037.73 L1012.27 2036.99 L1037.64 2036.37 L1062.89 2035.63 L1088.26 2034.76 L1113.50 2033.89 L1138.87 2032.90 L1164.24 2031.79 L1189.48 2030.68 L1214.85 2029.44 L1240.10 2028.08 L1265.47 2026.59 L1290.71 2024.98 L1316.08 2023.13 L1341.33 2021.27 L1366.69 2019.04 L1391.94 2016.69 L1417.31 2014.09 L1442.55 2011.25 L1467.92 2008.03 L1493.17 2004.57 L1518.54 2000.61 L1543.78 1996.15 L1569.15 1991.32 L1594.39 1985.88 L1619.76 1979.69 L1645.01 1972.88 L1670.38 1965.34 L1695.62 1956.80 L1720.99 1947.14 L1746.24 1936.50 L1771.61 1924.50 L1796.85 1911.13 L1822.22 1896.16 L1847.46 1879.33 L1872.83 1860.39 L1898.20 1839.35 L1923.45 1815.72 L1948.82 1789.36 L1974.06 1759.78 L1999.43 1726.74 L2024.67 1689.86 L2024.67 1614.62 L1999.43 1659.42 L1974.06 1699.39 L1948.82 1735.15 L1923.45 1767.08 L1898.20 1795.67 L1872.83 1821.16 L1847.46 1843.93 L1822.22 1864.35 L1796.85 1882.54 L1771.61 1898.76 L1746.24 1913.36 L1720.99 1926.35 L1695.62 1937.86 L1670.38 1948.26 L1645.01 1957.54 L1619.76 1965.83 L1594.39 1973.26 L1569.15 1979.94 L1543.78 1985.88 L1518.54 1991.20 L1493.17 1995.90 L1467.92 2000.23 L1442.55 2003.95 L1417.31 2007.41 L1391.94 2010.38 L1366.69 2013.23 L1341.33 2015.70 L1316.08 2017.93 L1290.71 2020.03 L1265.47 2022.01 L1240.10 2023.75 L1214.85 2025.36 L1189.48 2026.96 L1164.24 2028.33 L1138.87 2029.69 L1113.50 2030.92 L1088.26 2032.04 L1062.89 2033.15 L1037.64 2034.14 L1012.27 2035.01 L987.03 2035.87 L961.66 2036.62 L936.42 2037.24 L911.05 2037.85 L885.80 2038.35 L860.43 2038.84 L835.19 2039.22 L809.82 2039.59 L784.58 2039.83 L759.21 2040.21 L733.96 2040.45 L708.59 2040.58 L683.35 2040.83 L657.98 2040.95 L632.73 2041.20 L607.37 2041.32 L582.12 2041.44 L556.75 2041.44 L531.51 2041.57 L506.14 2041.69 L480.89 2041.69 L455.52 2041.82 L455.52 2042.19 Z" stroke-linejoin="round"/>
	</defs>
	<defs>
		<clipPath id="clipPath_lnKiuwgz">
			<use xlink:href="#path_NjSxNqQH"/>
		</clipPath>
	</defs>
	<use xlink:href="#path_NjSxNqQH" style="stroke:none;fill:#E6E6E6"/>
	<use xlink:href="#path_NjSxNqQH" style="fill:none;stroke:#E0E0E0;stroke-width:14.69" clip-path="url(#clipPath_lnKiuwgz)"/>
	<defs>
		<path id="path_yXgGebfR" d="M455.52 2042.19 L455.52 2042.19 L480.89 2042.19 L506.14 2042.19 L531.51 2042.19 L556.75 2042.19 L582.12 2042.06 L607.37 2042.06 L632.73 2042.06 L657.98 2041.94 L683.35 2041.94 L708.59 2041.82 L733.96 2041.82 L759.21 2041.69 L784.58 2041.57 L809.82 2041.32 L835.19 2041.20 L860.43 2040.95 L885.80 2040.70 L911.05 2040.45 L936.42 2040.21 L961.66 2039.96 L987.03 2039.59 L1012.27 2039.22 L1037.64 2038.72 L1062.89 2038.35 L1088.26 2037.85 L1113.50 2037.24 L1138.87 2036.74 L1164.24 2036.12 L1189.48 2035.38 L1214.85 2034.64 L1240.10 2033.89 L1265.47 2033.03 L1290.71 2032.04 L1316.08 2030.92 L1341.33 2029.81 L1366.69 2028.57 L1391.94 2027.21 L1417.31 2025.60 L1442.55 2023.99 L1467.92 2022.14 L1493.17 2020.03 L1518.54 2017.68 L1543.78 2015.08 L1569.15 2012.24 L1594.39 2009.02 L1619.76 2005.43 L1645.01 2001.35 L1670.38 1996.89 L1695.62 1991.82 L1720.99 1986.25 L1746.24 1979.94 L1771.61 1972.88 L1796.85 1965.09 L1822.22 1956.18 L1847.46 1946.28 L1872.83 1935.26 L1898.20 1922.76 L1923.45 1908.90 L1948.82 1893.43 L1974.06 1875.98 L1999.43 1856.56 L2024.67 1834.77 L2024.67 1788.12 L1999.43 1814.73 L1974.06 1838.49 L1948.82 1859.77 L1923.45 1878.83 L1898.20 1895.79 L1872.83 1910.88 L1847.46 1924.50 L1822.22 1936.62 L1796.85 1947.39 L1771.61 1957.04 L1746.24 1965.71 L1720.99 1973.38 L1695.62 1980.31 L1670.38 1986.50 L1645.01 1992.07 L1619.76 1997.02 L1594.39 2001.35 L1569.15 2005.31 L1543.78 2008.90 L1518.54 2011.99 L1493.17 2014.84 L1467.92 2017.31 L1442.55 2019.54 L1417.31 2021.64 L1391.94 2023.38 L1366.69 2025.11 L1341.33 2026.59 L1316.08 2027.95 L1290.71 2029.19 L1265.47 2030.31 L1240.10 2031.30 L1214.85 2032.29 L1189.48 2033.15 L1164.24 2034.02 L1138.87 2034.88 L1113.50 2035.63 L1088.26 2036.25 L1062.89 2036.86 L1037.64 2037.48 L1012.27 2037.98 L987.03 2038.47 L961.66 2038.97 L936.42 2039.34 L911.05 2039.71 L885.80 2039.96 L860.43 2040.21 L835.19 2040.45 L809.82 2040.70 L784.58 2040.83 L759.21 2041.07 L733.96 2041.20 L708.59 2041.32 L683.35 2041.44 L657.98 2041.57 L632.73 2041.57 L607.37 2041.69 L582.12 2041.69 L556.75 2041.82 L531.51 2041.82 L506.14 2041.94 L480.89 2041.94 L455.52 2041.94 L455.52 2042.19 Z" stroke-linejoin="round"/>
	</defs>
	<defs>
		<clipPath id="clipPath_OcNKnioM">
			<use xlink:href="#path_yXgGebfR"/>
		</clipPath>
	</defs>
	<use xlink:href="#path_yXgGebfR" style="stroke:none;fill:#E6E6E6"/>
	<use xlink:href="#path_yXgGebfR" style="fill:none;stroke:#E0E0E0;stroke-width:14.69" clip-path="url(#clipPath_OcNKnioM)"/>
	<defs>
		<path id="path_xqkOzSDp" d="M455.52 2042.19 L455.52 2042.19 L480.89 2042.19 L506.14 2042.19 L531.51 2042.19 L556.75 2042.19 L582.12 2042.06 L607.37 2042.06 L632.73 2042.06 L657.98 2041.94 L683.35 2041.82 L708.59 2041.82 L733.96 2041.69 L759.21 2041.57 L784.58 2041.44 L809.82 2041.20 L835.19 2041.07 L860.43 2040.83 L885.80 2040.58 L911.05 2040.33 L936.42 2039.96 L961.66 2039.59 L987.03 2039.22 L1012.27 2038.84 L1037.64 2038.35 L1062.89 2037.85 L1088.26 2037.24 L1113.50 2036.74 L1138.87 2036.12 L1164.24 2035.38 L1189.48 2034.64 L1214.85 2033.77 L1240.10 2032.90 L1265.47 2031.91 L1290.71 2030.80 L1316.08 2029.69 L1341.33 2028.45 L1366.69 2026.96 L1391.94 2025.48 L1417.31 2023.75 L1442.55 2021.89 L1467.92 2019.91 L1493.17 2017.56 L1518.54 2014.96 L1543.78 2012.11 L1569.15 2008.90 L1594.39 2005.31 L1619.76 2001.35 L1645.01 1996.89 L1670.38 1991.94 L1695.62 1986.37 L1720.99 1980.06 L1746.24 1973.13 L1771.61 1965.34 L1796.85 1956.55 L1822.22 1946.77 L1847.46 1935.76 L1872.83 1923.51 L1898.20 1909.77 L1923.45 1894.30 L1948.82 1877.10 L1974.06 1857.79 L1999.43 1836.26 L2024.67 1812.13 L2024.67 1740.47 L1999.43 1772.16 L1974.06 1800.37 L1948.82 1825.62 L1923.45 1848.26 L1898.20 1868.31 L1872.83 1886.38 L1847.46 1902.47 L1822.22 1916.82 L1796.85 1929.69 L1771.61 1941.20 L1746.24 1951.47 L1720.99 1960.63 L1695.62 1968.80 L1670.38 1976.10 L1645.01 1982.66 L1619.76 1988.48 L1594.39 1993.67 L1569.15 1998.38 L1543.78 2002.59 L1518.54 2006.30 L1493.17 2009.64 L1467.92 2012.73 L1442.55 2015.33 L1417.31 2017.81 L1391.94 2019.91 L1366.69 2021.89 L1341.33 2023.62 L1316.08 2025.23 L1290.71 2026.72 L1265.47 2028.08 L1240.10 2029.32 L1214.85 2030.55 L1189.48 2031.54 L1164.24 2032.53 L1138.87 2033.52 L1113.50 2034.39 L1088.26 2035.26 L1062.89 2036.00 L1037.64 2036.62 L1012.27 2037.24 L987.03 2037.85 L961.66 2038.35 L936.42 2038.84 L911.05 2039.22 L885.80 2039.59 L860.43 2039.83 L835.19 2040.21 L809.82 2040.45 L784.58 2040.58 L759.21 2040.83 L733.96 2040.95 L708.59 2041.20 L683.35 2041.32 L657.98 2041.44 L632.73 2041.44 L607.37 2041.57 L582.12 2041.69 L556.75 2041.69 L531.51 2041.82 L506.14 2041.82 L480.89 2041.94 L455.52 2041.94 L455.52 2042.19 Z" stroke-linejoin="round"/>
	</defs>
	<defs>
		<clipPath id="clipPath_YvzzPoMf">
			<use xlink:href="#path_xqkOzSDp"/>
		</clipPath>
	</defs>
	<use xlink:href="#path_xqkOzSDp" style="stroke:none;fill:#E6E6E6"/>
	<use xlink:href="#path_xqkOzSDp" style="fill:none;stroke:#E0E0E0;stroke-width:14.69" clip-path="url(#clipPath_YvzzPoMf)"/>
	<path d=" M455.52 2042.06 L480.77 2042.06 L506.14 2042.06 L531.38 2041.94 L556.75 2041.94 L582.00 2041.82 L607.37 2041.82 L632.61 2041.69 L657.98 2041.57 L683.22 2041.44 L708.59 2041.20 L733.84 2041.07 L759.21 2040.83 L784.45 2040.58 L809.82 2040.33 L835.07 2039.96 L860.43 2039.59 L885.68 2039.22 L911.05 2038.72 L936.29 2038.10 L961.66 2037.61 L986.91 2036.86 L1012.27 2036.12 L1037.52 2035.38 L1062.89 2034.51 L1088.13 2033.65 L1113.50 2032.53 L1138.87 2031.42 L1164.12 2030.31 L1189.48 2029.07 L1214.73 2027.58 L1240.10 2026.10 L1265.34 2024.49 L1290.71 2022.76 L1315.96 2020.78 L1341.33 2018.67 L1366.57 2016.32 L1391.94 2013.85 L1417.18 2011.00 L1442.55 2007.91 L1467.80 2004.44 L1493.17 2000.48 L1518.41 1996.15 L1543.78 1991.32 L1569.03 1986.00 L1594.39 1979.94 L1619.64 1973.26 L1645.01 1965.71 L1670.25 1957.29 L1695.62 1947.89 L1720.87 1937.37 L1746.24 1925.49 L1771.48 1912.37 L1796.85 1897.64 L1822.10 1881.06 L1847.46 1862.50 L1872.71 1841.83 L1898.08 1818.69 L1923.45 1792.70 L1948.69 1763.62 L1974.06 1731.19 L1999.31 1694.81 L2024.67 1654.09" stroke-linejoin="round" style="fill:none;stroke:#FF0000;stroke-width:7.34"/>
	<path d=" M455.52 2042.19 L480.77 2042.19 L506.14 2042.19 L531.38 2042.19 L556.75 2042.06 L582.00 2042.06 L607.37 2041.94 L632.61 2041.94 L657.98 2041.82 L683.22 2041.82 L708.59 2041.69 L733.84 2041.57 L759.21 2041.44 L784.45 2041.32 L809.82 2041.07 L835.07 2040.95 L860.43 2040.70 L885.68 2040.45 L911.05 2040.21 L936.29 2039.83 L961.66 2039.46 L986.91 2039.09 L1012.27 2038.72 L1037.52 2038.23 L1062.89 2037.73 L1088.13 2037.11 L1113.50 2036.62 L1138.87 2035.87 L1164.12 2035.26 L1189.48 2034.51 L1214.73 2033.65 L1240.10 2032.78 L1265.34 2031.79 L1290.71 2030.68 L1315.96 2029.56 L1341.33 2028.33 L1366.57 2026.96 L1391.94 2025.48 L1417.18 2023.75 L1442.55 2022.01 L1467.80 2019.91 L1493.17 2017.56 L1518.41 2015.08 L1543.78 2012.24 L1569.03 2009.02 L1594.39 2005.43 L1619.64 2001.47 L1645.01 1997.02 L1670.25 1992.07 L1695.62 1986.50 L1720.87 1980.19 L1746.24 1973.26 L1771.48 1965.46 L1796.85 1956.67 L1822.10 1946.90 L1847.46 1936.01 L1872.71 1923.75 L1898.08 1910.02 L1923.45 1894.67 L1948.69 1877.47 L1974.06 1858.29 L1999.31 1836.75 L2024.67 1812.75" stroke-linejoin="round" style="fill:none;stroke:#008000;stroke-width:7.34"/>
	<path d=" M455.52 2042.19 L480.77 2042.19 L506.14 2042.19 L531.38 2042.06 L556.75 2042.06 L582.00 2042.06 L607.37 2041.94 L632.61 2041.94 L657.98 2041.82 L683.22 2041.69 L708.59 2041.57 L733.84 2041.44 L759.21 2041.32 L784.45 2041.20 L809.82 2040.95 L835.07 2040.70 L860.43 2040.45 L885.68 2040.21 L911.05 2039.83 L936.29 2039.46 L961.66 2039.09 L986.91 2038.60 L1012.27 2038.10 L1037.52 2037.61 L1062.89 2036.99 L1088.13 2036.37 L1113.50 2035.75 L1138.87 2035.01 L1164.12 2034.14 L1189.48 2033.28 L1214.73 2032.41 L1240.10 2031.30 L1265.34 2030.18 L1290.71 2029.07 L1315.96 2027.71 L1341.33 2026.22 L1366.57 2024.74 L1391.94 2023.00 L1417.18 2021.02 L1442.55 2018.92 L1467.80 2016.57 L1493.17 2013.97 L1518.41 2011.00 L1543.78 2007.78 L1569.03 2004.07 L1594.39 1999.99 L1619.64 1995.41 L1645.01 1990.33 L1670.25 1984.64 L1695.62 1978.21 L1720.87 1971.03 L1746.24 1963.11 L1771.48 1954.07 L1796.85 1944.05 L1822.10 1932.91 L1847.46 1920.29 L1872.71 1906.30 L1898.08 1890.46 L1923.45 1872.89 L1948.69 1853.21 L1974.06 1831.06 L1999.31 1806.44 L2024.67 1778.84" stroke-linejoin="round" style="fill:none;stroke:#FFD200;stroke-width:7.34"/>
	<path d=" M455.52 2042.19 L480.77 2042.19 L506.14 2042.19 L531.38 2042.06 L556.75 2042.06 L582.00 2042.06 L607.37 2041.94 L632.61 2041.94 L657.98 2041.82 L683.22 2041.82 L708.59 2041.69 L733.84 2041.57 L759.21 2041.44 L784.45 2041.20 L809.82 2041.07 L835.07 2040.83 L860.43 2040.70 L885.68 2040.33 L911.05 2040.08 L936.29 2039.71 L961.66 2039.34 L986.91 2038.97 L1012.27 2038.47 L1037.52 2038.10 L1062.89 2037.48 L1088.13 2036.99 L1113.50 2036.37 L1138.87 2035.63 L1164.12 2034.88 L1189.48 2034.14 L1214.73 2033.28 L1240.10 2032.29 L1265.34 2031.30 L1290.71 2030.18 L1315.96 2029.07 L1341.33 2027.71 L1366.57 2026.35 L1391.94 2024.74 L1417.18 2023.00 L1442.55 2021.02 L1467.80 2018.92 L1493.17 2016.57 L1518.41 2013.85 L1543.78 2010.88 L1569.03 2007.54 L1594.39 2003.82 L1619.64 1999.61 L1645.01 1995.04 L1670.25 1989.84 L1695.62 1984.02 L1720.87 1977.46 L1746.24 1970.16 L1771.48 1962.12 L1796.85 1952.96 L1822.10 1942.69 L1847.46 1931.30 L1872.71 1918.56 L1898.08 1904.20 L1923.45 1888.11 L1948.69 1870.17 L1974.06 1850.12 L1999.31 1827.72 L2024.67 1802.60" stroke-linejoin="round" style="fill:none;stroke:#1A476F;stroke-width:7.34"/>
	<line x1="455.52" y1="1995.04" x2="458.37" y2="1995.04" style="stroke:#000000;stroke-width:7.34"/>
	<line x1="478.54" y1="1995.04" x2="480.77" y2="1995.04" style="stroke:#000000;stroke-width:7.34"/>
	<line x1="480.77" y1="1995.04" x2="481.39" y2="1995.04" style="stroke:#000000;stroke-width:7.34"/>
	<line x1="501.56" y1="1995.04" x2="504.40" y2="1995.04" style="stroke:#000000;stroke-width:7.34"/>
	<line x1="524.58" y1="1995.04" x2="527.42" y2="1995.04" style="stroke:#000000;stroke-width:7.34"/>
	<line x1="547.59" y1="1995.04" x2="550.44" y2="1995.04" style="stroke:#000000;stroke-width:7.34"/>
	<line x1="570.61" y1="1995.04" x2="573.58" y2="1995.04" style="stroke:#000000;stroke-width:7.34"/>
	<line x1="593.75" y1="1995.04" x2="596.60" y2="1995.04" style="stroke:#000000;stroke-width:7.34"/>
	<line x1="616.77" y1="1995.04" x2="619.62" y2="1995.04" style="stroke:#000000;stroke-width:7.34"/>
	<line x1="639.79" y1="1995.04" x2="642.63" y2="1995.04" style="stroke:#000000;stroke-width:7.34"/>
	<line x1="662.80" y1="1995.04" x2="665.65" y2="1995.04" style="stroke:#000000;stroke-width:7.34"/>
	<line x1="685.82" y1="1995.04" x2="688.67" y2="1995.04" style="stroke:#000000;stroke-width:7.34"/>
	<line x1="708.84" y1="1995.04" x2="711.69" y2="1995.04" style="stroke:#000000;stroke-width:7.34"/>
	<line x1="731.86" y1="1995.04" x2="733.84" y2="1995.04" style="stroke:#000000;stroke-width:7.34"/>
	<line x1="733.84" y1="1995.04" x2="734.70" y2="1995.04" style="stroke:#000000;stroke-width:7.34"/>
	<line x1="754.88" y1="1995.04" x2="757.72" y2="1995.04" style="stroke:#000000;stroke-width:7.34"/>
	<line x1="777.89" y1="1995.04" x2="780.74" y2="1995.04" style="stroke:#000000;stroke-width:7.34"/>
	<line x1="800.91" y1="1995.04" x2="803.88" y2="1995.04" style="stroke:#000000;stroke-width:7.34"/>
	<line x1="823.93" y1="1995.04" x2="826.90" y2="1995.04" style="stroke:#000000;stroke-width:7.34"/>
	<line x1="847.07" y1="1995.04" x2="849.91" y2="1995.04" style="stroke:#000000;stroke-width:7.34"/>
	<line x1="870.09" y1="1995.04" x2="872.93" y2="1995.04" style="stroke:#000000;stroke-width:7.34"/>
	<line x1="893.10" y1="1995.04" x2="895.95" y2="1995.04" style="stroke:#000000;stroke-width:7.34"/>
	<line x1="916.12" y1="1995.04" x2="918.97" y2="1995.04" style="stroke:#000000;stroke-width:7.34"/>
	<line x1="939.14" y1="1995.04" x2="941.99" y2="1995.04" style="stroke:#000000;stroke-width:7.34"/>
	<line x1="962.16" y1="1995.04" x2="965.00" y2="1995.04" style="stroke:#000000;stroke-width:7.34"/>
	<line x1="985.17" y1="1995.04" x2="986.91" y2="1995.04" style="stroke:#000000;stroke-width:7.34"/>
	<line x1="986.91" y1="1995.04" x2="988.02" y2="1995.04" style="stroke:#000000;stroke-width:7.34"/>
	<line x1="1008.19" y1="1995.04" x2="1011.04" y2="1995.04" style="stroke:#000000;stroke-width:7.34"/>
	<line x1="1031.21" y1="1995.04" x2="1034.06" y2="1995.04" style="stroke:#000000;stroke-width:7.34"/>
	<line x1="1054.23" y1="1995.04" x2="1057.20" y2="1995.04" style="stroke:#000000;stroke-width:7.34"/>
	<line x1="1077.24" y1="1995.04" x2="1080.21" y2="1995.04" style="stroke:#000000;stroke-width:7.34"/>
	<line x1="1100.38" y1="1995.04" x2="1103.23" y2="1995.04" style="stroke:#000000;stroke-width:7.34"/>
	<line x1="1123.40" y1="1995.04" x2="1126.25" y2="1995.04" style="stroke:#000000;stroke-width:7.34"/>
	<line x1="1146.42" y1="1995.04" x2="1149.27" y2="1995.04" style="stroke:#000000;stroke-width:7.34"/>
	<line x1="1169.44" y1="1995.04" x2="1172.28" y2="1995.04" style="stroke:#000000;stroke-width:7.34"/>
	<line x1="1192.45" y1="1995.04" x2="1195.30" y2="1995.04" style="stroke:#000000;stroke-width:7.34"/>
	<line x1="1215.47" y1="1995.04" x2="1218.32" y2="1995.04" style="stroke:#000000;stroke-width:7.34"/>
	<line x1="1238.49" y1="1995.04" x2="1240.10" y2="1995.04" style="stroke:#000000;stroke-width:7.34"/>
	<line x1="1240.10" y1="1995.04" x2="1241.34" y2="1995.04" style="stroke:#000000;stroke-width:7.34"/>
	<line x1="1261.51" y1="1995.04" x2="1264.35" y2="1995.04" style="stroke:#000000;stroke-width:7.34"/>
	<line x1="1284.53" y1="1995.04" x2="1287.37" y2="1995.04" style="stroke:#000000;stroke-width:7.34"/>
	<line x1="1307.54" y1="1995.04" x2="1310.51" y2="1995.04" style="stroke:#000000;stroke-width:7.34"/>
	<line x1="1330.56" y1="1995.04" x2="1333.53" y2="1995.04" style="stroke:#000000;stroke-width:7.34"/>
	<line x1="1353.70" y1="1995.04" x2="1356.55" y2="1995.04" style="stroke:#000000;stroke-width:7.34"/>
	<line x1="1376.72" y1="1995.04" x2="1379.57" y2="1995.04" style="stroke:#000000;stroke-width:7.34"/>
	<line x1="1399.74" y1="1995.04" x2="1402.58" y2="1995.04" style="stroke:#000000;stroke-width:7.34"/>
	<line x1="1422.75" y1="1995.04" x2="1425.60" y2="1995.04" style="stroke:#000000;stroke-width:7.34"/>
	<line x1="1445.77" y1="1995.04" x2="1448.62" y2="1995.04" style="stroke:#000000;stroke-width:7.34"/>
	<line x1="1468.79" y1="1995.04" x2="1471.63" y2="1995.04" style="stroke:#000000;stroke-width:7.34"/>
	<line x1="1491.81" y1="1995.04" x2="1493.17" y2="1995.04" style="stroke:#000000;stroke-width:7.34"/>
	<line x1="1493.17" y1="1995.04" x2="1494.65" y2="1995.04" style="stroke:#000000;stroke-width:7.34"/>
	<line x1="1514.82" y1="1995.04" x2="1517.67" y2="1995.04" style="stroke:#000000;stroke-width:7.34"/>
	<line x1="1537.84" y1="1995.04" x2="1540.69" y2="1995.04" style="stroke:#000000;stroke-width:7.34"/>
	<line x1="1560.86" y1="1995.04" x2="1563.83" y2="1995.04" style="stroke:#000000;stroke-width:7.34"/>
	<line x1="1584.00" y1="1995.04" x2="1586.85" y2="1995.04" style="stroke:#000000;stroke-width:7.34"/>
	<line x1="1607.02" y1="1995.04" x2="1609.86" y2="1995.04" style="stroke:#000000;stroke-width:7.34"/>
	<line x1="1630.04" y1="1995.04" x2="1632.88" y2="1995.04" style="stroke:#000000;stroke-width:7.34"/>
	<line x1="1653.05" y1="1995.04" x2="1655.90" y2="1995.04" style="stroke:#000000;stroke-width:7.34"/>
	<line x1="1676.07" y1="1995.04" x2="1678.92" y2="1995.04" style="stroke:#000000;stroke-width:7.34"/>
	<line x1="1699.09" y1="1995.04" x2="1701.93" y2="1995.04" style="stroke:#000000;stroke-width:7.34"/>
	<line x1="1722.11" y1="1995.04" x2="1724.95" y2="1995.04" style="stroke:#000000;stroke-width:7.34"/>
	<line x1="1745.12" y1="1995.04" x2="1746.24" y2="1995.04" style="stroke:#000000;stroke-width:7.34"/>
	<line x1="1746.24" y1="1995.04" x2="1747.97" y2="1995.04" style="stroke:#000000;stroke-width:7.34"/>
	<line x1="1768.14" y1="1995.04" x2="1770.99" y2="1995.04" style="stroke:#000000;stroke-width:7.34"/>
	<line x1="1791.16" y1="1995.04" x2="1794.00" y2="1995.04" style="stroke:#000000;stroke-width:7.34"/>
	<line x1="1814.17" y1="1995.04" x2="1817.14" y2="1995.04" style="stroke:#000000;stroke-width:7.34"/>
	<line x1="1837.32" y1="1995.04" x2="1840.16" y2="1995.04" style="stroke:#000000;stroke-width:7.34"/>
	<line x1="1860.33" y1="1995.04" x2="1863.18" y2="1995.04" style="stroke:#000000;stroke-width:7.34"/>
	<line x1="1883.35" y1="1995.04" x2="1886.20" y2="1995.04" style="stroke:#000000;stroke-width:7.34"/>
	<line x1="1906.37" y1="1995.04" x2="1909.21" y2="1995.04" style="stroke:#000000;stroke-width:7.34"/>
	<line x1="1929.39" y1="1995.04" x2="1932.23" y2="1995.04" style="stroke:#000000;stroke-width:7.34"/>
	<line x1="1952.40" y1="1995.04" x2="1955.25" y2="1995.04" style="stroke:#000000;stroke-width:7.34"/>
	<line x1="1975.42" y1="1995.04" x2="1978.27" y2="1995.04" style="stroke:#000000;stroke-width:7.34"/>
	<line x1="1998.44" y1="1995.04" x2="1999.31" y2="1995.04" style="stroke:#000000;stroke-width:7.34"/>
	<line x1="1999.31" y1="1995.04" x2="2001.29" y2="1995.04" style="stroke:#000000;stroke-width:7.34"/>
	<line x1="2021.46" y1="1995.04" x2="2024.30" y2="1995.04" style="stroke:#000000;stroke-width:7.34"/>
	<path d="" stroke-linejoin="round" style="fill:none;stroke:#000000;stroke-width:7.34"/>
	<defs>
		<path id="path_VoavxUMY" d="M2201.51 2042.19 L2201.51 2042.19 L2226.88 2042.19 L2252.13 2042.19 L2277.49 2042.06 L2302.74 2042.06 L2328.11 2042.06 L2353.35 2041.94 L2378.72 2041.94 L2403.97 2041.82 L2429.34 2041.69 L2454.58 2041.57 L2479.95 2041.44 L2505.20 2041.32 L2530.56 2041.07 L2555.81 2040.95 L2581.18 2040.58 L2606.42 2040.33 L2631.79 2039.96 L2657.04 2039.59 L2682.41 2039.09 L2707.65 2038.60 L2733.02 2038.10 L2758.26 2037.48 L2783.63 2036.86 L2808.88 2036.25 L2834.25 2035.50 L2859.49 2034.64 L2884.86 2033.77 L2910.11 2032.78 L2935.47 2031.79 L2960.72 2030.68 L2986.09 2029.44 L3011.46 2028.08 L3036.70 2026.59 L3062.07 2024.98 L3087.32 2023.13 L3112.68 2021.27 L3137.93 2019.04 L3163.30 2016.69 L3188.54 2014.09 L3213.91 2011.25 L3239.16 2008.03 L3264.53 2004.44 L3289.77 2000.48 L3315.14 1996.03 L3340.38 1991.08 L3365.75 1985.63 L3391.00 1979.44 L3416.37 1972.51 L3441.61 1964.84 L3466.98 1956.18 L3492.22 1946.52 L3517.59 1935.63 L3542.84 1923.51 L3568.21 1909.89 L3593.45 1894.80 L3618.82 1877.72 L3644.07 1858.66 L3669.43 1837.37 L3694.68 1813.49 L3720.05 1786.76 L3745.42 1756.93 L3770.66 1723.64 L3770.66 1662.39 L3745.42 1702.23 L3720.05 1737.88 L3694.68 1769.68 L3669.43 1798.02 L3644.07 1823.39 L3618.82 1846.04 L3593.45 1866.33 L3568.21 1884.40 L3542.84 1900.61 L3517.59 1914.97 L3492.22 1927.96 L3466.98 1939.47 L3441.61 1949.74 L3416.37 1959.02 L3391.00 1967.19 L3365.75 1974.62 L3340.38 1981.18 L3315.14 1987.12 L3289.77 1992.31 L3264.53 1997.02 L3239.16 2001.22 L3213.91 2005.06 L3188.54 2008.40 L3163.30 2011.37 L3137.93 2014.09 L3112.68 2016.57 L3087.32 2018.67 L3062.07 2020.78 L3036.70 2022.63 L3011.46 2024.24 L2986.09 2025.85 L2960.72 2027.34 L2935.47 2028.70 L2910.11 2029.93 L2884.86 2031.17 L2859.49 2032.29 L2834.25 2033.28 L2808.88 2034.14 L2783.63 2035.01 L2758.26 2035.87 L2733.02 2036.62 L2707.65 2037.24 L2682.41 2037.85 L2657.04 2038.35 L2631.79 2038.84 L2606.42 2039.22 L2581.18 2039.59 L2555.81 2039.83 L2530.56 2040.21 L2505.20 2040.33 L2479.95 2040.58 L2454.58 2040.83 L2429.34 2040.95 L2403.97 2041.07 L2378.72 2041.20 L2353.35 2041.32 L2328.11 2041.44 L2302.74 2041.57 L2277.49 2041.69 L2252.13 2041.69 L2226.88 2041.82 L2201.51 2041.82 L2201.51 2042.19 Z" stroke-linejoin="round"/>
	</defs>
	<defs>
		<clipPath id="clipPath_kaqxHJEi">
			<use xlink:href="#path_VoavxUMY"/>
		</clipPath>
	</defs>
	<use xlink:href="#path_VoavxUMY" style="stroke:none;fill:#E6E6E6"/>
	<use xlink:href="#path_VoavxUMY" style="fill:none;stroke:#E0E0E0;stroke-width:14.69" clip-path="url(#clipPath_kaqxHJEi)"/>
	<defs>
		<path id="path_SjrzuDQz" d="M2201.51 2042.19 L2201.51 2042.19 L2226.88 2042.06 L2252.13 2042.06 L2277.49 2042.06 L2302.74 2041.94 L2328.11 2041.94 L2353.35 2041.82 L2378.72 2041.69 L2403.97 2041.57 L2429.34 2041.44 L2454.58 2041.20 L2479.95 2040.95 L2505.20 2040.70 L2530.56 2040.45 L2555.81 2040.08 L2581.18 2039.59 L2606.42 2039.09 L2631.79 2038.60 L2657.04 2037.98 L2682.41 2037.24 L2707.65 2036.49 L2733.02 2035.63 L2758.26 2034.64 L2783.63 2033.65 L2808.88 2032.53 L2834.25 2031.30 L2859.49 2030.06 L2884.86 2028.70 L2910.11 2027.09 L2935.47 2025.48 L2960.72 2023.62 L2986.09 2021.64 L3011.46 2019.54 L3036.70 2017.06 L3062.07 2014.59 L3087.32 2011.74 L3112.68 2008.65 L3137.93 2005.18 L3163.30 2001.35 L3188.54 1997.26 L3213.91 1992.56 L3239.16 1987.49 L3264.53 1981.79 L3289.77 1975.36 L3315.14 1968.31 L3340.38 1960.39 L3365.75 1951.47 L3391.00 1941.57 L3416.37 1930.56 L3441.61 1918.18 L3466.98 1904.32 L3492.22 1888.73 L3517.59 1871.41 L3542.84 1851.98 L3568.21 1830.20 L3593.45 1805.82 L3618.82 1778.59 L3644.07 1748.02 L3669.43 1713.87 L3694.68 1675.63 L3720.05 1632.81 L3745.42 1585.04 L3770.66 1531.58 L3770.66 1421.07 L3745.42 1486.16 L3720.05 1544.32 L3694.68 1596.30 L3669.43 1642.71 L3644.07 1684.29 L3618.82 1721.29 L3593.45 1754.46 L3568.21 1784.04 L3542.84 1810.40 L3517.59 1834.03 L3492.22 1855.19 L3466.98 1874.00 L3441.61 1890.84 L3416.37 1905.93 L3391.00 1919.42 L3365.75 1931.43 L3340.38 1942.19 L3315.14 1951.85 L3289.77 1960.51 L3264.53 1968.18 L3239.16 1975.11 L3213.91 1981.18 L3188.54 1986.74 L3163.30 1991.69 L3137.93 1996.15 L3112.68 2000.11 L3087.32 2003.70 L3062.07 2007.04 L3036.70 2010.01 L3011.46 2012.86 L2986.09 2015.46 L2960.72 2017.81 L2935.47 2020.03 L2910.11 2022.14 L2884.86 2023.99 L2859.49 2025.85 L2834.25 2027.46 L2808.88 2029.07 L2783.63 2030.43 L2758.26 2031.79 L2733.02 2032.90 L2707.65 2034.02 L2682.41 2035.01 L2657.04 2035.87 L2631.79 2036.62 L2606.42 2037.24 L2581.18 2037.85 L2555.81 2038.35 L2530.56 2038.84 L2505.20 2039.22 L2479.95 2039.59 L2454.58 2039.83 L2429.34 2040.21 L2403.97 2040.45 L2378.72 2040.58 L2353.35 2040.83 L2328.11 2040.95 L2302.74 2041.20 L2277.49 2041.32 L2252.13 2041.44 L2226.88 2041.44 L2201.51 2041.57 L2201.51 2042.19 Z" stroke-linejoin="round"/>
	</defs>
	<defs>
		<clipPath id="clipPath_lSrqoEea">
			<use xlink:href="#path_SjrzuDQz"/>
		</clipPath>
	</defs>
	<use xlink:href="#path_SjrzuDQz" style="stroke:none;fill:#E6E6E6"/>
	<use xlink:href="#path_SjrzuDQz" style="fill:none;stroke:#E0E0E0;stroke-width:14.69" clip-path="url(#clipPath_lSrqoEea)"/>
	<defs>
		<path id="path_tKRASfQD" d="M2201.51 2042.19 L2201.51 2042.19 L2226.88 2042.19 L2252.13 2042.19 L2277.49 2042.19 L2302.74 2042.06 L2328.11 2042.06 L2353.35 2041.94 L2378.72 2041.94 L2403.97 2041.82 L2429.34 2041.82 L2454.58 2041.69 L2479.95 2041.57 L2505.20 2041.32 L2530.56 2041.20 L2555.81 2040.95 L2581.18 2040.70 L2606.42 2040.45 L2631.79 2040.08 L2657.04 2039.71 L2682.41 2039.34 L2707.65 2038.84 L2733.02 2038.35 L2758.26 2037.73 L2783.63 2037.24 L2808.88 2036.49 L2834.25 2035.87 L2859.49 2035.01 L2884.86 2034.27 L2910.11 2033.28 L2935.47 2032.29 L2960.72 2031.30 L2986.09 2030.06 L3011.46 2028.82 L3036.70 2027.46 L3062.07 2025.85 L3087.32 2024.24 L3112.68 2022.39 L3137.93 2020.41 L3163.30 2018.18 L3188.54 2015.70 L3213.91 2012.98 L3239.16 2010.01 L3264.53 2006.67 L3289.77 2002.83 L3315.14 1998.75 L3340.38 1994.05 L3365.75 1988.85 L3391.00 1983.03 L3416.37 1976.47 L3441.61 1969.30 L3466.98 1961.13 L3492.22 1951.97 L3517.59 1941.82 L3542.84 1930.31 L3568.21 1917.57 L3593.45 1903.21 L3618.82 1887.25 L3644.07 1869.30 L3669.43 1849.13 L3694.68 1826.73 L3720.05 1801.61 L3745.42 1773.52 L3770.66 1742.08 L3770.66 1672.41 L3745.42 1711.14 L3720.05 1745.80 L3694.68 1776.73 L3669.43 1804.46 L3644.07 1829.21 L3618.82 1851.23 L3593.45 1871.03 L3568.21 1888.61 L3542.84 1904.32 L3517.59 1918.43 L3492.22 1930.93 L3466.98 1942.19 L3441.61 1952.22 L3416.37 1961.25 L3391.00 1969.30 L3365.75 1976.47 L3340.38 1982.78 L3315.14 1988.60 L3289.77 1993.67 L3264.53 1998.25 L3239.16 2002.34 L3213.91 2006.05 L3188.54 2009.39 L3163.30 2012.24 L3137.93 2014.96 L3112.68 2017.31 L3087.32 2019.42 L3062.07 2021.40 L3036.70 2023.25 L3011.46 2024.86 L2986.09 2026.35 L2960.72 2027.83 L2935.47 2029.07 L2910.11 2030.31 L2884.86 2031.54 L2859.49 2032.53 L2834.25 2033.52 L2808.88 2034.51 L2783.63 2035.26 L2758.26 2036.12 L2733.02 2036.74 L2707.65 2037.36 L2682.41 2037.98 L2657.04 2038.47 L2631.79 2038.97 L2606.42 2039.34 L2581.18 2039.71 L2555.81 2039.96 L2530.56 2040.21 L2505.20 2040.45 L2479.95 2040.70 L2454.58 2040.83 L2429.34 2041.07 L2403.97 2041.20 L2378.72 2041.32 L2353.35 2041.44 L2328.11 2041.57 L2302.74 2041.57 L2277.49 2041.69 L2252.13 2041.69 L2226.88 2041.82 L2201.51 2041.82 L2201.51 2042.19 Z" stroke-linejoin="round"/>
	</defs>
	<defs>
		<clipPath id="clipPath_qkrxvQZT">
			<use xlink:href="#path_tKRASfQD"/>
		</clipPath>
	</defs>
	<use xlink:href="#path_tKRASfQD" style="stroke:none;fill:#E6E6E6"/>
	<use xlink:href="#path_tKRASfQD" style="fill:none;stroke:#E0E0E0;stroke-width:14.69" clip-path="url(#clipPath_qkrxvQZT)"/>
	<defs>
		<path id="path_oksSTWEq" d="M2201.51 2042.19 L2201.51 2042.19 L2226.88 2042.19 L2252.13 2042.19 L2277.49 2042.06 L2302.74 2042.06 L2328.11 2042.06 L2353.35 2041.94 L2378.72 2041.94 L2403.97 2041.82 L2429.34 2041.69 L2454.58 2041.57 L2479.95 2041.44 L2505.20 2041.20 L2530.56 2041.07 L2555.81 2040.83 L2581.18 2040.45 L2606.42 2040.21 L2631.79 2039.83 L2657.04 2039.34 L2682.41 2038.97 L2707.65 2038.47 L2733.02 2037.85 L2758.26 2037.24 L2783.63 2036.62 L2808.88 2035.87 L2834.25 2035.01 L2859.49 2034.14 L2884.86 2033.28 L2910.11 2032.29 L2935.47 2031.17 L2960.72 2029.93 L2986.09 2028.70 L3011.46 2027.21 L3036.70 2025.73 L3062.07 2023.99 L3087.32 2022.14 L3112.68 2020.16 L3137.93 2017.93 L3163.30 2015.46 L3188.54 2012.73 L3213.91 2009.76 L3239.16 2006.42 L3264.53 2002.71 L3289.77 1998.50 L3315.14 1993.92 L3340.38 1988.72 L3365.75 1983.03 L3391.00 1976.47 L3416.37 1969.30 L3441.61 1961.25 L3466.98 1952.22 L3492.22 1942.07 L3517.59 1930.81 L3542.84 1918.06 L3568.21 1903.95 L3593.45 1887.99 L3618.82 1870.17 L3644.07 1850.37 L3669.43 1828.09 L3694.68 1803.09 L3720.05 1775.25 L3745.42 1744.06 L3770.66 1709.16 L3770.66 1603.23 L3745.42 1649.27 L3720.05 1690.48 L3694.68 1727.23 L3669.43 1760.03 L3644.07 1789.36 L3618.82 1815.59 L3593.45 1838.98 L3568.21 1859.90 L3542.84 1878.58 L3517.59 1895.29 L3492.22 1910.14 L3466.98 1923.51 L3441.61 1935.39 L3416.37 1946.03 L3391.00 1955.56 L3365.75 1964.10 L3340.38 1971.77 L3315.14 1978.58 L3289.77 1984.64 L3264.53 1990.09 L3239.16 1994.91 L3213.91 1999.24 L3188.54 2003.20 L3163.30 2006.67 L3137.93 2009.89 L3112.68 2012.61 L3087.32 2015.21 L3062.07 2017.56 L3036.70 2019.66 L3011.46 2021.64 L2986.09 2023.50 L2960.72 2025.23 L2935.47 2026.72 L2910.11 2028.20 L2884.86 2029.56 L2859.49 2030.80 L2834.25 2032.04 L2808.88 2033.03 L2783.63 2034.02 L2758.26 2035.01 L2733.02 2035.75 L2707.65 2036.62 L2682.41 2037.24 L2657.04 2037.85 L2631.79 2038.35 L2606.42 2038.84 L2581.18 2039.22 L2555.81 2039.59 L2530.56 2039.83 L2505.20 2040.21 L2479.95 2040.45 L2454.58 2040.58 L2429.34 2040.83 L2403.97 2040.95 L2378.72 2041.20 L2353.35 2041.32 L2328.11 2041.44 L2302.74 2041.44 L2277.49 2041.57 L2252.13 2041.69 L2226.88 2041.69 L2201.51 2041.82 L2201.51 2042.19 Z" stroke-linejoin="round"/>
	</defs>
	<defs>
		<clipPath id="clipPath_ZYqFtrnv">
			<use xlink:href="#path_oksSTWEq"/>
		</clipPath>
	</defs>
	<use xlink:href="#path_oksSTWEq" style="stroke:none;fill:#E6E6E6"/>
	<use xlink:href="#path_oksSTWEq" style="fill:none;stroke:#E0E0E0;stroke-width:14.69" clip-path="url(#clipPath_ZYqFtrnv)"/>
	<path d=" M2201.39 2042.06 L2226.76 2041.94 L2252.13 2041.94 L2277.37 2041.82 L2302.74 2041.69 L2327.99 2041.69 L2353.35 2041.57 L2378.60 2041.32 L2403.97 2041.20 L2429.21 2040.95 L2454.58 2040.70 L2479.83 2040.45 L2505.20 2040.21 L2530.44 2039.83 L2555.81 2039.34 L2581.05 2038.84 L2606.42 2038.35 L2631.67 2037.73 L2657.04 2037.11 L2682.28 2036.25 L2707.65 2035.38 L2732.89 2034.39 L2758.26 2033.40 L2783.51 2032.29 L2808.88 2031.05 L2834.12 2029.69 L2859.49 2028.20 L2884.74 2026.59 L2910.11 2024.86 L2935.35 2023.00 L2960.72 2021.02 L2986.09 2018.80 L3011.33 2016.45 L3036.70 2013.85 L3061.95 2011.12 L3087.32 2008.03 L3112.56 2004.69 L3137.93 2000.98 L3163.17 1996.89 L3188.54 1992.31 L3213.79 1987.24 L3239.16 1981.67 L3264.40 1975.36 L3289.77 1968.31 L3315.01 1960.51 L3340.38 1951.85 L3365.63 1942.07 L3391.00 1931.06 L3416.24 1918.93 L3441.61 1905.19 L3466.86 1889.97 L3492.22 1872.89 L3517.47 1853.71 L3542.84 1832.30 L3568.08 1808.29 L3593.45 1781.44 L3618.70 1751.36 L3644.07 1717.70 L3669.31 1680.08 L3694.68 1637.88 L3719.93 1590.86 L3745.29 1538.01 L3770.66 1479.11" stroke-linejoin="round" style="fill:none;stroke:#FF0000;stroke-width:7.34"/>
	<path d=" M2201.39 2042.19 L2226.76 2042.06 L2252.13 2042.06 L2277.37 2042.06 L2302.74 2041.94 L2327.99 2041.94 L2353.35 2041.82 L2378.60 2041.82 L2403.97 2041.69 L2429.21 2041.57 L2454.58 2041.44 L2479.83 2041.20 L2505.20 2041.07 L2530.44 2040.83 L2555.81 2040.58 L2581.05 2040.33 L2606.42 2039.96 L2631.67 2039.59 L2657.04 2039.22 L2682.28 2038.72 L2707.65 2038.23 L2732.89 2037.73 L2758.26 2036.99 L2783.51 2036.37 L2808.88 2035.63 L2834.12 2034.88 L2859.49 2034.02 L2884.74 2033.03 L2910.11 2032.04 L2935.35 2030.92 L2960.72 2029.69 L2986.09 2028.45 L3011.33 2026.96 L3036.70 2025.48 L3061.95 2023.87 L3087.32 2022.01 L3112.56 2020.03 L3137.93 2017.81 L3163.17 2015.46 L3188.54 2012.73 L3213.79 2009.76 L3239.16 2006.42 L3264.40 2002.71 L3289.77 1998.62 L3315.01 1993.92 L3340.38 1988.85 L3365.63 1983.03 L3391.00 1976.60 L3416.24 1969.30 L3441.61 1961.25 L3466.86 1952.22 L3492.22 1942.07 L3517.47 1930.81 L3542.84 1918.06 L3568.08 1903.95 L3593.45 1887.99 L3618.70 1870.29 L3644.07 1850.37 L3669.31 1828.09 L3694.68 1803.09 L3719.93 1775.25 L3745.29 1744.06 L3770.66 1709.04" stroke-linejoin="round" style="fill:none;stroke:#008000;stroke-width:7.34"/>
	<path d=" M2201.39 2042.19 L2226.76 2042.06 L2252.13 2042.06 L2277.37 2041.94 L2302.74 2041.94 L2327.99 2041.82 L2353.35 2041.82 L2378.60 2041.69 L2403.97 2041.57 L2429.21 2041.44 L2454.58 2041.32 L2479.83 2041.07 L2505.20 2040.83 L2530.44 2040.58 L2555.81 2040.33 L2581.05 2039.96 L2606.42 2039.59 L2631.67 2039.22 L2657.04 2038.72 L2682.28 2038.23 L2707.65 2037.61 L2732.89 2036.99 L2758.26 2036.25 L2783.51 2035.50 L2808.88 2034.64 L2834.12 2033.77 L2859.49 2032.78 L2884.74 2031.67 L2910.11 2030.43 L2935.35 2029.19 L2960.72 2027.83 L2986.09 2026.35 L3011.33 2024.74 L3036.70 2023.00 L3061.95 2021.15 L3087.32 2019.04 L3112.56 2016.69 L3137.93 2014.22 L3163.17 2011.50 L3188.54 2008.40 L3213.79 2004.94 L3239.16 2001.10 L3264.40 1996.89 L3289.77 1992.19 L3315.01 1986.87 L3340.38 1980.93 L3365.63 1974.25 L3391.00 1966.82 L3416.24 1958.53 L3441.61 1949.25 L3466.86 1938.85 L3492.22 1927.34 L3517.47 1914.35 L3542.84 1899.75 L3568.08 1883.53 L3593.45 1865.22 L3618.70 1844.80 L3644.07 1822.03 L3669.31 1796.41 L3694.68 1767.82 L3719.93 1735.77 L3745.29 1700.01 L3770.66 1659.91" stroke-linejoin="round" style="fill:none;stroke:#FFD200;stroke-width:7.34"/>
	<path d=" M2201.39 2042.19 L2226.76 2042.06 L2252.13 2042.06 L2277.37 2042.06 L2302.74 2041.94 L2327.99 2041.94 L2353.35 2041.82 L2378.60 2041.69 L2403.97 2041.57 L2429.21 2041.44 L2454.58 2041.32 L2479.83 2041.20 L2505.20 2040.95 L2530.44 2040.83 L2555.81 2040.45 L2581.05 2040.21 L2606.42 2039.83 L2631.67 2039.46 L2657.04 2039.09 L2682.28 2038.60 L2707.65 2038.10 L2732.89 2037.48 L2758.26 2036.86 L2783.51 2036.12 L2808.88 2035.38 L2834.12 2034.51 L2859.49 2033.65 L2884.74 2032.66 L2910.11 2031.54 L2935.35 2030.43 L2960.72 2029.19 L2986.09 2027.83 L3011.33 2026.35 L3036.70 2024.74 L3061.95 2023.00 L3087.32 2021.15 L3112.56 2019.04 L3137.93 2016.82 L3163.17 2014.22 L3188.54 2011.50 L3213.79 2008.40 L3239.16 2004.81 L3264.40 2000.98 L3289.77 1996.64 L3315.01 1991.82 L3340.38 1986.37 L3365.63 1980.43 L3391.00 1973.63 L3416.24 1966.08 L3441.61 1957.66 L3466.86 1948.26 L3492.22 1937.61 L3517.47 1925.86 L3542.84 1912.62 L3568.08 1897.77 L3593.45 1881.18 L3618.70 1862.62 L3644.07 1841.83 L3669.31 1818.56 L3694.68 1792.57 L3719.93 1763.49 L3745.29 1730.82 L3770.66 1694.44" stroke-linejoin="round" style="fill:none;stroke:#1A476F;stroke-width:7.34"/>
	<line x1="2201.39" y1="1973.63" x2="2204.24" y2="1973.63" style="stroke:#000000;stroke-width:7.34"/>
	<line x1="2224.41" y1="1973.63" x2="2226.76" y2="1973.63" style="stroke:#000000;stroke-width:7.34"/>
	<line x1="2226.76" y1="1973.63" x2="2227.25" y2="1973.63" style="stroke:#000000;stroke-width:7.34"/>
	<line x1="2247.42" y1="1973.63" x2="2250.27" y2="1973.63" style="stroke:#000000;stroke-width:7.34"/>
	<line x1="2270.44" y1="1973.63" x2="2273.29" y2="1973.63" style="stroke:#000000;stroke-width:7.34"/>
	<line x1="2293.46" y1="1973.63" x2="2296.43" y2="1973.63" style="stroke:#000000;stroke-width:7.34"/>
	<line x1="2316.60" y1="1973.63" x2="2319.45" y2="1973.63" style="stroke:#000000;stroke-width:7.34"/>
	<line x1="2339.62" y1="1973.63" x2="2342.46" y2="1973.63" style="stroke:#000000;stroke-width:7.34"/>
	<line x1="2362.64" y1="1973.63" x2="2365.48" y2="1973.63" style="stroke:#000000;stroke-width:7.34"/>
	<line x1="2385.65" y1="1973.63" x2="2388.50" y2="1973.63" style="stroke:#000000;stroke-width:7.34"/>
	<line x1="2408.67" y1="1973.63" x2="2411.52" y2="1973.63" style="stroke:#000000;stroke-width:7.34"/>
	<line x1="2431.69" y1="1973.63" x2="2434.53" y2="1973.63" style="stroke:#000000;stroke-width:7.34"/>
	<line x1="2454.70" y1="1973.63" x2="2457.55" y2="1973.63" style="stroke:#000000;stroke-width:7.34"/>
	<line x1="2477.72" y1="1973.63" x2="2479.83" y2="1973.63" style="stroke:#000000;stroke-width:7.34"/>
	<line x1="2479.83" y1="1973.63" x2="2480.57" y2="1973.63" style="stroke:#000000;stroke-width:7.34"/>
	<line x1="2500.74" y1="1973.63" x2="2503.59" y2="1973.63" style="stroke:#000000;stroke-width:7.34"/>
	<line x1="2523.76" y1="1973.63" x2="2526.60" y2="1973.63" style="stroke:#000000;stroke-width:7.34"/>
	<line x1="2546.78" y1="1973.63" x2="2549.74" y2="1973.63" style="stroke:#000000;stroke-width:7.34"/>
	<line x1="2569.92" y1="1973.63" x2="2572.76" y2="1973.63" style="stroke:#000000;stroke-width:7.34"/>
	<line x1="2592.93" y1="1973.63" x2="2595.78" y2="1973.63" style="stroke:#000000;stroke-width:7.34"/>
	<line x1="2615.95" y1="1973.63" x2="2618.80" y2="1973.63" style="stroke:#000000;stroke-width:7.34"/>
	<line x1="2638.97" y1="1973.63" x2="2641.82" y2="1973.63" style="stroke:#000000;stroke-width:7.34"/>
	<line x1="2661.99" y1="1973.63" x2="2664.83" y2="1973.63" style="stroke:#000000;stroke-width:7.34"/>
	<line x1="2685.00" y1="1973.63" x2="2687.85" y2="1973.63" style="stroke:#000000;stroke-width:7.34"/>
	<line x1="2708.02" y1="1973.63" x2="2710.87" y2="1973.63" style="stroke:#000000;stroke-width:7.34"/>
	<line x1="2731.04" y1="1973.63" x2="2732.89" y2="1973.63" style="stroke:#000000;stroke-width:7.34"/>
	<line x1="2732.89" y1="1973.63" x2="2733.89" y2="1973.63" style="stroke:#000000;stroke-width:7.34"/>
	<line x1="2754.06" y1="1973.63" x2="2756.90" y2="1973.63" style="stroke:#000000;stroke-width:7.34"/>
	<line x1="2777.07" y1="1973.63" x2="2779.92" y2="1973.63" style="stroke:#000000;stroke-width:7.34"/>
	<line x1="2800.09" y1="1973.63" x2="2803.06" y2="1973.63" style="stroke:#000000;stroke-width:7.34"/>
	<line x1="2823.23" y1="1973.63" x2="2826.08" y2="1973.63" style="stroke:#000000;stroke-width:7.34"/>
	<line x1="2846.25" y1="1973.63" x2="2849.10" y2="1973.63" style="stroke:#000000;stroke-width:7.34"/>
	<line x1="2869.27" y1="1973.63" x2="2872.11" y2="1973.63" style="stroke:#000000;stroke-width:7.34"/>
	<line x1="2892.28" y1="1973.63" x2="2895.13" y2="1973.63" style="stroke:#000000;stroke-width:7.34"/>
	<line x1="2915.30" y1="1973.63" x2="2918.15" y2="1973.63" style="stroke:#000000;stroke-width:7.34"/>
	<line x1="2938.32" y1="1973.63" x2="2941.17" y2="1973.63" style="stroke:#000000;stroke-width:7.34"/>
	<line x1="2961.34" y1="1973.63" x2="2964.18" y2="1973.63" style="stroke:#000000;stroke-width:7.34"/>
	<line x1="2984.36" y1="1973.63" x2="2986.09" y2="1973.63" style="stroke:#000000;stroke-width:7.34"/>
	<line x1="2986.09" y1="1973.63" x2="2987.20" y2="1973.63" style="stroke:#000000;stroke-width:7.34"/>
	<line x1="3007.37" y1="1973.63" x2="3010.22" y2="1973.63" style="stroke:#000000;stroke-width:7.34"/>
	<line x1="3030.39" y1="1973.63" x2="3033.36" y2="1973.63" style="stroke:#000000;stroke-width:7.34"/>
	<line x1="3053.41" y1="1973.63" x2="3056.38" y2="1973.63" style="stroke:#000000;stroke-width:7.34"/>
	<line x1="3076.55" y1="1973.63" x2="3079.39" y2="1973.63" style="stroke:#000000;stroke-width:7.34"/>
	<line x1="3099.57" y1="1973.63" x2="3102.41" y2="1973.63" style="stroke:#000000;stroke-width:7.34"/>
	<line x1="3122.58" y1="1973.63" x2="3125.43" y2="1973.63" style="stroke:#000000;stroke-width:7.34"/>
	<line x1="3145.60" y1="1973.63" x2="3148.45" y2="1973.63" style="stroke:#000000;stroke-width:7.34"/>
	<line x1="3168.62" y1="1973.63" x2="3171.47" y2="1973.63" style="stroke:#000000;stroke-width:7.34"/>
	<line x1="3191.64" y1="1973.63" x2="3194.48" y2="1973.63" style="stroke:#000000;stroke-width:7.34"/>
	<line x1="3214.65" y1="1973.63" x2="3217.50" y2="1973.63" style="stroke:#000000;stroke-width:7.34"/>
	<line x1="3237.67" y1="1973.63" x2="3239.16" y2="1973.63" style="stroke:#000000;stroke-width:7.34"/>
	<line x1="3239.16" y1="1973.63" x2="3240.52" y2="1973.63" style="stroke:#000000;stroke-width:7.34"/>
	<line x1="3260.69" y1="1973.63" x2="3263.53" y2="1973.63" style="stroke:#000000;stroke-width:7.34"/>
	<line x1="3283.71" y1="1973.63" x2="3286.68" y2="1973.63" style="stroke:#000000;stroke-width:7.34"/>
	<line x1="3306.72" y1="1973.63" x2="3309.69" y2="1973.63" style="stroke:#000000;stroke-width:7.34"/>
	<line x1="3329.86" y1="1973.63" x2="3332.71" y2="1973.63" style="stroke:#000000;stroke-width:7.34"/>
	<line x1="3352.88" y1="1973.63" x2="3355.73" y2="1973.63" style="stroke:#000000;stroke-width:7.34"/>
	<line x1="3375.90" y1="1973.63" x2="3378.75" y2="1973.63" style="stroke:#000000;stroke-width:7.34"/>
	<line x1="3398.92" y1="1973.63" x2="3401.76" y2="1973.63" style="stroke:#000000;stroke-width:7.34"/>
	<line x1="3421.93" y1="1973.63" x2="3424.78" y2="1973.63" style="stroke:#000000;stroke-width:7.34"/>
	<line x1="3444.95" y1="1973.63" x2="3447.80" y2="1973.63" style="stroke:#000000;stroke-width:7.34"/>
	<line x1="3467.97" y1="1973.63" x2="3470.82" y2="1973.63" style="stroke:#000000;stroke-width:7.34"/>
	<line x1="3490.99" y1="1973.63" x2="3492.22" y2="1973.63" style="stroke:#000000;stroke-width:7.34"/>
	<line x1="3492.22" y1="1973.63" x2="3493.83" y2="1973.63" style="stroke:#000000;stroke-width:7.34"/>
	<line x1="3514.01" y1="1973.63" x2="3516.85" y2="1973.63" style="stroke:#000000;stroke-width:7.34"/>
	<line x1="3537.02" y1="1973.63" x2="3539.99" y2="1973.63" style="stroke:#000000;stroke-width:7.34"/>
	<line x1="3560.04" y1="1973.63" x2="3563.01" y2="1973.63" style="stroke:#000000;stroke-width:7.34"/>
	<line x1="3583.18" y1="1973.63" x2="3586.03" y2="1973.63" style="stroke:#000000;stroke-width:7.34"/>
	<line x1="3606.20" y1="1973.63" x2="3609.05" y2="1973.63" style="stroke:#000000;stroke-width:7.34"/>
	<line x1="3629.22" y1="1973.63" x2="3632.06" y2="1973.63" style="stroke:#000000;stroke-width:7.34"/>
	<line x1="3652.23" y1="1973.63" x2="3655.08" y2="1973.63" style="stroke:#000000;stroke-width:7.34"/>
	<line x1="3675.25" y1="1973.63" x2="3678.10" y2="1973.63" style="stroke:#000000;stroke-width:7.34"/>
	<line x1="3698.27" y1="1973.63" x2="3701.11" y2="1973.63" style="stroke:#000000;stroke-width:7.34"/>
	<line x1="3721.29" y1="1973.63" x2="3724.13" y2="1973.63" style="stroke:#000000;stroke-width:7.34"/>
	<line x1="3744.30" y1="1973.63" x2="3745.29" y2="1973.63" style="stroke:#000000;stroke-width:7.34"/>
	<line x1="3745.29" y1="1973.63" x2="3747.15" y2="1973.63" style="stroke:#000000;stroke-width:7.34"/>
	<line x1="3767.32" y1="1973.63" x2="3770.17" y2="1973.63" style="stroke:#000000;stroke-width:7.34"/>
	<path d="" stroke-linejoin="round" style="fill:none;stroke:#000000;stroke-width:7.34"/>
	<line x1="401.69" y1="2096.14" x2="401.69" y2="258.27" style="stroke:#000000;stroke-width:4.90"/>
	<line x1="401.69" y1="2042.31" x2="367.66" y2="2042.31" style="stroke:#000000;stroke-width:4.90"/>
	<text x="350.71" y="2072.10" style="font-family:'Helvetica';font-size:85.02px;fill:#000000" text-anchor="end">0</text>
	<line x1="401.69" y1="1795.05" x2="367.66" y2="1795.05" style="stroke:#000000;stroke-width:4.90"/>
	<text x="350.71" y="1824.84" style="font-family:'Helvetica';font-size:85.02px;fill:#000000" text-anchor="end">.001</text>
	<line x1="401.69" y1="1547.91" x2="367.66" y2="1547.91" style="stroke:#000000;stroke-width:4.90"/>
	<text x="350.71" y="1577.70" style="font-family:'Helvetica';font-size:85.02px;fill:#000000" text-anchor="end">.002</text>
	<line x1="401.69" y1="1300.78" x2="367.66" y2="1300.78" style="stroke:#000000;stroke-width:4.90"/>
	<text x="350.71" y="1330.56" style="font-family:'Helvetica';font-size:85.02px;fill:#000000" text-anchor="end">.003</text>
	<line x1="401.69" y1="1053.64" x2="367.66" y2="1053.64" style="stroke:#000000;stroke-width:4.90"/>
	<text x="350.71" y="1083.43" style="font-family:'Helvetica';font-size:85.02px;fill:#000000" text-anchor="end">.004</text>
	<line x1="401.69" y1="806.38" x2="367.66" y2="806.38" style="stroke:#000000;stroke-width:4.90"/>
	<text x="350.71" y="836.17" style="font-family:'Helvetica';font-size:85.02px;fill:#000000" text-anchor="end">.005</text>
	<line x1="401.69" y1="559.24" x2="367.66" y2="559.24" style="stroke:#000000;stroke-width:4.90"/>
	<text x="350.71" y="589.03" style="font-family:'Helvetica';font-size:85.02px;fill:#000000" text-anchor="end">.006</text>
	<line x1="401.69" y1="312.11" x2="367.66" y2="312.11" style="stroke:#000000;stroke-width:4.90"/>
	<text x="350.71" y="341.89" style="font-family:'Helvetica';font-size:85.02px;fill:#000000" text-anchor="end">.007</text>
	<line x1="401.69" y1="2096.14" x2="2078.51" y2="2096.14" style="stroke:#000000;stroke-width:4.90"/>
	<line x1="506.14" y1="2096.14" x2="506.14" y2="2113.10" style="stroke:#000000;stroke-width:4.90"/>
	<line x1="632.73" y1="2096.14" x2="632.73" y2="2113.10" style="stroke:#000000;stroke-width:4.90"/>
	<line x1="759.21" y1="2096.14" x2="759.21" y2="2113.10" style="stroke:#000000;stroke-width:4.90"/>
	<line x1="885.80" y1="2096.14" x2="885.80" y2="2113.10" style="stroke:#000000;stroke-width:4.90"/>
	<line x1="1012.27" y1="2096.14" x2="1012.27" y2="2113.10" style="stroke:#000000;stroke-width:4.90"/>
	<line x1="1138.87" y1="2096.14" x2="1138.87" y2="2113.10" style="stroke:#000000;stroke-width:4.90"/>
	<line x1="1265.47" y1="2096.14" x2="1265.47" y2="2113.10" style="stroke:#000000;stroke-width:4.90"/>
	<line x1="1391.94" y1="2096.14" x2="1391.94" y2="2113.10" style="stroke:#000000;stroke-width:4.90"/>
	<line x1="1518.54" y1="2096.14" x2="1518.54" y2="2113.10" style="stroke:#000000;stroke-width:4.90"/>
	<line x1="1645.01" y1="2096.14" x2="1645.01" y2="2113.10" style="stroke:#000000;stroke-width:4.90"/>
	<line x1="1771.61" y1="2096.14" x2="1771.61" y2="2113.10" style="stroke:#000000;stroke-width:4.90"/>
	<line x1="1898.20" y1="2096.14" x2="1898.20" y2="2113.10" style="stroke:#000000;stroke-width:4.90"/>
	<line x1="2024.67" y1="2096.14" x2="2024.67" y2="2113.10" style="stroke:#000000;stroke-width:4.90"/>
	<line x1="506.14" y1="2096.14" x2="506.14" y2="2130.18" style="stroke:#000000;stroke-width:4.90"/>
	<text x="506.14" y="2206.58" style="font-family:'Helvetica';font-size:85.02px;fill:#000000" text-anchor="middle">20</text>
	<line x1="1012.27" y1="2096.14" x2="1012.27" y2="2130.18" style="stroke:#000000;stroke-width:4.90"/>
	<text x="1012.27" y="2206.58" style="font-family:'Helvetica';font-size:85.02px;fill:#000000" text-anchor="middle">40</text>
	<line x1="1518.54" y1="2096.14" x2="1518.54" y2="2130.18" style="stroke:#000000;stroke-width:4.90"/>
	<text x="1518.54" y="2206.58" style="font-family:'Helvetica';font-size:85.02px;fill:#000000" text-anchor="middle">60</text>
	<line x1="2024.67" y1="2096.14" x2="2024.67" y2="2130.18" style="stroke:#000000;stroke-width:4.90"/>
	<text x="2024.67" y="2206.58" style="font-family:'Helvetica';font-size:85.02px;fill:#000000" text-anchor="middle">80</text>
	<line x1="2147.68" y1="2096.14" x2="3824.49" y2="2096.14" style="stroke:#000000;stroke-width:4.90"/>
	<line x1="2252.13" y1="2096.14" x2="2252.13" y2="2113.10" style="stroke:#000000;stroke-width:4.90"/>
	<line x1="2378.72" y1="2096.14" x2="2378.72" y2="2113.10" style="stroke:#000000;stroke-width:4.90"/>
	<line x1="2505.20" y1="2096.14" x2="2505.20" y2="2113.10" style="stroke:#000000;stroke-width:4.90"/>
	<line x1="2631.79" y1="2096.14" x2="2631.79" y2="2113.10" style="stroke:#000000;stroke-width:4.90"/>
	<line x1="2758.26" y1="2096.14" x2="2758.26" y2="2113.10" style="stroke:#000000;stroke-width:4.90"/>
	<line x1="2884.86" y1="2096.14" x2="2884.86" y2="2113.10" style="stroke:#000000;stroke-width:4.90"/>
	<line x1="3011.46" y1="2096.14" x2="3011.46" y2="2113.10" style="stroke:#000000;stroke-width:4.90"/>
	<line x1="3137.93" y1="2096.14" x2="3137.93" y2="2113.10" style="stroke:#000000;stroke-width:4.90"/>
	<line x1="3264.53" y1="2096.14" x2="3264.53" y2="2113.10" style="stroke:#000000;stroke-width:4.90"/>
	<line x1="3391.00" y1="2096.14" x2="3391.00" y2="2113.10" style="stroke:#000000;stroke-width:4.90"/>
	<line x1="3517.59" y1="2096.14" x2="3517.59" y2="2113.10" style="stroke:#000000;stroke-width:4.90"/>
	<line x1="3644.07" y1="2096.14" x2="3644.07" y2="2113.10" style="stroke:#000000;stroke-width:4.90"/>
	<line x1="3770.66" y1="2096.14" x2="3770.66" y2="2113.10" style="stroke:#000000;stroke-width:4.90"/>
	<line x1="2252.13" y1="2096.14" x2="2252.13" y2="2130.18" style="stroke:#000000;stroke-width:4.90"/>
	<text x="2252.13" y="2206.58" style="font-family:'Helvetica';font-size:85.02px;fill:#000000" text-anchor="middle">20</text>
	<line x1="2758.26" y1="2096.14" x2="2758.26" y2="2130.18" style="stroke:#000000;stroke-width:4.90"/>
	<text x="2758.26" y="2206.58" style="font-family:'Helvetica';font-size:85.02px;fill:#000000" text-anchor="middle">40</text>
	<line x1="3264.53" y1="2096.14" x2="3264.53" y2="2130.18" style="stroke:#000000;stroke-width:4.90"/>
	<text x="3264.53" y="2206.58" style="font-family:'Helvetica';font-size:85.02px;fill:#000000" text-anchor="middle">60</text>
	<line x1="3770.66" y1="2096.14" x2="3770.66" y2="2130.18" style="stroke:#000000;stroke-width:4.90"/>
	<text x="3770.66" y="2206.58" style="font-family:'Helvetica';font-size:85.02px;fill:#000000" text-anchor="middle">80</text>
	<rect x="401.69" y="135.39" width="1676.81" height="122.89" style="fill:#D9E6EB"/>
	<rect x="404.14" y="137.83" width="1671.92" height="117.99" style="fill:none;stroke:#D9E6EB;stroke-width:4.90"/>
	<text x="1240.10" y="215.42" style="font-family:'Helvetica';font-size:93.56px;fill:#000000" text-anchor="middle">Female</text>
	<rect x="2147.68" y="135.39" width="1676.81" height="122.89" style="fill:#D9E6EB"/>
	<rect x="2150.13" y="137.83" width="1671.92" height="117.99" style="fill:none;stroke:#D9E6EB;stroke-width:4.90"/>
	<text x="2986.09" y="215.42" style="font-family:'Helvetica';font-size:93.56px;fill:#000000" text-anchor="middle">Male</text>
	<rect x="596.72" y="2418.27" width="2766.43" height="326.34" style="fill:#FFFFFF"/>
	<rect x="599.60" y="2421.15" width="2760.67" height="320.58" style="fill:none;stroke:#000000;stroke-width:5.76"/>
	<line x1="639.91" y1="2511.46" x2="1014.38" y2="2511.46" style="stroke:#FF0000;stroke-width:8.64"/>
	<line x1="2133.08" y1="2511.46" x2="2507.42" y2="2511.46" style="stroke:#008000;stroke-width:8.64"/>
	<line x1="639.91" y1="2651.43" x2="1014.38" y2="2651.43" style="stroke:#FFD200;stroke-width:8.64"/>
	<line x1="2133.08" y1="2651.43" x2="2507.42" y2="2651.43" style="stroke:#1A476F;stroke-width:8.64"/>
	<text x="1074.40" y="2546.49" style="font-family:'Helvetica';font-size:99.99px;fill:#000000">Respiratory disease</text>
	<text x="2567.44" y="2546.49" style="font-family:'Helvetica';font-size:99.99px;fill:#000000">Asthma, mild</text>
	<text x="1074.40" y="2686.46" style="font-family:'Helvetica';font-size:99.99px;fill:#000000">Asthma, severe</text>
	<text x="2567.44" y="2686.46" style="font-family:'Helvetica';font-size:99.99px;fill:#000000">No comborbidity</text>
	<text x="1980.00" y="2353.56" style="font-family:'Helvetica';font-size:99.99px;fill:#000000" text-anchor="middle">Age (years)</text>
</svg>
