<?xml version="1.0" encoding="UTF-8" standalone="no"?>
<!-- This is a Stata 16.1 generated SVG file (http://www.stata.com) -->

<svg version="1.1" width="1600px" height="1164px" viewBox="0 0 3960 2880" xmlns="http://www.w3.org/2000/svg" xmlns:xlink="http://www.w3.org/1999/xlink">
	<desc>Stata Graph - Graph</desc>
	<rect x="0" y="0" width="3960" height="2880" style="fill:#EAF2F3;stroke:none"/>
	<rect x="0.00" y="0.00" width="3959.88" height="2880.00" style="fill:#EAF2F3"/>
	<rect x="2.88" y="2.88" width="3954.12" height="2874.24" style="fill:none;stroke:#EAF2F3;stroke-width:5.76"/>
	<rect x="401.69" y="402.82" width="1676.81" height="1693.32" style="fill:#FFFFFF"/>
	<rect x="404.14" y="405.27" width="1671.92" height="1688.43" style="fill:none;stroke:#FFFFFF;stroke-width:4.90"/>
	<line x1="401.69" y1="2042.31" x2="2078.51" y2="2042.31" style="stroke:#EAF2F3;stroke-width:7.34"/>
	<line x1="401.69" y1="1785.40" x2="2078.51" y2="1785.40" style="stroke:#EAF2F3;stroke-width:7.34"/>
	<line x1="401.69" y1="1528.61" x2="2078.51" y2="1528.61" style="stroke:#EAF2F3;stroke-width:7.34"/>
	<line x1="401.69" y1="1271.82" x2="2078.51" y2="1271.82" style="stroke:#EAF2F3;stroke-width:7.34"/>
	<line x1="401.69" y1="1015.03" x2="2078.51" y2="1015.03" style="stroke:#EAF2F3;stroke-width:7.34"/>
	<line x1="401.69" y1="758.12" x2="2078.51" y2="758.12" style="stroke:#EAF2F3;stroke-width:7.34"/>
	<rect x="2147.68" y="402.82" width="1676.81" height="1693.32" style="fill:#FFFFFF"/>
	<rect x="2150.13" y="405.27" width="1671.92" height="1688.43" style="fill:none;stroke:#FFFFFF;stroke-width:4.90"/>
	<line x1="2147.68" y1="2042.31" x2="3824.49" y2="2042.31" style="stroke:#EAF2F3;stroke-width:7.34"/>
	<line x1="2147.68" y1="1785.40" x2="3824.49" y2="1785.40" style="stroke:#EAF2F3;stroke-width:7.34"/>
	<line x1="2147.68" y1="1528.61" x2="3824.49" y2="1528.61" style="stroke:#EAF2F3;stroke-width:7.34"/>
	<line x1="2147.68" y1="1271.82" x2="3824.49" y2="1271.82" style="stroke:#EAF2F3;stroke-width:7.34"/>
	<line x1="2147.68" y1="1015.03" x2="3824.49" y2="1015.03" style="stroke:#EAF2F3;stroke-width:7.34"/>
	<line x1="2147.68" y1="758.12" x2="3824.49" y2="758.12" style="stroke:#EAF2F3;stroke-width:7.34"/>
	<defs>
		<path id="path_QRzzdeBV" d="M455.52 2042.19 L455.52 2042.19 L480.89 2042.19 L506.14 2042.19 L531.51 2042.19 L556.75 2042.06 L582.12 2042.06 L607.37 2042.06 L632.73 2041.94 L657.98 2041.94 L683.35 2041.82 L708.59 2041.69 L733.96 2041.57 L759.21 2041.44 L784.58 2041.32 L809.82 2041.07 L835.19 2040.83 L860.43 2040.58 L885.80 2040.33 L911.05 2039.96 L936.42 2039.59 L961.66 2039.22 L987.03 2038.84 L1012.27 2038.35 L1037.64 2037.85 L1062.89 2037.24 L1088.26 2036.74 L1113.50 2036.12 L1138.87 2035.50 L1164.24 2034.76 L1189.48 2034.02 L1214.85 2033.15 L1240.10 2032.41 L1265.47 2031.42 L1290.71 2030.43 L1316.08 2029.44 L1341.33 2028.33 L1366.69 2027.09 L1391.94 2025.73 L1417.31 2024.24 L1442.55 2022.63 L1467.92 2020.78 L1493.17 2018.80 L1518.54 2016.57 L1543.78 2014.09 L1569.15 2011.37 L1594.39 2008.28 L1619.76 2004.81 L1645.01 2000.98 L1670.38 1996.64 L1695.62 1991.94 L1720.99 1986.50 L1746.24 1980.56 L1771.61 1973.87 L1796.85 1966.45 L1822.22 1958.03 L1847.46 1948.75 L1872.83 1938.23 L1898.20 1926.60 L1923.45 1913.48 L1948.82 1898.88 L1974.06 1882.67 L1999.43 1864.48 L2024.67 1844.18 L2024.67 1749.26 L1999.43 1779.33 L1974.06 1806.19 L1948.82 1830.32 L1923.45 1851.85 L1898.20 1871.16 L1872.83 1888.36 L1847.46 1903.83 L1822.22 1917.69 L1796.85 1929.94 L1771.61 1941.08 L1746.24 1950.98 L1720.99 1959.77 L1695.62 1967.69 L1670.38 1974.86 L1645.01 1981.18 L1619.76 1986.87 L1594.39 1991.94 L1569.15 1996.52 L1543.78 2000.61 L1518.54 2004.32 L1493.17 2007.54 L1467.92 2010.51 L1442.55 2013.10 L1417.31 2015.46 L1391.94 2017.68 L1366.69 2019.66 L1341.33 2021.40 L1316.08 2023.00 L1290.71 2024.49 L1265.47 2025.85 L1240.10 2027.21 L1214.85 2028.45 L1189.48 2029.56 L1164.24 2030.68 L1138.87 2031.67 L1113.50 2032.66 L1088.26 2033.65 L1062.89 2034.51 L1037.64 2035.26 L1012.27 2036.00 L987.03 2036.74 L961.66 2037.36 L936.42 2037.98 L911.05 2038.47 L885.80 2038.97 L860.43 2039.34 L835.19 2039.71 L809.82 2039.96 L784.58 2040.33 L759.21 2040.58 L733.96 2040.70 L708.59 2040.95 L683.35 2041.07 L657.98 2041.20 L632.73 2041.32 L607.37 2041.44 L582.12 2041.57 L556.75 2041.69 L531.51 2041.69 L506.14 2041.82 L480.89 2041.82 L455.52 2041.94 L455.52 2042.19 Z" stroke-linejoin="round"/>
	</defs>
	<defs>
		<clipPath id="clipPath_IjzQlNRX">
			<use xlink:href="#path_QRzzdeBV"/>
		</clipPath>
	</defs>
	<use xlink:href="#path_QRzzdeBV" style="stroke:none;fill:#E6E6E6"/>
	<use xlink:href="#path_QRzzdeBV" style="fill:none;stroke:#E0E0E0;stroke-width:14.69" clip-path="url(#clipPath_IjzQlNRX)"/>
	<defs>
		<path id="path_NryYnkdu" d="M455.52 2042.19 L455.52 2042.19 L480.89 2042.06 L506.14 2042.06 L531.51 2041.94 L556.75 2041.94 L582.12 2041.82 L607.37 2041.82 L632.73 2041.69 L657.98 2041.44 L683.35 2041.32 L708.59 2041.07 L733.96 2040.83 L759.21 2040.58 L784.58 2040.21 L809.82 2039.83 L835.19 2039.34 L860.43 2038.72 L885.80 2038.10 L911.05 2037.48 L936.42 2036.62 L961.66 2035.87 L987.03 2034.88 L1012.27 2033.89 L1037.64 2032.90 L1062.89 2031.67 L1088.26 2030.55 L1113.50 2029.19 L1138.87 2027.83 L1164.24 2026.35 L1189.48 2024.86 L1214.85 2023.13 L1240.10 2021.40 L1265.47 2019.42 L1290.71 2017.31 L1316.08 2015.08 L1341.33 2012.73 L1366.69 2010.13 L1391.94 2007.16 L1417.31 2004.07 L1442.55 2000.61 L1467.92 1996.77 L1493.17 1992.56 L1518.54 1987.73 L1543.78 1982.54 L1569.15 1976.60 L1594.39 1970.04 L1619.76 1962.74 L1645.01 1954.57 L1670.38 1945.41 L1695.62 1935.26 L1720.99 1923.88 L1746.24 1911.13 L1771.61 1896.90 L1796.85 1881.06 L1822.22 1863.24 L1847.46 1843.31 L1872.83 1821.16 L1898.20 1796.29 L1923.45 1768.44 L1948.82 1737.38 L1974.06 1702.73 L1999.43 1663.99 L2024.67 1620.80 L2024.67 1422.67 L1999.43 1486.04 L1974.06 1542.84 L1948.82 1593.70 L1923.45 1639.24 L1898.20 1679.96 L1872.83 1716.47 L1847.46 1749.01 L1822.22 1778.22 L1796.85 1804.46 L1771.61 1827.84 L1746.24 1848.76 L1720.99 1867.45 L1695.62 1884.28 L1670.38 1899.25 L1645.01 1912.62 L1619.76 1924.74 L1594.39 1935.51 L1569.15 1945.16 L1543.78 1953.83 L1518.54 1961.62 L1493.17 1968.55 L1467.92 1974.74 L1442.55 1980.31 L1417.31 1985.38 L1391.94 1989.96 L1366.69 1994.05 L1341.33 1997.76 L1316.08 2001.22 L1290.71 2004.44 L1265.47 2007.41 L1240.10 2010.13 L1214.85 2012.73 L1189.48 2015.21 L1164.24 2017.56 L1138.87 2019.79 L1113.50 2021.89 L1088.26 2023.75 L1062.89 2025.60 L1037.64 2027.34 L1012.27 2028.94 L987.03 2030.43 L961.66 2031.79 L936.42 2033.03 L911.05 2034.14 L885.80 2035.13 L860.43 2036.00 L835.19 2036.74 L809.82 2037.48 L784.58 2037.98 L759.21 2038.60 L733.96 2038.97 L708.59 2039.46 L683.35 2039.71 L657.98 2040.08 L632.73 2040.33 L607.37 2040.58 L582.12 2040.83 L556.75 2040.95 L531.51 2041.07 L506.14 2041.32 L480.89 2041.44 L455.52 2041.57 L455.52 2042.19 Z" stroke-linejoin="round"/>
	</defs>
	<defs>
		<clipPath id="clipPath_gNliGBYf">
			<use xlink:href="#path_NryYnkdu"/>
		</clipPath>
	</defs>
	<use xlink:href="#path_NryYnkdu" style="stroke:none;fill:#E6E6E6"/>
	<use xlink:href="#path_NryYnkdu" style="fill:none;stroke:#E0E0E0;stroke-width:14.69" clip-path="url(#clipPath_gNliGBYf)"/>
	<defs>
		<path id="path_qwsvLBKi" d="M455.52 2042.06 L455.52 2042.06 L480.89 2041.94 L506.14 2041.94 L531.51 2041.82 L556.75 2041.69 L582.12 2041.57 L607.37 2041.44 L632.73 2041.20 L657.98 2040.95 L683.35 2040.58 L708.59 2040.21 L733.96 2039.83 L759.21 2039.22 L784.58 2038.60 L809.82 2037.85 L835.19 2037.11 L860.43 2036.12 L885.80 2035.01 L911.05 2033.77 L936.42 2032.53 L961.66 2031.05 L987.03 2029.44 L1012.27 2027.71 L1037.64 2025.85 L1062.89 2023.87 L1088.26 2021.77 L1113.50 2019.54 L1138.87 2017.06 L1164.24 2014.59 L1189.48 2011.87 L1214.85 2008.90 L1240.10 2005.80 L1265.47 2002.34 L1290.71 1998.75 L1316.08 1994.91 L1341.33 1990.70 L1366.69 1986.13 L1391.94 1981.05 L1417.31 1975.61 L1442.55 1969.54 L1467.92 1962.86 L1493.17 1955.43 L1518.54 1947.14 L1543.78 1937.99 L1569.15 1927.71 L1594.39 1916.20 L1619.76 1903.46 L1645.01 1889.10 L1670.38 1873.26 L1695.62 1855.44 L1720.99 1835.52 L1746.24 1813.24 L1771.61 1788.37 L1796.85 1760.65 L1822.22 1729.58 L1847.46 1694.81 L1872.83 1655.95 L1898.20 1612.39 L1923.45 1563.88 L1948.82 1509.55 L1974.06 1448.91 L1999.43 1381.22 L2024.67 1305.73 L2024.67 960.70 L1999.43 1071.09 L1974.06 1170.09 L1948.82 1258.70 L1923.45 1338.15 L1898.20 1409.31 L1872.83 1472.92 L1847.46 1529.85 L1822.22 1580.83 L1796.85 1626.50 L1771.61 1667.34 L1746.24 1703.84 L1720.99 1736.64 L1695.62 1765.84 L1670.38 1792.08 L1645.01 1815.59 L1619.76 1836.63 L1594.39 1855.44 L1569.15 1872.40 L1543.78 1887.49 L1518.54 1901.11 L1493.17 1913.23 L1467.92 1924.13 L1442.55 1933.90 L1417.31 1942.69 L1391.94 1950.61 L1366.69 1957.79 L1341.33 1964.35 L1316.08 1970.41 L1290.71 1975.98 L1265.47 1981.18 L1240.10 1986.13 L1214.85 1990.58 L1189.48 1994.91 L1164.24 1999.00 L1138.87 2002.83 L1113.50 2006.55 L1088.26 2009.89 L1062.89 2013.10 L1037.64 2016.20 L1012.27 2019.04 L987.03 2021.64 L961.66 2023.99 L936.42 2026.10 L911.05 2028.08 L885.80 2029.81 L860.43 2031.30 L835.19 2032.66 L809.82 2033.77 L784.58 2034.88 L759.21 2035.75 L733.96 2036.49 L708.59 2037.24 L683.35 2037.85 L657.98 2038.47 L632.73 2038.84 L607.37 2039.34 L582.12 2039.71 L556.75 2039.96 L531.51 2040.21 L506.14 2040.45 L480.89 2040.70 L455.52 2040.95 L455.52 2042.06 Z" stroke-linejoin="round"/>
	</defs>
	<defs>
		<clipPath id="clipPath_jbHNMBIv">
			<use xlink:href="#path_qwsvLBKi"/>
		</clipPath>
	</defs>
	<use xlink:href="#path_qwsvLBKi" style="stroke:none;fill:#E6E6E6"/>
	<use xlink:href="#path_qwsvLBKi" style="fill:none;stroke:#E0E0E0;stroke-width:14.69" clip-path="url(#clipPath_jbHNMBIv)"/>
	<line x1="455.52" y1="2003.70" x2="458.37" y2="2003.70" style="stroke:#A0A0A0;stroke-width:7.34"/>
	<line x1="478.54" y1="2003.70" x2="480.77" y2="2003.70" style="stroke:#A0A0A0;stroke-width:7.34"/>
	<line x1="480.77" y1="2003.70" x2="481.39" y2="2003.70" style="stroke:#A0A0A0;stroke-width:7.34"/>
	<line x1="501.56" y1="2003.70" x2="504.40" y2="2003.70" style="stroke:#A0A0A0;stroke-width:7.34"/>
	<line x1="524.58" y1="2003.70" x2="527.42" y2="2003.70" style="stroke:#A0A0A0;stroke-width:7.34"/>
	<line x1="547.59" y1="2003.70" x2="550.44" y2="2003.70" style="stroke:#A0A0A0;stroke-width:7.34"/>
	<line x1="570.61" y1="2003.70" x2="573.58" y2="2003.70" style="stroke:#A0A0A0;stroke-width:7.34"/>
	<line x1="593.75" y1="2003.70" x2="596.60" y2="2003.70" style="stroke:#A0A0A0;stroke-width:7.34"/>
	<line x1="616.77" y1="2003.70" x2="619.62" y2="2003.70" style="stroke:#A0A0A0;stroke-width:7.34"/>
	<line x1="639.79" y1="2003.70" x2="642.63" y2="2003.70" style="stroke:#A0A0A0;stroke-width:7.34"/>
	<line x1="662.80" y1="2003.70" x2="665.65" y2="2003.70" style="stroke:#A0A0A0;stroke-width:7.34"/>
	<line x1="685.82" y1="2003.70" x2="688.67" y2="2003.70" style="stroke:#A0A0A0;stroke-width:7.34"/>
	<line x1="708.84" y1="2003.70" x2="711.69" y2="2003.70" style="stroke:#A0A0A0;stroke-width:7.34"/>
	<line x1="731.86" y1="2003.70" x2="733.84" y2="2003.70" style="stroke:#A0A0A0;stroke-width:7.34"/>
	<line x1="733.84" y1="2003.70" x2="734.70" y2="2003.70" style="stroke:#A0A0A0;stroke-width:7.34"/>
	<line x1="754.88" y1="2003.70" x2="757.72" y2="2003.70" style="stroke:#A0A0A0;stroke-width:7.34"/>
	<line x1="777.89" y1="2003.70" x2="780.74" y2="2003.70" style="stroke:#A0A0A0;stroke-width:7.34"/>
	<line x1="800.91" y1="2003.70" x2="803.88" y2="2003.70" style="stroke:#A0A0A0;stroke-width:7.34"/>
	<line x1="823.93" y1="2003.70" x2="826.90" y2="2003.70" style="stroke:#A0A0A0;stroke-width:7.34"/>
	<line x1="847.07" y1="2003.70" x2="849.91" y2="2003.70" style="stroke:#A0A0A0;stroke-width:7.34"/>
	<line x1="870.09" y1="2003.70" x2="872.93" y2="2003.70" style="stroke:#A0A0A0;stroke-width:7.34"/>
	<line x1="893.10" y1="2003.70" x2="895.95" y2="2003.70" style="stroke:#A0A0A0;stroke-width:7.34"/>
	<line x1="916.12" y1="2003.70" x2="918.97" y2="2003.70" style="stroke:#A0A0A0;stroke-width:7.34"/>
	<line x1="939.14" y1="2003.70" x2="941.99" y2="2003.70" style="stroke:#A0A0A0;stroke-width:7.34"/>
	<line x1="962.16" y1="2003.70" x2="965.00" y2="2003.70" style="stroke:#A0A0A0;stroke-width:7.34"/>
	<line x1="985.17" y1="2003.70" x2="986.91" y2="2003.70" style="stroke:#A0A0A0;stroke-width:7.34"/>
	<line x1="986.91" y1="2003.70" x2="988.02" y2="2003.70" style="stroke:#A0A0A0;stroke-width:7.34"/>
	<line x1="1008.19" y1="2003.70" x2="1011.04" y2="2003.70" style="stroke:#A0A0A0;stroke-width:7.34"/>
	<line x1="1031.21" y1="2003.70" x2="1034.06" y2="2003.70" style="stroke:#A0A0A0;stroke-width:7.34"/>
	<line x1="1054.23" y1="2003.70" x2="1057.20" y2="2003.70" style="stroke:#A0A0A0;stroke-width:7.34"/>
	<line x1="1077.24" y1="2003.70" x2="1080.21" y2="2003.70" style="stroke:#A0A0A0;stroke-width:7.34"/>
	<line x1="1100.38" y1="2003.70" x2="1103.23" y2="2003.70" style="stroke:#A0A0A0;stroke-width:7.34"/>
	<line x1="1123.40" y1="2003.70" x2="1126.25" y2="2003.70" style="stroke:#A0A0A0;stroke-width:7.34"/>
	<line x1="1146.42" y1="2003.70" x2="1149.27" y2="2003.70" style="stroke:#A0A0A0;stroke-width:7.34"/>
	<line x1="1169.44" y1="2003.70" x2="1172.28" y2="2003.70" style="stroke:#A0A0A0;stroke-width:7.34"/>
	<line x1="1192.45" y1="2003.70" x2="1195.30" y2="2003.70" style="stroke:#A0A0A0;stroke-width:7.34"/>
	<line x1="1215.47" y1="2003.70" x2="1218.32" y2="2003.70" style="stroke:#A0A0A0;stroke-width:7.34"/>
	<line x1="1238.49" y1="2003.70" x2="1240.10" y2="2003.70" style="stroke:#A0A0A0;stroke-width:7.34"/>
	<line x1="1240.10" y1="2003.70" x2="1241.34" y2="2003.70" style="stroke:#A0A0A0;stroke-width:7.34"/>
	<line x1="1261.51" y1="2003.70" x2="1264.35" y2="2003.70" style="stroke:#A0A0A0;stroke-width:7.34"/>
	<line x1="1284.53" y1="2003.70" x2="1287.37" y2="2003.70" style="stroke:#A0A0A0;stroke-width:7.34"/>
	<line x1="1307.54" y1="2003.70" x2="1310.51" y2="2003.70" style="stroke:#A0A0A0;stroke-width:7.34"/>
	<line x1="1330.56" y1="2003.70" x2="1333.53" y2="2003.70" style="stroke:#A0A0A0;stroke-width:7.34"/>
	<line x1="1353.70" y1="2003.70" x2="1356.55" y2="2003.70" style="stroke:#A0A0A0;stroke-width:7.34"/>
	<line x1="1376.72" y1="2003.70" x2="1379.57" y2="2003.70" style="stroke:#A0A0A0;stroke-width:7.34"/>
	<line x1="1399.74" y1="2003.70" x2="1402.58" y2="2003.70" style="stroke:#A0A0A0;stroke-width:7.34"/>
	<line x1="1422.75" y1="2003.70" x2="1425.60" y2="2003.70" style="stroke:#A0A0A0;stroke-width:7.34"/>
	<line x1="1445.77" y1="2003.70" x2="1448.62" y2="2003.70" style="stroke:#A0A0A0;stroke-width:7.34"/>
	<line x1="1468.79" y1="2003.70" x2="1471.63" y2="2003.70" style="stroke:#A0A0A0;stroke-width:7.34"/>
	<line x1="1491.81" y1="2003.70" x2="1493.17" y2="2003.70" style="stroke:#A0A0A0;stroke-width:7.34"/>
	<line x1="1493.17" y1="2003.70" x2="1494.65" y2="2003.70" style="stroke:#A0A0A0;stroke-width:7.34"/>
	<line x1="1514.82" y1="2003.70" x2="1517.67" y2="2003.70" style="stroke:#A0A0A0;stroke-width:7.34"/>
	<line x1="1537.84" y1="2003.70" x2="1540.69" y2="2003.70" style="stroke:#A0A0A0;stroke-width:7.34"/>
	<line x1="1560.86" y1="2003.70" x2="1563.83" y2="2003.70" style="stroke:#A0A0A0;stroke-width:7.34"/>
	<line x1="1584.00" y1="2003.70" x2="1586.85" y2="2003.70" style="stroke:#A0A0A0;stroke-width:7.34"/>
	<line x1="1607.02" y1="2003.70" x2="1609.86" y2="2003.70" style="stroke:#A0A0A0;stroke-width:7.34"/>
	<line x1="1630.04" y1="2003.70" x2="1632.88" y2="2003.70" style="stroke:#A0A0A0;stroke-width:7.34"/>
	<line x1="1653.05" y1="2003.70" x2="1655.90" y2="2003.70" style="stroke:#A0A0A0;stroke-width:7.34"/>
	<line x1="1676.07" y1="2003.70" x2="1678.92" y2="2003.70" style="stroke:#A0A0A0;stroke-width:7.34"/>
	<line x1="1699.09" y1="2003.70" x2="1701.93" y2="2003.70" style="stroke:#A0A0A0;stroke-width:7.34"/>
	<line x1="1722.11" y1="2003.70" x2="1724.95" y2="2003.70" style="stroke:#A0A0A0;stroke-width:7.34"/>
	<line x1="1745.12" y1="2003.70" x2="1746.24" y2="2003.70" style="stroke:#A0A0A0;stroke-width:7.34"/>
	<line x1="1746.24" y1="2003.70" x2="1747.97" y2="2003.70" style="stroke:#A0A0A0;stroke-width:7.34"/>
	<line x1="1768.14" y1="2003.70" x2="1770.99" y2="2003.70" style="stroke:#A0A0A0;stroke-width:7.34"/>
	<line x1="1791.16" y1="2003.70" x2="1794.00" y2="2003.70" style="stroke:#A0A0A0;stroke-width:7.34"/>
	<line x1="1814.17" y1="2003.70" x2="1817.14" y2="2003.70" style="stroke:#A0A0A0;stroke-width:7.34"/>
	<line x1="1837.32" y1="2003.70" x2="1840.16" y2="2003.70" style="stroke:#A0A0A0;stroke-width:7.34"/>
	<line x1="1860.33" y1="2003.70" x2="1863.18" y2="2003.70" style="stroke:#A0A0A0;stroke-width:7.34"/>
	<line x1="1883.35" y1="2003.70" x2="1886.20" y2="2003.70" style="stroke:#A0A0A0;stroke-width:7.34"/>
	<line x1="1906.37" y1="2003.70" x2="1909.21" y2="2003.70" style="stroke:#A0A0A0;stroke-width:7.34"/>
	<line x1="1929.39" y1="2003.70" x2="1932.23" y2="2003.70" style="stroke:#A0A0A0;stroke-width:7.34"/>
	<line x1="1952.40" y1="2003.70" x2="1955.25" y2="2003.70" style="stroke:#A0A0A0;stroke-width:7.34"/>
	<line x1="1975.42" y1="2003.70" x2="1978.27" y2="2003.70" style="stroke:#A0A0A0;stroke-width:7.34"/>
	<line x1="1998.44" y1="2003.70" x2="1999.31" y2="2003.70" style="stroke:#A0A0A0;stroke-width:7.34"/>
	<line x1="1999.31" y1="2003.70" x2="2001.29" y2="2003.70" style="stroke:#A0A0A0;stroke-width:7.34"/>
	<line x1="2021.46" y1="2003.70" x2="2024.30" y2="2003.70" style="stroke:#A0A0A0;stroke-width:7.34"/>
	<path d="" stroke-linejoin="round" style="fill:none;stroke:#A0A0A0;stroke-width:7.34"/>
	<path d=" M455.52 2042.06 L480.77 2041.94 L506.14 2041.82 L531.38 2041.82 L556.75 2041.69 L582.00 2041.57 L607.37 2041.44 L632.61 2041.20 L657.98 2041.07 L683.22 2040.83 L708.59 2040.45 L733.84 2040.21 L759.21 2039.83 L784.45 2039.34 L809.82 2038.84 L835.07 2038.23 L860.43 2037.61 L885.68 2036.86 L911.05 2036.12 L936.29 2035.13 L961.66 2034.14 L986.91 2033.03 L1012.27 2031.79 L1037.52 2030.43 L1062.89 2029.07 L1088.13 2027.58 L1113.50 2025.97 L1138.87 2024.37 L1164.12 2022.51 L1189.48 2020.65 L1214.73 2018.55 L1240.10 2016.45 L1265.34 2014.09 L1290.71 2011.62 L1315.96 2008.90 L1341.33 2006.05 L1366.57 2002.96 L1391.94 1999.49 L1417.18 1995.78 L1442.55 1991.57 L1467.80 1986.87 L1493.17 1981.79 L1518.41 1975.98 L1543.78 1969.67 L1569.03 1962.49 L1594.39 1954.57 L1619.64 1945.66 L1645.01 1935.76 L1670.25 1924.62 L1695.62 1912.24 L1720.87 1898.51 L1746.24 1883.04 L1771.48 1865.84 L1796.85 1846.53 L1822.10 1824.87 L1847.46 1800.87 L1872.71 1773.89 L1898.08 1743.82 L1923.45 1710.15 L1948.69 1672.53 L1974.06 1630.46 L1999.31 1583.55 L2024.67 1531.33" stroke-linejoin="round" style="fill:none;stroke:#008000;stroke-width:7.34"/>
	<path d=" M455.52 2041.82 L480.77 2041.69 L506.14 2041.57 L531.38 2041.32 L556.75 2041.20 L582.00 2040.95 L607.37 2040.70 L632.61 2040.45 L657.98 2040.08 L683.22 2039.59 L708.59 2039.09 L733.84 2038.60 L759.21 2037.85 L784.45 2037.11 L809.82 2036.25 L835.07 2035.26 L860.43 2034.14 L885.68 2032.78 L911.05 2031.42 L936.29 2029.81 L961.66 2027.95 L986.91 2025.97 L1012.27 2023.87 L1037.52 2021.64 L1062.89 2019.17 L1088.13 2016.57 L1113.50 2013.85 L1138.87 2010.88 L1164.12 2007.66 L1189.48 2004.32 L1214.73 2000.85 L1240.10 1997.02 L1265.34 1992.93 L1290.71 1988.60 L1315.96 1984.02 L1341.33 1978.95 L1366.57 1973.50 L1391.94 1967.44 L1417.18 1960.88 L1442.55 1953.58 L1467.80 1945.53 L1493.17 1936.50 L1518.41 1926.48 L1543.78 1915.21 L1569.03 1902.72 L1594.39 1888.86 L1619.64 1873.39 L1645.01 1856.06 L1670.25 1836.63 L1695.62 1815.10 L1720.87 1790.97 L1746.24 1763.99 L1771.48 1733.79 L1796.85 1700.13 L1822.10 1662.51 L1847.46 1620.31 L1872.71 1573.28 L1898.08 1520.69 L1923.45 1461.90 L1948.69 1396.31 L1974.06 1322.93 L1999.31 1241.13 L2024.67 1149.80" stroke-linejoin="round" style="fill:none;stroke:#FF7F00;stroke-width:7.34"/>
	<path d=" M455.52 2042.19 L480.77 2042.19 L506.14 2042.06 L531.38 2042.06 L556.75 2042.06 L582.00 2041.94 L607.37 2041.94 L632.61 2041.82 L657.98 2041.69 L683.22 2041.57 L708.59 2041.44 L733.84 2041.32 L759.21 2041.20 L784.45 2040.95 L809.82 2040.70 L835.07 2040.45 L860.43 2040.08 L885.68 2039.71 L911.05 2039.34 L936.29 2038.97 L961.66 2038.47 L986.91 2037.98 L1012.27 2037.36 L1037.52 2036.74 L1062.89 2036.12 L1088.13 2035.38 L1113.50 2034.64 L1138.87 2033.89 L1164.12 2033.03 L1189.48 2032.16 L1214.73 2031.17 L1240.10 2030.18 L1265.34 2029.07 L1290.71 2027.83 L1315.96 2026.59 L1341.33 2025.23 L1366.57 2023.75 L1391.94 2022.14 L1417.18 2020.41 L1442.55 2018.43 L1467.80 2016.20 L1493.17 2013.85 L1518.41 2011.12 L1543.78 2008.03 L1569.03 2004.69 L1594.39 2000.98 L1619.64 1996.77 L1645.01 1992.07 L1670.25 1986.87 L1695.62 1981.05 L1720.87 1974.49 L1746.24 1967.32 L1771.48 1959.15 L1796.85 1949.99 L1822.10 1939.84 L1847.46 1928.46 L1872.71 1915.83 L1898.08 1901.60 L1923.45 1885.76 L1948.69 1868.06 L1974.06 1848.26 L1999.31 1826.11 L2024.67 1801.36" stroke-linejoin="round" style="fill:none;stroke:#1A476F;stroke-width:7.34"/>
	<defs>
		<path id="path_VNNaiemC" d="M2201.51 2042.19 L2201.51 2042.19 L2226.88 2042.19 L2252.13 2042.06 L2277.49 2042.06 L2302.74 2042.06 L2328.11 2041.94 L2353.35 2041.94 L2378.72 2041.82 L2403.97 2041.69 L2429.34 2041.57 L2454.58 2041.44 L2479.95 2041.32 L2505.20 2041.07 L2530.56 2040.83 L2555.81 2040.58 L2581.18 2040.21 L2606.42 2039.83 L2631.79 2039.34 L2657.04 2038.84 L2682.41 2038.35 L2707.65 2037.73 L2733.02 2037.11 L2758.26 2036.49 L2783.63 2035.75 L2808.88 2034.88 L2834.25 2034.14 L2859.49 2033.15 L2884.86 2032.29 L2910.11 2031.30 L2935.47 2030.18 L2960.72 2028.94 L2986.09 2027.71 L3011.46 2026.35 L3036.70 2024.98 L3062.07 2023.38 L3087.32 2021.77 L3112.68 2019.91 L3137.93 2017.93 L3163.30 2015.83 L3188.54 2013.48 L3213.91 2010.75 L3239.16 2007.78 L3264.53 2004.57 L3289.77 2000.85 L3315.14 1996.89 L3340.38 1992.31 L3365.75 1987.24 L3391.00 1981.67 L3416.37 1975.36 L3441.61 1968.31 L3466.98 1960.51 L3492.22 1951.72 L3517.59 1941.95 L3542.84 1930.93 L3568.21 1918.68 L3593.45 1904.94 L3618.82 1889.72 L3644.07 1872.52 L3669.43 1853.46 L3694.68 1832.05 L3720.05 1808.17 L3745.42 1781.56 L3770.66 1751.74 L3770.66 1612.02 L3745.42 1656.20 L3720.05 1695.68 L3694.68 1731.07 L3669.43 1762.75 L3644.07 1790.97 L3618.82 1816.34 L3593.45 1839.11 L3568.21 1859.28 L3542.84 1877.47 L3517.59 1893.68 L3492.22 1908.28 L3466.98 1921.28 L3441.61 1932.91 L3416.37 1943.31 L3391.00 1952.59 L3365.75 1961.00 L3340.38 1968.43 L3315.14 1975.11 L3289.77 1981.18 L3264.53 1986.50 L3239.16 1991.32 L3213.91 1995.65 L3188.54 1999.49 L3163.30 2003.08 L3137.93 2006.17 L3112.68 2009.02 L3087.32 2011.62 L3062.07 2013.97 L3036.70 2016.20 L3011.46 2018.30 L2986.09 2020.16 L2960.72 2022.01 L2935.47 2023.62 L2910.11 2025.23 L2884.86 2026.84 L2859.49 2028.20 L2834.25 2029.56 L2808.88 2030.80 L2783.63 2032.04 L2758.26 2033.15 L2733.02 2034.14 L2707.65 2035.13 L2682.41 2035.87 L2657.04 2036.74 L2631.79 2037.36 L2606.42 2037.98 L2581.18 2038.47 L2555.81 2038.97 L2530.56 2039.34 L2505.20 2039.71 L2479.95 2040.08 L2454.58 2040.33 L2429.34 2040.58 L2403.97 2040.70 L2378.72 2040.95 L2353.35 2041.07 L2328.11 2041.20 L2302.74 2041.32 L2277.49 2041.44 L2252.13 2041.57 L2226.88 2041.69 L2201.51 2041.69 L2201.51 2042.19 Z" stroke-linejoin="round"/>
	</defs>
	<defs>
		<clipPath id="clipPath_FGMerSVz">
			<use xlink:href="#path_VNNaiemC"/>
		</clipPath>
	</defs>
	<use xlink:href="#path_VNNaiemC" style="stroke:none;fill:#E6E6E6"/>
	<use xlink:href="#path_VNNaiemC" style="fill:none;stroke:#E0E0E0;stroke-width:14.69" clip-path="url(#clipPath_FGMerSVz)"/>
	<defs>
		<path id="path_ajiFwZFX" d="M2201.51 2042.06 L2201.51 2042.06 L2226.88 2042.06 L2252.13 2041.94 L2277.49 2041.82 L2302.74 2041.82 L2328.11 2041.69 L2353.35 2041.57 L2378.72 2041.32 L2403.97 2041.20 L2429.34 2040.83 L2454.58 2040.58 L2479.95 2040.21 L2505.20 2039.71 L2530.56 2039.22 L2555.81 2038.60 L2581.18 2037.85 L2606.42 2037.11 L2631.79 2036.25 L2657.04 2035.13 L2682.41 2034.02 L2707.65 2032.78 L2733.02 2031.42 L2758.26 2029.93 L2783.63 2028.45 L2808.88 2026.84 L2834.25 2024.98 L2859.49 2023.13 L2884.86 2021.15 L2910.11 2018.92 L2935.47 2016.69 L2960.72 2014.22 L2986.09 2011.50 L3011.46 2008.77 L3036.70 2005.68 L3062.07 2002.46 L3087.32 1998.87 L3112.68 1995.04 L3137.93 1990.83 L3163.30 1986.25 L3188.54 1981.18 L3213.91 1975.48 L3239.16 1969.17 L3264.53 1962.24 L3289.77 1954.44 L3315.14 1945.91 L3340.38 1936.25 L3365.75 1925.49 L3391.00 1913.48 L3416.37 1900.12 L3441.61 1885.14 L3466.98 1868.44 L3492.22 1849.75 L3517.59 1828.96 L3542.84 1805.57 L3568.21 1779.58 L3593.45 1750.37 L3618.82 1717.70 L3644.07 1681.32 L3669.43 1640.61 L3694.68 1595.06 L3720.05 1544.20 L3745.42 1487.52 L3770.66 1424.28 L3770.66 1132.97 L3745.42 1226.03 L3720.05 1309.32 L3694.68 1383.94 L3669.43 1450.89 L3644.07 1510.66 L3618.82 1564.25 L3593.45 1612.14 L3568.21 1654.96 L3542.84 1693.32 L3517.59 1727.60 L3492.22 1758.42 L3466.98 1785.89 L3441.61 1810.40 L3416.37 1832.42 L3391.00 1852.22 L3365.75 1869.80 L3340.38 1885.64 L3315.14 1899.87 L3289.77 1912.49 L3264.53 1923.88 L3239.16 1934.15 L3213.91 1943.31 L3188.54 1951.47 L3163.30 1958.78 L3137.93 1965.46 L3112.68 1971.52 L3087.32 1976.97 L3062.07 1982.04 L3036.70 1986.74 L3011.46 1991.08 L2986.09 1995.16 L2960.72 1999.00 L2935.47 2002.59 L2910.11 2006.05 L2884.86 2009.27 L2859.49 2012.36 L2834.25 2015.21 L2808.88 2017.93 L2783.63 2020.41 L2758.26 2022.76 L2733.02 2024.98 L2707.65 2026.96 L2682.41 2028.70 L2657.04 2030.31 L2631.79 2031.79 L2606.42 2033.03 L2581.18 2034.14 L2555.81 2035.13 L2530.56 2036.00 L2505.20 2036.86 L2479.95 2037.48 L2454.58 2038.10 L2429.34 2038.60 L2403.97 2039.09 L2378.72 2039.46 L2353.35 2039.83 L2328.11 2040.08 L2302.74 2040.33 L2277.49 2040.58 L2252.13 2040.83 L2226.88 2040.95 L2201.51 2041.20 L2201.51 2042.06 Z" stroke-linejoin="round"/>
	</defs>
	<defs>
		<clipPath id="clipPath_gGYafFEx">
			<use xlink:href="#path_ajiFwZFX"/>
		</clipPath>
	</defs>
	<use xlink:href="#path_ajiFwZFX" style="stroke:none;fill:#E6E6E6"/>
	<use xlink:href="#path_ajiFwZFX" style="fill:none;stroke:#E0E0E0;stroke-width:14.69" clip-path="url(#clipPath_gGYafFEx)"/>
	<defs>
		<path id="path_ykhsTWxK" d="M2201.51 2041.94 L2201.51 2041.94 L2226.88 2041.82 L2252.13 2041.69 L2277.49 2041.57 L2302.74 2041.44 L2328.11 2041.20 L2353.35 2040.95 L2378.72 2040.70 L2403.97 2040.33 L2429.34 2039.83 L2454.58 2039.34 L2479.95 2038.60 L2505.20 2037.85 L2530.56 2036.99 L2555.81 2035.87 L2581.18 2034.64 L2606.42 2033.28 L2631.79 2031.67 L2657.04 2029.81 L2682.41 2027.83 L2707.65 2025.73 L2733.02 2023.38 L2758.26 2020.90 L2783.63 2018.18 L2808.88 2015.21 L2834.25 2012.11 L2859.49 2008.90 L2884.86 2005.31 L2910.11 2001.60 L2935.47 1997.51 L2960.72 1993.30 L2986.09 1988.60 L3011.46 1983.65 L3036.70 1978.45 L3062.07 1972.64 L3087.32 1966.45 L3112.68 1959.77 L3137.93 1952.46 L3163.30 1944.42 L3188.54 1935.51 L3213.91 1925.61 L3239.16 1914.72 L3264.53 1902.47 L3289.77 1888.98 L3315.14 1873.88 L3340.38 1857.05 L3365.75 1838.24 L3391.00 1817.33 L3416.37 1793.94 L3441.61 1767.82 L3466.98 1738.62 L3492.22 1705.95 L3517.59 1669.56 L3542.84 1628.72 L3568.21 1583.06 L3593.45 1532.07 L3618.82 1475.15 L3644.07 1411.41 L3669.43 1340.13 L3694.68 1260.56 L3720.05 1171.70 L3745.42 1072.57 L3770.66 961.94 L3770.66 456.65 L3745.42 618.52 L3720.05 763.56 L3694.68 893.63 L3669.43 1010.08 L3644.07 1114.28 L3618.82 1207.59 L3593.45 1291.12 L3568.21 1365.87 L3542.84 1432.70 L3517.59 1492.60 L3492.22 1546.18 L3466.98 1594.20 L3441.61 1637.14 L3416.37 1675.50 L3391.00 1710.03 L3365.75 1740.85 L3340.38 1768.44 L3315.14 1793.19 L3289.77 1815.35 L3264.53 1835.27 L3239.16 1853.09 L3213.91 1869.05 L3188.54 1883.41 L3163.30 1896.28 L3137.93 1907.91 L3112.68 1918.43 L3087.32 1928.09 L3062.07 1937.00 L3036.70 1945.16 L3011.46 1952.71 L2986.09 1959.89 L2960.72 1966.57 L2935.47 1972.88 L2910.11 1978.82 L2884.86 1984.52 L2859.49 1989.84 L2834.25 1994.79 L2808.88 1999.61 L2783.63 2004.07 L2758.26 2008.15 L2733.02 2011.99 L2707.65 2015.46 L2682.41 2018.55 L2657.04 2021.40 L2631.79 2023.99 L2606.42 2026.10 L2581.18 2028.08 L2555.81 2029.81 L2530.56 2031.42 L2505.20 2032.66 L2479.95 2033.89 L2454.58 2034.88 L2429.34 2035.87 L2403.97 2036.62 L2378.72 2037.36 L2353.35 2037.98 L2328.11 2038.47 L2302.74 2038.97 L2277.49 2039.34 L2252.13 2039.71 L2226.88 2040.08 L2201.51 2040.33 L2201.51 2041.94 Z" stroke-linejoin="round"/>
	</defs>
	<defs>
		<clipPath id="clipPath_xZrLrXWa">
			<use xlink:href="#path_ykhsTWxK"/>
		</clipPath>
	</defs>
	<use xlink:href="#path_ykhsTWxK" style="stroke:none;fill:#E6E6E6"/>
	<use xlink:href="#path_ykhsTWxK" style="fill:none;stroke:#E0E0E0;stroke-width:14.69" clip-path="url(#clipPath_xZrLrXWa)"/>
	<line x1="2201.39" y1="1985.75" x2="2204.24" y2="1985.75" style="stroke:#A0A0A0;stroke-width:7.34"/>
	<line x1="2224.41" y1="1985.75" x2="2226.76" y2="1985.75" style="stroke:#A0A0A0;stroke-width:7.34"/>
	<line x1="2226.76" y1="1985.75" x2="2227.25" y2="1985.75" style="stroke:#A0A0A0;stroke-width:7.34"/>
	<line x1="2247.42" y1="1985.75" x2="2250.27" y2="1985.75" style="stroke:#A0A0A0;stroke-width:7.34"/>
	<line x1="2270.44" y1="1985.75" x2="2273.29" y2="1985.75" style="stroke:#A0A0A0;stroke-width:7.34"/>
	<line x1="2293.46" y1="1985.75" x2="2296.43" y2="1985.75" style="stroke:#A0A0A0;stroke-width:7.34"/>
	<line x1="2316.60" y1="1985.75" x2="2319.45" y2="1985.75" style="stroke:#A0A0A0;stroke-width:7.34"/>
	<line x1="2339.62" y1="1985.75" x2="2342.46" y2="1985.75" style="stroke:#A0A0A0;stroke-width:7.34"/>
	<line x1="2362.64" y1="1985.75" x2="2365.48" y2="1985.75" style="stroke:#A0A0A0;stroke-width:7.34"/>
	<line x1="2385.65" y1="1985.75" x2="2388.50" y2="1985.75" style="stroke:#A0A0A0;stroke-width:7.34"/>
	<line x1="2408.67" y1="1985.75" x2="2411.52" y2="1985.75" style="stroke:#A0A0A0;stroke-width:7.34"/>
	<line x1="2431.69" y1="1985.75" x2="2434.53" y2="1985.75" style="stroke:#A0A0A0;stroke-width:7.34"/>
	<line x1="2454.70" y1="1985.75" x2="2457.55" y2="1985.75" style="stroke:#A0A0A0;stroke-width:7.34"/>
	<line x1="2477.72" y1="1985.75" x2="2479.83" y2="1985.75" style="stroke:#A0A0A0;stroke-width:7.34"/>
	<line x1="2479.83" y1="1985.75" x2="2480.57" y2="1985.75" style="stroke:#A0A0A0;stroke-width:7.34"/>
	<line x1="2500.74" y1="1985.75" x2="2503.59" y2="1985.75" style="stroke:#A0A0A0;stroke-width:7.34"/>
	<line x1="2523.76" y1="1985.75" x2="2526.60" y2="1985.75" style="stroke:#A0A0A0;stroke-width:7.34"/>
	<line x1="2546.78" y1="1985.75" x2="2549.74" y2="1985.75" style="stroke:#A0A0A0;stroke-width:7.34"/>
	<line x1="2569.92" y1="1985.75" x2="2572.76" y2="1985.75" style="stroke:#A0A0A0;stroke-width:7.34"/>
	<line x1="2592.93" y1="1985.75" x2="2595.78" y2="1985.75" style="stroke:#A0A0A0;stroke-width:7.34"/>
	<line x1="2615.95" y1="1985.75" x2="2618.80" y2="1985.75" style="stroke:#A0A0A0;stroke-width:7.34"/>
	<line x1="2638.97" y1="1985.75" x2="2641.82" y2="1985.75" style="stroke:#A0A0A0;stroke-width:7.34"/>
	<line x1="2661.99" y1="1985.75" x2="2664.83" y2="1985.75" style="stroke:#A0A0A0;stroke-width:7.34"/>
	<line x1="2685.00" y1="1985.75" x2="2687.85" y2="1985.75" style="stroke:#A0A0A0;stroke-width:7.34"/>
	<line x1="2708.02" y1="1985.75" x2="2710.87" y2="1985.75" style="stroke:#A0A0A0;stroke-width:7.34"/>
	<line x1="2731.04" y1="1985.75" x2="2732.89" y2="1985.75" style="stroke:#A0A0A0;stroke-width:7.34"/>
	<line x1="2732.89" y1="1985.75" x2="2733.89" y2="1985.75" style="stroke:#A0A0A0;stroke-width:7.34"/>
	<line x1="2754.06" y1="1985.75" x2="2756.90" y2="1985.75" style="stroke:#A0A0A0;stroke-width:7.34"/>
	<line x1="2777.07" y1="1985.75" x2="2779.92" y2="1985.75" style="stroke:#A0A0A0;stroke-width:7.34"/>
	<line x1="2800.09" y1="1985.75" x2="2803.06" y2="1985.75" style="stroke:#A0A0A0;stroke-width:7.34"/>
	<line x1="2823.23" y1="1985.75" x2="2826.08" y2="1985.75" style="stroke:#A0A0A0;stroke-width:7.34"/>
	<line x1="2846.25" y1="1985.75" x2="2849.10" y2="1985.75" style="stroke:#A0A0A0;stroke-width:7.34"/>
	<line x1="2869.27" y1="1985.75" x2="2872.11" y2="1985.75" style="stroke:#A0A0A0;stroke-width:7.34"/>
	<line x1="2892.28" y1="1985.75" x2="2895.13" y2="1985.75" style="stroke:#A0A0A0;stroke-width:7.34"/>
	<line x1="2915.30" y1="1985.75" x2="2918.15" y2="1985.75" style="stroke:#A0A0A0;stroke-width:7.34"/>
	<line x1="2938.32" y1="1985.75" x2="2941.17" y2="1985.75" style="stroke:#A0A0A0;stroke-width:7.34"/>
	<line x1="2961.34" y1="1985.75" x2="2964.18" y2="1985.75" style="stroke:#A0A0A0;stroke-width:7.34"/>
	<line x1="2984.36" y1="1985.75" x2="2986.09" y2="1985.75" style="stroke:#A0A0A0;stroke-width:7.34"/>
	<line x1="2986.09" y1="1985.75" x2="2987.20" y2="1985.75" style="stroke:#A0A0A0;stroke-width:7.34"/>
	<line x1="3007.37" y1="1985.75" x2="3010.22" y2="1985.75" style="stroke:#A0A0A0;stroke-width:7.34"/>
	<line x1="3030.39" y1="1985.75" x2="3033.36" y2="1985.75" style="stroke:#A0A0A0;stroke-width:7.34"/>
	<line x1="3053.41" y1="1985.75" x2="3056.38" y2="1985.75" style="stroke:#A0A0A0;stroke-width:7.34"/>
	<line x1="3076.55" y1="1985.75" x2="3079.39" y2="1985.75" style="stroke:#A0A0A0;stroke-width:7.34"/>
	<line x1="3099.57" y1="1985.75" x2="3102.41" y2="1985.75" style="stroke:#A0A0A0;stroke-width:7.34"/>
	<line x1="3122.58" y1="1985.75" x2="3125.43" y2="1985.75" style="stroke:#A0A0A0;stroke-width:7.34"/>
	<line x1="3145.60" y1="1985.75" x2="3148.45" y2="1985.75" style="stroke:#A0A0A0;stroke-width:7.34"/>
	<line x1="3168.62" y1="1985.75" x2="3171.47" y2="1985.75" style="stroke:#A0A0A0;stroke-width:7.34"/>
	<line x1="3191.64" y1="1985.75" x2="3194.48" y2="1985.75" style="stroke:#A0A0A0;stroke-width:7.34"/>
	<line x1="3214.65" y1="1985.75" x2="3217.50" y2="1985.75" style="stroke:#A0A0A0;stroke-width:7.34"/>
	<line x1="3237.67" y1="1985.75" x2="3239.16" y2="1985.75" style="stroke:#A0A0A0;stroke-width:7.34"/>
	<line x1="3239.16" y1="1985.75" x2="3240.52" y2="1985.75" style="stroke:#A0A0A0;stroke-width:7.34"/>
	<line x1="3260.69" y1="1985.75" x2="3263.53" y2="1985.75" style="stroke:#A0A0A0;stroke-width:7.34"/>
	<line x1="3283.71" y1="1985.75" x2="3286.68" y2="1985.75" style="stroke:#A0A0A0;stroke-width:7.34"/>
	<line x1="3306.72" y1="1985.75" x2="3309.69" y2="1985.75" style="stroke:#A0A0A0;stroke-width:7.34"/>
	<line x1="3329.86" y1="1985.75" x2="3332.71" y2="1985.75" style="stroke:#A0A0A0;stroke-width:7.34"/>
	<line x1="3352.88" y1="1985.75" x2="3355.73" y2="1985.75" style="stroke:#A0A0A0;stroke-width:7.34"/>
	<line x1="3375.90" y1="1985.75" x2="3378.75" y2="1985.75" style="stroke:#A0A0A0;stroke-width:7.34"/>
	<line x1="3398.92" y1="1985.75" x2="3401.76" y2="1985.75" style="stroke:#A0A0A0;stroke-width:7.34"/>
	<line x1="3421.93" y1="1985.75" x2="3424.78" y2="1985.75" style="stroke:#A0A0A0;stroke-width:7.34"/>
	<line x1="3444.95" y1="1985.75" x2="3447.80" y2="1985.75" style="stroke:#A0A0A0;stroke-width:7.34"/>
	<line x1="3467.97" y1="1985.75" x2="3470.82" y2="1985.75" style="stroke:#A0A0A0;stroke-width:7.34"/>
	<line x1="3490.99" y1="1985.75" x2="3492.22" y2="1985.75" style="stroke:#A0A0A0;stroke-width:7.34"/>
	<line x1="3492.22" y1="1985.75" x2="3493.83" y2="1985.75" style="stroke:#A0A0A0;stroke-width:7.34"/>
	<line x1="3514.01" y1="1985.75" x2="3516.85" y2="1985.75" style="stroke:#A0A0A0;stroke-width:7.34"/>
	<line x1="3537.02" y1="1985.75" x2="3539.99" y2="1985.75" style="stroke:#A0A0A0;stroke-width:7.34"/>
	<line x1="3560.04" y1="1985.75" x2="3563.01" y2="1985.75" style="stroke:#A0A0A0;stroke-width:7.34"/>
	<line x1="3583.18" y1="1985.75" x2="3586.03" y2="1985.75" style="stroke:#A0A0A0;stroke-width:7.34"/>
	<line x1="3606.20" y1="1985.75" x2="3609.05" y2="1985.75" style="stroke:#A0A0A0;stroke-width:7.34"/>
	<line x1="3629.22" y1="1985.75" x2="3632.06" y2="1985.75" style="stroke:#A0A0A0;stroke-width:7.34"/>
	<line x1="3652.23" y1="1985.75" x2="3655.08" y2="1985.75" style="stroke:#A0A0A0;stroke-width:7.34"/>
	<line x1="3675.25" y1="1985.75" x2="3678.10" y2="1985.75" style="stroke:#A0A0A0;stroke-width:7.34"/>
	<line x1="3698.27" y1="1985.75" x2="3701.11" y2="1985.75" style="stroke:#A0A0A0;stroke-width:7.34"/>
	<line x1="3721.29" y1="1985.75" x2="3724.13" y2="1985.75" style="stroke:#A0A0A0;stroke-width:7.34"/>
	<line x1="3744.30" y1="1985.75" x2="3745.29" y2="1985.75" style="stroke:#A0A0A0;stroke-width:7.34"/>
	<line x1="3745.29" y1="1985.75" x2="3747.15" y2="1985.75" style="stroke:#A0A0A0;stroke-width:7.34"/>
	<line x1="3767.32" y1="1985.75" x2="3770.17" y2="1985.75" style="stroke:#A0A0A0;stroke-width:7.34"/>
	<path d="" stroke-linejoin="round" style="fill:none;stroke:#A0A0A0;stroke-width:7.34"/>
	<path d=" M2201.39 2041.82 L2226.76 2041.82 L2252.13 2041.69 L2277.37 2041.57 L2302.74 2041.32 L2327.99 2041.20 L2353.35 2040.95 L2378.60 2040.70 L2403.97 2040.45 L2429.21 2040.08 L2454.58 2039.71 L2479.83 2039.22 L2505.20 2038.60 L2530.44 2037.98 L2555.81 2037.24 L2581.05 2036.37 L2606.42 2035.38 L2631.67 2034.39 L2657.04 2033.15 L2682.28 2031.79 L2707.65 2030.31 L2732.89 2028.70 L2758.26 2026.84 L2783.51 2024.98 L2808.88 2022.88 L2834.12 2020.65 L2859.49 2018.43 L2884.74 2015.95 L2910.11 2013.23 L2935.35 2010.51 L2960.72 2007.54 L2986.09 2004.32 L3011.33 2000.85 L3036.70 1997.26 L3061.95 1993.30 L3087.32 1989.10 L3112.56 1984.52 L3137.93 1979.44 L3163.17 1973.87 L3188.54 1967.81 L3213.79 1961.00 L3239.16 1953.45 L3264.40 1945.04 L3289.77 1935.63 L3315.01 1925.12 L3340.38 1913.48 L3365.63 1900.49 L3391.00 1885.89 L3416.24 1869.67 L3441.61 1851.48 L3466.86 1831.19 L3492.22 1808.54 L3517.47 1783.29 L3542.84 1754.95 L3568.08 1723.27 L3593.45 1688.00 L3618.70 1648.40 L3644.07 1604.22 L3669.31 1554.84 L3694.68 1499.77 L3719.93 1438.14 L3745.29 1369.34 L3770.66 1292.61" stroke-linejoin="round" style="fill:none;stroke:#008000;stroke-width:7.34"/>
	<path d=" M2201.39 2041.44 L2226.76 2041.32 L2252.13 2041.20 L2277.37 2040.95 L2302.74 2040.70 L2327.99 2040.33 L2353.35 2039.96 L2378.60 2039.46 L2403.97 2038.97 L2429.21 2038.35 L2454.58 2037.61 L2479.83 2036.86 L2505.20 2035.87 L2530.44 2034.76 L2555.81 2033.40 L2581.05 2031.91 L2606.42 2030.31 L2631.67 2028.33 L2657.04 2026.22 L2682.28 2023.87 L2707.65 2021.27 L2732.89 2018.43 L2758.26 2015.33 L2783.51 2011.99 L2808.88 2008.40 L2834.12 2004.57 L2859.49 2000.48 L2884.74 1996.15 L2910.11 1991.57 L2935.35 1986.62 L2960.72 1981.42 L2986.09 1975.85 L3011.33 1969.91 L3036.70 1963.60 L3061.95 1956.67 L3087.32 1949.25 L3112.56 1941.20 L3137.93 1932.42 L3163.17 1922.76 L3188.54 1912.12 L3213.79 1900.24 L3239.16 1887.00 L3264.40 1872.27 L3289.77 1855.81 L3315.01 1837.50 L3340.38 1817.08 L3365.63 1794.31 L3391.00 1768.94 L3416.24 1740.60 L3441.61 1708.92 L3466.86 1673.52 L3492.22 1633.92 L3517.47 1589.74 L3542.84 1540.24 L3568.08 1485.05 L3593.45 1423.29 L3618.70 1354.24 L3644.07 1277.14 L3669.31 1191.01 L3694.68 1094.73 L3719.93 987.18 L3745.29 867.27 L3770.66 733.49" stroke-linejoin="round" style="fill:none;stroke:#FF7F00;stroke-width:7.34"/>
	<path d=" M2201.39 2042.06 L2226.76 2042.06 L2252.13 2042.06 L2277.37 2041.94 L2302.74 2041.94 L2327.99 2041.82 L2353.35 2041.69 L2378.60 2041.57 L2403.97 2041.44 L2429.21 2041.32 L2454.58 2041.07 L2479.83 2040.83 L2505.20 2040.58 L2530.44 2040.33 L2555.81 2039.96 L2581.05 2039.59 L2606.42 2039.09 L2631.67 2038.60 L2657.04 2037.98 L2682.28 2037.36 L2707.65 2036.62 L2732.89 2035.87 L2758.26 2035.01 L2783.51 2034.14 L2808.88 2033.15 L2834.12 2032.16 L2859.49 2031.05 L2884.74 2029.93 L2910.11 2028.70 L2935.35 2027.34 L2960.72 2025.85 L2986.09 2024.37 L3011.33 2022.76 L3036.70 2021.15 L3061.95 2019.29 L3087.32 2017.31 L3112.56 2015.08 L3137.93 2012.73 L3163.17 2010.13 L3188.54 2007.16 L3213.79 2004.07 L3239.16 2000.48 L3264.40 1996.52 L3289.77 1992.07 L3315.01 1987.12 L3340.38 1981.55 L3365.63 1975.48 L3391.00 1968.55 L3416.24 1961.00 L3441.61 1952.34 L3466.86 1942.81 L3492.22 1932.17 L3517.47 1920.29 L3542.84 1906.92 L3568.08 1891.95 L3593.45 1875.37 L3618.70 1856.68 L3644.07 1835.89 L3669.31 1812.50 L3694.68 1786.51 L3719.93 1757.43 L3745.29 1725.01 L3770.66 1688.87" stroke-linejoin="round" style="fill:none;stroke:#1A476F;stroke-width:7.34"/>
	<line x1="401.69" y1="2096.14" x2="401.69" y2="402.82" style="stroke:#000000;stroke-width:4.90"/>
	<line x1="401.69" y1="2042.31" x2="367.66" y2="2042.31" style="stroke:#000000;stroke-width:4.90"/>
	<text x="350.71" y="2072.10" style="font-family:'Helvetica';font-size:85.02px;fill:#000000" text-anchor="end">0</text>
	<line x1="401.69" y1="1785.40" x2="367.66" y2="1785.40" style="stroke:#000000;stroke-width:4.90"/>
	<text x="350.71" y="1815.18" style="font-family:'Helvetica';font-size:85.02px;fill:#000000" text-anchor="end">.001</text>
	<line x1="401.69" y1="1528.61" x2="367.66" y2="1528.61" style="stroke:#000000;stroke-width:4.90"/>
	<text x="350.71" y="1558.40" style="font-family:'Helvetica';font-size:85.02px;fill:#000000" text-anchor="end">.002</text>
	<line x1="401.69" y1="1271.82" x2="367.66" y2="1271.82" style="stroke:#000000;stroke-width:4.90"/>
	<text x="350.71" y="1301.61" style="font-family:'Helvetica';font-size:85.02px;fill:#000000" text-anchor="end">.003</text>
	<line x1="401.69" y1="1015.03" x2="367.66" y2="1015.03" style="stroke:#000000;stroke-width:4.90"/>
	<text x="350.71" y="1044.82" style="font-family:'Helvetica';font-size:85.02px;fill:#000000" text-anchor="end">.004</text>
	<line x1="401.69" y1="758.12" x2="367.66" y2="758.12" style="stroke:#000000;stroke-width:4.90"/>
	<text x="350.71" y="787.90" style="font-family:'Helvetica';font-size:85.02px;fill:#000000" text-anchor="end">.005</text>
	<line x1="401.69" y1="2096.14" x2="2078.51" y2="2096.14" style="stroke:#000000;stroke-width:4.90"/>
	<line x1="506.14" y1="2096.14" x2="506.14" y2="2113.10" style="stroke:#000000;stroke-width:4.90"/>
	<line x1="632.73" y1="2096.14" x2="632.73" y2="2113.10" style="stroke:#000000;stroke-width:4.90"/>
	<line x1="759.21" y1="2096.14" x2="759.21" y2="2113.10" style="stroke:#000000;stroke-width:4.90"/>
	<line x1="885.80" y1="2096.14" x2="885.80" y2="2113.10" style="stroke:#000000;stroke-width:4.90"/>
	<line x1="1012.27" y1="2096.14" x2="1012.27" y2="2113.10" style="stroke:#000000;stroke-width:4.90"/>
	<line x1="1138.87" y1="2096.14" x2="1138.87" y2="2113.10" style="stroke:#000000;stroke-width:4.90"/>
	<line x1="1265.47" y1="2096.14" x2="1265.47" y2="2113.10" style="stroke:#000000;stroke-width:4.90"/>
	<line x1="1391.94" y1="2096.14" x2="1391.94" y2="2113.10" style="stroke:#000000;stroke-width:4.90"/>
	<line x1="1518.54" y1="2096.14" x2="1518.54" y2="2113.10" style="stroke:#000000;stroke-width:4.90"/>
	<line x1="1645.01" y1="2096.14" x2="1645.01" y2="2113.10" style="stroke:#000000;stroke-width:4.90"/>
	<line x1="1771.61" y1="2096.14" x2="1771.61" y2="2113.10" style="stroke:#000000;stroke-width:4.90"/>
	<line x1="1898.20" y1="2096.14" x2="1898.20" y2="2113.10" style="stroke:#000000;stroke-width:4.90"/>
	<line x1="2024.67" y1="2096.14" x2="2024.67" y2="2113.10" style="stroke:#000000;stroke-width:4.90"/>
	<line x1="506.14" y1="2096.14" x2="506.14" y2="2130.18" style="stroke:#000000;stroke-width:4.90"/>
	<text x="506.14" y="2206.58" style="font-family:'Helvetica';font-size:85.02px;fill:#000000" text-anchor="middle">20</text>
	<line x1="1012.27" y1="2096.14" x2="1012.27" y2="2130.18" style="stroke:#000000;stroke-width:4.90"/>
	<text x="1012.27" y="2206.58" style="font-family:'Helvetica';font-size:85.02px;fill:#000000" text-anchor="middle">40</text>
	<line x1="1518.54" y1="2096.14" x2="1518.54" y2="2130.18" style="stroke:#000000;stroke-width:4.90"/>
	<text x="1518.54" y="2206.58" style="font-family:'Helvetica';font-size:85.02px;fill:#000000" text-anchor="middle">60</text>
	<line x1="2024.67" y1="2096.14" x2="2024.67" y2="2130.18" style="stroke:#000000;stroke-width:4.90"/>
	<text x="2024.67" y="2206.58" style="font-family:'Helvetica';font-size:85.02px;fill:#000000" text-anchor="middle">80</text>
	<line x1="2147.68" y1="2096.14" x2="3824.49" y2="2096.14" style="stroke:#000000;stroke-width:4.90"/>
	<line x1="2252.13" y1="2096.14" x2="2252.13" y2="2113.10" style="stroke:#000000;stroke-width:4.90"/>
	<line x1="2378.72" y1="2096.14" x2="2378.72" y2="2113.10" style="stroke:#000000;stroke-width:4.90"/>
	<line x1="2505.20" y1="2096.14" x2="2505.20" y2="2113.10" style="stroke:#000000;stroke-width:4.90"/>
	<line x1="2631.79" y1="2096.14" x2="2631.79" y2="2113.10" style="stroke:#000000;stroke-width:4.90"/>
	<line x1="2758.26" y1="2096.14" x2="2758.26" y2="2113.10" style="stroke:#000000;stroke-width:4.90"/>
	<line x1="2884.86" y1="2096.14" x2="2884.86" y2="2113.10" style="stroke:#000000;stroke-width:4.90"/>
	<line x1="3011.46" y1="2096.14" x2="3011.46" y2="2113.10" style="stroke:#000000;stroke-width:4.90"/>
	<line x1="3137.93" y1="2096.14" x2="3137.93" y2="2113.10" style="stroke:#000000;stroke-width:4.90"/>
	<line x1="3264.53" y1="2096.14" x2="3264.53" y2="2113.10" style="stroke:#000000;stroke-width:4.90"/>
	<line x1="3391.00" y1="2096.14" x2="3391.00" y2="2113.10" style="stroke:#000000;stroke-width:4.90"/>
	<line x1="3517.59" y1="2096.14" x2="3517.59" y2="2113.10" style="stroke:#000000;stroke-width:4.90"/>
	<line x1="3644.07" y1="2096.14" x2="3644.07" y2="2113.10" style="stroke:#000000;stroke-width:4.90"/>
	<line x1="3770.66" y1="2096.14" x2="3770.66" y2="2113.10" style="stroke:#000000;stroke-width:4.90"/>
	<line x1="2252.13" y1="2096.14" x2="2252.13" y2="2130.18" style="stroke:#000000;stroke-width:4.90"/>
	<text x="2252.13" y="2206.58" style="font-family:'Helvetica';font-size:85.02px;fill:#000000" text-anchor="middle">20</text>
	<line x1="2758.26" y1="2096.14" x2="2758.26" y2="2130.18" style="stroke:#000000;stroke-width:4.90"/>
	<text x="2758.26" y="2206.58" style="font-family:'Helvetica';font-size:85.02px;fill:#000000" text-anchor="middle">40</text>
	<line x1="3264.53" y1="2096.14" x2="3264.53" y2="2130.18" style="stroke:#000000;stroke-width:4.90"/>
	<text x="3264.53" y="2206.58" style="font-family:'Helvetica';font-size:85.02px;fill:#000000" text-anchor="middle">60</text>
	<line x1="3770.66" y1="2096.14" x2="3770.66" y2="2130.18" style="stroke:#000000;stroke-width:4.90"/>
	<text x="3770.66" y="2206.58" style="font-family:'Helvetica';font-size:85.02px;fill:#000000" text-anchor="middle">80</text>
	<rect x="401.69" y="279.93" width="1676.81" height="122.89" style="fill:#D9E6EB"/>
	<rect x="404.14" y="282.38" width="1671.92" height="117.99" style="fill:none;stroke:#D9E6EB;stroke-width:4.90"/>
	<text x="1240.10" y="359.96" style="font-family:'Helvetica';font-size:93.56px;fill:#000000" text-anchor="middle">Female</text>
	<rect x="2147.68" y="279.93" width="1676.81" height="122.89" style="fill:#D9E6EB"/>
	<rect x="2150.13" y="282.38" width="1671.92" height="117.99" style="fill:none;stroke:#D9E6EB;stroke-width:4.90"/>
	<text x="2986.09" y="359.96" style="font-family:'Helvetica';font-size:93.56px;fill:#000000" text-anchor="middle">Male</text>
	<rect x="592.39" y="2418.27" width="2775.09" height="326.34" style="fill:#FFFFFF"/>
	<rect x="595.27" y="2421.15" width="2769.33" height="320.58" style="fill:none;stroke:#000000;stroke-width:5.76"/>
	<line x1="635.58" y1="2511.46" x2="1009.92" y2="2511.46" style="stroke:#008000;stroke-width:8.64"/>
	<line x1="635.58" y1="2651.43" x2="1009.92" y2="2651.43" style="stroke:#FF7F00;stroke-width:8.64"/>
	<line x1="1971.21" y1="2511.46" x2="2345.56" y2="2511.46" style="stroke:#1A476F;stroke-width:8.64"/>
	<line x1="1971.21" y1="2651.43" x2="1974.06" y2="2651.43" style="stroke:#A0A0A0;stroke-width:8.64"/>
	<line x1="1994.23" y1="2651.43" x2="1997.08" y2="2651.43" style="stroke:#A0A0A0;stroke-width:8.64"/>
	<line x1="2017.25" y1="2651.43" x2="2020.10" y2="2651.43" style="stroke:#A0A0A0;stroke-width:8.64"/>
	<line x1="2040.27" y1="2651.43" x2="2043.24" y2="2651.43" style="stroke:#A0A0A0;stroke-width:8.64"/>
	<line x1="2063.28" y1="2651.43" x2="2066.25" y2="2651.43" style="stroke:#A0A0A0;stroke-width:8.64"/>
	<line x1="2086.43" y1="2651.43" x2="2089.27" y2="2651.43" style="stroke:#A0A0A0;stroke-width:8.64"/>
	<line x1="2109.44" y1="2651.43" x2="2112.29" y2="2651.43" style="stroke:#A0A0A0;stroke-width:8.64"/>
	<line x1="2132.46" y1="2651.43" x2="2135.31" y2="2651.43" style="stroke:#A0A0A0;stroke-width:8.64"/>
	<line x1="2155.48" y1="2651.43" x2="2158.32" y2="2651.43" style="stroke:#A0A0A0;stroke-width:8.64"/>
	<line x1="2178.49" y1="2651.43" x2="2181.34" y2="2651.43" style="stroke:#A0A0A0;stroke-width:8.64"/>
	<line x1="2201.51" y1="2651.43" x2="2204.36" y2="2651.43" style="stroke:#A0A0A0;stroke-width:8.64"/>
	<line x1="2224.53" y1="2651.43" x2="2227.38" y2="2651.43" style="stroke:#A0A0A0;stroke-width:8.64"/>
	<line x1="2247.55" y1="2651.43" x2="2250.39" y2="2651.43" style="stroke:#A0A0A0;stroke-width:8.64"/>
	<line x1="2270.57" y1="2651.43" x2="2273.41" y2="2651.43" style="stroke:#A0A0A0;stroke-width:8.64"/>
	<line x1="2293.58" y1="2651.43" x2="2296.55" y2="2651.43" style="stroke:#A0A0A0;stroke-width:8.64"/>
	<line x1="2316.60" y1="2651.43" x2="2319.57" y2="2651.43" style="stroke:#A0A0A0;stroke-width:8.64"/>
	<line x1="2339.74" y1="2651.43" x2="2342.59" y2="2651.43" style="stroke:#A0A0A0;stroke-width:8.64"/>
	<text x="1069.94" y="2546.49" style="font-family:'Helvetica';font-size:99.99px;fill:#000000">1 comorbidity</text>
	<text x="1069.94" y="2686.46" style="font-family:'Helvetica';font-size:99.99px;fill:#000000">2+ comorbidities</text>
	<text x="2405.58" y="2546.49" style="font-family:'Helvetica';font-size:99.99px;fill:#000000">No comborbidity</text>
	<text x="2405.58" y="2686.46" style="font-family:'Helvetica';font-size:99.99px;fill:#000000">Ref (Age 65, White)</text>
	<text x="1980.00" y="2353.56" style="font-family:'Helvetica';font-size:99.99px;fill:#000000" text-anchor="middle">Age (years)</text>
	<text x="1980.00" y="195.01" style="font-family:'Helvetica';font-size:110.01px;fill:#000000" text-anchor="middle">Ethnicity Other</text>
</svg>
