<?xml version="1.0" encoding="UTF-8" standalone="no"?>
<!-- This is a Stata 16.1 generated SVG file (http://www.stata.com) -->

<svg version="1.1" width="1600px" height="1164px" viewBox="0 0 3960 2880" xmlns="http://www.w3.org/2000/svg" xmlns:xlink="http://www.w3.org/1999/xlink">
	<desc>Stata Graph - Graph</desc>
	<rect x="0" y="0" width="3960" height="2880" style="fill:#EAF2F3;stroke:none"/>
	<rect x="0.00" y="0.00" width="3959.88" height="2880.00" style="fill:#EAF2F3"/>
	<rect x="2.88" y="2.88" width="3954.12" height="2874.24" style="fill:none;stroke:#EAF2F3;stroke-width:5.76"/>
	<rect x="401.69" y="402.82" width="1676.81" height="1693.32" style="fill:#FFFFFF"/>
	<rect x="404.14" y="405.27" width="1671.92" height="1688.43" style="fill:none;stroke:#FFFFFF;stroke-width:4.90"/>
	<line x1="401.69" y1="2042.31" x2="2078.51" y2="2042.31" style="stroke:#EAF2F3;stroke-width:7.34"/>
	<line x1="401.69" y1="1820.17" x2="2078.51" y2="1820.17" style="stroke:#EAF2F3;stroke-width:7.34"/>
	<line x1="401.69" y1="1598.03" x2="2078.51" y2="1598.03" style="stroke:#EAF2F3;stroke-width:7.34"/>
	<line x1="401.69" y1="1375.90" x2="2078.51" y2="1375.90" style="stroke:#EAF2F3;stroke-width:7.34"/>
	<line x1="401.69" y1="1153.76" x2="2078.51" y2="1153.76" style="stroke:#EAF2F3;stroke-width:7.34"/>
	<line x1="401.69" y1="931.74" x2="2078.51" y2="931.74" style="stroke:#EAF2F3;stroke-width:7.34"/>
	<rect x="2147.68" y="402.82" width="1676.81" height="1693.32" style="fill:#FFFFFF"/>
	<rect x="2150.13" y="405.27" width="1671.92" height="1688.43" style="fill:none;stroke:#FFFFFF;stroke-width:4.90"/>
	<line x1="2147.68" y1="2042.31" x2="3824.49" y2="2042.31" style="stroke:#EAF2F3;stroke-width:7.34"/>
	<line x1="2147.68" y1="1820.17" x2="3824.49" y2="1820.17" style="stroke:#EAF2F3;stroke-width:7.34"/>
	<line x1="2147.68" y1="1598.03" x2="3824.49" y2="1598.03" style="stroke:#EAF2F3;stroke-width:7.34"/>
	<line x1="2147.68" y1="1375.90" x2="3824.49" y2="1375.90" style="stroke:#EAF2F3;stroke-width:7.34"/>
	<line x1="2147.68" y1="1153.76" x2="3824.49" y2="1153.76" style="stroke:#EAF2F3;stroke-width:7.34"/>
	<line x1="2147.68" y1="931.74" x2="3824.49" y2="931.74" style="stroke:#EAF2F3;stroke-width:7.34"/>
	<defs>
		<path id="path_yycvDHvX" d="M455.52 2042.19 L455.52 2042.19 L480.89 2042.19 L506.14 2042.19 L531.51 2042.19 L556.75 2042.19 L582.12 2042.06 L607.37 2042.06 L632.73 2041.94 L657.98 2041.94 L683.35 2041.82 L708.59 2041.69 L733.96 2041.57 L759.21 2041.44 L784.58 2041.32 L809.82 2041.07 L835.19 2040.95 L860.43 2040.58 L885.80 2040.33 L911.05 2039.96 L936.42 2039.71 L961.66 2039.22 L987.03 2038.84 L1012.27 2038.35 L1037.64 2037.85 L1062.89 2037.24 L1088.26 2036.74 L1113.50 2036.12 L1138.87 2035.50 L1164.24 2034.76 L1189.48 2034.02 L1214.85 2033.15 L1240.10 2032.29 L1265.47 2031.30 L1290.71 2030.31 L1316.08 2029.19 L1341.33 2027.95 L1366.69 2026.72 L1391.94 2025.23 L1417.31 2023.75 L1442.55 2022.01 L1467.92 2020.16 L1493.17 2018.05 L1518.54 2015.70 L1543.78 2013.23 L1569.15 2010.38 L1594.39 2007.16 L1619.76 2003.70 L1645.01 1999.86 L1670.38 1995.41 L1695.62 1990.58 L1720.99 1985.26 L1746.24 1979.20 L1771.61 1972.51 L1796.85 1965.09 L1822.22 1956.80 L1847.46 1947.51 L1872.83 1937.24 L1898.20 1925.73 L1923.45 1912.99 L1948.82 1898.76 L1974.06 1882.92 L1999.43 1865.34 L2024.67 1845.67 L2024.67 1766.96 L1999.43 1794.43 L1974.06 1819.06 L1948.82 1841.21 L1923.45 1861.13 L1898.20 1878.95 L1872.83 1895.04 L1847.46 1909.40 L1822.22 1922.39 L1796.85 1934.03 L1771.61 1944.42 L1746.24 1953.83 L1720.99 1962.24 L1695.62 1969.79 L1670.38 1976.60 L1645.01 1982.66 L1619.76 1988.23 L1594.39 1993.18 L1569.15 1997.51 L1543.78 2001.60 L1518.54 2005.18 L1493.17 2008.40 L1467.92 2011.25 L1442.55 2013.85 L1417.31 2016.20 L1391.94 2018.30 L1366.69 2020.16 L1341.33 2021.89 L1316.08 2023.50 L1290.71 2024.98 L1265.47 2026.35 L1240.10 2027.71 L1214.85 2028.82 L1189.48 2030.06 L1164.24 2031.05 L1138.87 2032.04 L1113.50 2033.03 L1088.26 2033.89 L1062.89 2034.76 L1037.64 2035.50 L1012.27 2036.25 L987.03 2036.86 L961.66 2037.48 L936.42 2038.10 L911.05 2038.60 L885.80 2038.97 L860.43 2039.34 L835.19 2039.71 L809.82 2039.96 L784.58 2040.21 L759.21 2040.45 L733.96 2040.70 L708.59 2040.83 L683.35 2041.07 L657.98 2041.20 L632.73 2041.32 L607.37 2041.44 L582.12 2041.44 L556.75 2041.57 L531.51 2041.69 L506.14 2041.69 L480.89 2041.82 L455.52 2041.82 L455.52 2042.19 Z" stroke-linejoin="round"/>
	</defs>
	<defs>
		<clipPath id="clipPath_QOdKlWAh">
			<use xlink:href="#path_yycvDHvX"/>
		</clipPath>
	</defs>
	<use xlink:href="#path_yycvDHvX" style="stroke:none;fill:#E6E6E6"/>
	<use xlink:href="#path_yycvDHvX" style="fill:none;stroke:#E0E0E0;stroke-width:14.69" clip-path="url(#clipPath_QOdKlWAh)"/>
	<defs>
		<path id="path_FggRTovC" d="M455.52 2042.19 L455.52 2042.19 L480.89 2042.06 L506.14 2042.06 L531.51 2042.06 L556.75 2041.94 L582.12 2041.82 L607.37 2041.82 L632.73 2041.69 L657.98 2041.57 L683.35 2041.32 L708.59 2041.20 L733.96 2040.95 L759.21 2040.58 L784.58 2040.21 L809.82 2039.83 L835.19 2039.34 L860.43 2038.84 L885.80 2038.23 L911.05 2037.48 L936.42 2036.74 L961.66 2035.87 L987.03 2035.01 L1012.27 2034.02 L1037.64 2032.90 L1062.89 2031.79 L1088.26 2030.68 L1113.50 2029.32 L1138.87 2027.95 L1164.24 2026.47 L1189.48 2024.86 L1214.85 2023.13 L1240.10 2021.15 L1265.47 2019.17 L1290.71 2017.06 L1316.08 2014.71 L1341.33 2012.11 L1366.69 2009.39 L1391.94 2006.42 L1417.31 2003.08 L1442.55 1999.49 L1467.92 1995.41 L1493.17 1991.08 L1518.54 1986.13 L1543.78 1980.68 L1569.15 1974.62 L1594.39 1967.93 L1619.76 1960.51 L1645.01 1952.22 L1670.38 1942.94 L1695.62 1932.66 L1720.99 1921.16 L1746.24 1908.41 L1771.61 1894.18 L1796.85 1878.34 L1822.22 1860.64 L1847.46 1840.96 L1872.83 1819.06 L1898.20 1794.55 L1923.45 1767.33 L1948.82 1737.01 L1974.06 1703.35 L1999.43 1665.73 L2024.67 1624.02 L2024.67 1462.65 L1999.43 1520.32 L1974.06 1572.17 L1948.82 1618.70 L1923.45 1660.53 L1898.20 1698.15 L1872.83 1731.81 L1847.46 1762.13 L1822.22 1789.36 L1796.85 1813.86 L1771.61 1835.76 L1746.24 1855.57 L1720.99 1873.26 L1695.62 1889.23 L1670.38 1903.46 L1645.01 1916.33 L1619.76 1927.96 L1594.39 1938.36 L1569.15 1947.64 L1543.78 1956.05 L1518.54 1963.60 L1493.17 1970.29 L1467.92 1976.47 L1442.55 1981.92 L1417.31 1986.87 L1391.94 1991.32 L1366.69 1995.28 L1341.33 1999.00 L1316.08 2002.34 L1290.71 2005.56 L1265.47 2008.40 L1240.10 2011.12 L1214.85 2013.72 L1189.48 2016.20 L1164.24 2018.43 L1138.87 2020.53 L1113.50 2022.51 L1088.26 2024.49 L1062.89 2026.22 L1037.64 2027.83 L1012.27 2029.44 L987.03 2030.80 L961.66 2032.16 L936.42 2033.28 L911.05 2034.27 L885.80 2035.26 L860.43 2036.00 L835.19 2036.74 L809.82 2037.36 L784.58 2037.98 L759.21 2038.47 L733.96 2038.84 L708.59 2039.34 L683.35 2039.59 L657.98 2039.96 L632.73 2040.21 L607.37 2040.45 L582.12 2040.70 L556.75 2040.83 L531.51 2040.95 L506.14 2041.20 L480.89 2041.32 L455.52 2041.32 L455.52 2042.19 Z" stroke-linejoin="round"/>
	</defs>
	<defs>
		<clipPath id="clipPath_gzaiVnIo">
			<use xlink:href="#path_FggRTovC"/>
		</clipPath>
	</defs>
	<use xlink:href="#path_FggRTovC" style="stroke:none;fill:#E6E6E6"/>
	<use xlink:href="#path_FggRTovC" style="fill:none;stroke:#E0E0E0;stroke-width:14.69" clip-path="url(#clipPath_gzaiVnIo)"/>
	<defs>
		<path id="path_VfnhqcwB" d="M455.52 2042.06 L455.52 2042.06 L480.89 2041.94 L506.14 2041.94 L531.51 2041.82 L556.75 2041.69 L582.12 2041.57 L607.37 2041.44 L632.73 2041.20 L657.98 2040.95 L683.35 2040.70 L708.59 2040.33 L733.96 2039.83 L759.21 2039.34 L784.58 2038.72 L809.82 2037.98 L835.19 2037.11 L860.43 2036.12 L885.80 2035.01 L911.05 2033.77 L936.42 2032.41 L961.66 2030.92 L987.03 2029.32 L1012.27 2027.58 L1037.64 2025.73 L1062.89 2023.75 L1088.26 2021.52 L1113.50 2019.29 L1138.87 2016.82 L1164.24 2014.09 L1189.48 2011.25 L1214.85 2008.15 L1240.10 2004.81 L1265.47 2001.22 L1290.71 1997.39 L1316.08 1993.30 L1341.33 1988.72 L1366.69 1983.90 L1391.94 1978.45 L1417.31 1972.64 L1442.55 1966.20 L1467.92 1959.15 L1493.17 1951.23 L1518.54 1942.56 L1543.78 1932.91 L1569.15 1922.15 L1594.39 1910.14 L1619.76 1896.90 L1645.01 1882.17 L1670.38 1865.71 L1695.62 1847.40 L1720.99 1826.98 L1746.24 1804.21 L1771.61 1778.96 L1796.85 1750.62 L1822.22 1719.19 L1847.46 1684.17 L1872.83 1645.06 L1898.20 1601.50 L1923.45 1552.99 L1948.82 1498.91 L1974.06 1438.76 L1999.43 1371.94 L2024.67 1297.44 L2024.67 1012.80 L1999.43 1114.90 L1974.06 1206.72 L1948.82 1289.27 L1923.45 1363.52 L1898.20 1430.10 L1872.83 1490.00 L1847.46 1543.83 L1822.22 1592.22 L1796.85 1635.65 L1771.61 1674.76 L1746.24 1709.78 L1720.99 1741.34 L1695.62 1769.56 L1670.38 1795.05 L1645.01 1817.94 L1619.76 1838.49 L1594.39 1856.93 L1569.15 1873.63 L1543.78 1888.48 L1518.54 1901.97 L1493.17 1913.98 L1467.92 1924.87 L1442.55 1934.64 L1417.31 1943.43 L1391.94 1951.35 L1366.69 1958.53 L1341.33 1965.09 L1316.08 1971.15 L1290.71 1976.72 L1265.47 1981.92 L1240.10 1986.74 L1214.85 1991.32 L1189.48 1995.65 L1164.24 1999.74 L1138.87 2003.45 L1113.50 2007.16 L1088.26 2010.51 L1062.89 2013.72 L1037.64 2016.57 L1012.27 2019.42 L987.03 2021.89 L961.66 2024.12 L936.42 2026.22 L911.05 2028.08 L885.80 2029.69 L860.43 2031.17 L835.19 2032.41 L809.82 2033.65 L784.58 2034.64 L759.21 2035.50 L733.96 2036.25 L708.59 2036.99 L683.35 2037.61 L657.98 2038.10 L632.73 2038.60 L607.37 2038.97 L582.12 2039.34 L556.75 2039.71 L531.51 2039.96 L506.14 2040.21 L480.89 2040.45 L455.52 2040.70 L455.52 2042.06 Z" stroke-linejoin="round"/>
	</defs>
	<defs>
		<clipPath id="clipPath_tjIxmTYs">
			<use xlink:href="#path_VfnhqcwB"/>
		</clipPath>
	</defs>
	<use xlink:href="#path_VfnhqcwB" style="stroke:none;fill:#E6E6E6"/>
	<use xlink:href="#path_VfnhqcwB" style="fill:none;stroke:#E0E0E0;stroke-width:14.69" clip-path="url(#clipPath_tjIxmTYs)"/>
	<line x1="455.52" y1="2011.50" x2="458.37" y2="2011.50" style="stroke:#A0A0A0;stroke-width:7.34"/>
	<line x1="478.54" y1="2011.50" x2="480.77" y2="2011.50" style="stroke:#A0A0A0;stroke-width:7.34"/>
	<line x1="480.77" y1="2011.50" x2="481.39" y2="2011.50" style="stroke:#A0A0A0;stroke-width:7.34"/>
	<line x1="501.56" y1="2011.50" x2="504.40" y2="2011.50" style="stroke:#A0A0A0;stroke-width:7.34"/>
	<line x1="524.58" y1="2011.50" x2="527.42" y2="2011.50" style="stroke:#A0A0A0;stroke-width:7.34"/>
	<line x1="547.59" y1="2011.50" x2="550.44" y2="2011.50" style="stroke:#A0A0A0;stroke-width:7.34"/>
	<line x1="570.61" y1="2011.50" x2="573.58" y2="2011.50" style="stroke:#A0A0A0;stroke-width:7.34"/>
	<line x1="593.75" y1="2011.50" x2="596.60" y2="2011.50" style="stroke:#A0A0A0;stroke-width:7.34"/>
	<line x1="616.77" y1="2011.50" x2="619.62" y2="2011.50" style="stroke:#A0A0A0;stroke-width:7.34"/>
	<line x1="639.79" y1="2011.50" x2="642.63" y2="2011.50" style="stroke:#A0A0A0;stroke-width:7.34"/>
	<line x1="662.80" y1="2011.50" x2="665.65" y2="2011.50" style="stroke:#A0A0A0;stroke-width:7.34"/>
	<line x1="685.82" y1="2011.50" x2="688.67" y2="2011.50" style="stroke:#A0A0A0;stroke-width:7.34"/>
	<line x1="708.84" y1="2011.50" x2="711.69" y2="2011.50" style="stroke:#A0A0A0;stroke-width:7.34"/>
	<line x1="731.86" y1="2011.50" x2="733.84" y2="2011.50" style="stroke:#A0A0A0;stroke-width:7.34"/>
	<line x1="733.84" y1="2011.50" x2="734.70" y2="2011.50" style="stroke:#A0A0A0;stroke-width:7.34"/>
	<line x1="754.88" y1="2011.50" x2="757.72" y2="2011.50" style="stroke:#A0A0A0;stroke-width:7.34"/>
	<line x1="777.89" y1="2011.50" x2="780.74" y2="2011.50" style="stroke:#A0A0A0;stroke-width:7.34"/>
	<line x1="800.91" y1="2011.50" x2="803.88" y2="2011.50" style="stroke:#A0A0A0;stroke-width:7.34"/>
	<line x1="823.93" y1="2011.50" x2="826.90" y2="2011.50" style="stroke:#A0A0A0;stroke-width:7.34"/>
	<line x1="847.07" y1="2011.50" x2="849.91" y2="2011.50" style="stroke:#A0A0A0;stroke-width:7.34"/>
	<line x1="870.09" y1="2011.50" x2="872.93" y2="2011.50" style="stroke:#A0A0A0;stroke-width:7.34"/>
	<line x1="893.10" y1="2011.50" x2="895.95" y2="2011.50" style="stroke:#A0A0A0;stroke-width:7.34"/>
	<line x1="916.12" y1="2011.50" x2="918.97" y2="2011.50" style="stroke:#A0A0A0;stroke-width:7.34"/>
	<line x1="939.14" y1="2011.50" x2="941.99" y2="2011.50" style="stroke:#A0A0A0;stroke-width:7.34"/>
	<line x1="962.16" y1="2011.50" x2="965.00" y2="2011.50" style="stroke:#A0A0A0;stroke-width:7.34"/>
	<line x1="985.17" y1="2011.50" x2="986.91" y2="2011.50" style="stroke:#A0A0A0;stroke-width:7.34"/>
	<line x1="986.91" y1="2011.50" x2="988.02" y2="2011.50" style="stroke:#A0A0A0;stroke-width:7.34"/>
	<line x1="1008.19" y1="2011.50" x2="1011.04" y2="2011.50" style="stroke:#A0A0A0;stroke-width:7.34"/>
	<line x1="1031.21" y1="2011.50" x2="1034.06" y2="2011.50" style="stroke:#A0A0A0;stroke-width:7.34"/>
	<line x1="1054.23" y1="2011.50" x2="1057.20" y2="2011.50" style="stroke:#A0A0A0;stroke-width:7.34"/>
	<line x1="1077.24" y1="2011.50" x2="1080.21" y2="2011.50" style="stroke:#A0A0A0;stroke-width:7.34"/>
	<line x1="1100.38" y1="2011.50" x2="1103.23" y2="2011.50" style="stroke:#A0A0A0;stroke-width:7.34"/>
	<line x1="1123.40" y1="2011.50" x2="1126.25" y2="2011.50" style="stroke:#A0A0A0;stroke-width:7.34"/>
	<line x1="1146.42" y1="2011.50" x2="1149.27" y2="2011.50" style="stroke:#A0A0A0;stroke-width:7.34"/>
	<line x1="1169.44" y1="2011.50" x2="1172.28" y2="2011.50" style="stroke:#A0A0A0;stroke-width:7.34"/>
	<line x1="1192.45" y1="2011.50" x2="1195.30" y2="2011.50" style="stroke:#A0A0A0;stroke-width:7.34"/>
	<line x1="1215.47" y1="2011.50" x2="1218.32" y2="2011.50" style="stroke:#A0A0A0;stroke-width:7.34"/>
	<line x1="1238.49" y1="2011.50" x2="1240.10" y2="2011.50" style="stroke:#A0A0A0;stroke-width:7.34"/>
	<line x1="1240.10" y1="2011.50" x2="1241.34" y2="2011.50" style="stroke:#A0A0A0;stroke-width:7.34"/>
	<line x1="1261.51" y1="2011.50" x2="1264.35" y2="2011.50" style="stroke:#A0A0A0;stroke-width:7.34"/>
	<line x1="1284.53" y1="2011.50" x2="1287.37" y2="2011.50" style="stroke:#A0A0A0;stroke-width:7.34"/>
	<line x1="1307.54" y1="2011.50" x2="1310.51" y2="2011.50" style="stroke:#A0A0A0;stroke-width:7.34"/>
	<line x1="1330.56" y1="2011.50" x2="1333.53" y2="2011.50" style="stroke:#A0A0A0;stroke-width:7.34"/>
	<line x1="1353.70" y1="2011.50" x2="1356.55" y2="2011.50" style="stroke:#A0A0A0;stroke-width:7.34"/>
	<line x1="1376.72" y1="2011.50" x2="1379.57" y2="2011.50" style="stroke:#A0A0A0;stroke-width:7.34"/>
	<line x1="1399.74" y1="2011.50" x2="1402.58" y2="2011.50" style="stroke:#A0A0A0;stroke-width:7.34"/>
	<line x1="1422.75" y1="2011.50" x2="1425.60" y2="2011.50" style="stroke:#A0A0A0;stroke-width:7.34"/>
	<line x1="1445.77" y1="2011.50" x2="1448.62" y2="2011.50" style="stroke:#A0A0A0;stroke-width:7.34"/>
	<line x1="1468.79" y1="2011.50" x2="1471.63" y2="2011.50" style="stroke:#A0A0A0;stroke-width:7.34"/>
	<line x1="1491.81" y1="2011.50" x2="1493.17" y2="2011.50" style="stroke:#A0A0A0;stroke-width:7.34"/>
	<line x1="1493.17" y1="2011.50" x2="1494.65" y2="2011.50" style="stroke:#A0A0A0;stroke-width:7.34"/>
	<line x1="1514.82" y1="2011.50" x2="1517.67" y2="2011.50" style="stroke:#A0A0A0;stroke-width:7.34"/>
	<line x1="1537.84" y1="2011.50" x2="1540.69" y2="2011.50" style="stroke:#A0A0A0;stroke-width:7.34"/>
	<line x1="1560.86" y1="2011.50" x2="1563.83" y2="2011.50" style="stroke:#A0A0A0;stroke-width:7.34"/>
	<line x1="1584.00" y1="2011.50" x2="1586.85" y2="2011.50" style="stroke:#A0A0A0;stroke-width:7.34"/>
	<line x1="1607.02" y1="2011.50" x2="1609.86" y2="2011.50" style="stroke:#A0A0A0;stroke-width:7.34"/>
	<line x1="1630.04" y1="2011.50" x2="1632.88" y2="2011.50" style="stroke:#A0A0A0;stroke-width:7.34"/>
	<line x1="1653.05" y1="2011.50" x2="1655.90" y2="2011.50" style="stroke:#A0A0A0;stroke-width:7.34"/>
	<line x1="1676.07" y1="2011.50" x2="1678.92" y2="2011.50" style="stroke:#A0A0A0;stroke-width:7.34"/>
	<line x1="1699.09" y1="2011.50" x2="1701.93" y2="2011.50" style="stroke:#A0A0A0;stroke-width:7.34"/>
	<line x1="1722.11" y1="2011.50" x2="1724.95" y2="2011.50" style="stroke:#A0A0A0;stroke-width:7.34"/>
	<line x1="1745.12" y1="2011.50" x2="1746.24" y2="2011.50" style="stroke:#A0A0A0;stroke-width:7.34"/>
	<line x1="1746.24" y1="2011.50" x2="1747.97" y2="2011.50" style="stroke:#A0A0A0;stroke-width:7.34"/>
	<line x1="1768.14" y1="2011.50" x2="1770.99" y2="2011.50" style="stroke:#A0A0A0;stroke-width:7.34"/>
	<line x1="1791.16" y1="2011.50" x2="1794.00" y2="2011.50" style="stroke:#A0A0A0;stroke-width:7.34"/>
	<line x1="1814.17" y1="2011.50" x2="1817.14" y2="2011.50" style="stroke:#A0A0A0;stroke-width:7.34"/>
	<line x1="1837.32" y1="2011.50" x2="1840.16" y2="2011.50" style="stroke:#A0A0A0;stroke-width:7.34"/>
	<line x1="1860.33" y1="2011.50" x2="1863.18" y2="2011.50" style="stroke:#A0A0A0;stroke-width:7.34"/>
	<line x1="1883.35" y1="2011.50" x2="1886.20" y2="2011.50" style="stroke:#A0A0A0;stroke-width:7.34"/>
	<line x1="1906.37" y1="2011.50" x2="1909.21" y2="2011.50" style="stroke:#A0A0A0;stroke-width:7.34"/>
	<line x1="1929.39" y1="2011.50" x2="1932.23" y2="2011.50" style="stroke:#A0A0A0;stroke-width:7.34"/>
	<line x1="1952.40" y1="2011.50" x2="1955.25" y2="2011.50" style="stroke:#A0A0A0;stroke-width:7.34"/>
	<line x1="1975.42" y1="2011.50" x2="1978.27" y2="2011.50" style="stroke:#A0A0A0;stroke-width:7.34"/>
	<line x1="1998.44" y1="2011.50" x2="1999.31" y2="2011.50" style="stroke:#A0A0A0;stroke-width:7.34"/>
	<line x1="1999.31" y1="2011.50" x2="2001.29" y2="2011.50" style="stroke:#A0A0A0;stroke-width:7.34"/>
	<line x1="2021.46" y1="2011.50" x2="2024.30" y2="2011.50" style="stroke:#A0A0A0;stroke-width:7.34"/>
	<path d="" stroke-linejoin="round" style="fill:none;stroke:#A0A0A0;stroke-width:7.34"/>
	<path d=" M455.52 2041.94 L480.77 2041.94 L506.14 2041.82 L531.38 2041.82 L556.75 2041.69 L582.00 2041.57 L607.37 2041.44 L632.61 2041.20 L657.98 2041.07 L683.22 2040.83 L708.59 2040.45 L733.84 2040.21 L759.21 2039.83 L784.45 2039.34 L809.82 2038.84 L835.07 2038.35 L860.43 2037.73 L885.68 2036.99 L911.05 2036.25 L936.29 2035.26 L961.66 2034.27 L986.91 2033.28 L1012.27 2032.04 L1037.52 2030.80 L1062.89 2029.44 L1088.13 2027.95 L1113.50 2026.35 L1138.87 2024.61 L1164.12 2022.88 L1189.48 2021.02 L1214.73 2018.92 L1240.10 2016.69 L1265.34 2014.34 L1290.71 2011.87 L1315.96 2009.14 L1341.33 2006.17 L1366.57 2003.08 L1391.94 1999.49 L1417.18 1995.78 L1442.55 1991.45 L1467.80 1986.87 L1493.17 1981.67 L1518.41 1975.85 L1543.78 1969.42 L1569.03 1962.37 L1594.39 1954.44 L1619.64 1945.66 L1645.01 1935.88 L1670.25 1924.99 L1695.62 1912.74 L1720.87 1899.25 L1746.24 1884.28 L1771.48 1867.45 L1796.85 1848.88 L1822.10 1828.09 L1847.46 1804.95 L1872.71 1779.09 L1898.08 1750.37 L1923.45 1718.45 L1948.69 1682.81 L1974.06 1643.08 L1999.31 1599.02 L2024.67 1550.02" stroke-linejoin="round" style="fill:none;stroke:#008000;stroke-width:7.34"/>
	<path d=" M455.52 2041.69 L480.77 2041.57 L506.14 2041.44 L531.38 2041.32 L556.75 2041.07 L582.00 2040.95 L607.37 2040.70 L632.61 2040.33 L657.98 2039.96 L683.22 2039.59 L708.59 2039.09 L733.84 2038.47 L759.21 2037.85 L784.45 2037.11 L809.82 2036.25 L835.07 2035.26 L860.43 2034.14 L885.68 2032.78 L911.05 2031.42 L936.29 2029.81 L961.66 2028.08 L986.91 2026.10 L1012.27 2023.99 L1037.52 2021.77 L1062.89 2019.29 L1088.13 2016.69 L1113.50 2013.85 L1138.87 2010.88 L1164.12 2007.66 L1189.48 2004.32 L1214.73 2000.61 L1240.10 1996.77 L1265.34 1992.56 L1290.71 1988.11 L1315.96 1983.28 L1341.33 1978.08 L1366.57 1972.39 L1391.94 1966.20 L1417.18 1959.39 L1442.55 1951.85 L1467.80 1943.55 L1493.17 1934.27 L1518.41 1924.00 L1543.78 1912.62 L1569.03 1899.99 L1594.39 1885.89 L1619.64 1870.17 L1645.01 1852.72 L1670.25 1833.41 L1695.62 1811.76 L1720.87 1787.75 L1746.24 1761.02 L1771.48 1731.19 L1796.85 1698.03 L1822.10 1661.02 L1847.46 1619.81 L1872.71 1573.90 L1898.08 1522.92 L1923.45 1465.99 L1948.69 1402.63 L1974.06 1332.21 L1999.31 1253.87 L2024.67 1166.63" stroke-linejoin="round" style="fill:none;stroke:#FF7F00;stroke-width:7.34"/>
	<path d=" M455.52 2042.19 L480.77 2042.19 L506.14 2042.06 L531.38 2042.06 L556.75 2042.06 L582.00 2041.94 L607.37 2041.94 L632.61 2041.82 L657.98 2041.69 L683.22 2041.57 L708.59 2041.44 L733.84 2041.32 L759.21 2041.20 L784.45 2040.95 L809.82 2040.70 L835.07 2040.45 L860.43 2040.21 L885.68 2039.83 L911.05 2039.46 L936.29 2038.97 L961.66 2038.60 L986.91 2037.98 L1012.27 2037.48 L1037.52 2036.86 L1062.89 2036.25 L1088.13 2035.50 L1113.50 2034.76 L1138.87 2034.02 L1164.12 2033.15 L1189.48 2032.29 L1214.73 2031.30 L1240.10 2030.31 L1265.34 2029.19 L1290.71 2027.95 L1315.96 2026.72 L1341.33 2025.23 L1366.57 2023.75 L1391.94 2022.14 L1417.18 2020.28 L1442.55 2018.30 L1467.80 2016.07 L1493.17 2013.72 L1518.41 2011.00 L1543.78 2007.91 L1569.03 2004.57 L1594.39 2000.85 L1619.64 1996.64 L1645.01 1992.07 L1670.25 1986.87 L1695.62 1981.18 L1720.87 1974.74 L1746.24 1967.69 L1771.48 1959.77 L1796.85 1950.98 L1822.10 1941.08 L1847.46 1930.19 L1872.71 1917.94 L1898.08 1904.45 L1923.45 1889.35 L1948.69 1872.52 L1974.06 1853.71 L1999.31 1832.92 L2024.67 1809.65" stroke-linejoin="round" style="fill:none;stroke:#1A476F;stroke-width:7.34"/>
	<defs>
		<path id="path_dlkjhSIV" d="M2201.51 2042.19 L2201.51 2042.19 L2226.88 2042.19 L2252.13 2042.19 L2277.49 2042.06 L2302.74 2042.06 L2328.11 2041.94 L2353.35 2041.94 L2378.72 2041.82 L2403.97 2041.69 L2429.34 2041.57 L2454.58 2041.44 L2479.95 2041.32 L2505.20 2041.07 L2530.56 2040.83 L2555.81 2040.45 L2581.18 2040.08 L2606.42 2039.71 L2631.79 2039.34 L2657.04 2038.72 L2682.41 2038.23 L2707.65 2037.61 L2733.02 2036.86 L2758.26 2036.25 L2783.63 2035.38 L2808.88 2034.64 L2834.25 2033.65 L2859.49 2032.78 L2884.86 2031.79 L2910.11 2030.68 L2935.47 2029.44 L2960.72 2028.20 L2986.09 2026.84 L3011.46 2025.36 L3036.70 2023.75 L3062.07 2022.01 L3087.32 2020.16 L3112.68 2018.18 L3137.93 2016.07 L3163.30 2013.60 L3188.54 2011.00 L3213.91 2008.15 L3239.16 2004.94 L3264.53 2001.35 L3289.77 1997.39 L3315.14 1993.06 L3340.38 1988.11 L3365.75 1982.78 L3391.00 1976.72 L3416.37 1970.04 L3441.61 1962.61 L3466.98 1954.32 L3492.22 1945.04 L3517.59 1934.77 L3542.84 1923.26 L3568.21 1910.51 L3593.45 1896.28 L3618.82 1880.32 L3644.07 1862.74 L3669.43 1843.07 L3694.68 1821.04 L3720.05 1796.66 L3745.42 1769.56 L3770.66 1739.48 L3770.66 1617.22 L3745.42 1659.66 L3720.05 1697.66 L3694.68 1731.94 L3669.43 1762.63 L3644.07 1790.35 L3618.82 1815.10 L3593.45 1837.37 L3568.21 1857.30 L3542.84 1875.24 L3517.59 1891.33 L3492.22 1905.81 L3466.98 1918.80 L3441.61 1930.56 L3416.37 1940.96 L3391.00 1950.48 L3365.75 1958.90 L3340.38 1966.45 L3315.14 1973.38 L3289.77 1979.44 L3264.53 1985.01 L3239.16 1989.96 L3213.91 1994.42 L3188.54 1998.38 L3163.30 2001.97 L3137.93 2005.31 L3112.68 2008.15 L3087.32 2010.88 L3062.07 2013.35 L3036.70 2015.70 L3011.46 2017.81 L2986.09 2019.79 L2960.72 2021.64 L2935.47 2023.38 L2910.11 2024.98 L2884.86 2026.59 L2859.49 2028.08 L2834.25 2029.44 L2808.88 2030.68 L2783.63 2031.91 L2758.26 2033.03 L2733.02 2034.02 L2707.65 2034.88 L2682.41 2035.75 L2657.04 2036.49 L2631.79 2037.24 L2606.42 2037.73 L2581.18 2038.35 L2555.81 2038.72 L2530.56 2039.09 L2505.20 2039.46 L2479.95 2039.83 L2454.58 2040.08 L2429.34 2040.33 L2403.97 2040.58 L2378.72 2040.83 L2353.35 2040.95 L2328.11 2041.07 L2302.74 2041.20 L2277.49 2041.32 L2252.13 2041.44 L2226.88 2041.57 L2201.51 2041.57 L2201.51 2042.19 Z" stroke-linejoin="round"/>
	</defs>
	<defs>
		<clipPath id="clipPath_DujbfHdg">
			<use xlink:href="#path_dlkjhSIV"/>
		</clipPath>
	</defs>
	<use xlink:href="#path_dlkjhSIV" style="stroke:none;fill:#E6E6E6"/>
	<use xlink:href="#path_dlkjhSIV" style="fill:none;stroke:#E0E0E0;stroke-width:14.69" clip-path="url(#clipPath_DujbfHdg)"/>
	<defs>
		<path id="path_BLuNSdDP" d="M2201.51 2042.06 L2201.51 2042.06 L2226.88 2042.06 L2252.13 2041.94 L2277.49 2041.82 L2302.74 2041.82 L2328.11 2041.69 L2353.35 2041.57 L2378.72 2041.32 L2403.97 2041.07 L2429.34 2040.83 L2454.58 2040.58 L2479.95 2040.21 L2505.20 2039.71 L2530.56 2039.22 L2555.81 2038.47 L2581.18 2037.85 L2606.42 2036.99 L2631.79 2036.00 L2657.04 2034.88 L2682.41 2033.77 L2707.65 2032.41 L2733.02 2031.05 L2758.26 2029.56 L2783.63 2027.95 L2808.88 2026.10 L2834.25 2024.24 L2859.49 2022.26 L2884.86 2020.16 L2910.11 2017.81 L2935.47 2015.33 L2960.72 2012.61 L2986.09 2009.76 L3011.46 2006.67 L3036.70 2003.33 L3062.07 1999.61 L3087.32 1995.78 L3112.68 1991.45 L3137.93 1986.87 L3163.30 1981.67 L3188.54 1976.10 L3213.91 1969.91 L3239.16 1963.11 L3264.53 1955.56 L3289.77 1947.14 L3315.14 1937.86 L3340.38 1927.47 L3365.75 1915.96 L3391.00 1903.21 L3416.37 1888.86 L3441.61 1873.01 L3466.98 1855.32 L3492.22 1835.64 L3517.59 1813.74 L3542.84 1789.23 L3568.21 1762.01 L3593.45 1731.69 L3618.82 1697.90 L3644.07 1660.28 L3669.43 1618.33 L3694.68 1571.67 L3720.05 1519.70 L3745.42 1461.90 L3770.66 1397.68 L3770.66 1148.31 L3745.42 1237.29 L3720.05 1317.24 L3694.68 1389.01 L3669.43 1453.61 L3644.07 1511.65 L3618.82 1563.63 L3593.45 1610.41 L3568.21 1652.49 L3542.84 1690.23 L3517.59 1724.02 L3492.22 1754.46 L3466.98 1781.81 L3441.61 1806.44 L3416.37 1828.46 L3391.00 1848.26 L3365.75 1866.08 L3340.38 1882.05 L3315.14 1896.40 L3289.77 1909.40 L3264.53 1921.03 L3239.16 1931.43 L3213.91 1940.83 L3188.54 1949.25 L3163.30 1956.80 L3137.93 1963.73 L3112.68 1969.91 L3087.32 1975.61 L3062.07 1980.80 L3036.70 1985.63 L3011.46 1990.21 L2986.09 1994.29 L2960.72 1998.25 L2935.47 2001.97 L2910.11 2005.43 L2884.86 2008.77 L2859.49 2011.87 L2834.25 2014.84 L2808.88 2017.56 L2783.63 2020.16 L2758.26 2022.51 L2733.02 2024.61 L2707.65 2026.59 L2682.41 2028.45 L2657.04 2030.06 L2631.79 2031.42 L2606.42 2032.66 L2581.18 2033.77 L2555.81 2034.76 L2530.56 2035.63 L2505.20 2036.37 L2479.95 2037.11 L2454.58 2037.61 L2429.34 2038.23 L2403.97 2038.60 L2378.72 2039.09 L2353.35 2039.46 L2328.11 2039.71 L2302.74 2040.08 L2277.49 2040.33 L2252.13 2040.45 L2226.88 2040.70 L2201.51 2040.95 L2201.51 2042.06 Z" stroke-linejoin="round"/>
	</defs>
	<defs>
		<clipPath id="clipPath_gZVZvnEI">
			<use xlink:href="#path_BLuNSdDP"/>
		</clipPath>
	</defs>
	<use xlink:href="#path_BLuNSdDP" style="stroke:none;fill:#E6E6E6"/>
	<use xlink:href="#path_BLuNSdDP" style="fill:none;stroke:#E0E0E0;stroke-width:14.69" clip-path="url(#clipPath_gZVZvnEI)"/>
	<defs>
		<path id="path_xedTFWTk" d="M2201.51 2041.94 L2201.51 2041.94 L2226.88 2041.82 L2252.13 2041.69 L2277.49 2041.57 L2302.74 2041.44 L2328.11 2041.20 L2353.35 2040.95 L2378.72 2040.58 L2403.97 2040.21 L2429.34 2039.71 L2454.58 2039.22 L2479.95 2038.47 L2505.20 2037.73 L2530.56 2036.74 L2555.81 2035.63 L2581.18 2034.27 L2606.42 2032.78 L2631.79 2031.17 L2657.04 2029.19 L2682.41 2027.09 L2707.65 2024.86 L2733.02 2022.26 L2758.26 2019.66 L2783.63 2016.69 L2808.88 2013.60 L2834.25 2010.26 L2859.49 2006.67 L2884.86 2002.83 L2910.11 1998.75 L2935.47 1994.29 L2960.72 1989.59 L2986.09 1984.39 L3011.46 1978.95 L3036.70 1973.01 L3062.07 1966.57 L3087.32 1959.52 L3112.68 1951.97 L3137.93 1943.68 L3163.30 1934.64 L3188.54 1924.74 L3213.91 1913.73 L3239.16 1901.60 L3264.53 1888.11 L3289.77 1873.14 L3315.14 1856.56 L3340.38 1838.12 L3365.75 1817.57 L3391.00 1794.80 L3416.37 1769.43 L3441.61 1741.09 L3466.98 1709.66 L3492.22 1674.51 L3517.59 1635.41 L3542.84 1591.85 L3568.21 1543.33 L3593.45 1489.25 L3618.82 1428.99 L3644.07 1361.91 L3669.43 1287.16 L3694.68 1203.88 L3720.05 1111.31 L3745.42 1008.35 L3770.66 893.75 L3770.66 456.65 L3745.42 613.94 L3720.05 755.39 L3694.68 882.61 L3669.43 996.84 L3644.07 1099.55 L3618.82 1191.87 L3593.45 1274.79 L3568.21 1349.29 L3542.84 1416.24 L3517.59 1476.38 L3492.22 1530.34 L3466.98 1578.85 L3441.61 1622.54 L3416.37 1661.64 L3391.00 1696.91 L3365.75 1728.59 L3340.38 1757.06 L3315.14 1782.55 L3289.77 1805.57 L3264.53 1826.24 L3239.16 1844.80 L3213.91 1861.51 L3188.54 1876.60 L3163.30 1890.09 L3137.93 1902.22 L3112.68 1913.36 L3087.32 1923.51 L3062.07 1932.79 L3036.70 1941.33 L3011.46 1949.37 L2986.09 1956.80 L2960.72 1963.85 L2935.47 1970.41 L2910.11 1976.72 L2884.86 1982.54 L2859.49 1988.11 L2834.25 1993.30 L2808.88 1998.25 L2783.63 2002.71 L2758.26 2006.92 L2733.02 2010.88 L2707.65 2014.34 L2682.41 2017.56 L2657.04 2020.41 L2631.79 2023.00 L2606.42 2025.11 L2581.18 2027.09 L2555.81 2028.94 L2530.56 2030.43 L2505.20 2031.79 L2479.95 2033.03 L2454.58 2034.02 L2429.34 2035.01 L2403.97 2035.87 L2378.72 2036.49 L2353.35 2037.24 L2328.11 2037.73 L2302.74 2038.35 L2277.49 2038.72 L2252.13 2039.09 L2226.88 2039.46 L2201.51 2039.83 L2201.51 2041.94 Z" stroke-linejoin="round"/>
	</defs>
	<defs>
		<clipPath id="clipPath_waqMYKBi">
			<use xlink:href="#path_xedTFWTk"/>
		</clipPath>
	</defs>
	<use xlink:href="#path_xedTFWTk" style="stroke:none;fill:#E6E6E6"/>
	<use xlink:href="#path_xedTFWTk" style="fill:none;stroke:#E0E0E0;stroke-width:14.69" clip-path="url(#clipPath_waqMYKBi)"/>
	<line x1="2201.39" y1="1994.79" x2="2204.24" y2="1994.79" style="stroke:#A0A0A0;stroke-width:7.34"/>
	<line x1="2224.41" y1="1994.79" x2="2226.76" y2="1994.79" style="stroke:#A0A0A0;stroke-width:7.34"/>
	<line x1="2226.76" y1="1994.79" x2="2227.25" y2="1994.79" style="stroke:#A0A0A0;stroke-width:7.34"/>
	<line x1="2247.42" y1="1994.79" x2="2250.27" y2="1994.79" style="stroke:#A0A0A0;stroke-width:7.34"/>
	<line x1="2270.44" y1="1994.79" x2="2273.29" y2="1994.79" style="stroke:#A0A0A0;stroke-width:7.34"/>
	<line x1="2293.46" y1="1994.79" x2="2296.43" y2="1994.79" style="stroke:#A0A0A0;stroke-width:7.34"/>
	<line x1="2316.60" y1="1994.79" x2="2319.45" y2="1994.79" style="stroke:#A0A0A0;stroke-width:7.34"/>
	<line x1="2339.62" y1="1994.79" x2="2342.46" y2="1994.79" style="stroke:#A0A0A0;stroke-width:7.34"/>
	<line x1="2362.64" y1="1994.79" x2="2365.48" y2="1994.79" style="stroke:#A0A0A0;stroke-width:7.34"/>
	<line x1="2385.65" y1="1994.79" x2="2388.50" y2="1994.79" style="stroke:#A0A0A0;stroke-width:7.34"/>
	<line x1="2408.67" y1="1994.79" x2="2411.52" y2="1994.79" style="stroke:#A0A0A0;stroke-width:7.34"/>
	<line x1="2431.69" y1="1994.79" x2="2434.53" y2="1994.79" style="stroke:#A0A0A0;stroke-width:7.34"/>
	<line x1="2454.70" y1="1994.79" x2="2457.55" y2="1994.79" style="stroke:#A0A0A0;stroke-width:7.34"/>
	<line x1="2477.72" y1="1994.79" x2="2479.83" y2="1994.79" style="stroke:#A0A0A0;stroke-width:7.34"/>
	<line x1="2479.83" y1="1994.79" x2="2480.57" y2="1994.79" style="stroke:#A0A0A0;stroke-width:7.34"/>
	<line x1="2500.74" y1="1994.79" x2="2503.59" y2="1994.79" style="stroke:#A0A0A0;stroke-width:7.34"/>
	<line x1="2523.76" y1="1994.79" x2="2526.60" y2="1994.79" style="stroke:#A0A0A0;stroke-width:7.34"/>
	<line x1="2546.78" y1="1994.79" x2="2549.74" y2="1994.79" style="stroke:#A0A0A0;stroke-width:7.34"/>
	<line x1="2569.92" y1="1994.79" x2="2572.76" y2="1994.79" style="stroke:#A0A0A0;stroke-width:7.34"/>
	<line x1="2592.93" y1="1994.79" x2="2595.78" y2="1994.79" style="stroke:#A0A0A0;stroke-width:7.34"/>
	<line x1="2615.95" y1="1994.79" x2="2618.80" y2="1994.79" style="stroke:#A0A0A0;stroke-width:7.34"/>
	<line x1="2638.97" y1="1994.79" x2="2641.82" y2="1994.79" style="stroke:#A0A0A0;stroke-width:7.34"/>
	<line x1="2661.99" y1="1994.79" x2="2664.83" y2="1994.79" style="stroke:#A0A0A0;stroke-width:7.34"/>
	<line x1="2685.00" y1="1994.79" x2="2687.85" y2="1994.79" style="stroke:#A0A0A0;stroke-width:7.34"/>
	<line x1="2708.02" y1="1994.79" x2="2710.87" y2="1994.79" style="stroke:#A0A0A0;stroke-width:7.34"/>
	<line x1="2731.04" y1="1994.79" x2="2732.89" y2="1994.79" style="stroke:#A0A0A0;stroke-width:7.34"/>
	<line x1="2732.89" y1="1994.79" x2="2733.89" y2="1994.79" style="stroke:#A0A0A0;stroke-width:7.34"/>
	<line x1="2754.06" y1="1994.79" x2="2756.90" y2="1994.79" style="stroke:#A0A0A0;stroke-width:7.34"/>
	<line x1="2777.07" y1="1994.79" x2="2779.92" y2="1994.79" style="stroke:#A0A0A0;stroke-width:7.34"/>
	<line x1="2800.09" y1="1994.79" x2="2803.06" y2="1994.79" style="stroke:#A0A0A0;stroke-width:7.34"/>
	<line x1="2823.23" y1="1994.79" x2="2826.08" y2="1994.79" style="stroke:#A0A0A0;stroke-width:7.34"/>
	<line x1="2846.25" y1="1994.79" x2="2849.10" y2="1994.79" style="stroke:#A0A0A0;stroke-width:7.34"/>
	<line x1="2869.27" y1="1994.79" x2="2872.11" y2="1994.79" style="stroke:#A0A0A0;stroke-width:7.34"/>
	<line x1="2892.28" y1="1994.79" x2="2895.13" y2="1994.79" style="stroke:#A0A0A0;stroke-width:7.34"/>
	<line x1="2915.30" y1="1994.79" x2="2918.15" y2="1994.79" style="stroke:#A0A0A0;stroke-width:7.34"/>
	<line x1="2938.32" y1="1994.79" x2="2941.17" y2="1994.79" style="stroke:#A0A0A0;stroke-width:7.34"/>
	<line x1="2961.34" y1="1994.79" x2="2964.18" y2="1994.79" style="stroke:#A0A0A0;stroke-width:7.34"/>
	<line x1="2984.36" y1="1994.79" x2="2986.09" y2="1994.79" style="stroke:#A0A0A0;stroke-width:7.34"/>
	<line x1="2986.09" y1="1994.79" x2="2987.20" y2="1994.79" style="stroke:#A0A0A0;stroke-width:7.34"/>
	<line x1="3007.37" y1="1994.79" x2="3010.22" y2="1994.79" style="stroke:#A0A0A0;stroke-width:7.34"/>
	<line x1="3030.39" y1="1994.79" x2="3033.36" y2="1994.79" style="stroke:#A0A0A0;stroke-width:7.34"/>
	<line x1="3053.41" y1="1994.79" x2="3056.38" y2="1994.79" style="stroke:#A0A0A0;stroke-width:7.34"/>
	<line x1="3076.55" y1="1994.79" x2="3079.39" y2="1994.79" style="stroke:#A0A0A0;stroke-width:7.34"/>
	<line x1="3099.57" y1="1994.79" x2="3102.41" y2="1994.79" style="stroke:#A0A0A0;stroke-width:7.34"/>
	<line x1="3122.58" y1="1994.79" x2="3125.43" y2="1994.79" style="stroke:#A0A0A0;stroke-width:7.34"/>
	<line x1="3145.60" y1="1994.79" x2="3148.45" y2="1994.79" style="stroke:#A0A0A0;stroke-width:7.34"/>
	<line x1="3168.62" y1="1994.79" x2="3171.47" y2="1994.79" style="stroke:#A0A0A0;stroke-width:7.34"/>
	<line x1="3191.64" y1="1994.79" x2="3194.48" y2="1994.79" style="stroke:#A0A0A0;stroke-width:7.34"/>
	<line x1="3214.65" y1="1994.79" x2="3217.50" y2="1994.79" style="stroke:#A0A0A0;stroke-width:7.34"/>
	<line x1="3237.67" y1="1994.79" x2="3239.16" y2="1994.79" style="stroke:#A0A0A0;stroke-width:7.34"/>
	<line x1="3239.16" y1="1994.79" x2="3240.52" y2="1994.79" style="stroke:#A0A0A0;stroke-width:7.34"/>
	<line x1="3260.69" y1="1994.79" x2="3263.53" y2="1994.79" style="stroke:#A0A0A0;stroke-width:7.34"/>
	<line x1="3283.71" y1="1994.79" x2="3286.68" y2="1994.79" style="stroke:#A0A0A0;stroke-width:7.34"/>
	<line x1="3306.72" y1="1994.79" x2="3309.69" y2="1994.79" style="stroke:#A0A0A0;stroke-width:7.34"/>
	<line x1="3329.86" y1="1994.79" x2="3332.71" y2="1994.79" style="stroke:#A0A0A0;stroke-width:7.34"/>
	<line x1="3352.88" y1="1994.79" x2="3355.73" y2="1994.79" style="stroke:#A0A0A0;stroke-width:7.34"/>
	<line x1="3375.90" y1="1994.79" x2="3378.75" y2="1994.79" style="stroke:#A0A0A0;stroke-width:7.34"/>
	<line x1="3398.92" y1="1994.79" x2="3401.76" y2="1994.79" style="stroke:#A0A0A0;stroke-width:7.34"/>
	<line x1="3421.93" y1="1994.79" x2="3424.78" y2="1994.79" style="stroke:#A0A0A0;stroke-width:7.34"/>
	<line x1="3444.95" y1="1994.79" x2="3447.80" y2="1994.79" style="stroke:#A0A0A0;stroke-width:7.34"/>
	<line x1="3467.97" y1="1994.79" x2="3470.82" y2="1994.79" style="stroke:#A0A0A0;stroke-width:7.34"/>
	<line x1="3490.99" y1="1994.79" x2="3492.22" y2="1994.79" style="stroke:#A0A0A0;stroke-width:7.34"/>
	<line x1="3492.22" y1="1994.79" x2="3493.83" y2="1994.79" style="stroke:#A0A0A0;stroke-width:7.34"/>
	<line x1="3514.01" y1="1994.79" x2="3516.85" y2="1994.79" style="stroke:#A0A0A0;stroke-width:7.34"/>
	<line x1="3537.02" y1="1994.79" x2="3539.99" y2="1994.79" style="stroke:#A0A0A0;stroke-width:7.34"/>
	<line x1="3560.04" y1="1994.79" x2="3563.01" y2="1994.79" style="stroke:#A0A0A0;stroke-width:7.34"/>
	<line x1="3583.18" y1="1994.79" x2="3586.03" y2="1994.79" style="stroke:#A0A0A0;stroke-width:7.34"/>
	<line x1="3606.20" y1="1994.79" x2="3609.05" y2="1994.79" style="stroke:#A0A0A0;stroke-width:7.34"/>
	<line x1="3629.22" y1="1994.79" x2="3632.06" y2="1994.79" style="stroke:#A0A0A0;stroke-width:7.34"/>
	<line x1="3652.23" y1="1994.79" x2="3655.08" y2="1994.79" style="stroke:#A0A0A0;stroke-width:7.34"/>
	<line x1="3675.25" y1="1994.79" x2="3678.10" y2="1994.79" style="stroke:#A0A0A0;stroke-width:7.34"/>
	<line x1="3698.27" y1="1994.79" x2="3701.11" y2="1994.79" style="stroke:#A0A0A0;stroke-width:7.34"/>
	<line x1="3721.29" y1="1994.79" x2="3724.13" y2="1994.79" style="stroke:#A0A0A0;stroke-width:7.34"/>
	<line x1="3744.30" y1="1994.79" x2="3745.29" y2="1994.79" style="stroke:#A0A0A0;stroke-width:7.34"/>
	<line x1="3745.29" y1="1994.79" x2="3747.15" y2="1994.79" style="stroke:#A0A0A0;stroke-width:7.34"/>
	<line x1="3767.32" y1="1994.79" x2="3770.17" y2="1994.79" style="stroke:#A0A0A0;stroke-width:7.34"/>
	<path d="" stroke-linejoin="round" style="fill:none;stroke:#A0A0A0;stroke-width:7.34"/>
	<path d=" M2201.39 2041.82 L2226.76 2041.69 L2252.13 2041.57 L2277.37 2041.44 L2302.74 2041.32 L2327.99 2041.07 L2353.35 2040.83 L2378.60 2040.58 L2403.97 2040.33 L2429.21 2039.96 L2454.58 2039.46 L2479.83 2038.97 L2505.20 2038.47 L2530.44 2037.73 L2555.81 2036.99 L2581.05 2036.12 L2606.42 2035.13 L2631.67 2034.14 L2657.04 2032.90 L2682.28 2031.42 L2707.65 2029.93 L2732.89 2028.33 L2758.26 2026.47 L2783.51 2024.49 L2808.88 2022.39 L2834.12 2020.16 L2859.49 2017.68 L2884.74 2015.08 L2910.11 2012.36 L2935.35 2009.39 L2960.72 2006.17 L2986.09 2002.83 L3011.33 1999.24 L3036.70 1995.41 L3061.95 1991.20 L3087.32 1986.62 L3112.56 1981.67 L3137.93 1976.35 L3163.17 1970.41 L3188.54 1963.97 L3213.79 1956.67 L3239.16 1948.63 L3264.40 1939.84 L3289.77 1929.94 L3315.01 1918.93 L3340.38 1906.68 L3365.63 1893.19 L3391.00 1878.09 L3416.24 1861.26 L3441.61 1842.57 L3466.86 1821.66 L3492.22 1798.51 L3517.47 1772.65 L3542.84 1743.82 L3568.08 1711.76 L3593.45 1676.12 L3618.70 1636.40 L3644.07 1592.09 L3669.31 1542.72 L3694.68 1487.89 L3719.93 1426.76 L3745.29 1358.82 L3770.66 1283.20" stroke-linejoin="round" style="fill:none;stroke:#008000;stroke-width:7.34"/>
	<path d=" M2201.39 2041.44 L2226.76 2041.20 L2252.13 2040.95 L2277.37 2040.70 L2302.74 2040.45 L2327.99 2040.08 L2353.35 2039.71 L2378.60 2039.22 L2403.97 2038.72 L2429.21 2038.10 L2454.58 2037.24 L2479.83 2036.37 L2505.20 2035.38 L2530.44 2034.27 L2555.81 2032.90 L2581.05 2031.30 L2606.42 2029.56 L2631.67 2027.71 L2657.04 2025.48 L2682.28 2023.00 L2707.65 2020.28 L2732.89 2017.31 L2758.26 2014.09 L2783.51 2010.51 L2808.88 2006.79 L2834.12 2002.71 L2859.49 1998.50 L2884.74 1993.80 L2910.11 1988.97 L2935.35 1983.65 L2960.72 1978.08 L2986.09 1972.02 L3011.33 1965.58 L3036.70 1958.65 L3061.95 1951.23 L3087.32 1943.18 L3112.56 1934.40 L3137.93 1924.87 L3163.17 1914.35 L3188.54 1902.72 L3213.79 1889.97 L3239.16 1875.61 L3264.40 1859.77 L3289.77 1842.20 L3315.01 1822.77 L3340.38 1800.99 L3365.63 1776.86 L3391.00 1750.00 L3416.24 1720.06 L3441.61 1686.77 L3466.86 1649.76 L3492.22 1608.43 L3517.47 1562.52 L3542.84 1511.28 L3568.08 1454.36 L3593.45 1390.87 L3618.70 1320.21 L3644.07 1241.50 L3669.31 1153.76 L3694.68 1056.24 L3719.93 947.71 L3745.29 827.05 L3770.66 692.77" stroke-linejoin="round" style="fill:none;stroke:#FF7F00;stroke-width:7.34"/>
	<path d=" M2201.39 2042.06 L2226.76 2042.06 L2252.13 2041.94 L2277.37 2041.94 L2302.74 2041.82 L2327.99 2041.69 L2353.35 2041.69 L2378.60 2041.57 L2403.97 2041.32 L2429.21 2041.20 L2454.58 2040.95 L2479.83 2040.83 L2505.20 2040.45 L2530.44 2040.21 L2555.81 2039.83 L2581.05 2039.46 L2606.42 2038.97 L2631.67 2038.47 L2657.04 2037.85 L2682.28 2037.24 L2707.65 2036.49 L2732.89 2035.75 L2758.26 2034.88 L2783.51 2033.89 L2808.88 2032.90 L2834.12 2031.79 L2859.49 2030.68 L2884.74 2029.44 L2910.11 2028.20 L2935.35 2026.72 L2960.72 2025.23 L2986.09 2023.75 L3011.33 2022.01 L3036.70 2020.16 L3061.95 2018.18 L3087.32 2016.07 L3112.56 2013.72 L3137.93 2011.12 L3163.17 2008.40 L3188.54 2005.31 L3213.79 2001.84 L3239.16 1998.13 L3264.40 1993.92 L3289.77 1989.22 L3315.01 1984.02 L3340.38 1978.33 L3365.63 1971.89 L3391.00 1964.72 L3416.24 1956.80 L3441.61 1948.01 L3466.86 1938.11 L3492.22 1927.22 L3517.47 1914.97 L3542.84 1901.35 L3568.08 1886.26 L3593.45 1869.30 L3618.70 1850.49 L3644.07 1829.58 L3669.31 1806.31 L3694.68 1780.32 L3719.93 1751.49 L3745.29 1719.31 L3770.66 1683.55" stroke-linejoin="round" style="fill:none;stroke:#1A476F;stroke-width:7.34"/>
	<line x1="401.69" y1="2096.14" x2="401.69" y2="402.82" style="stroke:#000000;stroke-width:4.90"/>
	<line x1="401.69" y1="2042.31" x2="367.66" y2="2042.31" style="stroke:#000000;stroke-width:4.90"/>
	<text x="350.71" y="2072.10" style="font-family:'Helvetica';font-size:85.02px;fill:#000000" text-anchor="end">0</text>
	<line x1="401.69" y1="1820.17" x2="367.66" y2="1820.17" style="stroke:#000000;stroke-width:4.90"/>
	<text x="350.71" y="1849.96" style="font-family:'Helvetica';font-size:85.02px;fill:#000000" text-anchor="end">.001</text>
	<line x1="401.69" y1="1598.03" x2="367.66" y2="1598.03" style="stroke:#000000;stroke-width:4.90"/>
	<text x="350.71" y="1627.82" style="font-family:'Helvetica';font-size:85.02px;fill:#000000" text-anchor="end">.002</text>
	<line x1="401.69" y1="1375.90" x2="367.66" y2="1375.90" style="stroke:#000000;stroke-width:4.90"/>
	<text x="350.71" y="1405.68" style="font-family:'Helvetica';font-size:85.02px;fill:#000000" text-anchor="end">.003</text>
	<line x1="401.69" y1="1153.76" x2="367.66" y2="1153.76" style="stroke:#000000;stroke-width:4.90"/>
	<text x="350.71" y="1183.54" style="font-family:'Helvetica';font-size:85.02px;fill:#000000" text-anchor="end">.004</text>
	<line x1="401.69" y1="931.74" x2="367.66" y2="931.74" style="stroke:#000000;stroke-width:4.90"/>
	<text x="350.71" y="961.53" style="font-family:'Helvetica';font-size:85.02px;fill:#000000" text-anchor="end">.005</text>
	<line x1="401.69" y1="2096.14" x2="2078.51" y2="2096.14" style="stroke:#000000;stroke-width:4.90"/>
	<line x1="506.14" y1="2096.14" x2="506.14" y2="2113.10" style="stroke:#000000;stroke-width:4.90"/>
	<line x1="632.73" y1="2096.14" x2="632.73" y2="2113.10" style="stroke:#000000;stroke-width:4.90"/>
	<line x1="759.21" y1="2096.14" x2="759.21" y2="2113.10" style="stroke:#000000;stroke-width:4.90"/>
	<line x1="885.80" y1="2096.14" x2="885.80" y2="2113.10" style="stroke:#000000;stroke-width:4.90"/>
	<line x1="1012.27" y1="2096.14" x2="1012.27" y2="2113.10" style="stroke:#000000;stroke-width:4.90"/>
	<line x1="1138.87" y1="2096.14" x2="1138.87" y2="2113.10" style="stroke:#000000;stroke-width:4.90"/>
	<line x1="1265.47" y1="2096.14" x2="1265.47" y2="2113.10" style="stroke:#000000;stroke-width:4.90"/>
	<line x1="1391.94" y1="2096.14" x2="1391.94" y2="2113.10" style="stroke:#000000;stroke-width:4.90"/>
	<line x1="1518.54" y1="2096.14" x2="1518.54" y2="2113.10" style="stroke:#000000;stroke-width:4.90"/>
	<line x1="1645.01" y1="2096.14" x2="1645.01" y2="2113.10" style="stroke:#000000;stroke-width:4.90"/>
	<line x1="1771.61" y1="2096.14" x2="1771.61" y2="2113.10" style="stroke:#000000;stroke-width:4.90"/>
	<line x1="1898.20" y1="2096.14" x2="1898.20" y2="2113.10" style="stroke:#000000;stroke-width:4.90"/>
	<line x1="2024.67" y1="2096.14" x2="2024.67" y2="2113.10" style="stroke:#000000;stroke-width:4.90"/>
	<line x1="506.14" y1="2096.14" x2="506.14" y2="2130.18" style="stroke:#000000;stroke-width:4.90"/>
	<text x="506.14" y="2206.58" style="font-family:'Helvetica';font-size:85.02px;fill:#000000" text-anchor="middle">20</text>
	<line x1="1012.27" y1="2096.14" x2="1012.27" y2="2130.18" style="stroke:#000000;stroke-width:4.90"/>
	<text x="1012.27" y="2206.58" style="font-family:'Helvetica';font-size:85.02px;fill:#000000" text-anchor="middle">40</text>
	<line x1="1518.54" y1="2096.14" x2="1518.54" y2="2130.18" style="stroke:#000000;stroke-width:4.90"/>
	<text x="1518.54" y="2206.58" style="font-family:'Helvetica';font-size:85.02px;fill:#000000" text-anchor="middle">60</text>
	<line x1="2024.67" y1="2096.14" x2="2024.67" y2="2130.18" style="stroke:#000000;stroke-width:4.90"/>
	<text x="2024.67" y="2206.58" style="font-family:'Helvetica';font-size:85.02px;fill:#000000" text-anchor="middle">80</text>
	<line x1="2147.68" y1="2096.14" x2="3824.49" y2="2096.14" style="stroke:#000000;stroke-width:4.90"/>
	<line x1="2252.13" y1="2096.14" x2="2252.13" y2="2113.10" style="stroke:#000000;stroke-width:4.90"/>
	<line x1="2378.72" y1="2096.14" x2="2378.72" y2="2113.10" style="stroke:#000000;stroke-width:4.90"/>
	<line x1="2505.20" y1="2096.14" x2="2505.20" y2="2113.10" style="stroke:#000000;stroke-width:4.90"/>
	<line x1="2631.79" y1="2096.14" x2="2631.79" y2="2113.10" style="stroke:#000000;stroke-width:4.90"/>
	<line x1="2758.26" y1="2096.14" x2="2758.26" y2="2113.10" style="stroke:#000000;stroke-width:4.90"/>
	<line x1="2884.86" y1="2096.14" x2="2884.86" y2="2113.10" style="stroke:#000000;stroke-width:4.90"/>
	<line x1="3011.46" y1="2096.14" x2="3011.46" y2="2113.10" style="stroke:#000000;stroke-width:4.90"/>
	<line x1="3137.93" y1="2096.14" x2="3137.93" y2="2113.10" style="stroke:#000000;stroke-width:4.90"/>
	<line x1="3264.53" y1="2096.14" x2="3264.53" y2="2113.10" style="stroke:#000000;stroke-width:4.90"/>
	<line x1="3391.00" y1="2096.14" x2="3391.00" y2="2113.10" style="stroke:#000000;stroke-width:4.90"/>
	<line x1="3517.59" y1="2096.14" x2="3517.59" y2="2113.10" style="stroke:#000000;stroke-width:4.90"/>
	<line x1="3644.07" y1="2096.14" x2="3644.07" y2="2113.10" style="stroke:#000000;stroke-width:4.90"/>
	<line x1="3770.66" y1="2096.14" x2="3770.66" y2="2113.10" style="stroke:#000000;stroke-width:4.90"/>
	<line x1="2252.13" y1="2096.14" x2="2252.13" y2="2130.18" style="stroke:#000000;stroke-width:4.90"/>
	<text x="2252.13" y="2206.58" style="font-family:'Helvetica';font-size:85.02px;fill:#000000" text-anchor="middle">20</text>
	<line x1="2758.26" y1="2096.14" x2="2758.26" y2="2130.18" style="stroke:#000000;stroke-width:4.90"/>
	<text x="2758.26" y="2206.58" style="font-family:'Helvetica';font-size:85.02px;fill:#000000" text-anchor="middle">40</text>
	<line x1="3264.53" y1="2096.14" x2="3264.53" y2="2130.18" style="stroke:#000000;stroke-width:4.90"/>
	<text x="3264.53" y="2206.58" style="font-family:'Helvetica';font-size:85.02px;fill:#000000" text-anchor="middle">60</text>
	<line x1="3770.66" y1="2096.14" x2="3770.66" y2="2130.18" style="stroke:#000000;stroke-width:4.90"/>
	<text x="3770.66" y="2206.58" style="font-family:'Helvetica';font-size:85.02px;fill:#000000" text-anchor="middle">80</text>
	<rect x="401.69" y="279.93" width="1676.81" height="122.89" style="fill:#D9E6EB"/>
	<rect x="404.14" y="282.38" width="1671.92" height="117.99" style="fill:none;stroke:#D9E6EB;stroke-width:4.90"/>
	<text x="1240.10" y="359.96" style="font-family:'Helvetica';font-size:93.56px;fill:#000000" text-anchor="middle">Female</text>
	<rect x="2147.68" y="279.93" width="1676.81" height="122.89" style="fill:#D9E6EB"/>
	<rect x="2150.13" y="282.38" width="1671.92" height="117.99" style="fill:none;stroke:#D9E6EB;stroke-width:4.90"/>
	<text x="2986.09" y="359.96" style="font-family:'Helvetica';font-size:93.56px;fill:#000000" text-anchor="middle">Male</text>
	<rect x="592.39" y="2418.27" width="2775.09" height="326.34" style="fill:#FFFFFF"/>
	<rect x="595.27" y="2421.15" width="2769.33" height="320.58" style="fill:none;stroke:#000000;stroke-width:5.76"/>
	<line x1="635.58" y1="2511.46" x2="1009.92" y2="2511.46" style="stroke:#008000;stroke-width:8.64"/>
	<line x1="635.58" y1="2651.43" x2="1009.92" y2="2651.43" style="stroke:#FF7F00;stroke-width:8.64"/>
	<line x1="1971.21" y1="2511.46" x2="2345.56" y2="2511.46" style="stroke:#1A476F;stroke-width:8.64"/>
	<line x1="1971.21" y1="2651.43" x2="1974.06" y2="2651.43" style="stroke:#A0A0A0;stroke-width:8.64"/>
	<line x1="1994.23" y1="2651.43" x2="1997.08" y2="2651.43" style="stroke:#A0A0A0;stroke-width:8.64"/>
	<line x1="2017.25" y1="2651.43" x2="2020.10" y2="2651.43" style="stroke:#A0A0A0;stroke-width:8.64"/>
	<line x1="2040.27" y1="2651.43" x2="2043.24" y2="2651.43" style="stroke:#A0A0A0;stroke-width:8.64"/>
	<line x1="2063.28" y1="2651.43" x2="2066.25" y2="2651.43" style="stroke:#A0A0A0;stroke-width:8.64"/>
	<line x1="2086.43" y1="2651.43" x2="2089.27" y2="2651.43" style="stroke:#A0A0A0;stroke-width:8.64"/>
	<line x1="2109.44" y1="2651.43" x2="2112.29" y2="2651.43" style="stroke:#A0A0A0;stroke-width:8.64"/>
	<line x1="2132.46" y1="2651.43" x2="2135.31" y2="2651.43" style="stroke:#A0A0A0;stroke-width:8.64"/>
	<line x1="2155.48" y1="2651.43" x2="2158.32" y2="2651.43" style="stroke:#A0A0A0;stroke-width:8.64"/>
	<line x1="2178.49" y1="2651.43" x2="2181.34" y2="2651.43" style="stroke:#A0A0A0;stroke-width:8.64"/>
	<line x1="2201.51" y1="2651.43" x2="2204.36" y2="2651.43" style="stroke:#A0A0A0;stroke-width:8.64"/>
	<line x1="2224.53" y1="2651.43" x2="2227.38" y2="2651.43" style="stroke:#A0A0A0;stroke-width:8.64"/>
	<line x1="2247.55" y1="2651.43" x2="2250.39" y2="2651.43" style="stroke:#A0A0A0;stroke-width:8.64"/>
	<line x1="2270.57" y1="2651.43" x2="2273.41" y2="2651.43" style="stroke:#A0A0A0;stroke-width:8.64"/>
	<line x1="2293.58" y1="2651.43" x2="2296.55" y2="2651.43" style="stroke:#A0A0A0;stroke-width:8.64"/>
	<line x1="2316.60" y1="2651.43" x2="2319.57" y2="2651.43" style="stroke:#A0A0A0;stroke-width:8.64"/>
	<line x1="2339.74" y1="2651.43" x2="2342.59" y2="2651.43" style="stroke:#A0A0A0;stroke-width:8.64"/>
	<text x="1069.94" y="2546.49" style="font-family:'Helvetica';font-size:99.99px;fill:#000000">1 comorbidity</text>
	<text x="1069.94" y="2686.46" style="font-family:'Helvetica';font-size:99.99px;fill:#000000">2+ comorbidities</text>
	<text x="2405.58" y="2546.49" style="font-family:'Helvetica';font-size:99.99px;fill:#000000">No comborbidity</text>
	<text x="2405.58" y="2686.46" style="font-family:'Helvetica';font-size:99.99px;fill:#000000">Ref (Age 65, White)</text>
	<text x="1980.00" y="2353.56" style="font-family:'Helvetica';font-size:99.99px;fill:#000000" text-anchor="middle">Age (years)</text>
	<text x="1980.00" y="195.01" style="font-family:'Helvetica';font-size:110.01px;fill:#000000" text-anchor="middle">Ethnicity Black</text>
</svg>
