<?xml version="1.0" encoding="UTF-8" standalone="no"?>
<!-- This is a Stata 16.1 generated SVG file (http://www.stata.com) -->

<svg version="1.1" width="1600px" height="1164px" viewBox="0 0 3960 2880" xmlns="http://www.w3.org/2000/svg" xmlns:xlink="http://www.w3.org/1999/xlink">
	<desc>Stata Graph - Graph</desc>
	<rect x="0" y="0" width="3960" height="2880" style="fill:#EAF2F3;stroke:none"/>
	<rect x="0.00" y="0.00" width="3959.88" height="2880.00" style="fill:#EAF2F3"/>
	<rect x="2.88" y="2.88" width="3954.12" height="2874.24" style="fill:none;stroke:#EAF2F3;stroke-width:5.76"/>
	<rect x="401.69" y="258.27" width="1676.81" height="1697.90" style="fill:#FFFFFF"/>
	<rect x="404.14" y="260.72" width="1671.92" height="1693.01" style="fill:none;stroke:#FFFFFF;stroke-width:4.90"/>
	<line x1="401.69" y1="1902.22" x2="2078.51" y2="1902.22" style="stroke:#EAF2F3;stroke-width:7.34"/>
	<line x1="401.69" y1="1675.13" x2="2078.51" y2="1675.13" style="stroke:#EAF2F3;stroke-width:7.34"/>
	<line x1="401.69" y1="1447.92" x2="2078.51" y2="1447.92" style="stroke:#EAF2F3;stroke-width:7.34"/>
	<line x1="401.69" y1="1220.71" x2="2078.51" y2="1220.71" style="stroke:#EAF2F3;stroke-width:7.34"/>
	<line x1="401.69" y1="993.62" x2="2078.51" y2="993.62" style="stroke:#EAF2F3;stroke-width:7.34"/>
	<line x1="401.69" y1="766.41" x2="2078.51" y2="766.41" style="stroke:#EAF2F3;stroke-width:7.34"/>
	<line x1="401.69" y1="539.32" x2="2078.51" y2="539.32" style="stroke:#EAF2F3;stroke-width:7.34"/>
	<line x1="401.69" y1="312.11" x2="2078.51" y2="312.11" style="stroke:#EAF2F3;stroke-width:7.34"/>
	<rect x="2147.68" y="258.27" width="1676.81" height="1697.90" style="fill:#FFFFFF"/>
	<rect x="2150.13" y="260.72" width="1671.92" height="1693.01" style="fill:none;stroke:#FFFFFF;stroke-width:4.90"/>
	<line x1="2147.68" y1="1902.22" x2="3824.49" y2="1902.22" style="stroke:#EAF2F3;stroke-width:7.34"/>
	<line x1="2147.68" y1="1675.13" x2="3824.49" y2="1675.13" style="stroke:#EAF2F3;stroke-width:7.34"/>
	<line x1="2147.68" y1="1447.92" x2="3824.49" y2="1447.92" style="stroke:#EAF2F3;stroke-width:7.34"/>
	<line x1="2147.68" y1="1220.71" x2="3824.49" y2="1220.71" style="stroke:#EAF2F3;stroke-width:7.34"/>
	<line x1="2147.68" y1="993.62" x2="3824.49" y2="993.62" style="stroke:#EAF2F3;stroke-width:7.34"/>
	<line x1="2147.68" y1="766.41" x2="3824.49" y2="766.41" style="stroke:#EAF2F3;stroke-width:7.34"/>
	<line x1="2147.68" y1="539.32" x2="3824.49" y2="539.32" style="stroke:#EAF2F3;stroke-width:7.34"/>
	<line x1="2147.68" y1="312.11" x2="3824.49" y2="312.11" style="stroke:#EAF2F3;stroke-width:7.34"/>
	<defs>
		<path id="path_bfBbeakh" d="M455.52 1902.22 L455.52 1902.22 L480.89 1902.22 L506.14 1902.22 L531.51 1902.22 L556.75 1902.10 L582.12 1902.10 L607.37 1902.10 L632.73 1902.10 L657.98 1901.97 L683.35 1901.97 L708.59 1901.85 L733.96 1901.73 L759.21 1901.73 L784.58 1901.60 L809.82 1901.35 L835.19 1901.23 L860.43 1900.98 L885.80 1900.86 L911.05 1900.61 L936.42 1900.24 L961.66 1899.99 L987.03 1899.62 L1012.27 1899.25 L1037.64 1898.88 L1062.89 1898.38 L1088.26 1898.01 L1113.50 1897.52 L1138.87 1896.90 L1164.24 1896.28 L1189.48 1895.66 L1214.85 1894.92 L1240.10 1894.18 L1265.47 1893.31 L1290.71 1892.32 L1316.08 1891.33 L1341.33 1890.22 L1366.69 1888.98 L1391.94 1887.62 L1417.31 1886.13 L1442.55 1884.40 L1467.92 1882.67 L1493.17 1880.56 L1518.54 1878.34 L1543.78 1875.86 L1569.15 1873.01 L1594.39 1869.92 L1619.76 1866.33 L1645.01 1862.50 L1670.38 1858.04 L1695.62 1853.21 L1720.99 1847.77 L1746.24 1841.58 L1771.61 1834.65 L1796.85 1826.98 L1822.22 1818.44 L1847.46 1808.79 L1872.83 1797.90 L1898.20 1785.89 L1923.45 1772.28 L1948.82 1757.18 L1974.06 1740.23 L1999.43 1721.17 L2024.67 1700.01 L2024.67 1662.14 L1999.43 1687.26 L1974.06 1709.78 L1948.82 1729.83 L1923.45 1747.78 L1898.20 1763.86 L1872.83 1778.10 L1847.46 1790.97 L1822.22 1802.35 L1796.85 1812.62 L1771.61 1821.78 L1746.24 1829.95 L1720.99 1837.25 L1695.62 1843.69 L1670.38 1849.50 L1645.01 1854.82 L1619.76 1859.40 L1594.39 1863.61 L1569.15 1867.32 L1543.78 1870.66 L1518.54 1873.63 L1493.17 1876.36 L1467.92 1878.71 L1442.55 1880.81 L1417.31 1882.67 L1391.94 1884.40 L1366.69 1886.01 L1341.33 1887.37 L1316.08 1888.61 L1290.71 1889.85 L1265.47 1890.84 L1240.10 1891.95 L1214.85 1892.82 L1189.48 1893.68 L1164.24 1894.42 L1138.87 1895.17 L1113.50 1895.91 L1088.26 1896.53 L1062.89 1897.15 L1037.64 1897.77 L1012.27 1898.26 L987.03 1898.63 L961.66 1899.13 L936.42 1899.50 L911.05 1899.75 L885.80 1900.12 L860.43 1900.36 L835.19 1900.61 L809.82 1900.74 L784.58 1900.98 L759.21 1901.11 L733.96 1901.23 L708.59 1901.35 L683.35 1901.48 L657.98 1901.60 L632.73 1901.60 L607.37 1901.73 L582.12 1901.73 L556.75 1901.85 L531.51 1901.85 L506.14 1901.97 L480.89 1901.97 L455.52 1901.97 L455.52 1902.22 Z" stroke-linejoin="round"/>
	</defs>
	<defs>
		<clipPath id="clipPath_bnVplbbY">
			<use xlink:href="#path_bfBbeakh"/>
		</clipPath>
	</defs>
	<use xlink:href="#path_bfBbeakh" style="stroke:none;fill:#E6E6E6"/>
	<use xlink:href="#path_bfBbeakh" style="fill:none;stroke:#E0E0E0;stroke-width:14.69" clip-path="url(#clipPath_bnVplbbY)"/>
	<defs>
		<path id="path_vYkDPPSV" d="M455.52 1902.22 L455.52 1902.22 L480.89 1902.22 L506.14 1902.22 L531.51 1902.22 L556.75 1902.10 L582.12 1902.10 L607.37 1902.10 L632.73 1902.10 L657.98 1901.97 L683.35 1901.97 L708.59 1901.85 L733.96 1901.73 L759.21 1901.73 L784.58 1901.60 L809.82 1901.35 L835.19 1901.23 L860.43 1901.11 L885.80 1900.86 L911.05 1900.61 L936.42 1900.36 L961.66 1900.12 L987.03 1899.75 L1012.27 1899.50 L1037.64 1899.13 L1062.89 1898.76 L1088.26 1898.26 L1113.50 1897.77 L1138.87 1897.27 L1164.24 1896.78 L1189.48 1896.16 L1214.85 1895.54 L1240.10 1894.80 L1265.47 1894.05 L1290.71 1893.19 L1316.08 1892.32 L1341.33 1891.33 L1366.69 1890.22 L1391.94 1888.98 L1417.31 1887.62 L1442.55 1886.26 L1467.92 1884.52 L1493.17 1882.79 L1518.54 1880.69 L1543.78 1878.46 L1569.15 1875.98 L1594.39 1873.14 L1619.76 1870.04 L1645.01 1866.46 L1670.38 1862.50 L1695.62 1858.16 L1720.99 1853.21 L1746.24 1847.77 L1771.61 1841.58 L1796.85 1834.65 L1822.22 1826.98 L1847.46 1818.32 L1872.83 1808.66 L1898.20 1797.77 L1923.45 1785.64 L1948.82 1772.03 L1974.06 1756.81 L1999.43 1739.86 L2024.67 1720.80 L2024.67 1548.53 L1999.43 1585.53 L1974.06 1618.70 L1948.82 1648.28 L1923.45 1674.76 L1898.20 1698.40 L1872.83 1719.56 L1847.46 1738.37 L1822.22 1755.32 L1796.85 1770.30 L1771.61 1783.79 L1746.24 1795.79 L1720.99 1806.56 L1695.62 1816.09 L1670.38 1824.75 L1645.01 1832.42 L1619.76 1839.23 L1594.39 1845.42 L1569.15 1850.86 L1543.78 1855.81 L1518.54 1860.27 L1493.17 1864.10 L1467.92 1867.69 L1442.55 1870.79 L1417.31 1873.63 L1391.94 1876.23 L1366.69 1878.46 L1341.33 1880.56 L1316.08 1882.54 L1290.71 1884.28 L1265.47 1885.89 L1240.10 1887.37 L1214.85 1888.73 L1189.48 1889.97 L1164.24 1891.08 L1138.87 1892.20 L1113.50 1893.19 L1088.26 1894.18 L1062.89 1895.04 L1037.64 1895.79 L1012.27 1896.53 L987.03 1897.15 L961.66 1897.77 L936.42 1898.38 L911.05 1898.88 L885.80 1899.25 L860.43 1899.62 L835.19 1899.99 L809.82 1900.24 L784.58 1900.49 L759.21 1900.74 L733.96 1900.86 L708.59 1901.11 L683.35 1901.23 L657.98 1901.35 L632.73 1901.48 L607.37 1901.60 L582.12 1901.60 L556.75 1901.73 L531.51 1901.85 L506.14 1901.85 L480.89 1901.85 L455.52 1901.97 L455.52 1902.22 Z" stroke-linejoin="round"/>
	</defs>
	<defs>
		<clipPath id="clipPath_OwGyuGBM">
			<use xlink:href="#path_vYkDPPSV"/>
		</clipPath>
	</defs>
	<use xlink:href="#path_vYkDPPSV" style="stroke:none;fill:#E6E6E6"/>
	<use xlink:href="#path_vYkDPPSV" style="fill:none;stroke:#E0E0E0;stroke-width:14.69" clip-path="url(#clipPath_OwGyuGBM)"/>
	<defs>
		<path id="path_IAIYiPzM" d="M455.52 1902.22 L455.52 1902.22 L480.89 1902.22 L506.14 1902.22 L531.51 1902.22 L556.75 1902.10 L582.12 1902.10 L607.37 1902.10 L632.73 1901.97 L657.98 1901.97 L683.35 1901.85 L708.59 1901.85 L733.96 1901.73 L759.21 1901.60 L784.58 1901.48 L809.82 1901.23 L835.19 1901.11 L860.43 1900.86 L885.80 1900.61 L911.05 1900.36 L936.42 1899.99 L961.66 1899.62 L987.03 1899.25 L1012.27 1898.88 L1037.64 1898.38 L1062.89 1897.89 L1088.26 1897.39 L1113.50 1896.78 L1138.87 1896.16 L1164.24 1895.41 L1189.48 1894.67 L1214.85 1893.93 L1240.10 1892.94 L1265.47 1892.07 L1290.71 1890.96 L1316.08 1889.72 L1341.33 1888.48 L1366.69 1887.12 L1391.94 1885.64 L1417.31 1883.91 L1442.55 1882.05 L1467.92 1879.94 L1493.17 1877.59 L1518.54 1875.12 L1543.78 1872.27 L1569.15 1869.05 L1594.39 1865.47 L1619.76 1861.51 L1645.01 1857.05 L1670.38 1852.10 L1695.62 1846.53 L1720.99 1840.34 L1746.24 1833.29 L1771.61 1825.49 L1796.85 1816.83 L1822.22 1807.05 L1847.46 1796.04 L1872.83 1783.79 L1898.20 1770.05 L1923.45 1754.71 L1948.82 1737.50 L1974.06 1718.32 L1999.43 1696.79 L2024.67 1672.66 L2024.67 1618.82 L1999.43 1648.53 L1974.06 1675.01 L1948.82 1698.77 L1923.45 1719.93 L1898.20 1738.87 L1872.83 1755.82 L1847.46 1770.92 L1822.22 1784.41 L1796.85 1796.53 L1771.61 1807.30 L1746.24 1816.83 L1720.99 1825.49 L1695.62 1833.17 L1670.38 1840.10 L1645.01 1846.16 L1619.76 1851.73 L1594.39 1856.68 L1569.15 1861.01 L1543.78 1864.97 L1518.54 1868.44 L1493.17 1871.65 L1467.92 1874.50 L1442.55 1876.97 L1417.31 1879.20 L1391.94 1881.31 L1366.69 1883.04 L1341.33 1884.77 L1316.08 1886.26 L1290.71 1887.62 L1265.47 1888.86 L1240.10 1890.09 L1214.85 1891.21 L1189.48 1892.20 L1164.24 1893.06 L1138.87 1893.93 L1113.50 1894.80 L1088.26 1895.54 L1062.89 1896.28 L1037.64 1896.90 L1012.27 1897.52 L987.03 1898.01 L961.66 1898.51 L936.42 1899.00 L911.05 1899.37 L885.80 1899.75 L860.43 1899.99 L835.19 1900.24 L809.82 1900.49 L784.58 1900.74 L759.21 1900.86 L733.96 1900.98 L708.59 1901.23 L683.35 1901.35 L657.98 1901.48 L632.73 1901.48 L607.37 1901.60 L582.12 1901.73 L556.75 1901.73 L531.51 1901.85 L506.14 1901.85 L480.89 1901.97 L455.52 1901.97 L455.52 1902.22 Z" stroke-linejoin="round"/>
	</defs>
	<defs>
		<clipPath id="clipPath_wFMYrJkn">
			<use xlink:href="#path_IAIYiPzM"/>
		</clipPath>
	</defs>
	<use xlink:href="#path_IAIYiPzM" style="stroke:none;fill:#E6E6E6"/>
	<use xlink:href="#path_IAIYiPzM" style="fill:none;stroke:#E0E0E0;stroke-width:14.69" clip-path="url(#clipPath_wFMYrJkn)"/>
	<defs>
		<path id="path_dAhHYAdH" d="M455.52 1902.10 L455.52 1902.10 L480.89 1902.10 L506.14 1902.10 L531.51 1901.97 L556.75 1901.97 L582.12 1901.85 L607.37 1901.85 L632.73 1901.73 L657.98 1901.60 L683.35 1901.35 L708.59 1901.23 L733.96 1900.98 L759.21 1900.74 L784.58 1900.49 L809.82 1900.12 L835.19 1899.75 L860.43 1899.37 L885.80 1898.88 L911.05 1898.38 L936.42 1897.77 L961.66 1897.02 L987.03 1896.28 L1012.27 1895.54 L1037.64 1894.67 L1062.89 1893.68 L1088.26 1892.57 L1113.50 1891.45 L1138.87 1890.22 L1164.24 1888.98 L1189.48 1887.49 L1214.85 1886.01 L1240.10 1884.28 L1265.47 1882.42 L1290.71 1880.44 L1316.08 1878.21 L1341.33 1875.86 L1366.69 1873.26 L1391.94 1870.42 L1417.31 1867.20 L1442.55 1863.73 L1467.92 1859.77 L1493.17 1855.44 L1518.54 1850.62 L1543.78 1845.17 L1569.15 1839.23 L1594.39 1832.42 L1619.76 1824.87 L1645.01 1816.46 L1670.38 1807.05 L1695.62 1796.53 L1720.99 1784.65 L1746.24 1771.54 L1771.61 1756.69 L1796.85 1740.23 L1822.22 1721.66 L1847.46 1701.00 L1872.83 1677.73 L1898.20 1651.74 L1923.45 1622.66 L1948.82 1590.24 L1974.06 1553.73 L1999.43 1513.14 L2024.67 1467.60 L2024.67 859.47 L1999.43 968.50 L1974.06 1066.14 L1948.82 1153.26 L1923.45 1231.35 L1898.20 1301.02 L1872.83 1363.27 L1847.46 1418.84 L1822.22 1468.59 L1796.85 1513.01 L1771.61 1552.74 L1746.24 1588.13 L1720.99 1619.81 L1695.62 1648.15 L1670.38 1673.40 L1645.01 1696.05 L1619.76 1716.34 L1594.39 1734.41 L1569.15 1750.62 L1543.78 1765.10 L1518.54 1778.10 L1493.17 1789.73 L1467.92 1800.12 L1442.55 1809.53 L1417.31 1817.82 L1391.94 1825.37 L1366.69 1832.18 L1341.33 1838.36 L1316.08 1844.06 L1290.71 1849.13 L1265.47 1853.96 L1240.10 1858.29 L1214.85 1862.37 L1189.48 1866.08 L1164.24 1869.55 L1138.87 1872.64 L1113.50 1875.61 L1088.26 1878.46 L1062.89 1880.94 L1037.64 1883.29 L1012.27 1885.39 L987.03 1887.37 L961.66 1889.10 L936.42 1890.71 L911.05 1892.20 L885.80 1893.43 L860.43 1894.55 L835.19 1895.54 L809.82 1896.40 L784.58 1897.15 L759.21 1897.77 L733.96 1898.38 L708.59 1898.88 L683.35 1899.25 L657.98 1899.62 L632.73 1899.99 L607.37 1900.24 L582.12 1900.49 L556.75 1900.74 L531.51 1900.98 L506.14 1901.11 L480.89 1901.23 L455.52 1901.35 L455.52 1902.10 Z" stroke-linejoin="round"/>
	</defs>
	<defs>
		<clipPath id="clipPath_FunwUFYy">
			<use xlink:href="#path_dAhHYAdH"/>
		</clipPath>
	</defs>
	<use xlink:href="#path_dAhHYAdH" style="stroke:none;fill:#E6E6E6"/>
	<use xlink:href="#path_dAhHYAdH" style="fill:none;stroke:#E0E0E0;stroke-width:14.69" clip-path="url(#clipPath_FunwUFYy)"/>
	<defs>
		<path id="path_BpZBFSQH" d="M455.52 1902.22 L455.52 1902.22 L480.89 1902.10 L506.14 1902.10 L531.51 1902.10 L556.75 1902.10 L582.12 1901.97 L607.37 1901.97 L632.73 1901.85 L657.98 1901.73 L683.35 1901.60 L708.59 1901.48 L733.96 1901.35 L759.21 1901.23 L784.58 1900.98 L809.82 1900.74 L835.19 1900.49 L860.43 1900.12 L885.80 1899.87 L911.05 1899.37 L936.42 1899.00 L961.66 1898.51 L987.03 1898.01 L1012.27 1897.39 L1037.64 1896.78 L1062.89 1896.03 L1088.26 1895.29 L1113.50 1894.55 L1138.87 1893.68 L1164.24 1892.69 L1189.48 1891.70 L1214.85 1890.46 L1240.10 1889.35 L1265.47 1887.99 L1290.71 1886.63 L1316.08 1885.02 L1341.33 1883.29 L1366.69 1881.43 L1391.94 1879.33 L1417.31 1877.10 L1442.55 1874.62 L1467.92 1871.78 L1493.17 1868.68 L1518.54 1865.22 L1543.78 1861.26 L1569.15 1856.93 L1594.39 1852.10 L1619.76 1846.78 L1645.01 1840.72 L1670.38 1833.91 L1695.62 1826.36 L1720.99 1817.94 L1746.24 1808.42 L1771.61 1797.90 L1796.85 1786.02 L1822.22 1772.77 L1847.46 1757.92 L1872.83 1741.22 L1898.20 1722.65 L1923.45 1701.74 L1948.82 1678.47 L1974.06 1652.36 L1999.43 1623.16 L2024.67 1590.61 L2024.67 1137.17 L1999.43 1217.24 L1974.06 1288.90 L1948.82 1353.00 L1923.45 1410.18 L1898.20 1461.29 L1872.83 1507.07 L1847.46 1547.91 L1822.22 1584.30 L1796.85 1616.97 L1771.61 1646.05 L1746.24 1672.04 L1720.99 1695.30 L1695.62 1716.09 L1670.38 1734.66 L1645.01 1751.24 L1619.76 1766.09 L1594.39 1779.33 L1569.15 1791.21 L1543.78 1801.86 L1518.54 1811.39 L1493.17 1819.92 L1467.92 1827.60 L1442.55 1834.40 L1417.31 1840.47 L1391.94 1846.04 L1366.69 1850.99 L1341.33 1855.57 L1316.08 1859.77 L1290.71 1863.49 L1265.47 1866.95 L1240.10 1870.17 L1214.85 1873.14 L1189.48 1875.86 L1164.24 1878.34 L1138.87 1880.69 L1113.50 1882.92 L1088.26 1884.90 L1062.89 1886.75 L1037.64 1888.36 L1012.27 1889.97 L987.03 1891.45 L961.66 1892.69 L936.42 1893.81 L911.05 1894.92 L885.80 1895.79 L860.43 1896.65 L835.19 1897.39 L809.82 1898.01 L784.58 1898.51 L759.21 1899.00 L733.96 1899.37 L708.59 1899.75 L683.35 1900.12 L657.98 1900.36 L632.73 1900.61 L607.37 1900.86 L582.12 1900.98 L556.75 1901.11 L531.51 1901.23 L506.14 1901.35 L480.89 1901.48 L455.52 1901.60 L455.52 1902.22 Z" stroke-linejoin="round"/>
	</defs>
	<defs>
		<clipPath id="clipPath_flujcHmH">
			<use xlink:href="#path_BpZBFSQH"/>
		</clipPath>
	</defs>
	<use xlink:href="#path_BpZBFSQH" style="stroke:none;fill:#E6E6E6"/>
	<use xlink:href="#path_BpZBFSQH" style="fill:none;stroke:#E0E0E0;stroke-width:14.69" clip-path="url(#clipPath_flujcHmH)"/>
	<path d=" M455.52 1902.22 L480.77 1902.22 L506.14 1902.10 L531.38 1902.10 L556.75 1902.10 L582.00 1901.97 L607.37 1901.97 L632.61 1901.85 L657.98 1901.85 L683.22 1901.73 L708.59 1901.60 L733.84 1901.48 L759.21 1901.35 L784.45 1901.23 L809.82 1900.98 L835.07 1900.74 L860.43 1900.61 L885.68 1900.24 L911.05 1899.99 L936.29 1899.62 L961.66 1899.25 L986.91 1898.76 L1012.27 1898.26 L1037.52 1897.77 L1062.89 1897.27 L1088.13 1896.65 L1113.50 1895.91 L1138.87 1895.29 L1164.12 1894.42 L1189.48 1893.68 L1214.73 1892.69 L1240.10 1891.70 L1265.34 1890.71 L1290.71 1889.60 L1315.96 1888.24 L1341.33 1886.88 L1366.57 1885.39 L1391.94 1883.78 L1417.18 1881.93 L1442.55 1879.82 L1467.80 1877.59 L1493.17 1875.12 L1518.41 1872.27 L1543.78 1869.05 L1569.03 1865.59 L1594.39 1861.63 L1619.64 1857.30 L1645.01 1852.35 L1670.25 1846.78 L1695.62 1840.72 L1720.87 1833.78 L1746.24 1826.11 L1771.48 1817.57 L1796.85 1807.92 L1822.10 1797.15 L1847.46 1785.03 L1872.71 1771.54 L1898.08 1756.31 L1923.45 1739.48 L1948.69 1720.43 L1974.06 1699.26 L1999.31 1675.50 L2024.67 1649.02" stroke-linejoin="round" style="fill:none;stroke:#008000;stroke-width:7.34"/>
	<path d=" M455.52 1902.22 L480.77 1902.22 L506.14 1902.10 L531.38 1902.10 L556.75 1902.10 L582.00 1901.97 L607.37 1901.97 L632.61 1901.85 L657.98 1901.85 L683.22 1901.73 L708.59 1901.60 L733.84 1901.48 L759.21 1901.35 L784.45 1901.23 L809.82 1900.98 L835.07 1900.74 L860.43 1900.49 L885.68 1900.24 L911.05 1899.99 L936.29 1899.62 L961.66 1899.25 L986.91 1898.76 L1012.27 1898.26 L1037.52 1897.77 L1062.89 1897.15 L1088.13 1896.65 L1113.50 1895.91 L1138.87 1895.17 L1164.12 1894.42 L1189.48 1893.56 L1214.73 1892.69 L1240.10 1891.70 L1265.34 1890.59 L1290.71 1889.47 L1315.96 1888.24 L1341.33 1886.75 L1366.57 1885.27 L1391.94 1883.66 L1417.18 1881.80 L1442.55 1879.70 L1467.80 1877.47 L1493.17 1874.87 L1518.41 1872.02 L1543.78 1868.81 L1569.03 1865.34 L1594.39 1861.38 L1619.64 1856.93 L1645.01 1851.98 L1670.25 1846.41 L1695.62 1840.22 L1720.87 1833.29 L1746.24 1825.62 L1771.48 1816.95 L1796.85 1807.18 L1822.10 1796.41 L1847.46 1784.16 L1872.71 1770.55 L1898.08 1755.32 L1923.45 1738.37 L1948.69 1719.19 L1974.06 1697.90 L1999.31 1674.02 L2024.67 1647.29" stroke-linejoin="round" style="fill:none;stroke:#FF0000;stroke-width:7.34"/>
	<path d=" M455.52 1901.97 L480.77 1901.85 L506.14 1901.85 L531.38 1901.73 L556.75 1901.60 L582.00 1901.48 L607.37 1901.35 L632.61 1901.23 L657.98 1900.98 L683.22 1900.74 L708.59 1900.49 L733.84 1900.12 L759.21 1899.75 L784.45 1899.25 L809.82 1898.76 L835.07 1898.26 L860.43 1897.64 L885.68 1896.90 L911.05 1896.03 L936.29 1895.04 L961.66 1894.05 L986.91 1892.94 L1012.27 1891.70 L1037.52 1890.22 L1062.89 1888.73 L1088.13 1887.12 L1113.50 1885.39 L1138.87 1883.53 L1164.12 1881.43 L1189.48 1879.20 L1214.73 1876.85 L1240.10 1874.25 L1265.34 1871.41 L1290.71 1868.31 L1315.96 1864.97 L1341.33 1861.26 L1366.57 1857.30 L1391.94 1852.84 L1417.18 1847.89 L1442.55 1842.57 L1467.80 1836.51 L1493.17 1829.82 L1518.41 1822.28 L1543.78 1813.86 L1569.03 1804.46 L1594.39 1794.06 L1619.64 1782.43 L1645.01 1769.31 L1670.25 1754.71 L1695.62 1738.37 L1720.87 1720.06 L1746.24 1699.64 L1771.48 1676.74 L1796.85 1651.12 L1822.10 1622.41 L1847.46 1590.36 L1872.71 1554.47 L1898.08 1514.25 L1923.45 1469.21 L1948.69 1418.84 L1974.06 1362.41 L1999.31 1299.42 L2024.67 1229.00" stroke-linejoin="round" style="fill:none;stroke:#FFD200;stroke-width:7.34"/>
	<path d=" M455.52 1902.10 L480.77 1901.97 L506.14 1901.97 L531.38 1901.85 L556.75 1901.85 L582.00 1901.73 L607.37 1901.60 L632.61 1901.48 L657.98 1901.35 L683.22 1901.23 L708.59 1900.98 L733.84 1900.74 L759.21 1900.49 L784.45 1900.12 L809.82 1899.75 L835.07 1899.37 L860.43 1898.88 L885.68 1898.38 L911.05 1897.77 L936.29 1897.02 L961.66 1896.28 L986.91 1895.54 L1012.27 1894.55 L1037.52 1893.56 L1062.89 1892.57 L1088.13 1891.33 L1113.50 1890.09 L1138.87 1888.73 L1164.12 1887.25 L1189.48 1885.51 L1214.73 1883.78 L1240.10 1881.93 L1265.34 1879.94 L1290.71 1877.59 L1315.96 1875.24 L1341.33 1872.52 L1366.57 1869.67 L1391.94 1866.46 L1417.18 1862.87 L1442.55 1859.03 L1467.80 1854.58 L1493.17 1849.75 L1518.41 1844.30 L1543.78 1838.24 L1569.03 1831.43 L1594.39 1823.88 L1619.64 1815.35 L1645.01 1805.94 L1670.25 1795.30 L1695.62 1783.42 L1720.87 1770.18 L1746.24 1755.32 L1771.48 1738.74 L1796.85 1720.18 L1822.10 1699.39 L1847.46 1676.12 L1872.71 1650.01 L1898.08 1620.93 L1923.45 1588.26 L1948.69 1551.63 L1974.06 1510.79 L1999.31 1465.12 L2024.67 1413.89" stroke-linejoin="round" style="fill:none;stroke:#FFD200;stroke-width:7.34"/>
	<path d=" M455.52 1902.22 L480.77 1902.22 L506.14 1902.22 L531.38 1902.10 L556.75 1902.10 L582.00 1902.10 L607.37 1901.97 L632.61 1901.97 L657.98 1901.85 L683.22 1901.85 L708.59 1901.73 L733.84 1901.60 L759.21 1901.48 L784.45 1901.35 L809.82 1901.23 L835.07 1900.98 L860.43 1900.74 L885.68 1900.49 L911.05 1900.24 L936.29 1899.99 L961.66 1899.62 L986.91 1899.25 L1012.27 1898.88 L1037.52 1898.38 L1062.89 1897.89 L1088.13 1897.39 L1113.50 1896.78 L1138.87 1896.16 L1164.12 1895.54 L1189.48 1894.80 L1214.73 1893.93 L1240.10 1893.19 L1265.34 1892.20 L1290.71 1891.21 L1315.96 1890.09 L1341.33 1888.86 L1366.57 1887.62 L1391.94 1886.13 L1417.18 1884.52 L1442.55 1882.79 L1467.80 1880.81 L1493.17 1878.58 L1518.41 1876.11 L1543.78 1873.39 L1569.03 1870.29 L1594.39 1866.95 L1619.64 1863.11 L1645.01 1858.78 L1670.25 1854.08 L1695.62 1848.76 L1720.87 1842.70 L1746.24 1836.01 L1771.48 1828.59 L1796.85 1820.17 L1822.10 1810.77 L1847.46 1800.25 L1872.71 1788.49 L1898.08 1775.37 L1923.45 1760.65 L1948.69 1744.19 L1974.06 1725.75 L1999.31 1705.08 L2024.67 1681.94" stroke-linejoin="round" style="fill:none;stroke:#1A476F;stroke-width:7.34"/>
	<line x1="455.52" y1="1858.78" x2="458.37" y2="1858.78" style="stroke:#000000;stroke-width:7.34"/>
	<line x1="478.54" y1="1858.78" x2="480.77" y2="1858.78" style="stroke:#000000;stroke-width:7.34"/>
	<line x1="480.77" y1="1858.78" x2="481.39" y2="1858.78" style="stroke:#000000;stroke-width:7.34"/>
	<line x1="501.56" y1="1858.78" x2="504.40" y2="1858.78" style="stroke:#000000;stroke-width:7.34"/>
	<line x1="524.58" y1="1858.78" x2="527.42" y2="1858.78" style="stroke:#000000;stroke-width:7.34"/>
	<line x1="547.59" y1="1858.78" x2="550.44" y2="1858.78" style="stroke:#000000;stroke-width:7.34"/>
	<line x1="570.61" y1="1858.78" x2="573.58" y2="1858.78" style="stroke:#000000;stroke-width:7.34"/>
	<line x1="593.75" y1="1858.78" x2="596.60" y2="1858.78" style="stroke:#000000;stroke-width:7.34"/>
	<line x1="616.77" y1="1858.78" x2="619.62" y2="1858.78" style="stroke:#000000;stroke-width:7.34"/>
	<line x1="639.79" y1="1858.78" x2="642.63" y2="1858.78" style="stroke:#000000;stroke-width:7.34"/>
	<line x1="662.80" y1="1858.78" x2="665.65" y2="1858.78" style="stroke:#000000;stroke-width:7.34"/>
	<line x1="685.82" y1="1858.78" x2="688.67" y2="1858.78" style="stroke:#000000;stroke-width:7.34"/>
	<line x1="708.84" y1="1858.78" x2="711.69" y2="1858.78" style="stroke:#000000;stroke-width:7.34"/>
	<line x1="731.86" y1="1858.78" x2="733.84" y2="1858.78" style="stroke:#000000;stroke-width:7.34"/>
	<line x1="733.84" y1="1858.78" x2="734.70" y2="1858.78" style="stroke:#000000;stroke-width:7.34"/>
	<line x1="754.88" y1="1858.78" x2="757.72" y2="1858.78" style="stroke:#000000;stroke-width:7.34"/>
	<line x1="777.89" y1="1858.78" x2="780.74" y2="1858.78" style="stroke:#000000;stroke-width:7.34"/>
	<line x1="800.91" y1="1858.78" x2="803.88" y2="1858.78" style="stroke:#000000;stroke-width:7.34"/>
	<line x1="823.93" y1="1858.78" x2="826.90" y2="1858.78" style="stroke:#000000;stroke-width:7.34"/>
	<line x1="847.07" y1="1858.78" x2="849.91" y2="1858.78" style="stroke:#000000;stroke-width:7.34"/>
	<line x1="870.09" y1="1858.78" x2="872.93" y2="1858.78" style="stroke:#000000;stroke-width:7.34"/>
	<line x1="893.10" y1="1858.78" x2="895.95" y2="1858.78" style="stroke:#000000;stroke-width:7.34"/>
	<line x1="916.12" y1="1858.78" x2="918.97" y2="1858.78" style="stroke:#000000;stroke-width:7.34"/>
	<line x1="939.14" y1="1858.78" x2="941.99" y2="1858.78" style="stroke:#000000;stroke-width:7.34"/>
	<line x1="962.16" y1="1858.78" x2="965.00" y2="1858.78" style="stroke:#000000;stroke-width:7.34"/>
	<line x1="985.17" y1="1858.78" x2="986.91" y2="1858.78" style="stroke:#000000;stroke-width:7.34"/>
	<line x1="986.91" y1="1858.78" x2="988.02" y2="1858.78" style="stroke:#000000;stroke-width:7.34"/>
	<line x1="1008.19" y1="1858.78" x2="1011.04" y2="1858.78" style="stroke:#000000;stroke-width:7.34"/>
	<line x1="1031.21" y1="1858.78" x2="1034.06" y2="1858.78" style="stroke:#000000;stroke-width:7.34"/>
	<line x1="1054.23" y1="1858.78" x2="1057.20" y2="1858.78" style="stroke:#000000;stroke-width:7.34"/>
	<line x1="1077.24" y1="1858.78" x2="1080.21" y2="1858.78" style="stroke:#000000;stroke-width:7.34"/>
	<line x1="1100.38" y1="1858.78" x2="1103.23" y2="1858.78" style="stroke:#000000;stroke-width:7.34"/>
	<line x1="1123.40" y1="1858.78" x2="1126.25" y2="1858.78" style="stroke:#000000;stroke-width:7.34"/>
	<line x1="1146.42" y1="1858.78" x2="1149.27" y2="1858.78" style="stroke:#000000;stroke-width:7.34"/>
	<line x1="1169.44" y1="1858.78" x2="1172.28" y2="1858.78" style="stroke:#000000;stroke-width:7.34"/>
	<line x1="1192.45" y1="1858.78" x2="1195.30" y2="1858.78" style="stroke:#000000;stroke-width:7.34"/>
	<line x1="1215.47" y1="1858.78" x2="1218.32" y2="1858.78" style="stroke:#000000;stroke-width:7.34"/>
	<line x1="1238.49" y1="1858.78" x2="1240.10" y2="1858.78" style="stroke:#000000;stroke-width:7.34"/>
	<line x1="1240.10" y1="1858.78" x2="1241.34" y2="1858.78" style="stroke:#000000;stroke-width:7.34"/>
	<line x1="1261.51" y1="1858.78" x2="1264.35" y2="1858.78" style="stroke:#000000;stroke-width:7.34"/>
	<line x1="1284.53" y1="1858.78" x2="1287.37" y2="1858.78" style="stroke:#000000;stroke-width:7.34"/>
	<line x1="1307.54" y1="1858.78" x2="1310.51" y2="1858.78" style="stroke:#000000;stroke-width:7.34"/>
	<line x1="1330.56" y1="1858.78" x2="1333.53" y2="1858.78" style="stroke:#000000;stroke-width:7.34"/>
	<line x1="1353.70" y1="1858.78" x2="1356.55" y2="1858.78" style="stroke:#000000;stroke-width:7.34"/>
	<line x1="1376.72" y1="1858.78" x2="1379.57" y2="1858.78" style="stroke:#000000;stroke-width:7.34"/>
	<line x1="1399.74" y1="1858.78" x2="1402.58" y2="1858.78" style="stroke:#000000;stroke-width:7.34"/>
	<line x1="1422.75" y1="1858.78" x2="1425.60" y2="1858.78" style="stroke:#000000;stroke-width:7.34"/>
	<line x1="1445.77" y1="1858.78" x2="1448.62" y2="1858.78" style="stroke:#000000;stroke-width:7.34"/>
	<line x1="1468.79" y1="1858.78" x2="1471.63" y2="1858.78" style="stroke:#000000;stroke-width:7.34"/>
	<line x1="1491.81" y1="1858.78" x2="1493.17" y2="1858.78" style="stroke:#000000;stroke-width:7.34"/>
	<line x1="1493.17" y1="1858.78" x2="1494.65" y2="1858.78" style="stroke:#000000;stroke-width:7.34"/>
	<line x1="1514.82" y1="1858.78" x2="1517.67" y2="1858.78" style="stroke:#000000;stroke-width:7.34"/>
	<line x1="1537.84" y1="1858.78" x2="1540.69" y2="1858.78" style="stroke:#000000;stroke-width:7.34"/>
	<line x1="1560.86" y1="1858.78" x2="1563.83" y2="1858.78" style="stroke:#000000;stroke-width:7.34"/>
	<line x1="1584.00" y1="1858.78" x2="1586.85" y2="1858.78" style="stroke:#000000;stroke-width:7.34"/>
	<line x1="1607.02" y1="1858.78" x2="1609.86" y2="1858.78" style="stroke:#000000;stroke-width:7.34"/>
	<line x1="1630.04" y1="1858.78" x2="1632.88" y2="1858.78" style="stroke:#000000;stroke-width:7.34"/>
	<line x1="1653.05" y1="1858.78" x2="1655.90" y2="1858.78" style="stroke:#000000;stroke-width:7.34"/>
	<line x1="1676.07" y1="1858.78" x2="1678.92" y2="1858.78" style="stroke:#000000;stroke-width:7.34"/>
	<line x1="1699.09" y1="1858.78" x2="1701.93" y2="1858.78" style="stroke:#000000;stroke-width:7.34"/>
	<line x1="1722.11" y1="1858.78" x2="1724.95" y2="1858.78" style="stroke:#000000;stroke-width:7.34"/>
	<line x1="1745.12" y1="1858.78" x2="1746.24" y2="1858.78" style="stroke:#000000;stroke-width:7.34"/>
	<line x1="1746.24" y1="1858.78" x2="1747.97" y2="1858.78" style="stroke:#000000;stroke-width:7.34"/>
	<line x1="1768.14" y1="1858.78" x2="1770.99" y2="1858.78" style="stroke:#000000;stroke-width:7.34"/>
	<line x1="1791.16" y1="1858.78" x2="1794.00" y2="1858.78" style="stroke:#000000;stroke-width:7.34"/>
	<line x1="1814.17" y1="1858.78" x2="1817.14" y2="1858.78" style="stroke:#000000;stroke-width:7.34"/>
	<line x1="1837.32" y1="1858.78" x2="1840.16" y2="1858.78" style="stroke:#000000;stroke-width:7.34"/>
	<line x1="1860.33" y1="1858.78" x2="1863.18" y2="1858.78" style="stroke:#000000;stroke-width:7.34"/>
	<line x1="1883.35" y1="1858.78" x2="1886.20" y2="1858.78" style="stroke:#000000;stroke-width:7.34"/>
	<line x1="1906.37" y1="1858.78" x2="1909.21" y2="1858.78" style="stroke:#000000;stroke-width:7.34"/>
	<line x1="1929.39" y1="1858.78" x2="1932.23" y2="1858.78" style="stroke:#000000;stroke-width:7.34"/>
	<line x1="1952.40" y1="1858.78" x2="1955.25" y2="1858.78" style="stroke:#000000;stroke-width:7.34"/>
	<line x1="1975.42" y1="1858.78" x2="1978.27" y2="1858.78" style="stroke:#000000;stroke-width:7.34"/>
	<line x1="1998.44" y1="1858.78" x2="1999.31" y2="1858.78" style="stroke:#000000;stroke-width:7.34"/>
	<line x1="1999.31" y1="1858.78" x2="2001.29" y2="1858.78" style="stroke:#000000;stroke-width:7.34"/>
	<line x1="2021.46" y1="1858.78" x2="2024.30" y2="1858.78" style="stroke:#000000;stroke-width:7.34"/>
	<path d="" stroke-linejoin="round" style="fill:none;stroke:#000000;stroke-width:7.34"/>
	<defs>
		<path id="path_hcjuziLl" d="M2201.51 1902.22 L2201.51 1902.22 L2226.88 1902.22 L2252.13 1902.10 L2277.49 1902.10 L2302.74 1902.10 L2328.11 1902.10 L2353.35 1901.97 L2378.72 1901.97 L2403.97 1901.85 L2429.34 1901.85 L2454.58 1901.73 L2479.95 1901.60 L2505.20 1901.35 L2530.56 1901.23 L2555.81 1900.98 L2581.18 1900.74 L2606.42 1900.49 L2631.79 1900.12 L2657.04 1899.75 L2682.41 1899.37 L2707.65 1899.00 L2733.02 1898.38 L2758.26 1897.89 L2783.63 1897.39 L2808.88 1896.65 L2834.25 1896.03 L2859.49 1895.29 L2884.86 1894.42 L2910.11 1893.56 L2935.47 1892.69 L2960.72 1891.58 L2986.09 1890.46 L3011.46 1889.23 L3036.70 1887.87 L3062.07 1886.38 L3087.32 1884.77 L3112.68 1882.92 L3137.93 1880.94 L3163.30 1878.83 L3188.54 1876.36 L3213.91 1873.76 L3239.16 1870.79 L3264.53 1867.57 L3289.77 1863.86 L3315.14 1859.77 L3340.38 1855.19 L3365.75 1850.12 L3391.00 1844.55 L3416.37 1838.12 L3441.61 1831.06 L3466.98 1823.14 L3492.22 1814.23 L3517.59 1804.33 L3542.84 1793.19 L3568.21 1780.69 L3593.45 1766.71 L3618.82 1750.99 L3644.07 1733.54 L3669.43 1713.99 L3694.68 1691.96 L3720.05 1667.46 L3745.42 1639.99 L3770.66 1609.42 L3770.66 1553.11 L3745.42 1589.74 L3720.05 1622.54 L3694.68 1651.74 L3669.43 1677.85 L3644.07 1701.12 L3618.82 1721.91 L3593.45 1740.60 L3568.21 1757.18 L3542.84 1772.03 L3517.59 1785.27 L3492.22 1797.15 L3466.98 1807.80 L3441.61 1817.20 L3416.37 1825.74 L3391.00 1833.29 L3365.75 1840.10 L3340.38 1846.16 L3315.14 1851.48 L3289.77 1856.43 L3264.53 1860.76 L3239.16 1864.60 L3213.91 1868.06 L3188.54 1871.16 L3163.30 1873.88 L3137.93 1876.36 L3112.68 1878.58 L3087.32 1880.69 L3062.07 1882.54 L3036.70 1884.15 L3011.46 1885.76 L2986.09 1887.25 L2960.72 1888.48 L2935.47 1889.85 L2910.11 1890.96 L2884.86 1892.07 L2859.49 1893.06 L2834.25 1893.93 L2808.88 1894.80 L2783.63 1895.66 L2758.26 1896.40 L2733.02 1897.02 L2707.65 1897.64 L2682.41 1898.14 L2657.04 1898.63 L2631.79 1899.13 L2606.42 1899.50 L2581.18 1899.75 L2555.81 1900.12 L2530.56 1900.36 L2505.20 1900.49 L2479.95 1900.74 L2454.58 1900.98 L2429.34 1901.11 L2403.97 1901.23 L2378.72 1901.35 L2353.35 1901.48 L2328.11 1901.60 L2302.74 1901.60 L2277.49 1901.73 L2252.13 1901.73 L2226.88 1901.85 L2201.51 1901.85 L2201.51 1902.22 Z" stroke-linejoin="round"/>
	</defs>
	<defs>
		<clipPath id="clipPath_LjMvvQsH">
			<use xlink:href="#path_hcjuziLl"/>
		</clipPath>
	</defs>
	<use xlink:href="#path_hcjuziLl" style="stroke:none;fill:#E6E6E6"/>
	<use xlink:href="#path_hcjuziLl" style="fill:none;stroke:#E0E0E0;stroke-width:14.69" clip-path="url(#clipPath_LjMvvQsH)"/>
	<defs>
		<path id="path_kzLBamjv" d="M2201.51 1902.22 L2201.51 1902.22 L2226.88 1902.22 L2252.13 1902.10 L2277.49 1902.10 L2302.74 1902.10 L2328.11 1902.10 L2353.35 1901.97 L2378.72 1901.97 L2403.97 1901.85 L2429.34 1901.73 L2454.58 1901.73 L2479.95 1901.48 L2505.20 1901.35 L2530.56 1901.23 L2555.81 1900.98 L2581.18 1900.74 L2606.42 1900.49 L2631.79 1900.24 L2657.04 1899.87 L2682.41 1899.50 L2707.65 1899.13 L2733.02 1898.63 L2758.26 1898.14 L2783.63 1897.64 L2808.88 1897.02 L2834.25 1896.40 L2859.49 1895.79 L2884.86 1895.04 L2910.11 1894.18 L2935.47 1893.31 L2960.72 1892.44 L2986.09 1891.45 L3011.46 1890.34 L3036.70 1889.10 L3062.07 1887.74 L3087.32 1886.26 L3112.68 1884.77 L3137.93 1883.04 L3163.30 1881.06 L3188.54 1878.95 L3213.91 1876.60 L3239.16 1874.00 L3264.53 1871.03 L3289.77 1867.69 L3315.14 1864.10 L3340.38 1860.02 L3365.75 1855.44 L3391.00 1850.37 L3416.37 1844.68 L3441.61 1838.24 L3466.98 1831.06 L3492.22 1823.14 L3517.59 1814.23 L3542.84 1804.21 L3568.21 1792.95 L3593.45 1780.45 L3618.82 1766.34 L3644.07 1750.62 L3669.43 1733.05 L3694.68 1713.37 L3720.05 1691.34 L3745.42 1666.72 L3770.66 1639.12 L3770.66 1388.77 L3745.42 1442.60 L3720.05 1490.62 L3694.68 1533.68 L3669.43 1572.05 L3644.07 1606.33 L3618.82 1637.02 L3593.45 1664.37 L3568.21 1688.87 L3542.84 1710.77 L3517.59 1730.33 L3492.22 1747.78 L3466.98 1763.37 L3441.61 1777.23 L3416.37 1789.73 L3391.00 1800.87 L3365.75 1810.77 L3340.38 1819.68 L3315.14 1827.72 L3289.77 1834.77 L3264.53 1841.21 L3239.16 1846.90 L3213.91 1852.10 L3188.54 1856.68 L3163.30 1860.76 L3137.93 1864.48 L3112.68 1867.82 L3087.32 1870.79 L3062.07 1873.63 L3036.70 1876.11 L3011.46 1878.46 L2986.09 1880.56 L2960.72 1882.54 L2935.47 1884.40 L2910.11 1886.13 L2884.86 1887.74 L2859.49 1889.10 L2834.25 1890.46 L2808.88 1891.70 L2783.63 1892.94 L2758.26 1893.93 L2733.02 1894.92 L2707.65 1895.79 L2682.41 1896.53 L2657.04 1897.27 L2631.79 1897.89 L2606.42 1898.38 L2581.18 1898.88 L2555.81 1899.37 L2530.56 1899.75 L2505.20 1899.99 L2479.95 1900.24 L2454.58 1900.49 L2429.34 1900.74 L2403.97 1900.98 L2378.72 1901.11 L2353.35 1901.23 L2328.11 1901.35 L2302.74 1901.48 L2277.49 1901.60 L2252.13 1901.60 L2226.88 1901.73 L2201.51 1901.85 L2201.51 1902.22 Z" stroke-linejoin="round"/>
	</defs>
	<defs>
		<clipPath id="clipPath_tJAYOhNG">
			<use xlink:href="#path_kzLBamjv"/>
		</clipPath>
	</defs>
	<use xlink:href="#path_kzLBamjv" style="stroke:none;fill:#E6E6E6"/>
	<use xlink:href="#path_kzLBamjv" style="fill:none;stroke:#E0E0E0;stroke-width:14.69" clip-path="url(#clipPath_tJAYOhNG)"/>
	<defs>
		<path id="path_JuDZwybk" d="M2201.51 1902.22 L2201.51 1902.22 L2226.88 1902.22 L2252.13 1902.10 L2277.49 1902.10 L2302.74 1902.10 L2328.11 1901.97 L2353.35 1901.97 L2378.72 1901.85 L2403.97 1901.85 L2429.34 1901.73 L2454.58 1901.60 L2479.95 1901.48 L2505.20 1901.23 L2530.56 1901.11 L2555.81 1900.86 L2581.18 1900.49 L2606.42 1900.24 L2631.79 1899.87 L2657.04 1899.37 L2682.41 1899.00 L2707.65 1898.51 L2733.02 1897.89 L2758.26 1897.27 L2783.63 1896.65 L2808.88 1895.91 L2834.25 1895.17 L2859.49 1894.30 L2884.86 1893.31 L2910.11 1892.32 L2935.47 1891.33 L2960.72 1890.09 L2986.09 1888.86 L3011.46 1887.37 L3036.70 1885.89 L3062.07 1884.15 L3087.32 1882.30 L3112.68 1880.32 L3137.93 1878.09 L3163.30 1875.61 L3188.54 1872.89 L3213.91 1869.92 L3239.16 1866.58 L3264.53 1862.87 L3289.77 1858.66 L3315.14 1854.08 L3340.38 1848.88 L3365.75 1843.19 L3391.00 1836.63 L3416.37 1829.45 L3441.61 1821.41 L3466.98 1812.38 L3492.22 1802.35 L3517.59 1791.09 L3542.84 1778.34 L3568.21 1764.24 L3593.45 1748.39 L3618.82 1730.57 L3644.07 1710.77 L3669.43 1688.50 L3694.68 1663.62 L3720.05 1635.90 L3745.42 1604.72 L3770.66 1569.94 L3770.66 1490.00 L3745.42 1533.19 L3720.05 1571.80 L3694.68 1606.33 L3669.43 1637.14 L3644.07 1664.74 L3618.82 1689.36 L3593.45 1711.39 L3568.21 1730.95 L3542.84 1748.52 L3517.59 1764.24 L3492.22 1778.22 L3466.98 1790.72 L3441.61 1801.86 L3416.37 1811.88 L3391.00 1820.91 L3365.75 1828.83 L3340.38 1836.01 L3315.14 1842.45 L3289.77 1848.14 L3264.53 1853.21 L3239.16 1857.79 L3213.91 1861.88 L3188.54 1865.59 L3163.30 1868.81 L3137.93 1871.78 L3112.68 1874.38 L3087.32 1876.85 L3062.07 1878.95 L3036.70 1880.94 L3011.46 1882.79 L2986.09 1884.52 L2960.72 1886.13 L2935.47 1887.62 L2910.11 1888.98 L2884.86 1890.22 L2859.49 1891.45 L2834.25 1892.57 L2808.88 1893.56 L2783.63 1894.55 L2758.26 1895.41 L2733.02 1896.16 L2707.65 1896.90 L2682.41 1897.52 L2657.04 1898.01 L2631.79 1898.51 L2606.42 1899.00 L2581.18 1899.37 L2555.81 1899.75 L2530.56 1899.99 L2505.20 1900.24 L2479.95 1900.49 L2454.58 1900.74 L2429.34 1900.86 L2403.97 1900.98 L2378.72 1901.23 L2353.35 1901.35 L2328.11 1901.48 L2302.74 1901.48 L2277.49 1901.60 L2252.13 1901.73 L2226.88 1901.73 L2201.51 1901.85 L2201.51 1902.22 Z" stroke-linejoin="round"/>
	</defs>
	<defs>
		<clipPath id="clipPath_DjhQRrTV">
			<use xlink:href="#path_JuDZwybk"/>
		</clipPath>
	</defs>
	<use xlink:href="#path_JuDZwybk" style="stroke:none;fill:#E6E6E6"/>
	<use xlink:href="#path_JuDZwybk" style="fill:none;stroke:#E0E0E0;stroke-width:14.69" clip-path="url(#clipPath_DjhQRrTV)"/>
	<defs>
		<path id="path_QyfwtQeC" d="M2201.51 1902.10 L2201.51 1902.10 L2226.88 1901.97 L2252.13 1901.97 L2277.49 1901.85 L2302.74 1901.85 L2328.11 1901.73 L2353.35 1901.60 L2378.72 1901.48 L2403.97 1901.23 L2429.34 1900.98 L2454.58 1900.74 L2479.95 1900.49 L2505.20 1900.12 L2530.56 1899.75 L2555.81 1899.25 L2581.18 1898.63 L2606.42 1898.01 L2631.79 1897.39 L2657.04 1896.53 L2682.41 1895.66 L2707.65 1894.67 L2733.02 1893.56 L2758.26 1892.44 L2783.63 1891.21 L2808.88 1889.72 L2834.25 1888.24 L2859.49 1886.63 L2884.86 1884.90 L2910.11 1882.92 L2935.47 1880.81 L2960.72 1878.58 L2986.09 1876.11 L3011.46 1873.51 L3036.70 1870.54 L3062.07 1867.45 L3087.32 1863.98 L3112.68 1860.14 L3137.93 1856.06 L3163.30 1851.36 L3188.54 1846.28 L3213.91 1840.72 L3239.16 1834.40 L3264.53 1827.35 L3289.77 1819.43 L3315.14 1810.64 L3340.38 1800.87 L3365.75 1789.98 L3391.00 1777.72 L3416.37 1763.99 L3441.61 1748.77 L3466.98 1731.69 L3492.22 1712.51 L3517.59 1691.10 L3542.84 1667.09 L3568.21 1640.23 L3593.45 1610.16 L3618.82 1576.50 L3644.07 1538.88 L3669.43 1496.68 L3694.68 1449.53 L3720.05 1396.81 L3745.42 1337.78 L3770.66 1271.82 L3770.66 389.95 L3745.42 547.98 L3720.05 689.43 L3694.68 815.91 L3669.43 929.02 L3644.07 1030.00 L3618.82 1120.34 L3593.45 1201.03 L3568.21 1273.18 L3542.84 1337.53 L3517.59 1395.08 L3492.22 1446.56 L3466.98 1492.47 L3441.61 1533.56 L3416.37 1570.31 L3391.00 1603.11 L3365.75 1632.44 L3340.38 1658.80 L3315.14 1682.31 L3289.77 1703.35 L3264.53 1722.16 L3239.16 1738.99 L3213.91 1754.09 L3188.54 1767.58 L3163.30 1779.70 L3137.93 1790.72 L3112.68 1800.62 L3087.32 1809.53 L3062.07 1817.70 L3036.70 1825.25 L3011.46 1832.05 L2986.09 1838.49 L2960.72 1844.30 L2935.47 1849.75 L2910.11 1854.70 L2884.86 1859.40 L2859.49 1863.61 L2834.25 1867.69 L2808.88 1871.28 L2783.63 1874.75 L2758.26 1877.84 L2733.02 1880.69 L2707.65 1883.29 L2682.41 1885.51 L2657.04 1887.62 L2631.79 1889.47 L2606.42 1891.08 L2581.18 1892.44 L2555.81 1893.68 L2530.56 1894.80 L2505.20 1895.79 L2479.95 1896.53 L2454.58 1897.27 L2429.34 1897.89 L2403.97 1898.51 L2378.72 1899.00 L2353.35 1899.37 L2328.11 1899.75 L2302.74 1899.99 L2277.49 1900.24 L2252.13 1900.49 L2226.88 1900.74 L2201.51 1900.98 L2201.51 1902.10 Z" stroke-linejoin="round"/>
	</defs>
	<defs>
		<clipPath id="clipPath_jjdnPrEn">
			<use xlink:href="#path_QyfwtQeC"/>
		</clipPath>
	</defs>
	<use xlink:href="#path_QyfwtQeC" style="stroke:none;fill:#E6E6E6"/>
	<use xlink:href="#path_QyfwtQeC" style="fill:none;stroke:#E0E0E0;stroke-width:14.69" clip-path="url(#clipPath_jjdnPrEn)"/>
	<defs>
		<path id="path_GAkjCYZf" d="M2201.51 1902.10 L2201.51 1902.10 L2226.88 1902.10 L2252.13 1902.10 L2277.49 1901.97 L2302.74 1901.97 L2328.11 1901.85 L2353.35 1901.73 L2378.72 1901.73 L2403.97 1901.48 L2429.34 1901.35 L2454.58 1901.23 L2479.95 1900.98 L2505.20 1900.74 L2530.56 1900.36 L2555.81 1900.12 L2581.18 1899.62 L2606.42 1899.25 L2631.79 1898.76 L2657.04 1898.14 L2682.41 1897.52 L2707.65 1896.78 L2733.02 1896.03 L2758.26 1895.17 L2783.63 1894.30 L2808.88 1893.31 L2834.25 1892.20 L2859.49 1890.96 L2884.86 1889.72 L2910.11 1888.36 L2935.47 1886.88 L2960.72 1885.27 L2986.09 1883.41 L3011.46 1881.55 L3036.70 1879.45 L3062.07 1877.22 L3087.32 1874.75 L3112.68 1872.02 L3137.93 1869.05 L3163.30 1865.71 L3188.54 1862.00 L3213.91 1858.04 L3239.16 1853.46 L3264.53 1848.39 L3289.77 1842.82 L3315.14 1836.51 L3340.38 1829.45 L3365.75 1821.66 L3391.00 1812.87 L3416.37 1803.09 L3441.61 1792.08 L3466.98 1779.83 L3492.22 1766.09 L3517.59 1750.75 L3542.84 1733.54 L3568.21 1714.24 L3593.45 1692.71 L3618.82 1668.57 L3644.07 1641.47 L3669.43 1611.28 L3694.68 1577.49 L3720.05 1539.62 L3745.42 1497.30 L3770.66 1449.90 L3770.66 792.77 L3745.42 908.97 L3720.05 1012.80 L3694.68 1105.62 L3669.43 1188.53 L3644.07 1262.78 L3618.82 1328.99 L3593.45 1388.27 L3568.21 1441.11 L3542.84 1488.39 L3517.59 1530.59 L3492.22 1568.33 L3466.98 1601.99 L3441.61 1632.19 L3416.37 1659.04 L3391.00 1683.18 L3365.75 1704.71 L3340.38 1724.02 L3315.14 1741.22 L3289.77 1756.56 L3264.53 1770.42 L3239.16 1782.80 L3213.91 1793.81 L3188.54 1803.84 L3163.30 1812.75 L3137.93 1820.67 L3112.68 1827.97 L3087.32 1834.53 L3062.07 1840.59 L3036.70 1846.04 L3011.46 1851.11 L2986.09 1855.69 L2960.72 1860.02 L2935.47 1863.86 L2910.11 1867.57 L2884.86 1870.91 L2859.49 1874.13 L2834.25 1876.97 L2808.88 1879.70 L2783.63 1882.17 L2758.26 1884.40 L2733.02 1886.50 L2707.65 1888.36 L2682.41 1890.09 L2657.04 1891.58 L2631.79 1892.94 L2606.42 1894.05 L2581.18 1895.17 L2555.81 1896.03 L2530.56 1896.78 L2505.20 1897.52 L2479.95 1898.14 L2454.58 1898.63 L2429.34 1899.13 L2403.97 1899.50 L2378.72 1899.87 L2353.35 1900.12 L2328.11 1900.36 L2302.74 1900.61 L2277.49 1900.86 L2252.13 1900.98 L2226.88 1901.11 L2201.51 1901.23 L2201.51 1902.10 Z" stroke-linejoin="round"/>
	</defs>
	<defs>
		<clipPath id="clipPath_fqJeAeoj">
			<use xlink:href="#path_GAkjCYZf"/>
		</clipPath>
	</defs>
	<use xlink:href="#path_GAkjCYZf" style="stroke:none;fill:#E6E6E6"/>
	<use xlink:href="#path_GAkjCYZf" style="fill:none;stroke:#E0E0E0;stroke-width:14.69" clip-path="url(#clipPath_fqJeAeoj)"/>
	<path d=" M2201.39 1902.10 L2226.76 1902.10 L2252.13 1902.10 L2277.37 1901.97 L2302.74 1901.97 L2327.99 1901.85 L2353.35 1901.85 L2378.60 1901.73 L2403.97 1901.60 L2429.21 1901.48 L2454.58 1901.35 L2479.83 1901.11 L2505.20 1900.98 L2530.44 1900.74 L2555.81 1900.36 L2581.05 1900.12 L2606.42 1899.75 L2631.67 1899.37 L2657.04 1898.88 L2682.28 1898.38 L2707.65 1897.77 L2732.89 1897.15 L2758.26 1896.53 L2783.51 1895.79 L2808.88 1894.92 L2834.12 1894.05 L2859.49 1893.06 L2884.74 1892.07 L2910.11 1890.96 L2935.35 1889.72 L2960.72 1888.36 L2986.09 1887.00 L3011.33 1885.39 L3036.70 1883.78 L3061.95 1881.93 L3087.32 1879.94 L3112.56 1877.72 L3137.93 1875.37 L3163.17 1872.64 L3188.54 1869.67 L3213.79 1866.46 L3239.16 1862.74 L3264.40 1858.66 L3289.77 1854.08 L3315.01 1849.01 L3340.38 1843.31 L3365.63 1836.88 L3391.00 1829.70 L3416.24 1821.78 L3441.61 1812.87 L3466.86 1802.85 L3492.22 1791.71 L3517.47 1779.21 L3542.84 1765.23 L3568.08 1749.63 L3593.45 1732.06 L3618.70 1712.51 L3644.07 1690.48 L3669.31 1665.97 L3694.68 1638.38 L3719.93 1607.69 L3745.29 1573.28 L3770.66 1534.67" stroke-linejoin="round" style="fill:none;stroke:#008000;stroke-width:7.34"/>
	<path d=" M2201.39 1902.10 L2226.76 1902.10 L2252.13 1902.10 L2277.37 1901.97 L2302.74 1901.97 L2327.99 1901.85 L2353.35 1901.85 L2378.60 1901.73 L2403.97 1901.60 L2429.21 1901.48 L2454.58 1901.35 L2479.83 1901.11 L2505.20 1900.86 L2530.44 1900.74 L2555.81 1900.36 L2581.05 1900.12 L2606.42 1899.75 L2631.67 1899.37 L2657.04 1898.88 L2682.28 1898.38 L2707.65 1897.77 L2732.89 1897.15 L2758.26 1896.53 L2783.51 1895.66 L2808.88 1894.92 L2834.12 1894.05 L2859.49 1893.06 L2884.74 1891.95 L2910.11 1890.84 L2935.35 1889.60 L2960.72 1888.36 L2986.09 1886.88 L3011.33 1885.27 L3036.70 1883.66 L3061.95 1881.80 L3087.32 1879.82 L3112.56 1877.59 L3137.93 1875.12 L3163.17 1872.52 L3188.54 1869.43 L3213.79 1866.21 L3239.16 1862.50 L3264.40 1858.29 L3289.77 1853.71 L3315.01 1848.64 L3340.38 1842.82 L3365.63 1836.38 L3391.00 1829.21 L3416.24 1821.29 L3441.61 1812.25 L3466.86 1802.23 L3492.22 1790.97 L3517.47 1778.34 L3542.84 1764.36 L3568.08 1748.52 L3593.45 1730.95 L3618.70 1711.14 L3644.07 1689.12 L3669.31 1664.37 L3694.68 1636.64 L3719.93 1605.58 L3745.29 1570.93 L3770.66 1532.20" stroke-linejoin="round" style="fill:none;stroke:#FF0000;stroke-width:7.34"/>
	<path d=" M2201.39 1901.85 L2226.76 1901.73 L2252.13 1901.60 L2277.37 1901.48 L2302.74 1901.35 L2327.99 1901.11 L2353.35 1900.86 L2378.60 1900.61 L2403.97 1900.36 L2429.21 1899.99 L2454.58 1899.62 L2479.83 1899.13 L2505.20 1898.63 L2530.44 1897.89 L2555.81 1897.27 L2581.05 1896.40 L2606.42 1895.41 L2631.67 1894.42 L2657.04 1893.19 L2682.28 1891.83 L2707.65 1890.34 L2732.89 1888.61 L2758.26 1886.88 L2783.51 1884.77 L2808.88 1882.67 L2834.12 1880.32 L2859.49 1877.72 L2884.74 1874.99 L2910.11 1872.02 L2935.35 1868.81 L2960.72 1865.34 L2986.09 1861.51 L3011.33 1857.42 L3036.70 1852.97 L3061.95 1848.02 L3087.32 1842.70 L3112.56 1836.88 L3137.93 1830.44 L3163.17 1823.39 L3188.54 1815.59 L3213.79 1806.81 L3239.16 1797.03 L3264.40 1786.14 L3289.77 1774.01 L3315.01 1760.40 L3340.38 1745.18 L3365.63 1728.22 L3391.00 1709.29 L3416.24 1688.13 L3441.61 1664.37 L3466.86 1637.88 L3492.22 1608.18 L3517.47 1575.02 L3542.84 1537.89 L3568.08 1496.31 L3593.45 1449.65 L3618.70 1397.55 L3644.07 1339.26 L3669.31 1273.92 L3694.68 1200.91 L3719.93 1119.23 L3745.29 1027.78 L3770.66 925.68" stroke-linejoin="round" style="fill:none;stroke:#FFD200;stroke-width:7.34"/>
	<path d=" M2201.39 1901.97 L2226.76 1901.85 L2252.13 1901.85 L2277.37 1901.73 L2302.74 1901.60 L2327.99 1901.48 L2353.35 1901.35 L2378.60 1901.11 L2403.97 1900.86 L2429.21 1900.61 L2454.58 1900.36 L2479.83 1899.99 L2505.20 1899.62 L2530.44 1899.13 L2555.81 1898.63 L2581.05 1898.01 L2606.42 1897.39 L2631.67 1896.53 L2657.04 1895.66 L2682.28 1894.67 L2707.65 1893.68 L2732.89 1892.44 L2758.26 1891.08 L2783.51 1889.60 L2808.88 1888.11 L2834.12 1886.38 L2859.49 1884.52 L2884.74 1882.54 L2910.11 1880.32 L2935.35 1877.96 L2960.72 1875.49 L2986.09 1872.77 L3011.33 1869.80 L3036.70 1866.46 L3061.95 1862.99 L3087.32 1859.15 L3112.56 1854.95 L3137.93 1850.24 L3163.17 1845.17 L3188.54 1839.35 L3213.79 1833.04 L3239.16 1825.99 L3264.40 1818.07 L3289.77 1809.28 L3315.01 1799.38 L3340.38 1788.37 L3365.63 1776.12 L3391.00 1762.38 L3416.24 1747.03 L3441.61 1729.83 L3466.86 1710.53 L3492.22 1689.12 L3517.47 1664.98 L3542.84 1638.01 L3568.08 1607.81 L3593.45 1574.03 L3618.70 1536.28 L3644.07 1493.96 L3669.31 1446.56 L3694.68 1393.59 L3719.93 1334.31 L3745.29 1267.98 L3770.66 1193.85" stroke-linejoin="round" style="fill:none;stroke:#FFD200;stroke-width:7.34"/>
	<path d=" M2201.39 1902.22 L2226.76 1902.10 L2252.13 1902.10 L2277.37 1902.10 L2302.74 1901.97 L2327.99 1901.97 L2353.35 1901.85 L2378.60 1901.73 L2403.97 1901.73 L2429.21 1901.60 L2454.58 1901.48 L2479.83 1901.23 L2505.20 1901.11 L2530.44 1900.86 L2555.81 1900.61 L2581.05 1900.36 L2606.42 1900.12 L2631.67 1899.75 L2657.04 1899.37 L2682.28 1898.88 L2707.65 1898.38 L2732.89 1897.89 L2758.26 1897.27 L2783.51 1896.65 L2808.88 1895.91 L2834.12 1895.17 L2859.49 1894.30 L2884.74 1893.43 L2910.11 1892.44 L2935.35 1891.33 L2960.72 1890.22 L2986.09 1888.98 L3011.33 1887.62 L3036.70 1886.13 L3061.95 1884.65 L3087.32 1882.92 L3112.56 1880.94 L3137.93 1878.83 L3163.17 1876.48 L3188.54 1874.00 L3213.79 1871.03 L3239.16 1867.94 L3264.40 1864.35 L3289.77 1860.39 L3315.01 1855.94 L3340.38 1850.99 L3365.63 1845.42 L3391.00 1839.23 L3416.24 1832.30 L3441.61 1824.50 L3466.86 1815.84 L3492.22 1806.19 L3517.47 1795.30 L3542.84 1783.17 L3568.08 1769.56 L3593.45 1754.21 L3618.70 1737.26 L3644.07 1718.07 L3669.31 1696.67 L3694.68 1672.78 L3719.93 1646.05 L3745.29 1616.10 L3770.66 1582.56" stroke-linejoin="round" style="fill:none;stroke:#1A476F;stroke-width:7.34"/>
	<line x1="2201.39" y1="1839.23" x2="2204.24" y2="1839.23" style="stroke:#000000;stroke-width:7.34"/>
	<line x1="2224.41" y1="1839.23" x2="2226.76" y2="1839.23" style="stroke:#000000;stroke-width:7.34"/>
	<line x1="2226.76" y1="1839.23" x2="2227.25" y2="1839.23" style="stroke:#000000;stroke-width:7.34"/>
	<line x1="2247.42" y1="1839.23" x2="2250.27" y2="1839.23" style="stroke:#000000;stroke-width:7.34"/>
	<line x1="2270.44" y1="1839.23" x2="2273.29" y2="1839.23" style="stroke:#000000;stroke-width:7.34"/>
	<line x1="2293.46" y1="1839.23" x2="2296.43" y2="1839.23" style="stroke:#000000;stroke-width:7.34"/>
	<line x1="2316.60" y1="1839.23" x2="2319.45" y2="1839.23" style="stroke:#000000;stroke-width:7.34"/>
	<line x1="2339.62" y1="1839.23" x2="2342.46" y2="1839.23" style="stroke:#000000;stroke-width:7.34"/>
	<line x1="2362.64" y1="1839.23" x2="2365.48" y2="1839.23" style="stroke:#000000;stroke-width:7.34"/>
	<line x1="2385.65" y1="1839.23" x2="2388.50" y2="1839.23" style="stroke:#000000;stroke-width:7.34"/>
	<line x1="2408.67" y1="1839.23" x2="2411.52" y2="1839.23" style="stroke:#000000;stroke-width:7.34"/>
	<line x1="2431.69" y1="1839.23" x2="2434.53" y2="1839.23" style="stroke:#000000;stroke-width:7.34"/>
	<line x1="2454.70" y1="1839.23" x2="2457.55" y2="1839.23" style="stroke:#000000;stroke-width:7.34"/>
	<line x1="2477.72" y1="1839.23" x2="2479.83" y2="1839.23" style="stroke:#000000;stroke-width:7.34"/>
	<line x1="2479.83" y1="1839.23" x2="2480.57" y2="1839.23" style="stroke:#000000;stroke-width:7.34"/>
	<line x1="2500.74" y1="1839.23" x2="2503.59" y2="1839.23" style="stroke:#000000;stroke-width:7.34"/>
	<line x1="2523.76" y1="1839.23" x2="2526.60" y2="1839.23" style="stroke:#000000;stroke-width:7.34"/>
	<line x1="2546.78" y1="1839.23" x2="2549.74" y2="1839.23" style="stroke:#000000;stroke-width:7.34"/>
	<line x1="2569.92" y1="1839.23" x2="2572.76" y2="1839.23" style="stroke:#000000;stroke-width:7.34"/>
	<line x1="2592.93" y1="1839.23" x2="2595.78" y2="1839.23" style="stroke:#000000;stroke-width:7.34"/>
	<line x1="2615.95" y1="1839.23" x2="2618.80" y2="1839.23" style="stroke:#000000;stroke-width:7.34"/>
	<line x1="2638.97" y1="1839.23" x2="2641.82" y2="1839.23" style="stroke:#000000;stroke-width:7.34"/>
	<line x1="2661.99" y1="1839.23" x2="2664.83" y2="1839.23" style="stroke:#000000;stroke-width:7.34"/>
	<line x1="2685.00" y1="1839.23" x2="2687.85" y2="1839.23" style="stroke:#000000;stroke-width:7.34"/>
	<line x1="2708.02" y1="1839.23" x2="2710.87" y2="1839.23" style="stroke:#000000;stroke-width:7.34"/>
	<line x1="2731.04" y1="1839.23" x2="2732.89" y2="1839.23" style="stroke:#000000;stroke-width:7.34"/>
	<line x1="2732.89" y1="1839.23" x2="2733.89" y2="1839.23" style="stroke:#000000;stroke-width:7.34"/>
	<line x1="2754.06" y1="1839.23" x2="2756.90" y2="1839.23" style="stroke:#000000;stroke-width:7.34"/>
	<line x1="2777.07" y1="1839.23" x2="2779.92" y2="1839.23" style="stroke:#000000;stroke-width:7.34"/>
	<line x1="2800.09" y1="1839.23" x2="2803.06" y2="1839.23" style="stroke:#000000;stroke-width:7.34"/>
	<line x1="2823.23" y1="1839.23" x2="2826.08" y2="1839.23" style="stroke:#000000;stroke-width:7.34"/>
	<line x1="2846.25" y1="1839.23" x2="2849.10" y2="1839.23" style="stroke:#000000;stroke-width:7.34"/>
	<line x1="2869.27" y1="1839.23" x2="2872.11" y2="1839.23" style="stroke:#000000;stroke-width:7.34"/>
	<line x1="2892.28" y1="1839.23" x2="2895.13" y2="1839.23" style="stroke:#000000;stroke-width:7.34"/>
	<line x1="2915.30" y1="1839.23" x2="2918.15" y2="1839.23" style="stroke:#000000;stroke-width:7.34"/>
	<line x1="2938.32" y1="1839.23" x2="2941.17" y2="1839.23" style="stroke:#000000;stroke-width:7.34"/>
	<line x1="2961.34" y1="1839.23" x2="2964.18" y2="1839.23" style="stroke:#000000;stroke-width:7.34"/>
	<line x1="2984.36" y1="1839.23" x2="2986.09" y2="1839.23" style="stroke:#000000;stroke-width:7.34"/>
	<line x1="2986.09" y1="1839.23" x2="2987.20" y2="1839.23" style="stroke:#000000;stroke-width:7.34"/>
	<line x1="3007.37" y1="1839.23" x2="3010.22" y2="1839.23" style="stroke:#000000;stroke-width:7.34"/>
	<line x1="3030.39" y1="1839.23" x2="3033.36" y2="1839.23" style="stroke:#000000;stroke-width:7.34"/>
	<line x1="3053.41" y1="1839.23" x2="3056.38" y2="1839.23" style="stroke:#000000;stroke-width:7.34"/>
	<line x1="3076.55" y1="1839.23" x2="3079.39" y2="1839.23" style="stroke:#000000;stroke-width:7.34"/>
	<line x1="3099.57" y1="1839.23" x2="3102.41" y2="1839.23" style="stroke:#000000;stroke-width:7.34"/>
	<line x1="3122.58" y1="1839.23" x2="3125.43" y2="1839.23" style="stroke:#000000;stroke-width:7.34"/>
	<line x1="3145.60" y1="1839.23" x2="3148.45" y2="1839.23" style="stroke:#000000;stroke-width:7.34"/>
	<line x1="3168.62" y1="1839.23" x2="3171.47" y2="1839.23" style="stroke:#000000;stroke-width:7.34"/>
	<line x1="3191.64" y1="1839.23" x2="3194.48" y2="1839.23" style="stroke:#000000;stroke-width:7.34"/>
	<line x1="3214.65" y1="1839.23" x2="3217.50" y2="1839.23" style="stroke:#000000;stroke-width:7.34"/>
	<line x1="3237.67" y1="1839.23" x2="3239.16" y2="1839.23" style="stroke:#000000;stroke-width:7.34"/>
	<line x1="3239.16" y1="1839.23" x2="3240.52" y2="1839.23" style="stroke:#000000;stroke-width:7.34"/>
	<line x1="3260.69" y1="1839.23" x2="3263.53" y2="1839.23" style="stroke:#000000;stroke-width:7.34"/>
	<line x1="3283.71" y1="1839.23" x2="3286.68" y2="1839.23" style="stroke:#000000;stroke-width:7.34"/>
	<line x1="3306.72" y1="1839.23" x2="3309.69" y2="1839.23" style="stroke:#000000;stroke-width:7.34"/>
	<line x1="3329.86" y1="1839.23" x2="3332.71" y2="1839.23" style="stroke:#000000;stroke-width:7.34"/>
	<line x1="3352.88" y1="1839.23" x2="3355.73" y2="1839.23" style="stroke:#000000;stroke-width:7.34"/>
	<line x1="3375.90" y1="1839.23" x2="3378.75" y2="1839.23" style="stroke:#000000;stroke-width:7.34"/>
	<line x1="3398.92" y1="1839.23" x2="3401.76" y2="1839.23" style="stroke:#000000;stroke-width:7.34"/>
	<line x1="3421.93" y1="1839.23" x2="3424.78" y2="1839.23" style="stroke:#000000;stroke-width:7.34"/>
	<line x1="3444.95" y1="1839.23" x2="3447.80" y2="1839.23" style="stroke:#000000;stroke-width:7.34"/>
	<line x1="3467.97" y1="1839.23" x2="3470.82" y2="1839.23" style="stroke:#000000;stroke-width:7.34"/>
	<line x1="3490.99" y1="1839.23" x2="3492.22" y2="1839.23" style="stroke:#000000;stroke-width:7.34"/>
	<line x1="3492.22" y1="1839.23" x2="3493.83" y2="1839.23" style="stroke:#000000;stroke-width:7.34"/>
	<line x1="3514.01" y1="1839.23" x2="3516.85" y2="1839.23" style="stroke:#000000;stroke-width:7.34"/>
	<line x1="3537.02" y1="1839.23" x2="3539.99" y2="1839.23" style="stroke:#000000;stroke-width:7.34"/>
	<line x1="3560.04" y1="1839.23" x2="3563.01" y2="1839.23" style="stroke:#000000;stroke-width:7.34"/>
	<line x1="3583.18" y1="1839.23" x2="3586.03" y2="1839.23" style="stroke:#000000;stroke-width:7.34"/>
	<line x1="3606.20" y1="1839.23" x2="3609.05" y2="1839.23" style="stroke:#000000;stroke-width:7.34"/>
	<line x1="3629.22" y1="1839.23" x2="3632.06" y2="1839.23" style="stroke:#000000;stroke-width:7.34"/>
	<line x1="3652.23" y1="1839.23" x2="3655.08" y2="1839.23" style="stroke:#000000;stroke-width:7.34"/>
	<line x1="3675.25" y1="1839.23" x2="3678.10" y2="1839.23" style="stroke:#000000;stroke-width:7.34"/>
	<line x1="3698.27" y1="1839.23" x2="3701.11" y2="1839.23" style="stroke:#000000;stroke-width:7.34"/>
	<line x1="3721.29" y1="1839.23" x2="3724.13" y2="1839.23" style="stroke:#000000;stroke-width:7.34"/>
	<line x1="3744.30" y1="1839.23" x2="3745.29" y2="1839.23" style="stroke:#000000;stroke-width:7.34"/>
	<line x1="3745.29" y1="1839.23" x2="3747.15" y2="1839.23" style="stroke:#000000;stroke-width:7.34"/>
	<line x1="3767.32" y1="1839.23" x2="3770.17" y2="1839.23" style="stroke:#000000;stroke-width:7.34"/>
	<path d="" stroke-linejoin="round" style="fill:none;stroke:#000000;stroke-width:7.34"/>
	<line x1="401.69" y1="1956.18" x2="401.69" y2="258.27" style="stroke:#000000;stroke-width:4.90"/>
	<line x1="401.69" y1="1902.22" x2="367.66" y2="1902.22" style="stroke:#000000;stroke-width:4.90"/>
	<text x="350.71" y="1932.01" style="font-family:'Helvetica';font-size:85.02px;fill:#000000" text-anchor="end">0</text>
	<line x1="401.69" y1="1675.13" x2="367.66" y2="1675.13" style="stroke:#000000;stroke-width:4.90"/>
	<text x="350.71" y="1704.92" style="font-family:'Helvetica';font-size:85.02px;fill:#000000" text-anchor="end">.001</text>
	<line x1="401.69" y1="1447.92" x2="367.66" y2="1447.92" style="stroke:#000000;stroke-width:4.90"/>
	<text x="350.71" y="1477.71" style="font-family:'Helvetica';font-size:85.02px;fill:#000000" text-anchor="end">.002</text>
	<line x1="401.69" y1="1220.71" x2="367.66" y2="1220.71" style="stroke:#000000;stroke-width:4.90"/>
	<text x="350.71" y="1250.50" style="font-family:'Helvetica';font-size:85.02px;fill:#000000" text-anchor="end">.003</text>
	<line x1="401.69" y1="993.62" x2="367.66" y2="993.62" style="stroke:#000000;stroke-width:4.90"/>
	<text x="350.71" y="1023.41" style="font-family:'Helvetica';font-size:85.02px;fill:#000000" text-anchor="end">.004</text>
	<line x1="401.69" y1="766.41" x2="367.66" y2="766.41" style="stroke:#000000;stroke-width:4.90"/>
	<text x="350.71" y="796.20" style="font-family:'Helvetica';font-size:85.02px;fill:#000000" text-anchor="end">.005</text>
	<line x1="401.69" y1="539.32" x2="367.66" y2="539.32" style="stroke:#000000;stroke-width:4.90"/>
	<text x="350.71" y="569.11" style="font-family:'Helvetica';font-size:85.02px;fill:#000000" text-anchor="end">.006</text>
	<line x1="401.69" y1="312.11" x2="367.66" y2="312.11" style="stroke:#000000;stroke-width:4.90"/>
	<text x="350.71" y="341.89" style="font-family:'Helvetica';font-size:85.02px;fill:#000000" text-anchor="end">.007</text>
	<line x1="401.69" y1="1956.18" x2="2078.51" y2="1956.18" style="stroke:#000000;stroke-width:4.90"/>
	<line x1="506.14" y1="1956.18" x2="506.14" y2="1973.13" style="stroke:#000000;stroke-width:4.90"/>
	<line x1="632.73" y1="1956.18" x2="632.73" y2="1973.13" style="stroke:#000000;stroke-width:4.90"/>
	<line x1="759.21" y1="1956.18" x2="759.21" y2="1973.13" style="stroke:#000000;stroke-width:4.90"/>
	<line x1="885.80" y1="1956.18" x2="885.80" y2="1973.13" style="stroke:#000000;stroke-width:4.90"/>
	<line x1="1012.27" y1="1956.18" x2="1012.27" y2="1973.13" style="stroke:#000000;stroke-width:4.90"/>
	<line x1="1138.87" y1="1956.18" x2="1138.87" y2="1973.13" style="stroke:#000000;stroke-width:4.90"/>
	<line x1="1265.47" y1="1956.18" x2="1265.47" y2="1973.13" style="stroke:#000000;stroke-width:4.90"/>
	<line x1="1391.94" y1="1956.18" x2="1391.94" y2="1973.13" style="stroke:#000000;stroke-width:4.90"/>
	<line x1="1518.54" y1="1956.18" x2="1518.54" y2="1973.13" style="stroke:#000000;stroke-width:4.90"/>
	<line x1="1645.01" y1="1956.18" x2="1645.01" y2="1973.13" style="stroke:#000000;stroke-width:4.90"/>
	<line x1="1771.61" y1="1956.18" x2="1771.61" y2="1973.13" style="stroke:#000000;stroke-width:4.90"/>
	<line x1="1898.20" y1="1956.18" x2="1898.20" y2="1973.13" style="stroke:#000000;stroke-width:4.90"/>
	<line x1="2024.67" y1="1956.18" x2="2024.67" y2="1973.13" style="stroke:#000000;stroke-width:4.90"/>
	<line x1="506.14" y1="1956.18" x2="506.14" y2="1990.09" style="stroke:#000000;stroke-width:4.90"/>
	<text x="506.14" y="2066.62" style="font-family:'Helvetica';font-size:85.02px;fill:#000000" text-anchor="middle">20</text>
	<line x1="1012.27" y1="1956.18" x2="1012.27" y2="1990.09" style="stroke:#000000;stroke-width:4.90"/>
	<text x="1012.27" y="2066.62" style="font-family:'Helvetica';font-size:85.02px;fill:#000000" text-anchor="middle">40</text>
	<line x1="1518.54" y1="1956.18" x2="1518.54" y2="1990.09" style="stroke:#000000;stroke-width:4.90"/>
	<text x="1518.54" y="2066.62" style="font-family:'Helvetica';font-size:85.02px;fill:#000000" text-anchor="middle">60</text>
	<line x1="2024.67" y1="1956.18" x2="2024.67" y2="1990.09" style="stroke:#000000;stroke-width:4.90"/>
	<text x="2024.67" y="2066.62" style="font-family:'Helvetica';font-size:85.02px;fill:#000000" text-anchor="middle">80</text>
	<line x1="2147.68" y1="1956.18" x2="3824.49" y2="1956.18" style="stroke:#000000;stroke-width:4.90"/>
	<line x1="2252.13" y1="1956.18" x2="2252.13" y2="1973.13" style="stroke:#000000;stroke-width:4.90"/>
	<line x1="2378.72" y1="1956.18" x2="2378.72" y2="1973.13" style="stroke:#000000;stroke-width:4.90"/>
	<line x1="2505.20" y1="1956.18" x2="2505.20" y2="1973.13" style="stroke:#000000;stroke-width:4.90"/>
	<line x1="2631.79" y1="1956.18" x2="2631.79" y2="1973.13" style="stroke:#000000;stroke-width:4.90"/>
	<line x1="2758.26" y1="1956.18" x2="2758.26" y2="1973.13" style="stroke:#000000;stroke-width:4.90"/>
	<line x1="2884.86" y1="1956.18" x2="2884.86" y2="1973.13" style="stroke:#000000;stroke-width:4.90"/>
	<line x1="3011.46" y1="1956.18" x2="3011.46" y2="1973.13" style="stroke:#000000;stroke-width:4.90"/>
	<line x1="3137.93" y1="1956.18" x2="3137.93" y2="1973.13" style="stroke:#000000;stroke-width:4.90"/>
	<line x1="3264.53" y1="1956.18" x2="3264.53" y2="1973.13" style="stroke:#000000;stroke-width:4.90"/>
	<line x1="3391.00" y1="1956.18" x2="3391.00" y2="1973.13" style="stroke:#000000;stroke-width:4.90"/>
	<line x1="3517.59" y1="1956.18" x2="3517.59" y2="1973.13" style="stroke:#000000;stroke-width:4.90"/>
	<line x1="3644.07" y1="1956.18" x2="3644.07" y2="1973.13" style="stroke:#000000;stroke-width:4.90"/>
	<line x1="3770.66" y1="1956.18" x2="3770.66" y2="1973.13" style="stroke:#000000;stroke-width:4.90"/>
	<line x1="2252.13" y1="1956.18" x2="2252.13" y2="1990.09" style="stroke:#000000;stroke-width:4.90"/>
	<text x="2252.13" y="2066.62" style="font-family:'Helvetica';font-size:85.02px;fill:#000000" text-anchor="middle">20</text>
	<line x1="2758.26" y1="1956.18" x2="2758.26" y2="1990.09" style="stroke:#000000;stroke-width:4.90"/>
	<text x="2758.26" y="2066.62" style="font-family:'Helvetica';font-size:85.02px;fill:#000000" text-anchor="middle">40</text>
	<line x1="3264.53" y1="1956.18" x2="3264.53" y2="1990.09" style="stroke:#000000;stroke-width:4.90"/>
	<text x="3264.53" y="2066.62" style="font-family:'Helvetica';font-size:85.02px;fill:#000000" text-anchor="middle">60</text>
	<line x1="3770.66" y1="1956.18" x2="3770.66" y2="1990.09" style="stroke:#000000;stroke-width:4.90"/>
	<text x="3770.66" y="2066.62" style="font-family:'Helvetica';font-size:85.02px;fill:#000000" text-anchor="middle">80</text>
	<rect x="401.69" y="135.39" width="1676.81" height="122.89" style="fill:#D9E6EB"/>
	<rect x="404.14" y="137.83" width="1671.92" height="117.99" style="fill:none;stroke:#D9E6EB;stroke-width:4.90"/>
	<text x="1240.10" y="215.42" style="font-family:'Helvetica';font-size:93.56px;fill:#000000" text-anchor="middle">Female</text>
	<rect x="2147.68" y="135.39" width="1676.81" height="122.89" style="fill:#D9E6EB"/>
	<rect x="2150.13" y="137.83" width="1671.92" height="117.99" style="fill:none;stroke:#D9E6EB;stroke-width:4.90"/>
	<text x="2986.09" y="215.42" style="font-family:'Helvetica';font-size:93.56px;fill:#000000" text-anchor="middle">Male</text>
	<rect x="334.25" y="2278.31" width="3291.38" height="466.30" style="fill:#FFFFFF"/>
	<rect x="337.13" y="2281.19" width="3285.62" height="460.54" style="fill:none;stroke:#000000;stroke-width:5.76"/>
	<line x1="377.44" y1="2371.50" x2="751.90" y2="2371.50" style="stroke:#008000;stroke-width:8.64"/>
	<line x1="2328.48" y1="2371.50" x2="2702.82" y2="2371.50" style="stroke:#FF0000;stroke-width:8.64"/>
	<line x1="377.44" y1="2511.46" x2="751.90" y2="2511.46" style="stroke:#FFD200;stroke-width:8.64"/>
	<line x1="2328.48" y1="2511.46" x2="2702.82" y2="2511.46" style="stroke:#FFD200;stroke-width:8.64"/>
	<line x1="377.44" y1="2651.43" x2="751.90" y2="2651.43" style="stroke:#1A476F;stroke-width:8.64"/>
	<text x="811.80" y="2406.52" style="font-family:'Helvetica';font-size:99.99px;fill:#000000">Spleen</text>
	<text x="2762.84" y="2406.52" style="font-family:'Helvetica';font-size:99.99px;fill:#000000">RA/SLE/Psoriasis</text>
	<text x="811.80" y="2546.49" style="font-family:'Helvetica';font-size:99.99px;fill:#000000">Immunosuppression (not HIV)</text>
	<text x="2762.84" y="2546.49" style="font-family:'Helvetica';font-size:99.99px;fill:#000000">HIV</text>
	<text x="811.80" y="2686.46" style="font-family:'Helvetica';font-size:99.99px;fill:#000000">No comborbidity</text>
	<text x="1980.00" y="2213.60" style="font-family:'Helvetica';font-size:99.99px;fill:#000000" text-anchor="middle">Age (years)</text>
</svg>
