<?xml version="1.0" encoding="UTF-8" standalone="no"?>
<!-- This is a Stata 16.1 generated SVG file (http://www.stata.com) -->

<svg version="1.1" width="1600px" height="1164px" viewBox="0 0 3960 2880" xmlns="http://www.w3.org/2000/svg" xmlns:xlink="http://www.w3.org/1999/xlink">
	<desc>Stata Graph - Graph</desc>
	<rect x="0" y="0" width="3960" height="2880" style="fill:#EAF2F3;stroke:none"/>
	<rect x="0.00" y="0.00" width="3959.88" height="2880.00" style="fill:#EAF2F3"/>
	<rect x="2.88" y="2.88" width="3954.12" height="2874.24" style="fill:none;stroke:#EAF2F3;stroke-width:5.76"/>
	<rect x="401.69" y="402.82" width="1676.81" height="1693.32" style="fill:#FFFFFF"/>
	<rect x="404.14" y="405.27" width="1671.92" height="1688.43" style="fill:none;stroke:#FFFFFF;stroke-width:4.90"/>
	<line x1="401.69" y1="2042.31" x2="2078.51" y2="2042.31" style="stroke:#EAF2F3;stroke-width:7.34"/>
	<line x1="401.69" y1="1923.75" x2="2078.51" y2="1923.75" style="stroke:#EAF2F3;stroke-width:7.34"/>
	<line x1="401.69" y1="1805.20" x2="2078.51" y2="1805.20" style="stroke:#EAF2F3;stroke-width:7.34"/>
	<line x1="401.69" y1="1686.64" x2="2078.51" y2="1686.64" style="stroke:#EAF2F3;stroke-width:7.34"/>
	<line x1="401.69" y1="1568.09" x2="2078.51" y2="1568.09" style="stroke:#EAF2F3;stroke-width:7.34"/>
	<line x1="401.69" y1="1449.53" x2="2078.51" y2="1449.53" style="stroke:#EAF2F3;stroke-width:7.34"/>
	<line x1="401.69" y1="1330.85" x2="2078.51" y2="1330.85" style="stroke:#EAF2F3;stroke-width:7.34"/>
	<line x1="401.69" y1="1212.29" x2="2078.51" y2="1212.29" style="stroke:#EAF2F3;stroke-width:7.34"/>
	<line x1="401.69" y1="1093.74" x2="2078.51" y2="1093.74" style="stroke:#EAF2F3;stroke-width:7.34"/>
	<line x1="401.69" y1="975.18" x2="2078.51" y2="975.18" style="stroke:#EAF2F3;stroke-width:7.34"/>
	<rect x="2147.68" y="402.82" width="1676.81" height="1693.32" style="fill:#FFFFFF"/>
	<rect x="2150.13" y="405.27" width="1671.92" height="1688.43" style="fill:none;stroke:#FFFFFF;stroke-width:4.90"/>
	<line x1="2147.68" y1="2042.31" x2="3824.49" y2="2042.31" style="stroke:#EAF2F3;stroke-width:7.34"/>
	<line x1="2147.68" y1="1923.75" x2="3824.49" y2="1923.75" style="stroke:#EAF2F3;stroke-width:7.34"/>
	<line x1="2147.68" y1="1805.20" x2="3824.49" y2="1805.20" style="stroke:#EAF2F3;stroke-width:7.34"/>
	<line x1="2147.68" y1="1686.64" x2="3824.49" y2="1686.64" style="stroke:#EAF2F3;stroke-width:7.34"/>
	<line x1="2147.68" y1="1568.09" x2="3824.49" y2="1568.09" style="stroke:#EAF2F3;stroke-width:7.34"/>
	<line x1="2147.68" y1="1449.53" x2="3824.49" y2="1449.53" style="stroke:#EAF2F3;stroke-width:7.34"/>
	<line x1="2147.68" y1="1330.85" x2="3824.49" y2="1330.85" style="stroke:#EAF2F3;stroke-width:7.34"/>
	<line x1="2147.68" y1="1212.29" x2="3824.49" y2="1212.29" style="stroke:#EAF2F3;stroke-width:7.34"/>
	<line x1="2147.68" y1="1093.74" x2="3824.49" y2="1093.74" style="stroke:#EAF2F3;stroke-width:7.34"/>
	<line x1="2147.68" y1="975.18" x2="3824.49" y2="975.18" style="stroke:#EAF2F3;stroke-width:7.34"/>
	<defs>
		<path id="path_zimTJsIf" d="M455.52 2033.15 L455.52 2033.15 L480.89 2032.29 L506.14 2031.30 L531.51 2030.18 L556.75 2029.07 L582.12 2027.83 L607.37 2026.35 L632.73 2024.86 L657.98 2023.38 L683.35 2021.64 L708.59 2019.79 L733.96 2017.93 L759.21 2015.83 L784.58 2013.72 L809.82 2011.62 L835.19 2009.27 L860.43 2007.04 L885.80 2004.69 L911.05 2002.34 L936.42 1999.99 L961.66 1997.76 L987.03 1995.53 L1012.27 1993.55 L1037.64 1991.57 L1062.89 1989.71 L1088.26 1988.11 L1113.50 1986.62 L1138.87 1985.14 L1164.24 1983.90 L1189.48 1982.66 L1214.85 1981.55 L1240.10 1980.43 L1265.47 1979.32 L1290.71 1978.33 L1316.08 1977.22 L1341.33 1976.10 L1366.69 1974.86 L1391.94 1973.38 L1417.31 1971.89 L1442.55 1970.16 L1467.92 1968.18 L1493.17 1965.83 L1518.54 1963.23 L1543.78 1960.39 L1569.15 1957.29 L1594.39 1953.70 L1619.76 1949.87 L1645.01 1945.66 L1670.38 1941.08 L1695.62 1936.01 L1720.99 1930.44 L1746.24 1924.50 L1771.61 1917.94 L1796.85 1910.88 L1822.22 1903.33 L1847.46 1895.04 L1872.83 1886.26 L1898.20 1876.60 L1923.45 1866.33 L1948.82 1855.19 L1974.06 1843.31 L1999.43 1830.69 L2024.67 1817.08 L2024.67 1758.91 L1999.43 1775.99 L1974.06 1792.08 L1948.82 1807.05 L1923.45 1821.04 L1898.20 1834.03 L1872.83 1846.04 L1847.46 1857.17 L1822.22 1867.57 L1796.85 1877.10 L1771.61 1886.01 L1746.24 1894.18 L1720.99 1901.73 L1695.62 1908.66 L1670.38 1914.97 L1645.01 1920.78 L1619.76 1926.23 L1594.39 1931.06 L1569.15 1935.51 L1543.78 1939.47 L1518.54 1943.06 L1493.17 1946.40 L1467.92 1949.25 L1442.55 1951.85 L1417.31 1954.07 L1391.94 1956.05 L1366.69 1957.79 L1341.33 1959.27 L1316.08 1960.76 L1290.71 1962.12 L1265.47 1963.36 L1240.10 1964.72 L1214.85 1966.08 L1189.48 1967.44 L1164.24 1968.92 L1138.87 1970.53 L1113.50 1972.27 L1088.26 1974.12 L1062.89 1976.23 L1037.64 1978.45 L1012.27 1980.93 L987.03 1983.53 L961.66 1986.37 L936.42 1989.22 L911.05 1992.07 L885.80 1995.04 L860.43 1997.88 L835.19 2000.73 L809.82 2003.58 L784.58 2006.17 L759.21 2008.77 L733.96 2011.12 L708.59 2013.48 L683.35 2015.58 L657.98 2017.68 L632.73 2019.54 L607.37 2021.27 L582.12 2022.88 L556.75 2024.37 L531.51 2025.85 L506.14 2027.09 L480.89 2028.20 L455.52 2029.32 L455.52 2033.15 Z" stroke-linejoin="round"/>
	</defs>
	<defs>
		<clipPath id="clipPath_XqQUpRkD">
			<use xlink:href="#path_zimTJsIf"/>
		</clipPath>
	</defs>
	<use xlink:href="#path_zimTJsIf" style="stroke:none;fill:#E6E6E6"/>
	<use xlink:href="#path_zimTJsIf" style="fill:none;stroke:#E0E0E0;stroke-width:14.69" clip-path="url(#clipPath_XqQUpRkD)"/>
	<defs>
		<path id="path_VQzRnXEs" d="M455.52 2022.51 L455.52 2022.51 L480.89 2020.65 L506.14 2018.55 L531.51 2016.20 L556.75 2013.72 L582.12 2011.00 L607.37 2008.03 L632.73 2004.81 L657.98 2001.47 L683.35 1997.76 L708.59 1993.80 L733.96 1989.71 L759.21 1985.38 L784.58 1980.80 L809.82 1976.10 L835.19 1971.28 L860.43 1966.33 L885.80 1961.25 L911.05 1956.30 L936.42 1951.23 L961.66 1946.40 L987.03 1941.57 L1012.27 1937.12 L1037.64 1932.91 L1062.89 1929.08 L1088.26 1925.49 L1113.50 1922.15 L1138.87 1919.05 L1164.24 1916.20 L1189.48 1913.61 L1214.85 1911.13 L1240.10 1908.78 L1265.47 1906.43 L1290.71 1904.08 L1316.08 1901.73 L1341.33 1899.13 L1366.69 1896.40 L1391.94 1893.43 L1417.31 1890.09 L1442.55 1886.26 L1467.92 1881.93 L1493.17 1876.97 L1518.54 1871.41 L1543.78 1865.09 L1569.15 1858.29 L1594.39 1850.62 L1619.76 1842.20 L1645.01 1833.04 L1670.38 1823.02 L1695.62 1812.00 L1720.99 1800.12 L1746.24 1787.13 L1771.61 1773.02 L1796.85 1757.68 L1822.22 1741.22 L1847.46 1723.27 L1872.83 1704.09 L1898.20 1683.30 L1923.45 1660.90 L1948.82 1636.89 L1974.06 1611.15 L1999.43 1583.55 L2024.67 1553.98 L2024.67 1429.85 L1999.43 1466.98 L1974.06 1501.51 L1948.82 1533.81 L1923.45 1563.88 L1898.20 1591.85 L1872.83 1617.83 L1847.46 1641.97 L1822.22 1664.24 L1796.85 1684.91 L1771.61 1704.09 L1746.24 1721.66 L1720.99 1737.88 L1695.62 1752.85 L1670.38 1766.59 L1645.01 1779.21 L1619.76 1790.72 L1594.39 1801.24 L1569.15 1810.89 L1543.78 1819.55 L1518.54 1827.35 L1493.17 1834.28 L1467.92 1840.59 L1442.55 1846.04 L1417.31 1850.86 L1391.94 1855.07 L1366.69 1858.78 L1341.33 1862.12 L1316.08 1865.22 L1290.71 1868.06 L1265.47 1870.91 L1240.10 1873.76 L1214.85 1876.60 L1189.48 1879.57 L1164.24 1882.67 L1138.87 1886.13 L1113.50 1889.85 L1088.26 1894.05 L1062.89 1898.51 L1037.64 1903.33 L1012.27 1908.66 L987.03 1914.35 L961.66 1920.41 L936.42 1926.60 L911.05 1932.91 L885.80 1939.35 L860.43 1945.66 L835.19 1951.85 L809.82 1957.79 L784.58 1963.60 L759.21 1969.17 L733.96 1974.49 L708.59 1979.44 L683.35 1984.15 L657.98 1988.60 L632.73 1992.68 L607.37 1996.52 L582.12 2000.11 L556.75 2003.33 L531.51 2006.42 L506.14 2009.14 L480.89 2011.74 L455.52 2014.09 L455.52 2022.51 Z" stroke-linejoin="round"/>
	</defs>
	<defs>
		<clipPath id="clipPath_NSsbwwdV">
			<use xlink:href="#path_VQzRnXEs"/>
		</clipPath>
	</defs>
	<use xlink:href="#path_VQzRnXEs" style="stroke:none;fill:#E6E6E6"/>
	<use xlink:href="#path_VQzRnXEs" style="fill:none;stroke:#E0E0E0;stroke-width:14.69" clip-path="url(#clipPath_NSsbwwdV)"/>
	<defs>
		<path id="path_GoshNXqj" d="M455.52 2005.56 L455.52 2005.56 L480.89 2001.97 L506.14 1998.01 L531.51 1993.80 L556.75 1989.10 L582.12 1984.15 L607.37 1978.58 L632.73 1972.64 L657.98 1966.33 L683.35 1959.52 L708.59 1952.22 L733.96 1944.54 L759.21 1936.50 L784.58 1928.09 L809.82 1919.30 L835.19 1910.26 L860.43 1901.11 L885.80 1891.70 L911.05 1882.42 L936.42 1873.14 L961.66 1863.98 L987.03 1855.19 L1012.27 1846.90 L1037.64 1839.11 L1062.89 1831.80 L1088.26 1825.25 L1113.50 1819.06 L1138.87 1813.37 L1164.24 1808.17 L1189.48 1803.22 L1214.85 1798.64 L1240.10 1794.18 L1265.47 1789.85 L1290.71 1785.52 L1316.08 1781.07 L1341.33 1776.36 L1366.69 1771.29 L1391.94 1765.72 L1417.31 1759.41 L1442.55 1752.35 L1467.92 1744.19 L1493.17 1735.03 L1518.54 1724.63 L1543.78 1713.00 L1569.15 1700.25 L1594.39 1686.02 L1619.76 1670.43 L1645.01 1653.35 L1670.38 1634.54 L1695.62 1614.12 L1720.99 1591.97 L1746.24 1567.71 L1771.61 1541.48 L1796.85 1513.01 L1822.22 1482.32 L1847.46 1449.03 L1872.83 1413.15 L1898.20 1374.41 L1923.45 1332.83 L1948.82 1288.15 L1974.06 1240.14 L1999.43 1188.78 L2024.67 1133.83 L2024.67 904.64 L1999.43 973.20 L1974.06 1037.18 L1948.82 1096.95 L1923.45 1152.64 L1898.20 1204.50 L1872.83 1252.64 L1847.46 1297.31 L1822.22 1338.77 L1796.85 1377.13 L1771.61 1412.53 L1746.24 1445.32 L1720.99 1475.39 L1695.62 1503.24 L1670.38 1528.73 L1645.01 1552.12 L1619.76 1573.53 L1594.39 1593.08 L1569.15 1610.90 L1543.78 1626.99 L1518.54 1641.47 L1493.17 1654.47 L1467.92 1666.10 L1442.55 1676.37 L1417.31 1685.28 L1391.94 1693.08 L1366.69 1700.01 L1341.33 1706.19 L1316.08 1712.01 L1290.71 1717.33 L1265.47 1722.65 L1240.10 1727.85 L1214.85 1733.05 L1189.48 1738.62 L1164.24 1744.56 L1138.87 1750.99 L1113.50 1758.05 L1088.26 1765.60 L1062.89 1774.01 L1037.64 1783.17 L1012.27 1793.07 L987.03 1803.71 L961.66 1814.97 L936.42 1826.61 L911.05 1838.36 L885.80 1850.24 L860.43 1862.00 L835.19 1873.51 L809.82 1884.77 L784.58 1895.66 L759.21 1906.06 L733.96 1915.83 L708.59 1925.24 L683.35 1934.03 L657.98 1942.19 L632.73 1949.87 L607.37 1957.04 L582.12 1963.60 L556.75 1969.79 L531.51 1975.36 L506.14 1980.56 L480.89 1985.38 L455.52 1989.71 L455.52 2005.56 Z" stroke-linejoin="round"/>
	</defs>
	<defs>
		<clipPath id="clipPath_rkrxAgHE">
			<use xlink:href="#path_GoshNXqj"/>
		</clipPath>
	</defs>
	<use xlink:href="#path_GoshNXqj" style="stroke:none;fill:#E6E6E6"/>
	<use xlink:href="#path_GoshNXqj" style="fill:none;stroke:#E0E0E0;stroke-width:14.69" clip-path="url(#clipPath_rkrxAgHE)"/>
	<line x1="455.52" y1="1972.02" x2="458.37" y2="1972.02" style="stroke:#A0A0A0;stroke-width:7.34"/>
	<line x1="478.54" y1="1972.02" x2="480.77" y2="1972.02" style="stroke:#A0A0A0;stroke-width:7.34"/>
	<line x1="480.77" y1="1972.02" x2="481.39" y2="1972.02" style="stroke:#A0A0A0;stroke-width:7.34"/>
	<line x1="501.56" y1="1972.02" x2="504.40" y2="1972.02" style="stroke:#A0A0A0;stroke-width:7.34"/>
	<line x1="524.58" y1="1972.02" x2="527.42" y2="1972.02" style="stroke:#A0A0A0;stroke-width:7.34"/>
	<line x1="547.59" y1="1972.02" x2="550.44" y2="1972.02" style="stroke:#A0A0A0;stroke-width:7.34"/>
	<line x1="570.61" y1="1972.02" x2="573.58" y2="1972.02" style="stroke:#A0A0A0;stroke-width:7.34"/>
	<line x1="593.75" y1="1972.02" x2="596.60" y2="1972.02" style="stroke:#A0A0A0;stroke-width:7.34"/>
	<line x1="616.77" y1="1972.02" x2="619.62" y2="1972.02" style="stroke:#A0A0A0;stroke-width:7.34"/>
	<line x1="639.79" y1="1972.02" x2="642.63" y2="1972.02" style="stroke:#A0A0A0;stroke-width:7.34"/>
	<line x1="662.80" y1="1972.02" x2="665.65" y2="1972.02" style="stroke:#A0A0A0;stroke-width:7.34"/>
	<line x1="685.82" y1="1972.02" x2="688.67" y2="1972.02" style="stroke:#A0A0A0;stroke-width:7.34"/>
	<line x1="708.84" y1="1972.02" x2="711.69" y2="1972.02" style="stroke:#A0A0A0;stroke-width:7.34"/>
	<line x1="731.86" y1="1972.02" x2="733.84" y2="1972.02" style="stroke:#A0A0A0;stroke-width:7.34"/>
	<line x1="733.84" y1="1972.02" x2="734.70" y2="1972.02" style="stroke:#A0A0A0;stroke-width:7.34"/>
	<line x1="754.88" y1="1972.02" x2="757.72" y2="1972.02" style="stroke:#A0A0A0;stroke-width:7.34"/>
	<line x1="777.89" y1="1972.02" x2="780.74" y2="1972.02" style="stroke:#A0A0A0;stroke-width:7.34"/>
	<line x1="800.91" y1="1972.02" x2="803.88" y2="1972.02" style="stroke:#A0A0A0;stroke-width:7.34"/>
	<line x1="823.93" y1="1972.02" x2="826.90" y2="1972.02" style="stroke:#A0A0A0;stroke-width:7.34"/>
	<line x1="847.07" y1="1972.02" x2="849.91" y2="1972.02" style="stroke:#A0A0A0;stroke-width:7.34"/>
	<line x1="870.09" y1="1972.02" x2="872.93" y2="1972.02" style="stroke:#A0A0A0;stroke-width:7.34"/>
	<line x1="893.10" y1="1972.02" x2="895.95" y2="1972.02" style="stroke:#A0A0A0;stroke-width:7.34"/>
	<line x1="916.12" y1="1972.02" x2="918.97" y2="1972.02" style="stroke:#A0A0A0;stroke-width:7.34"/>
	<line x1="939.14" y1="1972.02" x2="941.99" y2="1972.02" style="stroke:#A0A0A0;stroke-width:7.34"/>
	<line x1="962.16" y1="1972.02" x2="965.00" y2="1972.02" style="stroke:#A0A0A0;stroke-width:7.34"/>
	<line x1="985.17" y1="1972.02" x2="986.91" y2="1972.02" style="stroke:#A0A0A0;stroke-width:7.34"/>
	<line x1="986.91" y1="1972.02" x2="988.02" y2="1972.02" style="stroke:#A0A0A0;stroke-width:7.34"/>
	<line x1="1008.19" y1="1972.02" x2="1011.04" y2="1972.02" style="stroke:#A0A0A0;stroke-width:7.34"/>
	<line x1="1031.21" y1="1972.02" x2="1034.06" y2="1972.02" style="stroke:#A0A0A0;stroke-width:7.34"/>
	<line x1="1054.23" y1="1972.02" x2="1057.20" y2="1972.02" style="stroke:#A0A0A0;stroke-width:7.34"/>
	<line x1="1077.24" y1="1972.02" x2="1080.21" y2="1972.02" style="stroke:#A0A0A0;stroke-width:7.34"/>
	<line x1="1100.38" y1="1972.02" x2="1103.23" y2="1972.02" style="stroke:#A0A0A0;stroke-width:7.34"/>
	<line x1="1123.40" y1="1972.02" x2="1126.25" y2="1972.02" style="stroke:#A0A0A0;stroke-width:7.34"/>
	<line x1="1146.42" y1="1972.02" x2="1149.27" y2="1972.02" style="stroke:#A0A0A0;stroke-width:7.34"/>
	<line x1="1169.44" y1="1972.02" x2="1172.28" y2="1972.02" style="stroke:#A0A0A0;stroke-width:7.34"/>
	<line x1="1192.45" y1="1972.02" x2="1195.30" y2="1972.02" style="stroke:#A0A0A0;stroke-width:7.34"/>
	<line x1="1215.47" y1="1972.02" x2="1218.32" y2="1972.02" style="stroke:#A0A0A0;stroke-width:7.34"/>
	<line x1="1238.49" y1="1972.02" x2="1240.10" y2="1972.02" style="stroke:#A0A0A0;stroke-width:7.34"/>
	<line x1="1240.10" y1="1972.02" x2="1241.34" y2="1972.02" style="stroke:#A0A0A0;stroke-width:7.34"/>
	<line x1="1261.51" y1="1972.02" x2="1264.35" y2="1972.02" style="stroke:#A0A0A0;stroke-width:7.34"/>
	<line x1="1284.53" y1="1972.02" x2="1287.37" y2="1972.02" style="stroke:#A0A0A0;stroke-width:7.34"/>
	<line x1="1307.54" y1="1972.02" x2="1310.51" y2="1972.02" style="stroke:#A0A0A0;stroke-width:7.34"/>
	<line x1="1330.56" y1="1972.02" x2="1333.53" y2="1972.02" style="stroke:#A0A0A0;stroke-width:7.34"/>
	<line x1="1353.70" y1="1972.02" x2="1356.55" y2="1972.02" style="stroke:#A0A0A0;stroke-width:7.34"/>
	<line x1="1376.72" y1="1972.02" x2="1379.57" y2="1972.02" style="stroke:#A0A0A0;stroke-width:7.34"/>
	<line x1="1399.74" y1="1972.02" x2="1402.58" y2="1972.02" style="stroke:#A0A0A0;stroke-width:7.34"/>
	<line x1="1422.75" y1="1972.02" x2="1425.60" y2="1972.02" style="stroke:#A0A0A0;stroke-width:7.34"/>
	<line x1="1445.77" y1="1972.02" x2="1448.62" y2="1972.02" style="stroke:#A0A0A0;stroke-width:7.34"/>
	<line x1="1468.79" y1="1972.02" x2="1471.63" y2="1972.02" style="stroke:#A0A0A0;stroke-width:7.34"/>
	<line x1="1491.81" y1="1972.02" x2="1493.17" y2="1972.02" style="stroke:#A0A0A0;stroke-width:7.34"/>
	<line x1="1493.17" y1="1972.02" x2="1494.65" y2="1972.02" style="stroke:#A0A0A0;stroke-width:7.34"/>
	<line x1="1514.82" y1="1972.02" x2="1517.67" y2="1972.02" style="stroke:#A0A0A0;stroke-width:7.34"/>
	<line x1="1537.84" y1="1972.02" x2="1540.69" y2="1972.02" style="stroke:#A0A0A0;stroke-width:7.34"/>
	<line x1="1560.86" y1="1972.02" x2="1563.83" y2="1972.02" style="stroke:#A0A0A0;stroke-width:7.34"/>
	<line x1="1584.00" y1="1972.02" x2="1586.85" y2="1972.02" style="stroke:#A0A0A0;stroke-width:7.34"/>
	<line x1="1607.02" y1="1972.02" x2="1609.86" y2="1972.02" style="stroke:#A0A0A0;stroke-width:7.34"/>
	<line x1="1630.04" y1="1972.02" x2="1632.88" y2="1972.02" style="stroke:#A0A0A0;stroke-width:7.34"/>
	<line x1="1653.05" y1="1972.02" x2="1655.90" y2="1972.02" style="stroke:#A0A0A0;stroke-width:7.34"/>
	<line x1="1676.07" y1="1972.02" x2="1678.92" y2="1972.02" style="stroke:#A0A0A0;stroke-width:7.34"/>
	<line x1="1699.09" y1="1972.02" x2="1701.93" y2="1972.02" style="stroke:#A0A0A0;stroke-width:7.34"/>
	<line x1="1722.11" y1="1972.02" x2="1724.95" y2="1972.02" style="stroke:#A0A0A0;stroke-width:7.34"/>
	<line x1="1745.12" y1="1972.02" x2="1746.24" y2="1972.02" style="stroke:#A0A0A0;stroke-width:7.34"/>
	<line x1="1746.24" y1="1972.02" x2="1747.97" y2="1972.02" style="stroke:#A0A0A0;stroke-width:7.34"/>
	<line x1="1768.14" y1="1972.02" x2="1770.99" y2="1972.02" style="stroke:#A0A0A0;stroke-width:7.34"/>
	<line x1="1791.16" y1="1972.02" x2="1794.00" y2="1972.02" style="stroke:#A0A0A0;stroke-width:7.34"/>
	<line x1="1814.17" y1="1972.02" x2="1817.14" y2="1972.02" style="stroke:#A0A0A0;stroke-width:7.34"/>
	<line x1="1837.32" y1="1972.02" x2="1840.16" y2="1972.02" style="stroke:#A0A0A0;stroke-width:7.34"/>
	<line x1="1860.33" y1="1972.02" x2="1863.18" y2="1972.02" style="stroke:#A0A0A0;stroke-width:7.34"/>
	<line x1="1883.35" y1="1972.02" x2="1886.20" y2="1972.02" style="stroke:#A0A0A0;stroke-width:7.34"/>
	<line x1="1906.37" y1="1972.02" x2="1909.21" y2="1972.02" style="stroke:#A0A0A0;stroke-width:7.34"/>
	<line x1="1929.39" y1="1972.02" x2="1932.23" y2="1972.02" style="stroke:#A0A0A0;stroke-width:7.34"/>
	<line x1="1952.40" y1="1972.02" x2="1955.25" y2="1972.02" style="stroke:#A0A0A0;stroke-width:7.34"/>
	<line x1="1975.42" y1="1972.02" x2="1978.27" y2="1972.02" style="stroke:#A0A0A0;stroke-width:7.34"/>
	<line x1="1998.44" y1="1972.02" x2="1999.31" y2="1972.02" style="stroke:#A0A0A0;stroke-width:7.34"/>
	<line x1="1999.31" y1="1972.02" x2="2001.29" y2="1972.02" style="stroke:#A0A0A0;stroke-width:7.34"/>
	<line x1="2021.46" y1="1972.02" x2="2024.30" y2="1972.02" style="stroke:#A0A0A0;stroke-width:7.34"/>
	<path d="" stroke-linejoin="round" style="fill:none;stroke:#A0A0A0;stroke-width:7.34"/>
	<path d=" M455.52 2018.80 L480.77 2016.57 L506.14 2014.34 L531.38 2011.74 L556.75 2009.02 L582.00 2006.05 L607.37 2002.83 L632.61 1999.24 L657.98 1995.53 L683.22 1991.45 L708.59 1987.24 L733.84 1982.66 L759.21 1977.83 L784.45 1972.88 L809.82 1967.56 L835.07 1962.24 L860.43 1956.67 L885.68 1950.98 L911.05 1945.41 L936.29 1939.72 L961.66 1934.27 L986.91 1928.95 L1012.27 1923.88 L1037.52 1919.05 L1062.89 1914.72 L1088.13 1910.76 L1113.50 1907.05 L1138.87 1903.71 L1164.12 1900.49 L1189.48 1897.64 L1214.73 1894.92 L1240.10 1892.32 L1265.34 1889.72 L1290.71 1887.25 L1315.96 1884.52 L1341.33 1881.80 L1366.57 1878.71 L1391.94 1875.37 L1417.18 1871.65 L1442.55 1867.32 L1467.80 1862.50 L1493.17 1856.93 L1518.41 1850.62 L1543.78 1843.69 L1569.03 1836.01 L1594.39 1827.47 L1619.64 1818.07 L1645.01 1807.80 L1670.25 1796.53 L1695.62 1784.16 L1720.87 1770.79 L1746.24 1756.31 L1771.48 1740.60 L1796.85 1723.52 L1822.10 1704.96 L1847.46 1685.03 L1872.71 1663.50 L1898.08 1640.23 L1923.45 1615.24 L1948.69 1588.38 L1974.06 1559.55 L1999.31 1528.61 L2024.67 1495.57" stroke-linejoin="round" style="fill:none;stroke:#008000;stroke-width:7.34"/>
	<path d=" M455.52 1998.38 L480.77 1994.42 L506.14 1990.09 L531.38 1985.38 L556.75 1980.31 L582.00 1974.74 L607.37 1968.68 L632.61 1962.12 L657.98 1955.19 L683.22 1947.64 L708.59 1939.59 L733.84 1931.18 L759.21 1922.27 L784.45 1912.86 L809.82 1903.21 L835.07 1893.06 L860.43 1882.79 L885.68 1872.27 L911.05 1861.75 L936.29 1851.36 L961.66 1841.09 L986.91 1831.06 L1012.27 1821.66 L1037.52 1812.87 L1062.89 1804.70 L1088.13 1797.28 L1113.50 1790.47 L1138.87 1784.16 L1164.12 1778.34 L1189.48 1772.90 L1214.73 1767.82 L1240.10 1763.00 L1265.34 1758.29 L1290.71 1753.47 L1315.96 1748.64 L1341.33 1743.44 L1366.57 1737.75 L1391.94 1731.56 L1417.18 1724.51 L1442.55 1716.59 L1467.80 1707.43 L1493.17 1697.16 L1518.41 1685.53 L1543.78 1672.53 L1569.03 1658.18 L1594.39 1642.34 L1619.64 1624.89 L1645.01 1605.71 L1670.25 1584.79 L1695.62 1561.90 L1720.87 1537.02 L1746.24 1510.04 L1771.48 1480.72 L1796.85 1449.03 L1822.10 1414.63 L1847.46 1377.50 L1872.71 1337.53 L1898.08 1294.34 L1923.45 1247.93 L1948.69 1198.06 L1974.06 1144.48 L1999.31 1087.05 L2024.67 1025.67" stroke-linejoin="round" style="fill:none;stroke:#FF7F00;stroke-width:7.34"/>
	<path d=" M455.52 2031.42 L480.77 2030.43 L506.14 2029.44 L531.38 2028.20 L556.75 2026.96 L582.00 2025.60 L607.37 2024.12 L632.61 2022.51 L657.98 2020.78 L683.22 2018.92 L708.59 2016.94 L733.84 2014.84 L759.21 2012.61 L784.45 2010.26 L809.82 2007.78 L835.07 2005.31 L860.43 2002.83 L885.68 2000.23 L911.05 1997.63 L936.29 1995.04 L961.66 1992.44 L986.91 1989.96 L1012.27 1987.61 L1037.52 1985.51 L1062.89 1983.40 L1088.13 1981.55 L1113.50 1979.94 L1138.87 1978.33 L1164.12 1976.84 L1189.48 1975.48 L1214.73 1974.25 L1240.10 1973.13 L1265.34 1971.89 L1290.71 1970.78 L1315.96 1969.54 L1341.33 1968.18 L1366.57 1966.82 L1391.94 1965.21 L1417.18 1963.48 L1442.55 1961.50 L1467.80 1959.27 L1493.17 1956.67 L1518.41 1953.83 L1543.78 1950.61 L1569.03 1947.02 L1594.39 1943.06 L1619.64 1938.73 L1645.01 1934.03 L1670.25 1928.83 L1695.62 1923.14 L1720.87 1916.95 L1746.24 1910.26 L1771.48 1902.96 L1796.85 1895.04 L1822.10 1886.50 L1847.46 1877.35 L1872.71 1867.32 L1898.08 1856.56 L1923.45 1845.05 L1948.69 1832.55 L1974.06 1819.31 L1999.31 1804.95 L2024.67 1789.60" stroke-linejoin="round" style="fill:none;stroke:#1A476F;stroke-width:7.34"/>
	<defs>
		<path id="path_peqFbGyc" d="M2201.51 2029.44 L2201.51 2029.44 L2226.88 2028.20 L2252.13 2026.84 L2277.49 2025.36 L2302.74 2023.75 L2328.11 2022.01 L2353.35 2020.16 L2378.72 2018.05 L2403.97 2015.83 L2429.34 2013.35 L2454.58 2010.88 L2479.95 2008.15 L2505.20 2005.43 L2530.56 2002.46 L2555.81 1999.37 L2581.18 1996.27 L2606.42 1993.06 L2631.79 1989.71 L2657.04 1986.50 L2682.41 1983.28 L2707.65 1980.06 L2733.02 1977.09 L2758.26 1974.12 L2783.63 1971.40 L2808.88 1968.92 L2834.25 1966.57 L2859.49 1964.47 L2884.86 1962.49 L2910.11 1960.76 L2935.47 1959.02 L2960.72 1957.41 L2986.09 1955.93 L3011.46 1954.44 L3036.70 1952.96 L3062.07 1951.35 L3087.32 1949.74 L3112.68 1948.01 L3137.93 1946.15 L3163.30 1943.93 L3188.54 1941.57 L3213.91 1938.73 L3239.16 1935.51 L3264.53 1931.92 L3289.77 1927.96 L3315.14 1923.51 L3340.38 1918.68 L3365.75 1913.23 L3391.00 1907.42 L3416.37 1900.86 L3441.61 1893.81 L3466.98 1886.13 L3492.22 1877.84 L3517.59 1868.81 L3542.84 1858.91 L3568.21 1848.26 L3593.45 1836.88 L3618.82 1824.38 L3644.07 1811.14 L3669.43 1796.78 L3694.68 1781.31 L3720.05 1764.73 L3745.42 1747.03 L3770.66 1727.98 L3770.66 1646.42 L3745.42 1670.43 L3720.05 1692.83 L3694.68 1713.74 L3669.43 1733.30 L3644.07 1751.36 L3618.82 1768.20 L3593.45 1783.79 L3568.21 1798.27 L3542.84 1811.63 L3517.59 1824.01 L3492.22 1835.39 L3466.98 1845.91 L3441.61 1855.69 L3416.37 1864.60 L3391.00 1872.77 L3365.75 1880.19 L3340.38 1887.00 L3315.14 1893.19 L3289.77 1898.76 L3264.53 1903.83 L3239.16 1908.41 L3213.91 1912.37 L3188.54 1915.96 L3163.30 1919.05 L3137.93 1921.90 L3112.68 1924.25 L3087.32 1926.48 L3062.07 1928.46 L3036.70 1930.31 L3011.46 1932.17 L2986.09 1934.03 L2960.72 1935.88 L2935.47 1937.74 L2910.11 1939.84 L2884.86 1942.07 L2859.49 1944.54 L2834.25 1947.14 L2808.88 1949.99 L2783.63 1953.21 L2758.26 1956.67 L2733.02 1960.26 L2707.65 1964.22 L2682.41 1968.18 L2657.04 1972.27 L2631.79 1976.35 L2606.42 1980.31 L2581.18 1984.27 L2555.81 1988.23 L2530.56 1991.94 L2505.20 1995.41 L2479.95 1998.87 L2454.58 2002.09 L2429.34 2005.06 L2403.97 2007.91 L2378.72 2010.51 L2353.35 2012.98 L2328.11 2015.21 L2302.74 2017.31 L2277.49 2019.29 L2252.13 2021.02 L2226.88 2022.63 L2201.51 2024.24 L2201.51 2029.44 Z" stroke-linejoin="round"/>
	</defs>
	<defs>
		<clipPath id="clipPath_QkWHjspy">
			<use xlink:href="#path_peqFbGyc"/>
		</clipPath>
	</defs>
	<use xlink:href="#path_peqFbGyc" style="stroke:none;fill:#E6E6E6"/>
	<use xlink:href="#path_peqFbGyc" style="fill:none;stroke:#E0E0E0;stroke-width:14.69" clip-path="url(#clipPath_QkWHjspy)"/>
	<defs>
		<path id="path_qvzyOtPH" d="M2201.51 2014.71 L2201.51 2014.71 L2226.88 2011.99 L2252.13 2009.14 L2277.49 2005.93 L2302.74 2002.34 L2328.11 1998.62 L2353.35 1994.42 L2378.72 1989.96 L2403.97 1985.26 L2429.34 1980.06 L2454.58 1974.62 L2479.95 1968.80 L2505.20 1962.74 L2530.56 1956.42 L2555.81 1949.87 L2581.18 1943.06 L2606.42 1936.13 L2631.79 1929.20 L2657.04 1922.15 L2682.41 1915.09 L2707.65 1908.28 L2733.02 1901.73 L2758.26 1895.41 L2783.63 1889.60 L2808.88 1884.15 L2834.25 1879.08 L2859.49 1874.50 L2884.86 1870.17 L2910.11 1866.21 L2935.47 1862.50 L2960.72 1859.03 L2986.09 1855.81 L3011.46 1852.47 L3036.70 1849.25 L3062.07 1845.91 L3087.32 1842.32 L3112.68 1838.61 L3137.93 1834.40 L3163.30 1829.70 L3188.54 1824.26 L3213.91 1818.19 L3239.16 1811.26 L3264.53 1803.47 L3289.77 1794.80 L3315.14 1785.27 L3340.38 1774.63 L3365.75 1762.87 L3391.00 1750.00 L3416.37 1736.02 L3441.61 1720.67 L3466.98 1704.09 L3492.22 1685.90 L3517.59 1666.22 L3542.84 1644.94 L3568.21 1621.92 L3593.45 1597.04 L3618.82 1570.19 L3644.07 1541.23 L3669.43 1510.04 L3694.68 1476.63 L3720.05 1440.74 L3745.42 1402.26 L3770.66 1361.17 L3770.66 1187.54 L3745.42 1239.27 L3720.05 1287.66 L3694.68 1332.71 L3669.43 1374.66 L3644.07 1413.64 L3618.82 1449.90 L3593.45 1483.56 L3568.21 1514.75 L3542.84 1543.58 L3517.59 1570.31 L3492.22 1594.94 L3466.98 1617.59 L3441.61 1638.50 L3416.37 1657.68 L3391.00 1675.26 L3365.75 1691.34 L3340.38 1705.95 L3315.14 1719.31 L3289.77 1731.44 L3264.53 1742.33 L3239.16 1752.11 L3213.91 1760.77 L3188.54 1768.44 L3163.30 1775.13 L3137.93 1781.07 L3112.68 1786.26 L3087.32 1790.97 L3062.07 1795.17 L3036.70 1799.26 L3011.46 1803.22 L2986.09 1807.05 L2960.72 1811.01 L2935.47 1815.22 L2910.11 1819.55 L2884.86 1824.38 L2859.49 1829.58 L2834.25 1835.39 L2808.88 1841.58 L2783.63 1848.39 L2758.26 1855.81 L2733.02 1863.86 L2707.65 1872.15 L2682.41 1880.94 L2657.04 1889.72 L2631.79 1898.63 L2606.42 1907.42 L2581.18 1916.08 L2555.81 1924.50 L2530.56 1932.54 L2505.20 1940.34 L2479.95 1947.64 L2454.58 1954.69 L2429.34 1961.25 L2403.97 1967.44 L2378.72 1973.13 L2353.35 1978.45 L2328.11 1983.40 L2302.74 1987.98 L2277.49 1992.19 L2252.13 1996.03 L2226.88 1999.61 L2201.51 2002.96 L2201.51 2014.71 Z" stroke-linejoin="round"/>
	</defs>
	<defs>
		<clipPath id="clipPath_DkCbivvE">
			<use xlink:href="#path_qvzyOtPH"/>
		</clipPath>
	</defs>
	<use xlink:href="#path_qvzyOtPH" style="stroke:none;fill:#E6E6E6"/>
	<use xlink:href="#path_qvzyOtPH" style="fill:none;stroke:#E0E0E0;stroke-width:14.69" clip-path="url(#clipPath_DkCbivvE)"/>
	<defs>
		<path id="path_jgrtEHzj" d="M2201.51 1990.95 L2201.51 1990.95 L2226.88 1985.88 L2252.13 1980.43 L2277.49 1974.49 L2302.74 1968.06 L2328.11 1961.00 L2353.35 1953.21 L2378.72 1945.04 L2403.97 1936.01 L2429.34 1926.48 L2454.58 1916.45 L2479.95 1905.69 L2505.20 1894.42 L2530.56 1882.54 L2555.81 1870.42 L2581.18 1857.79 L2606.42 1844.92 L2631.79 1831.93 L2657.04 1818.81 L2682.41 1805.82 L2707.65 1793.19 L2733.02 1780.94 L2758.26 1769.19 L2783.63 1758.29 L2808.88 1748.27 L2834.25 1738.87 L2859.49 1730.33 L2884.86 1722.41 L2910.11 1715.10 L2935.47 1708.30 L2960.72 1701.74 L2986.09 1695.55 L3011.46 1689.61 L3036.70 1683.55 L3062.07 1677.24 L3087.32 1670.68 L3112.68 1663.62 L3137.93 1655.83 L3163.30 1647.04 L3188.54 1637.14 L3213.91 1625.75 L3239.16 1612.88 L3264.53 1598.40 L3289.77 1582.19 L3315.14 1564.37 L3340.38 1544.57 L3365.75 1522.79 L3391.00 1498.91 L3416.37 1472.79 L3441.61 1444.33 L3466.98 1413.27 L3492.22 1379.61 L3517.59 1342.98 L3542.84 1303.38 L3568.21 1260.43 L3593.45 1214.03 L3618.82 1164.03 L3644.07 1110.20 L3669.43 1052.28 L3694.68 990.03 L3720.05 923.33 L3745.42 851.80 L3770.66 775.32 L3770.66 456.65 L3745.42 552.19 L3720.05 641.42 L3694.68 724.58 L3669.43 802.17 L3644.07 874.44 L3618.82 941.52 L3593.45 1003.77 L3568.21 1061.44 L3542.84 1114.90 L3517.59 1164.28 L3492.22 1209.94 L3466.98 1252.02 L3441.61 1290.75 L3416.37 1326.27 L3391.00 1358.94 L3365.75 1388.77 L3340.38 1415.99 L3315.14 1440.74 L3289.77 1463.27 L3264.53 1483.44 L3239.16 1501.63 L3213.91 1517.84 L3188.54 1532.07 L3163.30 1544.45 L3137.93 1555.34 L3112.68 1564.99 L3087.32 1573.78 L3062.07 1581.70 L3036.70 1589.25 L3011.46 1596.55 L2986.09 1603.73 L2960.72 1611.15 L2935.47 1618.82 L2910.11 1627.12 L2884.86 1636.03 L2859.49 1645.80 L2834.25 1656.45 L2808.88 1668.08 L2783.63 1680.83 L2758.26 1694.69 L2733.02 1709.54 L2707.65 1725.13 L2682.41 1741.34 L2657.04 1757.80 L2631.79 1774.38 L2606.42 1790.84 L2581.18 1806.93 L2555.81 1822.65 L2530.56 1837.74 L2505.20 1852.22 L2479.95 1865.96 L2454.58 1878.95 L2429.34 1891.21 L2403.97 1902.72 L2378.72 1913.36 L2353.35 1923.38 L2328.11 1932.54 L2302.74 1941.08 L2277.49 1949.00 L2252.13 1956.18 L2226.88 1962.86 L2201.51 1968.92 L2201.51 1990.95 Z" stroke-linejoin="round"/>
	</defs>
	<defs>
		<clipPath id="clipPath_BFrJjgGe">
			<use xlink:href="#path_jgrtEHzj"/>
		</clipPath>
	</defs>
	<use xlink:href="#path_jgrtEHzj" style="stroke:none;fill:#E6E6E6"/>
	<use xlink:href="#path_jgrtEHzj" style="fill:none;stroke:#E0E0E0;stroke-width:14.69" clip-path="url(#clipPath_BFrJjgGe)"/>
	<line x1="2201.39" y1="1944.17" x2="2204.24" y2="1944.17" style="stroke:#A0A0A0;stroke-width:7.34"/>
	<line x1="2224.41" y1="1944.17" x2="2226.76" y2="1944.17" style="stroke:#A0A0A0;stroke-width:7.34"/>
	<line x1="2226.76" y1="1944.17" x2="2227.25" y2="1944.17" style="stroke:#A0A0A0;stroke-width:7.34"/>
	<line x1="2247.42" y1="1944.17" x2="2250.27" y2="1944.17" style="stroke:#A0A0A0;stroke-width:7.34"/>
	<line x1="2270.44" y1="1944.17" x2="2273.29" y2="1944.17" style="stroke:#A0A0A0;stroke-width:7.34"/>
	<line x1="2293.46" y1="1944.17" x2="2296.43" y2="1944.17" style="stroke:#A0A0A0;stroke-width:7.34"/>
	<line x1="2316.60" y1="1944.17" x2="2319.45" y2="1944.17" style="stroke:#A0A0A0;stroke-width:7.34"/>
	<line x1="2339.62" y1="1944.17" x2="2342.46" y2="1944.17" style="stroke:#A0A0A0;stroke-width:7.34"/>
	<line x1="2362.64" y1="1944.17" x2="2365.48" y2="1944.17" style="stroke:#A0A0A0;stroke-width:7.34"/>
	<line x1="2385.65" y1="1944.17" x2="2388.50" y2="1944.17" style="stroke:#A0A0A0;stroke-width:7.34"/>
	<line x1="2408.67" y1="1944.17" x2="2411.52" y2="1944.17" style="stroke:#A0A0A0;stroke-width:7.34"/>
	<line x1="2431.69" y1="1944.17" x2="2434.53" y2="1944.17" style="stroke:#A0A0A0;stroke-width:7.34"/>
	<line x1="2454.70" y1="1944.17" x2="2457.55" y2="1944.17" style="stroke:#A0A0A0;stroke-width:7.34"/>
	<line x1="2477.72" y1="1944.17" x2="2479.83" y2="1944.17" style="stroke:#A0A0A0;stroke-width:7.34"/>
	<line x1="2479.83" y1="1944.17" x2="2480.57" y2="1944.17" style="stroke:#A0A0A0;stroke-width:7.34"/>
	<line x1="2500.74" y1="1944.17" x2="2503.59" y2="1944.17" style="stroke:#A0A0A0;stroke-width:7.34"/>
	<line x1="2523.76" y1="1944.17" x2="2526.60" y2="1944.17" style="stroke:#A0A0A0;stroke-width:7.34"/>
	<line x1="2546.78" y1="1944.17" x2="2549.74" y2="1944.17" style="stroke:#A0A0A0;stroke-width:7.34"/>
	<line x1="2569.92" y1="1944.17" x2="2572.76" y2="1944.17" style="stroke:#A0A0A0;stroke-width:7.34"/>
	<line x1="2592.93" y1="1944.17" x2="2595.78" y2="1944.17" style="stroke:#A0A0A0;stroke-width:7.34"/>
	<line x1="2615.95" y1="1944.17" x2="2618.80" y2="1944.17" style="stroke:#A0A0A0;stroke-width:7.34"/>
	<line x1="2638.97" y1="1944.17" x2="2641.82" y2="1944.17" style="stroke:#A0A0A0;stroke-width:7.34"/>
	<line x1="2661.99" y1="1944.17" x2="2664.83" y2="1944.17" style="stroke:#A0A0A0;stroke-width:7.34"/>
	<line x1="2685.00" y1="1944.17" x2="2687.85" y2="1944.17" style="stroke:#A0A0A0;stroke-width:7.34"/>
	<line x1="2708.02" y1="1944.17" x2="2710.87" y2="1944.17" style="stroke:#A0A0A0;stroke-width:7.34"/>
	<line x1="2731.04" y1="1944.17" x2="2732.89" y2="1944.17" style="stroke:#A0A0A0;stroke-width:7.34"/>
	<line x1="2732.89" y1="1944.17" x2="2733.89" y2="1944.17" style="stroke:#A0A0A0;stroke-width:7.34"/>
	<line x1="2754.06" y1="1944.17" x2="2756.90" y2="1944.17" style="stroke:#A0A0A0;stroke-width:7.34"/>
	<line x1="2777.07" y1="1944.17" x2="2779.92" y2="1944.17" style="stroke:#A0A0A0;stroke-width:7.34"/>
	<line x1="2800.09" y1="1944.17" x2="2803.06" y2="1944.17" style="stroke:#A0A0A0;stroke-width:7.34"/>
	<line x1="2823.23" y1="1944.17" x2="2826.08" y2="1944.17" style="stroke:#A0A0A0;stroke-width:7.34"/>
	<line x1="2846.25" y1="1944.17" x2="2849.10" y2="1944.17" style="stroke:#A0A0A0;stroke-width:7.34"/>
	<line x1="2869.27" y1="1944.17" x2="2872.11" y2="1944.17" style="stroke:#A0A0A0;stroke-width:7.34"/>
	<line x1="2892.28" y1="1944.17" x2="2895.13" y2="1944.17" style="stroke:#A0A0A0;stroke-width:7.34"/>
	<line x1="2915.30" y1="1944.17" x2="2918.15" y2="1944.17" style="stroke:#A0A0A0;stroke-width:7.34"/>
	<line x1="2938.32" y1="1944.17" x2="2941.17" y2="1944.17" style="stroke:#A0A0A0;stroke-width:7.34"/>
	<line x1="2961.34" y1="1944.17" x2="2964.18" y2="1944.17" style="stroke:#A0A0A0;stroke-width:7.34"/>
	<line x1="2984.36" y1="1944.17" x2="2986.09" y2="1944.17" style="stroke:#A0A0A0;stroke-width:7.34"/>
	<line x1="2986.09" y1="1944.17" x2="2987.20" y2="1944.17" style="stroke:#A0A0A0;stroke-width:7.34"/>
	<line x1="3007.37" y1="1944.17" x2="3010.22" y2="1944.17" style="stroke:#A0A0A0;stroke-width:7.34"/>
	<line x1="3030.39" y1="1944.17" x2="3033.36" y2="1944.17" style="stroke:#A0A0A0;stroke-width:7.34"/>
	<line x1="3053.41" y1="1944.17" x2="3056.38" y2="1944.17" style="stroke:#A0A0A0;stroke-width:7.34"/>
	<line x1="3076.55" y1="1944.17" x2="3079.39" y2="1944.17" style="stroke:#A0A0A0;stroke-width:7.34"/>
	<line x1="3099.57" y1="1944.17" x2="3102.41" y2="1944.17" style="stroke:#A0A0A0;stroke-width:7.34"/>
	<line x1="3122.58" y1="1944.17" x2="3125.43" y2="1944.17" style="stroke:#A0A0A0;stroke-width:7.34"/>
	<line x1="3145.60" y1="1944.17" x2="3148.45" y2="1944.17" style="stroke:#A0A0A0;stroke-width:7.34"/>
	<line x1="3168.62" y1="1944.17" x2="3171.47" y2="1944.17" style="stroke:#A0A0A0;stroke-width:7.34"/>
	<line x1="3191.64" y1="1944.17" x2="3194.48" y2="1944.17" style="stroke:#A0A0A0;stroke-width:7.34"/>
	<line x1="3214.65" y1="1944.17" x2="3217.50" y2="1944.17" style="stroke:#A0A0A0;stroke-width:7.34"/>
	<line x1="3237.67" y1="1944.17" x2="3239.16" y2="1944.17" style="stroke:#A0A0A0;stroke-width:7.34"/>
	<line x1="3239.16" y1="1944.17" x2="3240.52" y2="1944.17" style="stroke:#A0A0A0;stroke-width:7.34"/>
	<line x1="3260.69" y1="1944.17" x2="3263.53" y2="1944.17" style="stroke:#A0A0A0;stroke-width:7.34"/>
	<line x1="3283.71" y1="1944.17" x2="3286.68" y2="1944.17" style="stroke:#A0A0A0;stroke-width:7.34"/>
	<line x1="3306.72" y1="1944.17" x2="3309.69" y2="1944.17" style="stroke:#A0A0A0;stroke-width:7.34"/>
	<line x1="3329.86" y1="1944.17" x2="3332.71" y2="1944.17" style="stroke:#A0A0A0;stroke-width:7.34"/>
	<line x1="3352.88" y1="1944.17" x2="3355.73" y2="1944.17" style="stroke:#A0A0A0;stroke-width:7.34"/>
	<line x1="3375.90" y1="1944.17" x2="3378.75" y2="1944.17" style="stroke:#A0A0A0;stroke-width:7.34"/>
	<line x1="3398.92" y1="1944.17" x2="3401.76" y2="1944.17" style="stroke:#A0A0A0;stroke-width:7.34"/>
	<line x1="3421.93" y1="1944.17" x2="3424.78" y2="1944.17" style="stroke:#A0A0A0;stroke-width:7.34"/>
	<line x1="3444.95" y1="1944.17" x2="3447.80" y2="1944.17" style="stroke:#A0A0A0;stroke-width:7.34"/>
	<line x1="3467.97" y1="1944.17" x2="3470.82" y2="1944.17" style="stroke:#A0A0A0;stroke-width:7.34"/>
	<line x1="3490.99" y1="1944.17" x2="3492.22" y2="1944.17" style="stroke:#A0A0A0;stroke-width:7.34"/>
	<line x1="3492.22" y1="1944.17" x2="3493.83" y2="1944.17" style="stroke:#A0A0A0;stroke-width:7.34"/>
	<line x1="3514.01" y1="1944.17" x2="3516.85" y2="1944.17" style="stroke:#A0A0A0;stroke-width:7.34"/>
	<line x1="3537.02" y1="1944.17" x2="3539.99" y2="1944.17" style="stroke:#A0A0A0;stroke-width:7.34"/>
	<line x1="3560.04" y1="1944.17" x2="3563.01" y2="1944.17" style="stroke:#A0A0A0;stroke-width:7.34"/>
	<line x1="3583.18" y1="1944.17" x2="3586.03" y2="1944.17" style="stroke:#A0A0A0;stroke-width:7.34"/>
	<line x1="3606.20" y1="1944.17" x2="3609.05" y2="1944.17" style="stroke:#A0A0A0;stroke-width:7.34"/>
	<line x1="3629.22" y1="1944.17" x2="3632.06" y2="1944.17" style="stroke:#A0A0A0;stroke-width:7.34"/>
	<line x1="3652.23" y1="1944.17" x2="3655.08" y2="1944.17" style="stroke:#A0A0A0;stroke-width:7.34"/>
	<line x1="3675.25" y1="1944.17" x2="3678.10" y2="1944.17" style="stroke:#A0A0A0;stroke-width:7.34"/>
	<line x1="3698.27" y1="1944.17" x2="3701.11" y2="1944.17" style="stroke:#A0A0A0;stroke-width:7.34"/>
	<line x1="3721.29" y1="1944.17" x2="3724.13" y2="1944.17" style="stroke:#A0A0A0;stroke-width:7.34"/>
	<line x1="3744.30" y1="1944.17" x2="3745.29" y2="1944.17" style="stroke:#A0A0A0;stroke-width:7.34"/>
	<line x1="3745.29" y1="1944.17" x2="3747.15" y2="1944.17" style="stroke:#A0A0A0;stroke-width:7.34"/>
	<line x1="3767.32" y1="1944.17" x2="3770.17" y2="1944.17" style="stroke:#A0A0A0;stroke-width:7.34"/>
	<path d="" stroke-linejoin="round" style="fill:none;stroke:#A0A0A0;stroke-width:7.34"/>
	<path d=" M2201.39 2009.39 L2226.76 2006.42 L2252.13 2003.20 L2277.37 1999.61 L2302.74 1995.78 L2327.99 1991.57 L2353.35 1987.12 L2378.60 1982.17 L2403.97 1976.97 L2429.21 1971.28 L2454.58 1965.34 L2479.83 1959.02 L2505.20 1952.34 L2530.44 1945.29 L2555.81 1937.99 L2581.05 1930.44 L2606.42 1922.64 L2631.67 1914.84 L2657.04 1906.92 L2682.28 1899.13 L2707.65 1891.33 L2732.89 1883.91 L2758.26 1876.85 L2783.51 1870.29 L2808.88 1864.23 L2834.12 1858.54 L2859.49 1853.46 L2884.74 1848.64 L2910.11 1844.30 L2935.35 1840.34 L2960.72 1836.51 L2986.09 1832.92 L3011.33 1829.33 L3036.70 1825.74 L3061.95 1822.03 L3087.32 1818.19 L3112.56 1813.98 L3137.93 1809.28 L3163.17 1803.96 L3188.54 1798.02 L3213.79 1791.21 L3239.16 1783.42 L3264.40 1774.75 L3289.77 1764.98 L3315.01 1754.21 L3340.38 1742.33 L3365.63 1729.21 L3391.00 1714.86 L3416.24 1699.14 L3441.61 1681.94 L3466.86 1663.38 L3492.22 1643.08 L3517.47 1621.05 L3542.84 1597.17 L3568.08 1571.43 L3593.45 1543.58 L3618.70 1513.51 L3644.07 1481.09 L3669.31 1446.19 L3694.68 1408.81 L3719.93 1368.59 L3745.29 1325.40 L3770.66 1279.37" stroke-linejoin="round" style="fill:none;stroke:#008000;stroke-width:7.34"/>
	<path d=" M2201.39 1980.93 L2226.76 1975.48 L2252.13 1969.42 L2277.37 1962.86 L2302.74 1955.68 L2327.99 1947.89 L2353.35 1939.47 L2378.60 1930.31 L2403.97 1920.54 L2429.21 1910.14 L2454.58 1899.00 L2479.83 1887.12 L2505.20 1874.62 L2530.44 1861.63 L2555.81 1848.02 L2581.05 1833.91 L2606.42 1819.55 L2631.67 1804.95 L2657.04 1790.22 L2682.28 1775.62 L2707.65 1761.27 L2732.89 1747.40 L2758.26 1734.29 L2783.51 1722.04 L2808.88 1710.65 L2834.12 1700.25 L2859.49 1690.60 L2884.74 1681.82 L2910.11 1673.77 L2935.35 1666.22 L2960.72 1659.17 L2986.09 1652.49 L3011.33 1645.80 L3036.70 1639.12 L3061.95 1632.31 L3087.32 1625.14 L3112.56 1617.22 L3137.93 1608.55 L3163.17 1598.78 L3188.54 1587.64 L3213.79 1574.89 L3239.16 1560.54 L3264.40 1544.32 L3289.77 1526.26 L3315.01 1506.21 L3340.38 1484.06 L3365.63 1459.68 L3391.00 1432.95 L3416.24 1403.74 L3441.61 1371.94 L3466.86 1337.28 L3492.22 1299.66 L3517.47 1258.82 L3542.84 1214.52 L3568.08 1166.63 L3593.45 1114.90 L3618.70 1059.09 L3644.07 998.94 L3669.31 934.34 L3694.68 864.79 L3719.93 790.29 L3745.29 710.35 L3770.66 624.96" stroke-linejoin="round" style="fill:none;stroke:#FF7F00;stroke-width:7.34"/>
	<path d=" M2201.39 2027.09 L2226.76 2025.73 L2252.13 2024.24 L2277.37 2022.63 L2302.74 2020.90 L2327.99 2018.92 L2353.35 2016.82 L2378.60 2014.59 L2403.97 2012.11 L2429.21 2009.52 L2454.58 2006.79 L2479.83 2003.82 L2505.20 2000.73 L2530.44 1997.51 L2555.81 1994.17 L2581.05 1990.70 L2606.42 1987.12 L2631.67 1983.53 L2657.04 1979.81 L2682.28 1976.23 L2707.65 1972.64 L2732.89 1969.17 L2758.26 1965.95 L2783.51 1962.86 L2808.88 1960.14 L2834.12 1957.54 L2859.49 1955.06 L2884.74 1952.96 L2910.11 1950.98 L2935.35 1949.00 L2960.72 1947.27 L2986.09 1945.66 L3011.33 1943.93 L3036.70 1942.32 L3061.95 1940.58 L3087.32 1938.85 L3112.56 1936.87 L3137.93 1934.77 L3163.17 1932.29 L3188.54 1929.57 L3213.79 1926.35 L3239.16 1922.76 L3264.40 1918.80 L3289.77 1914.22 L3315.01 1909.27 L3340.38 1903.83 L3365.63 1897.77 L3391.00 1891.08 L3416.24 1883.78 L3441.61 1875.86 L3466.86 1867.32 L3492.22 1857.92 L3517.47 1847.77 L3542.84 1836.75 L3568.08 1824.75 L3593.45 1811.88 L3618.70 1798.02 L3644.07 1783.05 L3669.31 1766.83 L3694.68 1749.51 L3719.93 1730.95 L3745.29 1710.90 L3770.66 1689.61" stroke-linejoin="round" style="fill:none;stroke:#1A476F;stroke-width:7.34"/>
	<line x1="401.69" y1="2096.14" x2="401.69" y2="402.82" style="stroke:#000000;stroke-width:4.90"/>
	<line x1="401.69" y1="2042.31" x2="367.66" y2="2042.31" style="stroke:#000000;stroke-width:4.90"/>
	<text x="350.71" y="2072.10" style="font-family:'Helvetica';font-size:85.02px;fill:#000000" text-anchor="end">0</text>
	<line x1="401.69" y1="1923.75" x2="367.66" y2="1923.75" style="stroke:#000000;stroke-width:4.90"/>
	<text x="350.71" y="1953.54" style="font-family:'Helvetica';font-size:85.02px;fill:#000000" text-anchor="end">.001</text>
	<line x1="401.69" y1="1805.20" x2="367.66" y2="1805.20" style="stroke:#000000;stroke-width:4.90"/>
	<text x="350.71" y="1834.99" style="font-family:'Helvetica';font-size:85.02px;fill:#000000" text-anchor="end">.002</text>
	<line x1="401.69" y1="1686.64" x2="367.66" y2="1686.64" style="stroke:#000000;stroke-width:4.90"/>
	<text x="350.71" y="1716.43" style="font-family:'Helvetica';font-size:85.02px;fill:#000000" text-anchor="end">.003</text>
	<line x1="401.69" y1="1568.09" x2="367.66" y2="1568.09" style="stroke:#000000;stroke-width:4.90"/>
	<text x="350.71" y="1597.87" style="font-family:'Helvetica';font-size:85.02px;fill:#000000" text-anchor="end">.004</text>
	<line x1="401.69" y1="1449.53" x2="367.66" y2="1449.53" style="stroke:#000000;stroke-width:4.90"/>
	<text x="350.71" y="1479.32" style="font-family:'Helvetica';font-size:85.02px;fill:#000000" text-anchor="end">.005</text>
	<line x1="401.69" y1="1330.85" x2="367.66" y2="1330.85" style="stroke:#000000;stroke-width:4.90"/>
	<text x="350.71" y="1360.64" style="font-family:'Helvetica';font-size:85.02px;fill:#000000" text-anchor="end">.006</text>
	<line x1="401.69" y1="1212.29" x2="367.66" y2="1212.29" style="stroke:#000000;stroke-width:4.90"/>
	<text x="350.71" y="1242.08" style="font-family:'Helvetica';font-size:85.02px;fill:#000000" text-anchor="end">.007</text>
	<line x1="401.69" y1="1093.74" x2="367.66" y2="1093.74" style="stroke:#000000;stroke-width:4.90"/>
	<text x="350.71" y="1123.52" style="font-family:'Helvetica';font-size:85.02px;fill:#000000" text-anchor="end">.008</text>
	<line x1="401.69" y1="975.18" x2="367.66" y2="975.18" style="stroke:#000000;stroke-width:4.90"/>
	<text x="350.71" y="1004.97" style="font-family:'Helvetica';font-size:85.02px;fill:#000000" text-anchor="end">.009</text>
	<line x1="401.69" y1="2096.14" x2="2078.51" y2="2096.14" style="stroke:#000000;stroke-width:4.90"/>
	<line x1="506.14" y1="2096.14" x2="506.14" y2="2113.10" style="stroke:#000000;stroke-width:4.90"/>
	<line x1="632.73" y1="2096.14" x2="632.73" y2="2113.10" style="stroke:#000000;stroke-width:4.90"/>
	<line x1="759.21" y1="2096.14" x2="759.21" y2="2113.10" style="stroke:#000000;stroke-width:4.90"/>
	<line x1="885.80" y1="2096.14" x2="885.80" y2="2113.10" style="stroke:#000000;stroke-width:4.90"/>
	<line x1="1012.27" y1="2096.14" x2="1012.27" y2="2113.10" style="stroke:#000000;stroke-width:4.90"/>
	<line x1="1138.87" y1="2096.14" x2="1138.87" y2="2113.10" style="stroke:#000000;stroke-width:4.90"/>
	<line x1="1265.47" y1="2096.14" x2="1265.47" y2="2113.10" style="stroke:#000000;stroke-width:4.90"/>
	<line x1="1391.94" y1="2096.14" x2="1391.94" y2="2113.10" style="stroke:#000000;stroke-width:4.90"/>
	<line x1="1518.54" y1="2096.14" x2="1518.54" y2="2113.10" style="stroke:#000000;stroke-width:4.90"/>
	<line x1="1645.01" y1="2096.14" x2="1645.01" y2="2113.10" style="stroke:#000000;stroke-width:4.90"/>
	<line x1="1771.61" y1="2096.14" x2="1771.61" y2="2113.10" style="stroke:#000000;stroke-width:4.90"/>
	<line x1="1898.20" y1="2096.14" x2="1898.20" y2="2113.10" style="stroke:#000000;stroke-width:4.90"/>
	<line x1="2024.67" y1="2096.14" x2="2024.67" y2="2113.10" style="stroke:#000000;stroke-width:4.90"/>
	<line x1="506.14" y1="2096.14" x2="506.14" y2="2130.18" style="stroke:#000000;stroke-width:4.90"/>
	<text x="506.14" y="2206.58" style="font-family:'Helvetica';font-size:85.02px;fill:#000000" text-anchor="middle">20</text>
	<line x1="1012.27" y1="2096.14" x2="1012.27" y2="2130.18" style="stroke:#000000;stroke-width:4.90"/>
	<text x="1012.27" y="2206.58" style="font-family:'Helvetica';font-size:85.02px;fill:#000000" text-anchor="middle">40</text>
	<line x1="1518.54" y1="2096.14" x2="1518.54" y2="2130.18" style="stroke:#000000;stroke-width:4.90"/>
	<text x="1518.54" y="2206.58" style="font-family:'Helvetica';font-size:85.02px;fill:#000000" text-anchor="middle">60</text>
	<line x1="2024.67" y1="2096.14" x2="2024.67" y2="2130.18" style="stroke:#000000;stroke-width:4.90"/>
	<text x="2024.67" y="2206.58" style="font-family:'Helvetica';font-size:85.02px;fill:#000000" text-anchor="middle">80</text>
	<line x1="2147.68" y1="2096.14" x2="3824.49" y2="2096.14" style="stroke:#000000;stroke-width:4.90"/>
	<line x1="2252.13" y1="2096.14" x2="2252.13" y2="2113.10" style="stroke:#000000;stroke-width:4.90"/>
	<line x1="2378.72" y1="2096.14" x2="2378.72" y2="2113.10" style="stroke:#000000;stroke-width:4.90"/>
	<line x1="2505.20" y1="2096.14" x2="2505.20" y2="2113.10" style="stroke:#000000;stroke-width:4.90"/>
	<line x1="2631.79" y1="2096.14" x2="2631.79" y2="2113.10" style="stroke:#000000;stroke-width:4.90"/>
	<line x1="2758.26" y1="2096.14" x2="2758.26" y2="2113.10" style="stroke:#000000;stroke-width:4.90"/>
	<line x1="2884.86" y1="2096.14" x2="2884.86" y2="2113.10" style="stroke:#000000;stroke-width:4.90"/>
	<line x1="3011.46" y1="2096.14" x2="3011.46" y2="2113.10" style="stroke:#000000;stroke-width:4.90"/>
	<line x1="3137.93" y1="2096.14" x2="3137.93" y2="2113.10" style="stroke:#000000;stroke-width:4.90"/>
	<line x1="3264.53" y1="2096.14" x2="3264.53" y2="2113.10" style="stroke:#000000;stroke-width:4.90"/>
	<line x1="3391.00" y1="2096.14" x2="3391.00" y2="2113.10" style="stroke:#000000;stroke-width:4.90"/>
	<line x1="3517.59" y1="2096.14" x2="3517.59" y2="2113.10" style="stroke:#000000;stroke-width:4.90"/>
	<line x1="3644.07" y1="2096.14" x2="3644.07" y2="2113.10" style="stroke:#000000;stroke-width:4.90"/>
	<line x1="3770.66" y1="2096.14" x2="3770.66" y2="2113.10" style="stroke:#000000;stroke-width:4.90"/>
	<line x1="2252.13" y1="2096.14" x2="2252.13" y2="2130.18" style="stroke:#000000;stroke-width:4.90"/>
	<text x="2252.13" y="2206.58" style="font-family:'Helvetica';font-size:85.02px;fill:#000000" text-anchor="middle">20</text>
	<line x1="2758.26" y1="2096.14" x2="2758.26" y2="2130.18" style="stroke:#000000;stroke-width:4.90"/>
	<text x="2758.26" y="2206.58" style="font-family:'Helvetica';font-size:85.02px;fill:#000000" text-anchor="middle">40</text>
	<line x1="3264.53" y1="2096.14" x2="3264.53" y2="2130.18" style="stroke:#000000;stroke-width:4.90"/>
	<text x="3264.53" y="2206.58" style="font-family:'Helvetica';font-size:85.02px;fill:#000000" text-anchor="middle">60</text>
	<line x1="3770.66" y1="2096.14" x2="3770.66" y2="2130.18" style="stroke:#000000;stroke-width:4.90"/>
	<text x="3770.66" y="2206.58" style="font-family:'Helvetica';font-size:85.02px;fill:#000000" text-anchor="middle">80</text>
	<rect x="401.69" y="279.93" width="1676.81" height="122.89" style="fill:#D9E6EB"/>
	<rect x="404.14" y="282.38" width="1671.92" height="117.99" style="fill:none;stroke:#D9E6EB;stroke-width:4.90"/>
	<text x="1240.10" y="359.96" style="font-family:'Helvetica';font-size:93.56px;fill:#000000" text-anchor="middle">Female</text>
	<rect x="2147.68" y="279.93" width="1676.81" height="122.89" style="fill:#D9E6EB"/>
	<rect x="2150.13" y="282.38" width="1671.92" height="117.99" style="fill:none;stroke:#D9E6EB;stroke-width:4.90"/>
	<text x="2986.09" y="359.96" style="font-family:'Helvetica';font-size:93.56px;fill:#000000" text-anchor="middle">Male</text>
	<rect x="592.39" y="2418.27" width="2775.09" height="326.34" style="fill:#FFFFFF"/>
	<rect x="595.27" y="2421.15" width="2769.33" height="320.58" style="fill:none;stroke:#000000;stroke-width:5.76"/>
	<line x1="635.58" y1="2511.46" x2="1009.92" y2="2511.46" style="stroke:#008000;stroke-width:8.64"/>
	<line x1="635.58" y1="2651.43" x2="1009.92" y2="2651.43" style="stroke:#FF7F00;stroke-width:8.64"/>
	<line x1="1971.21" y1="2511.46" x2="2345.56" y2="2511.46" style="stroke:#1A476F;stroke-width:8.64"/>
	<line x1="1971.21" y1="2651.43" x2="1974.06" y2="2651.43" style="stroke:#A0A0A0;stroke-width:8.64"/>
	<line x1="1994.23" y1="2651.43" x2="1997.08" y2="2651.43" style="stroke:#A0A0A0;stroke-width:8.64"/>
	<line x1="2017.25" y1="2651.43" x2="2020.10" y2="2651.43" style="stroke:#A0A0A0;stroke-width:8.64"/>
	<line x1="2040.27" y1="2651.43" x2="2043.24" y2="2651.43" style="stroke:#A0A0A0;stroke-width:8.64"/>
	<line x1="2063.28" y1="2651.43" x2="2066.25" y2="2651.43" style="stroke:#A0A0A0;stroke-width:8.64"/>
	<line x1="2086.43" y1="2651.43" x2="2089.27" y2="2651.43" style="stroke:#A0A0A0;stroke-width:8.64"/>
	<line x1="2109.44" y1="2651.43" x2="2112.29" y2="2651.43" style="stroke:#A0A0A0;stroke-width:8.64"/>
	<line x1="2132.46" y1="2651.43" x2="2135.31" y2="2651.43" style="stroke:#A0A0A0;stroke-width:8.64"/>
	<line x1="2155.48" y1="2651.43" x2="2158.32" y2="2651.43" style="stroke:#A0A0A0;stroke-width:8.64"/>
	<line x1="2178.49" y1="2651.43" x2="2181.34" y2="2651.43" style="stroke:#A0A0A0;stroke-width:8.64"/>
	<line x1="2201.51" y1="2651.43" x2="2204.36" y2="2651.43" style="stroke:#A0A0A0;stroke-width:8.64"/>
	<line x1="2224.53" y1="2651.43" x2="2227.38" y2="2651.43" style="stroke:#A0A0A0;stroke-width:8.64"/>
	<line x1="2247.55" y1="2651.43" x2="2250.39" y2="2651.43" style="stroke:#A0A0A0;stroke-width:8.64"/>
	<line x1="2270.57" y1="2651.43" x2="2273.41" y2="2651.43" style="stroke:#A0A0A0;stroke-width:8.64"/>
	<line x1="2293.58" y1="2651.43" x2="2296.55" y2="2651.43" style="stroke:#A0A0A0;stroke-width:8.64"/>
	<line x1="2316.60" y1="2651.43" x2="2319.57" y2="2651.43" style="stroke:#A0A0A0;stroke-width:8.64"/>
	<line x1="2339.74" y1="2651.43" x2="2342.59" y2="2651.43" style="stroke:#A0A0A0;stroke-width:8.64"/>
	<text x="1069.94" y="2546.49" style="font-family:'Helvetica';font-size:99.99px;fill:#000000">1 comorbidity</text>
	<text x="1069.94" y="2686.46" style="font-family:'Helvetica';font-size:99.99px;fill:#000000">2+ comorbidities</text>
	<text x="2405.58" y="2546.49" style="font-family:'Helvetica';font-size:99.99px;fill:#000000">No comborbidity</text>
	<text x="2405.58" y="2686.46" style="font-family:'Helvetica';font-size:99.99px;fill:#000000">Ref (Age 65, White)</text>
	<text x="1980.00" y="2353.56" style="font-family:'Helvetica';font-size:99.99px;fill:#000000" text-anchor="middle">Age (years)</text>
	<text x="1980.00" y="195.01" style="font-family:'Helvetica';font-size:110.01px;fill:#000000" text-anchor="middle">Ethnicity Other</text>
</svg>
