<?xml version="1.0" encoding="UTF-8" standalone="no"?>
<!-- This is a Stata 16.1 generated SVG file (http://www.stata.com) -->

<svg version="1.1" width="1600px" height="1164px" viewBox="0 0 3960 2880" xmlns="http://www.w3.org/2000/svg" xmlns:xlink="http://www.w3.org/1999/xlink">
	<desc>Stata Graph - Graph</desc>
	<rect x="0" y="0" width="3960" height="2880" style="fill:#EAF2F3;stroke:none"/>
	<rect x="0.00" y="0.00" width="3959.88" height="2880.00" style="fill:#EAF2F3"/>
	<rect x="2.88" y="2.88" width="3954.12" height="2874.24" style="fill:none;stroke:#EAF2F3;stroke-width:5.76"/>
	<rect x="401.69" y="402.82" width="1676.81" height="1693.32" style="fill:#FFFFFF"/>
	<rect x="404.14" y="405.27" width="1671.92" height="1688.43" style="fill:none;stroke:#FFFFFF;stroke-width:4.90"/>
	<line x1="401.69" y1="2042.31" x2="2078.51" y2="2042.31" style="stroke:#EAF2F3;stroke-width:7.34"/>
	<line x1="401.69" y1="1796.16" x2="2078.51" y2="1796.16" style="stroke:#EAF2F3;stroke-width:7.34"/>
	<line x1="401.69" y1="1550.14" x2="2078.51" y2="1550.14" style="stroke:#EAF2F3;stroke-width:7.34"/>
	<line x1="401.69" y1="1303.99" x2="2078.51" y2="1303.99" style="stroke:#EAF2F3;stroke-width:7.34"/>
	<line x1="401.69" y1="1057.85" x2="2078.51" y2="1057.85" style="stroke:#EAF2F3;stroke-width:7.34"/>
	<line x1="401.69" y1="811.83" x2="2078.51" y2="811.83" style="stroke:#EAF2F3;stroke-width:7.34"/>
	<rect x="2147.68" y="402.82" width="1676.81" height="1693.32" style="fill:#FFFFFF"/>
	<rect x="2150.13" y="405.27" width="1671.92" height="1688.43" style="fill:none;stroke:#FFFFFF;stroke-width:4.90"/>
	<line x1="2147.68" y1="2042.31" x2="3824.49" y2="2042.31" style="stroke:#EAF2F3;stroke-width:7.34"/>
	<line x1="2147.68" y1="1796.16" x2="3824.49" y2="1796.16" style="stroke:#EAF2F3;stroke-width:7.34"/>
	<line x1="2147.68" y1="1550.14" x2="3824.49" y2="1550.14" style="stroke:#EAF2F3;stroke-width:7.34"/>
	<line x1="2147.68" y1="1303.99" x2="3824.49" y2="1303.99" style="stroke:#EAF2F3;stroke-width:7.34"/>
	<line x1="2147.68" y1="1057.85" x2="3824.49" y2="1057.85" style="stroke:#EAF2F3;stroke-width:7.34"/>
	<line x1="2147.68" y1="811.83" x2="3824.49" y2="811.83" style="stroke:#EAF2F3;stroke-width:7.34"/>
	<defs>
		<path id="path_PbqNmdOo" d="M455.52 2042.19 L455.52 2042.19 L480.89 2042.19 L506.14 2042.19 L531.51 2042.19 L556.75 2042.19 L582.12 2042.06 L607.37 2042.06 L632.73 2042.06 L657.98 2041.94 L683.35 2041.82 L708.59 2041.82 L733.96 2041.69 L759.21 2041.57 L784.58 2041.32 L809.82 2041.20 L835.19 2040.95 L860.43 2040.70 L885.80 2040.45 L911.05 2040.21 L936.42 2039.83 L961.66 2039.46 L987.03 2039.09 L1012.27 2038.72 L1037.64 2038.23 L1062.89 2037.73 L1088.26 2037.24 L1113.50 2036.62 L1138.87 2036.00 L1164.24 2035.38 L1189.48 2034.76 L1214.85 2034.02 L1240.10 2033.15 L1265.47 2032.29 L1290.71 2031.42 L1316.08 2030.43 L1341.33 2029.32 L1366.69 2028.08 L1391.94 2026.84 L1417.31 2025.48 L1442.55 2023.87 L1467.92 2022.26 L1493.17 2020.41 L1518.54 2018.30 L1543.78 2015.95 L1569.15 2013.35 L1594.39 2010.51 L1619.76 2007.29 L1645.01 2003.82 L1670.38 1999.86 L1695.62 1995.53 L1720.99 1990.58 L1746.24 1985.14 L1771.61 1979.07 L1796.85 1972.39 L1822.22 1964.84 L1847.46 1956.55 L1872.83 1947.14 L1898.20 1936.75 L1923.45 1925.24 L1948.82 1912.37 L1974.06 1898.01 L1999.43 1882.05 L2024.67 1864.23 L2024.67 1767.82 L1999.43 1795.17 L1974.06 1819.80 L1948.82 1841.83 L1923.45 1861.63 L1898.20 1879.57 L1872.83 1895.54 L1847.46 1909.89 L1822.22 1922.76 L1796.85 1934.40 L1771.61 1944.79 L1746.24 1954.07 L1720.99 1962.49 L1695.62 1970.04 L1670.38 1976.84 L1645.01 1982.91 L1619.76 1988.35 L1594.39 1993.30 L1569.15 1997.76 L1543.78 2001.72 L1518.54 2005.18 L1493.17 2008.40 L1467.92 2011.37 L1442.55 2013.97 L1417.31 2016.20 L1391.94 2018.43 L1366.69 2020.28 L1341.33 2022.01 L1316.08 2023.62 L1290.71 2025.11 L1265.47 2026.47 L1240.10 2027.83 L1214.85 2028.94 L1189.48 2030.06 L1164.24 2031.17 L1138.87 2032.16 L1113.50 2033.15 L1088.26 2034.02 L1062.89 2034.88 L1037.64 2035.63 L1012.27 2036.37 L987.03 2036.99 L961.66 2037.61 L936.42 2038.10 L911.05 2038.60 L885.80 2039.09 L860.43 2039.46 L835.19 2039.71 L809.82 2040.08 L784.58 2040.33 L759.21 2040.58 L733.96 2040.70 L708.59 2040.95 L683.35 2041.07 L657.98 2041.20 L632.73 2041.32 L607.37 2041.44 L582.12 2041.57 L556.75 2041.57 L531.51 2041.69 L506.14 2041.82 L480.89 2041.82 L455.52 2041.82 L455.52 2042.19 Z" stroke-linejoin="round"/>
	</defs>
	<defs>
		<clipPath id="clipPath_zdagxlVp">
			<use xlink:href="#path_PbqNmdOo"/>
		</clipPath>
	</defs>
	<use xlink:href="#path_PbqNmdOo" style="stroke:none;fill:#E6E6E6"/>
	<use xlink:href="#path_PbqNmdOo" style="fill:none;stroke:#E0E0E0;stroke-width:14.69" clip-path="url(#clipPath_zdagxlVp)"/>
	<defs>
		<path id="path_oGiQTDFX" d="M455.52 2042.19 L455.52 2042.19 L480.89 2042.06 L506.14 2042.06 L531.51 2042.06 L556.75 2041.94 L582.12 2041.94 L607.37 2041.82 L632.73 2041.69 L657.98 2041.57 L683.35 2041.44 L708.59 2041.20 L733.96 2040.95 L759.21 2040.70 L784.58 2040.45 L809.82 2039.96 L835.19 2039.59 L860.43 2039.09 L885.80 2038.47 L911.05 2037.85 L936.42 2037.24 L961.66 2036.49 L987.03 2035.63 L1012.27 2034.76 L1037.64 2033.77 L1062.89 2032.78 L1088.26 2031.67 L1113.50 2030.43 L1138.87 2029.19 L1164.24 2027.83 L1189.48 2026.35 L1214.85 2024.74 L1240.10 2023.13 L1265.47 2021.27 L1290.71 2019.29 L1316.08 2017.19 L1341.33 2014.96 L1366.69 2012.49 L1391.94 2009.76 L1417.31 2006.79 L1442.55 2003.45 L1467.92 1999.86 L1493.17 1995.90 L1518.54 1991.45 L1543.78 1986.50 L1569.15 1981.05 L1594.39 1974.99 L1619.76 1968.18 L1645.01 1960.76 L1670.38 1952.34 L1695.62 1943.06 L1720.99 1932.66 L1746.24 1921.16 L1771.61 1908.28 L1796.85 1893.93 L1822.22 1877.96 L1847.46 1860.27 L1872.83 1840.34 L1898.20 1818.32 L1923.45 1793.69 L1948.82 1766.34 L1974.06 1735.77 L1999.43 1701.86 L2024.67 1664.24 L2024.67 1463.27 L1999.43 1520.81 L1974.06 1572.66 L1948.82 1619.20 L1923.45 1661.02 L1898.20 1698.65 L1872.83 1732.31 L1847.46 1762.63 L1822.22 1789.85 L1796.85 1814.23 L1771.61 1836.26 L1746.24 1855.94 L1720.99 1873.63 L1695.62 1889.47 L1670.38 1903.83 L1645.01 1916.70 L1619.76 1928.21 L1594.39 1938.60 L1569.15 1947.89 L1543.78 1956.30 L1518.54 1963.73 L1493.17 1970.53 L1467.92 1976.60 L1442.55 1982.17 L1417.31 1986.99 L1391.94 1991.45 L1366.69 1995.53 L1341.33 1999.24 L1316.08 2002.59 L1290.71 2005.80 L1265.47 2008.65 L1240.10 2011.37 L1214.85 2013.97 L1189.48 2016.32 L1164.24 2018.67 L1138.87 2020.78 L1113.50 2022.76 L1088.26 2024.61 L1062.89 2026.47 L1037.64 2028.08 L1012.27 2029.56 L987.03 2031.05 L961.66 2032.29 L936.42 2033.40 L911.05 2034.51 L885.80 2035.38 L860.43 2036.25 L835.19 2036.86 L809.82 2037.48 L784.58 2038.10 L759.21 2038.60 L733.96 2038.97 L708.59 2039.34 L683.35 2039.71 L657.98 2039.96 L632.73 2040.21 L607.37 2040.45 L582.12 2040.70 L556.75 2040.83 L531.51 2041.07 L506.14 2041.20 L480.89 2041.32 L455.52 2041.44 L455.52 2042.19 Z" stroke-linejoin="round"/>
	</defs>
	<defs>
		<clipPath id="clipPath_PyMEoZue">
			<use xlink:href="#path_oGiQTDFX"/>
		</clipPath>
	</defs>
	<use xlink:href="#path_oGiQTDFX" style="stroke:none;fill:#E6E6E6"/>
	<use xlink:href="#path_oGiQTDFX" style="fill:none;stroke:#E0E0E0;stroke-width:14.69" clip-path="url(#clipPath_PyMEoZue)"/>
	<defs>
		<path id="path_SKMcLHdv" d="M455.52 2042.06 L455.52 2042.06 L480.89 2041.94 L506.14 2041.94 L531.51 2041.82 L556.75 2041.69 L582.12 2041.57 L607.37 2041.44 L632.73 2041.32 L657.98 2041.07 L683.35 2040.70 L708.59 2040.45 L733.96 2039.96 L759.21 2039.46 L784.58 2038.97 L809.82 2038.23 L835.19 2037.48 L860.43 2036.62 L885.80 2035.63 L911.05 2034.51 L936.42 2033.28 L961.66 2031.91 L987.03 2030.43 L1012.27 2028.82 L1037.64 2027.21 L1062.89 2025.36 L1088.26 2023.38 L1113.50 2021.27 L1138.87 2019.04 L1164.24 2016.57 L1189.48 2013.97 L1214.85 2011.25 L1240.10 2008.15 L1265.47 2004.94 L1290.71 2001.47 L1316.08 1997.76 L1341.33 1993.67 L1366.69 1989.22 L1391.94 1984.39 L1417.31 1979.20 L1442.55 1973.38 L1467.92 1966.94 L1493.17 1959.89 L1518.54 1951.97 L1543.78 1943.18 L1569.15 1933.53 L1594.39 1922.64 L1619.76 1910.64 L1645.01 1897.39 L1670.38 1882.42 L1695.62 1865.96 L1720.99 1847.52 L1746.24 1826.85 L1771.61 1803.96 L1796.85 1778.47 L1822.22 1750.00 L1847.46 1718.32 L1872.83 1683.05 L1898.20 1643.70 L1923.45 1599.89 L1948.82 1551.13 L1974.06 1496.80 L1999.43 1436.41 L2024.67 1369.21 L2024.67 1013.05 L1999.43 1115.27 L1974.06 1207.22 L1948.82 1289.89 L1923.45 1364.14 L1898.20 1430.84 L1872.83 1490.74 L1847.46 1544.57 L1822.22 1592.96 L1796.85 1636.40 L1771.61 1675.38 L1746.24 1710.40 L1720.99 1741.84 L1695.62 1770.18 L1670.38 1795.54 L1645.01 1818.44 L1619.76 1838.98 L1594.39 1857.42 L1569.15 1874.00 L1543.78 1888.98 L1518.54 1902.34 L1493.17 1914.35 L1467.92 1925.24 L1442.55 1935.02 L1417.31 1943.80 L1391.94 1951.72 L1366.69 1958.90 L1341.33 1965.46 L1316.08 1971.52 L1290.71 1977.22 L1265.47 1982.41 L1240.10 1987.24 L1214.85 1991.82 L1189.48 1996.03 L1164.24 2000.11 L1138.87 2003.95 L1113.50 2007.54 L1088.26 2010.88 L1062.89 2013.97 L1037.64 2016.94 L1012.27 2019.66 L987.03 2022.14 L961.66 2024.49 L936.42 2026.47 L911.05 2028.33 L885.80 2029.93 L860.43 2031.42 L835.19 2032.66 L809.82 2033.77 L784.58 2034.76 L759.21 2035.63 L733.96 2036.49 L708.59 2037.11 L683.35 2037.73 L657.98 2038.23 L632.73 2038.72 L607.37 2039.09 L582.12 2039.46 L556.75 2039.83 L531.51 2040.08 L506.14 2040.33 L480.89 2040.58 L455.52 2040.70 L455.52 2042.06 Z" stroke-linejoin="round"/>
	</defs>
	<defs>
		<clipPath id="clipPath_YJzFtDKz">
			<use xlink:href="#path_SKMcLHdv"/>
		</clipPath>
	</defs>
	<use xlink:href="#path_SKMcLHdv" style="stroke:none;fill:#E6E6E6"/>
	<use xlink:href="#path_SKMcLHdv" style="fill:none;stroke:#E0E0E0;stroke-width:14.69" clip-path="url(#clipPath_YJzFtDKz)"/>
	<line x1="455.52" y1="2008.15" x2="458.37" y2="2008.15" style="stroke:#A0A0A0;stroke-width:7.34"/>
	<line x1="478.54" y1="2008.15" x2="480.77" y2="2008.15" style="stroke:#A0A0A0;stroke-width:7.34"/>
	<line x1="480.77" y1="2008.15" x2="481.39" y2="2008.15" style="stroke:#A0A0A0;stroke-width:7.34"/>
	<line x1="501.56" y1="2008.15" x2="504.40" y2="2008.15" style="stroke:#A0A0A0;stroke-width:7.34"/>
	<line x1="524.58" y1="2008.15" x2="527.42" y2="2008.15" style="stroke:#A0A0A0;stroke-width:7.34"/>
	<line x1="547.59" y1="2008.15" x2="550.44" y2="2008.15" style="stroke:#A0A0A0;stroke-width:7.34"/>
	<line x1="570.61" y1="2008.15" x2="573.58" y2="2008.15" style="stroke:#A0A0A0;stroke-width:7.34"/>
	<line x1="593.75" y1="2008.15" x2="596.60" y2="2008.15" style="stroke:#A0A0A0;stroke-width:7.34"/>
	<line x1="616.77" y1="2008.15" x2="619.62" y2="2008.15" style="stroke:#A0A0A0;stroke-width:7.34"/>
	<line x1="639.79" y1="2008.15" x2="642.63" y2="2008.15" style="stroke:#A0A0A0;stroke-width:7.34"/>
	<line x1="662.80" y1="2008.15" x2="665.65" y2="2008.15" style="stroke:#A0A0A0;stroke-width:7.34"/>
	<line x1="685.82" y1="2008.15" x2="688.67" y2="2008.15" style="stroke:#A0A0A0;stroke-width:7.34"/>
	<line x1="708.84" y1="2008.15" x2="711.69" y2="2008.15" style="stroke:#A0A0A0;stroke-width:7.34"/>
	<line x1="731.86" y1="2008.15" x2="733.84" y2="2008.15" style="stroke:#A0A0A0;stroke-width:7.34"/>
	<line x1="733.84" y1="2008.15" x2="734.70" y2="2008.15" style="stroke:#A0A0A0;stroke-width:7.34"/>
	<line x1="754.88" y1="2008.15" x2="757.72" y2="2008.15" style="stroke:#A0A0A0;stroke-width:7.34"/>
	<line x1="777.89" y1="2008.15" x2="780.74" y2="2008.15" style="stroke:#A0A0A0;stroke-width:7.34"/>
	<line x1="800.91" y1="2008.15" x2="803.88" y2="2008.15" style="stroke:#A0A0A0;stroke-width:7.34"/>
	<line x1="823.93" y1="2008.15" x2="826.90" y2="2008.15" style="stroke:#A0A0A0;stroke-width:7.34"/>
	<line x1="847.07" y1="2008.15" x2="849.91" y2="2008.15" style="stroke:#A0A0A0;stroke-width:7.34"/>
	<line x1="870.09" y1="2008.15" x2="872.93" y2="2008.15" style="stroke:#A0A0A0;stroke-width:7.34"/>
	<line x1="893.10" y1="2008.15" x2="895.95" y2="2008.15" style="stroke:#A0A0A0;stroke-width:7.34"/>
	<line x1="916.12" y1="2008.15" x2="918.97" y2="2008.15" style="stroke:#A0A0A0;stroke-width:7.34"/>
	<line x1="939.14" y1="2008.15" x2="941.99" y2="2008.15" style="stroke:#A0A0A0;stroke-width:7.34"/>
	<line x1="962.16" y1="2008.15" x2="965.00" y2="2008.15" style="stroke:#A0A0A0;stroke-width:7.34"/>
	<line x1="985.17" y1="2008.15" x2="986.91" y2="2008.15" style="stroke:#A0A0A0;stroke-width:7.34"/>
	<line x1="986.91" y1="2008.15" x2="988.02" y2="2008.15" style="stroke:#A0A0A0;stroke-width:7.34"/>
	<line x1="1008.19" y1="2008.15" x2="1011.04" y2="2008.15" style="stroke:#A0A0A0;stroke-width:7.34"/>
	<line x1="1031.21" y1="2008.15" x2="1034.06" y2="2008.15" style="stroke:#A0A0A0;stroke-width:7.34"/>
	<line x1="1054.23" y1="2008.15" x2="1057.20" y2="2008.15" style="stroke:#A0A0A0;stroke-width:7.34"/>
	<line x1="1077.24" y1="2008.15" x2="1080.21" y2="2008.15" style="stroke:#A0A0A0;stroke-width:7.34"/>
	<line x1="1100.38" y1="2008.15" x2="1103.23" y2="2008.15" style="stroke:#A0A0A0;stroke-width:7.34"/>
	<line x1="1123.40" y1="2008.15" x2="1126.25" y2="2008.15" style="stroke:#A0A0A0;stroke-width:7.34"/>
	<line x1="1146.42" y1="2008.15" x2="1149.27" y2="2008.15" style="stroke:#A0A0A0;stroke-width:7.34"/>
	<line x1="1169.44" y1="2008.15" x2="1172.28" y2="2008.15" style="stroke:#A0A0A0;stroke-width:7.34"/>
	<line x1="1192.45" y1="2008.15" x2="1195.30" y2="2008.15" style="stroke:#A0A0A0;stroke-width:7.34"/>
	<line x1="1215.47" y1="2008.15" x2="1218.32" y2="2008.15" style="stroke:#A0A0A0;stroke-width:7.34"/>
	<line x1="1238.49" y1="2008.15" x2="1240.10" y2="2008.15" style="stroke:#A0A0A0;stroke-width:7.34"/>
	<line x1="1240.10" y1="2008.15" x2="1241.34" y2="2008.15" style="stroke:#A0A0A0;stroke-width:7.34"/>
	<line x1="1261.51" y1="2008.15" x2="1264.35" y2="2008.15" style="stroke:#A0A0A0;stroke-width:7.34"/>
	<line x1="1284.53" y1="2008.15" x2="1287.37" y2="2008.15" style="stroke:#A0A0A0;stroke-width:7.34"/>
	<line x1="1307.54" y1="2008.15" x2="1310.51" y2="2008.15" style="stroke:#A0A0A0;stroke-width:7.34"/>
	<line x1="1330.56" y1="2008.15" x2="1333.53" y2="2008.15" style="stroke:#A0A0A0;stroke-width:7.34"/>
	<line x1="1353.70" y1="2008.15" x2="1356.55" y2="2008.15" style="stroke:#A0A0A0;stroke-width:7.34"/>
	<line x1="1376.72" y1="2008.15" x2="1379.57" y2="2008.15" style="stroke:#A0A0A0;stroke-width:7.34"/>
	<line x1="1399.74" y1="2008.15" x2="1402.58" y2="2008.15" style="stroke:#A0A0A0;stroke-width:7.34"/>
	<line x1="1422.75" y1="2008.15" x2="1425.60" y2="2008.15" style="stroke:#A0A0A0;stroke-width:7.34"/>
	<line x1="1445.77" y1="2008.15" x2="1448.62" y2="2008.15" style="stroke:#A0A0A0;stroke-width:7.34"/>
	<line x1="1468.79" y1="2008.15" x2="1471.63" y2="2008.15" style="stroke:#A0A0A0;stroke-width:7.34"/>
	<line x1="1491.81" y1="2008.15" x2="1493.17" y2="2008.15" style="stroke:#A0A0A0;stroke-width:7.34"/>
	<line x1="1493.17" y1="2008.15" x2="1494.65" y2="2008.15" style="stroke:#A0A0A0;stroke-width:7.34"/>
	<line x1="1514.82" y1="2008.15" x2="1517.67" y2="2008.15" style="stroke:#A0A0A0;stroke-width:7.34"/>
	<line x1="1537.84" y1="2008.15" x2="1540.69" y2="2008.15" style="stroke:#A0A0A0;stroke-width:7.34"/>
	<line x1="1560.86" y1="2008.15" x2="1563.83" y2="2008.15" style="stroke:#A0A0A0;stroke-width:7.34"/>
	<line x1="1584.00" y1="2008.15" x2="1586.85" y2="2008.15" style="stroke:#A0A0A0;stroke-width:7.34"/>
	<line x1="1607.02" y1="2008.15" x2="1609.86" y2="2008.15" style="stroke:#A0A0A0;stroke-width:7.34"/>
	<line x1="1630.04" y1="2008.15" x2="1632.88" y2="2008.15" style="stroke:#A0A0A0;stroke-width:7.34"/>
	<line x1="1653.05" y1="2008.15" x2="1655.90" y2="2008.15" style="stroke:#A0A0A0;stroke-width:7.34"/>
	<line x1="1676.07" y1="2008.15" x2="1678.92" y2="2008.15" style="stroke:#A0A0A0;stroke-width:7.34"/>
	<line x1="1699.09" y1="2008.15" x2="1701.93" y2="2008.15" style="stroke:#A0A0A0;stroke-width:7.34"/>
	<line x1="1722.11" y1="2008.15" x2="1724.95" y2="2008.15" style="stroke:#A0A0A0;stroke-width:7.34"/>
	<line x1="1745.12" y1="2008.15" x2="1746.24" y2="2008.15" style="stroke:#A0A0A0;stroke-width:7.34"/>
	<line x1="1746.24" y1="2008.15" x2="1747.97" y2="2008.15" style="stroke:#A0A0A0;stroke-width:7.34"/>
	<line x1="1768.14" y1="2008.15" x2="1770.99" y2="2008.15" style="stroke:#A0A0A0;stroke-width:7.34"/>
	<line x1="1791.16" y1="2008.15" x2="1794.00" y2="2008.15" style="stroke:#A0A0A0;stroke-width:7.34"/>
	<line x1="1814.17" y1="2008.15" x2="1817.14" y2="2008.15" style="stroke:#A0A0A0;stroke-width:7.34"/>
	<line x1="1837.32" y1="2008.15" x2="1840.16" y2="2008.15" style="stroke:#A0A0A0;stroke-width:7.34"/>
	<line x1="1860.33" y1="2008.15" x2="1863.18" y2="2008.15" style="stroke:#A0A0A0;stroke-width:7.34"/>
	<line x1="1883.35" y1="2008.15" x2="1886.20" y2="2008.15" style="stroke:#A0A0A0;stroke-width:7.34"/>
	<line x1="1906.37" y1="2008.15" x2="1909.21" y2="2008.15" style="stroke:#A0A0A0;stroke-width:7.34"/>
	<line x1="1929.39" y1="2008.15" x2="1932.23" y2="2008.15" style="stroke:#A0A0A0;stroke-width:7.34"/>
	<line x1="1952.40" y1="2008.15" x2="1955.25" y2="2008.15" style="stroke:#A0A0A0;stroke-width:7.34"/>
	<line x1="1975.42" y1="2008.15" x2="1978.27" y2="2008.15" style="stroke:#A0A0A0;stroke-width:7.34"/>
	<line x1="1998.44" y1="2008.15" x2="1999.31" y2="2008.15" style="stroke:#A0A0A0;stroke-width:7.34"/>
	<line x1="1999.31" y1="2008.15" x2="2001.29" y2="2008.15" style="stroke:#A0A0A0;stroke-width:7.34"/>
	<line x1="2021.46" y1="2008.15" x2="2024.30" y2="2008.15" style="stroke:#A0A0A0;stroke-width:7.34"/>
	<path d="" stroke-linejoin="round" style="fill:none;stroke:#A0A0A0;stroke-width:7.34"/>
	<path d=" M455.52 2042.06 L480.77 2041.94 L506.14 2041.82 L531.38 2041.82 L556.75 2041.69 L582.00 2041.57 L607.37 2041.44 L632.61 2041.32 L657.98 2041.07 L683.22 2040.83 L708.59 2040.58 L733.84 2040.33 L759.21 2039.96 L784.45 2039.59 L809.82 2039.09 L835.07 2038.47 L860.43 2037.98 L885.68 2037.24 L911.05 2036.49 L936.29 2035.63 L961.66 2034.76 L986.91 2033.65 L1012.27 2032.53 L1037.52 2031.30 L1062.89 2030.06 L1088.13 2028.70 L1113.50 2027.09 L1138.87 2025.60 L1164.12 2023.87 L1189.48 2022.01 L1214.73 2020.03 L1240.10 2018.05 L1265.34 2015.83 L1290.71 2013.35 L1315.96 2010.88 L1341.33 2008.03 L1366.57 2004.94 L1391.94 2001.72 L1417.18 1998.01 L1442.55 1994.05 L1467.80 1989.59 L1493.17 1984.64 L1518.41 1979.20 L1543.78 1973.13 L1569.03 1966.33 L1594.39 1958.78 L1619.64 1950.48 L1645.01 1941.08 L1670.25 1930.81 L1695.62 1919.30 L1720.87 1906.43 L1746.24 1892.07 L1771.48 1876.23 L1796.85 1858.41 L1822.10 1838.73 L1847.46 1816.71 L1872.71 1792.20 L1898.08 1764.85 L1923.45 1734.53 L1948.69 1700.63 L1974.06 1663.00 L1999.31 1621.05 L2024.67 1574.40" stroke-linejoin="round" style="fill:none;stroke:#008000;stroke-width:7.34"/>
	<path d=" M455.52 2041.69 L480.77 2041.69 L506.14 2041.57 L531.38 2041.32 L556.75 2041.20 L582.00 2040.95 L607.37 2040.70 L632.61 2040.45 L657.98 2040.08 L683.22 2039.71 L708.59 2039.22 L733.84 2038.72 L759.21 2038.10 L784.45 2037.36 L809.82 2036.49 L835.07 2035.63 L860.43 2034.51 L885.68 2033.28 L911.05 2031.91 L936.29 2030.43 L961.66 2028.70 L986.91 2026.96 L1012.27 2024.86 L1037.52 2022.76 L1062.89 2020.41 L1088.13 2017.93 L1113.50 2015.33 L1138.87 2012.49 L1164.12 2009.39 L1189.48 2006.17 L1214.73 2002.71 L1240.10 1999.00 L1265.34 1995.04 L1290.71 1990.83 L1315.96 1986.25 L1341.33 1981.30 L1366.57 1975.85 L1391.94 1969.91 L1417.18 1963.48 L1442.55 1956.30 L1467.80 1948.50 L1493.17 1939.72 L1518.41 1929.94 L1543.78 1919.05 L1569.03 1907.05 L1594.39 1893.68 L1619.64 1878.83 L1645.01 1862.25 L1670.25 1843.81 L1695.62 1823.27 L1720.87 1800.37 L1746.24 1775.00 L1771.48 1746.66 L1796.85 1715.10 L1822.10 1679.96 L1847.46 1640.85 L1872.71 1597.17 L1898.08 1548.66 L1923.45 1494.58 L1948.69 1434.43 L1974.06 1367.48 L1999.31 1292.86 L2024.67 1210.07" stroke-linejoin="round" style="fill:none;stroke:#FF7F00;stroke-width:7.34"/>
	<path d=" M455.52 2042.19 L480.77 2042.19 L506.14 2042.06 L531.38 2042.06 L556.75 2042.06 L582.00 2041.94 L607.37 2041.94 L632.61 2041.82 L657.98 2041.69 L683.22 2041.69 L708.59 2041.57 L733.84 2041.32 L759.21 2041.20 L784.45 2041.07 L809.82 2040.83 L835.07 2040.58 L860.43 2040.21 L885.68 2039.96 L911.05 2039.59 L936.29 2039.22 L961.66 2038.72 L986.91 2038.23 L1012.27 2037.73 L1037.52 2037.11 L1062.89 2036.49 L1088.13 2035.87 L1113.50 2035.13 L1138.87 2034.39 L1164.12 2033.65 L1189.48 2032.78 L1214.73 2031.79 L1240.10 2030.80 L1265.34 2029.81 L1290.71 2028.70 L1315.96 2027.46 L1341.33 2026.10 L1366.57 2024.74 L1391.94 2023.13 L1417.18 2021.40 L1442.55 2019.54 L1467.80 2017.44 L1493.17 2015.08 L1518.41 2012.49 L1543.78 2009.64 L1569.03 2006.42 L1594.39 2002.83 L1619.64 1999.00 L1645.01 1994.54 L1670.25 1989.59 L1695.62 1984.15 L1720.87 1978.08 L1746.24 1971.40 L1771.48 1963.85 L1796.85 1955.43 L1822.10 1946.15 L1847.46 1935.76 L1872.71 1924.13 L1898.08 1911.25 L1923.45 1896.90 L1948.69 1880.94 L1974.06 1863.11 L1999.31 1843.31 L2024.67 1821.29" stroke-linejoin="round" style="fill:none;stroke:#1A476F;stroke-width:7.34"/>
	<defs>
		<path id="path_EWhfAKjb" d="M2201.51 2042.19 L2201.51 2042.19 L2226.88 2042.19 L2252.13 2042.19 L2277.49 2042.06 L2302.74 2042.06 L2328.11 2042.06 L2353.35 2041.94 L2378.72 2041.82 L2403.97 2041.82 L2429.34 2041.69 L2454.58 2041.57 L2479.95 2041.32 L2505.20 2041.07 L2530.56 2040.95 L2555.81 2040.58 L2581.18 2040.33 L2606.42 2039.96 L2631.79 2039.59 L2657.04 2039.09 L2682.41 2038.60 L2707.65 2037.98 L2733.02 2037.36 L2758.26 2036.74 L2783.63 2036.00 L2808.88 2035.26 L2834.25 2034.51 L2859.49 2033.65 L2884.86 2032.66 L2910.11 2031.67 L2935.47 2030.55 L2960.72 2029.44 L2986.09 2028.20 L3011.46 2026.84 L3036.70 2025.48 L3062.07 2023.99 L3087.32 2022.26 L3112.68 2020.41 L3137.93 2018.43 L3163.30 2016.32 L3188.54 2013.97 L3213.91 2011.37 L3239.16 2008.40 L3264.53 2005.18 L3289.77 2001.60 L3315.14 1997.63 L3340.38 1993.30 L3365.75 1988.35 L3391.00 1982.91 L3416.37 1976.84 L3441.61 1970.04 L3466.98 1962.61 L3492.22 1954.20 L3517.59 1944.79 L3542.84 1934.52 L3568.21 1922.89 L3593.45 1910.02 L3618.82 1895.66 L3644.07 1879.57 L3669.43 1861.75 L3694.68 1841.95 L3720.05 1819.80 L3745.42 1795.30 L3770.66 1767.95 L3770.66 1618.45 L3745.42 1660.78 L3720.05 1698.77 L3694.68 1732.93 L3669.43 1763.62 L3644.07 1791.09 L3618.82 1815.84 L3593.45 1837.99 L3568.21 1857.92 L3542.84 1875.86 L3517.59 1891.83 L3492.22 1906.30 L3466.98 1919.30 L3441.61 1930.93 L3416.37 1941.33 L3391.00 1950.73 L3365.75 1959.15 L3340.38 1966.70 L3315.14 1973.50 L3289.77 1979.69 L3264.53 1985.14 L3239.16 1990.09 L3213.91 1994.54 L3188.54 1998.50 L3163.30 2002.21 L3137.93 2005.43 L3112.68 2008.40 L3087.32 2011.00 L3062.07 2013.48 L3036.70 2015.83 L3011.46 2017.93 L2986.09 2019.91 L2960.72 2021.77 L2935.47 2023.50 L2910.11 2025.11 L2884.86 2026.72 L2859.49 2028.20 L2834.25 2029.56 L2808.88 2030.80 L2783.63 2032.04 L2758.26 2033.15 L2733.02 2034.14 L2707.65 2035.01 L2682.41 2035.87 L2657.04 2036.62 L2631.79 2037.24 L2606.42 2037.85 L2581.18 2038.35 L2555.81 2038.84 L2530.56 2039.22 L2505.20 2039.59 L2479.95 2039.96 L2454.58 2040.21 L2429.34 2040.45 L2403.97 2040.58 L2378.72 2040.83 L2353.35 2040.95 L2328.11 2041.07 L2302.74 2041.32 L2277.49 2041.32 L2252.13 2041.44 L2226.88 2041.57 L2201.51 2041.69 L2201.51 2042.19 Z" stroke-linejoin="round"/>
	</defs>
	<defs>
		<clipPath id="clipPath_qUsqIpYa">
			<use xlink:href="#path_EWhfAKjb"/>
		</clipPath>
	</defs>
	<use xlink:href="#path_EWhfAKjb" style="stroke:none;fill:#E6E6E6"/>
	<use xlink:href="#path_EWhfAKjb" style="fill:none;stroke:#E0E0E0;stroke-width:14.69" clip-path="url(#clipPath_qUsqIpYa)"/>
	<defs>
		<path id="path_KxzamKNg" d="M2201.51 2042.06 L2201.51 2042.06 L2226.88 2042.06 L2252.13 2041.94 L2277.49 2041.94 L2302.74 2041.82 L2328.11 2041.69 L2353.35 2041.57 L2378.72 2041.44 L2403.97 2041.20 L2429.34 2040.95 L2454.58 2040.70 L2479.95 2040.33 L2505.20 2039.83 L2530.56 2039.34 L2555.81 2038.84 L2581.18 2038.10 L2606.42 2037.36 L2631.79 2036.49 L2657.04 2035.50 L2682.41 2034.51 L2707.65 2033.28 L2733.02 2032.04 L2758.26 2030.68 L2783.63 2029.19 L2808.88 2027.58 L2834.25 2025.85 L2859.49 2023.99 L2884.86 2022.01 L2910.11 2019.91 L2935.47 2017.68 L2960.72 2015.33 L2986.09 2012.73 L3011.46 2009.89 L3036.70 2006.79 L3062.07 2003.58 L3087.32 1999.99 L3112.68 1996.15 L3137.93 1992.07 L3163.30 1987.49 L3188.54 1982.41 L3213.91 1976.84 L3239.16 1970.66 L3264.53 1963.85 L3289.77 1956.18 L3315.14 1947.76 L3340.38 1938.36 L3365.75 1927.96 L3391.00 1916.45 L3416.37 1903.58 L3441.61 1889.23 L3466.98 1873.14 L3492.22 1855.44 L3517.59 1835.52 L3542.84 1813.49 L3568.21 1788.86 L3593.45 1761.39 L3618.82 1730.82 L3644.07 1696.79 L3669.43 1658.92 L3694.68 1616.72 L3720.05 1569.82 L3745.42 1517.59 L3770.66 1459.43 L3770.66 1149.05 L3745.42 1238.03 L3720.05 1317.98 L3694.68 1389.76 L3669.43 1454.36 L3644.07 1512.27 L3618.82 1564.37 L3593.45 1611.03 L3568.21 1653.10 L3542.84 1690.73 L3517.59 1724.63 L3492.22 1754.95 L3466.98 1782.30 L3441.61 1806.81 L3416.37 1828.83 L3391.00 1848.64 L3365.75 1866.46 L3340.38 1882.42 L3315.14 1896.78 L3289.77 1909.65 L3264.53 1921.28 L3239.16 1931.67 L3213.91 1941.08 L3188.54 1949.49 L3163.30 1957.17 L3137.93 1963.97 L3112.68 1970.16 L3087.32 1975.98 L3062.07 1981.18 L3036.70 1986.00 L3011.46 1990.46 L2986.09 1994.66 L2960.72 1998.62 L2935.47 2002.34 L2910.11 2005.80 L2884.86 2009.14 L2859.49 2012.24 L2834.25 2015.08 L2808.88 2017.81 L2783.63 2020.41 L2758.26 2022.76 L2733.02 2024.86 L2707.65 2026.84 L2682.41 2028.57 L2657.04 2030.18 L2631.79 2031.67 L2606.42 2032.90 L2581.18 2034.02 L2555.81 2035.01 L2530.56 2035.75 L2505.20 2036.62 L2479.95 2037.24 L2454.58 2037.85 L2429.34 2038.35 L2403.97 2038.72 L2378.72 2039.22 L2353.35 2039.59 L2328.11 2039.83 L2302.74 2040.08 L2277.49 2040.33 L2252.13 2040.58 L2226.88 2040.83 L2201.51 2040.95 L2201.51 2042.06 Z" stroke-linejoin="round"/>
	</defs>
	<defs>
		<clipPath id="clipPath_LaIXgETz">
			<use xlink:href="#path_KxzamKNg"/>
		</clipPath>
	</defs>
	<use xlink:href="#path_KxzamKNg" style="stroke:none;fill:#E6E6E6"/>
	<use xlink:href="#path_KxzamKNg" style="fill:none;stroke:#E0E0E0;stroke-width:14.69" clip-path="url(#clipPath_LaIXgETz)"/>
	<defs>
		<path id="path_pGplSjzJ" d="M2201.51 2041.94 L2201.51 2041.94 L2226.88 2041.82 L2252.13 2041.69 L2277.49 2041.57 L2302.74 2041.44 L2328.11 2041.32 L2353.35 2041.07 L2378.72 2040.70 L2403.97 2040.33 L2429.34 2039.96 L2454.58 2039.34 L2479.95 2038.72 L2505.20 2037.98 L2530.56 2037.11 L2555.81 2036.12 L2581.18 2034.88 L2606.42 2033.52 L2631.79 2032.04 L2657.04 2030.31 L2682.41 2028.33 L2707.65 2026.22 L2733.02 2023.99 L2758.26 2021.52 L2783.63 2018.92 L2808.88 2016.07 L2834.25 2013.10 L2859.49 2009.89 L2884.86 2006.30 L2910.11 2002.59 L2935.47 1998.62 L2960.72 1994.29 L2986.09 1989.71 L3011.46 1984.64 L3036.70 1979.32 L3062.07 1973.50 L3087.32 1967.19 L3112.68 1960.39 L3137.93 1952.96 L3163.30 1944.79 L3188.54 1935.76 L3213.91 1925.86 L3239.16 1914.97 L3264.53 1902.72 L3289.77 1889.23 L3315.14 1874.25 L3340.38 1857.55 L3365.75 1838.98 L3391.00 1818.44 L3416.37 1795.42 L3441.61 1769.93 L3466.98 1741.46 L3492.22 1709.78 L3517.59 1674.39 L3542.84 1635.04 L3568.21 1591.23 L3593.45 1542.34 L3618.82 1487.89 L3644.07 1427.25 L3669.43 1359.81 L3694.68 1284.57 L3720.05 1200.91 L3745.42 1107.97 L3770.66 1004.51 L3770.66 456.65 L3745.42 614.07 L3720.05 755.76 L3694.68 882.98 L3669.43 997.46 L3644.07 1100.17 L3618.82 1192.49 L3593.45 1275.53 L3568.21 1350.03 L3542.84 1416.98 L3517.59 1477.00 L3492.22 1531.08 L3466.98 1579.59 L3441.61 1623.16 L3416.37 1662.26 L3391.00 1697.53 L3365.75 1729.09 L3340.38 1757.55 L3315.14 1783.17 L3289.77 1806.06 L3264.53 1826.73 L3239.16 1845.29 L3213.91 1862.00 L3188.54 1877.10 L3163.30 1890.59 L3137.93 1902.72 L3112.68 1913.85 L3087.32 1924.00 L3062.07 1933.41 L3036.70 1941.95 L3011.46 1949.99 L2986.09 1957.54 L2960.72 1964.47 L2935.47 1971.03 L2910.11 1977.34 L2884.86 1983.16 L2859.49 1988.60 L2834.25 1993.80 L2808.88 1998.75 L2783.63 2003.20 L2758.26 2007.41 L2733.02 2011.25 L2707.65 2014.84 L2682.41 2017.93 L2657.04 2020.78 L2631.79 2023.38 L2606.42 2025.60 L2581.18 2027.46 L2555.81 2029.19 L2530.56 2030.80 L2505.20 2032.16 L2479.95 2033.28 L2454.58 2034.27 L2429.34 2035.26 L2403.97 2036.00 L2378.72 2036.74 L2353.35 2037.36 L2328.11 2037.98 L2302.74 2038.47 L2277.49 2038.84 L2252.13 2039.34 L2226.88 2039.59 L2201.51 2039.96 L2201.51 2041.94 Z" stroke-linejoin="round"/>
	</defs>
	<defs>
		<clipPath id="clipPath_LDPJcZGE">
			<use xlink:href="#path_pGplSjzJ"/>
		</clipPath>
	</defs>
	<use xlink:href="#path_pGplSjzJ" style="stroke:none;fill:#E6E6E6"/>
	<use xlink:href="#path_pGplSjzJ" style="fill:none;stroke:#E0E0E0;stroke-width:14.69" clip-path="url(#clipPath_LDPJcZGE)"/>
	<line x1="2201.39" y1="1989.59" x2="2204.24" y2="1989.59" style="stroke:#A0A0A0;stroke-width:7.34"/>
	<line x1="2224.41" y1="1989.59" x2="2226.76" y2="1989.59" style="stroke:#A0A0A0;stroke-width:7.34"/>
	<line x1="2226.76" y1="1989.59" x2="2227.25" y2="1989.59" style="stroke:#A0A0A0;stroke-width:7.34"/>
	<line x1="2247.42" y1="1989.59" x2="2250.27" y2="1989.59" style="stroke:#A0A0A0;stroke-width:7.34"/>
	<line x1="2270.44" y1="1989.59" x2="2273.29" y2="1989.59" style="stroke:#A0A0A0;stroke-width:7.34"/>
	<line x1="2293.46" y1="1989.59" x2="2296.43" y2="1989.59" style="stroke:#A0A0A0;stroke-width:7.34"/>
	<line x1="2316.60" y1="1989.59" x2="2319.45" y2="1989.59" style="stroke:#A0A0A0;stroke-width:7.34"/>
	<line x1="2339.62" y1="1989.59" x2="2342.46" y2="1989.59" style="stroke:#A0A0A0;stroke-width:7.34"/>
	<line x1="2362.64" y1="1989.59" x2="2365.48" y2="1989.59" style="stroke:#A0A0A0;stroke-width:7.34"/>
	<line x1="2385.65" y1="1989.59" x2="2388.50" y2="1989.59" style="stroke:#A0A0A0;stroke-width:7.34"/>
	<line x1="2408.67" y1="1989.59" x2="2411.52" y2="1989.59" style="stroke:#A0A0A0;stroke-width:7.34"/>
	<line x1="2431.69" y1="1989.59" x2="2434.53" y2="1989.59" style="stroke:#A0A0A0;stroke-width:7.34"/>
	<line x1="2454.70" y1="1989.59" x2="2457.55" y2="1989.59" style="stroke:#A0A0A0;stroke-width:7.34"/>
	<line x1="2477.72" y1="1989.59" x2="2479.83" y2="1989.59" style="stroke:#A0A0A0;stroke-width:7.34"/>
	<line x1="2479.83" y1="1989.59" x2="2480.57" y2="1989.59" style="stroke:#A0A0A0;stroke-width:7.34"/>
	<line x1="2500.74" y1="1989.59" x2="2503.59" y2="1989.59" style="stroke:#A0A0A0;stroke-width:7.34"/>
	<line x1="2523.76" y1="1989.59" x2="2526.60" y2="1989.59" style="stroke:#A0A0A0;stroke-width:7.34"/>
	<line x1="2546.78" y1="1989.59" x2="2549.74" y2="1989.59" style="stroke:#A0A0A0;stroke-width:7.34"/>
	<line x1="2569.92" y1="1989.59" x2="2572.76" y2="1989.59" style="stroke:#A0A0A0;stroke-width:7.34"/>
	<line x1="2592.93" y1="1989.59" x2="2595.78" y2="1989.59" style="stroke:#A0A0A0;stroke-width:7.34"/>
	<line x1="2615.95" y1="1989.59" x2="2618.80" y2="1989.59" style="stroke:#A0A0A0;stroke-width:7.34"/>
	<line x1="2638.97" y1="1989.59" x2="2641.82" y2="1989.59" style="stroke:#A0A0A0;stroke-width:7.34"/>
	<line x1="2661.99" y1="1989.59" x2="2664.83" y2="1989.59" style="stroke:#A0A0A0;stroke-width:7.34"/>
	<line x1="2685.00" y1="1989.59" x2="2687.85" y2="1989.59" style="stroke:#A0A0A0;stroke-width:7.34"/>
	<line x1="2708.02" y1="1989.59" x2="2710.87" y2="1989.59" style="stroke:#A0A0A0;stroke-width:7.34"/>
	<line x1="2731.04" y1="1989.59" x2="2732.89" y2="1989.59" style="stroke:#A0A0A0;stroke-width:7.34"/>
	<line x1="2732.89" y1="1989.59" x2="2733.89" y2="1989.59" style="stroke:#A0A0A0;stroke-width:7.34"/>
	<line x1="2754.06" y1="1989.59" x2="2756.90" y2="1989.59" style="stroke:#A0A0A0;stroke-width:7.34"/>
	<line x1="2777.07" y1="1989.59" x2="2779.92" y2="1989.59" style="stroke:#A0A0A0;stroke-width:7.34"/>
	<line x1="2800.09" y1="1989.59" x2="2803.06" y2="1989.59" style="stroke:#A0A0A0;stroke-width:7.34"/>
	<line x1="2823.23" y1="1989.59" x2="2826.08" y2="1989.59" style="stroke:#A0A0A0;stroke-width:7.34"/>
	<line x1="2846.25" y1="1989.59" x2="2849.10" y2="1989.59" style="stroke:#A0A0A0;stroke-width:7.34"/>
	<line x1="2869.27" y1="1989.59" x2="2872.11" y2="1989.59" style="stroke:#A0A0A0;stroke-width:7.34"/>
	<line x1="2892.28" y1="1989.59" x2="2895.13" y2="1989.59" style="stroke:#A0A0A0;stroke-width:7.34"/>
	<line x1="2915.30" y1="1989.59" x2="2918.15" y2="1989.59" style="stroke:#A0A0A0;stroke-width:7.34"/>
	<line x1="2938.32" y1="1989.59" x2="2941.17" y2="1989.59" style="stroke:#A0A0A0;stroke-width:7.34"/>
	<line x1="2961.34" y1="1989.59" x2="2964.18" y2="1989.59" style="stroke:#A0A0A0;stroke-width:7.34"/>
	<line x1="2984.36" y1="1989.59" x2="2986.09" y2="1989.59" style="stroke:#A0A0A0;stroke-width:7.34"/>
	<line x1="2986.09" y1="1989.59" x2="2987.20" y2="1989.59" style="stroke:#A0A0A0;stroke-width:7.34"/>
	<line x1="3007.37" y1="1989.59" x2="3010.22" y2="1989.59" style="stroke:#A0A0A0;stroke-width:7.34"/>
	<line x1="3030.39" y1="1989.59" x2="3033.36" y2="1989.59" style="stroke:#A0A0A0;stroke-width:7.34"/>
	<line x1="3053.41" y1="1989.59" x2="3056.38" y2="1989.59" style="stroke:#A0A0A0;stroke-width:7.34"/>
	<line x1="3076.55" y1="1989.59" x2="3079.39" y2="1989.59" style="stroke:#A0A0A0;stroke-width:7.34"/>
	<line x1="3099.57" y1="1989.59" x2="3102.41" y2="1989.59" style="stroke:#A0A0A0;stroke-width:7.34"/>
	<line x1="3122.58" y1="1989.59" x2="3125.43" y2="1989.59" style="stroke:#A0A0A0;stroke-width:7.34"/>
	<line x1="3145.60" y1="1989.59" x2="3148.45" y2="1989.59" style="stroke:#A0A0A0;stroke-width:7.34"/>
	<line x1="3168.62" y1="1989.59" x2="3171.47" y2="1989.59" style="stroke:#A0A0A0;stroke-width:7.34"/>
	<line x1="3191.64" y1="1989.59" x2="3194.48" y2="1989.59" style="stroke:#A0A0A0;stroke-width:7.34"/>
	<line x1="3214.65" y1="1989.59" x2="3217.50" y2="1989.59" style="stroke:#A0A0A0;stroke-width:7.34"/>
	<line x1="3237.67" y1="1989.59" x2="3239.16" y2="1989.59" style="stroke:#A0A0A0;stroke-width:7.34"/>
	<line x1="3239.16" y1="1989.59" x2="3240.52" y2="1989.59" style="stroke:#A0A0A0;stroke-width:7.34"/>
	<line x1="3260.69" y1="1989.59" x2="3263.53" y2="1989.59" style="stroke:#A0A0A0;stroke-width:7.34"/>
	<line x1="3283.71" y1="1989.59" x2="3286.68" y2="1989.59" style="stroke:#A0A0A0;stroke-width:7.34"/>
	<line x1="3306.72" y1="1989.59" x2="3309.69" y2="1989.59" style="stroke:#A0A0A0;stroke-width:7.34"/>
	<line x1="3329.86" y1="1989.59" x2="3332.71" y2="1989.59" style="stroke:#A0A0A0;stroke-width:7.34"/>
	<line x1="3352.88" y1="1989.59" x2="3355.73" y2="1989.59" style="stroke:#A0A0A0;stroke-width:7.34"/>
	<line x1="3375.90" y1="1989.59" x2="3378.75" y2="1989.59" style="stroke:#A0A0A0;stroke-width:7.34"/>
	<line x1="3398.92" y1="1989.59" x2="3401.76" y2="1989.59" style="stroke:#A0A0A0;stroke-width:7.34"/>
	<line x1="3421.93" y1="1989.59" x2="3424.78" y2="1989.59" style="stroke:#A0A0A0;stroke-width:7.34"/>
	<line x1="3444.95" y1="1989.59" x2="3447.80" y2="1989.59" style="stroke:#A0A0A0;stroke-width:7.34"/>
	<line x1="3467.97" y1="1989.59" x2="3470.82" y2="1989.59" style="stroke:#A0A0A0;stroke-width:7.34"/>
	<line x1="3490.99" y1="1989.59" x2="3492.22" y2="1989.59" style="stroke:#A0A0A0;stroke-width:7.34"/>
	<line x1="3492.22" y1="1989.59" x2="3493.83" y2="1989.59" style="stroke:#A0A0A0;stroke-width:7.34"/>
	<line x1="3514.01" y1="1989.59" x2="3516.85" y2="1989.59" style="stroke:#A0A0A0;stroke-width:7.34"/>
	<line x1="3537.02" y1="1989.59" x2="3539.99" y2="1989.59" style="stroke:#A0A0A0;stroke-width:7.34"/>
	<line x1="3560.04" y1="1989.59" x2="3563.01" y2="1989.59" style="stroke:#A0A0A0;stroke-width:7.34"/>
	<line x1="3583.18" y1="1989.59" x2="3586.03" y2="1989.59" style="stroke:#A0A0A0;stroke-width:7.34"/>
	<line x1="3606.20" y1="1989.59" x2="3609.05" y2="1989.59" style="stroke:#A0A0A0;stroke-width:7.34"/>
	<line x1="3629.22" y1="1989.59" x2="3632.06" y2="1989.59" style="stroke:#A0A0A0;stroke-width:7.34"/>
	<line x1="3652.23" y1="1989.59" x2="3655.08" y2="1989.59" style="stroke:#A0A0A0;stroke-width:7.34"/>
	<line x1="3675.25" y1="1989.59" x2="3678.10" y2="1989.59" style="stroke:#A0A0A0;stroke-width:7.34"/>
	<line x1="3698.27" y1="1989.59" x2="3701.11" y2="1989.59" style="stroke:#A0A0A0;stroke-width:7.34"/>
	<line x1="3721.29" y1="1989.59" x2="3724.13" y2="1989.59" style="stroke:#A0A0A0;stroke-width:7.34"/>
	<line x1="3744.30" y1="1989.59" x2="3745.29" y2="1989.59" style="stroke:#A0A0A0;stroke-width:7.34"/>
	<line x1="3745.29" y1="1989.59" x2="3747.15" y2="1989.59" style="stroke:#A0A0A0;stroke-width:7.34"/>
	<line x1="3767.32" y1="1989.59" x2="3770.17" y2="1989.59" style="stroke:#A0A0A0;stroke-width:7.34"/>
	<path d="" stroke-linejoin="round" style="fill:none;stroke:#A0A0A0;stroke-width:7.34"/>
	<path d=" M2201.39 2041.82 L2226.76 2041.69 L2252.13 2041.57 L2277.37 2041.44 L2302.74 2041.32 L2327.99 2041.20 L2353.35 2040.95 L2378.60 2040.70 L2403.97 2040.45 L2429.21 2040.08 L2454.58 2039.59 L2479.83 2039.22 L2505.20 2038.60 L2530.44 2037.98 L2555.81 2037.24 L2581.05 2036.49 L2606.42 2035.50 L2631.67 2034.51 L2657.04 2033.28 L2682.28 2032.04 L2707.65 2030.55 L2732.89 2028.94 L2758.26 2027.21 L2783.51 2025.36 L2808.88 2023.38 L2834.12 2021.15 L2859.49 2018.92 L2884.74 2016.45 L2910.11 2013.85 L2935.35 2011.00 L2960.72 2008.03 L2986.09 2004.81 L3011.33 2001.35 L3036.70 1997.63 L3061.95 1993.67 L3087.32 1989.47 L3112.56 1984.76 L3137.93 1979.57 L3163.17 1974.00 L3188.54 1967.81 L3213.79 1961.00 L3239.16 1953.33 L3264.40 1944.92 L3289.77 1935.51 L3315.01 1925.12 L3340.38 1913.48 L3365.63 1900.61 L3391.00 1886.26 L3416.24 1870.29 L3441.61 1852.47 L3466.86 1832.67 L3492.22 1810.64 L3517.47 1786.02 L3542.84 1758.67 L3568.08 1728.22 L3593.45 1694.31 L3618.70 1656.57 L3644.07 1614.49 L3669.31 1567.59 L3694.68 1515.37 L3719.93 1457.33 L3745.29 1392.73 L3770.66 1320.83" stroke-linejoin="round" style="fill:none;stroke:#008000;stroke-width:7.34"/>
	<path d=" M2201.39 2041.44 L2226.76 2041.32 L2252.13 2041.07 L2277.37 2040.83 L2302.74 2040.58 L2327.99 2040.21 L2353.35 2039.83 L2378.60 2039.46 L2403.97 2038.84 L2429.21 2038.23 L2454.58 2037.61 L2479.83 2036.74 L2505.20 2035.75 L2530.44 2034.64 L2555.81 2033.40 L2581.05 2031.91 L2606.42 2030.31 L2631.67 2028.33 L2657.04 2026.35 L2682.28 2023.99 L2707.65 2021.40 L2732.89 2018.55 L2758.26 2015.46 L2783.51 2012.11 L2808.88 2008.53 L2834.12 2004.69 L2859.49 2000.61 L2884.74 1996.27 L2910.11 1991.57 L2935.35 1986.62 L2960.72 1981.30 L2986.09 1975.61 L3011.33 1969.42 L3036.70 1962.86 L3061.95 1955.81 L3087.32 1948.13 L3112.56 1939.84 L3137.93 1930.68 L3163.17 1920.66 L3188.54 1909.65 L3213.79 1897.52 L3239.16 1883.91 L3264.40 1868.93 L3289.77 1852.22 L3315.01 1833.66 L3340.38 1812.99 L3365.63 1790.10 L3391.00 1764.48 L3416.24 1736.14 L3441.61 1704.46 L3466.86 1669.19 L3492.22 1629.96 L3517.47 1586.28 L3542.84 1537.64 L3568.08 1483.56 L3593.45 1423.17 L3618.70 1355.97 L3644.07 1281.10 L3669.31 1197.81 L3694.68 1105.12 L3719.93 1001.91 L3745.29 887.07 L3770.66 759.48" stroke-linejoin="round" style="fill:none;stroke:#FF7F00;stroke-width:7.34"/>
	<path d=" M2201.39 2042.06 L2226.76 2042.06 L2252.13 2041.94 L2277.37 2041.94 L2302.74 2041.82 L2327.99 2041.82 L2353.35 2041.69 L2378.60 2041.57 L2403.97 2041.44 L2429.21 2041.20 L2454.58 2041.07 L2479.83 2040.83 L2505.20 2040.58 L2530.44 2040.33 L2555.81 2039.96 L2581.05 2039.59 L2606.42 2039.09 L2631.67 2038.60 L2657.04 2038.10 L2682.28 2037.48 L2707.65 2036.74 L2732.89 2036.00 L2758.26 2035.26 L2783.51 2034.27 L2808.88 2033.40 L2834.12 2032.41 L2859.49 2031.30 L2884.74 2030.06 L2910.11 2028.82 L2935.35 2027.58 L2960.72 2026.10 L2986.09 2024.61 L3011.33 2023.00 L3036.70 2021.27 L3061.95 2019.42 L3087.32 2017.31 L3112.56 2015.08 L3137.93 2012.73 L3163.17 2010.01 L3188.54 2007.16 L3213.79 2003.95 L3239.16 2000.36 L3264.40 1996.27 L3289.77 1991.94 L3315.01 1986.99 L3340.38 1981.42 L3365.63 1975.36 L3391.00 1968.55 L3416.24 1961.00 L3441.61 1952.71 L3466.86 1943.31 L3492.22 1932.91 L3517.47 1921.28 L3542.84 1908.41 L3568.08 1893.93 L3593.45 1877.96 L3618.70 1860.14 L3644.07 1840.22 L3669.31 1818.07 L3694.68 1793.32 L3719.93 1765.97 L3745.29 1735.40 L3770.66 1701.37" stroke-linejoin="round" style="fill:none;stroke:#1A476F;stroke-width:7.34"/>
	<line x1="401.69" y1="2096.14" x2="401.69" y2="402.82" style="stroke:#000000;stroke-width:4.90"/>
	<line x1="401.69" y1="2042.31" x2="367.66" y2="2042.31" style="stroke:#000000;stroke-width:4.90"/>
	<text x="350.71" y="2072.10" style="font-family:'Helvetica';font-size:85.02px;fill:#000000" text-anchor="end">0</text>
	<line x1="401.69" y1="1796.16" x2="367.66" y2="1796.16" style="stroke:#000000;stroke-width:4.90"/>
	<text x="350.71" y="1825.95" style="font-family:'Helvetica';font-size:85.02px;fill:#000000" text-anchor="end">.001</text>
	<line x1="401.69" y1="1550.14" x2="367.66" y2="1550.14" style="stroke:#000000;stroke-width:4.90"/>
	<text x="350.71" y="1579.93" style="font-family:'Helvetica';font-size:85.02px;fill:#000000" text-anchor="end">.002</text>
	<line x1="401.69" y1="1303.99" x2="367.66" y2="1303.99" style="stroke:#000000;stroke-width:4.90"/>
	<text x="350.71" y="1333.78" style="font-family:'Helvetica';font-size:85.02px;fill:#000000" text-anchor="end">.003</text>
	<line x1="401.69" y1="1057.85" x2="367.66" y2="1057.85" style="stroke:#000000;stroke-width:4.90"/>
	<text x="350.71" y="1087.64" style="font-family:'Helvetica';font-size:85.02px;fill:#000000" text-anchor="end">.004</text>
	<line x1="401.69" y1="811.83" x2="367.66" y2="811.83" style="stroke:#000000;stroke-width:4.90"/>
	<text x="350.71" y="841.61" style="font-family:'Helvetica';font-size:85.02px;fill:#000000" text-anchor="end">.005</text>
	<line x1="401.69" y1="2096.14" x2="2078.51" y2="2096.14" style="stroke:#000000;stroke-width:4.90"/>
	<line x1="506.14" y1="2096.14" x2="506.14" y2="2113.10" style="stroke:#000000;stroke-width:4.90"/>
	<line x1="632.73" y1="2096.14" x2="632.73" y2="2113.10" style="stroke:#000000;stroke-width:4.90"/>
	<line x1="759.21" y1="2096.14" x2="759.21" y2="2113.10" style="stroke:#000000;stroke-width:4.90"/>
	<line x1="885.80" y1="2096.14" x2="885.80" y2="2113.10" style="stroke:#000000;stroke-width:4.90"/>
	<line x1="1012.27" y1="2096.14" x2="1012.27" y2="2113.10" style="stroke:#000000;stroke-width:4.90"/>
	<line x1="1138.87" y1="2096.14" x2="1138.87" y2="2113.10" style="stroke:#000000;stroke-width:4.90"/>
	<line x1="1265.47" y1="2096.14" x2="1265.47" y2="2113.10" style="stroke:#000000;stroke-width:4.90"/>
	<line x1="1391.94" y1="2096.14" x2="1391.94" y2="2113.10" style="stroke:#000000;stroke-width:4.90"/>
	<line x1="1518.54" y1="2096.14" x2="1518.54" y2="2113.10" style="stroke:#000000;stroke-width:4.90"/>
	<line x1="1645.01" y1="2096.14" x2="1645.01" y2="2113.10" style="stroke:#000000;stroke-width:4.90"/>
	<line x1="1771.61" y1="2096.14" x2="1771.61" y2="2113.10" style="stroke:#000000;stroke-width:4.90"/>
	<line x1="1898.20" y1="2096.14" x2="1898.20" y2="2113.10" style="stroke:#000000;stroke-width:4.90"/>
	<line x1="2024.67" y1="2096.14" x2="2024.67" y2="2113.10" style="stroke:#000000;stroke-width:4.90"/>
	<line x1="506.14" y1="2096.14" x2="506.14" y2="2130.18" style="stroke:#000000;stroke-width:4.90"/>
	<text x="506.14" y="2206.58" style="font-family:'Helvetica';font-size:85.02px;fill:#000000" text-anchor="middle">20</text>
	<line x1="1012.27" y1="2096.14" x2="1012.27" y2="2130.18" style="stroke:#000000;stroke-width:4.90"/>
	<text x="1012.27" y="2206.58" style="font-family:'Helvetica';font-size:85.02px;fill:#000000" text-anchor="middle">40</text>
	<line x1="1518.54" y1="2096.14" x2="1518.54" y2="2130.18" style="stroke:#000000;stroke-width:4.90"/>
	<text x="1518.54" y="2206.58" style="font-family:'Helvetica';font-size:85.02px;fill:#000000" text-anchor="middle">60</text>
	<line x1="2024.67" y1="2096.14" x2="2024.67" y2="2130.18" style="stroke:#000000;stroke-width:4.90"/>
	<text x="2024.67" y="2206.58" style="font-family:'Helvetica';font-size:85.02px;fill:#000000" text-anchor="middle">80</text>
	<line x1="2147.68" y1="2096.14" x2="3824.49" y2="2096.14" style="stroke:#000000;stroke-width:4.90"/>
	<line x1="2252.13" y1="2096.14" x2="2252.13" y2="2113.10" style="stroke:#000000;stroke-width:4.90"/>
	<line x1="2378.72" y1="2096.14" x2="2378.72" y2="2113.10" style="stroke:#000000;stroke-width:4.90"/>
	<line x1="2505.20" y1="2096.14" x2="2505.20" y2="2113.10" style="stroke:#000000;stroke-width:4.90"/>
	<line x1="2631.79" y1="2096.14" x2="2631.79" y2="2113.10" style="stroke:#000000;stroke-width:4.90"/>
	<line x1="2758.26" y1="2096.14" x2="2758.26" y2="2113.10" style="stroke:#000000;stroke-width:4.90"/>
	<line x1="2884.86" y1="2096.14" x2="2884.86" y2="2113.10" style="stroke:#000000;stroke-width:4.90"/>
	<line x1="3011.46" y1="2096.14" x2="3011.46" y2="2113.10" style="stroke:#000000;stroke-width:4.90"/>
	<line x1="3137.93" y1="2096.14" x2="3137.93" y2="2113.10" style="stroke:#000000;stroke-width:4.90"/>
	<line x1="3264.53" y1="2096.14" x2="3264.53" y2="2113.10" style="stroke:#000000;stroke-width:4.90"/>
	<line x1="3391.00" y1="2096.14" x2="3391.00" y2="2113.10" style="stroke:#000000;stroke-width:4.90"/>
	<line x1="3517.59" y1="2096.14" x2="3517.59" y2="2113.10" style="stroke:#000000;stroke-width:4.90"/>
	<line x1="3644.07" y1="2096.14" x2="3644.07" y2="2113.10" style="stroke:#000000;stroke-width:4.90"/>
	<line x1="3770.66" y1="2096.14" x2="3770.66" y2="2113.10" style="stroke:#000000;stroke-width:4.90"/>
	<line x1="2252.13" y1="2096.14" x2="2252.13" y2="2130.18" style="stroke:#000000;stroke-width:4.90"/>
	<text x="2252.13" y="2206.58" style="font-family:'Helvetica';font-size:85.02px;fill:#000000" text-anchor="middle">20</text>
	<line x1="2758.26" y1="2096.14" x2="2758.26" y2="2130.18" style="stroke:#000000;stroke-width:4.90"/>
	<text x="2758.26" y="2206.58" style="font-family:'Helvetica';font-size:85.02px;fill:#000000" text-anchor="middle">40</text>
	<line x1="3264.53" y1="2096.14" x2="3264.53" y2="2130.18" style="stroke:#000000;stroke-width:4.90"/>
	<text x="3264.53" y="2206.58" style="font-family:'Helvetica';font-size:85.02px;fill:#000000" text-anchor="middle">60</text>
	<line x1="3770.66" y1="2096.14" x2="3770.66" y2="2130.18" style="stroke:#000000;stroke-width:4.90"/>
	<text x="3770.66" y="2206.58" style="font-family:'Helvetica';font-size:85.02px;fill:#000000" text-anchor="middle">80</text>
	<rect x="401.69" y="279.93" width="1676.81" height="122.89" style="fill:#D9E6EB"/>
	<rect x="404.14" y="282.38" width="1671.92" height="117.99" style="fill:none;stroke:#D9E6EB;stroke-width:4.90"/>
	<text x="1240.10" y="359.96" style="font-family:'Helvetica';font-size:93.56px;fill:#000000" text-anchor="middle">Female</text>
	<rect x="2147.68" y="279.93" width="1676.81" height="122.89" style="fill:#D9E6EB"/>
	<rect x="2150.13" y="282.38" width="1671.92" height="117.99" style="fill:none;stroke:#D9E6EB;stroke-width:4.90"/>
	<text x="2986.09" y="359.96" style="font-family:'Helvetica';font-size:93.56px;fill:#000000" text-anchor="middle">Male</text>
	<rect x="592.39" y="2418.27" width="2775.09" height="326.34" style="fill:#FFFFFF"/>
	<rect x="595.27" y="2421.15" width="2769.33" height="320.58" style="fill:none;stroke:#000000;stroke-width:5.76"/>
	<line x1="635.58" y1="2511.46" x2="1009.92" y2="2511.46" style="stroke:#008000;stroke-width:8.64"/>
	<line x1="635.58" y1="2651.43" x2="1009.92" y2="2651.43" style="stroke:#FF7F00;stroke-width:8.64"/>
	<line x1="1971.21" y1="2511.46" x2="2345.56" y2="2511.46" style="stroke:#1A476F;stroke-width:8.64"/>
	<line x1="1971.21" y1="2651.43" x2="1974.06" y2="2651.43" style="stroke:#A0A0A0;stroke-width:8.64"/>
	<line x1="1994.23" y1="2651.43" x2="1997.08" y2="2651.43" style="stroke:#A0A0A0;stroke-width:8.64"/>
	<line x1="2017.25" y1="2651.43" x2="2020.10" y2="2651.43" style="stroke:#A0A0A0;stroke-width:8.64"/>
	<line x1="2040.27" y1="2651.43" x2="2043.24" y2="2651.43" style="stroke:#A0A0A0;stroke-width:8.64"/>
	<line x1="2063.28" y1="2651.43" x2="2066.25" y2="2651.43" style="stroke:#A0A0A0;stroke-width:8.64"/>
	<line x1="2086.43" y1="2651.43" x2="2089.27" y2="2651.43" style="stroke:#A0A0A0;stroke-width:8.64"/>
	<line x1="2109.44" y1="2651.43" x2="2112.29" y2="2651.43" style="stroke:#A0A0A0;stroke-width:8.64"/>
	<line x1="2132.46" y1="2651.43" x2="2135.31" y2="2651.43" style="stroke:#A0A0A0;stroke-width:8.64"/>
	<line x1="2155.48" y1="2651.43" x2="2158.32" y2="2651.43" style="stroke:#A0A0A0;stroke-width:8.64"/>
	<line x1="2178.49" y1="2651.43" x2="2181.34" y2="2651.43" style="stroke:#A0A0A0;stroke-width:8.64"/>
	<line x1="2201.51" y1="2651.43" x2="2204.36" y2="2651.43" style="stroke:#A0A0A0;stroke-width:8.64"/>
	<line x1="2224.53" y1="2651.43" x2="2227.38" y2="2651.43" style="stroke:#A0A0A0;stroke-width:8.64"/>
	<line x1="2247.55" y1="2651.43" x2="2250.39" y2="2651.43" style="stroke:#A0A0A0;stroke-width:8.64"/>
	<line x1="2270.57" y1="2651.43" x2="2273.41" y2="2651.43" style="stroke:#A0A0A0;stroke-width:8.64"/>
	<line x1="2293.58" y1="2651.43" x2="2296.55" y2="2651.43" style="stroke:#A0A0A0;stroke-width:8.64"/>
	<line x1="2316.60" y1="2651.43" x2="2319.57" y2="2651.43" style="stroke:#A0A0A0;stroke-width:8.64"/>
	<line x1="2339.74" y1="2651.43" x2="2342.59" y2="2651.43" style="stroke:#A0A0A0;stroke-width:8.64"/>
	<text x="1069.94" y="2546.49" style="font-family:'Helvetica';font-size:99.99px;fill:#000000">1 comorbidity</text>
	<text x="1069.94" y="2686.46" style="font-family:'Helvetica';font-size:99.99px;fill:#000000">2+ comorbidities</text>
	<text x="2405.58" y="2546.49" style="font-family:'Helvetica';font-size:99.99px;fill:#000000">No comborbidity</text>
	<text x="2405.58" y="2686.46" style="font-family:'Helvetica';font-size:99.99px;fill:#000000">Ref (Age 65, White)</text>
	<text x="1980.00" y="2353.56" style="font-family:'Helvetica';font-size:99.99px;fill:#000000" text-anchor="middle">Age (years)</text>
	<text x="1980.00" y="195.01" style="font-family:'Helvetica';font-size:110.01px;fill:#000000" text-anchor="middle">Ethnicity Other</text>
</svg>
