<?xml version="1.0" encoding="UTF-8" standalone="no"?>
<!-- This is a Stata 16.1 generated SVG file (http://www.stata.com) -->

<svg version="1.1" width="1600px" height="1164px" viewBox="0 0 3960 2880" xmlns="http://www.w3.org/2000/svg" xmlns:xlink="http://www.w3.org/1999/xlink">
	<desc>Stata Graph - Graph</desc>
	<rect x="0" y="0" width="3960" height="2880" style="fill:#EAF2F3;stroke:none"/>
	<rect x="0.00" y="0.00" width="3959.88" height="2880.00" style="fill:#EAF2F3"/>
	<rect x="2.88" y="2.88" width="3954.12" height="2874.24" style="fill:none;stroke:#EAF2F3;stroke-width:5.76"/>
	<rect x="401.69" y="258.27" width="1676.81" height="1697.90" style="fill:#FFFFFF"/>
	<rect x="404.14" y="260.72" width="1671.92" height="1693.01" style="fill:none;stroke:#FFFFFF;stroke-width:4.90"/>
	<line x1="401.69" y1="1902.22" x2="2078.51" y2="1902.22" style="stroke:#EAF2F3;stroke-width:7.34"/>
	<line x1="401.69" y1="1725.62" x2="2078.51" y2="1725.62" style="stroke:#EAF2F3;stroke-width:7.34"/>
	<line x1="401.69" y1="1548.90" x2="2078.51" y2="1548.90" style="stroke:#EAF2F3;stroke-width:7.34"/>
	<line x1="401.69" y1="1372.18" x2="2078.51" y2="1372.18" style="stroke:#EAF2F3;stroke-width:7.34"/>
	<line x1="401.69" y1="1195.59" x2="2078.51" y2="1195.59" style="stroke:#EAF2F3;stroke-width:7.34"/>
	<line x1="401.69" y1="1018.87" x2="2078.51" y2="1018.87" style="stroke:#EAF2F3;stroke-width:7.34"/>
	<line x1="401.69" y1="842.15" x2="2078.51" y2="842.15" style="stroke:#EAF2F3;stroke-width:7.34"/>
	<line x1="401.69" y1="665.42" x2="2078.51" y2="665.42" style="stroke:#EAF2F3;stroke-width:7.34"/>
	<line x1="401.69" y1="488.83" x2="2078.51" y2="488.83" style="stroke:#EAF2F3;stroke-width:7.34"/>
	<rect x="2147.68" y="258.27" width="1676.81" height="1697.90" style="fill:#FFFFFF"/>
	<rect x="2150.13" y="260.72" width="1671.92" height="1693.01" style="fill:none;stroke:#FFFFFF;stroke-width:4.90"/>
	<line x1="2147.68" y1="1902.22" x2="3824.49" y2="1902.22" style="stroke:#EAF2F3;stroke-width:7.34"/>
	<line x1="2147.68" y1="1725.62" x2="3824.49" y2="1725.62" style="stroke:#EAF2F3;stroke-width:7.34"/>
	<line x1="2147.68" y1="1548.90" x2="3824.49" y2="1548.90" style="stroke:#EAF2F3;stroke-width:7.34"/>
	<line x1="2147.68" y1="1372.18" x2="3824.49" y2="1372.18" style="stroke:#EAF2F3;stroke-width:7.34"/>
	<line x1="2147.68" y1="1195.59" x2="3824.49" y2="1195.59" style="stroke:#EAF2F3;stroke-width:7.34"/>
	<line x1="2147.68" y1="1018.87" x2="3824.49" y2="1018.87" style="stroke:#EAF2F3;stroke-width:7.34"/>
	<line x1="2147.68" y1="842.15" x2="3824.49" y2="842.15" style="stroke:#EAF2F3;stroke-width:7.34"/>
	<line x1="2147.68" y1="665.42" x2="3824.49" y2="665.42" style="stroke:#EAF2F3;stroke-width:7.34"/>
	<line x1="2147.68" y1="488.83" x2="3824.49" y2="488.83" style="stroke:#EAF2F3;stroke-width:7.34"/>
	<defs>
		<path id="path_IbUKlpSp" d="M455.52 1893.43 L455.52 1893.43 L480.89 1892.57 L506.14 1891.70 L531.51 1890.59 L556.75 1889.47 L582.12 1888.24 L607.37 1886.88 L632.73 1885.39 L657.98 1883.78 L683.35 1882.05 L708.59 1880.19 L733.96 1878.34 L759.21 1876.23 L784.58 1874.13 L809.82 1871.90 L835.19 1869.55 L860.43 1867.20 L885.80 1864.85 L911.05 1862.50 L936.42 1860.14 L961.66 1857.67 L987.03 1855.44 L1012.27 1853.21 L1037.64 1851.11 L1062.89 1849.13 L1088.26 1847.27 L1113.50 1845.54 L1138.87 1843.93 L1164.24 1842.32 L1189.48 1840.84 L1214.85 1839.48 L1240.10 1838.12 L1265.47 1836.75 L1290.71 1835.39 L1316.08 1833.91 L1341.33 1832.42 L1366.69 1830.81 L1391.94 1829.21 L1417.31 1827.23 L1442.55 1825.12 L1467.92 1822.77 L1493.17 1820.05 L1518.54 1817.08 L1543.78 1813.74 L1569.15 1810.02 L1594.39 1805.94 L1619.76 1801.49 L1645.01 1796.66 L1670.38 1791.34 L1695.62 1785.52 L1720.99 1779.21 L1746.24 1772.40 L1771.61 1764.98 L1796.85 1756.93 L1822.22 1748.15 L1847.46 1738.74 L1872.83 1728.59 L1898.20 1717.58 L1923.45 1705.82 L1948.82 1693.08 L1974.06 1679.46 L1999.43 1664.86 L2024.67 1649.27 L2024.67 1615.24 L1999.43 1633.06 L1974.06 1649.76 L1948.82 1665.36 L1923.45 1679.71 L1898.20 1693.08 L1872.83 1705.58 L1847.46 1717.08 L1822.22 1727.73 L1796.85 1737.63 L1771.61 1746.66 L1746.24 1755.08 L1720.99 1762.87 L1695.62 1770.05 L1670.38 1776.61 L1645.01 1782.55 L1619.76 1788.12 L1594.39 1793.19 L1569.15 1797.77 L1543.78 1801.98 L1518.54 1805.82 L1493.17 1809.28 L1467.92 1812.25 L1442.55 1815.10 L1417.31 1817.45 L1391.94 1819.68 L1366.69 1821.53 L1341.33 1823.27 L1316.08 1825.00 L1290.71 1826.48 L1265.47 1827.97 L1240.10 1829.45 L1214.85 1830.94 L1189.48 1832.42 L1164.24 1834.03 L1138.87 1835.64 L1113.50 1837.50 L1088.26 1839.48 L1062.89 1841.46 L1037.64 1843.69 L1012.27 1846.16 L987.03 1848.64 L961.66 1851.36 L936.42 1854.08 L911.05 1856.80 L885.80 1859.53 L860.43 1862.12 L835.19 1864.72 L809.82 1867.20 L784.58 1869.67 L759.21 1872.02 L733.96 1874.13 L708.59 1876.23 L683.35 1878.21 L657.98 1879.94 L632.73 1881.68 L607.37 1883.29 L582.12 1884.65 L556.75 1886.01 L531.51 1887.25 L506.14 1888.48 L480.89 1889.47 L455.52 1890.46 L455.52 1893.43 Z" stroke-linejoin="round"/>
	</defs>
	<defs>
		<clipPath id="clipPath_fAwQgLnQ">
			<use xlink:href="#path_IbUKlpSp"/>
		</clipPath>
	</defs>
	<use xlink:href="#path_IbUKlpSp" style="stroke:none;fill:#E6E6E6"/>
	<use xlink:href="#path_IbUKlpSp" style="fill:none;stroke:#E0E0E0;stroke-width:14.69" clip-path="url(#clipPath_fAwQgLnQ)"/>
	<defs>
		<path id="path_kyZNJXLb" d="M455.52 1892.57 L455.52 1892.57 L480.89 1891.70 L506.14 1890.59 L531.51 1889.47 L556.75 1888.24 L582.12 1886.88 L607.37 1885.39 L632.73 1883.78 L657.98 1881.93 L683.35 1880.07 L708.59 1878.09 L733.96 1875.98 L759.21 1873.76 L784.58 1871.41 L809.82 1868.93 L835.19 1866.46 L860.43 1863.86 L885.80 1861.26 L911.05 1858.66 L936.42 1856.06 L961.66 1853.46 L987.03 1850.86 L1012.27 1848.51 L1037.64 1846.16 L1062.89 1843.93 L1088.26 1841.95 L1113.50 1839.97 L1138.87 1838.24 L1164.24 1836.51 L1189.48 1834.90 L1214.85 1833.29 L1240.10 1831.68 L1265.47 1830.20 L1290.71 1828.71 L1316.08 1827.10 L1341.33 1825.49 L1366.69 1823.64 L1391.94 1821.78 L1417.31 1819.68 L1442.55 1817.33 L1467.92 1814.60 L1493.17 1811.63 L1518.54 1808.29 L1543.78 1804.58 L1569.15 1800.62 L1594.39 1796.04 L1619.76 1791.09 L1645.01 1785.77 L1670.38 1779.83 L1695.62 1773.52 L1720.99 1766.46 L1746.24 1758.91 L1771.61 1750.62 L1796.85 1741.71 L1822.22 1732.06 L1847.46 1721.66 L1872.83 1710.40 L1898.20 1698.27 L1923.45 1685.16 L1948.82 1671.05 L1974.06 1656.07 L1999.43 1639.86 L2024.67 1622.54 L2024.67 1586.52 L1999.43 1606.20 L1974.06 1624.52 L1948.82 1641.47 L1923.45 1657.31 L1898.20 1672.04 L1872.83 1685.78 L1847.46 1698.40 L1822.22 1710.15 L1796.85 1720.92 L1771.61 1730.95 L1746.24 1740.23 L1720.99 1748.64 L1695.62 1756.56 L1670.38 1763.74 L1645.01 1770.30 L1619.76 1776.49 L1594.39 1781.93 L1569.15 1787.01 L1543.78 1791.58 L1518.54 1795.79 L1493.17 1799.63 L1467.92 1802.97 L1442.55 1805.94 L1417.31 1808.54 L1391.94 1810.89 L1366.69 1813.12 L1341.33 1814.97 L1316.08 1816.71 L1290.71 1818.44 L1265.47 1820.05 L1240.10 1821.66 L1214.85 1823.27 L1189.48 1824.87 L1164.24 1826.73 L1138.87 1828.46 L1113.50 1830.44 L1088.26 1832.67 L1062.89 1834.90 L1037.64 1837.37 L1012.27 1839.97 L987.03 1842.82 L961.66 1845.79 L936.42 1848.76 L911.05 1851.73 L885.80 1854.82 L860.43 1857.67 L835.19 1860.64 L809.82 1863.49 L784.58 1866.08 L759.21 1868.68 L733.96 1871.03 L708.59 1873.39 L683.35 1875.49 L657.98 1877.59 L632.73 1879.45 L607.37 1881.18 L582.12 1882.79 L556.75 1884.28 L531.51 1885.64 L506.14 1887.00 L480.89 1888.11 L455.52 1889.23 L455.52 1892.57 Z" stroke-linejoin="round"/>
	</defs>
	<defs>
		<clipPath id="clipPath_HROutIBf">
			<use xlink:href="#path_kyZNJXLb"/>
		</clipPath>
	</defs>
	<use xlink:href="#path_kyZNJXLb" style="stroke:none;fill:#E6E6E6"/>
	<use xlink:href="#path_kyZNJXLb" style="fill:none;stroke:#E0E0E0;stroke-width:14.69" clip-path="url(#clipPath_HROutIBf)"/>
	<defs>
		<path id="path_kjpRuDFw" d="M455.52 1890.71 L455.52 1890.71 L480.89 1889.60 L506.14 1888.36 L531.51 1887.00 L556.75 1885.51 L582.12 1883.91 L607.37 1882.05 L632.73 1880.19 L657.98 1878.09 L683.35 1875.86 L708.59 1873.51 L733.96 1871.03 L759.21 1868.31 L784.58 1865.59 L809.82 1862.62 L835.19 1859.65 L860.43 1856.68 L885.80 1853.46 L911.05 1850.37 L936.42 1847.27 L961.66 1844.18 L987.03 1841.21 L1012.27 1838.36 L1037.64 1835.64 L1062.89 1833.04 L1088.26 1830.57 L1113.50 1828.34 L1138.87 1826.24 L1164.24 1824.13 L1189.48 1822.28 L1214.85 1820.42 L1240.10 1818.56 L1265.47 1816.83 L1290.71 1815.10 L1316.08 1813.24 L1341.33 1811.26 L1366.69 1809.16 L1391.94 1806.93 L1417.31 1804.46 L1442.55 1801.73 L1467.92 1798.51 L1493.17 1795.05 L1518.54 1791.09 L1543.78 1786.76 L1569.15 1781.93 L1594.39 1776.61 L1619.76 1770.79 L1645.01 1764.48 L1670.38 1757.55 L1695.62 1750.00 L1720.99 1741.71 L1746.24 1732.68 L1771.61 1723.03 L1796.85 1712.51 L1822.22 1701.00 L1847.46 1688.75 L1872.83 1675.38 L1898.20 1661.02 L1923.45 1645.56 L1948.82 1628.97 L1974.06 1611.15 L1999.43 1592.09 L2024.67 1571.55 L2024.67 1522.67 L1999.43 1546.30 L1974.06 1568.33 L1948.82 1588.75 L1923.45 1607.81 L1898.20 1625.51 L1872.83 1641.97 L1847.46 1657.19 L1822.22 1671.17 L1796.85 1684.29 L1771.61 1696.29 L1746.24 1707.43 L1720.99 1717.58 L1695.62 1727.11 L1670.38 1735.77 L1645.01 1743.69 L1619.76 1750.99 L1594.39 1757.68 L1569.15 1763.74 L1543.78 1769.31 L1518.54 1774.38 L1493.17 1778.96 L1467.92 1782.92 L1442.55 1786.63 L1417.31 1789.85 L1391.94 1792.57 L1366.69 1795.17 L1341.33 1797.52 L1316.08 1799.63 L1290.71 1801.73 L1265.47 1803.71 L1240.10 1805.57 L1214.85 1807.55 L1189.48 1809.65 L1164.24 1811.76 L1138.87 1813.98 L1113.50 1816.34 L1088.26 1818.93 L1062.89 1821.66 L1037.64 1824.63 L1012.27 1827.84 L987.03 1831.19 L961.66 1834.65 L936.42 1838.24 L911.05 1841.83 L885.80 1845.54 L860.43 1849.01 L835.19 1852.47 L809.82 1855.81 L784.58 1859.03 L759.21 1862.12 L733.96 1865.09 L708.59 1867.82 L683.35 1870.29 L657.98 1872.77 L632.73 1874.99 L607.37 1877.10 L582.12 1879.08 L556.75 1880.81 L531.51 1882.42 L506.14 1884.03 L480.89 1885.39 L455.52 1886.63 L455.52 1890.71 Z" stroke-linejoin="round"/>
	</defs>
	<defs>
		<clipPath id="clipPath_GBYxSeEq">
			<use xlink:href="#path_kjpRuDFw"/>
		</clipPath>
	</defs>
	<use xlink:href="#path_kjpRuDFw" style="stroke:none;fill:#E6E6E6"/>
	<use xlink:href="#path_kjpRuDFw" style="fill:none;stroke:#E0E0E0;stroke-width:14.69" clip-path="url(#clipPath_GBYxSeEq)"/>
	<defs>
		<path id="path_hdMLyJdS" d="M455.52 1890.34 L455.52 1890.34 L480.89 1889.10 L506.14 1887.87 L531.51 1886.38 L556.75 1884.90 L582.12 1883.16 L607.37 1881.31 L632.73 1879.33 L657.98 1877.10 L683.35 1874.87 L708.59 1872.40 L733.96 1869.80 L759.21 1867.07 L784.58 1864.10 L809.82 1861.13 L835.19 1858.04 L860.43 1854.82 L885.80 1851.61 L911.05 1848.39 L936.42 1845.17 L961.66 1841.95 L987.03 1838.86 L1012.27 1835.89 L1037.64 1833.04 L1062.89 1830.32 L1088.26 1827.84 L1113.50 1825.49 L1138.87 1823.27 L1164.24 1821.16 L1189.48 1819.18 L1214.85 1817.20 L1240.10 1815.35 L1265.47 1813.49 L1290.71 1811.63 L1316.08 1809.65 L1341.33 1807.67 L1366.69 1805.45 L1391.94 1803.09 L1417.31 1800.62 L1442.55 1797.65 L1467.92 1794.43 L1493.17 1790.72 L1518.54 1786.63 L1543.78 1782.18 L1569.15 1777.11 L1594.39 1771.66 L1619.76 1765.60 L1645.01 1758.91 L1670.38 1751.74 L1695.62 1743.82 L1720.99 1735.28 L1746.24 1726.00 L1771.61 1715.85 L1796.85 1704.96 L1822.22 1693.08 L1847.46 1680.33 L1872.83 1666.47 L1898.20 1651.62 L1923.45 1635.53 L1948.82 1618.33 L1974.06 1599.89 L1999.43 1579.97 L2024.67 1558.80 L2024.67 1506.46 L1999.43 1531.08 L1974.06 1554.10 L1948.82 1575.51 L1923.45 1595.31 L1898.20 1613.75 L1872.83 1630.95 L1847.46 1646.79 L1822.22 1661.52 L1796.85 1675.13 L1771.61 1687.63 L1746.24 1699.26 L1720.99 1709.91 L1695.62 1719.81 L1670.38 1728.84 L1645.01 1737.13 L1619.76 1744.81 L1594.39 1751.74 L1569.15 1758.05 L1543.78 1763.86 L1518.54 1769.06 L1493.17 1773.76 L1467.92 1777.97 L1442.55 1781.81 L1417.31 1785.15 L1391.94 1788.12 L1366.69 1790.72 L1341.33 1793.19 L1316.08 1795.42 L1290.71 1797.52 L1265.47 1799.50 L1240.10 1801.61 L1214.85 1803.59 L1189.48 1805.69 L1164.24 1807.92 L1138.87 1810.15 L1113.50 1812.75 L1088.26 1815.35 L1062.89 1818.19 L1037.64 1821.29 L1012.27 1824.63 L987.03 1828.09 L961.66 1831.80 L936.42 1835.52 L911.05 1839.23 L885.80 1843.07 L860.43 1846.78 L835.19 1850.37 L809.82 1853.83 L784.58 1857.17 L759.21 1860.39 L733.96 1863.49 L708.59 1866.33 L683.35 1868.93 L657.98 1871.53 L632.73 1873.88 L607.37 1875.98 L582.12 1878.09 L556.75 1879.94 L531.51 1881.68 L506.14 1883.16 L480.89 1884.65 L455.52 1886.01 L455.52 1890.34 Z" stroke-linejoin="round"/>
	</defs>
	<defs>
		<clipPath id="clipPath_wPdqQxkq">
			<use xlink:href="#path_hdMLyJdS"/>
		</clipPath>
	</defs>
	<use xlink:href="#path_hdMLyJdS" style="stroke:none;fill:#E6E6E6"/>
	<use xlink:href="#path_hdMLyJdS" style="fill:none;stroke:#E0E0E0;stroke-width:14.69" clip-path="url(#clipPath_wPdqQxkq)"/>
	<defs>
		<path id="path_oocsiLqI" d="M455.52 1884.90 L455.52 1884.90 L480.89 1883.16 L506.14 1881.31 L531.51 1879.20 L556.75 1876.97 L582.12 1874.50 L607.37 1871.78 L632.73 1868.93 L657.98 1865.84 L683.35 1862.50 L708.59 1858.91 L733.96 1855.07 L759.21 1851.11 L784.58 1846.90 L809.82 1842.57 L835.19 1838.12 L860.43 1833.54 L885.80 1828.83 L911.05 1824.13 L936.42 1819.43 L961.66 1814.85 L987.03 1810.27 L1012.27 1805.94 L1037.64 1801.86 L1062.89 1798.02 L1088.26 1794.31 L1113.50 1790.84 L1138.87 1787.62 L1164.24 1784.65 L1189.48 1781.68 L1214.85 1778.96 L1240.10 1776.24 L1265.47 1773.52 L1290.71 1770.79 L1316.08 1767.95 L1341.33 1765.10 L1366.69 1762.01 L1391.94 1758.54 L1417.31 1754.83 L1442.55 1750.62 L1467.92 1745.92 L1493.17 1740.60 L1518.54 1734.66 L1543.78 1728.10 L1569.15 1720.92 L1594.39 1712.88 L1619.76 1704.09 L1645.01 1694.56 L1670.38 1684.17 L1695.62 1672.66 L1720.99 1660.28 L1746.24 1646.79 L1771.61 1632.19 L1796.85 1616.35 L1822.22 1599.27 L1847.46 1580.71 L1872.83 1560.78 L1898.20 1539.25 L1923.45 1516.11 L1948.82 1491.11 L1974.06 1464.38 L1999.43 1435.79 L2024.67 1405.10 L2024.67 1322.43 L1999.43 1358.57 L1974.06 1392.23 L1948.82 1423.54 L1923.45 1452.75 L1898.20 1479.72 L1872.83 1504.85 L1847.46 1528.11 L1822.22 1549.65 L1796.85 1569.57 L1771.61 1588.01 L1746.24 1605.09 L1720.99 1620.68 L1695.62 1635.16 L1670.38 1648.40 L1645.01 1660.53 L1619.76 1671.67 L1594.39 1681.94 L1569.15 1691.22 L1543.78 1699.64 L1518.54 1707.31 L1493.17 1714.24 L1467.92 1720.43 L1442.55 1725.87 L1417.31 1730.82 L1391.94 1735.15 L1366.69 1738.99 L1341.33 1742.58 L1316.08 1745.80 L1290.71 1748.89 L1265.47 1751.86 L1240.10 1754.83 L1214.85 1757.80 L1189.48 1760.89 L1164.24 1764.11 L1138.87 1767.58 L1113.50 1771.17 L1088.26 1775.13 L1062.89 1779.33 L1037.64 1783.79 L1012.27 1788.61 L987.03 1793.81 L961.66 1799.13 L936.42 1804.58 L911.05 1810.02 L885.80 1815.59 L860.43 1821.04 L835.19 1826.36 L809.82 1831.43 L784.58 1836.38 L759.21 1841.09 L733.96 1845.42 L708.59 1849.63 L683.35 1853.59 L657.98 1857.30 L632.73 1860.76 L607.37 1863.86 L582.12 1866.83 L556.75 1869.55 L531.51 1872.15 L506.14 1874.38 L480.89 1876.60 L455.52 1878.58 L455.52 1884.90 Z" stroke-linejoin="round"/>
	</defs>
	<defs>
		<clipPath id="clipPath_MNcPsCmT">
			<use xlink:href="#path_oocsiLqI"/>
		</clipPath>
	</defs>
	<use xlink:href="#path_oocsiLqI" style="stroke:none;fill:#E6E6E6"/>
	<use xlink:href="#path_oocsiLqI" style="fill:none;stroke:#E0E0E0;stroke-width:14.69" clip-path="url(#clipPath_MNcPsCmT)"/>
	<defs>
		<path id="path_jlMFisvI" d="M455.52 1886.50 L455.52 1886.50 L480.89 1884.90 L506.14 1883.29 L531.51 1881.43 L556.75 1879.33 L582.12 1877.10 L607.37 1874.75 L632.73 1872.15 L657.98 1869.30 L683.35 1866.33 L708.59 1863.11 L733.96 1859.65 L759.21 1856.06 L784.58 1852.35 L809.82 1848.39 L835.19 1844.43 L860.43 1840.22 L885.80 1836.01 L911.05 1831.80 L936.42 1827.60 L961.66 1823.39 L987.03 1819.31 L1012.27 1815.35 L1037.64 1811.63 L1062.89 1808.17 L1088.26 1804.83 L1113.50 1801.86 L1138.87 1798.89 L1164.24 1796.16 L1189.48 1793.56 L1214.85 1791.09 L1240.10 1788.61 L1265.47 1786.26 L1290.71 1783.79 L1316.08 1781.31 L1341.33 1778.71 L1366.69 1775.99 L1391.94 1772.90 L1417.31 1769.56 L1442.55 1765.72 L1467.92 1761.51 L1493.17 1756.69 L1518.54 1751.36 L1543.78 1745.42 L1569.15 1738.99 L1594.39 1731.81 L1619.76 1723.89 L1645.01 1715.23 L1670.38 1705.82 L1695.62 1695.55 L1720.99 1684.41 L1746.24 1672.29 L1771.61 1659.04 L1796.85 1644.81 L1822.22 1629.34 L1847.46 1612.64 L1872.83 1594.57 L1898.20 1575.26 L1923.45 1554.35 L1948.82 1531.83 L1974.06 1507.69 L1999.43 1481.71 L2024.67 1453.98 L2024.67 1359.44 L1999.43 1393.22 L1974.06 1424.65 L1948.82 1453.98 L1923.45 1481.21 L1898.20 1506.46 L1872.83 1529.97 L1847.46 1551.75 L1822.22 1571.92 L1796.85 1590.61 L1771.61 1607.81 L1746.24 1623.77 L1720.99 1638.38 L1695.62 1651.87 L1670.38 1664.37 L1645.01 1675.75 L1619.76 1686.15 L1594.39 1695.68 L1569.15 1704.46 L1543.78 1712.38 L1518.54 1719.56 L1493.17 1726.00 L1467.92 1731.81 L1442.55 1737.01 L1417.31 1741.59 L1391.94 1745.67 L1366.69 1749.26 L1341.33 1752.60 L1316.08 1755.70 L1290.71 1758.67 L1265.47 1761.51 L1240.10 1764.24 L1214.85 1767.08 L1189.48 1769.93 L1164.24 1773.02 L1138.87 1776.24 L1113.50 1779.58 L1088.26 1783.29 L1062.89 1787.25 L1037.64 1791.46 L1012.27 1796.04 L987.03 1800.74 L961.66 1805.82 L936.42 1810.89 L911.05 1816.09 L885.80 1821.16 L860.43 1826.24 L835.19 1831.19 L809.82 1836.01 L784.58 1840.59 L759.21 1845.05 L733.96 1849.25 L708.59 1853.09 L683.35 1856.80 L657.98 1860.27 L632.73 1863.49 L607.37 1866.58 L582.12 1869.30 L556.75 1871.90 L531.51 1874.25 L506.14 1876.36 L480.89 1878.34 L455.52 1880.19 L455.52 1886.50 Z" stroke-linejoin="round"/>
	</defs>
	<defs>
		<clipPath id="clipPath_tXwcTqjv">
			<use xlink:href="#path_jlMFisvI"/>
		</clipPath>
	</defs>
	<use xlink:href="#path_jlMFisvI" style="stroke:none;fill:#E6E6E6"/>
	<use xlink:href="#path_jlMFisvI" style="fill:none;stroke:#E0E0E0;stroke-width:14.69" clip-path="url(#clipPath_tXwcTqjv)"/>
	<path d=" M455.52 1891.08 L480.77 1890.09 L506.14 1888.98 L531.38 1887.74 L556.75 1886.38 L582.00 1885.02 L607.37 1883.41 L632.61 1881.80 L657.98 1879.94 L683.22 1877.96 L708.59 1875.86 L733.84 1873.76 L759.21 1871.41 L784.45 1868.93 L809.82 1866.33 L835.07 1863.73 L860.43 1861.01 L885.68 1858.16 L911.05 1855.44 L936.29 1852.60 L961.66 1849.75 L986.91 1847.03 L1012.27 1844.43 L1037.52 1841.95 L1062.89 1839.72 L1088.13 1837.50 L1113.50 1835.52 L1138.87 1833.54 L1164.12 1831.80 L1189.48 1830.07 L1214.73 1828.46 L1240.10 1826.98 L1265.34 1825.37 L1290.71 1823.76 L1315.96 1822.15 L1341.33 1820.42 L1366.57 1818.56 L1391.94 1816.58 L1417.18 1814.36 L1442.55 1811.88 L1467.80 1809.03 L1493.17 1805.82 L1518.41 1802.35 L1543.78 1798.39 L1569.03 1794.06 L1594.39 1789.36 L1619.64 1784.04 L1645.01 1778.34 L1670.25 1772.16 L1695.62 1765.35 L1720.87 1757.92 L1746.24 1749.88 L1771.48 1741.09 L1796.85 1731.69 L1822.10 1721.42 L1847.46 1710.40 L1872.71 1698.52 L1898.08 1685.65 L1923.45 1671.79 L1948.69 1656.82 L1974.06 1640.73 L1999.31 1623.65 L2024.67 1605.21" stroke-linejoin="round" style="fill:none;stroke:#FF0000;stroke-width:7.34"/>
	<path d=" M455.52 1888.98 L480.77 1887.74 L506.14 1886.38 L531.38 1884.90 L556.75 1883.41 L582.00 1881.68 L607.37 1879.82 L632.61 1877.84 L657.98 1875.61 L683.22 1873.26 L708.59 1870.79 L733.84 1868.19 L759.21 1865.47 L784.45 1862.50 L809.82 1859.40 L835.07 1856.31 L860.43 1853.09 L885.68 1849.75 L911.05 1846.41 L936.29 1843.07 L961.66 1839.72 L986.91 1836.38 L1012.27 1833.29 L1037.52 1830.44 L1062.89 1827.60 L1088.13 1825.00 L1113.50 1822.65 L1138.87 1820.42 L1164.12 1818.19 L1189.48 1816.21 L1214.73 1814.36 L1240.10 1812.38 L1265.34 1810.52 L1290.71 1808.66 L1315.96 1806.68 L1341.33 1804.70 L1366.57 1802.48 L1391.94 1800.12 L1417.18 1797.40 L1442.55 1794.43 L1467.80 1791.09 L1493.17 1787.38 L1518.41 1783.05 L1543.78 1778.47 L1569.03 1773.27 L1594.39 1767.58 L1619.64 1761.39 L1645.01 1754.58 L1670.25 1747.03 L1695.62 1738.99 L1720.87 1730.20 L1746.24 1720.55 L1771.48 1710.15 L1796.85 1698.89 L1822.10 1686.77 L1847.46 1673.52 L1872.71 1659.29 L1898.08 1643.95 L1923.45 1627.36 L1948.69 1609.67 L1974.06 1590.48 L1999.31 1570.07 L2024.67 1548.04" stroke-linejoin="round" style="fill:none;stroke:#008000;stroke-width:7.34"/>
	<path d=" M455.52 1888.36 L480.77 1887.12 L506.14 1885.76 L531.38 1884.28 L556.75 1882.54 L582.00 1880.81 L607.37 1878.83 L632.61 1876.73 L657.98 1874.50 L683.22 1872.15 L708.59 1869.55 L733.84 1866.83 L759.21 1863.86 L784.45 1860.89 L809.82 1857.67 L835.07 1854.45 L860.43 1850.99 L885.68 1847.52 L911.05 1844.06 L936.29 1840.59 L961.66 1837.13 L986.91 1833.78 L1012.27 1830.57 L1037.52 1827.47 L1062.89 1824.63 L1088.13 1821.90 L1113.50 1819.43 L1138.87 1817.08 L1164.12 1814.85 L1189.48 1812.75 L1214.73 1810.77 L1240.10 1808.79 L1265.34 1806.81 L1290.71 1804.83 L1315.96 1802.85 L1341.33 1800.74 L1366.57 1798.39 L1391.94 1795.92 L1417.18 1793.19 L1442.55 1790.10 L1467.80 1786.51 L1493.17 1782.67 L1518.41 1778.22 L1543.78 1773.39 L1569.03 1767.95 L1594.39 1762.13 L1619.64 1755.57 L1645.01 1748.52 L1670.25 1740.72 L1695.62 1732.31 L1720.87 1723.15 L1746.24 1713.12 L1771.48 1702.36 L1796.85 1690.60 L1822.10 1677.98 L1847.46 1664.24 L1872.71 1649.39 L1898.08 1633.43 L1923.45 1616.23 L1948.69 1597.66 L1974.06 1577.86 L1999.31 1556.45 L2024.67 1533.68" stroke-linejoin="round" style="fill:none;stroke:#FFD200;stroke-width:7.34"/>
	<path d=" M455.52 1882.05 L480.77 1880.19 L506.14 1878.21 L531.38 1875.98 L556.75 1873.63 L582.00 1871.03 L607.37 1868.19 L632.61 1865.09 L657.98 1861.88 L683.22 1858.29 L708.59 1854.58 L733.84 1850.62 L759.21 1846.41 L784.45 1841.95 L809.82 1837.37 L835.07 1832.55 L860.43 1827.60 L885.68 1822.52 L911.05 1817.45 L936.29 1812.38 L961.66 1807.30 L986.91 1802.48 L1012.27 1797.77 L1037.52 1793.32 L1062.89 1789.11 L1088.13 1785.15 L1113.50 1781.44 L1138.87 1778.10 L1164.12 1774.88 L1189.48 1771.78 L1214.73 1768.81 L1240.10 1765.97 L1265.34 1763.25 L1290.71 1760.40 L1315.96 1757.43 L1341.33 1754.33 L1366.57 1750.99 L1391.94 1747.40 L1417.18 1743.32 L1442.55 1738.87 L1467.80 1733.67 L1493.17 1727.98 L1518.41 1721.54 L1543.78 1714.49 L1569.03 1706.69 L1594.39 1698.03 L1619.64 1688.62 L1645.01 1678.23 L1670.25 1666.96 L1695.62 1654.71 L1720.87 1641.35 L1746.24 1626.74 L1771.48 1611.03 L1796.85 1593.95 L1822.10 1575.51 L1847.46 1555.46 L1872.71 1533.93 L1898.08 1510.66 L1923.45 1485.67 L1948.69 1458.69 L1974.06 1429.73 L1999.31 1398.67 L2024.67 1365.38" stroke-linejoin="round" style="fill:none;stroke:#FF7F00;stroke-width:7.34"/>
	<path d=" M455.52 1883.66 L480.77 1881.93 L506.14 1880.19 L531.38 1878.09 L556.75 1875.86 L582.00 1873.51 L607.37 1870.91 L632.61 1868.19 L657.98 1865.09 L683.22 1861.88 L708.59 1858.41 L733.84 1854.82 L759.21 1850.86 L784.45 1846.90 L809.82 1842.57 L835.07 1838.24 L860.43 1833.66 L885.68 1829.08 L911.05 1824.38 L936.29 1819.68 L961.66 1815.10 L986.91 1810.52 L1012.27 1806.19 L1037.52 1802.10 L1062.89 1798.27 L1088.13 1794.68 L1113.50 1791.34 L1138.87 1788.12 L1164.12 1785.27 L1189.48 1782.43 L1214.73 1779.70 L1240.10 1777.11 L1265.34 1774.51 L1290.71 1771.91 L1315.96 1769.19 L1341.33 1766.34 L1366.57 1763.37 L1391.94 1760.03 L1417.18 1756.31 L1442.55 1752.11 L1467.80 1747.40 L1493.17 1742.21 L1518.41 1736.27 L1543.78 1729.83 L1569.03 1722.53 L1594.39 1714.61 L1619.64 1705.95 L1645.01 1696.54 L1670.25 1686.15 L1695.62 1674.88 L1720.87 1662.51 L1746.24 1649.14 L1771.48 1634.66 L1796.85 1619.07 L1822.10 1602.12 L1847.46 1583.68 L1872.71 1563.88 L1898.08 1542.59 L1923.45 1519.57 L1948.69 1494.82 L1974.06 1468.22 L1999.31 1439.63 L2024.67 1409.06" stroke-linejoin="round" style="fill:none;stroke:#9C8847;stroke-width:7.34"/>
	<path d=" M455.52 1892.20 L480.77 1891.21 L506.14 1890.22 L531.38 1889.10 L556.75 1887.87 L582.00 1886.63 L607.37 1885.14 L632.61 1883.66 L657.98 1882.05 L683.22 1880.32 L708.59 1878.34 L733.84 1876.36 L759.21 1874.25 L784.45 1872.02 L809.82 1869.67 L835.07 1867.32 L860.43 1864.85 L885.68 1862.37 L911.05 1859.77 L936.29 1857.17 L961.66 1854.70 L986.91 1852.22 L1012.27 1849.87 L1037.52 1847.65 L1062.89 1845.54 L1088.13 1843.56 L1113.50 1841.71 L1138.87 1839.97 L1164.12 1838.36 L1189.48 1836.88 L1214.73 1835.39 L1240.10 1833.91 L1265.34 1832.55 L1290.71 1831.06 L1315.96 1829.58 L1341.33 1828.09 L1366.57 1826.36 L1391.94 1824.63 L1417.18 1822.52 L1442.55 1820.30 L1467.80 1817.70 L1493.17 1814.85 L1518.41 1811.63 L1543.78 1808.04 L1569.03 1804.21 L1594.39 1799.88 L1619.64 1795.05 L1645.01 1789.98 L1670.25 1784.28 L1695.62 1778.10 L1720.87 1771.41 L1746.24 1764.11 L1771.48 1756.19 L1796.85 1747.65 L1822.10 1738.37 L1847.46 1728.35 L1872.71 1717.46 L1898.08 1705.82 L1923.45 1693.20 L1948.69 1679.71 L1974.06 1665.11 L1999.31 1649.52 L2024.67 1632.81" stroke-linejoin="round" style="fill:none;stroke:#1A476F;stroke-width:7.34"/>
	<line x1="455.52" y1="1789.98" x2="458.37" y2="1789.98" style="stroke:#000000;stroke-width:7.34"/>
	<line x1="478.54" y1="1789.98" x2="480.77" y2="1789.98" style="stroke:#000000;stroke-width:7.34"/>
	<line x1="480.77" y1="1789.98" x2="481.39" y2="1789.98" style="stroke:#000000;stroke-width:7.34"/>
	<line x1="501.56" y1="1789.98" x2="504.40" y2="1789.98" style="stroke:#000000;stroke-width:7.34"/>
	<line x1="524.58" y1="1789.98" x2="527.42" y2="1789.98" style="stroke:#000000;stroke-width:7.34"/>
	<line x1="547.59" y1="1789.98" x2="550.44" y2="1789.98" style="stroke:#000000;stroke-width:7.34"/>
	<line x1="570.61" y1="1789.98" x2="573.58" y2="1789.98" style="stroke:#000000;stroke-width:7.34"/>
	<line x1="593.75" y1="1789.98" x2="596.60" y2="1789.98" style="stroke:#000000;stroke-width:7.34"/>
	<line x1="616.77" y1="1789.98" x2="619.62" y2="1789.98" style="stroke:#000000;stroke-width:7.34"/>
	<line x1="639.79" y1="1789.98" x2="642.63" y2="1789.98" style="stroke:#000000;stroke-width:7.34"/>
	<line x1="662.80" y1="1789.98" x2="665.65" y2="1789.98" style="stroke:#000000;stroke-width:7.34"/>
	<line x1="685.82" y1="1789.98" x2="688.67" y2="1789.98" style="stroke:#000000;stroke-width:7.34"/>
	<line x1="708.84" y1="1789.98" x2="711.69" y2="1789.98" style="stroke:#000000;stroke-width:7.34"/>
	<line x1="731.86" y1="1789.98" x2="733.84" y2="1789.98" style="stroke:#000000;stroke-width:7.34"/>
	<line x1="733.84" y1="1789.98" x2="734.70" y2="1789.98" style="stroke:#000000;stroke-width:7.34"/>
	<line x1="754.88" y1="1789.98" x2="757.72" y2="1789.98" style="stroke:#000000;stroke-width:7.34"/>
	<line x1="777.89" y1="1789.98" x2="780.74" y2="1789.98" style="stroke:#000000;stroke-width:7.34"/>
	<line x1="800.91" y1="1789.98" x2="803.88" y2="1789.98" style="stroke:#000000;stroke-width:7.34"/>
	<line x1="823.93" y1="1789.98" x2="826.90" y2="1789.98" style="stroke:#000000;stroke-width:7.34"/>
	<line x1="847.07" y1="1789.98" x2="849.91" y2="1789.98" style="stroke:#000000;stroke-width:7.34"/>
	<line x1="870.09" y1="1789.98" x2="872.93" y2="1789.98" style="stroke:#000000;stroke-width:7.34"/>
	<line x1="893.10" y1="1789.98" x2="895.95" y2="1789.98" style="stroke:#000000;stroke-width:7.34"/>
	<line x1="916.12" y1="1789.98" x2="918.97" y2="1789.98" style="stroke:#000000;stroke-width:7.34"/>
	<line x1="939.14" y1="1789.98" x2="941.99" y2="1789.98" style="stroke:#000000;stroke-width:7.34"/>
	<line x1="962.16" y1="1789.98" x2="965.00" y2="1789.98" style="stroke:#000000;stroke-width:7.34"/>
	<line x1="985.17" y1="1789.98" x2="986.91" y2="1789.98" style="stroke:#000000;stroke-width:7.34"/>
	<line x1="986.91" y1="1789.98" x2="988.02" y2="1789.98" style="stroke:#000000;stroke-width:7.34"/>
	<line x1="1008.19" y1="1789.98" x2="1011.04" y2="1789.98" style="stroke:#000000;stroke-width:7.34"/>
	<line x1="1031.21" y1="1789.98" x2="1034.06" y2="1789.98" style="stroke:#000000;stroke-width:7.34"/>
	<line x1="1054.23" y1="1789.98" x2="1057.20" y2="1789.98" style="stroke:#000000;stroke-width:7.34"/>
	<line x1="1077.24" y1="1789.98" x2="1080.21" y2="1789.98" style="stroke:#000000;stroke-width:7.34"/>
	<line x1="1100.38" y1="1789.98" x2="1103.23" y2="1789.98" style="stroke:#000000;stroke-width:7.34"/>
	<line x1="1123.40" y1="1789.98" x2="1126.25" y2="1789.98" style="stroke:#000000;stroke-width:7.34"/>
	<line x1="1146.42" y1="1789.98" x2="1149.27" y2="1789.98" style="stroke:#000000;stroke-width:7.34"/>
	<line x1="1169.44" y1="1789.98" x2="1172.28" y2="1789.98" style="stroke:#000000;stroke-width:7.34"/>
	<line x1="1192.45" y1="1789.98" x2="1195.30" y2="1789.98" style="stroke:#000000;stroke-width:7.34"/>
	<line x1="1215.47" y1="1789.98" x2="1218.32" y2="1789.98" style="stroke:#000000;stroke-width:7.34"/>
	<line x1="1238.49" y1="1789.98" x2="1240.10" y2="1789.98" style="stroke:#000000;stroke-width:7.34"/>
	<line x1="1240.10" y1="1789.98" x2="1241.34" y2="1789.98" style="stroke:#000000;stroke-width:7.34"/>
	<line x1="1261.51" y1="1789.98" x2="1264.35" y2="1789.98" style="stroke:#000000;stroke-width:7.34"/>
	<line x1="1284.53" y1="1789.98" x2="1287.37" y2="1789.98" style="stroke:#000000;stroke-width:7.34"/>
	<line x1="1307.54" y1="1789.98" x2="1310.51" y2="1789.98" style="stroke:#000000;stroke-width:7.34"/>
	<line x1="1330.56" y1="1789.98" x2="1333.53" y2="1789.98" style="stroke:#000000;stroke-width:7.34"/>
	<line x1="1353.70" y1="1789.98" x2="1356.55" y2="1789.98" style="stroke:#000000;stroke-width:7.34"/>
	<line x1="1376.72" y1="1789.98" x2="1379.57" y2="1789.98" style="stroke:#000000;stroke-width:7.34"/>
	<line x1="1399.74" y1="1789.98" x2="1402.58" y2="1789.98" style="stroke:#000000;stroke-width:7.34"/>
	<line x1="1422.75" y1="1789.98" x2="1425.60" y2="1789.98" style="stroke:#000000;stroke-width:7.34"/>
	<line x1="1445.77" y1="1789.98" x2="1448.62" y2="1789.98" style="stroke:#000000;stroke-width:7.34"/>
	<line x1="1468.79" y1="1789.98" x2="1471.63" y2="1789.98" style="stroke:#000000;stroke-width:7.34"/>
	<line x1="1491.81" y1="1789.98" x2="1493.17" y2="1789.98" style="stroke:#000000;stroke-width:7.34"/>
	<line x1="1493.17" y1="1789.98" x2="1494.65" y2="1789.98" style="stroke:#000000;stroke-width:7.34"/>
	<line x1="1514.82" y1="1789.98" x2="1517.67" y2="1789.98" style="stroke:#000000;stroke-width:7.34"/>
	<line x1="1537.84" y1="1789.98" x2="1540.69" y2="1789.98" style="stroke:#000000;stroke-width:7.34"/>
	<line x1="1560.86" y1="1789.98" x2="1563.83" y2="1789.98" style="stroke:#000000;stroke-width:7.34"/>
	<line x1="1584.00" y1="1789.98" x2="1586.85" y2="1789.98" style="stroke:#000000;stroke-width:7.34"/>
	<line x1="1607.02" y1="1789.98" x2="1609.86" y2="1789.98" style="stroke:#000000;stroke-width:7.34"/>
	<line x1="1630.04" y1="1789.98" x2="1632.88" y2="1789.98" style="stroke:#000000;stroke-width:7.34"/>
	<line x1="1653.05" y1="1789.98" x2="1655.90" y2="1789.98" style="stroke:#000000;stroke-width:7.34"/>
	<line x1="1676.07" y1="1789.98" x2="1678.92" y2="1789.98" style="stroke:#000000;stroke-width:7.34"/>
	<line x1="1699.09" y1="1789.98" x2="1701.93" y2="1789.98" style="stroke:#000000;stroke-width:7.34"/>
	<line x1="1722.11" y1="1789.98" x2="1724.95" y2="1789.98" style="stroke:#000000;stroke-width:7.34"/>
	<line x1="1745.12" y1="1789.98" x2="1746.24" y2="1789.98" style="stroke:#000000;stroke-width:7.34"/>
	<line x1="1746.24" y1="1789.98" x2="1747.97" y2="1789.98" style="stroke:#000000;stroke-width:7.34"/>
	<line x1="1768.14" y1="1789.98" x2="1770.99" y2="1789.98" style="stroke:#000000;stroke-width:7.34"/>
	<line x1="1791.16" y1="1789.98" x2="1794.00" y2="1789.98" style="stroke:#000000;stroke-width:7.34"/>
	<line x1="1814.17" y1="1789.98" x2="1817.14" y2="1789.98" style="stroke:#000000;stroke-width:7.34"/>
	<line x1="1837.32" y1="1789.98" x2="1840.16" y2="1789.98" style="stroke:#000000;stroke-width:7.34"/>
	<line x1="1860.33" y1="1789.98" x2="1863.18" y2="1789.98" style="stroke:#000000;stroke-width:7.34"/>
	<line x1="1883.35" y1="1789.98" x2="1886.20" y2="1789.98" style="stroke:#000000;stroke-width:7.34"/>
	<line x1="1906.37" y1="1789.98" x2="1909.21" y2="1789.98" style="stroke:#000000;stroke-width:7.34"/>
	<line x1="1929.39" y1="1789.98" x2="1932.23" y2="1789.98" style="stroke:#000000;stroke-width:7.34"/>
	<line x1="1952.40" y1="1789.98" x2="1955.25" y2="1789.98" style="stroke:#000000;stroke-width:7.34"/>
	<line x1="1975.42" y1="1789.98" x2="1978.27" y2="1789.98" style="stroke:#000000;stroke-width:7.34"/>
	<line x1="1998.44" y1="1789.98" x2="1999.31" y2="1789.98" style="stroke:#000000;stroke-width:7.34"/>
	<line x1="1999.31" y1="1789.98" x2="2001.29" y2="1789.98" style="stroke:#000000;stroke-width:7.34"/>
	<line x1="2021.46" y1="1789.98" x2="2024.30" y2="1789.98" style="stroke:#000000;stroke-width:7.34"/>
	<path d="" stroke-linejoin="round" style="fill:none;stroke:#000000;stroke-width:7.34"/>
	<defs>
		<path id="path_uxcTTplE" d="M2201.51 1889.97 L2201.51 1889.97 L2226.88 1888.73 L2252.13 1887.37 L2277.49 1886.01 L2302.74 1884.40 L2328.11 1882.54 L2353.35 1880.69 L2378.72 1878.58 L2403.97 1876.36 L2429.34 1874.00 L2454.58 1871.41 L2479.95 1868.68 L2505.20 1865.84 L2530.56 1862.87 L2555.81 1859.77 L2581.18 1856.56 L2606.42 1853.21 L2631.79 1849.87 L2657.04 1846.53 L2682.41 1843.19 L2707.65 1839.97 L2733.02 1836.75 L2758.26 1833.66 L2783.63 1830.69 L2808.88 1827.97 L2834.25 1825.37 L2859.49 1822.89 L2884.86 1820.54 L2910.11 1818.44 L2935.47 1816.34 L2960.72 1814.36 L2986.09 1812.38 L3011.46 1810.52 L3036.70 1808.54 L3062.07 1806.56 L3087.32 1804.58 L3112.68 1802.35 L3137.93 1799.88 L3163.30 1797.28 L3188.54 1794.31 L3213.91 1790.97 L3239.16 1787.13 L3264.53 1783.05 L3289.77 1778.34 L3315.14 1773.15 L3340.38 1767.58 L3365.75 1761.27 L3391.00 1754.58 L3416.37 1747.03 L3441.61 1738.99 L3466.98 1730.20 L3492.22 1720.55 L3517.59 1710.15 L3542.84 1698.89 L3568.21 1686.77 L3593.45 1673.65 L3618.82 1659.42 L3644.07 1644.07 L3669.43 1627.61 L3694.68 1609.91 L3720.05 1590.98 L3745.42 1570.56 L3770.66 1548.78 L3770.66 1500.02 L3745.42 1525.02 L3720.05 1548.41 L3694.68 1570.19 L3669.43 1590.48 L3644.07 1609.30 L3618.82 1626.62 L3593.45 1642.83 L3568.21 1657.81 L3542.84 1671.67 L3517.59 1684.41 L3492.22 1696.17 L3466.98 1707.06 L3441.61 1717.08 L3416.37 1726.24 L3391.00 1734.78 L3365.75 1742.45 L3340.38 1749.51 L3315.14 1756.07 L3289.77 1761.88 L3264.53 1767.21 L3239.16 1772.03 L3213.91 1776.36 L3188.54 1780.20 L3163.30 1783.54 L3137.93 1786.63 L3112.68 1789.36 L3087.32 1791.71 L3062.07 1794.06 L3036.70 1796.16 L3011.46 1798.27 L2986.09 1800.37 L2960.72 1802.35 L2935.47 1804.46 L2910.11 1806.68 L2884.86 1809.03 L2859.49 1811.63 L2834.25 1814.36 L2808.88 1817.20 L2783.63 1820.30 L2758.26 1823.64 L2733.02 1827.23 L2707.65 1830.94 L2682.41 1834.77 L2657.04 1838.61 L2631.79 1842.32 L2606.42 1846.16 L2581.18 1849.75 L2555.81 1853.21 L2530.56 1856.68 L2505.20 1859.90 L2479.95 1862.99 L2454.58 1865.84 L2429.34 1868.56 L2403.97 1871.03 L2378.72 1873.39 L2353.35 1875.61 L2328.11 1877.59 L2302.74 1879.57 L2277.49 1881.31 L2252.13 1882.92 L2226.88 1884.40 L2201.51 1885.76 L2201.51 1889.97 Z" stroke-linejoin="round"/>
	</defs>
	<defs>
		<clipPath id="clipPath_RkIerxQq">
			<use xlink:href="#path_uxcTTplE"/>
		</clipPath>
	</defs>
	<use xlink:href="#path_uxcTTplE" style="stroke:none;fill:#E6E6E6"/>
	<use xlink:href="#path_uxcTTplE" style="fill:none;stroke:#E0E0E0;stroke-width:14.69" clip-path="url(#clipPath_RkIerxQq)"/>
	<defs>
		<path id="path_iaGqTuHD" d="M2201.51 1888.73 L2201.51 1888.73 L2226.88 1887.37 L2252.13 1886.01 L2277.49 1884.40 L2302.74 1882.54 L2328.11 1880.69 L2353.35 1878.58 L2378.72 1876.36 L2403.97 1873.88 L2429.34 1871.28 L2454.58 1868.44 L2479.95 1865.47 L2505.20 1862.37 L2530.56 1859.03 L2555.81 1855.69 L2581.18 1852.10 L2606.42 1848.51 L2631.79 1844.92 L2657.04 1841.21 L2682.41 1837.50 L2707.65 1833.91 L2733.02 1830.32 L2758.26 1826.98 L2783.63 1823.76 L2808.88 1820.67 L2834.25 1817.82 L2859.49 1815.10 L2884.86 1812.50 L2910.11 1810.15 L2935.47 1807.80 L2960.72 1805.69 L2986.09 1803.47 L3011.46 1801.36 L3036.70 1799.26 L3062.07 1797.03 L3087.32 1794.68 L3112.68 1792.20 L3137.93 1789.60 L3163.30 1786.63 L3188.54 1783.29 L3213.91 1779.58 L3239.16 1775.37 L3264.53 1770.79 L3289.77 1765.60 L3315.14 1759.90 L3340.38 1753.59 L3365.75 1746.79 L3391.00 1739.24 L3416.37 1730.95 L3441.61 1722.04 L3466.98 1712.26 L3492.22 1701.62 L3517.59 1690.11 L3542.84 1677.61 L3568.21 1664.12 L3593.45 1649.64 L3618.82 1633.92 L3644.07 1616.97 L3669.43 1598.65 L3694.68 1579.10 L3720.05 1558.06 L3745.42 1535.41 L3770.66 1511.28 L3770.66 1459.92 L3745.42 1487.40 L3720.05 1513.14 L3694.68 1537.02 L3669.43 1559.30 L3644.07 1579.84 L3618.82 1599.02 L3593.45 1616.72 L3568.21 1633.18 L3542.84 1648.40 L3517.59 1662.39 L3492.22 1675.38 L3466.98 1687.26 L3441.61 1698.27 L3416.37 1708.42 L3391.00 1717.70 L3365.75 1726.12 L3340.38 1733.92 L3315.14 1740.97 L3289.77 1747.53 L3264.53 1753.34 L3239.16 1758.54 L3213.91 1763.25 L3188.54 1767.45 L3163.30 1771.17 L3137.93 1774.51 L3112.68 1777.48 L3087.32 1780.20 L3062.07 1782.67 L3036.70 1785.03 L3011.46 1787.25 L2986.09 1789.48 L2960.72 1791.71 L2935.47 1794.06 L2910.11 1796.53 L2884.86 1799.01 L2859.49 1801.86 L2834.25 1804.83 L2808.88 1808.04 L2783.63 1811.51 L2758.26 1815.22 L2733.02 1819.06 L2707.65 1823.14 L2682.41 1827.35 L2657.04 1831.56 L2631.79 1835.76 L2606.42 1839.97 L2581.18 1844.06 L2555.81 1847.89 L2530.56 1851.73 L2505.20 1855.19 L2479.95 1858.66 L2454.58 1861.88 L2429.34 1864.85 L2403.97 1867.69 L2378.72 1870.29 L2353.35 1872.77 L2328.11 1874.99 L2302.74 1877.10 L2277.49 1879.08 L2252.13 1880.81 L2226.88 1882.42 L2201.51 1884.03 L2201.51 1888.73 Z" stroke-linejoin="round"/>
	</defs>
	<defs>
		<clipPath id="clipPath_BKWjPyvq">
			<use xlink:href="#path_iaGqTuHD"/>
		</clipPath>
	</defs>
	<use xlink:href="#path_iaGqTuHD" style="stroke:none;fill:#E6E6E6"/>
	<use xlink:href="#path_iaGqTuHD" style="fill:none;stroke:#E0E0E0;stroke-width:14.69" clip-path="url(#clipPath_BKWjPyvq)"/>
	<defs>
		<path id="path_hwVcrYQY" d="M2201.51 1886.13 L2201.51 1886.13 L2226.88 1884.52 L2252.13 1882.79 L2277.49 1880.94 L2302.74 1878.83 L2328.11 1876.48 L2353.35 1874.00 L2378.72 1871.28 L2403.97 1868.44 L2429.34 1865.22 L2454.58 1862.00 L2479.95 1858.41 L2505.20 1854.70 L2530.56 1850.74 L2555.81 1846.78 L2581.18 1842.57 L2606.42 1838.24 L2631.79 1833.91 L2657.04 1829.58 L2682.41 1825.25 L2707.65 1820.91 L2733.02 1816.71 L2758.26 1812.62 L2783.63 1808.79 L2808.88 1805.20 L2834.25 1801.86 L2859.49 1798.64 L2884.86 1795.67 L2910.11 1792.82 L2935.47 1790.10 L2960.72 1787.50 L2986.09 1785.03 L3011.46 1782.55 L3036.70 1780.08 L3062.07 1777.48 L3087.32 1774.75 L3112.68 1771.78 L3137.93 1768.69 L3163.30 1765.23 L3188.54 1761.27 L3213.91 1756.93 L3239.16 1751.98 L3264.53 1746.54 L3289.77 1740.35 L3315.14 1733.67 L3340.38 1726.24 L3365.75 1718.07 L3391.00 1709.16 L3416.37 1699.51 L3441.61 1688.87 L3466.98 1677.36 L3492.22 1664.74 L3517.59 1651.25 L3542.84 1636.40 L3568.21 1620.43 L3593.45 1603.23 L3618.82 1584.67 L3644.07 1564.62 L3669.43 1542.96 L3694.68 1519.82 L3720.05 1494.82 L3745.42 1468.09 L3770.66 1439.63 L3770.66 1371.19 L3745.42 1404.24 L3720.05 1435.05 L3694.68 1463.64 L3669.43 1490.37 L3644.07 1515.12 L3618.82 1538.14 L3593.45 1559.42 L3568.21 1579.10 L3542.84 1597.29 L3517.59 1614.25 L3492.22 1629.71 L3466.98 1644.07 L3441.61 1657.31 L3416.37 1669.44 L3391.00 1680.58 L3365.75 1690.85 L3340.38 1700.13 L3315.14 1708.67 L3289.77 1716.47 L3264.53 1723.52 L3239.16 1729.83 L3213.91 1735.52 L3188.54 1740.60 L3163.30 1745.05 L3137.93 1749.01 L3112.68 1752.60 L3087.32 1755.82 L3062.07 1758.91 L3036.70 1761.76 L3011.46 1764.48 L2986.09 1767.21 L2960.72 1769.93 L2935.47 1772.77 L2910.11 1775.62 L2884.86 1778.84 L2859.49 1782.18 L2834.25 1785.77 L2808.88 1789.60 L2783.63 1793.69 L2758.26 1798.14 L2733.02 1802.85 L2707.65 1807.80 L2682.41 1812.75 L2657.04 1817.82 L2631.79 1822.89 L2606.42 1827.84 L2581.18 1832.67 L2555.81 1837.37 L2530.56 1841.83 L2505.20 1846.16 L2479.95 1850.24 L2454.58 1854.08 L2429.34 1857.67 L2403.97 1861.01 L2378.72 1864.10 L2353.35 1867.07 L2328.11 1869.80 L2302.74 1872.27 L2277.49 1874.62 L2252.13 1876.73 L2226.88 1878.71 L2201.51 1880.44 L2201.51 1886.13 Z" stroke-linejoin="round"/>
	</defs>
	<defs>
		<clipPath id="clipPath_pePzhgDQ">
			<use xlink:href="#path_hwVcrYQY"/>
		</clipPath>
	</defs>
	<use xlink:href="#path_hwVcrYQY" style="stroke:none;fill:#E6E6E6"/>
	<use xlink:href="#path_hwVcrYQY" style="fill:none;stroke:#E0E0E0;stroke-width:14.69" clip-path="url(#clipPath_pePzhgDQ)"/>
	<defs>
		<path id="path_yDSiLVxS" d="M2201.51 1885.51 L2201.51 1885.51 L2226.88 1883.91 L2252.13 1882.05 L2277.49 1880.07 L2302.74 1877.84 L2328.11 1875.49 L2353.35 1872.89 L2378.72 1870.17 L2403.97 1867.07 L2429.34 1863.86 L2454.58 1860.39 L2479.95 1856.80 L2505.20 1852.84 L2530.56 1848.88 L2555.81 1844.68 L2581.18 1840.34 L2606.42 1835.89 L2631.79 1831.43 L2657.04 1826.85 L2682.41 1822.28 L2707.65 1817.82 L2733.02 1813.49 L2758.26 1809.28 L2783.63 1805.32 L2808.88 1801.61 L2834.25 1798.02 L2859.49 1794.68 L2884.86 1791.58 L2910.11 1788.61 L2935.47 1785.89 L2960.72 1783.17 L2986.09 1780.45 L3011.46 1777.85 L3036.70 1775.25 L3062.07 1772.53 L3087.32 1769.80 L3112.68 1766.71 L3137.93 1763.49 L3163.30 1759.78 L3188.54 1755.82 L3213.91 1751.24 L3239.16 1746.04 L3264.53 1740.35 L3289.77 1734.04 L3315.14 1726.99 L3340.38 1719.31 L3365.75 1710.90 L3391.00 1701.62 L3416.37 1691.59 L3441.61 1680.58 L3466.98 1668.57 L3492.22 1655.58 L3517.59 1641.47 L3542.84 1626.13 L3568.21 1609.54 L3593.45 1591.72 L3618.82 1572.42 L3644.07 1551.63 L3669.43 1529.23 L3694.68 1505.22 L3720.05 1479.35 L3745.42 1451.63 L3770.66 1422.06 L3770.66 1348.05 L3745.42 1382.58 L3720.05 1414.75 L3694.68 1444.70 L3669.43 1472.55 L3644.07 1498.41 L3618.82 1522.42 L3593.45 1544.70 L3568.21 1565.24 L3542.84 1584.30 L3517.59 1601.99 L3492.22 1618.21 L3466.98 1633.18 L3441.61 1646.92 L3416.37 1659.66 L3391.00 1671.17 L3365.75 1681.94 L3340.38 1691.59 L3315.14 1700.50 L3289.77 1708.67 L3264.53 1715.97 L3239.16 1722.53 L3213.91 1728.47 L3188.54 1733.79 L3163.30 1738.37 L3137.93 1742.58 L3112.68 1746.29 L3087.32 1749.63 L3062.07 1752.73 L3036.70 1755.70 L3011.46 1758.54 L2986.09 1761.39 L2960.72 1764.24 L2935.47 1767.21 L2910.11 1770.18 L2884.86 1773.52 L2859.49 1776.98 L2834.25 1780.69 L2808.88 1784.65 L2783.63 1788.99 L2758.26 1793.56 L2733.02 1798.51 L2707.65 1803.59 L2682.41 1808.91 L2657.04 1814.11 L2631.79 1819.43 L2606.42 1824.63 L2581.18 1829.70 L2555.81 1834.53 L2530.56 1839.23 L2505.20 1843.69 L2479.95 1847.89 L2454.58 1851.98 L2429.34 1855.69 L2403.97 1859.15 L2378.72 1862.50 L2353.35 1865.59 L2328.11 1868.31 L2302.74 1871.03 L2277.49 1873.39 L2252.13 1875.61 L2226.88 1877.59 L2201.51 1879.57 L2201.51 1885.51 Z" stroke-linejoin="round"/>
	</defs>
	<defs>
		<clipPath id="clipPath_LRcnGano">
			<use xlink:href="#path_yDSiLVxS"/>
		</clipPath>
	</defs>
	<use xlink:href="#path_yDSiLVxS" style="stroke:none;fill:#E6E6E6"/>
	<use xlink:href="#path_yDSiLVxS" style="fill:none;stroke:#E0E0E0;stroke-width:14.69" clip-path="url(#clipPath_LRcnGano)"/>
	<defs>
		<path id="path_ongBlWYE" d="M2201.51 1877.96 L2201.51 1877.96 L2226.88 1875.49 L2252.13 1872.89 L2277.49 1870.04 L2302.74 1866.83 L2328.11 1863.36 L2353.35 1859.65 L2378.72 1855.57 L2403.97 1851.23 L2429.34 1846.53 L2454.58 1841.46 L2479.95 1836.26 L2505.20 1830.57 L2530.56 1824.75 L2555.81 1818.69 L2581.18 1812.38 L2606.42 1805.94 L2631.79 1799.38 L2657.04 1792.82 L2682.41 1786.26 L2707.65 1779.83 L2733.02 1773.39 L2758.26 1767.33 L2783.63 1761.64 L2808.88 1756.19 L2834.25 1750.99 L2859.49 1746.29 L2884.86 1741.71 L2910.11 1737.50 L2935.47 1733.42 L2960.72 1729.46 L2986.09 1725.62 L3011.46 1721.91 L3036.70 1718.07 L3062.07 1714.24 L3087.32 1710.03 L3112.68 1705.70 L3137.93 1701.00 L3163.30 1695.68 L3188.54 1689.86 L3213.91 1683.18 L3239.16 1675.75 L3264.53 1667.58 L3289.77 1658.30 L3315.14 1648.15 L3340.38 1637.02 L3365.75 1624.76 L3391.00 1611.40 L3416.37 1596.80 L3441.61 1580.83 L3466.98 1563.51 L3492.22 1544.70 L3517.59 1524.28 L3542.84 1502.12 L3568.21 1478.12 L3593.45 1452.25 L3618.82 1424.41 L3644.07 1394.33 L3669.43 1361.91 L3694.68 1327.14 L3720.05 1289.76 L3745.42 1249.79 L3770.66 1206.97 L3770.66 1090.77 L3745.42 1141.38 L3720.05 1188.53 L3694.68 1232.34 L3669.43 1273.18 L3644.07 1311.05 L3618.82 1346.19 L3593.45 1378.87 L3568.21 1408.94 L3542.84 1436.91 L3517.59 1462.65 L3492.22 1486.41 L3466.98 1508.44 L3441.61 1528.61 L3416.37 1547.17 L3391.00 1564.13 L3365.75 1579.84 L3340.38 1594.07 L3315.14 1607.07 L3289.77 1618.95 L3264.53 1629.59 L3239.16 1639.37 L3213.91 1647.91 L3188.54 1655.70 L3163.30 1662.51 L3137.93 1668.57 L3112.68 1674.02 L3087.32 1678.97 L3062.07 1683.55 L3036.70 1687.88 L3011.46 1692.09 L2986.09 1696.17 L2960.72 1700.25 L2935.47 1704.59 L2910.11 1709.04 L2884.86 1713.87 L2859.49 1718.94 L2834.25 1724.39 L2808.88 1730.33 L2783.63 1736.51 L2758.26 1743.32 L2733.02 1750.50 L2707.65 1757.92 L2682.41 1765.60 L2657.04 1773.39 L2631.79 1781.07 L2606.42 1788.61 L2581.18 1796.04 L2555.81 1803.22 L2530.56 1810.02 L2505.20 1816.58 L2479.95 1822.77 L2454.58 1828.71 L2429.34 1834.16 L2403.97 1839.35 L2378.72 1844.18 L2353.35 1848.64 L2328.11 1852.72 L2302.74 1856.56 L2277.49 1860.02 L2252.13 1863.36 L2226.88 1866.33 L2201.51 1869.05 L2201.51 1877.96 Z" stroke-linejoin="round"/>
	</defs>
	<defs>
		<clipPath id="clipPath_JTKdYbrb">
			<use xlink:href="#path_ongBlWYE"/>
		</clipPath>
	</defs>
	<use xlink:href="#path_ongBlWYE" style="stroke:none;fill:#E6E6E6"/>
	<use xlink:href="#path_ongBlWYE" style="fill:none;stroke:#E0E0E0;stroke-width:14.69" clip-path="url(#clipPath_JTKdYbrb)"/>
	<defs>
		<path id="path_oODmZeiy" d="M2201.51 1880.19 L2201.51 1880.19 L2226.88 1877.96 L2252.13 1875.61 L2277.49 1873.01 L2302.74 1870.17 L2328.11 1867.07 L2353.35 1863.61 L2378.72 1860.02 L2403.97 1856.06 L2429.34 1851.85 L2454.58 1847.40 L2479.95 1842.57 L2505.20 1837.62 L2530.56 1832.30 L2555.81 1826.85 L2581.18 1821.16 L2606.42 1815.47 L2631.79 1809.53 L2657.04 1803.59 L2682.41 1797.65 L2707.65 1791.83 L2733.02 1786.14 L2758.26 1780.57 L2783.63 1775.37 L2808.88 1770.55 L2834.25 1765.97 L2859.49 1761.64 L2884.86 1757.55 L2910.11 1753.72 L2935.47 1750.13 L2960.72 1746.66 L2986.09 1743.20 L3011.46 1739.86 L3036.70 1736.39 L3062.07 1732.93 L3087.32 1729.34 L3112.68 1725.38 L3137.93 1721.17 L3163.30 1716.47 L3188.54 1711.14 L3213.91 1705.20 L3239.16 1698.52 L3264.53 1691.10 L3289.77 1682.81 L3315.14 1673.65 L3340.38 1663.62 L3365.75 1652.61 L3391.00 1640.61 L3416.37 1627.36 L3441.61 1613.01 L3466.98 1597.41 L3492.22 1580.46 L3517.59 1562.02 L3542.84 1542.10 L3568.21 1520.44 L3593.45 1497.17 L3618.82 1471.93 L3644.07 1444.83 L3669.43 1415.62 L3694.68 1384.19 L3720.05 1350.53 L3745.42 1314.39 L3770.66 1275.65 L3770.66 1142.25 L3745.42 1189.52 L3720.05 1233.58 L3694.68 1274.54 L3669.43 1312.78 L3644.07 1348.17 L3618.82 1381.09 L3593.45 1411.66 L3568.21 1439.88 L3542.84 1465.99 L3517.59 1490.12 L3492.22 1512.40 L3466.98 1532.94 L3441.61 1551.87 L3416.37 1569.20 L3391.00 1585.16 L3365.75 1599.77 L3340.38 1613.26 L3315.14 1625.38 L3289.77 1636.52 L3264.53 1646.55 L3239.16 1655.58 L3213.91 1663.75 L3188.54 1670.92 L3163.30 1677.36 L3137.93 1683.05 L3112.68 1688.25 L3087.32 1692.83 L3062.07 1697.16 L3036.70 1701.24 L3011.46 1705.20 L2986.09 1709.16 L2960.72 1713.12 L2935.47 1717.08 L2910.11 1721.42 L2884.86 1725.87 L2859.49 1730.70 L2834.25 1735.77 L2808.88 1741.34 L2783.63 1747.28 L2758.26 1753.59 L2733.02 1760.28 L2707.65 1767.21 L2682.41 1774.38 L2657.04 1781.68 L2631.79 1788.86 L2606.42 1795.92 L2581.18 1802.85 L2555.81 1809.53 L2530.56 1816.09 L2505.20 1822.15 L2479.95 1828.09 L2454.58 1833.54 L2429.34 1838.73 L2403.97 1843.56 L2378.72 1848.02 L2353.35 1852.22 L2328.11 1856.06 L2302.74 1859.65 L2277.49 1862.99 L2252.13 1866.08 L2226.88 1868.81 L2201.51 1871.41 L2201.51 1880.19 Z" stroke-linejoin="round"/>
	</defs>
	<defs>
		<clipPath id="clipPath_BemVWGcM">
			<use xlink:href="#path_oODmZeiy"/>
		</clipPath>
	</defs>
	<use xlink:href="#path_oODmZeiy" style="stroke:none;fill:#E6E6E6"/>
	<use xlink:href="#path_oODmZeiy" style="fill:none;stroke:#E0E0E0;stroke-width:14.69" clip-path="url(#clipPath_BemVWGcM)"/>
	<path d=" M2201.39 1886.63 L2226.76 1885.14 L2252.13 1883.66 L2277.37 1881.93 L2302.74 1880.07 L2327.99 1878.09 L2353.35 1875.86 L2378.60 1873.51 L2403.97 1871.03 L2429.21 1868.31 L2454.58 1865.34 L2479.83 1862.25 L2505.20 1859.03 L2530.44 1855.57 L2555.81 1851.98 L2581.05 1848.26 L2606.42 1844.43 L2631.67 1840.59 L2657.04 1836.63 L2682.28 1832.67 L2707.65 1828.83 L2732.89 1825.00 L2758.26 1821.29 L2783.51 1817.82 L2808.88 1814.60 L2834.12 1811.63 L2859.49 1808.79 L2884.74 1806.06 L2910.11 1803.59 L2935.35 1801.24 L2960.72 1799.01 L2986.09 1796.78 L3011.33 1794.55 L3036.70 1792.33 L3061.95 1790.10 L3087.32 1787.75 L3112.56 1785.15 L3137.93 1782.30 L3163.17 1779.21 L3188.54 1775.74 L3213.79 1771.78 L3239.16 1767.33 L3264.40 1762.38 L3289.77 1756.93 L3315.01 1750.87 L3340.38 1744.19 L3365.63 1736.76 L3391.00 1728.84 L3416.24 1720.06 L3441.61 1710.53 L3466.86 1700.25 L3492.22 1688.99 L3517.47 1676.74 L3542.84 1663.50 L3568.08 1649.14 L3593.45 1633.67 L3618.70 1617.09 L3644.07 1599.02 L3669.31 1579.59 L3694.68 1558.80 L3719.93 1536.28 L3745.29 1512.27 L3770.66 1486.53" stroke-linejoin="round" style="fill:none;stroke:#FF0000;stroke-width:7.34"/>
	<path d=" M2201.39 1883.53 L2226.76 1881.93 L2252.13 1880.07 L2277.37 1877.96 L2302.74 1875.74 L2327.99 1873.39 L2353.35 1870.79 L2378.60 1867.94 L2403.97 1864.97 L2429.21 1861.75 L2454.58 1858.29 L2479.83 1854.58 L2505.20 1850.62 L2530.44 1846.53 L2555.81 1842.32 L2581.05 1837.87 L2606.42 1833.29 L2631.67 1828.71 L2657.04 1824.01 L2682.28 1819.31 L2707.65 1814.60 L2732.89 1810.15 L2758.26 1805.69 L2783.51 1801.61 L2808.88 1797.77 L2834.12 1794.18 L2859.49 1790.72 L2884.74 1787.62 L2910.11 1784.65 L2935.35 1781.81 L2960.72 1779.09 L2986.09 1776.49 L3011.33 1773.89 L3036.70 1771.29 L3061.95 1768.57 L3087.32 1765.72 L3112.56 1762.63 L3137.93 1759.28 L3163.17 1755.57 L3188.54 1751.36 L3213.79 1746.66 L3239.16 1741.34 L3264.40 1735.40 L3289.77 1728.97 L3315.01 1721.66 L3340.38 1713.74 L3365.63 1704.96 L3391.00 1695.43 L3416.24 1685.03 L3441.61 1673.65 L3466.86 1661.40 L3492.22 1647.91 L3517.47 1633.43 L3542.84 1617.59 L3568.08 1600.51 L3593.45 1582.07 L3618.70 1562.27 L3644.07 1540.74 L3669.31 1517.59 L3694.68 1492.72 L3719.93 1465.99 L3745.29 1437.28 L3770.66 1406.59" stroke-linejoin="round" style="fill:none;stroke:#008000;stroke-width:7.34"/>
	<path d=" M2201.39 1882.79 L2226.76 1881.06 L2252.13 1879.08 L2277.37 1876.97 L2302.74 1874.75 L2327.99 1872.15 L2353.35 1869.55 L2378.60 1866.58 L2403.97 1863.36 L2429.21 1860.02 L2454.58 1856.43 L2479.83 1852.60 L2505.20 1848.51 L2530.44 1844.30 L2555.81 1839.85 L2581.05 1835.27 L2606.42 1830.57 L2631.67 1825.74 L2657.04 1820.79 L2682.28 1815.96 L2707.65 1811.01 L2732.89 1806.31 L2758.26 1801.86 L2783.51 1797.52 L2808.88 1793.56 L2834.12 1789.73 L2859.49 1786.26 L2884.74 1782.92 L2910.11 1779.83 L2935.35 1776.86 L2960.72 1774.14 L2986.09 1771.29 L3011.33 1768.69 L3036.70 1765.84 L3061.95 1763.12 L3087.32 1760.15 L3112.56 1756.93 L3137.93 1753.47 L3163.17 1749.51 L3188.54 1745.18 L3213.79 1740.35 L3239.16 1734.78 L3264.40 1728.59 L3289.77 1721.79 L3315.01 1714.36 L3340.38 1706.07 L3365.63 1696.91 L3391.00 1687.01 L3416.24 1676.25 L3441.61 1664.37 L3466.86 1651.50 L3492.22 1637.51 L3517.47 1622.41 L3542.84 1606.08 L3568.08 1588.26 L3593.45 1569.08 L3618.70 1548.41 L3644.07 1526.01 L3669.31 1502.00 L3694.68 1476.01 L3719.93 1448.29 L3745.29 1418.34 L3770.66 1386.41" stroke-linejoin="round" style="fill:none;stroke:#FFD200;stroke-width:7.34"/>
	<path d=" M2201.39 1873.88 L2226.76 1871.28 L2252.13 1868.56 L2277.37 1865.47 L2302.74 1862.12 L2327.99 1858.41 L2353.35 1854.45 L2378.60 1850.24 L2403.97 1845.67 L2429.21 1840.72 L2454.58 1835.52 L2479.83 1829.82 L2505.20 1824.01 L2530.44 1817.82 L2555.81 1811.39 L2581.05 1804.58 L2606.42 1797.77 L2631.67 1790.72 L2657.04 1783.54 L2682.28 1776.49 L2707.65 1769.43 L2732.89 1762.50 L2758.26 1755.94 L2783.51 1749.63 L2808.88 1743.82 L2834.12 1738.37 L2859.49 1733.17 L2884.74 1728.35 L2910.11 1723.89 L2935.35 1719.56 L2960.72 1715.48 L2986.09 1711.52 L3011.33 1707.56 L3036.70 1703.60 L3061.95 1699.51 L3087.32 1695.18 L3112.56 1690.48 L3137.93 1685.40 L3163.17 1679.83 L3188.54 1673.52 L3213.79 1666.35 L3239.16 1658.30 L3264.40 1649.39 L3289.77 1639.37 L3315.01 1628.48 L3340.38 1616.47 L3365.63 1603.23 L3391.00 1588.75 L3416.24 1572.91 L3441.61 1555.71 L3466.86 1537.02 L3492.22 1516.73 L3517.47 1494.70 L3542.84 1470.81 L3568.08 1444.95 L3593.45 1416.98 L3618.70 1386.91 L3644.07 1354.36 L3669.31 1319.34 L3694.68 1281.60 L3719.93 1241.13 L3745.29 1197.69 L3770.66 1151.16" stroke-linejoin="round" style="fill:none;stroke:#FF7F00;stroke-width:7.34"/>
	<path d=" M2201.39 1876.23 L2226.76 1873.88 L2252.13 1871.28 L2277.37 1868.44 L2302.74 1865.34 L2327.99 1862.00 L2353.35 1858.41 L2378.60 1854.45 L2403.97 1850.24 L2429.21 1845.79 L2454.58 1840.96 L2479.83 1835.76 L2505.20 1830.32 L2530.44 1824.63 L2555.81 1818.69 L2581.05 1812.62 L2606.42 1806.19 L2631.67 1799.75 L2657.04 1793.19 L2682.28 1786.63 L2707.65 1780.20 L2732.89 1773.89 L2758.26 1767.82 L2783.51 1762.13 L2808.88 1756.69 L2834.12 1751.61 L2859.49 1746.91 L2884.74 1742.58 L2910.11 1738.37 L2935.35 1734.53 L2960.72 1730.70 L2986.09 1727.11 L3011.33 1723.40 L3036.70 1719.81 L3061.95 1715.97 L3087.32 1712.01 L3112.56 1707.80 L3137.93 1703.10 L3163.17 1697.90 L3188.54 1692.09 L3213.79 1685.53 L3239.16 1678.10 L3264.40 1669.93 L3289.77 1660.78 L3315.01 1650.75 L3340.38 1639.74 L3365.63 1627.49 L3391.00 1614.25 L3416.24 1599.77 L3441.61 1583.93 L3466.86 1566.72 L3492.22 1548.04 L3517.47 1527.87 L3542.84 1505.84 L3568.08 1482.20 L3593.45 1456.46 L3618.70 1428.74 L3644.07 1398.91 L3669.31 1366.74 L3694.68 1332.09 L3719.93 1294.84 L3745.29 1254.99 L3770.66 1212.29" stroke-linejoin="round" style="fill:none;stroke:#9C8847;stroke-width:7.34"/>
	<path d=" M2201.39 1888.11 L2226.76 1886.75 L2252.13 1885.39 L2277.37 1883.78 L2302.74 1882.17 L2327.99 1880.32 L2353.35 1878.34 L2378.60 1876.23 L2403.97 1873.88 L2429.21 1871.41 L2454.58 1868.81 L2479.83 1865.96 L2505.20 1862.99 L2530.44 1859.90 L2555.81 1856.68 L2581.05 1853.34 L2606.42 1849.87 L2631.67 1846.28 L2657.04 1842.70 L2682.28 1839.23 L2707.65 1835.64 L2732.89 1832.18 L2758.26 1828.83 L2783.51 1825.74 L2808.88 1822.77 L2834.12 1820.05 L2859.49 1817.45 L2884.74 1815.10 L2910.11 1812.87 L2935.35 1810.64 L2960.72 1808.66 L2986.09 1806.56 L3011.33 1804.58 L3036.70 1802.60 L3061.95 1800.62 L3087.32 1798.39 L3112.56 1796.04 L3137.93 1793.56 L3163.17 1790.72 L3188.54 1787.50 L3213.79 1783.91 L3239.16 1779.95 L3264.40 1775.37 L3289.77 1770.42 L3315.01 1764.98 L3340.38 1758.91 L3365.63 1752.23 L3391.00 1745.05 L3416.24 1737.13 L3441.61 1728.47 L3466.86 1719.06 L3492.22 1708.79 L3517.47 1697.78 L3542.84 1685.78 L3568.08 1672.78 L3593.45 1658.80 L3618.70 1643.58 L3644.07 1627.24 L3669.31 1609.67 L3694.68 1590.73 L3719.93 1570.44 L3745.29 1548.66 L3770.66 1525.27" stroke-linejoin="round" style="fill:none;stroke:#1A476F;stroke-width:7.34"/>
	<line x1="2201.39" y1="1745.05" x2="2204.24" y2="1745.05" style="stroke:#000000;stroke-width:7.34"/>
	<line x1="2224.41" y1="1745.05" x2="2226.76" y2="1745.05" style="stroke:#000000;stroke-width:7.34"/>
	<line x1="2226.76" y1="1745.05" x2="2227.25" y2="1745.05" style="stroke:#000000;stroke-width:7.34"/>
	<line x1="2247.42" y1="1745.05" x2="2250.27" y2="1745.05" style="stroke:#000000;stroke-width:7.34"/>
	<line x1="2270.44" y1="1745.05" x2="2273.29" y2="1745.05" style="stroke:#000000;stroke-width:7.34"/>
	<line x1="2293.46" y1="1745.05" x2="2296.43" y2="1745.05" style="stroke:#000000;stroke-width:7.34"/>
	<line x1="2316.60" y1="1745.05" x2="2319.45" y2="1745.05" style="stroke:#000000;stroke-width:7.34"/>
	<line x1="2339.62" y1="1745.05" x2="2342.46" y2="1745.05" style="stroke:#000000;stroke-width:7.34"/>
	<line x1="2362.64" y1="1745.05" x2="2365.48" y2="1745.05" style="stroke:#000000;stroke-width:7.34"/>
	<line x1="2385.65" y1="1745.05" x2="2388.50" y2="1745.05" style="stroke:#000000;stroke-width:7.34"/>
	<line x1="2408.67" y1="1745.05" x2="2411.52" y2="1745.05" style="stroke:#000000;stroke-width:7.34"/>
	<line x1="2431.69" y1="1745.05" x2="2434.53" y2="1745.05" style="stroke:#000000;stroke-width:7.34"/>
	<line x1="2454.70" y1="1745.05" x2="2457.55" y2="1745.05" style="stroke:#000000;stroke-width:7.34"/>
	<line x1="2477.72" y1="1745.05" x2="2479.83" y2="1745.05" style="stroke:#000000;stroke-width:7.34"/>
	<line x1="2479.83" y1="1745.05" x2="2480.57" y2="1745.05" style="stroke:#000000;stroke-width:7.34"/>
	<line x1="2500.74" y1="1745.05" x2="2503.59" y2="1745.05" style="stroke:#000000;stroke-width:7.34"/>
	<line x1="2523.76" y1="1745.05" x2="2526.60" y2="1745.05" style="stroke:#000000;stroke-width:7.34"/>
	<line x1="2546.78" y1="1745.05" x2="2549.74" y2="1745.05" style="stroke:#000000;stroke-width:7.34"/>
	<line x1="2569.92" y1="1745.05" x2="2572.76" y2="1745.05" style="stroke:#000000;stroke-width:7.34"/>
	<line x1="2592.93" y1="1745.05" x2="2595.78" y2="1745.05" style="stroke:#000000;stroke-width:7.34"/>
	<line x1="2615.95" y1="1745.05" x2="2618.80" y2="1745.05" style="stroke:#000000;stroke-width:7.34"/>
	<line x1="2638.97" y1="1745.05" x2="2641.82" y2="1745.05" style="stroke:#000000;stroke-width:7.34"/>
	<line x1="2661.99" y1="1745.05" x2="2664.83" y2="1745.05" style="stroke:#000000;stroke-width:7.34"/>
	<line x1="2685.00" y1="1745.05" x2="2687.85" y2="1745.05" style="stroke:#000000;stroke-width:7.34"/>
	<line x1="2708.02" y1="1745.05" x2="2710.87" y2="1745.05" style="stroke:#000000;stroke-width:7.34"/>
	<line x1="2731.04" y1="1745.05" x2="2732.89" y2="1745.05" style="stroke:#000000;stroke-width:7.34"/>
	<line x1="2732.89" y1="1745.05" x2="2733.89" y2="1745.05" style="stroke:#000000;stroke-width:7.34"/>
	<line x1="2754.06" y1="1745.05" x2="2756.90" y2="1745.05" style="stroke:#000000;stroke-width:7.34"/>
	<line x1="2777.07" y1="1745.05" x2="2779.92" y2="1745.05" style="stroke:#000000;stroke-width:7.34"/>
	<line x1="2800.09" y1="1745.05" x2="2803.06" y2="1745.05" style="stroke:#000000;stroke-width:7.34"/>
	<line x1="2823.23" y1="1745.05" x2="2826.08" y2="1745.05" style="stroke:#000000;stroke-width:7.34"/>
	<line x1="2846.25" y1="1745.05" x2="2849.10" y2="1745.05" style="stroke:#000000;stroke-width:7.34"/>
	<line x1="2869.27" y1="1745.05" x2="2872.11" y2="1745.05" style="stroke:#000000;stroke-width:7.34"/>
	<line x1="2892.28" y1="1745.05" x2="2895.13" y2="1745.05" style="stroke:#000000;stroke-width:7.34"/>
	<line x1="2915.30" y1="1745.05" x2="2918.15" y2="1745.05" style="stroke:#000000;stroke-width:7.34"/>
	<line x1="2938.32" y1="1745.05" x2="2941.17" y2="1745.05" style="stroke:#000000;stroke-width:7.34"/>
	<line x1="2961.34" y1="1745.05" x2="2964.18" y2="1745.05" style="stroke:#000000;stroke-width:7.34"/>
	<line x1="2984.36" y1="1745.05" x2="2986.09" y2="1745.05" style="stroke:#000000;stroke-width:7.34"/>
	<line x1="2986.09" y1="1745.05" x2="2987.20" y2="1745.05" style="stroke:#000000;stroke-width:7.34"/>
	<line x1="3007.37" y1="1745.05" x2="3010.22" y2="1745.05" style="stroke:#000000;stroke-width:7.34"/>
	<line x1="3030.39" y1="1745.05" x2="3033.36" y2="1745.05" style="stroke:#000000;stroke-width:7.34"/>
	<line x1="3053.41" y1="1745.05" x2="3056.38" y2="1745.05" style="stroke:#000000;stroke-width:7.34"/>
	<line x1="3076.55" y1="1745.05" x2="3079.39" y2="1745.05" style="stroke:#000000;stroke-width:7.34"/>
	<line x1="3099.57" y1="1745.05" x2="3102.41" y2="1745.05" style="stroke:#000000;stroke-width:7.34"/>
	<line x1="3122.58" y1="1745.05" x2="3125.43" y2="1745.05" style="stroke:#000000;stroke-width:7.34"/>
	<line x1="3145.60" y1="1745.05" x2="3148.45" y2="1745.05" style="stroke:#000000;stroke-width:7.34"/>
	<line x1="3168.62" y1="1745.05" x2="3171.47" y2="1745.05" style="stroke:#000000;stroke-width:7.34"/>
	<line x1="3191.64" y1="1745.05" x2="3194.48" y2="1745.05" style="stroke:#000000;stroke-width:7.34"/>
	<line x1="3214.65" y1="1745.05" x2="3217.50" y2="1745.05" style="stroke:#000000;stroke-width:7.34"/>
	<line x1="3237.67" y1="1745.05" x2="3239.16" y2="1745.05" style="stroke:#000000;stroke-width:7.34"/>
	<line x1="3239.16" y1="1745.05" x2="3240.52" y2="1745.05" style="stroke:#000000;stroke-width:7.34"/>
	<line x1="3260.69" y1="1745.05" x2="3263.53" y2="1745.05" style="stroke:#000000;stroke-width:7.34"/>
	<line x1="3283.71" y1="1745.05" x2="3286.68" y2="1745.05" style="stroke:#000000;stroke-width:7.34"/>
	<line x1="3306.72" y1="1745.05" x2="3309.69" y2="1745.05" style="stroke:#000000;stroke-width:7.34"/>
	<line x1="3329.86" y1="1745.05" x2="3332.71" y2="1745.05" style="stroke:#000000;stroke-width:7.34"/>
	<line x1="3352.88" y1="1745.05" x2="3355.73" y2="1745.05" style="stroke:#000000;stroke-width:7.34"/>
	<line x1="3375.90" y1="1745.05" x2="3378.75" y2="1745.05" style="stroke:#000000;stroke-width:7.34"/>
	<line x1="3398.92" y1="1745.05" x2="3401.76" y2="1745.05" style="stroke:#000000;stroke-width:7.34"/>
	<line x1="3421.93" y1="1745.05" x2="3424.78" y2="1745.05" style="stroke:#000000;stroke-width:7.34"/>
	<line x1="3444.95" y1="1745.05" x2="3447.80" y2="1745.05" style="stroke:#000000;stroke-width:7.34"/>
	<line x1="3467.97" y1="1745.05" x2="3470.82" y2="1745.05" style="stroke:#000000;stroke-width:7.34"/>
	<line x1="3490.99" y1="1745.05" x2="3492.22" y2="1745.05" style="stroke:#000000;stroke-width:7.34"/>
	<line x1="3492.22" y1="1745.05" x2="3493.83" y2="1745.05" style="stroke:#000000;stroke-width:7.34"/>
	<line x1="3514.01" y1="1745.05" x2="3516.85" y2="1745.05" style="stroke:#000000;stroke-width:7.34"/>
	<line x1="3537.02" y1="1745.05" x2="3539.99" y2="1745.05" style="stroke:#000000;stroke-width:7.34"/>
	<line x1="3560.04" y1="1745.05" x2="3563.01" y2="1745.05" style="stroke:#000000;stroke-width:7.34"/>
	<line x1="3583.18" y1="1745.05" x2="3586.03" y2="1745.05" style="stroke:#000000;stroke-width:7.34"/>
	<line x1="3606.20" y1="1745.05" x2="3609.05" y2="1745.05" style="stroke:#000000;stroke-width:7.34"/>
	<line x1="3629.22" y1="1745.05" x2="3632.06" y2="1745.05" style="stroke:#000000;stroke-width:7.34"/>
	<line x1="3652.23" y1="1745.05" x2="3655.08" y2="1745.05" style="stroke:#000000;stroke-width:7.34"/>
	<line x1="3675.25" y1="1745.05" x2="3678.10" y2="1745.05" style="stroke:#000000;stroke-width:7.34"/>
	<line x1="3698.27" y1="1745.05" x2="3701.11" y2="1745.05" style="stroke:#000000;stroke-width:7.34"/>
	<line x1="3721.29" y1="1745.05" x2="3724.13" y2="1745.05" style="stroke:#000000;stroke-width:7.34"/>
	<line x1="3744.30" y1="1745.05" x2="3745.29" y2="1745.05" style="stroke:#000000;stroke-width:7.34"/>
	<line x1="3745.29" y1="1745.05" x2="3747.15" y2="1745.05" style="stroke:#000000;stroke-width:7.34"/>
	<line x1="3767.32" y1="1745.05" x2="3770.17" y2="1745.05" style="stroke:#000000;stroke-width:7.34"/>
	<path d="" stroke-linejoin="round" style="fill:none;stroke:#000000;stroke-width:7.34"/>
	<line x1="401.69" y1="1956.18" x2="401.69" y2="258.27" style="stroke:#000000;stroke-width:4.90"/>
	<line x1="401.69" y1="1902.22" x2="367.66" y2="1902.22" style="stroke:#000000;stroke-width:4.90"/>
	<text x="350.71" y="1932.01" style="font-family:'Helvetica';font-size:85.02px;fill:#000000" text-anchor="end">0</text>
	<line x1="401.69" y1="1725.62" x2="367.66" y2="1725.62" style="stroke:#000000;stroke-width:4.90"/>
	<text x="350.71" y="1755.41" style="font-family:'Helvetica';font-size:85.02px;fill:#000000" text-anchor="end">.001</text>
	<line x1="401.69" y1="1548.90" x2="367.66" y2="1548.90" style="stroke:#000000;stroke-width:4.90"/>
	<text x="350.71" y="1578.69" style="font-family:'Helvetica';font-size:85.02px;fill:#000000" text-anchor="end">.002</text>
	<line x1="401.69" y1="1372.18" x2="367.66" y2="1372.18" style="stroke:#000000;stroke-width:4.90"/>
	<text x="350.71" y="1401.97" style="font-family:'Helvetica';font-size:85.02px;fill:#000000" text-anchor="end">.003</text>
	<line x1="401.69" y1="1195.59" x2="367.66" y2="1195.59" style="stroke:#000000;stroke-width:4.90"/>
	<text x="350.71" y="1225.37" style="font-family:'Helvetica';font-size:85.02px;fill:#000000" text-anchor="end">.004</text>
	<line x1="401.69" y1="1018.87" x2="367.66" y2="1018.87" style="stroke:#000000;stroke-width:4.90"/>
	<text x="350.71" y="1048.65" style="font-family:'Helvetica';font-size:85.02px;fill:#000000" text-anchor="end">.005</text>
	<line x1="401.69" y1="842.15" x2="367.66" y2="842.15" style="stroke:#000000;stroke-width:4.90"/>
	<text x="350.71" y="871.93" style="font-family:'Helvetica';font-size:85.02px;fill:#000000" text-anchor="end">.006</text>
	<line x1="401.69" y1="665.42" x2="367.66" y2="665.42" style="stroke:#000000;stroke-width:4.90"/>
	<text x="350.71" y="695.21" style="font-family:'Helvetica';font-size:85.02px;fill:#000000" text-anchor="end">.007</text>
	<line x1="401.69" y1="488.83" x2="367.66" y2="488.83" style="stroke:#000000;stroke-width:4.90"/>
	<text x="350.71" y="518.62" style="font-family:'Helvetica';font-size:85.02px;fill:#000000" text-anchor="end">.008</text>
	<line x1="401.69" y1="312.11" x2="367.66" y2="312.11" style="stroke:#000000;stroke-width:4.90"/>
	<text x="350.71" y="341.89" style="font-family:'Helvetica';font-size:85.02px;fill:#000000" text-anchor="end">.009</text>
	<line x1="401.69" y1="1956.18" x2="2078.51" y2="1956.18" style="stroke:#000000;stroke-width:4.90"/>
	<line x1="506.14" y1="1956.18" x2="506.14" y2="1973.13" style="stroke:#000000;stroke-width:4.90"/>
	<line x1="632.73" y1="1956.18" x2="632.73" y2="1973.13" style="stroke:#000000;stroke-width:4.90"/>
	<line x1="759.21" y1="1956.18" x2="759.21" y2="1973.13" style="stroke:#000000;stroke-width:4.90"/>
	<line x1="885.80" y1="1956.18" x2="885.80" y2="1973.13" style="stroke:#000000;stroke-width:4.90"/>
	<line x1="1012.27" y1="1956.18" x2="1012.27" y2="1973.13" style="stroke:#000000;stroke-width:4.90"/>
	<line x1="1138.87" y1="1956.18" x2="1138.87" y2="1973.13" style="stroke:#000000;stroke-width:4.90"/>
	<line x1="1265.47" y1="1956.18" x2="1265.47" y2="1973.13" style="stroke:#000000;stroke-width:4.90"/>
	<line x1="1391.94" y1="1956.18" x2="1391.94" y2="1973.13" style="stroke:#000000;stroke-width:4.90"/>
	<line x1="1518.54" y1="1956.18" x2="1518.54" y2="1973.13" style="stroke:#000000;stroke-width:4.90"/>
	<line x1="1645.01" y1="1956.18" x2="1645.01" y2="1973.13" style="stroke:#000000;stroke-width:4.90"/>
	<line x1="1771.61" y1="1956.18" x2="1771.61" y2="1973.13" style="stroke:#000000;stroke-width:4.90"/>
	<line x1="1898.20" y1="1956.18" x2="1898.20" y2="1973.13" style="stroke:#000000;stroke-width:4.90"/>
	<line x1="2024.67" y1="1956.18" x2="2024.67" y2="1973.13" style="stroke:#000000;stroke-width:4.90"/>
	<line x1="506.14" y1="1956.18" x2="506.14" y2="1990.09" style="stroke:#000000;stroke-width:4.90"/>
	<text x="506.14" y="2066.62" style="font-family:'Helvetica';font-size:85.02px;fill:#000000" text-anchor="middle">20</text>
	<line x1="1012.27" y1="1956.18" x2="1012.27" y2="1990.09" style="stroke:#000000;stroke-width:4.90"/>
	<text x="1012.27" y="2066.62" style="font-family:'Helvetica';font-size:85.02px;fill:#000000" text-anchor="middle">40</text>
	<line x1="1518.54" y1="1956.18" x2="1518.54" y2="1990.09" style="stroke:#000000;stroke-width:4.90"/>
	<text x="1518.54" y="2066.62" style="font-family:'Helvetica';font-size:85.02px;fill:#000000" text-anchor="middle">60</text>
	<line x1="2024.67" y1="1956.18" x2="2024.67" y2="1990.09" style="stroke:#000000;stroke-width:4.90"/>
	<text x="2024.67" y="2066.62" style="font-family:'Helvetica';font-size:85.02px;fill:#000000" text-anchor="middle">80</text>
	<line x1="2147.68" y1="1956.18" x2="3824.49" y2="1956.18" style="stroke:#000000;stroke-width:4.90"/>
	<line x1="2252.13" y1="1956.18" x2="2252.13" y2="1973.13" style="stroke:#000000;stroke-width:4.90"/>
	<line x1="2378.72" y1="1956.18" x2="2378.72" y2="1973.13" style="stroke:#000000;stroke-width:4.90"/>
	<line x1="2505.20" y1="1956.18" x2="2505.20" y2="1973.13" style="stroke:#000000;stroke-width:4.90"/>
	<line x1="2631.79" y1="1956.18" x2="2631.79" y2="1973.13" style="stroke:#000000;stroke-width:4.90"/>
	<line x1="2758.26" y1="1956.18" x2="2758.26" y2="1973.13" style="stroke:#000000;stroke-width:4.90"/>
	<line x1="2884.86" y1="1956.18" x2="2884.86" y2="1973.13" style="stroke:#000000;stroke-width:4.90"/>
	<line x1="3011.46" y1="1956.18" x2="3011.46" y2="1973.13" style="stroke:#000000;stroke-width:4.90"/>
	<line x1="3137.93" y1="1956.18" x2="3137.93" y2="1973.13" style="stroke:#000000;stroke-width:4.90"/>
	<line x1="3264.53" y1="1956.18" x2="3264.53" y2="1973.13" style="stroke:#000000;stroke-width:4.90"/>
	<line x1="3391.00" y1="1956.18" x2="3391.00" y2="1973.13" style="stroke:#000000;stroke-width:4.90"/>
	<line x1="3517.59" y1="1956.18" x2="3517.59" y2="1973.13" style="stroke:#000000;stroke-width:4.90"/>
	<line x1="3644.07" y1="1956.18" x2="3644.07" y2="1973.13" style="stroke:#000000;stroke-width:4.90"/>
	<line x1="3770.66" y1="1956.18" x2="3770.66" y2="1973.13" style="stroke:#000000;stroke-width:4.90"/>
	<line x1="2252.13" y1="1956.18" x2="2252.13" y2="1990.09" style="stroke:#000000;stroke-width:4.90"/>
	<text x="2252.13" y="2066.62" style="font-family:'Helvetica';font-size:85.02px;fill:#000000" text-anchor="middle">20</text>
	<line x1="2758.26" y1="1956.18" x2="2758.26" y2="1990.09" style="stroke:#000000;stroke-width:4.90"/>
	<text x="2758.26" y="2066.62" style="font-family:'Helvetica';font-size:85.02px;fill:#000000" text-anchor="middle">40</text>
	<line x1="3264.53" y1="1956.18" x2="3264.53" y2="1990.09" style="stroke:#000000;stroke-width:4.90"/>
	<text x="3264.53" y="2066.62" style="font-family:'Helvetica';font-size:85.02px;fill:#000000" text-anchor="middle">60</text>
	<line x1="3770.66" y1="1956.18" x2="3770.66" y2="1990.09" style="stroke:#000000;stroke-width:4.90"/>
	<text x="3770.66" y="2066.62" style="font-family:'Helvetica';font-size:85.02px;fill:#000000" text-anchor="middle">80</text>
	<rect x="401.69" y="135.39" width="1676.81" height="122.89" style="fill:#D9E6EB"/>
	<rect x="404.14" y="137.83" width="1671.92" height="117.99" style="fill:none;stroke:#D9E6EB;stroke-width:4.90"/>
	<text x="1240.10" y="215.42" style="font-family:'Helvetica';font-size:93.56px;fill:#000000" text-anchor="middle">Female</text>
	<rect x="2147.68" y="135.39" width="1676.81" height="122.89" style="fill:#D9E6EB"/>
	<rect x="2150.13" y="137.83" width="1671.92" height="117.99" style="fill:none;stroke:#D9E6EB;stroke-width:4.90"/>
	<text x="2986.09" y="215.42" style="font-family:'Helvetica';font-size:93.56px;fill:#000000" text-anchor="middle">Male</text>
	<rect x="421.74" y="2278.31" width="3116.40" height="466.30" style="fill:#FFFFFF"/>
	<rect x="424.62" y="2281.19" width="3110.64" height="460.54" style="fill:none;stroke:#000000;stroke-width:5.76"/>
	<line x1="464.93" y1="2371.50" x2="839.40" y2="2371.50" style="stroke:#FF0000;stroke-width:8.64"/>
	<line x1="2033.95" y1="2371.50" x2="2408.30" y2="2371.50" style="stroke:#008000;stroke-width:8.64"/>
	<line x1="464.93" y1="2511.46" x2="839.40" y2="2511.46" style="stroke:#FFD200;stroke-width:8.64"/>
	<line x1="2033.95" y1="2511.46" x2="2408.30" y2="2511.46" style="stroke:#FF7F00;stroke-width:8.64"/>
	<line x1="464.93" y1="2651.43" x2="839.40" y2="2651.43" style="stroke:#9C8847;stroke-width:8.64"/>
	<line x1="2033.95" y1="2651.43" x2="2408.30" y2="2651.43" style="stroke:#1A476F;stroke-width:8.64"/>
	<text x="899.41" y="2406.52" style="font-family:'Helvetica';font-size:99.99px;fill:#000000">High BP/hypertension</text>
	<text x="2468.32" y="2406.52" style="font-family:'Helvetica';font-size:99.99px;fill:#000000">Cardiac disease</text>
	<text x="899.41" y="2546.49" style="font-family:'Helvetica';font-size:99.99px;fill:#000000">Diabetes, controlled</text>
	<text x="2468.32" y="2546.49" style="font-family:'Helvetica';font-size:99.99px;fill:#000000">Diabetes, uncontrolled</text>
	<text x="899.41" y="2686.46" style="font-family:'Helvetica';font-size:99.99px;fill:#000000">Diabetes, unknown</text>
	<text x="2468.32" y="2686.46" style="font-family:'Helvetica';font-size:99.99px;fill:#000000">No comborbidity</text>
	<text x="1980.00" y="2213.60" style="font-family:'Helvetica';font-size:99.99px;fill:#000000" text-anchor="middle">Age (years)</text>
</svg>
