<?xml version="1.0" encoding="UTF-8" standalone="no"?>
<!-- This is a Stata 16.1 generated SVG file (http://www.stata.com) -->

<svg version="1.1" width="5.50in" height="4.00in" viewBox="0 0 3960 2880" xmlns="http://www.w3.org/2000/svg" xmlns:xlink="http://www.w3.org/1999/xlink">
	<desc>Stata Graph - Graph</desc>
	<rect x="0" y="0" width="3960" height="2880" style="fill:#EAF2F3;stroke:none"/>
	<rect x="0.00" y="0.00" width="3959.88" height="2880.00" style="fill:#EAF2F3"/>
	<rect x="2.88" y="2.88" width="3954.12" height="2874.24" style="fill:none;stroke:#EAF2F3;stroke-width:5.76"/>
	<rect x="390.80" y="100.86" width="3468.22" height="2388.33" style="fill:#FFFFFF"/>
	<rect x="393.68" y="103.74" width="3462.46" height="2382.57" style="fill:none;stroke:#FFFFFF;stroke-width:5.76"/>
	<line x1="390.80" y1="2244.52" x2="3859.02" y2="2244.52" style="stroke:#EAF2F3;stroke-width:8.64"/>
	<line x1="390.80" y1="1724.51" x2="3859.02" y2="1724.51" style="stroke:#EAF2F3;stroke-width:8.64"/>
	<line x1="390.80" y1="1204.37" x2="3859.02" y2="1204.37" style="stroke:#EAF2F3;stroke-width:8.64"/>
	<line x1="390.80" y1="684.24" x2="3859.02" y2="684.24" style="stroke:#EAF2F3;stroke-width:8.64"/>
	<line x1="390.80" y1="164.22" x2="3859.02" y2="164.22" style="stroke:#EAF2F3;stroke-width:8.64"/>
	<line x1="390.80" y1="1204.37" x2="448.35" y2="1204.37" style="stroke:#C10534;stroke-width:8.64"/>
	<line x1="477.18" y1="1204.37" x2="534.72" y2="1204.37" style="stroke:#C10534;stroke-width:8.64"/>
	<line x1="563.56" y1="1204.37" x2="621.23" y2="1204.37" style="stroke:#C10534;stroke-width:8.64"/>
	<line x1="649.93" y1="1204.37" x2="707.60" y2="1204.37" style="stroke:#C10534;stroke-width:8.64"/>
	<line x1="736.44" y1="1204.37" x2="793.98" y2="1204.37" style="stroke:#C10534;stroke-width:8.64"/>
	<line x1="822.81" y1="1204.37" x2="880.36" y2="1204.37" style="stroke:#C10534;stroke-width:8.64"/>
	<line x1="909.19" y1="1204.37" x2="966.74" y2="1204.37" style="stroke:#C10534;stroke-width:8.64"/>
	<line x1="995.57" y1="1204.37" x2="1053.11" y2="1204.37" style="stroke:#C10534;stroke-width:8.64"/>
	<line x1="1081.95" y1="1204.37" x2="1139.49" y2="1204.37" style="stroke:#C10534;stroke-width:8.64"/>
	<line x1="1168.32" y1="1204.37" x2="1225.87" y2="1204.37" style="stroke:#C10534;stroke-width:8.64"/>
	<line x1="1254.70" y1="1204.37" x2="1312.24" y2="1204.37" style="stroke:#C10534;stroke-width:8.64"/>
	<line x1="1341.08" y1="1204.37" x2="1398.62" y2="1204.37" style="stroke:#C10534;stroke-width:8.64"/>
	<line x1="1427.46" y1="1204.37" x2="1485.00" y2="1204.37" style="stroke:#C10534;stroke-width:8.64"/>
	<line x1="1513.83" y1="1204.37" x2="1571.50" y2="1204.37" style="stroke:#C10534;stroke-width:8.64"/>
	<line x1="1600.21" y1="1204.37" x2="1657.88" y2="1204.37" style="stroke:#C10534;stroke-width:8.64"/>
	<line x1="1686.71" y1="1204.37" x2="1744.26" y2="1204.37" style="stroke:#C10534;stroke-width:8.64"/>
	<line x1="1773.09" y1="1204.37" x2="1830.63" y2="1204.37" style="stroke:#C10534;stroke-width:8.64"/>
	<line x1="1859.47" y1="1204.37" x2="1917.01" y2="1204.37" style="stroke:#C10534;stroke-width:8.64"/>
	<line x1="1945.85" y1="1204.37" x2="2003.39" y2="1204.37" style="stroke:#C10534;stroke-width:8.64"/>
	<line x1="2032.22" y1="1204.37" x2="2089.77" y2="1204.37" style="stroke:#C10534;stroke-width:8.64"/>
	<line x1="2118.60" y1="1204.37" x2="2176.14" y2="1204.37" style="stroke:#C10534;stroke-width:8.64"/>
	<line x1="2204.98" y1="1204.37" x2="2262.52" y2="1204.37" style="stroke:#C10534;stroke-width:8.64"/>
	<line x1="2291.36" y1="1204.37" x2="2348.90" y2="1204.37" style="stroke:#C10534;stroke-width:8.64"/>
	<line x1="2377.73" y1="1204.37" x2="2435.40" y2="1204.37" style="stroke:#C10534;stroke-width:8.64"/>
	<line x1="2464.11" y1="1204.37" x2="2521.78" y2="1204.37" style="stroke:#C10534;stroke-width:8.64"/>
	<line x1="2550.49" y1="1204.37" x2="2608.16" y2="1204.37" style="stroke:#C10534;stroke-width:8.64"/>
	<line x1="2636.99" y1="1204.37" x2="2694.53" y2="1204.37" style="stroke:#C10534;stroke-width:8.64"/>
	<line x1="2723.37" y1="1204.37" x2="2780.91" y2="1204.37" style="stroke:#C10534;stroke-width:8.64"/>
	<line x1="2809.74" y1="1204.37" x2="2867.29" y2="1204.37" style="stroke:#C10534;stroke-width:8.64"/>
	<line x1="2896.12" y1="1204.37" x2="2953.66" y2="1204.37" style="stroke:#C10534;stroke-width:8.64"/>
	<line x1="2982.50" y1="1204.37" x2="3040.04" y2="1204.37" style="stroke:#C10534;stroke-width:8.64"/>
	<line x1="3068.88" y1="1204.37" x2="3126.42" y2="1204.37" style="stroke:#C10534;stroke-width:8.64"/>
	<line x1="3155.25" y1="1204.37" x2="3212.80" y2="1204.37" style="stroke:#C10534;stroke-width:8.64"/>
	<line x1="3241.63" y1="1204.37" x2="3299.18" y2="1204.37" style="stroke:#C10534;stroke-width:8.64"/>
	<line x1="3328.01" y1="1204.37" x2="3385.68" y2="1204.37" style="stroke:#C10534;stroke-width:8.64"/>
	<line x1="3414.39" y1="1204.37" x2="3472.05" y2="1204.37" style="stroke:#C10534;stroke-width:8.64"/>
	<line x1="3500.76" y1="1204.37" x2="3558.43" y2="1204.37" style="stroke:#C10534;stroke-width:8.64"/>
	<line x1="3587.26" y1="1204.37" x2="3644.81" y2="1204.37" style="stroke:#C10534;stroke-width:8.64"/>
	<line x1="3673.64" y1="1204.37" x2="3731.19" y2="1204.37" style="stroke:#C10534;stroke-width:8.64"/>
	<line x1="3760.02" y1="1204.37" x2="3817.56" y2="1204.37" style="stroke:#C10534;stroke-width:8.64"/>
	<line x1="3846.40" y1="1204.37" x2="3859.02" y2="1204.37" style="stroke:#C10534;stroke-width:8.64"/>
	<path d=" M454.04 2425.95 L492.52 2393.28 L530.89 2360.61 L569.25 2327.93 L607.74 2295.39 L646.10 2262.72 L684.59 2230.17 L722.95 2197.62 L761.31 2165.20 L799.80 2132.77 L838.16 2100.60 L876.52 2068.42 L915.01 2036.49 L953.37 2004.69 L991.86 1973.01 L1030.22 1941.70 L1068.58 1910.51 L1107.07 1879.57 L1145.43 1848.88 L1183.79 1818.56 L1222.28 1788.49 L1260.64 1758.67 L1299.13 1729.34 L1337.49 1700.25 L1375.85 1671.54 L1414.34 1643.20 L1452.70 1615.11 L1491.06 1587.39 L1529.55 1560.04 L1567.91 1532.94 L1606.40 1506.08 L1644.76 1479.60 L1683.12 1453.37 L1721.61 1427.38 L1759.97 1401.76 L1798.34 1376.27 L1836.82 1351.02 L1875.18 1326.15 L1913.67 1301.40 L1952.03 1276.77 L1990.39 1252.51 L2028.88 1228.38 L2067.24 1204.37 L2105.61 1180.74 L2144.09 1157.10 L2182.45 1133.71 L2220.94 1110.44 L2259.30 1087.30 L2297.67 1064.41 L2336.15 1041.51 L2374.51 1018.87 L2412.88 996.22 L2451.36 973.70 L2489.73 951.42 L2528.21 929.02 L2566.57 906.87 L2604.94 884.72 L2643.42 862.69 L2681.79 840.66 L2720.15 818.76 L2758.64 796.73 L2797.00 774.95 L2835.48 753.04 L2873.85 731.14 L2912.21 709.36 L2950.70 687.45 L2989.06 665.67 L3027.42 643.89 L3065.91 621.99 L3104.27 600.21 L3142.76 578.30 L3181.12 556.52 L3219.48 534.62 L3257.97 512.84 L3296.33 491.06 L3334.69 469.15 L3373.18 447.37 L3411.54 425.47 L3450.03 403.69 L3488.39 381.78 L3526.75 360.00 L3565.24 338.22 L3603.60 316.31 L3641.96 294.53 L3680.45 272.63 L3718.81 250.85 L3757.30 228.94 L3795.66 207.16" stroke-linejoin="round" style="fill:none;stroke:#1A476F;stroke-width:8.64"/>
	<line x1="390.80" y1="2489.19" x2="390.80" y2="100.86" style="stroke:#000000;stroke-width:5.76"/>
	<line x1="390.80" y1="2244.52" x2="350.83" y2="2244.52" style="stroke:#000000;stroke-width:5.76"/>
	<text x="300.72" y="2244.52" style="font-family:'Helvetica';font-size:99.99px;fill:#000000" transform="rotate(-90 300.72,2244.52)" text-anchor="middle">-4</text>
	<line x1="390.80" y1="1724.51" x2="350.83" y2="1724.51" style="stroke:#000000;stroke-width:5.76"/>
	<text x="300.72" y="1724.51" style="font-family:'Helvetica';font-size:99.99px;fill:#000000" transform="rotate(-90 300.72,1724.51)" text-anchor="middle">-2</text>
	<line x1="390.80" y1="1204.37" x2="350.83" y2="1204.37" style="stroke:#000000;stroke-width:5.76"/>
	<text x="300.72" y="1204.37" style="font-family:'Helvetica';font-size:99.99px;fill:#000000" transform="rotate(-90 300.72,1204.37)" text-anchor="middle">0</text>
	<line x1="390.80" y1="684.24" x2="350.83" y2="684.24" style="stroke:#000000;stroke-width:5.76"/>
	<text x="300.72" y="684.24" style="font-family:'Helvetica';font-size:99.99px;fill:#000000" transform="rotate(-90 300.72,684.24)" text-anchor="middle">2</text>
	<line x1="390.80" y1="164.22" x2="350.83" y2="164.22" style="stroke:#000000;stroke-width:5.76"/>
	<text x="300.72" y="164.22" style="font-family:'Helvetica';font-size:99.99px;fill:#000000" transform="rotate(-90 300.72,164.22)" text-anchor="middle">4</text>
	<text x="190.71" y="1294.96" style="font-family:'Helvetica';font-size:99.99px;fill:#000000" transform="rotate(-90 190.71,1294.96)" text-anchor="middle">Log hazard ratio (reference age 60 years)</text>
	<line x1="390.80" y1="2489.19" x2="3859.02" y2="2489.19" style="stroke:#000000;stroke-width:5.76"/>
	<line x1="531.01" y1="2489.19" x2="531.01" y2="2529.16" style="stroke:#000000;stroke-width:5.76"/>
	<text x="531.01" y="2619.14" style="font-family:'Helvetica';font-size:99.99px;fill:#000000" text-anchor="middle">20</text>
	<line x1="1299.13" y1="2489.19" x2="1299.13" y2="2529.16" style="stroke:#000000;stroke-width:5.76"/>
	<text x="1299.13" y="2619.14" style="font-family:'Helvetica';font-size:99.99px;fill:#000000" text-anchor="middle">40</text>
	<line x1="2067.37" y1="2489.19" x2="2067.37" y2="2529.16" style="stroke:#000000;stroke-width:5.76"/>
	<text x="2067.37" y="2619.14" style="font-family:'Helvetica';font-size:99.99px;fill:#000000" text-anchor="middle">60</text>
	<line x1="2835.48" y1="2489.19" x2="2835.48" y2="2529.16" style="stroke:#000000;stroke-width:5.76"/>
	<text x="2835.48" y="2619.14" style="font-family:'Helvetica';font-size:99.99px;fill:#000000" text-anchor="middle">80</text>
	<line x1="3603.72" y1="2489.19" x2="3603.72" y2="2529.16" style="stroke:#000000;stroke-width:5.76"/>
	<text x="3603.72" y="2619.14" style="font-family:'Helvetica';font-size:99.99px;fill:#000000" text-anchor="middle">100</text>
	<text x="2124.91" y="2729.16" style="font-family:'Helvetica';font-size:99.99px;fill:#000000" text-anchor="middle">Age in years</text>
</svg>
