<?xml version="1.0" encoding="UTF-8" standalone="no"?>
<!-- This is a Stata 16.1 generated SVG file (http://www.stata.com) -->

<svg version="1.1" width="5.50in" height="4.00in" viewBox="0 0 3960 2880" xmlns="http://www.w3.org/2000/svg" xmlns:xlink="http://www.w3.org/1999/xlink">
	<desc>Stata Graph - Graph</desc>
	<rect x="0" y="0" width="3960" height="2880" style="fill:#EAF2F3;stroke:none"/>
	<rect x="0.00" y="0.00" width="3959.88" height="2880.00" style="fill:#EAF2F3"/>
	<rect x="2.88" y="2.88" width="3954.12" height="2874.24" style="fill:none;stroke:#EAF2F3;stroke-width:5.76"/>
	<rect x="390.80" y="100.86" width="3468.22" height="2388.33" style="fill:#FFFFFF"/>
	<rect x="393.68" y="103.74" width="3462.46" height="2382.57" style="fill:none;stroke:#FFFFFF;stroke-width:5.76"/>
	<line x1="390.80" y1="2366.67" x2="3859.02" y2="2366.67" style="stroke:#EAF2F3;stroke-width:8.64"/>
	<line x1="390.80" y1="1851.48" x2="3859.02" y2="1851.48" style="stroke:#EAF2F3;stroke-width:8.64"/>
	<line x1="390.80" y1="1336.29" x2="3859.02" y2="1336.29" style="stroke:#EAF2F3;stroke-width:8.64"/>
	<line x1="390.80" y1="821.11" x2="3859.02" y2="821.11" style="stroke:#EAF2F3;stroke-width:8.64"/>
	<line x1="390.80" y1="305.92" x2="3859.02" y2="305.92" style="stroke:#EAF2F3;stroke-width:8.64"/>
	<line x1="390.80" y1="666.04" x2="3859.02" y2="666.04" style="stroke:#EAF2F3;stroke-width:8.64"/>
	<line x1="390.80" y1="-1284.57" x2="448.35" y2="-1284.57" style="stroke:#C10534;stroke-width:8.64"/>
	<line x1="477.18" y1="-1284.57" x2="534.72" y2="-1284.57" style="stroke:#C10534;stroke-width:8.64"/>
	<line x1="563.56" y1="-1284.57" x2="621.23" y2="-1284.57" style="stroke:#C10534;stroke-width:8.64"/>
	<line x1="649.93" y1="-1284.57" x2="707.60" y2="-1284.57" style="stroke:#C10534;stroke-width:8.64"/>
	<line x1="736.44" y1="-1284.57" x2="793.98" y2="-1284.57" style="stroke:#C10534;stroke-width:8.64"/>
	<line x1="822.81" y1="-1284.57" x2="880.36" y2="-1284.57" style="stroke:#C10534;stroke-width:8.64"/>
	<line x1="909.19" y1="-1284.57" x2="966.74" y2="-1284.57" style="stroke:#C10534;stroke-width:8.64"/>
	<line x1="995.57" y1="-1284.57" x2="1053.11" y2="-1284.57" style="stroke:#C10534;stroke-width:8.64"/>
	<line x1="1081.95" y1="-1284.57" x2="1139.49" y2="-1284.57" style="stroke:#C10534;stroke-width:8.64"/>
	<line x1="1168.32" y1="-1284.57" x2="1225.87" y2="-1284.57" style="stroke:#C10534;stroke-width:8.64"/>
	<line x1="1254.70" y1="-1284.57" x2="1312.24" y2="-1284.57" style="stroke:#C10534;stroke-width:8.64"/>
	<line x1="1341.08" y1="-1284.57" x2="1398.62" y2="-1284.57" style="stroke:#C10534;stroke-width:8.64"/>
	<line x1="1427.46" y1="-1284.57" x2="1485.00" y2="-1284.57" style="stroke:#C10534;stroke-width:8.64"/>
	<line x1="1513.83" y1="-1284.57" x2="1571.50" y2="-1284.57" style="stroke:#C10534;stroke-width:8.64"/>
	<line x1="1600.21" y1="-1284.57" x2="1657.88" y2="-1284.57" style="stroke:#C10534;stroke-width:8.64"/>
	<line x1="1686.71" y1="-1284.57" x2="1744.26" y2="-1284.57" style="stroke:#C10534;stroke-width:8.64"/>
	<line x1="1773.09" y1="-1284.57" x2="1830.63" y2="-1284.57" style="stroke:#C10534;stroke-width:8.64"/>
	<line x1="1859.47" y1="-1284.57" x2="1917.01" y2="-1284.57" style="stroke:#C10534;stroke-width:8.64"/>
	<line x1="1945.85" y1="-1284.57" x2="2003.39" y2="-1284.57" style="stroke:#C10534;stroke-width:8.64"/>
	<line x1="2032.22" y1="-1284.57" x2="2089.77" y2="-1284.57" style="stroke:#C10534;stroke-width:8.64"/>
	<line x1="2118.60" y1="-1284.57" x2="2176.14" y2="-1284.57" style="stroke:#C10534;stroke-width:8.64"/>
	<line x1="2204.98" y1="-1284.57" x2="2262.52" y2="-1284.57" style="stroke:#C10534;stroke-width:8.64"/>
	<line x1="2291.36" y1="-1284.57" x2="2348.90" y2="-1284.57" style="stroke:#C10534;stroke-width:8.64"/>
	<line x1="2377.73" y1="-1284.57" x2="2435.40" y2="-1284.57" style="stroke:#C10534;stroke-width:8.64"/>
	<line x1="2464.11" y1="-1284.57" x2="2521.78" y2="-1284.57" style="stroke:#C10534;stroke-width:8.64"/>
	<line x1="2550.49" y1="-1284.57" x2="2608.16" y2="-1284.57" style="stroke:#C10534;stroke-width:8.64"/>
	<line x1="2636.99" y1="-1284.57" x2="2694.53" y2="-1284.57" style="stroke:#C10534;stroke-width:8.64"/>
	<line x1="2723.37" y1="-1284.57" x2="2780.91" y2="-1284.57" style="stroke:#C10534;stroke-width:8.64"/>
	<line x1="2809.74" y1="-1284.57" x2="2867.29" y2="-1284.57" style="stroke:#C10534;stroke-width:8.64"/>
	<line x1="2896.12" y1="-1284.57" x2="2953.66" y2="-1284.57" style="stroke:#C10534;stroke-width:8.64"/>
	<line x1="2982.50" y1="-1284.57" x2="3040.04" y2="-1284.57" style="stroke:#C10534;stroke-width:8.64"/>
	<line x1="3068.88" y1="-1284.57" x2="3126.42" y2="-1284.57" style="stroke:#C10534;stroke-width:8.64"/>
	<line x1="3155.25" y1="-1284.57" x2="3212.80" y2="-1284.57" style="stroke:#C10534;stroke-width:8.64"/>
	<line x1="3241.63" y1="-1284.57" x2="3299.18" y2="-1284.57" style="stroke:#C10534;stroke-width:8.64"/>
	<line x1="3328.01" y1="-1284.57" x2="3385.68" y2="-1284.57" style="stroke:#C10534;stroke-width:8.64"/>
	<line x1="3414.39" y1="-1284.57" x2="3472.05" y2="-1284.57" style="stroke:#C10534;stroke-width:8.64"/>
	<line x1="3500.76" y1="-1284.57" x2="3558.43" y2="-1284.57" style="stroke:#C10534;stroke-width:8.64"/>
	<line x1="3587.26" y1="-1284.57" x2="3644.81" y2="-1284.57" style="stroke:#C10534;stroke-width:8.64"/>
	<line x1="3673.64" y1="-1284.57" x2="3731.19" y2="-1284.57" style="stroke:#C10534;stroke-width:8.64"/>
	<line x1="3760.02" y1="-1284.57" x2="3817.56" y2="-1284.57" style="stroke:#C10534;stroke-width:8.64"/>
	<line x1="3846.40" y1="-1284.57" x2="3859.02" y2="-1284.57" style="stroke:#C10534;stroke-width:8.64"/>
	<path d=" M454.04 2425.95 L492.52 2390.18 L530.89 2354.54 L569.25 2318.90 L607.74 2283.26 L646.10 2247.62 L684.59 2212.10 L722.95 2176.58 L761.31 2141.44 L799.80 2106.41 L838.16 2071.64 L876.52 2037.24 L915.01 2003.08 L953.37 1969.42 L991.86 1936.13 L1030.22 1903.46 L1068.58 1871.16 L1107.07 1839.48 L1145.43 1808.42 L1183.79 1778.10 L1222.28 1748.39 L1260.64 1719.44 L1299.13 1691.22 L1337.49 1663.87 L1375.85 1637.39 L1414.34 1611.52 L1452.70 1586.28 L1491.06 1561.77 L1529.55 1537.77 L1567.91 1514.13 L1606.40 1490.99 L1644.76 1468.34 L1683.12 1445.82 L1721.61 1423.66 L1759.97 1401.64 L1798.34 1379.86 L1836.82 1358.07 L1875.18 1336.29 L1913.67 1314.51 L1952.03 1292.73 L1990.39 1270.70 L2028.88 1248.55 L2067.24 1226.15 L2105.61 1203.75 L2144.09 1181.23 L2182.45 1158.58 L2220.94 1135.69 L2259.30 1112.79 L2297.67 1089.78 L2336.15 1066.76 L2374.51 1043.49 L2412.88 1020.23 L2451.36 996.84 L2489.73 973.45 L2528.21 949.93 L2566.57 926.30 L2604.94 902.78 L2643.42 879.02 L2681.79 855.39 L2720.15 831.63 L2758.64 807.87 L2797.00 783.98 L2835.48 760.22 L2873.85 736.34 L2912.21 712.57 L2950.70 688.69 L2989.06 664.81 L3027.42 641.05 L3065.91 617.16 L3104.27 593.28 L3142.76 569.52 L3181.12 545.63 L3219.48 521.87 L3257.97 497.99 L3296.33 474.10 L3334.69 450.34 L3373.18 426.46 L3411.54 402.57 L3450.03 378.81 L3488.39 354.93 L3526.75 331.04 L3565.24 307.28 L3603.60 283.40 L3641.96 259.64 L3680.45 235.75 L3718.81 211.87 L3757.30 188.11 L3795.66 164.22" stroke-linejoin="round" style="fill:none;stroke:#1A476F;stroke-width:8.64"/>
	<line x1="390.80" y1="2489.19" x2="390.80" y2="100.86" style="stroke:#000000;stroke-width:5.76"/>
	<line x1="390.80" y1="2366.67" x2="350.83" y2="2366.67" style="stroke:#000000;stroke-width:5.76"/>
	<text x="300.72" y="2366.67" style="font-family:'Helvetica';font-size:99.99px;fill:#000000" transform="rotate(-90 300.72,2366.67)" text-anchor="middle">.01</text>
	<line x1="390.80" y1="1851.48" x2="350.83" y2="1851.48" style="stroke:#000000;stroke-width:5.76"/>
	<text x="300.72" y="1851.48" style="font-family:'Helvetica';font-size:99.99px;fill:#000000" transform="rotate(-90 300.72,1851.48)" text-anchor="middle">.1</text>
	<line x1="390.80" y1="1336.29" x2="350.83" y2="1336.29" style="stroke:#000000;stroke-width:5.76"/>
	<text x="300.72" y="1336.29" style="font-family:'Helvetica';font-size:99.99px;fill:#000000" transform="rotate(-90 300.72,1336.29)" text-anchor="middle">1</text>
	<line x1="390.80" y1="821.11" x2="350.83" y2="821.11" style="stroke:#000000;stroke-width:5.76"/>
	<text x="300.72" y="821.11" style="font-family:'Helvetica';font-size:99.99px;fill:#000000" transform="rotate(-90 300.72,821.11)" text-anchor="middle">10</text>
	<line x1="390.80" y1="305.92" x2="350.83" y2="305.92" style="stroke:#000000;stroke-width:5.76"/>
	<text x="300.72" y="305.92" style="font-family:'Helvetica';font-size:99.99px;fill:#000000" transform="rotate(-90 300.72,305.92)" text-anchor="middle">100</text>
	<line x1="390.80" y1="666.04" x2="350.83" y2="666.04" style="stroke:#000000;stroke-width:5.76"/>
	<text x="300.72" y="666.04" style="font-family:'Helvetica';font-size:99.99px;fill:#000000" transform="rotate(-90 300.72,666.04)" text-anchor="middle">20</text>
	<text x="190.71" y="1294.96" style="font-family:'Helvetica';font-size:99.99px;fill:#000000" transform="rotate(-90 190.71,1294.96)" text-anchor="middle">Hazard ratio compared to age 55 years (log scale)</text>
	<line x1="390.80" y1="2489.19" x2="3859.02" y2="2489.19" style="stroke:#000000;stroke-width:5.76"/>
	<line x1="531.01" y1="2489.19" x2="531.01" y2="2529.16" style="stroke:#000000;stroke-width:5.76"/>
	<text x="531.01" y="2619.14" style="font-family:'Helvetica';font-size:99.99px;fill:#000000" text-anchor="middle">20</text>
	<line x1="1299.13" y1="2489.19" x2="1299.13" y2="2529.16" style="stroke:#000000;stroke-width:5.76"/>
	<text x="1299.13" y="2619.14" style="font-family:'Helvetica';font-size:99.99px;fill:#000000" text-anchor="middle">40</text>
	<line x1="2067.37" y1="2489.19" x2="2067.37" y2="2529.16" style="stroke:#000000;stroke-width:5.76"/>
	<text x="2067.37" y="2619.14" style="font-family:'Helvetica';font-size:99.99px;fill:#000000" text-anchor="middle">60</text>
	<line x1="2835.48" y1="2489.19" x2="2835.48" y2="2529.16" style="stroke:#000000;stroke-width:5.76"/>
	<text x="2835.48" y="2619.14" style="font-family:'Helvetica';font-size:99.99px;fill:#000000" text-anchor="middle">80</text>
	<line x1="3603.72" y1="2489.19" x2="3603.72" y2="2529.16" style="stroke:#000000;stroke-width:5.76"/>
	<text x="3603.72" y="2619.14" style="font-family:'Helvetica';font-size:99.99px;fill:#000000" text-anchor="middle">100</text>
	<text x="2124.91" y="2729.16" style="font-family:'Helvetica';font-size:99.99px;fill:#000000" text-anchor="middle">Age in years</text>
</svg>
