<?xml version="1.0" encoding="UTF-8" standalone="no"?>
<!-- This is a Stata 16.1 generated SVG file (http://www.stata.com) -->

<svg version="1.1" width="5.50in" height="4.00in" viewBox="0 0 3960 2880" xmlns="http://www.w3.org/2000/svg" xmlns:xlink="http://www.w3.org/1999/xlink">
	<desc>Stata Graph - Graph</desc>
	<rect x="0" y="0" width="3960" height="2880" style="fill:#EAF2F3;stroke:none"/>
	<rect x="0.00" y="0.00" width="3959.88" height="2880.00" style="fill:#EAF2F3"/>
	<rect x="2.88" y="2.88" width="3954.12" height="2874.24" style="fill:none;stroke:#EAF2F3;stroke-width:5.76"/>
	<rect x="390.80" y="100.86" width="3468.22" height="2388.33" style="fill:#FFFFFF"/>
	<rect x="393.68" y="103.74" width="3462.46" height="2382.57" style="fill:none;stroke:#FFFFFF;stroke-width:5.76"/>
	<line x1="390.80" y1="2371.37" x2="3859.02" y2="2371.37" style="stroke:#EAF2F3;stroke-width:8.64"/>
	<line x1="390.80" y1="1854.95" x2="3859.02" y2="1854.95" style="stroke:#EAF2F3;stroke-width:8.64"/>
	<line x1="390.80" y1="1338.52" x2="3859.02" y2="1338.52" style="stroke:#EAF2F3;stroke-width:8.64"/>
	<line x1="390.80" y1="822.22" x2="3859.02" y2="822.22" style="stroke:#EAF2F3;stroke-width:8.64"/>
	<line x1="390.80" y1="305.80" x2="3859.02" y2="305.80" style="stroke:#EAF2F3;stroke-width:8.64"/>
	<line x1="390.80" y1="666.79" x2="3859.02" y2="666.79" style="stroke:#EAF2F3;stroke-width:8.64"/>
	<line x1="390.80" y1="-895.61" x2="448.35" y2="-895.61" style="stroke:#C10534;stroke-width:8.64"/>
	<line x1="477.18" y1="-895.61" x2="534.72" y2="-895.61" style="stroke:#C10534;stroke-width:8.64"/>
	<line x1="563.56" y1="-895.61" x2="621.23" y2="-895.61" style="stroke:#C10534;stroke-width:8.64"/>
	<line x1="649.93" y1="-895.61" x2="707.60" y2="-895.61" style="stroke:#C10534;stroke-width:8.64"/>
	<line x1="736.44" y1="-895.61" x2="793.98" y2="-895.61" style="stroke:#C10534;stroke-width:8.64"/>
	<line x1="822.81" y1="-895.61" x2="880.36" y2="-895.61" style="stroke:#C10534;stroke-width:8.64"/>
	<line x1="909.19" y1="-895.61" x2="966.74" y2="-895.61" style="stroke:#C10534;stroke-width:8.64"/>
	<line x1="995.57" y1="-895.61" x2="1053.11" y2="-895.61" style="stroke:#C10534;stroke-width:8.64"/>
	<line x1="1081.95" y1="-895.61" x2="1139.49" y2="-895.61" style="stroke:#C10534;stroke-width:8.64"/>
	<line x1="1168.32" y1="-895.61" x2="1225.87" y2="-895.61" style="stroke:#C10534;stroke-width:8.64"/>
	<line x1="1254.70" y1="-895.61" x2="1312.24" y2="-895.61" style="stroke:#C10534;stroke-width:8.64"/>
	<line x1="1341.08" y1="-895.61" x2="1398.62" y2="-895.61" style="stroke:#C10534;stroke-width:8.64"/>
	<line x1="1427.46" y1="-895.61" x2="1485.00" y2="-895.61" style="stroke:#C10534;stroke-width:8.64"/>
	<line x1="1513.83" y1="-895.61" x2="1571.50" y2="-895.61" style="stroke:#C10534;stroke-width:8.64"/>
	<line x1="1600.21" y1="-895.61" x2="1657.88" y2="-895.61" style="stroke:#C10534;stroke-width:8.64"/>
	<line x1="1686.71" y1="-895.61" x2="1744.26" y2="-895.61" style="stroke:#C10534;stroke-width:8.64"/>
	<line x1="1773.09" y1="-895.61" x2="1830.63" y2="-895.61" style="stroke:#C10534;stroke-width:8.64"/>
	<line x1="1859.47" y1="-895.61" x2="1917.01" y2="-895.61" style="stroke:#C10534;stroke-width:8.64"/>
	<line x1="1945.85" y1="-895.61" x2="2003.39" y2="-895.61" style="stroke:#C10534;stroke-width:8.64"/>
	<line x1="2032.22" y1="-895.61" x2="2089.77" y2="-895.61" style="stroke:#C10534;stroke-width:8.64"/>
	<line x1="2118.60" y1="-895.61" x2="2176.14" y2="-895.61" style="stroke:#C10534;stroke-width:8.64"/>
	<line x1="2204.98" y1="-895.61" x2="2262.52" y2="-895.61" style="stroke:#C10534;stroke-width:8.64"/>
	<line x1="2291.36" y1="-895.61" x2="2348.90" y2="-895.61" style="stroke:#C10534;stroke-width:8.64"/>
	<line x1="2377.73" y1="-895.61" x2="2435.40" y2="-895.61" style="stroke:#C10534;stroke-width:8.64"/>
	<line x1="2464.11" y1="-895.61" x2="2521.78" y2="-895.61" style="stroke:#C10534;stroke-width:8.64"/>
	<line x1="2550.49" y1="-895.61" x2="2608.16" y2="-895.61" style="stroke:#C10534;stroke-width:8.64"/>
	<line x1="2636.99" y1="-895.61" x2="2694.53" y2="-895.61" style="stroke:#C10534;stroke-width:8.64"/>
	<line x1="2723.37" y1="-895.61" x2="2780.91" y2="-895.61" style="stroke:#C10534;stroke-width:8.64"/>
	<line x1="2809.74" y1="-895.61" x2="2867.29" y2="-895.61" style="stroke:#C10534;stroke-width:8.64"/>
	<line x1="2896.12" y1="-895.61" x2="2953.66" y2="-895.61" style="stroke:#C10534;stroke-width:8.64"/>
	<line x1="2982.50" y1="-895.61" x2="3040.04" y2="-895.61" style="stroke:#C10534;stroke-width:8.64"/>
	<line x1="3068.88" y1="-895.61" x2="3126.42" y2="-895.61" style="stroke:#C10534;stroke-width:8.64"/>
	<line x1="3155.25" y1="-895.61" x2="3212.80" y2="-895.61" style="stroke:#C10534;stroke-width:8.64"/>
	<line x1="3241.63" y1="-895.61" x2="3299.18" y2="-895.61" style="stroke:#C10534;stroke-width:8.64"/>
	<line x1="3328.01" y1="-895.61" x2="3385.68" y2="-895.61" style="stroke:#C10534;stroke-width:8.64"/>
	<line x1="3414.39" y1="-895.61" x2="3472.05" y2="-895.61" style="stroke:#C10534;stroke-width:8.64"/>
	<line x1="3500.76" y1="-895.61" x2="3558.43" y2="-895.61" style="stroke:#C10534;stroke-width:8.64"/>
	<line x1="3587.26" y1="-895.61" x2="3644.81" y2="-895.61" style="stroke:#C10534;stroke-width:8.64"/>
	<line x1="3673.64" y1="-895.61" x2="3731.19" y2="-895.61" style="stroke:#C10534;stroke-width:8.64"/>
	<line x1="3760.02" y1="-895.61" x2="3817.56" y2="-895.61" style="stroke:#C10534;stroke-width:8.64"/>
	<line x1="3846.40" y1="-895.61" x2="3859.02" y2="-895.61" style="stroke:#C10534;stroke-width:8.64"/>
	<path d=" M454.04 2425.95 L492.52 2390.31 L530.89 2354.66 L569.25 2319.02 L607.74 2283.38 L646.10 2247.74 L684.59 2212.35 L722.95 2176.95 L761.31 2141.81 L799.80 2106.79 L838.16 2072.13 L876.52 2037.73 L915.01 2003.70 L953.37 1970.04 L991.86 1936.87 L1030.22 1904.08 L1068.58 1871.90 L1107.07 1840.34 L1145.43 1809.28 L1183.79 1778.96 L1222.28 1749.38 L1260.64 1720.55 L1299.13 1692.46 L1337.49 1665.11 L1375.85 1638.62 L1414.34 1612.88 L1452.70 1587.76 L1491.06 1563.26 L1529.55 1539.37 L1567.91 1515.86 L1606.40 1492.84 L1644.76 1470.20 L1683.12 1447.80 L1721.61 1425.77 L1759.97 1403.86 L1798.34 1381.96 L1836.82 1360.30 L1875.18 1338.65 L1913.67 1316.86 L1952.03 1295.08 L1990.39 1273.06 L2028.88 1250.90 L2067.24 1228.63 L2105.61 1206.23 L2144.09 1183.71 L2182.45 1160.94 L2220.94 1138.16 L2259.30 1115.27 L2297.67 1092.25 L2336.15 1069.11 L2374.51 1045.84 L2412.88 1022.45 L2451.36 999.06 L2489.73 975.68 L2528.21 952.04 L2566.57 928.40 L2604.94 904.76 L2643.42 881.00 L2681.79 857.24 L2720.15 833.48 L2758.64 809.60 L2797.00 785.71 L2835.48 761.83 L2873.85 737.94 L2912.21 714.06 L2950.70 690.18 L2989.06 666.29 L3027.42 642.41 L3065.91 618.40 L3104.27 594.51 L3142.76 570.63 L3181.12 546.74 L3219.48 522.86 L3257.97 498.85 L3296.33 474.97 L3334.69 451.08 L3373.18 427.20 L3411.54 403.31 L3450.03 379.43 L3488.39 355.42 L3526.75 331.54 L3565.24 307.65 L3603.60 283.77 L3641.96 259.88 L3680.45 236.00 L3718.81 211.99 L3757.30 188.11 L3795.66 164.22" stroke-linejoin="round" style="fill:none;stroke:#1A476F;stroke-width:8.64"/>
	<line x1="390.80" y1="2489.19" x2="390.80" y2="100.86" style="stroke:#000000;stroke-width:5.76"/>
	<line x1="390.80" y1="2371.37" x2="350.83" y2="2371.37" style="stroke:#000000;stroke-width:5.76"/>
	<text x="300.72" y="2371.37" style="font-family:'Helvetica';font-size:99.99px;fill:#000000" transform="rotate(-90 300.72,2371.37)" text-anchor="middle">.01</text>
	<line x1="390.80" y1="1854.95" x2="350.83" y2="1854.95" style="stroke:#000000;stroke-width:5.76"/>
	<text x="300.72" y="1854.95" style="font-family:'Helvetica';font-size:99.99px;fill:#000000" transform="rotate(-90 300.72,1854.95)" text-anchor="middle">.1</text>
	<line x1="390.80" y1="1338.52" x2="350.83" y2="1338.52" style="stroke:#000000;stroke-width:5.76"/>
	<text x="300.72" y="1338.52" style="font-family:'Helvetica';font-size:99.99px;fill:#000000" transform="rotate(-90 300.72,1338.52)" text-anchor="middle">1</text>
	<line x1="390.80" y1="822.22" x2="350.83" y2="822.22" style="stroke:#000000;stroke-width:5.76"/>
	<text x="300.72" y="822.22" style="font-family:'Helvetica';font-size:99.99px;fill:#000000" transform="rotate(-90 300.72,822.22)" text-anchor="middle">10</text>
	<line x1="390.80" y1="305.80" x2="350.83" y2="305.80" style="stroke:#000000;stroke-width:5.76"/>
	<text x="300.72" y="305.80" style="font-family:'Helvetica';font-size:99.99px;fill:#000000" transform="rotate(-90 300.72,305.80)" text-anchor="middle">100</text>
	<line x1="390.80" y1="666.79" x2="350.83" y2="666.79" style="stroke:#000000;stroke-width:5.76"/>
	<text x="300.72" y="666.79" style="font-family:'Helvetica';font-size:99.99px;fill:#000000" transform="rotate(-90 300.72,666.79)" text-anchor="middle">20</text>
	<text x="190.71" y="1294.96" style="font-family:'Helvetica';font-size:99.99px;fill:#000000" transform="rotate(-90 190.71,1294.96)" text-anchor="middle">Hazard ratio compared to age 55 years (log scale)</text>
	<line x1="390.80" y1="2489.19" x2="3859.02" y2="2489.19" style="stroke:#000000;stroke-width:5.76"/>
	<line x1="531.01" y1="2489.19" x2="531.01" y2="2529.16" style="stroke:#000000;stroke-width:5.76"/>
	<text x="531.01" y="2619.14" style="font-family:'Helvetica';font-size:99.99px;fill:#000000" text-anchor="middle">20</text>
	<line x1="1299.13" y1="2489.19" x2="1299.13" y2="2529.16" style="stroke:#000000;stroke-width:5.76"/>
	<text x="1299.13" y="2619.14" style="font-family:'Helvetica';font-size:99.99px;fill:#000000" text-anchor="middle">40</text>
	<line x1="2067.37" y1="2489.19" x2="2067.37" y2="2529.16" style="stroke:#000000;stroke-width:5.76"/>
	<text x="2067.37" y="2619.14" style="font-family:'Helvetica';font-size:99.99px;fill:#000000" text-anchor="middle">60</text>
	<line x1="2835.48" y1="2489.19" x2="2835.48" y2="2529.16" style="stroke:#000000;stroke-width:5.76"/>
	<text x="2835.48" y="2619.14" style="font-family:'Helvetica';font-size:99.99px;fill:#000000" text-anchor="middle">80</text>
	<line x1="3603.72" y1="2489.19" x2="3603.72" y2="2529.16" style="stroke:#000000;stroke-width:5.76"/>
	<text x="3603.72" y="2619.14" style="font-family:'Helvetica';font-size:99.99px;fill:#000000" text-anchor="middle">100</text>
	<text x="2124.91" y="2729.16" style="font-family:'Helvetica';font-size:99.99px;fill:#000000" text-anchor="middle">Age in years</text>
</svg>
