<?xml version="1.0" encoding="UTF-8" standalone="no"?>
<!-- This is a Stata 16.1 generated SVG file (http://www.stata.com) -->

<svg version="1.1" width="5.50in" height="4.00in" viewBox="0 0 3960 2880" xmlns="http://www.w3.org/2000/svg" xmlns:xlink="http://www.w3.org/1999/xlink">
	<desc>Stata Graph - Graph</desc>
	<rect x="0" y="0" width="3960" height="2880" style="fill:#EAF2F3;stroke:none"/>
	<rect x="0.00" y="0.00" width="3959.88" height="2880.00" style="fill:#EAF2F3"/>
	<rect x="2.88" y="2.88" width="3954.12" height="2874.24" style="fill:none;stroke:#EAF2F3;stroke-width:5.76"/>
	<rect x="390.80" y="100.86" width="3468.22" height="2388.33" style="fill:#FFFFFF"/>
	<rect x="393.68" y="103.74" width="3462.46" height="2382.57" style="fill:none;stroke:#FFFFFF;stroke-width:5.76"/>
	<line x1="390.80" y1="2235.74" x2="3859.02" y2="2235.74" style="stroke:#EAF2F3;stroke-width:8.64"/>
	<line x1="390.80" y1="1717.83" x2="3859.02" y2="1717.83" style="stroke:#EAF2F3;stroke-width:8.64"/>
	<line x1="390.80" y1="1199.92" x2="3859.02" y2="1199.92" style="stroke:#EAF2F3;stroke-width:8.64"/>
	<line x1="390.80" y1="682.01" x2="3859.02" y2="682.01" style="stroke:#EAF2F3;stroke-width:8.64"/>
	<line x1="390.80" y1="164.22" x2="3859.02" y2="164.22" style="stroke:#EAF2F3;stroke-width:8.64"/>
	<line x1="390.80" y1="1199.92" x2="448.35" y2="1199.92" style="stroke:#C10534;stroke-width:8.64"/>
	<line x1="477.18" y1="1199.92" x2="534.72" y2="1199.92" style="stroke:#C10534;stroke-width:8.64"/>
	<line x1="563.56" y1="1199.92" x2="621.23" y2="1199.92" style="stroke:#C10534;stroke-width:8.64"/>
	<line x1="649.93" y1="1199.92" x2="707.60" y2="1199.92" style="stroke:#C10534;stroke-width:8.64"/>
	<line x1="736.44" y1="1199.92" x2="793.98" y2="1199.92" style="stroke:#C10534;stroke-width:8.64"/>
	<line x1="822.81" y1="1199.92" x2="880.36" y2="1199.92" style="stroke:#C10534;stroke-width:8.64"/>
	<line x1="909.19" y1="1199.92" x2="966.74" y2="1199.92" style="stroke:#C10534;stroke-width:8.64"/>
	<line x1="995.57" y1="1199.92" x2="1053.11" y2="1199.92" style="stroke:#C10534;stroke-width:8.64"/>
	<line x1="1081.95" y1="1199.92" x2="1139.49" y2="1199.92" style="stroke:#C10534;stroke-width:8.64"/>
	<line x1="1168.32" y1="1199.92" x2="1225.87" y2="1199.92" style="stroke:#C10534;stroke-width:8.64"/>
	<line x1="1254.70" y1="1199.92" x2="1312.24" y2="1199.92" style="stroke:#C10534;stroke-width:8.64"/>
	<line x1="1341.08" y1="1199.92" x2="1398.62" y2="1199.92" style="stroke:#C10534;stroke-width:8.64"/>
	<line x1="1427.46" y1="1199.92" x2="1485.00" y2="1199.92" style="stroke:#C10534;stroke-width:8.64"/>
	<line x1="1513.83" y1="1199.92" x2="1571.50" y2="1199.92" style="stroke:#C10534;stroke-width:8.64"/>
	<line x1="1600.21" y1="1199.92" x2="1657.88" y2="1199.92" style="stroke:#C10534;stroke-width:8.64"/>
	<line x1="1686.71" y1="1199.92" x2="1744.26" y2="1199.92" style="stroke:#C10534;stroke-width:8.64"/>
	<line x1="1773.09" y1="1199.92" x2="1830.63" y2="1199.92" style="stroke:#C10534;stroke-width:8.64"/>
	<line x1="1859.47" y1="1199.92" x2="1917.01" y2="1199.92" style="stroke:#C10534;stroke-width:8.64"/>
	<line x1="1945.85" y1="1199.92" x2="2003.39" y2="1199.92" style="stroke:#C10534;stroke-width:8.64"/>
	<line x1="2032.22" y1="1199.92" x2="2089.77" y2="1199.92" style="stroke:#C10534;stroke-width:8.64"/>
	<line x1="2118.60" y1="1199.92" x2="2176.14" y2="1199.92" style="stroke:#C10534;stroke-width:8.64"/>
	<line x1="2204.98" y1="1199.92" x2="2262.52" y2="1199.92" style="stroke:#C10534;stroke-width:8.64"/>
	<line x1="2291.36" y1="1199.92" x2="2348.90" y2="1199.92" style="stroke:#C10534;stroke-width:8.64"/>
	<line x1="2377.73" y1="1199.92" x2="2435.40" y2="1199.92" style="stroke:#C10534;stroke-width:8.64"/>
	<line x1="2464.11" y1="1199.92" x2="2521.78" y2="1199.92" style="stroke:#C10534;stroke-width:8.64"/>
	<line x1="2550.49" y1="1199.92" x2="2608.16" y2="1199.92" style="stroke:#C10534;stroke-width:8.64"/>
	<line x1="2636.99" y1="1199.92" x2="2694.53" y2="1199.92" style="stroke:#C10534;stroke-width:8.64"/>
	<line x1="2723.37" y1="1199.92" x2="2780.91" y2="1199.92" style="stroke:#C10534;stroke-width:8.64"/>
	<line x1="2809.74" y1="1199.92" x2="2867.29" y2="1199.92" style="stroke:#C10534;stroke-width:8.64"/>
	<line x1="2896.12" y1="1199.92" x2="2953.66" y2="1199.92" style="stroke:#C10534;stroke-width:8.64"/>
	<line x1="2982.50" y1="1199.92" x2="3040.04" y2="1199.92" style="stroke:#C10534;stroke-width:8.64"/>
	<line x1="3068.88" y1="1199.92" x2="3126.42" y2="1199.92" style="stroke:#C10534;stroke-width:8.64"/>
	<line x1="3155.25" y1="1199.92" x2="3212.80" y2="1199.92" style="stroke:#C10534;stroke-width:8.64"/>
	<line x1="3241.63" y1="1199.92" x2="3299.18" y2="1199.92" style="stroke:#C10534;stroke-width:8.64"/>
	<line x1="3328.01" y1="1199.92" x2="3385.68" y2="1199.92" style="stroke:#C10534;stroke-width:8.64"/>
	<line x1="3414.39" y1="1199.92" x2="3472.05" y2="1199.92" style="stroke:#C10534;stroke-width:8.64"/>
	<line x1="3500.76" y1="1199.92" x2="3558.43" y2="1199.92" style="stroke:#C10534;stroke-width:8.64"/>
	<line x1="3587.26" y1="1199.92" x2="3644.81" y2="1199.92" style="stroke:#C10534;stroke-width:8.64"/>
	<line x1="3673.64" y1="1199.92" x2="3731.19" y2="1199.92" style="stroke:#C10534;stroke-width:8.64"/>
	<line x1="3760.02" y1="1199.92" x2="3817.56" y2="1199.92" style="stroke:#C10534;stroke-width:8.64"/>
	<line x1="3846.40" y1="1199.92" x2="3859.02" y2="1199.92" style="stroke:#C10534;stroke-width:8.64"/>
	<path d=" M454.04 2425.95 L492.52 2392.41 L530.89 2359.00 L569.25 2325.58 L607.74 2292.17 L646.10 2258.76 L684.59 2225.34 L722.95 2192.05 L761.31 2158.89 L799.80 2125.72 L838.16 2092.80 L876.52 2060.01 L915.01 2027.46 L953.37 1995.04 L991.86 1962.98 L1030.22 1931.06 L1068.58 1899.50 L1107.07 1868.19 L1145.43 1837.13 L1183.79 1806.56 L1222.28 1776.36 L1260.64 1746.54 L1299.13 1717.08 L1337.49 1688.13 L1375.85 1659.54 L1414.34 1631.45 L1452.70 1603.73 L1491.06 1576.38 L1529.55 1549.27 L1567.91 1522.67 L1606.40 1496.31 L1644.76 1470.32 L1683.12 1444.58 L1721.61 1419.21 L1759.97 1393.96 L1798.34 1369.09 L1836.82 1344.34 L1875.18 1319.83 L1913.67 1295.58 L1952.03 1271.45 L1990.39 1247.44 L2028.88 1223.68 L2067.24 1200.04 L2105.61 1176.40 L2144.09 1153.01 L2182.45 1129.75 L2220.94 1106.61 L2259.30 1083.59 L2297.67 1060.69 L2336.15 1037.92 L2374.51 1015.15 L2412.88 992.51 L2451.36 969.98 L2489.73 947.46 L2528.21 925.06 L2566.57 902.66 L2604.94 880.39 L2643.42 858.23 L2681.79 835.96 L2720.15 813.81 L2758.64 791.65 L2797.00 769.63 L2835.48 747.47 L2873.85 725.45 L2912.21 703.42 L2950.70 681.39 L2989.06 659.24 L3027.42 637.21 L3065.91 615.18 L3104.27 593.15 L3142.76 571.00 L3181.12 548.97 L3219.48 526.94 L3257.97 504.92 L3296.33 482.76 L3334.69 460.74 L3373.18 438.71 L3411.54 416.68 L3450.03 394.53 L3488.39 372.50 L3526.75 350.47 L3565.24 328.44 L3603.60 306.29 L3641.96 284.26 L3680.45 262.23 L3718.81 240.21 L3757.30 218.05 L3795.66 196.03" stroke-linejoin="round" style="fill:none;stroke:#1A476F;stroke-width:8.64"/>
	<line x1="390.80" y1="2489.19" x2="390.80" y2="100.86" style="stroke:#000000;stroke-width:5.76"/>
	<line x1="390.80" y1="2235.74" x2="350.83" y2="2235.74" style="stroke:#000000;stroke-width:5.76"/>
	<text x="300.72" y="2235.74" style="font-family:'Helvetica';font-size:99.99px;fill:#000000" transform="rotate(-90 300.72,2235.74)" text-anchor="middle">-4</text>
	<line x1="390.80" y1="1717.83" x2="350.83" y2="1717.83" style="stroke:#000000;stroke-width:5.76"/>
	<text x="300.72" y="1717.83" style="font-family:'Helvetica';font-size:99.99px;fill:#000000" transform="rotate(-90 300.72,1717.83)" text-anchor="middle">-2</text>
	<line x1="390.80" y1="1199.92" x2="350.83" y2="1199.92" style="stroke:#000000;stroke-width:5.76"/>
	<text x="300.72" y="1199.92" style="font-family:'Helvetica';font-size:99.99px;fill:#000000" transform="rotate(-90 300.72,1199.92)" text-anchor="middle">0</text>
	<line x1="390.80" y1="682.01" x2="350.83" y2="682.01" style="stroke:#000000;stroke-width:5.76"/>
	<text x="300.72" y="682.01" style="font-family:'Helvetica';font-size:99.99px;fill:#000000" transform="rotate(-90 300.72,682.01)" text-anchor="middle">2</text>
	<line x1="390.80" y1="164.22" x2="350.83" y2="164.22" style="stroke:#000000;stroke-width:5.76"/>
	<text x="300.72" y="164.22" style="font-family:'Helvetica';font-size:99.99px;fill:#000000" transform="rotate(-90 300.72,164.22)" text-anchor="middle">4</text>
	<text x="190.71" y="1294.96" style="font-family:'Helvetica';font-size:99.99px;fill:#000000" transform="rotate(-90 190.71,1294.96)" text-anchor="middle">Log hazard ratio (reference age 60 years)</text>
	<line x1="390.80" y1="2489.19" x2="3859.02" y2="2489.19" style="stroke:#000000;stroke-width:5.76"/>
	<line x1="531.01" y1="2489.19" x2="531.01" y2="2529.16" style="stroke:#000000;stroke-width:5.76"/>
	<text x="531.01" y="2619.14" style="font-family:'Helvetica';font-size:99.99px;fill:#000000" text-anchor="middle">20</text>
	<line x1="1299.13" y1="2489.19" x2="1299.13" y2="2529.16" style="stroke:#000000;stroke-width:5.76"/>
	<text x="1299.13" y="2619.14" style="font-family:'Helvetica';font-size:99.99px;fill:#000000" text-anchor="middle">40</text>
	<line x1="2067.37" y1="2489.19" x2="2067.37" y2="2529.16" style="stroke:#000000;stroke-width:5.76"/>
	<text x="2067.37" y="2619.14" style="font-family:'Helvetica';font-size:99.99px;fill:#000000" text-anchor="middle">60</text>
	<line x1="2835.48" y1="2489.19" x2="2835.48" y2="2529.16" style="stroke:#000000;stroke-width:5.76"/>
	<text x="2835.48" y="2619.14" style="font-family:'Helvetica';font-size:99.99px;fill:#000000" text-anchor="middle">80</text>
	<line x1="3603.72" y1="2489.19" x2="3603.72" y2="2529.16" style="stroke:#000000;stroke-width:5.76"/>
	<text x="3603.72" y="2619.14" style="font-family:'Helvetica';font-size:99.99px;fill:#000000" text-anchor="middle">100</text>
	<text x="2124.91" y="2729.16" style="font-family:'Helvetica';font-size:99.99px;fill:#000000" text-anchor="middle">Age in years</text>
</svg>
