<?xml version="1.0" encoding="UTF-8" standalone="no"?>
<!-- This is a Stata 16.1 generated SVG file (http://www.stata.com) -->

<svg version="1.1" width="5.50in" height="8.00in" viewBox="0 0 3960 5760" xmlns="http://www.w3.org/2000/svg" xmlns:xlink="http://www.w3.org/1999/xlink">
	<desc>Stata Graph - Graph</desc>
	<rect x="0" y="0" width="3960" height="5760" style="fill:#EAF2F3;stroke:none"/>
	<rect x="0.00" y="0.00" width="3960.00" height="5760.00" style="fill:#EAF2F3"/>
	<rect x="3.96" y="3.96" width="3952.08" height="5752.08" style="fill:none;stroke:#EAF2F3;stroke-width:7.92"/>
	<rect x="179.82" y="138.60" width="3641.58" height="5084.10" style="fill:#FFFFFF"/>
	<rect x="183.78" y="142.56" width="3633.66" height="5076.18" style="fill:none;stroke:#FFFFFF;stroke-width:7.92"/>
	<line x1="2002.68" y1="5222.70" x2="2002.68" y2="5143.50" style="stroke:#C10534;stroke-width:11.88"/>
	<line x1="2002.68" y1="5103.90" x2="2002.68" y2="5024.70" style="stroke:#C10534;stroke-width:11.88"/>
	<line x1="2002.68" y1="4985.10" x2="2002.68" y2="4905.90" style="stroke:#C10534;stroke-width:11.88"/>
	<line x1="2002.68" y1="4866.30" x2="2002.68" y2="4786.92" style="stroke:#C10534;stroke-width:11.88"/>
	<line x1="2002.68" y1="4747.32" x2="2002.68" y2="4668.12" style="stroke:#C10534;stroke-width:11.88"/>
	<line x1="2002.68" y1="4628.52" x2="2002.68" y2="4549.32" style="stroke:#C10534;stroke-width:11.88"/>
	<line x1="2002.68" y1="4509.72" x2="2002.68" y2="4430.52" style="stroke:#C10534;stroke-width:11.88"/>
	<line x1="2002.68" y1="4390.92" x2="2002.68" y2="4311.72" style="stroke:#C10534;stroke-width:11.88"/>
	<line x1="2002.68" y1="4272.12" x2="2002.68" y2="4192.92" style="stroke:#C10534;stroke-width:11.88"/>
	<line x1="2002.68" y1="4153.14" x2="2002.68" y2="4073.94" style="stroke:#C10534;stroke-width:11.88"/>
	<line x1="2002.68" y1="4034.34" x2="2002.68" y2="3955.14" style="stroke:#C10534;stroke-width:11.88"/>
	<line x1="2002.68" y1="3915.54" x2="2002.68" y2="3836.34" style="stroke:#C10534;stroke-width:11.88"/>
	<line x1="2002.68" y1="3796.74" x2="2002.68" y2="3717.54" style="stroke:#C10534;stroke-width:11.88"/>
	<line x1="2002.68" y1="3677.94" x2="2002.68" y2="3598.74" style="stroke:#C10534;stroke-width:11.88"/>
	<line x1="2002.68" y1="3559.14" x2="2002.68" y2="3479.76" style="stroke:#C10534;stroke-width:11.88"/>
	<line x1="2002.68" y1="3440.16" x2="2002.68" y2="3360.96" style="stroke:#C10534;stroke-width:11.88"/>
	<line x1="2002.68" y1="3321.36" x2="2002.68" y2="3242.16" style="stroke:#C10534;stroke-width:11.88"/>
	<line x1="2002.68" y1="3202.56" x2="2002.68" y2="3123.36" style="stroke:#C10534;stroke-width:11.88"/>
	<line x1="2002.68" y1="3083.76" x2="2002.68" y2="3004.56" style="stroke:#C10534;stroke-width:11.88"/>
	<line x1="2002.68" y1="2964.96" x2="2002.68" y2="2885.76" style="stroke:#C10534;stroke-width:11.88"/>
	<line x1="2002.68" y1="2845.98" x2="2002.68" y2="2766.78" style="stroke:#C10534;stroke-width:11.88"/>
	<line x1="2002.68" y1="2727.18" x2="2002.68" y2="2647.98" style="stroke:#C10534;stroke-width:11.88"/>
	<line x1="2002.68" y1="2608.38" x2="2002.68" y2="2529.18" style="stroke:#C10534;stroke-width:11.88"/>
	<line x1="2002.68" y1="2489.58" x2="2002.68" y2="2410.38" style="stroke:#C10534;stroke-width:11.88"/>
	<line x1="2002.68" y1="2370.78" x2="2002.68" y2="2291.58" style="stroke:#C10534;stroke-width:11.88"/>
	<line x1="2002.68" y1="2251.98" x2="2002.68" y2="2172.60" style="stroke:#C10534;stroke-width:11.88"/>
	<line x1="2002.68" y1="2133.00" x2="2002.68" y2="2053.80" style="stroke:#C10534;stroke-width:11.88"/>
	<line x1="2002.68" y1="2014.20" x2="2002.68" y2="1935.00" style="stroke:#C10534;stroke-width:11.88"/>
	<line x1="2002.68" y1="1895.40" x2="2002.68" y2="1816.20" style="stroke:#C10534;stroke-width:11.88"/>
	<line x1="2002.68" y1="1776.60" x2="2002.68" y2="1697.40" style="stroke:#C10534;stroke-width:11.88"/>
	<line x1="2002.68" y1="1657.80" x2="2002.68" y2="1578.42" style="stroke:#C10534;stroke-width:11.88"/>
	<line x1="2002.68" y1="1538.82" x2="2002.68" y2="1459.62" style="stroke:#C10534;stroke-width:11.88"/>
	<line x1="2002.68" y1="1420.02" x2="2002.68" y2="1340.82" style="stroke:#C10534;stroke-width:11.88"/>
	<line x1="2002.68" y1="1301.22" x2="2002.68" y2="1222.02" style="stroke:#C10534;stroke-width:11.88"/>
	<line x1="2002.68" y1="1182.42" x2="2002.68" y2="1103.22" style="stroke:#C10534;stroke-width:11.88"/>
	<line x1="2002.68" y1="1063.62" x2="2002.68" y2="984.42" style="stroke:#C10534;stroke-width:11.88"/>
	<line x1="2002.68" y1="944.64" x2="2002.68" y2="865.44" style="stroke:#C10534;stroke-width:11.88"/>
	<line x1="2002.68" y1="825.84" x2="2002.68" y2="746.64" style="stroke:#C10534;stroke-width:11.88"/>
	<line x1="2002.68" y1="707.04" x2="2002.68" y2="627.84" style="stroke:#C10534;stroke-width:11.88"/>
	<line x1="2002.68" y1="588.24" x2="2002.68" y2="509.04" style="stroke:#C10534;stroke-width:11.88"/>
	<line x1="2002.68" y1="469.44" x2="2002.68" y2="390.24" style="stroke:#C10534;stroke-width:11.88"/>
	<line x1="2002.68" y1="350.64" x2="2002.68" y2="271.26" style="stroke:#C10534;stroke-width:11.88"/>
	<line x1="2002.68" y1="231.66" x2="2002.68" y2="152.46" style="stroke:#C10534;stroke-width:11.88"/>
	<circle cx="1232.82" cy="385.92" r="26.64" style="fill:#000000"/>
	<circle cx="1232.82" cy="385.92" r="20.70" style="fill:none;stroke:#000000;stroke-width:11.88"/>
	<circle cx="2002.50" cy="439.20" r="26.64" style="fill:#000000"/>
	<circle cx="2002.50" cy="439.20" r="20.70" style="fill:none;stroke:#000000;stroke-width:11.88"/>
	<circle cx="2488.86" cy="492.66" r="26.64" style="fill:#000000"/>
	<circle cx="2488.86" cy="492.66" r="20.70" style="fill:none;stroke:#000000;stroke-width:11.88"/>
	<circle cx="3024.90" cy="545.94" r="26.64" style="fill:#000000"/>
	<circle cx="3024.90" cy="545.94" r="20.70" style="fill:none;stroke:#000000;stroke-width:11.88"/>
	<circle cx="3654.54" cy="599.40" r="26.64" style="fill:#000000"/>
	<circle cx="3654.54" cy="599.40" r="20.70" style="fill:none;stroke:#000000;stroke-width:11.88"/>
	<circle cx="2002.50" cy="759.42" r="26.64" style="fill:#000000"/>
	<circle cx="2002.50" cy="759.42" r="20.70" style="fill:none;stroke:#000000;stroke-width:11.88"/>
	<circle cx="2414.88" cy="812.88" r="26.64" style="fill:#000000"/>
	<circle cx="2414.88" cy="812.88" r="20.70" style="fill:none;stroke:#000000;stroke-width:11.88"/>
	<circle cx="2002.50" cy="972.90" r="26.64" style="fill:#000000"/>
	<circle cx="2002.50" cy="972.90" r="20.70" style="fill:none;stroke:#000000;stroke-width:11.88"/>
	<circle cx="2158.20" cy="1026.36" r="26.64" style="fill:#000000"/>
	<circle cx="2158.20" cy="1026.36" r="20.70" style="fill:none;stroke:#000000;stroke-width:11.88"/>
	<circle cx="2294.10" cy="1079.64" r="26.64" style="fill:#000000"/>
	<circle cx="2294.10" cy="1079.64" r="20.70" style="fill:none;stroke:#000000;stroke-width:11.88"/>
	<circle cx="2536.02" cy="1133.10" r="26.64" style="fill:#000000"/>
	<circle cx="2536.02" cy="1133.10" r="20.70" style="fill:none;stroke:#000000;stroke-width:11.88"/>
	<circle cx="2002.50" cy="1293.12" r="26.64" style="fill:#000000"/>
	<circle cx="2002.50" cy="1293.12" r="20.70" style="fill:none;stroke:#000000;stroke-width:11.88"/>
	<circle cx="2152.44" cy="1346.58" r="26.64" style="fill:#000000"/>
	<circle cx="2152.44" cy="1346.58" r="20.70" style="fill:none;stroke:#000000;stroke-width:11.88"/>
	<circle cx="1919.52" cy="1399.86" r="26.64" style="fill:#000000"/>
	<circle cx="1919.52" cy="1399.86" r="20.70" style="fill:none;stroke:#000000;stroke-width:11.88"/>
	<circle cx="2002.50" cy="1560.06" r="26.64" style="fill:#000000"/>
	<circle cx="2002.50" cy="1560.06" r="20.70" style="fill:none;stroke:#000000;stroke-width:11.88"/>
	<circle cx="2327.22" cy="1613.34" r="26.64" style="fill:#000000"/>
	<circle cx="2327.22" cy="1613.34" r="20.70" style="fill:none;stroke:#000000;stroke-width:11.88"/>
	<circle cx="2308.68" cy="1666.80" r="26.64" style="fill:#000000"/>
	<circle cx="2308.68" cy="1666.80" r="20.70" style="fill:none;stroke:#000000;stroke-width:11.88"/>
	<circle cx="2347.38" cy="1720.08" r="26.64" style="fill:#000000"/>
	<circle cx="2347.38" cy="1720.08" r="20.70" style="fill:none;stroke:#000000;stroke-width:11.88"/>
	<circle cx="2212.20" cy="1773.54" r="26.64" style="fill:#000000"/>
	<circle cx="2212.20" cy="1773.54" r="20.70" style="fill:none;stroke:#000000;stroke-width:11.88"/>
	<circle cx="2002.50" cy="1933.56" r="26.64" style="fill:#000000"/>
	<circle cx="2002.50" cy="1933.56" r="20.70" style="fill:none;stroke:#000000;stroke-width:11.88"/>
	<circle cx="2090.70" cy="1987.02" r="26.64" style="fill:#000000"/>
	<circle cx="2090.70" cy="1987.02" r="20.70" style="fill:none;stroke:#000000;stroke-width:11.88"/>
	<circle cx="2133.54" cy="2040.30" r="26.64" style="fill:#000000"/>
	<circle cx="2133.54" cy="2040.30" r="20.70" style="fill:none;stroke:#000000;stroke-width:11.88"/>
	<circle cx="2264.94" cy="2093.76" r="26.64" style="fill:#000000"/>
	<circle cx="2264.94" cy="2093.76" r="20.70" style="fill:none;stroke:#000000;stroke-width:11.88"/>
	<circle cx="2364.12" cy="2147.04" r="26.64" style="fill:#000000"/>
	<circle cx="2364.12" cy="2147.04" r="20.70" style="fill:none;stroke:#000000;stroke-width:11.88"/>
	<circle cx="2002.50" cy="2307.06" r="26.64" style="fill:#000000"/>
	<circle cx="2002.50" cy="2307.06" r="20.70" style="fill:none;stroke:#000000;stroke-width:11.88"/>
	<circle cx="2271.60" cy="2360.52" r="26.64" style="fill:#000000"/>
	<circle cx="2271.60" cy="2360.52" r="20.70" style="fill:none;stroke:#000000;stroke-width:11.88"/>
	<circle cx="2564.82" cy="2413.80" r="26.64" style="fill:#000000"/>
	<circle cx="2564.82" cy="2413.80" r="20.70" style="fill:none;stroke:#000000;stroke-width:11.88"/>
	<circle cx="2408.58" cy="2467.26" r="26.64" style="fill:#000000"/>
	<circle cx="2408.58" cy="2467.26" r="20.70" style="fill:none;stroke:#000000;stroke-width:11.88"/>
	<circle cx="2002.50" cy="2627.28" r="26.64" style="fill:#000000"/>
	<circle cx="2002.50" cy="2627.28" r="20.70" style="fill:none;stroke:#000000;stroke-width:11.88"/>
	<circle cx="2270.70" cy="2680.74" r="26.64" style="fill:#000000"/>
	<circle cx="2270.70" cy="2680.74" r="20.70" style="fill:none;stroke:#000000;stroke-width:11.88"/>
	<circle cx="2111.04" cy="2734.02" r="26.64" style="fill:#000000"/>
	<circle cx="2111.04" cy="2734.02" r="20.70" style="fill:none;stroke:#000000;stroke-width:11.88"/>
	<circle cx="1978.56" cy="2787.48" r="26.64" style="fill:#000000"/>
	<circle cx="1978.56" cy="2787.48" r="20.70" style="fill:none;stroke:#000000;stroke-width:11.88"/>
	<circle cx="2002.50" cy="2947.50" r="26.64" style="fill:#000000"/>
	<circle cx="2002.50" cy="2947.50" r="20.70" style="fill:none;stroke:#000000;stroke-width:11.88"/>
	<circle cx="2805.12" cy="3000.96" r="26.64" style="fill:#000000"/>
	<circle cx="2805.12" cy="3000.96" r="20.70" style="fill:none;stroke:#000000;stroke-width:11.88"/>
	<circle cx="2735.28" cy="3054.24" r="26.64" style="fill:#000000"/>
	<circle cx="2735.28" cy="3054.24" r="20.70" style="fill:none;stroke:#000000;stroke-width:11.88"/>
	<circle cx="2406.24" cy="3107.70" r="26.64" style="fill:#000000"/>
	<circle cx="2406.24" cy="3107.70" r="20.70" style="fill:none;stroke:#000000;stroke-width:11.88"/>
	<circle cx="2002.50" cy="3267.72" r="26.64" style="fill:#000000"/>
	<circle cx="2002.50" cy="3267.72" r="20.70" style="fill:none;stroke:#000000;stroke-width:11.88"/>
	<circle cx="2068.74" cy="3321.18" r="26.64" style="fill:#000000"/>
	<circle cx="2068.74" cy="3321.18" r="20.70" style="fill:none;stroke:#000000;stroke-width:11.88"/>
	<circle cx="2135.34" cy="3374.46" r="26.64" style="fill:#000000"/>
	<circle cx="2135.34" cy="3374.46" r="20.70" style="fill:none;stroke:#000000;stroke-width:11.88"/>
	<circle cx="2378.16" cy="3534.66" r="26.64" style="fill:#000000"/>
	<circle cx="2378.16" cy="3534.66" r="20.70" style="fill:none;stroke:#000000;stroke-width:11.88"/>
	<circle cx="2155.32" cy="3694.68" r="26.64" style="fill:#000000"/>
	<circle cx="2155.32" cy="3694.68" r="20.70" style="fill:none;stroke:#000000;stroke-width:11.88"/>
	<circle cx="1973.16" cy="3854.88" r="26.64" style="fill:#000000"/>
	<circle cx="1973.16" cy="3854.88" r="20.70" style="fill:none;stroke:#000000;stroke-width:11.88"/>
	<circle cx="2313.00" cy="4014.90" r="26.64" style="fill:#000000"/>
	<circle cx="2313.00" cy="4014.90" r="20.70" style="fill:none;stroke:#000000;stroke-width:11.88"/>
	<circle cx="2384.82" cy="4175.10" r="26.64" style="fill:#000000"/>
	<circle cx="2384.82" cy="4175.10" r="20.70" style="fill:none;stroke:#000000;stroke-width:11.88"/>
	<circle cx="2582.46" cy="4335.12" r="26.64" style="fill:#000000"/>
	<circle cx="2582.46" cy="4335.12" r="20.70" style="fill:none;stroke:#000000;stroke-width:11.88"/>
	<circle cx="2347.38" cy="4495.14" r="26.64" style="fill:#000000"/>
	<circle cx="2347.38" cy="4495.14" r="20.70" style="fill:none;stroke:#000000;stroke-width:11.88"/>
	<circle cx="2944.26" cy="4655.34" r="26.64" style="fill:#000000"/>
	<circle cx="2944.26" cy="4655.34" r="20.70" style="fill:none;stroke:#000000;stroke-width:11.88"/>
	<circle cx="2219.40" cy="4815.36" r="26.64" style="fill:#000000"/>
	<circle cx="2219.40" cy="4815.36" r="20.70" style="fill:none;stroke:#000000;stroke-width:11.88"/>
	<circle cx="2133.18" cy="4975.56" r="26.64" style="fill:#000000"/>
	<circle cx="2133.18" cy="4975.56" r="20.70" style="fill:none;stroke:#000000;stroke-width:11.88"/>
	<circle cx="2341.26" cy="5135.58" r="26.64" style="fill:#000000"/>
	<circle cx="2341.26" cy="5135.58" r="20.70" style="fill:none;stroke:#000000;stroke-width:11.88"/>
	<line x1="1083.60" y1="385.74" x2="1382.40" y2="385.74" style="stroke:#000000;stroke-width:11.88"/>
	<line x1="1382.40" y1="415.98" x2="1382.40" y2="355.50" stroke-linecap="round" style="stroke:#000000;stroke-width:11.88"/>
	<line x1="1083.60" y1="415.98" x2="1083.60" y2="355.50" stroke-linecap="round" style="stroke:#000000;stroke-width:11.88"/>
	<line x1="2002.68" y1="439.20" x2="2002.68" y2="439.20" style="stroke:#000000;stroke-width:11.88"/>
	<line x1="2002.68" y1="469.44" x2="2002.68" y2="408.96" stroke-linecap="round" style="stroke:#000000;stroke-width:11.88"/>
	<line x1="2002.68" y1="469.44" x2="2002.68" y2="408.96" stroke-linecap="round" style="stroke:#000000;stroke-width:11.88"/>
	<line x1="2404.80" y1="492.48" x2="2573.28" y2="492.48" style="stroke:#000000;stroke-width:11.88"/>
	<line x1="2573.28" y1="522.72" x2="2573.28" y2="462.24" stroke-linecap="round" style="stroke:#000000;stroke-width:11.88"/>
	<line x1="2404.80" y1="522.72" x2="2404.80" y2="462.24" stroke-linecap="round" style="stroke:#000000;stroke-width:11.88"/>
	<line x1="2946.42" y1="545.94" x2="3103.38" y2="545.94" style="stroke:#000000;stroke-width:11.88"/>
	<line x1="3103.38" y1="576.18" x2="3103.38" y2="515.70" stroke-linecap="round" style="stroke:#000000;stroke-width:11.88"/>
	<line x1="2946.42" y1="576.18" x2="2946.42" y2="515.70" stroke-linecap="round" style="stroke:#000000;stroke-width:11.88"/>
	<line x1="3575.16" y1="599.22" x2="3734.28" y2="599.22" style="stroke:#000000;stroke-width:11.88"/>
	<line x1="3734.28" y1="629.46" x2="3734.28" y2="568.98" stroke-linecap="round" style="stroke:#000000;stroke-width:11.88"/>
	<line x1="3575.16" y1="629.46" x2="3575.16" y2="568.98" stroke-linecap="round" style="stroke:#000000;stroke-width:11.88"/>
	<line x1="2002.68" y1="759.42" x2="2002.68" y2="759.42" style="stroke:#000000;stroke-width:11.88"/>
	<line x1="2002.68" y1="789.66" x2="2002.68" y2="729.18" stroke-linecap="round" style="stroke:#000000;stroke-width:11.88"/>
	<line x1="2002.68" y1="789.66" x2="2002.68" y2="729.18" stroke-linecap="round" style="stroke:#000000;stroke-width:11.88"/>
	<line x1="2378.34" y1="812.70" x2="2451.42" y2="812.70" style="stroke:#000000;stroke-width:11.88"/>
	<line x1="2451.42" y1="842.94" x2="2451.42" y2="782.46" stroke-linecap="round" style="stroke:#000000;stroke-width:11.88"/>
	<line x1="2378.34" y1="842.94" x2="2378.34" y2="782.46" stroke-linecap="round" style="stroke:#000000;stroke-width:11.88"/>
	<line x1="2002.68" y1="972.90" x2="2002.68" y2="972.90" style="stroke:#000000;stroke-width:11.88"/>
	<line x1="2002.68" y1="1003.14" x2="2002.68" y2="942.66" stroke-linecap="round" style="stroke:#000000;stroke-width:11.88"/>
	<line x1="2002.68" y1="1003.14" x2="2002.68" y2="942.66" stroke-linecap="round" style="stroke:#000000;stroke-width:11.88"/>
	<line x1="2113.92" y1="1026.18" x2="2202.48" y2="1026.18" style="stroke:#000000;stroke-width:11.88"/>
	<line x1="2202.48" y1="1056.42" x2="2202.48" y2="995.94" stroke-linecap="round" style="stroke:#000000;stroke-width:11.88"/>
	<line x1="2113.92" y1="1056.42" x2="2113.92" y2="995.94" stroke-linecap="round" style="stroke:#000000;stroke-width:11.88"/>
	<line x1="2229.30" y1="1079.64" x2="2359.08" y2="1079.64" style="stroke:#000000;stroke-width:11.88"/>
	<line x1="2359.08" y1="1109.88" x2="2359.08" y2="1049.40" stroke-linecap="round" style="stroke:#000000;stroke-width:11.88"/>
	<line x1="2229.30" y1="1109.88" x2="2229.30" y2="1049.40" stroke-linecap="round" style="stroke:#000000;stroke-width:11.88"/>
	<line x1="2450.52" y1="1132.92" x2="2621.70" y2="1132.92" style="stroke:#000000;stroke-width:11.88"/>
	<line x1="2621.70" y1="1163.16" x2="2621.70" y2="1102.68" stroke-linecap="round" style="stroke:#000000;stroke-width:11.88"/>
	<line x1="2450.52" y1="1163.16" x2="2450.52" y2="1102.68" stroke-linecap="round" style="stroke:#000000;stroke-width:11.88"/>
	<line x1="2002.68" y1="1293.12" x2="2002.68" y2="1293.12" style="stroke:#000000;stroke-width:11.88"/>
	<line x1="2002.68" y1="1323.36" x2="2002.68" y2="1262.88" stroke-linecap="round" style="stroke:#000000;stroke-width:11.88"/>
	<line x1="2002.68" y1="1323.36" x2="2002.68" y2="1262.88" stroke-linecap="round" style="stroke:#000000;stroke-width:11.88"/>
	<line x1="2113.38" y1="1346.40" x2="2191.86" y2="1346.40" style="stroke:#000000;stroke-width:11.88"/>
	<line x1="2191.86" y1="1376.64" x2="2191.86" y2="1316.16" stroke-linecap="round" style="stroke:#000000;stroke-width:11.88"/>
	<line x1="2113.38" y1="1376.64" x2="2113.38" y2="1316.16" stroke-linecap="round" style="stroke:#000000;stroke-width:11.88"/>
	<line x1="1845.90" y1="1399.86" x2="1993.50" y2="1399.86" style="stroke:#000000;stroke-width:11.88"/>
	<line x1="1993.50" y1="1430.10" x2="1993.50" y2="1369.62" stroke-linecap="round" style="stroke:#000000;stroke-width:11.88"/>
	<line x1="1845.90" y1="1430.10" x2="1845.90" y2="1369.62" stroke-linecap="round" style="stroke:#000000;stroke-width:11.88"/>
	<line x1="2002.68" y1="1559.88" x2="2002.68" y2="1559.88" style="stroke:#000000;stroke-width:11.88"/>
	<line x1="2002.68" y1="1590.12" x2="2002.68" y2="1529.64" stroke-linecap="round" style="stroke:#000000;stroke-width:11.88"/>
	<line x1="2002.68" y1="1590.12" x2="2002.68" y2="1529.64" stroke-linecap="round" style="stroke:#000000;stroke-width:11.88"/>
	<line x1="2119.32" y1="1613.34" x2="2535.30" y2="1613.34" style="stroke:#000000;stroke-width:11.88"/>
	<line x1="2535.30" y1="1643.58" x2="2535.30" y2="1583.10" stroke-linecap="round" style="stroke:#000000;stroke-width:11.88"/>
	<line x1="2119.32" y1="1643.58" x2="2119.32" y2="1583.10" stroke-linecap="round" style="stroke:#000000;stroke-width:11.88"/>
	<line x1="2230.20" y1="1666.62" x2="2387.16" y2="1666.62" style="stroke:#000000;stroke-width:11.88"/>
	<line x1="2387.16" y1="1696.86" x2="2387.16" y2="1636.38" stroke-linecap="round" style="stroke:#000000;stroke-width:11.88"/>
	<line x1="2230.20" y1="1696.86" x2="2230.20" y2="1636.38" stroke-linecap="round" style="stroke:#000000;stroke-width:11.88"/>
	<line x1="2236.86" y1="1720.08" x2="2458.26" y2="1720.08" style="stroke:#000000;stroke-width:11.88"/>
	<line x1="2458.26" y1="1750.32" x2="2458.26" y2="1689.84" stroke-linecap="round" style="stroke:#000000;stroke-width:11.88"/>
	<line x1="2236.86" y1="1750.32" x2="2236.86" y2="1689.84" stroke-linecap="round" style="stroke:#000000;stroke-width:11.88"/>
	<line x1="2043.90" y1="1773.36" x2="2380.68" y2="1773.36" style="stroke:#000000;stroke-width:11.88"/>
	<line x1="2380.68" y1="1803.60" x2="2380.68" y2="1743.12" stroke-linecap="round" style="stroke:#000000;stroke-width:11.88"/>
	<line x1="2043.90" y1="1803.60" x2="2043.90" y2="1743.12" stroke-linecap="round" style="stroke:#000000;stroke-width:11.88"/>
	<line x1="2002.68" y1="1933.56" x2="2002.68" y2="1933.56" style="stroke:#000000;stroke-width:11.88"/>
	<line x1="2002.68" y1="1963.80" x2="2002.68" y2="1903.32" stroke-linecap="round" style="stroke:#000000;stroke-width:11.88"/>
	<line x1="2002.68" y1="1963.80" x2="2002.68" y2="1903.32" stroke-linecap="round" style="stroke:#000000;stroke-width:11.88"/>
	<line x1="2033.28" y1="1986.84" x2="2148.30" y2="1986.84" style="stroke:#000000;stroke-width:11.88"/>
	<line x1="2148.30" y1="2017.08" x2="2148.30" y2="1956.60" stroke-linecap="round" style="stroke:#000000;stroke-width:11.88"/>
	<line x1="2033.28" y1="2017.08" x2="2033.28" y2="1956.60" stroke-linecap="round" style="stroke:#000000;stroke-width:11.88"/>
	<line x1="2076.30" y1="2040.30" x2="2191.14" y2="2040.30" style="stroke:#000000;stroke-width:11.88"/>
	<line x1="2191.14" y1="2070.54" x2="2191.14" y2="2010.06" stroke-linecap="round" style="stroke:#000000;stroke-width:11.88"/>
	<line x1="2076.30" y1="2070.54" x2="2076.30" y2="2010.06" stroke-linecap="round" style="stroke:#000000;stroke-width:11.88"/>
	<line x1="2208.60" y1="2093.58" x2="2321.46" y2="2093.58" style="stroke:#000000;stroke-width:11.88"/>
	<line x1="2321.46" y1="2123.82" x2="2321.46" y2="2063.34" stroke-linecap="round" style="stroke:#000000;stroke-width:11.88"/>
	<line x1="2208.60" y1="2123.82" x2="2208.60" y2="2063.34" stroke-linecap="round" style="stroke:#000000;stroke-width:11.88"/>
	<line x1="2306.34" y1="2147.04" x2="2422.08" y2="2147.04" style="stroke:#000000;stroke-width:11.88"/>
	<line x1="2422.08" y1="2177.28" x2="2422.08" y2="2116.80" stroke-linecap="round" style="stroke:#000000;stroke-width:11.88"/>
	<line x1="2306.34" y1="2177.28" x2="2306.34" y2="2116.80" stroke-linecap="round" style="stroke:#000000;stroke-width:11.88"/>
	<line x1="2002.68" y1="2307.06" x2="2002.68" y2="2307.06" style="stroke:#000000;stroke-width:11.88"/>
	<line x1="2002.68" y1="2337.30" x2="2002.68" y2="2276.82" stroke-linecap="round" style="stroke:#000000;stroke-width:11.88"/>
	<line x1="2002.68" y1="2337.30" x2="2002.68" y2="2276.82" stroke-linecap="round" style="stroke:#000000;stroke-width:11.88"/>
	<line x1="2228.22" y1="2360.34" x2="2314.98" y2="2360.34" style="stroke:#000000;stroke-width:11.88"/>
	<line x1="2314.98" y1="2390.58" x2="2314.98" y2="2330.10" stroke-linecap="round" style="stroke:#000000;stroke-width:11.88"/>
	<line x1="2228.22" y1="2390.58" x2="2228.22" y2="2330.10" stroke-linecap="round" style="stroke:#000000;stroke-width:11.88"/>
	<line x1="2511.36" y1="2413.80" x2="2618.46" y2="2413.80" style="stroke:#000000;stroke-width:11.88"/>
	<line x1="2618.46" y1="2444.04" x2="2618.46" y2="2383.56" stroke-linecap="round" style="stroke:#000000;stroke-width:11.88"/>
	<line x1="2511.36" y1="2444.04" x2="2511.36" y2="2383.56" stroke-linecap="round" style="stroke:#000000;stroke-width:11.88"/>
	<line x1="2322.72" y1="2467.08" x2="2494.44" y2="2467.08" style="stroke:#000000;stroke-width:11.88"/>
	<line x1="2494.44" y1="2497.32" x2="2494.44" y2="2436.84" stroke-linecap="round" style="stroke:#000000;stroke-width:11.88"/>
	<line x1="2322.72" y1="2497.32" x2="2322.72" y2="2436.84" stroke-linecap="round" style="stroke:#000000;stroke-width:11.88"/>
	<line x1="2002.68" y1="2627.28" x2="2002.68" y2="2627.28" style="stroke:#000000;stroke-width:11.88"/>
	<line x1="2002.68" y1="2657.52" x2="2002.68" y2="2597.04" stroke-linecap="round" style="stroke:#000000;stroke-width:11.88"/>
	<line x1="2002.68" y1="2657.52" x2="2002.68" y2="2597.04" stroke-linecap="round" style="stroke:#000000;stroke-width:11.88"/>
	<line x1="2145.42" y1="2680.56" x2="2395.98" y2="2680.56" style="stroke:#000000;stroke-width:11.88"/>
	<line x1="2395.98" y1="2710.80" x2="2395.98" y2="2650.32" stroke-linecap="round" style="stroke:#000000;stroke-width:11.88"/>
	<line x1="2145.42" y1="2710.80" x2="2145.42" y2="2650.32" stroke-linecap="round" style="stroke:#000000;stroke-width:11.88"/>
	<line x1="2027.16" y1="2734.02" x2="2195.10" y2="2734.02" style="stroke:#000000;stroke-width:11.88"/>
	<line x1="2195.10" y1="2764.26" x2="2195.10" y2="2703.78" stroke-linecap="round" style="stroke:#000000;stroke-width:11.88"/>
	<line x1="2027.16" y1="2764.26" x2="2027.16" y2="2703.78" stroke-linecap="round" style="stroke:#000000;stroke-width:11.88"/>
	<line x1="1920.78" y1="2787.30" x2="2036.52" y2="2787.30" style="stroke:#000000;stroke-width:11.88"/>
	<line x1="2036.52" y1="2817.54" x2="2036.52" y2="2757.06" stroke-linecap="round" style="stroke:#000000;stroke-width:11.88"/>
	<line x1="1920.78" y1="2817.54" x2="1920.78" y2="2757.06" stroke-linecap="round" style="stroke:#000000;stroke-width:11.88"/>
	<line x1="2002.68" y1="2947.50" x2="2002.68" y2="2947.50" style="stroke:#000000;stroke-width:11.88"/>
	<line x1="2002.68" y1="2977.74" x2="2002.68" y2="2917.26" stroke-linecap="round" style="stroke:#000000;stroke-width:11.88"/>
	<line x1="2002.68" y1="2977.74" x2="2002.68" y2="2917.26" stroke-linecap="round" style="stroke:#000000;stroke-width:11.88"/>
	<line x1="2558.16" y1="3000.78" x2="3052.44" y2="3000.78" style="stroke:#000000;stroke-width:11.88"/>
	<line x1="3052.44" y1="3031.02" x2="3052.44" y2="2970.54" stroke-linecap="round" style="stroke:#000000;stroke-width:11.88"/>
	<line x1="2558.16" y1="3031.02" x2="2558.16" y2="2970.54" stroke-linecap="round" style="stroke:#000000;stroke-width:11.88"/>
	<line x1="2590.20" y1="3054.24" x2="2880.72" y2="3054.24" style="stroke:#000000;stroke-width:11.88"/>
	<line x1="2880.72" y1="3084.48" x2="2880.72" y2="3024.00" stroke-linecap="round" style="stroke:#000000;stroke-width:11.88"/>
	<line x1="2590.20" y1="3084.48" x2="2590.20" y2="3024.00" stroke-linecap="round" style="stroke:#000000;stroke-width:11.88"/>
	<line x1="2277.54" y1="3107.52" x2="2535.30" y2="3107.52" style="stroke:#000000;stroke-width:11.88"/>
	<line x1="2535.30" y1="3137.76" x2="2535.30" y2="3077.28" stroke-linecap="round" style="stroke:#000000;stroke-width:11.88"/>
	<line x1="2277.54" y1="3137.76" x2="2277.54" y2="3077.28" stroke-linecap="round" style="stroke:#000000;stroke-width:11.88"/>
	<line x1="2002.68" y1="3267.72" x2="2002.68" y2="3267.72" style="stroke:#000000;stroke-width:11.88"/>
	<line x1="2002.68" y1="3297.96" x2="2002.68" y2="3237.48" stroke-linecap="round" style="stroke:#000000;stroke-width:11.88"/>
	<line x1="2002.68" y1="3297.96" x2="2002.68" y2="3237.48" stroke-linecap="round" style="stroke:#000000;stroke-width:11.88"/>
	<line x1="2016.90" y1="3321.00" x2="2120.76" y2="3321.00" style="stroke:#000000;stroke-width:11.88"/>
	<line x1="2120.76" y1="3351.24" x2="2120.76" y2="3290.76" stroke-linecap="round" style="stroke:#000000;stroke-width:11.88"/>
	<line x1="2016.90" y1="3351.24" x2="2016.90" y2="3290.76" stroke-linecap="round" style="stroke:#000000;stroke-width:11.88"/>
	<line x1="2040.84" y1="3374.46" x2="2229.84" y2="3374.46" style="stroke:#000000;stroke-width:11.88"/>
	<line x1="2229.84" y1="3404.70" x2="2229.84" y2="3344.22" stroke-linecap="round" style="stroke:#000000;stroke-width:11.88"/>
	<line x1="2040.84" y1="3404.70" x2="2040.84" y2="3344.22" stroke-linecap="round" style="stroke:#000000;stroke-width:11.88"/>
	<line x1="2334.96" y1="3534.48" x2="2421.72" y2="3534.48" style="stroke:#000000;stroke-width:11.88"/>
	<line x1="2421.72" y1="3564.72" x2="2421.72" y2="3504.24" stroke-linecap="round" style="stroke:#000000;stroke-width:11.88"/>
	<line x1="2334.96" y1="3564.72" x2="2334.96" y2="3504.24" stroke-linecap="round" style="stroke:#000000;stroke-width:11.88"/>
	<line x1="2117.34" y1="3694.68" x2="2193.66" y2="3694.68" style="stroke:#000000;stroke-width:11.88"/>
	<line x1="2193.66" y1="3724.92" x2="2193.66" y2="3664.44" stroke-linecap="round" style="stroke:#000000;stroke-width:11.88"/>
	<line x1="2117.34" y1="3724.92" x2="2117.34" y2="3664.44" stroke-linecap="round" style="stroke:#000000;stroke-width:11.88"/>
	<line x1="1931.94" y1="3854.70" x2="2014.56" y2="3854.70" style="stroke:#000000;stroke-width:11.88"/>
	<line x1="2014.56" y1="3884.94" x2="2014.56" y2="3824.46" stroke-linecap="round" style="stroke:#000000;stroke-width:11.88"/>
	<line x1="1931.94" y1="3884.94" x2="1931.94" y2="3824.46" stroke-linecap="round" style="stroke:#000000;stroke-width:11.88"/>
	<line x1="2188.62" y1="4014.90" x2="2437.38" y2="4014.90" style="stroke:#000000;stroke-width:11.88"/>
	<line x1="2437.38" y1="4045.14" x2="2437.38" y2="3984.66" stroke-linecap="round" style="stroke:#000000;stroke-width:11.88"/>
	<line x1="2188.62" y1="4045.14" x2="2188.62" y2="3984.66" stroke-linecap="round" style="stroke:#000000;stroke-width:11.88"/>
	<line x1="2338.38" y1="4174.92" x2="2431.44" y2="4174.92" style="stroke:#000000;stroke-width:11.88"/>
	<line x1="2431.44" y1="4205.16" x2="2431.44" y2="4144.68" stroke-linecap="round" style="stroke:#000000;stroke-width:11.88"/>
	<line x1="2338.38" y1="4205.16" x2="2338.38" y2="4144.68" stroke-linecap="round" style="stroke:#000000;stroke-width:11.88"/>
	<line x1="2507.04" y1="4334.94" x2="2658.06" y2="4334.94" style="stroke:#000000;stroke-width:11.88"/>
	<line x1="2658.06" y1="4365.18" x2="2658.06" y2="4304.70" stroke-linecap="round" style="stroke:#000000;stroke-width:11.88"/>
	<line x1="2507.04" y1="4365.18" x2="2507.04" y2="4304.70" stroke-linecap="round" style="stroke:#000000;stroke-width:11.88"/>
	<line x1="2307.96" y1="4495.14" x2="2387.16" y2="4495.14" style="stroke:#000000;stroke-width:11.88"/>
	<line x1="2387.16" y1="4525.38" x2="2387.16" y2="4464.90" stroke-linecap="round" style="stroke:#000000;stroke-width:11.88"/>
	<line x1="2307.96" y1="4525.38" x2="2307.96" y2="4464.90" stroke-linecap="round" style="stroke:#000000;stroke-width:11.88"/>
	<line x1="2756.52" y1="4655.16" x2="3132.18" y2="4655.16" style="stroke:#000000;stroke-width:11.88"/>
	<line x1="3132.18" y1="4685.40" x2="3132.18" y2="4624.92" stroke-linecap="round" style="stroke:#000000;stroke-width:11.88"/>
	<line x1="2756.52" y1="4685.40" x2="2756.52" y2="4624.92" stroke-linecap="round" style="stroke:#000000;stroke-width:11.88"/>
	<line x1="1951.56" y1="4815.36" x2="2487.42" y2="4815.36" style="stroke:#000000;stroke-width:11.88"/>
	<line x1="2487.42" y1="4845.60" x2="2487.42" y2="4785.12" stroke-linecap="round" style="stroke:#000000;stroke-width:11.88"/>
	<line x1="1951.56" y1="4845.60" x2="1951.56" y2="4785.12" stroke-linecap="round" style="stroke:#000000;stroke-width:11.88"/>
	<line x1="2074.50" y1="4975.38" x2="2192.22" y2="4975.38" style="stroke:#000000;stroke-width:11.88"/>
	<line x1="2192.22" y1="5005.62" x2="2192.22" y2="4945.14" stroke-linecap="round" style="stroke:#000000;stroke-width:11.88"/>
	<line x1="2074.50" y1="5005.62" x2="2074.50" y2="4945.14" stroke-linecap="round" style="stroke:#000000;stroke-width:11.88"/>
	<line x1="2126.34" y1="5135.58" x2="2556.36" y2="5135.58" style="stroke:#000000;stroke-width:11.88"/>
	<line x1="2556.36" y1="5165.82" x2="2556.36" y2="5105.34" stroke-linecap="round" style="stroke:#000000;stroke-width:11.88"/>
	<line x1="2126.34" y1="5165.82" x2="2126.34" y2="5105.34" stroke-linecap="round" style="stroke:#000000;stroke-width:11.88"/>
	<text x="822.24" y="351.78" style="font-family:'Helvetica';font-size:55.08px;fill:#000000">&lt;&lt;&lt; HR = 0.07 (0.05-0.10)</text>
	<text x="324.72" y="298.32" style="font-family:'Helvetica';font-size:55.08px;fill:#000000">Age group</text>
	<text x="324.72" y="725.28" style="font-family:'Helvetica';font-size:55.08px;fill:#000000">Sex</text>
	<text x="324.72" y="938.76" style="font-family:'Helvetica';font-size:55.08px;fill:#000000">Obesity</text>
	<text x="324.72" y="1258.98" style="font-family:'Helvetica';font-size:55.08px;fill:#000000">Smoking status</text>
	<text x="324.72" y="1525.92" style="font-family:'Helvetica';font-size:55.08px;fill:#000000">Ethnicity</text>
	<text x="324.72" y="1899.42" style="font-family:'Helvetica';font-size:55.08px;fill:#000000">Deprivation (IMD) quintile</text>
	<text x="324.72" y="2273.10" style="font-family:'Helvetica';font-size:55.08px;fill:#000000">Diabetes</text>
	<text x="324.72" y="2593.14" style="font-family:'Helvetica';font-size:55.08px;fill:#000000">Cancer (non-haematological)</text>
	<text x="324.72" y="2913.36" style="font-family:'Helvetica';font-size:55.08px;fill:#000000">Haematological malignancy</text>
	<text x="324.72" y="3233.58" style="font-family:'Helvetica';font-size:55.08px;fill:#000000">Asthma</text>
	<text x="324.72" y="3553.80" style="font-family:'Helvetica';font-size:55.08px;fill:#000000">Chronic respiratory disease</text>
	<text x="324.72" y="3714.00" style="font-family:'Helvetica';font-size:55.08px;fill:#000000">Chronic cardiac disease</text>
	<text x="324.72" y="3874.02" style="font-family:'Helvetica';font-size:55.08px;fill:#000000">Hypertension/high bp</text>
	<text x="324.72" y="4034.22" style="font-family:'Helvetica';font-size:55.08px;fill:#000000">Chronic liver disease</text>
	<text x="324.72" y="4194.24" style="font-family:'Helvetica';font-size:55.08px;fill:#000000">Stroke or dementia</text>
	<text x="324.72" y="4354.26" style="font-family:'Helvetica';font-size:55.08px;fill:#000000">Other neurological</text>
	<text x="324.72" y="4514.46" style="font-family:'Helvetica';font-size:55.08px;fill:#000000">Chronic kidney disease</text>
	<text x="324.72" y="4674.48" style="font-family:'Helvetica';font-size:55.08px;fill:#000000">Organ transplant</text>
	<text x="324.72" y="4834.68" style="font-family:'Helvetica';font-size:55.08px;fill:#000000">Spleen</text>
	<text x="324.72" y="4994.70" style="font-family:'Helvetica';font-size:55.08px;fill:#000000">Rheumatoid arthritis/Lupus/Psoriasis</text>
	<text x="324.72" y="5154.90" style="font-family:'Helvetica';font-size:55.08px;fill:#000000">Other immunosuppression</text>
	<text x="334.08" y="351.78" style="font-family:'Helvetica';font-size:55.08px;fill:#808080">18-39</text>
	<text x="334.08" y="405.06" style="font-family:'Helvetica';font-size:55.08px;fill:#808080">40-49</text>
	<text x="334.08" y="458.52" style="font-family:'Helvetica';font-size:55.08px;fill:#808080">50-59 (ref)</text>
	<text x="334.08" y="511.80" style="font-family:'Helvetica';font-size:55.08px;fill:#808080">60-69</text>
	<text x="334.08" y="565.26" style="font-family:'Helvetica';font-size:55.08px;fill:#808080">70-79</text>
	<text x="334.08" y="618.54" style="font-family:'Helvetica';font-size:55.08px;fill:#808080">80+</text>
	<text x="334.08" y="778.74" style="font-family:'Helvetica';font-size:55.08px;fill:#808080">Female (ref)</text>
	<text x="334.08" y="832.02" style="font-family:'Helvetica';font-size:55.08px;fill:#808080">Male</text>
	<text x="334.08" y="992.22" style="font-family:'Helvetica';font-size:55.08px;fill:#808080">Not obese (ref)</text>
	<text x="334.08" y="1045.50" style="font-family:'Helvetica';font-size:55.08px;fill:#808080">Obese class I</text>
	<text x="334.08" y="1098.96" style="font-family:'Helvetica';font-size:55.08px;fill:#808080">Obese class II</text>
	<text x="334.08" y="1152.24" style="font-family:'Helvetica';font-size:55.08px;fill:#808080">Obese class III</text>
	<text x="334.08" y="1312.44" style="font-family:'Helvetica';font-size:55.08px;fill:#808080">Never (ref)</text>
	<text x="334.08" y="1365.72" style="font-family:'Helvetica';font-size:55.08px;fill:#808080">Ex-smoker</text>
	<text x="334.08" y="1419.18" style="font-family:'Helvetica';font-size:55.08px;fill:#808080">Current</text>
	<text x="334.08" y="1579.20" style="font-family:'Helvetica';font-size:55.08px;fill:#808080">White (ref)</text>
	<text x="334.08" y="1632.66" style="font-family:'Helvetica';font-size:55.08px;fill:#808080">Mixed</text>
	<text x="334.08" y="1685.94" style="font-family:'Helvetica';font-size:55.08px;fill:#808080">Asian/Asian British</text>
	<text x="334.08" y="1739.40" style="font-family:'Helvetica';font-size:55.08px;fill:#808080">Black</text>
	<text x="334.08" y="1792.68" style="font-family:'Helvetica';font-size:55.08px;fill:#808080">Other</text>
	<text x="334.08" y="1952.88" style="font-family:'Helvetica';font-size:55.08px;fill:#808080">1 (least deprived, ref)</text>
	<text x="334.08" y="2006.16" style="font-family:'Helvetica';font-size:55.08px;fill:#808080">2</text>
	<text x="334.08" y="2059.62" style="font-family:'Helvetica';font-size:55.08px;fill:#808080">3</text>
	<text x="334.08" y="2112.90" style="font-family:'Helvetica';font-size:55.08px;fill:#808080">4</text>
	<text x="334.08" y="2166.36" style="font-family:'Helvetica';font-size:55.08px;fill:#808080">5 (most deprived)</text>
	<text x="334.08" y="2326.38" style="font-family:'Helvetica';font-size:55.08px;fill:#808080">No diabetes (ref)</text>
	<text x="334.08" y="2379.66" style="font-family:'Helvetica';font-size:55.08px;fill:#808080">Controlled (HbA1c &lt;7.5%)</text>
	<text x="334.08" y="2433.12" style="font-family:'Helvetica';font-size:55.08px;fill:#808080">Uncontrolled (HbA1c &gt;-7.5%)</text>
	<text x="334.08" y="2486.40" style="font-family:'Helvetica';font-size:55.08px;fill:#808080">Unknown HbA1c</text>
	<text x="334.08" y="2646.60" style="font-family:'Helvetica';font-size:55.08px;fill:#808080">Never (ref)</text>
	<text x="334.08" y="2699.88" style="font-family:'Helvetica';font-size:55.08px;fill:#808080">&lt;1 year ago</text>
	<text x="334.08" y="2753.34" style="font-family:'Helvetica';font-size:55.08px;fill:#808080">1-4.9 years ago</text>
	<text x="334.08" y="2806.62" style="font-family:'Helvetica';font-size:55.08px;fill:#808080">5+ years ago</text>
	<text x="334.08" y="2966.82" style="font-family:'Helvetica';font-size:55.08px;fill:#808080">Never (ref)</text>
	<text x="334.08" y="3020.10" style="font-family:'Helvetica';font-size:55.08px;fill:#808080">&lt;1 year ago</text>
	<text x="334.08" y="3073.56" style="font-family:'Helvetica';font-size:55.08px;fill:#808080">1-4.9 years ago</text>
	<text x="334.08" y="3126.84" style="font-family:'Helvetica';font-size:55.08px;fill:#808080">5+ years ago</text>
	<text x="334.08" y="3287.04" style="font-family:'Helvetica';font-size:55.08px;fill:#808080">No asthma (ref)</text>
	<text x="334.08" y="3340.32" style="font-family:'Helvetica';font-size:55.08px;fill:#808080">With no recent OCS use</text>
	<text x="334.08" y="3393.78" style="font-family:'Helvetica';font-size:55.08px;fill:#808080">With recent OCS use</text>
	<line x1="179.82" y1="5222.70" x2="179.82" y2="138.60" style="stroke:#000000;stroke-width:7.92"/>
	<line x1="179.82" y1="5222.70" x2="3821.40" y2="5222.70" style="stroke:#000000;stroke-width:7.92"/>
	<line x1="1097.82" y1="5222.70" x2="1097.82" y2="5277.60" style="stroke:#000000;stroke-width:7.92"/>
	<text x="1097.82" y="5401.31" style="font-family:'Helvetica';font-size:137.52px;fill:#000000" text-anchor="middle">.25</text>
	<line x1="3053.16" y1="5222.70" x2="3053.16" y2="5277.60" style="stroke:#000000;stroke-width:7.92"/>
	<text x="3053.16" y="5401.31" style="font-family:'Helvetica';font-size:137.52px;fill:#000000" text-anchor="middle">5</text>
	<line x1="2002.68" y1="5222.70" x2="2002.68" y2="5277.60" style="stroke:#000000;stroke-width:7.92"/>
	<text x="2002.68" y="5401.31" style="font-family:'Helvetica';font-size:137.52px;fill:#000000" text-anchor="middle">1</text>
	<line x1="2455.02" y1="5222.70" x2="2455.02" y2="5277.60" style="stroke:#000000;stroke-width:7.92"/>
	<text x="2455.02" y="5401.31" style="font-family:'Helvetica';font-size:137.52px;fill:#000000" text-anchor="middle">2</text>
	<line x1="3053.16" y1="5222.70" x2="3053.16" y2="5277.60" style="stroke:#000000;stroke-width:7.92"/>
	<text x="3053.16" y="5401.31" style="font-family:'Helvetica';font-size:137.52px;fill:#000000" text-anchor="middle">5</text>
	<line x1="3505.50" y1="5222.70" x2="3505.50" y2="5277.60" style="stroke:#000000;stroke-width:7.92"/>
	<text x="3505.50" y="5401.31" style="font-family:'Helvetica';font-size:137.52px;fill:#000000" text-anchor="middle">10</text>
	<text x="2000.70" y="5552.51" style="font-family:'Helvetica';font-size:137.52px;fill:#000000" text-anchor="middle">Hazard Ratio &amp; 95% CI</text>
</svg>
