<?xml version="1.0" encoding="UTF-8" standalone="no"?>
<!-- This is a Stata 15.1 generated SVG file (http://www.stata.com) -->

<svg version="1.1" width="5.50in" height="4.00in" viewBox="0 0 3960 2880" xmlns="http://www.w3.org/2000/svg" xmlns:xlink="http://www.w3.org/1999/xlink">
	<desc>Stata Graph - Graph</desc>
	<rect x="0" y="0" width="3960" height="2880" style="fill:#EAF2F3;stroke:none"/>
	<rect x="0.00" y="0.00" width="3959.88" height="2880.00" style="fill:#EAF2F3"/>
	<rect x="2.88" y="2.88" width="3954.12" height="2874.24" style="fill:none;stroke:#EAF2F3;stroke-width:5.76"/>
	<rect x="297.87" y="207.91" width="1799.32" height="2098.62" style="fill:#EAF2F3"/>
	<rect x="300.03" y="210.07" width="1795.01" height="2094.30" style="fill:none;stroke:#EAF2F3;stroke-width:4.32"/>
	<rect x="703.52" y="414.45" width="1318.06" height="1599.02" style="fill:#FFFFFF"/>
	<rect x="705.68" y="416.61" width="1313.74" height="1594.70" style="fill:none;stroke:#FFFFFF;stroke-width:4.32"/>
	<line x1="703.52" y1="1965.95" x2="2021.58" y2="1965.95" style="stroke:#EAF2F3;stroke-width:6.48"/>
	<line x1="703.52" y1="1652.61" x2="2021.58" y2="1652.61" style="stroke:#EAF2F3;stroke-width:6.48"/>
	<line x1="703.52" y1="1339.26" x2="2021.58" y2="1339.26" style="stroke:#EAF2F3;stroke-width:6.48"/>
	<line x1="703.52" y1="1025.92" x2="2021.58" y2="1025.92" style="stroke:#EAF2F3;stroke-width:6.48"/>
	<line x1="703.52" y1="712.57" x2="2021.58" y2="712.57" style="stroke:#EAF2F3;stroke-width:6.48"/>
	<line x1="1022.79" y1="1959.39" x2="1974.06" y2="1959.39" stroke-linecap="round" style="stroke:#FF0000;stroke-width:6.48"/>
	<line x1="1974.06" y1="1959.39" x2="1974.06" y2="1959.39" stroke-linecap="round" style="stroke:#FF0000;stroke-width:6.48"/>
	<line x1="1022.79" y1="1966.08" x2="1080.34" y2="1966.08" style="stroke:#A0522D;stroke-width:6.48"/>
	<line x1="1106.33" y1="1966.08" x2="1109.17" y2="1966.08" style="stroke:#A0522D;stroke-width:6.48"/>
	<line x1="1135.16" y1="1966.08" x2="1192.70" y2="1966.08" style="stroke:#A0522D;stroke-width:6.48"/>
	<line x1="1218.69" y1="1966.08" x2="1221.54" y2="1966.08" style="stroke:#A0522D;stroke-width:6.48"/>
	<line x1="1247.40" y1="1966.08" x2="1305.07" y2="1966.08" style="stroke:#A0522D;stroke-width:6.48"/>
	<line x1="1330.93" y1="1966.08" x2="1333.90" y2="1966.08" style="stroke:#A0522D;stroke-width:6.48"/>
	<line x1="1359.77" y1="1966.08" x2="1417.43" y2="1966.08" style="stroke:#A0522D;stroke-width:6.48"/>
	<line x1="1443.30" y1="1966.08" x2="1446.14" y2="1966.08" style="stroke:#A0522D;stroke-width:6.48"/>
	<line x1="1472.13" y1="1966.08" x2="1529.67" y2="1966.08" style="stroke:#A0522D;stroke-width:6.48"/>
	<line x1="1555.66" y1="1966.08" x2="1558.51" y2="1966.08" style="stroke:#A0522D;stroke-width:6.48"/>
	<line x1="1584.49" y1="1966.08" x2="1642.04" y2="1966.08" style="stroke:#A0522D;stroke-width:6.48"/>
	<line x1="1668.03" y1="1966.08" x2="1670.87" y2="1966.08" style="stroke:#A0522D;stroke-width:6.48"/>
	<line x1="1696.86" y1="1966.08" x2="1754.40" y2="1966.08" style="stroke:#A0522D;stroke-width:6.48"/>
	<line x1="1780.39" y1="1966.08" x2="1783.24" y2="1966.08" style="stroke:#A0522D;stroke-width:6.48"/>
	<line x1="1809.22" y1="1966.08" x2="1866.77" y2="1966.08" style="stroke:#A0522D;stroke-width:6.48"/>
	<line x1="1892.76" y1="1966.08" x2="1895.60" y2="1966.08" style="stroke:#A0522D;stroke-width:6.48"/>
	<line x1="1921.47" y1="1966.08" x2="1974.06" y2="1966.08" style="stroke:#A0522D;stroke-width:6.48"/>
	<line x1="1974.06" y1="1966.08" x2="1974.06" y2="1966.08" style="stroke:#A0522D;stroke-width:6.48"/>
	<line x1="703.52" y1="2013.48" x2="703.52" y2="414.45" style="stroke:#000000;stroke-width:4.32"/>
	<line x1="703.52" y1="1965.95" x2="673.45" y2="1965.95" style="stroke:#000000;stroke-width:4.32"/>
	<text x="658.47" y="1992.23" style="font-family:'Helvetica';font-size:74.99px;fill:#000000" text-anchor="end">0.0000</text>
	<line x1="703.52" y1="1652.61" x2="673.45" y2="1652.61" style="stroke:#000000;stroke-width:4.32"/>
	<text x="658.47" y="1678.89" style="font-family:'Helvetica';font-size:74.99px;fill:#000000" text-anchor="end">0.0025</text>
	<line x1="703.52" y1="1339.26" x2="673.45" y2="1339.26" style="stroke:#000000;stroke-width:4.32"/>
	<text x="658.47" y="1365.54" style="font-family:'Helvetica';font-size:74.99px;fill:#000000" text-anchor="end">0.0050</text>
	<line x1="703.52" y1="1025.92" x2="673.45" y2="1025.92" style="stroke:#000000;stroke-width:4.32"/>
	<text x="658.47" y="1052.20" style="font-family:'Helvetica';font-size:74.99px;fill:#000000" text-anchor="end">0.0075</text>
	<line x1="703.52" y1="712.57" x2="673.45" y2="712.57" style="stroke:#000000;stroke-width:4.32"/>
	<text x="658.47" y="738.85" style="font-family:'Helvetica';font-size:74.99px;fill:#000000" text-anchor="end">0.0100</text>
	<line x1="703.52" y1="2013.48" x2="2021.58" y2="2013.48" style="stroke:#000000;stroke-width:4.32"/>
	<line x1="751.04" y1="2013.48" x2="751.04" y2="2043.55" style="stroke:#000000;stroke-width:4.32"/>
	<text x="751.04" y="2110.96" style="font-family:'Helvetica';font-size:74.99px;fill:#000000" text-anchor="middle">30</text>
	<line x1="977.50" y1="2013.48" x2="977.50" y2="2043.55" style="stroke:#000000;stroke-width:4.32"/>
	<text x="977.50" y="2110.96" style="font-family:'Helvetica';font-size:74.99px;fill:#000000" text-anchor="middle">40</text>
	<line x1="1203.96" y1="2013.48" x2="1203.96" y2="2043.55" style="stroke:#000000;stroke-width:4.32"/>
	<text x="1203.96" y="2110.96" style="font-family:'Helvetica';font-size:74.99px;fill:#000000" text-anchor="middle">50</text>
	<line x1="1430.55" y1="2013.48" x2="1430.55" y2="2043.55" style="stroke:#000000;stroke-width:4.32"/>
	<text x="1430.55" y="2110.96" style="font-family:'Helvetica';font-size:74.99px;fill:#000000" text-anchor="middle">60</text>
	<line x1="1657.01" y1="2013.48" x2="1657.01" y2="2043.55" style="stroke:#000000;stroke-width:4.32"/>
	<text x="1657.01" y="2110.96" style="font-family:'Helvetica';font-size:74.99px;fill:#000000" text-anchor="middle">70</text>
	<line x1="1883.47" y1="2013.48" x2="1883.47" y2="2043.55" style="stroke:#000000;stroke-width:4.32"/>
	<text x="1883.47" y="2110.96" style="font-family:'Helvetica';font-size:74.99px;fill:#000000" text-anchor="middle">80</text>
	<text x="1362.61" y="2193.38" style="font-family:'Helvetica';font-size:74.99px;fill:#000000" text-anchor="middle">Days since 1 Feb 2020</text>
	<text x="1362.61" y="369.91" style="font-family:'Helvetica';font-size:104.94px;fill:#1E2D53" text-anchor="middle">Female</text>
	<rect x="2097.19" y="207.91" width="1799.33" height="2098.62" style="fill:#EAF2F3"/>
	<rect x="2099.35" y="210.07" width="1795.01" height="2094.30" style="fill:none;stroke:#EAF2F3;stroke-width:4.32"/>
	<rect x="2502.84" y="414.45" width="1318.06" height="1599.02" style="fill:#FFFFFF"/>
	<rect x="2505.00" y="416.61" width="1313.74" height="1594.70" style="fill:none;stroke:#FFFFFF;stroke-width:4.32"/>
	<line x1="2502.84" y1="1965.95" x2="3820.91" y2="1965.95" style="stroke:#EAF2F3;stroke-width:6.48"/>
	<line x1="2502.84" y1="1652.61" x2="3820.91" y2="1652.61" style="stroke:#EAF2F3;stroke-width:6.48"/>
	<line x1="2502.84" y1="1339.26" x2="3820.91" y2="1339.26" style="stroke:#EAF2F3;stroke-width:6.48"/>
	<line x1="2502.84" y1="1025.92" x2="3820.91" y2="1025.92" style="stroke:#EAF2F3;stroke-width:6.48"/>
	<line x1="2502.84" y1="712.57" x2="3820.91" y2="712.57" style="stroke:#EAF2F3;stroke-width:6.48"/>
	<line x1="2821.99" y1="1966.08" x2="3773.39" y2="1966.08" stroke-linecap="round" style="stroke:#FF0000;stroke-width:6.48"/>
	<line x1="3773.39" y1="1966.08" x2="3773.39" y2="1966.08" stroke-linecap="round" style="stroke:#FF0000;stroke-width:6.48"/>
	<line x1="2821.99" y1="1966.08" x2="2879.54" y2="1966.08" style="stroke:#FF7F00;stroke-width:6.48"/>
	<line x1="2908.37" y1="1966.08" x2="2966.04" y2="1966.08" style="stroke:#FF7F00;stroke-width:6.48"/>
	<line x1="2994.75" y1="1966.08" x2="3052.42" y2="1966.08" style="stroke:#FF7F00;stroke-width:6.48"/>
	<line x1="3081.13" y1="1966.08" x2="3138.80" y2="1966.08" style="stroke:#FF7F00;stroke-width:6.48"/>
	<line x1="3167.63" y1="1966.08" x2="3225.17" y2="1966.08" style="stroke:#FF7F00;stroke-width:6.48"/>
	<line x1="3254.01" y1="1966.08" x2="3311.55" y2="1966.08" style="stroke:#FF7F00;stroke-width:6.48"/>
	<line x1="3340.38" y1="1966.08" x2="3397.93" y2="1966.08" style="stroke:#FF7F00;stroke-width:6.48"/>
	<line x1="3426.76" y1="1966.08" x2="3484.30" y2="1966.08" style="stroke:#FF7F00;stroke-width:6.48"/>
	<line x1="3513.14" y1="1966.08" x2="3570.68" y2="1966.08" style="stroke:#FF7F00;stroke-width:6.48"/>
	<line x1="3599.52" y1="1966.08" x2="3657.06" y2="1966.08" style="stroke:#FF7F00;stroke-width:6.48"/>
	<line x1="3685.89" y1="1966.08" x2="3743.44" y2="1966.08" style="stroke:#FF7F00;stroke-width:6.48"/>
	<line x1="3772.27" y1="1966.08" x2="3773.39" y2="1966.08" style="stroke:#FF7F00;stroke-width:6.48"/>
	<line x1="3773.39" y1="1966.08" x2="3773.39" y2="1966.08" style="stroke:#FF7F00;stroke-width:6.48"/>
	<line x1="2502.84" y1="2013.48" x2="2502.84" y2="414.45" style="stroke:#000000;stroke-width:4.32"/>
	<line x1="2502.84" y1="1965.95" x2="2472.77" y2="1965.95" style="stroke:#000000;stroke-width:4.32"/>
	<text x="2457.80" y="1992.23" style="font-family:'Helvetica';font-size:74.99px;fill:#000000" text-anchor="end">0.0000</text>
	<line x1="2502.84" y1="1652.61" x2="2472.77" y2="1652.61" style="stroke:#000000;stroke-width:4.32"/>
	<text x="2457.80" y="1678.89" style="font-family:'Helvetica';font-size:74.99px;fill:#000000" text-anchor="end">0.0025</text>
	<line x1="2502.84" y1="1339.26" x2="2472.77" y2="1339.26" style="stroke:#000000;stroke-width:4.32"/>
	<text x="2457.80" y="1365.54" style="font-family:'Helvetica';font-size:74.99px;fill:#000000" text-anchor="end">0.0050</text>
	<line x1="2502.84" y1="1025.92" x2="2472.77" y2="1025.92" style="stroke:#000000;stroke-width:4.32"/>
	<text x="2457.80" y="1052.20" style="font-family:'Helvetica';font-size:74.99px;fill:#000000" text-anchor="end">0.0075</text>
	<line x1="2502.84" y1="712.57" x2="2472.77" y2="712.57" style="stroke:#000000;stroke-width:4.32"/>
	<text x="2457.80" y="738.85" style="font-family:'Helvetica';font-size:74.99px;fill:#000000" text-anchor="end">0.0100</text>
	<line x1="2502.84" y1="2013.48" x2="3820.91" y2="2013.48" style="stroke:#000000;stroke-width:4.32"/>
	<line x1="2550.36" y1="2013.48" x2="2550.36" y2="2043.55" style="stroke:#000000;stroke-width:4.32"/>
	<text x="2550.36" y="2110.96" style="font-family:'Helvetica';font-size:74.99px;fill:#000000" text-anchor="middle">30</text>
	<line x1="2776.83" y1="2013.48" x2="2776.83" y2="2043.55" style="stroke:#000000;stroke-width:4.32"/>
	<text x="2776.83" y="2110.96" style="font-family:'Helvetica';font-size:74.99px;fill:#000000" text-anchor="middle">40</text>
	<line x1="3003.29" y1="2013.48" x2="3003.29" y2="2043.55" style="stroke:#000000;stroke-width:4.32"/>
	<text x="3003.29" y="2110.96" style="font-family:'Helvetica';font-size:74.99px;fill:#000000" text-anchor="middle">50</text>
	<line x1="3229.75" y1="2013.48" x2="3229.75" y2="2043.55" style="stroke:#000000;stroke-width:4.32"/>
	<text x="3229.75" y="2110.96" style="font-family:'Helvetica';font-size:74.99px;fill:#000000" text-anchor="middle">60</text>
	<line x1="3456.34" y1="2013.48" x2="3456.34" y2="2043.55" style="stroke:#000000;stroke-width:4.32"/>
	<text x="3456.34" y="2110.96" style="font-family:'Helvetica';font-size:74.99px;fill:#000000" text-anchor="middle">70</text>
	<line x1="3682.80" y1="2013.48" x2="3682.80" y2="2043.55" style="stroke:#000000;stroke-width:4.32"/>
	<text x="3682.80" y="2110.96" style="font-family:'Helvetica';font-size:74.99px;fill:#000000" text-anchor="middle">80</text>
	<text x="3161.81" y="2193.38" style="font-family:'Helvetica';font-size:74.99px;fill:#000000" text-anchor="middle">Days since 1 Feb 2020</text>
	<text x="3161.81" y="369.91" style="font-family:'Helvetica';font-size:104.94px;fill:#1E2D53" text-anchor="middle">Male</text>
	<text x="150.62" y="1257.22" style="font-family:'Helvetica';font-size:99.99px;fill:#000000" transform="rotate(-90 150.62,1257.22)" text-anchor="middle">Cumulative probability</text>
	<text x="250.61" y="1257.22" style="font-family:'Helvetica';font-size:99.99px;fill:#000000" transform="rotate(-90 250.61,1257.22)" text-anchor="middle">hospital COVID-19 death</text>
	<text x="2097.19" y="157.51" style="font-family:'Helvetica';font-size:110.01px;fill:#000000" text-anchor="middle"> </text>
	<rect x="867.12" y="2341.18" width="2460.27" height="440.94" style="fill:#FFFFFF"/>
	<rect x="870.00" y="2344.06" width="2454.51" height="435.18" style="fill:none;stroke:#000000;stroke-width:5.76"/>
	<line x1="910.30" y1="2548.83" x2="1284.65" y2="2548.83" style="stroke:#FF0000;stroke-width:8.64"/>
	<line x1="910.30" y1="2688.92" x2="1284.65" y2="2688.92" style="stroke:#0000FF;stroke-width:8.64"/>
	<line x1="1748.22" y1="2548.83" x2="1805.76" y2="2548.83" style="stroke:#FF7F00;stroke-width:8.64"/>
	<line x1="1834.59" y1="2548.83" x2="1892.14" y2="2548.83" style="stroke:#FF7F00;stroke-width:8.64"/>
	<line x1="1920.97" y1="2548.83" x2="1978.52" y2="2548.83" style="stroke:#FF7F00;stroke-width:8.64"/>
	<line x1="2007.35" y1="2548.83" x2="2064.89" y2="2548.83" style="stroke:#FF7F00;stroke-width:8.64"/>
	<line x1="2093.73" y1="2548.83" x2="2122.56" y2="2548.83" style="stroke:#FF7F00;stroke-width:8.64"/>
	<line x1="1748.22" y1="2688.92" x2="1805.76" y2="2688.92" style="stroke:#008000;stroke-width:8.64"/>
	<line x1="1834.59" y1="2688.92" x2="1892.14" y2="2688.92" style="stroke:#008000;stroke-width:8.64"/>
	<line x1="1920.97" y1="2688.92" x2="1978.52" y2="2688.92" style="stroke:#008000;stroke-width:8.64"/>
	<line x1="2007.35" y1="2688.92" x2="2064.89" y2="2688.92" style="stroke:#008000;stroke-width:8.64"/>
	<line x1="2093.73" y1="2688.92" x2="2122.56" y2="2688.92" style="stroke:#008000;stroke-width:8.64"/>
	<line x1="2586.25" y1="2548.83" x2="2643.80" y2="2548.83" style="stroke:#FF0080;stroke-width:8.64"/>
	<line x1="2669.78" y1="2548.83" x2="2672.63" y2="2548.83" style="stroke:#FF0080;stroke-width:8.64"/>
	<line x1="2698.62" y1="2548.83" x2="2756.16" y2="2548.83" style="stroke:#FF0080;stroke-width:8.64"/>
	<line x1="2782.15" y1="2548.83" x2="2784.99" y2="2548.83" style="stroke:#FF0080;stroke-width:8.64"/>
	<line x1="2810.98" y1="2548.83" x2="2868.53" y2="2548.83" style="stroke:#FF0080;stroke-width:8.64"/>
	<line x1="2894.51" y1="2548.83" x2="2897.36" y2="2548.83" style="stroke:#FF0080;stroke-width:8.64"/>
	<line x1="2923.22" y1="2548.83" x2="2960.59" y2="2548.83" style="stroke:#FF0080;stroke-width:8.64"/>
	<line x1="2586.25" y1="2688.92" x2="2643.80" y2="2688.92" style="stroke:#A0522D;stroke-width:8.64"/>
	<line x1="2669.78" y1="2688.92" x2="2672.63" y2="2688.92" style="stroke:#A0522D;stroke-width:8.64"/>
	<line x1="2698.62" y1="2688.92" x2="2756.16" y2="2688.92" style="stroke:#A0522D;stroke-width:8.64"/>
	<line x1="2782.15" y1="2688.92" x2="2784.99" y2="2688.92" style="stroke:#A0522D;stroke-width:8.64"/>
	<line x1="2810.98" y1="2688.92" x2="2868.53" y2="2688.92" style="stroke:#A0522D;stroke-width:8.64"/>
	<line x1="2894.51" y1="2688.92" x2="2897.36" y2="2688.92" style="stroke:#A0522D;stroke-width:8.64"/>
	<line x1="2923.22" y1="2688.92" x2="2960.59" y2="2688.92" style="stroke:#A0522D;stroke-width:8.64"/>
	<text x="1344.67" y="2576.85" style="font-family:'Helvetica';font-size:79.94px;fill:#000000">18-&lt;40</text>
	<text x="1344.67" y="2716.94" style="font-family:'Helvetica';font-size:79.94px;fill:#000000">40-&lt;50</text>
	<text x="2182.58" y="2576.85" style="font-family:'Helvetica';font-size:79.94px;fill:#000000">50-&lt;60</text>
	<text x="2182.58" y="2716.94" style="font-family:'Helvetica';font-size:79.94px;fill:#000000">60-&lt;70</text>
	<text x="3020.61" y="2576.85" style="font-family:'Helvetica';font-size:79.94px;fill:#000000">70-&lt;80</text>
	<text x="3020.61" y="2716.94" style="font-family:'Helvetica';font-size:79.94px;fill:#000000">80+</text>
	<text x="2097.19" y="2448.93" style="font-family:'Helvetica';font-size:79.94px;fill:#000000" text-anchor="middle">Age group</text>
</svg>
