<?xml version="1.0" encoding="UTF-8" standalone="no"?>
<!-- This is a Stata 15.1 generated SVG file (http://www.stata.com) -->

<svg version="1.1" width="5.50in" height="4.00in" viewBox="0 0 3960 2880" xmlns="http://www.w3.org/2000/svg" xmlns:xlink="http://www.w3.org/1999/xlink">
	<desc>Stata Graph - Graph</desc>
	<rect x="0" y="0" width="3960" height="2880" style="fill:#EAF2F3;stroke:none"/>
	<rect x="0.00" y="0.00" width="3959.88" height="2880.00" style="fill:#EAF2F3"/>
	<rect x="2.88" y="2.88" width="3954.12" height="2874.24" style="fill:none;stroke:#EAF2F3;stroke-width:5.76"/>
	<rect x="540.79" y="415.32" width="3318.23" height="1398.42" style="fill:#FFFFFF"/>
	<rect x="543.67" y="418.20" width="3312.47" height="1392.66" style="fill:none;stroke:#FFFFFF;stroke-width:5.76"/>
	<line x1="540.79" y1="1750.37" x2="3859.02" y2="1750.37" style="stroke:#EAF2F3;stroke-width:8.64"/>
	<line x1="540.79" y1="1485.42" x2="3859.02" y2="1485.42" style="stroke:#EAF2F3;stroke-width:8.64"/>
	<line x1="540.79" y1="1220.46" x2="3859.02" y2="1220.46" style="stroke:#EAF2F3;stroke-width:8.64"/>
	<line x1="540.79" y1="955.63" x2="3859.02" y2="955.63" style="stroke:#EAF2F3;stroke-width:8.64"/>
	<line x1="540.79" y1="690.67" x2="3859.02" y2="690.67" style="stroke:#EAF2F3;stroke-width:8.64"/>
	<line x1="540.79" y1="1813.74" x2="540.79" y2="415.32" style="stroke:#000000;stroke-width:5.76"/>
	<line x1="540.79" y1="1750.37" x2="500.82" y2="1750.37" style="stroke:#000000;stroke-width:5.76"/>
	<text x="480.77" y="1785.40" style="font-family:'Helvetica';font-size:99.99px;fill:#000000" text-anchor="end">0.0000</text>
	<line x1="540.79" y1="1485.42" x2="500.82" y2="1485.42" style="stroke:#000000;stroke-width:5.76"/>
	<text x="480.77" y="1520.45" style="font-family:'Helvetica';font-size:99.99px;fill:#000000" text-anchor="end">0.0025</text>
	<line x1="540.79" y1="1220.46" x2="500.82" y2="1220.46" style="stroke:#000000;stroke-width:5.76"/>
	<text x="480.77" y="1255.49" style="font-family:'Helvetica';font-size:99.99px;fill:#000000" text-anchor="end">0.0050</text>
	<line x1="540.79" y1="955.63" x2="500.82" y2="955.63" style="stroke:#000000;stroke-width:5.76"/>
	<text x="480.77" y="990.66" style="font-family:'Helvetica';font-size:99.99px;fill:#000000" text-anchor="end">0.0075</text>
	<line x1="540.79" y1="690.67" x2="500.82" y2="690.67" style="stroke:#000000;stroke-width:5.76"/>
	<text x="480.77" y="725.70" style="font-family:'Helvetica';font-size:99.99px;fill:#000000" text-anchor="end">0.0100</text>
	<line x1="540.79" y1="1813.74" x2="3859.02" y2="1813.74" style="stroke:#000000;stroke-width:5.76"/>
	<line x1="604.15" y1="1813.74" x2="604.15" y2="1853.71" style="stroke:#000000;stroke-width:5.76"/>
	<text x="604.15" y="1943.57" style="font-family:'Helvetica';font-size:99.99px;fill:#000000" text-anchor="middle">30</text>
	<line x1="1195.18" y1="1813.74" x2="1195.18" y2="1853.71" style="stroke:#000000;stroke-width:5.76"/>
	<text x="1195.18" y="1943.57" style="font-family:'Helvetica';font-size:99.99px;fill:#000000" text-anchor="middle">40</text>
	<line x1="1786.21" y1="1813.74" x2="1786.21" y2="1853.71" style="stroke:#000000;stroke-width:5.76"/>
	<text x="1786.21" y="1943.57" style="font-family:'Helvetica';font-size:99.99px;fill:#000000" text-anchor="middle">50</text>
	<line x1="2377.24" y1="1813.74" x2="2377.24" y2="1853.71" style="stroke:#000000;stroke-width:5.76"/>
	<text x="2377.24" y="1943.57" style="font-family:'Helvetica';font-size:99.99px;fill:#000000" text-anchor="middle">60</text>
	<line x1="2968.27" y1="1813.74" x2="2968.27" y2="1853.71" style="stroke:#000000;stroke-width:5.76"/>
	<text x="2968.27" y="1943.57" style="font-family:'Helvetica';font-size:99.99px;fill:#000000" text-anchor="middle">70</text>
	<line x1="3559.30" y1="1813.74" x2="3559.30" y2="1853.71" style="stroke:#000000;stroke-width:5.76"/>
	<text x="3559.30" y="1943.57" style="font-family:'Helvetica';font-size:99.99px;fill:#000000" text-anchor="middle">80</text>
	<text x="2199.90" y="2053.58" style="font-family:'Helvetica';font-size:99.99px;fill:#000000" text-anchor="middle">analysis time</text>
	<rect x="809.45" y="2138.22" width="2780.91" height="606.39" style="fill:#FFFFFF"/>
	<rect x="812.33" y="2141.10" width="2775.15" height="600.63" style="fill:none;stroke:#000000;stroke-width:5.76"/>
	<line x1="852.64" y1="2231.41" x2="1227.11" y2="2231.41" style="stroke:#1A476F;stroke-width:8.64"/>
	<line x1="2109.57" y1="2231.41" x2="2483.91" y2="2231.41" style="stroke:#90353B;stroke-width:8.64"/>
	<line x1="852.64" y1="2371.50" x2="1227.11" y2="2371.50" style="stroke:#55752F;stroke-width:8.64"/>
	<line x1="2109.57" y1="2371.50" x2="2483.91" y2="2371.50" style="stroke:#E37E00;stroke-width:8.64"/>
	<line x1="852.64" y1="2511.46" x2="1227.11" y2="2511.46" style="stroke:#6E8E84;stroke-width:8.64"/>
	<line x1="2109.57" y1="2511.46" x2="2483.91" y2="2511.46" style="stroke:#C10534;stroke-width:8.64"/>
	<line x1="852.64" y1="2651.43" x2="1227.11" y2="2651.43" style="stroke:#938DD2;stroke-width:8.64"/>
	<line x1="2109.57" y1="2651.43" x2="2483.91" y2="2651.43" style="stroke:#CAC27E;stroke-width:8.64"/>
	<text x="1287.00" y="2266.43" style="font-family:'Helvetica';font-size:99.99px;fill:#000000">East</text>
	<text x="2543.93" y="2266.43" style="font-family:'Helvetica';font-size:99.99px;fill:#000000">London</text>
	<text x="1287.00" y="2406.52" style="font-family:'Helvetica';font-size:99.99px;fill:#000000">North East</text>
	<text x="2543.93" y="2406.52" style="font-family:'Helvetica';font-size:99.99px;fill:#000000">North West</text>
	<text x="1287.00" y="2546.49" style="font-family:'Helvetica';font-size:99.99px;fill:#000000">South East</text>
	<text x="2543.93" y="2546.49" style="font-family:'Helvetica';font-size:99.99px;fill:#000000">South West</text>
	<text x="1287.00" y="2686.46" style="font-family:'Helvetica';font-size:99.99px;fill:#000000">West Midlands</text>
	<text x="2543.93" y="2686.46" style="font-family:'Helvetica';font-size:99.99px;fill:#000000">Yorkshire and The Hu</text>
	<text x="2199.90" y="215.98" style="font-family:'Helvetica';font-size:139.96px;fill:#1E2D53" text-anchor="middle">Failure functions</text>
	<text x="2199.90" y="356.06" style="font-family:'Helvetica';font-size:139.96px;fill:#1E2D53" text-anchor="middle">adjusted for c_age c_male</text>
</svg>
