<?xml version="1.0" encoding="UTF-8" standalone="no"?>
<!-- This is a Stata 15.1 generated SVG file (http://www.stata.com) -->

<svg version="1.1" width="5.50in" height="4.00in" viewBox="0 0 3960 2880" xmlns="http://www.w3.org/2000/svg" xmlns:xlink="http://www.w3.org/1999/xlink">
	<desc>Stata Graph - Graph</desc>
	<rect x="0" y="0" width="3960" height="2880" style="fill:#EAF2F3;stroke:none"/>
	<rect x="0.00" y="0.00" width="3959.88" height="2880.00" style="fill:#EAF2F3"/>
	<rect x="2.88" y="2.88" width="3954.12" height="2874.24" style="fill:none;stroke:#EAF2F3;stroke-width:5.76"/>
	<rect x="540.79" y="415.32" width="3318.23" height="1818.32" style="fill:#FFFFFF"/>
	<rect x="543.67" y="418.20" width="3312.47" height="1812.56" style="fill:none;stroke:#FFFFFF;stroke-width:5.76"/>
	<line x1="540.79" y1="2170.27" x2="3859.02" y2="2170.27" style="stroke:#EAF2F3;stroke-width:8.64"/>
	<line x1="540.79" y1="1817.94" x2="3859.02" y2="1817.94" style="stroke:#EAF2F3;stroke-width:8.64"/>
	<line x1="540.79" y1="1465.49" x2="3859.02" y2="1465.49" style="stroke:#EAF2F3;stroke-width:8.64"/>
	<line x1="540.79" y1="1113.04" x2="3859.02" y2="1113.04" style="stroke:#EAF2F3;stroke-width:8.64"/>
	<line x1="540.79" y1="760.72" x2="3859.02" y2="760.72" style="stroke:#EAF2F3;stroke-width:8.64"/>
	<line x1="1313.36" y1="2170.40" x2="3795.66" y2="2170.40" stroke-linecap="round" style="stroke:#1A476F;stroke-width:8.64"/>
	<line x1="3795.66" y1="2170.40" x2="3795.66" y2="2170.40" stroke-linecap="round" style="stroke:#1A476F;stroke-width:8.64"/>
	<line x1="540.79" y1="2233.63" x2="540.79" y2="415.32" style="stroke:#000000;stroke-width:5.76"/>
	<line x1="540.79" y1="2170.27" x2="500.82" y2="2170.27" style="stroke:#000000;stroke-width:5.76"/>
	<text x="480.77" y="2205.30" style="font-family:'Helvetica';font-size:99.99px;fill:#000000" text-anchor="end">0.0000</text>
	<line x1="540.79" y1="1817.94" x2="500.82" y2="1817.94" style="stroke:#000000;stroke-width:5.76"/>
	<text x="480.77" y="1852.97" style="font-family:'Helvetica';font-size:99.99px;fill:#000000" text-anchor="end">0.0025</text>
	<line x1="540.79" y1="1465.49" x2="500.82" y2="1465.49" style="stroke:#000000;stroke-width:5.76"/>
	<text x="480.77" y="1500.52" style="font-family:'Helvetica';font-size:99.99px;fill:#000000" text-anchor="end">0.0050</text>
	<line x1="540.79" y1="1113.04" x2="500.82" y2="1113.04" style="stroke:#000000;stroke-width:5.76"/>
	<text x="480.77" y="1148.07" style="font-family:'Helvetica';font-size:99.99px;fill:#000000" text-anchor="end">0.0075</text>
	<line x1="540.79" y1="760.72" x2="500.82" y2="760.72" style="stroke:#000000;stroke-width:5.76"/>
	<text x="480.77" y="795.74" style="font-family:'Helvetica';font-size:99.99px;fill:#000000" text-anchor="end">0.0100</text>
	<line x1="540.79" y1="2233.63" x2="3859.02" y2="2233.63" style="stroke:#000000;stroke-width:5.76"/>
	<line x1="604.15" y1="2233.63" x2="604.15" y2="2273.73" style="stroke:#000000;stroke-width:5.76"/>
	<text x="604.15" y="2363.59" style="font-family:'Helvetica';font-size:99.99px;fill:#000000" text-anchor="middle">30</text>
	<line x1="1195.18" y1="2233.63" x2="1195.18" y2="2273.73" style="stroke:#000000;stroke-width:5.76"/>
	<text x="1195.18" y="2363.59" style="font-family:'Helvetica';font-size:99.99px;fill:#000000" text-anchor="middle">40</text>
	<line x1="1786.21" y1="2233.63" x2="1786.21" y2="2273.73" style="stroke:#000000;stroke-width:5.76"/>
	<text x="1786.21" y="2363.59" style="font-family:'Helvetica';font-size:99.99px;fill:#000000" text-anchor="middle">50</text>
	<line x1="2377.24" y1="2233.63" x2="2377.24" y2="2273.73" style="stroke:#000000;stroke-width:5.76"/>
	<text x="2377.24" y="2363.59" style="font-family:'Helvetica';font-size:99.99px;fill:#000000" text-anchor="middle">60</text>
	<line x1="2968.27" y1="2233.63" x2="2968.27" y2="2273.73" style="stroke:#000000;stroke-width:5.76"/>
	<text x="2968.27" y="2363.59" style="font-family:'Helvetica';font-size:99.99px;fill:#000000" text-anchor="middle">70</text>
	<line x1="3559.30" y1="2233.63" x2="3559.30" y2="2273.73" style="stroke:#000000;stroke-width:5.76"/>
	<text x="3559.30" y="2363.59" style="font-family:'Helvetica';font-size:99.99px;fill:#000000" text-anchor="middle">80</text>
	<text x="2199.90" y="2473.60" style="font-family:'Helvetica';font-size:99.99px;fill:#000000" text-anchor="middle">analysis time</text>
	<rect x="698.69" y="2558.24" width="3002.55" height="186.37" style="fill:#FFFFFF"/>
	<rect x="701.57" y="2561.12" width="2996.79" height="180.61" style="fill:none;stroke:#000000;stroke-width:5.76"/>
	<line x1="741.88" y1="2651.43" x2="1116.22" y2="2651.43" style="stroke:#1A476F;stroke-width:8.64"/>
	<line x1="2269.95" y1="2651.43" x2="2644.29" y2="2651.43" style="stroke:#90353B;stroke-width:8.64"/>
	<text x="1176.24" y="2686.46" style="font-family:'Helvetica';font-size:99.99px;fill:#000000">stroke_dementia = 0</text>
	<text x="2704.31" y="2686.46" style="font-family:'Helvetica';font-size:99.99px;fill:#000000">stroke_dementia = 1</text>
	<text x="2199.90" y="215.98" style="font-family:'Helvetica';font-size:139.96px;fill:#1E2D53" text-anchor="middle">Failure functions</text>
	<text x="2199.90" y="356.06" style="font-family:'Helvetica';font-size:139.96px;fill:#1E2D53" text-anchor="middle">adjusted for c_age c_male</text>
</svg>
