<?xml version="1.0" encoding="UTF-8" standalone="no"?>
<!-- This is a Stata 15.1 generated SVG file (http://www.stata.com) -->

<svg version="1.1" width="5.50in" height="4.00in" viewBox="0 0 3960 2880" xmlns="http://www.w3.org/2000/svg" xmlns:xlink="http://www.w3.org/1999/xlink">
	<desc>Stata Graph - Graph</desc>
	<rect x="0" y="0" width="3960" height="2880" style="fill:#EAF2F3;stroke:none"/>
	<rect x="0.00" y="0.00" width="3959.88" height="2880.00" style="fill:#EAF2F3"/>
	<rect x="2.88" y="2.88" width="3954.12" height="2874.24" style="fill:none;stroke:#EAF2F3;stroke-width:5.76"/>
	<rect x="533.24" y="415.32" width="3325.78" height="1538.38" style="fill:#FFFFFF"/>
	<rect x="536.12" y="418.20" width="3320.02" height="1532.62" style="fill:none;stroke:#FFFFFF;stroke-width:5.76"/>
	<line x1="533.24" y1="1890.34" x2="3859.02" y2="1890.34" style="stroke:#EAF2F3;stroke-width:8.64"/>
	<line x1="533.24" y1="1596.30" x2="3859.02" y2="1596.30" style="stroke:#EAF2F3;stroke-width:8.64"/>
	<line x1="533.24" y1="1302.14" x2="3859.02" y2="1302.14" style="stroke:#EAF2F3;stroke-width:8.64"/>
	<line x1="533.24" y1="1008.10" x2="3859.02" y2="1008.10" style="stroke:#EAF2F3;stroke-width:8.64"/>
	<line x1="533.24" y1="713.94" x2="3859.02" y2="713.94" style="stroke:#EAF2F3;stroke-width:8.64"/>
	<line x1="533.24" y1="1953.70" x2="533.24" y2="415.32" style="stroke:#000000;stroke-width:5.76"/>
	<line x1="533.24" y1="1890.34" x2="493.27" y2="1890.34" style="stroke:#000000;stroke-width:5.76"/>
	<text x="473.22" y="1925.37" style="font-family:'Helvetica';font-size:99.99px;fill:#000000" text-anchor="end">0.0000</text>
	<line x1="533.24" y1="1596.30" x2="493.27" y2="1596.30" style="stroke:#000000;stroke-width:5.76"/>
	<text x="473.22" y="1631.33" style="font-family:'Helvetica';font-size:99.99px;fill:#000000" text-anchor="end">0.0025</text>
	<line x1="533.24" y1="1302.14" x2="493.27" y2="1302.14" style="stroke:#000000;stroke-width:5.76"/>
	<text x="473.22" y="1337.17" style="font-family:'Helvetica';font-size:99.99px;fill:#000000" text-anchor="end">0.0050</text>
	<line x1="533.24" y1="1008.10" x2="493.27" y2="1008.10" style="stroke:#000000;stroke-width:5.76"/>
	<text x="473.22" y="1043.13" style="font-family:'Helvetica';font-size:99.99px;fill:#000000" text-anchor="end">0.0075</text>
	<line x1="533.24" y1="713.94" x2="493.27" y2="713.94" style="stroke:#000000;stroke-width:5.76"/>
	<text x="473.22" y="748.96" style="font-family:'Helvetica';font-size:99.99px;fill:#000000" text-anchor="end">0.0100</text>
	<line x1="533.24" y1="1953.70" x2="3859.02" y2="1953.70" style="stroke:#000000;stroke-width:5.76"/>
	<line x1="596.60" y1="1953.70" x2="596.60" y2="1993.67" style="stroke:#000000;stroke-width:5.76"/>
	<text x="596.60" y="2083.66" style="font-family:'Helvetica';font-size:99.99px;fill:#000000" text-anchor="middle">30</text>
	<line x1="1188.99" y1="1953.70" x2="1188.99" y2="1993.67" style="stroke:#000000;stroke-width:5.76"/>
	<text x="1188.99" y="2083.66" style="font-family:'Helvetica';font-size:99.99px;fill:#000000" text-anchor="middle">40</text>
	<line x1="1781.51" y1="1953.70" x2="1781.51" y2="1993.67" style="stroke:#000000;stroke-width:5.76"/>
	<text x="1781.51" y="2083.66" style="font-family:'Helvetica';font-size:99.99px;fill:#000000" text-anchor="middle">50</text>
	<line x1="2373.90" y1="1953.70" x2="2373.90" y2="1993.67" style="stroke:#000000;stroke-width:5.76"/>
	<text x="2373.90" y="2083.66" style="font-family:'Helvetica';font-size:99.99px;fill:#000000" text-anchor="middle">60</text>
	<line x1="2966.29" y1="1953.70" x2="2966.29" y2="1993.67" style="stroke:#000000;stroke-width:5.76"/>
	<text x="2966.29" y="2083.66" style="font-family:'Helvetica';font-size:99.99px;fill:#000000" text-anchor="middle">70</text>
	<line x1="3558.80" y1="1953.70" x2="3558.80" y2="1993.67" style="stroke:#000000;stroke-width:5.76"/>
	<text x="3558.80" y="2083.66" style="font-family:'Helvetica';font-size:99.99px;fill:#000000" text-anchor="middle">80</text>
	<text x="2196.19" y="2193.67" style="font-family:'Helvetica';font-size:99.99px;fill:#000000" text-anchor="middle">analysis time</text>
	<rect x="567.76" y="2278.31" width="3256.73" height="466.30" style="fill:#FFFFFF"/>
	<rect x="570.64" y="2281.19" width="3250.97" height="460.54" style="fill:none;stroke:#000000;stroke-width:5.76"/>
	<line x1="610.95" y1="2371.50" x2="978.62" y2="2371.50" style="stroke:#1A476F;stroke-width:8.64"/>
	<line x1="2610.01" y1="2371.50" x2="2977.67" y2="2371.50" style="stroke:#90353B;stroke-width:8.64"/>
	<line x1="610.95" y1="2511.46" x2="978.62" y2="2511.46" style="stroke:#55752F;stroke-width:8.64"/>
	<line x1="2610.01" y1="2511.46" x2="2977.67" y2="2511.46" style="stroke:#E37E00;stroke-width:8.64"/>
	<line x1="610.95" y1="2651.43" x2="978.62" y2="2651.43" style="stroke:#6E8E84;stroke-width:8.64"/>
	<text x="1037.64" y="2406.52" style="font-family:'Helvetica';font-size:99.99px;fill:#000000">ethnicity = White</text>
	<text x="3036.58" y="2406.52" style="font-family:'Helvetica';font-size:99.99px;fill:#000000">ethnicity = Mixed</text>
	<text x="1037.64" y="2546.49" style="font-family:'Helvetica';font-size:99.99px;fill:#000000">ethnicity = Asian or Asian British</text>
	<text x="3036.58" y="2546.49" style="font-family:'Helvetica';font-size:99.99px;fill:#000000">ethnicity = Black</text>
	<text x="1037.64" y="2686.46" style="font-family:'Helvetica';font-size:99.99px;fill:#000000">ethnicity = Other</text>
	<text x="2196.19" y="215.98" style="font-family:'Helvetica';font-size:139.96px;fill:#1E2D53" text-anchor="middle">Failure functions</text>
	<text x="2196.19" y="356.06" style="font-family:'Helvetica';font-size:139.96px;fill:#1E2D53" text-anchor="middle">adjusted for c_age c_male</text>
</svg>
