<?xml version="1.0" encoding="UTF-8" standalone="no"?>
<!-- This is a Stata 15.1 generated SVG file (http://www.stata.com) -->

<svg version="1.1" width="5.50in" height="4.00in" viewBox="0 0 3960 2880" xmlns="http://www.w3.org/2000/svg" xmlns:xlink="http://www.w3.org/1999/xlink">
	<desc>Stata Graph - Graph</desc>
	<rect x="0" y="0" width="3960" height="2880" style="fill:#EAF2F3;stroke:none"/>
	<rect x="0.00" y="0.00" width="3959.88" height="2880.00" style="fill:#EAF2F3"/>
	<rect x="2.88" y="2.88" width="3954.12" height="2874.24" style="fill:none;stroke:#EAF2F3;stroke-width:5.76"/>
	<rect x="476.31" y="415.32" width="3382.71" height="1818.32" style="fill:#FFFFFF"/>
	<rect x="479.19" y="418.20" width="3376.95" height="1812.56" style="fill:none;stroke:#FFFFFF;stroke-width:5.76"/>
	<line x1="476.31" y1="2170.27" x2="3859.02" y2="2170.27" style="stroke:#EAF2F3;stroke-width:8.64"/>
	<line x1="476.31" y1="1817.94" x2="3859.02" y2="1817.94" style="stroke:#EAF2F3;stroke-width:8.64"/>
	<line x1="476.31" y1="1465.49" x2="3859.02" y2="1465.49" style="stroke:#EAF2F3;stroke-width:8.64"/>
	<line x1="476.31" y1="1113.04" x2="3859.02" y2="1113.04" style="stroke:#EAF2F3;stroke-width:8.64"/>
	<line x1="476.31" y1="760.72" x2="3859.02" y2="760.72" style="stroke:#EAF2F3;stroke-width:8.64"/>
	<line x1="1263.12" y1="2170.40" x2="3795.66" y2="2170.40" stroke-linecap="round" style="stroke:#1A476F;stroke-width:8.64"/>
	<line x1="3795.66" y1="2170.40" x2="3795.66" y2="2170.40" stroke-linecap="round" style="stroke:#1A476F;stroke-width:8.64"/>
	<line x1="476.31" y1="2233.63" x2="476.31" y2="415.32" style="stroke:#000000;stroke-width:5.76"/>
	<line x1="476.31" y1="2170.27" x2="436.22" y2="2170.27" style="stroke:#000000;stroke-width:5.76"/>
	<text x="416.30" y="2205.30" style="font-family:'Helvetica';font-size:99.99px;fill:#000000" text-anchor="end">0.0000</text>
	<line x1="476.31" y1="1817.94" x2="436.22" y2="1817.94" style="stroke:#000000;stroke-width:5.76"/>
	<text x="416.30" y="1852.97" style="font-family:'Helvetica';font-size:99.99px;fill:#000000" text-anchor="end">0.0025</text>
	<line x1="476.31" y1="1465.49" x2="436.22" y2="1465.49" style="stroke:#000000;stroke-width:5.76"/>
	<text x="416.30" y="1500.52" style="font-family:'Helvetica';font-size:99.99px;fill:#000000" text-anchor="end">0.0050</text>
	<line x1="476.31" y1="1113.04" x2="436.22" y2="1113.04" style="stroke:#000000;stroke-width:5.76"/>
	<text x="416.30" y="1148.07" style="font-family:'Helvetica';font-size:99.99px;fill:#000000" text-anchor="end">0.0075</text>
	<line x1="476.31" y1="760.72" x2="436.22" y2="760.72" style="stroke:#000000;stroke-width:5.76"/>
	<text x="416.30" y="795.74" style="font-family:'Helvetica';font-size:99.99px;fill:#000000" text-anchor="end">0.0100</text>
	<line x1="476.31" y1="2233.63" x2="3859.02" y2="2233.63" style="stroke:#000000;stroke-width:5.76"/>
	<line x1="539.55" y1="2233.63" x2="539.55" y2="2273.73" style="stroke:#000000;stroke-width:5.76"/>
	<text x="539.55" y="2363.59" style="font-family:'Helvetica';font-size:99.99px;fill:#000000" text-anchor="middle">30</text>
	<line x1="1142.58" y1="2233.63" x2="1142.58" y2="2273.73" style="stroke:#000000;stroke-width:5.76"/>
	<text x="1142.58" y="2363.59" style="font-family:'Helvetica';font-size:99.99px;fill:#000000" text-anchor="middle">40</text>
	<line x1="1745.62" y1="2233.63" x2="1745.62" y2="2273.73" style="stroke:#000000;stroke-width:5.76"/>
	<text x="1745.62" y="2363.59" style="font-family:'Helvetica';font-size:99.99px;fill:#000000" text-anchor="middle">50</text>
	<line x1="2348.53" y1="2233.63" x2="2348.53" y2="2273.73" style="stroke:#000000;stroke-width:5.76"/>
	<text x="2348.53" y="2363.59" style="font-family:'Helvetica';font-size:99.99px;fill:#000000" text-anchor="middle">60</text>
	<line x1="2951.56" y1="2233.63" x2="2951.56" y2="2273.73" style="stroke:#000000;stroke-width:5.76"/>
	<text x="2951.56" y="2363.59" style="font-family:'Helvetica';font-size:99.99px;fill:#000000" text-anchor="middle">70</text>
	<line x1="3554.47" y1="2233.63" x2="3554.47" y2="2273.73" style="stroke:#000000;stroke-width:5.76"/>
	<text x="3554.47" y="2363.59" style="font-family:'Helvetica';font-size:99.99px;fill:#000000" text-anchor="middle">80</text>
	<text x="2167.61" y="2473.60" style="font-family:'Helvetica';font-size:99.99px;fill:#000000" text-anchor="middle">analysis time</text>
	<rect x="510.84" y="2558.24" width="3313.65" height="186.37" style="fill:#FFFFFF"/>
	<rect x="513.72" y="2561.12" width="3307.89" height="180.61" style="fill:none;stroke:#000000;stroke-width:5.76"/>
	<line x1="554.03" y1="2651.43" x2="871.20" y2="2651.43" style="stroke:#1A476F;stroke-width:8.64"/>
	<line x1="2227.01" y1="2651.43" x2="2544.18" y2="2651.43" style="stroke:#90353B;stroke-width:8.64"/>
	<text x="922.06" y="2686.46" style="font-family:'Helvetica';font-size:99.99px;fill:#000000">other_immunosuppression = 0</text>
	<text x="2595.04" y="2686.46" style="font-family:'Helvetica';font-size:99.99px;fill:#000000">other_immunosuppression = 1</text>
	<text x="2167.61" y="215.98" style="font-family:'Helvetica';font-size:139.96px;fill:#1E2D53" text-anchor="middle">Failure functions</text>
	<text x="2167.61" y="356.06" style="font-family:'Helvetica';font-size:139.96px;fill:#1E2D53" text-anchor="middle">adjusted for c_age c_male</text>
</svg>
