<?xml version="1.0" encoding="UTF-8" standalone="no"?>
<!-- This is a Stata 15.1 generated SVG file (http://www.stata.com) -->

<svg version="1.1" width="5.50in" height="4.00in" viewBox="0 0 3960 2880" xmlns="http://www.w3.org/2000/svg" xmlns:xlink="http://www.w3.org/1999/xlink">
	<desc>Stata Graph - Graph</desc>
	<rect x="0" y="0" width="3960" height="2880" style="fill:#EAF2F3;stroke:none"/>
	<rect x="0.00" y="0.00" width="3959.88" height="2880.00" style="fill:#EAF2F3"/>
	<rect x="2.88" y="2.88" width="3954.12" height="2874.24" style="fill:none;stroke:#EAF2F3;stroke-width:5.76"/>
	<rect x="63.36" y="317.92" width="1916.64" height="1848.64" style="fill:#EAF2F3"/>
	<rect x="65.52" y="320.08" width="1912.32" height="1844.32" style="fill:none;stroke:#EAF2F3;stroke-width:4.32"/>
	<rect x="381.40" y="524.47" width="1522.99" height="1349.04" style="fill:#FFFFFF"/>
	<rect x="383.56" y="526.63" width="1518.67" height="1344.72" style="fill:none;stroke:#FFFFFF;stroke-width:4.32"/>
	<line x1="381.40" y1="1825.99" x2="1904.39" y2="1825.99" style="stroke:#EAF2F3;stroke-width:6.48"/>
	<line x1="381.40" y1="1439.01" x2="1904.39" y2="1439.01" style="stroke:#EAF2F3;stroke-width:6.48"/>
	<line x1="381.40" y1="1052.16" x2="1904.39" y2="1052.16" style="stroke:#EAF2F3;stroke-width:6.48"/>
	<line x1="381.40" y1="665.18" x2="1904.39" y2="665.18" style="stroke:#EAF2F3;stroke-width:6.48"/>
	<line x1="428.92" y1="1825.99" x2="428.92" y2="1825.99" stroke-linecap="round" style="stroke:#1A476F;stroke-width:6.48"/>
	<line x1="428.92" y1="1825.99" x2="428.92" y2="1825.99" stroke-linecap="round" style="stroke:#1A476F;stroke-width:6.48"/>
	<line x1="428.92" y1="1825.99" x2="428.92" y2="1825.99" stroke-linecap="round" style="stroke:#1A476F;stroke-width:6.48"/>
	<line x1="428.92" y1="1825.99" x2="428.92" y2="1825.99" stroke-linecap="round" style="stroke:#1A476F;stroke-width:6.48"/>
	<line x1="428.92" y1="1825.99" x2="428.92" y2="1825.99" stroke-linecap="round" style="stroke:#1A476F;stroke-width:6.48"/>
	<line x1="428.92" y1="1825.99" x2="428.92" y2="1825.99" stroke-linecap="round" style="stroke:#1A476F;stroke-width:6.48"/>
	<line x1="428.92" y1="1825.99" x2="428.92" y2="1825.99" stroke-linecap="round" style="stroke:#1A476F;stroke-width:6.48"/>
	<line x1="428.92" y1="1825.99" x2="428.92" y2="1825.99" stroke-linecap="round" style="stroke:#1A476F;stroke-width:6.48"/>
	<line x1="428.92" y1="1825.99" x2="428.92" y2="1825.99" stroke-linecap="round" style="stroke:#1A476F;stroke-width:6.48"/>
	<line x1="428.92" y1="1825.99" x2="428.92" y2="1825.99" stroke-linecap="round" style="stroke:#1A476F;stroke-width:6.48"/>
	<line x1="428.92" y1="1825.99" x2="1178.47" y2="1825.99" stroke-linecap="round" style="stroke:#1A476F;stroke-width:6.48"/>
	<line x1="1178.47" y1="1825.99" x2="1178.47" y2="1825.99" stroke-linecap="round" style="stroke:#1A476F;stroke-width:6.48"/>
	<line x1="1178.47" y1="1825.99" x2="1838.92" y2="1825.99" stroke-linecap="round" style="stroke:#1A476F;stroke-width:6.48"/>
	<line x1="1838.92" y1="1825.99" x2="1838.92" y2="1825.99" stroke-linecap="round" style="stroke:#1A476F;stroke-width:6.48"/>
	<line x1="428.92" y1="1825.99" x2="428.92" y2="1825.99" stroke-linecap="round" style="stroke:#90353B;stroke-width:6.48"/>
	<line x1="428.92" y1="1825.99" x2="428.92" y2="1825.99" stroke-linecap="round" style="stroke:#90353B;stroke-width:6.48"/>
	<line x1="428.92" y1="1825.99" x2="428.92" y2="1825.99" stroke-linecap="round" style="stroke:#90353B;stroke-width:6.48"/>
	<line x1="428.92" y1="1825.99" x2="428.92" y2="1825.99" stroke-linecap="round" style="stroke:#90353B;stroke-width:6.48"/>
	<line x1="428.92" y1="1825.99" x2="428.92" y2="1825.99" stroke-linecap="round" style="stroke:#90353B;stroke-width:6.48"/>
	<line x1="428.92" y1="1825.99" x2="428.92" y2="1825.99" stroke-linecap="round" style="stroke:#90353B;stroke-width:6.48"/>
	<line x1="428.92" y1="1825.99" x2="428.92" y2="1825.99" stroke-linecap="round" style="stroke:#90353B;stroke-width:6.48"/>
	<line x1="428.92" y1="1825.99" x2="428.92" y2="1825.99" stroke-linecap="round" style="stroke:#90353B;stroke-width:6.48"/>
	<line x1="428.92" y1="1825.99" x2="428.92" y2="1825.99" stroke-linecap="round" style="stroke:#90353B;stroke-width:6.48"/>
	<line x1="428.92" y1="1825.99" x2="428.92" y2="1825.99" stroke-linecap="round" style="stroke:#90353B;stroke-width:6.48"/>
	<line x1="428.92" y1="1825.99" x2="1838.92" y2="1825.99" stroke-linecap="round" style="stroke:#90353B;stroke-width:6.48"/>
	<line x1="1838.92" y1="1825.99" x2="1838.92" y2="1825.99" stroke-linecap="round" style="stroke:#90353B;stroke-width:6.48"/>
	<line x1="428.92" y1="1825.99" x2="428.92" y2="1825.99" stroke-linecap="round" style="stroke:#55752F;stroke-width:6.48"/>
	<line x1="428.92" y1="1825.99" x2="428.92" y2="1825.99" stroke-linecap="round" style="stroke:#55752F;stroke-width:6.48"/>
	<line x1="428.92" y1="1825.99" x2="428.92" y2="1825.99" stroke-linecap="round" style="stroke:#55752F;stroke-width:6.48"/>
	<line x1="428.92" y1="1825.99" x2="428.92" y2="1825.99" stroke-linecap="round" style="stroke:#55752F;stroke-width:6.48"/>
	<line x1="428.92" y1="1825.99" x2="428.92" y2="1825.99" stroke-linecap="round" style="stroke:#55752F;stroke-width:6.48"/>
	<line x1="428.92" y1="1825.99" x2="428.92" y2="1825.99" stroke-linecap="round" style="stroke:#55752F;stroke-width:6.48"/>
	<line x1="428.92" y1="1825.99" x2="428.92" y2="1825.99" stroke-linecap="round" style="stroke:#55752F;stroke-width:6.48"/>
	<line x1="428.92" y1="1825.99" x2="428.92" y2="1825.99" stroke-linecap="round" style="stroke:#55752F;stroke-width:6.48"/>
	<line x1="428.92" y1="1825.99" x2="428.92" y2="1825.99" stroke-linecap="round" style="stroke:#55752F;stroke-width:6.48"/>
	<line x1="428.92" y1="1825.99" x2="428.92" y2="1825.99" stroke-linecap="round" style="stroke:#55752F;stroke-width:6.48"/>
	<line x1="428.92" y1="1825.99" x2="1838.92" y2="1825.99" stroke-linecap="round" style="stroke:#55752F;stroke-width:6.48"/>
	<line x1="1838.92" y1="1825.99" x2="1838.92" y2="1825.99" stroke-linecap="round" style="stroke:#55752F;stroke-width:6.48"/>
	<line x1="428.92" y1="1825.99" x2="428.92" y2="1825.99" stroke-linecap="round" style="stroke:#E37E00;stroke-width:6.48"/>
	<line x1="428.92" y1="1825.99" x2="428.92" y2="1825.99" stroke-linecap="round" style="stroke:#E37E00;stroke-width:6.48"/>
	<line x1="428.92" y1="1825.99" x2="428.92" y2="1825.99" stroke-linecap="round" style="stroke:#E37E00;stroke-width:6.48"/>
	<line x1="428.92" y1="1825.99" x2="428.92" y2="1825.99" stroke-linecap="round" style="stroke:#E37E00;stroke-width:6.48"/>
	<line x1="428.92" y1="1825.99" x2="428.92" y2="1825.99" stroke-linecap="round" style="stroke:#E37E00;stroke-width:6.48"/>
	<line x1="428.92" y1="1825.99" x2="428.92" y2="1825.99" stroke-linecap="round" style="stroke:#E37E00;stroke-width:6.48"/>
	<line x1="428.92" y1="1825.99" x2="428.92" y2="1825.99" stroke-linecap="round" style="stroke:#E37E00;stroke-width:6.48"/>
	<line x1="428.92" y1="1825.99" x2="428.92" y2="1825.99" stroke-linecap="round" style="stroke:#E37E00;stroke-width:6.48"/>
	<line x1="428.92" y1="1825.99" x2="428.92" y2="1825.99" stroke-linecap="round" style="stroke:#E37E00;stroke-width:6.48"/>
	<line x1="428.92" y1="1825.99" x2="428.92" y2="1825.99" stroke-linecap="round" style="stroke:#E37E00;stroke-width:6.48"/>
	<line x1="428.92" y1="1825.99" x2="1838.92" y2="1825.99" stroke-linecap="round" style="stroke:#E37E00;stroke-width:6.48"/>
	<line x1="1838.92" y1="1825.99" x2="1838.92" y2="1825.99" stroke-linecap="round" style="stroke:#E37E00;stroke-width:6.48"/>
	<line x1="428.92" y1="1825.99" x2="428.92" y2="1825.99" stroke-linecap="round" style="stroke:#6E8E84;stroke-width:6.48"/>
	<line x1="428.92" y1="1825.99" x2="428.92" y2="1825.99" stroke-linecap="round" style="stroke:#6E8E84;stroke-width:6.48"/>
	<line x1="428.92" y1="1825.99" x2="428.92" y2="1825.99" stroke-linecap="round" style="stroke:#6E8E84;stroke-width:6.48"/>
	<line x1="428.92" y1="1825.99" x2="428.92" y2="1825.99" stroke-linecap="round" style="stroke:#6E8E84;stroke-width:6.48"/>
	<line x1="428.92" y1="1825.99" x2="428.92" y2="1825.99" stroke-linecap="round" style="stroke:#6E8E84;stroke-width:6.48"/>
	<line x1="428.92" y1="1825.99" x2="428.92" y2="1825.99" stroke-linecap="round" style="stroke:#6E8E84;stroke-width:6.48"/>
	<line x1="428.92" y1="1825.99" x2="428.92" y2="1825.99" stroke-linecap="round" style="stroke:#6E8E84;stroke-width:6.48"/>
	<line x1="428.92" y1="1825.99" x2="428.92" y2="1825.99" stroke-linecap="round" style="stroke:#6E8E84;stroke-width:6.48"/>
	<line x1="428.92" y1="1825.99" x2="428.92" y2="1825.99" stroke-linecap="round" style="stroke:#6E8E84;stroke-width:6.48"/>
	<line x1="428.92" y1="1825.99" x2="428.92" y2="1825.99" stroke-linecap="round" style="stroke:#6E8E84;stroke-width:6.48"/>
	<line x1="428.92" y1="1825.99" x2="1838.92" y2="1825.99" stroke-linecap="round" style="stroke:#6E8E84;stroke-width:6.48"/>
	<line x1="1838.92" y1="1825.99" x2="1838.92" y2="1825.99" stroke-linecap="round" style="stroke:#6E8E84;stroke-width:6.48"/>
	<line x1="428.92" y1="1825.99" x2="428.92" y2="1825.99" stroke-linecap="round" style="stroke:#C10534;stroke-width:6.48"/>
	<line x1="428.92" y1="1825.99" x2="428.92" y2="1825.99" stroke-linecap="round" style="stroke:#C10534;stroke-width:6.48"/>
	<line x1="428.92" y1="1825.99" x2="428.92" y2="1825.99" stroke-linecap="round" style="stroke:#C10534;stroke-width:6.48"/>
	<line x1="428.92" y1="1825.99" x2="428.92" y2="1825.99" stroke-linecap="round" style="stroke:#C10534;stroke-width:6.48"/>
	<line x1="428.92" y1="1825.99" x2="428.92" y2="1825.99" stroke-linecap="round" style="stroke:#C10534;stroke-width:6.48"/>
	<line x1="428.92" y1="1825.99" x2="428.92" y2="1825.99" stroke-linecap="round" style="stroke:#C10534;stroke-width:6.48"/>
	<line x1="428.92" y1="1825.99" x2="428.92" y2="1825.99" stroke-linecap="round" style="stroke:#C10534;stroke-width:6.48"/>
	<line x1="428.92" y1="1825.99" x2="428.92" y2="1825.99" stroke-linecap="round" style="stroke:#C10534;stroke-width:6.48"/>
	<line x1="428.92" y1="1825.99" x2="428.92" y2="1825.99" stroke-linecap="round" style="stroke:#C10534;stroke-width:6.48"/>
	<line x1="428.92" y1="1825.99" x2="428.92" y2="1825.99" stroke-linecap="round" style="stroke:#C10534;stroke-width:6.48"/>
	<line x1="428.92" y1="1825.99" x2="964.38" y2="1825.99" stroke-linecap="round" style="stroke:#C10534;stroke-width:6.48"/>
	<line x1="964.38" y1="1825.99" x2="964.38" y2="571.99" stroke-linecap="round" style="stroke:#C10534;stroke-width:6.48"/>
	<line x1="964.38" y1="571.99" x2="1178.47" y2="571.99" stroke-linecap="round" style="stroke:#C10534;stroke-width:6.48"/>
	<line x1="1178.47" y1="571.99" x2="1178.47" y2="571.99" stroke-linecap="round" style="stroke:#C10534;stroke-width:6.48"/>
	<line x1="1178.47" y1="571.99" x2="1838.92" y2="571.99" stroke-linecap="round" style="stroke:#C10534;stroke-width:6.48"/>
	<line x1="1838.92" y1="571.99" x2="1838.92" y2="571.99" stroke-linecap="round" style="stroke:#C10534;stroke-width:6.48"/>
	<line x1="381.40" y1="1873.51" x2="381.40" y2="524.47" style="stroke:#000000;stroke-width:4.32"/>
	<line x1="381.40" y1="1825.99" x2="351.45" y2="1825.99" style="stroke:#000000;stroke-width:4.32"/>
	<text x="336.48" y="1852.27" style="font-family:'Helvetica';font-size:74.99px;fill:#000000" text-anchor="end">0.00</text>
	<line x1="381.40" y1="1439.01" x2="351.45" y2="1439.01" style="stroke:#000000;stroke-width:4.32"/>
	<text x="336.48" y="1465.29" style="font-family:'Helvetica';font-size:74.99px;fill:#000000" text-anchor="end">0.00</text>
	<line x1="381.40" y1="1052.16" x2="351.45" y2="1052.16" style="stroke:#000000;stroke-width:4.32"/>
	<text x="336.48" y="1078.43" style="font-family:'Helvetica';font-size:74.99px;fill:#000000" text-anchor="end">0.00</text>
	<line x1="381.40" y1="665.18" x2="351.45" y2="665.18" style="stroke:#000000;stroke-width:4.32"/>
	<text x="336.48" y="691.46" style="font-family:'Helvetica';font-size:74.99px;fill:#000000" text-anchor="end">0.00</text>
	<line x1="381.40" y1="1873.51" x2="1904.39" y2="1873.51" style="stroke:#000000;stroke-width:4.32"/>
	<line x1="428.92" y1="1873.51" x2="428.92" y2="1903.46" style="stroke:#000000;stroke-width:4.32"/>
	<text x="428.92" y="1970.87" style="font-family:'Helvetica';font-size:74.99px;fill:#000000" text-anchor="middle">0</text>
	<line x1="785.94" y1="1873.51" x2="785.94" y2="1903.46" style="stroke:#000000;stroke-width:4.32"/>
	<text x="785.94" y="1970.87" style="font-family:'Helvetica';font-size:74.99px;fill:#000000" text-anchor="middle">20</text>
	<line x1="1142.83" y1="1873.51" x2="1142.83" y2="1903.46" style="stroke:#000000;stroke-width:4.32"/>
	<text x="1142.83" y="1970.87" style="font-family:'Helvetica';font-size:74.99px;fill:#000000" text-anchor="middle">40</text>
	<line x1="1499.85" y1="1873.51" x2="1499.85" y2="1903.46" style="stroke:#000000;stroke-width:4.32"/>
	<text x="1499.85" y="1970.87" style="font-family:'Helvetica';font-size:74.99px;fill:#000000" text-anchor="middle">60</text>
	<line x1="1856.87" y1="1873.51" x2="1856.87" y2="1903.46" style="stroke:#000000;stroke-width:4.32"/>
	<text x="1856.87" y="1970.87" style="font-family:'Helvetica';font-size:74.99px;fill:#000000" text-anchor="middle">80</text>
	<text x="1142.83" y="2053.41" style="font-family:'Helvetica';font-size:74.99px;fill:#000000" text-anchor="middle">Days since 1 Feb 2020</text>
	<text x="1142.83" y="479.93" style="font-family:'Helvetica';font-size:104.94px;fill:#1E2D53" text-anchor="middle">Female</text>
	<rect x="1980.00" y="317.92" width="1916.52" height="1848.64" style="fill:#EAF2F3"/>
	<rect x="1982.16" y="320.08" width="1912.20" height="1844.32" style="fill:none;stroke:#EAF2F3;stroke-width:4.32"/>
	<rect x="2298.04" y="524.47" width="1522.87" height="1349.04" style="fill:#FFFFFF"/>
	<rect x="2300.20" y="526.63" width="1518.55" height="1344.72" style="fill:none;stroke:#FFFFFF;stroke-width:4.32"/>
	<line x1="2298.04" y1="1825.99" x2="3820.91" y2="1825.99" style="stroke:#EAF2F3;stroke-width:6.48"/>
	<line x1="2298.04" y1="1453.86" x2="3820.91" y2="1453.86" style="stroke:#EAF2F3;stroke-width:6.48"/>
	<line x1="2298.04" y1="1081.86" x2="3820.91" y2="1081.86" style="stroke:#EAF2F3;stroke-width:6.48"/>
	<line x1="2298.04" y1="709.73" x2="3820.91" y2="709.73" style="stroke:#EAF2F3;stroke-width:6.48"/>
	<line x1="2345.43" y1="1825.99" x2="2345.43" y2="1825.99" stroke-linecap="round" style="stroke:#1A476F;stroke-width:6.48"/>
	<line x1="2345.43" y1="1825.99" x2="2345.43" y2="1825.99" stroke-linecap="round" style="stroke:#1A476F;stroke-width:6.48"/>
	<line x1="2345.43" y1="1825.99" x2="2345.43" y2="1825.99" stroke-linecap="round" style="stroke:#1A476F;stroke-width:6.48"/>
	<line x1="2345.43" y1="1825.99" x2="2345.43" y2="1825.99" stroke-linecap="round" style="stroke:#1A476F;stroke-width:6.48"/>
	<line x1="2345.43" y1="1825.99" x2="2345.43" y2="1825.99" stroke-linecap="round" style="stroke:#1A476F;stroke-width:6.48"/>
	<line x1="2345.43" y1="1825.99" x2="2345.43" y2="1825.99" stroke-linecap="round" style="stroke:#1A476F;stroke-width:6.48"/>
	<line x1="2345.43" y1="1825.99" x2="2345.43" y2="1825.99" stroke-linecap="round" style="stroke:#1A476F;stroke-width:6.48"/>
	<line x1="2345.43" y1="1825.99" x2="2345.43" y2="1825.99" stroke-linecap="round" style="stroke:#1A476F;stroke-width:6.48"/>
	<line x1="2345.43" y1="1825.99" x2="2345.43" y2="1825.99" stroke-linecap="round" style="stroke:#1A476F;stroke-width:6.48"/>
	<line x1="2345.43" y1="1825.99" x2="2345.43" y2="1825.99" stroke-linecap="round" style="stroke:#1A476F;stroke-width:6.48"/>
	<line x1="2345.43" y1="1825.99" x2="2880.90" y2="1825.99" stroke-linecap="round" style="stroke:#1A476F;stroke-width:6.48"/>
	<line x1="2880.90" y1="1825.99" x2="2880.90" y2="990.03" stroke-linecap="round" style="stroke:#1A476F;stroke-width:6.48"/>
	<line x1="2880.90" y1="990.03" x2="2898.72" y2="990.03" stroke-linecap="round" style="stroke:#1A476F;stroke-width:6.48"/>
	<line x1="2898.72" y1="990.03" x2="2898.72" y2="571.99" stroke-linecap="round" style="stroke:#1A476F;stroke-width:6.48"/>
	<line x1="2898.72" y1="571.99" x2="3095.11" y2="571.99" stroke-linecap="round" style="stroke:#1A476F;stroke-width:6.48"/>
	<line x1="3095.11" y1="571.99" x2="3095.11" y2="571.99" stroke-linecap="round" style="stroke:#1A476F;stroke-width:6.48"/>
	<line x1="3095.11" y1="571.99" x2="3755.44" y2="571.99" stroke-linecap="round" style="stroke:#1A476F;stroke-width:6.48"/>
	<line x1="3755.44" y1="571.99" x2="3755.44" y2="571.99" stroke-linecap="round" style="stroke:#1A476F;stroke-width:6.48"/>
	<line x1="2345.43" y1="1825.99" x2="2345.43" y2="1825.99" stroke-linecap="round" style="stroke:#90353B;stroke-width:6.48"/>
	<line x1="2345.43" y1="1825.99" x2="2345.43" y2="1825.99" stroke-linecap="round" style="stroke:#90353B;stroke-width:6.48"/>
	<line x1="2345.43" y1="1825.99" x2="2345.43" y2="1825.99" stroke-linecap="round" style="stroke:#90353B;stroke-width:6.48"/>
	<line x1="2345.43" y1="1825.99" x2="2345.43" y2="1825.99" stroke-linecap="round" style="stroke:#90353B;stroke-width:6.48"/>
	<line x1="2345.43" y1="1825.99" x2="2345.43" y2="1825.99" stroke-linecap="round" style="stroke:#90353B;stroke-width:6.48"/>
	<line x1="2345.43" y1="1825.99" x2="2345.43" y2="1825.99" stroke-linecap="round" style="stroke:#90353B;stroke-width:6.48"/>
	<line x1="2345.43" y1="1825.99" x2="2345.43" y2="1825.99" stroke-linecap="round" style="stroke:#90353B;stroke-width:6.48"/>
	<line x1="2345.43" y1="1825.99" x2="2345.43" y2="1825.99" stroke-linecap="round" style="stroke:#90353B;stroke-width:6.48"/>
	<line x1="2345.43" y1="1825.99" x2="2345.43" y2="1825.99" stroke-linecap="round" style="stroke:#90353B;stroke-width:6.48"/>
	<line x1="2345.43" y1="1825.99" x2="2345.43" y2="1825.99" stroke-linecap="round" style="stroke:#90353B;stroke-width:6.48"/>
	<line x1="2345.43" y1="1825.99" x2="2880.90" y2="1825.99" stroke-linecap="round" style="stroke:#90353B;stroke-width:6.48"/>
	<line x1="2880.90" y1="1825.99" x2="2880.90" y2="1234.44" stroke-linecap="round" style="stroke:#90353B;stroke-width:6.48"/>
	<line x1="2880.90" y1="1234.44" x2="3755.44" y2="1234.44" stroke-linecap="round" style="stroke:#90353B;stroke-width:6.48"/>
	<line x1="3755.44" y1="1234.44" x2="3755.44" y2="1234.44" stroke-linecap="round" style="stroke:#90353B;stroke-width:6.48"/>
	<line x1="2345.43" y1="1825.99" x2="2345.43" y2="1825.99" stroke-linecap="round" style="stroke:#55752F;stroke-width:6.48"/>
	<line x1="2345.43" y1="1825.99" x2="2345.43" y2="1825.99" stroke-linecap="round" style="stroke:#55752F;stroke-width:6.48"/>
	<line x1="2345.43" y1="1825.99" x2="2345.43" y2="1825.99" stroke-linecap="round" style="stroke:#55752F;stroke-width:6.48"/>
	<line x1="2345.43" y1="1825.99" x2="2345.43" y2="1825.99" stroke-linecap="round" style="stroke:#55752F;stroke-width:6.48"/>
	<line x1="2345.43" y1="1825.99" x2="2345.43" y2="1825.99" stroke-linecap="round" style="stroke:#55752F;stroke-width:6.48"/>
	<line x1="2345.43" y1="1825.99" x2="2345.43" y2="1825.99" stroke-linecap="round" style="stroke:#55752F;stroke-width:6.48"/>
	<line x1="2345.43" y1="1825.99" x2="2345.43" y2="1825.99" stroke-linecap="round" style="stroke:#55752F;stroke-width:6.48"/>
	<line x1="2345.43" y1="1825.99" x2="2345.43" y2="1825.99" stroke-linecap="round" style="stroke:#55752F;stroke-width:6.48"/>
	<line x1="2345.43" y1="1825.99" x2="2345.43" y2="1825.99" stroke-linecap="round" style="stroke:#55752F;stroke-width:6.48"/>
	<line x1="2345.43" y1="1825.99" x2="2345.43" y2="1825.99" stroke-linecap="round" style="stroke:#55752F;stroke-width:6.48"/>
	<line x1="2345.43" y1="1825.99" x2="3095.11" y2="1825.99" stroke-linecap="round" style="stroke:#55752F;stroke-width:6.48"/>
	<line x1="3095.11" y1="1825.99" x2="3095.11" y2="1825.99" stroke-linecap="round" style="stroke:#55752F;stroke-width:6.48"/>
	<line x1="3095.11" y1="1825.99" x2="3755.44" y2="1825.99" stroke-linecap="round" style="stroke:#55752F;stroke-width:6.48"/>
	<line x1="3755.44" y1="1825.99" x2="3755.44" y2="1825.99" stroke-linecap="round" style="stroke:#55752F;stroke-width:6.48"/>
	<line x1="2345.43" y1="1825.99" x2="2345.43" y2="1825.99" stroke-linecap="round" style="stroke:#E37E00;stroke-width:6.48"/>
	<line x1="2345.43" y1="1825.99" x2="2345.43" y2="1825.99" stroke-linecap="round" style="stroke:#E37E00;stroke-width:6.48"/>
	<line x1="2345.43" y1="1825.99" x2="2345.43" y2="1825.99" stroke-linecap="round" style="stroke:#E37E00;stroke-width:6.48"/>
	<line x1="2345.43" y1="1825.99" x2="2345.43" y2="1825.99" stroke-linecap="round" style="stroke:#E37E00;stroke-width:6.48"/>
	<line x1="2345.43" y1="1825.99" x2="2345.43" y2="1825.99" stroke-linecap="round" style="stroke:#E37E00;stroke-width:6.48"/>
	<line x1="2345.43" y1="1825.99" x2="2345.43" y2="1825.99" stroke-linecap="round" style="stroke:#E37E00;stroke-width:6.48"/>
	<line x1="2345.43" y1="1825.99" x2="2345.43" y2="1825.99" stroke-linecap="round" style="stroke:#E37E00;stroke-width:6.48"/>
	<line x1="2345.43" y1="1825.99" x2="2345.43" y2="1825.99" stroke-linecap="round" style="stroke:#E37E00;stroke-width:6.48"/>
	<line x1="2345.43" y1="1825.99" x2="2345.43" y2="1825.99" stroke-linecap="round" style="stroke:#E37E00;stroke-width:6.48"/>
	<line x1="2345.43" y1="1825.99" x2="2345.43" y2="1825.99" stroke-linecap="round" style="stroke:#E37E00;stroke-width:6.48"/>
	<line x1="2345.43" y1="1825.99" x2="3755.44" y2="1825.99" stroke-linecap="round" style="stroke:#E37E00;stroke-width:6.48"/>
	<line x1="3755.44" y1="1825.99" x2="3755.44" y2="1825.99" stroke-linecap="round" style="stroke:#E37E00;stroke-width:6.48"/>
	<line x1="2345.43" y1="1825.99" x2="2345.43" y2="1825.99" stroke-linecap="round" style="stroke:#6E8E84;stroke-width:6.48"/>
	<line x1="2345.43" y1="1825.99" x2="2345.43" y2="1825.99" stroke-linecap="round" style="stroke:#6E8E84;stroke-width:6.48"/>
	<line x1="2345.43" y1="1825.99" x2="2345.43" y2="1825.99" stroke-linecap="round" style="stroke:#6E8E84;stroke-width:6.48"/>
	<line x1="2345.43" y1="1825.99" x2="2345.43" y2="1825.99" stroke-linecap="round" style="stroke:#6E8E84;stroke-width:6.48"/>
	<line x1="2345.43" y1="1825.99" x2="2345.43" y2="1825.99" stroke-linecap="round" style="stroke:#6E8E84;stroke-width:6.48"/>
	<line x1="2345.43" y1="1825.99" x2="2345.43" y2="1825.99" stroke-linecap="round" style="stroke:#6E8E84;stroke-width:6.48"/>
	<line x1="2345.43" y1="1825.99" x2="2345.43" y2="1825.99" stroke-linecap="round" style="stroke:#6E8E84;stroke-width:6.48"/>
	<line x1="2345.43" y1="1825.99" x2="2345.43" y2="1825.99" stroke-linecap="round" style="stroke:#6E8E84;stroke-width:6.48"/>
	<line x1="2345.43" y1="1825.99" x2="2345.43" y2="1825.99" stroke-linecap="round" style="stroke:#6E8E84;stroke-width:6.48"/>
	<line x1="2345.43" y1="1825.99" x2="2345.43" y2="1825.99" stroke-linecap="round" style="stroke:#6E8E84;stroke-width:6.48"/>
	<line x1="2345.43" y1="1825.99" x2="3755.44" y2="1825.99" stroke-linecap="round" style="stroke:#6E8E84;stroke-width:6.48"/>
	<line x1="3755.44" y1="1825.99" x2="3755.44" y2="1825.99" stroke-linecap="round" style="stroke:#6E8E84;stroke-width:6.48"/>
	<line x1="2345.43" y1="1825.99" x2="2345.43" y2="1825.99" stroke-linecap="round" style="stroke:#C10534;stroke-width:6.48"/>
	<line x1="2345.43" y1="1825.99" x2="2345.43" y2="1825.99" stroke-linecap="round" style="stroke:#C10534;stroke-width:6.48"/>
	<line x1="2345.43" y1="1825.99" x2="2345.43" y2="1825.99" stroke-linecap="round" style="stroke:#C10534;stroke-width:6.48"/>
	<line x1="2345.43" y1="1825.99" x2="2345.43" y2="1825.99" stroke-linecap="round" style="stroke:#C10534;stroke-width:6.48"/>
	<line x1="2345.43" y1="1825.99" x2="2345.43" y2="1825.99" stroke-linecap="round" style="stroke:#C10534;stroke-width:6.48"/>
	<line x1="2345.43" y1="1825.99" x2="2345.43" y2="1825.99" stroke-linecap="round" style="stroke:#C10534;stroke-width:6.48"/>
	<line x1="2345.43" y1="1825.99" x2="2345.43" y2="1825.99" stroke-linecap="round" style="stroke:#C10534;stroke-width:6.48"/>
	<line x1="2345.43" y1="1825.99" x2="2345.43" y2="1825.99" stroke-linecap="round" style="stroke:#C10534;stroke-width:6.48"/>
	<line x1="2345.43" y1="1825.99" x2="2345.43" y2="1825.99" stroke-linecap="round" style="stroke:#C10534;stroke-width:6.48"/>
	<line x1="2345.43" y1="1825.99" x2="2345.43" y2="1825.99" stroke-linecap="round" style="stroke:#C10534;stroke-width:6.48"/>
	<line x1="2345.43" y1="1825.99" x2="3755.44" y2="1825.99" stroke-linecap="round" style="stroke:#C10534;stroke-width:6.48"/>
	<line x1="3755.44" y1="1825.99" x2="3755.44" y2="1825.99" stroke-linecap="round" style="stroke:#C10534;stroke-width:6.48"/>
	<line x1="2298.04" y1="1873.51" x2="2298.04" y2="524.47" style="stroke:#000000;stroke-width:4.32"/>
	<line x1="2298.04" y1="1825.99" x2="2267.97" y2="1825.99" style="stroke:#000000;stroke-width:4.32"/>
	<text x="2252.99" y="1852.27" style="font-family:'Helvetica';font-size:74.99px;fill:#000000" text-anchor="end">0.00</text>
	<line x1="2298.04" y1="1453.86" x2="2267.97" y2="1453.86" style="stroke:#000000;stroke-width:4.32"/>
	<text x="2252.99" y="1480.14" style="font-family:'Helvetica';font-size:74.99px;fill:#000000" text-anchor="end">0.00</text>
	<line x1="2298.04" y1="1081.86" x2="2267.97" y2="1081.86" style="stroke:#000000;stroke-width:4.32"/>
	<text x="2252.99" y="1108.14" style="font-family:'Helvetica';font-size:74.99px;fill:#000000" text-anchor="end">0.00</text>
	<line x1="2298.04" y1="709.73" x2="2267.97" y2="709.73" style="stroke:#000000;stroke-width:4.32"/>
	<text x="2252.99" y="736.01" style="font-family:'Helvetica';font-size:74.99px;fill:#000000" text-anchor="end">0.00</text>
	<line x1="2298.04" y1="1873.51" x2="3820.91" y2="1873.51" style="stroke:#000000;stroke-width:4.32"/>
	<line x1="2345.56" y1="1873.51" x2="2345.56" y2="1903.46" style="stroke:#000000;stroke-width:4.32"/>
	<text x="2345.56" y="1970.87" style="font-family:'Helvetica';font-size:74.99px;fill:#000000" text-anchor="middle">0</text>
	<line x1="2702.45" y1="1873.51" x2="2702.45" y2="1903.46" style="stroke:#000000;stroke-width:4.32"/>
	<text x="2702.45" y="1970.87" style="font-family:'Helvetica';font-size:74.99px;fill:#000000" text-anchor="middle">20</text>
	<line x1="3059.47" y1="1873.51" x2="3059.47" y2="1903.46" style="stroke:#000000;stroke-width:4.32"/>
	<text x="3059.47" y="1970.87" style="font-family:'Helvetica';font-size:74.99px;fill:#000000" text-anchor="middle">40</text>
	<line x1="3416.49" y1="1873.51" x2="3416.49" y2="1903.46" style="stroke:#000000;stroke-width:4.32"/>
	<text x="3416.49" y="1970.87" style="font-family:'Helvetica';font-size:74.99px;fill:#000000" text-anchor="middle">60</text>
	<line x1="3773.39" y1="1873.51" x2="3773.39" y2="1903.46" style="stroke:#000000;stroke-width:4.32"/>
	<text x="3773.39" y="1970.87" style="font-family:'Helvetica';font-size:74.99px;fill:#000000" text-anchor="middle">80</text>
	<text x="3059.47" y="2053.41" style="font-family:'Helvetica';font-size:74.99px;fill:#000000" text-anchor="middle">Days since 1 Feb 2020</text>
	<text x="3059.47" y="479.93" style="font-family:'Helvetica';font-size:104.94px;fill:#1E2D53" text-anchor="middle">Male</text>
	<text x="1979.88" y="157.51" style="font-family:'Helvetica';font-size:110.01px;fill:#000000" text-anchor="middle">ITU admission</text>
	<text x="1979.88" y="267.53" style="font-family:'Helvetica';font-size:110.01px;fill:#000000" text-anchor="middle">'</text>
	<rect x="1168.82" y="2201.21" width="1622.24" height="580.90" style="fill:#FFFFFF"/>
	<rect x="1171.70" y="2204.09" width="1616.48" height="575.14" style="fill:none;stroke:#000000;stroke-width:5.76"/>
	<line x1="1212.01" y1="2408.87" x2="1586.35" y2="2408.87" style="stroke:#1A476F;stroke-width:8.64"/>
	<line x1="2049.92" y1="2408.87" x2="2424.26" y2="2408.87" style="stroke:#90353B;stroke-width:8.64"/>
	<line x1="1212.01" y1="2548.83" x2="1586.35" y2="2548.83" style="stroke:#55752F;stroke-width:8.64"/>
	<line x1="2049.92" y1="2548.83" x2="2424.26" y2="2548.83" style="stroke:#E37E00;stroke-width:8.64"/>
	<line x1="1212.01" y1="2688.92" x2="1586.35" y2="2688.92" style="stroke:#6E8E84;stroke-width:8.64"/>
	<line x1="2049.92" y1="2688.92" x2="2424.26" y2="2688.92" style="stroke:#C10534;stroke-width:8.64"/>
	<text x="1646.37" y="2436.88" style="font-family:'Helvetica';font-size:79.94px;fill:#000000">18-&lt;40</text>
	<text x="2484.28" y="2436.88" style="font-family:'Helvetica';font-size:79.94px;fill:#000000">40-&lt;50</text>
	<text x="1646.37" y="2576.85" style="font-family:'Helvetica';font-size:79.94px;fill:#000000">50-&lt;60</text>
	<text x="2484.28" y="2576.85" style="font-family:'Helvetica';font-size:79.94px;fill:#000000">60-&lt;70</text>
	<text x="1646.37" y="2716.94" style="font-family:'Helvetica';font-size:79.94px;fill:#000000">70-&lt;80</text>
	<text x="2484.28" y="2716.94" style="font-family:'Helvetica';font-size:79.94px;fill:#000000">80+</text>
	<text x="1980.00" y="2308.96" style="font-family:'Helvetica';font-size:79.94px;fill:#000000" text-anchor="middle">Age group</text>
</svg>
