<?xml version="1.0" encoding="UTF-8" standalone="no"?>
<!-- This is a Stata 15.1 generated SVG file (http://www.stata.com) -->

<svg version="1.1" width="5.50in" height="4.00in" viewBox="0 0 3960 2880" xmlns="http://www.w3.org/2000/svg" xmlns:xlink="http://www.w3.org/1999/xlink">
	<desc>Stata Graph - Graph</desc>
	<rect x="0" y="0" width="3960" height="2880" style="fill:#EAF2F3;stroke:none"/>
	<rect x="0.00" y="0.00" width="3959.88" height="2880.00" style="fill:#EAF2F3"/>
	<rect x="2.88" y="2.88" width="3954.12" height="2874.24" style="fill:none;stroke:#EAF2F3;stroke-width:5.76"/>
	<rect x="483.86" y="415.32" width="3375.16" height="1538.38" style="fill:#FFFFFF"/>
	<rect x="486.74" y="418.20" width="3369.40" height="1532.62" style="fill:none;stroke:#FFFFFF;stroke-width:5.76"/>
	<line x1="483.86" y1="1890.34" x2="3859.02" y2="1890.34" style="stroke:#EAF2F3;stroke-width:8.64"/>
	<line x1="483.86" y1="1596.30" x2="3859.02" y2="1596.30" style="stroke:#EAF2F3;stroke-width:8.64"/>
	<line x1="483.86" y1="1302.14" x2="3859.02" y2="1302.14" style="stroke:#EAF2F3;stroke-width:8.64"/>
	<line x1="483.86" y1="1008.10" x2="3859.02" y2="1008.10" style="stroke:#EAF2F3;stroke-width:8.64"/>
	<line x1="483.86" y1="713.94" x2="3859.02" y2="713.94" style="stroke:#EAF2F3;stroke-width:8.64"/>
	<line x1="483.86" y1="1953.70" x2="483.86" y2="415.32" style="stroke:#000000;stroke-width:5.76"/>
	<line x1="483.86" y1="1890.34" x2="443.89" y2="1890.34" style="stroke:#000000;stroke-width:5.76"/>
	<text x="423.84" y="1925.37" style="font-family:'Helvetica';font-size:99.99px;fill:#000000" text-anchor="end">0.0000</text>
	<line x1="483.86" y1="1596.30" x2="443.89" y2="1596.30" style="stroke:#000000;stroke-width:5.76"/>
	<text x="423.84" y="1631.33" style="font-family:'Helvetica';font-size:99.99px;fill:#000000" text-anchor="end">0.0025</text>
	<line x1="483.86" y1="1302.14" x2="443.89" y2="1302.14" style="stroke:#000000;stroke-width:5.76"/>
	<text x="423.84" y="1337.17" style="font-family:'Helvetica';font-size:99.99px;fill:#000000" text-anchor="end">0.0050</text>
	<line x1="483.86" y1="1008.10" x2="443.89" y2="1008.10" style="stroke:#000000;stroke-width:5.76"/>
	<text x="423.84" y="1043.13" style="font-family:'Helvetica';font-size:99.99px;fill:#000000" text-anchor="end">0.0075</text>
	<line x1="483.86" y1="713.94" x2="443.89" y2="713.94" style="stroke:#000000;stroke-width:5.76"/>
	<text x="423.84" y="748.96" style="font-family:'Helvetica';font-size:99.99px;fill:#000000" text-anchor="end">0.0100</text>
	<line x1="483.86" y1="1953.70" x2="3859.02" y2="1953.70" style="stroke:#000000;stroke-width:5.76"/>
	<line x1="547.22" y1="1953.70" x2="547.22" y2="1993.67" style="stroke:#000000;stroke-width:5.76"/>
	<text x="547.22" y="2083.66" style="font-family:'Helvetica';font-size:99.99px;fill:#000000" text-anchor="middle">30</text>
	<line x1="1148.77" y1="1953.70" x2="1148.77" y2="1993.67" style="stroke:#000000;stroke-width:5.76"/>
	<text x="1148.77" y="2083.66" style="font-family:'Helvetica';font-size:99.99px;fill:#000000" text-anchor="middle">40</text>
	<line x1="1750.32" y1="1953.70" x2="1750.32" y2="1993.67" style="stroke:#000000;stroke-width:5.76"/>
	<text x="1750.32" y="2083.66" style="font-family:'Helvetica';font-size:99.99px;fill:#000000" text-anchor="middle">50</text>
	<line x1="2351.99" y1="1953.70" x2="2351.99" y2="1993.67" style="stroke:#000000;stroke-width:5.76"/>
	<text x="2351.99" y="2083.66" style="font-family:'Helvetica';font-size:99.99px;fill:#000000" text-anchor="middle">60</text>
	<line x1="2953.54" y1="1953.70" x2="2953.54" y2="1993.67" style="stroke:#000000;stroke-width:5.76"/>
	<text x="2953.54" y="2083.66" style="font-family:'Helvetica';font-size:99.99px;fill:#000000" text-anchor="middle">70</text>
	<line x1="3555.09" y1="1953.70" x2="3555.09" y2="1993.67" style="stroke:#000000;stroke-width:5.76"/>
	<text x="3555.09" y="2083.66" style="font-family:'Helvetica';font-size:99.99px;fill:#000000" text-anchor="middle">80</text>
	<text x="2171.44" y="2193.67" style="font-family:'Helvetica';font-size:99.99px;fill:#000000" text-anchor="middle">analysis time</text>
	<rect x="518.39" y="2278.31" width="3306.11" height="466.30" style="fill:#FFFFFF"/>
	<rect x="521.27" y="2281.19" width="3300.35" height="460.54" style="fill:none;stroke:#000000;stroke-width:5.76"/>
	<line x1="561.58" y1="2371.50" x2="885.55" y2="2371.50" style="stroke:#1A476F;stroke-width:8.64"/>
	<line x1="2272.42" y1="2371.50" x2="2596.40" y2="2371.50" style="stroke:#90353B;stroke-width:8.64"/>
	<line x1="561.58" y1="2511.46" x2="885.55" y2="2511.46" style="stroke:#55752F;stroke-width:8.64"/>
	<line x1="2272.42" y1="2511.46" x2="2596.40" y2="2511.46" style="stroke:#E37E00;stroke-width:8.64"/>
	<line x1="561.58" y1="2651.43" x2="885.55" y2="2651.43" style="stroke:#6E8E84;stroke-width:8.64"/>
	<line x1="2272.42" y1="2651.43" x2="2596.40" y2="2651.43" style="stroke:#C10534;stroke-width:8.64"/>
	<text x="937.41" y="2406.52" style="font-family:'Helvetica';font-size:99.99px;fill:#000000">bmicat = Underweight (&lt;18.5)</text>
	<text x="2648.25" y="2406.52" style="font-family:'Helvetica';font-size:99.99px;fill:#000000">bmicat = Normal (18.5-24.9)</text>
	<text x="937.41" y="2546.49" style="font-family:'Helvetica';font-size:99.99px;fill:#000000">bmicat = Overweight (25-29.9)</text>
	<text x="2648.25" y="2546.49" style="font-family:'Helvetica';font-size:99.99px;fill:#000000">bmicat = Obese I (30-34.9)</text>
	<text x="937.41" y="2686.46" style="font-family:'Helvetica';font-size:99.99px;fill:#000000">bmicat = Obese II (35-39.9)</text>
	<text x="2648.25" y="2686.46" style="font-family:'Helvetica';font-size:99.99px;fill:#000000">bmicat = Obese III (40+)</text>
	<text x="2171.44" y="215.98" style="font-family:'Helvetica';font-size:139.96px;fill:#1E2D53" text-anchor="middle">Failure functions</text>
	<text x="2171.44" y="356.06" style="font-family:'Helvetica';font-size:139.96px;fill:#1E2D53" text-anchor="middle">adjusted for c_age c_male</text>
</svg>
