<?xml version="1.0" encoding="UTF-8" standalone="no"?>
<!-- This is a Stata 15.1 generated SVG file (http://www.stata.com) -->

<svg version="1.1" width="5.50in" height="4.00in" viewBox="0 0 3960 2880" xmlns="http://www.w3.org/2000/svg" xmlns:xlink="http://www.w3.org/1999/xlink">
	<desc>Stata Graph - Graph</desc>
	<rect x="0" y="0" width="3960" height="2880" style="fill:#EAF2F3;stroke:none"/>
	<rect x="0.00" y="0.00" width="3959.88" height="2880.00" style="fill:#EAF2F3"/>
	<rect x="2.88" y="2.88" width="3954.12" height="2874.24" style="fill:none;stroke:#EAF2F3;stroke-width:5.76"/>
	<rect x="63.36" y="317.92" width="1916.64" height="1848.64" style="fill:#EAF2F3"/>
	<rect x="65.52" y="320.08" width="1912.32" height="1844.32" style="fill:none;stroke:#EAF2F3;stroke-width:4.32"/>
	<rect x="381.40" y="524.47" width="1522.99" height="1349.04" style="fill:#FFFFFF"/>
	<rect x="383.56" y="526.63" width="1518.67" height="1344.72" style="fill:none;stroke:#FFFFFF;stroke-width:4.32"/>
	<line x1="381.40" y1="1825.99" x2="1904.39" y2="1825.99" style="stroke:#EAF2F3;stroke-width:6.48"/>
	<line x1="381.40" y1="1525.51" x2="1904.39" y2="1525.51" style="stroke:#EAF2F3;stroke-width:6.48"/>
	<line x1="381.40" y1="1225.04" x2="1904.39" y2="1225.04" style="stroke:#EAF2F3;stroke-width:6.48"/>
	<line x1="381.40" y1="924.69" x2="1904.39" y2="924.69" style="stroke:#EAF2F3;stroke-width:6.48"/>
	<line x1="381.40" y1="624.21" x2="1904.39" y2="624.21" style="stroke:#EAF2F3;stroke-width:6.48"/>
	<line x1="428.92" y1="1825.99" x2="428.92" y2="1825.99" stroke-linecap="round" style="stroke:#1A476F;stroke-width:6.48"/>
	<line x1="428.92" y1="1825.99" x2="428.92" y2="1825.99" stroke-linecap="round" style="stroke:#1A476F;stroke-width:6.48"/>
	<line x1="428.92" y1="1825.99" x2="428.92" y2="1825.99" stroke-linecap="round" style="stroke:#1A476F;stroke-width:6.48"/>
	<line x1="428.92" y1="1825.99" x2="428.92" y2="1825.99" stroke-linecap="round" style="stroke:#1A476F;stroke-width:6.48"/>
	<line x1="428.92" y1="1825.99" x2="428.92" y2="1825.99" stroke-linecap="round" style="stroke:#1A476F;stroke-width:6.48"/>
	<line x1="428.92" y1="1825.99" x2="428.92" y2="1825.99" stroke-linecap="round" style="stroke:#1A476F;stroke-width:6.48"/>
	<line x1="428.92" y1="1825.99" x2="428.92" y2="1825.99" stroke-linecap="round" style="stroke:#1A476F;stroke-width:6.48"/>
	<line x1="428.92" y1="1825.99" x2="428.92" y2="1825.99" stroke-linecap="round" style="stroke:#1A476F;stroke-width:6.48"/>
	<line x1="428.92" y1="1825.99" x2="428.92" y2="1825.99" stroke-linecap="round" style="stroke:#1A476F;stroke-width:6.48"/>
	<line x1="428.92" y1="1825.99" x2="428.92" y2="1825.99" stroke-linecap="round" style="stroke:#1A476F;stroke-width:6.48"/>
	<line x1="428.92" y1="1825.99" x2="1351.47" y2="1825.99" stroke-linecap="round" style="stroke:#1A476F;stroke-width:6.48"/>
	<line x1="1351.47" y1="1825.99" x2="1351.47" y2="1825.37" stroke-linecap="round" style="stroke:#1A476F;stroke-width:6.48"/>
	<line x1="1351.47" y1="1825.37" x2="1856.74" y2="1825.37" stroke-linecap="round" style="stroke:#1A476F;stroke-width:6.48"/>
	<line x1="1856.74" y1="1825.37" x2="1856.74" y2="610.48" stroke-linecap="round" style="stroke:#1A476F;stroke-width:6.48"/>
	<line x1="428.92" y1="1825.99" x2="428.92" y2="1825.99" stroke-linecap="round" style="stroke:#90353B;stroke-width:6.48"/>
	<line x1="428.92" y1="1825.99" x2="428.92" y2="1825.99" stroke-linecap="round" style="stroke:#90353B;stroke-width:6.48"/>
	<line x1="428.92" y1="1825.99" x2="428.92" y2="1825.99" stroke-linecap="round" style="stroke:#90353B;stroke-width:6.48"/>
	<line x1="428.92" y1="1825.99" x2="428.92" y2="1825.99" stroke-linecap="round" style="stroke:#90353B;stroke-width:6.48"/>
	<line x1="428.92" y1="1825.99" x2="428.92" y2="1825.99" stroke-linecap="round" style="stroke:#90353B;stroke-width:6.48"/>
	<line x1="428.92" y1="1825.99" x2="428.92" y2="1825.99" stroke-linecap="round" style="stroke:#90353B;stroke-width:6.48"/>
	<line x1="428.92" y1="1825.99" x2="428.92" y2="1825.99" stroke-linecap="round" style="stroke:#90353B;stroke-width:6.48"/>
	<line x1="428.92" y1="1825.99" x2="428.92" y2="1825.99" stroke-linecap="round" style="stroke:#90353B;stroke-width:6.48"/>
	<line x1="428.92" y1="1825.99" x2="428.92" y2="1825.99" stroke-linecap="round" style="stroke:#90353B;stroke-width:6.48"/>
	<line x1="428.92" y1="1825.99" x2="428.92" y2="1825.99" stroke-linecap="round" style="stroke:#90353B;stroke-width:6.48"/>
	<line x1="428.92" y1="1825.99" x2="1856.74" y2="1825.99" stroke-linecap="round" style="stroke:#90353B;stroke-width:6.48"/>
	<line x1="1856.74" y1="1825.99" x2="1856.74" y2="586.96" stroke-linecap="round" style="stroke:#90353B;stroke-width:6.48"/>
	<line x1="428.92" y1="1825.99" x2="428.92" y2="1825.99" stroke-linecap="round" style="stroke:#55752F;stroke-width:6.48"/>
	<line x1="428.92" y1="1825.99" x2="428.92" y2="1825.99" stroke-linecap="round" style="stroke:#55752F;stroke-width:6.48"/>
	<line x1="428.92" y1="1825.99" x2="428.92" y2="1825.99" stroke-linecap="round" style="stroke:#55752F;stroke-width:6.48"/>
	<line x1="428.92" y1="1825.99" x2="428.92" y2="1825.99" stroke-linecap="round" style="stroke:#55752F;stroke-width:6.48"/>
	<line x1="428.92" y1="1825.99" x2="428.92" y2="1825.99" stroke-linecap="round" style="stroke:#55752F;stroke-width:6.48"/>
	<line x1="428.92" y1="1825.99" x2="428.92" y2="1825.99" stroke-linecap="round" style="stroke:#55752F;stroke-width:6.48"/>
	<line x1="428.92" y1="1825.99" x2="428.92" y2="1825.99" stroke-linecap="round" style="stroke:#55752F;stroke-width:6.48"/>
	<line x1="428.92" y1="1825.99" x2="428.92" y2="1825.99" stroke-linecap="round" style="stroke:#55752F;stroke-width:6.48"/>
	<line x1="428.92" y1="1825.99" x2="428.92" y2="1825.99" stroke-linecap="round" style="stroke:#55752F;stroke-width:6.48"/>
	<line x1="428.92" y1="1825.99" x2="428.92" y2="1825.99" stroke-linecap="round" style="stroke:#55752F;stroke-width:6.48"/>
	<line x1="428.92" y1="1825.99" x2="1856.74" y2="1825.99" stroke-linecap="round" style="stroke:#55752F;stroke-width:6.48"/>
	<line x1="1856.74" y1="1825.99" x2="1856.74" y2="670.25" stroke-linecap="round" style="stroke:#55752F;stroke-width:6.48"/>
	<line x1="428.92" y1="1825.99" x2="428.92" y2="1825.99" stroke-linecap="round" style="stroke:#E37E00;stroke-width:6.48"/>
	<line x1="428.92" y1="1825.99" x2="428.92" y2="1825.99" stroke-linecap="round" style="stroke:#E37E00;stroke-width:6.48"/>
	<line x1="428.92" y1="1825.99" x2="428.92" y2="1825.99" stroke-linecap="round" style="stroke:#E37E00;stroke-width:6.48"/>
	<line x1="428.92" y1="1825.99" x2="428.92" y2="1825.99" stroke-linecap="round" style="stroke:#E37E00;stroke-width:6.48"/>
	<line x1="428.92" y1="1825.99" x2="428.92" y2="1825.99" stroke-linecap="round" style="stroke:#E37E00;stroke-width:6.48"/>
	<line x1="428.92" y1="1825.99" x2="428.92" y2="1825.99" stroke-linecap="round" style="stroke:#E37E00;stroke-width:6.48"/>
	<line x1="428.92" y1="1825.99" x2="428.92" y2="1825.99" stroke-linecap="round" style="stroke:#E37E00;stroke-width:6.48"/>
	<line x1="428.92" y1="1825.99" x2="428.92" y2="1825.99" stroke-linecap="round" style="stroke:#E37E00;stroke-width:6.48"/>
	<line x1="428.92" y1="1825.99" x2="428.92" y2="1825.99" stroke-linecap="round" style="stroke:#E37E00;stroke-width:6.48"/>
	<line x1="428.92" y1="1825.99" x2="428.92" y2="1825.99" stroke-linecap="round" style="stroke:#E37E00;stroke-width:6.48"/>
	<line x1="428.92" y1="1825.99" x2="1856.74" y2="1825.99" stroke-linecap="round" style="stroke:#E37E00;stroke-width:6.48"/>
	<line x1="1856.74" y1="1825.99" x2="1856.74" y2="571.99" stroke-linecap="round" style="stroke:#E37E00;stroke-width:6.48"/>
	<line x1="428.92" y1="1825.99" x2="428.92" y2="1825.99" stroke-linecap="round" style="stroke:#6E8E84;stroke-width:6.48"/>
	<line x1="428.92" y1="1825.99" x2="428.92" y2="1825.99" stroke-linecap="round" style="stroke:#6E8E84;stroke-width:6.48"/>
	<line x1="428.92" y1="1825.99" x2="428.92" y2="1825.99" stroke-linecap="round" style="stroke:#6E8E84;stroke-width:6.48"/>
	<line x1="428.92" y1="1825.99" x2="428.92" y2="1825.99" stroke-linecap="round" style="stroke:#6E8E84;stroke-width:6.48"/>
	<line x1="428.92" y1="1825.99" x2="428.92" y2="1825.99" stroke-linecap="round" style="stroke:#6E8E84;stroke-width:6.48"/>
	<line x1="428.92" y1="1825.99" x2="428.92" y2="1825.99" stroke-linecap="round" style="stroke:#6E8E84;stroke-width:6.48"/>
	<line x1="428.92" y1="1825.99" x2="428.92" y2="1825.99" stroke-linecap="round" style="stroke:#6E8E84;stroke-width:6.48"/>
	<line x1="428.92" y1="1825.99" x2="428.92" y2="1825.99" stroke-linecap="round" style="stroke:#6E8E84;stroke-width:6.48"/>
	<line x1="428.92" y1="1825.99" x2="428.92" y2="1825.99" stroke-linecap="round" style="stroke:#6E8E84;stroke-width:6.48"/>
	<line x1="428.92" y1="1825.99" x2="428.92" y2="1825.99" stroke-linecap="round" style="stroke:#6E8E84;stroke-width:6.48"/>
	<line x1="428.92" y1="1825.99" x2="1856.74" y2="1825.99" stroke-linecap="round" style="stroke:#6E8E84;stroke-width:6.48"/>
	<line x1="1856.74" y1="1825.99" x2="1856.74" y2="632.13" stroke-linecap="round" style="stroke:#6E8E84;stroke-width:6.48"/>
	<line x1="428.92" y1="1825.99" x2="428.92" y2="1825.99" stroke-linecap="round" style="stroke:#C10534;stroke-width:6.48"/>
	<line x1="428.92" y1="1825.99" x2="428.92" y2="1825.99" stroke-linecap="round" style="stroke:#C10534;stroke-width:6.48"/>
	<line x1="428.92" y1="1825.99" x2="428.92" y2="1825.99" stroke-linecap="round" style="stroke:#C10534;stroke-width:6.48"/>
	<line x1="428.92" y1="1825.99" x2="428.92" y2="1825.99" stroke-linecap="round" style="stroke:#C10534;stroke-width:6.48"/>
	<line x1="428.92" y1="1825.99" x2="428.92" y2="1825.99" stroke-linecap="round" style="stroke:#C10534;stroke-width:6.48"/>
	<line x1="428.92" y1="1825.99" x2="428.92" y2="1825.99" stroke-linecap="round" style="stroke:#C10534;stroke-width:6.48"/>
	<line x1="428.92" y1="1825.99" x2="428.92" y2="1825.99" stroke-linecap="round" style="stroke:#C10534;stroke-width:6.48"/>
	<line x1="428.92" y1="1825.99" x2="428.92" y2="1825.99" stroke-linecap="round" style="stroke:#C10534;stroke-width:6.48"/>
	<line x1="428.92" y1="1825.99" x2="428.92" y2="1825.99" stroke-linecap="round" style="stroke:#C10534;stroke-width:6.48"/>
	<line x1="428.92" y1="1825.99" x2="428.92" y2="1825.99" stroke-linecap="round" style="stroke:#C10534;stroke-width:6.48"/>
	<line x1="428.92" y1="1825.99" x2="1351.47" y2="1825.99" stroke-linecap="round" style="stroke:#C10534;stroke-width:6.48"/>
	<line x1="1351.47" y1="1825.99" x2="1351.47" y2="1825.62" stroke-linecap="round" style="stroke:#C10534;stroke-width:6.48"/>
	<line x1="1351.47" y1="1825.62" x2="1856.74" y2="1825.62" stroke-linecap="round" style="stroke:#C10534;stroke-width:6.48"/>
	<line x1="1856.74" y1="1825.62" x2="1856.74" y2="654.04" stroke-linecap="round" style="stroke:#C10534;stroke-width:6.48"/>
	<line x1="381.40" y1="1873.51" x2="381.40" y2="524.47" style="stroke:#000000;stroke-width:4.32"/>
	<line x1="381.40" y1="1825.99" x2="351.45" y2="1825.99" style="stroke:#000000;stroke-width:4.32"/>
	<text x="336.48" y="1852.27" style="font-family:'Helvetica';font-size:74.99px;fill:#000000" text-anchor="end">0.00</text>
	<line x1="381.40" y1="1525.51" x2="351.45" y2="1525.51" style="stroke:#000000;stroke-width:4.32"/>
	<text x="336.48" y="1551.79" style="font-family:'Helvetica';font-size:74.99px;fill:#000000" text-anchor="end">0.05</text>
	<line x1="381.40" y1="1225.04" x2="351.45" y2="1225.04" style="stroke:#000000;stroke-width:4.32"/>
	<text x="336.48" y="1251.32" style="font-family:'Helvetica';font-size:74.99px;fill:#000000" text-anchor="end">0.10</text>
	<line x1="381.40" y1="924.69" x2="351.45" y2="924.69" style="stroke:#000000;stroke-width:4.32"/>
	<text x="336.48" y="950.97" style="font-family:'Helvetica';font-size:74.99px;fill:#000000" text-anchor="end">0.15</text>
	<line x1="381.40" y1="624.21" x2="351.45" y2="624.21" style="stroke:#000000;stroke-width:4.32"/>
	<text x="336.48" y="650.49" style="font-family:'Helvetica';font-size:74.99px;fill:#000000" text-anchor="end">0.20</text>
	<line x1="381.40" y1="1873.51" x2="1904.39" y2="1873.51" style="stroke:#000000;stroke-width:4.32"/>
	<line x1="428.92" y1="1873.51" x2="428.92" y2="1903.46" style="stroke:#000000;stroke-width:4.32"/>
	<text x="428.92" y="1970.87" style="font-family:'Helvetica';font-size:74.99px;fill:#000000" text-anchor="middle">0</text>
	<line x1="868.35" y1="1873.51" x2="868.35" y2="1903.46" style="stroke:#000000;stroke-width:4.32"/>
	<text x="868.35" y="1970.87" style="font-family:'Helvetica';font-size:74.99px;fill:#000000" text-anchor="middle">20</text>
	<line x1="1307.67" y1="1873.51" x2="1307.67" y2="1903.46" style="stroke:#000000;stroke-width:4.32"/>
	<text x="1307.67" y="1970.87" style="font-family:'Helvetica';font-size:74.99px;fill:#000000" text-anchor="middle">40</text>
	<line x1="1746.98" y1="1873.51" x2="1746.98" y2="1903.46" style="stroke:#000000;stroke-width:4.32"/>
	<text x="1746.98" y="1970.87" style="font-family:'Helvetica';font-size:74.99px;fill:#000000" text-anchor="middle">60</text>
	<text x="1142.83" y="2053.41" style="font-family:'Helvetica';font-size:74.99px;fill:#000000" text-anchor="middle">Days since 1 Feb 2020</text>
	<text x="1142.83" y="479.93" style="font-family:'Helvetica';font-size:104.94px;fill:#1E2D53" text-anchor="middle">Female</text>
	<rect x="1980.00" y="317.92" width="1916.52" height="1848.64" style="fill:#EAF2F3"/>
	<rect x="1982.16" y="320.08" width="1912.20" height="1844.32" style="fill:none;stroke:#EAF2F3;stroke-width:4.32"/>
	<rect x="2298.04" y="524.47" width="1522.87" height="1349.04" style="fill:#FFFFFF"/>
	<rect x="2300.20" y="526.63" width="1518.55" height="1344.72" style="fill:none;stroke:#FFFFFF;stroke-width:4.32"/>
	<line x1="2298.04" y1="1825.99" x2="3820.91" y2="1825.99" style="stroke:#EAF2F3;stroke-width:6.48"/>
	<line x1="2298.04" y1="1529.47" x2="3820.91" y2="1529.47" style="stroke:#EAF2F3;stroke-width:6.48"/>
	<line x1="2298.04" y1="1232.96" x2="3820.91" y2="1232.96" style="stroke:#EAF2F3;stroke-width:6.48"/>
	<line x1="2298.04" y1="936.45" x2="3820.91" y2="936.45" style="stroke:#EAF2F3;stroke-width:6.48"/>
	<line x1="2298.04" y1="639.93" x2="3820.91" y2="639.93" style="stroke:#EAF2F3;stroke-width:6.48"/>
	<line x1="2345.43" y1="1825.99" x2="2345.43" y2="1825.99" stroke-linecap="round" style="stroke:#1A476F;stroke-width:6.48"/>
	<line x1="2345.43" y1="1825.99" x2="2345.43" y2="1825.99" stroke-linecap="round" style="stroke:#1A476F;stroke-width:6.48"/>
	<line x1="2345.43" y1="1825.99" x2="2345.43" y2="1825.99" stroke-linecap="round" style="stroke:#1A476F;stroke-width:6.48"/>
	<line x1="2345.43" y1="1825.99" x2="2345.43" y2="1825.99" stroke-linecap="round" style="stroke:#1A476F;stroke-width:6.48"/>
	<line x1="2345.43" y1="1825.99" x2="2345.43" y2="1825.99" stroke-linecap="round" style="stroke:#1A476F;stroke-width:6.48"/>
	<line x1="2345.43" y1="1825.99" x2="2345.43" y2="1825.99" stroke-linecap="round" style="stroke:#1A476F;stroke-width:6.48"/>
	<line x1="2345.43" y1="1825.99" x2="2345.43" y2="1825.99" stroke-linecap="round" style="stroke:#1A476F;stroke-width:6.48"/>
	<line x1="2345.43" y1="1825.99" x2="2345.43" y2="1825.99" stroke-linecap="round" style="stroke:#1A476F;stroke-width:6.48"/>
	<line x1="2345.43" y1="1825.99" x2="2345.43" y2="1825.99" stroke-linecap="round" style="stroke:#1A476F;stroke-width:6.48"/>
	<line x1="2345.43" y1="1825.99" x2="2345.43" y2="1825.99" stroke-linecap="round" style="stroke:#1A476F;stroke-width:6.48"/>
	<line x1="2345.43" y1="1825.99" x2="3268.11" y2="1825.99" stroke-linecap="round" style="stroke:#1A476F;stroke-width:6.48"/>
	<line x1="3268.11" y1="1825.99" x2="3268.11" y2="1825.99" stroke-linecap="round" style="stroke:#1A476F;stroke-width:6.48"/>
	<line x1="3268.11" y1="1825.99" x2="3773.39" y2="1825.99" stroke-linecap="round" style="stroke:#1A476F;stroke-width:6.48"/>
	<line x1="3773.39" y1="1825.99" x2="3773.39" y2="705.27" stroke-linecap="round" style="stroke:#1A476F;stroke-width:6.48"/>
	<line x1="2345.43" y1="1825.99" x2="2345.43" y2="1825.99" stroke-linecap="round" style="stroke:#90353B;stroke-width:6.48"/>
	<line x1="2345.43" y1="1825.99" x2="2345.43" y2="1825.99" stroke-linecap="round" style="stroke:#90353B;stroke-width:6.48"/>
	<line x1="2345.43" y1="1825.99" x2="2345.43" y2="1825.99" stroke-linecap="round" style="stroke:#90353B;stroke-width:6.48"/>
	<line x1="2345.43" y1="1825.99" x2="2345.43" y2="1825.99" stroke-linecap="round" style="stroke:#90353B;stroke-width:6.48"/>
	<line x1="2345.43" y1="1825.99" x2="2345.43" y2="1825.99" stroke-linecap="round" style="stroke:#90353B;stroke-width:6.48"/>
	<line x1="2345.43" y1="1825.99" x2="2345.43" y2="1825.99" stroke-linecap="round" style="stroke:#90353B;stroke-width:6.48"/>
	<line x1="2345.43" y1="1825.99" x2="2345.43" y2="1825.99" stroke-linecap="round" style="stroke:#90353B;stroke-width:6.48"/>
	<line x1="2345.43" y1="1825.99" x2="2345.43" y2="1825.99" stroke-linecap="round" style="stroke:#90353B;stroke-width:6.48"/>
	<line x1="2345.43" y1="1825.99" x2="2345.43" y2="1825.99" stroke-linecap="round" style="stroke:#90353B;stroke-width:6.48"/>
	<line x1="2345.43" y1="1825.99" x2="2345.43" y2="1825.99" stroke-linecap="round" style="stroke:#90353B;stroke-width:6.48"/>
	<line x1="2345.43" y1="1825.99" x2="3773.39" y2="1825.99" stroke-linecap="round" style="stroke:#90353B;stroke-width:6.48"/>
	<line x1="3773.39" y1="1825.99" x2="3773.39" y2="676.56" stroke-linecap="round" style="stroke:#90353B;stroke-width:6.48"/>
	<line x1="2345.43" y1="1825.99" x2="2345.43" y2="1825.99" stroke-linecap="round" style="stroke:#55752F;stroke-width:6.48"/>
	<line x1="2345.43" y1="1825.99" x2="2345.43" y2="1825.99" stroke-linecap="round" style="stroke:#55752F;stroke-width:6.48"/>
	<line x1="2345.43" y1="1825.99" x2="2345.43" y2="1825.99" stroke-linecap="round" style="stroke:#55752F;stroke-width:6.48"/>
	<line x1="2345.43" y1="1825.99" x2="2345.43" y2="1825.99" stroke-linecap="round" style="stroke:#55752F;stroke-width:6.48"/>
	<line x1="2345.43" y1="1825.99" x2="2345.43" y2="1825.99" stroke-linecap="round" style="stroke:#55752F;stroke-width:6.48"/>
	<line x1="2345.43" y1="1825.99" x2="2345.43" y2="1825.99" stroke-linecap="round" style="stroke:#55752F;stroke-width:6.48"/>
	<line x1="2345.43" y1="1825.99" x2="2345.43" y2="1825.99" stroke-linecap="round" style="stroke:#55752F;stroke-width:6.48"/>
	<line x1="2345.43" y1="1825.99" x2="2345.43" y2="1825.99" stroke-linecap="round" style="stroke:#55752F;stroke-width:6.48"/>
	<line x1="2345.43" y1="1825.99" x2="2345.43" y2="1825.99" stroke-linecap="round" style="stroke:#55752F;stroke-width:6.48"/>
	<line x1="2345.43" y1="1825.99" x2="2345.43" y2="1825.99" stroke-linecap="round" style="stroke:#55752F;stroke-width:6.48"/>
	<line x1="2345.43" y1="1825.99" x2="3268.11" y2="1825.99" stroke-linecap="round" style="stroke:#55752F;stroke-width:6.48"/>
	<line x1="3268.11" y1="1825.99" x2="3268.11" y2="1825.99" stroke-linecap="round" style="stroke:#55752F;stroke-width:6.48"/>
	<line x1="3268.11" y1="1825.99" x2="3773.39" y2="1825.99" stroke-linecap="round" style="stroke:#55752F;stroke-width:6.48"/>
	<line x1="3773.39" y1="1825.99" x2="3773.39" y2="635.23" stroke-linecap="round" style="stroke:#55752F;stroke-width:6.48"/>
	<line x1="2345.43" y1="1825.99" x2="2345.43" y2="1825.99" stroke-linecap="round" style="stroke:#E37E00;stroke-width:6.48"/>
	<line x1="2345.43" y1="1825.99" x2="2345.43" y2="1825.99" stroke-linecap="round" style="stroke:#E37E00;stroke-width:6.48"/>
	<line x1="2345.43" y1="1825.99" x2="2345.43" y2="1825.99" stroke-linecap="round" style="stroke:#E37E00;stroke-width:6.48"/>
	<line x1="2345.43" y1="1825.99" x2="2345.43" y2="1825.99" stroke-linecap="round" style="stroke:#E37E00;stroke-width:6.48"/>
	<line x1="2345.43" y1="1825.99" x2="2345.43" y2="1825.99" stroke-linecap="round" style="stroke:#E37E00;stroke-width:6.48"/>
	<line x1="2345.43" y1="1825.99" x2="2345.43" y2="1825.99" stroke-linecap="round" style="stroke:#E37E00;stroke-width:6.48"/>
	<line x1="2345.43" y1="1825.99" x2="2345.43" y2="1825.99" stroke-linecap="round" style="stroke:#E37E00;stroke-width:6.48"/>
	<line x1="2345.43" y1="1825.99" x2="2345.43" y2="1825.99" stroke-linecap="round" style="stroke:#E37E00;stroke-width:6.48"/>
	<line x1="2345.43" y1="1825.99" x2="2345.43" y2="1825.99" stroke-linecap="round" style="stroke:#E37E00;stroke-width:6.48"/>
	<line x1="2345.43" y1="1825.99" x2="2345.43" y2="1825.99" stroke-linecap="round" style="stroke:#E37E00;stroke-width:6.48"/>
	<line x1="2345.43" y1="1825.99" x2="3773.39" y2="1825.99" stroke-linecap="round" style="stroke:#E37E00;stroke-width:6.48"/>
	<line x1="3773.39" y1="1825.99" x2="3773.39" y2="571.99" stroke-linecap="round" style="stroke:#E37E00;stroke-width:6.48"/>
	<line x1="2345.43" y1="1825.99" x2="2345.43" y2="1825.99" stroke-linecap="round" style="stroke:#6E8E84;stroke-width:6.48"/>
	<line x1="2345.43" y1="1825.99" x2="2345.43" y2="1825.99" stroke-linecap="round" style="stroke:#6E8E84;stroke-width:6.48"/>
	<line x1="2345.43" y1="1825.99" x2="2345.43" y2="1825.99" stroke-linecap="round" style="stroke:#6E8E84;stroke-width:6.48"/>
	<line x1="2345.43" y1="1825.99" x2="2345.43" y2="1825.99" stroke-linecap="round" style="stroke:#6E8E84;stroke-width:6.48"/>
	<line x1="2345.43" y1="1825.99" x2="2345.43" y2="1825.99" stroke-linecap="round" style="stroke:#6E8E84;stroke-width:6.48"/>
	<line x1="2345.43" y1="1825.99" x2="2345.43" y2="1825.99" stroke-linecap="round" style="stroke:#6E8E84;stroke-width:6.48"/>
	<line x1="2345.43" y1="1825.99" x2="2345.43" y2="1825.99" stroke-linecap="round" style="stroke:#6E8E84;stroke-width:6.48"/>
	<line x1="2345.43" y1="1825.99" x2="2345.43" y2="1825.99" stroke-linecap="round" style="stroke:#6E8E84;stroke-width:6.48"/>
	<line x1="2345.43" y1="1825.99" x2="2345.43" y2="1825.99" stroke-linecap="round" style="stroke:#6E8E84;stroke-width:6.48"/>
	<line x1="2345.43" y1="1825.99" x2="2345.43" y2="1825.99" stroke-linecap="round" style="stroke:#6E8E84;stroke-width:6.48"/>
	<line x1="2345.43" y1="1825.99" x2="3773.39" y2="1825.99" stroke-linecap="round" style="stroke:#6E8E84;stroke-width:6.48"/>
	<line x1="3773.39" y1="1825.99" x2="3773.39" y2="637.70" stroke-linecap="round" style="stroke:#6E8E84;stroke-width:6.48"/>
	<line x1="2345.43" y1="1825.99" x2="2345.43" y2="1825.99" stroke-linecap="round" style="stroke:#C10534;stroke-width:6.48"/>
	<line x1="2345.43" y1="1825.99" x2="2345.43" y2="1825.99" stroke-linecap="round" style="stroke:#C10534;stroke-width:6.48"/>
	<line x1="2345.43" y1="1825.99" x2="2345.43" y2="1825.99" stroke-linecap="round" style="stroke:#C10534;stroke-width:6.48"/>
	<line x1="2345.43" y1="1825.99" x2="2345.43" y2="1825.99" stroke-linecap="round" style="stroke:#C10534;stroke-width:6.48"/>
	<line x1="2345.43" y1="1825.99" x2="2345.43" y2="1825.99" stroke-linecap="round" style="stroke:#C10534;stroke-width:6.48"/>
	<line x1="2345.43" y1="1825.99" x2="2345.43" y2="1825.99" stroke-linecap="round" style="stroke:#C10534;stroke-width:6.48"/>
	<line x1="2345.43" y1="1825.99" x2="2345.43" y2="1825.99" stroke-linecap="round" style="stroke:#C10534;stroke-width:6.48"/>
	<line x1="2345.43" y1="1825.99" x2="2345.43" y2="1825.99" stroke-linecap="round" style="stroke:#C10534;stroke-width:6.48"/>
	<line x1="2345.43" y1="1825.99" x2="2345.43" y2="1825.99" stroke-linecap="round" style="stroke:#C10534;stroke-width:6.48"/>
	<line x1="2345.43" y1="1825.99" x2="2345.43" y2="1825.99" stroke-linecap="round" style="stroke:#C10534;stroke-width:6.48"/>
	<line x1="2345.43" y1="1825.99" x2="3773.39" y2="1825.99" stroke-linecap="round" style="stroke:#C10534;stroke-width:6.48"/>
	<line x1="3773.39" y1="1825.99" x2="3773.39" y2="635.35" stroke-linecap="round" style="stroke:#C10534;stroke-width:6.48"/>
	<line x1="2298.04" y1="1873.51" x2="2298.04" y2="524.47" style="stroke:#000000;stroke-width:4.32"/>
	<line x1="2298.04" y1="1825.99" x2="2267.97" y2="1825.99" style="stroke:#000000;stroke-width:4.32"/>
	<text x="2252.99" y="1852.27" style="font-family:'Helvetica';font-size:74.99px;fill:#000000" text-anchor="end">0.00</text>
	<line x1="2298.04" y1="1529.47" x2="2267.97" y2="1529.47" style="stroke:#000000;stroke-width:4.32"/>
	<text x="2252.99" y="1555.75" style="font-family:'Helvetica';font-size:74.99px;fill:#000000" text-anchor="end">0.05</text>
	<line x1="2298.04" y1="1232.96" x2="2267.97" y2="1232.96" style="stroke:#000000;stroke-width:4.32"/>
	<text x="2252.99" y="1259.24" style="font-family:'Helvetica';font-size:74.99px;fill:#000000" text-anchor="end">0.10</text>
	<line x1="2298.04" y1="936.45" x2="2267.97" y2="936.45" style="stroke:#000000;stroke-width:4.32"/>
	<text x="2252.99" y="962.72" style="font-family:'Helvetica';font-size:74.99px;fill:#000000" text-anchor="end">0.15</text>
	<line x1="2298.04" y1="639.93" x2="2267.97" y2="639.93" style="stroke:#000000;stroke-width:4.32"/>
	<text x="2252.99" y="666.21" style="font-family:'Helvetica';font-size:74.99px;fill:#000000" text-anchor="end">0.20</text>
	<line x1="2298.04" y1="1873.51" x2="3820.91" y2="1873.51" style="stroke:#000000;stroke-width:4.32"/>
	<line x1="2345.56" y1="1873.51" x2="2345.56" y2="1903.46" style="stroke:#000000;stroke-width:4.32"/>
	<text x="2345.56" y="1970.87" style="font-family:'Helvetica';font-size:74.99px;fill:#000000" text-anchor="middle">0</text>
	<line x1="2784.87" y1="1873.51" x2="2784.87" y2="1903.46" style="stroke:#000000;stroke-width:4.32"/>
	<text x="2784.87" y="1970.87" style="font-family:'Helvetica';font-size:74.99px;fill:#000000" text-anchor="middle">20</text>
	<line x1="3224.18" y1="1873.51" x2="3224.18" y2="1903.46" style="stroke:#000000;stroke-width:4.32"/>
	<text x="3224.18" y="1970.87" style="font-family:'Helvetica';font-size:74.99px;fill:#000000" text-anchor="middle">40</text>
	<line x1="3663.62" y1="1873.51" x2="3663.62" y2="1903.46" style="stroke:#000000;stroke-width:4.32"/>
	<text x="3663.62" y="1970.87" style="font-family:'Helvetica';font-size:74.99px;fill:#000000" text-anchor="middle">60</text>
	<text x="3059.47" y="2053.41" style="font-family:'Helvetica';font-size:74.99px;fill:#000000" text-anchor="middle">Days since 1 Feb 2020</text>
	<text x="3059.47" y="479.93" style="font-family:'Helvetica';font-size:104.94px;fill:#1E2D53" text-anchor="middle">Male</text>
	<text x="1980.00" y="157.51" style="font-family:'Helvetica';font-size:110.01px;fill:#000000" text-anchor="middle">ONS Covid-19 death</text>
	<text x="1980.00" y="267.53" style="font-family:'Helvetica';font-size:110.01px;fill:#000000" text-anchor="middle">'</text>
	<rect x="1168.82" y="2201.21" width="1622.24" height="580.90" style="fill:#FFFFFF"/>
	<rect x="1171.70" y="2204.09" width="1616.48" height="575.14" style="fill:none;stroke:#000000;stroke-width:5.76"/>
	<line x1="1212.01" y1="2408.87" x2="1586.35" y2="2408.87" style="stroke:#1A476F;stroke-width:8.64"/>
	<line x1="2049.92" y1="2408.87" x2="2424.26" y2="2408.87" style="stroke:#90353B;stroke-width:8.64"/>
	<line x1="1212.01" y1="2548.83" x2="1586.35" y2="2548.83" style="stroke:#55752F;stroke-width:8.64"/>
	<line x1="2049.92" y1="2548.83" x2="2424.26" y2="2548.83" style="stroke:#E37E00;stroke-width:8.64"/>
	<line x1="1212.01" y1="2688.92" x2="1586.35" y2="2688.92" style="stroke:#6E8E84;stroke-width:8.64"/>
	<line x1="2049.92" y1="2688.92" x2="2424.26" y2="2688.92" style="stroke:#C10534;stroke-width:8.64"/>
	<text x="1646.37" y="2436.88" style="font-family:'Helvetica';font-size:79.94px;fill:#000000">18-&lt;40</text>
	<text x="2484.28" y="2436.88" style="font-family:'Helvetica';font-size:79.94px;fill:#000000">40-&lt;50</text>
	<text x="1646.37" y="2576.85" style="font-family:'Helvetica';font-size:79.94px;fill:#000000">50-&lt;60</text>
	<text x="2484.28" y="2576.85" style="font-family:'Helvetica';font-size:79.94px;fill:#000000">60-&lt;70</text>
	<text x="1646.37" y="2716.94" style="font-family:'Helvetica';font-size:79.94px;fill:#000000">70-&lt;80</text>
	<text x="2484.28" y="2716.94" style="font-family:'Helvetica';font-size:79.94px;fill:#000000">80+</text>
	<text x="1980.00" y="2308.96" style="font-family:'Helvetica';font-size:79.94px;fill:#000000" text-anchor="middle">Age group</text>
</svg>
